<?xml version="1.0" encoding="UTF-8"?><svg id="b" xmlns="http://www.w3.org/2000/svg" viewBox="0 0 227.17 114.57"><g id="c"><line x1="223.61" y1="2.97" x2=".61" y2="2.97" fill="none" stroke="#000" stroke-linejoin="bevel" stroke-width="2.73"/><line x1="223.61" y1="27.77" x2=".61" y2="27.77" fill="none" stroke="#000" stroke-linejoin="bevel" stroke-width="2.73"/><line x1="223.61" y1="52.57" x2=".61" y2="52.57" fill="none" stroke="#000" stroke-linejoin="bevel" stroke-width="2.73"/><line x1="223.61" y1="77.38" x2=".61" y2="77.38" fill="none" stroke="#000" stroke-linejoin="bevel" stroke-width="2.73"/><line x1="223.61" y1="102.18" x2=".61" y2="102.18" fill="none" stroke="#000" stroke-linejoin="bevel" stroke-width="2.73"/><path d="M111.11,17.85c14.57-22.98,43.71-22.98,58.28,0-14.57-15.04-43.71-15.04-58.28,0" fill-rule="evenodd" stroke="#000" stroke-linecap="round" stroke-linejoin="round" stroke-width="1.24"/><line x1="224.94" y1="1.61" x2="224.94" y2="103.53" fill="none" stroke="#000" stroke-linejoin="bevel" stroke-width="4.46"/><line x1="2.23" y1="1.61" x2="2.23" y2="103.53" fill="none" stroke="#000" stroke-linejoin="bevel" stroke-width="4.46"/><line x1="37.95" y1="44.34" x2="37.95" y2="108.38" fill="none" stroke="#000" stroke-linejoin="bevel" stroke-width="2.48"/><line x1="96.23" y1="44.34" x2="96.23" y2="108.38" fill="none" stroke="#000" stroke-linejoin="bevel" stroke-width="2.48"/><line x1="154.51" y1="44.34" x2="154.51" y2="108.38" fill="none" stroke="#000" stroke-linejoin="bevel" stroke-width="2.48"/><path d="M94.99,44.34c0,4.26,3.07,9.02,11.11,9.02,10.31,0,21.13-8.43,21.13-17.16,0-5.86-4.96-9.13-11.11-9.13-9.63,0-21.13,8.14-21.13,17.27"/><path d="M36.71,44.34c0,4.26,3.07,9.02,11.11,9.02,10.31,0,21.13-8.43,21.13-17.16,0-5.86-4.96-9.13-11.11-9.13-9.63,0-21.13,8.14-21.13,17.27"/><path d="M153.27,44.34c0,4.26,3.07,9.02,11.11,9.02,10.31,0,21.13-8.43,21.13-17.16,0-5.86-4.96-9.13-11.11-9.13-9.63,0-21.13,8.14-21.13,17.27"/><path d="M36.71,102.18h119.05v12.4H36.71v-12.4" fill-rule="evenodd"/></g></svg>