<?xml version="1.0" encoding="UTF-8"?><svg id="b" xmlns="http://www.w3.org/2000/svg" viewBox="0 0 411.16 112.97"><g id="c"><line x1=".25" y1="1.37" x2="410.25" y2="1.37" fill="none" stroke="#000" stroke-linejoin="bevel" stroke-width="2.73"/><line x1=".25" y1="26.17" x2="410.25" y2="26.17" fill="none" stroke="#000" stroke-linejoin="bevel" stroke-width="2.73"/><line x1=".25" y1="50.97" x2="410.25" y2="50.97" fill="none" stroke="#000" stroke-linejoin="bevel" stroke-width="2.73"/><line x1=".25" y1="75.77" x2="410.25" y2="75.77" fill="none" stroke="#000" stroke-linejoin="bevel" stroke-width="2.73"/><line x1=".25" y1="100.56" x2="410.25" y2="100.56" fill="none" stroke="#000" stroke-linejoin="bevel" stroke-width="2.73"/><line x1="408.93" y1="0" x2="408.93" y2="101.93" fill="none" stroke="#000" stroke-linejoin="bevel" stroke-width="4.46"/><line x1="2.23" y1="0" x2="2.23" y2="101.93" fill="none" stroke="#000" stroke-linejoin="bevel" stroke-width="4.46"/><line x1="37.95" y1="42.74" x2="37.95" y2="106.77" fill="none" stroke="#000" stroke-linejoin="bevel" stroke-width="2.48"/><line x1="98.06" y1="42.74" x2="98.06" y2="106.77" fill="none" stroke="#000" stroke-linejoin="bevel" stroke-width="2.48"/><line x1="158.17" y1="42.74" x2="158.17" y2="106.77" fill="none" stroke="#000" stroke-linejoin="bevel" stroke-width="2.48"/><line x1="218.28" y1="42.74" x2="218.28" y2="106.77" fill="none" stroke="#000" stroke-linejoin="bevel" stroke-width="2.48"/><line x1="278.39" y1="42.74" x2="278.39" y2="106.77" fill="none" stroke="#000" stroke-linejoin="bevel" stroke-width="2.48"/><line x1="338.5" y1="42.74" x2="338.5" y2="106.77" fill="none" stroke="#000" stroke-linejoin="bevel" stroke-width="2.48"/><path d="M36.71,42.73c0,4.26,3.07,9.02,11.11,9.02,10.31,0,21.13-8.43,21.13-17.16,0-5.86-4.96-9.13-11.11-9.13-9.63,0-21.13,8.14-21.13,17.27"/><path d="M96.82,42.73c0,4.26,3.07,9.02,11.11,9.02,10.31,0,21.13-8.43,21.13-17.16,0-5.86-4.96-9.13-11.11-9.13-9.63,0-21.13,8.14-21.13,17.27"/><path d="M156.93,42.73c0,4.26,3.07,9.02,11.11,9.02,10.31,0,21.13-8.43,21.13-17.16,0-5.86-4.96-9.13-11.11-9.13-9.63,0-21.13,8.14-21.13,17.27"/><path d="M217.04,42.73c0,4.26,3.07,9.02,11.11,9.02,10.31,0,21.13-8.43,21.13-17.16,0-5.86-4.96-9.13-11.11-9.13-9.63,0-21.13,8.14-21.13,17.27"/><path d="M277.15,42.73c0,4.26,3.07,9.02,11.11,9.02,10.31,0,21.13-8.43,21.13-17.16,0-5.86-4.96-9.13-11.11-9.13-9.63,0-21.13,8.14-21.13,17.27"/><path d="M337.26,42.73c0,4.26,3.07,9.02,11.11,9.02,10.31,0,21.13-8.43,21.13-17.16,0-5.86-4.96-9.13-11.11-9.13-9.63,0-21.13,8.14-21.13,17.27"/><path d="M36.71,100.56H339.74v12.4H36.71v-12.4" fill-rule="evenodd"/></g></svg>