<?xml version="1.0" encoding="UTF-8"?><svg id="b" xmlns="http://www.w3.org/2000/svg" viewBox="0 0 227.18 160.76"><g id="c"><line x1="1.19" y1="49.16" x2="225.19" y2="49.16" fill="none" stroke="#000" stroke-linejoin="bevel" stroke-width="2.73"/><line x1="1.19" y1="73.96" x2="225.19" y2="73.96" fill="none" stroke="#000" stroke-linejoin="bevel" stroke-width="2.73"/><line x1="1.19" y1="98.76" x2="225.19" y2="98.76" fill="none" stroke="#000" stroke-linejoin="bevel" stroke-width="2.73"/><line x1="1.19" y1="123.56" x2="225.19" y2="123.56" fill="none" stroke="#000" stroke-linejoin="bevel" stroke-width="2.73"/><line x1="1.19" y1="148.36" x2="225.19" y2="148.36" fill="none" stroke="#000" stroke-linejoin="bevel" stroke-width="2.73"/><line x1="2.23" y1="47.8" x2="2.23" y2="149.72" fill="none" stroke="#000" stroke-linejoin="bevel" stroke-width="4.46"/><line x1="224.95" y1="47.8" x2="224.95" y2="149.72" fill="none" stroke="#000" stroke-linejoin="bevel" stroke-width="4.46"/><line x1="37.95" y1="90.53" x2="37.95" y2="154.56" fill="none" stroke="#000" stroke-linejoin="bevel" stroke-width="2.48"/><line x1="96.23" y1="90.53" x2="96.23" y2="154.56" fill="none" stroke="#000" stroke-linejoin="bevel" stroke-width="2.48"/><line x1="154.52" y1="90.53" x2="154.52" y2="154.56" fill="none" stroke="#000" stroke-linejoin="bevel" stroke-width="2.48"/><path d="M94.99,90.53c0,4.26,3.07,9.02,11.11,9.02,10.31,0,21.13-8.43,21.13-17.16,0-5.86-4.96-9.13-11.11-9.13-9.63,0-21.13,8.14-21.13,17.27"/><path d="M36.71,90.53c0,4.26,3.07,9.02,11.11,9.02,10.31,0,21.13-8.43,21.13-17.16,0-5.86-4.96-9.13-11.11-9.13-9.63,0-21.13,8.14-21.13,17.27"/><path d="M153.28,90.53c0,4.26,3.07,9.02,11.11,9.02,10.31,0,21.13-8.43,21.13-17.16,0-5.86-4.96-9.13-11.11-9.13-9.63,0-21.13,8.14-21.13,17.27"/><path d="M166.31,23.15c-2.33,3.75-3.33,4.8-4.64,4.8-.64,0-1-.41-1-1.12,0-.52,.2-1.44,.59-2.85L168.39,0l-7.96,.59-.17,1.44h1.25c1.64,0,2.28,.36,2.28,1.23,0,.41-.12,.93-.36,1.77l-2.64,8.87c-.72-2.07-2.28-3.23-4.61-3.23-5.75,0-11.11,6.16-11.11,12.8,0,3.92,2.52,6.59,6.29,6.59,2.71,0,4.71-1.11,6.46-3.72-.03,.33-.03,.72-.03,.89,0,1.83,.96,2.83,2.72,2.83,2.52,0,4.72-1.95,7-6.19l-1.2-.72m-10-10.68c1.95,0,3.39,1.51,3.39,3.61,0,3.62-2.55,12.11-7.19,12.11-2.15,0-3.56-1.72-3.56-4.32,0-3.79,2.72-11.4,7.36-11.4m33-1.21h-3.49l-1.87,6.41c-1.64,5.56-5.33,10.11-8.16,10.11-.97,0-1.72-.75-1.72-1.72,0-.52,.11-1.16,.44-2.27l3.92-13.12-7.72,.59-.12,1.46h.95c1.64,0,2.25,.36,2.25,1.26,0,.41-.12,.97-.33,1.74l-1.59,5.39q-1.23,4-1.23,5.23c0,2.2,1.51,3.69,3.79,3.69,2.8,0,5.08-1.64,7.44-5.33-.41,1.41-.48,1.97-.48,2.72,0,1.56,1.07,2.64,2.56,2.64,2.44,0,4.39-1.64,7.23-6l-1.2-.72c-1.95,2.92-3.52,4.53-4.39,4.53-.36,0-.72-.45-.72-.97,0-.43,.16-1.2,.47-2.36l3.97-13.28"/><path d="M49.74,23.15c-2.33,3.75-3.33,4.8-4.64,4.8-.64,0-1-.41-1-1.12,0-.52,.21-1.44,.6-2.85L51.82,0l-7.95,.59-.17,1.44h1.25c1.64,0,2.28,.36,2.28,1.23,0,.41-.13,.93-.36,1.77l-2.64,8.87c-.72-2.07-2.28-3.23-4.61-3.23-5.75,0-11.11,6.16-11.11,12.8,0,3.92,2.51,6.59,6.28,6.59,2.72,0,4.72-1.11,6.47-3.72-.03,.33-.03,.72-.03,.89,0,1.83,.95,2.83,2.72,2.83,2.51,0,4.71-1.95,7-6.19l-1.21-.72m-10-10.68c1.96,0,3.39,1.51,3.39,3.61,0,3.62-2.54,12.11-7.18,12.11-2.16,0-3.57-1.72-3.57-4.32,0-3.79,2.72-11.4,7.36-11.4m33-1.21h-3.48l-1.88,6.41c-1.64,5.56-5.32,10.11-8.15,10.11-.97,0-1.72-.75-1.72-1.72,0-.52,.11-1.16,.44-2.27l3.92-13.12-7.72,.59-.13,1.46h.96c1.64,0,2.25,.36,2.25,1.26,0,.41-.13,.97-.33,1.74l-1.59,5.39q-1.24,4-1.24,5.23c0,2.2,1.52,3.69,3.8,3.69,2.79,0,5.08-1.64,7.44-5.33-.41,1.41-.49,1.97-.49,2.72,0,1.56,1.08,2.64,2.56,2.64,2.44,0,4.39-1.64,7.24-6l-1.21-.72c-1.95,2.92-3.51,4.53-4.39,4.53-.36,0-.71-.45-.71-.97,0-.43,.15-1.2,.46-2.36l3.97-13.28"/><path d="M105.95,10.12c.64-.57,1-.75,1.47-.75,.4,0,.73,.18,1.04,.64,.64,.87,.88,1.03,1.52,1.03,.92,0,1.61-.75,1.61-1.75,0-1.17-1.13-2.1-2.53-2.1s-2.47,.53-4.55,2.18c-1.25-.57-2.17-.77-3.45-.77-4.44,0-8.19,3.16-8.19,6.84,0,1.93,.75,3.24,2.47,4.16-1.83,.23-2.67,.52-3.6,1.31-.79,.64-1.31,1.72-1.31,2.69,0,1.36,.64,2.2,2.19,2.95-2.36,.53-5.11,1.53-5.11,4.44,0,4,5.28,4.48,8.2,4.48,3.96,0,6.24-.48,8.19-1.76,1.72-1.11,2.72-2.83,2.72-4.72,0-4.03-4.28-4.52-7.36-4.72-3.55-.19-3.83-.23-4.39-.36-1-.23-1.49-.72-1.49-1.39,0-.97,.96-1.61,2.41-1.61,.52,0,1.11,.05,1.64,.13,1.64,.23,1.88,.28,2.88,.28,2.23,0,4-.56,5.39-1.69,1.61-1.23,2.61-3.23,2.61-5.08s-.8-3.31-2.36-4.43m-4.61,0c2.09,0,3.4,1.25,3.4,3.2,0,2.87-1.31,6.51-4.71,6.51-2.16,0-3.52-1.36-3.52-3.59,0-3.59,1.95-6.12,4.83-6.12m-4.88,17.15c1.8,0,4.69,.41,5.6,.77,1,.43,1.48,1.12,1.48,2.12,0,2.36-2.51,3.64-7.11,3.64-3.89,0-5.69-.97-5.69-3.09s2.08-3.44,5.72-3.44m35.57-18.08h-3.49l-1.87,6.41c-1.64,5.56-5.33,10.11-8.16,10.11-.97,0-1.72-.75-1.72-1.72,0-.52,.11-1.16,.44-2.27l3.92-13.12-7.72,.59-.12,1.46h.95c1.64,0,2.25,.36,2.25,1.26,0,.41-.13,.97-.33,1.74l-1.59,5.39q-1.24,4-1.24,5.23c0,2.2,1.52,3.69,3.8,3.69,2.8,0,5.08-1.64,7.44-5.33-.41,1.41-.49,1.97-.49,2.72,0,1.56,1.08,2.64,2.57,2.64,2.43,0,4.39-1.64,7.23-6l-1.2-.72c-1.96,2.92-3.52,4.53-4.39,4.53-.36,0-.72-.45-.72-.97,0-.43,.15-1.2,.47-2.36l3.97-13.28"/><path d="M36.71,148.36h119.05v12.4H36.71v-12.4" fill-rule="evenodd"/></g></svg>