<?xml version="1.0" encoding="UTF-8"?><svg id="b" xmlns="http://www.w3.org/2000/svg" viewBox="0 0 2275.2 545.23"><g id="c"><line y1="57.06" x2="2275.2" y2="57.06" fill="none" stroke="#000" stroke-linejoin="bevel" stroke-width="2.73"/><line y1="81.86" x2="2275.2" y2="81.86" fill="none" stroke="#000" stroke-linejoin="bevel" stroke-width="2.73"/><line y1="106.66" x2="2275.2" y2="106.66" fill="none" stroke="#000" stroke-linejoin="bevel" stroke-width="2.73"/><line y1="131.46" x2="2275.2" y2="131.46" fill="none" stroke="#000" stroke-linejoin="bevel" stroke-width="2.73"/><line y1="156.26" x2="2275.2" y2="156.26" fill="none" stroke="#000" stroke-linejoin="bevel" stroke-width="2.73"/><line y1="400.26" x2="2275.2" y2="400.26" fill="none" stroke="#000" stroke-linejoin="bevel" stroke-width="2.73"/><line y1="425.06" x2="2275.2" y2="425.06" fill="none" stroke="#000" stroke-linejoin="bevel" stroke-width="2.73"/><line y1="449.86" x2="2275.2" y2="449.86" fill="none" stroke="#000" stroke-linejoin="bevel" stroke-width="2.73"/><line y1="474.66" x2="2275.2" y2="474.66" fill="none" stroke="#000" stroke-linejoin="bevel" stroke-width="2.73"/><line y1="499.46" x2="2275.2" y2="499.46" fill="none" stroke="#000" stroke-linejoin="bevel" stroke-width="2.73"/><path d="M758.17,166.18c25.76,11.9,66.19-.5,80.85-24.8-12.33,31.89-52.76,44.29-80.85,24.8" fill-rule="evenodd" stroke="#000" stroke-linecap="round" stroke-linejoin="round" stroke-width="1.24"/><path d="M1695.77,484.58c17.81,25.89,64.01,38.29,92.39,24.8-30.44,21.16-76.64,8.76-92.39-24.8" fill-rule="evenodd" stroke="#000" stroke-linecap="round" stroke-linejoin="round" stroke-width="1.24"/><path d="M1418.57,534.18c28.38,13.49,74.58,1.09,92.4-24.8-15.76,33.56-61.96,45.96-92.4,24.8" fill-rule="evenodd" stroke="#000" stroke-linecap="round" stroke-linejoin="round" stroke-width="1.24"/><path d="M1522.51,34.74c25.57-21.89,65.99-13.58,80.85,16.62-16.46-22.43-56.88-30.74-80.85-16.62" fill-rule="evenodd" stroke="#000" stroke-linecap="round" stroke-linejoin="round" stroke-width="1.24"/><path d="M1104.67,455.57c16.95,26.84,63.15,41.35,92.4,29.01-31.63,19.91-77.83,5.4-92.4-29.01" fill-rule="evenodd" stroke="#000" stroke-linecap="round" stroke-linejoin="round" stroke-width="1.24"/><path d="M827.47,509.38c28.39,13.49,74.59,1.09,92.4-24.8-15.76,33.56-61.96,45.96-92.4,24.8" fill-rule="evenodd" stroke="#000" stroke-linecap="round" stroke-linejoin="round" stroke-width="1.24"/><path d="M1000.72,112.36c13.75,25.24,54.18,39.75,80.85,29.02-29.35,18.2-69.78,3.69-80.85-29.02" fill-rule="evenodd" stroke="#000" stroke-linecap="round" stroke-linejoin="round" stroke-width="1.24"/><path d="M2044.31,9.94c28.09-19.48,68.51-7.08,80.84,24.8-14.66-24.3-55.08-36.7-80.84-24.8" fill-rule="evenodd" stroke="#000" stroke-linecap="round" stroke-linejoin="round" stroke-width="1.24"/><path d="M513.57,377.94c28.07-23.5,74.27-15.19,92.4,16.62-19.53-24-65.73-32.3-92.4-16.62" fill-rule="evenodd" stroke="#000" stroke-linecap="round" stroke-linejoin="round" stroke-width="1.24"/><path d="M236.38,439.94c10.21-37.58,56.41-60.27,92.4-45.38-32.49-7.77-78.69,14.92-92.4,45.38" fill-rule="evenodd" stroke="#000" stroke-linecap="round" stroke-linejoin="round" stroke-width="1.24"/><path d="M1801.76,51.36c14.86-30.2,55.28-38.51,80.85-16.62-23.97-14.12-64.39-5.81-80.85,16.62" fill-rule="evenodd" stroke="#000" stroke-linecap="round" stroke-linejoin="round" stroke-width="1.24"/><path d="M1279.97,96.74c6.53-35.71,46.95-58.4,80.84-45.38-30-6.1-70.43,16.59-80.84,45.38" fill-rule="evenodd" stroke="#000" stroke-linecap="round" stroke-linejoin="round" stroke-width="1.24"/><path d="M236.38,190.98c25.76,11.9,66.19-.5,80.85-24.8-12.33,31.89-52.76,44.29-80.85,24.8" fill-rule="evenodd" stroke="#000" stroke-linecap="round" stroke-linejoin="round" stroke-width="1.24"/><path d="M478.92,141.38c14.66,24.3,55.09,36.7,80.85,24.8-28.09,19.49-68.51,7.09-80.85-24.8" fill-rule="evenodd" stroke="#000" stroke-linecap="round" stroke-linejoin="round" stroke-width="1.24"/><line x1="1959.08" y1="398.9" x2="1959.08" y2="500.83" fill="none" stroke="#000" stroke-linejoin="bevel" stroke-width="4.46"/><line x1="1367.98" y1="398.9" x2="1367.98" y2="500.83" fill="none" stroke="#000" stroke-linejoin="bevel" stroke-width="4.46"/><line x1="776.89" y1="398.9" x2="776.89" y2="500.83" fill="none" stroke="#000" stroke-linejoin="bevel" stroke-width="4.46"/><line x1="2272.97" y1="55.7" x2="2272.97" y2="157.62" fill="none" stroke="#000" stroke-linejoin="bevel" stroke-width="4.46"/><line x1="1751.17" y1="55.7" x2="1751.17" y2="157.62" fill="none" stroke="#000" stroke-linejoin="bevel" stroke-width="4.46"/><line x1="1229.38" y1="55.7" x2="1229.38" y2="157.62" fill="none" stroke="#000" stroke-linejoin="bevel" stroke-width="4.46"/><line x1="707.58" y1="55.7" x2="707.58" y2="157.62" fill="none" stroke="#000" stroke-linejoin="bevel" stroke-width="4.46"/><line x1="2259.33" y1="398.9" x2="2259.33" y2="500.83" fill="none" stroke="#000" stroke-linejoin="bevel" stroke-width="4.46"/><line x1="2272.97" y1="398.9" x2="2272.97" y2="500.83" fill="none" stroke="#000" stroke-linejoin="bevel" stroke-width="4.46"/><line x1="1939.16" y1="32.26" x2="1987.76" y2="32.26" fill="none" stroke="#000" stroke-linejoin="bevel" stroke-width="3.97"/><line x1="2020.01" y1="32.26" x2="2068.61" y2="32.26" fill="none" stroke="#000" stroke-linejoin="bevel" stroke-width="3.97"/><line x1="251.25" y1="164.69" x2="251.25" y2="63.17" fill="none" stroke="#000" stroke-linejoin="bevel" stroke-width="2.48"/><line x1="332.1" y1="139.89" x2="332.1" y2="57.06" fill="none" stroke="#000" stroke-linejoin="bevel" stroke-width="2.48"/><line x1="412.95" y1="115.09" x2="412.95" y2="50.95" fill="none" stroke="#000" stroke-linejoin="bevel" stroke-width="2.48"/><line x1="493.8" y1="115.09" x2="493.8" y2="50.95" fill="none" stroke="#000" stroke-linejoin="bevel" stroke-width="2.48"/><line x1="574.65" y1="139.89" x2="574.65" y2="57.06" fill="none" stroke="#000" stroke-linejoin="bevel" stroke-width="2.48"/><line x1="655.5" y1="164.69" x2="655.5" y2="63.17" fill="none" stroke="#000" stroke-linejoin="bevel" stroke-width="2.48"/><line x1="773.05" y1="139.89" x2="773.05" y2="38.32" fill="none" stroke="#000" stroke-linejoin="bevel" stroke-width="2.48"/><line x1="853.9" y1="115.09" x2="853.9" y2="29.16" fill="none" stroke="#000" stroke-linejoin="bevel" stroke-width="2.48"/><line x1="934.74" y1="77.89" x2="934.74" y2="20" fill="none" stroke="#000" stroke-linejoin="bevel" stroke-width="2.48"/><line x1="1015.59" y1="77.89" x2="1015.59" y2="20" fill="none" stroke="#000" stroke-linejoin="bevel" stroke-width="2.48"/><line x1="1096.44" y1="115.09" x2="1096.44" y2="29.16" fill="none" stroke="#000" stroke-linejoin="bevel" stroke-width="2.48"/><line x1="1177.29" y1="139.89" x2="1177.29" y2="38.32" fill="none" stroke="#000" stroke-linejoin="bevel" stroke-width="2.48"/><line x1="1265.09" y1="123.23" x2="1265.09" y2="187.12" fill="none" stroke="#000" stroke-linejoin="bevel" stroke-width="2.48"/><line x1="1345.94" y1="86.03" x2="1345.94" y2="177.96" fill="none" stroke="#000" stroke-linejoin="bevel" stroke-width="2.48"/><line x1="1426.79" y1="61.23" x2="1426.79" y2="168.8" fill="none" stroke="#000" stroke-linejoin="bevel" stroke-width="2.48"/><line x1="1507.63" y1="61.23" x2="1507.63" y2="168.8" fill="none" stroke="#000" stroke-linejoin="bevel" stroke-width="2.48"/><line x1="1588.48" y1="86.03" x2="1588.48" y2="177.96" fill="none" stroke="#000" stroke-linejoin="bevel" stroke-width="2.48"/><line x1="1669.33" y1="123.23" x2="1669.33" y2="187.12" fill="none" stroke="#000" stroke-linejoin="bevel" stroke-width="2.48"/><line x1="1786.88" y1="86.03" x2="1786.88" y2="156.21" fill="none" stroke="#000" stroke-linejoin="bevel" stroke-width="2.48"/><line x1="1867.73" y1="61.23" x2="1867.73" y2="153.16" fill="none" stroke="#000" stroke-linejoin="bevel" stroke-width="2.48"/><line x1="1948.58" y1="36.43" x2="1948.58" y2="150.11" fill="none" stroke="#000" stroke-linejoin="bevel" stroke-width="2.48"/><line x1="2029.43" y1="36.43" x2="2029.43" y2="150.11" fill="none" stroke="#000" stroke-linejoin="bevel" stroke-width="2.48"/><line x1="2110.28" y1="61.23" x2="2110.28" y2="153.16" fill="none" stroke="#000" stroke-linejoin="bevel" stroke-width="2.48"/><line x1="2191.13" y1="86.03" x2="2191.13" y2="156.21" fill="none" stroke="#000" stroke-linejoin="bevel" stroke-width="2.48"/><line x1="221.5" y1="466.43" x2="221.5" y2="530.34" fill="none" stroke="#000" stroke-linejoin="bevel" stroke-width="2.48"/><line x1="313.9" y1="429.23" x2="313.9" y2="521.16" fill="none" stroke="#000" stroke-linejoin="bevel" stroke-width="2.48"/><line x1="406.3" y1="404.43" x2="406.3" y2="511.98" fill="none" stroke="#000" stroke-linejoin="bevel" stroke-width="2.48"/><line x1="498.7" y1="404.43" x2="498.7" y2="511.98" fill="none" stroke="#000" stroke-linejoin="bevel" stroke-width="2.48"/><line x1="591.1" y1="429.23" x2="591.1" y2="521.16" fill="none" stroke="#000" stroke-linejoin="bevel" stroke-width="2.48"/><line x1="683.5" y1="466.43" x2="683.5" y2="530.34" fill="none" stroke="#000" stroke-linejoin="bevel" stroke-width="2.48"/><line x1="842.35" y1="483.09" x2="842.35" y2="381.54" fill="none" stroke="#000" stroke-linejoin="bevel" stroke-width="2.48"/><line x1="934.75" y1="458.29" x2="934.75" y2="372.36" fill="none" stroke="#000" stroke-linejoin="bevel" stroke-width="2.48"/><line x1="1027.15" y1="421.09" x2="1027.15" y2="363.18" fill="none" stroke="#000" stroke-linejoin="bevel" stroke-width="2.48"/><line x1="1119.55" y1="421.09" x2="1119.55" y2="363.18" fill="none" stroke="#000" stroke-linejoin="bevel" stroke-width="2.48"/><line x1="1211.94" y1="458.29" x2="1211.94" y2="372.36" fill="none" stroke="#000" stroke-linejoin="bevel" stroke-width="2.48"/><line x1="1304.34" y1="483.09" x2="1304.34" y2="381.54" fill="none" stroke="#000" stroke-linejoin="bevel" stroke-width="2.48"/><line x1="1433.45" y1="507.89" x2="1433.45" y2="406.38" fill="none" stroke="#000" stroke-linejoin="bevel" stroke-width="2.48"/><line x1="1525.84" y1="483.09" x2="1525.84" y2="400.26" fill="none" stroke="#000" stroke-linejoin="bevel" stroke-width="2.48"/><line x1="1618.24" y1="458.29" x2="1618.24" y2="394.14" fill="none" stroke="#000" stroke-linejoin="bevel" stroke-width="2.48"/><line x1="1710.64" y1="458.29" x2="1710.64" y2="394.14" fill="none" stroke="#000" stroke-linejoin="bevel" stroke-width="2.48"/><line x1="1803.04" y1="483.09" x2="1803.04" y2="400.26" fill="none" stroke="#000" stroke-linejoin="bevel" stroke-width="2.48"/><line x1="1895.44" y1="507.89" x2="1895.44" y2="406.38" fill="none" stroke="#000" stroke-linejoin="bevel" stroke-width="2.48"/><line x1="1994.79" y1="429.23" x2="1994.79" y2="511.86" fill="none" stroke="#000" stroke-linejoin="bevel" stroke-width="2.48"/><path d="M312.66,429.23c0,4.26,3.07,9.02,11.11,9.02,10.31,0,21.13-8.43,21.13-17.16,0-5.86-4.96-9.13-11.11-9.13-9.63,0-21.13,8.14-21.13,17.27"/><path d="M405.06,404.43c0,4.26,3.07,9.02,11.11,9.02,10.31,0,21.13-8.43,21.13-17.16,0-5.86-4.96-9.13-11.11-9.13-9.63,0-21.13,8.14-21.13,17.27"/><path d="M497.46,404.43c0,4.26,3.07,9.02,11.11,9.02,10.31,0,21.13-8.43,21.13-17.16,0-5.86-4.96-9.13-11.11-9.13-9.63,0-21.13,8.14-21.13,17.27"/><path d="M589.86,429.23c0,4.26,3.07,9.02,11.11,9.02,10.31,0,21.13-8.43,21.13-17.16,0-5.86-4.96-9.13-11.11-9.13-9.63,0-21.13,8.14-21.13,17.27"/><path d="M682.26,466.43c0,4.26,3.07,9.02,11.11,9.02,10.31,0,21.13-8.43,21.13-17.16,0-5.86-4.96-9.13-11.11-9.13-9.63,0-21.13,8.14-21.13,17.27"/><path d="M811.36,491.23c0,4.26,3.07,9.02,11.11,9.02,10.31,0,21.13-8.43,21.13-17.16,0-5.86-4.96-9.13-11.11-9.13-9.63,0-21.13,8.14-21.13,17.27"/><path d="M903.76,466.43c0,4.26,3.07,9.02,11.11,9.02,10.31,0,21.13-8.43,21.13-17.16,0-5.86-4.96-9.13-11.11-9.13-9.63,0-21.13,8.14-21.13,17.27"/><path d="M996.15,429.23c0,4.26,3.07,9.02,11.11,9.02,10.31,0,21.13-8.43,21.13-17.16,0-5.86-4.96-9.13-11.11-9.13-9.63,0-21.13,8.14-21.13,17.27"/><path d="M1088.55,429.23c0,4.26,3.07,9.02,11.11,9.02,10.31,0,21.13-8.43,21.13-17.16,0-5.86-4.96-9.13-11.11-9.13-9.63,0-21.13,8.14-21.13,17.27"/><path d="M1180.95,466.43c0,4.26,3.07,9.02,11.11,9.02,10.31,0,21.13-8.43,21.13-17.16,0-5.86-4.96-9.13-11.11-9.13-9.63,0-21.13,8.14-21.13,17.27"/><path d="M1273.35,491.23c0,4.26,3.07,9.02,11.11,9.02,10.31,0,21.13-8.43,21.13-17.16,0-5.86-4.96-9.13-11.11-9.13-9.63,0-21.13,8.14-21.13,17.27"/><path d="M1402.45,516.03c0,4.26,3.07,9.02,11.11,9.02,10.31,0,21.13-8.43,21.13-17.16,0-5.86-4.96-9.13-11.11-9.13-9.63,0-21.13,8.14-21.13,17.27"/><path d="M1494.85,491.23c0,4.26,3.07,9.02,11.11,9.02,10.31,0,21.13-8.43,21.13-17.16,0-5.86-4.96-9.13-11.11-9.13-9.63,0-21.13,8.14-21.13,17.27"/><path d="M1587.25,466.43c0,4.26,3.07,9.02,11.11,9.02,10.31,0,21.13-8.43,21.13-17.16,0-5.86-4.96-9.13-11.11-9.13-9.63,0-21.13,8.14-21.13,17.27"/><path d="M1679.65,466.43c0,4.26,3.07,9.02,11.11,9.02,10.31,0,21.13-8.43,21.13-17.16,0-5.86-4.96-9.13-11.11-9.13-9.63,0-21.13,8.14-21.13,17.27"/><path d="M1772.05,491.23c0,4.26,3.07,9.02,11.11,9.02,10.31,0,21.13-8.43,21.13-17.16,0-5.86-4.96-9.13-11.11-9.13-9.63,0-21.13,8.14-21.13,17.27"/><path d="M220.26,172.83c0,4.26,3.07,9.02,11.11,9.02,10.31,0,21.13-8.43,21.13-17.16,0-5.86-4.96-9.13-11.11-9.13-9.63,0-21.13,8.14-21.13,17.27"/><path d="M1864.45,516.03c0,4.26,3.07,9.02,11.11,9.02,10.31,0,21.13-8.43,21.13-17.16,0-5.86-4.96-9.13-11.11-9.13-9.63,0-21.13,8.14-21.13,17.27"/><path d="M301.11,148.03c0,4.26,3.07,9.02,11.11,9.02,10.31,0,21.13-8.43,21.13-17.16,0-5.86-4.96-9.13-11.11-9.13-9.63,0-21.13,8.14-21.13,17.27"/><path d="M381.96,123.23c0,4.26,3.07,9.02,11.11,9.02,10.31,0,21.13-8.43,21.13-17.16,0-5.86-4.96-9.13-11.11-9.13-9.63,0-21.13,8.14-21.13,17.27"/><path d="M462.81,123.23c0,4.26,3.07,9.02,11.11,9.02,10.31,0,21.13-8.43,21.13-17.16,0-5.86-4.96-9.13-11.11-9.13-9.63,0-21.13,8.14-21.13,17.27"/><path d="M543.66,148.03c0,4.26,3.07,9.02,11.11,9.02,10.31,0,21.13-8.43,21.13-17.16,0-5.86-4.96-9.13-11.11-9.13-9.63,0-21.13,8.14-21.13,17.27"/><path d="M1425.55,61.23c0,4.26,3.07,9.02,11.11,9.02,10.31,0,21.13-8.43,21.13-17.16,0-5.86-4.96-9.13-11.11-9.13-9.63,0-21.13,8.14-21.13,17.27"/><path d="M624.51,172.83c0,4.26,3.07,9.02,11.11,9.02,10.31,0,21.13-8.43,21.13-17.16,0-5.86-4.96-9.13-11.11-9.13-9.63,0-21.13,8.14-21.13,17.27"/><path d="M742.06,148.03c0,4.26,3.07,9.02,11.11,9.02,10.31,0,21.13-8.43,21.13-17.16,0-5.86-4.96-9.13-11.11-9.13-9.63,0-21.13,8.14-21.13,17.27"/><path d="M2014.68,411.96c-9.63,0-21.13,8.04-21.13,17.27,0,4.26,3.07,9.02,11.11,9.02,10.31,0,21.13-8.43,21.13-17.16,0-5.86-4.96-9.13-11.11-9.13m-13.69,21.62c-3.27,0-3.97-2.67-3.97-3.56,0-4.87,16.66-13.39,21.33-13.39,2.39,0,3.97,1.39,3.97,3.56,0,4.96-16.77,13.39-21.33,13.39"/><path d="M822.9,123.23c0,4.26,3.07,9.02,11.11,9.02,10.31,0,21.13-8.43,21.13-17.16,0-5.86-4.96-9.13-11.11-9.13-9.63,0-21.13,8.14-21.13,17.27"/><path d="M903.75,86.03c0,4.26,3.07,9.02,11.11,9.02,10.31,0,21.13-8.43,21.13-17.16,0-5.86-4.96-9.13-11.11-9.13-9.63,0-21.13,8.14-21.13,17.27"/><path d="M984.6,86.03c0,4.26,3.07,9.02,11.11,9.02,10.31,0,21.13-8.43,21.13-17.16,0-5.86-4.96-9.13-11.11-9.13-9.63,0-21.13,8.14-21.13,17.27"/><path d="M1065.45,123.23c0,4.26,3.07,9.02,11.11,9.02,10.31,0,21.13-8.43,21.13-17.16,0-5.86-4.96-9.13-11.11-9.13-9.63,0-21.13,8.14-21.13,17.27"/><path d="M1146.3,148.03c0,4.26,3.07,9.02,11.11,9.02,10.31,0,21.13-8.43,21.13-17.16,0-5.86-4.96-9.13-11.11-9.13-9.63,0-21.13,8.14-21.13,17.27"/><path d="M1263.85,123.23c0,4.26,3.07,9.02,11.11,9.02,10.31,0,21.13-8.43,21.13-17.16,0-5.86-4.96-9.13-11.11-9.13-9.63,0-21.13,8.14-21.13,17.27"/><path d="M1344.7,86.03c0,4.26,3.07,9.02,11.11,9.02,10.31,0,21.13-8.43,21.13-17.16,0-5.86-4.96-9.13-11.11-9.13-9.63,0-21.13,8.14-21.13,17.27"/><path d="M2189.89,86.03c0,4.26,3.07,9.02,11.11,9.02,10.31,0,21.13-8.43,21.13-17.16,0-5.86-4.96-9.13-11.11-9.13-9.63,0-21.13,8.14-21.13,17.27"/><path d="M1506.39,61.23c0,4.26,3.07,9.02,11.11,9.02,10.31,0,21.13-8.43,21.13-17.16,0-5.86-4.96-9.13-11.11-9.13-9.63,0-21.13,8.14-21.13,17.27"/><path d="M1587.24,86.03c0,4.26,3.07,9.02,11.11,9.02,10.31,0,21.13-8.43,21.13-17.16,0-5.86-4.96-9.13-11.11-9.13-9.63,0-21.13,8.14-21.13,17.27"/><path d="M1668.09,123.23c0,4.26,3.07,9.02,11.11,9.02,10.31,0,21.13-8.43,21.13-17.16,0-5.86-4.96-9.13-11.11-9.13-9.63,0-21.13,8.14-21.13,17.27"/><path d="M1785.64,86.03c0,4.26,3.07,9.02,11.11,9.02,10.31,0,21.13-8.43,21.13-17.16,0-5.86-4.96-9.13-11.11-9.13-9.63,0-21.13,8.14-21.13,17.27"/><path d="M1866.49,61.23c0,4.26,3.07,9.02,11.11,9.02,10.31,0,21.13-8.43,21.13-17.16,0-5.86-4.96-9.13-11.11-9.13-9.63,0-21.13,8.14-21.13,17.27"/><path d="M1947.34,36.43c0,4.26,3.07,9.02,11.11,9.02,10.31,0,21.13-8.43,21.13-17.16,0-5.86-4.96-9.13-11.11-9.13-9.63,0-21.13,8.14-21.13,17.27"/><path d="M2028.19,36.43c0,4.26,3.07,9.02,11.11,9.02,10.31,0,21.13-8.43,21.13-17.16,0-5.86-4.96-9.13-11.11-9.13-9.63,0-21.13,8.14-21.13,17.27"/><path d="M2109.04,61.23c0,4.26,3.07,9.02,11.11,9.02,10.31,0,21.13-8.43,21.13-17.16,0-5.86-4.96-9.13-11.11-9.13-9.63,0-21.13,8.14-21.13,17.27"/><path d="M220.26,466.43c0,4.26,3.07,9.02,11.11,9.02,10.31,0,21.13-8.43,21.13-17.16,0-5.86-4.96-9.13-11.11-9.13-9.63,0-21.13,8.14-21.13,17.27"/><path d="M30.8,182.34c0,6.56,4.96,15.19,18.35,15.19,4.67,0,8.74-1.19,12.31-3.38,5.36-3.77,6.74-10.32,6.74-16.57,0-3.86-.59-8.32-1.58-13.98-.29-1.98-.9-4.96-1.49-8.84,9.72-3.18,16.96-13.3,16.96-23.51,0-14.97-10.62-25.09-25.09-25.09-.99-5.95-1.98-11.81-2.77-17.36,10.42-11.02,17.65-23.42,17.65-39.18,0-9.04-2.77-16.37-4.37-19.95-2.37-5.05-5.25-8.53-7.04-8.53-.7,0-3.77,1.19-7.04,5.05-6.36,7.55-8.14,20.24-8.14,28.57,0,5.36,.5,10.23,2.19,21.34-.11,.09-5.27,5.35-7.35,7.04-9.04,8.34-21.53,20.43-21.53,40.28,0,18.54,16.17,33.12,34.63,33.12,2.87,0,5.55-.29,7.83-.7,1.89,9.53,3.08,16.48,3.08,21.73,0,10.32-5.36,15.78-15.38,15.78-2.39,0-4.46-.5-4.67-.5-.09-.11-.29-.2-.29-.29,0-.2,.2-.31,.5-.31,4.67-.79,9.32-4.76,9.32-11.1,0-5.36-4.06-11.02-11.5-11.02-6.94,0-11.31,5.66-11.31,12.2M51.54,49.91c.9-3.97,5.46-14.38,10.62-14.38,1.49,0,3.86,4.76,3.86,11.7,0,10.32-7.63,18.06-14.48,24.8-.59-3.97-1.08-7.83-1.08-12,0-3.67,.29-7.05,1.08-10.12m8.73,101.97c-1.98,.4-3.86,.6-5.75,.6-14.18,0-26.29-9.92-26.29-24.91,0-12.09,8.53-22.91,17.27-30.46,1.67-1.49,3.27-2.87,4.76-4.36,.88,5.35,1.58,10.01,2.28,14.09-9.04,2.68-15.17,12.2-15.17,21.53,0,6.94,5.46,16.46,13.39,16.46,.79,0,1.69-.4,1.69-1.29s-.99-1.39-2.19-2.19c-3.88-2.39-6.06-4.96-6.06-9.83,0-6.04,4.57-10.91,10.32-12.29l5.75,32.63m14.09-18.35c0,7.05-2.88,14.29-9.92,17.17-2.08-11.9-4.76-27.68-5.46-32.05,8.93,0,15.38,6.06,15.38,14.88"/><path d="M30.8,525.54c0,6.56,4.96,15.19,18.35,15.19,4.67,0,8.74-1.19,12.31-3.38,5.36-3.77,6.74-10.32,6.74-16.57,0-3.86-.59-8.32-1.58-13.98-.29-1.98-.9-4.96-1.49-8.84,9.72-3.18,16.96-13.3,16.96-23.51,0-14.97-10.62-25.09-25.09-25.09-.99-5.95-1.98-11.81-2.77-17.36,10.42-11.02,17.65-23.42,17.65-39.18,0-9.04-2.77-16.37-4.37-19.95-2.37-5.05-5.25-8.53-7.04-8.53-.7,0-3.77,1.19-7.04,5.05-6.36,7.55-8.14,20.24-8.14,28.57,0,5.36,.5,10.23,2.19,21.34-.11,.09-5.27,5.35-7.35,7.04-9.04,8.34-21.53,20.43-21.53,40.28,0,18.54,16.17,33.12,34.63,33.12,2.87,0,5.55-.29,7.83-.7,1.89,9.53,3.08,16.48,3.08,21.73,0,10.32-5.36,15.78-15.38,15.78-2.39,0-4.46-.5-4.67-.5-.09-.11-.29-.2-.29-.29,0-.2,.2-.31,.5-.31,4.67-.79,9.32-4.76,9.32-11.1,0-5.36-4.06-11.02-11.5-11.02-6.94,0-11.31,5.66-11.31,12.2m20.74-132.43c.9-3.97,5.46-14.38,10.62-14.38,1.49,0,3.86,4.76,3.86,11.7,0,10.32-7.63,18.06-14.48,24.8-.59-3.97-1.08-7.83-1.08-12,0-3.67,.29-7.05,1.08-10.12m8.73,101.97c-1.98,.4-3.86,.6-5.75,.6-14.18,0-26.29-9.92-26.29-24.91,0-12.09,8.53-22.91,17.27-30.46,1.67-1.49,3.27-2.87,4.76-4.36,.88,5.35,1.58,10.01,2.28,14.09-9.04,2.68-15.17,12.2-15.17,21.53,0,6.94,5.46,16.46,13.39,16.46,.79,0,1.69-.4,1.69-1.29s-.99-1.39-2.19-2.19c-3.88-2.39-6.06-4.96-6.06-9.83,0-6.04,4.57-10.91,10.32-12.29l5.75,32.63m14.09-18.35c0,7.05-2.88,14.29-9.92,17.17-2.08-11.9-4.76-27.68-5.46-32.05,8.93,0,15.38,6.06,15.38,14.88"/><path d="M129.99,389.84c.6-.09,1.1-.79,1.1-1.4v-5.84c0-.99-.7-1.39-1.6-1.39l-3.27,.7v-14.79h-2.77v15.38l-8.83,1.8v-14h-2.77v14.59l-3.87,.79c-.59,.11-1.08,.79-1.08,1.39v5.75c0,1.08,.79,1.39,1.69,1.39l3.27-.7v16.37l-3.87,.79c-.59,.09-1.08,.79-1.08,1.4v5.75c0,1.09,.79,1.38,1.69,1.38l3.27-.68v14.77h2.77v-15.38l8.83-1.78v14h2.77v-14.59l3.77-.7c.6-.11,1.1-.79,1.1-1.39v-5.84c0-.99-.7-1.39-1.6-1.39l-3.27,.7v-16.37l3.77-.7m-15.38,3.07l8.83-1.78v16.37l-8.83,1.89v-16.48"/><path d="M157.16,427.04c.6-.09,1.1-.79,1.1-1.4v-5.84c0-.99-.7-1.39-1.6-1.39l-3.27,.7v-14.79h-2.77v15.38l-8.83,1.8v-14h-2.77v14.59l-3.87,.79c-.59,.11-1.08,.79-1.08,1.39v5.75c0,1.08,.79,1.39,1.69,1.39l3.27-.7v16.37l-3.87,.79c-.59,.09-1.08,.79-1.08,1.4v5.75c0,1.09,.79,1.38,1.69,1.38l3.27-.68v14.77h2.77v-15.38l8.83-1.78v14h2.77v-14.59l3.77-.7c.6-.11,1.1-.79,1.1-1.39v-5.84c0-.99-.7-1.39-1.6-1.39l-3.27,.7v-16.37l3.77-.7m-15.38,3.07l8.83-1.78v16.37l-8.83,1.89v-16.48"/><path d="M129.99,46.64c.6-.09,1.1-.79,1.1-1.4v-5.84c0-.99-.7-1.39-1.6-1.39l-3.27,.7v-14.79h-2.77v15.38l-8.83,1.8v-14h-2.77v14.59l-3.87,.79c-.59,.11-1.08,.79-1.08,1.39v5.75c0,1.08,.79,1.39,1.69,1.39l3.27-.7v16.37l-3.87,.79c-.59,.09-1.08,.79-1.08,1.4v5.75c0,1.09,.79,1.38,1.69,1.38l3.27-.68v14.77h2.77v-15.38l8.83-1.78v14h2.77v-14.59l3.77-.7c.6-.11,1.1-.79,1.1-1.39v-5.84c0-.99-.7-1.39-1.6-1.39l-3.27,.7v-16.37l3.77-.7m-15.38,3.07l8.83-1.78v16.37l-8.83,1.89v-16.48"/><path d="M157.16,83.84c.6-.09,1.1-.79,1.1-1.4v-5.84c0-.99-.7-1.39-1.6-1.39l-3.27,.7v-14.79h-2.77v15.38l-8.83,1.8v-14h-2.77v14.59l-3.87,.79c-.59,.11-1.08,.79-1.08,1.39v5.75c0,1.08,.79,1.39,1.69,1.39l3.27-.7v16.37l-3.87,.79c-.59,.09-1.08,.79-1.08,1.4v5.75c0,1.09,.79,1.38,1.69,1.38l3.27-.68v14.77h2.77v-15.38l8.83-1.78v14h2.77v-14.59l3.77-.7c.6-.11,1.1-.79,1.1-1.39v-5.84c0-.99-.7-1.39-1.6-1.39l-3.27,.7v-16.37l3.77-.7m-15.38,3.07l8.83-1.78v16.37l-8.83,1.89v-16.48"/><path d="M2032.39,362.06c-9.32-10.12-17.56-10.71-22.71-10.71s-13.3,.59-22.63,10.71c-4.85,5.36-8.23,15.96-8.23,21.33,0,1.89,.4,3.18,1.39,3.18,2.77,0,1.38-8.54,9.72-16.97,7.33-7.33,17.16-7.44,19.55-7.44h.39c2.39,0,12.21,.11,19.55,7.44,8.34,8.43,6.94,16.97,9.72,16.97,.99,0,1.39-1.19,1.39-3.18,0-5.36-3.27-16.07-8.14-21.33m-29.56,18.94c0,3.78,3.07,6.85,6.85,6.85s6.84-3.07,6.84-6.85-3.07-6.84-6.84-6.84-6.85,3.07-6.85,6.84"/><path d="M250.01,57.04l164.18-12.4v12.44l-164.18,12.4v-12.44" fill-rule="evenodd"/><path d="M492.56,44.64l164.18,12.4v12.44l-164.18-12.4v-12.44" fill-rule="evenodd"/><path d="M771.81,32.22l164.17-18.6v12.48l-164.17,18.6v-12.48" fill-rule="evenodd"/><path d="M1014.35,13.62l164.18,18.6v12.48l-164.18-18.6V13.62" fill-rule="evenodd"/><path d="M1263.85,181.02l164.18-18.6v12.48l-164.18,18.6v-12.48" fill-rule="evenodd"/><path d="M1118.31,356.83l187.27,18.6v12.46l-187.27-18.6v-12.46" fill-rule="evenodd"/><path d="M220.26,524.23l187.28-18.6v12.46l-187.28,18.6v-12.46" fill-rule="evenodd"/><path d="M2028.19,143.86l164.18,6.2v12.41l-164.18-6.2v-12.41" fill-rule="evenodd"/><path d="M1432.21,400.25l187.27-12.4v12.42l-187.27,12.4v-12.42" fill-rule="evenodd"/><path d="M1785.64,150.06l164.18-6.2v12.41l-164.18,6.2v-12.41" fill-rule="evenodd"/><path d="M497.46,505.63l187.28,18.6v12.46l-187.28-18.6v-12.46" fill-rule="evenodd"/><path d="M1506.39,162.42l164.18,18.6v12.48l-164.18-18.6v-12.48" fill-rule="evenodd"/><path d="M1709.4,387.85l187.28,12.4v12.42l-187.28-12.4v-12.42" fill-rule="evenodd"/><path d="M841.11,375.43l187.28-18.6v12.46l-187.28,18.6v-12.46" fill-rule="evenodd"/><path d="M2038.18,412.66c0,2.77,2.19,4.96,4.96,4.96s4.96-2.19,4.96-4.96-2.19-4.96-4.96-4.96-4.96,2.19-4.96,4.96"/></g></svg>