<?xml version="1.0" encoding="UTF-8"?><svg id="b" xmlns="http://www.w3.org/2000/svg" viewBox="0 0 2779.2 519.7"><g id="c"><line y1="45.54" x2="2779.2" y2="45.54" fill="none" stroke="#000" stroke-linejoin="bevel" stroke-width="2.73"/><line y1="70.34" x2="2779.2" y2="70.34" fill="none" stroke="#000" stroke-linejoin="bevel" stroke-width="2.73"/><line y1="95.14" x2="2779.2" y2="95.14" fill="none" stroke="#000" stroke-linejoin="bevel" stroke-width="2.73"/><line y1="119.94" x2="2779.2" y2="119.94" fill="none" stroke="#000" stroke-linejoin="bevel" stroke-width="2.73"/><line y1="144.74" x2="2779.2" y2="144.74" fill="none" stroke="#000" stroke-linejoin="bevel" stroke-width="2.73"/><line y1="379.22" x2="2779.2" y2="379.22" fill="none" stroke="#000" stroke-linejoin="bevel" stroke-width="2.73"/><line y1="404.02" x2="2779.2" y2="404.02" fill="none" stroke="#000" stroke-linejoin="bevel" stroke-width="2.73"/><line y1="428.82" x2="2779.2" y2="428.82" fill="none" stroke="#000" stroke-linejoin="bevel" stroke-width="2.73"/><line y1="453.62" x2="2779.2" y2="453.62" fill="none" stroke="#000" stroke-linejoin="bevel" stroke-width="2.73"/><line y1="478.42" x2="2779.2" y2="478.42" fill="none" stroke="#000" stroke-linejoin="bevel" stroke-width="2.73"/><path d="M2331.06,154.66c80.94,40.23,315.16,25.35,390.36-24.8-74.7,58.07-308.91,72.95-390.36,24.8" fill-rule="evenodd" stroke="#000" stroke-linecap="round" stroke-linejoin="round" stroke-width="1.24"/><path d="M1834.57,154.66c81.43,39.37,315.64,21.96,390.36-29.01-74.13,58.88-308.34,76.29-390.36,29.01" fill-rule="evenodd" stroke="#000" stroke-linecap="round" stroke-linejoin="round" stroke-width="1.24"/><path d="M1338.08,154.66c81.43,39.37,315.64,21.96,390.35-29.01-74.12,58.88-308.33,76.29-390.35,29.01" fill-rule="evenodd" stroke="#000" stroke-linecap="round" stroke-linejoin="round" stroke-width="1.24"/><path d="M841.59,154.66c80.94,40.23,315.15,25.35,390.35-24.8-74.69,58.07-308.91,72.95-390.35,24.8" fill-rule="evenodd" stroke="#000" stroke-linecap="round" stroke-linejoin="round" stroke-width="1.24"/><path d="M345.1,154.66c80.94,40.23,315.15,25.35,390.35-24.8-74.7,58.07-308.91,72.95-390.35,24.8" fill-rule="evenodd" stroke="#000" stroke-linecap="round" stroke-linejoin="round" stroke-width="1.24"/><path d="M1979.3,350.92c88.86-51.2,337.14-26.85,413.8,40.58-77.47-59.54-325.76-83.88-413.8-40.58" fill-rule="evenodd" stroke="#000" stroke-linecap="round" stroke-linejoin="round" stroke-width="1.24"/><path d="M1422.17,484.13c89.22,42.81,348.66,27.93,432.4-24.8-83.29,60.65-342.73,75.53-432.4,24.8" fill-rule="evenodd" stroke="#000" stroke-linecap="round" stroke-linejoin="round" stroke-width="1.24"/><path d="M883.63,484.13c89.22,42.81,348.66,27.93,432.4-24.8-83.28,60.65-342.72,75.53-432.4,24.8" fill-rule="evenodd" stroke="#000" stroke-linecap="round" stroke-linejoin="round" stroke-width="1.24"/><path d="M345.1,488.34c89.22,42.81,348.66,27.93,432.4-24.8-83.28,60.66-342.72,75.54-432.4,24.8" fill-rule="evenodd" stroke="#000" stroke-linecap="round" stroke-linejoin="round" stroke-width="1.24"/><line x1="2776.97" y1="44.18" x2="2776.97" y2="146.11" fill="none" stroke="#000" stroke-linejoin="bevel" stroke-width="4.46"/><line x1="2280.47" y1="44.18" x2="2280.47" y2="146.11" fill="none" stroke="#000" stroke-linejoin="bevel" stroke-width="4.46"/><line x1="1783.98" y1="44.18" x2="1783.98" y2="146.11" fill="none" stroke="#000" stroke-linejoin="bevel" stroke-width="4.46"/><line x1="1287.49" y1="44.18" x2="1287.49" y2="146.11" fill="none" stroke="#000" stroke-linejoin="bevel" stroke-width="4.46"/><line x1="791" y1="44.18" x2="791" y2="146.11" fill="none" stroke="#000" stroke-linejoin="bevel" stroke-width="4.46"/><line x1="2763.33" y1="377.86" x2="2763.33" y2="479.79" fill="none" stroke="#000" stroke-linejoin="bevel" stroke-width="4.46"/><line x1="2776.97" y1="377.86" x2="2776.97" y2="479.79" fill="none" stroke="#000" stroke-linejoin="bevel" stroke-width="4.46"/><line x1="2448.65" y1="377.86" x2="2448.65" y2="479.79" fill="none" stroke="#000" stroke-linejoin="bevel" stroke-width="4.46"/><line x1="1910.11" y1="377.86" x2="1910.11" y2="479.79" fill="none" stroke="#000" stroke-linejoin="bevel" stroke-width="4.46"/><line x1="1371.58" y1="377.86" x2="1371.58" y2="479.79" fill="none" stroke="#000" stroke-linejoin="bevel" stroke-width="4.46"/><line x1="833.04" y1="377.86" x2="833.04" y2="479.79" fill="none" stroke="#000" stroke-linejoin="bevel" stroke-width="4.46"/><line x1="359.97" y1="128.37" x2="359.97" y2="14.54" fill="none" stroke="#000" stroke-linejoin="bevel" stroke-width="2.48"/><line x1="415.74" y1="103.57" x2="415.74" y2="14.54" fill="none" stroke="#000" stroke-linejoin="bevel" stroke-width="2.48"/><line x1="471.5" y1="78.77" x2="471.5" y2="14.54" fill="none" stroke="#000" stroke-linejoin="bevel" stroke-width="2.48"/><line x1="527.27" y1="103.57" x2="527.27" y2="14.54" fill="none" stroke="#000" stroke-linejoin="bevel" stroke-width="2.48"/><line x1="583.03" y1="128.37" x2="583.03" y2="14.54" fill="none" stroke="#000" stroke-linejoin="bevel" stroke-width="2.48"/><line x1="638.8" y1="103.57" x2="638.8" y2="14.54" fill="none" stroke="#000" stroke-linejoin="bevel" stroke-width="2.48"/><line x1="694.56" y1="78.77" x2="694.56" y2="14.54" fill="none" stroke="#000" stroke-linejoin="bevel" stroke-width="2.48"/><line x1="750.33" y1="103.57" x2="750.33" y2="14.54" fill="none" stroke="#000" stroke-linejoin="bevel" stroke-width="2.48"/><line x1="856.46" y1="128.37" x2="856.46" y2="14.54" fill="none" stroke="#000" stroke-linejoin="bevel" stroke-width="2.48"/><line x1="912.23" y1="103.57" x2="912.23" y2="14.54" fill="none" stroke="#000" stroke-linejoin="bevel" stroke-width="2.48"/><line x1="967.99" y1="78.77" x2="967.99" y2="14.54" fill="none" stroke="#000" stroke-linejoin="bevel" stroke-width="2.48"/><line x1="1023.76" y1="103.57" x2="1023.76" y2="14.54" fill="none" stroke="#000" stroke-linejoin="bevel" stroke-width="2.48"/><line x1="1079.52" y1="128.37" x2="1079.52" y2="14.54" fill="none" stroke="#000" stroke-linejoin="bevel" stroke-width="2.48"/><line x1="1135.29" y1="103.57" x2="1135.29" y2="14.54" fill="none" stroke="#000" stroke-linejoin="bevel" stroke-width="2.48"/><line x1="1191.05" y1="78.77" x2="1191.05" y2="14.54" fill="none" stroke="#000" stroke-linejoin="bevel" stroke-width="2.48"/><line x1="1246.82" y1="103.57" x2="1246.82" y2="14.54" fill="none" stroke="#000" stroke-linejoin="bevel" stroke-width="2.48"/><line x1="1352.95" y1="128.37" x2="1352.95" y2="8.34" fill="none" stroke="#000" stroke-linejoin="bevel" stroke-width="2.48"/><line x1="1408.72" y1="91.17" x2="1408.72" y2="8.34" fill="none" stroke="#000" stroke-linejoin="bevel" stroke-width="2.48"/><line x1="1464.48" y1="66.37" x2="1464.48" y2="8.34" fill="none" stroke="#000" stroke-linejoin="bevel" stroke-width="2.48"/><line x1="1520.25" y1="91.17" x2="1520.25" y2="8.34" fill="none" stroke="#000" stroke-linejoin="bevel" stroke-width="2.48"/><line x1="1576.02" y1="128.37" x2="1576.02" y2="8.34" fill="none" stroke="#000" stroke-linejoin="bevel" stroke-width="2.48"/><line x1="1631.78" y1="91.17" x2="1631.78" y2="8.34" fill="none" stroke="#000" stroke-linejoin="bevel" stroke-width="2.48"/><line x1="1687.55" y1="66.37" x2="1687.55" y2="8.34" fill="none" stroke="#000" stroke-linejoin="bevel" stroke-width="2.48"/><line x1="1743.31" y1="91.17" x2="1743.31" y2="8.34" fill="none" stroke="#000" stroke-linejoin="bevel" stroke-width="2.48"/><line x1="1849.45" y1="128.37" x2="1849.45" y2="8.34" fill="none" stroke="#000" stroke-linejoin="bevel" stroke-width="2.48"/><line x1="1905.21" y1="91.17" x2="1905.21" y2="8.34" fill="none" stroke="#000" stroke-linejoin="bevel" stroke-width="2.48"/><line x1="1960.98" y1="66.37" x2="1960.98" y2="8.34" fill="none" stroke="#000" stroke-linejoin="bevel" stroke-width="2.48"/><line x1="2016.74" y1="91.17" x2="2016.74" y2="8.34" fill="none" stroke="#000" stroke-linejoin="bevel" stroke-width="2.48"/><line x1="2072.51" y1="128.37" x2="2072.51" y2="8.34" fill="none" stroke="#000" stroke-linejoin="bevel" stroke-width="2.48"/><line x1="2128.27" y1="91.17" x2="2128.27" y2="8.34" fill="none" stroke="#000" stroke-linejoin="bevel" stroke-width="2.48"/><line x1="2184.04" y1="66.37" x2="2184.04" y2="8.34" fill="none" stroke="#000" stroke-linejoin="bevel" stroke-width="2.48"/><line x1="2239.8" y1="91.17" x2="2239.8" y2="8.34" fill="none" stroke="#000" stroke-linejoin="bevel" stroke-width="2.48"/><line x1="2345.94" y1="128.37" x2="2345.94" y2="14.54" fill="none" stroke="#000" stroke-linejoin="bevel" stroke-width="2.48"/><line x1="2401.7" y1="103.57" x2="2401.7" y2="14.54" fill="none" stroke="#000" stroke-linejoin="bevel" stroke-width="2.48"/><line x1="2457.47" y1="78.77" x2="2457.47" y2="14.54" fill="none" stroke="#000" stroke-linejoin="bevel" stroke-width="2.48"/><line x1="2513.23" y1="103.57" x2="2513.23" y2="14.54" fill="none" stroke="#000" stroke-linejoin="bevel" stroke-width="2.48"/><line x1="2569" y1="128.37" x2="2569" y2="14.54" fill="none" stroke="#000" stroke-linejoin="bevel" stroke-width="2.48"/><line x1="2624.76" y1="103.57" x2="2624.76" y2="14.54" fill="none" stroke="#000" stroke-linejoin="bevel" stroke-width="2.48"/><line x1="2680.53" y1="78.77" x2="2680.53" y2="14.54" fill="none" stroke="#000" stroke-linejoin="bevel" stroke-width="2.48"/><line x1="2736.29" y1="103.57" x2="2736.29" y2="14.54" fill="none" stroke="#000" stroke-linejoin="bevel" stroke-width="2.48"/><line x1="359.97" y1="462.05" x2="359.97" y2="348.22" fill="none" stroke="#000" stroke-linejoin="bevel" stroke-width="2.48"/><line x1="421.74" y1="437.25" x2="421.74" y2="348.22" fill="none" stroke="#000" stroke-linejoin="bevel" stroke-width="2.48"/><line x1="483.52" y1="412.45" x2="483.52" y2="348.22" fill="none" stroke="#000" stroke-linejoin="bevel" stroke-width="2.48"/><line x1="545.29" y1="437.25" x2="545.29" y2="348.22" fill="none" stroke="#000" stroke-linejoin="bevel" stroke-width="2.48"/><line x1="607.06" y1="462.05" x2="607.06" y2="348.22" fill="none" stroke="#000" stroke-linejoin="bevel" stroke-width="2.48"/><line x1="668.83" y1="437.25" x2="668.83" y2="348.22" fill="none" stroke="#000" stroke-linejoin="bevel" stroke-width="2.48"/><line x1="730.6" y1="412.45" x2="730.6" y2="348.22" fill="none" stroke="#000" stroke-linejoin="bevel" stroke-width="2.48"/><line x1="792.37" y1="437.25" x2="792.37" y2="348.22" fill="none" stroke="#000" stroke-linejoin="bevel" stroke-width="2.48"/><line x1="898.51" y1="449.65" x2="898.51" y2="348.22" fill="none" stroke="#000" stroke-linejoin="bevel" stroke-width="2.48"/><line x1="960.28" y1="424.85" x2="960.28" y2="348.22" fill="none" stroke="#000" stroke-linejoin="bevel" stroke-width="2.48"/><line x1="1022.05" y1="412.45" x2="1022.05" y2="348.22" fill="none" stroke="#000" stroke-linejoin="bevel" stroke-width="2.48"/><line x1="1083.82" y1="424.85" x2="1083.82" y2="348.22" fill="none" stroke="#000" stroke-linejoin="bevel" stroke-width="2.48"/><line x1="1145.59" y1="474.45" x2="1145.59" y2="348.22" fill="none" stroke="#000" stroke-linejoin="bevel" stroke-width="2.48"/><line x1="1207.36" y1="424.85" x2="1207.36" y2="348.22" fill="none" stroke="#000" stroke-linejoin="bevel" stroke-width="2.48"/><line x1="1269.14" y1="412.45" x2="1269.14" y2="348.22" fill="none" stroke="#000" stroke-linejoin="bevel" stroke-width="2.48"/><line x1="1330.91" y1="424.85" x2="1330.91" y2="348.22" fill="none" stroke="#000" stroke-linejoin="bevel" stroke-width="2.48"/><line x1="1437.04" y1="449.65" x2="1437.04" y2="348.22" fill="none" stroke="#000" stroke-linejoin="bevel" stroke-width="2.48"/><line x1="1498.81" y1="424.85" x2="1498.81" y2="348.22" fill="none" stroke="#000" stroke-linejoin="bevel" stroke-width="2.48"/><line x1="1560.59" y1="412.45" x2="1560.59" y2="348.22" fill="none" stroke="#000" stroke-linejoin="bevel" stroke-width="2.48"/><line x1="1622.36" y1="424.85" x2="1622.36" y2="348.22" fill="none" stroke="#000" stroke-linejoin="bevel" stroke-width="2.48"/><line x1="1684.13" y1="474.45" x2="1684.13" y2="348.22" fill="none" stroke="#000" stroke-linejoin="bevel" stroke-width="2.48"/><line x1="1745.9" y1="424.85" x2="1745.9" y2="348.22" fill="none" stroke="#000" stroke-linejoin="bevel" stroke-width="2.48"/><line x1="1807.67" y1="412.45" x2="1807.67" y2="348.22" fill="none" stroke="#000" stroke-linejoin="bevel" stroke-width="2.48"/><line x1="1869.44" y1="424.85" x2="1869.44" y2="348.22" fill="none" stroke="#000" stroke-linejoin="bevel" stroke-width="2.48"/><line x1="1975.58" y1="462.05" x2="1975.58" y2="366.7" fill="none" stroke="#000" stroke-linejoin="bevel" stroke-width="2.48"/><line x1="2037.35" y1="449.65" x2="2037.35" y2="360.58" fill="none" stroke="#000" stroke-linejoin="bevel" stroke-width="2.48"/><line x1="2099.12" y1="437.25" x2="2099.12" y2="354.46" fill="none" stroke="#000" stroke-linejoin="bevel" stroke-width="2.48"/><line x1="2160.89" y1="412.45" x2="2160.89" y2="348.34" fill="none" stroke="#000" stroke-linejoin="bevel" stroke-width="2.48"/><line x1="2192.91" y1="383.39" x2="2192.91" y2="509.42" fill="none" stroke="#000" stroke-linejoin="bevel" stroke-width="2.48"/><line x1="2254.68" y1="420.59" x2="2254.68" y2="509.42" fill="none" stroke="#000" stroke-linejoin="bevel" stroke-width="2.48"/><line x1="2316.46" y1="445.39" x2="2316.46" y2="509.42" fill="none" stroke="#000" stroke-linejoin="bevel" stroke-width="2.48"/><line x1="2378.23" y1="420.59" x2="2378.23" y2="509.42" fill="none" stroke="#000" stroke-linejoin="bevel" stroke-width="2.48"/><line x1="2514.12" y1="462.05" x2="2514.12" y2="379.22" fill="none" stroke="#000" stroke-linejoin="bevel" stroke-width="2.48"/><path d="M1656.55,74.51c0,4.26,3.07,9.02,11.11,9.02,10.31,0,21.13-8.43,21.13-17.16,0-5.86-4.96-9.13-11.11-9.13-9.63,0-21.13,8.14-21.13,17.27"/><path d="M1600.79,99.31c0,4.26,3.07,9.02,11.11,9.02,10.31,0,21.13-8.43,21.13-17.16,0-5.86-4.96-9.13-11.11-9.13-9.63,0-21.13,8.14-21.13,17.27"/><path d="M1545.02,136.51c0,4.26,3.07,9.02,11.11,9.02,10.31,0,21.13-8.43,21.13-17.16,0-5.86-4.96-9.13-11.11-9.13-9.63,0-21.13,8.14-21.13,17.27"/><path d="M1489.26,99.31c0,4.26,3.07,9.02,11.11,9.02,10.31,0,21.13-8.43,21.13-17.16,0-5.86-4.96-9.13-11.11-9.13-9.63,0-21.13,8.14-21.13,17.27"/><path d="M1433.49,74.51c0,4.26,3.07,9.02,11.11,9.02,10.31,0,21.13-8.43,21.13-17.16,0-5.86-4.96-9.13-11.11-9.13-9.63,0-21.13,8.14-21.13,17.27"/><path d="M1377.73,99.31c0,4.26,3.07,9.02,11.11,9.02,10.31,0,21.13-8.43,21.13-17.16,0-5.86-4.96-9.13-11.11-9.13-9.63,0-21.13,8.14-21.13,17.27"/><path d="M2504.25,452.92c-9.63,0-21.13,8.04-21.13,17.27,0,4.26,3.07,9.02,11.11,9.02,10.31,0,21.13-8.43,21.13-17.16,0-5.86-4.96-9.13-11.11-9.13m-13.69,21.62c-3.27,0-3.97-2.67-3.97-3.57,0-4.87,16.66-13.39,21.33-13.39,2.39,0,3.97,1.4,3.97,3.57,0,4.96-16.77,13.39-21.33,13.39"/><path d="M1321.96,136.51c0,4.26,3.07,9.02,11.11,9.02,10.31,0,21.13-8.43,21.13-17.16,0-5.86-4.96-9.13-11.11-9.13-9.63,0-21.13,8.14-21.13,17.27"/><path d="M1215.83,111.71c0,4.26,3.07,9.02,11.11,9.02,10.31,0,21.13-8.43,21.13-17.16,0-5.86-4.96-9.13-11.11-9.13-9.63,0-21.13,8.14-21.13,17.27"/><path d="M1160.06,86.91c0,4.26,3.07,9.02,11.11,9.02,10.31,0,21.13-8.43,21.13-17.16,0-5.86-4.96-9.13-11.11-9.13-9.63,0-21.13,8.14-21.13,17.27"/><path d="M1104.3,111.71c0,4.26,3.07,9.02,11.11,9.02,10.31,0,21.13-8.43,21.13-17.16,0-5.86-4.96-9.13-11.11-9.13-9.63,0-21.13,8.14-21.13,17.27"/><path d="M1048.53,136.51c0,4.26,3.07,9.02,11.11,9.02,10.31,0,21.13-8.43,21.13-17.16,0-5.86-4.96-9.13-11.11-9.13-9.63,0-21.13,8.14-21.13,17.27"/><path d="M992.77,111.71c0,4.26,3.07,9.02,11.11,9.02,10.31,0,21.13-8.43,21.13-17.16,0-5.86-4.96-9.13-11.11-9.13-9.63,0-21.13,8.14-21.13,17.27"/><path d="M937,86.91c0,4.26,3.07,9.02,11.11,9.02,10.31,0,21.13-8.43,21.13-17.16,0-5.86-4.96-9.13-11.11-9.13-9.63,0-21.13,8.14-21.13,17.27"/><path d="M881.24,111.71c0,4.26,3.07,9.02,11.11,9.02,10.31,0,21.13-8.43,21.13-17.16,0-5.86-4.96-9.13-11.11-9.13-9.63,0-21.13,8.14-21.13,17.27"/><path d="M825.47,136.51c0,4.26,3.07,9.02,11.11,9.02,10.31,0,21.13-8.43,21.13-17.16,0-5.86-4.96-9.13-11.11-9.13-9.63,0-21.13,8.14-21.13,17.27"/><path d="M719.34,111.71c0,4.26,3.07,9.02,11.11,9.02,10.31,0,21.13-8.43,21.13-17.16,0-5.86-4.96-9.13-11.11-9.13-9.63,0-21.13,8.14-21.13,17.27"/><path d="M663.57,86.91c0,4.26,3.07,9.02,11.11,9.02,10.31,0,21.13-8.43,21.13-17.16,0-5.86-4.96-9.13-11.11-9.13-9.63,0-21.13,8.14-21.13,17.27"/><path d="M607.81,111.71c0,4.26,3.07,9.02,11.11,9.02,10.31,0,21.13-8.43,21.13-17.16,0-5.86-4.96-9.13-11.11-9.13-9.63,0-21.13,8.14-21.13,17.27"/><path d="M552.04,136.51c0,4.26,3.07,9.02,11.11,9.02,10.31,0,21.13-8.43,21.13-17.16,0-5.86-4.96-9.13-11.11-9.13-9.63,0-21.13,8.14-21.13,17.27"/><path d="M496.28,111.71c0,4.26,3.07,9.02,11.11,9.02,10.31,0,21.13-8.43,21.13-17.16,0-5.86-4.96-9.13-11.11-9.13-9.63,0-21.13,8.14-21.13,17.27"/><path d="M440.51,86.91c0,4.26,3.07,9.02,11.11,9.02,10.31,0,21.13-8.43,21.13-17.16,0-5.86-4.96-9.13-11.11-9.13-9.63,0-21.13,8.14-21.13,17.27"/><path d="M2649.54,86.91c0,4.26,3.07,9.02,11.11,9.02,10.31,0,21.13-8.43,21.13-17.16,0-5.86-4.96-9.13-11.11-9.13-9.63,0-21.13,8.14-21.13,17.27"/><path d="M384.75,111.71c0,4.26,3.07,9.02,11.11,9.02,10.31,0,21.13-8.43,21.13-17.16,0-5.86-4.96-9.13-11.11-9.13-9.63,0-21.13,8.14-21.13,17.27"/><path d="M328.98,136.51c0,4.26,3.07,9.02,11.11,9.02,10.31,0,21.13-8.43,21.13-17.16,0-5.86-4.96-9.13-11.11-9.13-9.63,0-21.13,8.14-21.13,17.27"/><path d="M1712.32,99.31c0,4.26,3.07,9.02,11.11,9.02,10.31,0,21.13-8.43,21.13-17.16,0-5.86-4.96-9.13-11.11-9.13-9.63,0-21.13,8.14-21.13,17.27"/><path d="M1818.45,136.51c0,4.26,3.07,9.02,11.11,9.02,10.31,0,21.13-8.43,21.13-17.16,0-5.86-4.96-9.13-11.11-9.13-9.63,0-21.13,8.14-21.13,17.27"/><path d="M1874.22,99.31c0,4.26,3.07,9.02,11.11,9.02,10.31,0,21.13-8.43,21.13-17.16,0-5.86-4.96-9.13-11.11-9.13-9.63,0-21.13,8.14-21.13,17.27"/><path d="M1929.98,74.51c0,4.26,3.07,9.02,11.11,9.02,10.31,0,21.13-8.43,21.13-17.16,0-5.86-4.96-9.13-11.11-9.13-9.63,0-21.13,8.14-21.13,17.27"/><path d="M1985.75,99.31c0,4.26,3.07,9.02,11.11,9.02,10.31,0,21.13-8.43,21.13-17.16,0-5.86-4.96-9.13-11.11-9.13-9.63,0-21.13,8.14-21.13,17.27"/><path d="M2041.51,136.51c0,4.26,3.07,9.02,11.11,9.02,10.31,0,21.13-8.43,21.13-17.16,0-5.86-4.96-9.13-11.11-9.13-9.63,0-21.13,8.14-21.13,17.27"/><path d="M2097.28,99.31c0,4.26,3.07,9.02,11.11,9.02,10.31,0,21.13-8.43,21.13-17.16,0-5.86-4.96-9.13-11.11-9.13-9.63,0-21.13,8.14-21.13,17.27"/><path d="M2153.04,74.51c0,4.26,3.07,9.02,11.11,9.02,10.31,0,21.13-8.43,21.13-17.16,0-5.86-4.96-9.13-11.11-9.13-9.63,0-21.13,8.14-21.13,17.27"/><path d="M2208.81,99.31c0,4.26,3.07,9.02,11.11,9.02,10.31,0,21.13-8.43,21.13-17.16,0-5.86-4.96-9.13-11.11-9.13-9.63,0-21.13,8.14-21.13,17.27"/><path d="M2314.95,136.51c0,4.26,3.07,9.02,11.11,9.02,10.31,0,21.13-8.43,21.13-17.16,0-5.86-4.96-9.13-11.11-9.13-9.63,0-21.13,8.14-21.13,17.27"/><path d="M2370.71,111.71c0,4.26,3.07,9.02,11.11,9.02,10.31,0,21.13-8.43,21.13-17.16,0-5.86-4.96-9.13-11.11-9.13-9.63,0-21.13,8.14-21.13,17.27"/><path d="M2426.48,86.91c0,4.26,3.07,9.02,11.11,9.02,10.31,0,21.13-8.43,21.13-17.16,0-5.86-4.96-9.13-11.11-9.13-9.63,0-21.13,8.14-21.13,17.27"/><path d="M2482.24,111.71c0,4.26,3.07,9.02,11.11,9.02,10.31,0,21.13-8.43,21.13-17.16,0-5.86-4.96-9.13-11.11-9.13-9.63,0-21.13,8.14-21.13,17.27"/><path d="M2538.01,136.51c0,4.26,3.07,9.02,11.11,9.02,10.31,0,21.13-8.43,21.13-17.16,0-5.86-4.96-9.13-11.11-9.13-9.63,0-21.13,8.14-21.13,17.27"/><path d="M2593.77,111.71c0,4.26,3.07,9.02,11.11,9.02,10.31,0,21.13-8.43,21.13-17.16,0-5.86-4.96-9.13-11.11-9.13-9.63,0-21.13,8.14-21.13,17.27"/><path d="M2705.3,111.71c0,4.26,3.07,9.02,11.11,9.02,10.31,0,21.13-8.43,21.13-17.16,0-5.86-4.96-9.13-11.11-9.13-9.63,0-21.13,8.14-21.13,17.27"/><path d="M328.98,470.19c0,4.26,3.07,9.02,11.11,9.02,10.31,0,21.13-8.43,21.13-17.16,0-5.86-4.96-9.13-11.11-9.13-9.63,0-21.13,8.14-21.13,17.27"/><path d="M390.75,445.39c0,4.26,3.07,9.02,11.11,9.02,10.31,0,21.13-8.43,21.13-17.16,0-5.86-4.96-9.13-11.11-9.13-9.63,0-21.13,8.14-21.13,17.27"/><path d="M452.52,420.59c0,4.26,3.07,9.02,11.11,9.02,10.31,0,21.13-8.43,21.13-17.16,0-5.86-4.96-9.13-11.11-9.13-9.63,0-21.13,8.14-21.13,17.27"/><path d="M514.29,445.39c0,4.26,3.07,9.02,11.11,9.02,10.31,0,21.13-8.43,21.13-17.16,0-5.86-4.96-9.13-11.11-9.13-9.63,0-21.13,8.14-21.13,17.27"/><path d="M576.07,470.19c0,4.26,3.07,9.02,11.11,9.02,10.31,0,21.13-8.43,21.13-17.16,0-5.86-4.96-9.13-11.11-9.13-9.63,0-21.13,8.14-21.13,17.27"/><path d="M637.84,445.39c0,4.26,3.07,9.02,11.11,9.02,10.31,0,21.13-8.43,21.13-17.16,0-5.86-4.96-9.13-11.11-9.13-9.63,0-21.13,8.14-21.13,17.27"/><path d="M699.61,420.59c0,4.26,3.07,9.02,11.11,9.02,10.31,0,21.13-8.43,21.13-17.16,0-5.86-4.96-9.13-11.11-9.13-9.63,0-21.13,8.14-21.13,17.27"/><path d="M761.38,445.39c0,4.26,3.07,9.02,11.11,9.02,10.31,0,21.13-8.43,21.13-17.16,0-5.86-4.96-9.13-11.11-9.13-9.63,0-21.13,8.14-21.13,17.27"/><path d="M867.51,457.79c0,4.26,3.07,9.02,11.11,9.02,10.31,0,21.13-8.43,21.13-17.16,0-5.86-4.96-9.13-11.11-9.13-9.63,0-21.13,8.14-21.13,17.27"/><path d="M929.29,432.99c0,4.26,3.07,9.02,11.11,9.02,10.31,0,21.13-8.43,21.13-17.16,0-5.86-4.96-9.13-11.11-9.13-9.63,0-21.13,8.14-21.13,17.27"/><path d="M991.06,420.59c0,4.26,3.07,9.02,11.11,9.02,10.31,0,21.13-8.43,21.13-17.16,0-5.86-4.96-9.13-11.11-9.13-9.63,0-21.13,8.14-21.13,17.27"/><path d="M1052.83,432.99c0,4.26,3.07,9.02,11.11,9.02,10.31,0,21.13-8.43,21.13-17.16,0-5.86-4.96-9.13-11.11-9.13-9.63,0-21.13,8.14-21.13,17.27"/><path d="M1114.6,482.59c0,4.26,3.07,9.02,11.11,9.02,10.31,0,21.13-8.43,21.13-17.16,0-5.86-4.96-9.13-11.11-9.13-9.63,0-21.13,8.14-21.13,17.27"/><path d="M1176.37,432.99c0,4.26,3.07,9.02,11.11,9.02,10.31,0,21.13-8.43,21.13-17.16,0-5.86-4.96-9.13-11.11-9.13-9.63,0-21.13,8.14-21.13,17.27"/><path d="M1238.14,420.59c0,4.26,3.07,9.02,11.11,9.02,10.31,0,21.13-8.43,21.13-17.16,0-5.86-4.96-9.13-11.11-9.13-9.63,0-21.13,8.14-21.13,17.27"/><path d="M1299.91,432.99c0,4.26,3.07,9.02,11.11,9.02,10.31,0,21.13-8.43,21.13-17.16,0-5.86-4.96-9.13-11.11-9.13-9.63,0-21.13,8.14-21.13,17.27"/><path d="M1406.05,457.79c0,4.26,3.07,9.02,11.11,9.02,10.31,0,21.13-8.43,21.13-17.16,0-5.86-4.96-9.13-11.11-9.13-9.63,0-21.13,8.14-21.13,17.27"/><path d="M1467.82,432.99c0,4.26,3.07,9.02,11.11,9.02,10.31,0,21.13-8.43,21.13-17.16,0-5.86-4.96-9.13-11.11-9.13-9.63,0-21.13,8.14-21.13,17.27"/><path d="M1529.59,420.59c0,4.26,3.07,9.02,11.11,9.02,10.31,0,21.13-8.43,21.13-17.16,0-5.86-4.96-9.13-11.11-9.13-9.63,0-21.13,8.14-21.13,17.27"/><path d="M1591.36,432.99c0,4.26,3.07,9.02,11.11,9.02,10.31,0,21.13-8.43,21.13-17.16,0-5.86-4.96-9.13-11.11-9.13-9.63,0-21.13,8.14-21.13,17.27"/><path d="M1653.14,482.59c0,4.26,3.07,9.02,11.11,9.02,10.31,0,21.13-8.43,21.13-17.16,0-5.86-4.96-9.13-11.11-9.13-9.63,0-21.13,8.14-21.13,17.27"/><path d="M1714.91,432.99c0,4.26,3.07,9.02,11.11,9.02,10.31,0,21.13-8.43,21.13-17.16,0-5.86-4.96-9.13-11.11-9.13-9.63,0-21.13,8.14-21.13,17.27"/><path d="M1776.68,420.59c0,4.26,3.07,9.02,11.11,9.02,10.31,0,21.13-8.43,21.13-17.16,0-5.86-4.96-9.13-11.11-9.13-9.63,0-21.13,8.14-21.13,17.27"/><path d="M1838.45,432.99c0,4.26,3.07,9.02,11.11,9.02,10.31,0,21.13-8.43,21.13-17.16,0-5.86-4.96-9.13-11.11-9.13-9.63,0-21.13,8.14-21.13,17.27"/><path d="M1944.59,470.19c0,4.26,3.07,9.02,11.11,9.02,10.31,0,21.13-8.43,21.13-17.16,0-5.86-4.96-9.13-11.11-9.13-9.63,0-21.13,8.14-21.13,17.27"/><path d="M2006.36,457.79c0,4.26,3.07,9.02,11.11,9.02,10.31,0,21.13-8.43,21.13-17.16,0-5.86-4.96-9.13-11.11-9.13-9.63,0-21.13,8.14-21.13,17.27"/><path d="M2068.13,445.39c0,4.26,3.07,9.02,11.11,9.02,10.31,0,21.13-8.43,21.13-17.16,0-5.86-4.96-9.13-11.11-9.13-9.63,0-21.13,8.14-21.13,17.27"/><path d="M2129.9,420.59c0,4.26,3.07,9.02,11.11,9.02,10.31,0,21.13-8.43,21.13-17.16,0-5.86-4.96-9.13-11.11-9.13-9.63,0-21.13,8.14-21.13,17.27"/><path d="M2191.67,383.39c0,4.26,3.07,9.02,11.11,9.02,10.31,0,21.13-8.43,21.13-17.16,0-5.86-4.96-9.13-11.11-9.13-9.63,0-21.13,8.14-21.13,17.27"/><path d="M2253.44,420.59c0,4.26,3.07,9.02,11.11,9.02,10.31,0,21.13-8.43,21.13-17.16,0-5.86-4.96-9.13-11.11-9.13-9.63,0-21.13,8.14-21.13,17.27"/><path d="M2315.22,445.39c0,4.26,3.07,9.02,11.11,9.02,10.31,0,21.13-8.43,21.13-17.16,0-5.86-4.96-9.13-11.11-9.13-9.63,0-21.13,8.14-21.13,17.27"/><path d="M2376.99,420.59c0,4.26,3.07,9.02,11.11,9.02,10.31,0,21.13-8.43,21.13-17.16,0-5.86-4.96-9.13-11.11-9.13-9.63,0-21.13,8.14-21.13,17.27"/><path d="M30.8,170.83c0,6.56,4.96,15.19,18.35,15.19,4.67,0,8.74-1.19,12.31-3.38,5.36-3.77,6.74-10.32,6.74-16.57,0-3.86-.59-8.32-1.58-13.98-.29-1.98-.9-4.96-1.49-8.84,9.72-3.18,16.96-13.3,16.96-23.51,0-14.97-10.62-25.09-25.09-25.09-.99-5.95-1.98-11.81-2.77-17.36,10.42-11.02,17.65-23.42,17.65-39.18,0-9.04-2.77-16.37-4.37-19.95-2.37-5.05-5.25-8.53-7.04-8.53-.7,0-3.77,1.19-7.04,5.05-6.36,7.55-8.14,20.24-8.14,28.57,0,5.36,.5,10.23,2.19,21.34-.11,.09-5.27,5.35-7.35,7.04-9.04,8.34-21.53,20.43-21.53,40.28,0,18.54,16.17,33.12,34.63,33.12,2.87,0,5.55-.29,7.83-.7,1.89,9.53,3.08,16.48,3.08,21.73,0,10.32-5.36,15.78-15.38,15.78-2.39,0-4.46-.5-4.67-.5-.09-.11-.29-.2-.29-.29,0-.2,.2-.31,.5-.31,4.67-.79,9.32-4.76,9.32-11.1,0-5.36-4.06-11.02-11.5-11.02-6.94,0-11.31,5.66-11.31,12.2M51.54,38.39c.9-3.97,5.46-14.38,10.62-14.38,1.49,0,3.86,4.76,3.86,11.7,0,10.32-7.63,18.06-14.48,24.8-.59-3.97-1.08-7.83-1.08-12,0-3.67,.29-7.05,1.08-10.12m8.73,101.97c-1.98,.4-3.86,.6-5.75,.6-14.18,0-26.29-9.92-26.29-24.91,0-12.09,8.53-22.91,17.27-30.46,1.67-1.49,3.27-2.87,4.76-4.36,.88,5.35,1.58,10.01,2.28,14.09-9.04,2.68-15.17,12.2-15.17,21.53,0,6.94,5.46,16.46,13.39,16.46,.79,0,1.69-.4,1.69-1.29s-.99-1.39-2.19-2.19c-3.88-2.39-6.06-4.96-6.06-9.83,0-6.05,4.57-10.91,10.32-12.29l5.75,32.63m14.09-18.35c0,7.05-2.88,14.29-9.92,17.17-2.08-11.9-4.76-27.68-5.46-32.05,8.93,0,15.38,6.06,15.38,14.88"/><path d="M30.8,504.51c0,6.56,4.96,15.19,18.35,15.19,4.67,0,8.74-1.19,12.31-3.38,5.36-3.77,6.74-10.32,6.74-16.57,0-3.86-.59-8.32-1.58-13.98-.29-1.98-.9-4.96-1.49-8.84,9.72-3.18,16.96-13.3,16.96-23.51,0-14.97-10.62-25.09-25.09-25.09-.99-5.95-1.98-11.81-2.77-17.36,10.42-11.02,17.65-23.42,17.65-39.18,0-9.04-2.77-16.37-4.37-19.95-2.37-5.05-5.25-8.53-7.04-8.53-.7,0-3.77,1.19-7.04,5.05-6.36,7.55-8.14,20.24-8.14,28.57,0,5.36,.5,10.23,2.19,21.34-.11,.09-5.27,5.35-7.35,7.04-9.04,8.34-21.53,20.43-21.53,40.28,0,18.54,16.17,33.12,34.63,33.12,2.87,0,5.55-.29,7.83-.7,1.89,9.53,3.08,16.48,3.08,21.73,0,10.32-5.36,15.78-15.38,15.78-2.39,0-4.46-.5-4.67-.5-.09-.11-.29-.2-.29-.29,0-.2,.2-.31,.5-.31,4.67-.79,9.32-4.76,9.32-11.1,0-5.36-4.06-11.02-11.5-11.02-6.94,0-11.31,5.66-11.31,12.2m20.74-132.43c.9-3.97,5.46-14.38,10.62-14.38,1.49,0,3.86,4.76,3.86,11.7,0,10.32-7.63,18.06-14.48,24.8-.59-3.97-1.08-7.83-1.08-12,0-3.67,.29-7.05,1.08-10.12m8.73,101.97c-1.98,.4-3.86,.6-5.75,.6-14.18,0-26.29-9.92-26.29-24.91,0-12.09,8.53-22.91,17.27-30.46,1.67-1.49,3.27-2.87,4.76-4.36,.88,5.35,1.58,10.01,2.28,14.09-9.04,2.68-15.17,12.2-15.17,21.53,0,6.94,5.46,16.46,13.39,16.46,.79,0,1.69-.4,1.69-1.29s-.99-1.39-2.19-2.19c-3.88-2.39-6.06-4.96-6.06-9.83,0-6.05,4.57-10.91,10.32-12.29l5.75,32.63m14.09-18.35c0,7.05-2.88,14.29-9.92,17.17-2.08-11.9-4.76-27.68-5.46-32.05,8.93,0,15.38,6.06,15.38,14.88"/><path d="M129.99,35.12c.6-.09,1.1-.79,1.1-1.4v-5.84c0-.99-.7-1.39-1.6-1.39l-3.27,.7V12.4h-2.77v15.38l-8.83,1.8V15.58h-2.77v14.59l-3.88,.79c-.59,.11-1.09,.79-1.09,1.39v5.75c0,1.09,.79,1.4,1.69,1.4l3.27-.7v16.37l-3.88,.79c-.59,.09-1.09,.79-1.09,1.4v5.75c0,1.09,.79,1.38,1.69,1.38l3.27-.68v14.77h2.77v-15.38l8.83-1.78v14h2.77v-14.59l3.77-.7c.6-.11,1.1-.79,1.1-1.39v-5.84c0-.99-.7-1.4-1.6-1.4l-3.27,.7v-16.37l3.77-.7m-15.38,3.07l8.83-1.78v16.37l-8.83,1.89v-16.48"/><path d="M157.16,72.32c.6-.09,1.1-.79,1.1-1.4v-5.84c0-.99-.7-1.39-1.6-1.39l-3.27,.7v-14.79h-2.77v15.38l-8.83,1.8v-14h-2.77v14.59l-3.88,.79c-.59,.11-1.09,.79-1.09,1.39v5.75c0,1.09,.79,1.4,1.69,1.4l3.27-.7v16.37l-3.88,.79c-.59,.09-1.09,.79-1.09,1.4v5.75c0,1.09,.79,1.38,1.69,1.38l3.27-.68v14.77h2.77v-15.38l8.83-1.78v14h2.77v-14.59l3.77-.7c.6-.11,1.1-.79,1.1-1.39v-5.84c0-.99-.7-1.4-1.6-1.4l-3.27,.7v-16.37l3.77-.7m-15.38,3.07l8.83-1.78v16.37l-8.83,1.89v-16.48"/><path d="M184.33,22.72c.6-.09,1.1-.79,1.1-1.4v-5.84c0-.99-.7-1.39-1.6-1.39l-3.27,.7V0h-2.77V15.38l-8.83,1.8V3.18h-2.77v14.59l-3.88,.79c-.59,.11-1.09,.79-1.09,1.39v5.75c0,1.09,.79,1.4,1.69,1.4l3.27-.7v16.37l-3.88,.79c-.59,.09-1.09,.79-1.09,1.4v5.75c0,1.09,.79,1.38,1.69,1.38l3.27-.68v14.77h2.77v-15.38l8.83-1.78v14h2.77v-14.59l3.77-.7c.6-.11,1.1-.79,1.1-1.39v-5.84c0-.99-.7-1.4-1.6-1.4l-3.27,.7V23.42l3.77-.7m-15.38,3.07l8.83-1.78v16.37l-8.83,1.89V25.79"/><path d="M211.52,59.92c.6-.09,1.1-.79,1.1-1.4v-5.84c0-.99-.7-1.39-1.6-1.39l-3.27,.7v-14.79h-2.77v15.38l-8.83,1.8v-14h-2.77v14.59l-3.88,.79c-.59,.11-1.09,.79-1.09,1.39v5.75c0,1.09,.79,1.4,1.69,1.4l3.27-.7v16.37l-3.88,.79c-.59,.09-1.09,.79-1.09,1.4v5.75c0,1.09,.79,1.38,1.69,1.38l3.27-.68v14.77h2.77v-15.38l8.83-1.78v14h2.77v-14.59l3.77-.7c.6-.11,1.1-.79,1.1-1.39v-5.84c0-.99-.7-1.4-1.6-1.4l-3.27,.7v-16.37l3.77-.7m-15.38,3.07l8.83-1.78v16.37l-8.83,1.89v-16.48"/><path d="M238.69,97.12c.6-.09,1.1-.79,1.1-1.4v-5.84c0-.99-.7-1.39-1.6-1.39l-3.27,.7v-14.79h-2.77v15.38l-8.83,1.8v-14h-2.77v14.59l-3.88,.79c-.59,.11-1.09,.79-1.09,1.39v5.75c0,1.09,.79,1.4,1.69,1.4l3.27-.7v16.37l-3.88,.79c-.59,.09-1.09,.79-1.09,1.4v5.75c0,1.09,.79,1.38,1.69,1.38l3.27-.68v14.77h2.77v-15.38l8.83-1.78v14h2.77v-14.59l3.77-.7c.6-.11,1.1-.79,1.1-1.39v-5.84c0-.99-.7-1.4-1.6-1.4l-3.27,.7v-16.37l3.77-.7m-15.38,3.07l8.83-1.78v16.37l-8.83,1.89v-16.48"/><path d="M265.88,47.52c.6-.09,1.1-.79,1.1-1.4v-5.84c0-.99-.7-1.39-1.6-1.39l-3.27,.7v-14.79h-2.77v15.38l-8.83,1.8v-14h-2.77v14.59l-3.88,.79c-.59,.11-1.09,.79-1.09,1.39v5.75c0,1.09,.79,1.4,1.69,1.4l3.27-.7v16.37l-3.88,.79c-.59,.09-1.09,.79-1.09,1.4v5.75c0,1.09,.79,1.38,1.69,1.38l3.27-.68v14.77h2.77v-15.38l8.83-1.78v14h2.77v-14.59l3.77-.7c.6-.11,1.1-.79,1.1-1.39v-5.84c0-.99-.7-1.4-1.6-1.4l-3.27,.7v-16.37l3.77-.7m-15.38,3.07l8.83-1.78v16.37l-8.83,1.89v-16.48"/><path d="M129.99,368.8c.6-.09,1.1-.79,1.1-1.4v-5.84c0-.99-.7-1.39-1.6-1.39l-3.27,.7v-14.79h-2.77v15.38l-8.83,1.8v-14h-2.77v14.59l-3.88,.79c-.59,.11-1.09,.79-1.09,1.39v5.75c0,1.09,.79,1.4,1.69,1.4l3.27-.7v16.37l-3.88,.79c-.59,.09-1.09,.79-1.09,1.4v5.75c0,1.09,.79,1.38,1.69,1.38l3.27-.68v14.77h2.77v-15.38l8.83-1.78v14h2.77v-14.59l3.77-.7c.6-.11,1.1-.79,1.1-1.39v-5.84c0-.99-.7-1.4-1.6-1.4l-3.27,.7v-16.37l3.77-.7m-15.38,3.07l8.83-1.78v16.37l-8.83,1.89v-16.48"/><path d="M157.16,406c.6-.09,1.1-.79,1.1-1.4v-5.84c0-.99-.7-1.39-1.6-1.39l-3.27,.7v-14.79h-2.77v15.38l-8.83,1.8v-14h-2.77v14.59l-3.88,.79c-.59,.11-1.09,.79-1.09,1.39v5.75c0,1.09,.79,1.4,1.69,1.4l3.27-.7v16.37l-3.88,.79c-.59,.09-1.09,.79-1.09,1.4v5.75c0,1.09,.79,1.38,1.69,1.38l3.27-.68v14.77h2.77v-15.38l8.83-1.78v14h2.77v-14.59l3.77-.7c.6-.11,1.1-.79,1.1-1.39v-5.84c0-.99-.7-1.4-1.6-1.4l-3.27,.7v-16.37l3.77-.7m-15.38,3.07l8.83-1.78v16.37l-8.83,1.89v-16.48"/><path d="M184.33,356.4c.6-.09,1.1-.79,1.1-1.4v-5.84c0-.99-.7-1.39-1.6-1.39l-3.27,.7v-14.79h-2.77v15.38l-8.83,1.8v-14h-2.77v14.59l-3.88,.79c-.59,.11-1.09,.79-1.09,1.39v5.75c0,1.09,.79,1.4,1.69,1.4l3.27-.7v16.37l-3.88,.79c-.59,.09-1.09,.79-1.09,1.4v5.75c0,1.09,.79,1.38,1.69,1.38l3.27-.68v14.77h2.77v-15.38l8.83-1.78v14h2.77v-14.59l3.77-.7c.6-.11,1.1-.79,1.1-1.39v-5.84c0-.99-.7-1.4-1.6-1.4l-3.27,.7v-16.37l3.77-.7m-15.38,3.07l8.83-1.78v16.37l-8.83,1.89v-16.48"/><path d="M211.52,393.6c.6-.09,1.1-.79,1.1-1.4v-5.84c0-.99-.7-1.39-1.6-1.39l-3.27,.7v-14.79h-2.77v15.38l-8.83,1.8v-14h-2.77v14.59l-3.88,.79c-.59,.11-1.09,.79-1.09,1.39v5.75c0,1.09,.79,1.4,1.69,1.4l3.27-.7v16.37l-3.88,.79c-.59,.09-1.09,.79-1.09,1.4v5.75c0,1.09,.79,1.38,1.69,1.38l3.27-.68v14.77h2.77v-15.38l8.83-1.78v14h2.77v-14.59l3.77-.7c.6-.11,1.1-.79,1.1-1.39v-5.84c0-.99-.7-1.4-1.6-1.4l-3.27,.7v-16.37l3.77-.7m-15.38,3.07l8.83-1.78v16.37l-8.83,1.89v-16.48"/><path d="M238.69,430.8c.6-.09,1.1-.79,1.1-1.4v-5.84c0-.99-.7-1.39-1.6-1.39l-3.27,.7v-14.79h-2.77v15.38l-8.83,1.8v-14h-2.77v14.59l-3.88,.79c-.59,.11-1.09,.79-1.09,1.39v5.75c0,1.09,.79,1.4,1.69,1.4l3.27-.7v16.37l-3.88,.79c-.59,.09-1.09,.79-1.09,1.4v5.75c0,1.09,.79,1.38,1.69,1.38l3.27-.68v14.77h2.77v-15.38l8.83-1.78v14h2.77v-14.59l3.77-.7c.6-.11,1.1-.79,1.1-1.39v-5.84c0-.99-.7-1.4-1.6-1.4l-3.27,.7v-16.37l3.77-.7m-15.38,3.07l8.83-1.78v16.37l-8.83,1.89v-16.48"/><path d="M265.88,381.2c.6-.09,1.1-.79,1.1-1.4v-5.84c0-.99-.7-1.39-1.6-1.39l-3.27,.7v-14.79h-2.77v15.38l-8.83,1.8v-14h-2.77v14.59l-3.88,.79c-.59,.11-1.09,.79-1.09,1.39v5.75c0,1.09,.79,1.4,1.69,1.4l3.27-.7v16.37l-3.88,.79c-.59,.09-1.09,.79-1.09,1.4v5.75c0,1.09,.79,1.38,1.69,1.38l3.27-.68v14.77h2.77v-15.38l8.83-1.78v14h2.77v-14.59l3.77-.7c.6-.11,1.1-.79,1.1-1.39v-5.84c0-.99-.7-1.4-1.6-1.4l-3.27,.7v-16.37l3.77-.7m-15.38,3.07l8.83-1.78v16.37l-8.83,1.89v-16.48"/><path d="M2622.11,427.83q0,1.4,1.4,1.4h29.47q1.38,0,1.38-1.4v-10.71q0-1.39-1.38-1.39h-29.47q-1.4,0-1.4,1.39v10.71"/><path d="M2521.96,341.03c-9.32-10.12-17.56-10.71-22.71-10.71s-13.3,.59-22.63,10.71c-4.85,5.36-8.23,15.97-8.23,21.33,0,1.89,.4,3.18,1.4,3.18,2.77,0,1.38-8.54,9.72-16.97,7.33-7.33,17.16-7.44,19.55-7.44h.39c2.39,0,12.21,.11,19.55,7.44,8.34,8.43,6.94,16.97,9.72,16.97,.99,0,1.39-1.19,1.39-3.18,0-5.36-3.27-16.07-8.14-21.33m-29.56,18.94c0,3.78,3.07,6.85,6.85,6.85s6.84-3.07,6.84-6.85-3.07-6.84-6.84-6.84-6.85,3.07-6.85,6.84"/><path d="M1351.71,2.14h169.78V14.54h-169.78V2.14" fill-rule="evenodd"/><path d="M605.82,342.02h187.79v12.4h-187.79v-12.4" fill-rule="evenodd"/><path d="M1574.78,2.14h169.77V14.54h-169.77V2.14" fill-rule="evenodd"/><path d="M897.27,342.02h187.79v12.4h-187.79v-12.4" fill-rule="evenodd"/><path d="M1848.21,2.14h169.77V14.54h-169.77V2.14" fill-rule="evenodd"/><path d="M1144.35,342.02h187.8v12.4h-187.8v-12.4" fill-rule="evenodd"/><path d="M358.73,8.34h169.78v12.4h-169.78V8.34" fill-rule="evenodd"/><path d="M1435.8,342.02h187.8v12.4h-187.8v-12.4" fill-rule="evenodd"/><path d="M2071.27,2.14h169.77V14.54h-169.77V2.14" fill-rule="evenodd"/><path d="M581.79,8.34h169.78v12.4h-169.78V8.34" fill-rule="evenodd"/><path d="M1682.89,342.02h187.79v12.4h-187.79v-12.4" fill-rule="evenodd"/><path d="M2344.7,8.34h169.77v12.4h-169.77V8.34" fill-rule="evenodd"/><path d="M1974.34,360.59l187.79-18.6v12.46l-187.79,18.6v-12.46" fill-rule="evenodd"/><path d="M855.22,8.34h169.78v12.4h-169.78V8.34" fill-rule="evenodd"/><path d="M2567.76,8.34h169.77v12.4h-169.77V8.34" fill-rule="evenodd"/><path d="M2191.67,503.22h187.8v12.4h-187.8v-12.4" fill-rule="evenodd"/><path d="M1078.28,8.34h169.78v12.4h-169.78V8.34" fill-rule="evenodd"/><path d="M358.73,342.02h187.79v12.4h-187.79v-12.4" fill-rule="evenodd"/></g></svg>