<?xml version="1.0" encoding="UTF-8"?><svg id="b" xmlns="http://www.w3.org/2000/svg" viewBox="0 0 2275.2 571.96"><g id="c"><line y1="56.6" x2="2275.2" y2="56.6" fill="none" stroke="#000" stroke-linejoin="bevel" stroke-width="2.73"/><line y1="81.4" x2="2275.2" y2="81.4" fill="none" stroke="#000" stroke-linejoin="bevel" stroke-width="2.73"/><line y1="106.2" x2="2275.2" y2="106.2" fill="none" stroke="#000" stroke-linejoin="bevel" stroke-width="2.73"/><line y1="131" x2="2275.2" y2="131" fill="none" stroke="#000" stroke-linejoin="bevel" stroke-width="2.73"/><line y1="155.8" x2="2275.2" y2="155.8" fill="none" stroke="#000" stroke-linejoin="bevel" stroke-width="2.73"/><line y1="390.28" x2="2275.2" y2="390.28" fill="none" stroke="#000" stroke-linejoin="bevel" stroke-width="2.73"/><line y1="415.08" x2="2275.2" y2="415.08" fill="none" stroke="#000" stroke-linejoin="bevel" stroke-width="2.73"/><line y1="439.88" x2="2275.2" y2="439.88" fill="none" stroke="#000" stroke-linejoin="bevel" stroke-width="2.73"/><line y1="464.68" x2="2275.2" y2="464.68" fill="none" stroke="#000" stroke-linejoin="bevel" stroke-width="2.73"/><line y1="489.48" x2="2275.2" y2="489.48" fill="none" stroke="#000" stroke-linejoin="bevel" stroke-width="2.73"/><path d="M1726.28,499.4c27.19,12.79,70.79,.39,87.18-24.8-14.22,32.82-57.81,45.22-87.18,24.8" fill-rule="evenodd" stroke="#000" stroke-linecap="round" stroke-linejoin="round" stroke-width="1.24"/><path d="M1464.72,561.4c27.2,12.79,70.79,.39,87.19-24.8-14.23,32.82-57.82,45.22-87.19,24.8" fill-rule="evenodd" stroke="#000" stroke-linecap="round" stroke-linejoin="round" stroke-width="1.24"/><path d="M1166.46,474.6c16.4,25.19,59.99,37.59,87.19,24.8-29.37,20.42-72.96,8.02-87.19-24.8" fill-rule="evenodd" stroke="#000" stroke-linecap="round" stroke-linejoin="round" stroke-width="1.24"/><path d="M904.91,536.6c29.75,9.35,73.34-9.25,87.18-37.2-10.72,35.25-54.31,53.85-87.18,37.2" fill-rule="evenodd" stroke="#000" stroke-linecap="round" stroke-linejoin="round" stroke-width="1.24"/><path d="M606.65,449.8c16.4,25.19,59.99,37.59,87.18,24.8-29.37,20.42-72.96,8.02-87.18-24.8" fill-rule="evenodd" stroke="#000" stroke-linecap="round" stroke-linejoin="round" stroke-width="1.24"/><path d="M345.1,499.4c27.2,12.79,70.79,.39,87.19-24.8-14.22,32.82-57.82,45.22-87.19,24.8" fill-rule="evenodd" stroke="#000" stroke-linecap="round" stroke-linejoin="round" stroke-width="1.24"/><path d="M2057.9,34.28c30.87-14.89,69.03,3.71,76.31,37.2-10.76-26.36-48.92-44.96-76.31-37.2" fill-rule="evenodd" stroke="#000" stroke-linecap="round" stroke-linejoin="round" stroke-width="1.24"/><path d="M1828.94,96.28c10.96-31.19,49.12-43.59,76.32-24.8-24.75-11.24-62.91,1.16-76.32,24.8" fill-rule="evenodd" stroke="#000" stroke-linecap="round" stroke-linejoin="round" stroke-width="1.24"/><path d="M1563.28,9.48c27.2-18.79,65.36-6.39,76.32,24.8-13.41-23.64-51.57-36.04-76.32-24.8" fill-rule="evenodd" stroke="#000" stroke-linecap="round" stroke-linejoin="round" stroke-width="1.24"/><path d="M1334.32,71.48c7.29-33.49,45.45-52.09,76.32-37.2-27.39-7.76-65.55,10.84-76.32,37.2" fill-rule="evenodd" stroke="#000" stroke-linecap="round" stroke-linejoin="round" stroke-width="1.24"/><path d="M1068.66,34.28c30.88-14.89,69.03,3.71,76.32,37.2-10.76-26.36-48.92-44.96-76.32-37.2" fill-rule="evenodd" stroke="#000" stroke-linecap="round" stroke-linejoin="round" stroke-width="1.24"/><path d="M574.05,116.12c13.41,23.64,51.57,36.04,76.32,24.8-27.2,18.79-65.36,6.39-76.32-24.8" fill-rule="evenodd" stroke="#000" stroke-linecap="round" stroke-linejoin="round" stroke-width="1.24"/><path d="M345.1,165.72c24.75,11.24,62.91-1.16,76.32-24.8-10.96,31.19-49.12,43.59-76.32,24.8" fill-rule="evenodd" stroke="#000" stroke-linecap="round" stroke-linejoin="round" stroke-width="1.24"/><path d="M839.71,96.28c10.96-31.19,49.12-43.59,76.32-24.8-24.75-11.24-62.91,1.16-76.32,24.8" fill-rule="evenodd" stroke="#000" stroke-linecap="round" stroke-linejoin="round" stroke-width="1.24"/><line x1="2259.33" y1="388.92" x2="2259.33" y2="490.85" fill="none" stroke="#000" stroke-linejoin="bevel" stroke-width="4.46"/><line x1="2272.97" y1="388.92" x2="2272.97" y2="490.85" fill="none" stroke="#000" stroke-linejoin="bevel" stroke-width="4.46"/><line x1="1973.95" y1="388.92" x2="1973.95" y2="490.85" fill="none" stroke="#000" stroke-linejoin="bevel" stroke-width="4.46"/><line x1="1414.13" y1="388.92" x2="1414.13" y2="490.85" fill="none" stroke="#000" stroke-linejoin="bevel" stroke-width="4.46"/><line x1="854.32" y1="388.92" x2="854.32" y2="490.85" fill="none" stroke="#000" stroke-linejoin="bevel" stroke-width="4.46"/><line x1="2272.97" y1="55.24" x2="2272.97" y2="157.17" fill="none" stroke="#000" stroke-linejoin="bevel" stroke-width="4.46"/><line x1="1778.35" y1="55.24" x2="1778.35" y2="157.17" fill="none" stroke="#000" stroke-linejoin="bevel" stroke-width="4.46"/><line x1="1283.74" y1="55.24" x2="1283.74" y2="157.17" fill="none" stroke="#000" stroke-linejoin="bevel" stroke-width="4.46"/><line x1="789.12" y1="55.24" x2="789.12" y2="157.17" fill="none" stroke="#000" stroke-linejoin="bevel" stroke-width="4.46"/><line x1="1462.66" y1="31.8" x2="1511.26" y2="31.8" fill="none" stroke="#000" stroke-linejoin="bevel" stroke-width="3.97"/><line x1="1538.98" y1="31.8" x2="1587.58" y2="31.8" fill="none" stroke="#000" stroke-linejoin="bevel" stroke-width="3.97"/><line x1="880.61" y1="514.28" x2="929.21" y2="514.28" fill="none" stroke="#000" stroke-linejoin="bevel" stroke-width="3.97"/><line x1="1316.53" y1="514.28" x2="1365.13" y2="514.28" fill="none" stroke="#000" stroke-linejoin="bevel" stroke-width="3.97"/><line x1="1440.42" y1="539.08" x2="1489.02" y2="539.08" fill="none" stroke="#000" stroke-linejoin="bevel" stroke-width="3.97"/><line x1="1440.42" y1="514.28" x2="1489.02" y2="514.28" fill="none" stroke="#000" stroke-linejoin="bevel" stroke-width="3.97"/><line x1="1527.61" y1="514.28" x2="1576.21" y2="514.28" fill="none" stroke="#000" stroke-linejoin="bevel" stroke-width="3.97"/><line x1="1053.79" y1="60.77" x2="1053.79" y2="168.35" fill="none" stroke="#000" stroke-linejoin="bevel" stroke-width="2.48"/><line x1="977.47" y1="60.77" x2="977.47" y2="168.35" fill="none" stroke="#000" stroke-linejoin="bevel" stroke-width="2.48"/><line x1="901.15" y1="97.97" x2="901.15" y2="177.5" fill="none" stroke="#000" stroke-linejoin="bevel" stroke-width="2.48"/><line x1="824.83" y1="122.77" x2="824.83" y2="186.65" fill="none" stroke="#000" stroke-linejoin="bevel" stroke-width="2.48"/><line x1="741.57" y1="139.43" x2="741.57" y2="44.05" fill="none" stroke="#000" stroke-linejoin="bevel" stroke-width="2.48"/><line x1="665.25" y1="114.63" x2="665.25" y2="34.9" fill="none" stroke="#000" stroke-linejoin="bevel" stroke-width="2.48"/><line x1="588.93" y1="89.83" x2="588.93" y2="25.75" fill="none" stroke="#000" stroke-linejoin="bevel" stroke-width="2.48"/><line x1="512.61" y1="89.83" x2="512.61" y2="25.75" fill="none" stroke="#000" stroke-linejoin="bevel" stroke-width="2.48"/><line x1="436.29" y1="114.63" x2="436.29" y2="34.9" fill="none" stroke="#000" stroke-linejoin="bevel" stroke-width="2.48"/><line x1="359.97" y1="139.43" x2="359.97" y2="44.05" fill="none" stroke="#000" stroke-linejoin="bevel" stroke-width="2.48"/><line x1="1319.45" y1="97.97" x2="1319.45" y2="161.9" fill="none" stroke="#000" stroke-linejoin="bevel" stroke-width="2.48"/><line x1="1206.43" y1="122.77" x2="1206.43" y2="186.65" fill="none" stroke="#000" stroke-linejoin="bevel" stroke-width="2.48"/><line x1="1395.77" y1="60.77" x2="1395.77" y2="155.8" fill="none" stroke="#000" stroke-linejoin="bevel" stroke-width="2.48"/><line x1="1472.09" y1="35.97" x2="1472.09" y2="149.7" fill="none" stroke="#000" stroke-linejoin="bevel" stroke-width="2.48"/><line x1="1548.4" y1="35.97" x2="1548.4" y2="149.7" fill="none" stroke="#000" stroke-linejoin="bevel" stroke-width="2.48"/><line x1="1624.72" y1="60.77" x2="1624.72" y2="155.8" fill="none" stroke="#000" stroke-linejoin="bevel" stroke-width="2.48"/><line x1="1701.04" y1="97.97" x2="1701.04" y2="161.9" fill="none" stroke="#000" stroke-linejoin="bevel" stroke-width="2.48"/><line x1="1814.06" y1="122.77" x2="1814.06" y2="186.65" fill="none" stroke="#000" stroke-linejoin="bevel" stroke-width="2.48"/><line x1="1890.38" y1="97.97" x2="1890.38" y2="177.5" fill="none" stroke="#000" stroke-linejoin="bevel" stroke-width="2.48"/><line x1="1966.7" y1="60.77" x2="1966.7" y2="168.35" fill="none" stroke="#000" stroke-linejoin="bevel" stroke-width="2.48"/><line x1="2043.02" y1="60.77" x2="2043.02" y2="168.35" fill="none" stroke="#000" stroke-linejoin="bevel" stroke-width="2.48"/><line x1="2119.34" y1="97.97" x2="2119.34" y2="177.5" fill="none" stroke="#000" stroke-linejoin="bevel" stroke-width="2.48"/><line x1="2195.66" y1="122.77" x2="2195.66" y2="186.65" fill="none" stroke="#000" stroke-linejoin="bevel" stroke-width="2.48"/><line x1="359.97" y1="473.11" x2="359.97" y2="377.75" fill="none" stroke="#000" stroke-linejoin="bevel" stroke-width="2.48"/><line x1="447.16" y1="448.31" x2="447.16" y2="368.58" fill="none" stroke="#000" stroke-linejoin="bevel" stroke-width="2.48"/><line x1="534.34" y1="423.51" x2="534.34" y2="359.41" fill="none" stroke="#000" stroke-linejoin="bevel" stroke-width="2.48"/><line x1="621.53" y1="423.51" x2="621.53" y2="359.41" fill="none" stroke="#000" stroke-linejoin="bevel" stroke-width="2.48"/><line x1="708.71" y1="448.31" x2="708.71" y2="368.58" fill="none" stroke="#000" stroke-linejoin="bevel" stroke-width="2.48"/><line x1="795.9" y1="473.11" x2="795.9" y2="377.75" fill="none" stroke="#000" stroke-linejoin="bevel" stroke-width="2.48"/><line x1="919.78" y1="510.31" x2="919.78" y2="396.39" fill="none" stroke="#000" stroke-linejoin="bevel" stroke-width="2.48"/><line x1="1006.97" y1="473.11" x2="1006.97" y2="390.28" fill="none" stroke="#000" stroke-linejoin="bevel" stroke-width="2.48"/><line x1="1094.15" y1="448.31" x2="1094.15" y2="384.17" fill="none" stroke="#000" stroke-linejoin="bevel" stroke-width="2.48"/><line x1="1181.34" y1="448.31" x2="1181.34" y2="384.17" fill="none" stroke="#000" stroke-linejoin="bevel" stroke-width="2.48"/><line x1="1268.52" y1="473.11" x2="1268.52" y2="390.28" fill="none" stroke="#000" stroke-linejoin="bevel" stroke-width="2.48"/><line x1="1355.71" y1="510.31" x2="1355.71" y2="396.39" fill="none" stroke="#000" stroke-linejoin="bevel" stroke-width="2.48"/><line x1="1479.6" y1="535.11" x2="1479.6" y2="421.19" fill="none" stroke="#000" stroke-linejoin="bevel" stroke-width="2.48"/><line x1="1130.11" y1="97.97" x2="1130.11" y2="177.5" fill="none" stroke="#000" stroke-linejoin="bevel" stroke-width="2.48"/><line x1="1566.78" y1="510.31" x2="1566.78" y2="415.08" fill="none" stroke="#000" stroke-linejoin="bevel" stroke-width="2.48"/><line x1="1653.97" y1="473.11" x2="1653.97" y2="408.97" fill="none" stroke="#000" stroke-linejoin="bevel" stroke-width="2.48"/><line x1="1741.15" y1="473.11" x2="1741.15" y2="377.75" fill="none" stroke="#000" stroke-linejoin="bevel" stroke-width="2.48"/><line x1="1828.34" y1="448.31" x2="1828.34" y2="368.58" fill="none" stroke="#000" stroke-linejoin="bevel" stroke-width="2.48"/><line x1="1915.52" y1="423.51" x2="1915.52" y2="359.41" fill="none" stroke="#000" stroke-linejoin="bevel" stroke-width="2.48"/><line x1="2009.66" y1="394.45" x2="2009.66" y2="477.08" fill="none" stroke="#000" stroke-linejoin="bevel" stroke-width="2.48"/><path d="M503.35,431.65c0,4.26,3.07,9.02,11.11,9.02,10.31,0,21.13-8.43,21.13-17.16,0-5.86-4.96-9.13-11.11-9.13-9.63,0-21.13,8.14-21.13,17.27"/><path d="M328.98,147.57c0,4.26,3.07,9.02,11.11,9.02,10.31,0,21.13-8.43,21.13-17.16,0-5.86-4.96-9.13-11.11-9.13-9.63,0-21.13,8.14-21.13,17.27"/><path d="M405.3,122.77c0,4.26,3.07,9.02,11.11,9.02,10.31,0,21.13-8.43,21.13-17.16,0-5.86-4.96-9.13-11.11-9.13-9.63,0-21.13,8.14-21.13,17.27"/><path d="M481.62,97.97c0,4.26,3.07,9.02,11.11,9.02,10.31,0,21.13-8.43,21.13-17.16,0-5.86-4.96-9.13-11.11-9.13-9.63,0-21.13,8.14-21.13,17.27"/><path d="M557.94,97.97c0,4.26,3.07,9.02,11.11,9.02,10.31,0,21.13-8.43,21.13-17.16,0-5.86-4.96-9.13-11.11-9.13-9.63,0-21.13,8.14-21.13,17.27"/><path d="M634.25,122.77c0,4.26,3.07,9.02,11.11,9.02,10.31,0,21.13-8.43,21.13-17.16,0-5.86-4.96-9.13-11.11-9.13-9.63,0-21.13,8.14-21.13,17.27"/><path d="M710.57,147.57c0,4.26,3.07,9.02,11.11,9.02,10.31,0,21.13-8.43,21.13-17.16,0-5.86-4.96-9.13-11.11-9.13-9.63,0-21.13,8.14-21.13,17.27"/><path d="M823.59,122.77c0,4.26,3.07,9.02,11.11,9.02,10.31,0,21.13-8.43,21.13-17.16,0-5.86-4.96-9.13-11.11-9.13-9.63,0-21.13,8.14-21.13,17.27"/><path d="M899.91,97.97c0,4.26,3.07,9.02,11.11,9.02,10.31,0,21.13-8.43,21.13-17.16,0-5.86-4.96-9.13-11.11-9.13-9.63,0-21.13,8.14-21.13,17.27"/><path d="M976.23,60.77c0,4.26,3.07,9.02,11.11,9.02,10.31,0,21.13-8.43,21.13-17.16,0-5.86-4.96-9.13-11.11-9.13-9.63,0-21.13,8.14-21.13,17.27"/><path d="M1052.55,60.77c0,4.26,3.07,9.02,11.11,9.02,10.31,0,21.13-8.43,21.13-17.16,0-5.86-4.96-9.13-11.11-9.13-9.63,0-21.13,8.14-21.13,17.27"/><path d="M1128.87,97.97c0,4.26,3.07,9.02,11.11,9.02,10.31,0,21.13-8.43,21.13-17.16,0-5.86-4.96-9.13-11.11-9.13-9.63,0-21.13,8.14-21.13,17.27"/><path d="M1205.19,122.77c0,4.26,3.07,9.02,11.11,9.02,10.31,0,21.13-8.43,21.13-17.16,0-5.86-4.96-9.13-11.11-9.13-9.63,0-21.13,8.14-21.13,17.27"/><path d="M1318.21,97.97c0,4.26,3.07,9.02,11.11,9.02,10.31,0,21.13-8.43,21.13-17.16,0-5.86-4.96-9.13-11.11-9.13-9.63,0-21.13,8.14-21.13,17.27"/><path d="M1394.53,60.77c0,4.26,3.07,9.02,11.11,9.02,10.31,0,21.13-8.43,21.13-17.16,0-5.86-4.96-9.13-11.11-9.13-9.63,0-21.13,8.14-21.13,17.27"/><path d="M1470.85,35.97c0,4.26,3.07,9.02,11.11,9.02,10.31,0,21.13-8.43,21.13-17.16,0-5.86-4.96-9.13-11.11-9.13-9.63,0-21.13,8.14-21.13,17.27"/><path d="M1547.16,35.97c0,4.26,3.07,9.02,11.11,9.02,10.31,0,21.13-8.43,21.13-17.16,0-5.86-4.96-9.13-11.11-9.13-9.63,0-21.13,8.14-21.13,17.27"/><path d="M1623.48,60.77c0,4.26,3.07,9.02,11.11,9.02,10.31,0,21.13-8.43,21.13-17.16,0-5.86-4.96-9.13-11.11-9.13-9.63,0-21.13,8.14-21.13,17.27"/><path d="M1699.8,97.97c0,4.26,3.07,9.02,11.11,9.02,10.31,0,21.13-8.43,21.13-17.16,0-5.86-4.96-9.13-11.11-9.13-9.63,0-21.13,8.14-21.13,17.27"/><path d="M1812.82,122.77c0,4.26,3.07,9.02,11.11,9.02,10.31,0,21.13-8.43,21.13-17.16,0-5.86-4.96-9.13-11.11-9.13-9.63,0-21.13,8.14-21.13,17.27"/><path d="M1889.14,97.97c0,4.26,3.07,9.02,11.11,9.02,10.31,0,21.13-8.43,21.13-17.16,0-5.86-4.96-9.13-11.11-9.13-9.63,0-21.13,8.14-21.13,17.27"/><path d="M1965.46,60.77c0,4.26,3.07,9.02,11.11,9.02,10.31,0,21.13-8.43,21.13-17.16,0-5.86-4.96-9.13-11.11-9.13-9.63,0-21.13,8.14-21.13,17.27"/><path d="M2041.78,60.77c0,4.26,3.07,9.02,11.11,9.02,10.31,0,21.13-8.43,21.13-17.16,0-5.86-4.96-9.13-11.11-9.13-9.63,0-21.13,8.14-21.13,17.27"/><path d="M2118.1,97.97c0,4.26,3.07,9.02,11.11,9.02,10.31,0,21.13-8.43,21.13-17.16,0-5.86-4.96-9.13-11.11-9.13-9.63,0-21.13,8.14-21.13,17.27"/><path d="M2194.42,122.77c0,4.26,3.07,9.02,11.11,9.02,10.31,0,21.13-8.43,21.13-17.16,0-5.86-4.96-9.13-11.11-9.13-9.63,0-21.13,8.14-21.13,17.27"/><path d="M328.98,481.25c0,4.26,3.07,9.02,11.11,9.02,10.31,0,21.13-8.43,21.13-17.16,0-5.86-4.96-9.13-11.11-9.13-9.63,0-21.13,8.14-21.13,17.27"/><path d="M416.16,456.45c0,4.26,3.07,9.02,11.11,9.02,10.31,0,21.13-8.43,21.13-17.16,0-5.86-4.96-9.13-11.11-9.13-9.63,0-21.13,8.14-21.13,17.27"/><path d="M590.53,431.65c0,4.26,3.07,9.02,11.11,9.02,10.31,0,21.13-8.43,21.13-17.16,0-5.86-4.96-9.13-11.11-9.13-9.63,0-21.13,8.14-21.13,17.27"/><path d="M677.72,456.45c0,4.26,3.07,9.02,11.11,9.02,10.31,0,21.13-8.43,21.13-17.16,0-5.86-4.96-9.13-11.11-9.13-9.63,0-21.13,8.14-21.13,17.27"/><path d="M764.9,481.25c0,4.26,3.07,9.02,11.11,9.02,10.31,0,21.13-8.43,21.13-17.16,0-5.86-4.96-9.13-11.11-9.13-9.63,0-21.13,8.14-21.13,17.27"/><path d="M888.79,518.45c0,4.26,3.07,9.02,11.11,9.02,10.31,0,21.13-8.43,21.13-17.16,0-5.86-4.96-9.13-11.11-9.13-9.63,0-21.13,8.14-21.13,17.27"/><path d="M975.98,481.25c0,4.26,3.07,9.02,11.11,9.02,10.31,0,21.13-8.43,21.13-17.16,0-5.86-4.96-9.13-11.11-9.13-9.63,0-21.13,8.14-21.13,17.27"/><path d="M1063.16,456.45c0,4.26,3.07,9.02,11.11,9.02,10.31,0,21.13-8.43,21.13-17.16,0-5.86-4.96-9.13-11.11-9.13-9.63,0-21.13,8.14-21.13,17.27"/><path d="M1150.35,456.45c0,4.26,3.07,9.02,11.11,9.02,10.31,0,21.13-8.43,21.13-17.16,0-5.86-4.96-9.13-11.11-9.13-9.63,0-21.13,8.14-21.13,17.27"/><path d="M1237.53,481.25c0,4.26,3.07,9.02,11.11,9.02,10.31,0,21.13-8.43,21.13-17.16,0-5.86-4.96-9.13-11.11-9.13-9.63,0-21.13,8.14-21.13,17.27"/><path d="M1324.72,518.45c0,4.26,3.07,9.02,11.11,9.02,10.31,0,21.13-8.43,21.13-17.16,0-5.86-4.96-9.13-11.11-9.13-9.63,0-21.13,8.14-21.13,17.27"/><path d="M1448.61,543.25c0,4.26,3.07,9.02,11.11,9.02,10.31,0,21.13-8.43,21.13-17.16,0-5.86-4.96-9.13-11.11-9.13-9.63,0-21.13,8.14-21.13,17.27"/><path d="M1535.79,518.45c0,4.26,3.07,9.02,11.11,9.02,10.31,0,21.13-8.43,21.13-17.16,0-5.86-4.96-9.13-11.11-9.13-9.63,0-21.13,8.14-21.13,17.27"/><path d="M1622.98,481.25c0,4.26,3.07,9.02,11.11,9.02,10.31,0,21.13-8.43,21.13-17.16,0-5.86-4.96-9.13-11.11-9.13-9.63,0-21.13,8.14-21.13,17.27"/><path d="M1710.16,481.25c0,4.26,3.07,9.02,11.11,9.02,10.31,0,21.13-8.43,21.13-17.16,0-5.86-4.96-9.13-11.11-9.13-9.63,0-21.13,8.14-21.13,17.27"/><path d="M1797.35,456.45c0,4.26,3.07,9.02,11.11,9.02,10.31,0,21.13-8.43,21.13-17.16,0-5.86-4.96-9.13-11.11-9.13-9.63,0-21.13,8.14-21.13,17.27"/><path d="M1884.53,431.65c0,4.26,3.07,9.02,11.11,9.02,10.31,0,21.13-8.43,21.13-17.16,0-5.86-4.96-9.13-11.11-9.13-9.63,0-21.13,8.14-21.13,17.27"/><path d="M2029.55,377.19c-9.63,0-21.13,8.04-21.13,17.27,0,4.26,3.07,9.02,11.11,9.02,10.31,0,21.13-8.43,21.13-17.16,0-5.86-4.96-9.13-11.11-9.13m-13.69,21.62c-3.27,0-3.97-2.67-3.97-3.56,0-4.87,16.66-13.39,21.33-13.39,2.39,0,3.97,1.39,3.97,3.56,0,4.96-16.77,13.39-21.33,13.39"/><path d="M30.8,181.89c0,6.56,4.96,15.19,18.35,15.19,4.67,0,8.74-1.19,12.31-3.38,5.36-3.77,6.74-10.32,6.74-16.57,0-3.86-.59-8.32-1.58-13.98-.29-1.98-.9-4.96-1.49-8.84,9.72-3.18,16.96-13.3,16.96-23.51,0-14.97-10.62-25.09-25.09-25.09-.99-5.95-1.98-11.81-2.77-17.36,10.42-11.02,17.65-23.42,17.65-39.18,0-9.04-2.77-16.37-4.37-19.95-2.37-5.05-5.25-8.53-7.04-8.53-.7,0-3.77,1.19-7.04,5.05-6.36,7.55-8.14,20.24-8.14,28.57,0,5.36,.5,10.23,2.19,21.34-.11,.09-5.27,5.35-7.35,7.04-9.04,8.34-21.53,20.43-21.53,40.28,0,18.54,16.17,33.12,34.63,33.12,2.87,0,5.55-.29,7.83-.7,1.89,9.53,3.08,16.48,3.08,21.73,0,10.32-5.36,15.78-15.38,15.78-2.39,0-4.46-.5-4.67-.5-.09-.11-.29-.2-.29-.29,0-.2,.2-.31,.5-.31,4.67-.79,9.32-4.76,9.32-11.1,0-5.36-4.06-11.02-11.5-11.02-6.94,0-11.31,5.66-11.31,12.2M51.54,49.46c.9-3.97,5.46-14.38,10.62-14.38,1.49,0,3.86,4.76,3.86,11.7,0,10.32-7.63,18.06-14.48,24.8-.59-3.97-1.08-7.83-1.08-12,0-3.67,.29-7.05,1.08-10.12m8.73,101.97c-1.98,.4-3.86,.6-5.75,.6-14.18,0-26.29-9.92-26.29-24.91,0-12.09,8.53-22.91,17.27-30.46,1.67-1.49,3.27-2.87,4.76-4.36,.88,5.35,1.58,10.01,2.28,14.09-9.04,2.68-15.17,12.2-15.17,21.53,0,6.94,5.46,16.46,13.39,16.46,.79,0,1.69-.4,1.69-1.29s-.99-1.39-2.19-2.19c-3.88-2.39-6.06-4.96-6.06-9.83,0-6.04,4.57-10.91,10.32-12.29l5.75,32.63m14.09-18.35c0,7.05-2.88,14.29-9.92,17.17-2.08-11.9-4.76-27.68-5.46-32.05,8.93,0,15.38,6.06,15.38,14.88"/><path d="M30.8,515.57c0,6.56,4.96,15.19,18.35,15.19,4.67,0,8.74-1.19,12.31-3.38,5.36-3.77,6.74-10.32,6.74-16.57,0-3.86-.59-8.32-1.58-13.98-.29-1.98-.9-4.96-1.49-8.84,9.72-3.18,16.96-13.3,16.96-23.51,0-14.97-10.62-25.09-25.09-25.09-.99-5.95-1.98-11.81-2.77-17.36,10.42-11.02,17.65-23.42,17.65-39.18,0-9.04-2.77-16.37-4.37-19.95-2.37-5.05-5.25-8.53-7.04-8.53-.7,0-3.77,1.19-7.04,5.05-6.36,7.55-8.14,20.24-8.14,28.57,0,5.36,.5,10.23,2.19,21.34-.11,.09-5.27,5.35-7.35,7.04-9.04,8.34-21.53,20.43-21.53,40.28,0,18.54,16.17,33.12,34.63,33.12,2.87,0,5.55-.29,7.83-.7,1.89,9.53,3.08,16.48,3.08,21.73,0,10.32-5.36,15.78-15.38,15.78-2.39,0-4.46-.5-4.67-.5-.09-.11-.29-.2-.29-.29,0-.2,.2-.31,.5-.31,4.67-.79,9.32-4.76,9.32-11.1,0-5.36-4.06-11.02-11.5-11.02-6.94,0-11.31,5.66-11.31,12.2m20.74-132.43c.9-3.97,5.46-14.38,10.62-14.38,1.49,0,3.86,4.76,3.86,11.7,0,10.32-7.63,18.06-14.48,24.8-.59-3.97-1.08-7.83-1.08-12,0-3.67,.29-7.05,1.08-10.12m8.73,101.97c-1.98,.4-3.86,.6-5.75,.6-14.18,0-26.29-9.92-26.29-24.91,0-12.09,8.53-22.91,17.27-30.46,1.67-1.49,3.27-2.87,4.76-4.36,.88,5.35,1.58,10.01,2.28,14.09-9.04,2.68-15.17,12.2-15.17,21.53,0,6.94,5.46,16.46,13.39,16.46,.79,0,1.69-.4,1.69-1.29s-.99-1.39-2.19-2.19c-3.88-2.39-6.06-4.96-6.06-9.83,0-6.04,4.57-10.91,10.32-12.29l5.75,32.63m14.09-18.35c0,7.05-2.88,14.29-9.92,17.17-2.08-11.9-4.76-27.68-5.46-32.05,8.93,0,15.38,6.06,15.38,14.88"/><path d="M129.99,46.19c.6-.09,1.1-.79,1.1-1.4v-5.84c0-.99-.7-1.39-1.6-1.39l-3.27,.7v-14.79h-2.77v15.38l-8.83,1.8v-14h-2.77v14.59l-3.87,.79c-.59,.11-1.08,.79-1.08,1.39v5.75c0,1.08,.79,1.39,1.69,1.39l3.27-.7v16.37l-3.87,.79c-.59,.09-1.08,.79-1.08,1.4v5.75c0,1.09,.79,1.38,1.69,1.38l3.27-.68v14.77h2.77v-15.38l8.83-1.78v14h2.77v-14.59l3.77-.7c.6-.11,1.1-.79,1.1-1.39v-5.84c0-.99-.7-1.39-1.6-1.39l-3.27,.7v-16.37l3.77-.7m-15.38,3.07l8.83-1.78v16.37l-8.83,1.89v-16.48"/><path d="M157.16,83.39c.6-.09,1.1-.79,1.1-1.4v-5.84c0-.99-.7-1.39-1.6-1.39l-3.27,.7v-14.79h-2.77v15.38l-8.83,1.8v-14h-2.77v14.59l-3.87,.79c-.59,.11-1.08,.79-1.08,1.39v5.75c0,1.08,.79,1.39,1.69,1.39l3.27-.7v16.37l-3.87,.79c-.59,.09-1.08,.79-1.08,1.4v5.75c0,1.09,.79,1.38,1.69,1.38l3.27-.68v14.77h2.77v-15.38l8.83-1.78v14h2.77v-14.59l3.77-.7c.6-.11,1.1-.79,1.1-1.39v-5.84c0-.99-.7-1.39-1.6-1.39l-3.27,.7v-16.37l3.77-.7m-15.38,3.07l8.83-1.78v16.37l-8.83,1.89v-16.48"/><path d="M184.33,33.79c.6-.09,1.1-.79,1.1-1.4v-5.84c0-.99-.7-1.39-1.6-1.39l-3.27,.7V11.06h-2.77v15.38l-8.83,1.8V14.24h-2.77v14.59l-3.87,.79c-.59,.11-1.08,.79-1.08,1.39v5.75c0,1.08,.79,1.39,1.69,1.39l3.27-.7v16.37l-3.87,.79c-.59,.09-1.08,.79-1.08,1.4v5.75c0,1.09,.79,1.38,1.69,1.38l3.27-.68v14.77h2.77v-15.38l8.83-1.78v14h2.77v-14.59l3.77-.7c.6-.11,1.1-.79,1.1-1.39v-5.84c0-.99-.7-1.39-1.6-1.39l-3.27,.7v-16.37l3.77-.7m-15.38,3.07l8.83-1.78v16.37l-8.83,1.89v-16.48"/><path d="M211.52,70.99c.6-.09,1.1-.79,1.1-1.4v-5.84c0-.99-.7-1.39-1.6-1.39l-3.27,.7v-14.79h-2.77v15.38l-8.83,1.8v-14h-2.77v14.59l-3.87,.79c-.59,.11-1.08,.79-1.08,1.39v5.75c0,1.08,.79,1.39,1.69,1.39l3.27-.7v16.37l-3.87,.79c-.59,.09-1.08,.79-1.08,1.4v5.75c0,1.09,.79,1.38,1.69,1.38l3.27-.68v14.77h2.77v-15.38l8.83-1.78v14h2.77v-14.59l3.77-.7c.6-.11,1.1-.79,1.1-1.39v-5.84c0-.99-.7-1.39-1.6-1.39l-3.27,.7v-16.37l3.77-.7m-15.38,3.07l8.83-1.78v16.37l-8.83,1.89v-16.48"/><path d="M238.69,108.19c.6-.09,1.1-.79,1.1-1.4v-5.84c0-.99-.7-1.39-1.6-1.39l-3.27,.7v-14.79h-2.77v15.38l-8.83,1.8v-14h-2.77v14.59l-3.87,.79c-.59,.11-1.08,.79-1.08,1.39v5.75c0,1.08,.79,1.39,1.69,1.39l3.27-.7v16.37l-3.87,.79c-.59,.09-1.08,.79-1.08,1.4v5.75c0,1.09,.79,1.38,1.69,1.38l3.27-.68v14.77h2.77v-15.38l8.83-1.78v14h2.77v-14.59l3.77-.7c.6-.11,1.1-.79,1.1-1.39v-5.84c0-.99-.7-1.39-1.6-1.39l-3.27,.7v-16.37l3.77-.7m-15.38,3.07l8.83-1.78v16.37l-8.83,1.89v-16.48"/><path d="M265.88,58.59c.6-.09,1.1-.79,1.1-1.4v-5.84c0-.99-.7-1.39-1.6-1.39l-3.27,.7v-14.79h-2.77v15.38l-8.83,1.8v-14h-2.77v14.59l-3.87,.79c-.59,.11-1.08,.79-1.08,1.39v5.75c0,1.08,.79,1.39,1.69,1.39l3.27-.7v16.37l-3.87,.79c-.59,.09-1.08,.79-1.08,1.4v5.75c0,1.09,.79,1.38,1.69,1.38l3.27-.68v14.77h2.77v-15.38l8.83-1.78v14h2.77v-14.59l3.77-.7c.6-.11,1.1-.79,1.1-1.39v-5.84c0-.99-.7-1.39-1.6-1.39l-3.27,.7v-16.37l3.77-.7m-15.38,3.07l8.83-1.78v16.37l-8.83,1.89v-16.48"/><path d="M129.99,379.87c.6-.09,1.1-.79,1.1-1.4v-5.84c0-.99-.7-1.39-1.6-1.39l-3.27,.7v-14.79h-2.77v15.38l-8.83,1.8v-14h-2.77v14.59l-3.87,.79c-.59,.11-1.08,.79-1.08,1.39v5.75c0,1.08,.79,1.39,1.69,1.39l3.27-.7v16.37l-3.87,.79c-.59,.09-1.08,.79-1.08,1.4v5.75c0,1.09,.79,1.38,1.69,1.38l3.27-.68v14.77h2.77v-15.38l8.83-1.78v14h2.77v-14.59l3.77-.7c.6-.11,1.1-.79,1.1-1.39v-5.84c0-.99-.7-1.39-1.6-1.39l-3.27,.7v-16.37l3.77-.7m-15.38,3.07l8.83-1.78v16.37l-8.83,1.89v-16.48"/><path d="M157.16,417.07c.6-.09,1.1-.79,1.1-1.4v-5.84c0-.99-.7-1.39-1.6-1.39l-3.27,.7v-14.79h-2.77v15.38l-8.83,1.8v-14h-2.77v14.59l-3.87,.79c-.59,.11-1.08,.79-1.08,1.39v5.75c0,1.08,.79,1.39,1.69,1.39l3.27-.7v16.37l-3.87,.79c-.59,.09-1.08,.79-1.08,1.4v5.75c0,1.09,.79,1.38,1.69,1.38l3.27-.68v14.77h2.77v-15.38l8.83-1.78v14h2.77v-14.59l3.77-.7c.6-.11,1.1-.79,1.1-1.39v-5.84c0-.99-.7-1.39-1.6-1.39l-3.27,.7v-16.37l3.77-.7m-15.38,3.07l8.83-1.78v16.37l-8.83,1.89v-16.48"/><path d="M184.33,367.47c.6-.09,1.1-.79,1.1-1.4v-5.84c0-.99-.7-1.39-1.6-1.39l-3.27,.7v-14.79h-2.77v15.38l-8.83,1.8v-14h-2.77v14.59l-3.87,.79c-.59,.11-1.08,.79-1.08,1.39v5.75c0,1.08,.79,1.39,1.69,1.39l3.27-.7v16.37l-3.87,.79c-.59,.09-1.08,.79-1.08,1.4v5.75c0,1.09,.79,1.38,1.69,1.38l3.27-.68v14.77h2.77v-15.38l8.83-1.78v14h2.77v-14.59l3.77-.7c.6-.11,1.1-.79,1.1-1.39v-5.84c0-.99-.7-1.39-1.6-1.39l-3.27,.7v-16.37l3.77-.7m-15.38,3.07l8.83-1.78v16.37l-8.83,1.89v-16.48"/><path d="M211.52,404.67c.6-.09,1.1-.79,1.1-1.4v-5.84c0-.99-.7-1.39-1.6-1.39l-3.27,.7v-14.79h-2.77v15.38l-8.83,1.8v-14h-2.77v14.59l-3.87,.79c-.59,.11-1.08,.79-1.08,1.39v5.75c0,1.08,.79,1.39,1.69,1.39l3.27-.7v16.37l-3.87,.79c-.59,.09-1.08,.79-1.08,1.4v5.75c0,1.09,.79,1.38,1.69,1.38l3.27-.68v14.77h2.77v-15.38l8.83-1.78v14h2.77v-14.59l3.77-.7c.6-.11,1.1-.79,1.1-1.39v-5.84c0-.99-.7-1.39-1.6-1.39l-3.27,.7v-16.37l3.77-.7m-15.38,3.07l8.83-1.78v16.37l-8.83,1.89v-16.48"/><path d="M238.69,441.87c.6-.09,1.1-.79,1.1-1.4v-5.84c0-.99-.7-1.39-1.6-1.39l-3.27,.7v-14.79h-2.77v15.38l-8.83,1.8v-14h-2.77v14.59l-3.87,.79c-.59,.11-1.08,.79-1.08,1.39v5.75c0,1.08,.79,1.39,1.69,1.39l3.27-.7v16.37l-3.87,.79c-.59,.09-1.08,.79-1.08,1.4v5.75c0,1.09,.79,1.38,1.69,1.38l3.27-.68v14.77h2.77v-15.38l8.83-1.78v14h2.77v-14.59l3.77-.7c.6-.11,1.1-.79,1.1-1.39v-5.84c0-.99-.7-1.39-1.6-1.39l-3.27,.7v-16.37l3.77-.7m-15.38,3.07l8.83-1.78v16.37l-8.83,1.89v-16.48"/><path d="M265.88,392.27c.6-.09,1.1-.79,1.1-1.4v-5.84c0-.99-.7-1.39-1.6-1.39l-3.27,.7v-14.79h-2.77v15.38l-8.83,1.8v-14h-2.77v14.59l-3.87,.79c-.59,.11-1.08,.79-1.08,1.39v5.75c0,1.08,.79,1.39,1.69,1.39l3.27-.7v16.37l-3.87,.79c-.59,.09-1.08,.79-1.08,1.4v5.75c0,1.09,.79,1.38,1.69,1.38l3.27-.68v14.77h2.77v-15.38l8.83-1.78v14h2.77v-14.59l3.77-.7c.6-.11,1.1-.79,1.1-1.39v-5.84c0-.99-.7-1.39-1.6-1.39l-3.27,.7v-16.37l3.77-.7m-15.38,3.07l8.83-1.78v16.37l-8.83,1.89v-16.48"/><path d="M2047.26,337.22c-9.32-10.12-17.56-10.71-22.71-10.71s-13.3,.59-22.63,10.71c-4.85,5.36-8.23,15.96-8.23,21.33,0,1.89,.4,3.18,1.39,3.18,2.77,0,1.38-8.54,9.72-16.97,7.33-7.33,17.16-7.44,19.55-7.44h.39c2.39,0,12.21,.11,19.55,7.44,8.34,8.43,6.94,16.97,9.72,16.97,.99,0,1.39-1.19,1.39-3.18,0-5.36-3.27-16.07-8.14-21.33m-29.56,18.94c0,3.78,3.07,6.85,6.85,6.85s6.84-3.07,6.84-6.85-3.07-6.84-6.84-6.84-6.85,3.07-6.85,6.84"/><path d="M1812.82,180.56l155.12-18.6v12.49l-155.12,18.6v-12.49" fill-rule="evenodd"/><path d="M2041.78,161.96l155.12,18.6v12.49l-155.12-18.6v-12.49" fill-rule="evenodd"/><path d="M358.73,371.65l176.85-18.6v12.47l-176.85,18.6v-12.47" fill-rule="evenodd"/><path d="M620.29,353.05l176.85,18.6v12.47l-176.85-18.6v-12.47" fill-rule="evenodd"/><path d="M918.54,390.27l176.85-12.4v12.43l-176.85,12.4v-12.43" fill-rule="evenodd"/><path d="M358.73,37.96l155.12-18.6v12.49l-155.12,18.6v-12.49" fill-rule="evenodd"/><path d="M1180.1,377.87l176.85,12.4v12.43l-176.85-12.4v-12.43" fill-rule="evenodd"/><path d="M587.69,19.36l155.12,18.6v12.49l-155.12-18.6v-12.49" fill-rule="evenodd"/><path d="M1478.36,415.07l176.85-12.4v12.43l-176.85,12.4v-12.43" fill-rule="evenodd"/><path d="M823.59,180.56l155.12-18.6v12.49l-155.12,18.6v-12.49" fill-rule="evenodd"/><path d="M1739.91,371.65l176.85-18.6v12.47l-176.85,18.6v-12.47" fill-rule="evenodd"/><path d="M1052.55,161.96l155.12,18.6v12.49l-155.12-18.6v-12.49" fill-rule="evenodd"/><path d="M1318.21,155.78l155.12-12.4v12.44l-155.12,12.4v-12.44" fill-rule="evenodd"/><path d="M1547.16,143.38l155.12,12.4v12.44l-155.12-12.4v-12.44" fill-rule="evenodd"/><path d="M2053.05,377.88c0,2.77,2.19,4.96,4.96,4.96s4.96-2.19,4.96-4.96-2.19-4.96-4.96-4.96-4.96,2.19-4.96,4.96"/></g></svg>