<?xml version="1.0" encoding="UTF-8"?><svg id="Ebene_2" xmlns="http://www.w3.org/2000/svg" viewBox="0 0 336.49 191.5"><g id="Ebene_1-2"><line x1="4.02" y1="48.9" x2="334" y2="48.9" fill="none" stroke="#000" stroke-linejoin="bevel" stroke-width="2.73"/><line x1="4.02" y1="73.7" x2="334" y2="73.7" fill="none" stroke="#000" stroke-linejoin="bevel" stroke-width="2.73"/><line x1="4.02" y1="98.5" x2="334" y2="98.5" fill="none" stroke="#000" stroke-linejoin="bevel" stroke-width="2.73"/><line x1="4.02" y1="123.3" x2="334" y2="123.3" fill="none" stroke="#000" stroke-linejoin="bevel" stroke-width="2.73"/><line x1="4.02" y1="148.1" x2="334" y2="148.1" fill="none" stroke="#000" stroke-linejoin="bevel" stroke-width="2.73"/><line x1="4.02" y1="47.54" x2="4.02" y2="149.46" fill="none" stroke="#000" stroke-linejoin="bevel" stroke-width="4.46"/><line x1="334.26" y1="47.54" x2="334.26" y2="149.46" fill="none" stroke="#000" stroke-linejoin="bevel" stroke-width="4.46"/><line x1="113.12" y1="127.47" x2="113.12" y2="185.3" fill="none" stroke="#000" stroke-linejoin="bevel" stroke-width="2.48"/><line x1="186.5" y1="90.27" x2="186.5" y2="185.3" fill="none" stroke="#000" stroke-linejoin="bevel" stroke-width="2.48"/><line x1="259.89" y1="65.47" x2="259.89" y2="185.3" fill="none" stroke="#000" stroke-linejoin="bevel" stroke-width="2.48"/><line x1="39.74" y1="90.27" x2="39.74" y2="185.3" fill="none" stroke="#000" stroke-linejoin="bevel" stroke-width="2.48"/><path d="M38.5,90.27c0,4.26,3.07,9.02,11.11,9.02,10.31,0,21.13-8.43,21.13-17.16,0-5.86-4.96-9.13-11.11-9.13-9.63,0-21.13,8.14-21.13,17.27"/><path d="M111.88,127.47c0,4.26,3.07,9.02,11.11,9.02,10.31,0,21.13-8.43,21.13-17.16,0-5.86-4.96-9.13-11.11-9.13-9.63,0-21.13,8.14-21.13,17.27"/><path d="M185.26,90.27c0,4.26,3.07,9.02,11.11,9.02,10.31,0,21.13-8.43,21.13-17.16,0-5.86-4.96-9.13-11.11-9.13-9.63,0-21.13,8.14-21.13,17.27"/><path d="M258.65,65.47c0,4.26,3.07,9.02,11.11,9.02,10.31,0,21.13-8.43,21.13-17.16,0-5.86-4.96-9.13-11.11-9.13-9.63,0-21.13,8.14-21.13,17.27"/><path d="M77.34,10.71C68.02,.59,59.78,0,54.63,0s-13.3,.59-22.63,10.71c-4.85,5.36-8.23,15.96-8.23,21.33,0,1.89,.4,3.18,1.39,3.18,2.77,0,1.38-8.54,9.72-16.97,7.33-7.33,17.16-7.44,19.55-7.44h.39c2.39,0,12.21,.11,19.55,7.44,8.34,8.43,6.94,16.97,9.72,16.97,.99,0,1.39-1.19,1.39-3.18,0-5.36-3.27-16.07-8.14-21.33m-29.56,18.94c0,3.78,3.07,6.85,6.85,6.85s6.84-3.07,6.84-6.85-3.07-6.84-6.84-6.84-6.85,3.07-6.85,6.84"/><path d="M38.5,179.1h222.63v12.4H38.5v-12.4" fill-rule="evenodd"/><rect width="334" height="191.5" fill="none"/></g></svg>