<?xml version="1.0" encoding="UTF-8"?><svg id="b" xmlns="http://www.w3.org/2000/svg" viewBox="0 0 280.75 112.96"><g id="c"><line x1="276.87" y1="1.37" x2="1.87" y2="1.37" fill="none" stroke="#000" stroke-linejoin="bevel" stroke-width="2.73"/><line x1="276.87" y1="26.17" x2="1.87" y2="26.17" fill="none" stroke="#000" stroke-linejoin="bevel" stroke-width="2.73"/><line x1="276.87" y1="50.96" x2="1.87" y2="50.96" fill="none" stroke="#000" stroke-linejoin="bevel" stroke-width="2.73"/><line x1="276.87" y1="75.77" x2="1.87" y2="75.77" fill="none" stroke="#000" stroke-linejoin="bevel" stroke-width="2.73"/><line x1="276.87" y1="100.56" x2="1.87" y2="100.56" fill="none" stroke="#000" stroke-linejoin="bevel" stroke-width="2.73"/><line x1="278.52" y1="0" x2="278.52" y2="101.93" fill="none" stroke="#000" stroke-linejoin="bevel" stroke-width="4.46"/><line x1="2.23" y1="0" x2="2.23" y2="101.93" fill="none" stroke="#000" stroke-linejoin="bevel" stroke-width="4.46"/><line x1="37.95" y1="42.73" x2="37.95" y2="106.77" fill="none" stroke="#000" stroke-linejoin="bevel" stroke-width="2.48"/><line x1="94.66" y1="42.73" x2="94.66" y2="106.77" fill="none" stroke="#000" stroke-linejoin="bevel" stroke-width="2.48"/><line x1="151.38" y1="42.73" x2="151.38" y2="106.77" fill="none" stroke="#000" stroke-linejoin="bevel" stroke-width="2.48"/><line x1="208.09" y1="42.73" x2="208.09" y2="106.77" fill="none" stroke="#000" stroke-linejoin="bevel" stroke-width="2.48"/><path d="M36.71,42.73c0,4.26,3.07,9.02,11.11,9.02,10.31,0,21.13-8.43,21.13-17.16,0-5.86-4.96-9.13-11.11-9.13-9.63,0-21.13,8.14-21.13,17.27"/><path d="M93.42,42.73c0,4.26,3.07,9.02,11.11,9.02,10.31,0,21.13-8.43,21.13-17.16,0-5.86-4.96-9.13-11.11-9.13-9.63,0-21.13,8.14-21.13,17.27"/><path d="M150.14,42.73c0,4.26,3.07,9.02,11.11,9.02,10.31,0,21.13-8.43,21.13-17.16,0-5.86-4.96-9.13-11.11-9.13-9.63,0-21.13,8.14-21.13,17.27"/><path d="M206.85,42.73c0,4.26,3.07,9.02,11.11,9.02,10.31,0,21.13-8.43,21.13-17.16,0-5.86-4.96-9.13-11.11-9.13-9.63,0-21.13,8.14-21.13,17.27"/><path d="M36.71,100.56H209.33v12.4H36.71v-12.4" fill-rule="evenodd"/></g></svg>