<?xml version="1.0" encoding="UTF-8"?><svg id="b" xmlns="http://www.w3.org/2000/svg" viewBox="0 0 2552.4 532.66"><g id="c"><line y1="50.18" x2="2552.4" y2="50.18" fill="none" stroke="#000" stroke-linejoin="bevel" stroke-width="2.73"/><line y1="74.98" x2="2552.4" y2="74.98" fill="none" stroke="#000" stroke-linejoin="bevel" stroke-width="2.73"/><line y1="99.78" x2="2552.4" y2="99.78" fill="none" stroke="#000" stroke-linejoin="bevel" stroke-width="2.73"/><line y1="124.58" x2="2552.4" y2="124.58" fill="none" stroke="#000" stroke-linejoin="bevel" stroke-width="2.73"/><line y1="149.38" x2="2552.4" y2="149.38" fill="none" stroke="#000" stroke-linejoin="bevel" stroke-width="2.73"/><line y1="383.86" x2="2552.4" y2="383.86" fill="none" stroke="#000" stroke-linejoin="bevel" stroke-width="2.73"/><line y1="408.66" x2="2552.4" y2="408.66" fill="none" stroke="#000" stroke-linejoin="bevel" stroke-width="2.73"/><line y1="433.46" x2="2552.4" y2="433.46" fill="none" stroke="#000" stroke-linejoin="bevel" stroke-width="2.73"/><line y1="458.26" x2="2552.4" y2="458.26" fill="none" stroke="#000" stroke-linejoin="bevel" stroke-width="2.73"/><line y1="483.06" x2="2552.4" y2="483.06" fill="none" stroke="#000" stroke-linejoin="bevel" stroke-width="2.73"/><line x1="1381.57" y1="48.82" x2="1381.57" y2="150.74" fill="none" stroke="#000" stroke-linejoin="bevel" stroke-width="4.46"/><line x1="2550.17" y1="48.82" x2="2550.17" y2="150.74" fill="none" stroke="#000" stroke-linejoin="bevel" stroke-width="4.46"/><line x1="1205.61" y1="382.5" x2="1205.61" y2="484.42" fill="none" stroke="#000" stroke-linejoin="bevel" stroke-width="4.46"/><line x1="2198.24" y1="382.5" x2="2198.24" y2="484.42" fill="none" stroke="#000" stroke-linejoin="bevel" stroke-width="4.46"/><line x1="2536.53" y1="382.5" x2="2536.53" y2="484.42" fill="none" stroke="#000" stroke-linejoin="bevel" stroke-width="4.46"/><line x1="2550.17" y1="382.5" x2="2550.17" y2="484.42" fill="none" stroke="#000" stroke-linejoin="bevel" stroke-width="4.46"/><line x1="743.89" y1="116.35" x2="743.89" y2="192.74" fill="none" stroke="#000" stroke-linejoin="bevel" stroke-width="2.48"/><line x1="673.14" y1="116.35" x2="673.14" y2="190.7" fill="none" stroke="#000" stroke-linejoin="bevel" stroke-width="2.48"/><line x1="531.66" y1="91.55" x2="531.66" y2="186.62" fill="none" stroke="#000" stroke-linejoin="bevel" stroke-width="2.48"/><line x1="490.66" y1="95.81" x2="490.66" y2="25.42" fill="none" stroke="#000" stroke-linejoin="bevel" stroke-width="2.48"/><line x1="419.92" y1="95.81" x2="419.92" y2="27.46" fill="none" stroke="#000" stroke-linejoin="bevel" stroke-width="2.48"/><line x1="349.18" y1="108.21" x2="349.18" y2="29.5" fill="none" stroke="#000" stroke-linejoin="bevel" stroke-width="2.48"/><line x1="278.43" y1="108.21" x2="278.43" y2="31.54" fill="none" stroke="#000" stroke-linejoin="bevel" stroke-width="2.48"/><line x1="602.4" y1="91.55" x2="602.4" y2="188.66" fill="none" stroke="#000" stroke-linejoin="bevel" stroke-width="2.48"/><line x1="928.53" y1="441.89" x2="928.53" y2="365.3" fill="none" stroke="#000" stroke-linejoin="bevel" stroke-width="2.48"/><line x1="1309.83" y1="103.95" x2="1309.83" y2="174.14" fill="none" stroke="#000" stroke-linejoin="bevel" stroke-width="2.48"/><line x1="1239.09" y1="103.95" x2="1239.09" y2="172.1" fill="none" stroke="#000" stroke-linejoin="bevel" stroke-width="2.48"/><line x1="1168.35" y1="79.15" x2="1168.35" y2="170.06" fill="none" stroke="#000" stroke-linejoin="bevel" stroke-width="2.48"/><line x1="1417.28" y1="91.55" x2="1417.28" y2="167.94" fill="none" stroke="#000" stroke-linejoin="bevel" stroke-width="2.48"/><line x1="1488.02" y1="91.55" x2="1488.02" y2="165.9" fill="none" stroke="#000" stroke-linejoin="bevel" stroke-width="2.48"/><line x1="1558.77" y1="79.15" x2="1558.77" y2="163.86" fill="none" stroke="#000" stroke-linejoin="bevel" stroke-width="2.48"/><line x1="1629.51" y1="79.15" x2="1629.51" y2="161.82" fill="none" stroke="#000" stroke-linejoin="bevel" stroke-width="2.48"/><line x1="1700.25" y1="66.75" x2="1700.25" y2="161.82" fill="none" stroke="#000" stroke-linejoin="bevel" stroke-width="2.48"/><line x1="1771" y1="66.75" x2="1771" y2="163.86" fill="none" stroke="#000" stroke-linejoin="bevel" stroke-width="2.48"/><line x1="1841.74" y1="91.55" x2="1841.74" y2="165.9" fill="none" stroke="#000" stroke-linejoin="bevel" stroke-width="2.48"/><line x1="1912.48" y1="91.55" x2="1912.48" y2="167.94" fill="none" stroke="#000" stroke-linejoin="bevel" stroke-width="2.48"/><line x1="2012.98" y1="108.21" x2="2012.98" y2="31.54" fill="none" stroke="#000" stroke-linejoin="bevel" stroke-width="2.48"/><line x1="2083.72" y1="108.21" x2="2083.72" y2="29.5" fill="none" stroke="#000" stroke-linejoin="bevel" stroke-width="2.48"/><line x1="2154.47" y1="95.81" x2="2154.47" y2="27.46" fill="none" stroke="#000" stroke-linejoin="bevel" stroke-width="2.48"/><line x1="2225.21" y1="95.81" x2="2225.21" y2="25.42" fill="none" stroke="#000" stroke-linejoin="bevel" stroke-width="2.48"/><line x1="2266.2" y1="91.55" x2="2266.2" y2="186.62" fill="none" stroke="#000" stroke-linejoin="bevel" stroke-width="2.48"/><line x1="2336.94" y1="91.55" x2="2336.94" y2="188.66" fill="none" stroke="#000" stroke-linejoin="bevel" stroke-width="2.48"/><line x1="2407.69" y1="116.35" x2="2407.69" y2="190.7" fill="none" stroke="#000" stroke-linejoin="bevel" stroke-width="2.48"/><line x1="2478.43" y1="116.35" x2="2478.43" y2="192.74" fill="none" stroke="#000" stroke-linejoin="bevel" stroke-width="2.48"/><line x1="1097.6" y1="79.15" x2="1097.6" y2="168.02" fill="none" stroke="#000" stroke-linejoin="bevel" stroke-width="2.48"/><line x1="1026.86" y1="91.55" x2="1026.86" y2="168.02" fill="none" stroke="#000" stroke-linejoin="bevel" stroke-width="2.48"/><line x1="248.68" y1="437.63" x2="248.68" y2="507.82" fill="none" stroke="#000" stroke-linejoin="bevel" stroke-width="2.48"/><line x1="307.78" y1="437.63" x2="307.78" y2="505.78" fill="none" stroke="#000" stroke-linejoin="bevel" stroke-width="2.48"/><line x1="366.88" y1="425.23" x2="366.88" y2="503.74" fill="none" stroke="#000" stroke-linejoin="bevel" stroke-width="2.48"/><line x1="425.98" y1="425.23" x2="425.98" y2="501.7" fill="none" stroke="#000" stroke-linejoin="bevel" stroke-width="2.48"/><line x1="485.08" y1="412.83" x2="485.08" y2="501.7" fill="none" stroke="#000" stroke-linejoin="bevel" stroke-width="2.48"/><line x1="544.18" y1="412.83" x2="544.18" y2="503.74" fill="none" stroke="#000" stroke-linejoin="bevel" stroke-width="2.48"/><line x1="603.28" y1="437.63" x2="603.28" y2="505.78" fill="none" stroke="#000" stroke-linejoin="bevel" stroke-width="2.48"/><line x1="662.38" y1="437.63" x2="662.38" y2="507.82" fill="none" stroke="#000" stroke-linejoin="bevel" stroke-width="2.48"/><line x1="751.24" y1="454.29" x2="751.24" y2="371.42" fill="none" stroke="#000" stroke-linejoin="bevel" stroke-width="2.48"/><line x1="810.33" y1="454.29" x2="810.33" y2="369.38" fill="none" stroke="#000" stroke-linejoin="bevel" stroke-width="2.48"/><line x1="987.63" y1="429.49" x2="987.63" y2="359.1" fill="none" stroke="#000" stroke-linejoin="bevel" stroke-width="2.48"/><line x1="1046.73" y1="429.49" x2="1046.73" y2="361.14" fill="none" stroke="#000" stroke-linejoin="bevel" stroke-width="2.48"/><line x1="1105.83" y1="454.29" x2="1105.83" y2="363.18" fill="none" stroke="#000" stroke-linejoin="bevel" stroke-width="2.48"/><line x1="1164.93" y1="454.29" x2="1164.93" y2="365.22" fill="none" stroke="#000" stroke-linejoin="bevel" stroke-width="2.48"/><line x1="956.11" y1="91.55" x2="956.11" y2="170.06" fill="none" stroke="#000" stroke-linejoin="bevel" stroke-width="2.48"/><line x1="1241.32" y1="450.03" x2="1241.32" y2="526.42" fill="none" stroke="#000" stroke-linejoin="bevel" stroke-width="2.48"/><line x1="1300.42" y1="450.03" x2="1300.42" y2="524.38" fill="none" stroke="#000" stroke-linejoin="bevel" stroke-width="2.48"/><line x1="1359.52" y1="425.23" x2="1359.52" y2="522.34" fill="none" stroke="#000" stroke-linejoin="bevel" stroke-width="2.48"/><line x1="1418.62" y1="425.23" x2="1418.62" y2="520.3" fill="none" stroke="#000" stroke-linejoin="bevel" stroke-width="2.48"/><line x1="1507.47" y1="429.49" x2="1507.47" y2="359.1" fill="none" stroke="#000" stroke-linejoin="bevel" stroke-width="2.48"/><line x1="1566.57" y1="429.49" x2="1566.57" y2="361.14" fill="none" stroke="#000" stroke-linejoin="bevel" stroke-width="2.48"/><line x1="1625.67" y1="441.89" x2="1625.67" y2="363.18" fill="none" stroke="#000" stroke-linejoin="bevel" stroke-width="2.48"/><line x1="1684.77" y1="441.89" x2="1684.77" y2="365.22" fill="none" stroke="#000" stroke-linejoin="bevel" stroke-width="2.48"/><line x1="1714.12" y1="437.63" x2="1714.12" y2="507.82" fill="none" stroke="#000" stroke-linejoin="bevel" stroke-width="2.48"/><line x1="1773.22" y1="437.63" x2="1773.22" y2="505.78" fill="none" stroke="#000" stroke-linejoin="bevel" stroke-width="2.48"/><line x1="1832.32" y1="412.83" x2="1832.32" y2="503.74" fill="none" stroke="#000" stroke-linejoin="bevel" stroke-width="2.48"/><line x1="1891.42" y1="412.83" x2="1891.42" y2="501.7" fill="none" stroke="#000" stroke-linejoin="bevel" stroke-width="2.48"/><line x1="1950.52" y1="425.23" x2="1950.52" y2="501.7" fill="none" stroke="#000" stroke-linejoin="bevel" stroke-width="2.48"/><line x1="2009.62" y1="425.23" x2="2009.62" y2="503.74" fill="none" stroke="#000" stroke-linejoin="bevel" stroke-width="2.48"/><line x1="2068.72" y1="437.63" x2="2068.72" y2="505.78" fill="none" stroke="#000" stroke-linejoin="bevel" stroke-width="2.48"/><line x1="2127.82" y1="437.63" x2="2127.82" y2="507.82" fill="none" stroke="#000" stroke-linejoin="bevel" stroke-width="2.48"/><line x1="885.37" y1="103.95" x2="885.37" y2="172.1" fill="none" stroke="#000" stroke-linejoin="bevel" stroke-width="2.48"/><line x1="814.63" y1="103.95" x2="814.63" y2="174.14" fill="none" stroke="#000" stroke-linejoin="bevel" stroke-width="2.48"/><line x1="869.43" y1="441.89" x2="869.43" y2="367.34" fill="none" stroke="#000" stroke-linejoin="bevel" stroke-width="2.48"/><path d="M1308.59,103.95c0,4.26,3.07,9.02,11.11,9.02,10.31,0,21.13-8.43,21.13-17.16,0-5.86-4.96-9.13-11.11-9.13-9.63,0-21.13,8.14-21.13,17.27"/><path d="M247.44,116.35c0,4.26,3.07,9.02,11.11,9.02,10.31,0,21.13-8.43,21.13-17.16,0-5.86-4.96-9.13-11.11-9.13-9.63,0-21.13,8.14-21.13,17.27"/><path d="M318.19,116.35c0,4.26,3.07,9.02,11.11,9.02,10.31,0,21.13-8.43,21.13-17.16,0-5.86-4.96-9.13-11.11-9.13-9.63,0-21.13,8.14-21.13,17.27"/><path d="M388.93,103.95c0,4.26,3.07,9.02,11.11,9.02,10.31,0,21.13-8.43,21.13-17.16,0-5.86-4.96-9.13-11.11-9.13-9.63,0-21.13,8.14-21.13,17.27"/><path d="M459.67,103.95c0,4.26,3.07,9.02,11.11,9.02,10.31,0,21.13-8.43,21.13-17.16,0-5.86-4.96-9.13-11.11-9.13-9.63,0-21.13,8.14-21.13,17.27"/><path d="M530.42,91.55c0,4.26,3.07,9.02,11.11,9.02,10.31,0,21.13-8.43,21.13-17.16,0-5.86-4.96-9.13-11.11-9.13-9.63,0-21.13,8.14-21.13,17.27"/><path d="M601.16,91.55c0,4.26,3.07,9.02,11.11,9.02,10.31,0,21.13-8.43,21.13-17.16,0-5.86-4.96-9.13-11.11-9.13-9.63,0-21.13,8.14-21.13,17.27"/><path d="M671.9,116.35c0,4.26,3.07,9.02,11.11,9.02,10.31,0,21.13-8.43,21.13-17.16,0-5.86-4.96-9.13-11.11-9.13-9.63,0-21.13,8.14-21.13,17.27"/><path d="M742.65,116.35c0,4.26,3.07,9.02,11.11,9.02,10.31,0,21.13-8.43,21.13-17.16,0-5.86-4.96-9.13-11.11-9.13-9.63,0-21.13,8.14-21.13,17.27"/><path d="M813.39,103.95c0,4.26,3.07,9.02,11.11,9.02,10.31,0,21.13-8.43,21.13-17.16,0-5.86-4.96-9.13-11.11-9.13-9.63,0-21.13,8.14-21.13,17.27"/><path d="M884.13,103.95c0,4.26,3.07,9.02,11.11,9.02,10.31,0,21.13-8.43,21.13-17.16,0-5.86-4.96-9.13-11.11-9.13-9.63,0-21.13,8.14-21.13,17.27"/><path d="M954.87,91.55c0,4.26,3.07,9.02,11.11,9.02,10.31,0,21.13-8.43,21.13-17.16,0-5.86-4.96-9.13-11.11-9.13-9.63,0-21.13,8.14-21.13,17.27"/><path d="M1025.62,91.55c0,4.26,3.07,9.02,11.11,9.02,10.31,0,21.13-8.43,21.13-17.16,0-5.86-4.96-9.13-11.11-9.13-9.63,0-21.13,8.14-21.13,17.27"/><path d="M1096.36,79.15c0,4.26,3.07,9.02,11.11,9.02,10.31,0,21.13-8.43,21.13-17.16,0-5.86-4.96-9.13-11.11-9.13-9.63,0-21.13,8.14-21.13,17.27"/><path d="M1167.11,79.15c0,4.26,3.07,9.02,11.11,9.02,10.31,0,21.13-8.43,21.13-17.16,0-5.86-4.96-9.13-11.11-9.13-9.63,0-21.13,8.14-21.13,17.27"/><path d="M1237.85,103.95c0,4.26,3.07,9.02,11.11,9.02,10.31,0,21.13-8.43,21.13-17.16,0-5.86-4.96-9.13-11.11-9.13-9.63,0-21.13,8.14-21.13,17.27"/><path d="M1416.04,91.55c0,4.26,3.07,9.02,11.11,9.02,10.31,0,21.13-8.43,21.13-17.16,0-5.86-4.96-9.13-11.11-9.13-9.63,0-21.13,8.14-21.13,17.27"/><path d="M1486.78,91.55c0,4.26,3.07,9.02,11.11,9.02,10.31,0,21.13-8.43,21.13-17.16,0-5.86-4.96-9.13-11.11-9.13-9.63,0-21.13,8.14-21.13,17.27"/><path d="M1557.53,79.15c0,4.26,3.07,9.02,11.11,9.02,10.31,0,21.13-8.43,21.13-17.16,0-5.86-4.96-9.13-11.11-9.13-9.63,0-21.13,8.14-21.13,17.27"/><path d="M1628.27,79.15c0,4.26,3.07,9.02,11.11,9.02,10.31,0,21.13-8.43,21.13-17.16,0-5.86-4.96-9.13-11.11-9.13-9.63,0-21.13,8.14-21.13,17.27"/><path d="M1699.01,66.75c0,4.26,3.07,9.02,11.11,9.02,10.31,0,21.13-8.43,21.13-17.16,0-5.86-4.96-9.13-11.11-9.13-9.63,0-21.13,8.14-21.13,17.27"/><path d="M1769.76,66.75c0,4.26,3.07,9.02,11.11,9.02,10.31,0,21.13-8.43,21.13-17.16,0-5.86-4.96-9.13-11.11-9.13-9.63,0-21.13,8.14-21.13,17.27"/><path d="M1840.5,91.55c0,4.26,3.07,9.02,11.11,9.02,10.31,0,21.13-8.43,21.13-17.16,0-5.86-4.96-9.13-11.11-9.13-9.63,0-21.13,8.14-21.13,17.27"/><path d="M1911.24,91.55c0,4.26,3.07,9.02,11.11,9.02,10.31,0,21.13-8.43,21.13-17.16,0-5.86-4.96-9.13-11.11-9.13-9.63,0-21.13,8.14-21.13,17.27"/><path d="M1981.99,116.35c0,4.26,3.07,9.02,11.11,9.02,10.31,0,21.13-8.43,21.13-17.16,0-5.86-4.96-9.13-11.11-9.13-9.63,0-21.13,8.14-21.13,17.27"/><path d="M2052.73,116.35c0,4.26,3.07,9.02,11.11,9.02,10.31,0,21.13-8.43,21.13-17.16,0-5.86-4.96-9.13-11.11-9.13-9.63,0-21.13,8.14-21.13,17.27"/><path d="M2123.47,103.95c0,4.26,3.07,9.02,11.11,9.02,10.31,0,21.13-8.43,21.13-17.16,0-5.86-4.96-9.13-11.11-9.13-9.63,0-21.13,8.14-21.13,17.27"/><path d="M2194.22,103.95c0,4.26,3.07,9.02,11.11,9.02,10.31,0,21.13-8.43,21.13-17.16,0-5.86-4.96-9.13-11.11-9.13-9.63,0-21.13,8.14-21.13,17.27"/><path d="M2264.96,91.55c0,4.26,3.07,9.02,11.11,9.02,10.31,0,21.13-8.43,21.13-17.16,0-5.86-4.96-9.13-11.11-9.13-9.63,0-21.13,8.14-21.13,17.27"/><path d="M2335.7,91.55c0,4.26,3.07,9.02,11.11,9.02,10.31,0,21.13-8.43,21.13-17.16,0-5.86-4.96-9.13-11.11-9.13-9.63,0-21.13,8.14-21.13,17.27"/><path d="M2406.45,116.35c0,4.26,3.07,9.02,11.11,9.02,10.31,0,21.13-8.43,21.13-17.16,0-5.86-4.96-9.13-11.11-9.13-9.63,0-21.13,8.14-21.13,17.27"/><path d="M2477.19,116.35c0,4.26,3.07,9.02,11.11,9.02,10.31,0,21.13-8.43,21.13-17.16,0-5.86-4.96-9.13-11.11-9.13-9.63,0-21.13,8.14-21.13,17.27"/><path d="M247.44,437.63c0,4.26,3.07,9.02,11.11,9.02,10.31,0,21.13-8.43,21.13-17.16,0-5.86-4.96-9.13-11.11-9.13-9.63,0-21.13,8.14-21.13,17.27"/><path d="M306.54,437.63c0,4.26,3.07,9.02,11.11,9.02,10.31,0,21.13-8.43,21.13-17.16,0-5.86-4.96-9.13-11.11-9.13-9.63,0-21.13,8.14-21.13,17.27"/><path d="M365.64,425.23c0,4.26,3.07,9.02,11.11,9.02,10.31,0,21.13-8.43,21.13-17.16,0-5.86-4.96-9.13-11.11-9.13-9.63,0-21.13,8.14-21.13,17.27"/><path d="M424.74,425.23c0,4.26,3.07,9.02,11.11,9.02,10.31,0,21.13-8.43,21.13-17.16,0-5.86-4.96-9.13-11.11-9.13-9.63,0-21.13,8.14-21.13,17.27"/><path d="M483.84,412.83c0,4.26,3.07,9.02,11.11,9.02,10.31,0,21.13-8.43,21.13-17.16,0-5.86-4.96-9.13-11.11-9.13-9.63,0-21.13,8.14-21.13,17.27"/><path d="M542.94,412.83c0,4.26,3.07,9.02,11.11,9.02,10.31,0,21.13-8.43,21.13-17.16,0-5.86-4.96-9.13-11.11-9.13-9.63,0-21.13,8.14-21.13,17.27"/><path d="M602.04,437.63c0,4.26,3.07,9.02,11.11,9.02,10.31,0,21.13-8.43,21.13-17.16,0-5.86-4.96-9.13-11.11-9.13-9.63,0-21.13,8.14-21.13,17.27"/><path d="M661.14,437.63c0,4.26,3.07,9.02,11.11,9.02,10.31,0,21.13-8.43,21.13-17.16,0-5.86-4.96-9.13-11.11-9.13-9.63,0-21.13,8.14-21.13,17.27"/><path d="M720.24,462.43c0,4.26,3.07,9.02,11.11,9.02,10.31,0,21.13-8.43,21.13-17.16,0-5.86-4.96-9.13-11.11-9.13-9.63,0-21.13,8.14-21.13,17.27"/><path d="M779.34,462.43c0,4.26,3.07,9.02,11.11,9.02,10.31,0,21.13-8.43,21.13-17.16,0-5.86-4.96-9.13-11.11-9.13-9.63,0-21.13,8.14-21.13,17.27"/><path d="M838.44,450.03c0,4.26,3.07,9.02,11.11,9.02,10.31,0,21.13-8.43,21.13-17.16,0-5.86-4.96-9.13-11.11-9.13-9.63,0-21.13,8.14-21.13,17.27"/><path d="M897.54,450.03c0,4.26,3.07,9.02,11.11,9.02,10.31,0,21.13-8.43,21.13-17.16,0-5.86-4.96-9.13-11.11-9.13-9.63,0-21.13,8.14-21.13,17.27"/><path d="M956.64,437.63c0,4.26,3.07,9.02,11.11,9.02,10.31,0,21.13-8.43,21.13-17.16,0-5.86-4.96-9.13-11.11-9.13-9.63,0-21.13,8.14-21.13,17.27"/><path d="M1015.74,437.63c0,4.26,3.07,9.02,11.11,9.02,10.31,0,21.13-8.43,21.13-17.16,0-5.86-4.96-9.13-11.11-9.13-9.63,0-21.13,8.14-21.13,17.27"/><path d="M1074.84,462.43c0,4.26,3.07,9.02,11.11,9.02,10.31,0,21.13-8.43,21.13-17.16,0-5.86-4.96-9.13-11.11-9.13-9.63,0-21.13,8.14-21.13,17.27"/><path d="M1133.94,462.43c0,4.26,3.07,9.02,11.11,9.02,10.31,0,21.13-8.43,21.13-17.16,0-5.86-4.96-9.13-11.11-9.13-9.63,0-21.13,8.14-21.13,17.27"/><path d="M1240.08,450.03c0,4.26,3.07,9.02,11.11,9.02,10.31,0,21.13-8.43,21.13-17.16,0-5.86-4.96-9.13-11.11-9.13-9.63,0-21.13,8.14-21.13,17.27"/><path d="M1299.18,450.03c0,4.26,3.07,9.02,11.11,9.02,10.31,0,21.13-8.43,21.13-17.16,0-5.86-4.96-9.13-11.11-9.13-9.63,0-21.13,8.14-21.13,17.27"/><path d="M1358.28,425.23c0,4.26,3.07,9.02,11.11,9.02,10.31,0,21.13-8.43,21.13-17.16,0-5.86-4.96-9.13-11.11-9.13-9.63,0-21.13,8.14-21.13,17.27"/><path d="M1417.38,425.23c0,4.26,3.07,9.02,11.11,9.02,10.31,0,21.13-8.43,21.13-17.16,0-5.86-4.96-9.13-11.11-9.13-9.63,0-21.13,8.14-21.13,17.27"/><path d="M1476.48,437.63c0,4.26,3.07,9.02,11.11,9.02,10.31,0,21.13-8.43,21.13-17.16,0-5.86-4.96-9.13-11.11-9.13-9.63,0-21.13,8.14-21.13,17.27"/><path d="M1535.58,437.63c0,4.26,3.07,9.02,11.11,9.02,10.31,0,21.13-8.43,21.13-17.16,0-5.86-4.96-9.13-11.11-9.13-9.63,0-21.13,8.14-21.13,17.27"/><path d="M1594.68,450.03c0,4.26,3.07,9.02,11.11,9.02,10.31,0,21.13-8.43,21.13-17.16,0-5.86-4.96-9.13-11.11-9.13-9.63,0-21.13,8.14-21.13,17.27"/><path d="M1653.78,450.03c0,4.26,3.07,9.02,11.11,9.02,10.31,0,21.13-8.43,21.13-17.16,0-5.86-4.96-9.13-11.11-9.13-9.63,0-21.13,8.14-21.13,17.27"/><path d="M1712.88,437.63c0,4.26,3.07,9.02,11.11,9.02,10.31,0,21.13-8.43,21.13-17.16,0-5.86-4.96-9.13-11.11-9.13-9.63,0-21.13,8.14-21.13,17.27"/><path d="M1771.98,437.63c0,4.26,3.07,9.02,11.11,9.02,10.31,0,21.13-8.43,21.13-17.16,0-5.86-4.96-9.13-11.11-9.13-9.63,0-21.13,8.14-21.13,17.27"/><path d="M1831.08,412.83c0,4.26,3.07,9.02,11.11,9.02,10.31,0,21.13-8.43,21.13-17.16,0-5.86-4.96-9.13-11.11-9.13-9.63,0-21.13,8.14-21.13,17.27"/><path d="M1890.18,412.83c0,4.26,3.07,9.02,11.11,9.02,10.31,0,21.13-8.43,21.13-17.16,0-5.86-4.96-9.13-11.11-9.13-9.63,0-21.13,8.14-21.13,17.27"/><path d="M1949.28,425.23c0,4.26,3.07,9.02,11.11,9.02,10.31,0,21.13-8.43,21.13-17.16,0-5.86-4.96-9.13-11.11-9.13-9.63,0-21.13,8.14-21.13,17.27"/><path d="M2008.38,425.23c0,4.26,3.07,9.02,11.11,9.02,10.31,0,21.13-8.43,21.13-17.16,0-5.86-4.96-9.13-11.11-9.13-9.63,0-21.13,8.14-21.13,17.27"/><path d="M2067.48,437.63c0,4.26,3.07,9.02,11.11,9.02,10.31,0,21.13-8.43,21.13-17.16,0-5.86-4.96-9.13-11.11-9.13-9.63,0-21.13,8.14-21.13,17.27"/><path d="M2126.58,437.63c0,4.26,3.07,9.02,11.11,9.02,10.31,0,21.13-8.43,21.13-17.16,0-5.86-4.96-9.13-11.11-9.13-9.63,0-21.13,8.14-21.13,17.27"/><path d="M2251.28,432.37c-13.69,0-18.55,6.94-18.55,13.39s4.87,13.39,18.55,13.39,18.45-6.94,18.45-13.39-4.76-13.39-18.45-13.39m.79,23.61c-2.77,0-4.67-.79-5.95-3.27s-3.07-8.93-3.18-11.52c-.2-2.68,.79-4.26,3.18-5.05,1.19-.4,2.77-.6,4.37-.6,2.67,0,4.46,.6,5.84,3.29,1.39,2.57,3.29,9.02,3.29,11.5,0,4.87-3.58,5.66-7.55,5.66"/><path d="M30.8,175.47c0,6.56,4.96,15.19,18.35,15.19,4.67,0,8.74-1.19,12.31-3.38,5.36-3.77,6.74-10.32,6.74-16.57,0-3.86-.59-8.32-1.58-13.98-.29-1.98-.9-4.96-1.49-8.84,9.72-3.18,16.96-13.3,16.96-23.51,0-14.97-10.62-25.09-25.09-25.09-.99-5.95-1.98-11.81-2.77-17.36,10.42-11.02,17.65-23.42,17.65-39.18,0-9.04-2.77-16.37-4.37-19.95-2.37-5.05-5.25-8.53-7.04-8.53-.7,0-3.77,1.19-7.04,5.05-6.36,7.55-8.14,20.24-8.14,28.57,0,5.36,.5,10.23,2.19,21.34-.11,.09-5.27,5.35-7.35,7.04-9.04,8.34-21.53,20.43-21.53,40.28,0,18.54,16.17,33.12,34.63,33.12,2.87,0,5.55-.29,7.83-.7,1.89,9.53,3.08,16.48,3.08,21.73,0,10.32-5.36,15.78-15.38,15.78-2.39,0-4.46-.5-4.67-.5-.09-.11-.29-.2-.29-.29,0-.2,.2-.31,.5-.31,4.67-.79,9.32-4.76,9.32-11.1,0-5.36-4.06-11.02-11.5-11.02-6.94,0-11.31,5.66-11.31,12.2M51.54,43.03c.9-3.97,5.46-14.38,10.62-14.38,1.49,0,3.86,4.76,3.86,11.7,0,10.32-7.63,18.06-14.48,24.8-.59-3.97-1.08-7.83-1.08-12,0-3.67,.29-7.05,1.08-10.12m8.73,101.97c-1.98,.4-3.86,.6-5.75,.6-14.18,0-26.29-9.92-26.29-24.91,0-12.09,8.53-22.91,17.27-30.46,1.67-1.49,3.27-2.87,4.76-4.36,.88,5.35,1.58,10.01,2.28,14.09-9.04,2.68-15.17,12.2-15.17,21.53,0,6.94,5.46,16.46,13.39,16.46,.79,0,1.69-.4,1.69-1.29s-.99-1.39-2.19-2.19c-3.88-2.39-6.06-4.96-6.06-9.83,0-6.05,4.57-10.91,10.32-12.29l5.75,32.63m14.09-18.35c0,7.05-2.88,14.29-9.92,17.17-2.08-11.9-4.76-27.68-5.46-32.05,8.93,0,15.38,6.06,15.38,14.88"/><path d="M30.8,509.15c0,6.56,4.96,15.19,18.35,15.19,4.67,0,8.74-1.19,12.31-3.38,5.36-3.77,6.74-10.32,6.74-16.57,0-3.86-.59-8.32-1.58-13.98-.29-1.98-.9-4.96-1.49-8.84,9.72-3.18,16.96-13.3,16.96-23.51,0-14.97-10.62-25.09-25.09-25.09-.99-5.95-1.98-11.81-2.77-17.36,10.42-11.02,17.65-23.42,17.65-39.18,0-9.04-2.77-16.37-4.37-19.95-2.37-5.05-5.25-8.53-7.04-8.53-.7,0-3.77,1.19-7.04,5.05-6.36,7.55-8.14,20.24-8.14,28.57,0,5.36,.5,10.23,2.19,21.34-.11,.09-5.27,5.35-7.35,7.04-9.04,8.34-21.53,20.43-21.53,40.28,0,18.54,16.17,33.12,34.63,33.12,2.87,0,5.55-.29,7.83-.7,1.89,9.53,3.08,16.48,3.08,21.73,0,10.32-5.36,15.78-15.38,15.78-2.39,0-4.46-.5-4.67-.5-.09-.11-.29-.2-.29-.29,0-.2,.2-.31,.5-.31,4.67-.79,9.32-4.76,9.32-11.1,0-5.36-4.06-11.02-11.5-11.02-6.94,0-11.31,5.66-11.31,12.2m20.74-132.43c.9-3.97,5.46-14.38,10.62-14.38,1.49,0,3.86,4.76,3.86,11.7,0,10.32-7.63,18.06-14.48,24.8-.59-3.97-1.08-7.83-1.08-12,0-3.67,.29-7.05,1.08-10.12m8.73,101.97c-1.98,.4-3.86,.6-5.75,.6-14.18,0-26.29-9.92-26.29-24.91,0-12.09,8.53-22.91,17.27-30.46,1.67-1.49,3.27-2.87,4.76-4.36,.88,5.35,1.58,10.01,2.28,14.09-9.04,2.68-15.17,12.2-15.17,21.53,0,6.94,5.46,16.46,13.39,16.46,.79,0,1.69-.4,1.69-1.29s-.99-1.39-2.19-2.19c-3.88-2.39-6.06-4.96-6.06-9.83,0-6.05,4.57-10.91,10.32-12.29l5.75,32.63m14.09-18.35c0,7.05-2.88,14.29-9.92,17.17-2.08-11.9-4.76-27.68-5.46-32.05,8.93,0,15.38,6.06,15.38,14.88"/><path d="M129.99,39.76c.6-.09,1.1-.79,1.1-1.4v-5.84c0-.99-.7-1.39-1.6-1.39l-3.27,.7v-14.79h-2.77v15.38l-8.83,1.8v-14h-2.77v14.59l-3.88,.79c-.59,.11-1.09,.79-1.09,1.39v5.75c0,1.09,.79,1.4,1.69,1.4l3.27-.7v16.37l-3.88,.79c-.59,.09-1.09,.79-1.09,1.4v5.75c0,1.09,.79,1.38,1.69,1.38l3.27-.68v14.77h2.77v-15.38l8.83-1.78v14h2.77v-14.59l3.77-.7c.6-.11,1.1-.79,1.1-1.39v-5.84c0-.99-.7-1.4-1.6-1.4l-3.27,.7v-16.37l3.77-.7m-15.38,3.07l8.83-1.78v16.37l-8.83,1.89v-16.48"/><path d="M157.16,76.96c.6-.09,1.1-.79,1.1-1.4v-5.84c0-.99-.7-1.39-1.6-1.39l-3.27,.7v-14.79h-2.77v15.38l-8.83,1.8v-14h-2.77v14.59l-3.88,.79c-.59,.11-1.09,.79-1.09,1.39v5.75c0,1.09,.79,1.4,1.69,1.4l3.27-.7v16.37l-3.88,.79c-.59,.09-1.09,.79-1.09,1.4v5.75c0,1.09,.79,1.38,1.69,1.38l3.27-.68v14.77h2.77v-15.38l8.83-1.78v14h2.77v-14.59l3.77-.7c.6-.11,1.1-.79,1.1-1.39v-5.84c0-.99-.7-1.4-1.6-1.4l-3.27,.7v-16.37l3.77-.7m-15.38,3.07l8.83-1.78v16.37l-8.83,1.89v-16.48"/><path d="M184.33,27.36c.6-.09,1.1-.79,1.1-1.4v-5.84c0-.99-.7-1.39-1.6-1.39l-3.27,.7V4.64h-2.77v15.38l-8.83,1.8V7.82h-2.77v14.59l-3.88,.79c-.59,.11-1.09,.79-1.09,1.39v5.75c0,1.09,.79,1.4,1.69,1.4l3.27-.7v16.37l-3.88,.79c-.59,.09-1.09,.79-1.09,1.4v5.75c0,1.09,.79,1.38,1.69,1.38l3.27-.68v14.77h2.77v-15.38l8.83-1.78v14h2.77v-14.59l3.77-.7c.6-.11,1.1-.79,1.1-1.39v-5.84c0-.99-.7-1.4-1.6-1.4l-3.27,.7V28.06l3.77-.7m-15.38,3.07l8.83-1.78v16.37l-8.83,1.89V30.43"/><path d="M129.99,373.44c.6-.09,1.1-.79,1.1-1.4v-5.84c0-.99-.7-1.39-1.6-1.39l-3.27,.7v-14.79h-2.77v15.38l-8.83,1.8v-14h-2.77v14.59l-3.88,.79c-.59,.11-1.09,.79-1.09,1.39v5.75c0,1.09,.79,1.4,1.69,1.4l3.27-.7v16.37l-3.88,.79c-.59,.09-1.09,.79-1.09,1.4v5.75c0,1.09,.79,1.38,1.69,1.38l3.27-.68v14.77h2.77v-15.38l8.83-1.78v14h2.77v-14.59l3.77-.7c.6-.11,1.1-.79,1.1-1.39v-5.84c0-.99-.7-1.4-1.6-1.4l-3.27,.7v-16.37l3.77-.7m-15.38,3.07l8.83-1.78v16.37l-8.83,1.89v-16.48"/><path d="M157.16,410.64c.6-.09,1.1-.79,1.1-1.4v-5.84c0-.99-.7-1.39-1.6-1.39l-3.27,.7v-14.79h-2.77v15.38l-8.83,1.8v-14h-2.77v14.59l-3.88,.79c-.59,.11-1.09,.79-1.09,1.39v5.75c0,1.09,.79,1.4,1.69,1.4l3.27-.7v16.37l-3.88,.79c-.59,.09-1.09,.79-1.09,1.4v5.75c0,1.09,.79,1.38,1.69,1.38l3.27-.68v14.77h2.77v-15.38l8.83-1.78v14h2.77v-14.59l3.77-.7c.6-.11,1.1-.79,1.1-1.39v-5.84c0-.99-.7-1.4-1.6-1.4l-3.27,.7v-16.37l3.77-.7m-15.38,3.07l8.83-1.78v16.37l-8.83,1.89v-16.48"/><path d="M184.33,361.04c.6-.09,1.1-.79,1.1-1.4v-5.84c0-.99-.7-1.39-1.6-1.39l-3.27,.7v-14.79h-2.77v15.38l-8.83,1.8v-14h-2.77v14.59l-3.88,.79c-.59,.11-1.09,.79-1.09,1.39v5.75c0,1.09,.79,1.4,1.69,1.4l3.27-.7v16.37l-3.88,.79c-.59,.09-1.09,.79-1.09,1.4v5.75c0,1.09,.79,1.38,1.69,1.38l3.27-.68v14.77h2.77v-15.38l8.83-1.78v14h2.77v-14.59l3.77-.7c.6-.11,1.1-.79,1.1-1.39v-5.84c0-.99-.7-1.4-1.6-1.4l-3.27,.7v-16.37l3.77-.7m-15.38,3.07l8.83-1.78v16.37l-8.83,1.89v-16.48"/><path d="M2273.94,345.67c-9.32-10.12-17.56-10.71-22.71-10.71s-13.3,.59-22.63,10.71c-4.85,5.36-8.23,15.97-8.23,21.33,0,1.89,.4,3.18,1.4,3.18,2.77,0,1.38-8.54,9.72-16.97,7.33-7.33,17.16-7.44,19.55-7.44h.39c2.39,0,12.21,.11,19.55,7.44,8.34,8.43,6.94,16.97,9.72,16.97,.99,0,1.39-1.19,1.39-3.18,0-5.36-3.27-16.07-8.14-21.33m-29.56,18.94c0,3.78,3.07,6.85,6.85,6.85s6.84-3.07,6.84-6.85-3.07-6.84-6.84-6.84-6.85,3.07-6.85,6.84"/><path d="M259.9,181.22c-2.33,3.75-3.33,4.79-4.64,4.79-.64,0-1-.4-1-1.12,0-.52,.2-1.44,.59-2.84l7.12-23.99-7.95,.59-.17,1.44h1.25c1.64,0,2.28,.36,2.28,1.24,0,.4-.12,.92-.36,1.76l-2.64,8.88c-.72-2.08-2.28-3.24-4.61-3.24-5.75,0-11.11,6.16-11.11,12.8,0,3.92,2.52,6.59,6.28,6.59,2.72,0,4.72-1.11,6.47-3.72-.03,.33-.03,.72-.03,.9,0,1.82,.95,2.82,2.72,2.82,2.51,0,4.72-1.95,7-6.18l-1.2-.72m-10-10.69c1.95,0,3.39,1.52,3.39,3.61,0,3.62-2.55,12.11-7.19,12.11-2.16,0-3.56-1.72-3.56-4.31,0-3.8,2.72-11.41,7.36-11.41m33-1.2h-3.48l-1.88,6.4c-1.64,5.57-5.33,10.11-8.16,10.11-.97,0-1.72-.75-1.72-1.72,0-.51,.11-1.15,.44-2.26l3.92-13.13-7.72,.6-.12,1.45h.95c1.64,0,2.25,.36,2.25,1.27,0,.4-.12,.96-.33,1.73l-1.59,5.39q-1.23,4-1.23,5.23c0,2.21,1.51,3.69,3.8,3.69,2.8,0,5.08-1.64,7.44-5.33-.41,1.41-.48,1.97-.48,2.72,0,1.57,1.08,2.64,2.56,2.64,2.44,0,4.39-1.64,7.23-6l-1.2-.72c-1.95,2.93-3.51,4.54-4.39,4.54-.36,0-.72-.46-.72-.97,0-.44,.16-1.21,.47-2.36l3.97-13.28"/><path d="M328.56,170.25c.64-.56,1-.75,1.47-.75,.41,0,.73,.19,1.05,.64,.64,.87,.88,1.03,1.52,1.03,.92,0,1.61-.75,1.61-1.75,0-1.17-1.12-2.09-2.53-2.09s-2.47,.53-4.55,2.17c-1.25-.56-2.17-.77-3.45-.77-4.44,0-8.19,3.16-8.19,6.85,0,1.92,.75,3.23,2.47,4.15-1.83,.24-2.67,.52-3.59,1.32-.8,.64-1.31,1.71-1.31,2.68,0,1.36,.64,2.21,2.19,2.96-2.36,.53-5.11,1.53-5.11,4.43,0,4,5.28,4.49,8.2,4.49,3.95,0,6.23-.49,8.19-1.77,1.72-1.11,2.72-2.83,2.72-4.72,0-4.03-4.28-4.51-7.36-4.72-3.55-.18-3.83-.23-4.39-.35-1-.24-1.48-.72-1.48-1.4,0-.96,.95-1.6,2.41-1.6,.52,0,1.11,.04,1.64,.12,1.64,.23,1.88,.28,2.88,.28,2.23,0,4-.56,5.39-1.69,1.61-1.23,2.61-3.23,2.61-5.07s-.8-3.32-2.36-4.44m-4.61,0c2.09,0,3.41,1.25,3.41,3.2,0,2.88-1.31,6.52-4.72,6.52-2.16,0-3.52-1.36-3.52-3.6,0-3.59,1.95-6.12,4.83-6.12m-4.88,17.15c1.8,0,4.69,.41,5.59,.77,1,.44,1.48,1.13,1.48,2.13,0,2.35-2.52,3.64-7.11,3.64-3.89,0-5.69-.97-5.69-3.1s2.08-3.44,5.72-3.44m35.56-18.07h-3.48l-1.88,6.4c-1.64,5.57-5.33,10.11-8.16,10.11-.97,0-1.72-.75-1.72-1.72,0-.51,.11-1.15,.44-2.26l3.92-13.13-7.72,.6-.12,1.45h.95c1.64,0,2.25,.36,2.25,1.27,0,.4-.12,.96-.33,1.73l-1.59,5.39q-1.23,4-1.23,5.23c0,2.21,1.52,3.69,3.8,3.69,2.8,0,5.08-1.64,7.44-5.33-.41,1.41-.48,1.97-.48,2.72,0,1.57,1.08,2.64,2.56,2.64,2.44,0,4.39-1.64,7.23-6l-1.2-.72c-1.95,2.93-3.52,4.54-4.39,4.54-.36,0-.72-.46-.72-.97,0-.44,.16-1.21,.47-2.36l3.97-13.28"/><path d="M545.8,23.15c-2.33,3.75-3.33,4.8-4.64,4.8-.64,0-1-.41-1-1.12,0-.52,.2-1.44,.59-2.85l7.12-23.98-7.95,.59-.17,1.44h1.25c1.64,0,2.28,.36,2.28,1.23,0,.41-.12,.92-.36,1.77l-2.64,8.87c-.72-2.07-2.28-3.23-4.61-3.23-5.75,0-11.11,6.16-11.11,12.8,0,3.92,2.52,6.59,6.28,6.59,2.72,0,4.72-1.11,6.47-3.72-.03,.33-.03,.72-.03,.89,0,1.83,.95,2.83,2.72,2.83,2.52,0,4.72-1.95,7-6.19l-1.2-.72m-10-10.68c1.95,0,3.39,1.51,3.39,3.61,0,3.62-2.55,12.1-7.19,12.1-2.16,0-3.56-1.71-3.56-4.31,0-3.79,2.72-11.4,7.36-11.4m33-1.21h-3.48l-1.88,6.41c-1.64,5.56-5.33,10.11-8.16,10.11-.97,0-1.72-.75-1.72-1.72,0-.52,.11-1.16,.44-2.27l3.92-13.12-7.72,.59-.12,1.46h.95c1.64,0,2.25,.36,2.25,1.26,0,.41-.12,.97-.33,1.74l-1.59,5.39q-1.24,4-1.24,5.23c0,2.2,1.52,3.69,3.8,3.69,2.8,0,5.08-1.64,7.44-5.33-.41,1.41-.49,1.97-.49,2.72,0,1.56,1.08,2.64,2.56,2.64,2.44,0,4.39-1.64,7.23-6l-1.2-.72c-1.95,2.92-3.51,4.53-4.39,4.53-.36,0-.72-.45-.72-.97,0-.43,.16-1.2,.47-2.36l3.97-13.28"/><path d="M687.29,23.15c-2.33,3.75-3.33,4.8-4.64,4.8-.64,0-1-.41-1-1.12,0-.52,.2-1.44,.59-2.85l7.12-23.98-7.95,.59-.17,1.44h1.25c1.64,0,2.28,.36,2.28,1.23,0,.41-.12,.92-.36,1.77l-2.64,8.87c-.72-2.07-2.28-3.23-4.61-3.23-5.75,0-11.11,6.16-11.11,12.8,0,3.92,2.51,6.59,6.28,6.59,2.72,0,4.72-1.11,6.47-3.72-.03,.33-.03,.72-.03,.89,0,1.83,.95,2.83,2.72,2.83,2.52,0,4.72-1.95,7-6.19l-1.2-.72m-10-10.68c1.95,0,3.39,1.51,3.39,3.61,0,3.62-2.55,12.1-7.19,12.1-2.16,0-3.56-1.71-3.56-4.31,0-3.79,2.72-11.4,7.36-11.4m33-1.21h-3.48l-1.88,6.41c-1.64,5.56-5.33,10.11-8.16,10.11-.97,0-1.72-.75-1.72-1.72,0-.52,.11-1.16,.44-2.27l3.92-13.12-7.72,.59-.12,1.46h.95c1.64,0,2.25,.36,2.25,1.26,0,.41-.12,.97-.33,1.74l-1.59,5.39q-1.24,4-1.24,5.23c0,2.2,1.52,3.69,3.8,3.69,2.8,0,5.08-1.64,7.44-5.33-.41,1.41-.49,1.97-.49,2.72,0,1.56,1.08,2.64,2.56,2.64,2.44,0,4.39-1.64,7.23-6l-1.2-.72c-1.95,2.92-3.52,4.53-4.39,4.53-.36,0-.72-.45-.72-.97,0-.43,.16-1.2,.47-2.36l3.97-13.28"/><path d="M818.18,10.67c-4.21,0-7.25,2.56-7.25,6.03,0,1.73,1,3.17,2.76,4.09,.64,.32,1.44,.68,3.13,1.36,2.26,.91,2.83,1.47,2.83,2.88,0,2.15-1.8,3.51-4.57,3.51-2.03,0-3.47-.56-3.47-1.36,0-.2,.11-.43,.29-.59,.75-.8,.82-1,.82-1.72,0-1.12-.87-2-2.03-2-1.33,0-2.33,1.11-2.33,2.67,0,2.8,2.49,4.52,6.54,4.52,4.59,0,7.75-2.52,7.75-6.16,0-1.59-.72-2.95-2-3.82-.88-.61-1.29-.77-3.47-1.57-2.61-.92-3.28-1.56-3.28-3.12,0-1.85,1.75-3.21,4.07-3.21,1.57,0,2.6,.44,2.6,1.08,0,.17-.08,.36-.21,.57-.56,.79-.64,1-.64,1.6,0,1.08,.85,1.83,2.08,1.83,1.36,0,2.28-1,2.28-2.43,0-2.44-2.43-4.16-5.9-4.16m16.75-9.77c-1.21,0-2.16,.97-2.16,2.18s.95,2.15,2.13,2.15,2.18-.97,2.18-2.15-.95-2.18-2.15-2.18m.72,9.77l-7.68,.59-.15,1.46h.95c1.64,0,2.28,.36,2.28,1.23,0,.39-.08,.84-.36,1.77l-2.33,7.79c-.75,2.55-.87,3.11-.87,4.03,0,1.41,1.2,2.49,2.72,2.49,3.44,0,5.8-3.56,7.48-6.16l-1.25-.69c-2.08,3.16-3.75,4.85-4.83,4.85-.4,0-.68-.36-.68-.85,0-.39,.15-1.12,.48-2.23l4.24-14.28m12.96,0l-7.28,.59-.12,1.46h.97c1.59,0,2.23,.36,2.23,1.26,0,.36-.12,.97-.33,1.74l-4.07,13.75h3.48l1.64-5.64c1.8-6.13,5.44-10.75,8.44-10.75,1.04,0,1.69,.54,1.69,1.54,0,.81-.33,2.49-.82,4l-3.18,10.85h3.46l1.72-5.8c1-3.33,2-5.56,3.28-7.28,1.44-2,3.49-3.31,5-3.31,1,0,1.57,.51,1.57,1.46,0,.57-.21,1.44-.57,2.57l-1.84,5.68c-1.08,3.11-1.11,3.36-1.11,4.47,0,1.69,1.24,2.8,3.11,2.8,1.33,0,2.61-.64,3.97-1.91,.84-.81,1.39-1.53,3.03-3.92l-1.23-.84c-2.08,3.12-3.57,4.64-4.6,4.64-.44,0-.84-.44-.84-1,0-.36,.12-.8,.48-1.97l2.52-7.75c.28-.88,.48-2.13,.48-3,0-2.13-1.56-3.64-3.72-3.64-2.84,0-5.4,1.84-7.71,5.64,.15-.77,.23-1.44,.23-1.92,0-2.13-1.69-3.72-3.88-3.72-2.53,0-4.35,1.41-7.17,5.41l1.17-5.41m29.96,14.44c-1.36,0-2.47,1.12-2.47,2.48s1.11,2.47,2.44,2.47c1.43,0,2.51-1.08,2.51-2.47s-1.12-2.48-2.48-2.48"/><path d="M614.46,12.18c.64-.56,1-.75,1.47-.75,.41,0,.73,.19,1.05,.65,.64,.87,.88,1.03,1.52,1.03,.92,0,1.61-.75,1.61-1.75,0-1.18-1.12-2.1-2.53-2.1s-2.47,.53-4.55,2.17c-1.25-.56-2.17-.76-3.45-.76-4.44,0-8.19,3.16-8.19,6.84,0,1.92,.75,3.24,2.47,4.16-1.83,.23-2.67,.51-3.59,1.31-.8,.64-1.31,1.72-1.31,2.69,0,1.36,.64,2.2,2.19,2.95-2.36,.53-5.11,1.53-5.11,4.44,0,4,5.28,4.48,8.2,4.48,3.95,0,6.23-.48,8.19-1.76,1.72-1.11,2.72-2.83,2.72-4.72,0-4.03-4.28-4.52-7.36-4.72-3.55-.19-3.83-.23-4.39-.36-1-.23-1.48-.72-1.48-1.39,0-.97,.95-1.61,2.41-1.61,.52,0,1.11,.05,1.64,.13,1.64,.23,1.88,.28,2.88,.28,2.23,0,4-.56,5.39-1.69,1.61-1.23,2.61-3.23,2.61-5.08s-.8-3.31-2.36-4.44m-4.61,0c2.09,0,3.41,1.25,3.41,3.21,0,2.87-1.31,6.51-4.72,6.51-2.16,0-3.52-1.36-3.52-3.59,0-3.59,1.95-6.13,4.83-6.13m-4.88,17.16c1.8,0,4.69,.41,5.59,.77,1,.43,1.48,1.12,1.48,2.12,0,2.36-2.52,3.64-7.11,3.64-3.89,0-5.69-.97-5.69-3.09s2.08-3.44,5.72-3.44m35.56-18.08h-3.48l-1.88,6.41c-1.64,5.56-5.33,10.11-8.16,10.11-.97,0-1.72-.75-1.72-1.72,0-.52,.11-1.16,.44-2.27l3.92-13.12-7.72,.59-.12,1.46h.95c1.64,0,2.25,.36,2.25,1.26,0,.41-.12,.97-.33,1.74l-1.59,5.39q-1.23,4-1.23,5.23c0,2.2,1.52,3.69,3.8,3.69,2.8,0,5.08-1.64,7.44-5.33-.41,1.41-.48,1.97-.48,2.72,0,1.56,1.08,2.64,2.56,2.64,2.44,0,4.39-1.64,7.23-6l-1.2-.72c-1.95,2.92-3.52,4.53-4.39,4.53-.36,0-.72-.45-.72-.97,0-.43,.16-1.2,.47-2.36l3.97-13.28"/><path d="M401.38,181.22c-2.33,3.75-3.33,4.79-4.64,4.79-.64,0-1-.4-1-1.12,0-.52,.2-1.44,.59-2.84l7.12-23.99-7.95,.59-.17,1.44h1.25c1.64,0,2.28,.36,2.28,1.24,0,.4-.12,.92-.36,1.76l-2.64,8.88c-.72-2.08-2.28-3.24-4.61-3.24-5.75,0-11.11,6.16-11.11,12.8,0,3.92,2.52,6.59,6.28,6.59,2.72,0,4.72-1.11,6.47-3.72-.03,.33-.03,.72-.03,.9,0,1.82,.95,2.82,2.72,2.82,2.52,0,4.72-1.95,7-6.18l-1.2-.72m-10-10.69c1.95,0,3.39,1.52,3.39,3.61,0,3.62-2.55,12.11-7.19,12.11-2.16,0-3.56-1.72-3.56-4.31,0-3.8,2.72-11.41,7.36-11.41m33-1.2h-3.48l-1.88,6.4c-1.64,5.57-5.33,10.11-8.16,10.11-.97,0-1.72-.75-1.72-1.72,0-.51,.11-1.15,.44-2.26l3.92-13.13-7.72,.6-.12,1.45h.95c1.64,0,2.25,.36,2.25,1.27,0,.4-.12,.96-.33,1.73l-1.59,5.39q-1.24,4-1.24,5.23c0,2.21,1.52,3.69,3.8,3.69,2.8,0,5.08-1.64,7.44-5.33-.41,1.41-.49,1.97-.49,2.72,0,1.57,1.08,2.64,2.56,2.64,2.44,0,4.39-1.64,7.23-6l-1.2-.72c-1.95,2.93-3.52,4.54-4.39,4.54-.36,0-.72-.46-.72-.97,0-.44,.16-1.21,.47-2.36l3.97-13.28"/><path d="M470.05,170.25c.64-.56,1-.75,1.47-.75,.41,0,.73,.19,1.05,.64,.64,.87,.88,1.03,1.52,1.03,.92,0,1.61-.75,1.61-1.75,0-1.17-1.12-2.09-2.53-2.09s-2.47,.53-4.55,2.17c-1.25-.56-2.17-.77-3.45-.77-4.44,0-8.19,3.16-8.19,6.85,0,1.92,.75,3.23,2.47,4.15-1.83,.24-2.67,.52-3.59,1.32-.8,.64-1.31,1.71-1.31,2.68,0,1.36,.64,2.21,2.19,2.96-2.36,.53-5.11,1.53-5.11,4.43,0,4,5.28,4.49,8.2,4.49,3.95,0,6.23-.49,8.19-1.77,1.72-1.11,2.72-2.83,2.72-4.72,0-4.03-4.28-4.51-7.36-4.72-3.55-.18-3.83-.23-4.39-.35-1-.24-1.48-.72-1.48-1.4,0-.96,.95-1.6,2.41-1.6,.52,0,1.11,.04,1.64,.12,1.64,.23,1.88,.28,2.88,.28,2.23,0,4-.56,5.39-1.69,1.61-1.23,2.61-3.23,2.61-5.07s-.8-3.32-2.36-4.44m-4.61,0c2.09,0,3.41,1.25,3.41,3.2,0,2.88-1.31,6.52-4.72,6.52-2.16,0-3.52-1.36-3.52-3.6,0-3.59,1.95-6.12,4.83-6.12m-4.88,17.15c1.8,0,4.69,.41,5.59,.77,1,.44,1.48,1.13,1.48,2.13,0,2.35-2.52,3.64-7.11,3.64-3.89,0-5.69-.97-5.69-3.1s2.08-3.44,5.72-3.44m35.56-18.07h-3.48l-1.88,6.4c-1.64,5.57-5.33,10.11-8.16,10.11-.97,0-1.72-.75-1.72-1.72,0-.51,.11-1.15,.44-2.26l3.92-13.13-7.72,.6-.12,1.45h.95c1.64,0,2.25,.36,2.25,1.27,0,.4-.12,.96-.33,1.73l-1.59,5.39q-1.23,4-1.23,5.23c0,2.21,1.52,3.69,3.8,3.69,2.8,0,5.08-1.64,7.44-5.33-.41,1.41-.48,1.97-.48,2.72,0,1.57,1.08,2.64,2.56,2.64,2.44,0,4.39-1.64,7.23-6l-1.2-.72c-1.95,2.93-3.52,4.54-4.39,4.54-.36,0-.72-.46-.72-.97,0-.44,.16-1.21,.47-2.36l3.97-13.28"/><path d="M755.95,12.18c.64-.56,1-.75,1.47-.75,.41,0,.73,.19,1.05,.65,.64,.87,.88,1.03,1.52,1.03,.92,0,1.61-.75,1.61-1.75,0-1.18-1.12-2.1-2.53-2.1s-2.47,.53-4.55,2.17c-1.25-.56-2.17-.76-3.45-.76-4.44,0-8.19,3.16-8.19,6.84,0,1.92,.75,3.24,2.47,4.16-1.83,.23-2.67,.51-3.59,1.31-.8,.64-1.31,1.72-1.31,2.69,0,1.36,.64,2.2,2.19,2.95-2.36,.53-5.11,1.53-5.11,4.44,0,4,5.28,4.48,8.2,4.48,3.95,0,6.23-.48,8.19-1.76,1.72-1.11,2.72-2.83,2.72-4.72,0-4.03-4.28-4.52-7.36-4.72-3.55-.19-3.83-.23-4.39-.36-1-.23-1.48-.72-1.48-1.39,0-.97,.95-1.61,2.41-1.61,.52,0,1.11,.05,1.64,.13,1.64,.23,1.88,.28,2.88,.28,2.23,0,4-.56,5.39-1.69,1.61-1.23,2.61-3.23,2.61-5.08s-.8-3.31-2.36-4.44m-4.61,0c2.09,0,3.41,1.25,3.41,3.21,0,2.87-1.31,6.51-4.72,6.51-2.16,0-3.52-1.36-3.52-3.59,0-3.59,1.95-6.13,4.83-6.13m-4.88,17.16c1.8,0,4.69,.41,5.59,.77,1,.43,1.48,1.12,1.48,2.12,0,2.36-2.52,3.64-7.11,3.64-3.89,0-5.69-.97-5.69-3.09s2.08-3.44,5.72-3.44m35.56-18.08h-3.48l-1.88,6.41c-1.64,5.56-5.33,10.11-8.16,10.11-.97,0-1.72-.75-1.72-1.72,0-.52,.11-1.16,.44-2.27l3.92-13.12-7.72,.59-.12,1.46h.95c1.64,0,2.25,.36,2.25,1.26,0,.41-.12,.97-.33,1.74l-1.59,5.39q-1.23,4-1.23,5.23c0,2.2,1.52,3.69,3.8,3.69,2.8,0,5.08-1.64,7.44-5.33-.41,1.41-.48,1.97-.48,2.72,0,1.56,1.08,2.64,2.56,2.64,2.44,0,4.39-1.64,7.23-6l-1.2-.72c-1.95,2.92-3.52,4.53-4.39,4.53-.36,0-.72-.45-.72-.97,0-.43,.16-1.2,.47-2.36l3.97-13.28"/><path d="M1240.08,520.26l179.78-6.2v12.4l-179.78,6.2v-12.4" fill-rule="evenodd"/><path d="M1240.08,501.66l179.78-6.2v12.4l-179.78,6.2v-12.4" fill-rule="evenodd"/><path d="M813.39,167.98l214.71-6.2v12.4l-214.71,6.2v-12.4" fill-rule="evenodd"/><path d="M813.39,149.38l214.71-6.2v12.4l-214.71,6.2v-12.4" fill-rule="evenodd"/><path d="M2011.74,25.38l214.71-6.2v12.4l-214.71,6.2v-12.4" fill-rule="evenodd"/><path d="M2011.74,43.98l214.71-6.2v12.4l-214.71,6.2v-12.4" fill-rule="evenodd"/><path d="M1506.23,352.86l179.78,6.2v12.4l-179.78-6.2v-12.4" fill-rule="evenodd"/><path d="M1506.23,371.46l179.78,6.2v12.4l-179.78-6.2v-12.4" fill-rule="evenodd"/><path d="M1096.36,161.78l214.71,6.2v12.4l-214.71-6.2v-12.4" fill-rule="evenodd"/><path d="M1096.36,143.18l214.71,6.2v12.4l-214.71-6.2v-12.4" fill-rule="evenodd"/><path d="M2264.96,180.38l214.71,6.2v12.4l-214.71-6.2v-12.4" fill-rule="evenodd"/><path d="M2264.96,161.78l214.71,6.2v12.4l-214.71-6.2v-12.4" fill-rule="evenodd"/><path d="M1712.88,501.66l179.78-6.2v12.4l-179.78,6.2v-12.4" fill-rule="evenodd"/><path d="M1712.88,483.06l179.78-6.2v12.4l-179.78,6.2v-12.4" fill-rule="evenodd"/><path d="M247.44,501.66l179.78-6.2v12.4l-179.78,6.2v-12.4" fill-rule="evenodd"/><path d="M247.44,483.06l179.78-6.2v12.4l-179.78,6.2v-12.4" fill-rule="evenodd"/><path d="M483.84,495.46l179.78,6.2v12.4l-179.78-6.2v-12.4" fill-rule="evenodd"/><path d="M483.84,476.86l179.78,6.2v12.4l-179.78-6.2v-12.4" fill-rule="evenodd"/><path d="M1949.28,495.46l179.78,6.2v12.4l-179.78-6.2v-12.4" fill-rule="evenodd"/><path d="M1949.28,476.86l179.78,6.2v12.4l-179.78-6.2v-12.4" fill-rule="evenodd"/><path d="M1416.04,161.78l214.71-6.2v12.4l-214.71,6.2v-12.4" fill-rule="evenodd"/><path d="M1416.04,143.18l214.71-6.2v12.4l-214.71,6.2v-12.4" fill-rule="evenodd"/><path d="M277.19,25.38l214.71-6.2v12.4l-214.71,6.2v-12.4" fill-rule="evenodd"/><path d="M277.19,43.98l214.71-6.2v12.4l-214.71,6.2v-12.4" fill-rule="evenodd"/><path d="M1699.01,155.58l214.71,6.2v12.4l-214.71-6.2v-12.4" fill-rule="evenodd"/><path d="M1699.01,136.98l214.71,6.2v12.4l-214.71-6.2v-12.4" fill-rule="evenodd"/><path d="M750,365.26l179.78-6.2v12.4l-179.78,6.2v-12.4" fill-rule="evenodd"/><path d="M750,383.86l179.78-6.2v12.4l-179.78,6.2v-12.4" fill-rule="evenodd"/><path d="M986.39,352.86l179.78,6.2v12.4l-179.78-6.2v-12.4" fill-rule="evenodd"/><path d="M986.39,371.46l179.78,6.2v12.4l-179.78-6.2v-12.4" fill-rule="evenodd"/><path d="M530.42,180.38l214.71,6.2v12.4l-214.71-6.2v-12.4" fill-rule="evenodd"/><path d="M530.42,161.78l214.71,6.2v12.4l-214.71-6.2v-12.4" fill-rule="evenodd"/></g></svg>