<?xml version="1.0" encoding="UTF-8"?><svg id="b" xmlns="http://www.w3.org/2000/svg" viewBox="0 0 2552.4 528.7"><g id="c"><line y1="35.91" x2="2552.4" y2="35.91" fill="none" stroke="#000" stroke-linejoin="bevel" stroke-width="2.73"/><line y1="60.71" x2="2552.4" y2="60.71" fill="none" stroke="#000" stroke-linejoin="bevel" stroke-width="2.73"/><line y1="85.51" x2="2552.4" y2="85.51" fill="none" stroke="#000" stroke-linejoin="bevel" stroke-width="2.73"/><line y1="110.31" x2="2552.4" y2="110.31" fill="none" stroke="#000" stroke-linejoin="bevel" stroke-width="2.73"/><line y1="135.11" x2="2552.4" y2="135.11" fill="none" stroke="#000" stroke-linejoin="bevel" stroke-width="2.73"/><line y1="379.11" x2="2552.4" y2="379.11" fill="none" stroke="#000" stroke-linejoin="bevel" stroke-width="2.73"/><line y1="403.91" x2="2552.4" y2="403.91" fill="none" stroke="#000" stroke-linejoin="bevel" stroke-width="2.73"/><line y1="428.71" x2="2552.4" y2="428.71" fill="none" stroke="#000" stroke-linejoin="bevel" stroke-width="2.73"/><line y1="453.51" x2="2552.4" y2="453.51" fill="none" stroke="#000" stroke-linejoin="bevel" stroke-width="2.73"/><line y1="478.31" x2="2552.4" y2="478.31" fill="none" stroke="#000" stroke-linejoin="bevel" stroke-width="2.73"/><line x1="2536.53" y1="377.75" x2="2536.53" y2="479.67" fill="none" stroke="#000" stroke-linejoin="bevel" stroke-width="4.46"/><line x1="2550.17" y1="377.75" x2="2550.17" y2="479.67" fill="none" stroke="#000" stroke-linejoin="bevel" stroke-width="4.46"/><line x1="2550.17" y1="34.55" x2="2550.17" y2="136.47" fill="none" stroke="#000" stroke-linejoin="bevel" stroke-width="4.46"/><line x1="1329.89" y1="34.55" x2="1329.89" y2="136.47" fill="none" stroke="#000" stroke-linejoin="bevel" stroke-width="4.46"/><line x1="2183.32" y1="377.75" x2="2183.32" y2="479.67" fill="none" stroke="#000" stroke-linejoin="bevel" stroke-width="4.46"/><line x1="1146.46" y1="377.75" x2="1146.46" y2="479.67" fill="none" stroke="#000" stroke-linejoin="bevel" stroke-width="4.46"/><line x1="653.71" y1="159.91" x2="702.31" y2="159.91" fill="none" stroke="#000" stroke-linejoin="bevel" stroke-width="3.97"/><line x1="694.33" y1="503.11" x2="742.93" y2="503.11" fill="none" stroke="#000" stroke-linejoin="bevel" stroke-width="3.97"/><line x1="632.28" y1="503.11" x2="680.88" y2="503.11" fill="none" stroke="#000" stroke-linejoin="bevel" stroke-width="3.97"/><line x1="1172.75" y1="503.11" x2="1221.35" y2="503.11" fill="none" stroke="#000" stroke-linejoin="bevel" stroke-width="3.97"/><line x1="1234.8" y1="503.11" x2="1283.4" y2="503.11" fill="none" stroke="#000" stroke-linejoin="bevel" stroke-width="3.97"/><line x1="2209.61" y1="503.11" x2="2262.98" y2="503.11" fill="none" stroke="#000" stroke-linejoin="bevel" stroke-width="3.97"/><line x1="1545.04" y1="503.11" x2="1593.64" y2="503.11" fill="none" stroke="#000" stroke-linejoin="bevel" stroke-width="3.97"/><line x1="1607.09" y1="503.11" x2="1655.69" y2="503.11" fill="none" stroke="#000" stroke-linejoin="bevel" stroke-width="3.97"/><line x1="2465.78" y1="159.91" x2="2514.38" y2="159.91" fill="none" stroke="#000" stroke-linejoin="bevel" stroke-width="3.97"/><line x1="2021.94" y1="159.91" x2="2070.54" y2="159.91" fill="none" stroke="#000" stroke-linejoin="bevel" stroke-width="3.97"/><line x1="579.74" y1="159.91" x2="628.34" y2="159.91" fill="none" stroke="#000" stroke-linejoin="bevel" stroke-width="3.97"/><line x1="209.87" y1="159.91" x2="258.47" y2="159.91" fill="none" stroke="#000" stroke-linejoin="bevel" stroke-width="3.97"/><line x1="2391.8" y1="159.91" x2="2440.4" y2="159.91" fill="none" stroke="#000" stroke-linejoin="bevel" stroke-width="3.97"/><line x1="756.38" y1="503.11" x2="804.98" y2="503.11" fill="none" stroke="#000" stroke-linejoin="bevel" stroke-width="3.97"/><line x1="818.42" y1="503.11" x2="867.02" y2="503.11" fill="none" stroke="#000" stroke-linejoin="bevel" stroke-width="3.97"/><line x1="135.9" y1="159.91" x2="184.5" y2="159.91" fill="none" stroke="#000" stroke-linejoin="bevel" stroke-width="3.97"/><line x1="1004.57" y1="503.11" x2="1053.17" y2="503.11" fill="none" stroke="#000" stroke-linejoin="bevel" stroke-width="3.97"/><line x1="1066.62" y1="503.11" x2="1115.22" y2="503.11" fill="none" stroke="#000" stroke-linejoin="bevel" stroke-width="3.97"/><line x1="1947.96" y1="159.91" x2="1996.56" y2="159.91" fill="none" stroke="#000" stroke-linejoin="bevel" stroke-width="3.97"/><line x1="1136.73" y1="118.74" x2="1136.73" y2="37.99" fill="none" stroke="#000" stroke-linejoin="bevel" stroke-width="2.48"/><line x1="1210.7" y1="143.54" x2="1210.7" y2="40.03" fill="none" stroke="#000" stroke-linejoin="bevel" stroke-width="2.48"/><line x1="1284.67" y1="143.54" x2="1284.67" y2="42.08" fill="none" stroke="#000" stroke-linejoin="bevel" stroke-width="2.48"/><line x1="1395.35" y1="131.14" x2="1395.35" y2="42.08" fill="none" stroke="#000" stroke-linejoin="bevel" stroke-width="2.48"/><line x1="1469.32" y1="131.14" x2="1469.32" y2="40.03" fill="none" stroke="#000" stroke-linejoin="bevel" stroke-width="2.48"/><line x1="1543.3" y1="118.74" x2="1543.3" y2="37.99" fill="none" stroke="#000" stroke-linejoin="bevel" stroke-width="2.48"/><line x1="1617.27" y1="118.74" x2="1617.27" y2="35.95" fill="none" stroke="#000" stroke-linejoin="bevel" stroke-width="2.48"/><line x1="1691.24" y1="106.34" x2="1691.24" y2="35.95" fill="none" stroke="#000" stroke-linejoin="bevel" stroke-width="2.48"/><line x1="1765.22" y1="106.34" x2="1765.22" y2="37.99" fill="none" stroke="#000" stroke-linejoin="bevel" stroke-width="2.48"/><line x1="1839.19" y1="131.14" x2="1839.19" y2="40.03" fill="none" stroke="#000" stroke-linejoin="bevel" stroke-width="2.48"/><line x1="1913.17" y1="131.14" x2="1913.17" y2="42.08" fill="none" stroke="#000" stroke-linejoin="bevel" stroke-width="2.48"/><line x1="1987.14" y1="155.94" x2="1987.14" y2="66.87" fill="none" stroke="#000" stroke-linejoin="bevel" stroke-width="2.48"/><line x1="2061.11" y1="155.94" x2="2061.11" y2="64.83" fill="none" stroke="#000" stroke-linejoin="bevel" stroke-width="2.48"/><line x1="2135.09" y1="143.54" x2="2135.09" y2="62.79" fill="none" stroke="#000" stroke-linejoin="bevel" stroke-width="2.48"/><line x1="2209.06" y1="143.54" x2="2209.06" y2="60.74" fill="none" stroke="#000" stroke-linejoin="bevel" stroke-width="2.48"/><line x1="2283.03" y1="131.14" x2="2283.03" y2="60.74" fill="none" stroke="#000" stroke-linejoin="bevel" stroke-width="2.48"/><line x1="2357.01" y1="131.14" x2="2357.01" y2="62.79" fill="none" stroke="#000" stroke-linejoin="bevel" stroke-width="2.48"/><line x1="2430.98" y1="155.94" x2="2430.98" y2="64.83" fill="none" stroke="#000" stroke-linejoin="bevel" stroke-width="2.48"/><line x1="2504.95" y1="155.94" x2="2504.95" y2="66.87" fill="none" stroke="#000" stroke-linejoin="bevel" stroke-width="2.48"/><line x1="175.07" y1="486.74" x2="175.07" y2="410.07" fill="none" stroke="#000" stroke-linejoin="bevel" stroke-width="2.48"/><line x1="237.12" y1="486.74" x2="237.12" y2="408.03" fill="none" stroke="#000" stroke-linejoin="bevel" stroke-width="2.48"/><line x1="299.17" y1="474.34" x2="299.17" y2="405.99" fill="none" stroke="#000" stroke-linejoin="bevel" stroke-width="2.48"/><line x1="361.22" y1="474.34" x2="361.22" y2="403.95" fill="none" stroke="#000" stroke-linejoin="bevel" stroke-width="2.48"/><line x1="423.26" y1="461.94" x2="423.26" y2="379.15" fill="none" stroke="#000" stroke-linejoin="bevel" stroke-width="2.48"/><line x1="485.31" y1="461.94" x2="485.31" y2="381.19" fill="none" stroke="#000" stroke-linejoin="bevel" stroke-width="2.48"/><line x1="547.36" y1="486.74" x2="547.36" y2="383.23" fill="none" stroke="#000" stroke-linejoin="bevel" stroke-width="2.48"/><line x1="609.41" y1="486.74" x2="609.41" y2="385.27" fill="none" stroke="#000" stroke-linejoin="bevel" stroke-width="2.48"/><line x1="671.46" y1="511.54" x2="671.46" y2="434.87" fill="none" stroke="#000" stroke-linejoin="bevel" stroke-width="2.48"/><line x1="733.51" y1="511.54" x2="733.51" y2="432.83" fill="none" stroke="#000" stroke-linejoin="bevel" stroke-width="2.48"/><line x1="795.55" y1="499.14" x2="795.55" y2="430.79" fill="none" stroke="#000" stroke-linejoin="bevel" stroke-width="2.48"/><line x1="857.6" y1="499.14" x2="857.6" y2="428.75" fill="none" stroke="#000" stroke-linejoin="bevel" stroke-width="2.48"/><line x1="919.65" y1="486.74" x2="919.65" y2="403.95" fill="none" stroke="#000" stroke-linejoin="bevel" stroke-width="2.48"/><line x1="981.7" y1="486.74" x2="981.7" y2="405.99" fill="none" stroke="#000" stroke-linejoin="bevel" stroke-width="2.48"/><line x1="1043.74" y1="511.54" x2="1043.74" y2="408.03" fill="none" stroke="#000" stroke-linejoin="bevel" stroke-width="2.48"/><line x1="1105.79" y1="511.54" x2="1105.79" y2="410.07" fill="none" stroke="#000" stroke-linejoin="bevel" stroke-width="2.48"/><line x1="1211.93" y1="499.14" x2="1211.93" y2="410.07" fill="none" stroke="#000" stroke-linejoin="bevel" stroke-width="2.48"/><line x1="175.07" y1="155.94" x2="175.07" y2="66.87" fill="none" stroke="#000" stroke-linejoin="bevel" stroke-width="2.48"/><line x1="1273.98" y1="499.14" x2="1273.98" y2="408.03" fill="none" stroke="#000" stroke-linejoin="bevel" stroke-width="2.48"/><line x1="1336.02" y1="474.34" x2="1336.02" y2="405.99" fill="none" stroke="#000" stroke-linejoin="bevel" stroke-width="2.48"/><line x1="1398.07" y1="474.34" x2="1398.07" y2="403.95" fill="none" stroke="#000" stroke-linejoin="bevel" stroke-width="2.48"/><line x1="1460.12" y1="486.74" x2="1460.12" y2="403.95" fill="none" stroke="#000" stroke-linejoin="bevel" stroke-width="2.48"/><line x1="1522.17" y1="486.74" x2="1522.17" y2="405.99" fill="none" stroke="#000" stroke-linejoin="bevel" stroke-width="2.48"/><line x1="1584.22" y1="499.14" x2="1584.22" y2="408.03" fill="none" stroke="#000" stroke-linejoin="bevel" stroke-width="2.48"/><line x1="249.05" y1="155.94" x2="249.05" y2="64.83" fill="none" stroke="#000" stroke-linejoin="bevel" stroke-width="2.48"/><line x1="1646.26" y1="499.14" x2="1646.26" y2="410.07" fill="none" stroke="#000" stroke-linejoin="bevel" stroke-width="2.48"/><line x1="1708.31" y1="486.74" x2="1708.31" y2="385.27" fill="none" stroke="#000" stroke-linejoin="bevel" stroke-width="2.48"/><line x1="1770.36" y1="486.74" x2="1770.36" y2="383.23" fill="none" stroke="#000" stroke-linejoin="bevel" stroke-width="2.48"/><line x1="1832.41" y1="461.94" x2="1832.41" y2="381.19" fill="none" stroke="#000" stroke-linejoin="bevel" stroke-width="2.48"/><line x1="1894.46" y1="461.94" x2="1894.46" y2="379.15" fill="none" stroke="#000" stroke-linejoin="bevel" stroke-width="2.48"/><line x1="1956.5" y1="474.34" x2="1956.5" y2="403.95" fill="none" stroke="#000" stroke-linejoin="bevel" stroke-width="2.48"/><line x1="323.02" y1="143.54" x2="323.02" y2="62.79" fill="none" stroke="#000" stroke-linejoin="bevel" stroke-width="2.48"/><line x1="2018.55" y1="474.34" x2="2018.55" y2="405.99" fill="none" stroke="#000" stroke-linejoin="bevel" stroke-width="2.48"/><line x1="2080.6" y1="486.74" x2="2080.6" y2="408.03" fill="none" stroke="#000" stroke-linejoin="bevel" stroke-width="2.48"/><line x1="396.99" y1="143.54" x2="396.99" y2="60.74" fill="none" stroke="#000" stroke-linejoin="bevel" stroke-width="2.48"/><line x1="2142.65" y1="486.74" x2="2142.65" y2="410.07" fill="none" stroke="#000" stroke-linejoin="bevel" stroke-width="2.48"/><line x1="470.97" y1="131.14" x2="470.97" y2="60.74" fill="none" stroke="#000" stroke-linejoin="bevel" stroke-width="2.48"/><line x1="544.94" y1="131.14" x2="544.94" y2="62.79" fill="none" stroke="#000" stroke-linejoin="bevel" stroke-width="2.48"/><line x1="618.91" y1="155.94" x2="618.91" y2="64.83" fill="none" stroke="#000" stroke-linejoin="bevel" stroke-width="2.48"/><line x1="692.89" y1="155.94" x2="692.89" y2="66.87" fill="none" stroke="#000" stroke-linejoin="bevel" stroke-width="2.48"/><line x1="766.86" y1="143.54" x2="766.86" y2="66.87" fill="none" stroke="#000" stroke-linejoin="bevel" stroke-width="2.48"/><line x1="840.83" y1="143.54" x2="840.83" y2="64.83" fill="none" stroke="#000" stroke-linejoin="bevel" stroke-width="2.48"/><line x1="914.81" y1="131.14" x2="914.81" y2="62.79" fill="none" stroke="#000" stroke-linejoin="bevel" stroke-width="2.48"/><line x1="988.78" y1="131.14" x2="988.78" y2="60.74" fill="none" stroke="#000" stroke-linejoin="bevel" stroke-width="2.48"/><line x1="1062.75" y1="118.74" x2="1062.75" y2="35.95" fill="none" stroke="#000" stroke-linejoin="bevel" stroke-width="2.48"/><path d="M1586.28,126.88c0,4.26,3.07,9.02,11.11,9.02,10.31,0,21.13-8.43,21.13-17.16,0-5.86-4.96-9.13-11.11-9.13-9.63,0-21.13,8.14-21.13,17.27"/><path d="M144.08,164.08c0,4.26,3.07,9.02,11.11,9.02,10.31,0,21.13-8.43,21.13-17.16,0-5.86-4.96-9.13-11.11-9.13-9.63,0-21.13,8.14-21.13,17.27"/><path d="M218.05,164.08c0,4.26,3.07,9.02,11.11,9.02,10.31,0,21.13-8.43,21.13-17.16,0-5.86-4.96-9.13-11.11-9.13-9.63,0-21.13,8.14-21.13,17.27"/><path d="M292.03,151.68c0,4.26,3.07,9.02,11.11,9.02,10.31,0,21.13-8.43,21.13-17.16,0-5.86-4.96-9.13-11.11-9.13-9.63,0-21.13,8.14-21.13,17.27"/><path d="M366,151.68c0,4.26,3.07,9.02,11.11,9.02,10.31,0,21.13-8.43,21.13-17.16,0-5.86-4.96-9.13-11.11-9.13-9.63,0-21.13,8.14-21.13,17.27"/><path d="M439.97,139.28c0,4.26,3.07,9.02,11.11,9.02,10.31,0,21.13-8.43,21.13-17.16,0-5.86-4.96-9.13-11.11-9.13-9.63,0-21.13,8.14-21.13,17.27"/><path d="M513.95,139.28c0,4.26,3.07,9.02,11.11,9.02,10.31,0,21.13-8.43,21.13-17.16,0-5.86-4.96-9.13-11.11-9.13-9.63,0-21.13,8.14-21.13,17.27"/><path d="M587.92,164.08c0,4.26,3.07,9.02,11.11,9.02,10.31,0,21.13-8.43,21.13-17.16,0-5.86-4.96-9.13-11.11-9.13-9.63,0-21.13,8.14-21.13,17.27"/><path d="M661.89,164.08c0,4.26,3.07,9.02,11.11,9.02,10.31,0,21.13-8.43,21.13-17.16,0-5.86-4.96-9.13-11.11-9.13-9.63,0-21.13,8.14-21.13,17.27"/><path d="M735.87,151.68c0,4.26,3.07,9.02,11.11,9.02,10.31,0,21.13-8.43,21.13-17.16,0-5.86-4.96-9.13-11.11-9.13-9.63,0-21.13,8.14-21.13,17.27"/><path d="M809.84,151.68c0,4.26,3.07,9.02,11.11,9.02,10.31,0,21.13-8.43,21.13-17.16,0-5.86-4.96-9.13-11.11-9.13-9.63,0-21.13,8.14-21.13,17.27"/><path d="M883.81,139.28c0,4.26,3.07,9.02,11.11,9.02,10.31,0,21.13-8.43,21.13-17.16,0-5.86-4.96-9.13-11.11-9.13-9.63,0-21.13,8.14-21.13,17.27"/><path d="M957.79,139.28c0,4.26,3.07,9.02,11.11,9.02,10.31,0,21.13-8.43,21.13-17.16,0-5.86-4.96-9.13-11.11-9.13-9.63,0-21.13,8.14-21.13,17.27"/><path d="M1031.76,126.88c0,4.26,3.07,9.02,11.11,9.02,10.31,0,21.13-8.43,21.13-17.16,0-5.86-4.96-9.13-11.11-9.13-9.63,0-21.13,8.14-21.13,17.27"/><path d="M1105.73,126.88c0,4.26,3.07,9.02,11.11,9.02,10.31,0,21.13-8.43,21.13-17.16,0-5.86-4.96-9.13-11.11-9.13-9.63,0-21.13,8.14-21.13,17.27"/><path d="M1179.71,151.68c0,4.26,3.07,9.02,11.11,9.02,10.31,0,21.13-8.43,21.13-17.16,0-5.86-4.96-9.13-11.11-9.13-9.63,0-21.13,8.14-21.13,17.27"/><path d="M1253.68,151.68c0,4.26,3.07,9.02,11.11,9.02,10.31,0,21.13-8.43,21.13-17.16,0-5.86-4.96-9.13-11.11-9.13-9.63,0-21.13,8.14-21.13,17.27"/><path d="M1364.36,139.28c0,4.26,3.07,9.02,11.11,9.02,10.31,0,21.13-8.43,21.13-17.16,0-5.86-4.96-9.13-11.11-9.13-9.63,0-21.13,8.14-21.13,17.27"/><path d="M1438.33,139.28c0,4.26,3.07,9.02,11.11,9.02,10.31,0,21.13-8.43,21.13-17.16,0-5.86-4.96-9.13-11.11-9.13-9.63,0-21.13,8.14-21.13,17.27"/><path d="M1512.31,126.88c0,4.26,3.07,9.02,11.11,9.02,10.31,0,21.13-8.43,21.13-17.16,0-5.86-4.96-9.13-11.11-9.13-9.63,0-21.13,8.14-21.13,17.27"/><path d="M1660.25,114.48c0,4.26,3.07,9.02,11.11,9.02,10.31,0,21.13-8.43,21.13-17.16,0-5.86-4.96-9.13-11.11-9.13-9.63,0-21.13,8.14-21.13,17.27"/><path d="M1734.23,114.48c0,4.26,3.07,9.02,11.11,9.02,10.31,0,21.13-8.43,21.13-17.16,0-5.86-4.96-9.13-11.11-9.13-9.63,0-21.13,8.14-21.13,17.27"/><path d="M1808.2,139.28c0,4.26,3.07,9.02,11.11,9.02,10.31,0,21.13-8.43,21.13-17.16,0-5.86-4.96-9.13-11.11-9.13-9.63,0-21.13,8.14-21.13,17.27"/><path d="M1882.17,139.28c0,4.26,3.07,9.02,11.11,9.02,10.31,0,21.13-8.43,21.13-17.16,0-5.86-4.96-9.13-11.11-9.13-9.63,0-21.13,8.14-21.13,17.27"/><path d="M1956.15,164.08c0,4.26,3.07,9.02,11.11,9.02,10.31,0,21.13-8.43,21.13-17.16,0-5.86-4.96-9.13-11.11-9.13-9.63,0-21.13,8.14-21.13,17.27"/><path d="M2030.12,164.08c0,4.26,3.07,9.02,11.11,9.02,10.31,0,21.13-8.43,21.13-17.16,0-5.86-4.96-9.13-11.11-9.13-9.63,0-21.13,8.14-21.13,17.27"/><path d="M2104.09,151.68c0,4.26,3.07,9.02,11.11,9.02,10.31,0,21.13-8.43,21.13-17.16,0-5.86-4.96-9.13-11.11-9.13-9.63,0-21.13,8.14-21.13,17.27"/><path d="M2178.07,151.68c0,4.26,3.07,9.02,11.11,9.02,10.31,0,21.13-8.43,21.13-17.16,0-5.86-4.96-9.13-11.11-9.13-9.63,0-21.13,8.14-21.13,17.27"/><path d="M2252.04,139.28c0,4.26,3.07,9.02,11.11,9.02,10.31,0,21.13-8.43,21.13-17.16,0-5.86-4.96-9.13-11.11-9.13-9.63,0-21.13,8.14-21.13,17.27"/><path d="M2326.01,139.28c0,4.26,3.07,9.02,11.11,9.02,10.31,0,21.13-8.43,21.13-17.16,0-5.86-4.96-9.13-11.11-9.13-9.63,0-21.13,8.14-21.13,17.27"/><path d="M2399.99,164.08c0,4.26,3.07,9.02,11.11,9.02,10.31,0,21.13-8.43,21.13-17.16,0-5.86-4.96-9.13-11.11-9.13-9.63,0-21.13,8.14-21.13,17.27"/><path d="M2473.96,164.08c0,4.26,3.07,9.02,11.11,9.02,10.31,0,21.13-8.43,21.13-17.16,0-5.86-4.96-9.13-11.11-9.13-9.63,0-21.13,8.14-21.13,17.27"/><path d="M144.08,494.88c0,4.26,3.07,9.02,11.11,9.02,10.31,0,21.13-8.43,21.13-17.16,0-5.86-4.96-9.13-11.11-9.13-9.63,0-21.13,8.14-21.13,17.27"/><path d="M206.13,494.88c0,4.26,3.07,9.02,11.11,9.02,10.31,0,21.13-8.43,21.13-17.16,0-5.86-4.96-9.13-11.11-9.13-9.63,0-21.13,8.14-21.13,17.27"/><path d="M268.18,482.48c0,4.26,3.07,9.02,11.11,9.02,10.31,0,21.13-8.43,21.13-17.16,0-5.86-4.96-9.13-11.11-9.13-9.63,0-21.13,8.14-21.13,17.27"/><path d="M330.22,482.48c0,4.26,3.07,9.02,11.11,9.02,10.31,0,21.13-8.43,21.13-17.16,0-5.86-4.96-9.13-11.11-9.13-9.63,0-21.13,8.14-21.13,17.27"/><path d="M392.27,470.08c0,4.26,3.07,9.02,11.11,9.02,10.31,0,21.13-8.43,21.13-17.16,0-5.86-4.96-9.13-11.11-9.13-9.63,0-21.13,8.14-21.13,17.27"/><path d="M454.32,470.08c0,4.26,3.07,9.02,11.11,9.02,10.31,0,21.13-8.43,21.13-17.16,0-5.86-4.96-9.13-11.11-9.13-9.63,0-21.13,8.14-21.13,17.27"/><path d="M516.37,494.88c0,4.26,3.07,9.02,11.11,9.02,10.31,0,21.13-8.43,21.13-17.16,0-5.86-4.96-9.13-11.11-9.13-9.63,0-21.13,8.14-21.13,17.27"/><path d="M578.42,494.88c0,4.26,3.07,9.02,11.11,9.02,10.31,0,21.13-8.43,21.13-17.16,0-5.86-4.96-9.13-11.11-9.13-9.63,0-21.13,8.14-21.13,17.27"/><path d="M640.46,519.68c0,4.26,3.07,9.02,11.11,9.02,10.31,0,21.13-8.43,21.13-17.16,0-5.86-4.96-9.13-11.11-9.13-9.63,0-21.13,8.14-21.13,17.27"/><path d="M702.51,519.68c0,4.26,3.07,9.02,11.11,9.02,10.31,0,21.13-8.43,21.13-17.16,0-5.86-4.96-9.13-11.11-9.13-9.63,0-21.13,8.14-21.13,17.27"/><path d="M764.56,507.28c0,4.26,3.07,9.02,11.11,9.02,10.31,0,21.13-8.43,21.13-17.16,0-5.86-4.96-9.13-11.11-9.13-9.63,0-21.13,8.14-21.13,17.27"/><path d="M826.61,507.28c0,4.26,3.07,9.02,11.11,9.02,10.31,0,21.13-8.43,21.13-17.16,0-5.86-4.96-9.13-11.11-9.13-9.63,0-21.13,8.14-21.13,17.27"/><path d="M888.66,494.88c0,4.26,3.07,9.02,11.11,9.02,10.31,0,21.13-8.43,21.13-17.16,0-5.86-4.96-9.13-11.11-9.13-9.63,0-21.13,8.14-21.13,17.27"/><path d="M950.7,494.88c0,4.26,3.07,9.02,11.11,9.02,10.31,0,21.13-8.43,21.13-17.16,0-5.86-4.96-9.13-11.11-9.13-9.63,0-21.13,8.14-21.13,17.27"/><path d="M1012.75,519.68c0,4.26,3.07,9.02,11.11,9.02,10.31,0,21.13-8.43,21.13-17.16,0-5.86-4.96-9.13-11.11-9.13-9.63,0-21.13,8.14-21.13,17.27"/><path d="M1074.8,519.68c0,4.26,3.07,9.02,11.11,9.02,10.31,0,21.13-8.43,21.13-17.16,0-5.86-4.96-9.13-11.11-9.13-9.63,0-21.13,8.14-21.13,17.27"/><path d="M1180.94,507.28c0,4.26,3.07,9.02,11.11,9.02,10.31,0,21.13-8.43,21.13-17.16,0-5.86-4.96-9.13-11.11-9.13-9.63,0-21.13,8.14-21.13,17.27"/><path d="M1242.98,507.28c0,4.26,3.07,9.02,11.11,9.02,10.31,0,21.13-8.43,21.13-17.16,0-5.86-4.96-9.13-11.11-9.13-9.63,0-21.13,8.14-21.13,17.27"/><path d="M1305.03,482.48c0,4.26,3.07,9.02,11.11,9.02,10.31,0,21.13-8.43,21.13-17.16,0-5.86-4.96-9.13-11.11-9.13-9.63,0-21.13,8.14-21.13,17.27"/><path d="M1367.08,482.48c0,4.26,3.07,9.02,11.11,9.02,10.31,0,21.13-8.43,21.13-17.16,0-5.86-4.96-9.13-11.11-9.13-9.63,0-21.13,8.14-21.13,17.27"/><path d="M1429.13,494.88c0,4.26,3.07,9.02,11.11,9.02,10.31,0,21.13-8.43,21.13-17.16,0-5.86-4.96-9.13-11.11-9.13-9.63,0-21.13,8.14-21.13,17.27"/><path d="M1491.18,494.88c0,4.26,3.07,9.02,11.11,9.02,10.31,0,21.13-8.43,21.13-17.16,0-5.86-4.96-9.13-11.11-9.13-9.63,0-21.13,8.14-21.13,17.27"/><path d="M1553.22,507.28c0,4.26,3.07,9.02,11.11,9.02,10.31,0,21.13-8.43,21.13-17.16,0-5.86-4.96-9.13-11.11-9.13-9.63,0-21.13,8.14-21.13,17.27"/><path d="M1615.27,507.28c0,4.26,3.07,9.02,11.11,9.02,10.31,0,21.13-8.43,21.13-17.16,0-5.86-4.96-9.13-11.11-9.13-9.63,0-21.13,8.14-21.13,17.27"/><path d="M1677.32,494.88c0,4.26,3.07,9.02,11.11,9.02,10.31,0,21.13-8.43,21.13-17.16,0-5.86-4.96-9.13-11.11-9.13-9.63,0-21.13,8.14-21.13,17.27"/><path d="M1739.37,494.88c0,4.26,3.07,9.02,11.11,9.02,10.31,0,21.13-8.43,21.13-17.16,0-5.86-4.96-9.13-11.11-9.13-9.63,0-21.13,8.14-21.13,17.27"/><path d="M1801.42,470.08c0,4.26,3.07,9.02,11.11,9.02,10.31,0,21.13-8.43,21.13-17.16,0-5.86-4.96-9.13-11.11-9.13-9.63,0-21.13,8.14-21.13,17.27"/><path d="M1863.46,470.08c0,4.26,3.07,9.02,11.11,9.02,10.31,0,21.13-8.43,21.13-17.16,0-5.86-4.96-9.13-11.11-9.13-9.63,0-21.13,8.14-21.13,17.27"/><path d="M1925.51,482.48c0,4.26,3.07,9.02,11.11,9.02,10.31,0,21.13-8.43,21.13-17.16,0-5.86-4.96-9.13-11.11-9.13-9.63,0-21.13,8.14-21.13,17.27"/><path d="M1987.56,482.48c0,4.26,3.07,9.02,11.11,9.02,10.31,0,21.13-8.43,21.13-17.16,0-5.86-4.96-9.13-11.11-9.13-9.63,0-21.13,8.14-21.13,17.27"/><path d="M2049.61,494.88c0,4.26,3.07,9.02,11.11,9.02,10.31,0,21.13-8.43,21.13-17.16,0-5.86-4.96-9.13-11.11-9.13-9.63,0-21.13,8.14-21.13,17.27"/><path d="M2111.66,494.88c0,4.26,3.07,9.02,11.11,9.02,10.31,0,21.13-8.43,21.13-17.16,0-5.86-4.96-9.13-11.11-9.13-9.63,0-21.13,8.14-21.13,17.27"/><path d="M2236.35,489.63c-13.69,0-18.55,6.94-18.55,13.39s4.87,13.39,18.55,13.39,18.45-6.94,18.45-13.39-4.76-13.39-18.45-13.39m.79,23.61c-2.77,0-4.67-.79-5.95-3.27s-3.07-8.93-3.18-11.52c-.2-2.68,.79-4.26,3.18-5.05,1.19-.4,2.77-.6,4.37-.6,2.67,0,4.46,.6,5.84,3.29,1.39,2.57,3.29,9.02,3.29,11.5,0,4.87-3.58,5.66-7.55,5.66"/><path d="M30.8,161.2c0,6.56,4.96,15.19,18.35,15.19,4.67,0,8.74-1.19,12.31-3.38,5.36-3.77,6.74-10.32,6.74-16.57,0-3.86-.59-8.32-1.58-13.98-.29-1.98-.9-4.96-1.49-8.84,9.72-3.18,16.96-13.3,16.96-23.51,0-14.97-10.62-25.09-25.09-25.09-.99-5.95-1.98-11.81-2.77-17.36,10.42-11.02,17.65-23.42,17.65-39.18,0-9.04-2.77-16.37-4.37-19.95-2.37-5.05-5.25-8.53-7.04-8.53-.7,0-3.77,1.19-7.04,5.05-6.36,7.55-8.14,20.24-8.14,28.57,0,5.36,.5,10.23,2.19,21.34-.11,.09-5.27,5.35-7.35,7.04-9.04,8.34-21.53,20.43-21.53,40.28,0,18.54,16.17,33.12,34.63,33.12,2.87,0,5.55-.29,7.83-.7,1.89,9.53,3.08,16.48,3.08,21.73,0,10.32-5.36,15.78-15.38,15.78-2.39,0-4.46-.5-4.67-.5-.09-.11-.29-.2-.29-.29,0-.2,.2-.31,.5-.31,4.67-.79,9.32-4.76,9.32-11.1,0-5.36-4.06-11.02-11.5-11.02-6.94,0-11.31,5.66-11.31,12.2M51.54,28.77c.9-3.97,5.46-14.38,10.62-14.38,1.49,0,3.86,4.76,3.86,11.7,0,10.32-7.63,18.06-14.48,24.8-.59-3.97-1.08-7.83-1.08-12,0-3.67,.29-7.05,1.08-10.12m8.73,101.97c-1.98,.4-3.86,.6-5.75,.6-14.18,0-26.29-9.92-26.29-24.91,0-12.09,8.53-22.91,17.27-30.46,1.67-1.49,3.27-2.87,4.76-4.36,.88,5.35,1.58,10.01,2.28,14.09-9.04,2.68-15.17,12.2-15.17,21.53,0,6.94,5.46,16.46,13.39,16.46,.79,0,1.69-.4,1.69-1.29s-.99-1.39-2.19-2.19c-3.88-2.39-6.06-4.96-6.06-9.83,0-6.05,4.57-10.91,10.32-12.29l5.75,32.63m14.09-18.35c0,7.05-2.88,14.29-9.92,17.17-2.08-11.9-4.76-27.68-5.46-32.05,8.93,0,15.38,6.06,15.38,14.88"/><path d="M30.8,504.4c0,6.56,4.96,15.19,18.35,15.19,4.67,0,8.74-1.19,12.31-3.38,5.36-3.77,6.74-10.32,6.74-16.57,0-3.86-.59-8.32-1.58-13.98-.29-1.98-.9-4.96-1.49-8.84,9.72-3.18,16.96-13.3,16.96-23.51,0-14.97-10.62-25.09-25.09-25.09-.99-5.95-1.98-11.81-2.77-17.36,10.42-11.02,17.65-23.42,17.65-39.18,0-9.04-2.77-16.37-4.37-19.95-2.37-5.05-5.25-8.53-7.04-8.53-.7,0-3.77,1.19-7.04,5.05-6.36,7.55-8.14,20.24-8.14,28.57,0,5.36,.5,10.23,2.19,21.34-.11,.09-5.27,5.35-7.35,7.04-9.04,8.34-21.53,20.43-21.53,40.28,0,18.54,16.17,33.12,34.63,33.12,2.87,0,5.55-.29,7.83-.7,1.89,9.53,3.08,16.48,3.08,21.73,0,10.32-5.36,15.78-15.38,15.78-2.39,0-4.46-.5-4.67-.5-.09-.11-.29-.2-.29-.29,0-.2,.2-.31,.5-.31,4.67-.79,9.32-4.76,9.32-11.1,0-5.36-4.06-11.02-11.5-11.02-6.94,0-11.31,5.66-11.31,12.2m20.74-132.43c.9-3.97,5.46-14.38,10.62-14.38,1.49,0,3.86,4.76,3.86,11.7,0,10.32-7.63,18.06-14.48,24.8-.59-3.97-1.08-7.83-1.08-12,0-3.67,.29-7.05,1.08-10.12m8.73,101.97c-1.98,.4-3.86,.6-5.75,.6-14.18,0-26.29-9.92-26.29-24.91,0-12.09,8.53-22.91,17.27-30.46,1.67-1.49,3.27-2.87,4.76-4.36,.88,5.35,1.58,10.01,2.28,14.09-9.04,2.68-15.17,12.2-15.17,21.53,0,6.94,5.46,16.46,13.39,16.46,.79,0,1.69-.4,1.69-1.29s-.99-1.39-2.19-2.19c-3.88-2.39-6.06-4.96-6.06-9.83,0-6.05,4.57-10.91,10.32-12.29l5.75,32.63m14.09-18.35c0,7.05-2.88,14.29-9.92,17.17-2.08-11.9-4.76-27.68-5.46-32.05,8.93,0,15.38,6.06,15.38,14.88"/><path d="M2259.02,340.92c-9.32-10.12-17.56-10.71-22.71-10.71s-13.3,.59-22.63,10.71c-4.85,5.36-8.23,15.97-8.23,21.33,0,1.89,.4,3.18,1.4,3.18,2.77,0,1.38-8.54,9.72-16.97,7.33-7.33,17.16-7.44,19.55-7.44h.39c2.39,0,12.21,.11,19.55,7.44,8.34,8.43,6.94,16.97,9.72,16.97,.99,0,1.39-1.19,1.39-3.18,0-5.36-3.27-16.07-8.14-21.33m-29.56,18.94c0,3.78,3.07,6.85,6.85,6.85s6.84-3.07,6.84-6.85-3.07-6.84-6.84-6.84-6.85,3.07-6.85,6.84"/><path d="M739.19,196.9c-4.2,0-7.25,2.57-7.25,6.04,0,1.73,1,3.17,2.77,4.09,.64,.31,1.44,.67,3.12,1.36,2.27,.91,2.83,1.47,2.83,2.87,0,2.16-1.8,3.52-4.56,3.52-2.03,0-3.47-.56-3.47-1.36,0-.2,.11-.44,.28-.59,.75-.8,.83-1,.83-1.72,0-1.13-.88-2-2.03-2-1.33,0-2.33,1.11-2.33,2.67,0,2.8,2.48,4.52,6.53,4.52,4.59,0,7.75-2.52,7.75-6.16,0-1.59-.72-2.95-2-3.83-.88-.61-1.28-.76-3.47-1.56-2.61-.92-3.28-1.56-3.28-3.13,0-1.84,1.75-3.2,4.08-3.2,1.56,0,2.59,.44,2.59,1.08,0,.17-.08,.36-.2,.56-.56,.8-.64,1-.64,1.61,0,1.08,.84,1.83,2.08,1.83,1.36,0,2.28-1,2.28-2.44,0-2.44-2.44-4.16-5.91-4.16m16.75-9.76c-1.2,0-2.16,.97-2.16,2.17s.95,2.16,2.12,2.16c1.23,0,2.19-.97,2.19-2.16s-.95-2.17-2.16-2.17m.72,9.76l-7.67,.6-.16,1.45h.95c1.64,0,2.28,.36,2.28,1.24,0,.39-.08,.84-.36,1.76l-2.33,7.8c-.75,2.55-.88,3.11-.88,4.03,0,1.41,1.2,2.48,2.72,2.48,3.44,0,5.8-3.56,7.48-6.15l-1.25-.69c-2.08,3.16-3.75,4.84-4.83,4.84-.41,0-.69-.36-.69-.84,0-.39,.16-1.12,.48-2.23l4.23-14.29m12.97,0l-7.28,.6-.12,1.45h.97c1.59,0,2.23,.36,2.23,1.27,0,.36-.12,.97-.33,1.73l-4.08,13.75h3.48l1.64-5.64c1.8-6.12,5.44-10.75,8.44-10.75,1.05,0,1.69,.55,1.69,1.55,0,.81-.33,2.48-.81,4l-3.19,10.84h3.47l1.72-5.8c1-3.32,2-5.56,3.28-7.28,1.44-2,3.48-3.31,5-3.31,1,0,1.56,.52,1.56,1.47,0,.56-.2,1.44-.56,2.56l-1.84,5.69c-1.08,3.11-1.11,3.36-1.11,4.47,0,1.69,1.23,2.8,3.11,2.8,1.33,0,2.6-.65,3.97-1.91,.85-.81,1.39-1.53,3.04-3.92l-1.24-.85c-2.08,3.13-3.56,4.64-4.59,4.64-.44,0-.85-.43-.85-1,0-.36,.12-.79,.49-1.96l2.51-7.75c.28-.88,.49-2.13,.49-3,0-2.13-1.56-3.65-3.72-3.65-2.84,0-5.41,1.85-7.72,5.65,.16-.77,.23-1.44,.23-1.93,0-2.12-1.69-3.72-3.88-3.72-2.53,0-4.36,1.41-7.17,5.41l1.17-5.41m29.95,14.44c-1.36,0-2.47,1.13-2.47,2.49s1.11,2.47,2.44,2.47c1.44,0,2.52-1.08,2.52-2.47s-1.13-2.49-2.49-2.49"/><path d="M673.74,198.42c.64-.56,1-.75,1.47-.75,.41,0,.74,.19,1.05,.64,.64,.88,.88,1.03,1.52,1.03,.92,0,1.61-.75,1.61-1.75,0-1.17-1.12-2.09-2.53-2.09s-2.47,.53-4.55,2.17c-1.25-.56-2.17-.77-3.45-.77-4.44,0-8.19,3.16-8.19,6.85,0,1.92,.75,3.23,2.47,4.15-1.83,.24-2.67,.52-3.59,1.32-.8,.64-1.31,1.72-1.31,2.68,0,1.36,.64,2.21,2.19,2.96-2.36,.53-5.11,1.53-5.11,4.44,0,4,5.28,4.48,8.2,4.48,3.95,0,6.23-.48,8.19-1.77,1.72-1.11,2.72-2.82,2.72-4.71,0-4.04-4.28-4.52-7.36-4.72-3.55-.19-3.83-.24-4.39-.36-1-.24-1.48-.72-1.48-1.39,0-.97,.95-1.61,2.41-1.61,.52,0,1.11,.04,1.64,.12,1.64,.24,1.88,.28,2.88,.28,2.23,0,4-.56,5.39-1.68,1.61-1.24,2.61-3.24,2.61-5.08s-.8-3.31-2.36-4.44m-4.61,0c2.09,0,3.41,1.25,3.41,3.2,0,2.88-1.31,6.52-4.72,6.52-2.16,0-3.52-1.36-3.52-3.59,0-3.6,1.95-6.13,4.83-6.13m-4.88,17.16c1.8,0,4.69,.4,5.59,.76,1,.44,1.48,1.13,1.48,2.13,0,2.36-2.51,3.64-7.11,3.64-3.89,0-5.69-.97-5.69-3.1s2.08-3.43,5.72-3.43m35.56-18.08h-3.49l-1.88,6.4c-1.64,5.57-5.33,10.11-8.16,10.11-.97,0-1.72-.75-1.72-1.71,0-.52,.11-1.16,.44-2.27l3.92-13.13-7.72,.6-.12,1.45h.95c1.64,0,2.25,.36,2.25,1.27,0,.4-.12,.97-.33,1.73l-1.59,5.39q-1.23,4-1.23,5.24c0,2.2,1.51,3.68,3.8,3.68,2.8,0,5.08-1.64,7.44-5.32-.41,1.4-.48,1.96-.48,2.71,0,1.57,1.08,2.65,2.56,2.65,2.44,0,4.39-1.65,7.24-6l-1.2-.72c-1.95,2.92-3.52,4.53-4.39,4.53-.36,0-.72-.46-.72-.97,0-.44,.16-1.2,.47-2.36l3.97-13.28"/><path d="M601.84,209.39c-2.33,3.75-3.33,4.8-4.64,4.8-.64,0-1-.41-1-1.13,0-.51,.2-1.44,.59-2.84l7.12-23.99-7.95,.6-.17,1.43h1.25c1.64,0,2.28,.36,2.28,1.24,0,.4-.12,.92-.36,1.76l-2.64,8.88c-.72-2.08-2.28-3.24-4.61-3.24-5.75,0-11.11,6.16-11.11,12.8,0,3.92,2.51,6.6,6.28,6.6,2.72,0,4.72-1.11,6.47-3.72-.03,.32-.03,.72-.03,.89,0,1.83,.95,2.83,2.72,2.83,2.52,0,4.72-1.96,7-6.19l-1.2-.72m-10-10.69c1.95,0,3.39,1.52,3.39,3.61,0,3.63-2.55,12.11-7.19,12.11-2.16,0-3.56-1.72-3.56-4.31,0-3.8,2.72-11.41,7.36-11.41m33-1.2h-3.48l-1.88,6.4c-1.64,5.57-5.33,10.11-8.16,10.11-.97,0-1.72-.75-1.72-1.71,0-.52,.11-1.16,.44-2.27l3.92-13.13-7.72,.6-.12,1.45h.95c1.64,0,2.25,.36,2.25,1.27,0,.4-.12,.97-.33,1.73l-1.59,5.39q-1.23,4-1.23,5.24c0,2.2,1.52,3.68,3.8,3.68,2.8,0,5.08-1.64,7.44-5.32-.41,1.4-.48,1.96-.48,2.71,0,1.57,1.08,2.65,2.56,2.65,2.44,0,4.39-1.65,7.23-6l-1.2-.72c-1.95,2.92-3.52,4.53-4.39,4.53-.36,0-.72-.46-.72-.97,0-.44,.16-1.2,.47-2.36l3.97-13.28"/><path d="M525.79,198.42c.64-.56,1-.75,1.47-.75,.41,0,.73,.19,1.05,.64,.64,.88,.88,1.03,1.52,1.03,.92,0,1.61-.75,1.61-1.75,0-1.17-1.12-2.09-2.53-2.09s-2.47,.53-4.55,2.17c-1.25-.56-2.17-.77-3.45-.77-4.44,0-8.19,3.16-8.19,6.85,0,1.92,.75,3.23,2.47,4.15-1.83,.24-2.67,.52-3.59,1.32-.8,.64-1.31,1.72-1.31,2.68,0,1.36,.64,2.21,2.19,2.96-2.36,.53-5.11,1.53-5.11,4.44,0,4,5.28,4.48,8.2,4.48,3.95,0,6.23-.48,8.19-1.77,1.72-1.11,2.72-2.82,2.72-4.71,0-4.04-4.28-4.52-7.36-4.72-3.55-.19-3.83-.24-4.39-.36-1-.24-1.48-.72-1.48-1.39,0-.97,.95-1.61,2.41-1.61,.52,0,1.11,.04,1.64,.12,1.64,.24,1.88,.28,2.88,.28,2.23,0,4-.56,5.39-1.68,1.61-1.24,2.61-3.24,2.61-5.08s-.8-3.31-2.36-4.44m-4.61,0c2.09,0,3.41,1.25,3.41,3.2,0,2.88-1.31,6.52-4.72,6.52-2.16,0-3.52-1.36-3.52-3.59,0-3.6,1.95-6.13,4.83-6.13m-4.88,17.16c1.8,0,4.69,.4,5.59,.76,1,.44,1.48,1.13,1.48,2.13,0,2.36-2.52,3.64-7.11,3.64-3.89,0-5.69-.97-5.69-3.1s2.08-3.43,5.72-3.43m35.56-18.08h-3.48l-1.88,6.4c-1.64,5.57-5.33,10.11-8.16,10.11-.97,0-1.72-.75-1.72-1.71,0-.52,.11-1.16,.44-2.27l3.92-13.13-7.72,.6-.12,1.45h.95c1.64,0,2.25,.36,2.25,1.27,0,.4-.12,.97-.33,1.73l-1.59,5.39q-1.23,4-1.23,5.24c0,2.2,1.52,3.68,3.8,3.68,2.8,0,5.08-1.64,7.44-5.32-.41,1.4-.48,1.96-.48,2.71,0,1.57,1.08,2.65,2.56,2.65,2.44,0,4.39-1.65,7.23-6l-1.2-.72c-1.95,2.92-3.52,4.53-4.39,4.53-.36,0-.72-.46-.72-.97,0-.44,.16-1.2,.47-2.36l3.97-13.28"/><path d="M453.89,209.39c-2.33,3.75-3.33,4.8-4.64,4.8-.64,0-1-.41-1-1.13,0-.51,.2-1.44,.59-2.84l7.12-23.99-7.95,.6-.17,1.43h1.25c1.64,0,2.28,.36,2.28,1.24,0,.4-.12,.92-.36,1.76l-2.64,8.88c-.72-2.08-2.28-3.24-4.61-3.24-5.75,0-11.11,6.16-11.11,12.8,0,3.92,2.52,6.6,6.28,6.6,2.72,0,4.72-1.11,6.47-3.72-.03,.32-.03,.72-.03,.89,0,1.83,.95,2.83,2.72,2.83,2.52,0,4.72-1.96,7-6.19l-1.2-.72m-10-10.69c1.95,0,3.39,1.52,3.39,3.61,0,3.63-2.55,12.11-7.19,12.11-2.16,0-3.56-1.72-3.56-4.31,0-3.8,2.72-11.41,7.36-11.41m33-1.2h-3.48l-1.88,6.4c-1.64,5.57-5.33,10.11-8.16,10.11-.97,0-1.72-.75-1.72-1.71,0-.52,.11-1.16,.44-2.27l3.92-13.13-7.72,.6-.12,1.45h.95c1.64,0,2.25,.36,2.25,1.27,0,.4-.12,.97-.33,1.73l-1.59,5.39q-1.23,4-1.23,5.24c0,2.2,1.52,3.68,3.8,3.68,2.8,0,5.08-1.64,7.44-5.32-.41,1.4-.48,1.96-.48,2.71,0,1.57,1.08,2.65,2.56,2.65,2.44,0,4.39-1.65,7.23-6l-1.2-.72c-1.95,2.92-3.52,4.53-4.39,4.53-.36,0-.72-.46-.72-.97,0-.44,.16-1.2,.47-2.36l3.97-13.28"/><path d="M377.84,198.42c.64-.56,1-.75,1.47-.75,.41,0,.73,.19,1.05,.64,.64,.88,.88,1.03,1.52,1.03,.92,0,1.61-.75,1.61-1.75,0-1.17-1.12-2.09-2.53-2.09s-2.47,.53-4.55,2.17c-1.25-.56-2.17-.77-3.45-.77-4.44,0-8.19,3.16-8.19,6.85,0,1.92,.75,3.23,2.47,4.15-1.83,.24-2.67,.52-3.59,1.32-.8,.64-1.31,1.72-1.31,2.68,0,1.36,.64,2.21,2.19,2.96-2.36,.53-5.11,1.53-5.11,4.44,0,4,5.28,4.48,8.2,4.48,3.95,0,6.23-.48,8.19-1.77,1.72-1.11,2.72-2.82,2.72-4.71,0-4.04-4.28-4.52-7.36-4.72-3.55-.19-3.83-.24-4.39-.36-1-.24-1.48-.72-1.48-1.39,0-.97,.95-1.61,2.41-1.61,.52,0,1.11,.04,1.64,.12,1.64,.24,1.88,.28,2.88,.28,2.23,0,4-.56,5.39-1.68,1.61-1.24,2.61-3.24,2.61-5.08s-.8-3.31-2.36-4.44m-4.61,0c2.09,0,3.41,1.25,3.41,3.2,0,2.88-1.31,6.52-4.72,6.52-2.16,0-3.52-1.36-3.52-3.59,0-3.6,1.95-6.13,4.83-6.13m-4.88,17.16c1.8,0,4.69,.4,5.59,.76,1,.44,1.48,1.13,1.48,2.13,0,2.36-2.52,3.64-7.11,3.64-3.89,0-5.69-.97-5.69-3.1s2.08-3.43,5.72-3.43m35.56-18.08h-3.48l-1.88,6.4c-1.64,5.57-5.33,10.11-8.16,10.11-.97,0-1.72-.75-1.72-1.71,0-.52,.11-1.16,.44-2.27l3.92-13.13-7.72,.6-.12,1.45h.95c1.64,0,2.25,.36,2.25,1.27,0,.4-.12,.97-.33,1.73l-1.59,5.39q-1.23,4-1.23,5.24c0,2.2,1.52,3.68,3.8,3.68,2.8,0,5.08-1.64,7.44-5.32-.41,1.4-.48,1.96-.48,2.71,0,1.57,1.08,2.65,2.56,2.65,2.44,0,4.39-1.65,7.23-6l-1.2-.72c-1.95,2.92-3.52,4.53-4.39,4.53-.36,0-.72-.46-.72-.97,0-.44,.16-1.2,.47-2.36l3.97-13.28"/><path d="M305.95,209.39c-2.33,3.75-3.33,4.8-4.64,4.8-.64,0-1-.41-1-1.13,0-.51,.2-1.44,.59-2.84l7.12-23.99-7.95,.6-.17,1.43h1.25c1.64,0,2.28,.36,2.28,1.24,0,.4-.12,.92-.36,1.76l-2.64,8.88c-.72-2.08-2.28-3.24-4.61-3.24-5.75,0-11.11,6.16-11.11,12.8,0,3.92,2.51,6.6,6.28,6.6,2.72,0,4.72-1.11,6.47-3.72-.03,.32-.03,.72-.03,.89,0,1.83,.95,2.83,2.72,2.83,2.52,0,4.72-1.96,7-6.19l-1.2-.72m-10-10.69c1.95,0,3.39,1.52,3.39,3.61,0,3.63-2.55,12.11-7.19,12.11-2.16,0-3.56-1.72-3.56-4.31,0-3.8,2.72-11.41,7.36-11.41m33-1.2h-3.48l-1.88,6.4c-1.64,5.57-5.33,10.11-8.16,10.11-.97,0-1.72-.75-1.72-1.71,0-.52,.11-1.16,.44-2.27l3.92-13.13-7.72,.6-.12,1.45h.95c1.64,0,2.25,.36,2.25,1.27,0,.4-.12,.97-.33,1.73l-1.59,5.39q-1.23,4-1.23,5.24c0,2.2,1.52,3.68,3.8,3.68,2.8,0,5.08-1.64,7.44-5.32-.41,1.4-.48,1.96-.48,2.71,0,1.57,1.08,2.65,2.56,2.65,2.44,0,4.39-1.65,7.23-6l-1.2-.72c-1.95,2.92-3.52,4.53-4.39,4.53-.36,0-.72-.46-.72-.97,0-.44,.16-1.2,.47-2.36l3.97-13.28"/><path d="M229.9,198.42c.64-.56,1-.75,1.47-.75,.41,0,.73,.19,1.05,.64,.64,.88,.88,1.03,1.52,1.03,.92,0,1.61-.75,1.61-1.75,0-1.17-1.12-2.09-2.53-2.09s-2.47,.53-4.55,2.17c-1.25-.56-2.17-.77-3.45-.77-4.44,0-8.19,3.16-8.19,6.85,0,1.92,.75,3.23,2.47,4.15-1.83,.24-2.67,.52-3.59,1.32-.8,.64-1.31,1.72-1.31,2.68,0,1.36,.64,2.21,2.19,2.96-2.36,.53-5.11,1.53-5.11,4.44,0,4,5.28,4.48,8.2,4.48,3.95,0,6.23-.48,8.19-1.77,1.72-1.11,2.72-2.82,2.72-4.71,0-4.04-4.28-4.52-7.36-4.72-3.55-.19-3.83-.24-4.39-.36-1-.24-1.48-.72-1.48-1.39,0-.97,.95-1.61,2.41-1.61,.52,0,1.11,.04,1.64,.12,1.64,.24,1.88,.28,2.88,.28,2.23,0,4-.56,5.39-1.68,1.61-1.24,2.61-3.24,2.61-5.08s-.8-3.31-2.36-4.44m-4.61,0c2.09,0,3.41,1.25,3.41,3.2,0,2.88-1.31,6.52-4.72,6.52-2.16,0-3.52-1.36-3.52-3.59,0-3.6,1.95-6.13,4.83-6.13m-4.88,17.16c1.8,0,4.69,.4,5.59,.76,1,.44,1.48,1.13,1.48,2.13,0,2.36-2.52,3.64-7.11,3.64-3.89,0-5.69-.97-5.69-3.1s2.08-3.43,5.72-3.43m35.56-18.08h-3.48l-1.88,6.4c-1.64,5.57-5.33,10.11-8.16,10.11-.97,0-1.72-.75-1.72-1.71,0-.52,.11-1.16,.44-2.27l3.92-13.13-7.72,.6-.12,1.45h.95c1.64,0,2.25,.36,2.25,1.27,0,.4-.12,.97-.33,1.73l-1.59,5.39q-1.23,4-1.23,5.24c0,2.2,1.52,3.68,3.8,3.68,2.8,0,5.08-1.64,7.44-5.32-.41,1.4-.48,1.96-.48,2.71,0,1.57,1.08,2.65,2.56,2.65,2.44,0,4.39-1.65,7.23-6l-1.2-.72c-1.95,2.92-3.52,4.53-4.39,4.53-.36,0-.72-.46-.72-.97,0-.44,.16-1.2,.47-2.36l3.97-13.28"/><path d="M158,209.39c-2.33,3.75-3.33,4.8-4.64,4.8-.64,0-1-.41-1-1.13,0-.51,.2-1.44,.59-2.84l7.12-23.99-7.95,.6-.17,1.43h1.25c1.64,0,2.28,.36,2.28,1.24,0,.4-.12,.92-.36,1.76l-2.64,8.88c-.72-2.08-2.28-3.24-4.61-3.24-5.75,0-11.11,6.16-11.11,12.8,0,3.92,2.51,6.6,6.28,6.6,2.72,0,4.72-1.11,6.47-3.72-.03,.32-.03,.72-.03,.89,0,1.83,.95,2.83,2.72,2.83,2.52,0,4.72-1.96,7-6.19l-1.2-.72m-10-10.69c1.95,0,3.39,1.52,3.39,3.61,0,3.63-2.55,12.11-7.19,12.11-2.16,0-3.56-1.72-3.56-4.31,0-3.8,2.72-11.41,7.36-11.41m33-1.2h-3.48l-1.88,6.4c-1.64,5.57-5.33,10.11-8.16,10.11-.97,0-1.72-.75-1.72-1.71,0-.52,.11-1.16,.44-2.27l3.92-13.13-7.72,.6-.12,1.45h.95c1.64,0,2.25,.36,2.25,1.27,0,.4-.12,.97-.33,1.73l-1.59,5.39q-1.24,4-1.24,5.24c0,2.2,1.52,3.68,3.8,3.68,2.8,0,5.08-1.64,7.44-5.32-.41,1.4-.49,1.96-.49,2.71,0,1.57,1.08,2.65,2.56,2.65,2.44,0,4.39-1.65,7.23-6l-1.2-.72c-1.95,2.92-3.52,4.53-4.39,4.53-.36,0-.72-.46-.72-.97,0-.44,.16-1.2,.47-2.36l3.97-13.28"/><path d="M765.62,60.71l224.4-6.2v12.4l-224.4,6.2v-12.4" fill-rule="evenodd"/><path d="M765.62,79.31l224.4-6.2v12.4l-224.4,6.2v-12.4" fill-rule="evenodd"/><path d="M173.83,60.71l224.4-6.2v12.4l-224.4,6.2v-12.4" fill-rule="evenodd"/><path d="M173.83,79.31l224.4-6.2v12.4l-224.4,6.2v-12.4" fill-rule="evenodd"/><path d="M469.73,54.51l224.4,6.2v12.4l-224.4-6.2v-12.4" fill-rule="evenodd"/><path d="M469.73,73.11l224.4,6.2v12.4l-224.4-6.2v-12.4" fill-rule="evenodd"/><path d="M1955.26,397.71l188.63,6.2v12.4l-188.63-6.2v-12.4" fill-rule="evenodd"/><path d="M1955.26,416.31l188.63,6.2v12.4l-188.63-6.2v-12.4" fill-rule="evenodd"/><path d="M1707.07,379.11l188.63-6.2v12.4l-188.63,6.2v-12.4" fill-rule="evenodd"/><path d="M1707.07,397.71l188.63-6.2v12.4l-188.63,6.2v-12.4" fill-rule="evenodd"/><path d="M1458.88,397.71l188.62,6.2v12.4l-188.62-6.2v-12.4" fill-rule="evenodd"/><path d="M1458.88,416.31l188.62,6.2v12.4l-188.62-6.2v-12.4" fill-rule="evenodd"/><path d="M1210.69,403.91l188.62-6.2v12.4l-188.62,6.2v-12.4" fill-rule="evenodd"/><path d="M1210.69,422.51l188.62-6.2v12.4l-188.62,6.2v-12.4" fill-rule="evenodd"/><path d="M918.41,397.71l188.62,6.2v12.4l-188.62-6.2v-12.4" fill-rule="evenodd"/><path d="M918.41,416.31l188.62,6.2v12.4l-188.62-6.2v-12.4" fill-rule="evenodd"/><path d="M670.22,428.71l188.62-6.2v12.4l-188.62,6.2v-12.4" fill-rule="evenodd"/><path d="M670.22,447.31l188.62-6.2v12.4l-188.62,6.2v-12.4" fill-rule="evenodd"/><path d="M422.02,372.91l188.62,6.2v12.4l-188.62-6.2v-12.4" fill-rule="evenodd"/><path d="M422.02,391.51l188.62,6.2v12.4l-188.62-6.2v-12.4" fill-rule="evenodd"/><path d="M173.83,403.91l188.62-6.2v12.4l-188.62,6.2v-12.4" fill-rule="evenodd"/><path d="M173.83,422.51l188.62-6.2v12.4l-188.62,6.2v-12.4" fill-rule="evenodd"/><path d="M2281.79,54.51l224.4,6.2v12.4l-224.4-6.2v-12.4" fill-rule="evenodd"/><path d="M2281.79,73.11l224.4,6.2v12.4l-224.4-6.2v-12.4" fill-rule="evenodd"/><path d="M1985.9,60.71l224.4-6.2v12.4l-224.4,6.2v-12.4" fill-rule="evenodd"/><path d="M1985.9,79.31l224.4-6.2v12.4l-224.4,6.2v-12.4" fill-rule="evenodd"/><path d="M1690,29.71l224.41,6.2v12.41l-224.41-6.2v-12.4" fill-rule="evenodd"/><path d="M1690,48.31l224.41,6.2v12.4l-224.41-6.2v-12.4" fill-rule="evenodd"/><path d="M1394.11,35.91l224.4-6.2v12.4l-224.4,6.2v-12.41" fill-rule="evenodd"/><path d="M1394.11,54.51l224.4-6.2v12.4l-224.4,6.2v-12.4" fill-rule="evenodd"/><path d="M1061.51,29.71l224.4,6.2v12.41l-224.4-6.2v-12.4" fill-rule="evenodd"/><path d="M1061.51,48.31l224.4,6.2v12.4l-224.4-6.2v-12.4" fill-rule="evenodd"/></g></svg>