<?xml version="1.0" encoding="UTF-8"?><svg id="b" xmlns="http://www.w3.org/2000/svg" viewBox="0 0 2552.4 200.01"><g id="c"><line y1="51.26" x2="2552.4" y2="51.26" fill="none" stroke="#000" stroke-linejoin="bevel" stroke-width="2.73"/><line y1="76.06" x2="2552.4" y2="76.06" fill="none" stroke="#000" stroke-linejoin="bevel" stroke-width="2.73"/><line y1="100.86" x2="2552.4" y2="100.86" fill="none" stroke="#000" stroke-linejoin="bevel" stroke-width="2.73"/><line y1="125.66" x2="2552.4" y2="125.66" fill="none" stroke="#000" stroke-linejoin="bevel" stroke-width="2.73"/><line y1="150.46" x2="2552.4" y2="150.46" fill="none" stroke="#000" stroke-linejoin="bevel" stroke-width="2.73"/><line x1="2536.53" y1="49.9" x2="2536.53" y2="151.82" fill="none" stroke="#000" stroke-linejoin="bevel" stroke-width="4.46"/><line x1="2550.17" y1="49.9" x2="2550.17" y2="151.82" fill="none" stroke="#000" stroke-linejoin="bevel" stroke-width="4.46"/><line x1="2306.14" y1="49.9" x2="2306.14" y2="151.82" fill="none" stroke="#000" stroke-linejoin="bevel" stroke-width="4.46"/><line x1="797.41" y1="49.9" x2="797.41" y2="151.82" fill="none" stroke="#000" stroke-linejoin="bevel" stroke-width="4.46"/><line x1="1300.32" y1="49.9" x2="1300.32" y2="151.82" fill="none" stroke="#000" stroke-linejoin="bevel" stroke-width="4.46"/><line x1="1803.23" y1="49.9" x2="1803.23" y2="151.82" fill="none" stroke="#000" stroke-linejoin="bevel" stroke-width="4.46"/><line x1="2038.74" y1="134.09" x2="2038.74" y2="45.06" fill="none" stroke="#000" stroke-linejoin="bevel" stroke-width="2.48"/><line x1="2095.42" y1="121.69" x2="2095.42" y2="32.66" fill="none" stroke="#000" stroke-linejoin="bevel" stroke-width="2.48"/><line x1="2152.1" y1="96.89" x2="2152.1" y2="32.66" fill="none" stroke="#000" stroke-linejoin="bevel" stroke-width="2.48"/><line x1="2208.78" y1="109.29" x2="2208.78" y2="32.66" fill="none" stroke="#000" stroke-linejoin="bevel" stroke-width="2.48"/><line x1="2265.47" y1="121.69" x2="2265.47" y2="32.66" fill="none" stroke="#000" stroke-linejoin="bevel" stroke-width="2.48"/><line x1="359.97" y1="134.09" x2="359.97" y2="45.06" fill="none" stroke="#000" stroke-linejoin="bevel" stroke-width="2.48"/><line x1="416.65" y1="121.69" x2="416.65" y2="45.06" fill="none" stroke="#000" stroke-linejoin="bevel" stroke-width="2.48"/><line x1="473.34" y1="109.29" x2="473.34" y2="45.06" fill="none" stroke="#000" stroke-linejoin="bevel" stroke-width="2.48"/><line x1="530.02" y1="134.09" x2="530.02" y2="45.06" fill="none" stroke="#000" stroke-linejoin="bevel" stroke-width="2.48"/><line x1="586.7" y1="121.69" x2="586.7" y2="32.66" fill="none" stroke="#000" stroke-linejoin="bevel" stroke-width="2.48"/><line x1="700.06" y1="96.89" x2="700.06" y2="32.66" fill="none" stroke="#000" stroke-linejoin="bevel" stroke-width="2.48"/><line x1="756.74" y1="121.69" x2="756.74" y2="32.66" fill="none" stroke="#000" stroke-linejoin="bevel" stroke-width="2.48"/><line x1="1868.69" y1="134.09" x2="1868.69" y2="45.06" fill="none" stroke="#000" stroke-linejoin="bevel" stroke-width="2.48"/><line x1="833.13" y1="117.43" x2="833.13" y2="181.46" fill="none" stroke="#000" stroke-linejoin="bevel" stroke-width="2.48"/><line x1="889.81" y1="105.03" x2="889.81" y2="181.46" fill="none" stroke="#000" stroke-linejoin="bevel" stroke-width="2.48"/><line x1="946.49" y1="92.63" x2="946.49" y2="181.46" fill="none" stroke="#000" stroke-linejoin="bevel" stroke-width="2.48"/><line x1="1003.17" y1="117.43" x2="1003.17" y2="181.46" fill="none" stroke="#000" stroke-linejoin="bevel" stroke-width="2.48"/><line x1="1089.61" y1="134.09" x2="1089.61" y2="45.06" fill="none" stroke="#000" stroke-linejoin="bevel" stroke-width="2.48"/><line x1="1146.29" y1="121.69" x2="1146.29" y2="45.06" fill="none" stroke="#000" stroke-linejoin="bevel" stroke-width="2.48"/><line x1="1202.97" y1="109.29" x2="1202.97" y2="45.06" fill="none" stroke="#000" stroke-linejoin="bevel" stroke-width="2.48"/><line x1="1259.65" y1="134.09" x2="1259.65" y2="45.06" fill="none" stroke="#000" stroke-linejoin="bevel" stroke-width="2.48"/><line x1="1365.79" y1="121.69" x2="1365.79" y2="32.66" fill="none" stroke="#000" stroke-linejoin="bevel" stroke-width="2.48"/><line x1="1422.47" y1="109.29" x2="1422.47" y2="32.66" fill="none" stroke="#000" stroke-linejoin="bevel" stroke-width="2.48"/><line x1="1535.83" y1="121.69" x2="1535.83" y2="32.66" fill="none" stroke="#000" stroke-linejoin="bevel" stroke-width="2.48"/><line x1="1592.51" y1="146.49" x2="1592.51" y2="51.26" fill="none" stroke="#000" stroke-linejoin="bevel" stroke-width="2.48"/><line x1="1925.38" y1="109.29" x2="1925.38" y2="45.06" fill="none" stroke="#000" stroke-linejoin="bevel" stroke-width="2.48"/><line x1="1649.2" y1="134.09" x2="1649.2" y2="51.26" fill="none" stroke="#000" stroke-linejoin="bevel" stroke-width="2.48"/><line x1="1705.88" y1="121.69" x2="1705.88" y2="51.26" fill="none" stroke="#000" stroke-linejoin="bevel" stroke-width="2.48"/><line x1="1762.56" y1="146.49" x2="1762.56" y2="51.26" fill="none" stroke="#000" stroke-linejoin="bevel" stroke-width="2.48"/><line x1="643.38" y1="109.29" x2="643.38" y2="32.66" fill="none" stroke="#000" stroke-linejoin="bevel" stroke-width="2.48"/><line x1="1479.15" y1="96.89" x2="1479.15" y2="32.66" fill="none" stroke="#000" stroke-linejoin="bevel" stroke-width="2.48"/><line x1="1982.06" y1="121.69" x2="1982.06" y2="45.06" fill="none" stroke="#000" stroke-linejoin="bevel" stroke-width="2.48"/><path d="M888.57,105.03c0,4.26,3.07,9.02,11.11,9.02,10.31,0,21.13-8.43,21.13-17.16,0-5.86-4.96-9.13-11.11-9.13-9.63,0-21.13,8.14-21.13,17.27"/><path d="M945.25,92.63c0,4.26,3.07,9.02,11.11,9.02,10.31,0,21.13-8.43,21.13-17.16,0-5.86-4.96-9.13-11.11-9.13-9.63,0-21.13,8.14-21.13,17.27"/><path d="M1001.93,117.43c0,4.26,3.07,9.02,11.11,9.02,10.31,0,21.13-8.43,21.13-17.16,0-5.86-4.96-9.13-11.11-9.13-9.63,0-21.13,8.14-21.13,17.27"/><path d="M1058.61,142.23c0,4.26,3.07,9.02,11.11,9.02,10.31,0,21.13-8.43,21.13-17.16,0-5.86-4.96-9.13-11.11-9.13-9.63,0-21.13,8.14-21.13,17.27"/><path d="M1115.29,129.83c0,4.26,3.07,9.02,11.11,9.02,10.31,0,21.13-8.43,21.13-17.16,0-5.86-4.96-9.13-11.11-9.13-9.63,0-21.13,8.14-21.13,17.27"/><path d="M1171.98,117.43c0,4.26,3.07,9.02,11.11,9.02,10.31,0,21.13-8.43,21.13-17.16,0-5.86-4.96-9.13-11.11-9.13-9.63,0-21.13,8.14-21.13,17.27"/><path d="M1228.66,142.23c0,4.26,3.07,9.02,11.11,9.02,10.31,0,21.13-8.43,21.13-17.16,0-5.86-4.96-9.13-11.11-9.13-9.63,0-21.13,8.14-21.13,17.27"/><path d="M1334.79,129.83c0,4.26,3.07,9.02,11.11,9.02,10.31,0,21.13-8.43,21.13-17.16,0-5.86-4.96-9.13-11.11-9.13-9.63,0-21.13,8.14-21.13,17.27"/><path d="M1391.48,117.43c0,4.26,3.07,9.02,11.11,9.02,10.31,0,21.13-8.43,21.13-17.16,0-5.86-4.96-9.13-11.11-9.13-9.63,0-21.13,8.14-21.13,17.27"/><path d="M1448.16,105.03c0,4.26,3.07,9.02,11.11,9.02,10.31,0,21.13-8.43,21.13-17.16,0-5.86-4.96-9.13-11.11-9.13-9.63,0-21.13,8.14-21.13,17.27"/><path d="M1504.84,129.83c0,4.26,3.07,9.02,11.11,9.02,10.31,0,21.13-8.43,21.13-17.16,0-5.86-4.96-9.13-11.11-9.13-9.63,0-21.13,8.14-21.13,17.27"/><path d="M1561.52,154.63c0,4.26,3.07,9.02,11.11,9.02,10.31,0,21.13-8.43,21.13-17.16,0-5.86-4.96-9.13-11.11-9.13-9.63,0-21.13,8.14-21.13,17.27"/><path d="M1618.2,142.23c0,4.26,3.07,9.02,11.11,9.02,10.31,0,21.13-8.43,21.13-17.16,0-5.86-4.96-9.13-11.11-9.13-9.63,0-21.13,8.14-21.13,17.27"/><path d="M1674.88,129.83c0,4.26,3.07,9.02,11.11,9.02,10.31,0,21.13-8.43,21.13-17.16,0-5.86-4.96-9.13-11.11-9.13-9.63,0-21.13,8.14-21.13,17.27"/><path d="M1731.57,154.63c0,4.26,3.07,9.02,11.11,9.02,10.31,0,21.13-8.43,21.13-17.16,0-5.86-4.96-9.13-11.11-9.13-9.63,0-21.13,8.14-21.13,17.27"/><path d="M1837.7,142.23c0,4.26,3.07,9.02,11.11,9.02,10.31,0,21.13-8.43,21.13-17.16,0-5.86-4.96-9.13-11.11-9.13-9.63,0-21.13,8.14-21.13,17.27"/><path d="M1894.38,117.43c0,4.26,3.07,9.02,11.11,9.02,10.31,0,21.13-8.43,21.13-17.16,0-5.86-4.96-9.13-11.11-9.13-9.63,0-21.13,8.14-21.13,17.27"/><path d="M1951.07,129.83c0,4.26,3.07,9.02,11.11,9.02,10.31,0,21.13-8.43,21.13-17.16,0-5.86-4.96-9.13-11.11-9.13-9.63,0-21.13,8.14-21.13,17.27"/><path d="M2007.75,142.23c0,4.26,3.07,9.02,11.11,9.02,10.31,0,21.13-8.43,21.13-17.16,0-5.86-4.96-9.13-11.11-9.13-9.63,0-21.13,8.14-21.13,17.27"/><path d="M2064.43,129.83c0,4.26,3.07,9.02,11.11,9.02,10.31,0,21.13-8.43,21.13-17.16,0-5.86-4.96-9.13-11.11-9.13-9.63,0-21.13,8.14-21.13,17.27"/><path d="M2121.11,105.03c0,4.26,3.07,9.02,11.11,9.02,10.31,0,21.13-8.43,21.13-17.16,0-5.86-4.96-9.13-11.11-9.13-9.63,0-21.13,8.14-21.13,17.27"/><path d="M2177.79,117.43c0,4.26,3.07,9.02,11.11,9.02,10.31,0,21.13-8.43,21.13-17.16,0-5.86-4.96-9.13-11.11-9.13-9.63,0-21.13,8.14-21.13,17.27"/><path d="M2234.47,129.83c0,4.26,3.07,9.02,11.11,9.02,10.31,0,21.13-8.43,21.13-17.16,0-5.86-4.96-9.13-11.11-9.13-9.63,0-21.13,8.14-21.13,17.27"/><path d="M2359.17,124.57c-13.69,0-18.55,6.94-18.55,13.39s4.87,13.39,18.55,13.39,18.45-6.94,18.45-13.39-4.76-13.39-18.45-13.39m.79,23.61c-2.77,0-4.67-.79-5.95-3.27s-3.07-8.93-3.18-11.52c-.2-2.68,.79-4.26,3.18-5.05,1.19-.4,2.77-.6,4.37-.6,2.67,0,4.46,.6,5.84,3.29,1.39,2.57,3.29,9.02,3.29,11.5,0,4.87-3.58,5.66-7.55,5.66"/><path d="M328.98,142.23c0,4.26,3.07,9.02,11.11,9.02,10.31,0,21.13-8.43,21.13-17.16,0-5.86-4.96-9.13-11.11-9.13-9.63,0-21.13,8.14-21.13,17.27"/><path d="M385.66,129.83c0,4.26,3.07,9.02,11.11,9.02,10.31,0,21.13-8.43,21.13-17.16,0-5.86-4.96-9.13-11.11-9.13-9.63,0-21.13,8.14-21.13,17.27"/><path d="M442.34,117.43c0,4.26,3.07,9.02,11.11,9.02,10.31,0,21.13-8.43,21.13-17.16,0-5.86-4.96-9.13-11.11-9.13-9.63,0-21.13,8.14-21.13,17.27"/><path d="M499.03,142.23c0,4.26,3.07,9.02,11.11,9.02,10.31,0,21.13-8.43,21.13-17.16,0-5.86-4.96-9.13-11.11-9.13-9.63,0-21.13,8.14-21.13,17.27"/><path d="M555.71,129.83c0,4.26,3.07,9.02,11.11,9.02,10.31,0,21.13-8.43,21.13-17.16,0-5.86-4.96-9.13-11.11-9.13-9.63,0-21.13,8.14-21.13,17.27"/><path d="M612.39,117.43c0,4.26,3.07,9.02,11.11,9.02,10.31,0,21.13-8.43,21.13-17.16,0-5.86-4.96-9.13-11.11-9.13-9.63,0-21.13,8.14-21.13,17.27"/><path d="M669.07,105.03c0,4.26,3.07,9.02,11.11,9.02,10.31,0,21.13-8.43,21.13-17.16,0-5.86-4.96-9.13-11.11-9.13-9.63,0-21.13,8.14-21.13,17.27"/><path d="M725.75,129.83c0,4.26,3.07,9.02,11.11,9.02,10.31,0,21.13-8.43,21.13-17.16,0-5.86-4.96-9.13-11.11-9.13-9.63,0-21.13,8.14-21.13,17.27"/><path d="M831.89,117.43c0,4.26,3.07,9.02,11.11,9.02,10.31,0,21.13-8.43,21.13-17.16,0-5.86-4.96-9.13-11.11-9.13-9.63,0-21.13,8.14-21.13,17.27"/><path d="M30.8,176.55c0,6.56,4.96,15.19,18.35,15.19,4.67,0,8.74-1.19,12.31-3.38,5.36-3.77,6.74-10.32,6.74-16.57,0-3.86-.59-8.32-1.58-13.98-.29-1.98-.9-4.96-1.49-8.84,9.72-3.18,16.96-13.3,16.96-23.51,0-14.97-10.62-25.09-25.09-25.09-.99-5.95-1.98-11.81-2.77-17.36,10.42-11.02,17.65-23.42,17.65-39.18,0-9.04-2.77-16.37-4.37-19.95-2.37-5.05-5.25-8.53-7.04-8.53-.7,0-3.77,1.19-7.04,5.05-6.36,7.55-8.14,20.24-8.14,28.57,0,5.36,.5,10.23,2.19,21.34-.11,.09-5.27,5.35-7.35,7.04-9.04,8.34-21.53,20.43-21.53,40.28,0,18.54,16.17,33.12,34.63,33.12,2.87,0,5.55-.29,7.83-.7,1.89,9.53,3.08,16.48,3.08,21.73,0,10.32-5.36,15.78-15.38,15.78-2.39,0-4.46-.5-4.67-.5-.09-.11-.29-.2-.29-.29,0-.2,.2-.31,.5-.31,4.67-.79,9.32-4.76,9.32-11.1,0-5.36-4.06-11.02-11.5-11.02-6.94,0-11.31,5.66-11.31,12.2M51.54,44.11c.9-3.97,5.46-14.38,10.62-14.38,1.49,0,3.86,4.76,3.86,11.7,0,10.32-7.63,18.06-14.48,24.8-.59-3.97-1.08-7.83-1.08-12,0-3.67,.29-7.05,1.08-10.12m8.73,101.97c-1.98,.4-3.86,.6-5.75,.6-14.18,0-26.29-9.92-26.29-24.91,0-12.09,8.53-22.91,17.27-30.46,1.67-1.49,3.27-2.87,4.76-4.36,.88,5.35,1.58,10.01,2.28,14.09-9.04,2.68-15.17,12.2-15.17,21.53,0,6.94,5.46,16.46,13.39,16.46,.79,0,1.69-.4,1.69-1.29s-.99-1.39-2.19-2.19c-3.88-2.39-6.06-4.96-6.06-9.83,0-6.05,4.57-10.91,10.32-12.29l5.75,32.63m14.09-18.35c0,7.05-2.88,14.29-9.92,17.17-2.08-11.9-4.76-27.68-5.46-32.05,8.93,0,15.38,6.06,15.38,14.88"/><path d="M129.99,40.84c.6-.09,1.1-.79,1.1-1.4v-5.84c0-.99-.7-1.39-1.6-1.39l-3.27,.7v-14.79h-2.77v15.38l-8.83,1.8v-14h-2.77v14.59l-3.88,.79c-.59,.11-1.09,.79-1.09,1.39v5.75c0,1.09,.79,1.4,1.69,1.4l3.27-.7v16.37l-3.88,.79c-.59,.09-1.09,.79-1.09,1.4v5.75c0,1.09,.79,1.38,1.69,1.38l3.27-.68v14.77h2.77v-15.38l8.83-1.78v14h2.77v-14.59l3.77-.7c.6-.11,1.1-.79,1.1-1.39v-5.84c0-.99-.7-1.4-1.6-1.4l-3.27,.7v-16.37l3.77-.7m-15.38,3.07l8.83-1.78v16.37l-8.83,1.89v-16.48"/><path d="M157.16,78.04c.6-.09,1.1-.79,1.1-1.4v-5.84c0-.99-.7-1.39-1.6-1.39l-3.27,.7v-14.79h-2.77v15.38l-8.83,1.8v-14h-2.77v14.59l-3.88,.79c-.59,.11-1.09,.79-1.09,1.39v5.75c0,1.09,.79,1.4,1.69,1.4l3.27-.7v16.37l-3.88,.79c-.59,.09-1.09,.79-1.09,1.4v5.75c0,1.09,.79,1.38,1.69,1.38l3.27-.68v14.77h2.77v-15.38l8.83-1.78v14h2.77v-14.59l3.77-.7c.6-.11,1.1-.79,1.1-1.39v-5.84c0-.99-.7-1.4-1.6-1.4l-3.27,.7v-16.37l3.77-.7m-15.38,3.07l8.83-1.78v16.37l-8.83,1.89v-16.48"/><path d="M184.33,28.44c.6-.09,1.1-.79,1.1-1.4v-5.84c0-.99-.7-1.39-1.6-1.39l-3.27,.7V5.72h-2.77v15.38l-8.83,1.8V8.9h-2.77v14.59l-3.88,.79c-.59,.11-1.09,.79-1.09,1.39v5.75c0,1.09,.79,1.4,1.69,1.4l3.27-.7v16.37l-3.88,.79c-.59,.09-1.09,.79-1.09,1.4v5.75c0,1.09,.79,1.38,1.69,1.38l3.27-.68v14.77h2.77v-15.38l8.83-1.78v14h2.77v-14.59l3.77-.7c.6-.11,1.1-.79,1.1-1.39v-5.84c0-.99-.7-1.4-1.6-1.4l-3.27,.7V29.14l3.77-.7m-15.38,3.07l8.83-1.78v16.37l-8.83,1.89V31.51"/><path d="M211.52,65.64c.6-.09,1.1-.79,1.1-1.4v-5.84c0-.99-.7-1.39-1.6-1.39l-3.27,.7v-14.79h-2.77v15.38l-8.83,1.8v-14h-2.77v14.59l-3.88,.79c-.59,.11-1.09,.79-1.09,1.39v5.75c0,1.09,.79,1.4,1.69,1.4l3.27-.7v16.37l-3.88,.79c-.59,.09-1.09,.79-1.09,1.4v5.75c0,1.09,.79,1.38,1.69,1.38l3.27-.68v14.77h2.77v-15.38l8.83-1.78v14h2.77v-14.59l3.77-.7c.6-.11,1.1-.79,1.1-1.39v-5.84c0-.99-.7-1.4-1.6-1.4l-3.27,.7v-16.37l3.77-.7m-15.38,3.07l8.83-1.78v16.37l-8.83,1.89v-16.48"/><path d="M238.69,102.84c.6-.09,1.1-.79,1.1-1.4v-5.84c0-.99-.7-1.39-1.6-1.39l-3.27,.7v-14.79h-2.77v15.38l-8.83,1.8v-14h-2.77v14.59l-3.88,.79c-.59,.11-1.09,.79-1.09,1.39v5.75c0,1.09,.79,1.4,1.69,1.4l3.27-.7v16.37l-3.88,.79c-.59,.09-1.09,.79-1.09,1.4v5.75c0,1.09,.79,1.38,1.69,1.38l3.27-.68v14.77h2.77v-15.38l8.83-1.78v14h2.77v-14.59l3.77-.7c.6-.11,1.1-.79,1.1-1.39v-5.84c0-.99-.7-1.4-1.6-1.4l-3.27,.7v-16.37l3.77-.7m-15.38,3.07l8.83-1.78v16.37l-8.83,1.89v-16.48"/><path d="M265.88,53.24c.6-.09,1.1-.79,1.1-1.4v-5.84c0-.99-.7-1.39-1.6-1.39l-3.27,.7v-14.79h-2.77v15.38l-8.83,1.8v-14h-2.77v14.59l-3.88,.79c-.59,.11-1.09,.79-1.09,1.39v5.75c0,1.09,.79,1.4,1.69,1.4l3.27-.7v16.37l-3.88,.79c-.59,.09-1.09,.79-1.09,1.4v5.75c0,1.09,.79,1.38,1.69,1.38l3.27-.68v14.77h2.77v-15.38l8.83-1.78v14h2.77v-14.59l3.77-.7c.6-.11,1.1-.79,1.1-1.39v-5.84c0-.99-.7-1.4-1.6-1.4l-3.27,.7v-16.37l3.77-.7m-15.38,3.07l8.83-1.78v16.37l-8.83,1.89v-16.48"/><path d="M2381.83,13.07c-9.32-10.12-17.56-10.71-22.71-10.71s-13.3,.59-22.63,10.71c-4.85,5.36-8.23,15.97-8.23,21.33,0,1.89,.4,3.18,1.4,3.18,2.77,0,1.38-8.54,9.72-16.97,7.33-7.33,17.16-7.44,19.55-7.44h.39c2.39,0,12.21,.11,19.55,7.44,8.34,8.43,6.94,16.97,9.72,16.97,.99,0,1.39-1.19,1.39-3.18,0-5.36-3.27-16.07-8.14-21.33m-29.56,18.94c0,3.78,3.07,6.85,6.85,6.85s6.84-3.07,6.84-6.85-3.07-6.84-6.84-6.84-6.85,3.07-6.85,6.84"/><path d="M832.6,9.77c-4.2,0-7.25,2.56-7.25,6.03,0,1.73,1,3.17,2.77,4.09,.64,.32,1.44,.68,3.13,1.36,2.26,.91,2.82,1.47,2.82,2.88,0,2.15-1.79,3.51-4.56,3.51-2.03,0-3.47-.56-3.47-1.36,0-.2,.11-.43,.28-.59,.75-.8,.83-1,.83-1.72,0-1.12-.87-2-2.03-2-1.33,0-2.33,1.11-2.33,2.67,0,2.8,2.49,4.52,6.53,4.52,4.6,0,7.75-2.52,7.75-6.16,0-1.59-.72-2.95-2-3.82-.87-.61-1.28-.77-3.47-1.57-2.6-.92-3.28-1.56-3.28-3.12,0-1.85,1.75-3.21,4.08-3.21,1.56,0,2.6,.44,2.6,1.08,0,.17-.08,.36-.21,.57-.56,.79-.64,1-.64,1.6,0,1.08,.85,1.83,2.08,1.83,1.36,0,2.28-1,2.28-2.43,0-2.44-2.44-4.16-5.91-4.16m16.75-9.77c-1.2,0-2.15,.97-2.15,2.18s.95,2.15,2.12,2.15c1.24,0,2.19-.97,2.19-2.15s-.95-2.18-2.16-2.18m.72,9.77l-7.67,.59-.15,1.46h.95c1.64,0,2.28,.36,2.28,1.23,0,.39-.08,.84-.36,1.77l-2.33,7.79c-.75,2.55-.87,3.11-.87,4.03,0,1.41,1.2,2.49,2.72,2.49,3.43,0,5.79-3.56,7.48-6.16l-1.25-.69c-2.08,3.16-3.75,4.85-4.83,4.85-.4,0-.69-.36-.69-.85,0-.39,.16-1.12,.49-2.23l4.23-14.28m12.97,0l-7.28,.59-.12,1.46h.96c1.6,0,2.24,.36,2.24,1.26,0,.36-.13,.97-.33,1.74l-4.08,13.75h3.49l1.64-5.64c1.79-6.13,5.44-10.75,8.44-10.75,1.04,0,1.68,.54,1.68,1.54,0,.81-.33,2.49-.81,4l-3.19,10.85h3.47l1.72-5.8c1-3.33,2-5.56,3.28-7.28,1.44-2,3.49-3.31,5-3.31,1,0,1.56,.51,1.56,1.46,0,.57-.2,1.44-.56,2.57l-1.84,5.68c-1.08,3.11-1.11,3.36-1.11,4.47,0,1.69,1.23,2.8,3.11,2.8,1.33,0,2.61-.64,3.97-1.91,.84-.81,1.39-1.53,3.03-3.92l-1.24-.84c-2.07,3.12-3.56,4.64-4.59,4.64-.44,0-.84-.44-.84-1,0-.36,.12-.8,.48-1.97l2.52-7.75c.28-.88,.48-2.13,.48-3,0-2.13-1.56-3.64-3.72-3.64-2.84,0-5.4,1.84-7.72,5.64,.16-.77,.24-1.44,.24-1.92,0-2.13-1.69-3.72-3.88-3.72-2.53,0-4.36,1.41-7.17,5.41l1.17-5.41m29.96,14.44c-1.36,0-2.47,1.12-2.47,2.48s1.11,2.47,2.43,2.47c1.44,0,2.52-1.08,2.52-2.47s-1.13-2.48-2.48-2.48"/><path d="M733.68,174.65c.64-.56,1-.75,1.47-.75,.41,0,.73,.19,1.05,.64,.64,.88,.88,1.04,1.52,1.04,.92,0,1.61-.75,1.61-1.75,0-1.18-1.12-2.1-2.53-2.1s-2.47,.53-4.55,2.17c-1.25-.56-2.17-.76-3.45-.76-4.44,0-8.19,3.15-8.19,6.84,0,1.92,.75,3.24,2.47,4.16-1.83,.23-2.67,.51-3.59,1.31-.8,.64-1.31,1.72-1.31,2.69,0,1.36,.64,2.2,2.19,2.95-2.36,.53-5.11,1.53-5.11,4.44,0,4,5.28,4.48,8.2,4.48,3.95,0,6.24-.48,8.19-1.76,1.72-1.11,2.72-2.83,2.72-4.72,0-4.03-4.28-4.52-7.36-4.72-3.55-.19-3.83-.23-4.39-.36-1-.23-1.49-.72-1.49-1.39,0-.97,.95-1.61,2.41-1.61,.51,0,1.11,.05,1.64,.13,1.64,.23,1.88,.28,2.88,.28,2.24,0,4-.57,5.39-1.69,1.61-1.23,2.61-3.23,2.61-5.08s-.8-3.31-2.36-4.44m-4.61,0c2.09,0,3.41,1.25,3.41,3.21,0,2.87-1.31,6.51-4.72,6.51-2.16,0-3.52-1.36-3.52-3.59,0-3.59,1.95-6.13,4.83-6.13m-4.88,17.16c1.8,0,4.69,.41,5.59,.77,1,.43,1.49,1.12,1.49,2.12,0,2.36-2.52,3.64-7.11,3.64-3.89,0-5.69-.97-5.69-3.09s2.08-3.44,5.72-3.44m35.56-18.08h-3.48l-1.88,6.41c-1.64,5.56-5.33,10.11-8.16,10.11-.97,0-1.72-.75-1.72-1.72,0-.52,.11-1.16,.44-2.27l3.92-13.12-7.72,.59-.12,1.46h.95c1.64,0,2.25,.35,2.25,1.26,0,.41-.12,.97-.33,1.74l-1.59,5.39q-1.23,4-1.23,5.23c0,2.2,1.52,3.69,3.8,3.69,2.8,0,5.08-1.64,7.44-5.33-.41,1.41-.48,1.97-.48,2.72,0,1.56,1.08,2.64,2.56,2.64,2.44,0,4.39-1.64,7.23-6l-1.2-.72c-1.95,2.92-3.52,4.53-4.39,4.53-.36,0-.72-.45-.72-.97,0-.43,.16-1.2,.47-2.36l3.97-13.28"/><path d="M620.32,174.65c.64-.56,1-.75,1.47-.75,.41,0,.73,.19,1.05,.64,.64,.88,.88,1.04,1.52,1.04,.92,0,1.61-.75,1.61-1.75,0-1.18-1.12-2.1-2.53-2.1s-2.47,.53-4.55,2.17c-1.25-.56-2.17-.76-3.45-.76-4.44,0-8.19,3.15-8.19,6.84,0,1.92,.75,3.24,2.47,4.16-1.83,.23-2.67,.51-3.59,1.31-.8,.64-1.31,1.72-1.31,2.69,0,1.36,.64,2.2,2.19,2.95-2.36,.53-5.11,1.53-5.11,4.44,0,4,5.28,4.48,8.2,4.48,3.95,0,6.23-.48,8.19-1.76,1.72-1.11,2.72-2.83,2.72-4.72,0-4.03-4.28-4.52-7.36-4.72-3.55-.19-3.83-.23-4.39-.36-1-.23-1.48-.72-1.48-1.39,0-.97,.95-1.61,2.41-1.61,.52,0,1.11,.05,1.64,.13,1.64,.23,1.88,.28,2.88,.28,2.23,0,4-.57,5.39-1.69,1.61-1.23,2.61-3.23,2.61-5.08s-.8-3.31-2.36-4.44m-4.61,0c2.09,0,3.41,1.25,3.41,3.21,0,2.87-1.31,6.51-4.72,6.51-2.16,0-3.52-1.36-3.52-3.59,0-3.59,1.95-6.13,4.83-6.13m-4.88,17.16c1.8,0,4.69,.41,5.59,.77,1,.43,1.48,1.12,1.48,2.12,0,2.36-2.52,3.64-7.11,3.64-3.89,0-5.69-.97-5.69-3.09s2.08-3.44,5.72-3.44m35.56-18.08h-3.48l-1.88,6.41c-1.64,5.56-5.33,10.11-8.16,10.11-.97,0-1.72-.75-1.72-1.72,0-.52,.11-1.16,.44-2.27l3.92-13.12-7.72,.59-.12,1.46h.95c1.64,0,2.25,.35,2.25,1.26,0,.41-.12,.97-.33,1.74l-1.59,5.39q-1.23,4-1.23,5.23c0,2.2,1.52,3.69,3.8,3.69,2.8,0,5.08-1.64,7.44-5.33-.41,1.41-.48,1.97-.48,2.72,0,1.56,1.08,2.64,2.56,2.64,2.44,0,4.39-1.64,7.23-6l-1.2-.72c-1.95,2.92-3.52,4.53-4.39,4.53-.36,0-.72-.45-.72-.97,0-.43,.16-1.2,.47-2.36l3.97-13.28"/><path d="M565.71,185.62c-2.33,3.75-3.33,4.8-4.64,4.8-.64,0-1-.41-1-1.13,0-.51,.2-1.43,.59-2.84l7.12-23.98-7.95,.59-.17,1.44h1.25c1.64,0,2.28,.36,2.28,1.23,0,.41-.12,.92-.36,1.77l-2.64,8.87c-.72-2.08-2.28-3.23-4.61-3.23-5.75,0-11.11,6.15-11.11,12.8,0,3.92,2.52,6.59,6.28,6.59,2.72,0,4.72-1.11,6.47-3.72-.03,.33-.03,.72-.03,.89,0,1.83,.95,2.83,2.72,2.83,2.52,0,4.72-1.95,7-6.19l-1.2-.72m-10-10.68c1.95,0,3.39,1.51,3.39,3.6,0,3.63-2.55,12.11-7.19,12.11-2.16,0-3.56-1.71-3.56-4.31,0-3.8,2.72-11.4,7.36-11.4m33-1.21h-3.48l-1.88,6.41c-1.64,5.56-5.33,10.11-8.16,10.11-.97,0-1.72-.75-1.72-1.72,0-.52,.11-1.16,.44-2.27l3.92-13.12-7.72,.59-.12,1.46h.95c1.64,0,2.25,.35,2.25,1.26,0,.41-.12,.97-.33,1.74l-1.59,5.39q-1.23,4-1.23,5.23c0,2.2,1.52,3.69,3.8,3.69,2.8,0,5.08-1.64,7.44-5.33-.41,1.41-.48,1.97-.48,2.72,0,1.56,1.08,2.64,2.56,2.64,2.44,0,4.39-1.64,7.23-6l-1.2-.72c-1.95,2.92-3.52,4.53-4.39,4.53-.36,0-.72-.45-.72-.97,0-.43,.16-1.2,.47-2.36l3.97-13.28"/><path d="M506.95,174.65c.64-.56,1-.75,1.47-.75,.41,0,.73,.19,1.05,.64,.64,.88,.88,1.04,1.52,1.04,.92,0,1.61-.75,1.61-1.75,0-1.18-1.12-2.1-2.53-2.1s-2.47,.53-4.55,2.17c-1.25-.56-2.17-.76-3.45-.76-4.44,0-8.19,3.15-8.19,6.84,0,1.92,.75,3.24,2.47,4.16-1.83,.23-2.67,.51-3.59,1.31-.8,.64-1.31,1.72-1.31,2.69,0,1.36,.64,2.2,2.19,2.95-2.36,.53-5.11,1.53-5.11,4.44,0,4,5.28,4.48,8.2,4.48,3.95,0,6.23-.48,8.19-1.76,1.72-1.11,2.72-2.83,2.72-4.72,0-4.03-4.28-4.52-7.36-4.72-3.55-.19-3.83-.23-4.39-.36-1-.23-1.48-.72-1.48-1.39,0-.97,.95-1.61,2.41-1.61,.52,0,1.11,.05,1.64,.13,1.64,.23,1.88,.28,2.88,.28,2.23,0,4-.57,5.39-1.69,1.61-1.23,2.61-3.23,2.61-5.08s-.8-3.31-2.36-4.44m-4.61,0c2.09,0,3.41,1.25,3.41,3.21,0,2.87-1.31,6.51-4.72,6.51-2.16,0-3.51-1.36-3.51-3.59,0-3.59,1.95-6.13,4.83-6.13m-4.88,17.16c1.8,0,4.69,.41,5.59,.77,1,.43,1.48,1.12,1.48,2.12,0,2.36-2.52,3.64-7.11,3.64-3.89,0-5.69-.97-5.69-3.09s2.08-3.44,5.72-3.44m35.56-18.08h-3.48l-1.88,6.41c-1.64,5.56-5.33,10.11-8.16,10.11-.97,0-1.72-.75-1.72-1.72,0-.52,.11-1.16,.44-2.27l3.92-13.12-7.72,.59-.12,1.46h.95c1.64,0,2.25,.35,2.25,1.26,0,.41-.12,.97-.33,1.74l-1.59,5.39q-1.23,4-1.23,5.23c0,2.2,1.52,3.69,3.8,3.69,2.8,0,5.08-1.64,7.44-5.33-.41,1.41-.48,1.97-.48,2.72,0,1.56,1.08,2.64,2.56,2.64,2.44,0,4.39-1.64,7.23-6l-1.2-.72c-1.95,2.92-3.52,4.53-4.39,4.53-.36,0-.72-.45-.72-.97,0-.43,.16-1.2,.47-2.36l3.97-13.28"/><path d="M452.35,185.62c-2.33,3.75-3.33,4.8-4.64,4.8-.64,0-1-.41-1-1.13,0-.51,.2-1.43,.59-2.84l7.12-23.98-7.95,.59-.17,1.44h1.25c1.64,0,2.28,.36,2.28,1.23,0,.41-.12,.92-.36,1.77l-2.64,8.87c-.72-2.08-2.28-3.23-4.61-3.23-5.75,0-11.11,6.15-11.11,12.8,0,3.92,2.52,6.59,6.28,6.59,2.72,0,4.72-1.11,6.47-3.72-.03,.33-.03,.72-.03,.89,0,1.83,.95,2.83,2.72,2.83,2.52,0,4.72-1.95,7-6.19l-1.2-.72m-10-10.68c1.95,0,3.39,1.51,3.39,3.6,0,3.63-2.55,12.11-7.19,12.11-2.16,0-3.56-1.71-3.56-4.31,0-3.8,2.72-11.4,7.36-11.4m33-1.21h-3.48l-1.88,6.41c-1.64,5.56-5.33,10.11-8.16,10.11-.97,0-1.72-.75-1.72-1.72,0-.52,.11-1.16,.44-2.27l3.92-13.12-7.72,.59-.12,1.46h.95c1.64,0,2.25,.35,2.25,1.26,0,.41-.12,.97-.33,1.74l-1.59,5.39q-1.23,4-1.23,5.23c0,2.2,1.52,3.69,3.8,3.69,2.8,0,5.08-1.64,7.44-5.33-.41,1.41-.48,1.97-.48,2.72,0,1.56,1.08,2.64,2.56,2.64,2.44,0,4.39-1.64,7.23-6l-1.2-.72c-1.95,2.92-3.51,4.53-4.39,4.53-.36,0-.72-.45-.72-.97,0-.43,.16-1.2,.47-2.36l3.97-13.28"/><path d="M679.08,185.62c-2.33,3.75-3.33,4.8-4.64,4.8-.64,0-1-.41-1-1.13,0-.51,.2-1.43,.59-2.84l7.12-23.98-7.95,.59-.17,1.44h1.25c1.64,0,2.28,.36,2.28,1.23,0,.41-.12,.92-.36,1.77l-2.64,8.87c-.72-2.08-2.28-3.23-4.61-3.23-5.75,0-11.11,6.15-11.11,12.8,0,3.92,2.51,6.59,6.28,6.59,2.72,0,4.72-1.11,6.47-3.72-.03,.33-.03,.72-.03,.89,0,1.83,.95,2.83,2.72,2.83,2.52,0,4.72-1.95,7-6.19l-1.2-.72m-10-10.68c1.95,0,3.39,1.51,3.39,3.6,0,3.63-2.55,12.11-7.19,12.11-2.16,0-3.56-1.71-3.56-4.31,0-3.8,2.72-11.4,7.36-11.4m33-1.21h-3.48l-1.88,6.41c-1.64,5.56-5.33,10.11-8.16,10.11-.97,0-1.72-.75-1.72-1.72,0-.52,.11-1.16,.44-2.27l3.92-13.12-7.72,.59-.12,1.46h.95c1.64,0,2.25,.35,2.25,1.26,0,.41-.12,.97-.33,1.74l-1.59,5.39q-1.23,4-1.23,5.23c0,2.2,1.52,3.69,3.8,3.69,2.8,0,5.08-1.64,7.44-5.33-.41,1.41-.48,1.97-.48,2.72,0,1.56,1.08,2.64,2.56,2.64,2.44,0,4.39-1.64,7.23-6l-1.2-.72c-1.95,2.92-3.52,4.53-4.39,4.53-.36,0-.72-.45-.72-.97,0-.43,.16-1.2,.47-2.36l3.97-13.28"/><path d="M393.59,174.65c.64-.56,1-.75,1.47-.75,.41,0,.73,.19,1.05,.64,.64,.88,.88,1.04,1.52,1.04,.92,0,1.61-.75,1.61-1.75,0-1.18-1.12-2.1-2.53-2.1s-2.47,.53-4.55,2.17c-1.25-.56-2.17-.76-3.45-.76-4.44,0-8.19,3.15-8.19,6.84,0,1.92,.75,3.24,2.47,4.16-1.83,.23-2.67,.51-3.59,1.31-.8,.64-1.31,1.72-1.31,2.69,0,1.36,.64,2.2,2.19,2.95-2.36,.53-5.11,1.53-5.11,4.44,0,4,5.28,4.48,8.2,4.48,3.95,0,6.23-.48,8.19-1.76,1.72-1.11,2.72-2.83,2.72-4.72,0-4.03-4.28-4.52-7.36-4.72-3.55-.19-3.83-.23-4.39-.36-1-.23-1.48-.72-1.48-1.39,0-.97,.95-1.61,2.41-1.61,.52,0,1.11,.05,1.64,.13,1.64,.23,1.88,.28,2.88,.28,2.23,0,4-.57,5.39-1.69,1.61-1.23,2.61-3.23,2.61-5.08s-.8-3.31-2.36-4.44m-4.61,0c2.09,0,3.41,1.25,3.41,3.21,0,2.87-1.31,6.51-4.72,6.51-2.16,0-3.52-1.36-3.52-3.59,0-3.59,1.95-6.13,4.83-6.13m-4.88,17.16c1.8,0,4.69,.41,5.59,.77,1,.43,1.48,1.12,1.48,2.12,0,2.36-2.52,3.64-7.11,3.64-3.89,0-5.69-.97-5.69-3.09s2.08-3.44,5.72-3.44m35.56-18.08h-3.48l-1.88,6.41c-1.64,5.56-5.33,10.11-8.16,10.11-.97,0-1.72-.75-1.72-1.72,0-.52,.11-1.16,.44-2.27l3.92-13.12-7.72,.59-.12,1.46h.95c1.64,0,2.25,.35,2.25,1.26,0,.41-.12,.97-.33,1.74l-1.59,5.39q-1.23,4-1.23,5.23c0,2.2,1.52,3.69,3.8,3.69,2.8,0,5.08-1.64,7.44-5.33-.41,1.41-.48,1.97-.48,2.72,0,1.56,1.08,2.64,2.56,2.64,2.44,0,4.39-1.64,7.23-6l-1.2-.72c-1.95,2.92-3.52,4.53-4.39,4.53-.36,0-.72-.45-.72-.97,0-.43,.16-1.2,.47-2.36l3.97-13.28"/><path d="M338.99,185.62c-2.33,3.75-3.33,4.8-4.64,4.8-.64,0-1-.41-1-1.13,0-.51,.2-1.43,.59-2.84l7.12-23.98-7.95,.59-.17,1.44h1.25c1.64,0,2.28,.36,2.28,1.23,0,.41-.12,.92-.36,1.77l-2.64,8.87c-.72-2.08-2.28-3.23-4.61-3.23-5.75,0-11.11,6.15-11.11,12.8,0,3.92,2.52,6.59,6.28,6.59,2.72,0,4.72-1.11,6.47-3.72-.03,.33-.03,.72-.03,.89,0,1.83,.95,2.83,2.72,2.83,2.52,0,4.72-1.95,7-6.19l-1.2-.72m-10-10.68c1.95,0,3.39,1.51,3.39,3.6,0,3.63-2.55,12.11-7.19,12.11-2.16,0-3.56-1.71-3.56-4.31,0-3.8,2.72-11.4,7.36-11.4m33-1.21h-3.48l-1.88,6.41c-1.64,5.56-5.33,10.11-8.16,10.11-.97,0-1.72-.75-1.72-1.72,0-.52,.11-1.16,.44-2.27l3.92-13.12-7.72,.59-.12,1.46h.95c1.64,0,2.25,.35,2.25,1.26,0,.41-.12,.97-.33,1.74l-1.59,5.39q-1.23,4-1.23,5.23c0,2.2,1.52,3.69,3.8,3.69,2.8,0,5.08-1.64,7.44-5.33-.41,1.41-.48,1.97-.48,2.72,0,1.56,1.08,2.64,2.56,2.64,2.44,0,4.39-1.64,7.23-6l-1.2-.72c-1.95,2.92-3.52,4.53-4.39,4.53-.36,0-.72-.45-.72-.97,0-.43,.16-1.2,.47-2.36l3.97-13.28"/><path d="M831.89,175.26h172.52v12.4h-172.52v-12.4" fill-rule="evenodd"/><path d="M585.46,26.46h172.52v12.4h-172.52v-12.4" fill-rule="evenodd"/><path d="M358.73,38.86h172.53v12.4h-172.53v-12.4" fill-rule="evenodd"/><path d="M2094.18,26.46h172.53v12.4h-172.53v-12.4" fill-rule="evenodd"/><path d="M1088.37,38.86h172.52v12.4h-172.52v-12.4" fill-rule="evenodd"/><path d="M1364.55,26.46h172.52v12.4h-172.52v-12.4" fill-rule="evenodd"/><path d="M1591.27,45.06h172.53v12.4h-172.53v-12.4" fill-rule="evenodd"/><path d="M1867.45,38.86h172.53v12.4h-172.53v-12.4" fill-rule="evenodd"/></g></svg>