<?xml version="1.0" encoding="UTF-8"?><svg id="Ebene_2" xmlns="http://www.w3.org/2000/svg" viewBox="0 0 1477.4 176.39"><g id="Ebene_2-2"><line y1="35.91" x2="1463.36" y2="35.91" fill="none" isolation="isolate" opacity=".25" stroke="#000" stroke-linejoin="bevel" stroke-width="2.73"/><line y1="60.71" x2="1463.36" y2="60.71" fill="none" isolation="isolate" opacity=".25" stroke="#000" stroke-linejoin="bevel" stroke-width="2.73"/><line y1="85.51" x2="1463.36" y2="85.51" fill="none" isolation="isolate" opacity=".25" stroke="#000" stroke-linejoin="bevel" stroke-width="2.73"/><line y1="110.31" x2="1463.36" y2="110.31" fill="none" isolation="isolate" opacity=".25" stroke="#000" stroke-linejoin="bevel" stroke-width="2.73"/><line y1="135.11" x2="1463.36" y2="135.11" fill="none" isolation="isolate" opacity=".25" stroke="#000" stroke-linejoin="bevel" stroke-width="2.73"/><path d="M21.95,161.2c0,6.56,4.96,15.19,18.35,15.19,4.67,0,8.74-1.19,12.31-3.38,5.36-3.77,6.74-10.32,6.74-16.57,0-3.86-.59-8.32-1.58-13.98-.29-1.98-.9-4.96-1.49-8.84,9.72-3.18,16.96-13.3,16.96-23.51,0-14.97-10.62-25.09-25.09-25.09-.99-5.95-1.98-11.81-2.77-17.36,10.42-11.02,17.65-23.42,17.65-39.18,0-9.04-2.77-16.37-4.37-19.95-2.37-5.05-5.25-8.53-7.04-8.53-.7,0-3.77,1.19-7.04,5.05-6.36,7.55-8.14,20.24-8.14,28.57,0,5.36,.5,10.23,2.19,21.34-.11,.09-5.27,5.35-7.35,7.04-9.04,8.34-21.53,20.43-21.53,40.28,0,18.54,16.17,33.12,34.63,33.12,2.87,0,5.55-.29,7.83-.7,1.89,9.53,3.08,16.48,3.08,21.73,0,10.32-5.36,15.78-15.38,15.78-2.39,0-4.46-.5-4.67-.5-.09-.11-.29-.2-.29-.29,0-.2,.2-.31,.5-.31,4.67-.79,9.32-4.76,9.32-11.1,0-5.36-4.06-11.02-11.5-11.02-6.94,0-11.31,5.66-11.31,12.2M42.69,28.77c.9-3.97,5.46-14.38,10.62-14.38,1.49,0,3.86,4.76,3.86,11.7,0,10.32-7.63,18.06-14.48,24.8-.59-3.97-1.08-7.83-1.08-12,0-3.67,.29-7.05,1.08-10.12m8.73,101.97c-1.98,.4-3.86,.6-5.75,.6-14.18,0-26.29-9.92-26.29-24.91,0-12.09,8.53-22.91,17.27-30.46,1.67-1.49,3.27-2.87,4.76-4.36,.88,5.35,1.58,10.01,2.28,14.09-9.04,2.68-15.17,12.2-15.17,21.53,0,6.94,5.46,16.46,13.39,16.46,.79,0,1.69-.4,1.69-1.29s-.99-1.39-2.19-2.19c-3.88-2.39-6.06-4.96-6.06-9.83,0-6.04,4.57-10.91,10.32-12.29l5.75,32.63m14.09-18.35c0,7.05-2.88,14.29-9.92,17.17-2.08-11.9-4.76-27.68-5.46-32.05,8.93,0,15.38,6.06,15.38,14.88"/><g><path d="M117.57,66.71c0,.99-.18,1.87-.55,2.64s-.88,1.43-1.56,1.96c-.67,.53-1.48,.93-2.41,1.2s-1.96,.41-3.07,.41c-.69,0-1.34-.05-1.97-.16s-1.18-.24-1.68-.41-.91-.34-1.26-.52c-.34-.18-.59-.34-.75-.48-.16-.14-.27-.34-.34-.6s-.11-.61-.11-1.05c0-.27,.01-.5,.04-.69s.06-.34,.11-.45c.04-.11,.1-.2,.18-.25s.17-.08,.27-.08c.16,0,.39,.1,.7,.29s.69,.4,1.14,.63c.45,.23,.98,.44,1.6,.63,.62,.19,1.32,.29,2.13,.29,.6,0,1.15-.06,1.63-.19,.49-.13,.91-.32,1.27-.57,.36-.25,.63-.57,.83-.96s.29-.84,.29-1.38-.14-1-.42-1.38c-.28-.37-.65-.7-1.11-.99s-.97-.54-1.55-.76c-.57-.22-1.16-.45-1.77-.7-.61-.24-1.2-.52-1.78-.83-.58-.31-1.1-.68-1.56-1.13-.46-.44-.83-.97-1.11-1.59-.28-.62-.42-1.35-.42-2.21,0-.76,.15-1.49,.44-2.18s.73-1.3,1.32-1.83c.59-.52,1.32-.94,2.2-1.26,.88-.31,1.91-.47,3.08-.47,.52,0,1.03,.04,1.55,.13s.98,.19,1.4,.32,.77,.27,1.06,.42c.29,.15,.52,.28,.67,.4,.15,.11,.25,.21,.3,.3s.09,.18,.11,.29,.04,.24,.06,.4,.03,.35,.03,.58-.01,.46-.03,.63c-.02,.18-.06,.33-.11,.44-.05,.11-.11,.2-.18,.25s-.15,.08-.24,.08c-.13,0-.32-.08-.56-.24s-.56-.33-.95-.5c-.39-.18-.84-.35-1.36-.5-.52-.16-1.12-.24-1.79-.24-.6,0-1.13,.07-1.59,.2-.46,.14-.83,.33-1.13,.58-.29,.25-.52,.55-.67,.89s-.23,.72-.23,1.12c0,.56,.14,1.03,.43,1.41s.66,.71,1.12,1,.98,.54,1.57,.77c.59,.23,1.19,.47,1.79,.71,.61,.24,1.21,.52,1.8,.82,.59,.3,1.12,.67,1.58,1.1s.83,.95,1.11,1.55,.42,1.32,.42,2.15h.03Z"/><path d="M132.2,70.56c0,.42-.03,.75-.09,.99s-.14,.42-.26,.54-.29,.22-.52,.32c-.23,.1-.49,.18-.78,.25-.29,.06-.61,.12-.93,.16-.33,.04-.66,.06-.99,.06-1,0-1.86-.13-2.58-.4-.72-.26-1.3-.67-1.76-1.2-.46-.54-.79-1.22-1-2.04s-.31-1.79-.31-2.91v-11.3h-2.71c-.21,0-.39-.11-.52-.34s-.19-.6-.19-1.12c0-.27,.02-.5,.05-.69,.04-.19,.08-.34,.14-.46s.13-.21,.23-.26c.09-.05,.2-.08,.31-.08h2.69v-4.6c0-.1,.02-.19,.08-.28,.05-.09,.14-.16,.28-.23,.14-.06,.32-.11,.55-.14s.52-.04,.86-.04,.65,0,.88,.04c.23,.03,.41,.08,.54,.14s.22,.14,.28,.23,.09,.18,.09,.28v4.6h4.96c.11,0,.21,.03,.3,.08,.09,.05,.16,.14,.23,.26,.06,.12,.11,.28,.14,.46,.03,.19,.04,.42,.04,.69,0,.52-.06,.89-.19,1.12s-.3,.34-.52,.34h-4.96v10.79c0,1.33,.2,2.34,.59,3.02s1.1,1.02,2.12,1.02c.33,0,.62-.03,.88-.1s.49-.13,.69-.2,.37-.14,.52-.2c.14-.06,.27-.1,.39-.1,.07,0,.14,.02,.2,.05,.06,.04,.11,.1,.15,.2s.07,.24,.1,.41c.03,.17,.04,.39,.04,.64h-.02Z"/><path d="M150.92,72c0,.17-.06,.3-.17,.39s-.27,.15-.47,.19-.49,.06-.88,.06-.67-.02-.89-.06-.38-.11-.48-.19c-.1-.09-.15-.21-.15-.39v-1.93c-.85,.9-1.79,1.6-2.83,2.11-1.04,.5-2.14,.75-3.3,.75-1.02,0-1.94-.13-2.76-.4-.82-.26-1.53-.65-2.11-1.15s-1.03-1.12-1.35-1.85-.48-1.56-.48-2.49c0-1.09,.22-2.03,.67-2.84,.44-.8,1.08-1.47,1.91-2s1.85-.93,3.05-1.19,2.56-.4,4.06-.4h2.66v-1.5c0-.74-.08-1.4-.24-1.98-.16-.57-.41-1.05-.76-1.43-.35-.38-.81-.67-1.36-.86s-1.25-.29-2.06-.29c-.87,0-1.66,.1-2.35,.31-.69,.21-1.3,.44-1.83,.69-.52,.25-.96,.48-1.31,.69-.35,.21-.61,.31-.78,.31-.11,0-.21-.03-.3-.09s-.16-.14-.23-.26c-.06-.11-.11-.26-.14-.44s-.04-.38-.04-.59c0-.36,.02-.64,.08-.85,.05-.21,.17-.4,.37-.59,.19-.19,.53-.4,1-.66,.47-.25,1.02-.48,1.63-.69,.62-.21,1.29-.38,2.02-.52,.73-.14,1.47-.2,2.21-.2,1.39,0,2.57,.16,3.54,.47,.97,.32,1.76,.78,2.36,1.39s1.04,1.36,1.31,2.27c.27,.9,.41,1.96,.41,3.16v13.04h-.01Zm-3.52-8.82h-3.03c-.97,0-1.82,.08-2.54,.25-.72,.17-1.31,.41-1.78,.73s-.82,.71-1.04,1.16c-.22,.45-.33,.97-.33,1.56,0,1,.32,1.8,.96,2.4,.64,.59,1.53,.89,2.67,.89,.93,0,1.79-.24,2.59-.71s1.63-1.2,2.5-2.17v-4.1h0Z"/><path d="M168.73,53.91c0,.32,0,.58-.02,.79,0,.21-.04,.38-.09,.5-.04,.12-.1,.21-.16,.28s-.15,.1-.27,.1-.25-.03-.42-.1c-.17-.06-.35-.13-.56-.19-.21-.06-.44-.12-.7-.18s-.54-.09-.84-.09c-.36,0-.71,.07-1.05,.21s-.71,.38-1.08,.71c-.38,.33-.78,.77-1.19,1.31-.42,.54-.87,1.21-1.38,2v12.72c0,.11-.03,.21-.09,.29s-.15,.15-.28,.2-.31,.1-.54,.13-.52,.04-.88,.04-.63-.01-.86-.04-.41-.07-.55-.13-.23-.12-.28-.2c-.05-.08-.08-.18-.08-.29v-19.34c0-.11,.02-.21,.06-.29s.13-.15,.26-.21,.29-.11,.49-.13c.2-.02,.47-.03,.79-.03s.58,0,.78,.03c.21,.02,.37,.06,.48,.13,.11,.06,.2,.14,.25,.21,.05,.08,.08,.18,.08,.29v2.81c.53-.77,1.03-1.4,1.49-1.89,.47-.49,.91-.87,1.32-1.15,.42-.28,.83-.47,1.24-.58s.82-.16,1.24-.16c.19,0,.4,0,.63,.03s.48,.06,.74,.12c.26,.06,.49,.12,.7,.19,.21,.07,.35,.14,.44,.21s.14,.14,.17,.2,.05,.15,.08,.25c.02,.1,.04,.25,.04,.44s0,.46,0,.78l.03,.03Z"/><path d="M188.64,71.95c0,.11-.03,.21-.09,.3-.06,.09-.15,.16-.29,.21-.14,.06-.33,.1-.57,.13s-.55,.04-.92,.04-.71-.01-.96-.03-.46-.06-.63-.11-.31-.12-.42-.21-.2-.2-.29-.33l-8.16-10.7v10.72c0,.11-.03,.21-.09,.29s-.15,.15-.28,.2-.31,.1-.54,.13-.52,.04-.88,.04-.63-.01-.86-.04-.41-.07-.55-.13-.23-.12-.28-.2c-.05-.08-.08-.18-.08-.29v-28.7c0-.11,.02-.21,.08-.3,.05-.09,.14-.16,.28-.21,.14-.06,.32-.1,.55-.13,.23-.03,.52-.04,.86-.04s.65,0,.88,.04c.23,.03,.41,.07,.54,.13,.13,.06,.22,.13,.28,.21,.06,.09,.09,.19,.09,.3v17.49l7.3-8.04c.11-.14,.24-.26,.37-.35,.13-.09,.28-.17,.46-.24,.18-.06,.39-.11,.63-.13s.54-.03,.88-.03,.66,0,.9,.03c.24,.02,.44,.06,.59,.11s.26,.11,.32,.19c.06,.08,.1,.18,.1,.31,0,.17-.05,.34-.14,.52-.09,.17-.25,.37-.46,.6l-7,7,7.86,10.21c.19,.24,.32,.44,.4,.59,.08,.15,.12,.29,.12,.42Z"/><path d="M219.22,61.47c0,.56-.14,.96-.42,1.19s-.6,.35-.96,.35h-12.73c0,1.07,.11,2.04,.32,2.9s.58,1.6,1.08,2.21c.5,.62,1.16,1.09,1.96,1.42,.81,.33,1.79,.49,2.96,.49,.92,0,1.74-.08,2.46-.23s1.34-.32,1.87-.5c.53-.19,.96-.35,1.3-.5s.59-.23,.77-.23c.1,0,.19,.03,.27,.08s.14,.13,.18,.23c.04,.1,.08,.24,.1,.42s.03,.4,.03,.66c0,.19,0,.35-.02,.48,0,.14-.03,.26-.05,.37s-.06,.2-.11,.29c-.05,.09-.11,.17-.19,.25s-.31,.21-.7,.39-.89,.35-1.5,.53c-.62,.17-1.33,.33-2.14,.46-.81,.14-1.67,.2-2.59,.2-1.59,0-2.98-.22-4.18-.67-1.2-.44-2.2-1.1-3.02-1.98-.82-.87-1.43-1.97-1.85-3.29-.42-1.32-.62-2.85-.62-4.6s.21-3.15,.64-4.48c.43-1.32,1.05-2.45,1.86-3.37s1.79-1.63,2.93-2.13c1.15-.49,2.43-.74,3.85-.74,1.52,0,2.81,.24,3.88,.73,1.07,.49,1.94,1.14,2.63,1.97,.69,.82,1.19,1.79,1.51,2.9,.32,1.11,.48,2.3,.48,3.56v.64h0Zm-3.57-1.05c.04-1.86-.37-3.32-1.24-4.38-.87-1.06-2.17-1.59-3.88-1.59-.88,0-1.65,.17-2.31,.49-.66,.33-1.22,.77-1.66,1.31-.45,.54-.79,1.18-1.04,1.9s-.38,1.48-.41,2.27h10.54Z"/><path d="M228.56,46.11c0,.83-.16,1.4-.47,1.7-.32,.3-.9,.45-1.74,.45s-1.4-.15-1.71-.44c-.31-.29-.46-.85-.46-1.67s.16-1.4,.47-1.7,.9-.45,1.74-.45,1.4,.15,1.71,.44c.31,.29,.46,.85,.46,1.67Zm-.41,25.87c0,.11-.03,.21-.09,.29s-.15,.15-.28,.2-.31,.1-.54,.13-.52,.04-.88,.04-.63-.01-.86-.04-.41-.07-.55-.13-.23-.12-.28-.2c-.05-.08-.08-.18-.08-.29v-19.34c0-.1,.02-.19,.08-.28,.05-.09,.14-.16,.28-.21,.14-.06,.32-.1,.55-.13,.23-.03,.52-.04,.86-.04s.65,0,.88,.04c.23,.03,.41,.07,.54,.13,.13,.06,.22,.13,.28,.21,.06,.09,.09,.18,.09,.28v19.34Z"/><path d="M251.36,71.98c0,.11-.03,.21-.09,.29s-.15,.15-.28,.2-.31,.1-.54,.13-.52,.04-.86,.04-.65-.01-.88-.04c-.23-.03-.41-.07-.54-.13s-.22-.12-.28-.2c-.06-.08-.09-.18-.09-.29v-11.32c0-1.1-.09-1.99-.26-2.66s-.42-1.25-.75-1.74-.76-.86-1.28-1.12-1.13-.39-1.82-.39c-.89,0-1.78,.32-2.66,.95-.89,.63-1.82,1.55-2.79,2.77v13.51c0,.11-.03,.21-.09,.29s-.15,.15-.28,.2-.31,.1-.54,.13-.52,.04-.88,.04-.63-.01-.86-.04-.41-.07-.55-.13-.23-.12-.28-.2c-.05-.08-.08-.18-.08-.29v-19.34c0-.11,.02-.21,.06-.29s.13-.15,.26-.21,.29-.11,.49-.13c.2-.02,.47-.03,.79-.03s.58,0,.78,.03c.21,.02,.37,.06,.48,.13,.11,.06,.2,.14,.25,.21,.05,.08,.08,.18,.08,.29v2.56c1.09-1.22,2.17-2.11,3.25-2.67,1.08-.57,2.17-.85,3.28-.85,1.29,0,2.37,.22,3.25,.66s1.59,1.02,2.14,1.75c.54,.73,.93,1.59,1.17,2.57s.35,2.16,.35,3.53v11.79h.05Z"/><path d="M272.39,72c0,.17-.06,.3-.17,.39-.11,.09-.27,.15-.47,.19s-.49,.06-.88,.06-.67-.02-.89-.06-.38-.11-.48-.19c-.1-.09-.15-.21-.15-.39v-1.93c-.85,.9-1.79,1.6-2.83,2.11-1.04,.5-2.14,.75-3.3,.75-1.02,0-1.94-.13-2.76-.4-.82-.26-1.53-.65-2.11-1.15s-1.03-1.12-1.35-1.85-.48-1.56-.48-2.49c0-1.09,.22-2.03,.67-2.84,.44-.8,1.08-1.47,1.91-2,.83-.53,1.85-.93,3.05-1.19,1.2-.26,2.56-.4,4.06-.4h2.66v-1.5c0-.74-.08-1.4-.24-1.98-.16-.57-.41-1.05-.76-1.43s-.81-.67-1.36-.86-1.25-.29-2.06-.29c-.87,0-1.66,.1-2.35,.31-.69,.21-1.3,.44-1.83,.69-.52,.25-.96,.48-1.31,.69s-.61,.31-.78,.31c-.11,0-.21-.03-.3-.09s-.16-.14-.23-.26c-.06-.11-.11-.26-.14-.44-.03-.18-.04-.38-.04-.59,0-.36,.02-.64,.08-.85,.05-.21,.17-.4,.37-.59,.19-.19,.53-.4,1-.66,.47-.25,1.02-.48,1.63-.69,.62-.21,1.29-.38,2.02-.52,.73-.14,1.47-.2,2.21-.2,1.39,0,2.57,.16,3.54,.47,.97,.32,1.76,.78,2.36,1.39,.6,.61,1.04,1.36,1.31,2.27,.27,.9,.41,1.96,.41,3.16v13.04h0Zm-3.52-8.82h-3.03c-.97,0-1.82,.08-2.54,.25s-1.31,.41-1.78,.73-.82,.71-1.04,1.16c-.22,.45-.33,.97-.33,1.56,0,1,.32,1.8,.96,2.4,.64,.59,1.53,.89,2.67,.89,.93,0,1.79-.24,2.59-.71s1.63-1.2,2.5-2.17v-4.1h0Z"/><path d="M288.55,70.56c0,.42-.03,.75-.09,.99s-.14,.42-.26,.54-.29,.22-.52,.32c-.23,.1-.49,.18-.78,.25-.29,.06-.61,.12-.93,.16-.33,.04-.66,.06-.99,.06-1,0-1.86-.13-2.58-.4-.72-.26-1.3-.67-1.76-1.2-.46-.54-.79-1.22-1-2.04s-.31-1.79-.31-2.91v-11.3h-2.71c-.21,0-.39-.11-.52-.34-.13-.23-.19-.6-.19-1.12,0-.27,.02-.5,.05-.69,.04-.19,.08-.34,.14-.46,.06-.12,.13-.21,.23-.26,.09-.05,.2-.08,.31-.08h2.69v-4.6c0-.1,.02-.19,.08-.28,.05-.09,.14-.16,.28-.23,.14-.06,.32-.11,.55-.14,.23-.03,.52-.04,.86-.04s.65,0,.88,.04c.23,.03,.41,.08,.54,.14s.22,.14,.28,.23,.09,.18,.09,.28v4.6h4.96c.11,0,.21,.03,.3,.08,.09,.05,.16,.14,.23,.26,.06,.12,.11,.28,.14,.46,.03,.19,.04,.42,.04,.69,0,.52-.06,.89-.19,1.12s-.3,.34-.52,.34h-4.96v10.79c0,1.33,.2,2.34,.59,3.02,.39,.68,1.1,1.02,2.12,1.02,.33,0,.62-.03,.88-.1s.49-.13,.69-.2,.37-.14,.52-.2c.14-.06,.27-.1,.39-.1,.07,0,.14,.02,.2,.05,.06,.04,.11,.1,.15,.2s.07,.24,.1,.41c.03,.17,.04,.39,.04,.64h-.02Z"/><path d="M321.91,71.98c0,.11-.03,.21-.09,.29s-.15,.15-.28,.2-.31,.1-.54,.13-.52,.04-.86,.04-.65-.01-.88-.04-.41-.07-.55-.13c-.14-.06-.23-.12-.29-.2-.06-.08-.09-.18-.09-.29v-11.75c0-.82-.07-1.56-.21-2.23-.14-.67-.37-1.25-.69-1.74s-.72-.86-1.2-1.12c-.49-.26-1.06-.39-1.72-.39-.82,0-1.64,.32-2.46,.95-.82,.63-1.73,1.55-2.72,2.77v13.51c0,.11-.03,.21-.09,.29s-.15,.15-.29,.2c-.14,.06-.32,.1-.55,.13-.23,.03-.52,.04-.86,.04s-.61-.01-.85-.04c-.24-.03-.42-.07-.56-.13-.14-.06-.23-.12-.28-.2-.05-.08-.08-.18-.08-.29v-11.75c0-.82-.08-1.56-.24-2.23s-.39-1.25-.71-1.74c-.32-.49-.71-.86-1.19-1.12s-1.05-.39-1.71-.39c-.82,0-1.64,.32-2.47,.95s-1.73,1.55-2.71,2.77v13.51c0,.11-.03,.21-.09,.29s-.15,.15-.28,.2-.31,.1-.54,.13-.52,.04-.88,.04-.63-.01-.86-.04c-.23-.03-.41-.07-.55-.13-.14-.06-.23-.12-.28-.2-.05-.08-.08-.18-.08-.29v-19.34c0-.11,.02-.21,.06-.29s.13-.15,.26-.21,.29-.11,.49-.13c.2-.02,.47-.03,.79-.03s.58,0,.78,.03c.21,.02,.37,.06,.48,.13,.11,.06,.2,.14,.25,.21,.05,.08,.08,.18,.08,.29v2.56c1.09-1.22,2.14-2.11,3.17-2.67,1.02-.57,2.06-.85,3.1-.85,.8,0,1.52,.09,2.16,.28s1.2,.45,1.69,.78c.49,.34,.9,.74,1.25,1.2,.34,.47,.63,.98,.86,1.56,.64-.7,1.26-1.3,1.84-1.78,.58-.49,1.14-.88,1.68-1.18s1.06-.52,1.57-.66,1.02-.2,1.54-.2c1.25,0,2.29,.22,3.14,.66,.84,.44,1.53,1.02,2.05,1.75s.9,1.59,1.12,2.57,.33,2.02,.33,3.1v12.22h.04Z"/><path d="M344.88,61.47c0,.56-.14,.96-.42,1.19s-.6,.35-.96,.35h-12.73c0,1.07,.11,2.04,.32,2.9s.58,1.6,1.08,2.21c.5,.62,1.16,1.09,1.96,1.42,.81,.33,1.79,.49,2.96,.49,.92,0,1.74-.08,2.46-.23s1.34-.32,1.87-.5c.53-.19,.96-.35,1.3-.5s.59-.23,.77-.23c.1,0,.19,.03,.27,.08s.14,.13,.18,.23c.04,.1,.08,.24,.1,.42,.02,.18,.03,.4,.03,.66,0,.19,0,.35-.02,.48-.01,.14-.03,.26-.05,.37s-.06,.2-.11,.29c-.05,.09-.11,.17-.19,.25s-.31,.21-.7,.39-.89,.35-1.5,.53c-.62,.17-1.33,.33-2.14,.46-.81,.14-1.67,.2-2.59,.2-1.59,0-2.98-.22-4.18-.67-1.2-.44-2.2-1.1-3.02-1.98-.82-.87-1.43-1.97-1.85-3.29s-.62-2.85-.62-4.6,.21-3.15,.64-4.48c.43-1.32,1.05-2.45,1.86-3.37s1.79-1.63,2.93-2.13c1.15-.49,2.43-.74,3.85-.74,1.52,0,2.81,.24,3.88,.73,1.07,.49,1.94,1.14,2.63,1.97,.69,.82,1.19,1.79,1.51,2.9s.48,2.3,.48,3.56v.64h0Zm-3.57-1.05c.04-1.86-.37-3.32-1.24-4.38s-2.17-1.59-3.88-1.59c-.88,0-1.65,.17-2.31,.49-.66,.33-1.22,.77-1.66,1.31-.45,.54-.79,1.18-1.04,1.9s-.38,1.48-.41,2.27h10.54Z"/><path d="M366.92,71.98c0,.11-.03,.21-.09,.29s-.15,.15-.28,.2-.31,.1-.54,.13-.52,.04-.86,.04-.65-.01-.88-.04-.41-.07-.54-.13-.22-.12-.28-.2c-.06-.08-.09-.18-.09-.29v-11.32c0-1.1-.09-1.99-.26-2.66s-.42-1.25-.75-1.74-.76-.86-1.28-1.12-1.13-.39-1.82-.39c-.89,0-1.78,.32-2.66,.95-.89,.63-1.82,1.55-2.79,2.77v13.51c0,.11-.03,.21-.09,.29s-.15,.15-.28,.2-.31,.1-.54,.13-.52,.04-.88,.04-.63-.01-.86-.04c-.23-.03-.41-.07-.55-.13-.14-.06-.23-.12-.28-.2-.05-.08-.08-.18-.08-.29v-19.34c0-.11,.02-.21,.06-.29s.13-.15,.26-.21,.29-.11,.49-.13c.2-.02,.47-.03,.79-.03s.58,0,.78,.03c.21,.02,.37,.06,.48,.13,.11,.06,.2,.14,.25,.21,.05,.08,.08,.18,.08,.29v2.56c1.09-1.22,2.17-2.11,3.25-2.67,1.08-.57,2.17-.85,3.28-.85,1.29,0,2.37,.22,3.25,.66s1.59,1.02,2.14,1.75c.54,.73,.93,1.59,1.17,2.57,.24,.98,.35,2.16,.35,3.53v11.79h.05Z"/></g><path d="M121.16,114.46c0,1.27-.22,2.42-.67,3.45-.44,1.02-1.08,1.9-1.91,2.63-.83,.73-1.85,1.29-3.07,1.69-1.22,.39-2.59,.59-4.12,.59-.93,0-1.8-.08-2.61-.23s-1.53-.33-2.16-.54c-.63-.21-1.15-.42-1.57-.64s-.68-.38-.78-.48c-.11-.1-.19-.2-.25-.3-.06-.1-.11-.22-.15-.37-.04-.14-.08-.32-.1-.53s-.03-.46-.03-.76c0-.52,.05-.87,.15-1.07s.25-.3,.44-.3c.13,0,.39,.11,.78,.34,.39,.23,.89,.48,1.5,.74,.61,.27,1.32,.51,2.14,.74,.82,.23,1.72,.34,2.72,.34s1.82-.12,2.56-.37c.73-.24,1.35-.59,1.85-1.03s.87-.97,1.12-1.58,.37-1.27,.37-1.99c0-.79-.16-1.5-.48-2.13s-.78-1.17-1.4-1.63c-.61-.46-1.37-.81-2.26-1.05-.9-.24-1.91-.37-3.05-.37h-2.73c-.12,0-.23-.02-.34-.08-.11-.05-.21-.13-.29-.25-.08-.11-.15-.26-.2-.45-.05-.19-.08-.43-.08-.73,0-.27,.02-.5,.06-.68s.1-.32,.18-.43,.17-.19,.27-.24c.1-.05,.21-.08,.34-.08h2.43c.95,0,1.79-.12,2.55-.37,.75-.24,1.39-.59,1.91-1.05,.52-.46,.92-1.01,1.2-1.64,.28-.64,.42-1.35,.42-2.14,0-.57-.09-1.12-.28-1.64s-.47-.98-.84-1.36c-.37-.39-.85-.69-1.43-.91s-1.25-.33-2.01-.33c-.83,0-1.59,.13-2.29,.38-.69,.25-1.31,.52-1.86,.81-.54,.29-1,.56-1.35,.81-.36,.25-.61,.38-.75,.38-.1,0-.19-.02-.27-.05-.08-.04-.14-.11-.19-.21-.05-.11-.09-.26-.11-.45s-.03-.45-.03-.76c0-.21,0-.4,.02-.57,.01-.16,.04-.31,.09-.43,.04-.12,.09-.23,.15-.33,.06-.1,.15-.22,.29-.35s.41-.33,.83-.59c.42-.26,.93-.51,1.54-.76s1.31-.46,2.11-.63,1.65-.26,2.57-.26c1.29,0,2.42,.17,3.39,.49,.97,.33,1.79,.79,2.44,1.4,.65,.6,1.14,1.32,1.46,2.16s.48,1.77,.48,2.78c0,.87-.11,1.69-.34,2.44-.23,.75-.57,1.42-1.01,2s-.99,1.07-1.63,1.48-1.39,.69-2.23,.85v.04c.96,.1,1.84,.34,2.63,.72,.79,.38,1.48,.86,2.05,1.43s1.02,1.24,1.34,2.01c.32,.77,.48,1.59,.48,2.46v-.02Z"/><path d="M141.76,121.46c.11,.2,.17,.37,.17,.5s-.07,.25-.2,.33c-.14,.09-.34,.15-.62,.18-.28,.04-.64,.05-1.08,.05s-.77-.01-1.02-.03-.45-.06-.6-.11-.27-.11-.34-.19c-.08-.08-.15-.17-.2-.27l-4.64-7.67-4.62,7.67c-.06,.1-.13,.19-.2,.27s-.19,.14-.34,.19-.35,.09-.59,.11c-.24,.02-.57,.03-.97,.03s-.76-.02-1.02-.05c-.27-.04-.46-.1-.58-.18-.12-.09-.18-.2-.17-.33,0-.14,.08-.3,.2-.5l6.02-9.43-5.69-9.09c-.11-.2-.18-.37-.18-.5,0-.14,.06-.25,.19-.34,.14-.09,.34-.15,.62-.18,.28-.03,.65-.04,1.11-.04,.42,0,.75,.01,1,.03s.45,.05,.59,.1c.14,.04,.25,.1,.32,.17s.14,.16,.19,.26l4.4,7.2,4.47-7.2c.06-.09,.12-.16,.19-.24s.17-.13,.29-.18,.29-.09,.52-.11c.22-.02,.53-.03,.91-.03,.42,0,.76,.01,1.02,.04,.26,.03,.46,.08,.59,.16,.13,.08,.19,.19,.17,.33,0,.14-.09,.32-.21,.54l-5.65,8.98,5.97,9.54h-.02Z"/><path d="M160.63,119.36c0,.44-.02,.85-.06,1.21s-.11,.71-.2,1.04-.22,.66-.39,.98-.36,.66-.59,1.02l-2.92,4.38c-.06,.11-.13,.21-.23,.28-.09,.07-.2,.13-.33,.18-.13,.05-.28,.09-.45,.12s-.39,.04-.64,.04c-.23,0-.42,0-.58-.03s-.27-.06-.34-.11c-.07-.05-.11-.12-.12-.2,0-.09,.02-.19,.08-.3l2.84-5.89v-2.73c0-.37,.04-.67,.11-.9s.19-.4,.35-.53c.16-.12,.37-.2,.62-.25,.25-.04,.55-.06,.91-.06s.64,.02,.88,.06,.44,.13,.6,.25,.28,.3,.35,.53c.08,.23,.12,.53,.12,.9h-.01Zm7.69,.01c0,.44-.02,.85-.06,1.21s-.11,.71-.2,1.04-.22,.66-.39,.98-.36,.66-.59,1.02l-2.92,4.38c-.06,.11-.13,.21-.23,.28-.09,.07-.2,.13-.33,.18-.13,.05-.28,.09-.45,.12s-.39,.04-.64,.04c-.23,0-.42,0-.57-.03s-.27-.06-.34-.11c-.08-.05-.12-.12-.12-.2s.02-.19,.06-.3l2.84-5.89v-2.73c0-.37,.04-.67,.11-.9s.19-.4,.35-.53c.16-.12,.37-.2,.62-.25,.25-.04,.55-.06,.91-.06,.33,0,.62,.02,.87,.06s.45,.13,.61,.25,.28,.3,.35,.53c.08,.23,.12,.53,.12,.9h0Z"/><path d="M191.09,121.87c0,.11-.03,.21-.08,.3-.05,.09-.14,.15-.26,.2-.12,.05-.28,.09-.48,.12-.2,.03-.44,.04-.73,.04s-.55-.01-.75-.04-.37-.07-.49-.12-.22-.12-.28-.2c-.06-.09-.09-.19-.09-.3v-2.56c-1.02,1.1-2.07,1.96-3.17,2.58s-2.3,.92-3.6,.92c-1.42,0-2.63-.28-3.63-.83s-1.82-1.3-2.44-2.23c-.62-.94-1.08-2.04-1.36-3.31-.29-1.27-.43-2.6-.43-4.01,0-1.66,.18-3.16,.54-4.5s.89-2.48,1.59-3.43,1.57-1.67,2.61-2.18,2.24-.76,3.6-.76c1.13,0,2.17,.25,3.1,.74,.94,.49,1.87,1.22,2.78,2.18v-11.24c0-.1,.02-.2,.08-.29,.05-.09,.15-.16,.29-.21,.14-.05,.33-.09,.55-.13s.5-.05,.85-.05,.65,.02,.88,.05c.23,.04,.41,.08,.54,.13,.13,.05,.23,.12,.29,.21s.1,.19,.1,.29v28.62h-.01Zm-3.57-13.59c-.96-1.19-1.89-2.09-2.78-2.72-.9-.62-1.83-.93-2.8-.93-.9,0-1.67,.21-2.3,.64s-1.14,1-1.54,1.7c-.39,.7-.68,1.5-.86,2.38-.18,.89-.27,1.79-.27,2.71,0,.97,.08,1.93,.23,2.86s.41,1.76,.78,2.48,.87,1.3,1.48,1.74c.62,.44,1.39,.66,2.32,.66,.47,0,.93-.06,1.36-.19,.44-.13,.88-.34,1.34-.64,.46-.3,.94-.69,1.44-1.17,.5-.48,1.03-1.07,1.59-1.77v-7.75Z"/><path d="M201.6,96c0,.83-.16,1.4-.47,1.7-.32,.3-.9,.45-1.74,.45s-1.4-.15-1.71-.44c-.31-.29-.46-.85-.46-1.67s.16-1.4,.47-1.7c.31-.3,.9-.45,1.74-.45s1.4,.15,1.71,.44c.31,.29,.46,.85,.46,1.67Zm-.41,25.87c0,.11-.03,.21-.09,.29s-.15,.15-.28,.2-.31,.1-.54,.13-.52,.04-.88,.04-.63-.01-.86-.04-.41-.07-.55-.13-.23-.12-.28-.2c-.05-.08-.08-.18-.08-.29v-19.34c0-.1,.02-.19,.08-.28,.05-.09,.14-.16,.28-.21,.14-.06,.32-.1,.55-.13s.52-.04,.86-.04,.65,.01,.88,.04c.23,.03,.41,.07,.54,.13,.13,.06,.22,.13,.28,.21,.06,.09,.09,.18,.09,.28v19.34Z"/><path d="M225.53,111.9c0,1.69-.18,3.21-.55,4.55-.37,1.35-.9,2.49-1.61,3.43s-1.59,1.66-2.63,2.17c-1.05,.51-2.24,.76-3.59,.76-.57,0-1.1-.06-1.59-.17-.49-.11-.96-.29-1.43-.54-.47-.24-.93-.55-1.39-.92-.46-.37-.95-.81-1.46-1.31v9.67c0,.11-.03,.21-.09,.3s-.15,.16-.28,.21c-.13,.06-.31,.1-.54,.13s-.52,.04-.88,.04-.63,0-.86-.04-.41-.07-.55-.13-.23-.13-.28-.21c-.05-.09-.08-.19-.08-.3v-27.01c0-.13,.02-.23,.06-.31,.04-.08,.13-.15,.26-.2,.13-.06,.29-.1,.49-.12,.2-.02,.44-.03,.73-.03s.55,.01,.74,.03,.35,.06,.48,.12c.13,.06,.22,.13,.27,.2,.05,.08,.08,.18,.08,.31v2.6c.59-.6,1.15-1.12,1.7-1.57,.54-.44,1.09-.81,1.64-1.11,.55-.29,1.12-.52,1.7-.67s1.19-.23,1.84-.23c1.4,0,2.6,.27,3.59,.82,.99,.54,1.79,1.29,2.42,2.23s1.08,2.04,1.36,3.3c.29,1.25,.43,2.58,.43,3.99h.02Zm-3.67,.42c0-.99-.08-1.94-.23-2.87s-.41-1.74-.78-2.46-.86-1.29-1.48-1.72-1.39-.64-2.31-.64c-.46,0-.92,.07-1.36,.2-.45,.14-.9,.35-1.36,.64s-.94,.68-1.45,1.16c-.5,.48-1.04,1.07-1.6,1.77v7.69c.98,1.19,1.91,2.1,2.79,2.73,.88,.63,1.8,.95,2.77,.95,.89,0,1.66-.21,2.3-.64s1.16-1,1.56-1.72,.69-1.52,.88-2.41c.19-.89,.28-1.78,.28-2.69h-.01Z"/><path d="M233.97,98.88v2.71c0,.37-.04,.67-.12,.9s-.2,.41-.37,.54-.37,.21-.62,.26c-.25,.04-.55,.06-.89,.06s-.64-.02-.88-.06-.44-.13-.6-.26c-.16-.13-.28-.31-.35-.54-.08-.23-.12-.53-.12-.9,0-.43,.02-.83,.06-1.19s.11-.71,.2-1.04,.22-.66,.39-.98c.16-.32,.36-.66,.59-1.02l2.9-4.4c.07-.11,.15-.21,.24-.28,.09-.07,.19-.13,.32-.18s.28-.09,.46-.12c.18-.03,.4-.04,.66-.04,.23,0,.42,.01,.57,.03s.26,.06,.34,.11,.12,.12,.12,.2-.03,.19-.09,.3l-2.81,5.91h0Zm7.69,0v2.71c0,.37-.04,.67-.12,.9s-.2,.41-.37,.54-.37,.21-.62,.26c-.25,.04-.55,.06-.89,.06s-.64-.02-.88-.06-.44-.13-.6-.26c-.16-.13-.28-.31-.35-.54-.08-.23-.12-.53-.12-.9,0-.43,.02-.83,.06-1.19s.11-.71,.2-1.04,.22-.66,.39-.98c.16-.32,.36-.66,.59-1.02l2.9-4.4c.07-.11,.15-.21,.24-.28,.09-.07,.19-.13,.32-.18s.28-.09,.46-.12c.18-.03,.4-.04,.66-.04,.23,0,.42,.01,.58,.03s.27,.06,.34,.11c.07,.05,.11,.12,.12,.2,0,.09-.03,.19-.1,.3l-2.81,5.91h0Z"/><path d="M270.88,116.61c0,.99-.18,1.87-.55,2.64s-.88,1.43-1.56,1.96c-.67,.53-1.48,.93-2.41,1.2s-1.96,.41-3.07,.41c-.69,0-1.34-.05-1.97-.16s-1.18-.24-1.68-.41-.91-.34-1.26-.52c-.34-.18-.59-.34-.75-.48-.16-.14-.27-.34-.34-.6s-.11-.61-.11-1.05c0-.27,.01-.5,.04-.69s.06-.34,.11-.45c.04-.11,.1-.2,.18-.25s.17-.08,.27-.08c.16,0,.39,.1,.7,.29s.69,.4,1.14,.63c.45,.23,.98,.44,1.6,.63,.62,.19,1.32,.29,2.13,.29,.6,0,1.15-.06,1.63-.19,.49-.13,.91-.32,1.27-.57s.63-.57,.83-.96,.29-.84,.29-1.38-.14-1-.42-1.38c-.28-.37-.65-.7-1.11-.99s-.97-.54-1.55-.76c-.57-.22-1.16-.45-1.77-.7-.61-.24-1.2-.52-1.78-.83-.58-.31-1.1-.68-1.56-1.13-.46-.44-.83-.97-1.11-1.59-.28-.62-.42-1.35-.42-2.21,0-.76,.15-1.49,.44-2.18s.73-1.3,1.32-1.83c.59-.52,1.32-.94,2.2-1.26,.88-.31,1.91-.47,3.08-.47,.52,0,1.03,.04,1.55,.13s.98,.19,1.4,.32c.42,.13,.77,.27,1.06,.42s.52,.28,.67,.4c.15,.11,.25,.21,.3,.3,.05,.09,.09,.18,.11,.29s.04,.24,.06,.4,.03,.35,.03,.58-.01,.46-.03,.63c-.02,.18-.06,.33-.11,.44s-.11,.2-.18,.25-.15,.08-.24,.08c-.13,0-.32-.08-.56-.24-.24-.16-.56-.33-.95-.5-.39-.18-.84-.35-1.36-.5-.52-.16-1.12-.24-1.79-.24-.6,0-1.13,.07-1.59,.2-.46,.14-.83,.33-1.13,.58-.29,.25-.52,.55-.67,.89s-.23,.72-.23,1.12c0,.56,.14,1.03,.43,1.41,.29,.38,.66,.71,1.12,1s.98,.54,1.57,.77c.59,.23,1.19,.47,1.79,.71,.61,.24,1.21,.52,1.8,.82s1.12,.67,1.58,1.1,.83,.95,1.11,1.55,.42,1.32,.42,2.15h.03Z"/><path d="M290.52,121.89c0,.17-.06,.3-.17,.39-.11,.09-.27,.15-.47,.19s-.49,.06-.88,.06-.67-.02-.89-.06-.38-.11-.48-.19c-.1-.09-.15-.21-.15-.39v-1.93c-.85,.9-1.79,1.6-2.83,2.11-1.04,.5-2.14,.75-3.3,.75-1.02,0-1.94-.13-2.76-.4-.82-.26-1.53-.65-2.11-1.15s-1.03-1.12-1.35-1.85-.48-1.56-.48-2.49c0-1.09,.22-2.03,.67-2.84,.44-.8,1.08-1.47,1.91-2,.83-.53,1.85-.93,3.05-1.19,1.2-.26,2.56-.4,4.06-.4h2.66v-1.5c0-.74-.08-1.4-.24-1.98-.16-.57-.41-1.05-.76-1.43s-.81-.67-1.36-.86-1.25-.29-2.06-.29c-.87,0-1.66,.1-2.35,.31s-1.3,.44-1.83,.69c-.52,.25-.96,.48-1.31,.69s-.61,.31-.78,.31c-.11,0-.21-.03-.3-.09s-.16-.14-.23-.26c-.06-.11-.11-.26-.14-.44-.03-.18-.04-.38-.04-.59,0-.36,.02-.64,.08-.85,.05-.21,.17-.4,.37-.59,.19-.19,.53-.4,1-.66,.47-.25,1.02-.48,1.63-.69,.62-.21,1.29-.38,2.02-.52,.73-.14,1.47-.2,2.21-.2,1.39,0,2.57,.16,3.54,.47,.97,.32,1.76,.78,2.36,1.39,.6,.61,1.04,1.36,1.31,2.27,.27,.9,.41,1.96,.41,3.16v13.04h0Zm-3.52-8.82h-3.03c-.97,0-1.82,.08-2.54,.25s-1.31,.41-1.78,.73-.82,.71-1.04,1.16c-.22,.45-.33,.97-.33,1.56,0,1,.32,1.8,.96,2.4,.64,.59,1.53,.89,2.67,.89,.93,0,1.79-.24,2.59-.71s1.63-1.2,2.5-2.17v-4.1h0Z"/><path d="M313.19,103.42c0,.5-.07,.86-.2,1.08-.14,.22-.31,.33-.53,.33h-2.77c.5,.52,.85,1.08,1.05,1.71,.2,.62,.3,1.27,.3,1.94,0,1.12-.18,2.11-.54,2.96-.36,.86-.87,1.59-1.54,2.18-.67,.59-1.46,1.05-2.37,1.36-.92,.32-1.93,.47-3.05,.47-.79,0-1.54-.1-2.25-.31s-1.26-.47-1.64-.78c-.26,.26-.47,.55-.63,.88-.17,.33-.25,.71-.25,1.14,0,.5,.23,.92,.7,1.25s1.08,.51,1.86,.54l5.05,.21c.96,.03,1.84,.16,2.64,.4,.8,.24,1.5,.57,2.08,1.01,.59,.44,1.05,.97,1.38,1.61,.33,.64,.49,1.38,.49,2.22,0,.89-.19,1.73-.56,2.54-.37,.8-.94,1.51-1.71,2.12s-1.74,1.09-2.93,1.44-2.59,.53-4.21,.53-2.89-.13-3.99-.4c-1.1-.27-1.99-.63-2.7-1.08-.7-.46-1.21-1.01-1.53-1.64-.32-.64-.47-1.33-.47-2.07,0-.47,.06-.93,.17-1.38,.11-.44,.29-.87,.53-1.27s.53-.78,.88-1.15,.76-.73,1.21-1.08c-.7-.36-1.22-.81-1.56-1.35s-.5-1.13-.5-1.76c0-.87,.18-1.65,.54-2.34,.36-.69,.8-1.3,1.33-1.85-.44-.53-.79-1.13-1.05-1.79s-.39-1.47-.39-2.42c0-1.1,.19-2.09,.56-2.96s.89-1.61,1.55-2.21c.66-.6,1.45-1.06,2.37-1.39s1.93-.48,3.02-.48c.59,0,1.13,.03,1.64,.1,.51,.06,.98,.15,1.43,.27h5.84c.24,0,.43,.12,.55,.35,.12,.24,.18,.6,.18,1.08h.02Zm-3.76,20.4c0-.83-.34-1.47-1.02-1.92s-1.6-.69-2.76-.72l-5.01-.17c-.46,.36-.83,.7-1.13,1.02-.29,.32-.53,.63-.7,.92s-.29,.58-.35,.87c-.06,.29-.1,.58-.1,.88,0,.93,.47,1.64,1.42,2.12s2.26,.72,3.95,.72c1.07,0,1.97-.1,2.7-.31,.72-.21,1.31-.48,1.75-.83,.44-.34,.76-.74,.96-1.18,.19-.44,.29-.91,.29-1.4h0Zm-1.78-15.32c0-1.32-.36-2.35-1.08-3.08-.72-.74-1.75-1.11-3.08-1.11-.69,0-1.29,.11-1.79,.34-.51,.23-.93,.54-1.27,.95-.34,.4-.59,.86-.75,1.39-.17,.52-.25,1.07-.25,1.64,0,1.27,.36,2.28,1.08,3.01s1.74,1.1,3.04,1.1c.7,0,1.31-.11,1.83-.33s.94-.53,1.28-.92,.59-.85,.75-1.36c.16-.52,.25-1.05,.25-1.61v-.02Z"/><path d="M333.88,111.37c0,.56-.14,.96-.42,1.19s-.6,.35-.96,.35h-12.73c0,1.07,.11,2.04,.32,2.9s.58,1.6,1.08,2.21c.5,.62,1.16,1.09,1.96,1.42,.81,.33,1.79,.49,2.96,.49,.92,0,1.74-.08,2.46-.23s1.34-.32,1.87-.5c.53-.19,.96-.35,1.3-.5s.59-.23,.77-.23c.1,0,.19,.03,.27,.08s.14,.13,.18,.23c.04,.1,.08,.24,.1,.42,.02,.18,.03,.4,.03,.66,0,.19,0,.35-.02,.48-.01,.14-.03,.26-.05,.37s-.06,.2-.11,.29c-.05,.09-.11,.17-.19,.25s-.31,.21-.7,.39-.89,.35-1.5,.53c-.62,.17-1.33,.33-2.14,.46-.81,.14-1.67,.2-2.59,.2-1.59,0-2.98-.22-4.18-.67-1.2-.44-2.2-1.1-3.02-1.98-.82-.87-1.43-1.97-1.85-3.29s-.62-2.85-.62-4.6,.21-3.15,.64-4.48c.43-1.32,1.05-2.45,1.86-3.37,.81-.92,1.79-1.63,2.93-2.13,1.15-.49,2.43-.74,3.85-.74,1.52,0,2.81,.24,3.88,.73,1.07,.49,1.94,1.14,2.63,1.97,.69,.82,1.19,1.79,1.51,2.9s.48,2.3,.48,3.56v.64h0Zm-3.57-1.05c.04-1.86-.37-3.32-1.24-4.38s-2.17-1.59-3.88-1.59c-.88,0-1.65,.17-2.31,.49-.66,.33-1.22,.77-1.66,1.31-.45,.54-.79,1.18-1.04,1.9s-.38,1.48-.41,2.27h10.54Z"/><path d="M355.92,121.87c0,.11-.03,.21-.09,.29s-.15,.15-.28,.2-.31,.1-.54,.13-.52,.04-.86,.04-.65-.01-.88-.04-.41-.07-.54-.13-.22-.12-.28-.2c-.06-.08-.09-.18-.09-.29v-11.32c0-1.1-.09-1.99-.26-2.66-.17-.67-.42-1.25-.75-1.74s-.76-.86-1.28-1.12-1.13-.39-1.82-.39c-.89,0-1.78,.32-2.66,.95-.89,.63-1.82,1.55-2.79,2.77v13.51c0,.11-.03,.21-.09,.29s-.15,.15-.28,.2-.31,.1-.54,.13-.52,.04-.88,.04-.63-.01-.86-.04c-.23-.03-.41-.07-.55-.13-.14-.06-.23-.12-.28-.2-.05-.08-.08-.18-.08-.29v-19.34c0-.11,.02-.21,.06-.29s.13-.15,.26-.21,.29-.11,.49-.13c.2-.02,.47-.03,.79-.03s.58,.01,.78,.03c.21,.02,.37,.06,.48,.13,.11,.06,.2,.14,.25,.21,.05,.08,.08,.18,.08,.29v2.56c1.09-1.22,2.17-2.11,3.25-2.67,1.08-.57,2.17-.85,3.28-.85,1.29,0,2.37,.22,3.25,.66s1.59,1.02,2.14,1.75c.54,.73,.93,1.59,1.17,2.57,.24,.98,.35,2.16,.35,3.53v11.79h.05Z"/><path d="M367.07,119.34c0,.44-.02,.85-.06,1.22s-.11,.72-.21,1.05-.23,.66-.4,.98c-.17,.32-.37,.66-.61,1.02l-2.94,4.43c-.07,.1-.15,.19-.25,.26-.09,.07-.21,.14-.34,.19-.14,.06-.29,.1-.47,.12-.18,.02-.4,.03-.68,.03-.24,0-.45,0-.61-.03-.17-.02-.28-.06-.35-.11s-.11-.12-.12-.2c0-.09,.02-.19,.08-.3l2.86-5.91v-2.75c0-.39,.04-.69,.12-.92,.08-.23,.2-.4,.38-.52,.17-.11,.39-.19,.64-.24s.57-.06,.95-.06,.67,.02,.92,.06,.47,.12,.63,.24c.16,.11,.29,.29,.37,.52,.08,.23,.12,.54,.12,.92h-.03Z"/><path d="M401.1,111.95c0,1.68-.18,3.18-.55,4.52s-.9,2.48-1.61,3.43-1.58,1.67-2.61,2.17-2.21,.75-3.54,.75c-.62,0-1.19-.06-1.71-.18s-1.04-.32-1.54-.59-1-.62-1.5-1.03c-.5-.42-1.03-.92-1.59-1.5v2.36c0,.11-.03,.21-.09,.3-.06,.09-.15,.15-.28,.2s-.29,.09-.48,.12c-.19,.03-.44,.04-.74,.04s-.53-.01-.73-.04-.37-.07-.49-.12-.21-.12-.26-.2-.06-.19-.06-.3v-28.7c0-.11,.02-.21,.08-.3,.05-.09,.14-.16,.28-.21,.14-.06,.32-.1,.55-.13,.23-.03,.52-.04,.86-.04s.65,.01,.88,.04,.41,.07,.54,.13,.22,.13,.28,.21c.06,.09,.09,.19,.09,.3v11.58c.57-.59,1.13-1.08,1.67-1.48s1.06-.73,1.58-.98,1.03-.43,1.55-.55c.52-.11,1.06-.17,1.63-.17,1.4,0,2.6,.28,3.6,.84s1.8,1.31,2.43,2.25c.62,.94,1.08,2.04,1.36,3.3,.29,1.26,.43,2.59,.43,4l-.03-.02Zm-3.67,.41c0-.99-.08-1.95-.23-2.88-.15-.93-.41-1.75-.79-2.47-.37-.72-.87-1.29-1.49-1.73s-1.39-.66-2.31-.66c-.46,0-.92,.06-1.36,.19-.45,.13-.9,.34-1.36,.64s-.94,.69-1.44,1.16-1.03,1.07-1.59,1.78v7.71c.98,1.19,1.92,2.09,2.81,2.72,.89,.62,1.82,.93,2.79,.93,.89,0,1.66-.21,2.29-.64s1.15-1,1.55-1.71,.68-1.5,.86-2.38,.27-1.77,.27-2.67h0Z"/><path d="M410.38,96c0,.83-.16,1.4-.47,1.7-.32,.3-.9,.45-1.74,.45s-1.4-.15-1.71-.44-.46-.85-.46-1.67,.16-1.4,.47-1.7c.31-.3,.9-.45,1.74-.45s1.4,.15,1.71,.44,.46,.85,.46,1.67Zm-.41,25.87c0,.11-.03,.21-.09,.29s-.15,.15-.28,.2-.31,.1-.54,.13-.52,.04-.88,.04-.63-.01-.86-.04c-.23-.03-.41-.07-.55-.13-.14-.06-.23-.12-.28-.2-.05-.08-.08-.18-.08-.29v-19.34c0-.1,.02-.19,.08-.28,.05-.09,.14-.16,.28-.21,.14-.06,.32-.1,.55-.13,.23-.03,.52-.04,.86-.04s.65,.01,.88,.04,.41,.07,.54,.13,.22,.13,.28,.21c.06,.09,.09,.18,.09,.28v19.34Z"/><path d="M428.67,116.61c0,.99-.18,1.87-.55,2.64s-.88,1.43-1.56,1.96c-.67,.53-1.48,.93-2.41,1.2s-1.96,.41-3.07,.41c-.69,0-1.34-.05-1.97-.16s-1.18-.24-1.68-.41-.91-.34-1.26-.52c-.34-.18-.59-.34-.75-.48-.16-.14-.27-.34-.34-.6s-.11-.61-.11-1.05c0-.27,.01-.5,.04-.69s.06-.34,.11-.45c.04-.11,.1-.2,.18-.25s.17-.08,.27-.08c.16,0,.39,.1,.7,.29s.69,.4,1.14,.63c.45,.23,.98,.44,1.6,.63,.62,.19,1.32,.29,2.13,.29,.6,0,1.15-.06,1.63-.19,.49-.13,.91-.32,1.27-.57s.63-.57,.83-.96,.29-.84,.29-1.38-.14-1-.42-1.38c-.28-.37-.65-.7-1.11-.99s-.97-.54-1.55-.76c-.57-.22-1.16-.45-1.77-.7-.61-.24-1.2-.52-1.78-.83-.58-.31-1.1-.68-1.56-1.13-.46-.44-.83-.97-1.11-1.59-.28-.62-.42-1.35-.42-2.21,0-.76,.15-1.49,.44-2.18s.73-1.3,1.32-1.83c.59-.52,1.32-.94,2.2-1.26,.88-.31,1.91-.47,3.08-.47,.52,0,1.03,.04,1.55,.13s.98,.19,1.4,.32c.42,.13,.77,.27,1.06,.42s.52,.28,.67,.4c.15,.11,.25,.21,.3,.3,.05,.09,.09,.18,.11,.29s.04,.24,.06,.4,.03,.35,.03,.58-.01,.46-.03,.63c-.02,.18-.06,.33-.11,.44s-.11,.2-.18,.25-.15,.08-.24,.08c-.13,0-.32-.08-.56-.24-.24-.16-.56-.33-.95-.5-.39-.18-.84-.35-1.36-.5-.52-.16-1.12-.24-1.79-.24-.6,0-1.13,.07-1.59,.2-.46,.14-.83,.33-1.13,.58-.29,.25-.52,.55-.67,.89s-.23,.72-.23,1.12c0,.56,.14,1.03,.43,1.41,.29,.38,.66,.71,1.12,1s.98,.54,1.57,.77c.59,.23,1.19,.47,1.79,.71,.61,.24,1.21,.52,1.8,.82s1.12,.67,1.58,1.1,.83,.95,1.11,1.55,.42,1.32,.42,2.15h.03Z"/><path d="M460.25,121.87c0,.11-.03,.21-.08,.3-.05,.09-.14,.15-.26,.2-.12,.05-.28,.09-.48,.12-.2,.03-.44,.04-.73,.04s-.55-.01-.75-.04-.37-.07-.49-.12-.22-.12-.28-.2c-.06-.09-.09-.19-.09-.3v-2.56c-1.02,1.1-2.07,1.96-3.17,2.58s-2.3,.92-3.6,.92c-1.42,0-2.63-.28-3.63-.83s-1.82-1.3-2.44-2.23c-.62-.94-1.08-2.04-1.36-3.31-.29-1.27-.43-2.6-.43-4.01,0-1.66,.18-3.16,.54-4.5,.36-1.34,.89-2.48,1.59-3.43,.7-.95,1.57-1.67,2.61-2.18,1.04-.51,2.24-.76,3.6-.76,1.13,0,2.17,.25,3.1,.74,.94,.49,1.87,1.22,2.78,2.18v-11.24c0-.1,.02-.2,.08-.29,.05-.09,.15-.16,.29-.21,.14-.05,.33-.09,.55-.13s.5-.05,.85-.05,.65,.02,.88,.05c.23,.04,.41,.08,.54,.13,.13,.05,.23,.12,.29,.21s.1,.19,.1,.29v28.62h-.01Zm-3.57-13.59c-.96-1.19-1.89-2.09-2.78-2.72-.9-.62-1.83-.93-2.8-.93-.9,0-1.67,.21-2.3,.64-.63,.43-1.14,1-1.54,1.7-.39,.7-.68,1.5-.86,2.38-.18,.89-.27,1.79-.27,2.71,0,.97,.08,1.93,.23,2.86,.15,.93,.41,1.76,.78,2.48s.87,1.3,1.48,1.74c.62,.44,1.39,.66,2.32,.66,.47,0,.93-.06,1.36-.19,.44-.13,.88-.34,1.34-.64s.94-.69,1.44-1.17c.5-.48,1.03-1.07,1.59-1.77v-7.75Z"/><path d="M470.75,96c0,.83-.16,1.4-.47,1.7-.32,.3-.9,.45-1.74,.45s-1.4-.15-1.71-.44-.46-.85-.46-1.67,.16-1.4,.47-1.7c.31-.3,.9-.45,1.74-.45s1.4,.15,1.71,.44,.46,.85,.46,1.67Zm-.41,25.87c0,.11-.03,.21-.09,.29s-.15,.15-.28,.2-.31,.1-.54,.13-.52,.04-.88,.04-.63-.01-.86-.04c-.23-.03-.41-.07-.55-.13-.14-.06-.23-.12-.28-.2-.05-.08-.08-.18-.08-.29v-19.34c0-.1,.02-.19,.08-.28,.05-.09,.14-.16,.28-.21,.14-.06,.32-.1,.55-.13,.23-.03,.52-.04,.86-.04s.65,.01,.88,.04,.41,.07,.54,.13,.22,.13,.28,.21c.06,.09,.09,.18,.09,.28v19.34Z"/><path d="M493.4,111.37c0,.56-.14,.96-.42,1.19s-.6,.35-.96,.35h-12.73c0,1.07,.11,2.04,.32,2.9s.58,1.6,1.08,2.21c.5,.62,1.16,1.09,1.96,1.42,.81,.33,1.79,.49,2.96,.49,.92,0,1.74-.08,2.46-.23s1.34-.32,1.87-.5c.53-.19,.96-.35,1.3-.5s.59-.23,.77-.23c.1,0,.19,.03,.27,.08s.14,.13,.18,.23c.04,.1,.08,.24,.1,.42,.02,.18,.03,.4,.03,.66,0,.19,0,.35-.02,.48-.01,.14-.03,.26-.05,.37s-.06,.2-.11,.29c-.05,.09-.11,.17-.19,.25s-.31,.21-.7,.39-.89,.35-1.5,.53c-.62,.17-1.33,.33-2.14,.46-.81,.14-1.67,.2-2.59,.2-1.59,0-2.98-.22-4.18-.67-1.2-.44-2.2-1.1-3.02-1.98-.82-.87-1.43-1.97-1.85-3.29s-.62-2.85-.62-4.6,.21-3.15,.64-4.48c.43-1.32,1.05-2.45,1.86-3.37,.81-.92,1.79-1.63,2.93-2.13,1.15-.49,2.43-.74,3.85-.74,1.52,0,2.81,.24,3.88,.73,1.07,.49,1.94,1.14,2.63,1.97,.69,.82,1.19,1.79,1.51,2.9s.48,2.3,.48,3.56v.64h0Zm-3.57-1.05c.04-1.86-.37-3.32-1.24-4.38s-2.17-1.59-3.88-1.59c-.88,0-1.65,.17-2.31,.49-.66,.33-1.22,.77-1.66,1.31-.45,.54-.79,1.18-1.04,1.9s-.38,1.48-.41,2.27h10.54Z"/><path d="M523.56,120.8c0,.29-.01,.53-.04,.72-.03,.19-.08,.36-.14,.49-.06,.14-.14,.24-.24,.3-.09,.06-.2,.1-.33,.1h-12.29c-.33,0-.64-.11-.93-.33-.29-.22-.44-.61-.44-1.17v-25.74c0-.11,.03-.21,.09-.3,.06-.09,.16-.15,.3-.2,.14-.05,.34-.09,.58-.13s.54-.05,.88-.05,.66,.02,.89,.05c.24,.04,.43,.08,.57,.13,.14,.05,.24,.12,.3,.2,.06,.09,.09,.19,.09,.3v24.04h9.97c.13,0,.24,.03,.33,.1,.09,.06,.17,.16,.24,.28,.06,.12,.11,.28,.14,.48,.03,.2,.04,.44,.04,.73h0Z"/><path d="M543.8,121.87c0,.11-.03,.21-.08,.29s-.14,.15-.27,.2-.3,.1-.5,.13c-.21,.03-.46,.04-.76,.04-.33,0-.6-.01-.81-.04s-.37-.07-.49-.13-.2-.12-.25-.2c-.04-.08-.06-.18-.06-.29v-2.56c-1.1,1.22-2.19,2.11-3.27,2.66s-2.16,.84-3.27,.84c-1.29,0-2.37-.21-3.25-.64s-1.59-1.01-2.14-1.75c-.54-.74-.93-1.6-1.17-2.58s-.35-2.17-.35-3.58v-11.73c0-.11,.02-.21,.08-.29,.05-.08,.15-.15,.29-.21,.14-.06,.33-.11,.56-.13s.52-.03,.86-.03,.63,.01,.86,.03,.41,.06,.55,.13c.14,.06,.23,.14,.29,.21,.06,.08,.09,.18,.09,.29v11.26c0,1.13,.08,2.04,.25,2.72,.16,.68,.42,1.26,.75,1.74,.34,.48,.76,.85,1.28,1.12,.52,.27,1.12,.4,1.8,.4,.89,0,1.77-.31,2.65-.95,.88-.63,1.82-1.55,2.8-2.77v-13.51c0-.11,.02-.21,.08-.29,.05-.08,.15-.15,.29-.21,.14-.06,.33-.11,.55-.13s.51-.03,.87-.03,.63,.01,.86,.03,.41,.06,.54,.13,.23,.14,.29,.21c.06,.08,.1,.18,.1,.29v19.34h-.02Z"/><path d="M567,121.87c0,.11-.03,.21-.09,.29s-.15,.15-.28,.2-.31,.1-.54,.13-.52,.04-.86,.04-.65-.01-.88-.04-.41-.07-.54-.13-.22-.12-.28-.2c-.06-.08-.09-.18-.09-.29v-11.32c0-1.1-.09-1.99-.26-2.66-.17-.67-.42-1.25-.75-1.74s-.76-.86-1.28-1.12-1.13-.39-1.82-.39c-.89,0-1.78,.32-2.66,.95-.89,.63-1.82,1.55-2.79,2.77v13.51c0,.11-.03,.21-.09,.29s-.15,.15-.28,.2-.31,.1-.54,.13-.52,.04-.88,.04-.63-.01-.86-.04-.41-.07-.55-.13-.23-.12-.28-.2c-.05-.08-.08-.18-.08-.29v-19.34c0-.11,.02-.21,.06-.29s.13-.15,.26-.21,.29-.11,.49-.13,.47-.03,.79-.03,.58,.01,.78,.03c.21,.02,.37,.06,.48,.13,.11,.06,.2,.14,.25,.21,.05,.08,.08,.18,.08,.29v2.56c1.09-1.22,2.17-2.11,3.25-2.67,1.08-.57,2.17-.85,3.28-.85,1.29,0,2.37,.22,3.25,.66s1.59,1.02,2.14,1.75c.54,.73,.93,1.59,1.17,2.57s.35,2.16,.35,3.53v11.79h.05Z"/><path d="M589.63,103.42c0,.5-.07,.86-.2,1.08-.14,.22-.31,.33-.53,.33h-2.77c.5,.52,.85,1.08,1.05,1.71,.2,.62,.3,1.27,.3,1.94,0,1.12-.18,2.11-.54,2.96-.36,.86-.87,1.59-1.54,2.18-.67,.59-1.46,1.05-2.37,1.36-.92,.32-1.93,.47-3.05,.47-.79,0-1.54-.1-2.25-.31s-1.26-.47-1.64-.78c-.26,.26-.47,.55-.63,.88-.17,.33-.25,.71-.25,1.14,0,.5,.23,.92,.7,1.25,.47,.33,1.08,.51,1.86,.54l5.05,.21c.96,.03,1.84,.16,2.64,.4s1.5,.57,2.08,1.01c.59,.44,1.05,.97,1.38,1.61s.49,1.38,.49,2.22c0,.89-.19,1.73-.56,2.54-.37,.8-.94,1.51-1.71,2.12s-1.74,1.09-2.93,1.44-2.59,.53-4.21,.53-2.89-.13-3.99-.4c-1.1-.27-1.99-.63-2.7-1.08-.7-.46-1.21-1.01-1.53-1.64-.32-.64-.47-1.33-.47-2.07,0-.47,.06-.93,.17-1.38,.11-.44,.29-.87,.53-1.27s.53-.78,.88-1.15,.76-.73,1.21-1.08c-.7-.36-1.22-.81-1.56-1.35s-.5-1.13-.5-1.76c0-.87,.18-1.65,.54-2.34,.36-.69,.8-1.3,1.33-1.85-.44-.53-.79-1.13-1.05-1.79s-.39-1.47-.39-2.42c0-1.1,.19-2.09,.56-2.96s.89-1.61,1.55-2.21,1.45-1.06,2.37-1.39,1.93-.48,3.02-.48c.59,0,1.13,.03,1.64,.1,.51,.06,.98,.15,1.43,.27h5.84c.24,0,.43,.12,.55,.35,.12,.24,.18,.6,.18,1.08h.02Zm-3.76,20.4c0-.83-.34-1.47-1.02-1.92s-1.6-.69-2.76-.72l-5.01-.17c-.46,.36-.83,.7-1.13,1.02-.29,.32-.53,.63-.7,.92s-.29,.58-.35,.87c-.06,.29-.1,.58-.1,.88,0,.93,.47,1.64,1.42,2.12s2.26,.72,3.95,.72c1.07,0,1.97-.1,2.7-.31,.72-.21,1.31-.48,1.75-.83,.44-.34,.76-.74,.96-1.18,.19-.44,.29-.91,.29-1.4h0Zm-1.78-15.32c0-1.32-.36-2.35-1.08-3.08-.72-.74-1.75-1.11-3.08-1.11-.69,0-1.29,.11-1.79,.34-.51,.23-.93,.54-1.27,.95-.34,.4-.59,.86-.75,1.39-.17,.52-.25,1.07-.25,1.64,0,1.27,.36,2.28,1.08,3.01,.72,.73,1.74,1.1,3.04,1.1,.7,0,1.31-.11,1.83-.33s.94-.53,1.28-.92,.59-.85,.75-1.36c.16-.52,.25-1.05,.25-1.61v-.02Z"/><path d="M610.32,111.37c0,.56-.14,.96-.42,1.19s-.6,.35-.96,.35h-12.73c0,1.07,.11,2.04,.32,2.9s.58,1.6,1.08,2.21c.5,.62,1.16,1.09,1.96,1.42,.81,.33,1.79,.49,2.96,.49,.92,0,1.74-.08,2.46-.23s1.34-.32,1.87-.5c.53-.19,.96-.35,1.3-.5s.59-.23,.77-.23c.1,0,.19,.03,.27,.08s.14,.13,.18,.23c.04,.1,.08,.24,.1,.42,.02,.18,.03,.4,.03,.66,0,.19,0,.35-.02,.48-.01,.14-.03,.26-.05,.37s-.06,.2-.11,.29c-.05,.09-.11,.17-.19,.25s-.31,.21-.7,.39-.89,.35-1.5,.53c-.62,.17-1.33,.33-2.14,.46-.81,.14-1.67,.2-2.59,.2-1.59,0-2.98-.22-4.18-.67-1.2-.44-2.2-1.1-3.02-1.98-.82-.87-1.43-1.97-1.85-3.29s-.62-2.85-.62-4.6,.21-3.15,.64-4.48c.43-1.32,1.05-2.45,1.86-3.37,.81-.92,1.79-1.63,2.93-2.13,1.15-.49,2.43-.74,3.85-.74,1.52,0,2.81,.24,3.88,.73,1.07,.49,1.94,1.14,2.63,1.97,.69,.82,1.19,1.79,1.51,2.9s.48,2.3,.48,3.56v.64h0Zm-3.57-1.05c.04-1.86-.37-3.32-1.24-4.38s-2.17-1.59-3.88-1.59c-.88,0-1.65,.17-2.31,.49-.66,.33-1.22,.77-1.66,1.31-.45,.54-.79,1.18-1.04,1.9s-.38,1.48-.41,2.27h10.54Z"/><path d="M641.51,102.49c0,.06,0,.12-.01,.18,0,.06-.02,.13-.03,.2s-.03,.15-.05,.24-.05,.18-.08,.28l-6.6,18.37c-.06,.16-.13,.29-.23,.39-.09,.1-.23,.18-.42,.24s-.42,.1-.71,.12c-.29,.02-.64,.03-1.07,.03s-.79-.01-1.07-.04c-.29-.03-.52-.07-.7-.13s-.32-.14-.42-.24-.18-.22-.24-.37l-6.57-18.37c-.06-.17-.1-.32-.14-.45-.04-.13-.06-.23-.06-.29s-.01-.12-.01-.16c0-.11,.03-.21,.09-.3,.06-.09,.15-.15,.29-.2,.14-.05,.31-.08,.54-.1,.22-.01,.5-.02,.83-.02,.42,0,.75,.01,1,.03s.44,.06,.58,.12c.14,.06,.24,.13,.3,.21s.12,.19,.18,.32l5.46,15.94,.09,.26,.06-.26,5.39-15.94c.03-.13,.08-.24,.15-.32,.07-.09,.18-.16,.31-.21,.14-.06,.32-.1,.56-.12s.55-.03,.93-.03c.33,0,.6,0,.82,.02,.21,.01,.38,.05,.5,.11s.21,.13,.26,.2c.05,.08,.08,.18,.08,.29h-.01Z"/><path d="M663.1,111.99c0,1.58-.21,3.03-.62,4.35-.42,1.33-1.04,2.47-1.86,3.43s-1.85,1.71-3.09,2.25c-1.24,.54-2.67,.81-4.31,.81s-2.98-.24-4.16-.71-2.17-1.16-2.95-2.06c-.79-.9-1.38-2-1.76-3.29s-.58-2.75-.58-4.38,.2-3.03,.61-4.35,1.02-2.47,1.85-3.43c.82-.96,1.85-1.7,3.08-2.23,1.23-.53,2.67-.79,4.32-.79s2.98,.24,4.16,.71,2.17,1.16,2.95,2.06c.79,.9,1.38,2,1.77,3.29s.59,2.74,.59,4.36v-.02Zm-3.67,.24c0-1.05-.1-2.03-.29-2.96-.2-.93-.52-1.75-.96-2.45-.45-.7-1.06-1.26-1.82-1.67s-1.72-.61-2.86-.61c-1.06,0-1.96,.19-2.72,.56-.76,.37-1.38,.9-1.88,1.58-.49,.68-.86,1.49-1.09,2.42-.24,.93-.36,1.95-.36,3.05s.1,2.06,.29,2.99,.52,1.74,.98,2.44c.46,.69,1.07,1.25,1.83,1.65,.77,.41,1.72,.61,2.86,.61,1.04,0,1.94-.19,2.71-.56,.77-.37,1.39-.9,1.89-1.57,.49-.67,.85-1.48,1.08-2.41,.23-.93,.35-1.96,.35-3.07h-.01Z"/><path d="M671.87,121.87c0,.11-.03,.21-.09,.29s-.15,.15-.28,.2-.31,.1-.54,.13-.52,.04-.88,.04-.63-.01-.86-.04-.41-.07-.55-.13-.23-.12-.28-.2c-.05-.08-.08-.18-.08-.29v-28.7c0-.11,.02-.21,.08-.3,.05-.09,.14-.16,.28-.21,.14-.06,.32-.1,.55-.13s.52-.04,.86-.04,.65,.01,.88,.04,.41,.07,.54,.13,.22,.13,.28,.21c.06,.09,.09,.19,.09,.3v28.7Z"/><path d="M681.97,121.87c0,.11-.03,.21-.09,.29s-.15,.15-.28,.2-.31,.1-.54,.13-.52,.04-.88,.04-.63-.01-.86-.04-.41-.07-.55-.13-.23-.12-.28-.2c-.05-.08-.08-.18-.08-.29v-28.7c0-.11,.02-.21,.08-.3,.05-.09,.14-.16,.28-.21,.14-.06,.32-.1,.55-.13s.52-.04,.86-.04,.65,.01,.88,.04,.41,.07,.54,.13,.22,.13,.28,.21c.06,.09,.09,.19,.09,.3v28.7Z"/><path d="M702.42,96c0,.83-.16,1.4-.47,1.7-.32,.3-.9,.45-1.74,.45s-1.4-.15-1.71-.44-.46-.85-.46-1.67,.16-1.4,.47-1.7c.31-.3,.9-.45,1.74-.45s1.4,.15,1.71,.44,.46,.85,.46,1.67Zm-.41,25.87c0,.11-.03,.21-.09,.29s-.15,.15-.28,.2-.31,.1-.54,.13-.52,.04-.88,.04-.63-.01-.86-.04-.41-.07-.55-.13-.23-.12-.28-.2c-.05-.08-.08-.18-.08-.29v-19.34c0-.1,.02-.19,.08-.28,.05-.09,.14-.16,.28-.21,.14-.06,.32-.1,.55-.13s.52-.04,.86-.04,.65,.01,.88,.04,.41,.07,.54,.13,.22,.13,.28,.21c.06,.09,.09,.18,.09,.28v19.34Z"/><path d="M720.7,116.61c0,.99-.18,1.87-.55,2.64s-.88,1.43-1.56,1.96c-.67,.53-1.48,.93-2.41,1.2s-1.96,.41-3.07,.41c-.69,0-1.34-.05-1.97-.16s-1.18-.24-1.68-.41-.91-.34-1.26-.52c-.34-.18-.59-.34-.75-.48-.16-.14-.27-.34-.34-.6s-.11-.61-.11-1.05c0-.27,.01-.5,.04-.69,.03-.19,.06-.34,.11-.45,.04-.11,.1-.2,.18-.25s.17-.08,.27-.08c.16,0,.39,.1,.7,.29s.69,.4,1.14,.63c.45,.23,.98,.44,1.6,.63,.62,.19,1.32,.29,2.13,.29,.6,0,1.15-.06,1.63-.19,.49-.13,.91-.32,1.27-.57,.36-.25,.63-.57,.83-.96s.29-.84,.29-1.38-.14-1-.42-1.38c-.28-.37-.65-.7-1.11-.99-.46-.29-.97-.54-1.55-.76-.57-.22-1.16-.45-1.77-.7-.61-.24-1.2-.52-1.78-.83-.58-.31-1.1-.68-1.56-1.13-.46-.44-.83-.97-1.11-1.59-.28-.62-.42-1.35-.42-2.21,0-.76,.15-1.49,.44-2.18s.73-1.3,1.32-1.83c.59-.52,1.32-.94,2.2-1.26,.88-.31,1.91-.47,3.08-.47,.52,0,1.03,.04,1.55,.13s.98,.19,1.4,.32c.42,.13,.77,.27,1.06,.42s.52,.28,.67,.4c.15,.11,.25,.21,.3,.3,.05,.09,.09,.18,.11,.29s.04,.24,.06,.4,.03,.35,.03,.58-.01,.46-.03,.63c-.02,.18-.06,.33-.11,.44s-.11,.2-.18,.25-.15,.08-.24,.08c-.13,0-.32-.08-.56-.24-.24-.16-.56-.33-.95-.5-.39-.18-.84-.35-1.36-.5-.52-.16-1.12-.24-1.79-.24-.6,0-1.13,.07-1.59,.2-.46,.14-.83,.33-1.13,.58-.29,.25-.52,.55-.67,.89s-.23,.72-.23,1.12c0,.56,.14,1.03,.43,1.41,.29,.38,.66,.71,1.12,1s.98,.54,1.57,.77c.59,.23,1.19,.47,1.79,.71,.61,.24,1.21,.52,1.8,.82,.59,.3,1.12,.67,1.58,1.1s.83,.95,1.11,1.55,.42,1.32,.42,2.15h.03Z"/><path d="M735.33,120.45c0,.42-.03,.75-.09,.99s-.14,.42-.26,.54-.29,.22-.52,.32c-.23,.1-.49,.18-.78,.25-.29,.06-.61,.12-.93,.16-.33,.04-.66,.06-.99,.06-1,0-1.86-.13-2.58-.4-.72-.26-1.3-.67-1.76-1.2-.46-.54-.79-1.22-1-2.04s-.31-1.79-.31-2.91v-11.3h-2.71c-.21,0-.39-.11-.52-.34-.13-.23-.19-.6-.19-1.12,0-.27,.02-.5,.05-.69,.04-.19,.08-.34,.14-.46s.13-.21,.23-.26c.09-.05,.2-.08,.31-.08h2.69v-4.6c0-.1,.02-.19,.08-.28,.05-.09,.14-.16,.28-.23,.14-.06,.32-.11,.55-.14s.52-.04,.86-.04,.65,.01,.88,.04,.41,.08,.54,.14,.22,.14,.28,.23c.06,.09,.09,.18,.09,.28v4.6h4.96c.11,0,.21,.03,.3,.08,.09,.05,.16,.14,.23,.26,.06,.12,.11,.28,.14,.46,.03,.19,.04,.42,.04,.69,0,.52-.06,.89-.19,1.12s-.3,.34-.52,.34h-4.96v10.79c0,1.33,.2,2.34,.59,3.02s1.1,1.02,2.12,1.02c.33,0,.62-.03,.88-.1s.49-.13,.69-.2,.37-.14,.52-.2c.14-.06,.27-.1,.39-.1,.07,0,.14,.02,.2,.05,.06,.04,.11,.1,.15,.2,.04,.1,.07,.24,.1,.41,.03,.17,.04,.39,.04,.64h-.02Z"/><g><path d="M799,67.03c0,.99-.18,1.87-.55,2.64s-.88,1.43-1.56,1.96c-.67,.53-1.48,.93-2.41,1.2s-1.96,.41-3.07,.41c-.69,0-1.34-.05-1.97-.16s-1.18-.24-1.68-.41-.91-.34-1.26-.52c-.34-.18-.59-.34-.75-.48-.16-.14-.27-.34-.34-.6s-.11-.61-.11-1.05c0-.27,.01-.5,.04-.69,.03-.19,.06-.34,.11-.45,.04-.11,.1-.2,.18-.25s.17-.08,.27-.08c.16,0,.39,.1,.7,.29s.69,.4,1.14,.63c.45,.23,.98,.44,1.6,.63,.62,.19,1.32,.29,2.13,.29,.6,0,1.15-.06,1.63-.19,.49-.13,.91-.32,1.27-.57,.36-.25,.63-.57,.83-.96s.29-.84,.29-1.38-.14-1-.42-1.38c-.28-.37-.65-.7-1.11-.99-.46-.29-.97-.54-1.55-.76-.57-.22-1.16-.45-1.77-.7-.61-.24-1.2-.52-1.78-.83-.58-.31-1.1-.68-1.56-1.13-.46-.44-.83-.97-1.11-1.59-.28-.62-.42-1.35-.42-2.21,0-.76,.15-1.49,.44-2.18s.73-1.3,1.32-1.83c.59-.52,1.32-.94,2.2-1.26,.88-.31,1.91-.47,3.08-.47,.52,0,1.03,.04,1.55,.13s.98,.19,1.4,.32c.42,.13,.77,.27,1.06,.42,.29,.15,.52,.28,.67,.4,.15,.11,.25,.21,.3,.3s.09,.18,.11,.29,.04,.24,.06,.4,.03,.35,.03,.58-.01,.46-.03,.63c-.02,.18-.06,.33-.11,.44-.05,.11-.11,.2-.18,.25s-.15,.08-.24,.08c-.13,0-.32-.08-.56-.24s-.56-.33-.95-.5c-.39-.18-.84-.35-1.36-.5-.52-.16-1.12-.24-1.79-.24-.6,0-1.13,.07-1.59,.2-.46,.14-.83,.33-1.13,.58-.29,.25-.52,.55-.67,.89s-.23,.72-.23,1.12c0,.56,.14,1.03,.43,1.41s.66,.71,1.12,1,.98,.54,1.57,.77c.59,.23,1.19,.47,1.79,.71,.61,.24,1.21,.52,1.8,.82,.59,.3,1.12,.67,1.58,1.1s.83,.95,1.11,1.55,.42,1.32,.42,2.15h.03Z"/><path d="M813.63,70.88c0,.42-.03,.75-.09,.99s-.14,.42-.26,.54-.29,.22-.52,.32c-.23,.1-.49,.18-.78,.25-.29,.06-.61,.12-.93,.16-.33,.04-.66,.06-.99,.06-1,0-1.86-.13-2.58-.4-.72-.26-1.3-.67-1.76-1.2-.46-.54-.79-1.22-1-2.04s-.31-1.79-.31-2.91v-11.3h-2.71c-.21,0-.39-.11-.52-.34s-.19-.6-.19-1.12c0-.27,.02-.5,.05-.69,.04-.19,.08-.34,.14-.46s.13-.21,.23-.26c.09-.05,.2-.08,.31-.08h2.69v-4.6c0-.1,.02-.19,.08-.28,.05-.09,.14-.16,.28-.23,.14-.06,.32-.11,.55-.14s.52-.04,.86-.04,.65,0,.88,.04c.23,.03,.41,.08,.54,.14s.22,.14,.28,.23c.06,.09,.09,.18,.09,.28v4.6h4.96c.11,0,.21,.03,.3,.08,.09,.05,.16,.14,.23,.26,.06,.12,.11,.28,.14,.46,.03,.19,.04,.42,.04,.69,0,.52-.06,.89-.19,1.12s-.3,.34-.52,.34h-4.96v10.79c0,1.33,.2,2.34,.59,3.02s1.1,1.02,2.12,1.02c.33,0,.62-.03,.88-.1s.49-.13,.69-.2,.37-.14,.52-.2c.14-.06,.27-.1,.39-.1,.07,0,.14,.02,.2,.05,.06,.04,.11,.1,.15,.2,.04,.1,.07,.24,.1,.41,.03,.17,.04,.39,.04,.64h-.02Z"/><path d="M832.34,72.32c0,.17-.06,.3-.17,.39s-.27,.15-.47,.19c-.2,.04-.49,.06-.88,.06s-.67-.02-.89-.06c-.22-.04-.38-.11-.48-.19-.1-.09-.15-.21-.15-.39v-1.93c-.85,.9-1.79,1.6-2.83,2.11-1.04,.5-2.14,.75-3.3,.75-1.02,0-1.94-.13-2.76-.4-.82-.26-1.53-.65-2.11-1.15-.58-.5-1.03-1.12-1.35-1.85s-.48-1.56-.48-2.49c0-1.09,.22-2.03,.67-2.84,.44-.8,1.08-1.47,1.91-2,.83-.53,1.85-.93,3.05-1.19s2.56-.4,4.06-.4h2.66v-1.5c0-.74-.08-1.4-.24-1.98-.16-.57-.41-1.05-.76-1.43-.35-.38-.81-.67-1.36-.86s-1.25-.29-2.06-.29c-.87,0-1.66,.1-2.35,.31-.69,.21-1.3,.44-1.83,.69-.52,.25-.96,.48-1.31,.69s-.61,.31-.78,.31c-.11,0-.21-.03-.3-.09-.09-.06-.16-.14-.23-.26-.06-.11-.11-.26-.14-.44s-.04-.38-.04-.59c0-.36,.02-.64,.08-.85,.05-.21,.17-.4,.37-.59,.19-.19,.53-.4,1-.66,.47-.25,1.02-.48,1.63-.69,.62-.21,1.29-.38,2.02-.52,.73-.14,1.47-.2,2.21-.2,1.39,0,2.57,.16,3.54,.47,.97,.32,1.76,.78,2.36,1.39s1.04,1.36,1.31,2.27c.27,.9,.41,1.96,.41,3.16v13.04h-.01Zm-3.52-8.82h-3.03c-.97,0-1.82,.08-2.54,.25s-1.31,.41-1.78,.73-.82,.71-1.04,1.16c-.22,.45-.33,.97-.33,1.56,0,1,.32,1.8,.96,2.4,.64,.59,1.53,.89,2.67,.89,.93,0,1.79-.24,2.59-.71s1.63-1.2,2.5-2.17v-4.1h0Z"/><path d="M850.15,54.23c0,.32,0,.58-.02,.79-.01,.21-.04,.38-.09,.5-.04,.12-.1,.21-.16,.28s-.15,.1-.27,.1-.25-.03-.42-.1c-.17-.06-.35-.13-.56-.19-.21-.06-.44-.12-.7-.18s-.54-.09-.84-.09c-.36,0-.71,.07-1.05,.21-.34,.14-.71,.38-1.08,.71-.38,.33-.78,.77-1.19,1.31-.42,.54-.87,1.21-1.38,2v12.72c0,.11-.03,.21-.09,.29s-.15,.15-.28,.2-.31,.1-.54,.13-.52,.04-.88,.04-.63-.01-.86-.04-.41-.07-.55-.13-.23-.12-.28-.2c-.05-.08-.08-.18-.08-.29v-19.34c0-.11,.02-.21,.06-.29s.13-.15,.26-.21,.29-.11,.49-.13,.47-.03,.79-.03,.58,0,.78,.03c.21,.02,.37,.06,.48,.13,.11,.06,.2,.14,.25,.21,.05,.08,.08,.18,.08,.29v2.81c.53-.77,1.03-1.4,1.49-1.89,.47-.49,.91-.87,1.32-1.15,.42-.28,.83-.47,1.24-.58s.82-.16,1.24-.16c.19,0,.4,0,.63,.03s.48,.06,.74,.12c.26,.06,.49,.12,.7,.19s.35,.14,.44,.21,.14,.14,.17,.2c.03,.06,.05,.15,.08,.25,.02,.1,.04,.25,.04,.44s.01,.46,.01,.78l.03,.03Z"/><path d="M870.07,72.27c0,.11-.03,.21-.09,.3-.06,.09-.15,.16-.29,.21-.14,.06-.33,.1-.57,.13s-.55,.04-.92,.04-.71-.01-.96-.03-.46-.06-.63-.11-.31-.12-.42-.21-.2-.2-.29-.33l-8.16-10.7v10.72c0,.11-.03,.21-.09,.29s-.15,.15-.28,.2-.31,.1-.54,.13-.52,.04-.88,.04-.63-.01-.86-.04-.41-.07-.55-.13-.23-.12-.28-.2c-.05-.08-.08-.18-.08-.29v-28.7c0-.11,.02-.21,.08-.3,.05-.09,.14-.16,.28-.21,.14-.06,.32-.1,.55-.13,.23-.03,.52-.04,.86-.04s.65,0,.88,.04c.23,.03,.41,.07,.54,.13s.22,.13,.28,.21c.06,.09,.09,.19,.09,.3v17.49l7.3-8.04c.11-.14,.24-.26,.37-.35s.28-.17,.46-.24c.18-.06,.39-.11,.63-.13s.54-.03,.88-.03,.66,0,.9,.03c.24,.02,.44,.06,.59,.11s.26,.11,.32,.19c.06,.08,.1,.18,.1,.31,0,.17-.05,.34-.14,.52-.09,.17-.25,.37-.46,.6l-7,7,7.86,10.21c.19,.24,.32,.44,.4,.59,.08,.15,.12,.29,.12,.42h0Z"/><path d="M898.71,72.32c0,.17-.06,.3-.17,.39s-.27,.15-.47,.19c-.2,.04-.49,.06-.88,.06s-.67-.02-.89-.06c-.22-.04-.38-.11-.48-.19-.1-.09-.15-.21-.15-.39v-1.93c-.85,.9-1.79,1.6-2.83,2.11-1.04,.5-2.14,.75-3.3,.75-1.02,0-1.94-.13-2.76-.4-.82-.26-1.53-.65-2.11-1.15-.58-.5-1.03-1.12-1.35-1.85s-.48-1.56-.48-2.49c0-1.09,.22-2.03,.67-2.84,.44-.8,1.08-1.47,1.91-2,.83-.53,1.85-.93,3.05-1.19s2.56-.4,4.06-.4h2.66v-1.5c0-.74-.08-1.4-.24-1.98-.16-.57-.41-1.05-.76-1.43-.35-.38-.81-.67-1.36-.86s-1.25-.29-2.06-.29c-.87,0-1.66,.1-2.35,.31-.69,.21-1.3,.44-1.83,.69-.52,.25-.96,.48-1.31,.69s-.61,.31-.78,.31c-.11,0-.21-.03-.3-.09-.09-.06-.16-.14-.23-.26-.06-.11-.11-.26-.14-.44s-.04-.38-.04-.59c0-.36,.02-.64,.08-.85,.05-.21,.17-.4,.37-.59,.19-.19,.53-.4,1-.66,.47-.25,1.02-.48,1.63-.69,.62-.21,1.29-.38,2.02-.52,.73-.14,1.47-.2,2.21-.2,1.39,0,2.57,.16,3.54,.47,.97,.32,1.76,.78,2.36,1.39s1.04,1.36,1.31,2.27c.27,.9,.41,1.96,.41,3.16v13.04h-.01Zm-3.52-8.82h-3.03c-.97,0-1.82,.08-2.54,.25s-1.31,.41-1.78,.73-.82,.71-1.04,1.16c-.22,.45-.33,.97-.33,1.56,0,1,.32,1.8,.96,2.4,.64,.59,1.53,.89,2.67,.89,.93,0,1.79-.24,2.59-.71s1.63-1.2,2.5-2.17v-4.1h0Z"/><path d="M921.78,72.3c0,.11-.03,.21-.08,.29s-.14,.15-.27,.2-.3,.1-.5,.13c-.21,.03-.46,.04-.76,.04-.33,0-.6-.01-.81-.04s-.37-.07-.49-.13-.2-.12-.25-.2c-.04-.08-.06-.18-.06-.29v-2.56c-1.1,1.22-2.19,2.11-3.27,2.66s-2.16,.84-3.27,.84c-1.29,0-2.37-.21-3.25-.64s-1.59-1.01-2.14-1.75c-.54-.74-.93-1.6-1.17-2.58s-.35-2.17-.35-3.58v-11.73c0-.11,.02-.21,.08-.29,.05-.08,.15-.15,.29-.21,.14-.06,.33-.11,.56-.13s.52-.03,.86-.03,.63,0,.86,.03,.41,.06,.55,.13c.14,.06,.23,.14,.29,.21,.06,.08,.09,.18,.09,.29v11.26c0,1.13,.08,2.04,.25,2.72,.16,.68,.42,1.26,.75,1.74,.34,.48,.76,.85,1.28,1.12,.52,.27,1.12,.4,1.8,.4,.89,0,1.77-.31,2.65-.95,.88-.63,1.82-1.55,2.8-2.77v-13.51c0-.11,.02-.21,.08-.29,.05-.08,.15-.15,.29-.21,.14-.06,.33-.11,.55-.13s.51-.03,.87-.03,.63,0,.86,.03,.41,.06,.54,.13,.23,.14,.29,.21c.06,.08,.1,.18,.1,.29v19.34h-.02Z"/><path d="M940.48,67.03c0,.99-.18,1.87-.55,2.64s-.88,1.43-1.56,1.96c-.67,.53-1.48,.93-2.41,1.2s-1.96,.41-3.07,.41c-.69,0-1.34-.05-1.97-.16s-1.18-.24-1.68-.41-.91-.34-1.26-.52c-.34-.18-.59-.34-.75-.48-.16-.14-.27-.34-.34-.6s-.11-.61-.11-1.05c0-.27,.01-.5,.04-.69,.03-.19,.06-.34,.11-.45,.04-.11,.1-.2,.18-.25s.17-.08,.27-.08c.16,0,.39,.1,.7,.29s.69,.4,1.14,.63c.45,.23,.98,.44,1.6,.63,.62,.19,1.32,.29,2.13,.29,.6,0,1.15-.06,1.63-.19,.49-.13,.91-.32,1.27-.57,.36-.25,.63-.57,.83-.96s.29-.84,.29-1.38-.14-1-.42-1.38c-.28-.37-.65-.7-1.11-.99-.46-.29-.97-.54-1.55-.76-.57-.22-1.16-.45-1.77-.7-.61-.24-1.2-.52-1.78-.83-.58-.31-1.1-.68-1.56-1.13-.46-.44-.83-.97-1.11-1.59-.28-.62-.42-1.35-.42-2.21,0-.76,.15-1.49,.44-2.18s.73-1.3,1.32-1.83c.59-.52,1.32-.94,2.2-1.26,.88-.31,1.91-.47,3.08-.47,.52,0,1.03,.04,1.55,.13s.98,.19,1.4,.32c.42,.13,.77,.27,1.06,.42,.29,.15,.52,.28,.67,.4,.15,.11,.25,.21,.3,.3s.09,.18,.11,.29,.04,.24,.06,.4,.03,.35,.03,.58-.01,.46-.03,.63c-.02,.18-.06,.33-.11,.44-.05,.11-.11,.2-.18,.25s-.15,.08-.24,.08c-.13,0-.32-.08-.56-.24s-.56-.33-.95-.5c-.39-.18-.84-.35-1.36-.5-.52-.16-1.12-.24-1.79-.24-.6,0-1.13,.07-1.59,.2-.46,.14-.83,.33-1.13,.58-.29,.25-.52,.55-.67,.89s-.23,.72-.23,1.12c0,.56,.14,1.03,.43,1.41s.66,.71,1.12,1,.98,.54,1.57,.77c.59,.23,1.19,.47,1.79,.71,.61,.24,1.21,.52,1.8,.82,.59,.3,1.12,.67,1.58,1.1s.83,.95,1.11,1.55,.42,1.32,.42,2.15h.03Z"/><path d="M960.11,72.32c0,.17-.06,.3-.17,.39s-.27,.15-.47,.19c-.2,.04-.49,.06-.88,.06s-.67-.02-.89-.06c-.22-.04-.38-.11-.48-.19-.1-.09-.15-.21-.15-.39v-1.93c-.85,.9-1.79,1.6-2.83,2.11-1.04,.5-2.14,.75-3.3,.75-1.02,0-1.94-.13-2.76-.4-.82-.26-1.53-.65-2.11-1.15-.58-.5-1.03-1.12-1.35-1.85s-.48-1.56-.48-2.49c0-1.09,.22-2.03,.67-2.84,.44-.8,1.08-1.47,1.91-2,.83-.53,1.85-.93,3.05-1.19s2.56-.4,4.06-.4h2.66v-1.5c0-.74-.08-1.4-.24-1.98-.16-.57-.41-1.05-.76-1.43-.35-.38-.81-.67-1.36-.86s-1.25-.29-2.06-.29c-.87,0-1.66,.1-2.35,.31-.69,.21-1.3,.44-1.83,.69-.52,.25-.96,.48-1.31,.69s-.61,.31-.78,.31c-.11,0-.21-.03-.3-.09-.09-.06-.16-.14-.23-.26-.06-.11-.11-.26-.14-.44s-.04-.38-.04-.59c0-.36,.02-.64,.08-.85,.05-.21,.17-.4,.37-.59,.19-.19,.53-.4,1-.66,.47-.25,1.02-.48,1.63-.69,.62-.21,1.29-.38,2.02-.52,.73-.14,1.47-.2,2.21-.2,1.39,0,2.57,.16,3.54,.47,.97,.32,1.76,.78,2.36,1.39s1.04,1.36,1.31,2.27c.27,.9,.41,1.96,.41,3.16v13.04h-.01Zm-3.52-8.82h-3.03c-.97,0-1.82,.08-2.54,.25s-1.31,.41-1.78,.73-.82,.71-1.04,1.16c-.22,.45-.33,.97-.33,1.56,0,1,.32,1.8,.96,2.4,.64,.59,1.53,.89,2.67,.89,.93,0,1.79-.24,2.59-.71s1.63-1.2,2.5-2.17v-4.1h0Z"/><path d="M976.27,70.88c0,.42-.03,.75-.09,.99s-.14,.42-.26,.54-.29,.22-.52,.32c-.23,.1-.49,.18-.78,.25-.29,.06-.61,.12-.93,.16-.33,.04-.66,.06-.99,.06-1,0-1.86-.13-2.58-.4-.72-.26-1.3-.67-1.76-1.2-.46-.54-.79-1.22-1-2.04s-.31-1.79-.31-2.91v-11.3h-2.71c-.21,0-.39-.11-.52-.34s-.19-.6-.19-1.12c0-.27,.02-.5,.05-.69,.04-.19,.08-.34,.14-.46s.13-.21,.23-.26c.09-.05,.2-.08,.31-.08h2.69v-4.6c0-.1,.02-.19,.08-.28,.05-.09,.14-.16,.28-.23,.14-.06,.32-.11,.55-.14s.52-.04,.86-.04,.65,0,.88,.04c.23,.03,.41,.08,.54,.14s.22,.14,.28,.23c.06,.09,.09,.18,.09,.28v4.6h4.96c.11,0,.21,.03,.3,.08,.09,.05,.16,.14,.23,.26,.06,.12,.11,.28,.14,.46,.03,.19,.04,.42,.04,.69,0,.52-.06,.89-.19,1.12s-.3,.34-.52,.34h-4.96v10.79c0,1.33,.2,2.34,.59,3.02s1.1,1.02,2.12,1.02c.33,0,.62-.03,.88-.1s.49-.13,.69-.2,.37-.14,.52-.2c.14-.06,.27-.1,.39-.1,.07,0,.14,.02,.2,.05,.06,.04,.11,.1,.15,.2,.04,.1,.07,.24,.1,.41,.03,.17,.04,.39,.04,.64h-.02Z"/><path d="M1009.63,72.3c0,.11-.03,.21-.09,.29s-.15,.15-.28,.2-.31,.1-.54,.13-.52,.04-.86,.04-.65-.01-.88-.04-.41-.07-.55-.13-.23-.12-.29-.2c-.06-.08-.09-.18-.09-.29v-11.75c0-.82-.07-1.56-.21-2.23s-.37-1.25-.69-1.74-.72-.86-1.2-1.12c-.49-.26-1.06-.39-1.72-.39-.82,0-1.64,.32-2.46,.95s-1.73,1.55-2.72,2.77v13.51c0,.11-.03,.21-.09,.29s-.15,.15-.29,.2c-.14,.06-.32,.1-.55,.13s-.52,.04-.86,.04-.61-.01-.85-.04-.42-.07-.56-.13-.23-.12-.28-.2c-.05-.08-.08-.18-.08-.29v-11.75c0-.82-.08-1.56-.24-2.23s-.39-1.25-.71-1.74-.71-.86-1.19-1.12-1.05-.39-1.71-.39c-.82,0-1.64,.32-2.47,.95-.83,.63-1.73,1.55-2.71,2.77v13.51c0,.11-.03,.21-.09,.29s-.15,.15-.28,.2-.31,.1-.54,.13-.52,.04-.88,.04-.63-.01-.86-.04-.41-.07-.55-.13-.23-.12-.28-.2c-.05-.08-.08-.18-.08-.29v-19.34c0-.11,.02-.21,.06-.29s.13-.15,.26-.21,.29-.11,.49-.13,.47-.03,.79-.03,.58,0,.78,.03c.21,.02,.37,.06,.48,.13,.11,.06,.2,.14,.25,.21,.05,.08,.08,.18,.08,.29v2.56c1.09-1.22,2.14-2.11,3.17-2.67,1.02-.57,2.06-.85,3.1-.85,.8,0,1.52,.09,2.16,.28,.64,.19,1.2,.45,1.69,.78,.49,.34,.9,.74,1.25,1.2,.34,.47,.63,.98,.86,1.56,.64-.7,1.26-1.3,1.84-1.78,.58-.49,1.14-.88,1.68-1.18s1.06-.52,1.57-.66,1.02-.2,1.54-.2c1.25,0,2.29,.22,3.14,.66,.84,.44,1.53,1.02,2.05,1.75,.52,.73,.9,1.59,1.12,2.57s.33,2.02,.33,3.1v12.22h.04Z"/><path d="M1032.6,61.79c0,.56-.14,.96-.42,1.19s-.6,.35-.96,.35h-12.73c0,1.07,.11,2.04,.32,2.9s.58,1.6,1.08,2.21c.5,.62,1.16,1.09,1.96,1.42,.81,.33,1.79,.49,2.96,.49,.92,0,1.74-.08,2.46-.23s1.34-.32,1.87-.5c.53-.19,.96-.35,1.3-.5s.59-.23,.77-.23c.1,0,.19,.03,.27,.08,.08,.05,.14,.13,.18,.23,.04,.1,.08,.24,.1,.42s.03,.4,.03,.66c0,.19,0,.35-.02,.48-.01,.14-.03,.26-.05,.37s-.06,.2-.11,.29c-.05,.09-.11,.17-.19,.25s-.31,.21-.7,.39c-.39,.18-.89,.35-1.5,.53-.62,.17-1.33,.33-2.14,.46-.81,.14-1.67,.2-2.59,.2-1.59,0-2.98-.22-4.18-.67-1.2-.44-2.2-1.1-3.02-1.98-.82-.87-1.43-1.97-1.85-3.29s-.62-2.85-.62-4.6,.21-3.15,.64-4.48c.43-1.32,1.05-2.45,1.86-3.37s1.79-1.63,2.93-2.13c1.15-.49,2.43-.74,3.85-.74,1.52,0,2.81,.24,3.88,.73,1.07,.49,1.94,1.14,2.63,1.97,.69,.82,1.19,1.79,1.51,2.9,.32,1.11,.48,2.3,.48,3.56v.64h0Zm-3.57-1.05c.04-1.86-.37-3.32-1.24-4.38s-2.17-1.59-3.88-1.59c-.88,0-1.65,.17-2.31,.49-.66,.33-1.22,.77-1.66,1.31-.45,.54-.79,1.18-1.04,1.9s-.38,1.48-.41,2.27h10.54Z"/><path d="M1054.64,72.3c0,.11-.03,.21-.09,.29-.06,.08-.15,.15-.28,.2s-.31,.1-.54,.13-.52,.04-.86,.04-.65-.01-.88-.04-.41-.07-.54-.13-.22-.12-.28-.2c-.06-.08-.09-.18-.09-.29v-11.32c0-1.1-.09-1.99-.26-2.66s-.42-1.25-.75-1.74-.76-.86-1.28-1.12-1.13-.39-1.82-.39c-.89,0-1.78,.32-2.66,.95-.89,.63-1.82,1.55-2.79,2.77v13.51c0,.11-.03,.21-.09,.29-.06,.08-.15,.15-.28,.2s-.31,.1-.54,.13-.52,.04-.88,.04-.63-.01-.86-.04-.41-.07-.55-.13-.23-.12-.28-.2c-.05-.08-.08-.18-.08-.29v-19.34c0-.11,.02-.21,.06-.29s.13-.15,.26-.21,.29-.11,.49-.13,.47-.03,.79-.03,.58,0,.78,.03c.21,.02,.37,.06,.48,.13,.11,.06,.2,.14,.25,.21,.05,.08,.08,.18,.08,.29v2.56c1.09-1.22,2.17-2.11,3.25-2.67,1.08-.57,2.17-.85,3.28-.85,1.29,0,2.37,.22,3.25,.66s1.59,1.02,2.14,1.75c.54,.73,.93,1.59,1.17,2.57s.35,2.16,.35,3.53v11.79h.05Z"/></g><path d="M806.03,113.12c0,1.27-.22,2.42-.67,3.45-.44,1.02-1.08,1.9-1.91,2.63-.83,.73-1.85,1.29-3.07,1.69-1.22,.39-2.59,.59-4.12,.59-.93,0-1.8-.08-2.61-.23s-1.53-.33-2.16-.54c-.63-.21-1.15-.42-1.57-.64s-.68-.38-.78-.48c-.11-.1-.19-.2-.25-.3-.06-.1-.11-.22-.15-.37-.04-.14-.08-.32-.1-.53-.02-.21-.03-.46-.03-.76,0-.52,.05-.87,.15-1.07,.1-.2,.25-.3,.44-.3,.13,0,.39,.11,.78,.34,.39,.23,.89,.48,1.5,.74,.61,.27,1.32,.51,2.14,.74,.82,.23,1.72,.34,2.72,.34s1.82-.12,2.56-.37c.73-.24,1.35-.59,1.85-1.03s.87-.97,1.12-1.58,.37-1.27,.37-1.99c0-.79-.16-1.5-.48-2.13s-.78-1.17-1.4-1.63c-.61-.46-1.37-.81-2.26-1.05-.9-.24-1.91-.37-3.05-.37h-2.73c-.12,0-.23-.02-.34-.08-.11-.05-.21-.13-.29-.25-.08-.11-.15-.26-.2-.45-.05-.19-.08-.43-.08-.73,0-.27,.02-.5,.06-.68s.1-.32,.18-.43,.17-.19,.27-.24c.1-.05,.21-.08,.34-.08h2.43c.95,0,1.79-.12,2.55-.37,.75-.24,1.39-.59,1.91-1.05,.52-.46,.92-1.01,1.2-1.64,.28-.64,.42-1.35,.42-2.14,0-.57-.09-1.12-.28-1.64s-.47-.98-.84-1.36c-.37-.39-.85-.69-1.43-.91s-1.25-.33-2.01-.33c-.83,0-1.59,.13-2.29,.38-.69,.25-1.31,.52-1.86,.81-.54,.29-1,.56-1.35,.81-.36,.25-.61,.38-.75,.38-.1,0-.19-.02-.27-.05-.08-.04-.14-.11-.19-.21-.05-.11-.09-.26-.11-.45s-.03-.45-.03-.76c0-.21,0-.4,.02-.57,.01-.16,.04-.31,.09-.43,.04-.12,.09-.23,.15-.33s.15-.22,.29-.35,.41-.33,.83-.59c.42-.26,.93-.51,1.54-.76s1.31-.46,2.11-.63,1.65-.26,2.57-.26c1.29,0,2.42,.17,3.39,.49,.97,.33,1.79,.79,2.44,1.4,.65,.6,1.14,1.32,1.46,2.16s.48,1.77,.48,2.78c0,.87-.11,1.69-.34,2.44-.23,.75-.57,1.42-1.01,2s-.99,1.07-1.63,1.48-1.39,.69-2.23,.85v.04c.96,.1,1.84,.34,2.63,.72,.79,.38,1.48,.86,2.05,1.43s1.02,1.24,1.34,2.01c.32,.77,.48,1.59,.48,2.46v-.02Z"/><path d="M826.64,120.13c.11,.2,.17,.37,.17,.5s-.07,.25-.2,.33c-.14,.09-.34,.15-.62,.18-.28,.04-.64,.05-1.08,.05s-.77-.01-1.02-.03-.45-.06-.6-.11-.27-.11-.34-.19c-.08-.08-.15-.17-.2-.27l-4.64-7.67-4.62,7.67c-.06,.1-.13,.19-.2,.27s-.19,.14-.34,.19-.35,.09-.59,.11c-.24,.02-.57,.03-.97,.03s-.76-.02-1.02-.05c-.27-.04-.46-.1-.58-.18-.12-.09-.18-.2-.17-.33,0-.14,.08-.3,.2-.5l6.02-9.43-5.69-9.09c-.11-.2-.18-.37-.18-.5,0-.14,.06-.25,.19-.34,.14-.09,.34-.15,.62-.18,.28-.03,.65-.04,1.11-.04,.42,0,.75,.01,1,.03s.45,.05,.59,.1c.14,.04,.25,.1,.32,.17s.14,.16,.19,.26l4.4,7.2,4.47-7.2c.06-.09,.12-.16,.19-.24s.17-.13,.29-.18,.29-.09,.52-.11c.22-.02,.53-.03,.91-.03,.42,0,.76,.01,1.02,.04s.46,.08,.59,.16,.19,.19,.17,.33c-.01,.14-.09,.32-.21,.54l-5.65,8.98,5.97,9.54h-.02Z"/><path d="M845.5,118.02c0,.44-.02,.85-.06,1.21s-.11,.71-.2,1.04-.22,.66-.39,.98c-.17,.32-.36,.66-.59,1.02l-2.92,4.38c-.06,.11-.13,.21-.23,.28-.09,.07-.2,.13-.33,.18-.13,.05-.28,.09-.45,.12s-.39,.04-.64,.04c-.23,0-.42,0-.58-.03-.16-.02-.27-.06-.34-.11s-.11-.12-.12-.2c0-.09,.02-.19,.08-.3l2.84-5.89v-2.73c0-.37,.04-.67,.11-.9s.19-.4,.35-.53c.16-.12,.37-.2,.62-.25,.25-.04,.55-.06,.91-.06s.64,.02,.88,.06,.44,.13,.6,.25,.28,.3,.35,.53c.08,.23,.12,.53,.12,.9h0Zm7.69,.01c0,.44-.02,.85-.06,1.21s-.11,.71-.2,1.04-.22,.66-.39,.98c-.17,.32-.36,.66-.59,1.02l-2.92,4.38c-.06,.11-.13,.21-.23,.28-.09,.07-.2,.13-.33,.18-.13,.05-.28,.09-.45,.12s-.39,.04-.64,.04c-.23,0-.42,0-.57-.03s-.27-.06-.34-.11c-.08-.05-.12-.12-.12-.2s.02-.19,.06-.3l2.84-5.89v-2.73c0-.37,.04-.67,.11-.9s.19-.4,.35-.53c.16-.12,.37-.2,.62-.25,.25-.04,.55-.06,.91-.06,.33,0,.62,.02,.87,.06s.45,.13,.61,.25,.28,.3,.35,.53c.08,.23,.12,.53,.12,.9h0Z"/><path d="M868.36,119.12c0,.42-.03,.75-.09,.99s-.14,.42-.26,.54-.29,.22-.52,.32c-.23,.1-.49,.18-.78,.25-.29,.06-.61,.12-.93,.16-.33,.04-.66,.06-.99,.06-1,0-1.86-.13-2.58-.4-.72-.26-1.3-.67-1.76-1.2-.46-.54-.79-1.22-1-2.04s-.31-1.79-.31-2.91v-11.3h-2.71c-.21,0-.39-.11-.52-.34-.13-.23-.19-.6-.19-1.12,0-.27,.02-.5,.05-.69,.04-.19,.08-.34,.14-.46s.13-.21,.23-.26c.09-.05,.2-.08,.31-.08h2.69v-4.6c0-.1,.02-.19,.08-.28,.05-.09,.14-.16,.28-.23,.14-.06,.32-.11,.55-.14s.52-.04,.86-.04,.65,.01,.88,.04,.41,.08,.54,.14,.22,.14,.28,.23c.06,.09,.09,.18,.09,.28v4.6h4.96c.11,0,.21,.03,.3,.08,.09,.05,.16,.14,.23,.26,.06,.12,.11,.28,.14,.46,.03,.19,.04,.42,.04,.69,0,.52-.06,.89-.19,1.12s-.3,.34-.52,.34h-4.96v10.79c0,1.33,.2,2.34,.59,3.02s1.1,1.02,2.12,1.02c.33,0,.62-.03,.88-.1s.49-.13,.69-.2,.37-.14,.52-.2c.14-.06,.27-.1,.39-.1,.07,0,.14,.02,.2,.05,.06,.04,.11,.1,.15,.2,.04,.1,.07,.24,.1,.41,.03,.17,.04,.39,.04,.64h-.02Z"/><path d="M885.18,115.27c0,.99-.18,1.87-.55,2.64s-.88,1.43-1.56,1.96c-.67,.53-1.48,.93-2.41,1.2s-1.96,.41-3.07,.41c-.69,0-1.34-.05-1.97-.16s-1.18-.24-1.68-.41-.91-.34-1.26-.52c-.34-.18-.59-.34-.75-.48-.16-.14-.27-.34-.34-.6s-.11-.61-.11-1.05c0-.27,.01-.5,.04-.69,.03-.19,.06-.34,.11-.45,.04-.11,.1-.2,.18-.25s.17-.08,.27-.08c.16,0,.39,.1,.7,.29s.69,.4,1.14,.63c.45,.23,.98,.44,1.6,.63,.62,.19,1.32,.29,2.13,.29,.6,0,1.15-.06,1.63-.19,.49-.13,.91-.32,1.27-.57,.36-.25,.63-.57,.83-.96s.29-.84,.29-1.38-.14-1-.42-1.38c-.28-.37-.65-.7-1.11-.99-.46-.29-.97-.54-1.55-.76-.57-.22-1.16-.45-1.77-.7-.61-.24-1.2-.52-1.78-.83-.58-.31-1.1-.68-1.56-1.13-.46-.44-.83-.97-1.11-1.59-.28-.62-.42-1.35-.42-2.21,0-.76,.15-1.49,.44-2.18s.73-1.3,1.32-1.83c.59-.52,1.32-.94,2.2-1.26,.88-.31,1.91-.47,3.08-.47,.52,0,1.03,.04,1.55,.13s.98,.19,1.4,.32c.42,.13,.77,.27,1.06,.42s.52,.28,.67,.4c.15,.11,.25,.21,.3,.3,.05,.09,.09,.18,.11,.29s.04,.24,.06,.4,.03,.35,.03,.58-.01,.46-.03,.63c-.02,.18-.06,.33-.11,.44s-.11,.2-.18,.25-.15,.08-.24,.08c-.13,0-.32-.08-.56-.24-.24-.16-.56-.33-.95-.5-.39-.18-.84-.35-1.36-.5-.52-.16-1.12-.24-1.79-.24-.6,0-1.13,.07-1.59,.2-.46,.14-.83,.33-1.13,.58-.29,.25-.52,.55-.67,.89s-.23,.72-.23,1.12c0,.56,.14,1.03,.43,1.41,.29,.38,.66,.71,1.12,1s.98,.54,1.57,.77c.59,.23,1.19,.47,1.79,.71,.61,.24,1.21,.52,1.8,.82,.59,.3,1.12,.67,1.58,1.1s.83,.95,1.11,1.55,.42,1.32,.42,2.15h.03Z"/><path d="M902.39,115.27c0,.99-.18,1.87-.55,2.64s-.88,1.43-1.56,1.96c-.67,.53-1.48,.93-2.41,1.2s-1.96,.41-3.07,.41c-.69,0-1.34-.05-1.97-.16s-1.18-.24-1.68-.41-.91-.34-1.26-.52c-.34-.18-.59-.34-.75-.48-.16-.14-.27-.34-.34-.6s-.11-.61-.11-1.05c0-.27,.01-.5,.04-.69,.03-.19,.06-.34,.11-.45,.04-.11,.1-.2,.18-.25s.17-.08,.27-.08c.16,0,.39,.1,.7,.29s.69,.4,1.14,.63c.45,.23,.98,.44,1.6,.63,.62,.19,1.32,.29,2.13,.29,.6,0,1.15-.06,1.63-.19,.49-.13,.91-.32,1.27-.57,.36-.25,.63-.57,.83-.96s.29-.84,.29-1.38-.14-1-.42-1.38c-.28-.37-.65-.7-1.11-.99-.46-.29-.97-.54-1.55-.76-.57-.22-1.16-.45-1.77-.7-.61-.24-1.2-.52-1.78-.83-.58-.31-1.1-.68-1.56-1.13-.46-.44-.83-.97-1.11-1.59-.28-.62-.42-1.35-.42-2.21,0-.76,.15-1.49,.44-2.18s.73-1.3,1.32-1.83c.59-.52,1.32-.94,2.2-1.26,.88-.31,1.91-.47,3.08-.47,.52,0,1.03,.04,1.55,.13s.98,.19,1.4,.32c.42,.13,.77,.27,1.06,.42s.52,.28,.67,.4c.15,.11,.25,.21,.3,.3,.05,.09,.09,.18,.11,.29s.04,.24,.06,.4,.03,.35,.03,.58-.01,.46-.03,.63c-.02,.18-.06,.33-.11,.44s-.11,.2-.18,.25-.15,.08-.24,.08c-.13,0-.32-.08-.56-.24-.24-.16-.56-.33-.95-.5-.39-.18-.84-.35-1.36-.5-.52-.16-1.12-.24-1.79-.24-.6,0-1.13,.07-1.59,.2-.46,.14-.83,.33-1.13,.58-.29,.25-.52,.55-.67,.89s-.23,.72-.23,1.12c0,.56,.14,1.03,.43,1.41,.29,.38,.66,.71,1.12,1s.98,.54,1.57,.77c.59,.23,1.19,.47,1.79,.71,.61,.24,1.21,.52,1.8,.82,.59,.3,1.12,.67,1.58,1.1s.83,.95,1.11,1.55,.42,1.32,.42,2.15h.03Z"/><path d="M910.47,97.55v2.71c0,.37-.04,.67-.12,.9s-.2,.41-.37,.54-.37,.21-.62,.26c-.25,.04-.55,.06-.89,.06s-.64-.02-.88-.06-.44-.13-.6-.26c-.16-.13-.28-.31-.35-.54-.08-.23-.12-.53-.12-.9,0-.43,.02-.83,.06-1.19s.11-.71,.2-1.04,.22-.66,.39-.98c.16-.32,.36-.66,.59-1.02l2.9-4.4c.07-.11,.15-.21,.24-.28,.09-.07,.19-.13,.32-.18s.28-.09,.46-.12c.18-.03,.4-.04,.66-.04,.23,0,.42,.01,.57,.03s.26,.06,.34,.11,.12,.12,.12,.2-.03,.19-.09,.3l-2.81,5.91h0Zm7.69,0v2.71c0,.37-.04,.67-.12,.9s-.2,.41-.37,.54-.37,.21-.62,.26c-.25,.04-.55,.06-.89,.06s-.64-.02-.88-.06-.44-.13-.6-.26c-.16-.13-.28-.31-.35-.54-.08-.23-.12-.53-.12-.9,0-.43,.02-.83,.06-1.19s.11-.71,.2-1.04,.22-.66,.39-.98c.16-.32,.36-.66,.59-1.02l2.9-4.4c.07-.11,.15-.21,.24-.28,.09-.07,.19-.13,.32-.18s.28-.09,.46-.12c.18-.03,.4-.04,.66-.04,.23,0,.42,.01,.58,.03,.16,.02,.27,.06,.34,.11s.11,.12,.12,.2c0,.09-.03,.19-.1,.3l-2.81,5.91h0Z"/><path d="M947.38,115.27c0,.99-.18,1.87-.55,2.64s-.88,1.43-1.56,1.96c-.67,.53-1.48,.93-2.41,1.2s-1.96,.41-3.07,.41c-.69,0-1.34-.05-1.97-.16s-1.18-.24-1.68-.41-.91-.34-1.26-.52c-.34-.18-.59-.34-.75-.48-.16-.14-.27-.34-.34-.6s-.11-.61-.11-1.05c0-.27,.01-.5,.04-.69,.03-.19,.06-.34,.11-.45,.04-.11,.1-.2,.18-.25s.17-.08,.27-.08c.16,0,.39,.1,.7,.29s.69,.4,1.14,.63c.45,.23,.98,.44,1.6,.63,.62,.19,1.32,.29,2.13,.29,.6,0,1.15-.06,1.63-.19,.49-.13,.91-.32,1.27-.57,.36-.25,.63-.57,.83-.96s.29-.84,.29-1.38-.14-1-.42-1.38c-.28-.37-.65-.7-1.11-.99-.46-.29-.97-.54-1.55-.76-.57-.22-1.16-.45-1.77-.7-.61-.24-1.2-.52-1.78-.83-.58-.31-1.1-.68-1.56-1.13-.46-.44-.83-.97-1.11-1.59-.28-.62-.42-1.35-.42-2.21,0-.76,.15-1.49,.44-2.18s.73-1.3,1.32-1.83c.59-.52,1.32-.94,2.2-1.26,.88-.31,1.91-.47,3.08-.47,.52,0,1.03,.04,1.55,.13s.98,.19,1.4,.32c.42,.13,.77,.27,1.06,.42s.52,.28,.67,.4c.15,.11,.25,.21,.3,.3,.05,.09,.09,.18,.11,.29s.04,.24,.06,.4,.03,.35,.03,.58-.01,.46-.03,.63c-.02,.18-.06,.33-.11,.44s-.11,.2-.18,.25-.15,.08-.24,.08c-.13,0-.32-.08-.56-.24-.24-.16-.56-.33-.95-.5-.39-.18-.84-.35-1.36-.5-.52-.16-1.12-.24-1.79-.24-.6,0-1.13,.07-1.59,.2-.46,.14-.83,.33-1.13,.58-.29,.25-.52,.55-.67,.89s-.23,.72-.23,1.12c0,.56,.14,1.03,.43,1.41,.29,.38,.66,.71,1.12,1s.98,.54,1.57,.77c.59,.23,1.19,.47,1.79,.71,.61,.24,1.21,.52,1.8,.82,.59,.3,1.12,.67,1.58,1.1s.83,.95,1.11,1.55,.42,1.32,.42,2.15h.03Z"/><path d="M967.02,120.56c0,.17-.06,.3-.17,.39s-.27,.15-.47,.19c-.2,.04-.49,.06-.88,.06s-.67-.02-.89-.06c-.22-.04-.38-.11-.48-.19-.1-.09-.15-.21-.15-.39v-1.93c-.85,.9-1.79,1.6-2.83,2.11-1.04,.5-2.14,.75-3.3,.75-1.02,0-1.94-.13-2.76-.4-.82-.26-1.53-.65-2.11-1.15-.58-.5-1.03-1.12-1.35-1.85s-.48-1.56-.48-2.49c0-1.09,.22-2.03,.67-2.84,.44-.8,1.08-1.47,1.91-2,.83-.53,1.85-.93,3.05-1.19s2.56-.4,4.06-.4h2.66v-1.5c0-.74-.08-1.4-.24-1.98-.16-.57-.41-1.05-.76-1.43-.35-.38-.81-.67-1.36-.86s-1.25-.29-2.06-.29c-.87,0-1.66,.1-2.35,.31s-1.3,.44-1.83,.69c-.52,.25-.96,.48-1.31,.69s-.61,.31-.78,.31c-.11,0-.21-.03-.3-.09-.09-.06-.16-.14-.23-.26-.06-.11-.11-.26-.14-.44s-.04-.38-.04-.59c0-.36,.02-.64,.08-.85,.05-.21,.17-.4,.37-.59,.19-.19,.53-.4,1-.66,.47-.25,1.02-.48,1.63-.69,.62-.21,1.29-.38,2.02-.52,.73-.14,1.47-.2,2.21-.2,1.39,0,2.57,.16,3.54,.47,.97,.32,1.76,.78,2.36,1.39s1.04,1.36,1.31,2.27c.27,.9,.41,1.96,.41,3.16v13.04h-.01Zm-3.52-8.82h-3.03c-.97,0-1.82,.08-2.54,.25s-1.31,.41-1.78,.73-.82,.71-1.04,1.16c-.22,.45-.33,.97-.33,1.56,0,1,.32,1.8,.96,2.4,.64,.59,1.53,.89,2.67,.89,.93,0,1.79-.24,2.59-.71s1.63-1.2,2.5-2.17v-4.1h0Z"/><path d="M989.68,102.08c0,.5-.07,.86-.2,1.08-.14,.22-.31,.33-.53,.33h-2.77c.5,.52,.85,1.08,1.05,1.71,.2,.62,.3,1.27,.3,1.94,0,1.12-.18,2.11-.54,2.96-.36,.86-.87,1.59-1.54,2.18-.67,.59-1.46,1.05-2.37,1.36-.92,.32-1.93,.47-3.05,.47-.79,0-1.54-.1-2.25-.31s-1.26-.47-1.64-.78c-.26,.26-.47,.55-.63,.88-.17,.33-.25,.71-.25,1.14,0,.5,.23,.92,.7,1.25,.47,.33,1.08,.51,1.86,.54l5.05,.21c.96,.03,1.84,.16,2.64,.4s1.5,.57,2.08,1.01c.59,.44,1.05,.97,1.38,1.61s.49,1.38,.49,2.22c0,.89-.19,1.73-.56,2.54-.37,.8-.94,1.51-1.71,2.12s-1.74,1.09-2.93,1.44-2.59,.53-4.21,.53-2.89-.13-3.99-.4c-1.1-.27-1.99-.63-2.7-1.08-.7-.46-1.21-1.01-1.53-1.64-.32-.64-.47-1.33-.47-2.07,0-.47,.06-.93,.17-1.38,.11-.44,.29-.87,.53-1.27s.53-.78,.88-1.15,.76-.73,1.21-1.08c-.7-.36-1.22-.81-1.56-1.35s-.5-1.13-.5-1.76c0-.87,.18-1.65,.54-2.34,.36-.69,.8-1.3,1.33-1.85-.44-.53-.79-1.13-1.05-1.79s-.39-1.47-.39-2.42c0-1.1,.19-2.09,.56-2.96s.89-1.61,1.55-2.21,1.45-1.06,2.37-1.39,1.93-.48,3.02-.48c.59,0,1.13,.03,1.64,.1,.51,.06,.98,.15,1.43,.27h5.84c.24,0,.43,.12,.55,.35,.12,.24,.18,.6,.18,1.08h.02Zm-3.76,20.4c0-.83-.34-1.47-1.02-1.92s-1.6-.69-2.76-.72l-5.01-.17c-.46,.36-.83,.7-1.13,1.02-.29,.32-.53,.63-.7,.92s-.29,.58-.35,.87-.1,.58-.1,.88c0,.93,.47,1.64,1.42,2.12s2.26,.72,3.95,.72c1.07,0,1.97-.1,2.7-.31,.72-.21,1.31-.48,1.75-.83,.44-.34,.76-.74,.96-1.18,.19-.44,.29-.91,.29-1.4Zm-1.78-15.32c0-1.32-.36-2.35-1.08-3.08-.72-.74-1.75-1.11-3.08-1.11-.69,0-1.29,.11-1.79,.34-.51,.23-.93,.54-1.27,.95-.34,.4-.59,.86-.75,1.39-.17,.52-.25,1.07-.25,1.64,0,1.27,.36,2.28,1.08,3.01,.72,.73,1.74,1.1,3.04,1.1,.7,0,1.31-.11,1.83-.33s.94-.53,1.28-.92,.59-.85,.75-1.36c.16-.52,.25-1.05,.25-1.61v-.02Z"/><path d="M1010.37,110.03c0,.56-.14,.96-.42,1.19s-.6,.35-.96,.35h-12.73c0,1.07,.11,2.04,.32,2.9s.58,1.6,1.08,2.21c.5,.62,1.16,1.09,1.96,1.42,.81,.33,1.79,.49,2.96,.49,.92,0,1.74-.08,2.46-.23s1.34-.32,1.87-.5c.53-.19,.96-.35,1.3-.5s.59-.23,.77-.23c.1,0,.19,.03,.27,.08s.14,.13,.18,.23c.04,.1,.08,.24,.1,.42,.02,.18,.03,.4,.03,.66,0,.19,0,.35-.02,.48-.01,.14-.03,.26-.05,.37s-.06,.2-.11,.29c-.05,.09-.11,.17-.19,.25s-.31,.21-.7,.39-.89,.35-1.5,.53c-.62,.17-1.33,.33-2.14,.46-.81,.14-1.67,.2-2.59,.2-1.59,0-2.98-.22-4.18-.67-1.2-.44-2.2-1.1-3.02-1.98-.82-.87-1.43-1.97-1.85-3.29s-.62-2.85-.62-4.6,.21-3.15,.64-4.48c.43-1.32,1.05-2.45,1.86-3.37,.81-.92,1.79-1.63,2.93-2.13,1.15-.49,2.43-.74,3.85-.74,1.52,0,2.81,.24,3.88,.73,1.07,.49,1.94,1.14,2.63,1.97,.69,.82,1.19,1.79,1.51,2.9s.48,2.3,.48,3.56v.64h0Zm-3.57-1.05c.04-1.86-.37-3.32-1.24-4.38s-2.17-1.59-3.88-1.59c-.88,0-1.65,.17-2.31,.49-.66,.33-1.22,.77-1.66,1.31-.45,.54-.79,1.18-1.04,1.9s-.38,1.48-.41,2.27h10.54Z"/><path d="M1032.41,120.54c0,.11-.03,.21-.09,.29-.06,.08-.15,.15-.28,.2s-.31,.1-.54,.13-.52,.04-.86,.04-.65-.01-.88-.04-.41-.07-.54-.13-.22-.12-.28-.2c-.06-.08-.09-.18-.09-.29v-11.32c0-1.1-.09-1.99-.26-2.66-.17-.67-.42-1.25-.75-1.74s-.76-.86-1.28-1.12-1.13-.39-1.82-.39c-.89,0-1.78,.32-2.66,.95-.89,.63-1.82,1.55-2.79,2.77v13.51c0,.11-.03,.21-.09,.29s-.15,.15-.28,.2-.31,.1-.54,.13-.52,.04-.88,.04-.63-.01-.86-.04-.41-.07-.55-.13-.23-.12-.28-.2c-.05-.08-.08-.18-.08-.29v-19.34c0-.11,.02-.21,.06-.29s.13-.15,.26-.21,.29-.11,.49-.13,.47-.03,.79-.03,.58,.01,.78,.03c.21,.02,.37,.06,.48,.13,.11,.06,.2,.14,.25,.21,.05,.08,.08,.18,.08,.29v2.56c1.09-1.22,2.17-2.11,3.25-2.67,1.08-.57,2.17-.85,3.28-.85,1.29,0,2.37,.22,3.25,.66s1.59,1.02,2.14,1.75c.54,.73,.93,1.59,1.17,2.57s.35,2.16,.35,3.53v11.79h.05Z"/><path d="M1043.56,118c0,.44-.02,.85-.06,1.22s-.11,.72-.21,1.05-.23,.66-.4,.98-.37,.66-.61,1.02l-2.94,4.43c-.07,.1-.15,.19-.25,.26-.09,.07-.21,.14-.34,.19-.14,.06-.29,.1-.47,.12-.18,.02-.4,.03-.68,.03-.24,0-.45,0-.61-.03-.17-.02-.28-.06-.35-.11s-.11-.12-.12-.2c0-.09,.02-.19,.08-.3l2.86-5.91v-2.75c0-.39,.04-.69,.12-.92,.08-.23,.2-.4,.38-.52,.17-.11,.39-.19,.64-.24s.57-.06,.95-.06,.67,.02,.92,.06,.47,.12,.63,.24c.16,.11,.29,.29,.37,.52,.08,.23,.12,.54,.12,.92h-.03Z"/><path d="M1075.6,110.61c0,1.68-.18,3.18-.55,4.52s-.9,2.48-1.61,3.43-1.58,1.67-2.61,2.17-2.21,.75-3.54,.75c-.62,0-1.19-.06-1.71-.18s-1.04-.32-1.54-.59-1-.62-1.5-1.03c-.5-.42-1.03-.92-1.59-1.5v2.36c0,.11-.03,.21-.09,.3-.06,.09-.15,.15-.28,.2s-.29,.09-.48,.12c-.19,.03-.44,.04-.74,.04s-.53-.01-.73-.04-.37-.07-.49-.12-.21-.12-.26-.2-.06-.19-.06-.3v-28.7c0-.11,.02-.21,.08-.3,.05-.09,.14-.16,.28-.21,.14-.06,.32-.1,.55-.13,.23-.03,.52-.04,.86-.04s.65,.01,.88,.04,.41,.07,.54,.13,.22,.13,.28,.21c.06,.09,.09,.19,.09,.3v11.58c.57-.59,1.13-1.08,1.67-1.48s1.06-.73,1.58-.98c.52-.25,1.03-.43,1.55-.55,.52-.11,1.06-.17,1.63-.17,1.4,0,2.6,.28,3.6,.84s1.8,1.31,2.43,2.25c.62,.94,1.08,2.04,1.36,3.3,.29,1.26,.43,2.59,.43,4l-.03-.02Zm-3.67,.41c0-.99-.08-1.95-.23-2.88s-.41-1.75-.79-2.47c-.37-.72-.87-1.29-1.49-1.73s-1.39-.66-2.31-.66c-.46,0-.92,.06-1.36,.19-.45,.13-.9,.34-1.36,.64s-.94,.69-1.44,1.16-1.03,1.07-1.59,1.78v7.71c.98,1.19,1.92,2.09,2.81,2.72,.89,.62,1.82,.93,2.79,.93,.89,0,1.66-.21,2.29-.64s1.15-1,1.55-1.71,.68-1.5,.86-2.38c.18-.88,.27-1.77,.27-2.67h0Z"/><path d="M1084.88,94.67c0,.83-.16,1.4-.47,1.7-.32,.3-.9,.45-1.74,.45s-1.4-.15-1.71-.44c-.31-.29-.46-.85-.46-1.67s.16-1.4,.47-1.7c.31-.3,.9-.45,1.74-.45s1.4,.15,1.71,.44c.31,.29,.46,.85,.46,1.67Zm-.41,25.87c0,.11-.03,.21-.09,.29-.06,.08-.15,.15-.28,.2s-.31,.1-.54,.13-.52,.04-.88,.04-.63-.01-.86-.04-.41-.07-.55-.13-.23-.12-.28-.2c-.05-.08-.08-.18-.08-.29v-19.34c0-.1,.02-.19,.08-.28,.05-.09,.14-.16,.28-.21,.14-.06,.32-.1,.55-.13,.23-.03,.52-.04,.86-.04s.65,.01,.88,.04,.41,.07,.54,.13,.22,.13,.28,.21c.06,.09,.09,.18,.09,.28v19.34Z"/><path d="M1103.16,115.27c0,.99-.18,1.87-.55,2.64s-.88,1.43-1.56,1.96c-.67,.53-1.48,.93-2.41,1.2s-1.96,.41-3.07,.41c-.69,0-1.34-.05-1.97-.16s-1.18-.24-1.68-.41-.91-.34-1.26-.52c-.34-.18-.59-.34-.75-.48-.16-.14-.27-.34-.34-.6s-.11-.61-.11-1.05c0-.27,.01-.5,.04-.69s.06-.34,.11-.45c.04-.11,.1-.2,.18-.25,.08-.05,.17-.08,.27-.08,.16,0,.39,.1,.7,.29,.31,.19,.69,.4,1.14,.63,.45,.23,.98,.44,1.6,.63,.62,.19,1.32,.29,2.13,.29,.6,0,1.15-.06,1.63-.19,.49-.13,.91-.32,1.27-.57s.63-.57,.83-.96,.29-.84,.29-1.38-.14-1-.42-1.38c-.28-.37-.65-.7-1.11-.99s-.97-.54-1.55-.76c-.57-.22-1.16-.45-1.77-.7-.61-.24-1.2-.52-1.78-.83-.58-.31-1.1-.68-1.56-1.13-.46-.44-.83-.97-1.11-1.59-.28-.62-.42-1.35-.42-2.21,0-.76,.15-1.49,.44-2.18,.29-.69,.73-1.3,1.32-1.83,.59-.52,1.32-.94,2.2-1.26,.88-.31,1.91-.47,3.08-.47,.52,0,1.03,.04,1.55,.13s.98,.19,1.4,.32,.77,.27,1.06,.42,.52,.28,.67,.4c.15,.11,.25,.21,.3,.3,.05,.09,.09,.18,.11,.29s.04,.24,.06,.4,.03,.35,.03,.58-.01,.46-.03,.63c-.02,.18-.06,.33-.11,.44-.05,.11-.11,.2-.18,.25-.07,.05-.15,.08-.24,.08-.13,0-.32-.08-.56-.24-.24-.16-.56-.33-.95-.5-.39-.18-.84-.35-1.36-.5-.52-.16-1.12-.24-1.79-.24-.6,0-1.13,.07-1.59,.2-.46,.14-.83,.33-1.13,.58-.29,.25-.52,.55-.67,.89s-.23,.72-.23,1.12c0,.56,.14,1.03,.43,1.41,.29,.38,.66,.71,1.12,1s.98,.54,1.57,.77c.59,.23,1.19,.47,1.79,.71,.61,.24,1.21,.52,1.8,.82,.59,.3,1.12,.67,1.58,1.1s.83,.95,1.11,1.55,.42,1.32,.42,2.15h.03Z"/><path d="M1199,119.46c0,.29-.01,.53-.04,.72s-.08,.36-.14,.49c-.06,.14-.14,.24-.24,.3-.09,.06-.2,.1-.33,.1h-12.29c-.33,0-.64-.11-.93-.33s-.44-.61-.44-1.17v-25.74c0-.11,.03-.21,.09-.3,.06-.09,.16-.15,.3-.2,.14-.05,.34-.09,.58-.13s.54-.05,.88-.05,.66,.02,.89,.05c.24,.04,.43,.08,.57,.13,.14,.05,.24,.12,.3,.2,.06,.09,.09,.19,.09,.3v24.04h9.97c.13,0,.24,.03,.33,.1,.09,.06,.17,.16,.24,.28,.06,.12,.11,.28,.14,.48,.03,.2,.04,.44,.04,.73h0Z"/><path d="M1219.24,120.54c0,.11-.03,.21-.08,.29-.05,.08-.14,.15-.27,.2s-.3,.1-.5,.13c-.21,.03-.46,.04-.76,.04-.33,0-.6-.01-.81-.04-.21-.03-.37-.07-.49-.13s-.2-.12-.25-.2c-.04-.08-.06-.18-.06-.29v-2.56c-1.1,1.22-2.19,2.11-3.27,2.66s-2.16,.84-3.27,.84c-1.29,0-2.37-.21-3.25-.64s-1.59-1.01-2.14-1.75c-.54-.74-.93-1.6-1.17-2.58s-.35-2.17-.35-3.58v-11.73c0-.11,.02-.21,.08-.29,.05-.08,.15-.15,.29-.21s.33-.11,.56-.13c.23-.02,.52-.03,.86-.03s.63,.01,.86,.03,.41,.06,.55,.13c.14,.06,.23,.14,.29,.21,.06,.08,.09,.18,.09,.29v11.26c0,1.13,.08,2.04,.25,2.72,.16,.68,.42,1.26,.75,1.74,.34,.48,.76,.85,1.28,1.12,.52,.27,1.12,.4,1.8,.4,.89,0,1.77-.31,2.65-.95,.88-.63,1.82-1.55,2.8-2.77v-13.51c0-.11,.02-.21,.08-.29,.05-.08,.15-.15,.29-.21s.33-.11,.55-.13c.22-.02,.51-.03,.87-.03s.63,.01,.86,.03,.41,.06,.54,.13,.23,.14,.29,.21c.06,.08,.1,.18,.1,.29v19.34h-.02Z"/><path d="M1242.44,120.54c0,.11-.03,.21-.09,.29-.06,.08-.15,.15-.28,.2s-.31,.1-.54,.13-.52,.04-.86,.04-.65-.01-.88-.04-.41-.07-.54-.13-.22-.12-.28-.2c-.06-.08-.09-.18-.09-.29v-11.32c0-1.1-.09-1.99-.26-2.66-.17-.67-.42-1.25-.75-1.74s-.76-.86-1.28-1.12-1.13-.39-1.82-.39c-.89,0-1.78,.32-2.66,.95-.89,.63-1.82,1.55-2.79,2.77v13.51c0,.11-.03,.21-.09,.29-.06,.08-.15,.15-.28,.2s-.31,.1-.54,.13-.52,.04-.88,.04-.63-.01-.86-.04-.41-.07-.55-.13-.23-.12-.28-.2c-.05-.08-.08-.18-.08-.29v-19.34c0-.11,.02-.21,.06-.29s.13-.15,.26-.21,.29-.11,.49-.13,.46-.03,.79-.03,.58,.01,.78,.03c.21,.02,.37,.06,.48,.13,.11,.06,.2,.14,.25,.21,.05,.08,.08,.18,.08,.29v2.56c1.09-1.22,2.17-2.11,3.25-2.67,1.08-.57,2.17-.85,3.28-.85,1.29,0,2.37,.22,3.25,.66s1.59,1.02,2.14,1.75c.54,.73,.93,1.59,1.17,2.57s.35,2.16,.35,3.53v11.79h.05Z"/><path d="M1265.07,102.08c0,.5-.07,.86-.2,1.08-.14,.22-.31,.33-.53,.33h-2.77c.5,.52,.85,1.08,1.05,1.71,.2,.62,.3,1.27,.3,1.94,0,1.12-.18,2.11-.54,2.96-.36,.86-.87,1.59-1.54,2.18-.67,.59-1.46,1.05-2.37,1.36-.92,.32-1.93,.47-3.05,.47-.79,0-1.54-.1-2.25-.31s-1.26-.47-1.64-.78c-.26,.26-.47,.55-.63,.88-.17,.33-.25,.71-.25,1.14,0,.5,.23,.92,.7,1.25,.46,.33,1.08,.51,1.86,.54l5.05,.21c.96,.03,1.84,.16,2.64,.4s1.5,.57,2.08,1.01c.59,.44,1.04,.97,1.38,1.61,.33,.64,.49,1.38,.49,2.22,0,.89-.19,1.73-.56,2.54-.37,.8-.94,1.51-1.71,2.12s-1.74,1.09-2.93,1.44c-1.19,.35-2.59,.53-4.21,.53s-2.89-.13-3.99-.4c-1.1-.27-2-.63-2.7-1.08-.7-.46-1.21-1.01-1.53-1.64-.32-.64-.47-1.33-.47-2.07,0-.47,.06-.93,.17-1.38,.11-.44,.29-.87,.53-1.27s.53-.78,.88-1.15,.75-.73,1.21-1.08c-.7-.36-1.22-.81-1.56-1.35-.34-.54-.5-1.13-.5-1.76,0-.87,.18-1.65,.54-2.34,.36-.69,.8-1.3,1.33-1.85-.44-.53-.79-1.13-1.05-1.79s-.39-1.47-.39-2.42c0-1.1,.19-2.09,.56-2.96,.37-.87,.89-1.61,1.55-2.21s1.45-1.06,2.37-1.39,1.93-.48,3.02-.48c.59,0,1.13,.03,1.64,.1,.51,.06,.98,.15,1.43,.27h5.84c.24,0,.43,.12,.55,.35,.12,.24,.18,.6,.18,1.08h.02Zm-3.76,20.4c0-.83-.34-1.47-1.02-1.92s-1.6-.69-2.76-.72l-5.01-.17c-.46,.36-.83,.7-1.13,1.02-.29,.32-.53,.63-.7,.92-.17,.29-.29,.58-.35,.87-.06,.29-.1,.58-.1,.88,0,.93,.47,1.64,1.42,2.12,.95,.48,2.26,.72,3.95,.72,1.07,0,1.97-.1,2.7-.31,.72-.21,1.31-.48,1.75-.83,.44-.34,.76-.74,.96-1.18,.19-.44,.29-.91,.29-1.4Zm-1.78-15.32c0-1.32-.36-2.35-1.08-3.08-.72-.74-1.75-1.11-3.08-1.11-.69,0-1.29,.11-1.79,.34-.51,.23-.93,.54-1.27,.95-.34,.4-.59,.86-.75,1.39-.17,.52-.25,1.07-.25,1.64,0,1.27,.36,2.28,1.08,3.01s1.74,1.1,3.04,1.1c.7,0,1.31-.11,1.83-.33,.52-.22,.94-.53,1.28-.92,.34-.39,.59-.85,.75-1.36,.16-.52,.25-1.05,.25-1.61v-.02Z"/><path d="M1285.76,110.03c0,.56-.14,.96-.42,1.19-.28,.24-.6,.35-.96,.35h-12.73c0,1.07,.11,2.04,.32,2.9s.58,1.6,1.08,2.21c.5,.62,1.16,1.09,1.96,1.42,.81,.33,1.79,.49,2.96,.49,.92,0,1.74-.08,2.46-.23s1.34-.32,1.87-.5c.53-.19,.96-.35,1.3-.5,.34-.15,.59-.23,.77-.23,.1,0,.19,.03,.27,.08,.08,.05,.14,.13,.18,.23,.04,.1,.08,.24,.1,.42s.03,.4,.03,.66c0,.19,0,.35-.02,.48-.01,.14-.03,.26-.05,.37s-.06,.2-.11,.29c-.05,.09-.12,.17-.19,.25-.08,.08-.31,.21-.7,.39-.39,.18-.89,.35-1.5,.53-.62,.17-1.33,.33-2.14,.46-.81,.14-1.67,.2-2.59,.2-1.59,0-2.98-.22-4.18-.67-1.2-.44-2.2-1.1-3.02-1.98-.82-.87-1.43-1.97-1.85-3.29-.42-1.32-.62-2.85-.62-4.6s.21-3.15,.64-4.48c.43-1.32,1.05-2.45,1.86-3.37,.81-.92,1.79-1.63,2.93-2.13,1.15-.49,2.43-.74,3.85-.74,1.52,0,2.81,.24,3.88,.73,1.07,.49,1.94,1.14,2.63,1.97,.69,.82,1.19,1.79,1.51,2.9,.32,1.11,.48,2.3,.48,3.56v.64Zm-3.57-1.05c.04-1.86-.37-3.32-1.24-4.38s-2.17-1.59-3.88-1.59c-.88,0-1.65,.17-2.31,.49-.66,.33-1.22,.77-1.66,1.31-.45,.54-.79,1.18-1.04,1.9s-.38,1.48-.41,2.27h10.54Z"/><path d="M1304.64,120.54c0,.11-.03,.21-.09,.29-.06,.08-.15,.15-.28,.2s-.31,.1-.54,.13-.52,.04-.88,.04-.63-.01-.86-.04-.41-.07-.55-.13-.23-.12-.28-.2c-.05-.08-.08-.18-.08-.29v-28.7c0-.11,.02-.21,.08-.3,.05-.09,.14-.16,.28-.21,.14-.06,.32-.1,.55-.13,.23-.03,.52-.04,.86-.04s.65,.01,.88,.04,.41,.07,.54,.13,.22,.13,.28,.21c.06,.09,.09,.19,.09,.3v28.7Z"/><path d="M1327.69,110.03c0,.56-.14,.96-.42,1.19-.28,.24-.6,.35-.96,.35h-12.73c0,1.07,.11,2.04,.32,2.9s.58,1.6,1.08,2.21c.5,.62,1.16,1.09,1.96,1.42,.81,.33,1.79,.49,2.96,.49,.92,0,1.74-.08,2.46-.23s1.34-.32,1.87-.5c.53-.19,.96-.35,1.3-.5,.34-.15,.59-.23,.77-.23,.1,0,.19,.03,.27,.08,.08,.05,.14,.13,.18,.23,.04,.1,.08,.24,.1,.42s.03,.4,.03,.66c0,.19,0,.35-.02,.48-.01,.14-.03,.26-.05,.37s-.06,.2-.11,.29c-.05,.09-.12,.17-.19,.25-.08,.08-.31,.21-.7,.39-.39,.18-.89,.35-1.5,.53-.62,.17-1.33,.33-2.14,.46-.81,.14-1.67,.2-2.59,.2-1.59,0-2.98-.22-4.18-.67-1.2-.44-2.2-1.1-3.02-1.98-.82-.87-1.43-1.97-1.85-3.29-.42-1.32-.62-2.85-.62-4.6s.21-3.15,.64-4.48c.43-1.32,1.05-2.45,1.86-3.37,.81-.92,1.79-1.63,2.93-2.13,1.15-.49,2.43-.74,3.85-.74,1.52,0,2.81,.24,3.88,.73,1.07,.49,1.94,1.14,2.63,1.97,.69,.82,1.19,1.79,1.51,2.9,.32,1.11,.48,2.3,.48,3.56v.64Zm-3.57-1.05c.04-1.86-.37-3.32-1.24-4.38s-2.17-1.59-3.88-1.59c-.88,0-1.65,.17-2.31,.49-.66,.33-1.22,.77-1.66,1.31-.45,.54-.79,1.18-1.04,1.9s-.38,1.48-.41,2.27h10.54Z"/><path d="M1349.59,110.03c0,.56-.14,.96-.42,1.19-.28,.24-.6,.35-.96,.35h-12.73c0,1.07,.11,2.04,.32,2.9s.58,1.6,1.08,2.21c.5,.62,1.16,1.09,1.96,1.42,.81,.33,1.79,.49,2.96,.49,.92,0,1.74-.08,2.46-.23s1.34-.32,1.87-.5c.53-.19,.96-.35,1.3-.5,.34-.15,.59-.23,.77-.23,.1,0,.19,.03,.27,.08,.08,.05,.14,.13,.18,.23,.04,.1,.08,.24,.1,.42s.03,.4,.03,.66c0,.19,0,.35-.02,.48-.01,.14-.03,.26-.05,.37s-.06,.2-.11,.29c-.05,.09-.12,.17-.19,.25-.08,.08-.31,.21-.7,.39-.39,.18-.89,.35-1.5,.53-.62,.17-1.33,.33-2.14,.46-.81,.14-1.67,.2-2.59,.2-1.59,0-2.98-.22-4.18-.67-1.2-.44-2.2-1.1-3.02-1.98-.82-.87-1.43-1.97-1.85-3.29-.42-1.32-.62-2.85-.62-4.6s.21-3.15,.64-4.48c.43-1.32,1.05-2.45,1.86-3.37,.81-.92,1.79-1.63,2.93-2.13,1.15-.49,2.43-.74,3.85-.74,1.52,0,2.81,.24,3.88,.73,1.07,.49,1.94,1.14,2.63,1.97,.69,.82,1.19,1.79,1.51,2.9,.32,1.11,.48,2.3,.48,3.56v.64Zm-3.57-1.05c.04-1.86-.37-3.32-1.24-4.38s-2.17-1.59-3.88-1.59c-.88,0-1.65,.17-2.31,.49-.66,.33-1.22,.77-1.66,1.31-.45,.54-.79,1.18-1.04,1.9s-.38,1.48-.41,2.27h10.54Z"/><path d="M1366.28,102.47c0,.32,0,.58-.02,.79-.01,.21-.04,.38-.09,.5-.04,.12-.1,.21-.16,.28s-.15,.1-.27,.1-.25-.03-.42-.1c-.17-.06-.35-.13-.56-.19-.21-.06-.44-.12-.7-.18s-.54-.09-.84-.09c-.36,0-.71,.07-1.05,.21-.34,.14-.71,.38-1.08,.71-.38,.33-.78,.77-1.19,1.31-.42,.54-.87,1.21-1.38,2v12.72c0,.11-.03,.21-.09,.29-.06,.08-.15,.15-.28,.2s-.31,.1-.54,.13-.52,.04-.88,.04-.63-.01-.86-.04-.41-.07-.55-.13-.23-.12-.28-.2c-.05-.08-.08-.18-.08-.29v-19.34c0-.11,.02-.21,.06-.29s.13-.15,.26-.21,.29-.11,.49-.13,.46-.03,.79-.03,.58,.01,.78,.03c.21,.02,.37,.06,.48,.13,.11,.06,.2,.14,.25,.21,.05,.08,.08,.18,.08,.29v2.81c.53-.77,1.03-1.4,1.49-1.89s.91-.87,1.32-1.15c.42-.28,.83-.47,1.24-.58s.82-.16,1.24-.16c.19,0,.4,.01,.63,.03s.48,.06,.74,.12c.26,.06,.49,.12,.7,.19s.35,.14,.44,.21,.14,.14,.17,.2,.05,.15,.08,.25c.02,.1,.04,.25,.04,.44s.01,.46,.01,.78l.03,.03Z"/><path d="M1384.22,94.67c0,.83-.16,1.4-.47,1.7-.32,.3-.9,.45-1.74,.45s-1.4-.15-1.71-.44c-.31-.29-.46-.85-.46-1.67s.16-1.4,.47-1.7c.31-.3,.89-.45,1.74-.45s1.4,.15,1.71,.44c.31,.29,.46,.85,.46,1.67Zm-.41,25.87c0,.11-.03,.21-.09,.29-.06,.08-.15,.15-.28,.2s-.31,.1-.54,.13-.52,.04-.88,.04-.63-.01-.86-.04-.41-.07-.55-.13-.23-.12-.28-.2c-.05-.08-.08-.18-.08-.29v-19.34c0-.1,.02-.19,.08-.28,.05-.09,.14-.16,.28-.21,.14-.06,.32-.1,.55-.13,.23-.03,.52-.04,.86-.04s.65,.01,.88,.04,.41,.07,.54,.13,.22,.13,.28,.21c.06,.09,.09,.18,.09,.28v19.34Z"/><path d="M1402.5,115.27c0,.99-.18,1.87-.55,2.64s-.88,1.43-1.56,1.96c-.67,.53-1.48,.93-2.41,1.2s-1.96,.41-3.07,.41c-.69,0-1.34-.05-1.97-.16s-1.18-.24-1.68-.41-.91-.34-1.26-.52c-.34-.18-.59-.34-.75-.48-.16-.14-.27-.34-.34-.6s-.11-.61-.11-1.05c0-.27,.01-.5,.04-.69s.06-.34,.11-.45c.04-.11,.1-.2,.18-.25,.08-.05,.17-.08,.27-.08,.16,0,.39,.1,.7,.29,.31,.19,.69,.4,1.14,.63,.45,.23,.98,.44,1.6,.63,.62,.19,1.32,.29,2.13,.29,.6,0,1.15-.06,1.63-.19,.49-.13,.91-.32,1.27-.57s.63-.57,.83-.96,.29-.84,.29-1.38-.14-1-.42-1.38c-.28-.37-.65-.7-1.11-.99s-.97-.54-1.55-.76c-.57-.22-1.16-.45-1.77-.7-.61-.24-1.2-.52-1.78-.83-.58-.31-1.1-.68-1.56-1.13-.46-.44-.83-.97-1.11-1.59-.28-.62-.42-1.35-.42-2.21,0-.76,.15-1.49,.44-2.18,.29-.69,.73-1.3,1.32-1.83,.59-.52,1.32-.94,2.2-1.26,.88-.31,1.91-.47,3.08-.47,.52,0,1.03,.04,1.55,.13s.98,.19,1.4,.32,.77,.27,1.06,.42,.52,.28,.67,.4c.15,.11,.25,.21,.3,.3,.05,.09,.09,.18,.11,.29s.04,.24,.06,.4,.03,.35,.03,.58-.01,.46-.03,.63c-.02,.18-.06,.33-.11,.44-.05,.11-.11,.2-.18,.25-.07,.05-.15,.08-.24,.08-.13,0-.32-.08-.56-.24-.24-.16-.56-.33-.95-.5-.39-.18-.84-.35-1.36-.5-.52-.16-1.12-.24-1.79-.24-.6,0-1.13,.07-1.59,.2-.46,.14-.83,.33-1.13,.58-.29,.25-.52,.55-.67,.89s-.23,.72-.23,1.12c0,.56,.14,1.03,.43,1.41,.29,.38,.66,.71,1.12,1s.98,.54,1.57,.77c.59,.23,1.18,.47,1.79,.71s1.21,.52,1.8,.82c.59,.3,1.12,.67,1.58,1.1s.83,.95,1.11,1.55,.42,1.32,.42,2.15h.03Z"/><path d="M1417.13,119.12c0,.42-.03,.75-.09,.99-.06,.24-.14,.42-.26,.54-.12,.11-.29,.22-.52,.32s-.49,.18-.78,.25c-.29,.06-.61,.12-.93,.16-.33,.04-.66,.06-.99,.06-1,0-1.86-.13-2.58-.4-.72-.26-1.3-.67-1.76-1.2-.46-.54-.79-1.22-1-2.04s-.31-1.79-.31-2.91v-11.3h-2.71c-.21,0-.39-.11-.52-.34-.13-.23-.19-.6-.19-1.12,0-.27,.02-.5,.05-.69,.04-.19,.08-.34,.14-.46s.13-.21,.23-.26c.09-.05,.2-.08,.31-.08h2.69v-4.6c0-.1,.02-.19,.08-.28,.05-.09,.14-.16,.28-.23,.14-.06,.32-.11,.55-.14,.23-.03,.52-.04,.86-.04s.65,.01,.88,.04,.41,.08,.54,.14,.22,.14,.28,.23c.06,.09,.09,.18,.09,.28v4.6h4.96c.11,0,.21,.03,.3,.08,.09,.05,.16,.14,.23,.26,.06,.12,.11,.28,.14,.46,.03,.19,.04,.42,.04,.69,0,.52-.06,.89-.19,1.12-.13,.23-.3,.34-.52,.34h-4.96v10.79c0,1.33,.2,2.34,.59,3.02s1.1,1.02,2.12,1.02c.33,0,.62-.03,.88-.1s.49-.13,.69-.2,.37-.14,.52-.2c.14-.06,.27-.1,.39-.1,.07,0,.14,.02,.2,.05,.06,.04,.11,.1,.15,.2s.07,.24,.1,.41c.03,.17,.04,.39,.04,.64h-.02Z"/><path d="M1439.46,73.04c0-2.88-2.29-5.25-5.16-5.25s-5.16,2.37-5.16,5.25,2.28,5.25,5.16,5.25,5.16-2.37,5.16-5.25"/><path d="M1439.46,97.84c0-2.88-2.29-5.25-5.16-5.25s-5.16,2.37-5.16,5.25,2.28,5.25,5.16,5.25,5.16-2.37,5.16-5.25"/><line x1="1450.86" y1="34.48" x2="1450.86" y2="136.41" fill="none" stroke="#000" stroke-linejoin="bevel" stroke-width="4.46"/><line x1="1469.09" y1="34.48" x2="1469.09" y2="136.41" fill="none" stroke="#000" stroke-linejoin="bevel" stroke-width="13.64"/><g><path d="M1460.4,18.28c0,1.04-.18,1.98-.54,2.82s-.88,1.56-1.56,2.15-1.52,1.06-2.51,1.38-2.12,.48-3.38,.48c-.76,0-1.47-.06-2.14-.18s-1.25-.27-1.77-.44-.94-.35-1.28-.53-.55-.31-.64-.4-.16-.16-.2-.25-.09-.18-.12-.3-.06-.26-.08-.43-.03-.38-.03-.62c0-.42,.04-.71,.13-.88s.21-.25,.36-.25c.11,0,.32,.09,.64,.28s.73,.39,1.23,.61,1.08,.42,1.75,.61,1.41,.28,2.23,.28,1.49-.1,2.09-.3c.6-.2,1.11-.48,1.51-.84,.41-.36,.72-.79,.92-1.29,.21-.5,.31-1.04,.31-1.63,0-.64-.13-1.22-.39-1.74s-.64-.96-1.14-1.34c-.5-.38-1.12-.66-1.85-.86s-1.56-.3-2.5-.3h-2.23c-.1,0-.19-.02-.28-.06s-.17-.11-.24-.2-.12-.22-.16-.37c-.04-.15-.06-.35-.06-.6,0-.22,.02-.41,.05-.55s.08-.26,.15-.35,.14-.15,.22-.19,.18-.06,.28-.06h1.99c.77,0,1.47-.1,2.08-.3s1.14-.49,1.56-.86,.76-.82,.98-1.34,.34-1.1,.34-1.75c0-.47-.08-.92-.23-1.34s-.38-.8-.69-1.12-.69-.57-1.17-.75-1.02-.27-1.64-.27c-.68,0-1.3,.1-1.87,.31s-1.08,.42-1.52,.66-.81,.45-1.11,.66-.5,.31-.62,.31c-.08,0-.16-.01-.22-.04s-.12-.09-.16-.18-.07-.21-.09-.37-.03-.37-.03-.62c0-.18,0-.33,.02-.47s.04-.25,.07-.35,.08-.19,.12-.27,.13-.18,.24-.29,.34-.27,.68-.48,.76-.42,1.26-.62,1.07-.38,1.72-.52,1.35-.21,2.1-.21c1.05,0,1.98,.13,2.78,.4s1.46,.65,2,1.14,.93,1.08,1.2,1.77,.4,1.44,.4,2.28c0,.71-.09,1.38-.28,2s-.46,1.16-.83,1.63c-.37,.47-.81,.88-1.34,1.21s-1.14,.57-1.83,.69v.04c.79,.08,1.5,.28,2.15,.59s1.21,.7,1.68,1.17,.83,1.02,1.1,1.64,.4,1.3,.4,2.01h-.01Z"/><path d="M1477.26,24.01c.09,.16,.14,.3,.14,.41s-.06,.2-.17,.27-.28,.12-.51,.15-.52,.04-.89,.04-.63,0-.83-.03-.37-.05-.49-.09-.22-.09-.28-.16-.12-.14-.17-.22l-3.8-6.28-3.78,6.28c-.05,.08-.1,.16-.17,.22s-.16,.12-.28,.16-.28,.07-.48,.09-.46,.03-.79,.03-.62-.01-.83-.04-.38-.08-.47-.15-.15-.16-.14-.27,.06-.25,.17-.41l4.92-7.72-4.66-7.44c-.09-.16-.14-.3-.15-.41s.05-.21,.16-.28,.28-.13,.51-.15,.53-.04,.91-.04c.34,0,.61,0,.82,.03s.37,.04,.48,.08,.21,.08,.26,.14,.11,.13,.16,.21l3.6,5.89,3.66-5.89c.05-.07,.1-.13,.16-.19s.14-.11,.24-.15,.24-.07,.42-.09,.43-.03,.75-.03c.34,0,.62,.01,.83,.04s.38,.07,.48,.13,.15,.16,.14,.27-.07,.26-.18,.44l-4.62,7.35,4.89,7.8h0Z"/></g><line x1="760.7" y1="34.87" x2="760.7" y2="136.8" fill="none" stroke="#000" stroke-linejoin="bevel" stroke-width="4.46"/><path d="M1136.2,120.49c0,.11-.03,.21-.08,.3-.05,.09-.14,.15-.26,.2-.12,.05-.28,.09-.48,.12-.2,.03-.44,.04-.73,.04s-.55-.01-.75-.04-.37-.07-.49-.12-.22-.12-.28-.2c-.06-.09-.09-.19-.09-.3v-2.56c-1.02,1.1-2.07,1.96-3.17,2.58s-2.3,.92-3.6,.92c-1.42,0-2.63-.28-3.63-.83s-1.82-1.3-2.44-2.23c-.62-.94-1.08-2.04-1.36-3.31-.29-1.27-.43-2.6-.43-4.01,0-1.66,.18-3.16,.54-4.5,.36-1.34,.89-2.48,1.59-3.43,.7-.95,1.57-1.67,2.61-2.18,1.04-.51,2.24-.76,3.6-.76,1.13,0,2.17,.25,3.1,.74,.94,.49,1.87,1.22,2.78,2.18v-11.24c0-.1,.02-.2,.08-.29,.05-.09,.15-.16,.29-.21,.14-.05,.33-.09,.55-.13s.5-.05,.85-.05,.65,.02,.88,.05c.23,.04,.41,.08,.54,.13,.13,.05,.23,.12,.29,.21s.1,.19,.1,.29v28.62h-.01Zm-3.57-13.59c-.96-1.19-1.89-2.09-2.78-2.72-.9-.62-1.83-.93-2.8-.93-.9,0-1.67,.21-2.3,.64-.63,.43-1.14,1-1.54,1.7-.39,.7-.68,1.5-.86,2.38-.18,.89-.27,1.79-.27,2.71,0,.97,.08,1.93,.23,2.86,.15,.93,.41,1.76,.78,2.48s.87,1.3,1.48,1.74c.62,.44,1.39,.66,2.32,.66,.47,0,.93-.06,1.36-.19,.44-.13,.88-.34,1.34-.64s.94-.69,1.44-1.17c.5-.48,1.03-1.07,1.59-1.77v-7.75Z"/><path d="M1146.7,94.62c0,.83-.16,1.4-.47,1.7-.32,.3-.9,.45-1.74,.45s-1.4-.15-1.71-.44-.46-.85-.46-1.67,.16-1.4,.47-1.7c.31-.3,.9-.45,1.74-.45s1.4,.15,1.71,.44,.46,.85,.46,1.67Zm-.41,25.87c0,.11-.03,.21-.09,.29s-.15,.15-.28,.2-.31,.1-.54,.13-.52,.04-.88,.04-.63-.01-.86-.04c-.23-.03-.41-.07-.55-.13-.14-.06-.23-.12-.28-.2-.05-.08-.08-.18-.08-.29v-19.34c0-.1,.02-.19,.08-.28,.05-.09,.14-.16,.28-.21,.14-.06,.32-.1,.55-.13,.23-.03,.52-.04,.86-.04s.65,.01,.88,.04,.41,.07,.54,.13,.22,.13,.28,.21c.06,.09,.09,.18,.09,.28v19.34Z"/><path d="M1169.35,109.99c0,.56-.14,.96-.42,1.19s-.6,.35-.96,.35h-12.73c0,1.07,.11,2.04,.32,2.9s.58,1.6,1.08,2.21c.5,.62,1.16,1.09,1.96,1.42,.81,.33,1.79,.49,2.96,.49,.92,0,1.74-.08,2.46-.23s1.34-.32,1.87-.5c.53-.19,.96-.35,1.3-.5s.59-.23,.77-.23c.1,0,.19,.03,.27,.08s.14,.13,.18,.23c.04,.1,.08,.24,.1,.42,.02,.18,.03,.4,.03,.66,0,.19,0,.35-.02,.48-.01,.14-.03,.26-.05,.37s-.06,.2-.11,.29c-.05,.09-.11,.17-.19,.25s-.31,.21-.7,.39-.89,.35-1.5,.53c-.62,.17-1.33,.33-2.14,.46-.81,.14-1.67,.2-2.59,.2-1.59,0-2.98-.22-4.18-.67-1.2-.44-2.2-1.1-3.02-1.98-.82-.87-1.43-1.97-1.85-3.29s-.62-2.85-.62-4.6,.21-3.15,.64-4.48c.43-1.32,1.05-2.45,1.86-3.37,.81-.92,1.79-1.63,2.93-2.13,1.15-.49,2.43-.74,3.85-.74,1.52,0,2.81,.24,3.88,.73,1.07,.49,1.94,1.14,2.63,1.97,.69,.82,1.19,1.79,1.51,2.9s.48,2.3,.48,3.56v.64h0Zm-3.57-1.05c.04-1.86-.37-3.32-1.24-4.38s-2.17-1.59-3.88-1.59c-.88,0-1.65,.17-2.31,.49-.66,.33-1.22,.77-1.66,1.31-.45,.54-.79,1.18-1.04,1.9s-.38,1.48-.41,2.27h10.54Z"/></g></svg>