<?xml version="1.0" encoding="UTF-8"?><svg id="b" xmlns="http://www.w3.org/2000/svg" viewBox="0 0 2815.2 852.94"><g id="c"><line y1="45.1" x2="2815.2" y2="45.1" fill="none" stroke="#000" stroke-linejoin="bevel" stroke-width="2.73"/><line y1="69.9" x2="2815.2" y2="69.9" fill="none" stroke="#000" stroke-linejoin="bevel" stroke-width="2.73"/><line y1="94.7" x2="2815.2" y2="94.7" fill="none" stroke="#000" stroke-linejoin="bevel" stroke-width="2.73"/><line y1="119.5" x2="2815.2" y2="119.5" fill="none" stroke="#000" stroke-linejoin="bevel" stroke-width="2.73"/><line y1="144.3" x2="2815.2" y2="144.3" fill="none" stroke="#000" stroke-linejoin="bevel" stroke-width="2.73"/><line y1="378.78" x2="2815.2" y2="378.78" fill="none" stroke="#000" stroke-linejoin="bevel" stroke-width="2.73"/><line y1="403.58" x2="2815.2" y2="403.58" fill="none" stroke="#000" stroke-linejoin="bevel" stroke-width="2.73"/><line y1="428.38" x2="2815.2" y2="428.38" fill="none" stroke="#000" stroke-linejoin="bevel" stroke-width="2.73"/><line y1="453.18" x2="2815.2" y2="453.18" fill="none" stroke="#000" stroke-linejoin="bevel" stroke-width="2.73"/><line y1="477.98" x2="2815.2" y2="477.98" fill="none" stroke="#000" stroke-linejoin="bevel" stroke-width="2.73"/><line y1="712.46" x2="2815.2" y2="712.46" fill="none" stroke="#000" stroke-linejoin="bevel" stroke-width="2.73"/><line y1="737.26" x2="2815.2" y2="737.26" fill="none" stroke="#000" stroke-linejoin="bevel" stroke-width="2.73"/><line y1="762.06" x2="2815.2" y2="762.06" fill="none" stroke="#000" stroke-linejoin="bevel" stroke-width="2.73"/><line y1="786.86" x2="2815.2" y2="786.86" fill="none" stroke="#000" stroke-linejoin="bevel" stroke-width="2.73"/><line y1="811.66" x2="2815.2" y2="811.66" fill="none" stroke="#000" stroke-linejoin="bevel" stroke-width="2.73"/><line x1="1058.41" y1="377.42" x2="1058.41" y2="479.34" fill="none" stroke="#000" stroke-linejoin="bevel" stroke-width="4.46"/><line x1="1059.07" y1="43.74" x2="1059.07" y2="145.66" fill="none" stroke="#000" stroke-linejoin="bevel" stroke-width="4.46"/><line x1="1936.02" y1="43.74" x2="1936.02" y2="145.66" fill="none" stroke="#000" stroke-linejoin="bevel" stroke-width="4.46"/><line x1="2799.33" y1="711.1" x2="2799.33" y2="813.02" fill="none" stroke="#000" stroke-linejoin="bevel" stroke-width="4.46"/><line x1="2812.97" y1="711.1" x2="2812.97" y2="813.02" fill="none" stroke="#000" stroke-linejoin="bevel" stroke-width="4.46"/><line x1="2418.65" y1="711.1" x2="2418.65" y2="813.02" fill="none" stroke="#000" stroke-linejoin="bevel" stroke-width="4.46"/><line x1="2812.97" y1="43.74" x2="2812.97" y2="145.66" fill="none" stroke="#000" stroke-linejoin="bevel" stroke-width="4.46"/><line x1="2812.97" y1="377.42" x2="2812.97" y2="479.34" fill="none" stroke="#000" stroke-linejoin="bevel" stroke-width="4.46"/><line x1="1934.7" y1="377.42" x2="1934.7" y2="479.34" fill="none" stroke="#000" stroke-linejoin="bevel" stroke-width="4.46"/><line x1="1300.38" y1="711.1" x2="1300.38" y2="813.02" fill="none" stroke="#000" stroke-linejoin="bevel" stroke-width="4.46"/><line x1="1248.94" y1="86.47" x2="1248.94" y2="162.9" fill="none" stroke="#000" stroke-linejoin="bevel" stroke-width="2.48"/><line x1="2280.75" y1="753.83" x2="2280.75" y2="830.26" fill="none" stroke="#000" stroke-linejoin="bevel" stroke-width="2.48"/><line x1="2348.22" y1="753.83" x2="2348.22" y2="830.26" fill="none" stroke="#000" stroke-linejoin="bevel" stroke-width="2.48"/><line x1="217.83" y1="98.87" x2="217.83" y2="169.1" fill="none" stroke="#000" stroke-linejoin="bevel" stroke-width="2.48"/><line x1="269.22" y1="98.87" x2="269.22" y2="169.1" fill="none" stroke="#000" stroke-linejoin="bevel" stroke-width="2.48"/><line x1="320.6" y1="98.87" x2="320.6" y2="169.1" fill="none" stroke="#000" stroke-linejoin="bevel" stroke-width="2.48"/><line x1="371.99" y1="98.87" x2="371.99" y2="169.1" fill="none" stroke="#000" stroke-linejoin="bevel" stroke-width="2.48"/><line x1="423.38" y1="86.47" x2="423.38" y2="162.9" fill="none" stroke="#000" stroke-linejoin="bevel" stroke-width="2.48"/><line x1="474.77" y1="86.47" x2="474.77" y2="162.9" fill="none" stroke="#000" stroke-linejoin="bevel" stroke-width="2.48"/><line x1="526.15" y1="86.47" x2="526.15" y2="162.9" fill="none" stroke="#000" stroke-linejoin="bevel" stroke-width="2.48"/><line x1="577.54" y1="86.47" x2="577.54" y2="162.9" fill="none" stroke="#000" stroke-linejoin="bevel" stroke-width="2.48"/><line x1="628.93" y1="74.07" x2="628.93" y2="144.3" fill="none" stroke="#000" stroke-linejoin="bevel" stroke-width="2.48"/><line x1="680.32" y1="74.07" x2="680.32" y2="144.3" fill="none" stroke="#000" stroke-linejoin="bevel" stroke-width="2.48"/><line x1="731.71" y1="74.07" x2="731.71" y2="144.3" fill="none" stroke="#000" stroke-linejoin="bevel" stroke-width="2.48"/><line x1="783.09" y1="74.07" x2="783.09" y2="144.3" fill="none" stroke="#000" stroke-linejoin="bevel" stroke-width="2.48"/><line x1="834.48" y1="98.87" x2="834.48" y2="169.1" fill="none" stroke="#000" stroke-linejoin="bevel" stroke-width="2.48"/><line x1="885.87" y1="98.87" x2="885.87" y2="169.1" fill="none" stroke="#000" stroke-linejoin="bevel" stroke-width="2.48"/><line x1="937.25" y1="98.87" x2="937.25" y2="169.1" fill="none" stroke="#000" stroke-linejoin="bevel" stroke-width="2.48"/><line x1="988.64" y1="98.87" x2="988.64" y2="169.1" fill="none" stroke="#000" stroke-linejoin="bevel" stroke-width="2.48"/><line x1="1094.78" y1="86.47" x2="1094.78" y2="162.9" fill="none" stroke="#000" stroke-linejoin="bevel" stroke-width="2.48"/><line x1="1146.17" y1="86.47" x2="1146.17" y2="162.9" fill="none" stroke="#000" stroke-linejoin="bevel" stroke-width="2.48"/><line x1="1197.55" y1="86.47" x2="1197.55" y2="162.9" fill="none" stroke="#000" stroke-linejoin="bevel" stroke-width="2.48"/><line x1="1300.33" y1="74.07" x2="1300.33" y2="144.3" fill="none" stroke="#000" stroke-linejoin="bevel" stroke-width="2.48"/><line x1="1351.72" y1="74.07" x2="1351.72" y2="144.3" fill="none" stroke="#000" stroke-linejoin="bevel" stroke-width="2.48"/><line x1="1403.1" y1="74.07" x2="1403.1" y2="144.3" fill="none" stroke="#000" stroke-linejoin="bevel" stroke-width="2.48"/><line x1="1454.49" y1="74.07" x2="1454.49" y2="144.3" fill="none" stroke="#000" stroke-linejoin="bevel" stroke-width="2.48"/><line x1="1505.88" y1="61.67" x2="1505.88" y2="138.1" fill="none" stroke="#000" stroke-linejoin="bevel" stroke-width="2.48"/><line x1="1557.27" y1="61.67" x2="1557.27" y2="138.1" fill="none" stroke="#000" stroke-linejoin="bevel" stroke-width="2.48"/><line x1="1608.65" y1="61.67" x2="1608.65" y2="138.1" fill="none" stroke="#000" stroke-linejoin="bevel" stroke-width="2.48"/><line x1="1660.04" y1="61.67" x2="1660.04" y2="138.1" fill="none" stroke="#000" stroke-linejoin="bevel" stroke-width="2.48"/><line x1="1711.43" y1="86.47" x2="1711.43" y2="162.9" fill="none" stroke="#000" stroke-linejoin="bevel" stroke-width="2.48"/><line x1="1762.82" y1="86.47" x2="1762.82" y2="162.9" fill="none" stroke="#000" stroke-linejoin="bevel" stroke-width="2.48"/><line x1="1814.2" y1="86.47" x2="1814.2" y2="162.9" fill="none" stroke="#000" stroke-linejoin="bevel" stroke-width="2.48"/><line x1="1865.59" y1="86.47" x2="1865.59" y2="162.9" fill="none" stroke="#000" stroke-linejoin="bevel" stroke-width="2.48"/><line x1="1971.73" y1="74.07" x2="1971.73" y2="144.3" fill="none" stroke="#000" stroke-linejoin="bevel" stroke-width="2.48"/><line x1="2023.12" y1="74.07" x2="2023.12" y2="144.3" fill="none" stroke="#000" stroke-linejoin="bevel" stroke-width="2.48"/><line x1="2074.5" y1="74.07" x2="2074.5" y2="144.3" fill="none" stroke="#000" stroke-linejoin="bevel" stroke-width="2.48"/><line x1="2125.89" y1="74.07" x2="2125.89" y2="144.3" fill="none" stroke="#000" stroke-linejoin="bevel" stroke-width="2.48"/><line x1="2177.28" y1="61.67" x2="2177.28" y2="138.1" fill="none" stroke="#000" stroke-linejoin="bevel" stroke-width="2.48"/><line x1="2228.67" y1="61.67" x2="2228.67" y2="138.1" fill="none" stroke="#000" stroke-linejoin="bevel" stroke-width="2.48"/><line x1="2280.05" y1="61.67" x2="2280.05" y2="138.1" fill="none" stroke="#000" stroke-linejoin="bevel" stroke-width="2.48"/><line x1="2331.44" y1="61.67" x2="2331.44" y2="138.1" fill="none" stroke="#000" stroke-linejoin="bevel" stroke-width="2.48"/><line x1="2382.83" y1="49.27" x2="2382.83" y2="119.5" fill="none" stroke="#000" stroke-linejoin="bevel" stroke-width="2.48"/><line x1="2434.22" y1="49.27" x2="2434.22" y2="119.5" fill="none" stroke="#000" stroke-linejoin="bevel" stroke-width="2.48"/><line x1="2485.6" y1="49.27" x2="2485.6" y2="119.5" fill="none" stroke="#000" stroke-linejoin="bevel" stroke-width="2.48"/><line x1="2536.99" y1="49.27" x2="2536.99" y2="119.5" fill="none" stroke="#000" stroke-linejoin="bevel" stroke-width="2.48"/><line x1="2588.38" y1="74.07" x2="2588.38" y2="144.3" fill="none" stroke="#000" stroke-linejoin="bevel" stroke-width="2.48"/><line x1="2639.77" y1="74.07" x2="2639.77" y2="144.3" fill="none" stroke="#000" stroke-linejoin="bevel" stroke-width="2.48"/><line x1="2691.15" y1="74.07" x2="2691.15" y2="144.3" fill="none" stroke="#000" stroke-linejoin="bevel" stroke-width="2.48"/><line x1="2742.54" y1="74.07" x2="2742.54" y2="144.3" fill="none" stroke="#000" stroke-linejoin="bevel" stroke-width="2.48"/><line x1="217.83" y1="432.55" x2="217.83" y2="502.78" fill="none" stroke="#000" stroke-linejoin="bevel" stroke-width="2.48"/><line x1="269.17" y1="432.55" x2="269.17" y2="502.78" fill="none" stroke="#000" stroke-linejoin="bevel" stroke-width="2.48"/><line x1="320.52" y1="432.55" x2="320.52" y2="502.78" fill="none" stroke="#000" stroke-linejoin="bevel" stroke-width="2.48"/><line x1="371.86" y1="432.55" x2="371.86" y2="502.78" fill="none" stroke="#000" stroke-linejoin="bevel" stroke-width="2.48"/><line x1="423.2" y1="420.15" x2="423.2" y2="496.58" fill="none" stroke="#000" stroke-linejoin="bevel" stroke-width="2.48"/><line x1="474.55" y1="420.15" x2="474.55" y2="496.58" fill="none" stroke="#000" stroke-linejoin="bevel" stroke-width="2.48"/><line x1="525.89" y1="420.15" x2="525.89" y2="496.58" fill="none" stroke="#000" stroke-linejoin="bevel" stroke-width="2.48"/><line x1="577.24" y1="420.15" x2="577.24" y2="496.58" fill="none" stroke="#000" stroke-linejoin="bevel" stroke-width="2.48"/><line x1="628.58" y1="407.75" x2="628.58" y2="477.98" fill="none" stroke="#000" stroke-linejoin="bevel" stroke-width="2.48"/><line x1="679.92" y1="407.75" x2="679.92" y2="477.98" fill="none" stroke="#000" stroke-linejoin="bevel" stroke-width="2.48"/><line x1="731.27" y1="407.75" x2="731.27" y2="477.98" fill="none" stroke="#000" stroke-linejoin="bevel" stroke-width="2.48"/><line x1="782.61" y1="407.75" x2="782.61" y2="477.98" fill="none" stroke="#000" stroke-linejoin="bevel" stroke-width="2.48"/><line x1="833.95" y1="432.55" x2="833.95" y2="502.78" fill="none" stroke="#000" stroke-linejoin="bevel" stroke-width="2.48"/><line x1="885.3" y1="432.55" x2="885.3" y2="502.78" fill="none" stroke="#000" stroke-linejoin="bevel" stroke-width="2.48"/><line x1="936.64" y1="432.55" x2="936.64" y2="502.78" fill="none" stroke="#000" stroke-linejoin="bevel" stroke-width="2.48"/><line x1="987.99" y1="432.55" x2="987.99" y2="502.78" fill="none" stroke="#000" stroke-linejoin="bevel" stroke-width="2.48"/><line x1="1094.12" y1="420.15" x2="1094.12" y2="496.58" fill="none" stroke="#000" stroke-linejoin="bevel" stroke-width="2.48"/><line x1="1145.47" y1="420.15" x2="1145.47" y2="496.58" fill="none" stroke="#000" stroke-linejoin="bevel" stroke-width="2.48"/><line x1="1196.81" y1="420.15" x2="1196.81" y2="496.58" fill="none" stroke="#000" stroke-linejoin="bevel" stroke-width="2.48"/><line x1="1248.15" y1="420.15" x2="1248.15" y2="496.58" fill="none" stroke="#000" stroke-linejoin="bevel" stroke-width="2.48"/><line x1="1299.5" y1="407.75" x2="1299.5" y2="477.98" fill="none" stroke="#000" stroke-linejoin="bevel" stroke-width="2.48"/><line x1="1350.84" y1="407.75" x2="1350.84" y2="477.98" fill="none" stroke="#000" stroke-linejoin="bevel" stroke-width="2.48"/><line x1="1402.18" y1="407.75" x2="1402.18" y2="477.98" fill="none" stroke="#000" stroke-linejoin="bevel" stroke-width="2.48"/><line x1="1453.53" y1="407.75" x2="1453.53" y2="477.98" fill="none" stroke="#000" stroke-linejoin="bevel" stroke-width="2.48"/><line x1="1504.87" y1="395.35" x2="1504.87" y2="471.78" fill="none" stroke="#000" stroke-linejoin="bevel" stroke-width="2.48"/><line x1="1556.22" y1="395.35" x2="1556.22" y2="471.78" fill="none" stroke="#000" stroke-linejoin="bevel" stroke-width="2.48"/><line x1="1607.56" y1="395.35" x2="1607.56" y2="471.78" fill="none" stroke="#000" stroke-linejoin="bevel" stroke-width="2.48"/><line x1="1658.9" y1="395.35" x2="1658.9" y2="471.78" fill="none" stroke="#000" stroke-linejoin="bevel" stroke-width="2.48"/><line x1="1710.25" y1="420.15" x2="1710.25" y2="496.58" fill="none" stroke="#000" stroke-linejoin="bevel" stroke-width="2.48"/><line x1="1761.59" y1="420.15" x2="1761.59" y2="496.58" fill="none" stroke="#000" stroke-linejoin="bevel" stroke-width="2.48"/><line x1="1812.94" y1="420.15" x2="1812.94" y2="496.58" fill="none" stroke="#000" stroke-linejoin="bevel" stroke-width="2.48"/><line x1="1864.28" y1="420.15" x2="1864.28" y2="496.58" fill="none" stroke="#000" stroke-linejoin="bevel" stroke-width="2.48"/><line x1="2000.17" y1="436.81" x2="2000.17" y2="360.18" fill="none" stroke="#000" stroke-linejoin="bevel" stroke-width="2.48"/><line x1="2051.51" y1="436.81" x2="2051.51" y2="360.18" fill="none" stroke="#000" stroke-linejoin="bevel" stroke-width="2.48"/><line x1="2102.86" y1="436.81" x2="2102.86" y2="360.18" fill="none" stroke="#000" stroke-linejoin="bevel" stroke-width="2.48"/><line x1="2154.2" y1="436.81" x2="2154.2" y2="360.18" fill="none" stroke="#000" stroke-linejoin="bevel" stroke-width="2.48"/><line x1="2177.76" y1="432.55" x2="2177.76" y2="502.78" fill="none" stroke="#000" stroke-linejoin="bevel" stroke-width="2.48"/><line x1="2229.1" y1="432.55" x2="2229.1" y2="502.78" fill="none" stroke="#000" stroke-linejoin="bevel" stroke-width="2.48"/><line x1="2280.45" y1="432.55" x2="2280.45" y2="502.78" fill="none" stroke="#000" stroke-linejoin="bevel" stroke-width="2.48"/><line x1="2331.79" y1="432.55" x2="2331.79" y2="502.78" fill="none" stroke="#000" stroke-linejoin="bevel" stroke-width="2.48"/><line x1="2383.14" y1="420.15" x2="2383.14" y2="496.58" fill="none" stroke="#000" stroke-linejoin="bevel" stroke-width="2.48"/><line x1="2434.48" y1="420.15" x2="2434.48" y2="496.58" fill="none" stroke="#000" stroke-linejoin="bevel" stroke-width="2.48"/><line x1="2485.82" y1="420.15" x2="2485.82" y2="496.58" fill="none" stroke="#000" stroke-linejoin="bevel" stroke-width="2.48"/><line x1="2537.17" y1="420.15" x2="2537.17" y2="496.58" fill="none" stroke="#000" stroke-linejoin="bevel" stroke-width="2.48"/><line x1="2618.26" y1="436.81" x2="2618.26" y2="360.18" fill="none" stroke="#000" stroke-linejoin="bevel" stroke-width="2.48"/><line x1="2669.61" y1="436.81" x2="2669.61" y2="360.18" fill="none" stroke="#000" stroke-linejoin="bevel" stroke-width="2.48"/><line x1="2720.95" y1="436.81" x2="2720.95" y2="360.18" fill="none" stroke="#000" stroke-linejoin="bevel" stroke-width="2.48"/><line x1="2772.29" y1="436.81" x2="2772.29" y2="360.18" fill="none" stroke="#000" stroke-linejoin="bevel" stroke-width="2.48"/><line x1="217.83" y1="766.23" x2="217.83" y2="836.46" fill="none" stroke="#000" stroke-linejoin="bevel" stroke-width="2.48"/><line x1="285.31" y1="766.23" x2="285.31" y2="836.46" fill="none" stroke="#000" stroke-linejoin="bevel" stroke-width="2.48"/><line x1="352.78" y1="766.23" x2="352.78" y2="836.46" fill="none" stroke="#000" stroke-linejoin="bevel" stroke-width="2.48"/><line x1="420.26" y1="766.23" x2="420.26" y2="836.46" fill="none" stroke="#000" stroke-linejoin="bevel" stroke-width="2.48"/><line x1="487.73" y1="741.43" x2="487.73" y2="811.66" fill="none" stroke="#000" stroke-linejoin="bevel" stroke-width="2.48"/><line x1="555.21" y1="741.43" x2="555.21" y2="811.66" fill="none" stroke="#000" stroke-linejoin="bevel" stroke-width="2.48"/><line x1="622.68" y1="741.43" x2="622.68" y2="811.66" fill="none" stroke="#000" stroke-linejoin="bevel" stroke-width="2.48"/><line x1="690.16" y1="741.43" x2="690.16" y2="811.66" fill="none" stroke="#000" stroke-linejoin="bevel" stroke-width="2.48"/><line x1="757.63" y1="753.83" x2="757.63" y2="830.26" fill="none" stroke="#000" stroke-linejoin="bevel" stroke-width="2.48"/><line x1="825.11" y1="753.83" x2="825.11" y2="830.26" fill="none" stroke="#000" stroke-linejoin="bevel" stroke-width="2.48"/><line x1="892.58" y1="753.83" x2="892.58" y2="830.26" fill="none" stroke="#000" stroke-linejoin="bevel" stroke-width="2.48"/><line x1="960.06" y1="753.83" x2="960.06" y2="830.26" fill="none" stroke="#000" stroke-linejoin="bevel" stroke-width="2.48"/><line x1="1027.53" y1="766.23" x2="1027.53" y2="836.46" fill="none" stroke="#000" stroke-linejoin="bevel" stroke-width="2.48"/><line x1="1095.01" y1="766.23" x2="1095.01" y2="836.46" fill="none" stroke="#000" stroke-linejoin="bevel" stroke-width="2.48"/><line x1="1162.48" y1="766.23" x2="1162.48" y2="836.46" fill="none" stroke="#000" stroke-linejoin="bevel" stroke-width="2.48"/><line x1="1229.96" y1="766.23" x2="1229.96" y2="836.46" fill="none" stroke="#000" stroke-linejoin="bevel" stroke-width="2.48"/><line x1="1336.09" y1="753.83" x2="1336.09" y2="830.26" fill="none" stroke="#000" stroke-linejoin="bevel" stroke-width="2.48"/><line x1="1403.57" y1="753.83" x2="1403.57" y2="830.26" fill="none" stroke="#000" stroke-linejoin="bevel" stroke-width="2.48"/><line x1="1471.04" y1="753.83" x2="1471.04" y2="830.26" fill="none" stroke="#000" stroke-linejoin="bevel" stroke-width="2.48"/><line x1="1538.52" y1="753.83" x2="1538.52" y2="830.26" fill="none" stroke="#000" stroke-linejoin="bevel" stroke-width="2.48"/><line x1="1605.99" y1="729.03" x2="1605.99" y2="805.46" fill="none" stroke="#000" stroke-linejoin="bevel" stroke-width="2.48"/><line x1="1673.47" y1="729.03" x2="1673.47" y2="805.46" fill="none" stroke="#000" stroke-linejoin="bevel" stroke-width="2.48"/><line x1="1740.94" y1="729.03" x2="1740.94" y2="805.46" fill="none" stroke="#000" stroke-linejoin="bevel" stroke-width="2.48"/><line x1="1808.42" y1="729.03" x2="1808.42" y2="805.46" fill="none" stroke="#000" stroke-linejoin="bevel" stroke-width="2.48"/><line x1="1875.89" y1="741.43" x2="1875.89" y2="811.66" fill="none" stroke="#000" stroke-linejoin="bevel" stroke-width="2.48"/><line x1="1943.37" y1="741.43" x2="1943.37" y2="811.66" fill="none" stroke="#000" stroke-linejoin="bevel" stroke-width="2.48"/><line x1="2010.85" y1="741.43" x2="2010.85" y2="811.66" fill="none" stroke="#000" stroke-linejoin="bevel" stroke-width="2.48"/><line x1="2078.32" y1="741.43" x2="2078.32" y2="811.66" fill="none" stroke="#000" stroke-linejoin="bevel" stroke-width="2.48"/><line x1="2145.8" y1="753.83" x2="2145.8" y2="830.26" fill="none" stroke="#000" stroke-linejoin="bevel" stroke-width="2.48"/><line x1="2213.27" y1="753.83" x2="2213.27" y2="830.26" fill="none" stroke="#000" stroke-linejoin="bevel" stroke-width="2.48"/><path d="M216.59,98.87c0,4.26,3.07,9.02,11.11,9.02,10.31,0,21.13-8.43,21.13-17.16,0-5.86-4.96-9.13-11.11-9.13-9.63,0-21.13,8.14-21.13,17.27"/><path d="M267.98,98.87c0,4.26,3.07,9.02,11.11,9.02,10.31,0,21.13-8.43,21.13-17.16,0-5.86-4.96-9.13-11.11-9.13-9.63,0-21.13,8.14-21.13,17.27"/><path d="M319.37,98.87c0,4.26,3.07,9.02,11.11,9.02,10.31,0,21.13-8.43,21.13-17.16,0-5.86-4.96-9.13-11.11-9.13-9.63,0-21.13,8.14-21.13,17.27"/><path d="M370.75,98.87c0,4.26,3.07,9.02,11.11,9.02,10.31,0,21.13-8.43,21.13-17.16,0-5.86-4.96-9.13-11.11-9.13-9.63,0-21.13,8.14-21.13,17.27"/><path d="M422.14,86.47c0,4.26,3.07,9.02,11.11,9.02,10.31,0,21.13-8.43,21.13-17.16,0-5.86-4.96-9.13-11.11-9.13-9.63,0-21.13,8.14-21.13,17.27"/><path d="M473.53,86.47c0,4.26,3.07,9.02,11.11,9.02,10.31,0,21.13-8.43,21.13-17.16,0-5.86-4.96-9.13-11.11-9.13-9.63,0-21.13,8.14-21.13,17.27"/><path d="M524.91,86.47c0,4.26,3.07,9.02,11.11,9.02,10.31,0,21.13-8.43,21.13-17.16,0-5.86-4.96-9.13-11.11-9.13-9.63,0-21.13,8.14-21.13,17.27"/><path d="M576.3,86.47c0,4.26,3.07,9.02,11.11,9.02,10.31,0,21.13-8.43,21.13-17.16,0-5.86-4.96-9.13-11.11-9.13-9.63,0-21.13,8.14-21.13,17.27"/><path d="M627.69,74.07c0,4.26,3.07,9.02,11.11,9.02,10.31,0,21.13-8.43,21.13-17.16,0-5.86-4.96-9.13-11.11-9.13-9.63,0-21.13,8.14-21.13,17.27"/><path d="M679.08,74.07c0,4.26,3.07,9.02,11.11,9.02,10.31,0,21.13-8.43,21.13-17.16,0-5.86-4.96-9.13-11.11-9.13-9.63,0-21.13,8.14-21.13,17.27"/><path d="M730.47,74.07c0,4.26,3.07,9.02,11.11,9.02,10.31,0,21.13-8.43,21.13-17.16,0-5.86-4.96-9.13-11.11-9.13-9.63,0-21.13,8.14-21.13,17.27"/><path d="M781.85,74.07c0,4.26,3.07,9.02,11.11,9.02,10.31,0,21.13-8.43,21.13-17.16,0-5.86-4.96-9.13-11.11-9.13-9.63,0-21.13,8.14-21.13,17.27"/><path d="M833.24,98.87c0,4.26,3.07,9.02,11.11,9.02,10.31,0,21.13-8.43,21.13-17.16,0-5.86-4.96-9.13-11.11-9.13-9.63,0-21.13,8.14-21.13,17.27"/><path d="M884.63,98.87c0,4.26,3.07,9.02,11.11,9.02,10.31,0,21.13-8.43,21.13-17.16,0-5.86-4.96-9.13-11.11-9.13-9.63,0-21.13,8.14-21.13,17.27"/><path d="M936.01,98.87c0,4.26,3.07,9.02,11.11,9.02,10.31,0,21.13-8.43,21.13-17.16,0-5.86-4.96-9.13-11.11-9.13-9.63,0-21.13,8.14-21.13,17.27"/><path d="M987.4,98.87c0,4.26,3.07,9.02,11.11,9.02,10.31,0,21.13-8.43,21.13-17.16,0-5.86-4.96-9.13-11.11-9.13-9.63,0-21.13,8.14-21.13,17.27"/><path d="M1093.54,86.47c0,4.26,3.07,9.02,11.11,9.02,10.31,0,21.13-8.43,21.13-17.16,0-5.86-4.96-9.13-11.11-9.13-9.63,0-21.13,8.14-21.13,17.27"/><path d="M1144.93,86.47c0,4.26,3.07,9.02,11.11,9.02,10.31,0,21.13-8.43,21.13-17.16,0-5.86-4.96-9.13-11.11-9.13-9.63,0-21.13,8.14-21.13,17.27"/><path d="M1196.31,86.47c0,4.26,3.07,9.02,11.11,9.02,10.31,0,21.13-8.43,21.13-17.16,0-5.86-4.96-9.13-11.11-9.13-9.63,0-21.13,8.14-21.13,17.27"/><path d="M1247.7,86.47c0,4.26,3.07,9.02,11.11,9.02,10.31,0,21.13-8.43,21.13-17.16,0-5.86-4.96-9.13-11.11-9.13-9.63,0-21.13,8.14-21.13,17.27"/><path d="M1299.09,74.07c0,4.26,3.07,9.02,11.11,9.02,10.31,0,21.13-8.43,21.13-17.16,0-5.86-4.96-9.13-11.11-9.13-9.63,0-21.13,8.14-21.13,17.27"/><path d="M1350.48,74.07c0,4.26,3.07,9.02,11.11,9.02,10.31,0,21.13-8.43,21.13-17.16,0-5.86-4.96-9.13-11.11-9.13-9.63,0-21.13,8.14-21.13,17.27"/><path d="M1401.86,74.07c0,4.26,3.07,9.02,11.11,9.02,10.31,0,21.13-8.43,21.13-17.16,0-5.86-4.96-9.13-11.11-9.13-9.63,0-21.13,8.14-21.13,17.27"/><path d="M1453.25,74.07c0,4.26,3.07,9.02,11.11,9.02,10.31,0,21.13-8.43,21.13-17.16,0-5.86-4.96-9.13-11.11-9.13-9.63,0-21.13,8.14-21.13,17.27"/><path d="M1504.64,61.67c0,4.26,3.07,9.02,11.11,9.02,10.31,0,21.13-8.43,21.13-17.16,0-5.86-4.96-9.13-11.11-9.13-9.63,0-21.13,8.14-21.13,17.27"/><path d="M1607.41,61.67c0,4.26,3.07,9.02,11.11,9.02,10.31,0,21.13-8.43,21.13-17.16,0-5.86-4.96-9.13-11.11-9.13-9.63,0-21.13,8.14-21.13,17.27"/><path d="M1658.8,61.67c0,4.26,3.07,9.02,11.11,9.02,10.31,0,21.13-8.43,21.13-17.16,0-5.86-4.96-9.13-11.11-9.13-9.63,0-21.13,8.14-21.13,17.27"/><path d="M1710.19,86.47c0,4.26,3.07,9.02,11.11,9.02,10.31,0,21.13-8.43,21.13-17.16,0-5.86-4.96-9.13-11.11-9.13-9.63,0-21.13,8.14-21.13,17.27"/><path d="M1761.58,86.47c0,4.26,3.07,9.02,11.11,9.02,10.31,0,21.13-8.43,21.13-17.16,0-5.86-4.96-9.13-11.11-9.13-9.63,0-21.13,8.14-21.13,17.27"/><path d="M1812.96,86.47c0,4.26,3.07,9.02,11.11,9.02,10.31,0,21.13-8.43,21.13-17.16,0-5.86-4.96-9.13-11.11-9.13-9.63,0-21.13,8.14-21.13,17.27"/><path d="M1864.35,86.47c0,4.26,3.07,9.02,11.11,9.02,10.31,0,21.13-8.43,21.13-17.16,0-5.86-4.96-9.13-11.11-9.13-9.63,0-21.13,8.14-21.13,17.27"/><path d="M1970.49,74.07c0,4.26,3.07,9.02,11.11,9.02,10.31,0,21.13-8.43,21.13-17.16,0-5.86-4.96-9.13-11.11-9.13-9.63,0-21.13,8.14-21.13,17.27"/><path d="M2021.88,74.07c0,4.26,3.07,9.02,11.11,9.02,10.31,0,21.13-8.43,21.13-17.16,0-5.86-4.96-9.13-11.11-9.13-9.63,0-21.13,8.14-21.13,17.27"/><path d="M2073.26,74.07c0,4.26,3.07,9.02,11.11,9.02,10.31,0,21.13-8.43,21.13-17.16,0-5.86-4.96-9.13-11.11-9.13-9.63,0-21.13,8.14-21.13,17.27"/><path d="M2124.65,74.07c0,4.26,3.07,9.02,11.11,9.02,10.31,0,21.13-8.43,21.13-17.16,0-5.86-4.96-9.13-11.11-9.13-9.63,0-21.13,8.14-21.13,17.27"/><path d="M2176.04,61.67c0,4.26,3.07,9.02,11.11,9.02,10.31,0,21.13-8.43,21.13-17.16,0-5.86-4.96-9.13-11.11-9.13-9.63,0-21.13,8.14-21.13,17.27"/><path d="M2227.43,61.67c0,4.26,3.07,9.02,11.11,9.02,10.31,0,21.13-8.43,21.13-17.16,0-5.86-4.96-9.13-11.11-9.13-9.63,0-21.13,8.14-21.13,17.27"/><path d="M2278.81,61.67c0,4.26,3.07,9.02,11.11,9.02,10.31,0,21.13-8.43,21.13-17.16,0-5.86-4.96-9.13-11.11-9.13-9.63,0-21.13,8.14-21.13,17.27"/><path d="M2330.2,61.67c0,4.26,3.07,9.02,11.11,9.02,10.31,0,21.13-8.43,21.13-17.16,0-5.86-4.96-9.13-11.11-9.13-9.63,0-21.13,8.14-21.13,17.27"/><path d="M2381.59,49.27c0,4.26,3.07,9.02,11.11,9.02,10.31,0,21.13-8.43,21.13-17.16,0-5.86-4.96-9.13-11.11-9.13-9.63,0-21.13,8.14-21.13,17.27"/><path d="M2432.98,49.27c0,4.26,3.07,9.02,11.11,9.02,10.31,0,21.13-8.43,21.13-17.16,0-5.86-4.96-9.13-11.11-9.13-9.63,0-21.13,8.14-21.13,17.27"/><path d="M2484.36,49.27c0,4.26,3.07,9.02,11.11,9.02,10.31,0,21.13-8.43,21.13-17.16,0-5.86-4.96-9.13-11.11-9.13-9.63,0-21.13,8.14-21.13,17.27"/><path d="M2535.75,49.27c0,4.26,3.07,9.02,11.11,9.02,10.31,0,21.13-8.43,21.13-17.16,0-5.86-4.96-9.13-11.11-9.13-9.63,0-21.13,8.14-21.13,17.27"/><path d="M2587.14,74.07c0,4.26,3.07,9.02,11.11,9.02,10.31,0,21.13-8.43,21.13-17.16,0-5.86-4.96-9.13-11.11-9.13-9.63,0-21.13,8.14-21.13,17.27"/><path d="M2638.53,74.07c0,4.26,3.07,9.02,11.11,9.02,10.31,0,21.13-8.43,21.13-17.16,0-5.86-4.96-9.13-11.11-9.13-9.63,0-21.13,8.14-21.13,17.27"/><path d="M2689.91,74.07c0,4.26,3.07,9.02,11.11,9.02,10.31,0,21.13-8.43,21.13-17.16,0-5.86-4.96-9.13-11.11-9.13-9.63,0-21.13,8.14-21.13,17.27"/><path d="M2741.3,74.07c0,4.26,3.07,9.02,11.11,9.02,10.31,0,21.13-8.43,21.13-17.16,0-5.86-4.96-9.13-11.11-9.13-9.63,0-21.13,8.14-21.13,17.27"/><path d="M1556.03,61.67c0,4.26,3.07,9.02,11.11,9.02,10.31,0,21.13-8.43,21.13-17.16,0-5.86-4.96-9.13-11.11-9.13-9.63,0-21.13,8.14-21.13,17.27"/><path d="M216.59,432.55c0,4.26,3.07,9.02,11.11,9.02,10.31,0,21.13-8.43,21.13-17.16,0-5.86-4.96-9.13-11.11-9.13-9.63,0-21.13,8.14-21.13,17.27"/><path d="M267.93,432.55c0,4.26,3.07,9.02,11.11,9.02,10.31,0,21.13-8.43,21.13-17.16,0-5.86-4.96-9.13-11.11-9.13-9.63,0-21.13,8.14-21.13,17.27"/><path d="M319.28,432.55c0,4.26,3.07,9.02,11.11,9.02,10.31,0,21.13-8.43,21.13-17.16,0-5.86-4.96-9.13-11.11-9.13-9.63,0-21.13,8.14-21.13,17.27"/><path d="M370.62,432.55c0,4.26,3.07,9.02,11.11,9.02,10.31,0,21.13-8.43,21.13-17.16,0-5.86-4.96-9.13-11.11-9.13-9.63,0-21.13,8.14-21.13,17.27"/><path d="M421.96,420.15c0,4.26,3.07,9.02,11.11,9.02,10.31,0,21.13-8.43,21.13-17.16,0-5.86-4.96-9.13-11.11-9.13-9.63,0-21.13,8.14-21.13,17.27"/><path d="M473.31,420.15c0,4.26,3.07,9.02,11.11,9.02,10.31,0,21.13-8.43,21.13-17.16,0-5.86-4.96-9.13-11.11-9.13-9.63,0-21.13,8.14-21.13,17.27"/><path d="M524.65,420.15c0,4.26,3.07,9.02,11.11,9.02,10.31,0,21.13-8.43,21.13-17.16,0-5.86-4.96-9.13-11.11-9.13-9.63,0-21.13,8.14-21.13,17.27"/><path d="M576,420.15c0,4.26,3.07,9.02,11.11,9.02,10.31,0,21.13-8.43,21.13-17.16,0-5.86-4.96-9.13-11.11-9.13-9.63,0-21.13,8.14-21.13,17.27"/><path d="M627.34,407.75c0,4.26,3.07,9.02,11.11,9.02,10.31,0,21.13-8.43,21.13-17.16,0-5.86-4.96-9.13-11.11-9.13-9.63,0-21.13,8.14-21.13,17.27"/><path d="M678.68,407.75c0,4.26,3.07,9.02,11.11,9.02,10.31,0,21.13-8.43,21.13-17.16,0-5.86-4.96-9.13-11.11-9.13-9.63,0-21.13,8.14-21.13,17.27"/><path d="M730.03,407.75c0,4.26,3.07,9.02,11.11,9.02,10.31,0,21.13-8.43,21.13-17.16,0-5.86-4.96-9.13-11.11-9.13-9.63,0-21.13,8.14-21.13,17.27"/><path d="M781.37,407.75c0,4.26,3.07,9.02,11.11,9.02,10.31,0,21.13-8.43,21.13-17.16,0-5.86-4.96-9.13-11.11-9.13-9.63,0-21.13,8.14-21.13,17.27"/><path d="M832.71,432.55c0,4.26,3.07,9.02,11.11,9.02,10.31,0,21.13-8.43,21.13-17.16,0-5.86-4.96-9.13-11.11-9.13-9.63,0-21.13,8.14-21.13,17.27"/><path d="M884.06,432.55c0,4.26,3.07,9.02,11.11,9.02,10.31,0,21.13-8.43,21.13-17.16,0-5.86-4.96-9.13-11.11-9.13-9.63,0-21.13,8.14-21.13,17.27"/><path d="M935.4,432.55c0,4.26,3.07,9.02,11.11,9.02,10.31,0,21.13-8.43,21.13-17.16,0-5.86-4.96-9.13-11.11-9.13-9.63,0-21.13,8.14-21.13,17.27"/><path d="M986.75,432.55c0,4.26,3.07,9.02,11.11,9.02,10.31,0,21.13-8.43,21.13-17.16,0-5.86-4.96-9.13-11.11-9.13-9.63,0-21.13,8.14-21.13,17.27"/><path d="M1092.88,420.15c0,4.26,3.07,9.02,11.11,9.02,10.31,0,21.13-8.43,21.13-17.16,0-5.86-4.96-9.13-11.11-9.13-9.63,0-21.13,8.14-21.13,17.27"/><path d="M1144.23,420.15c0,4.26,3.07,9.02,11.11,9.02,10.31,0,21.13-8.43,21.13-17.16,0-5.86-4.96-9.13-11.11-9.13-9.63,0-21.13,8.14-21.13,17.27"/><path d="M1195.57,420.15c0,4.26,3.07,9.02,11.11,9.02,10.31,0,21.13-8.43,21.13-17.16,0-5.86-4.96-9.13-11.11-9.13-9.63,0-21.13,8.14-21.13,17.27"/><path d="M1246.91,420.15c0,4.26,3.07,9.02,11.11,9.02,10.31,0,21.13-8.43,21.13-17.16,0-5.86-4.96-9.13-11.11-9.13-9.63,0-21.13,8.14-21.13,17.27"/><path d="M1298.26,407.75c0,4.26,3.07,9.02,11.11,9.02,10.31,0,21.13-8.43,21.13-17.16,0-5.86-4.96-9.13-11.11-9.13-9.63,0-21.13,8.14-21.13,17.27"/><path d="M1349.6,407.75c0,4.26,3.07,9.02,11.11,9.02,10.31,0,21.13-8.43,21.13-17.16,0-5.86-4.96-9.13-11.11-9.13-9.63,0-21.13,8.14-21.13,17.27"/><path d="M1400.94,407.75c0,4.26,3.07,9.02,11.11,9.02,10.31,0,21.13-8.43,21.13-17.16,0-5.86-4.96-9.13-11.11-9.13-9.63,0-21.13,8.14-21.13,17.27"/><path d="M1452.29,407.75c0,4.26,3.07,9.02,11.11,9.02,10.31,0,21.13-8.43,21.13-17.16,0-5.86-4.96-9.13-11.11-9.13-9.63,0-21.13,8.14-21.13,17.27"/><path d="M1503.63,395.35c0,4.26,3.07,9.02,11.11,9.02,10.31,0,21.13-8.43,21.13-17.16,0-5.86-4.96-9.13-11.11-9.13-9.63,0-21.13,8.14-21.13,17.27"/><path d="M1554.98,395.35c0,4.26,3.07,9.02,11.11,9.02,10.31,0,21.13-8.43,21.13-17.16,0-5.86-4.96-9.13-11.11-9.13-9.63,0-21.13,8.14-21.13,17.27"/><path d="M1606.32,395.35c0,4.26,3.07,9.02,11.11,9.02,10.31,0,21.13-8.43,21.13-17.16,0-5.86-4.96-9.13-11.11-9.13-9.63,0-21.13,8.14-21.13,17.27"/><path d="M1657.66,395.35c0,4.26,3.07,9.02,11.11,9.02,10.31,0,21.13-8.43,21.13-17.16,0-5.86-4.96-9.13-11.11-9.13-9.63,0-21.13,8.14-21.13,17.27"/><path d="M1709.01,420.15c0,4.26,3.07,9.02,11.11,9.02,10.31,0,21.13-8.43,21.13-17.16,0-5.86-4.96-9.13-11.11-9.13-9.63,0-21.13,8.14-21.13,17.27"/><path d="M1811.7,420.15c0,4.26,3.07,9.02,11.11,9.02,10.31,0,21.13-8.43,21.13-17.16,0-5.86-4.96-9.13-11.11-9.13-9.63,0-21.13,8.14-21.13,17.27"/><path d="M1863.04,420.15c0,4.26,3.07,9.02,11.11,9.02,10.31,0,21.13-8.43,21.13-17.16,0-5.86-4.96-9.13-11.11-9.13-9.63,0-21.13,8.14-21.13,17.27"/><path d="M1969.18,444.95c0,4.26,3.07,9.02,11.11,9.02,10.31,0,21.13-8.43,21.13-17.16,0-5.86-4.96-9.13-11.11-9.13-9.63,0-21.13,8.14-21.13,17.27"/><path d="M2020.52,444.95c0,4.26,3.07,9.02,11.11,9.02,10.31,0,21.13-8.43,21.13-17.16,0-5.86-4.96-9.13-11.11-9.13-9.63,0-21.13,8.14-21.13,17.27"/><path d="M2071.86,444.95c0,4.26,3.07,9.02,11.11,9.02,10.31,0,21.13-8.43,21.13-17.16,0-5.86-4.96-9.13-11.11-9.13-9.63,0-21.13,8.14-21.13,17.27"/><path d="M2123.21,444.95c0,4.26,3.07,9.02,11.11,9.02,10.31,0,21.13-8.43,21.13-17.16,0-5.86-4.96-9.13-11.11-9.13-9.63,0-21.13,8.14-21.13,17.27"/><path d="M2176.52,432.55c0,4.26,3.07,9.02,11.11,9.02,10.31,0,21.13-8.43,21.13-17.16,0-5.86-4.96-9.13-11.11-9.13-9.63,0-21.13,8.14-21.13,17.27"/><path d="M2227.86,432.55c0,4.26,3.07,9.02,11.11,9.02,10.31,0,21.13-8.43,21.13-17.16,0-5.86-4.96-9.13-11.11-9.13-9.63,0-21.13,8.14-21.13,17.27"/><path d="M2279.21,432.55c0,4.26,3.07,9.02,11.11,9.02,10.31,0,21.13-8.43,21.13-17.16,0-5.86-4.96-9.13-11.11-9.13-9.63,0-21.13,8.14-21.13,17.27"/><path d="M2330.55,432.55c0,4.26,3.07,9.02,11.11,9.02,10.31,0,21.13-8.43,21.13-17.16,0-5.86-4.96-9.13-11.11-9.13-9.63,0-21.13,8.14-21.13,17.27"/><path d="M1228.72,766.23c0,4.26,3.07,9.02,11.11,9.02,10.31,0,21.13-8.43,21.13-17.16,0-5.86-4.96-9.13-11.11-9.13-9.63,0-21.13,8.14-21.13,17.27"/><path d="M1672.23,729.03c0,4.26,3.07,9.02,11.11,9.02,10.31,0,21.13-8.43,21.13-17.16,0-5.86-4.96-9.13-11.11-9.13-9.63,0-21.13,8.14-21.13,17.27"/><path d="M419.02,766.23c0,4.26,3.07,9.02,11.11,9.02,10.31,0,21.13-8.43,21.13-17.16,0-5.86-4.96-9.13-11.11-9.13-9.63,0-21.13,8.14-21.13,17.27"/><path d="M351.54,766.23c0,4.26,3.07,9.02,11.11,9.02,10.31,0,21.13-8.43,21.13-17.16,0-5.86-4.96-9.13-11.11-9.13-9.63,0-21.13,8.14-21.13,17.27"/><path d="M284.06,766.23c0,4.26,3.07,9.02,11.11,9.02,10.31,0,21.13-8.43,21.13-17.16,0-5.86-4.96-9.13-11.11-9.13-9.63,0-21.13,8.14-21.13,17.27"/><path d="M823.87,753.83c0,4.26,3.07,9.02,11.11,9.02,10.31,0,21.13-8.43,21.13-17.16,0-5.86-4.96-9.13-11.11-9.13-9.63,0-21.13,8.14-21.13,17.27"/><path d="M1739.7,729.03c0,4.26,3.07,9.02,11.11,9.02,10.31,0,21.13-8.43,21.13-17.16,0-5.86-4.96-9.13-11.11-9.13-9.63,0-21.13,8.14-21.13,17.27"/><path d="M756.39,753.83c0,4.26,3.07,9.02,11.11,9.02,10.31,0,21.13-8.43,21.13-17.16,0-5.86-4.96-9.13-11.11-9.13-9.63,0-21.13,8.14-21.13,17.27"/><path d="M553.97,741.43c0,4.26,3.07,9.02,11.11,9.02,10.31,0,21.13-8.43,21.13-17.16,0-5.86-4.96-9.13-11.11-9.13-9.63,0-21.13,8.14-21.13,17.27"/><path d="M1760.35,420.15c0,4.26,3.07,9.02,11.11,9.02,10.31,0,21.13-8.43,21.13-17.16,0-5.86-4.96-9.13-11.11-9.13-9.63,0-21.13,8.14-21.13,17.27"/><path d="M1807.18,729.03c0,4.26,3.07,9.02,11.11,9.02,10.31,0,21.13-8.43,21.13-17.16,0-5.86-4.96-9.13-11.11-9.13-9.63,0-21.13,8.14-21.13,17.27"/><path d="M1874.65,741.43c0,4.26,3.07,9.02,11.11,9.02,10.31,0,21.13-8.43,21.13-17.16,0-5.86-4.96-9.13-11.11-9.13-9.63,0-21.13,8.14-21.13,17.27"/><path d="M1334.85,753.83c0,4.26,3.07,9.02,11.11,9.02,10.31,0,21.13-8.43,21.13-17.16,0-5.86-4.96-9.13-11.11-9.13-9.63,0-21.13,8.14-21.13,17.27"/><path d="M216.59,766.23c0,4.26,3.07,9.02,11.11,9.02,10.31,0,21.13-8.43,21.13-17.16,0-5.86-4.96-9.13-11.11-9.13-9.63,0-21.13,8.14-21.13,17.27"/><path d="M958.82,753.83c0,4.26,3.07,9.02,11.11,9.02,10.31,0,21.13-8.43,21.13-17.16,0-5.86-4.96-9.13-11.11-9.13-9.63,0-21.13,8.14-21.13,17.27"/><path d="M1942.13,741.43c0,4.26,3.07,9.02,11.11,9.02,10.31,0,21.13-8.43,21.13-17.16,0-5.86-4.96-9.13-11.11-9.13-9.63,0-21.13,8.14-21.13,17.27"/><path d="M1093.77,766.23c0,4.26,3.07,9.02,11.11,9.02,10.31,0,21.13-8.43,21.13-17.16,0-5.86-4.96-9.13-11.11-9.13-9.63,0-21.13,8.14-21.13,17.27"/><path d="M2009.61,741.43c0,4.26,3.07,9.02,11.11,9.02,10.31,0,21.13-8.43,21.13-17.16,0-5.86-4.96-9.13-11.11-9.13-9.63,0-21.13,8.14-21.13,17.27"/><path d="M1402.33,753.83c0,4.26,3.07,9.02,11.11,9.02,10.31,0,21.13-8.43,21.13-17.16,0-5.86-4.96-9.13-11.11-9.13-9.63,0-21.13,8.14-21.13,17.27"/><path d="M2077.08,741.43c0,4.26,3.07,9.02,11.11,9.02,10.31,0,21.13-8.43,21.13-17.16,0-5.86-4.96-9.13-11.11-9.13-9.63,0-21.13,8.14-21.13,17.27"/><path d="M891.34,753.83c0,4.26,3.07,9.02,11.11,9.02,10.31,0,21.13-8.43,21.13-17.16,0-5.86-4.96-9.13-11.11-9.13-9.63,0-21.13,8.14-21.13,17.27"/><path d="M2144.56,753.83c0,4.26,3.07,9.02,11.11,9.02,10.31,0,21.13-8.43,21.13-17.16,0-5.86-4.96-9.13-11.11-9.13-9.63,0-21.13,8.14-21.13,17.27"/><path d="M2741.3,444.95c0,4.26,3.07,9.02,11.11,9.02,10.31,0,21.13-8.43,21.13-17.16,0-5.86-4.96-9.13-11.11-9.13-9.63,0-21.13,8.14-21.13,17.27"/><path d="M1469.8,753.83c0,4.26,3.07,9.02,11.11,9.02,10.31,0,21.13-8.43,21.13-17.16,0-5.86-4.96-9.13-11.11-9.13-9.63,0-21.13,8.14-21.13,17.27"/><path d="M2212.03,753.83c0,4.26,3.07,9.02,11.11,9.02,10.31,0,21.13-8.43,21.13-17.16,0-5.86-4.96-9.13-11.11-9.13-9.63,0-21.13,8.14-21.13,17.27"/><path d="M1161.24,766.23c0,4.26,3.07,9.02,11.11,9.02,10.31,0,21.13-8.43,21.13-17.16,0-5.86-4.96-9.13-11.11-9.13-9.63,0-21.13,8.14-21.13,17.27"/><path d="M486.49,741.43c0,4.26,3.07,9.02,11.11,9.02,10.31,0,21.13-8.43,21.13-17.16,0-5.86-4.96-9.13-11.11-9.13-9.63,0-21.13,8.14-21.13,17.27"/><path d="M2279.51,753.83c0,4.26,3.07,9.02,11.11,9.02,10.31,0,21.13-8.43,21.13-17.16,0-5.86-4.96-9.13-11.11-9.13-9.63,0-21.13,8.14-21.13,17.27"/><path d="M1537.28,753.83c0,4.26,3.07,9.02,11.11,9.02,10.31,0,21.13-8.43,21.13-17.16,0-5.86-4.96-9.13-11.11-9.13-9.63,0-21.13,8.14-21.13,17.27"/><path d="M2346.98,753.83c0,4.26,3.07,9.02,11.11,9.02,10.31,0,21.13-8.43,21.13-17.16,0-5.86-4.96-9.13-11.11-9.13-9.63,0-21.13,8.14-21.13,17.27"/><path d="M2689.96,444.95c0,4.26,3.07,9.02,11.11,9.02,10.31,0,21.13-8.43,21.13-17.16,0-5.86-4.96-9.13-11.11-9.13-9.63,0-21.13,8.14-21.13,17.27"/><path d="M2638.61,444.95c0,4.26,3.07,9.02,11.11,9.02,10.31,0,21.13-8.43,21.13-17.16,0-5.86-4.96-9.13-11.11-9.13-9.63,0-21.13,8.14-21.13,17.27"/><path d="M688.92,741.43c0,4.26,3.07,9.02,11.11,9.02,10.31,0,21.13-8.43,21.13-17.16,0-5.86-4.96-9.13-11.11-9.13-9.63,0-21.13,8.14-21.13,17.27"/><path d="M1026.29,766.23c0,4.26,3.07,9.02,11.11,9.02,10.31,0,21.13-8.43,21.13-17.16,0-5.86-4.96-9.13-11.11-9.13-9.63,0-21.13,8.14-21.13,17.27"/><path d="M621.44,741.43c0,4.26,3.07,9.02,11.11,9.02,10.31,0,21.13-8.43,21.13-17.16,0-5.86-4.96-9.13-11.11-9.13-9.63,0-21.13,8.14-21.13,17.27"/><path d="M2471.68,748.57c-13.69,0-18.55,6.94-18.55,13.39s4.87,13.39,18.55,13.39,18.45-6.94,18.45-13.39-4.76-13.39-18.45-13.39m.79,23.61c-2.77,0-4.67-.79-5.95-3.27s-3.07-8.93-3.18-11.52c-.2-2.68,.79-4.26,3.18-5.05,1.19-.4,2.77-.6,4.37-.6,2.67,0,4.46,.6,5.84,3.29,1.39,2.57,3.29,9.02,3.29,11.5,0,4.87-3.58,5.66-7.55,5.66"/><path d="M1604.75,729.03c0,4.26,3.07,9.02,11.11,9.02,10.31,0,21.13-8.43,21.13-17.16,0-5.86-4.96-9.13-11.11-9.13-9.63,0-21.13,8.14-21.13,17.27"/><path d="M2587.27,444.95c0,4.26,3.07,9.02,11.11,9.02,10.31,0,21.13-8.43,21.13-17.16,0-5.86-4.96-9.13-11.11-9.13-9.63,0-21.13,8.14-21.13,17.27"/><path d="M2535.93,420.15c0,4.26,3.07,9.02,11.11,9.02,10.31,0,21.13-8.43,21.13-17.16,0-5.86-4.96-9.13-11.11-9.13-9.63,0-21.13,8.14-21.13,17.27"/><path d="M2484.58,420.15c0,4.26,3.07,9.02,11.11,9.02,10.31,0,21.13-8.43,21.13-17.16,0-5.86-4.96-9.13-11.11-9.13-9.63,0-21.13,8.14-21.13,17.27"/><path d="M2433.24,420.15c0,4.26,3.07,9.02,11.11,9.02,10.31,0,21.13-8.43,21.13-17.16,0-5.86-4.96-9.13-11.11-9.13-9.63,0-21.13,8.14-21.13,17.27"/><path d="M2381.9,420.15c0,4.26,3.07,9.02,11.11,9.02,10.31,0,21.13-8.43,21.13-17.16,0-5.86-4.96-9.13-11.11-9.13-9.63,0-21.13,8.14-21.13,17.27"/><path d="M30.8,170.39c0,6.56,4.96,15.19,18.35,15.19,4.67,0,8.74-1.19,12.31-3.38,5.36-3.77,6.74-10.32,6.74-16.57,0-3.86-.59-8.32-1.58-13.98-.29-1.98-.9-4.96-1.49-8.84,9.72-3.18,16.96-13.3,16.96-23.51,0-14.97-10.62-25.09-25.09-25.09-.99-5.95-1.98-11.81-2.77-17.36,10.42-11.02,17.65-23.42,17.65-39.18,0-9.04-2.77-16.37-4.37-19.95-2.37-5.05-5.25-8.53-7.04-8.53-.7,0-3.77,1.19-7.04,5.05-6.36,7.55-8.14,20.24-8.14,28.57,0,5.36,.5,10.23,2.19,21.34-.11,.09-5.27,5.35-7.35,7.04-9.04,8.34-21.53,20.43-21.53,40.28,0,18.54,16.17,33.12,34.63,33.12,2.87,0,5.55-.29,7.83-.7,1.89,9.53,3.08,16.48,3.08,21.73,0,10.32-5.36,15.78-15.38,15.78-2.39,0-4.46-.5-4.67-.5-.09-.11-.29-.2-.29-.29,0-.2,.2-.31,.5-.31,4.67-.79,9.32-4.76,9.32-11.1,0-5.36-4.06-11.02-11.5-11.02-6.94,0-11.31,5.66-11.31,12.2M51.54,37.95c.9-3.97,5.46-14.38,10.62-14.38,1.49,0,3.86,4.76,3.86,11.7,0,10.32-7.63,18.06-14.48,24.8-.59-3.97-1.08-7.83-1.08-12,0-3.67,.29-7.05,1.08-10.12m8.73,101.97c-1.98,.4-3.86,.6-5.75,.6-14.18,0-26.29-9.92-26.29-24.91,0-12.09,8.53-22.91,17.27-30.46,1.67-1.49,3.27-2.87,4.76-4.36,.88,5.35,1.58,10.01,2.28,14.09-9.04,2.68-15.17,12.2-15.17,21.53,0,6.94,5.46,16.46,13.39,16.46,.79,0,1.69-.4,1.69-1.29s-.99-1.39-2.19-2.19c-3.88-2.39-6.06-4.96-6.06-9.83,0-6.05,4.57-10.91,10.32-12.29l5.75,32.63m14.09-18.35c0,7.05-2.88,14.29-9.92,17.17-2.08-11.9-4.76-27.68-5.46-32.05,8.93,0,15.38,6.06,15.38,14.88"/><path d="M30.8,504.07c0,6.56,4.96,15.19,18.35,15.19,4.67,0,8.74-1.19,12.31-3.38,5.36-3.77,6.74-10.32,6.74-16.57,0-3.86-.59-8.32-1.58-13.98-.29-1.98-.9-4.96-1.49-8.84,9.72-3.18,16.96-13.3,16.96-23.51,0-14.97-10.62-25.09-25.09-25.09-.99-5.95-1.98-11.81-2.77-17.36,10.42-11.02,17.65-23.42,17.65-39.18,0-9.04-2.77-16.37-4.37-19.95-2.37-5.05-5.25-8.53-7.04-8.53-.7,0-3.77,1.19-7.04,5.05-6.36,7.55-8.14,20.24-8.14,28.57,0,5.36,.5,10.23,2.19,21.34-.11,.09-5.27,5.35-7.35,7.04-9.04,8.34-21.53,20.43-21.53,40.28,0,18.54,16.17,33.12,34.63,33.12,2.87,0,5.55-.29,7.83-.7,1.89,9.53,3.08,16.48,3.08,21.73,0,10.32-5.36,15.78-15.38,15.78-2.39,0-4.46-.5-4.67-.5-.09-.11-.29-.2-.29-.29,0-.2,.2-.31,.5-.31,4.67-.79,9.32-4.76,9.32-11.1,0-5.36-4.06-11.02-11.5-11.02-6.94,0-11.31,5.66-11.31,12.2m20.74-132.43c.9-3.97,5.46-14.38,10.62-14.38,1.49,0,3.86,4.76,3.86,11.7,0,10.32-7.63,18.06-14.48,24.8-.59-3.97-1.08-7.83-1.08-12,0-3.67,.29-7.05,1.08-10.12m8.73,101.97c-1.98,.4-3.86,.6-5.75,.6-14.18,0-26.29-9.92-26.29-24.91,0-12.09,8.53-22.91,17.27-30.46,1.67-1.49,3.27-2.87,4.76-4.36,.88,5.35,1.58,10.01,2.28,14.09-9.04,2.68-15.17,12.2-15.17,21.53,0,6.94,5.46,16.46,13.39,16.46,.79,0,1.69-.4,1.69-1.29s-.99-1.39-2.19-2.19c-3.88-2.39-6.06-4.96-6.06-9.83,0-6.05,4.57-10.91,10.32-12.29l5.75,32.63m14.09-18.35c0,7.05-2.88,14.29-9.92,17.17-2.08-11.9-4.76-27.68-5.46-32.05,8.93,0,15.38,6.06,15.38,14.88"/><path d="M30.8,837.75c0,6.56,4.96,15.19,18.35,15.19,4.67,0,8.74-1.19,12.31-3.38,5.36-3.77,6.74-10.32,6.74-16.57,0-3.86-.59-8.32-1.58-13.98-.29-1.98-.9-4.96-1.49-8.84,9.72-3.18,16.96-13.3,16.96-23.51,0-14.97-10.62-25.09-25.09-25.09-.99-5.95-1.98-11.81-2.77-17.36,10.42-11.02,17.65-23.42,17.65-39.18,0-9.04-2.77-16.37-4.37-19.95-2.37-5.05-5.25-8.53-7.04-8.53-.7,0-3.77,1.19-7.04,5.05-6.36,7.55-8.14,20.24-8.14,28.57,0,5.36,.5,10.23,2.19,21.34-.11,.09-5.27,5.35-7.35,7.04-9.04,8.34-21.53,20.43-21.53,40.28,0,18.54,16.17,33.12,34.63,33.12,2.87,0,5.55-.29,7.83-.7,1.89,9.53,3.08,16.48,3.08,21.73,0,10.32-5.36,15.78-15.38,15.78-2.39,0-4.46-.5-4.67-.5-.09-.11-.29-.2-.29-.29,0-.2,.2-.31,.5-.31,4.67-.79,9.32-4.76,9.32-11.1,0-5.36-4.06-11.02-11.5-11.02-6.94,0-11.31,5.66-11.31,12.2m20.74-132.43c.9-3.97,5.46-14.38,10.62-14.38,1.49,0,3.86,4.76,3.86,11.7,0,10.32-7.63,18.06-14.48,24.8-.59-3.97-1.08-7.83-1.08-12,0-3.67,.29-7.05,1.08-10.12m8.73,101.97c-1.98,.4-3.86,.6-5.75,.6-14.18,0-26.29-9.92-26.29-24.91,0-12.09,8.53-22.91,17.27-30.46,1.67-1.49,3.27-2.87,4.76-4.36,.88,5.35,1.58,10.01,2.28,14.09-9.04,2.68-15.17,12.2-15.17,21.53,0,6.94,5.46,16.46,13.39,16.46,.79,0,1.69-.4,1.69-1.29s-.99-1.39-2.19-2.19c-3.88-2.39-6.06-4.96-6.06-9.83,0-6.05,4.57-10.91,10.32-12.29l5.75,32.63m14.09-18.35c0,7.05-2.88,14.29-9.92,17.17-2.08-11.9-4.76-27.68-5.46-32.05,8.93,0,15.38,6.06,15.38,14.88"/><path d="M118.79,746.68c-4.96,0-7.84,3.07-8.34,3.67l.4-31.85c0-.79-.59-1.38-1.4-1.38h-1.18c-.81,0-1.4,.59-1.4,1.38l.5,59.63c0,.79,.59,1.38,1.4,1.38,.19,0,.59-.09,.79-.19,8.53-4.28,17.45-12.4,17.45-22.63,0-5.15-2.37-10.01-8.23-10.01m-8.63,27.98l.29-19.34c.2-.9,1.69-3.77,5.66-3.77,3.58,0,3.87,3.36,3.87,5.46,0,8.82-3.27,12.49-9.83,17.65"/><path d="M146.36,709.48c-4.96,0-7.84,3.07-8.34,3.67l.4-31.85c0-.79-.59-1.38-1.4-1.38h-1.18c-.81,0-1.4,.59-1.4,1.38l.5,59.63c0,.79,.59,1.38,1.4,1.38,.19,0,.59-.09,.79-.19,8.53-4.28,17.45-12.4,17.45-22.63,0-5.15-2.37-10.01-8.23-10.01m-8.63,27.98l.29-19.34c.2-.9,1.69-3.77,5.66-3.77,3.58,0,3.87,3.36,3.87,5.46,0,8.82-3.27,12.49-9.83,17.65"/><path d="M118.79,79.32c-4.96,0-7.84,3.07-8.34,3.67l.4-31.85c0-.79-.59-1.38-1.4-1.38h-1.18c-.81,0-1.4,.59-1.4,1.38l.5,59.63c0,.79,.59,1.38,1.4,1.38,.19,0,.59-.09,.79-.19,8.53-4.28,17.45-12.4,17.45-22.63,0-5.15-2.37-10.01-8.23-10.01m-8.63,27.98l.29-19.34c.2-.9,1.69-3.77,5.66-3.77,3.58,0,3.87,3.36,3.87,5.46,0,8.82-3.27,12.49-9.83,17.65"/><path d="M146.36,42.12c-4.96,0-7.84,3.07-8.34,3.67l.4-31.85c0-.79-.59-1.38-1.4-1.38h-1.18c-.81,0-1.4,.59-1.4,1.38l.5,59.63c0,.79,.59,1.38,1.4,1.38,.19,0,.59-.09,.79-.19,8.53-4.28,17.45-12.4,17.45-22.63,0-5.15-2.37-10.01-8.23-10.01m-8.63,27.98l.29-19.34c.2-.9,1.69-3.77,5.66-3.77,3.58,0,3.87,3.36,3.87,5.46,0,8.82-3.27,12.49-9.83,17.65"/><path d="M118.79,413c-4.96,0-7.84,3.07-8.34,3.67l.4-31.85c0-.79-.59-1.38-1.4-1.38h-1.18c-.81,0-1.4,.59-1.4,1.38l.5,59.63c0,.79,.59,1.38,1.4,1.38,.19,0,.59-.09,.79-.19,8.53-4.28,17.45-12.4,17.45-22.63,0-5.15-2.37-10.01-8.23-10.01m-8.63,27.98l.29-19.34c.2-.9,1.69-3.77,5.66-3.77,3.58,0,3.87,3.36,3.87,5.46,0,8.82-3.27,12.49-9.83,17.65"/><path d="M146.36,375.8c-4.96,0-7.84,3.07-8.34,3.67l.4-31.85c0-.79-.59-1.38-1.4-1.38h-1.18c-.81,0-1.4,.59-1.4,1.38l.5,59.63c0,.79,.59,1.38,1.4,1.38,.19,0,.59-.09,.79-.19,8.53-4.28,17.45-12.4,17.45-22.63,0-5.15-2.37-10.01-8.23-10.01m-8.63,27.98l.29-19.34c.2-.9,1.69-3.77,5.66-3.77,3.58,0,3.87,3.36,3.87,5.46,0,8.82-3.27,12.49-9.83,17.65"/><path d="M2494.34,674.27c-9.32-10.12-17.56-10.71-22.71-10.71s-13.3,.59-22.63,10.71c-4.85,5.36-8.23,15.97-8.23,21.33,0,1.89,.4,3.18,1.4,3.18,2.77,0,1.38-8.54,9.72-16.97,7.33-7.33,17.16-7.44,19.55-7.44h.39c2.39,0,12.21,.11,19.55,7.44,8.34,8.43,6.94,16.97,9.72,16.97,.99,0,1.39-1.19,1.39-3.18,0-5.36-3.27-16.07-8.14-21.33m-29.56,18.94c0,3.78,3.07,6.85,6.85,6.85s6.84-3.07,6.84-6.85-3.07-6.84-6.84-6.84-6.85,3.07-6.85,6.84"/><path d="M276.59,10.67c.56-.48,.88-.65,1.3-.65,.34,0,.62,.17,.91,.54,.56,.78,.77,.92,1.33,.92,.81,0,1.41-.67,1.41-1.54,0-1.02-.98-1.82-2.2-1.82s-2.17,.46-4,1.9c-1.08-.5-1.89-.68-3.01-.68-3.88,0-7.17,2.77-7.17,5.99,0,1.69,.67,2.84,2.17,3.64-1.61,.22-2.34,.45-3.16,1.15-.69,.57-1.14,1.5-1.14,2.35,0,1.19,.55,1.92,1.92,2.59-2.06,.46-4.49,1.33-4.49,3.89,0,3.5,4.62,3.92,7.17,3.92,3.47,0,5.47-.42,7.19-1.54,1.5-.99,2.38-2.49,2.38-4.13,0-3.54-3.75-3.97-6.44-4.14-3.12-.17-3.36-.2-3.86-.31-.88-.2-1.3-.63-1.3-1.22,0-.84,.84-1.41,2.11-1.41,.45,0,.97,.04,1.44,.11,1.42,.21,1.64,.24,2.52,.24,1.95,0,3.5-.49,4.72-1.47,1.41-1.08,2.28-2.83,2.28-4.44s-.7-2.9-2.06-3.89m-4.03,0c1.83,0,2.98,1.1,2.98,2.8,0,2.53-1.16,5.72-4.14,5.72-1.89,0-3.08-1.21-3.08-3.16,0-3.16,1.72-5.36,4.24-5.36m-4.27,15.02c1.58,0,4.09,.36,4.89,.67,.88,.37,1.3,.98,1.3,1.86,0,2.06-2.2,3.17-6.22,3.17-3.41,0-4.98-.83-4.98-2.69s1.83-3.01,5.02-3.01m31.74-15.82h-3.05l-1.64,5.6c-1.44,4.87-4.66,8.86-7.14,8.86-.84,0-1.5-.67-1.5-1.5,0-.47,.09-1.02,.38-2l3.44-11.49-6.75,.53-.11,1.25h.84c1.42,0,1.95,.33,1.95,1.13,0,.34-.11,.84-.28,1.5l-1.39,4.73q-1.09,3.5-1.09,4.58c0,1.92,1.33,3.22,3.33,3.22,2.45,0,4.44-1.42,6.52-4.66-.36,1.24-.42,1.72-.42,2.4,0,1.35,.94,2.31,2.23,2.31,2.14,0,3.86-1.44,6.34-5.25l-1.06-.64c-1.7,2.56-3.08,3.95-3.84,3.95-.31,0-.62-.37-.62-.83,0-.39,.14-1.06,.41-2.08l3.47-11.61"/><path d="M227.52,20.27c-2.03,3.29-2.91,4.2-4.06,4.2-.55,0-.88-.36-.88-.99,0-.45,.19-1.26,.53-2.48L229.35,0l-6.97,.53-.14,1.25h1.08c1.44,0,2,.31,2,1.09,0,.35-.11,.8-.31,1.54l-2.31,7.78c-.62-1.83-2-2.85-4.02-2.85-5.05,0-9.73,5.39-9.73,11.21,0,3.43,2.2,5.78,5.48,5.78,2.39,0,4.14-.99,5.67-3.27-.03,.28-.03,.64-.03,.78,0,1.61,.84,2.49,2.38,2.49,2.22,0,4.14-1.72,6.12-5.44l-1.05-.62m-8.75-9.35c1.72,0,2.98,1.33,2.98,3.16,0,3.17-2.25,10.59-6.31,10.59-1.89,0-3.11-1.5-3.11-3.78,0-3.31,2.38-9.97,6.44-9.97m28.88-1.05h-3.05l-1.64,5.6c-1.44,4.87-4.66,8.86-7.14,8.86-.84,0-1.5-.67-1.5-1.5,0-.47,.09-1.02,.38-2l3.44-11.49-6.75,.53-.11,1.25h.84c1.42,0,1.95,.33,1.95,1.13,0,.34-.11,.84-.28,1.5l-1.39,4.73q-1.09,3.5-1.09,4.58c0,1.92,1.33,3.22,3.33,3.22,2.45,0,4.44-1.42,6.52-4.66-.36,1.24-.42,1.72-.42,2.4,0,1.35,.94,2.31,2.23,2.31,2.14,0,3.86-1.44,6.34-5.25l-1.06-.64c-1.7,2.56-3.08,3.95-3.84,3.95-.31,0-.62-.37-.62-.83,0-.39,.14-1.06,.41-2.08l3.47-11.61"/><path d="M629.48,9.34c-3.69,0-6.34,2.24-6.34,5.28,0,1.52,.88,2.77,2.42,3.58,.56,.28,1.25,.6,2.72,1.19,2,.81,2.5,1.3,2.5,2.52,0,1.89-1.58,3.07-4,3.07-1.78,0-3.05-.48-3.05-1.18,0-.18,.11-.38,.25-.52,.66-.7,.73-.87,.73-1.51,0-.97-.77-1.75-1.78-1.75-1.16,0-2.03,.98-2.03,2.34,0,2.45,2.17,3.97,5.7,3.97,4.03,0,6.8-2.22,6.8-5.39,0-1.41-.64-2.6-1.75-3.36-.78-.53-1.12-.67-3.05-1.38-2.28-.79-2.88-1.36-2.88-2.73,0-1.61,1.53-2.8,3.56-2.8,1.38,0,2.28,.39,2.28,.95,0,.15-.06,.32-.17,.49-.5,.7-.56,.87-.56,1.41,0,.93,.73,1.6,1.81,1.6,1.2,0,2-.87,2-2.14,0-2.14-2.12-3.64-5.17-3.64m14.91-8.54c-1.05,0-1.89,.84-1.89,1.89s.84,1.89,1.86,1.89c1.08,0,1.92-.83,1.92-1.89s-.84-1.89-1.89-1.89m.62,8.54l-6.72,.53-.14,1.25h.84c1.44,0,2,.33,2,1.1,0,.34-.08,.73-.31,1.53l-2.03,6.83c-.67,2.25-.78,2.73-.78,3.53,0,1.23,1.06,2.17,2.39,2.17,3,0,5.08-3.11,6.55-5.39l-1.09-.59c-1.81,2.76-3.28,4.23-4.23,4.23-.34,0-.59-.31-.59-.73,0-.35,.14-.97,.42-1.96l3.7-12.5m11.97,0l-6.36,.53-.11,1.25h.84c1.39,0,1.95,.33,1.95,1.13,0,.31-.11,.84-.28,1.5l-3.56,12.05h3.05l1.42-4.94c1.58-5.36,4.77-9.41,7.39-9.41,.91,0,1.47,.49,1.47,1.36,0,.71-.28,2.17-.7,3.5l-2.8,9.49h3.05l1.5-5.08c.88-2.91,1.75-4.86,2.88-6.38,1.27-1.75,3.05-2.89,4.38-2.89,.88,0,1.36,.46,1.36,1.28,0,.5-.17,1.27-.48,2.25l-1.61,4.97c-.94,2.74-.98,2.94-.98,3.92,0,1.47,1.09,2.46,2.73,2.46,1.16,0,2.28-.56,3.47-1.69,.73-.7,1.22-1.33,2.66-3.42l-1.08-.75c-1.83,2.73-3.12,4.06-4.03,4.06-.39,0-.73-.37-.73-.87,0-.32,.11-.69,.42-1.71l2.2-6.79c.25-.77,.42-1.86,.42-2.63,0-1.86-1.38-3.19-3.25-3.19-2.5,0-4.73,1.61-6.77,4.94,.14-.67,.22-1.26,.22-1.69,0-1.84-1.47-3.25-3.41-3.25-2.2,0-3.81,1.22-6.27,4.74l1.02-4.74m25.72,12.64c-1.19,0-2.17,.99-2.17,2.18s.98,2.17,2.14,2.17c1.25,0,2.2-.96,2.2-2.17s-.98-2.18-2.17-2.18"/><path d="M584.92,10.67c.56-.48,.88-.65,1.3-.65,.34,0,.62,.17,.91,.54,.56,.78,.77,.92,1.33,.92,.81,0,1.41-.67,1.41-1.54,0-1.02-.98-1.82-2.2-1.82s-2.17,.46-4,1.9c-1.08-.5-1.89-.68-3.02-.68-3.88,0-7.17,2.77-7.17,5.99,0,1.69,.67,2.84,2.17,3.64-1.61,.22-2.34,.45-3.16,1.15-.69,.57-1.14,1.5-1.14,2.35,0,1.19,.55,1.92,1.92,2.59-2.06,.46-4.48,1.33-4.48,3.89,0,3.5,4.62,3.92,7.17,3.92,3.47,0,5.47-.42,7.19-1.54,1.5-.99,2.38-2.49,2.38-4.13,0-3.54-3.75-3.97-6.44-4.14-3.12-.17-3.36-.2-3.86-.31-.88-.2-1.3-.63-1.3-1.22,0-.84,.84-1.41,2.11-1.41,.45,0,.97,.04,1.44,.11,1.42,.21,1.64,.24,2.51,.24,1.95,0,3.5-.49,4.72-1.47,1.41-1.08,2.28-2.83,2.28-4.44s-.7-2.9-2.06-3.89m-4.03,0c1.83,0,2.98,1.1,2.98,2.8,0,2.53-1.16,5.72-4.14,5.72-1.89,0-3.08-1.21-3.08-3.16,0-3.16,1.72-5.36,4.23-5.36m-4.27,15.02c1.58,0,4.09,.36,4.89,.67,.88,.37,1.3,.98,1.3,1.86,0,2.06-2.2,3.17-6.22,3.17-3.41,0-4.99-.83-4.99-2.69s1.83-3.01,5.02-3.01m31.73-15.82h-3.05l-1.64,5.6c-1.44,4.87-4.66,8.86-7.14,8.86-.84,0-1.5-.67-1.5-1.5,0-.47,.09-1.02,.38-2l3.44-11.49-6.75,.53-.11,1.25h.84c1.42,0,1.95,.33,1.95,1.13,0,.34-.11,.84-.28,1.5l-1.39,4.73q-1.09,3.5-1.09,4.58c0,1.92,1.33,3.22,3.33,3.22,2.45,0,4.44-1.42,6.51-4.66-.36,1.24-.42,1.72-.42,2.4,0,1.35,.94,2.31,2.24,2.31,2.14,0,3.86-1.44,6.34-5.25l-1.06-.64c-1.7,2.56-3.08,3.95-3.84,3.95-.31,0-.62-.37-.62-.83,0-.39,.14-1.06,.41-2.08l3.47-11.61"/><path d="M535.84,20.27c-2.03,3.29-2.91,4.2-4.06,4.2-.55,0-.88-.36-.88-.99,0-.45,.19-1.26,.53-2.48l6.24-21-6.97,.53-.14,1.25h1.08c1.44,0,2,.31,2,1.09,0,.35-.11,.8-.31,1.54l-2.31,7.78c-.62-1.83-2-2.85-4.01-2.85-5.05,0-9.74,5.39-9.74,11.21,0,3.43,2.2,5.78,5.49,5.78,2.39,0,4.14-.99,5.67-3.27-.03,.28-.03,.64-.03,.78,0,1.61,.84,2.49,2.38,2.49,2.22,0,4.14-1.72,6.12-5.44l-1.05-.62m-8.75-9.35c1.72,0,2.98,1.33,2.98,3.16,0,3.17-2.25,10.59-6.31,10.59-1.89,0-3.11-1.5-3.11-3.78,0-3.31,2.38-9.97,6.44-9.97m28.88-1.05h-3.05l-1.64,5.6c-1.44,4.87-4.66,8.86-7.14,8.86-.84,0-1.5-.67-1.5-1.5,0-.47,.09-1.02,.38-2l3.44-11.49-6.75,.53-.11,1.25h.84c1.42,0,1.95,.33,1.95,1.13,0,.34-.11,.84-.28,1.5l-1.39,4.73q-1.09,3.5-1.09,4.58c0,1.92,1.33,3.22,3.33,3.22,2.45,0,4.44-1.42,6.52-4.66-.36,1.24-.42,1.72-.42,2.4,0,1.35,.94,2.31,2.23,2.31,2.14,0,3.86-1.44,6.34-5.25l-1.06-.64c-1.7,2.56-3.08,3.95-3.84,3.95-.31,0-.62-.37-.62-.83,0-.39,.14-1.06,.41-2.08l3.47-11.61"/><path d="M482.14,10.67c.56-.48,.88-.65,1.3-.65,.34,0,.62,.17,.91,.54,.56,.78,.77,.92,1.33,.92,.81,0,1.41-.67,1.41-1.54,0-1.02-.98-1.82-2.2-1.82s-2.17,.46-4,1.9c-1.08-.5-1.89-.68-3.02-.68-3.88,0-7.17,2.77-7.17,5.99,0,1.69,.67,2.84,2.17,3.64-1.61,.22-2.34,.45-3.16,1.15-.69,.57-1.14,1.5-1.14,2.35,0,1.19,.55,1.92,1.92,2.59-2.06,.46-4.48,1.33-4.48,3.89,0,3.5,4.62,3.92,7.17,3.92,3.47,0,5.47-.42,7.19-1.54,1.5-.99,2.38-2.49,2.38-4.13,0-3.54-3.75-3.97-6.44-4.14-3.12-.17-3.36-.2-3.86-.31-.88-.2-1.3-.63-1.3-1.22,0-.84,.84-1.41,2.11-1.41,.45,0,.97,.04,1.44,.11,1.42,.21,1.64,.24,2.52,.24,1.95,0,3.5-.49,4.72-1.47,1.41-1.08,2.28-2.83,2.28-4.44s-.7-2.9-2.06-3.89m-4.03,0c1.83,0,2.98,1.1,2.98,2.8,0,2.53-1.16,5.72-4.14,5.72-1.89,0-3.08-1.21-3.08-3.16,0-3.16,1.72-5.36,4.23-5.36m-4.27,15.02c1.58,0,4.09,.36,4.89,.67,.88,.37,1.3,.98,1.3,1.86,0,2.06-2.2,3.17-6.22,3.17-3.41,0-4.98-.83-4.98-2.69s1.83-3.01,5.02-3.01m31.73-15.82h-3.05l-1.64,5.6c-1.44,4.87-4.66,8.86-7.14,8.86-.84,0-1.5-.67-1.5-1.5,0-.47,.09-1.02,.38-2l3.44-11.49-6.75,.53-.11,1.25h.84c1.42,0,1.95,.33,1.95,1.13,0,.34-.11,.84-.28,1.5l-1.39,4.73q-1.09,3.5-1.09,4.58c0,1.92,1.33,3.22,3.33,3.22,2.45,0,4.44-1.42,6.52-4.66-.36,1.24-.42,1.72-.42,2.4,0,1.35,.94,2.31,2.23,2.31,2.14,0,3.86-1.44,6.34-5.25l-1.06-.64c-1.7,2.56-3.08,3.95-3.84,3.95-.31,0-.62-.37-.62-.83,0-.39,.14-1.06,.41-2.08l3.47-11.61"/><path d="M330.29,20.27c-2.03,3.29-2.91,4.2-4.06,4.2-.55,0-.88-.36-.88-.99,0-.45,.19-1.26,.53-2.48l6.23-21-6.97,.53-.14,1.25h1.08c1.44,0,2,.31,2,1.09,0,.35-.11,.8-.31,1.54l-2.31,7.78c-.62-1.83-2-2.85-4.02-2.85-5.05,0-9.73,5.39-9.73,11.21,0,3.43,2.2,5.78,5.48,5.78,2.39,0,4.14-.99,5.67-3.27-.03,.28-.03,.64-.03,.78,0,1.61,.84,2.49,2.38,2.49,2.22,0,4.14-1.72,6.12-5.44l-1.05-.62m-8.75-9.35c1.72,0,2.98,1.33,2.98,3.16,0,3.17-2.25,10.59-6.31,10.59-1.89,0-3.11-1.5-3.11-3.78,0-3.31,2.38-9.97,6.44-9.97m28.88-1.05h-3.05l-1.64,5.6c-1.44,4.87-4.66,8.86-7.14,8.86-.84,0-1.5-.67-1.5-1.5,0-.47,.09-1.02,.38-2l3.44-11.49-6.75,.53-.11,1.25h.84c1.42,0,1.95,.33,1.95,1.13,0,.34-.11,.84-.28,1.5l-1.39,4.73q-1.09,3.5-1.09,4.58c0,1.92,1.33,3.22,3.33,3.22,2.45,0,4.44-1.42,6.52-4.66-.36,1.24-.42,1.72-.42,2.4,0,1.35,.94,2.31,2.23,2.31,2.14,0,3.86-1.44,6.34-5.25l-1.06-.64c-1.7,2.56-3.08,3.95-3.84,3.95-.31,0-.62-.37-.62-.83,0-.39,.14-1.06,.41-2.08l3.47-11.61"/><path d="M433.07,20.27c-2.03,3.29-2.91,4.2-4.06,4.2-.55,0-.88-.36-.88-.99,0-.45,.19-1.26,.53-2.48l6.23-21-6.97,.53-.14,1.25h1.08c1.44,0,2,.31,2,1.09,0,.35-.11,.8-.31,1.54l-2.31,7.78c-.62-1.83-2-2.85-4.02-2.85-5.05,0-9.73,5.39-9.73,11.21,0,3.43,2.2,5.78,5.48,5.78,2.39,0,4.14-.99,5.67-3.27-.03,.28-.03,.64-.03,.78,0,1.61,.84,2.49,2.38,2.49,2.22,0,4.14-1.72,6.12-5.44l-1.05-.62m-8.75-9.35c1.72,0,2.98,1.33,2.98,3.16,0,3.17-2.25,10.59-6.31,10.59-1.89,0-3.11-1.5-3.11-3.78,0-3.31,2.38-9.97,6.44-9.97m28.88-1.05h-3.05l-1.64,5.6c-1.44,4.87-4.66,8.86-7.14,8.86-.84,0-1.5-.67-1.5-1.5,0-.47,.09-1.02,.38-2l3.44-11.49-6.75,.53-.11,1.25h.84c1.42,0,1.95,.33,1.95,1.13,0,.34-.11,.84-.28,1.5l-1.39,4.73q-1.09,3.5-1.09,4.58c0,1.92,1.33,3.22,3.33,3.22,2.45,0,4.44-1.42,6.52-4.66-.36,1.24-.42,1.72-.42,2.4,0,1.35,.94,2.31,2.23,2.31,2.14,0,3.86-1.44,6.34-5.25l-1.06-.64c-1.7,2.56-3.08,3.95-3.84,3.95-.31,0-.62-.37-.62-.83,0-.39,.14-1.06,.41-2.08l3.47-11.61"/><path d="M379.37,10.67c.56-.48,.88-.65,1.3-.65,.34,0,.62,.17,.91,.54,.56,.78,.77,.92,1.33,.92,.81,0,1.41-.67,1.41-1.54,0-1.02-.98-1.82-2.2-1.82s-2.17,.46-4,1.9c-1.08-.5-1.89-.68-3.02-.68-3.88,0-7.17,2.77-7.17,5.99,0,1.69,.67,2.84,2.17,3.64-1.61,.22-2.34,.45-3.16,1.15-.69,.57-1.14,1.5-1.14,2.35,0,1.19,.55,1.92,1.92,2.59-2.06,.46-4.48,1.33-4.48,3.89,0,3.5,4.62,3.92,7.17,3.92,3.47,0,5.47-.42,7.19-1.54,1.5-.99,2.38-2.49,2.38-4.13,0-3.54-3.75-3.97-6.44-4.14-3.12-.17-3.36-.2-3.86-.31-.88-.2-1.3-.63-1.3-1.22,0-.84,.84-1.41,2.11-1.41,.45,0,.97,.04,1.44,.11,1.42,.21,1.64,.24,2.52,.24,1.95,0,3.5-.49,4.72-1.47,1.41-1.08,2.28-2.83,2.28-4.44s-.7-2.9-2.06-3.89m-4.03,0c1.83,0,2.98,1.1,2.98,2.8,0,2.53-1.16,5.72-4.14,5.72-1.89,0-3.08-1.21-3.08-3.16,0-3.16,1.72-5.36,4.23-5.36m-4.27,15.02c1.58,0,4.09,.36,4.89,.67,.88,.37,1.3,.98,1.3,1.86,0,2.06-2.2,3.17-6.22,3.17-3.41,0-4.98-.83-4.98-2.69s1.83-3.01,5.02-3.01m31.73-15.82h-3.05l-1.64,5.6c-1.44,4.87-4.66,8.86-7.14,8.86-.84,0-1.5-.67-1.5-1.5,0-.47,.09-1.02,.38-2l3.44-11.49-6.75,.53-.11,1.25h.84c1.42,0,1.95,.33,1.95,1.13,0,.34-.11,.84-.28,1.5l-1.39,4.73q-1.09,3.5-1.09,4.58c0,1.92,1.33,3.22,3.33,3.22,2.45,0,4.44-1.42,6.52-4.66-.36,1.24-.42,1.72-.42,2.4,0,1.35,.94,2.31,2.23,2.31,2.14,0,3.86-1.44,6.34-5.25l-1.06-.64c-1.7,2.56-3.08,3.95-3.84,3.95-.31,0-.62-.37-.62-.83,0-.39,.14-1.06,.41-2.08l3.47-11.61"/><path d="M1874.65,805.46h204.91v12.4h-204.91v-12.4" fill-rule="evenodd"/><path d="M1874.65,786.86h204.91v12.4h-204.91v-12.4" fill-rule="evenodd"/><path d="M1604.75,799.26h204.91v12.4h-204.91v-12.4" fill-rule="evenodd"/><path d="M1604.75,780.66h204.91v12.4h-204.91v-12.4" fill-rule="evenodd"/><path d="M1334.85,824.06h204.91v12.4h-204.91v-12.4" fill-rule="evenodd"/><path d="M1334.85,805.46h204.91v12.4h-204.91v-12.4" fill-rule="evenodd"/><path d="M1026.29,830.26h204.91v12.4h-204.91v-12.4" fill-rule="evenodd"/><path d="M1026.29,811.66h204.91v12.4h-204.91v-12.4" fill-rule="evenodd"/><path d="M756.39,824.06h204.91v12.4h-204.91v-12.4" fill-rule="evenodd"/><path d="M756.39,805.46h204.91v12.4h-204.91v-12.4" fill-rule="evenodd"/><path d="M486.49,805.46h204.91v12.4h-204.91v-12.4" fill-rule="evenodd"/><path d="M486.49,786.86h204.91v12.4h-204.91v-12.4" fill-rule="evenodd"/><path d="M216.59,830.26h204.91v12.4H216.59v-12.4" fill-rule="evenodd"/><path d="M216.59,811.66h204.91v12.4H216.59v-12.4" fill-rule="evenodd"/><path d="M2617.02,353.98h156.51v12.4h-156.51v-12.4" fill-rule="evenodd"/><path d="M2617.02,372.58h156.51v12.4h-156.51v-12.4" fill-rule="evenodd"/><path d="M2381.9,490.38h156.51v12.4h-156.51v-12.4" fill-rule="evenodd"/><path d="M2381.9,471.78h156.51v12.4h-156.51v-12.4" fill-rule="evenodd"/><path d="M2176.52,496.58h156.51v12.4h-156.51v-12.4" fill-rule="evenodd"/><path d="M2176.52,477.98h156.51v12.4h-156.51v-12.4" fill-rule="evenodd"/><path d="M1998.93,353.98h156.51v12.4h-156.51v-12.4" fill-rule="evenodd"/><path d="M1998.93,372.58h156.51v12.4h-156.51v-12.4" fill-rule="evenodd"/><path d="M1709.01,490.38h156.51v12.4h-156.51v-12.4" fill-rule="evenodd"/><path d="M1709.01,471.78h156.51v12.4h-156.51v-12.4" fill-rule="evenodd"/><path d="M1503.63,465.58h156.51v12.4h-156.51v-12.4" fill-rule="evenodd"/><path d="M1503.63,446.98h156.51v12.4h-156.51v-12.4" fill-rule="evenodd"/><path d="M1298.26,471.78h156.51v12.4h-156.51v-12.4" fill-rule="evenodd"/><path d="M1298.26,453.18h156.51v12.4h-156.51v-12.4" fill-rule="evenodd"/><path d="M1092.88,490.38h156.51v12.4h-156.51v-12.4" fill-rule="evenodd"/><path d="M1092.88,471.78h156.51v12.4h-156.51v-12.4" fill-rule="evenodd"/><path d="M627.34,471.78h156.51v12.4h-156.51v-12.4" fill-rule="evenodd"/><path d="M627.34,453.18h156.51v12.4h-156.51v-12.4" fill-rule="evenodd"/><path d="M421.96,490.38h156.51v12.4h-156.51v-12.4" fill-rule="evenodd"/><path d="M421.96,471.78h156.51v12.4h-156.51v-12.4" fill-rule="evenodd"/><path d="M216.59,496.58h156.51v12.4H216.59v-12.4" fill-rule="evenodd"/><path d="M216.59,477.98h156.51v12.4H216.59v-12.4" fill-rule="evenodd"/><path d="M2587.14,138.1h156.64v12.4h-156.64v-12.4" fill-rule="evenodd"/><path d="M2587.14,119.5h156.64v12.4h-156.64v-12.4" fill-rule="evenodd"/><path d="M2381.59,113.3h156.64v12.4h-156.64v-12.4" fill-rule="evenodd"/><path d="M2381.59,94.7h156.64v12.4h-156.64v-12.4" fill-rule="evenodd"/><path d="M2176.04,131.9h156.64v12.4h-156.64v-12.4" fill-rule="evenodd"/><path d="M2176.04,113.3h156.64v12.4h-156.64v-12.4" fill-rule="evenodd"/><path d="M1970.49,138.1h156.64v12.4h-156.64v-12.4" fill-rule="evenodd"/><path d="M1970.49,119.5h156.64v12.4h-156.64v-12.4" fill-rule="evenodd"/><path d="M216.59,162.9h156.64v12.4H216.59v-12.4" fill-rule="evenodd"/><path d="M216.59,144.3h156.64v12.4H216.59v-12.4" fill-rule="evenodd"/><path d="M1504.64,131.9h156.64v12.4h-156.64v-12.4" fill-rule="evenodd"/><path d="M1504.64,113.3h156.64v12.4h-156.64v-12.4" fill-rule="evenodd"/><path d="M1299.09,138.1h156.64v12.4h-156.64v-12.4" fill-rule="evenodd"/><path d="M1299.09,119.5h156.64v12.4h-156.64v-12.4" fill-rule="evenodd"/><path d="M1093.54,156.7h156.64v12.4h-156.64v-12.4" fill-rule="evenodd"/><path d="M1093.54,138.1h156.64v12.4h-156.64v-12.4" fill-rule="evenodd"/><path d="M833.24,162.9h156.64v12.4h-156.64v-12.4" fill-rule="evenodd"/><path d="M833.24,144.3h156.64v12.4h-156.64v-12.4" fill-rule="evenodd"/><path d="M627.69,138.1h156.64v12.4h-156.64v-12.4" fill-rule="evenodd"/><path d="M627.69,119.5h156.64v12.4h-156.64v-12.4" fill-rule="evenodd"/><path d="M1710.19,156.7h156.64v12.4h-156.64v-12.4" fill-rule="evenodd"/><path d="M1710.19,138.1h156.64v12.4h-156.64v-12.4" fill-rule="evenodd"/><path d="M832.71,496.58h156.52v12.4h-156.52v-12.4" fill-rule="evenodd"/><path d="M832.71,477.98h156.52v12.4h-156.52v-12.4" fill-rule="evenodd"/><path d="M2144.56,824.06h204.9v12.4h-204.9v-12.4" fill-rule="evenodd"/><path d="M2144.56,805.46h204.9v12.4h-204.9v-12.4" fill-rule="evenodd"/><path d="M422.14,156.7h156.64v12.4h-156.64v-12.4" fill-rule="evenodd"/><path d="M422.14,138.1h156.64v12.4h-156.64v-12.4" fill-rule="evenodd"/></g></svg>