<?xml version="1.0" encoding="UTF-8"?><svg id="b" xmlns="http://www.w3.org/2000/svg" viewBox="0 0 2552.4 518.39"><g id="c"><line y1="35.91" x2="2552.4" y2="35.91" fill="none" stroke="#000" stroke-linejoin="bevel" stroke-width="2.73"/><line y1="60.71" x2="2552.4" y2="60.71" fill="none" stroke="#000" stroke-linejoin="bevel" stroke-width="2.73"/><line y1="85.51" x2="2552.4" y2="85.51" fill="none" stroke="#000" stroke-linejoin="bevel" stroke-width="2.73"/><line y1="110.31" x2="2552.4" y2="110.31" fill="none" stroke="#000" stroke-linejoin="bevel" stroke-width="2.73"/><line y1="135.11" x2="2552.4" y2="135.11" fill="none" stroke="#000" stroke-linejoin="bevel" stroke-width="2.73"/><line y1="369.59" x2="2552.4" y2="369.59" fill="none" stroke="#000" stroke-linejoin="bevel" stroke-width="2.73"/><line y1="394.39" x2="2552.4" y2="394.39" fill="none" stroke="#000" stroke-linejoin="bevel" stroke-width="2.73"/><line y1="419.19" x2="2552.4" y2="419.19" fill="none" stroke="#000" stroke-linejoin="bevel" stroke-width="2.73"/><line y1="443.99" x2="2552.4" y2="443.99" fill="none" stroke="#000" stroke-linejoin="bevel" stroke-width="2.73"/><line y1="468.79" x2="2552.4" y2="468.79" fill="none" stroke="#000" stroke-linejoin="bevel" stroke-width="2.73"/><line x1="2550.17" y1="34.55" x2="2550.17" y2="136.48" fill="none" stroke="#000" stroke-linejoin="bevel" stroke-width="4.46"/><line x1="2536.53" y1="368.23" x2="2536.53" y2="470.15" fill="none" stroke="#000" stroke-linejoin="bevel" stroke-width="4.46"/><line x1="2550.17" y1="368.23" x2="2550.17" y2="470.15" fill="none" stroke="#000" stroke-linejoin="bevel" stroke-width="4.46"/><line x1="1354.39" y1="34.55" x2="1354.39" y2="136.48" fill="none" stroke="#000" stroke-linejoin="bevel" stroke-width="4.46"/><line x1="1174.5" y1="368.23" x2="1174.5" y2="470.15" fill="none" stroke="#000" stroke-linejoin="bevel" stroke-width="4.46"/><line x1="2190.4" y1="368.23" x2="2190.4" y2="470.15" fill="none" stroke="#000" stroke-linejoin="bevel" stroke-width="4.46"/><line x1="586.29" y1="81.55" x2="586.29" y2="13.19" fill="none" stroke="#000" stroke-linejoin="bevel" stroke-width="2.48"/><line x1="658.73" y1="106.35" x2="658.73" y2="15.24" fill="none" stroke="#000" stroke-linejoin="bevel" stroke-width="2.48"/><line x1="731.17" y1="106.35" x2="731.17" y2="17.28" fill="none" stroke="#000" stroke-linejoin="bevel" stroke-width="2.48"/><line x1="803.61" y1="93.95" x2="803.61" y2="17.28" fill="none" stroke="#000" stroke-linejoin="bevel" stroke-width="2.48"/><line x1="876.05" y1="93.95" x2="876.05" y2="15.24" fill="none" stroke="#000" stroke-linejoin="bevel" stroke-width="2.48"/><line x1="948.5" y1="81.55" x2="948.5" y2="13.19" fill="none" stroke="#000" stroke-linejoin="bevel" stroke-width="2.48"/><line x1="1020.94" y1="81.55" x2="1020.94" y2="11.15" fill="none" stroke="#000" stroke-linejoin="bevel" stroke-width="2.48"/><line x1="1063.63" y1="77.28" x2="1063.63" y2="172.35" fill="none" stroke="#000" stroke-linejoin="bevel" stroke-width="2.48"/><line x1="1136.07" y1="77.28" x2="1136.07" y2="174.39" fill="none" stroke="#000" stroke-linejoin="bevel" stroke-width="2.48"/><line x1="1208.51" y1="102.08" x2="1208.51" y2="176.44" fill="none" stroke="#000" stroke-linejoin="bevel" stroke-width="2.48"/><line x1="1280.95" y1="102.08" x2="1280.95" y2="178.48" fill="none" stroke="#000" stroke-linejoin="bevel" stroke-width="2.48"/><line x1="1390.1" y1="89.68" x2="1390.1" y2="159.88" fill="none" stroke="#000" stroke-linejoin="bevel" stroke-width="2.48"/><line x1="1462.54" y1="89.68" x2="1462.54" y2="157.84" fill="none" stroke="#000" stroke-linejoin="bevel" stroke-width="2.48"/><line x1="1534.98" y1="77.28" x2="1534.98" y2="155.79" fill="none" stroke="#000" stroke-linejoin="bevel" stroke-width="2.48"/><line x1="1607.43" y1="77.28" x2="1607.43" y2="153.75" fill="none" stroke="#000" stroke-linejoin="bevel" stroke-width="2.48"/><line x1="1679.87" y1="64.88" x2="1679.87" y2="153.75" fill="none" stroke="#000" stroke-linejoin="bevel" stroke-width="2.48"/><line x1="1752.31" y1="64.88" x2="1752.31" y2="155.79" fill="none" stroke="#000" stroke-linejoin="bevel" stroke-width="2.48"/><line x1="1824.75" y1="89.68" x2="1824.75" y2="157.84" fill="none" stroke="#000" stroke-linejoin="bevel" stroke-width="2.48"/><line x1="1897.2" y1="89.68" x2="1897.2" y2="159.88" fill="none" stroke="#000" stroke-linejoin="bevel" stroke-width="2.48"/><line x1="1999.39" y1="106.35" x2="1999.39" y2="23.48" fill="none" stroke="#000" stroke-linejoin="bevel" stroke-width="2.48"/><line x1="2071.83" y1="106.35" x2="2071.83" y2="21.44" fill="none" stroke="#000" stroke-linejoin="bevel" stroke-width="2.48"/><line x1="2144.27" y1="93.95" x2="2144.27" y2="19.39" fill="none" stroke="#000" stroke-linejoin="bevel" stroke-width="2.48"/><line x1="2216.72" y1="93.95" x2="2216.72" y2="17.35" fill="none" stroke="#000" stroke-linejoin="bevel" stroke-width="2.48"/><line x1="2289.16" y1="81.55" x2="2289.16" y2="11.15" fill="none" stroke="#000" stroke-linejoin="bevel" stroke-width="2.48"/><line x1="2361.6" y1="81.55" x2="2361.6" y2="13.19" fill="none" stroke="#000" stroke-linejoin="bevel" stroke-width="2.48"/><line x1="2434.04" y1="106.35" x2="2434.04" y2="15.24" fill="none" stroke="#000" stroke-linejoin="bevel" stroke-width="2.48"/><line x1="2506.48" y1="106.35" x2="2506.48" y2="17.28" fill="none" stroke="#000" stroke-linejoin="bevel" stroke-width="2.48"/><line x1="224.08" y1="427.62" x2="224.08" y2="350.95" fill="none" stroke="#000" stroke-linejoin="bevel" stroke-width="2.48"/><line x1="284.73" y1="427.62" x2="284.73" y2="348.91" fill="none" stroke="#000" stroke-linejoin="bevel" stroke-width="2.48"/><line x1="345.38" y1="415.22" x2="345.38" y2="346.87" fill="none" stroke="#000" stroke-linejoin="bevel" stroke-width="2.48"/><line x1="406.03" y1="415.22" x2="406.03" y2="344.83" fill="none" stroke="#000" stroke-linejoin="bevel" stroke-width="2.48"/><line x1="436.93" y1="410.96" x2="436.93" y2="506.03" fill="none" stroke="#000" stroke-linejoin="bevel" stroke-width="2.48"/><line x1="497.58" y1="410.96" x2="497.58" y2="508.07" fill="none" stroke="#000" stroke-linejoin="bevel" stroke-width="2.48"/><line x1="558.23" y1="435.76" x2="558.23" y2="510.11" fill="none" stroke="#000" stroke-linejoin="bevel" stroke-width="2.48"/><line x1="618.88" y1="435.76" x2="618.88" y2="512.15" fill="none" stroke="#000" stroke-linejoin="bevel" stroke-width="2.48"/><line x1="709.28" y1="452.42" x2="709.28" y2="375.75" fill="none" stroke="#000" stroke-linejoin="bevel" stroke-width="2.48"/><line x1="769.93" y1="452.42" x2="769.93" y2="373.71" fill="none" stroke="#000" stroke-linejoin="bevel" stroke-width="2.48"/><line x1="830.58" y1="440.02" x2="830.58" y2="371.67" fill="none" stroke="#000" stroke-linejoin="bevel" stroke-width="2.48"/><line x1="891.23" y1="440.02" x2="891.23" y2="369.63" fill="none" stroke="#000" stroke-linejoin="bevel" stroke-width="2.48"/><line x1="951.88" y1="427.62" x2="951.88" y2="351.03" fill="none" stroke="#000" stroke-linejoin="bevel" stroke-width="2.48"/><line x1="1012.53" y1="427.62" x2="1012.53" y2="353.07" fill="none" stroke="#000" stroke-linejoin="bevel" stroke-width="2.48"/><line x1="1073.18" y1="452.42" x2="1073.18" y2="355.11" fill="none" stroke="#000" stroke-linejoin="bevel" stroke-width="2.48"/><line x1="1133.83" y1="452.42" x2="1133.83" y2="357.15" fill="none" stroke="#000" stroke-linejoin="bevel" stroke-width="2.48"/><line x1="1239.97" y1="440.02" x2="1239.97" y2="350.95" fill="none" stroke="#000" stroke-linejoin="bevel" stroke-width="2.48"/><line x1="1300.62" y1="440.02" x2="1300.62" y2="348.91" fill="none" stroke="#000" stroke-linejoin="bevel" stroke-width="2.48"/><line x1="1361.27" y1="415.22" x2="1361.27" y2="346.87" fill="none" stroke="#000" stroke-linejoin="bevel" stroke-width="2.48"/><line x1="1421.92" y1="415.22" x2="1421.92" y2="344.83" fill="none" stroke="#000" stroke-linejoin="bevel" stroke-width="2.48"/><line x1="1482.57" y1="427.62" x2="1482.57" y2="351.03" fill="none" stroke="#000" stroke-linejoin="bevel" stroke-width="2.48"/><line x1="1543.22" y1="427.62" x2="1543.22" y2="353.07" fill="none" stroke="#000" stroke-linejoin="bevel" stroke-width="2.48"/><line x1="1603.87" y1="440.02" x2="1603.87" y2="355.11" fill="none" stroke="#000" stroke-linejoin="bevel" stroke-width="2.48"/><line x1="1664.52" y1="440.02" x2="1664.52" y2="357.15" fill="none" stroke="#000" stroke-linejoin="bevel" stroke-width="2.48"/><line x1="1695.42" y1="435.76" x2="1695.42" y2="512.15" fill="none" stroke="#000" stroke-linejoin="bevel" stroke-width="2.48"/><line x1="1756.07" y1="435.76" x2="1756.07" y2="510.11" fill="none" stroke="#000" stroke-linejoin="bevel" stroke-width="2.48"/><line x1="1816.72" y1="410.96" x2="1816.72" y2="508.07" fill="none" stroke="#000" stroke-linejoin="bevel" stroke-width="2.48"/><line x1="1877.37" y1="410.96" x2="1877.37" y2="506.03" fill="none" stroke="#000" stroke-linejoin="bevel" stroke-width="2.48"/><line x1="1967.77" y1="415.22" x2="1967.77" y2="344.83" fill="none" stroke="#000" stroke-linejoin="bevel" stroke-width="2.48"/><line x1="2028.42" y1="415.22" x2="2028.42" y2="346.87" fill="none" stroke="#000" stroke-linejoin="bevel" stroke-width="2.48"/><line x1="2089.07" y1="427.62" x2="2089.07" y2="348.91" fill="none" stroke="#000" stroke-linejoin="bevel" stroke-width="2.48"/><line x1="2149.72" y1="427.62" x2="2149.72" y2="350.95" fill="none" stroke="#000" stroke-linejoin="bevel" stroke-width="2.48"/><line x1="224.08" y1="106.35" x2="224.08" y2="23.48" fill="none" stroke="#000" stroke-linejoin="bevel" stroke-width="2.48"/><line x1="296.52" y1="106.35" x2="296.52" y2="21.44" fill="none" stroke="#000" stroke-linejoin="bevel" stroke-width="2.48"/><line x1="368.96" y1="93.95" x2="368.96" y2="19.39" fill="none" stroke="#000" stroke-linejoin="bevel" stroke-width="2.48"/><line x1="441.4" y1="93.95" x2="441.4" y2="17.35" fill="none" stroke="#000" stroke-linejoin="bevel" stroke-width="2.48"/><line x1="513.84" y1="81.55" x2="513.84" y2="11.15" fill="none" stroke="#000" stroke-linejoin="bevel" stroke-width="2.48"/><path d="M1754.83,435.76c0,4.26,3.07,9.02,11.11,9.02,10.31,0,21.13-8.43,21.13-17.16,0-5.86-4.96-9.13-11.11-9.13-9.63,0-21.13,8.14-21.13,17.27"/><path d="M1815.48,410.96c0,4.26,3.07,9.02,11.11,9.02,10.31,0,21.13-8.43,21.13-17.16,0-5.86-4.96-9.13-11.11-9.13-9.63,0-21.13,8.14-21.13,17.27"/><path d="M1876.13,410.96c0,4.26,3.07,9.02,11.11,9.02,10.31,0,21.13-8.43,21.13-17.16,0-5.86-4.96-9.13-11.11-9.13-9.63,0-21.13,8.14-21.13,17.27"/><path d="M1936.78,423.36c0,4.26,3.07,9.02,11.11,9.02,10.31,0,21.13-8.43,21.13-17.16,0-5.86-4.96-9.13-11.11-9.13-9.63,0-21.13,8.14-21.13,17.27"/><path d="M1997.43,423.36c0,4.26,3.07,9.02,11.11,9.02,10.31,0,21.13-8.43,21.13-17.16,0-5.86-4.96-9.13-11.11-9.13-9.63,0-21.13,8.14-21.13,17.27"/><path d="M2058.08,435.76c0,4.26,3.07,9.02,11.11,9.02,10.31,0,21.13-8.43,21.13-17.16,0-5.86-4.96-9.13-11.11-9.13-9.63,0-21.13,8.14-21.13,17.27"/><path d="M2118.73,435.76c0,4.26,3.07,9.02,11.11,9.02,10.31,0,21.13-8.43,21.13-17.16,0-5.86-4.96-9.13-11.11-9.13-9.63,0-21.13,8.14-21.13,17.27"/><path d="M2243.43,430.51c-13.69,0-18.55,6.94-18.55,13.39s4.87,13.39,18.55,13.39,18.45-6.94,18.45-13.39-4.76-13.39-18.45-13.39m.79,23.61c-2.77,0-4.67-.79-5.95-3.27s-3.07-8.93-3.18-11.52c-.2-2.68,.79-4.26,3.18-5.05,1.19-.4,2.77-.6,4.37-.6,2.67,0,4.46,.6,5.84,3.29,1.39,2.57,3.29,9.02,3.29,11.5,0,4.87-3.58,5.66-7.55,5.66"/><path d="M1208.98,448.16c0,4.26,3.07,9.02,11.11,9.02,10.31,0,21.13-8.43,21.13-17.16,0-5.86-4.96-9.13-11.11-9.13-9.63,0-21.13,8.14-21.13,17.27"/><path d="M193.08,114.48c0,4.26,3.07,9.02,11.11,9.02,10.31,0,21.13-8.43,21.13-17.16,0-5.86-4.96-9.13-11.11-9.13-9.63,0-21.13,8.14-21.13,17.27"/><path d="M265.53,114.48c0,4.26,3.07,9.02,11.11,9.02,10.31,0,21.13-8.43,21.13-17.16,0-5.86-4.96-9.13-11.11-9.13-9.63,0-21.13,8.14-21.13,17.27"/><path d="M337.97,102.08c0,4.26,3.07,9.02,11.11,9.02,10.31,0,21.13-8.43,21.13-17.16,0-5.86-4.96-9.13-11.11-9.13-9.63,0-21.13,8.14-21.13,17.27"/><path d="M410.41,102.08c0,4.26,3.07,9.02,11.11,9.02,10.31,0,21.13-8.43,21.13-17.16,0-5.86-4.96-9.13-11.11-9.13-9.63,0-21.13,8.14-21.13,17.27"/><path d="M482.85,89.68c0,4.26,3.07,9.02,11.11,9.02,10.31,0,21.13-8.43,21.13-17.16,0-5.86-4.96-9.13-11.11-9.13-9.63,0-21.13,8.14-21.13,17.27"/><path d="M555.29,89.68c0,4.26,3.07,9.02,11.11,9.02,10.31,0,21.13-8.43,21.13-17.16,0-5.86-4.96-9.13-11.11-9.13-9.63,0-21.13,8.14-21.13,17.27"/><path d="M627.74,114.48c0,4.26,3.07,9.02,11.11,9.02,10.31,0,21.13-8.43,21.13-17.16,0-5.86-4.96-9.13-11.11-9.13-9.63,0-21.13,8.14-21.13,17.27"/><path d="M700.18,114.48c0,4.26,3.07,9.02,11.11,9.02,10.31,0,21.13-8.43,21.13-17.16,0-5.86-4.96-9.13-11.11-9.13-9.63,0-21.13,8.14-21.13,17.27"/><path d="M772.62,102.08c0,4.26,3.07,9.02,11.11,9.02,10.31,0,21.13-8.43,21.13-17.16,0-5.86-4.96-9.13-11.11-9.13-9.63,0-21.13,8.14-21.13,17.27"/><path d="M845.06,102.08c0,4.26,3.07,9.02,11.11,9.02,10.31,0,21.13-8.43,21.13-17.16,0-5.86-4.96-9.13-11.11-9.13-9.63,0-21.13,8.14-21.13,17.27"/><path d="M917.5,89.68c0,4.26,3.07,9.02,11.11,9.02,10.31,0,21.13-8.43,21.13-17.16,0-5.86-4.96-9.13-11.11-9.13-9.63,0-21.13,8.14-21.13,17.27"/><path d="M989.95,89.68c0,4.26,3.07,9.02,11.11,9.02,10.31,0,21.13-8.43,21.13-17.16,0-5.86-4.96-9.13-11.11-9.13-9.63,0-21.13,8.14-21.13,17.27"/><path d="M1062.39,77.28c0,4.26,3.07,9.02,11.11,9.02,10.31,0,21.13-8.43,21.13-17.16,0-5.86-4.96-9.13-11.11-9.13-9.63,0-21.13,8.14-21.13,17.27"/><path d="M1134.83,77.28c0,4.26,3.07,9.02,11.11,9.02,10.31,0,21.13-8.43,21.13-17.16,0-5.86-4.96-9.13-11.11-9.13-9.63,0-21.13,8.14-21.13,17.27"/><path d="M1207.27,102.08c0,4.26,3.07,9.02,11.11,9.02,10.31,0,21.13-8.43,21.13-17.16,0-5.86-4.96-9.13-11.11-9.13-9.63,0-21.13,8.14-21.13,17.27"/><path d="M1279.71,102.08c0,4.26,3.07,9.02,11.11,9.02,10.31,0,21.13-8.43,21.13-17.16,0-5.86-4.96-9.13-11.11-9.13-9.63,0-21.13,8.14-21.13,17.27"/><path d="M1388.86,89.68c0,4.26,3.07,9.02,11.11,9.02,10.31,0,21.13-8.43,21.13-17.16,0-5.86-4.96-9.13-11.11-9.13-9.63,0-21.13,8.14-21.13,17.27"/><path d="M1461.3,89.68c0,4.26,3.07,9.02,11.11,9.02,10.31,0,21.13-8.43,21.13-17.16,0-5.86-4.96-9.13-11.11-9.13-9.63,0-21.13,8.14-21.13,17.27"/><path d="M1533.74,77.28c0,4.26,3.07,9.02,11.11,9.02,10.31,0,21.13-8.43,21.13-17.16,0-5.86-4.96-9.13-11.11-9.13-9.63,0-21.13,8.14-21.13,17.27"/><path d="M1606.19,77.28c0,4.26,3.07,9.02,11.11,9.02,10.31,0,21.13-8.43,21.13-17.16,0-5.86-4.96-9.13-11.11-9.13-9.63,0-21.13,8.14-21.13,17.27"/><path d="M1678.63,64.88c0,4.26,3.07,9.02,11.11,9.02,10.31,0,21.13-8.43,21.13-17.16,0-5.86-4.96-9.13-11.11-9.13-9.63,0-21.13,8.14-21.13,17.27"/><path d="M1751.07,64.88c0,4.26,3.07,9.02,11.11,9.02,10.31,0,21.13-8.43,21.13-17.16,0-5.86-4.96-9.13-11.11-9.13-9.63,0-21.13,8.14-21.13,17.27"/><path d="M1823.51,89.68c0,4.26,3.07,9.02,11.11,9.02,10.31,0,21.13-8.43,21.13-17.16,0-5.86-4.96-9.13-11.11-9.13-9.63,0-21.13,8.14-21.13,17.27"/><path d="M1895.96,89.68c0,4.26,3.07,9.02,11.11,9.02,10.31,0,21.13-8.43,21.13-17.16,0-5.86-4.96-9.13-11.11-9.13-9.63,0-21.13,8.14-21.13,17.27"/><path d="M1968.4,114.48c0,4.26,3.07,9.02,11.11,9.02,10.31,0,21.13-8.43,21.13-17.16,0-5.86-4.96-9.13-11.11-9.13-9.63,0-21.13,8.14-21.13,17.27"/><path d="M2040.84,114.48c0,4.26,3.07,9.02,11.11,9.02,10.31,0,21.13-8.43,21.13-17.16,0-5.86-4.96-9.13-11.11-9.13-9.63,0-21.13,8.14-21.13,17.27"/><path d="M2113.28,102.08c0,4.26,3.07,9.02,11.11,9.02,10.31,0,21.13-8.43,21.13-17.16,0-5.86-4.96-9.13-11.11-9.13-9.63,0-21.13,8.14-21.13,17.27"/><path d="M2185.72,102.08c0,4.26,3.07,9.02,11.11,9.02,10.31,0,21.13-8.43,21.13-17.16,0-5.86-4.96-9.13-11.11-9.13-9.63,0-21.13,8.14-21.13,17.27"/><path d="M2258.17,89.68c0,4.26,3.07,9.02,11.11,9.02,10.31,0,21.13-8.43,21.13-17.16,0-5.86-4.96-9.13-11.11-9.13-9.63,0-21.13,8.14-21.13,17.27"/><path d="M2330.61,89.68c0,4.26,3.07,9.02,11.11,9.02,10.31,0,21.13-8.43,21.13-17.16,0-5.86-4.96-9.13-11.11-9.13-9.63,0-21.13,8.14-21.13,17.27"/><path d="M2403.05,114.48c0,4.26,3.07,9.02,11.11,9.02,10.31,0,21.13-8.43,21.13-17.16,0-5.86-4.96-9.13-11.11-9.13-9.63,0-21.13,8.14-21.13,17.27"/><path d="M2475.49,114.48c0,4.26,3.07,9.02,11.11,9.02,10.31,0,21.13-8.43,21.13-17.16,0-5.86-4.96-9.13-11.11-9.13-9.63,0-21.13,8.14-21.13,17.27"/><path d="M193.08,435.76c0,4.26,3.07,9.02,11.11,9.02,10.31,0,21.13-8.43,21.13-17.16,0-5.86-4.96-9.13-11.11-9.13-9.63,0-21.13,8.14-21.13,17.27"/><path d="M253.74,435.76c0,4.26,3.07,9.02,11.11,9.02,10.31,0,21.13-8.43,21.13-17.16,0-5.86-4.96-9.13-11.11-9.13-9.63,0-21.13,8.14-21.13,17.27"/><path d="M314.38,423.36c0,4.26,3.07,9.02,11.11,9.02,10.31,0,21.13-8.43,21.13-17.16,0-5.86-4.96-9.13-11.11-9.13-9.63,0-21.13,8.14-21.13,17.27"/><path d="M375.03,423.36c0,4.26,3.07,9.02,11.11,9.02,10.31,0,21.13-8.43,21.13-17.16,0-5.86-4.96-9.13-11.11-9.13-9.63,0-21.13,8.14-21.13,17.27"/><path d="M435.69,410.96c0,4.26,3.07,9.02,11.11,9.02,10.31,0,21.13-8.43,21.13-17.16,0-5.86-4.96-9.13-11.11-9.13-9.63,0-21.13,8.14-21.13,17.27"/><path d="M496.34,410.96c0,4.26,3.07,9.02,11.11,9.02,10.31,0,21.13-8.43,21.13-17.16,0-5.86-4.96-9.13-11.11-9.13-9.63,0-21.13,8.14-21.13,17.27"/><path d="M556.99,435.76c0,4.26,3.07,9.02,11.11,9.02,10.31,0,21.13-8.43,21.13-17.16,0-5.86-4.96-9.13-11.11-9.13-9.63,0-21.13,8.14-21.13,17.27"/><path d="M617.64,435.76c0,4.26,3.07,9.02,11.11,9.02,10.31,0,21.13-8.43,21.13-17.16,0-5.86-4.96-9.13-11.11-9.13-9.63,0-21.13,8.14-21.13,17.27"/><path d="M678.29,460.56c0,4.26,3.07,9.02,11.11,9.02,10.31,0,21.13-8.43,21.13-17.16,0-5.86-4.96-9.13-11.11-9.13-9.63,0-21.13,8.14-21.13,17.27"/><path d="M738.94,460.56c0,4.26,3.07,9.02,11.11,9.02,10.31,0,21.13-8.43,21.13-17.16,0-5.86-4.96-9.13-11.11-9.13-9.63,0-21.13,8.14-21.13,17.27"/><path d="M799.59,448.16c0,4.26,3.07,9.02,11.11,9.02,10.31,0,21.13-8.43,21.13-17.16,0-5.86-4.96-9.13-11.11-9.13-9.63,0-21.13,8.14-21.13,17.27"/><path d="M860.24,448.16c0,4.26,3.07,9.02,11.11,9.02,10.31,0,21.13-8.43,21.13-17.16,0-5.86-4.96-9.13-11.11-9.13-9.63,0-21.13,8.14-21.13,17.27"/><path d="M920.89,435.76c0,4.26,3.07,9.02,11.11,9.02,10.31,0,21.13-8.43,21.13-17.16,0-5.86-4.96-9.13-11.11-9.13-9.63,0-21.13,8.14-21.13,17.27"/><path d="M981.54,435.76c0,4.26,3.07,9.02,11.11,9.02,10.31,0,21.13-8.43,21.13-17.16,0-5.86-4.96-9.13-11.11-9.13-9.63,0-21.13,8.14-21.13,17.27"/><path d="M1042.19,460.56c0,4.26,3.07,9.02,11.11,9.02,10.31,0,21.13-8.43,21.13-17.16,0-5.86-4.96-9.13-11.11-9.13-9.63,0-21.13,8.14-21.13,17.27"/><path d="M1102.84,460.56c0,4.26,3.07,9.02,11.11,9.02,10.31,0,21.13-8.43,21.13-17.16,0-5.86-4.96-9.13-11.11-9.13-9.63,0-21.13,8.14-21.13,17.27"/><path d="M1269.63,448.16c0,4.26,3.07,9.02,11.11,9.02,10.31,0,21.13-8.43,21.13-17.16,0-5.86-4.96-9.13-11.11-9.13-9.63,0-21.13,8.14-21.13,17.27"/><path d="M1330.28,423.36c0,4.26,3.07,9.02,11.11,9.02,10.31,0,21.13-8.43,21.13-17.16,0-5.86-4.96-9.13-11.11-9.13-9.63,0-21.13,8.14-21.13,17.27"/><path d="M1390.93,423.36c0,4.26,3.07,9.02,11.11,9.02,10.31,0,21.13-8.43,21.13-17.16,0-5.86-4.96-9.13-11.11-9.13-9.63,0-21.13,8.14-21.13,17.27"/><path d="M1451.58,435.76c0,4.26,3.07,9.02,11.11,9.02,10.31,0,21.13-8.43,21.13-17.16,0-5.86-4.96-9.13-11.11-9.13-9.63,0-21.13,8.14-21.13,17.27"/><path d="M1512.23,435.76c0,4.26,3.07,9.02,11.11,9.02,10.31,0,21.13-8.43,21.13-17.16,0-5.86-4.96-9.13-11.11-9.13-9.63,0-21.13,8.14-21.13,17.27"/><path d="M1572.88,448.16c0,4.26,3.07,9.02,11.11,9.02,10.31,0,21.13-8.43,21.13-17.16,0-5.86-4.96-9.13-11.11-9.13-9.63,0-21.13,8.14-21.13,17.27"/><path d="M1633.53,448.16c0,4.26,3.07,9.02,11.11,9.02,10.31,0,21.13-8.43,21.13-17.16,0-5.86-4.96-9.13-11.11-9.13-9.63,0-21.13,8.14-21.13,17.27"/><path d="M1694.18,435.76c0,4.26,3.07,9.02,11.11,9.02,10.31,0,21.13-8.43,21.13-17.16,0-5.86-4.96-9.13-11.11-9.13-9.63,0-21.13,8.14-21.13,17.27"/><path d="M30.8,494.88c0,6.56,4.96,15.19,18.35,15.19,4.67,0,8.74-1.19,12.31-3.38,5.36-3.77,6.74-10.32,6.74-16.57,0-3.86-.59-8.32-1.58-13.98-.29-1.98-.9-4.96-1.49-8.84,9.72-3.18,16.96-13.3,16.96-23.51,0-14.97-10.62-25.09-25.09-25.09-.99-5.95-1.98-11.81-2.77-17.36,10.42-11.02,17.65-23.42,17.65-39.18,0-9.04-2.77-16.37-4.37-19.95-2.37-5.05-5.25-8.53-7.04-8.53-.7,0-3.77,1.19-7.04,5.05-6.36,7.55-8.14,20.24-8.14,28.57,0,5.36,.5,10.23,2.19,21.34-.11,.09-5.27,5.35-7.35,7.04-9.04,8.34-21.53,20.43-21.53,40.28,0,18.54,16.17,33.12,34.63,33.12,2.87,0,5.55-.29,7.83-.7,1.89,9.53,3.08,16.48,3.08,21.73,0,10.32-5.36,15.78-15.38,15.78-2.39,0-4.46-.5-4.67-.5-.09-.11-.29-.2-.29-.29,0-.2,.2-.31,.5-.31,4.67-.79,9.32-4.76,9.32-11.1,0-5.36-4.06-11.02-11.5-11.02-6.94,0-11.31,5.66-11.31,12.2m20.74-132.43c.9-3.97,5.46-14.38,10.62-14.38,1.49,0,3.86,4.76,3.86,11.7,0,10.32-7.63,18.06-14.48,24.8-.59-3.97-1.08-7.83-1.08-12,0-3.67,.29-7.05,1.08-10.12m8.73,101.97c-1.98,.4-3.86,.6-5.75,.6-14.18,0-26.29-9.92-26.29-24.91,0-12.09,8.53-22.91,17.27-30.46,1.67-1.49,3.27-2.87,4.76-4.36,.88,5.35,1.58,10.01,2.28,14.09-9.04,2.68-15.17,12.2-15.17,21.53,0,6.94,5.46,16.46,13.39,16.46,.79,0,1.69-.4,1.69-1.29s-.99-1.39-2.19-2.19c-3.88-2.39-6.06-4.96-6.06-9.83,0-6.05,4.57-10.91,10.32-12.29l5.75,32.63m14.09-18.35c0,7.05-2.88,14.29-9.92,17.17-2.08-11.9-4.76-27.68-5.46-32.05,8.93,0,15.38,6.06,15.38,14.88"/><path d="M30.8,161.2c0,6.56,4.96,15.19,18.35,15.19,4.67,0,8.74-1.19,12.31-3.38,5.36-3.77,6.74-10.32,6.74-16.57,0-3.86-.59-8.32-1.58-13.98-.29-1.98-.9-4.96-1.49-8.84,9.72-3.18,16.96-13.3,16.96-23.51,0-14.97-10.62-25.09-25.09-25.09-.99-5.95-1.98-11.81-2.77-17.36,10.42-11.02,17.65-23.42,17.65-39.18,0-9.04-2.77-16.37-4.37-19.95-2.37-5.05-5.25-8.53-7.04-8.53-.7,0-3.77,1.19-7.04,5.05-6.36,7.55-8.14,20.24-8.14,28.57,0,5.36,.5,10.23,2.19,21.34-.11,.09-5.27,5.35-7.35,7.04-9.04,8.34-21.53,20.43-21.53,40.28,0,18.54,16.17,33.12,34.63,33.12,2.87,0,5.55-.29,7.83-.7,1.89,9.53,3.08,16.48,3.08,21.73,0,10.32-5.36,15.78-15.38,15.78-2.39,0-4.46-.5-4.67-.5-.09-.11-.29-.2-.29-.29,0-.2,.2-.31,.5-.31,4.67-.79,9.32-4.76,9.32-11.1,0-5.36-4.06-11.02-11.5-11.02-6.94,0-11.31,5.66-11.31,12.2M51.54,28.77c.9-3.97,5.46-14.38,10.62-14.38,1.49,0,3.86,4.76,3.86,11.7,0,10.32-7.63,18.06-14.48,24.8-.59-3.97-1.08-7.83-1.08-12,0-3.67,.29-7.05,1.08-10.12m8.73,101.97c-1.98,.4-3.86,.6-5.75,.6-14.18,0-26.29-9.92-26.29-24.91,0-12.09,8.53-22.91,17.27-30.46,1.67-1.49,3.27-2.87,4.76-4.36,.88,5.35,1.58,10.01,2.28,14.09-9.04,2.68-15.17,12.2-15.17,21.53,0,6.94,5.46,16.46,13.39,16.46,.79,0,1.69-.4,1.69-1.29s-.99-1.39-2.19-2.19c-3.88-2.39-6.06-4.96-6.06-9.83,0-6.05,4.57-10.91,10.32-12.29l5.75,32.63m14.09-18.35c0,7.05-2.88,14.29-9.92,17.17-2.08-11.9-4.76-27.68-5.46-32.05,8.93,0,15.38,6.06,15.38,14.88"/><path d="M129.99,359.18c.6-.09,1.1-.79,1.1-1.4v-5.84c0-.99-.7-1.39-1.6-1.39l-3.27,.7v-14.79h-2.77v15.38l-8.83,1.8v-14h-2.77v14.59l-3.88,.79c-.59,.11-1.09,.79-1.09,1.39v5.75c0,1.09,.79,1.4,1.69,1.4l3.27-.7v16.37l-3.88,.79c-.59,.09-1.09,.79-1.09,1.4v5.75c0,1.09,.79,1.38,1.69,1.38l3.27-.68v14.77h2.77v-15.38l8.83-1.78v14h2.77v-14.59l3.77-.7c.6-.11,1.1-.79,1.1-1.39v-5.84c0-.99-.7-1.4-1.6-1.4l-3.27,.7v-16.37l3.77-.7m-15.38,3.07l8.83-1.78v16.37l-8.83,1.89v-16.48"/><path d="M129.99,25.5c.6-.09,1.1-.79,1.1-1.4v-5.84c0-.99-.7-1.39-1.6-1.39l-3.27,.7V2.77h-2.77v15.38l-8.83,1.8V5.95h-2.77v14.59l-3.88,.79c-.59,.11-1.09,.79-1.09,1.39v5.75c0,1.09,.79,1.4,1.69,1.4l3.27-.7v16.37l-3.88,.79c-.59,.09-1.09,.79-1.09,1.4v5.75c0,1.09,.79,1.38,1.69,1.38l3.27-.68v14.77h2.77v-15.38l8.83-1.78v14h2.77v-14.59l3.77-.7c.6-.11,1.1-.79,1.1-1.39v-5.84c0-.99-.7-1.4-1.6-1.4l-3.27,.7V26.2l3.77-.7m-15.38,3.07l8.83-1.78v16.37l-8.83,1.89V28.57"/><path d="M2266.09,331.4c-9.32-10.12-17.56-10.71-22.71-10.71s-13.3,.59-22.63,10.71c-4.85,5.36-8.23,15.97-8.23,21.33,0,1.89,.4,3.18,1.4,3.18,2.77,0,1.38-8.54,9.72-16.97,7.33-7.33,17.16-7.44,19.55-7.44h.39c2.39,0,12.21,.11,19.55,7.44,8.34,8.43,6.94,16.97,9.72,16.97,.99,0,1.39-1.19,1.39-3.18,0-5.36-3.27-16.07-8.14-21.33m-29.56,18.94c0,3.78,3.07,6.85,6.85,6.85s6.84-3.07,6.84-6.85-3.07-6.84-6.84-6.84-6.85,3.07-6.85,6.84"/><path d="M774.48,154.47c-4.2,0-7.25,2.56-7.25,6.03,0,1.73,1,3.17,2.77,4.09,.64,.31,1.44,.67,3.12,1.36,2.27,.91,2.83,1.47,2.83,2.88,0,2.16-1.8,3.52-4.56,3.52-2.03,0-3.47-.56-3.47-1.36,0-.2,.11-.44,.28-.59,.75-.8,.83-1,.83-1.72,0-1.12-.88-2-2.03-2-1.33,0-2.33,1.11-2.33,2.67,0,2.8,2.48,4.52,6.53,4.52,4.59,0,7.75-2.52,7.75-6.16,0-1.59-.72-2.95-2-3.83-.88-.61-1.28-.77-3.47-1.56-2.61-.92-3.28-1.56-3.28-3.12,0-1.84,1.75-3.2,4.08-3.2,1.56,0,2.59,.44,2.59,1.08,0,.17-.08,.36-.2,.56-.56,.8-.64,1-.64,1.61,0,1.08,.84,1.83,2.08,1.83,1.36,0,2.28-1,2.28-2.44,0-2.44-2.44-4.16-5.91-4.16m16.75-9.77c-1.2,0-2.16,.97-2.16,2.17s.96,2.16,2.13,2.16c1.23,0,2.19-.97,2.19-2.16s-.96-2.17-2.16-2.17m.72,9.77l-7.67,.59-.16,1.45h.95c1.64,0,2.28,.36,2.28,1.23,0,.39-.08,.84-.36,1.77l-2.33,7.8c-.75,2.55-.88,3.11-.88,4.03,0,1.41,1.2,2.48,2.72,2.48,3.44,0,5.8-3.56,7.49-6.16l-1.25-.69c-2.08,3.16-3.75,4.84-4.83,4.84-.41,0-.69-.36-.69-.84,0-.39,.16-1.12,.49-2.23l4.23-14.28m12.97,0l-7.28,.59-.13,1.45h.97c1.59,0,2.24,.36,2.24,1.27,0,.36-.13,.97-.33,1.73l-4.08,13.75h3.48l1.64-5.64c1.8-6.12,5.44-10.75,8.44-10.75,1.05,0,1.69,.55,1.69,1.55,0,.81-.33,2.49-.81,4l-3.19,10.84h3.47l1.72-5.8c1-3.33,2-5.56,3.28-7.28,1.44-2,3.48-3.31,5-3.31,1,0,1.56,.52,1.56,1.47,0,.56-.2,1.44-.56,2.56l-1.85,5.69c-1.07,3.11-1.11,3.36-1.11,4.47,0,1.69,1.24,2.8,3.11,2.8,1.33,0,2.61-.64,3.97-1.91,.85-.81,1.39-1.53,3.03-3.92l-1.23-.84c-2.08,3.12-3.56,4.64-4.59,4.64-.44,0-.85-.44-.85-1,0-.36,.13-.8,.49-1.97l2.51-7.75c.28-.88,.49-2.12,.49-3,0-2.12-1.57-3.64-3.72-3.64-2.85,0-5.41,1.84-7.72,5.64,.16-.77,.23-1.44,.23-1.92,0-2.12-1.68-3.72-3.87-3.72-2.53,0-4.36,1.41-7.17,5.41l1.17-5.41m29.95,14.44c-1.36,0-2.47,1.12-2.47,2.48s1.11,2.47,2.44,2.47c1.44,0,2.52-1.08,2.52-2.47s-1.13-2.48-2.49-2.48"/><path d="M420.79,155.98c.64-.56,1-.75,1.47-.75,.41,0,.73,.19,1.05,.64,.64,.88,.88,1.03,1.52,1.03,.92,0,1.61-.75,1.61-1.75,0-1.17-1.12-2.09-2.53-2.09s-2.47,.53-4.55,2.17c-1.25-.56-2.17-.77-3.45-.77-4.44,0-8.19,3.16-8.19,6.84,0,1.92,.75,3.23,2.47,4.16-1.83,.23-2.67,.52-3.59,1.31-.8,.64-1.31,1.72-1.31,2.69,0,1.36,.64,2.2,2.19,2.95-2.36,.53-5.11,1.53-5.11,4.44,0,4,5.28,4.48,8.2,4.48,3.95,0,6.23-.48,8.19-1.77,1.72-1.11,2.72-2.83,2.72-4.72,0-4.03-4.28-4.52-7.36-4.72-3.55-.19-3.83-.23-4.39-.36-1-.24-1.48-.72-1.48-1.39,0-.97,.95-1.61,2.41-1.61,.52,0,1.11,.05,1.64,.12,1.64,.23,1.88,.28,2.88,.28,2.23,0,4-.56,5.39-1.69,1.61-1.23,2.61-3.23,2.61-5.08s-.8-3.31-2.36-4.44m-4.61,0c2.09,0,3.41,1.25,3.41,3.2,0,2.88-1.31,6.52-4.72,6.52-2.16,0-3.52-1.36-3.52-3.59,0-3.59,1.95-6.12,4.83-6.12m-4.88,17.16c1.8,0,4.69,.41,5.59,.77,1,.44,1.48,1.12,1.48,2.12,0,2.36-2.52,3.64-7.11,3.64-3.89,0-5.69-.97-5.69-3.09s2.08-3.44,5.72-3.44m35.56-18.08h-3.48l-1.88,6.41c-1.64,5.56-5.33,10.11-8.16,10.11-.97,0-1.72-.75-1.72-1.72,0-.52,.11-1.16,.44-2.27l3.92-13.12-7.72,.59-.12,1.45h.95c1.64,0,2.25,.36,2.25,1.27,0,.41-.12,.97-.33,1.73l-1.59,5.39q-1.23,4-1.23,5.23c0,2.2,1.52,3.69,3.8,3.69,2.8,0,5.08-1.64,7.44-5.33-.41,1.41-.48,1.97-.48,2.72,0,1.56,1.08,2.64,2.56,2.64,2.44,0,4.39-1.64,7.23-6l-1.2-.72c-1.95,2.92-3.52,4.53-4.39,4.53-.36,0-.72-.45-.72-.97,0-.44,.16-1.2,.47-2.36l3.97-13.28"/><path d="M275.9,155.98c.64-.56,1-.75,1.47-.75,.41,0,.73,.19,1.05,.64,.64,.88,.88,1.03,1.51,1.03,.92,0,1.61-.75,1.61-1.75,0-1.17-1.12-2.09-2.53-2.09s-2.47,.53-4.55,2.17c-1.25-.56-2.17-.77-3.45-.77-4.44,0-8.19,3.16-8.19,6.84,0,1.92,.75,3.23,2.47,4.16-1.83,.23-2.67,.52-3.59,1.31-.8,.64-1.31,1.72-1.31,2.69,0,1.36,.64,2.2,2.19,2.95-2.36,.53-5.11,1.53-5.11,4.44,0,4,5.28,4.48,8.2,4.48,3.95,0,6.23-.48,8.19-1.77,1.72-1.11,2.72-2.83,2.72-4.72,0-4.03-4.28-4.52-7.36-4.72-3.55-.19-3.83-.23-4.39-.36-1-.24-1.49-.72-1.49-1.39,0-.97,.95-1.61,2.41-1.61,.51,0,1.11,.05,1.64,.12,1.64,.23,1.88,.28,2.88,.28,2.24,0,4-.56,5.39-1.69,1.61-1.23,2.61-3.23,2.61-5.08s-.8-3.31-2.36-4.44m-4.61,0c2.09,0,3.41,1.25,3.41,3.2,0,2.88-1.31,6.52-4.72,6.52-2.16,0-3.52-1.36-3.52-3.59,0-3.59,1.95-6.12,4.83-6.12m-4.88,17.16c1.8,0,4.69,.41,5.59,.77,1,.44,1.49,1.12,1.49,2.12,0,2.36-2.52,3.64-7.11,3.64-3.89,0-5.69-.97-5.69-3.09s2.08-3.44,5.72-3.44m35.56-18.08h-3.48l-1.88,6.41c-1.64,5.56-5.33,10.11-8.16,10.11-.97,0-1.72-.75-1.72-1.72,0-.52,.11-1.16,.44-2.27l3.92-13.12-7.72,.59-.12,1.45h.95c1.64,0,2.25,.36,2.25,1.27,0,.41-.12,.97-.33,1.73l-1.59,5.39q-1.24,4-1.24,5.23c0,2.2,1.52,3.69,3.8,3.69,2.8,0,5.08-1.64,7.44-5.33-.41,1.41-.49,1.97-.49,2.72,0,1.56,1.08,2.64,2.56,2.64,2.44,0,4.39-1.64,7.23-6l-1.2-.72c-1.95,2.92-3.52,4.53-4.39,4.53-.36,0-.72-.45-.72-.97,0-.44,.16-1.2,.47-2.36l3.97-13.28"/><path d="M495.31,166.95c-2.33,3.75-3.33,4.8-4.64,4.8-.64,0-1-.41-1-1.12,0-.52,.2-1.44,.59-2.84l7.12-23.99-7.95,.59-.17,1.44h1.25c1.64,0,2.28,.36,2.28,1.23,0,.41-.12,.92-.36,1.77l-2.64,8.88c-.72-2.08-2.28-3.23-4.61-3.23-5.75,0-11.11,6.16-11.11,12.8,0,3.92,2.52,6.59,6.28,6.59,2.72,0,4.72-1.11,6.47-3.72-.03,.33-.03,.72-.03,.89,0,1.83,.95,2.83,2.72,2.83,2.52,0,4.72-1.95,7-6.19l-1.2-.72m-10-10.69c1.95,0,3.39,1.52,3.39,3.61,0,3.62-2.55,12.11-7.19,12.11-2.16,0-3.56-1.72-3.56-4.31,0-3.8,2.72-11.41,7.36-11.41m33-1.2h-3.48l-1.88,6.41c-1.64,5.56-5.33,10.11-8.16,10.11-.97,0-1.72-.75-1.72-1.72,0-.52,.11-1.16,.44-2.27l3.92-13.12-7.72,.59-.12,1.45h.95c1.64,0,2.25,.36,2.25,1.27,0,.41-.12,.97-.33,1.73l-1.59,5.39q-1.23,4-1.23,5.23c0,2.2,1.52,3.69,3.8,3.69,2.8,0,5.08-1.64,7.44-5.33-.41,1.41-.48,1.97-.48,2.72,0,1.56,1.08,2.64,2.56,2.64,2.44,0,4.39-1.64,7.23-6l-1.2-.72c-1.95,2.92-3.52,4.53-4.39,4.53-.36,0-.72-.45-.72-.97,0-.44,.16-1.2,.47-2.36l3.97-13.28"/><path d="M565.67,155.98c.64-.56,1-.75,1.47-.75,.41,0,.73,.19,1.05,.64,.64,.88,.88,1.03,1.52,1.03,.92,0,1.61-.75,1.61-1.75,0-1.17-1.12-2.09-2.53-2.09s-2.47,.53-4.55,2.17c-1.25-.56-2.17-.77-3.45-.77-4.44,0-8.19,3.16-8.19,6.84,0,1.92,.75,3.23,2.47,4.16-1.83,.23-2.67,.52-3.59,1.31-.8,.64-1.31,1.72-1.31,2.69,0,1.36,.64,2.2,2.19,2.95-2.36,.53-5.11,1.53-5.11,4.44,0,4,5.28,4.48,8.2,4.48,3.95,0,6.23-.48,8.19-1.77,1.72-1.11,2.72-2.83,2.72-4.72,0-4.03-4.28-4.52-7.36-4.72-3.55-.19-3.83-.23-4.39-.36-1-.24-1.48-.72-1.48-1.39,0-.97,.95-1.61,2.41-1.61,.52,0,1.11,.05,1.64,.12,1.64,.23,1.88,.28,2.88,.28,2.23,0,4-.56,5.39-1.69,1.61-1.23,2.61-3.23,2.61-5.08s-.8-3.31-2.36-4.44m-4.61,0c2.09,0,3.41,1.25,3.41,3.2,0,2.88-1.31,6.52-4.72,6.52-2.16,0-3.52-1.36-3.52-3.59,0-3.59,1.95-6.12,4.83-6.12m-4.88,17.16c1.8,0,4.69,.41,5.59,.77,1,.44,1.48,1.12,1.48,2.12,0,2.36-2.52,3.64-7.11,3.64-3.89,0-5.69-.97-5.69-3.09s2.08-3.44,5.72-3.44m35.56-18.08h-3.48l-1.88,6.41c-1.64,5.56-5.33,10.11-8.16,10.11-.97,0-1.72-.75-1.72-1.72,0-.52,.11-1.16,.44-2.27l3.92-13.12-7.72,.59-.12,1.45h.95c1.64,0,2.25,.36,2.25,1.27,0,.41-.12,.97-.33,1.73l-1.59,5.39q-1.23,4-1.23,5.23c0,2.2,1.52,3.69,3.8,3.69,2.8,0,5.08-1.64,7.44-5.33-.41,1.41-.48,1.97-.48,2.72,0,1.56,1.08,2.64,2.56,2.64,2.44,0,4.39-1.64,7.23-6l-1.2-.72c-1.95,2.92-3.52,4.53-4.39,4.53-.36,0-.72-.45-.72-.97,0-.44,.16-1.2,.47-2.36l3.97-13.28"/><path d="M710.56,155.98c.64-.56,1-.75,1.47-.75,.41,0,.73,.19,1.05,.64,.64,.88,.88,1.03,1.52,1.03,.92,0,1.61-.75,1.61-1.75,0-1.17-1.12-2.09-2.53-2.09s-2.47,.53-4.55,2.17c-1.25-.56-2.17-.77-3.45-.77-4.44,0-8.19,3.16-8.19,6.84,0,1.92,.75,3.23,2.47,4.16-1.83,.23-2.67,.52-3.59,1.31-.8,.64-1.31,1.72-1.31,2.69,0,1.36,.64,2.2,2.19,2.95-2.36,.53-5.11,1.53-5.11,4.44,0,4,5.28,4.48,8.2,4.48,3.95,0,6.24-.48,8.19-1.77,1.72-1.11,2.72-2.83,2.72-4.72,0-4.03-4.28-4.52-7.36-4.72-3.55-.19-3.83-.23-4.39-.36-1-.24-1.49-.72-1.49-1.39,0-.97,.95-1.61,2.41-1.61,.52,0,1.11,.05,1.64,.12,1.64,.23,1.88,.28,2.88,.28,2.23,0,4-.56,5.39-1.69,1.61-1.23,2.61-3.23,2.61-5.08s-.8-3.31-2.36-4.44m-4.61,0c2.09,0,3.41,1.25,3.41,3.2,0,2.88-1.31,6.52-4.72,6.52-2.16,0-3.52-1.36-3.52-3.59,0-3.59,1.95-6.12,4.83-6.12m-4.88,17.16c1.8,0,4.69,.41,5.59,.77,1,.44,1.48,1.12,1.48,2.12,0,2.36-2.52,3.64-7.11,3.64-3.89,0-5.69-.97-5.69-3.09s2.08-3.44,5.72-3.44m35.56-18.08h-3.48l-1.88,6.41c-1.64,5.56-5.33,10.11-8.16,10.11-.97,0-1.72-.75-1.72-1.72,0-.52,.11-1.16,.44-2.27l3.92-13.12-7.72,.59-.12,1.45h.95c1.64,0,2.25,.36,2.25,1.27,0,.41-.12,.97-.33,1.73l-1.59,5.39q-1.23,4-1.23,5.23c0,2.2,1.52,3.69,3.8,3.69,2.8,0,5.08-1.64,7.44-5.33-.41,1.41-.48,1.97-.48,2.72,0,1.56,1.08,2.64,2.56,2.64,2.44,0,4.39-1.64,7.23-6l-1.2-.72c-1.95,2.92-3.52,4.53-4.39,4.53-.36,0-.72-.45-.72-.97,0-.44,.16-1.2,.47-2.36l3.97-13.28"/><path d="M205.54,166.95c-2.33,3.75-3.33,4.8-4.64,4.8-.64,0-1-.41-1-1.12,0-.52,.2-1.44,.59-2.84l7.12-23.99-7.95,.59-.17,1.44h1.25c1.64,0,2.28,.36,2.28,1.23,0,.41-.12,.92-.36,1.77l-2.64,8.88c-.72-2.08-2.28-3.23-4.61-3.23-5.75,0-11.11,6.16-11.11,12.8,0,3.92,2.52,6.59,6.28,6.59,2.72,0,4.72-1.11,6.47-3.72-.03,.33-.03,.72-.03,.89,0,1.83,.95,2.83,2.72,2.83,2.52,0,4.72-1.95,7-6.19l-1.2-.72m-10-10.69c1.95,0,3.39,1.52,3.39,3.61,0,3.62-2.55,12.11-7.19,12.11-2.16,0-3.56-1.72-3.56-4.31,0-3.8,2.72-11.41,7.36-11.41m33-1.2h-3.48l-1.88,6.41c-1.64,5.56-5.33,10.11-8.16,10.11-.97,0-1.72-.75-1.72-1.72,0-.52,.11-1.16,.44-2.27l3.92-13.12-7.72,.59-.12,1.45h.95c1.64,0,2.25,.36,2.25,1.27,0,.41-.12,.97-.33,1.73l-1.59,5.39q-1.23,4-1.23,5.23c0,2.2,1.52,3.69,3.8,3.69,2.8,0,5.08-1.64,7.44-5.33-.41,1.41-.48,1.97-.48,2.72,0,1.56,1.08,2.64,2.56,2.64,2.44,0,4.39-1.64,7.23-6l-1.2-.72c-1.95,2.92-3.52,4.53-4.39,4.53-.36,0-.72-.45-.72-.97,0-.44,.16-1.2,.47-2.36l3.97-13.28"/><path d="M640.19,166.95c-2.33,3.75-3.33,4.8-4.64,4.8-.64,0-1-.41-1-1.12,0-.52,.2-1.44,.59-2.84l7.12-23.99-7.95,.59-.17,1.44h1.25c1.64,0,2.28,.36,2.28,1.23,0,.41-.12,.92-.36,1.77l-2.64,8.88c-.72-2.08-2.28-3.23-4.61-3.23-5.75,0-11.11,6.16-11.11,12.8,0,3.92,2.52,6.59,6.28,6.59,2.72,0,4.72-1.11,6.47-3.72-.03,.33-.03,.72-.03,.89,0,1.83,.95,2.83,2.72,2.83,2.51,0,4.72-1.95,7-6.19l-1.2-.72m-10-10.69c1.95,0,3.39,1.52,3.39,3.61,0,3.62-2.55,12.11-7.19,12.11-2.16,0-3.56-1.72-3.56-4.31,0-3.8,2.72-11.41,7.36-11.41m33-1.2h-3.48l-1.88,6.41c-1.64,5.56-5.33,10.11-8.16,10.11-.97,0-1.72-.75-1.72-1.72,0-.52,.11-1.16,.44-2.27l3.92-13.12-7.72,.59-.12,1.45h.95c1.64,0,2.25,.36,2.25,1.27,0,.41-.12,.97-.33,1.73l-1.59,5.39q-1.23,4-1.23,5.23c0,2.2,1.51,3.69,3.8,3.69,2.8,0,5.08-1.64,7.44-5.33-.41,1.41-.48,1.97-.48,2.72,0,1.56,1.08,2.64,2.56,2.64,2.44,0,4.39-1.64,7.23-6l-1.2-.72c-1.95,2.92-3.52,4.53-4.39,4.53-.36,0-.72-.45-.72-.97,0-.44,.16-1.2,.47-2.36l3.97-13.28"/><path d="M350.42,166.95c-2.33,3.75-3.33,4.8-4.64,4.8-.64,0-1-.41-1-1.12,0-.52,.2-1.44,.59-2.84l7.12-23.99-7.95,.59-.17,1.44h1.25c1.64,0,2.28,.36,2.28,1.23,0,.41-.12,.92-.36,1.77l-2.64,8.88c-.72-2.08-2.28-3.23-4.61-3.23-5.75,0-11.11,6.16-11.11,12.8,0,3.92,2.51,6.59,6.28,6.59,2.72,0,4.72-1.11,6.47-3.72-.03,.33-.03,.72-.03,.89,0,1.83,.95,2.83,2.72,2.83,2.52,0,4.72-1.95,7-6.19l-1.2-.72m-10-10.69c1.95,0,3.39,1.52,3.39,3.61,0,3.62-2.55,12.11-7.19,12.11-2.16,0-3.56-1.72-3.56-4.31,0-3.8,2.72-11.41,7.36-11.41m33-1.2h-3.48l-1.88,6.41c-1.64,5.56-5.33,10.11-8.16,10.11-.97,0-1.72-.75-1.72-1.72,0-.52,.11-1.16,.44-2.27l3.92-13.12-7.72,.59-.12,1.45h.95c1.64,0,2.25,.36,2.25,1.27,0,.41-.12,.97-.33,1.73l-1.59,5.39q-1.24,4-1.24,5.23c0,2.2,1.52,3.69,3.8,3.69,2.8,0,5.08-1.64,7.44-5.33-.41,1.41-.49,1.97-.49,2.72,0,1.56,1.08,2.64,2.56,2.64,2.44,0,4.39-1.64,7.23-6l-1.2-.72c-1.95,2.92-3.52,4.53-4.39,4.53-.36,0-.72-.45-.72-.97,0-.44,.16-1.2,.47-2.36l3.97-13.28"/><path d="M1481.33,344.79l184.43,6.2v12.4l-184.43-6.2v-12.4" fill-rule="evenodd"/><path d="M1481.33,363.39l184.43,6.2v12.4l-184.43-6.2v-12.4" fill-rule="evenodd"/><path d="M1238.73,344.79l184.43-6.2v12.4l-184.43,6.2v-12.4" fill-rule="evenodd"/><path d="M1238.73,363.39l184.43-6.2v12.4l-184.43,6.2v-12.4" fill-rule="evenodd"/><path d="M950.64,344.79l184.43,6.2v12.4l-184.43-6.2v-12.4" fill-rule="evenodd"/><path d="M950.64,363.39l184.43,6.2v12.4l-184.43-6.2v-12.4" fill-rule="evenodd"/><path d="M708.04,369.59l184.43-6.2v12.4l-184.43,6.2v-12.4" fill-rule="evenodd"/><path d="M708.04,388.19l184.43-6.2v12.4l-184.43,6.2v-12.4" fill-rule="evenodd"/><path d="M222.84,17.31l219.81-6.2v12.41l-219.81,6.2v-12.41" fill-rule="evenodd"/><path d="M222.84,35.91l219.81-6.2v12.4l-219.81,6.2v-12.41" fill-rule="evenodd"/><path d="M222.84,344.79l184.43-6.2v12.4l-184.43,6.2v-12.4" fill-rule="evenodd"/><path d="M222.84,363.39l184.43-6.2v12.4l-184.43,6.2v-12.4" fill-rule="evenodd"/><path d="M2287.92,4.91l219.8,6.2v12.41l-219.8-6.2V4.91" fill-rule="evenodd"/><path d="M2287.92,23.51l219.8,6.2v12.4l-219.8-6.2v-12.4" fill-rule="evenodd"/><path d="M435.69,499.79l184.43,6.2v12.4l-184.43-6.2v-12.4" fill-rule="evenodd"/><path d="M435.69,481.19l184.43,6.2v12.4l-184.43-6.2v-12.4" fill-rule="evenodd"/><path d="M1998.15,17.31l219.81-6.2v12.41l-219.81,6.2v-12.41" fill-rule="evenodd"/><path d="M1998.15,35.91l219.81-6.2v12.4l-219.81,6.2v-12.41" fill-rule="evenodd"/><path d="M1388.86,153.71l219.81-6.2v12.4l-219.81,6.2v-12.4" fill-rule="evenodd"/><path d="M1388.86,135.11l219.81-6.2v12.4l-219.81,6.2v-12.4" fill-rule="evenodd"/><path d="M1062.39,166.11l219.8,6.2v12.41l-219.8-6.2v-12.4" fill-rule="evenodd"/><path d="M1062.39,147.51l219.8,6.2v12.4l-219.8-6.2v-12.4" fill-rule="evenodd"/><path d="M802.37,11.11l219.81-6.2v12.41l-219.81,6.2V11.11" fill-rule="evenodd"/><path d="M802.37,29.71l219.81-6.2v12.4l-219.81,6.2v-12.4" fill-rule="evenodd"/><path d="M1966.53,338.59l184.43,6.2v12.4l-184.43-6.2v-12.4" fill-rule="evenodd"/><path d="M1966.53,357.19l184.43,6.2v12.4l-184.43-6.2v-12.4" fill-rule="evenodd"/><path d="M1678.63,147.51l219.81,6.2v12.4l-219.81-6.2v-12.4" fill-rule="evenodd"/><path d="M1678.63,128.91l219.81,6.2v12.4l-219.81-6.2v-12.4" fill-rule="evenodd"/><path d="M512.6,4.91l219.81,6.2v12.41l-219.81-6.2V4.91" fill-rule="evenodd"/><path d="M512.6,23.51l219.81,6.2v12.4l-219.81-6.2v-12.4" fill-rule="evenodd"/><path d="M1694.18,505.99l184.43-6.2v12.4l-184.43,6.2v-12.4" fill-rule="evenodd"/><path d="M1694.18,487.39l184.43-6.2v12.4l-184.43,6.2v-12.4" fill-rule="evenodd"/></g></svg>