<?xml version="1.0" encoding="UTF-8"?><svg id="Ebene_2" xmlns="http://www.w3.org/2000/svg" viewBox="0 0 1692.82 178.37"><g id="Ebene_1-2"><line y1="37.9" x2="1689.62" y2="37.9" fill="none" stroke="#000" stroke-linejoin="bevel" stroke-width="2.73"/><line y1="62.7" x2="1689.62" y2="62.7" fill="none" stroke="#000" stroke-linejoin="bevel" stroke-width="2.73"/><line y1="87.5" x2="1689.62" y2="87.5" fill="none" stroke="#000" stroke-linejoin="bevel" stroke-width="2.73"/><line y1="112.3" x2="1689.62" y2="112.3" fill="none" stroke="#000" stroke-linejoin="bevel" stroke-width="2.73"/><line y1="137.1" x2="1689.62" y2="137.1" fill="none" stroke="#000" stroke-linejoin="bevel" stroke-width="2.73"/><line x1="1306.95" y1="36.53" x2="1306.95" y2="138.46" fill="none" stroke="#000" stroke-linejoin="bevel" stroke-width="4.46"/><line x1="799.54" y1="36.53" x2="799.54" y2="138.46" fill="none" stroke="#000" stroke-linejoin="bevel" stroke-width="4.46"/><line x1="1667.77" y1="36.53" x2="1667.77" y2="138.46" fill="none" stroke="#000" stroke-linejoin="bevel" stroke-width="4.46"/><line x1="1686" y1="36.53" x2="1686" y2="138.46" fill="none" stroke="#000" stroke-linejoin="bevel" stroke-width="13.64"/><line x1="825.83" y1="13.1" x2="874.43" y2="13.1" fill="none" stroke="#000" stroke-linejoin="bevel" stroke-width="3.97"/><line x1="1372.42" y1="95.93" x2="1372.42" y2="19.3" fill="none" stroke="#000" stroke-linejoin="bevel" stroke-width="2.48"/><line x1="357.59" y1="95.93" x2="357.59" y2="19.3" fill="none" stroke="#000" stroke-linejoin="bevel" stroke-width="2.48"/><line x1="420.44" y1="91.66" x2="420.44" y2="161.78" fill="none" stroke="#000" stroke-linejoin="bevel" stroke-width="2.48"/><line x1="605.64" y1="54.46" x2="605.64" y2="135.02" fill="none" stroke="#000" stroke-linejoin="bevel" stroke-width="2.48"/><line x1="1236.53" y1="91.66" x2="1236.53" y2="155.57" fill="none" stroke="#000" stroke-linejoin="bevel" stroke-width="2.48"/><line x1="482.17" y1="79.26" x2="482.17" y2="155.82" fill="none" stroke="#000" stroke-linejoin="bevel" stroke-width="2.48"/><line x1="835.25" y1="17.26" x2="835.25" y2="99.9" fill="none" stroke="#000" stroke-linejoin="bevel" stroke-width="2.48"/><line x1="543.91" y1="66.86" x2="543.91" y2="137.06" fill="none" stroke="#000" stroke-linejoin="bevel" stroke-width="2.48"/><line x1="1174.79" y1="79.26" x2="1174.79" y2="149.46" fill="none" stroke="#000" stroke-linejoin="bevel" stroke-width="2.48"/><line x1="989.59" y1="42.06" x2="989.59" y2="112.18" fill="none" stroke="#000" stroke-linejoin="bevel" stroke-width="2.48"/><line x1="927.85" y1="29.66" x2="927.85" y2="106.22" fill="none" stroke="#000" stroke-linejoin="bevel" stroke-width="2.48"/><line x1="667.38" y1="42.06" x2="667.38" y2="132.98" fill="none" stroke="#000" stroke-linejoin="bevel" stroke-width="2.48"/><line x1="1051.32" y1="54.46" x2="1051.32" y2="137.22" fill="none" stroke="#000" stroke-linejoin="bevel" stroke-width="2.48"/><line x1="729.11" y1="29.66" x2="729.11" y2="130.94" fill="none" stroke="#000" stroke-linejoin="bevel" stroke-width="2.48"/><line x1="1113.06" y1="66.86" x2="1113.06" y2="143.34" fill="none" stroke="#000" stroke-linejoin="bevel" stroke-width="2.48"/><path d="M1050.08,54.47c0,4.26,3.07,9.02,11.11,9.02,10.31,0,21.13-8.43,21.13-17.16,0-5.86-4.96-9.13-11.11-9.13-9.63,0-21.13,8.14-21.13,17.27"/><path d="M1111.82,66.87c0,4.26,3.07,9.02,11.11,9.02,10.31,0,21.13-8.43,21.13-17.16,0-5.86-4.96-9.13-11.11-9.13-9.63,0-21.13,8.14-21.13,17.27"/><path d="M1173.55,79.27c0,4.26,3.07,9.02,11.11,9.02,10.31,0,21.13-8.43,21.13-17.16,0-5.86-4.96-9.13-11.11-9.13-9.63,0-21.13,8.14-21.13,17.27"/><path d="M1235.29,91.67c0,4.26,3.07,9.02,11.11,9.02,10.31,0,21.13-8.43,21.13-17.16,0-5.86-4.96-9.13-11.11-9.13-9.63,0-21.13,8.14-21.13,17.27"/><path d="M1341.43,104.07c0,4.26,3.07,9.02,11.11,9.02,10.31,0,21.13-8.43,21.13-17.16,0-5.86-4.96-9.13-11.11-9.13-9.63,0-21.13,8.14-21.13,17.27"/><path d="M326.59,104.07c0,4.26,3.07,9.02,11.11,9.02,10.31,0,21.13-8.43,21.13-17.16,0-5.86-4.96-9.13-11.11-9.13-9.63,0-21.13,8.14-21.13,17.27"/><path d="M480.93,79.27c0,4.26,3.07,9.02,11.11,9.02,10.31,0,21.13-8.43,21.13-17.16,0-5.86-4.96-9.13-11.11-9.13-9.63,0-21.13,8.14-21.13,17.27"/><path d="M542.67,66.87c0,4.26,3.07,9.02,11.11,9.02,10.31,0,21.13-8.43,21.13-17.16,0-5.86-4.96-9.13-11.11-9.13-9.63,0-21.13,8.14-21.13,17.27"/><path d="M419.2,91.67c0,4.26,3.07,9.02,11.11,9.02,10.31,0,21.13-8.43,21.13-17.16,0-5.86-4.96-9.13-11.11-9.13-9.63,0-21.13,8.14-21.13,17.27"/><path d="M604.4,54.47c0,4.26,3.07,9.02,11.11,9.02,10.31,0,21.13-8.43,21.13-17.16,0-5.86-4.96-9.13-11.11-9.13-9.63,0-21.13,8.14-21.13,17.27"/><path d="M666.14,42.07c0,4.26,3.07,9.02,11.11,9.02,10.31,0,21.13-8.43,21.13-17.16,0-5.86-4.96-9.13-11.11-9.13-9.63,0-21.13,8.14-21.13,17.27"/><path d="M727.87,29.67c0,4.26,3.07,9.02,11.11,9.02,10.31,0,21.13-8.43,21.13-17.16,0-5.86-4.96-9.13-11.11-9.13-9.63,0-21.13,8.14-21.13,17.27"/><path d="M834.01,17.27c0,4.26,3.07,9.02,11.11,9.02,10.31,0,21.13-8.43,21.13-17.16,0-5.86-4.96-9.13-11.11-9.13-9.63,0-21.13,8.14-21.13,17.27"/><path d="M926.61,29.67c0,4.26,3.07,9.02,11.11,9.02,10.31,0,21.13-8.43,21.13-17.16,0-5.86-4.96-9.13-11.11-9.13-9.63,0-21.13,8.14-21.13,17.27"/><path d="M988.35,42.07c0,4.26,3.07,9.02,11.11,9.02,10.31,0,21.13-8.43,21.13-17.16,0-5.86-4.96-9.13-11.11-9.13-9.63,0-21.13,8.14-21.13,17.27"/><path d="M30.8,163.18c0,6.56,4.96,15.19,18.35,15.19,4.67,0,8.74-1.19,12.31-3.38,5.36-3.77,6.74-10.32,6.74-16.57,0-3.86-.59-8.32-1.58-13.98-.29-1.98-.9-4.96-1.49-8.84,9.72-3.18,16.96-13.3,16.96-23.51,0-14.97-10.62-25.09-25.09-25.09-.99-5.95-1.98-11.81-2.77-17.36,10.42-11.02,17.65-23.42,17.65-39.18,0-9.04-2.77-16.37-4.37-19.95-2.37-5.05-5.25-8.53-7.04-8.53-.7,0-3.77,1.19-7.04,5.05-6.36,7.55-8.14,20.24-8.14,28.57,0,5.36,.5,10.23,2.19,21.34-.11,.09-5.27,5.35-7.35,7.04-9.04,8.34-21.53,20.43-21.53,40.28,0,18.54,16.17,33.12,34.63,33.12,2.87,0,5.55-.29,7.83-.7,1.89,9.53,3.08,16.48,3.08,21.73,0,10.32-5.36,15.78-15.38,15.78-2.39,0-4.46-.5-4.67-.5-.09-.11-.29-.2-.29-.29,0-.2,.2-.31,.5-.31,4.67-.79,9.32-4.76,9.32-11.1,0-5.36-4.06-11.02-11.5-11.02-6.94,0-11.31,5.66-11.31,12.2M51.54,30.75c.9-3.97,5.46-14.38,10.62-14.38,1.49,0,3.86,4.76,3.86,11.7,0,10.32-7.63,18.06-14.48,24.8-.59-3.97-1.08-7.83-1.08-12,0-3.67,.29-7.05,1.08-10.12m8.73,101.97c-1.98,.4-3.86,.6-5.75,.6-14.18,0-26.29-9.92-26.29-24.91,0-12.09,8.53-22.91,17.27-30.46,1.67-1.49,3.27-2.87,4.76-4.36,.88,5.35,1.58,10.01,2.28,14.09-9.04,2.68-15.17,12.2-15.17,21.53,0,6.94,5.46,16.46,13.39,16.46,.79,0,1.69-.4,1.69-1.29s-.99-1.39-2.19-2.19c-3.88-2.39-6.06-4.96-6.06-9.83,0-6.05,4.57-10.91,10.32-12.29l5.75,32.63m14.09-18.35c0,7.05-2.88,14.29-9.92,17.17-2.08-11.9-4.76-27.68-5.46-32.05,8.93,0,15.38,6.06,15.38,14.88"/><path d="M118.78,72.12c-4.96,0-7.84,3.07-8.34,3.67l.4-31.85c0-.79-.59-1.38-1.4-1.38h-1.18c-.81,0-1.4,.59-1.4,1.38l.5,59.63c0,.79,.59,1.38,1.4,1.38,.19,0,.59-.09,.79-.19,8.53-4.28,17.45-12.4,17.45-22.63,0-5.15-2.37-10.01-8.23-10.01m-8.63,27.98l.29-19.34c.2-.9,1.69-3.77,5.66-3.77,3.58,0,3.87,3.36,3.87,5.46,0,8.82-3.27,12.49-9.83,17.65"/><path d="M146.36,34.92c-4.96,0-7.84,3.07-8.34,3.67l.4-31.85c0-.79-.59-1.38-1.4-1.38h-1.18c-.81,0-1.4,.59-1.4,1.38l.5,59.63c0,.79,.59,1.38,1.4,1.38,.19,0,.59-.09,.79-.19,8.53-4.28,17.45-12.4,17.45-22.63,0-5.15-2.37-10.01-8.23-10.01m-8.63,27.98l.29-19.34c.2-.9,1.69-3.77,5.66-3.77,3.58,0,3.87,3.36,3.87,5.46,0,8.82-3.27,12.49-9.83,17.65"/><path d="M173.93,84.52c-4.96,0-7.84,3.07-8.34,3.67l.4-31.85c0-.79-.59-1.38-1.4-1.38h-1.18c-.81,0-1.4,.59-1.4,1.38l.5,59.63c0,.79,.59,1.38,1.4,1.38,.19,0,.59-.09,.79-.19,8.53-4.28,17.45-12.4,17.45-22.63,0-5.15-2.37-10.01-8.23-10.01m-8.63,27.98l.29-19.34c.2-.9,1.69-3.77,5.66-3.77,3.58,0,3.87,3.36,3.87,5.46,0,8.82-3.27,12.49-9.83,17.65"/><path d="M201.51,47.32c-4.96,0-7.84,3.07-8.34,3.67l.4-31.85c0-.79-.59-1.38-1.4-1.38h-1.18c-.81,0-1.4,.59-1.4,1.38l.5,59.63c0,.79,.59,1.38,1.4,1.38,.19,0,.59-.09,.79-.19,8.53-4.28,17.45-12.4,17.45-22.63,0-5.15-2.37-10.01-8.23-10.01m-8.63,27.98l.29-19.34c.2-.9,1.69-3.77,5.66-3.77,3.58,0,3.87,3.36,3.87,5.46,0,8.82-3.27,12.49-9.83,17.65"/><path d="M253.78,75.3v7.33h-8.23c-.7,0-1.39,.6-1.39,1.39v1.89c0,.79,.7,1.38,1.39,1.38h30.05c.81,0,1.39-.59,1.39-1.38v-1.89c0-.79-.59-1.39-1.39-1.39h-8.82v-7.33h8.82c.81,0,1.39-.7,1.39-1.49v-1.89c0-.7-.59-1.38-1.39-1.38h-8.82v-15.78c0-.59-.29-1.09-.79-1.29l-1.19-.6c-.2-.09-.5-.19-.7-.19-.29,.09-.7,.19-.9,.39l-9.02,8.23c-.29,.31-.4,.7-.4,1.1v8.14h-11.41s11.02-11.9,22.72-27.59c.4-.5,.5-.99,.5-1.38,0-.5-.2-.9-.29-.99l-2.19-2.19c-.2-.2-.59-.4-.99-.4h-14.68c-.81,0-1.3,.6-1.4,1.19,0,0-.5,7.35-3.07,15.38-2.59,8.04-5.56,13-8.14,16.66,0,0-.29,.5-.29,1.1,0,.2,0,.39,.09,.59,.4,.7,.99,1.78,.99,1.78,0,0,.2,.6,1.09,.6h17.07"/><path d="M253.78,124.9v7.33h-8.23c-.7,0-1.39,.6-1.39,1.39v1.89c0,.79,.7,1.38,1.39,1.38h30.05c.81,0,1.39-.59,1.39-1.38v-1.89c0-.79-.59-1.39-1.39-1.39h-8.82v-7.33h8.82c.81,0,1.39-.7,1.39-1.49v-1.89c0-.7-.59-1.38-1.39-1.38h-8.82v-15.78c0-.59-.29-1.09-.79-1.29l-1.19-.6c-.2-.09-.5-.19-.7-.19-.29,.09-.7,.19-.9,.39l-9.02,8.23c-.29,.31-.4,.7-.4,1.1v8.14h-11.41s11.02-11.9,22.72-27.59c.4-.5,.5-.99,.5-1.38,0-.5-.2-.9-.29-.99l-2.19-2.19c-.2-.2-.59-.4-.99-.4h-14.68c-.81,0-1.3,.6-1.4,1.19,0,0-.5,7.35-3.07,15.38-2.59,8.04-5.56,13-8.14,16.66,0,0-.29,.5-.29,1.1,0,.2,0,.39,.09,.59,.4,.7,.99,1.78,.99,1.78,0,0,.2,.6,1.09,.6h17.07"/><path d="M1456.85,103.96c-.09-.09-.29-.29-.59-.68l-11.41-14.09c-.11-.11-.2-.4-.2-.6,0-.29,.09-.68,.2-.88l10.11-15.28c.11-.2,.2-.5,.2-.7v-.88c0-.29-.09-.6-.29-.79l-16.07-21.73s-.39-.6-.99-.6c-.29,0-.5,0-.79,.31-.4,.29-.5,.68-.5,.99,0,.59,.29,1.09,.29,1.09l7.55,10.32c.19,.29,.29,.68,.29,1.18,0,.4-.11,.9-.29,1.19l-10.03,15.28c-.09,.2-.2,.59-.2,.79v.9c0,.29,.11,.59,.31,.79l11.1,13.8c-.39-.11-1.29-.31-2.48-.31-5.05,0-9.02,4.17-9.02,9.24,0,1.38,.29,2.77,1.09,3.86,2.09,3.18,9.53,12.6,9.53,12.6,0,0,.5,.6,1.19,.6,.19,0,.39,0,.59-.2,.5-.4,.7-.79,.7-1.19s-.2-.7-.29-.9c-.31-.5-3.47-6.25-3.47-6.25,0,0-.7-1.39-.7-3.18,0-3.18,2.37-5.75,5.55-5.75,1.29,0,2.39,.4,3.18,.9l3.88,2.48s.39,.19,.79,.19,.7-.09,.99-.5c.2-.29,.29-.59,.29-.88s-.09-.5-.29-.79l-.2-.31"/><path d="M1526.63,86.51q0,1.4,1.4,1.4h29.47q1.38,0,1.38-1.4v-10.71q0-1.39-1.38-1.39h-29.47q-1.4,0-1.4,1.39v10.71"/><path d="M419.2,155.67l64.22-6.2v12.46l-64.22,6.2v-12.46" fill-rule="evenodd"/><path d="M1050.08,130.87l187.69,18.6v12.46l-187.69-18.6v-12.46" fill-rule="evenodd"/><path d="M542.67,130.89l187.68-6.2v12.41l-187.68,6.2v-12.41" fill-rule="evenodd"/><path d="M926.61,99.87l64.22,6.2v12.46l-64.22-6.2v-12.46" fill-rule="evenodd"/></g></svg>