<?xml version="1.0" encoding="UTF-8"?><svg id="Ebene_2" xmlns="http://www.w3.org/2000/svg" viewBox="0 0 1716.55 176.39"><g id="Ebene_1-2"><line x1="0" y1="35.93" x2="1710.75" y2="35.38" fill="none" stroke="#000" stroke-linejoin="bevel" stroke-width="2.73"/><line x1="0" y1="60.73" x2="1710.76" y2="60.18" fill="none" stroke="#000" stroke-linejoin="bevel" stroke-width="2.73"/><line x1=".02" y1="85.53" x2="1710.77" y2="84.98" fill="none" stroke="#000" stroke-linejoin="bevel" stroke-width="2.73"/><line x1=".02" y1="110.33" x2="1710.77" y2="109.78" fill="none" stroke="#000" stroke-linejoin="bevel" stroke-width="2.73"/><line x1=".03" y1="135.13" x2="1710.78" y2="134.58" fill="none" stroke="#000" stroke-linejoin="bevel" stroke-width="2.73"/><line x1="820.84" y1="34.3" x2="820.88" y2="136.23" fill="none" stroke="#000" stroke-linejoin="bevel" stroke-width="4.46"/><line x1="1153.4" y1="34.19" x2="1153.44" y2="136.12" fill="none" stroke="#000" stroke-linejoin="bevel" stroke-width="4.46"/><line x1="1691.46" y1="34.02" x2="1691.5" y2="135.95" fill="none" stroke="#000" stroke-linejoin="bevel" stroke-width="4.46"/><line x1="1709.69" y1="34.01" x2="1709.73" y2="135.94" fill="none" stroke="#000" stroke-linejoin="bevel" stroke-width="13.64"/><line x1="1485.95" y1="34.09" x2="1485.99" y2="136.01" fill="none" stroke="#000" stroke-linejoin="bevel" stroke-width="4.46"/><line x1="569.53" y1="34.38" x2="569.57" y2="136.31" fill="none" stroke="#000" stroke-linejoin="bevel" stroke-width="4.46"/><line x1="1337.05" y1="64.47" x2="1337.08" y2="147.1" fill="none" stroke="#000" stroke-linejoin="bevel" stroke-width="2.48"/><line x1="1411.02" y1="76.84" x2="1411.04" y2="153.27" fill="none" stroke="#000" stroke-linejoin="bevel" stroke-width="2.48"/><line x1="272.71" y1="89.61" x2="272.73" y2="159.84" fill="none" stroke="#000" stroke-linejoin="bevel" stroke-width="2.48"/><line x1="346.67" y1="77.19" x2="346.69" y2="153.62" fill="none" stroke="#000" stroke-linejoin="bevel" stroke-width="2.48"/><line x1="605.25" y1="39.9" x2="605.28" y2="122.54" fill="none" stroke="#000" stroke-linejoin="bevel" stroke-width="2.48"/><line x1="420.62" y1="64.76" x2="420.65" y2="147.4" fill="none" stroke="#000" stroke-linejoin="bevel" stroke-width="2.48"/><line x1="494.58" y1="52.34" x2="494.61" y2="134.97" fill="none" stroke="#000" stroke-linejoin="bevel" stroke-width="2.48"/><line x1="745.9" y1="52.26" x2="745.92" y2="134.89" fill="none" stroke="#000" stroke-linejoin="bevel" stroke-width="2.48"/><line x1="856.56" y1="39.82" x2="856.59" y2="122.45" fill="none" stroke="#000" stroke-linejoin="bevel" stroke-width="2.48"/><line x1="1004.48" y1="39.77" x2="1004.51" y2="122.41" fill="none" stroke="#000" stroke-linejoin="bevel" stroke-width="2.48"/><line x1="1078.45" y1="52.15" x2="1078.47" y2="134.78" fill="none" stroke="#000" stroke-linejoin="bevel" stroke-width="2.48"/><line x1="930.53" y1="52.2" x2="930.55" y2="134.83" fill="none" stroke="#000" stroke-linejoin="bevel" stroke-width="2.48"/><line x1="1189.11" y1="39.71" x2="1189.14" y2="122.35" fill="none" stroke="#000" stroke-linejoin="bevel" stroke-width="2.48"/><line x1="1263.09" y1="52.09" x2="1263.11" y2="134.72" fill="none" stroke="#000" stroke-linejoin="bevel" stroke-width="2.48"/><path d="M1187.87,39.72c0,4.26,3.07,9.02,11.12,9.02,10.31,0,21.12-8.44,21.12-17.17,0-5.86-4.96-9.13-11.12-9.13-9.63,0-21.12,8.14-21.12,17.27"/><path d="M1335.81,64.47c0,4.26,3.07,9.02,11.12,9.02,10.31,0,21.12-8.44,21.12-17.17,0-5.86-4.96-9.13-11.12-9.13-9.63,0-21.12,8.14-21.12,17.27"/><path d="M1261.85,52.09c0,4.26,3.07,9.02,11.12,9.02,10.31,0,21.12-8.44,21.12-17.17,0-5.86-4.96-9.13-11.12-9.13-9.63,0-21.12,8.14-21.12,17.27"/><path d="M1409.78,76.84c0,4.26,3.07,9.02,11.12,9.02,10.31,0,21.12-8.44,21.12-17.17,0-5.86-4.96-9.13-11.12-9.13-9.63,0-21.12,8.14-21.12,17.27"/><path d="M1077.21,52.15c0,4.26,3.07,9.02,11.12,9.02,10.31,0,21.12-8.44,21.12-17.17,0-5.86-4.96-9.13-11.12-9.13-9.63,0-21.12,8.14-21.12,17.27"/><path d="M1003.24,39.78c0,4.26,3.07,9.02,11.12,9.02,10.31,0,21.12-8.44,21.12-17.17,0-5.86-4.96-9.13-11.12-9.13-9.63,0-21.12,8.14-21.12,17.27"/><path d="M1539,71.55c-13.69,0-18.55,6.95-18.55,13.4,0,6.45,4.87,13.39,18.56,13.39s18.44-6.95,18.44-13.4c0-6.45-4.76-13.39-18.45-13.39m.8,23.61c-2.77,0-4.67-.79-5.95-3.27s-3.07-8.93-3.18-11.52c-.2-2.68,.79-4.26,3.18-5.05,1.19-.4,2.77-.61,4.37-.61,2.67,0,4.46,.6,5.84,3.28,1.4,2.57,3.29,9.02,3.29,11.5,0,4.87-3.58,5.66-7.55,5.66"/><path d="M929.29,52.2c0,4.26,3.07,9.02,11.12,9.02,10.31,0,21.12-8.44,21.12-17.17,0-5.86-4.96-9.13-11.12-9.13-9.63,0-21.12,8.14-21.12,17.27"/><path d="M855.32,39.82c0,4.26,3.07,9.02,11.12,9.02,10.31,0,21.12-8.44,21.12-17.17,0-5.86-4.96-9.13-11.12-9.13-9.63,0-21.12,8.14-21.12,17.27"/><path d="M744.66,52.26c0,4.26,3.07,9.02,11.12,9.02,10.31,0,21.12-8.44,21.12-17.17,0-5.86-4.96-9.13-11.12-9.13-9.63,0-21.12,8.14-21.12,17.27"/><path d="M625.13,22.63c-9.63,0-21.12,8.05-21.12,17.27,0,4.26,3.07,9.02,11.12,9.02,10.31,0,21.12-8.44,21.12-17.17,0-5.86-4.96-9.13-11.12-9.13m-13.68,21.63c-3.27,0-3.97-2.66-3.97-3.56,0-4.87,16.66-13.4,21.32-13.4,2.39,0,3.97,1.39,3.97,3.56,0,4.96-16.77,13.4-21.32,13.4"/><path d="M345.43,77.19c0,4.26,3.07,9.02,11.12,9.02,10.31,0,21.12-8.44,21.12-17.17,0-5.86-4.96-9.13-11.12-9.13-9.63,0-21.12,8.14-21.12,17.27"/><path d="M493.34,52.34c0,4.26,3.07,9.02,11.12,9.02,10.31,0,21.12-8.44,21.12-17.17,0-5.86-4.96-9.13-11.12-9.13-9.63,0-21.12,8.14-21.12,17.27"/><path d="M419.38,64.77c0,4.26,3.07,9.02,11.12,9.02,10.31,0,21.12-8.44,21.12-17.17,0-5.86-4.96-9.13-11.12-9.13-9.63,0-21.12,8.14-21.12,17.27"/><path d="M271.47,89.61c0,4.26,3.07,9.02,11.12,9.02,10.31,0,21.12-8.44,21.12-17.17,0-5.86-4.96-9.13-11.12-9.13-9.63,0-21.12,8.14-21.12,17.27"/><path d="M30.84,161.21c0,6.56,4.96,15.19,18.36,15.18,4.67,0,8.74-1.2,12.31-3.38,5.36-3.77,6.74-10.33,6.74-16.57,0-3.86-.59-8.32-1.59-13.98-.3-1.98-.9-4.96-1.49-8.83,9.72-3.18,16.95-13.3,16.95-23.52,0-14.97-10.63-25.09-25.1-25.09-.99-5.95-1.99-11.81-2.78-17.36,10.41-11.02,17.65-23.43,17.64-39.19,0-9.04-2.78-16.37-4.38-19.95C65.12,3.47,62.24,0,60.45,0c-.7,0-3.77,1.19-7.04,5.06-6.35,7.55-8.13,20.25-8.13,28.57,0,5.36,.5,10.23,2.19,21.34-.11,.09-5.27,5.35-7.34,7.04-9.03,8.34-21.52,20.44-21.52,40.29,0,18.54,16.18,33.12,34.64,33.11,2.87,0,5.55-.3,7.83-.7,1.89,9.53,3.09,16.48,3.09,21.73,0,10.32-5.36,15.78-15.37,15.78-2.39,0-4.46-.49-4.67-.49-.09-.11-.29-.2-.29-.29,0-.2,.2-.31,.5-.31,4.67-.79,9.31-4.76,9.31-11.1,0-5.36-4.06-11.02-11.5-11.02-6.94,0-11.31,5.66-11.31,12.2M51.54,28.77c.9-3.97,5.45-14.39,10.61-14.39,1.49,0,3.86,4.76,3.86,11.7,0,10.32-7.62,18.06-14.47,24.8-.59-3.97-1.09-7.83-1.09-12,0-3.67,.29-7.05,1.08-10.12m8.76,101.97c-1.98,.4-3.86,.61-5.75,.61-14.18,0-26.29-9.91-26.3-24.9,0-12.09,8.52-22.91,17.26-30.46,1.67-1.49,3.27-2.87,4.76-4.36,.89,5.35,1.58,10.01,2.28,14.09-9.04,2.68-15.17,12.2-15.17,21.53,0,6.94,5.46,16.46,13.4,16.46,.79,0,1.69-.4,1.69-1.29s-.99-1.39-2.19-2.18c-3.88-2.39-6.06-4.96-6.06-9.83,0-6.04,4.57-10.91,10.32-12.29l5.76,32.63m14.08-18.36c0,7.05-2.88,14.29-9.91,17.18-2.08-11.9-4.77-27.68-5.47-32.05,8.93,0,15.38,6.06,15.38,14.88"/><path d="M118.8,70.12c-4.96,0-7.84,3.07-8.34,3.68l.39-31.85c0-.79-.59-1.38-1.4-1.38h-1.18c-.81,0-1.39,.59-1.39,1.38l.52,59.63c0,.79,.59,1.38,1.4,1.38,.19,0,.59-.09,.79-.19,8.52-4.28,17.45-12.41,17.45-22.64,0-5.15-2.37-10.01-8.23-10.01m-8.62,27.98l.29-19.34c.2-.9,1.69-3.77,5.66-3.77,3.58,0,3.88,3.36,3.88,5.45,0,8.82-3.27,12.49-9.82,17.66"/><path d="M146.36,32.91c-4.96,0-7.84,3.07-8.34,3.68l.39-31.85c0-.79-.59-1.38-1.4-1.38h-1.18c-.81,0-1.39,.59-1.39,1.38l.52,59.63c0,.79,.59,1.38,1.4,1.38,.19,0,.59-.09,.79-.19,8.52-4.28,17.45-12.41,17.45-22.64,0-5.15-2.37-10.01-8.23-10.01m-8.62,27.98l.29-19.34c.2-.9,1.69-3.77,5.66-3.77,3.58,0,3.88,3.36,3.88,5.45,0,8.82-3.27,12.49-9.82,17.66"/><path d="M198.65,73.27v7.33s-8.23,0-8.23,0c-.7,0-1.39,.6-1.39,1.4v1.89c0,.79,.7,1.38,1.4,1.38h30.05c.81-.01,1.39-.6,1.39-1.39v-1.89c0-.79-.59-1.39-1.4-1.39h-8.82s0-7.33,0-7.33h8.82c.81,0,1.39-.7,1.39-1.49v-1.89c0-.7-.59-1.38-1.4-1.38h-8.82s0-15.78,0-15.78c0-.59-.29-1.08-.79-1.29l-1.19-.6c-.2-.09-.5-.19-.7-.19-.29,.09-.7,.19-.9,.39l-9.02,8.23c-.29,.31-.4,.7-.4,1.1v8.14s-11.41,0-11.41,0c0,0,11.02-11.91,22.71-27.6,.4-.5,.5-.99,.5-1.38,0-.5-.2-.9-.29-.99l-2.19-2.18c-.2-.2-.59-.4-.99-.4h-14.68c-.81,0-1.3,.61-1.39,1.2,0,0-.49,7.35-3.06,15.38-2.59,8.05-5.56,13.01-8.13,16.67,0,0-.29,.5-.29,1.1,0,.2,0,.39,.09,.59,.4,.7,.99,1.78,.99,1.78,0,0,.2,.6,1.09,.6h17.07"/><path d="M198.67,122.87v7.33s-8.23,0-8.23,0c-.7,0-1.39,.6-1.39,1.4v1.89c0,.79,.7,1.38,1.4,1.38h30.05c.81-.01,1.39-.6,1.39-1.39v-1.89c0-.79-.59-1.39-1.4-1.39h-8.82s0-7.33,0-7.33h8.82c.81,0,1.39-.7,1.39-1.49v-1.89c0-.7-.59-1.38-1.4-1.38h-8.82s0-15.78,0-15.78c0-.59-.29-1.08-.79-1.29l-1.19-.6c-.2-.09-.5-.19-.7-.19-.29,.09-.7,.19-.9,.39l-9.02,8.23c-.29,.31-.4,.7-.4,1.1v8.14s-11.41,0-11.41,0c0,0,11.02-11.91,22.71-27.6,.4-.5,.5-.99,.5-1.38,0-.5-.2-.9-.29-.99l-2.19-2.18c-.2-.2-.59-.4-.99-.4h-14.68c-.81,0-1.3,.61-1.39,1.2,0,0-.49,7.35-3.06,15.38-2.59,8.05-5.56,13.01-8.13,16.67,0,0-.29,.5-.29,1.1,0,.2,0,.39,.09,.59,.4,.7,.99,1.78,.99,1.78,0,0,.2,.6,1.09,.6h17.07"/><path d="M648.64,23.32c0,2.77,2.19,4.96,4.96,4.96s4.96-2.19,4.96-4.96-2.19-4.96-4.96-4.96-4.96,2.19-4.96,4.96"/></g></svg>