<?xml version="1.0" encoding="UTF-8"?><svg id="b" xmlns="http://www.w3.org/2000/svg" viewBox="0 0 2095.2 539.07"><g id="c"><line y1="55.8" x2="2095.2" y2="55.8" fill="none" stroke="#000" stroke-linejoin="bevel" stroke-width="2.73"/><line y1="80.6" x2="2095.2" y2="80.6" fill="none" stroke="#000" stroke-linejoin="bevel" stroke-width="2.73"/><line y1="105.4" x2="2095.2" y2="105.4" fill="none" stroke="#000" stroke-linejoin="bevel" stroke-width="2.73"/><line y1="130.2" x2="2095.2" y2="130.2" fill="none" stroke="#000" stroke-linejoin="bevel" stroke-width="2.73"/><line y1="155" x2="2095.2" y2="155" fill="none" stroke="#000" stroke-linejoin="bevel" stroke-width="2.73"/><line y1="389.48" x2="2095.2" y2="389.48" fill="none" stroke="#000" stroke-linejoin="bevel" stroke-width="2.73"/><line y1="414.28" x2="2095.2" y2="414.28" fill="none" stroke="#000" stroke-linejoin="bevel" stroke-width="2.73"/><line y1="439.08" x2="2095.2" y2="439.08" fill="none" stroke="#000" stroke-linejoin="bevel" stroke-width="2.73"/><line y1="463.88" x2="2095.2" y2="463.88" fill="none" stroke="#000" stroke-linejoin="bevel" stroke-width="2.73"/><line y1="488.68" x2="2095.2" y2="488.68" fill="none" stroke="#000" stroke-linejoin="bevel" stroke-width="2.73"/><line x1="1065.67" y1="54.44" x2="1065.67" y2="156.36" fill="none" stroke="#000" stroke-linejoin="bevel" stroke-width="4.46"/><line x1="552.03" y1="54.44" x2="552.03" y2="156.36" fill="none" stroke="#000" stroke-linejoin="bevel" stroke-width="4.46"/><line x1="2079.33" y1="388.12" x2="2079.33" y2="490.04" fill="none" stroke="#000" stroke-linejoin="bevel" stroke-width="4.46"/><line x1="2092.97" y1="388.12" x2="2092.97" y2="490.04" fill="none" stroke="#000" stroke-linejoin="bevel" stroke-width="4.46"/><line x1="2092.97" y1="54.44" x2="2092.97" y2="156.36" fill="none" stroke="#000" stroke-linejoin="bevel" stroke-width="4.46"/><line x1="1579.32" y1="54.44" x2="1579.32" y2="156.36" fill="none" stroke="#000" stroke-linejoin="bevel" stroke-width="4.46"/><line x1="933.04" y1="388.12" x2="933.04" y2="490.04" fill="none" stroke="#000" stroke-linejoin="bevel" stroke-width="4.46"/><line x1="1656.39" y1="388.12" x2="1656.39" y2="490.04" fill="none" stroke="#000" stroke-linejoin="bevel" stroke-width="4.46"/><line x1="1896.69" y1="179.8" x2="1945.29" y2="179.8" fill="none" stroke="#000" stroke-linejoin="bevel" stroke-width="3.97"/><line x1="1045.16" y1="513.48" x2="1093.76" y2="513.48" fill="none" stroke="#000" stroke-linejoin="bevel" stroke-width="3.97"/><line x1="454.29" y1="179.8" x2="502.89" y2="179.8" fill="none" stroke="#000" stroke-linejoin="bevel" stroke-width="3.97"/><line x1="2013.12" y1="179.8" x2="2061.72" y2="179.8" fill="none" stroke="#000" stroke-linejoin="bevel" stroke-width="3.97"/><line x1="636.53" y1="179.8" x2="685.13" y2="179.8" fill="none" stroke="#000" stroke-linejoin="bevel" stroke-width="3.97"/><line x1="752.96" y1="179.8" x2="801.56" y2="179.8" fill="none" stroke="#000" stroke-linejoin="bevel" stroke-width="3.97"/><line x1="1216.82" y1="513.48" x2="1265.42" y2="513.48" fill="none" stroke="#000" stroke-linejoin="bevel" stroke-width="3.97"/><line x1="869.39" y1="179.8" x2="917.99" y2="179.8" fill="none" stroke="#000" stroke-linejoin="bevel" stroke-width="3.97"/><line x1="1383.04" y1="179.8" x2="1431.64" y2="179.8" fill="none" stroke="#000" stroke-linejoin="bevel" stroke-width="3.97"/><line x1="836.79" y1="513.48" x2="885.39" y2="513.48" fill="none" stroke="#000" stroke-linejoin="bevel" stroke-width="3.97"/><line x1="1388.48" y1="513.48" x2="1437.08" y2="513.48" fill="none" stroke="#000" stroke-linejoin="bevel" stroke-width="3.97"/><line x1="1780.26" y1="179.8" x2="1828.86" y2="179.8" fill="none" stroke="#000" stroke-linejoin="bevel" stroke-width="3.97"/><line x1="1266.61" y1="179.8" x2="1315.21" y2="179.8" fill="none" stroke="#000" stroke-linejoin="bevel" stroke-width="3.97"/><line x1="1499.47" y1="179.8" x2="1548.07" y2="179.8" fill="none" stroke="#000" stroke-linejoin="bevel" stroke-width="3.97"/><line x1="493.47" y1="513.48" x2="542.07" y2="513.48" fill="none" stroke="#000" stroke-linejoin="bevel" stroke-width="3.97"/><line x1="665.13" y1="513.48" x2="713.73" y2="513.48" fill="none" stroke="#000" stroke-linejoin="bevel" stroke-width="3.97"/><line x1="1663.82" y1="179.8" x2="1712.42" y2="179.8" fill="none" stroke="#000" stroke-linejoin="bevel" stroke-width="3.97"/><line x1="1150.18" y1="179.8" x2="1198.78" y2="179.8" fill="none" stroke="#000" stroke-linejoin="bevel" stroke-width="3.97"/><line x1="1560.14" y1="513.48" x2="1608.74" y2="513.48" fill="none" stroke="#000" stroke-linejoin="bevel" stroke-width="3.97"/><line x1="985.83" y1="179.8" x2="1034.43" y2="179.8" fill="none" stroke="#000" stroke-linejoin="bevel" stroke-width="3.97"/><line x1="321.81" y1="513.48" x2="370.41" y2="513.48" fill="none" stroke="#000" stroke-linejoin="bevel" stroke-width="3.97"/><line x1="704.31" y1="521.91" x2="704.31" y2="416.36" fill="none" stroke="#000" stroke-linejoin="bevel" stroke-width="2.48"/><line x1="790.14" y1="497.11" x2="790.14" y2="418.4" fill="none" stroke="#000" stroke-linejoin="bevel" stroke-width="2.48"/><line x1="875.97" y1="521.91" x2="875.97" y2="420.45" fill="none" stroke="#000" stroke-linejoin="bevel" stroke-width="2.48"/><line x1="998.5" y1="484.71" x2="998.5" y2="389.48" fill="none" stroke="#000" stroke-linejoin="bevel" stroke-width="2.48"/><line x1="1084.33" y1="521.91" x2="1084.33" y2="389.48" fill="none" stroke="#000" stroke-linejoin="bevel" stroke-width="2.48"/><line x1="1170.16" y1="459.91" x2="1170.16" y2="389.48" fill="none" stroke="#000" stroke-linejoin="bevel" stroke-width="2.48"/><line x1="1255.99" y1="521.91" x2="1255.99" y2="389.48" fill="none" stroke="#000" stroke-linejoin="bevel" stroke-width="2.48"/><line x1="1341.82" y1="435.11" x2="1341.82" y2="371" fill="none" stroke="#000" stroke-linejoin="bevel" stroke-width="2.48"/><line x1="1427.65" y1="521.91" x2="1427.65" y2="379.19" fill="none" stroke="#000" stroke-linejoin="bevel" stroke-width="2.48"/><line x1="1513.48" y1="459.91" x2="1513.48" y2="387.37" fill="none" stroke="#000" stroke-linejoin="bevel" stroke-width="2.48"/><line x1="1599.32" y1="521.91" x2="1599.32" y2="395.56" fill="none" stroke="#000" stroke-linejoin="bevel" stroke-width="2.48"/><line x1="1721.85" y1="484.71" x2="1721.85" y2="401.88" fill="none" stroke="#000" stroke-linejoin="bevel" stroke-width="2.48"/><line x1="493.47" y1="188.23" x2="493.47" y2="105.4" fill="none" stroke="#000" stroke-linejoin="bevel" stroke-width="2.48"/><line x1="617.49" y1="151.03" x2="617.49" y2="62" fill="none" stroke="#000" stroke-linejoin="bevel" stroke-width="2.48"/><line x1="675.71" y1="188.23" x2="675.71" y2="62" fill="none" stroke="#000" stroke-linejoin="bevel" stroke-width="2.48"/><line x1="733.93" y1="138.63" x2="733.93" y2="62" fill="none" stroke="#000" stroke-linejoin="bevel" stroke-width="2.48"/><line x1="792.14" y1="188.23" x2="792.14" y2="62" fill="none" stroke="#000" stroke-linejoin="bevel" stroke-width="2.48"/><line x1="850.35" y1="126.23" x2="850.35" y2="49.6" fill="none" stroke="#000" stroke-linejoin="bevel" stroke-width="2.48"/><line x1="908.57" y1="188.23" x2="908.57" y2="49.6" fill="none" stroke="#000" stroke-linejoin="bevel" stroke-width="2.48"/><line x1="966.79" y1="113.83" x2="966.79" y2="49.6" fill="none" stroke="#000" stroke-linejoin="bevel" stroke-width="2.48"/><line x1="1025" y1="188.23" x2="1025" y2="49.6" fill="none" stroke="#000" stroke-linejoin="bevel" stroke-width="2.48"/><line x1="1131.14" y1="101.43" x2="1131.14" y2="24.8" fill="none" stroke="#000" stroke-linejoin="bevel" stroke-width="2.48"/><line x1="1189.35" y1="188.23" x2="1189.35" y2="24.8" fill="none" stroke="#000" stroke-linejoin="bevel" stroke-width="2.48"/><line x1="1247.57" y1="89.03" x2="1247.57" y2="24.8" fill="none" stroke="#000" stroke-linejoin="bevel" stroke-width="2.48"/><line x1="1305.78" y1="188.23" x2="1305.78" y2="24.8" fill="none" stroke="#000" stroke-linejoin="bevel" stroke-width="2.48"/><line x1="1364" y1="76.63" x2="1364" y2="6.2" fill="none" stroke="#000" stroke-linejoin="bevel" stroke-width="2.48"/><line x1="1422.22" y1="188.23" x2="1422.22" y2="6.2" fill="none" stroke="#000" stroke-linejoin="bevel" stroke-width="2.48"/><line x1="1480.43" y1="64.23" x2="1480.43" y2="6.2" fill="none" stroke="#000" stroke-linejoin="bevel" stroke-width="2.48"/><line x1="1538.65" y1="188.23" x2="1538.65" y2="6.2" fill="none" stroke="#000" stroke-linejoin="bevel" stroke-width="2.48"/><line x1="1644.78" y1="76.63" x2="1644.78" y2="18.73" fill="none" stroke="#000" stroke-linejoin="bevel" stroke-width="2.48"/><line x1="1703" y1="188.23" x2="1703" y2="24.84" fill="none" stroke="#000" stroke-linejoin="bevel" stroke-width="2.48"/><line x1="1761.22" y1="89.03" x2="1761.22" y2="30.96" fill="none" stroke="#000" stroke-linejoin="bevel" stroke-width="2.48"/><line x1="1819.43" y1="188.23" x2="1819.43" y2="37.07" fill="none" stroke="#000" stroke-linejoin="bevel" stroke-width="2.48"/><line x1="1877.65" y1="101.43" x2="1877.65" y2="37.33" fill="none" stroke="#000" stroke-linejoin="bevel" stroke-width="2.48"/><line x1="1935.86" y1="188.23" x2="1935.86" y2="43.44" fill="none" stroke="#000" stroke-linejoin="bevel" stroke-width="2.48"/><line x1="1994.08" y1="113.83" x2="1994.08" y2="49.56" fill="none" stroke="#000" stroke-linejoin="bevel" stroke-width="2.48"/><line x1="2052.29" y1="188.23" x2="2052.29" y2="55.67" fill="none" stroke="#000" stroke-linejoin="bevel" stroke-width="2.48"/><line x1="275.16" y1="459.91" x2="275.16" y2="389.63" fill="none" stroke="#000" stroke-linejoin="bevel" stroke-width="2.48"/><line x1="360.99" y1="521.91" x2="360.99" y2="399.86" fill="none" stroke="#000" stroke-linejoin="bevel" stroke-width="2.48"/><line x1="446.82" y1="472.31" x2="446.82" y2="410.1" fill="none" stroke="#000" stroke-linejoin="bevel" stroke-width="2.48"/><line x1="532.65" y1="521.91" x2="532.65" y2="420.33" fill="none" stroke="#000" stroke-linejoin="bevel" stroke-width="2.48"/><line x1="618.48" y1="484.71" x2="618.48" y2="414.31" fill="none" stroke="#000" stroke-linejoin="bevel" stroke-width="2.48"/><path d="M462.47,196.37c0,4.26,3.07,9.02,11.11,9.02,10.31,0,21.13-8.43,21.13-17.16,0-5.86-4.96-9.13-11.11-9.13-9.63,0-21.13,8.14-21.13,17.27"/><path d="M586.5,159.17c0,4.26,3.07,9.02,11.11,9.02,10.31,0,21.13-8.43,21.13-17.16,0-5.86-4.96-9.13-11.11-9.13-9.63,0-21.13,8.14-21.13,17.27"/><path d="M644.72,196.37c0,4.26,3.07,9.02,11.11,9.02,10.31,0,21.13-8.43,21.13-17.16,0-5.86-4.96-9.13-11.11-9.13-9.63,0-21.13,8.14-21.13,17.27"/><path d="M702.93,146.77c0,4.26,3.07,9.02,11.11,9.02,10.31,0,21.13-8.43,21.13-17.16,0-5.86-4.96-9.13-11.11-9.13-9.63,0-21.13,8.14-21.13,17.27"/><path d="M761.15,196.37c0,4.26,3.07,9.02,11.11,9.02,10.31,0,21.13-8.43,21.13-17.16,0-5.86-4.96-9.13-11.11-9.13-9.63,0-21.13,8.14-21.13,17.27"/><path d="M819.36,134.37c0,4.26,3.07,9.02,11.11,9.02,10.31,0,21.13-8.43,21.13-17.16,0-5.86-4.96-9.13-11.11-9.13-9.63,0-21.13,8.14-21.13,17.27"/><path d="M877.58,196.37c0,4.26,3.07,9.02,11.11,9.02,10.31,0,21.13-8.43,21.13-17.16,0-5.86-4.96-9.13-11.11-9.13-9.63,0-21.13,8.14-21.13,17.27"/><path d="M935.79,121.97c0,4.26,3.07,9.02,11.11,9.02,10.31,0,21.13-8.43,21.13-17.16,0-5.86-4.96-9.13-11.11-9.13-9.63,0-21.13,8.14-21.13,17.27"/><path d="M994.01,196.37c0,4.26,3.07,9.02,11.11,9.02,10.31,0,21.13-8.43,21.13-17.16,0-5.86-4.96-9.13-11.11-9.13-9.63,0-21.13,8.14-21.13,17.27"/><path d="M1100.15,109.57c0,4.26,3.07,9.02,11.11,9.02,10.31,0,21.13-8.43,21.13-17.16,0-5.86-4.96-9.13-11.11-9.13-9.63,0-21.13,8.14-21.13,17.27"/><path d="M1158.36,196.37c0,4.26,3.07,9.02,11.11,9.02,10.31,0,21.13-8.43,21.13-17.16,0-5.86-4.96-9.13-11.11-9.13-9.63,0-21.13,8.14-21.13,17.27"/><path d="M1216.58,97.17c0,4.26,3.07,9.02,11.11,9.02,10.31,0,21.13-8.43,21.13-17.16,0-5.86-4.96-9.13-11.11-9.13-9.63,0-21.13,8.14-21.13,17.27"/><path d="M1274.79,196.37c0,4.26,3.07,9.02,11.11,9.02,10.31,0,21.13-8.43,21.13-17.16,0-5.86-4.96-9.13-11.11-9.13-9.63,0-21.13,8.14-21.13,17.27"/><path d="M1333.01,84.77c0,4.26,3.07,9.02,11.11,9.02,10.31,0,21.13-8.43,21.13-17.16,0-5.86-4.96-9.13-11.11-9.13-9.63,0-21.13,8.14-21.13,17.27"/><path d="M1391.22,196.37c0,4.26,3.07,9.02,11.11,9.02,10.31,0,21.13-8.43,21.13-17.16,0-5.86-4.96-9.13-11.11-9.13-9.63,0-21.13,8.14-21.13,17.27"/><path d="M1449.44,72.37c0,4.26,3.07,9.02,11.11,9.02,10.31,0,21.13-8.43,21.13-17.16,0-5.86-4.96-9.13-11.11-9.13-9.63,0-21.13,8.14-21.13,17.27"/><path d="M1507.66,196.37c0,4.26,3.07,9.02,11.11,9.02,10.31,0,21.13-8.43,21.13-17.16,0-5.86-4.96-9.13-11.11-9.13-9.63,0-21.13,8.14-21.13,17.27"/><path d="M1613.79,84.77c0,4.26,3.07,9.02,11.11,9.02,10.31,0,21.13-8.43,21.13-17.16,0-5.86-4.96-9.13-11.11-9.13-9.63,0-21.13,8.14-21.13,17.27"/><path d="M1672.01,196.37c0,4.26,3.07,9.02,11.11,9.02,10.31,0,21.13-8.43,21.13-17.16,0-5.86-4.96-9.13-11.11-9.13-9.63,0-21.13,8.14-21.13,17.27"/><path d="M1730.22,97.17c0,4.26,3.07,9.02,11.11,9.02,10.31,0,21.13-8.43,21.13-17.16,0-5.86-4.96-9.13-11.11-9.13-9.63,0-21.13,8.14-21.13,17.27"/><path d="M1788.44,196.37c0,4.26,3.07,9.02,11.11,9.02,10.31,0,21.13-8.43,21.13-17.16,0-5.86-4.96-9.13-11.11-9.13-9.63,0-21.13,8.14-21.13,17.27"/><path d="M1904.87,196.37c0,4.26,3.07,9.02,11.11,9.02,10.31,0,21.13-8.43,21.13-17.16,0-5.86-4.96-9.13-11.11-9.13-9.63,0-21.13,8.14-21.13,17.27"/><path d="M1963.09,121.97c0,4.26,3.07,9.02,11.11,9.02,10.31,0,21.13-8.43,21.13-17.16,0-5.86-4.96-9.13-11.11-9.13-9.63,0-21.13,8.14-21.13,17.27"/><path d="M2021.3,196.37c0,4.26,3.07,9.02,11.11,9.02,10.31,0,21.13-8.43,21.13-17.16,0-5.86-4.96-9.13-11.11-9.13-9.63,0-21.13,8.14-21.13,17.27"/><path d="M244.16,468.05c0,4.26,3.07,9.02,11.11,9.02,10.31,0,21.13-8.43,21.13-17.16,0-5.86-4.96-9.13-11.11-9.13-9.63,0-21.13,8.14-21.13,17.27"/><path d="M330,530.05c0,4.26,3.07,9.02,11.11,9.02,10.31,0,21.13-8.43,21.13-17.16,0-5.86-4.96-9.13-11.11-9.13-9.63,0-21.13,8.14-21.13,17.27"/><path d="M415.82,480.45c0,4.26,3.07,9.02,11.11,9.02,10.31,0,21.13-8.43,21.13-17.16,0-5.86-4.96-9.13-11.11-9.13-9.63,0-21.13,8.14-21.13,17.27"/><path d="M501.66,530.05c0,4.26,3.07,9.02,11.11,9.02,10.31,0,21.13-8.43,21.13-17.16,0-5.86-4.96-9.13-11.11-9.13-9.63,0-21.13,8.14-21.13,17.27"/><path d="M587.49,492.85c0,4.26,3.07,9.02,11.11,9.02,10.31,0,21.13-8.43,21.13-17.16,0-5.86-4.96-9.13-11.11-9.13-9.63,0-21.13,8.14-21.13,17.27"/><path d="M673.32,530.05c0,4.26,3.07,9.02,11.11,9.02,10.31,0,21.13-8.43,21.13-17.16,0-5.86-4.96-9.13-11.11-9.13-9.63,0-21.13,8.14-21.13,17.27"/><path d="M759.15,505.25c0,4.26,3.07,9.02,11.11,9.02,10.31,0,21.13-8.43,21.13-17.16,0-5.86-4.96-9.13-11.11-9.13-9.63,0-21.13,8.14-21.13,17.27"/><path d="M844.98,530.05c0,4.26,3.07,9.02,11.11,9.02,10.31,0,21.13-8.43,21.13-17.16,0-5.86-4.96-9.13-11.11-9.13-9.63,0-21.13,8.14-21.13,17.27"/><path d="M967.51,492.85c0,4.26,3.07,9.02,11.11,9.02,10.31,0,21.13-8.43,21.13-17.16,0-5.86-4.96-9.13-11.11-9.13-9.63,0-21.13,8.14-21.13,17.27"/><path d="M1053.34,530.05c0,4.26,3.07,9.02,11.11,9.02,10.31,0,21.13-8.43,21.13-17.16,0-5.86-4.96-9.13-11.11-9.13-9.63,0-21.13,8.14-21.13,17.27"/><path d="M1139.17,468.05c0,4.26,3.07,9.02,11.11,9.02,10.31,0,21.13-8.43,21.13-17.16,0-5.86-4.96-9.13-11.11-9.13-9.63,0-21.13,8.14-21.13,17.27"/><path d="M1225,530.05c0,4.26,3.07,9.02,11.11,9.02,10.31,0,21.13-8.43,21.13-17.16,0-5.86-4.96-9.13-11.11-9.13-9.63,0-21.13,8.14-21.13,17.27"/><path d="M1310.83,443.25c0,4.26,3.07,9.02,11.11,9.02,10.31,0,21.13-8.43,21.13-17.16,0-5.86-4.96-9.13-11.11-9.13-9.63,0-21.13,8.14-21.13,17.27"/><path d="M1396.66,530.05c0,4.26,3.07,9.02,11.11,9.02,10.31,0,21.13-8.43,21.13-17.16,0-5.86-4.96-9.13-11.11-9.13-9.63,0-21.13,8.14-21.13,17.27"/><path d="M1482.49,468.05c0,4.26,3.07,9.02,11.11,9.02,10.31,0,21.13-8.43,21.13-17.16,0-5.86-4.96-9.13-11.11-9.13-9.63,0-21.13,8.14-21.13,17.27"/><path d="M1568.32,530.05c0,4.26,3.07,9.02,11.11,9.02,10.31,0,21.13-8.43,21.13-17.16,0-5.86-4.96-9.13-11.11-9.13-9.63,0-21.13,8.14-21.13,17.27"/><path d="M1711.99,475.58c-9.63,0-21.13,8.04-21.13,17.27,0,4.26,3.07,9.02,11.11,9.02,10.31,0,21.13-8.43,21.13-17.16,0-5.86-4.96-9.13-11.11-9.13m-13.69,21.62c-3.27,0-3.97-2.67-3.97-3.57,0-4.87,16.66-13.39,21.33-13.39,2.39,0,3.97,1.4,3.97,3.57,0,4.96-16.77,13.39-21.33,13.39"/><path d="M1846.65,109.57c0,4.26,3.07,9.02,11.11,9.02,10.31,0,21.13-8.43,21.13-17.16,0-5.86-4.96-9.13-11.11-9.13-9.63,0-21.13,8.14-21.13,17.27"/><path d="M30.8,514.77c0,6.56,4.96,15.19,18.35,15.19,4.67,0,8.74-1.19,12.31-3.38,5.36-3.77,6.74-10.32,6.74-16.57,0-3.86-.59-8.32-1.58-13.98-.29-1.98-.9-4.96-1.49-8.84,9.72-3.18,16.96-13.3,16.96-23.51,0-14.97-10.62-25.09-25.09-25.09-.99-5.95-1.98-11.81-2.77-17.36,10.42-11.02,17.65-23.42,17.65-39.18,0-9.04-2.77-16.37-4.37-19.95-2.37-5.05-5.25-8.53-7.04-8.53-.7,0-3.77,1.19-7.04,5.05-6.36,7.55-8.14,20.24-8.14,28.57,0,5.36,.5,10.23,2.19,21.34-.11,.09-5.27,5.35-7.35,7.04-9.04,8.34-21.53,20.43-21.53,40.28,0,18.54,16.17,33.12,34.63,33.12,2.87,0,5.55-.29,7.83-.7,1.89,9.53,3.08,16.48,3.08,21.73,0,10.32-5.36,15.78-15.38,15.78-2.39,0-4.46-.5-4.67-.5-.09-.11-.29-.2-.29-.29,0-.2,.2-.31,.5-.31,4.67-.79,9.32-4.76,9.32-11.1,0-5.36-4.06-11.02-11.5-11.02-6.94,0-11.31,5.66-11.31,12.2m20.74-132.43c.9-3.97,5.46-14.38,10.62-14.38,1.49,0,3.86,4.76,3.86,11.7,0,10.32-7.63,18.06-14.48,24.8-.59-3.97-1.08-7.83-1.08-12,0-3.67,.29-7.05,1.08-10.12m8.73,101.97c-1.98,.4-3.86,.6-5.75,.6-14.18,0-26.29-9.92-26.29-24.91,0-12.09,8.53-22.91,17.27-30.46,1.67-1.49,3.27-2.87,4.76-4.36,.88,5.35,1.58,10.01,2.28,14.09-9.04,2.68-15.17,12.2-15.17,21.53,0,6.94,5.46,16.46,13.39,16.46,.79,0,1.69-.4,1.69-1.29s-.99-1.39-2.19-2.19c-3.88-2.39-6.06-4.96-6.06-9.83,0-6.05,4.57-10.91,10.32-12.29l5.75,32.63m14.09-18.35c0,7.05-2.88,14.29-9.92,17.17-2.08-11.9-4.76-27.68-5.46-32.05,8.93,0,15.38,6.06,15.38,14.88"/><path d="M30.8,181.09c0,6.56,4.96,15.19,18.35,15.19,4.67,0,8.74-1.19,12.31-3.38,5.36-3.77,6.74-10.32,6.74-16.57,0-3.86-.59-8.32-1.58-13.98-.29-1.98-.9-4.96-1.49-8.84,9.72-3.18,16.96-13.3,16.96-23.51,0-14.97-10.62-25.09-25.09-25.09-.99-5.95-1.98-11.81-2.77-17.36,10.42-11.02,17.65-23.42,17.65-39.18,0-9.04-2.77-16.37-4.37-19.95-2.37-5.05-5.25-8.53-7.04-8.53-.7,0-3.77,1.19-7.04,5.05-6.36,7.55-8.14,20.24-8.14,28.57,0,5.36,.5,10.23,2.19,21.34-.11,.09-5.27,5.35-7.35,7.04-9.04,8.34-21.53,20.43-21.53,40.28,0,18.54,16.17,33.12,34.63,33.12,2.87,0,5.55-.29,7.83-.7,1.89,9.53,3.08,16.48,3.08,21.73,0,10.32-5.36,15.78-15.38,15.78-2.39,0-4.46-.5-4.67-.5-.09-.11-.29-.2-.29-.29,0-.2,.2-.31,.5-.31,4.67-.79,9.32-4.76,9.32-11.1,0-5.36-4.06-11.02-11.5-11.02-6.94,0-11.31,5.66-11.31,12.2M51.54,48.65c.9-3.97,5.46-14.38,10.62-14.38,1.49,0,3.86,4.76,3.86,11.7,0,10.32-7.63,18.06-14.48,24.8-.59-3.97-1.08-7.83-1.08-12,0-3.67,.29-7.05,1.08-10.12m8.73,101.97c-1.98,.4-3.86,.6-5.75,.6-14.18,0-26.29-9.92-26.29-24.91,0-12.09,8.53-22.91,17.27-30.46,1.67-1.49,3.27-2.87,4.76-4.36,.88,5.35,1.58,10.01,2.28,14.09-9.04,2.68-15.17,12.2-15.17,21.53,0,6.94,5.46,16.46,13.39,16.46,.79,0,1.69-.4,1.69-1.29s-.99-1.39-2.19-2.19c-3.88-2.39-6.06-4.96-6.06-9.83,0-6.05,4.57-10.91,10.32-12.29l5.75,32.63m14.09-18.35c0,7.05-2.88,14.29-9.92,17.17-2.08-11.9-4.76-27.68-5.46-32.05,8.93,0,15.38,6.06,15.38,14.88"/><path d="M118.79,423.7c-4.96,0-7.84,3.07-8.34,3.67l.4-31.85c0-.79-.59-1.38-1.4-1.38h-1.18c-.81,0-1.4,.59-1.4,1.38l.5,59.63c0,.79,.59,1.38,1.4,1.38,.19,0,.59-.09,.79-.19,8.53-4.28,17.45-12.4,17.45-22.63,0-5.15-2.37-10.01-8.23-10.01m-8.63,27.98l.29-19.34c.2-.9,1.69-3.77,5.66-3.77,3.58,0,3.87,3.36,3.87,5.46,0,8.82-3.27,12.49-9.83,17.65"/><path d="M146.36,386.5c-4.96,0-7.84,3.07-8.34,3.67l.4-31.85c0-.79-.59-1.38-1.4-1.38h-1.18c-.81,0-1.4,.59-1.4,1.38l.5,59.63c0,.79,.59,1.38,1.4,1.38,.19,0,.59-.09,.79-.19,8.53-4.28,17.45-12.4,17.45-22.63,0-5.15-2.37-10.01-8.23-10.01m-8.63,27.98l.29-19.34c.2-.9,1.69-3.77,5.66-3.77,3.58,0,3.87,3.36,3.87,5.46,0,8.82-3.27,12.49-9.83,17.65"/><path d="M173.93,436.1c-4.96,0-7.84,3.07-8.34,3.67l.4-31.85c0-.79-.59-1.38-1.4-1.38h-1.18c-.81,0-1.4,.59-1.4,1.38l.5,59.63c0,.79,.59,1.38,1.4,1.38,.19,0,.59-.09,.79-.19,8.53-4.28,17.45-12.4,17.45-22.63,0-5.15-2.37-10.01-8.23-10.01m-8.63,27.98l.29-19.34c.2-.9,1.69-3.77,5.66-3.77,3.58,0,3.87,3.36,3.87,5.46,0,8.82-3.27,12.49-9.83,17.65"/><path d="M118.79,90.02c-4.96,0-7.84,3.07-8.34,3.67l.4-31.85c0-.79-.59-1.38-1.4-1.38h-1.18c-.81,0-1.4,.59-1.4,1.38l.5,59.63c0,.79,.59,1.38,1.4,1.38,.19,0,.59-.09,.79-.19,8.53-4.28,17.45-12.4,17.45-22.63,0-5.15-2.37-10.01-8.23-10.01m-8.63,27.98l.29-19.34c.2-.9,1.69-3.77,5.66-3.77,3.58,0,3.87,3.36,3.87,5.46,0,8.82-3.27,12.49-9.83,17.65"/><path d="M146.36,52.82c-4.96,0-7.84,3.07-8.34,3.67l.4-31.85c0-.79-.59-1.38-1.4-1.38h-1.18c-.81,0-1.4,.59-1.4,1.38l.5,59.63c0,.79,.59,1.38,1.4,1.38,.19,0,.59-.09,.79-.19,8.53-4.28,17.45-12.4,17.45-22.63,0-5.15-2.37-10.01-8.23-10.01m-8.63,27.98l.29-19.34c.2-.9,1.69-3.77,5.66-3.77,3.58,0,3.87,3.36,3.87,5.46,0,8.82-3.27,12.49-9.83,17.65"/><path d="M173.93,102.42c-4.96,0-7.84,3.07-8.34,3.67l.4-31.85c0-.79-.59-1.38-1.4-1.38h-1.18c-.81,0-1.4,.59-1.4,1.38l.5,59.63c0,.79,.59,1.38,1.4,1.38,.19,0,.59-.09,.79-.19,8.53-4.28,17.45-12.4,17.45-22.63,0-5.15-2.37-10.01-8.23-10.01m-8.63,27.98l.29-19.34c.2-.9,1.69-3.77,5.66-3.77,3.58,0,3.87,3.36,3.87,5.46,0,8.82-3.27,12.49-9.83,17.65"/><path d="M397.97,121.86c-.09-.09-.29-.29-.59-.68l-11.41-14.09c-.11-.11-.2-.4-.2-.6,0-.29,.09-.68,.2-.88l10.11-15.28c.11-.2,.2-.5,.2-.7v-.88c0-.29-.09-.6-.29-.79l-16.07-21.73s-.39-.6-.99-.6c-.29,0-.5,0-.79,.31-.4,.29-.5,.68-.5,.99,0,.59,.29,1.09,.29,1.09l7.55,10.32c.19,.29,.29,.68,.29,1.18,0,.4-.11,.9-.29,1.19l-10.03,15.28c-.09,.2-.2,.59-.2,.79v.9c0,.29,.11,.59,.31,.79l11.1,13.8c-.39-.11-1.29-.31-2.48-.31-5.05,0-9.02,4.17-9.02,9.24,0,1.38,.29,2.77,1.09,3.86,2.09,3.18,9.53,12.6,9.53,12.6,0,0,.5,.6,1.19,.6,.19,0,.39,0,.59-.2,.5-.4,.7-.79,.7-1.19s-.2-.7-.29-.9c-.31-.5-3.47-6.25-3.47-6.25,0,0-.7-1.39-.7-3.18,0-3.18,2.37-5.75,5.55-5.75,1.29,0,2.39,.4,3.18,.9l3.88,2.48s.39,.19,.79,.19,.7-.09,.99-.5c.2-.29,.29-.59,.29-.88s-.09-.5-.29-.79l-.2-.31"/><path d="M244.16,104.41q0,1.4,1.4,1.4h29.47q1.38,0,1.38-1.4v-10.71q0-1.39-1.38-1.39h-29.47q-1.4,0-1.4,1.39v10.71"/><path d="M1883.98,438.09q0,1.4,1.4,1.4h29.47q1.38,0,1.38-1.4v-10.71q0-1.39-1.38-1.39h-29.47q-1.4,0-1.4,1.39v10.71"/><path d="M1729.7,351.29c-9.32-10.12-17.56-10.71-22.71-10.71s-13.3,.59-22.63,10.71c-4.85,5.36-8.23,15.97-8.23,21.33,0,1.89,.4,3.18,1.4,3.18,2.77,0,1.38-8.54,9.72-16.97,7.33-7.33,17.16-7.44,19.55-7.44h.39c2.39,0,12.21,.11,19.55,7.44,8.34,8.43,6.94,16.97,9.72,16.97,.99,0,1.39-1.19,1.39-3.18,0-5.36-3.27-16.07-8.14-21.33m-29.56,18.94c0,3.78,3.07,6.85,6.85,6.85s6.84-3.07,6.84-6.85-3.07-6.84-6.84-6.84-6.85,3.07-6.85,6.84"/><path d="M1340.58,364.65l259.98,24.8v12.46l-259.98-24.8v-12.46" fill-rule="evenodd"/><path d="M997.26,383.28h259.97v12.4h-259.97v-12.4" fill-rule="evenodd"/><path d="M617.24,408.08l259.97,6.2v12.4l-259.97-6.2v-12.4" fill-rule="evenodd"/><path d="M273.92,383.24l259.97,31v12.49l-259.97-31v-12.49" fill-rule="evenodd"/><path d="M1876.41,30.97l177.12,18.6v12.47l-177.12-18.6v-12.47" fill-rule="evenodd"/><path d="M1643.54,12.37l177.13,18.6v12.47l-177.13-18.6V12.37" fill-rule="evenodd"/><path d="M1362.76,0h177.13V12.4h-177.13V0" fill-rule="evenodd"/><path d="M1129.9,18.6h177.12v12.4h-177.12v-12.4" fill-rule="evenodd"/><path d="M849.11,43.4h177.13v12.4h-177.13v-12.4" fill-rule="evenodd"/><path d="M616.25,55.8h177.13v12.4h-177.13v-12.4" fill-rule="evenodd"/></g></svg>