<?xml version="1.0" encoding="UTF-8"?><svg id="b" xmlns="http://www.w3.org/2000/svg" viewBox="0 0 2095.2 542.36"><g id="c"><line y1="68.2" x2="2095.2" y2="68.2" fill="none" stroke="#000" stroke-linejoin="bevel" stroke-width="2.73"/><line y1="93" x2="2095.2" y2="93" fill="none" stroke="#000" stroke-linejoin="bevel" stroke-width="2.73"/><line y1="117.8" x2="2095.2" y2="117.8" fill="none" stroke="#000" stroke-linejoin="bevel" stroke-width="2.73"/><line y1="142.6" x2="2095.2" y2="142.6" fill="none" stroke="#000" stroke-linejoin="bevel" stroke-width="2.73"/><line y1="167.4" x2="2095.2" y2="167.4" fill="none" stroke="#000" stroke-linejoin="bevel" stroke-width="2.73"/><line y1="401.88" x2="2095.2" y2="401.88" fill="none" stroke="#000" stroke-linejoin="bevel" stroke-width="2.73"/><line y1="426.68" x2="2095.2" y2="426.68" fill="none" stroke="#000" stroke-linejoin="bevel" stroke-width="2.73"/><line y1="451.48" x2="2095.2" y2="451.48" fill="none" stroke="#000" stroke-linejoin="bevel" stroke-width="2.73"/><line y1="476.28" x2="2095.2" y2="476.28" fill="none" stroke="#000" stroke-linejoin="bevel" stroke-width="2.73"/><line y1="501.08" x2="2095.2" y2="501.08" fill="none" stroke="#000" stroke-linejoin="bevel" stroke-width="2.73"/><line x1="2079.33" y1="400.52" x2="2079.33" y2="502.45" fill="none" stroke="#000" stroke-linejoin="bevel" stroke-width="4.46"/><line x1="2092.97" y1="400.52" x2="2092.97" y2="502.45" fill="none" stroke="#000" stroke-linejoin="bevel" stroke-width="4.46"/><line x1="619.88" y1="66.84" x2="619.88" y2="168.77" fill="none" stroke="#000" stroke-linejoin="bevel" stroke-width="4.46"/><line x1="1675" y1="400.52" x2="1675" y2="502.45" fill="none" stroke="#000" stroke-linejoin="bevel" stroke-width="4.46"/><line x1="984.76" y1="400.52" x2="984.76" y2="502.45" fill="none" stroke="#000" stroke-linejoin="bevel" stroke-width="4.46"/><line x1="2092.97" y1="66.84" x2="2092.97" y2="168.77" fill="none" stroke="#000" stroke-linejoin="bevel" stroke-width="4.46"/><line x1="1601.94" y1="66.84" x2="1601.94" y2="168.77" fill="none" stroke="#000" stroke-linejoin="bevel" stroke-width="4.46"/><line x1="1110.91" y1="66.84" x2="1110.91" y2="168.77" fill="none" stroke="#000" stroke-linejoin="bevel" stroke-width="4.46"/><line x1="1582.89" y1="525.88" x2="1631.49" y2="525.88" fill="none" stroke="#000" stroke-linejoin="bevel" stroke-width="3.97"/><line x1="526.99" y1="192.2" x2="575.59" y2="192.2" fill="none" stroke="#000" stroke-linejoin="bevel" stroke-width="3.97"/><line x1="1419.51" y1="525.88" x2="1468.11" y2="525.88" fill="none" stroke="#000" stroke-linejoin="bevel" stroke-width="3.97"/><line x1="1256.12" y1="525.88" x2="1304.72" y2="525.88" fill="none" stroke="#000" stroke-linejoin="bevel" stroke-width="3.97"/><line x1="1092.74" y1="525.88" x2="1141.34" y2="525.88" fill="none" stroke="#000" stroke-linejoin="bevel" stroke-width="3.97"/><line x1="1793.18" y1="192.2" x2="1841.78" y2="192.2" fill="none" stroke="#000" stroke-linejoin="bevel" stroke-width="3.97"/><line x1="892.65" y1="525.88" x2="941.25" y2="525.88" fill="none" stroke="#000" stroke-linejoin="bevel" stroke-width="3.97"/><line x1="729.26" y1="525.88" x2="777.86" y2="525.88" fill="none" stroke="#000" stroke-linejoin="bevel" stroke-width="3.97"/><line x1="565.88" y1="525.88" x2="614.48" y2="525.88" fill="none" stroke="#000" stroke-linejoin="bevel" stroke-width="3.97"/><line x1="402.49" y1="525.88" x2="451.09" y2="525.88" fill="none" stroke="#000" stroke-linejoin="bevel" stroke-width="3.97"/><line x1="2013.12" y1="192.2" x2="2061.72" y2="192.2" fill="none" stroke="#000" stroke-linejoin="bevel" stroke-width="3.97"/><line x1="1903.15" y1="192.2" x2="1951.75" y2="192.2" fill="none" stroke="#000" stroke-linejoin="bevel" stroke-width="3.97"/><line x1="1522.09" y1="192.2" x2="1570.69" y2="192.2" fill="none" stroke="#000" stroke-linejoin="bevel" stroke-width="3.97"/><line x1="1412.12" y1="192.2" x2="1460.72" y2="192.2" fill="none" stroke="#000" stroke-linejoin="bevel" stroke-width="3.97"/><line x1="1302.15" y1="192.2" x2="1350.75" y2="192.2" fill="none" stroke="#000" stroke-linejoin="bevel" stroke-width="3.97"/><line x1="1192.18" y1="192.2" x2="1240.78" y2="192.2" fill="none" stroke="#000" stroke-linejoin="bevel" stroke-width="3.97"/><line x1="1031.06" y1="192.2" x2="1079.66" y2="192.2" fill="none" stroke="#000" stroke-linejoin="bevel" stroke-width="3.97"/><line x1="921.09" y1="192.2" x2="969.69" y2="192.2" fill="none" stroke="#000" stroke-linejoin="bevel" stroke-width="3.97"/><line x1="811.12" y1="192.2" x2="859.72" y2="192.2" fill="none" stroke="#000" stroke-linejoin="bevel" stroke-width="3.97"/><line x1="701.15" y1="192.2" x2="749.76" y2="192.2" fill="none" stroke="#000" stroke-linejoin="bevel" stroke-width="3.97"/><line x1="1683.21" y1="192.2" x2="1731.81" y2="192.2" fill="none" stroke="#000" stroke-linejoin="bevel" stroke-width="3.97"/><line x1="1667.4" y1="76.63" x2="1667.4" y2="18.74" fill="none" stroke="#000" stroke-linejoin="bevel" stroke-width="2.48"/><line x1="1722.39" y1="188.23" x2="1722.39" y2="24.85" fill="none" stroke="#000" stroke-linejoin="bevel" stroke-width="2.48"/><line x1="1777.37" y1="89.03" x2="1777.37" y2="30.96" fill="none" stroke="#000" stroke-linejoin="bevel" stroke-width="2.48"/><line x1="1832.36" y1="188.23" x2="1832.36" y2="37.06" fill="none" stroke="#000" stroke-linejoin="bevel" stroke-width="2.48"/><line x1="1887.34" y1="101.43" x2="1887.34" y2="37.34" fill="none" stroke="#000" stroke-linejoin="bevel" stroke-width="2.48"/><line x1="1942.33" y1="188.23" x2="1942.33" y2="43.45" fill="none" stroke="#000" stroke-linejoin="bevel" stroke-width="2.48"/><line x1="1997.31" y1="113.83" x2="1997.31" y2="49.56" fill="none" stroke="#000" stroke-linejoin="bevel" stroke-width="2.48"/><line x1="2052.29" y1="188.23" x2="2052.29" y2="55.66" fill="none" stroke="#000" stroke-linejoin="bevel" stroke-width="2.48"/><line x1="359.97" y1="459.91" x2="359.97" y2="395.74" fill="none" stroke="#000" stroke-linejoin="bevel" stroke-width="2.48"/><line x1="441.67" y1="521.91" x2="441.67" y2="399.84" fill="none" stroke="#000" stroke-linejoin="bevel" stroke-width="2.48"/><line x1="523.36" y1="472.31" x2="523.36" y2="403.93" fill="none" stroke="#000" stroke-linejoin="bevel" stroke-width="2.48"/><line x1="605.05" y1="521.91" x2="605.05" y2="408.02" fill="none" stroke="#000" stroke-linejoin="bevel" stroke-width="2.48"/><line x1="686.75" y1="484.71" x2="686.75" y2="420.54" fill="none" stroke="#000" stroke-linejoin="bevel" stroke-width="2.48"/><line x1="768.44" y1="521.91" x2="768.44" y2="424.64" fill="none" stroke="#000" stroke-linejoin="bevel" stroke-width="2.48"/><line x1="850.13" y1="497.11" x2="850.13" y2="428.73" fill="none" stroke="#000" stroke-linejoin="bevel" stroke-width="2.48"/><line x1="931.82" y1="521.91" x2="931.82" y2="432.82" fill="none" stroke="#000" stroke-linejoin="bevel" stroke-width="2.48"/><line x1="1050.22" y1="484.71" x2="1050.22" y2="395.68" fill="none" stroke="#000" stroke-linejoin="bevel" stroke-width="2.48"/><line x1="1131.91" y1="521.91" x2="1131.91" y2="395.68" fill="none" stroke="#000" stroke-linejoin="bevel" stroke-width="2.48"/><line x1="1213.61" y1="459.91" x2="1213.61" y2="395.68" fill="none" stroke="#000" stroke-linejoin="bevel" stroke-width="2.48"/><line x1="1295.3" y1="521.91" x2="1295.3" y2="395.68" fill="none" stroke="#000" stroke-linejoin="bevel" stroke-width="2.48"/><line x1="1376.99" y1="435.11" x2="1376.99" y2="370.97" fill="none" stroke="#000" stroke-linejoin="bevel" stroke-width="2.48"/><line x1="1458.68" y1="521.91" x2="1458.68" y2="377.11" fill="none" stroke="#000" stroke-linejoin="bevel" stroke-width="2.48"/><line x1="1540.38" y1="459.91" x2="1540.38" y2="383.25" fill="none" stroke="#000" stroke-linejoin="bevel" stroke-width="2.48"/><line x1="1622.07" y1="521.91" x2="1622.07" y2="389.39" fill="none" stroke="#000" stroke-linejoin="bevel" stroke-width="2.48"/><line x1="1740.47" y1="484.71" x2="1740.47" y2="401.88" fill="none" stroke="#000" stroke-linejoin="bevel" stroke-width="2.48"/><line x1="566.16" y1="188.23" x2="566.16" y2="105.4" fill="none" stroke="#000" stroke-linejoin="bevel" stroke-width="2.48"/><line x1="685.35" y1="151.03" x2="685.35" y2="68.2" fill="none" stroke="#000" stroke-linejoin="bevel" stroke-width="2.48"/><line x1="740.33" y1="188.23" x2="740.33" y2="68.2" fill="none" stroke="#000" stroke-linejoin="bevel" stroke-width="2.48"/><line x1="795.31" y1="138.63" x2="795.31" y2="68.2" fill="none" stroke="#000" stroke-linejoin="bevel" stroke-width="2.48"/><line x1="850.3" y1="188.23" x2="850.3" y2="68.2" fill="none" stroke="#000" stroke-linejoin="bevel" stroke-width="2.48"/><line x1="905.28" y1="126.23" x2="905.28" y2="49.6" fill="none" stroke="#000" stroke-linejoin="bevel" stroke-width="2.48"/><line x1="960.27" y1="188.23" x2="960.27" y2="49.6" fill="none" stroke="#000" stroke-linejoin="bevel" stroke-width="2.48"/><line x1="1015.25" y1="113.83" x2="1015.25" y2="49.6" fill="none" stroke="#000" stroke-linejoin="bevel" stroke-width="2.48"/><line x1="1070.24" y1="188.23" x2="1070.24" y2="49.6" fill="none" stroke="#000" stroke-linejoin="bevel" stroke-width="2.48"/><line x1="1176.37" y1="101.43" x2="1176.37" y2="31" fill="none" stroke="#000" stroke-linejoin="bevel" stroke-width="2.48"/><line x1="1231.36" y1="188.23" x2="1231.36" y2="31" fill="none" stroke="#000" stroke-linejoin="bevel" stroke-width="2.48"/><line x1="1286.34" y1="89.03" x2="1286.34" y2="31" fill="none" stroke="#000" stroke-linejoin="bevel" stroke-width="2.48"/><line x1="1341.33" y1="188.23" x2="1341.33" y2="31" fill="none" stroke="#000" stroke-linejoin="bevel" stroke-width="2.48"/><line x1="1396.31" y1="76.63" x2="1396.31" y2="6.2" fill="none" stroke="#000" stroke-linejoin="bevel" stroke-width="2.48"/><line x1="1451.3" y1="188.23" x2="1451.3" y2="6.2" fill="none" stroke="#000" stroke-linejoin="bevel" stroke-width="2.48"/><line x1="1506.28" y1="64.23" x2="1506.28" y2="6.2" fill="none" stroke="#000" stroke-linejoin="bevel" stroke-width="2.48"/><line x1="1561.27" y1="188.23" x2="1561.27" y2="6.2" fill="none" stroke="#000" stroke-linejoin="bevel" stroke-width="2.48"/><path d="M1182.61,468.05c0,4.26,3.07,9.02,11.11,9.02,10.31,0,21.13-8.43,21.13-17.16,0-5.86-4.96-9.13-11.11-9.13-9.63,0-21.13,8.14-21.13,17.27"/><path d="M1264.31,530.05c0,4.26,3.07,9.02,11.11,9.02,10.31,0,21.13-8.43,21.13-17.16,0-5.86-4.96-9.13-11.11-9.13-9.63,0-21.13,8.14-21.13,17.27"/><path d="M1346,443.25c0,4.26,3.07,9.02,11.11,9.02,10.31,0,21.13-8.43,21.13-17.16,0-5.86-4.96-9.13-11.11-9.13-9.63,0-21.13,8.14-21.13,17.27"/><path d="M1427.69,530.05c0,4.26,3.07,9.02,11.11,9.02,10.31,0,21.13-8.43,21.13-17.16,0-5.86-4.96-9.13-11.11-9.13-9.63,0-21.13,8.14-21.13,17.27"/><path d="M1509.39,468.05c0,4.26,3.07,9.02,11.11,9.02,10.31,0,21.13-8.43,21.13-17.16,0-5.86-4.96-9.13-11.11-9.13-9.63,0-21.13,8.14-21.13,17.27"/><path d="M535.17,196.37c0,4.26,3.07,9.02,11.11,9.02,10.31,0,21.13-8.43,21.13-17.16,0-5.86-4.96-9.13-11.11-9.13-9.63,0-21.13,8.14-21.13,17.27"/><path d="M1591.08,530.05c0,4.26,3.07,9.02,11.11,9.02,10.31,0,21.13-8.43,21.13-17.16,0-5.86-4.96-9.13-11.11-9.13-9.63,0-21.13,8.14-21.13,17.27"/><path d="M654.35,159.17c0,4.26,3.07,9.02,11.11,9.02,10.31,0,21.13-8.43,21.13-17.16,0-5.86-4.96-9.13-11.11-9.13-9.63,0-21.13,8.14-21.13,17.27"/><path d="M709.34,196.37c0,4.26,3.07,9.02,11.11,9.02,10.31,0,21.13-8.43,21.13-17.16,0-5.86-4.96-9.13-11.11-9.13-9.63,0-21.13,8.14-21.13,17.27"/><path d="M764.32,146.77c0,4.26,3.07,9.02,11.11,9.02,10.31,0,21.13-8.43,21.13-17.16,0-5.86-4.96-9.13-11.11-9.13-9.63,0-21.13,8.14-21.13,17.27"/><path d="M819.31,196.37c0,4.26,3.07,9.02,11.11,9.02,10.31,0,21.13-8.43,21.13-17.16,0-5.86-4.96-9.13-11.11-9.13-9.63,0-21.13,8.14-21.13,17.27"/><path d="M874.29,134.37c0,4.26,3.07,9.02,11.11,9.02,10.31,0,21.13-8.43,21.13-17.16,0-5.86-4.96-9.13-11.11-9.13-9.63,0-21.13,8.14-21.13,17.27"/><path d="M1730.61,475.58c-9.63,0-21.13,8.04-21.13,17.27,0,4.26,3.07,9.02,11.11,9.02,10.31,0,21.13-8.43,21.13-17.16,0-5.86-4.96-9.13-11.11-9.13m-13.69,21.62c-3.27,0-3.97-2.67-3.97-3.57,0-4.87,16.66-13.39,21.33-13.39,2.39,0,3.97,1.4,3.97,3.57,0,4.96-16.77,13.39-21.33,13.39"/><path d="M929.28,196.37c0,4.26,3.07,9.02,11.11,9.02,10.31,0,21.13-8.43,21.13-17.16,0-5.86-4.96-9.13-11.11-9.13-9.63,0-21.13,8.14-21.13,17.27"/><path d="M984.26,121.97c0,4.26,3.07,9.02,11.11,9.02,10.31,0,21.13-8.43,21.13-17.16,0-5.86-4.96-9.13-11.11-9.13-9.63,0-21.13,8.14-21.13,17.27"/><path d="M1530.27,196.37c0,4.26,3.07,9.02,11.11,9.02,10.31,0,21.13-8.43,21.13-17.16,0-5.86-4.96-9.13-11.11-9.13-9.63,0-21.13,8.14-21.13,17.27"/><path d="M1039.24,196.37c0,4.26,3.07,9.02,11.11,9.02,10.31,0,21.13-8.43,21.13-17.16,0-5.86-4.96-9.13-11.11-9.13-9.63,0-21.13,8.14-21.13,17.27"/><path d="M1145.38,109.57c0,4.26,3.07,9.02,11.11,9.02,10.31,0,21.13-8.43,21.13-17.16,0-5.86-4.96-9.13-11.11-9.13-9.63,0-21.13,8.14-21.13,17.27"/><path d="M1200.37,196.37c0,4.26,3.07,9.02,11.11,9.02,10.31,0,21.13-8.43,21.13-17.16,0-5.86-4.96-9.13-11.11-9.13-9.63,0-21.13,8.14-21.13,17.27"/><path d="M1255.35,97.17c0,4.26,3.07,9.02,11.11,9.02,10.31,0,21.13-8.43,21.13-17.16,0-5.86-4.96-9.13-11.11-9.13-9.63,0-21.13,8.14-21.13,17.27"/><path d="M1310.33,196.37c0,4.26,3.07,9.02,11.11,9.02,10.31,0,21.13-8.43,21.13-17.16,0-5.86-4.96-9.13-11.11-9.13-9.63,0-21.13,8.14-21.13,17.27"/><path d="M1365.32,84.77c0,4.26,3.07,9.02,11.11,9.02,10.31,0,21.13-8.43,21.13-17.16,0-5.86-4.96-9.13-11.11-9.13-9.63,0-21.13,8.14-21.13,17.27"/><path d="M1420.3,196.37c0,4.26,3.07,9.02,11.11,9.02,10.31,0,21.13-8.43,21.13-17.16,0-5.86-4.96-9.13-11.11-9.13-9.63,0-21.13,8.14-21.13,17.27"/><path d="M1475.29,72.37c0,4.26,3.07,9.02,11.11,9.02,10.31,0,21.13-8.43,21.13-17.16,0-5.86-4.96-9.13-11.11-9.13-9.63,0-21.13,8.14-21.13,17.27"/><path d="M1636.41,84.77c0,4.26,3.07,9.02,11.11,9.02,10.31,0,21.13-8.43,21.13-17.16,0-5.86-4.96-9.13-11.11-9.13-9.63,0-21.13,8.14-21.13,17.27"/><path d="M1691.39,196.37c0,4.26,3.07,9.02,11.11,9.02,10.31,0,21.13-8.43,21.13-17.16,0-5.86-4.96-9.13-11.11-9.13-9.63,0-21.13,8.14-21.13,17.27"/><path d="M1801.36,196.37c0,4.26,3.07,9.02,11.11,9.02,10.31,0,21.13-8.43,21.13-17.16,0-5.86-4.96-9.13-11.11-9.13-9.63,0-21.13,8.14-21.13,17.27"/><path d="M1856.35,109.57c0,4.26,3.07,9.02,11.11,9.02,10.31,0,21.13-8.43,21.13-17.16,0-5.86-4.96-9.13-11.11-9.13-9.63,0-21.13,8.14-21.13,17.27"/><path d="M1911.33,196.37c0,4.26,3.07,9.02,11.11,9.02,10.31,0,21.13-8.43,21.13-17.16,0-5.86-4.96-9.13-11.11-9.13-9.63,0-21.13,8.14-21.13,17.27"/><path d="M1966.32,121.97c0,4.26,3.07,9.02,11.11,9.02,10.31,0,21.13-8.43,21.13-17.16,0-5.86-4.96-9.13-11.11-9.13-9.63,0-21.13,8.14-21.13,17.27"/><path d="M2021.3,196.37c0,4.26,3.07,9.02,11.11,9.02,10.31,0,21.13-8.43,21.13-17.16,0-5.86-4.96-9.13-11.11-9.13-9.63,0-21.13,8.14-21.13,17.27"/><path d="M328.98,468.05c0,4.26,3.07,9.02,11.11,9.02,10.31,0,21.13-8.43,21.13-17.16,0-5.86-4.96-9.13-11.11-9.13-9.63,0-21.13,8.14-21.13,17.27"/><path d="M410.67,530.05c0,4.26,3.07,9.02,11.11,9.02,10.31,0,21.13-8.43,21.13-17.16,0-5.86-4.96-9.13-11.11-9.13-9.63,0-21.13,8.14-21.13,17.27"/><path d="M492.37,480.45c0,4.26,3.07,9.02,11.11,9.02,10.31,0,21.13-8.43,21.13-17.16,0-5.86-4.96-9.13-11.11-9.13-9.63,0-21.13,8.14-21.13,17.27"/><path d="M574.06,530.05c0,4.26,3.07,9.02,11.11,9.02,10.31,0,21.13-8.43,21.13-17.16,0-5.86-4.96-9.13-11.11-9.13-9.63,0-21.13,8.14-21.13,17.27"/><path d="M655.75,492.85c0,4.26,3.07,9.02,11.11,9.02,10.31,0,21.13-8.43,21.13-17.16,0-5.86-4.96-9.13-11.11-9.13-9.63,0-21.13,8.14-21.13,17.27"/><path d="M737.45,530.05c0,4.26,3.07,9.02,11.11,9.02,10.31,0,21.13-8.43,21.13-17.16,0-5.86-4.96-9.13-11.11-9.13-9.63,0-21.13,8.14-21.13,17.27"/><path d="M819.14,505.25c0,4.26,3.07,9.02,11.11,9.02,10.31,0,21.13-8.43,21.13-17.16,0-5.86-4.96-9.13-11.11-9.13-9.63,0-21.13,8.14-21.13,17.27"/><path d="M900.83,530.05c0,4.26,3.07,9.02,11.11,9.02,10.31,0,21.13-8.43,21.13-17.16,0-5.86-4.96-9.13-11.11-9.13-9.63,0-21.13,8.14-21.13,17.27"/><path d="M1746.38,97.17c0,4.26,3.07,9.02,11.11,9.02,10.31,0,21.13-8.43,21.13-17.16,0-5.86-4.96-9.13-11.11-9.13-9.63,0-21.13,8.14-21.13,17.27"/><path d="M1019.23,492.85c0,4.26,3.07,9.02,11.11,9.02,10.31,0,21.13-8.43,21.13-17.16,0-5.86-4.96-9.13-11.11-9.13-9.63,0-21.13,8.14-21.13,17.27"/><path d="M1100.92,530.05c0,4.26,3.07,9.02,11.11,9.02,10.31,0,21.13-8.43,21.13-17.16,0-5.86-4.96-9.13-11.11-9.13-9.63,0-21.13,8.14-21.13,17.27"/><path d="M30.8,193.49c0,6.56,4.96,15.19,18.35,15.19,4.67,0,8.74-1.19,12.31-3.38,5.36-3.77,6.74-10.32,6.74-16.57,0-3.86-.59-8.32-1.58-13.98-.29-1.98-.9-4.96-1.49-8.84,9.72-3.18,16.96-13.3,16.96-23.51,0-14.97-10.62-25.09-25.09-25.09-.99-5.95-1.98-11.81-2.77-17.36,10.42-11.02,17.65-23.42,17.65-39.18,0-9.04-2.77-16.37-4.37-19.95-2.37-5.05-5.25-8.53-7.04-8.53-.7,0-3.77,1.19-7.04,5.05-6.36,7.55-8.14,20.24-8.14,28.57,0,5.36,.5,10.23,2.19,21.34-.11,.09-5.27,5.35-7.35,7.04-9.04,8.34-21.53,20.43-21.53,40.28,0,18.54,16.17,33.12,34.63,33.12,2.87,0,5.55-.29,7.83-.7,1.89,9.53,3.08,16.48,3.08,21.73,0,10.32-5.36,15.78-15.38,15.78-2.39,0-4.46-.5-4.67-.5-.09-.11-.29-.2-.29-.29,0-.2,.2-.31,.5-.31,4.67-.79,9.32-4.76,9.32-11.1,0-5.36-4.06-11.02-11.5-11.02-6.94,0-11.31,5.66-11.31,12.2M51.54,61.05c.9-3.97,5.46-14.38,10.62-14.38,1.49,0,3.86,4.76,3.86,11.7,0,10.32-7.63,18.06-14.48,24.8-.59-3.97-1.08-7.83-1.08-12,0-3.67,.29-7.05,1.08-10.12m8.73,101.97c-1.98,.4-3.86,.6-5.75,.6-14.18,0-26.29-9.92-26.29-24.91,0-12.09,8.53-22.91,17.27-30.46,1.67-1.49,3.27-2.87,4.76-4.36,.88,5.35,1.58,10.01,2.28,14.09-9.04,2.68-15.17,12.2-15.17,21.53,0,6.94,5.46,16.46,13.39,16.46,.79,0,1.69-.4,1.69-1.29s-.99-1.39-2.19-2.19c-3.88-2.39-6.06-4.96-6.06-9.83,0-6.05,4.57-10.91,10.32-12.29l5.75,32.63m14.09-18.35c0,7.05-2.88,14.29-9.92,17.17-2.08-11.9-4.76-27.68-5.46-32.05,8.93,0,15.38,6.06,15.38,14.88"/><path d="M30.8,527.17c0,6.56,4.96,15.19,18.35,15.19,4.67,0,8.74-1.19,12.31-3.38,5.36-3.77,6.74-10.32,6.74-16.57,0-3.86-.59-8.32-1.58-13.98-.29-1.98-.9-4.96-1.49-8.84,9.72-3.18,16.96-13.3,16.96-23.51,0-14.97-10.62-25.09-25.09-25.09-.99-5.95-1.98-11.81-2.77-17.36,10.42-11.02,17.65-23.42,17.65-39.18,0-9.04-2.77-16.37-4.37-19.95-2.37-5.05-5.25-8.53-7.04-8.53-.7,0-3.77,1.19-7.04,5.05-6.36,7.55-8.14,20.24-8.14,28.57,0,5.36,.5,10.23,2.19,21.34-.11,.09-5.27,5.35-7.35,7.04-9.04,8.34-21.53,20.43-21.53,40.28,0,18.54,16.17,33.12,34.63,33.12,2.87,0,5.55-.29,7.83-.7,1.89,9.53,3.08,16.48,3.08,21.73,0,10.32-5.36,15.78-15.38,15.78-2.39,0-4.46-.5-4.67-.5-.09-.11-.29-.2-.29-.29,0-.2,.2-.31,.5-.31,4.67-.79,9.32-4.76,9.32-11.1,0-5.36-4.06-11.02-11.5-11.02-6.94,0-11.31,5.66-11.31,12.2m20.74-132.43c.9-3.97,5.46-14.38,10.62-14.38,1.49,0,3.86,4.76,3.86,11.7,0,10.32-7.63,18.06-14.48,24.8-.59-3.97-1.08-7.83-1.08-12,0-3.67,.29-7.05,1.08-10.12m8.73,101.97c-1.98,.4-3.86,.6-5.75,.6-14.18,0-26.29-9.92-26.29-24.91,0-12.09,8.53-22.91,17.27-30.46,1.67-1.49,3.27-2.87,4.76-4.36,.88,5.35,1.58,10.01,2.28,14.09-9.04,2.68-15.17,12.2-15.17,21.53,0,6.94,5.46,16.46,13.39,16.46,.79,0,1.69-.4,1.69-1.29s-.99-1.39-2.19-2.19c-3.88-2.39-6.06-4.96-6.06-9.83,0-6.05,4.57-10.91,10.32-12.29l5.75,32.63m14.09-18.35c0,7.05-2.88,14.29-9.92,17.17-2.08-11.9-4.76-27.68-5.46-32.05,8.93,0,15.38,6.06,15.38,14.88"/><path d="M129.99,57.78c.6-.09,1.1-.79,1.1-1.4v-5.84c0-.99-.7-1.39-1.6-1.39l-3.27,.7v-14.79h-2.77v15.38l-8.83,1.8v-14h-2.77v14.59l-3.88,.79c-.59,.11-1.09,.79-1.09,1.39v5.75c0,1.09,.79,1.4,1.69,1.4l3.27-.7v16.37l-3.88,.79c-.59,.09-1.09,.79-1.09,1.4v5.75c0,1.09,.79,1.38,1.69,1.38l3.27-.68v14.77h2.77v-15.38l8.83-1.78v14h2.77v-14.59l3.77-.7c.6-.11,1.1-.79,1.1-1.39v-5.84c0-.99-.7-1.4-1.6-1.4l-3.27,.7v-16.37l3.77-.7m-15.38,3.07l8.83-1.78v16.37l-8.83,1.89v-16.48"/><path d="M157.16,94.98c.6-.09,1.1-.79,1.1-1.4v-5.84c0-.99-.7-1.39-1.6-1.39l-3.27,.7v-14.79h-2.77v15.38l-8.83,1.8v-14h-2.77v14.59l-3.88,.79c-.59,.11-1.09,.79-1.09,1.39v5.75c0,1.09,.79,1.4,1.69,1.4l3.27-.7v16.37l-3.88,.79c-.59,.09-1.09,.79-1.09,1.4v5.75c0,1.09,.79,1.38,1.69,1.38l3.27-.68v14.77h2.77v-15.38l8.83-1.78v14h2.77v-14.59l3.77-.7c.6-.11,1.1-.79,1.1-1.39v-5.84c0-.99-.7-1.4-1.6-1.4l-3.27,.7v-16.37l3.77-.7m-15.38,3.07l8.83-1.78v16.37l-8.83,1.89v-16.48"/><path d="M184.33,45.38c.6-.09,1.1-.79,1.1-1.4v-5.84c0-.99-.7-1.39-1.6-1.39l-3.27,.7v-14.79h-2.77v15.38l-8.83,1.8v-14h-2.77v14.59l-3.88,.79c-.59,.11-1.09,.79-1.09,1.39v5.75c0,1.09,.79,1.4,1.69,1.4l3.27-.7v16.37l-3.88,.79c-.59,.09-1.09,.79-1.09,1.4v5.75c0,1.09,.79,1.38,1.69,1.38l3.27-.68v14.77h2.77v-15.38l8.83-1.78v14h2.77v-14.59l3.77-.7c.6-.11,1.1-.79,1.1-1.39v-5.84c0-.99-.7-1.4-1.6-1.4l-3.27,.7v-16.37l3.77-.7m-15.38,3.07l8.83-1.78v16.37l-8.83,1.89v-16.48"/><path d="M211.52,82.58c.6-.09,1.1-.79,1.1-1.4v-5.84c0-.99-.7-1.39-1.6-1.39l-3.27,.7v-14.79h-2.77v15.38l-8.83,1.8v-14h-2.77v14.59l-3.88,.79c-.59,.11-1.09,.79-1.09,1.39v5.75c0,1.09,.79,1.4,1.69,1.4l3.27-.7v16.37l-3.88,.79c-.59,.09-1.09,.79-1.09,1.4v5.75c0,1.09,.79,1.38,1.69,1.38l3.27-.68v14.77h2.77v-15.38l8.83-1.78v14h2.77v-14.59l3.77-.7c.6-.11,1.1-.79,1.1-1.39v-5.84c0-.99-.7-1.4-1.6-1.4l-3.27,.7v-16.37l3.77-.7m-15.38,3.07l8.83-1.78v16.37l-8.83,1.89v-16.48"/><path d="M238.69,119.78c.6-.09,1.1-.79,1.1-1.4v-5.84c0-.99-.7-1.39-1.6-1.39l-3.27,.7v-14.79h-2.77v15.38l-8.83,1.8v-14h-2.77v14.59l-3.88,.79c-.59,.11-1.09,.79-1.09,1.39v5.75c0,1.09,.79,1.4,1.69,1.4l3.27-.7v16.37l-3.88,.79c-.59,.09-1.09,.79-1.09,1.4v5.75c0,1.09,.79,1.38,1.69,1.38l3.27-.68v14.77h2.77v-15.38l8.83-1.78v14h2.77v-14.59l3.77-.7c.6-.11,1.1-.79,1.1-1.39v-5.84c0-.99-.7-1.4-1.6-1.4l-3.27,.7v-16.37l3.77-.7m-15.38,3.07l8.83-1.78v16.37l-8.83,1.89v-16.48"/><path d="M265.88,70.18c.6-.09,1.1-.79,1.1-1.4v-5.84c0-.99-.7-1.39-1.6-1.39l-3.27,.7v-14.79h-2.77v15.38l-8.83,1.8v-14h-2.77v14.59l-3.88,.79c-.59,.11-1.09,.79-1.09,1.39v5.75c0,1.09,.79,1.4,1.69,1.4l3.27-.7v16.37l-3.88,.79c-.59,.09-1.09,.79-1.09,1.4v5.75c0,1.09,.79,1.38,1.69,1.38l3.27-.68v14.77h2.77v-15.38l8.83-1.78v14h2.77v-14.59l3.77-.7c.6-.11,1.1-.79,1.1-1.39v-5.84c0-.99-.7-1.4-1.6-1.4l-3.27,.7v-16.37l3.77-.7m-15.38,3.07l8.83-1.78v16.37l-8.83,1.89v-16.48"/><path d="M129.99,391.46c.6-.09,1.1-.79,1.1-1.4v-5.84c0-.99-.7-1.39-1.6-1.39l-3.27,.7v-14.79h-2.77v15.38l-8.83,1.8v-14h-2.77v14.59l-3.88,.79c-.59,.11-1.09,.79-1.09,1.39v5.75c0,1.09,.79,1.4,1.69,1.4l3.27-.7v16.37l-3.88,.79c-.59,.09-1.09,.79-1.09,1.4v5.75c0,1.09,.79,1.38,1.69,1.38l3.27-.68v14.77h2.77v-15.38l8.83-1.78v14h2.77v-14.59l3.77-.7c.6-.11,1.1-.79,1.1-1.39v-5.84c0-.99-.7-1.4-1.6-1.4l-3.27,.7v-16.37l3.77-.7m-15.38,3.07l8.83-1.78v16.37l-8.83,1.89v-16.48"/><path d="M157.16,428.66c.6-.09,1.1-.79,1.1-1.4v-5.84c0-.99-.7-1.39-1.6-1.39l-3.27,.7v-14.79h-2.77v15.38l-8.83,1.8v-14h-2.77v14.59l-3.88,.79c-.59,.11-1.09,.79-1.09,1.39v5.75c0,1.09,.79,1.4,1.69,1.4l3.27-.7v16.37l-3.88,.79c-.59,.09-1.09,.79-1.09,1.4v5.75c0,1.09,.79,1.38,1.69,1.38l3.27-.68v14.77h2.77v-15.38l8.83-1.78v14h2.77v-14.59l3.77-.7c.6-.11,1.1-.79,1.1-1.39v-5.84c0-.99-.7-1.4-1.6-1.4l-3.27,.7v-16.37l3.77-.7m-15.38,3.07l8.83-1.78v16.37l-8.83,1.89v-16.48"/><path d="M184.33,379.06c.6-.09,1.1-.79,1.1-1.4v-5.84c0-.99-.7-1.39-1.6-1.39l-3.27,.7v-14.79h-2.77v15.38l-8.83,1.8v-14h-2.77v14.59l-3.88,.79c-.59,.11-1.09,.79-1.09,1.39v5.75c0,1.09,.79,1.4,1.69,1.4l3.27-.7v16.37l-3.88,.79c-.59,.09-1.09,.79-1.09,1.4v5.75c0,1.09,.79,1.38,1.69,1.38l3.27-.68v14.77h2.77v-15.38l8.83-1.78v14h2.77v-14.59l3.77-.7c.6-.11,1.1-.79,1.1-1.39v-5.84c0-.99-.7-1.4-1.6-1.4l-3.27,.7v-16.37l3.77-.7m-15.38,3.07l8.83-1.78v16.37l-8.83,1.89v-16.48"/><path d="M211.52,416.26c.6-.09,1.1-.79,1.1-1.4v-5.84c0-.99-.7-1.39-1.6-1.39l-3.27,.7v-14.79h-2.77v15.38l-8.83,1.8v-14h-2.77v14.59l-3.88,.79c-.59,.11-1.09,.79-1.09,1.39v5.75c0,1.09,.79,1.4,1.69,1.4l3.27-.7v16.37l-3.88,.79c-.59,.09-1.09,.79-1.09,1.4v5.75c0,1.09,.79,1.38,1.69,1.38l3.27-.68v14.77h2.77v-15.38l8.83-1.78v14h2.77v-14.59l3.77-.7c.6-.11,1.1-.79,1.1-1.39v-5.84c0-.99-.7-1.4-1.6-1.4l-3.27,.7v-16.37l3.77-.7m-15.38,3.07l8.83-1.78v16.37l-8.83,1.89v-16.48"/><path d="M238.69,453.46c.6-.09,1.1-.79,1.1-1.4v-5.84c0-.99-.7-1.39-1.6-1.39l-3.27,.7v-14.79h-2.77v15.38l-8.83,1.8v-14h-2.77v14.59l-3.88,.79c-.59,.11-1.09,.79-1.09,1.39v5.75c0,1.09,.79,1.4,1.69,1.4l3.27-.7v16.37l-3.88,.79c-.59,.09-1.09,.79-1.09,1.4v5.75c0,1.09,.79,1.38,1.69,1.38l3.27-.68v14.77h2.77v-15.38l8.83-1.78v14h2.77v-14.59l3.77-.7c.6-.11,1.1-.79,1.1-1.39v-5.84c0-.99-.7-1.4-1.6-1.4l-3.27,.7v-16.37l3.77-.7m-15.38,3.07l8.83-1.78v16.37l-8.83,1.89v-16.48"/><path d="M265.88,403.86c.6-.09,1.1-.79,1.1-1.4v-5.84c0-.99-.7-1.39-1.6-1.39l-3.27,.7v-14.79h-2.77v15.38l-8.83,1.8v-14h-2.77v14.59l-3.88,.79c-.59,.11-1.09,.79-1.09,1.39v5.75c0,1.09,.79,1.4,1.69,1.4l3.27-.7v16.37l-3.88,.79c-.59,.09-1.09,.79-1.09,1.4v5.75c0,1.09,.79,1.38,1.69,1.38l3.27-.68v14.77h2.77v-15.38l8.83-1.78v14h2.77v-14.59l3.77-.7c.6-.11,1.1-.79,1.1-1.39v-5.84c0-.99-.7-1.4-1.6-1.4l-3.27,.7v-16.37l3.77-.7m-15.38,3.07l8.83-1.78v16.37l-8.83,1.89v-16.48"/><path d="M328.98,116.81q0,1.4,1.4,1.4h29.47q1.38,0,1.38-1.4v-10.71q0-1.39-1.38-1.39h-29.47q-1.4,0-1.4,1.39v10.71"/><path d="M475.51,134.26c-.09-.09-.29-.29-.59-.68l-11.41-14.09c-.11-.11-.2-.4-.2-.6,0-.29,.09-.68,.2-.88l10.11-15.28c.11-.2,.2-.5,.2-.7v-.88c0-.29-.09-.6-.29-.79l-16.07-21.73s-.39-.6-.99-.6c-.29,0-.5,0-.79,.31-.4,.29-.5,.68-.5,.99,0,.59,.29,1.09,.29,1.09l7.55,10.32c.19,.29,.29,.68,.29,1.18,0,.4-.11,.9-.29,1.19l-10.03,15.28c-.09,.2-.2,.59-.2,.79v.9c0,.29,.11,.59,.31,.79l11.1,13.8c-.39-.11-1.29-.31-2.48-.31-5.05,0-9.02,4.17-9.02,9.24,0,1.38,.29,2.77,1.09,3.86,2.09,3.18,9.53,12.6,9.53,12.6,0,0,.5,.6,1.19,.6,.19,0,.39,0,.59-.2,.5-.4,.7-.79,.7-1.19s-.2-.7-.29-.9c-.31-.5-3.47-6.25-3.47-6.25,0,0-.7-1.39-.7-3.18,0-3.18,2.37-5.75,5.55-5.75,1.29,0,2.39,.4,3.18,.9l3.88,2.48s.39,.19,.79,.19,.7-.09,.99-.5c.2-.29,.29-.59,.29-.88s-.09-.5-.29-.79l-.2-.31"/><path d="M1893.28,450.49q0,1.4,1.4,1.4h29.47q1.38,0,1.38-1.4v-10.71q0-1.39-1.38-1.39h-29.47q-1.4,0-1.4,1.39v10.71"/><path d="M1748.32,363.69c-9.32-10.12-17.56-10.71-22.71-10.71s-13.3,.59-22.63,10.71c-4.85,5.36-8.23,15.97-8.23,21.33,0,1.89,.4,3.18,1.4,3.18,2.77,0,1.38-8.54,9.72-16.97,7.33-7.33,17.16-7.44,19.55-7.44h.39c2.39,0,12.21,.11,19.55,7.44,8.34,8.43,6.94,16.97,9.72,16.97,.99,0,1.39-1.19,1.39-3.18,0-5.36-3.27-16.07-8.14-21.33m-29.56,18.94c0,3.78,3.07,6.85,6.85,6.85s6.84-3.07,6.84-6.85-3.07-6.84-6.84-6.84-6.85,3.07-6.85,6.84"/><path d="M1395.07,0h167.44V12.4h-167.44V0" fill-rule="evenodd"/><path d="M685.51,414.27l247.56,12.4v12.42l-247.56-12.4v-12.42" fill-rule="evenodd"/><path d="M684.11,62h167.44v12.4h-167.44v-12.4" fill-rule="evenodd"/><path d="M1666.16,12.36l167.44,18.6v12.48l-167.44-18.6V12.36" fill-rule="evenodd"/><path d="M1048.98,389.48h247.56v12.4h-247.56v-12.4" fill-rule="evenodd"/><path d="M904.04,43.4h167.44v12.4h-167.44v-12.4" fill-rule="evenodd"/><path d="M1886.1,30.96l167.43,18.6v12.48l-167.43-18.6v-12.48" fill-rule="evenodd"/><path d="M1375.75,364.66l247.56,18.6v12.44l-247.56-18.6v-12.44" fill-rule="evenodd"/><path d="M1175.13,24.8h167.44v12.4h-167.44v-12.4" fill-rule="evenodd"/><path d="M358.73,389.47l247.56,12.4v12.42l-247.56-12.4v-12.42" fill-rule="evenodd"/></g></svg>