<?xml version="1.0" encoding="UTF-8"?><svg id="Ebene_2" xmlns="http://www.w3.org/2000/svg" viewBox="0 0 1505.4 176.39"><g id="Ebene_1-2"><line y1="35.91" x2="1494.75" y2="35.91" fill="none" stroke="#000" stroke-linejoin="bevel" stroke-width="2.73"/><line y1="60.71" x2="1494.75" y2="60.71" fill="none" stroke="#000" stroke-linejoin="bevel" stroke-width="2.73"/><line y1="85.51" x2="1494.75" y2="85.51" fill="none" stroke="#000" stroke-linejoin="bevel" stroke-width="2.73"/><line y1="110.31" x2="1494.75" y2="110.31" fill="none" stroke="#000" stroke-linejoin="bevel" stroke-width="2.73"/><line y1="135.11" x2="1494.75" y2="135.11" fill="none" stroke="#000" stroke-linejoin="bevel" stroke-width="2.73"/><line x1="1150.82" y1="34.55" x2="1150.82" y2="136.48" fill="none" stroke="#000" stroke-linejoin="bevel" stroke-width="4.46"/><line x1="682.14" y1="34.55" x2="682.14" y2="136.48" fill="none" stroke="#000" stroke-linejoin="bevel" stroke-width="4.46"/><line x1="1480.35" y1="34.55" x2="1480.35" y2="136.48" fill="none" stroke="#000" stroke-linejoin="bevel" stroke-width="4.46"/><line x1="1498.58" y1="34.55" x2="1498.58" y2="136.48" fill="none" stroke="#000" stroke-linejoin="bevel" stroke-width="13.64"/><line x1="913.07" y1="64.88" x2="913.07" y2="153.8" fill="none" stroke="#000" stroke-linejoin="bevel" stroke-width="2.48"/><line x1="968.85" y1="77.28" x2="968.85" y2="157.88" fill="none" stroke="#000" stroke-linejoin="bevel" stroke-width="2.48"/><line x1="1024.62" y1="89.68" x2="1024.62" y2="161.95" fill="none" stroke="#000" stroke-linejoin="bevel" stroke-width="2.48"/><line x1="278.93" y1="106.35" x2="278.93" y2="23.51" fill="none" stroke="#000" stroke-linejoin="bevel" stroke-width="2.48"/><line x1="1080.4" y1="102.08" x2="1080.4" y2="166.02" fill="none" stroke="#000" stroke-linejoin="bevel" stroke-width="2.48"/><line x1="362.59" y1="93.95" x2="362.59" y2="17.18" fill="none" stroke="#000" stroke-linejoin="bevel" stroke-width="2.48"/><line x1="500.17" y1="64.88" x2="500.17" y2="137.15" fill="none" stroke="#000" stroke-linejoin="bevel" stroke-width="2.48"/><line x1="1216.29" y1="106.35" x2="1216.29" y2="23.51" fill="none" stroke="#000" stroke-linejoin="bevel" stroke-width="2.48"/><line x1="418.37" y1="81.55" x2="418.37" y2="11.25" fill="none" stroke="#000" stroke-linejoin="bevel" stroke-width="2.48"/><line x1="444.39" y1="77.28" x2="444.39" y2="141.22" fill="none" stroke="#000" stroke-linejoin="bevel" stroke-width="2.48"/><line x1="555.95" y1="52.48" x2="555.95" y2="133.08" fill="none" stroke="#000" stroke-linejoin="bevel" stroke-width="2.48"/><line x1="611.72" y1="40.08" x2="611.72" y2="129" fill="none" stroke="#000" stroke-linejoin="bevel" stroke-width="2.48"/><line x1="717.86" y1="27.68" x2="717.86" y2="110.31" fill="none" stroke="#000" stroke-linejoin="bevel" stroke-width="2.48"/><line x1="801.52" y1="40.08" x2="801.52" y2="110.45" fill="none" stroke="#000" stroke-linejoin="bevel" stroke-width="2.48"/><line x1="857.3" y1="52.48" x2="857.3" y2="116.38" fill="none" stroke="#000" stroke-linejoin="bevel" stroke-width="2.48"/><path d="M247.94,114.48c0,4.26,3.07,9.02,11.11,9.02,10.31,0,21.13-8.43,21.13-17.16,0-5.86-4.96-9.13-11.11-9.13-9.63,0-21.13,8.14-21.13,17.27"/><path d="M1023.38,89.68c0,4.26,3.07,9.02,11.11,9.02,10.31,0,21.13-8.43,21.13-17.16,0-5.86-4.96-9.13-11.11-9.13-9.63,0-21.13,8.14-21.13,17.27"/><path d="M911.83,64.88c0,4.26,3.07,9.02,11.11,9.02,10.31,0,21.13-8.43,21.13-17.16,0-5.86-4.96-9.13-11.11-9.13-9.63,0-21.13,8.14-21.13,17.27"/><path d="M1079.16,102.08c0,4.26,3.07,9.02,11.11,9.02,10.31,0,21.13-8.43,21.13-17.16,0-5.86-4.96-9.13-11.11-9.13-9.63,0-21.13,8.14-21.13,17.27"/><path d="M856.06,52.48c0,4.26,3.07,9.02,11.11,9.02,10.31,0,21.13-8.43,21.13-17.16,0-5.86-4.96-9.13-11.11-9.13-9.63,0-21.13,8.14-21.13,17.27"/><path d="M967.61,77.28c0,4.26,3.07,9.02,11.11,9.02,10.31,0,21.13-8.43,21.13-17.16,0-5.86-4.96-9.13-11.11-9.13-9.63,0-21.13,8.14-21.13,17.27"/><path d="M1185.29,114.48c0,4.26,3.07,9.02,11.11,9.02,10.31,0,21.13-8.43,21.13-17.16,0-5.86-4.96-9.13-11.11-9.13-9.63,0-21.13,8.14-21.13,17.27"/><path d="M800.28,40.08c0,4.26,3.07,9.02,11.11,9.02,10.31,0,21.13-8.43,21.13-17.16,0-5.86-4.96-9.13-11.11-9.13-9.63,0-21.13,8.14-21.13,17.27"/><path d="M716.62,27.68c0,4.26,3.07,9.02,11.11,9.02,10.31,0,21.13-8.43,21.13-17.16,0-5.86-4.96-9.13-11.11-9.13-9.63,0-21.13,8.14-21.13,17.27"/><path d="M610.48,40.08c0,4.26,3.07,9.02,11.11,9.02,10.31,0,21.13-8.43,21.13-17.16,0-5.86-4.96-9.13-11.11-9.13-9.63,0-21.13,8.14-21.13,17.27"/><path d="M554.71,52.48c0,4.26,3.07,9.02,11.11,9.02,10.31,0,21.13-8.43,21.13-17.16,0-5.86-4.96-9.13-11.11-9.13-9.63,0-21.13,8.14-21.13,17.27"/><path d="M498.93,64.88c0,4.26,3.07,9.02,11.11,9.02,10.31,0,21.13-8.43,21.13-17.16,0-5.86-4.96-9.13-11.11-9.13-9.63,0-21.13,8.14-21.13,17.27"/><path d="M331.6,102.08c0,4.26,3.07,9.02,11.11,9.02,10.31,0,21.13-8.43,21.13-17.16,0-5.86-4.96-9.13-11.11-9.13-9.63,0-21.13,8.14-21.13,17.27"/><path d="M443.15,77.28c0,4.26,3.07,9.02,11.11,9.02,10.31,0,21.13-8.43,21.13-17.16,0-5.86-4.96-9.13-11.11-9.13-9.63,0-21.13,8.14-21.13,17.27"/><path d="M387.38,89.68c0,4.26,3.07,9.02,11.11,9.02,10.31,0,21.13-8.43,21.13-17.16,0-5.86-4.96-9.13-11.11-9.13-9.63,0-21.13,8.14-21.13,17.27"/><path d="M30.8,161.2c0,6.56,4.96,15.19,18.35,15.19,4.67,0,8.74-1.19,12.31-3.38,5.36-3.77,6.74-10.32,6.74-16.57,0-3.86-.59-8.32-1.58-13.98-.29-1.98-.9-4.96-1.49-8.84,9.72-3.18,16.96-13.3,16.96-23.51,0-14.97-10.62-25.09-25.09-25.09-.99-5.95-1.98-11.81-2.77-17.36,10.42-11.02,17.65-23.42,17.65-39.18,0-9.04-2.77-16.37-4.37-19.95-2.37-5.05-5.25-8.53-7.04-8.53-.7,0-3.77,1.19-7.04,5.05-6.36,7.55-8.14,20.24-8.14,28.57,0,5.36,.5,10.23,2.19,21.34-.11,.09-5.27,5.35-7.35,7.04-9.04,8.34-21.53,20.43-21.53,40.28,0,18.54,16.17,33.12,34.63,33.12,2.87,0,5.55-.29,7.83-.7,1.89,9.53,3.08,16.48,3.08,21.73,0,10.32-5.36,15.78-15.38,15.78-2.39,0-4.46-.5-4.67-.5-.09-.11-.29-.2-.29-.29,0-.2,.2-.31,.5-.31,4.67-.79,9.32-4.76,9.32-11.1,0-5.36-4.06-11.02-11.5-11.02-6.94,0-11.31,5.66-11.31,12.2M51.54,28.77c.9-3.97,5.46-14.38,10.62-14.38,1.49,0,3.86,4.76,3.86,11.7,0,10.32-7.63,18.06-14.48,24.8-.59-3.97-1.08-7.83-1.08-12,0-3.67,.29-7.05,1.08-10.12m8.73,101.97c-1.98,.4-3.86,.6-5.75,.6-14.18,0-26.29-9.92-26.29-24.91,0-12.09,8.53-22.91,17.27-30.46,1.67-1.49,3.27-2.87,4.76-4.36,.88,5.35,1.58,10.01,2.28,14.09-9.04,2.68-15.17,12.2-15.17,21.53,0,6.94,5.46,16.46,13.39,16.46,.79,0,1.69-.4,1.69-1.29s-.99-1.39-2.19-2.19c-3.88-2.39-6.06-4.96-6.06-9.83,0-6.05,4.57-10.91,10.32-12.29l5.75,32.63m14.09-18.35c0,7.05-2.88,14.29-9.92,17.17-2.08-11.9-4.76-27.68-5.46-32.05,8.93,0,15.38,6.06,15.38,14.88"/><path d="M129.99,25.5c.6-.09,1.1-.79,1.1-1.4v-5.84c0-.99-.7-1.39-1.6-1.39l-3.27,.7V2.77h-2.77v15.38l-8.83,1.8V5.95h-2.77v14.59l-3.88,.79c-.59,.11-1.09,.79-1.09,1.39v5.75c0,1.09,.79,1.4,1.69,1.4l3.27-.7v16.37l-3.88,.79c-.59,.09-1.09,.79-1.09,1.4v5.75c0,1.09,.79,1.38,1.69,1.38l3.27-.68v14.77h2.77v-15.38l8.83-1.78v14h2.77v-14.59l3.77-.7c.6-.11,1.1-.79,1.1-1.39v-5.84c0-.99-.7-1.4-1.6-1.4l-3.27,.7V26.19l3.77-.7m-15.38,3.07l8.83-1.78v16.37l-8.83,1.89V28.57"/><path d="M175.13,73.31v7.33h-8.23c-.7,0-1.39,.6-1.39,1.39v1.89c0,.79,.7,1.38,1.39,1.38h30.05c.81,0,1.39-.59,1.39-1.38v-1.89c0-.79-.59-1.39-1.39-1.39h-8.82v-7.33h8.82c.81,0,1.39-.7,1.39-1.49v-1.89c0-.7-.59-1.38-1.39-1.38h-8.82v-15.78c0-.59-.29-1.09-.79-1.29l-1.19-.6c-.2-.09-.5-.19-.7-.19-.29,.09-.7,.19-.9,.39l-9.02,8.23c-.29,.31-.4,.7-.4,1.1v8.14h-11.41s11.02-11.9,22.72-27.59c.4-.5,.5-.99,.5-1.38,0-.5-.2-.9-.29-.99l-2.19-2.19c-.2-.2-.59-.4-.99-.4h-14.68c-.81,0-1.3,.6-1.4,1.19,0,0-.5,7.35-3.07,15.38-2.59,8.04-5.56,13-8.14,16.66,0,0-.29,.5-.29,1.1,0,.2,0,.39,.09,.59,.4,.7,.99,1.78,.99,1.78,0,0,.2,.6,1.09,.6h17.07"/><path d="M175.13,122.91v7.33h-8.23c-.7,0-1.39,.6-1.39,1.39v1.89c0,.79,.7,1.38,1.39,1.38h30.05c.81,0,1.39-.59,1.39-1.38v-1.89c0-.79-.59-1.39-1.39-1.39h-8.82v-7.33h8.82c.81,0,1.39-.7,1.39-1.49v-1.89c0-.7-.59-1.38-1.39-1.38h-8.82v-15.78c0-.59-.29-1.09-.79-1.29l-1.19-.6c-.2-.09-.5-.19-.7-.19-.29,.09-.7,.19-.9,.39l-9.02,8.23c-.29,.31-.4,.7-.4,1.1v8.14h-11.41s11.02-11.9,22.72-27.59c.4-.5,.5-.99,.5-1.38,0-.5-.2-.9-.29-.99l-2.19-2.19c-.2-.2-.59-.4-.99-.4h-14.68c-.81,0-1.3,.6-1.4,1.19,0,0-.5,7.35-3.07,15.38-2.59,8.04-5.56,13-8.14,16.66,0,0-.29,.5-.29,1.1,0,.2,0,.39,.09,.59,.4,.7,.99,1.78,.99,1.78,0,0,.2,.6,1.09,.6h17.07"/><path d="M1291.78,101.97c-.09-.09-.29-.29-.59-.68l-11.41-14.09c-.11-.11-.2-.4-.2-.6,0-.29,.09-.68,.2-.88l10.11-15.28c.11-.2,.2-.5,.2-.7v-.88c0-.29-.09-.6-.29-.79l-16.07-21.73s-.39-.6-.99-.6c-.29,0-.5,0-.79,.31-.4,.29-.5,.68-.5,.99,0,.59,.29,1.09,.29,1.09l7.55,10.32c.19,.29,.29,.68,.29,1.18,0,.4-.11,.9-.29,1.19l-10.03,15.28c-.09,.2-.2,.59-.2,.79v.9c0,.29,.11,.59,.31,.79l11.1,13.8c-.39-.11-1.29-.31-2.48-.31-5.05,0-9.02,4.17-9.02,9.24,0,1.38,.29,2.77,1.09,3.86,2.09,3.18,9.53,12.6,9.53,12.6,0,0,.5,.6,1.19,.6,.19,0,.39,0,.59-.2,.5-.4,.7-.79,.7-1.19s-.2-.7-.29-.9c-.31-.5-3.47-6.25-3.47-6.25,0,0-.7-1.39-.7-3.18,0-3.18,2.37-5.75,5.55-5.75,1.29,0,2.39,.4,3.18,.9l3.88,2.48s.39,.19,.79,.19,.7-.09,.99-.5c.2-.29,.29-.59,.29-.88s-.09-.5-.29-.79l-.2-.31"/><path d="M1352.62,84.52q0,1.4,1.4,1.4h29.47q1.38,0,1.38-1.4v-10.71q0-1.39-1.38-1.39h-29.47q-1.4,0-1.4,1.39v10.71"/><path d="M361.35,11.08l58.26-6.2v12.47l-58.26,6.2V11.08" fill-rule="evenodd"/><path d="M911.83,147.5l169.81,12.4v12.43l-169.81-12.4v-12.43" fill-rule="evenodd"/><path d="M800.28,104.08l58.26,6.2v12.47l-58.26-6.2v-12.47" fill-rule="evenodd"/><path d="M443.15,135.1l169.81-12.4v12.43l-169.81,12.4v-12.43" fill-rule="evenodd"/></g></svg>