<?xml version="1.0" encoding="UTF-8"?><svg id="Ebene_2" xmlns="http://www.w3.org/2000/svg" viewBox="0 0 1703.55 195.13"><g id="Ebene_1-2"><line y1="45.54" x2="1694.31" y2="45.54" fill="none" stroke="#000" stroke-linejoin="bevel" stroke-width="2.73"/><line y1="70.34" x2="1694.31" y2="70.34" fill="none" stroke="#000" stroke-linejoin="bevel" stroke-width="2.73"/><line y1="95.14" x2="1694.31" y2="95.14" fill="none" stroke="#000" stroke-linejoin="bevel" stroke-width="2.73"/><line y1="119.94" x2="1694.31" y2="119.94" fill="none" stroke="#000" stroke-linejoin="bevel" stroke-width="2.73"/><line y1="144.74" x2="1694.31" y2="144.74" fill="none" stroke="#000" stroke-linejoin="bevel" stroke-width="2.73"/><line x1="1323.24" y1="44.18" x2="1323.24" y2="146.1" fill="none" stroke="#000" stroke-linejoin="bevel" stroke-width="4.46"/><line x1="1678.5" y1="44.18" x2="1678.5" y2="146.1" fill="none" stroke="#000" stroke-linejoin="bevel" stroke-width="4.46"/><line x1="1696.73" y1="44.18" x2="1696.73" y2="146.1" fill="none" stroke="#000" stroke-linejoin="bevel" stroke-width="13.64"/><line x1="822.71" y1="44.18" x2="822.71" y2="146.1" fill="none" stroke="#000" stroke-linejoin="bevel" stroke-width="4.46"/><line x1="1243.4" y1="169.54" x2="1292" y2="169.54" fill="none" stroke="#000" stroke-linejoin="bevel" stroke-width="3.97"/><line x1="348.47" y1="169.54" x2="397.07" y2="169.54" fill="none" stroke="#000" stroke-linejoin="bevel" stroke-width="3.97"/><line x1="439.48" y1="169.54" x2="488.09" y2="169.54" fill="none" stroke="#000" stroke-linejoin="bevel" stroke-width="3.97"/><line x1="1349.53" y1="169.54" x2="1398.13" y2="169.54" fill="none" stroke="#000" stroke-linejoin="bevel" stroke-width="3.97"/><line x1="387.65" y1="177.97" x2="387.65" y2="95.14" fill="none" stroke="#000" stroke-linejoin="bevel" stroke-width="2.48"/><line x1="478.66" y1="165.57" x2="478.66" y2="95.02" fill="none" stroke="#000" stroke-linejoin="bevel" stroke-width="2.48"/><line x1="1282.57" y1="165.57" x2="1282.57" y2="76.46" fill="none" stroke="#000" stroke-linejoin="bevel" stroke-width="2.48"/><line x1="539.34" y1="153.17" x2="539.34" y2="89.06" fill="none" stroke="#000" stroke-linejoin="bevel" stroke-width="2.48"/><line x1="1388.71" y1="177.97" x2="1388.71" y2="95.14" fill="none" stroke="#000" stroke-linejoin="bevel" stroke-width="2.48"/><line x1="660.69" y1="128.37" x2="660.69" y2="47.58" fill="none" stroke="#000" stroke-linejoin="bevel" stroke-width="2.48"/><line x1="721.36" y1="115.97" x2="721.36" y2="43.5" fill="none" stroke="#000" stroke-linejoin="bevel" stroke-width="2.48"/><line x1="1221.9" y1="153.17" x2="1221.9" y2="72.38" fill="none" stroke="#000" stroke-linejoin="bevel" stroke-width="2.48"/><line x1="1100.54" y1="128.37" x2="1100.54" y2="64.22" fill="none" stroke="#000" stroke-linejoin="bevel" stroke-width="2.48"/><line x1="1039.87" y1="115.97" x2="1039.87" y2="45.42" fill="none" stroke="#000" stroke-linejoin="bevel" stroke-width="2.48"/><line x1="782.04" y1="103.57" x2="782.04" y2="39.42" fill="none" stroke="#000" stroke-linejoin="bevel" stroke-width="2.48"/><line x1="600.01" y1="140.77" x2="600.01" y2="51.66" fill="none" stroke="#000" stroke-linejoin="bevel" stroke-width="2.48"/><line x1="1161.22" y1="140.77" x2="1161.22" y2="68.3" fill="none" stroke="#000" stroke-linejoin="bevel" stroke-width="2.48"/><line x1="858.42" y1="99.31" x2="858.42" y2="169.54" fill="none" stroke="#000" stroke-linejoin="bevel" stroke-width="2.48"/><line x1="979.19" y1="103.57" x2="979.19" y2="39.46" fill="none" stroke="#000" stroke-linejoin="bevel" stroke-width="2.48"/><path d="M1190.9,161.31c0,4.26,3.07,9.02,11.11,9.02,10.31,0,21.13-8.43,21.13-17.16,0-5.86-4.96-9.13-11.11-9.13-9.63,0-21.13,8.14-21.13,17.27"/><path d="M1251.58,173.71c0,4.26,3.07,9.02,11.11,9.02,10.31,0,21.13-8.43,21.13-17.16,0-5.86-4.96-9.13-11.11-9.13-9.63,0-21.13,8.14-21.13,17.27"/><path d="M356.66,186.11c0,4.26,3.07,9.02,11.11,9.02,10.31,0,21.13-8.43,21.13-17.16,0-5.86-4.96-9.13-11.11-9.13-9.63,0-21.13,8.14-21.13,17.27"/><path d="M447.67,173.71c0,4.26,3.07,9.02,11.11,9.02,10.31,0,21.13-8.43,21.13-17.16,0-5.86-4.96-9.13-11.11-9.13-9.63,0-21.13,8.14-21.13,17.27"/><path d="M1357.72,186.11c0,4.26,3.07,9.02,11.11,9.02,10.31,0,21.13-8.43,21.13-17.16,0-5.86-4.96-9.13-11.11-9.13-9.63,0-21.13,8.14-21.13,17.27"/><path d="M508.34,161.31c0,4.26,3.07,9.02,11.11,9.02,10.31,0,21.13-8.43,21.13-17.16,0-5.86-4.96-9.13-11.11-9.13-9.63,0-21.13,8.14-21.13,17.27"/><path d="M569.02,148.91c0,4.26,3.07,9.02,11.11,9.02,10.31,0,21.13-8.43,21.13-17.16,0-5.86-4.96-9.13-11.11-9.13-9.63,0-21.13,8.14-21.13,17.27"/><path d="M629.7,136.51c0,4.26,3.07,9.02,11.11,9.02,10.31,0,21.13-8.43,21.13-17.16,0-5.86-4.96-9.13-11.11-9.13-9.63,0-21.13,8.14-21.13,17.27"/><path d="M690.37,124.11c0,4.26,3.07,9.02,11.11,9.02,10.31,0,21.13-8.43,21.13-17.16,0-5.86-4.96-9.13-11.11-9.13-9.63,0-21.13,8.14-21.13,17.27"/><path d="M751.05,111.71c0,4.26,3.07,9.02,11.11,9.02,10.31,0,21.13-8.43,21.13-17.16,0-5.86-4.96-9.13-11.11-9.13-9.63,0-21.13,8.14-21.13,17.27"/><path d="M857.18,99.31c0,4.26,3.07,9.02,11.11,9.02,10.31,0,21.13-8.43,21.13-17.16,0-5.86-4.96-9.13-11.11-9.13-9.63,0-21.13,8.14-21.13,17.27"/><path d="M948.2,111.71c0,4.26,3.07,9.02,11.11,9.02,10.31,0,21.13-8.43,21.13-17.16,0-5.86-4.96-9.13-11.11-9.13-9.63,0-21.13,8.14-21.13,17.27"/><path d="M1008.87,124.11c0,4.26,3.07,9.02,11.11,9.02,10.31,0,21.13-8.43,21.13-17.16,0-5.86-4.96-9.13-11.11-9.13-9.63,0-21.13,8.14-21.13,17.27"/><path d="M1069.55,136.51c0,4.26,3.07,9.02,11.11,9.02,10.31,0,21.13-8.43,21.13-17.16,0-5.86-4.96-9.13-11.11-9.13-9.63,0-21.13,8.14-21.13,17.27"/><path d="M1130.23,148.91c0,4.26,3.07,9.02,11.11,9.02,10.31,0,21.13-8.43,21.13-17.16,0-5.86-4.96-9.13-11.11-9.13-9.63,0-21.13,8.14-21.13,17.27"/><path d="M30.8,170.83c0,6.56,4.96,15.19,18.35,15.19,4.67,0,8.74-1.19,12.31-3.38,5.36-3.77,6.74-10.32,6.74-16.57,0-3.86-.59-8.32-1.58-13.98-.29-1.98-.9-4.96-1.49-8.84,9.72-3.18,16.96-13.3,16.96-23.51,0-14.97-10.62-25.09-25.09-25.09-.99-5.95-1.98-11.81-2.77-17.36,10.42-11.02,17.65-23.42,17.65-39.18,0-9.04-2.77-16.37-4.37-19.95-2.37-5.05-5.25-8.53-7.04-8.53-.7,0-3.77,1.19-7.04,5.05-6.36,7.55-8.14,20.24-8.14,28.57,0,5.36,.5,10.23,2.19,21.34-.11,.09-5.27,5.35-7.35,7.04-9.04,8.34-21.53,20.43-21.53,40.28,0,18.54,16.17,33.12,34.63,33.12,2.87,0,5.55-.29,7.83-.7,1.89,9.53,3.08,16.48,3.08,21.73,0,10.32-5.36,15.78-15.38,15.78-2.39,0-4.46-.5-4.67-.5-.09-.11-.29-.2-.29-.29,0-.2,.2-.31,.5-.31,4.67-.79,9.32-4.76,9.32-11.1,0-5.36-4.06-11.02-11.5-11.02-6.94,0-11.31,5.66-11.31,12.2M51.54,38.39c.9-3.97,5.46-14.38,10.62-14.38,1.49,0,3.86,4.76,3.86,11.7,0,10.32-7.63,18.06-14.48,24.8-.59-3.97-1.08-7.83-1.08-12,0-3.67,.29-7.05,1.08-10.12m8.73,101.97c-1.98,.4-3.86,.6-5.75,.6-14.18,0-26.29-9.92-26.29-24.91,0-12.09,8.53-22.91,17.27-30.46,1.67-1.49,3.27-2.87,4.76-4.36,.88,5.35,1.58,10.01,2.28,14.09-9.04,2.68-15.17,12.2-15.17,21.53,0,6.94,5.46,16.46,13.39,16.46,.79,0,1.69-.4,1.69-1.29s-.99-1.39-2.19-2.19c-3.88-2.39-6.06-4.96-6.06-9.83,0-6.05,4.57-10.91,10.32-12.29l5.75,32.63m14.09-18.35c0,7.05-2.88,14.29-9.92,17.17-2.08-11.9-4.76-27.68-5.46-32.05,8.93,0,15.38,6.06,15.38,14.88"/><path d="M129.99,35.12c.6-.09,1.1-.79,1.1-1.4v-5.84c0-.99-.7-1.39-1.6-1.39l-3.27,.7V12.4h-2.77v15.38l-8.83,1.8V15.58h-2.77v14.59l-3.88,.79c-.59,.11-1.09,.79-1.09,1.39v5.75c0,1.09,.79,1.4,1.69,1.4l3.27-.7v16.37l-3.88,.79c-.59,.09-1.09,.79-1.09,1.4v5.75c0,1.09,.79,1.38,1.69,1.38l3.27-.68v14.77h2.77v-15.38l8.83-1.78v14h2.77v-14.59l3.77-.7c.6-.11,1.1-.79,1.1-1.39v-5.84c0-.99-.7-1.4-1.6-1.4l-3.27,.7v-16.37l3.77-.7m-15.38,3.07l8.83-1.78v16.37l-8.83,1.89v-16.48"/><path d="M157.16,72.32c.6-.09,1.1-.79,1.1-1.4v-5.84c0-.99-.7-1.39-1.6-1.39l-3.27,.7v-14.79h-2.77v15.38l-8.83,1.8v-14h-2.77v14.59l-3.88,.79c-.59,.11-1.09,.79-1.09,1.39v5.75c0,1.09,.79,1.4,1.69,1.4l3.27-.7v16.37l-3.88,.79c-.59,.09-1.09,.79-1.09,1.4v5.75c0,1.09,.79,1.38,1.69,1.38l3.27-.68v14.77h2.77v-15.38l8.83-1.78v14h2.77v-14.59l3.77-.7c.6-.11,1.1-.79,1.1-1.39v-5.84c0-.99-.7-1.4-1.6-1.4l-3.27,.7v-16.37l3.77-.7m-15.38,3.07l8.83-1.78v16.37l-8.83,1.89v-16.48"/><path d="M184.33,22.72c.6-.09,1.1-.79,1.1-1.4v-5.84c0-.99-.7-1.39-1.6-1.39l-3.27,.7V0h-2.77V15.38l-8.83,1.8V3.18h-2.77v14.59l-3.88,.79c-.59,.11-1.09,.79-1.09,1.39v5.75c0,1.09,.79,1.4,1.69,1.4l3.27-.7v16.37l-3.88,.79c-.59,.09-1.09,.79-1.09,1.4v5.75c0,1.09,.79,1.38,1.69,1.38l3.27-.68v14.77h2.77v-15.38l8.83-1.78v14h2.77v-14.59l3.77-.7c.6-.11,1.1-.79,1.1-1.39v-5.84c0-.99-.7-1.4-1.6-1.4l-3.27,.7V23.42l3.77-.7m-15.38,3.07l8.83-1.78v16.37l-8.83,1.89V25.79"/><path d="M211.52,59.92c.6-.09,1.1-.79,1.1-1.4v-5.84c0-.99-.7-1.39-1.6-1.39l-3.27,.7v-14.79h-2.77v15.38l-8.83,1.8v-14h-2.77v14.59l-3.88,.79c-.59,.11-1.09,.79-1.09,1.39v5.75c0,1.09,.79,1.4,1.69,1.4l3.27-.7v16.37l-3.88,.79c-.59,.09-1.09,.79-1.09,1.4v5.75c0,1.09,.79,1.38,1.69,1.38l3.27-.68v14.77h2.77v-15.38l8.83-1.78v14h2.77v-14.59l3.77-.7c.6-.11,1.1-.79,1.1-1.39v-5.84c0-.99-.7-1.4-1.6-1.4l-3.27,.7v-16.37l3.77-.7m-15.38,3.07l8.83-1.78v16.37l-8.83,1.89v-16.48"/><path d="M238.69,97.12c.6-.09,1.1-.79,1.1-1.4v-5.84c0-.99-.7-1.39-1.6-1.39l-3.27,.7v-14.79h-2.77v15.38l-8.83,1.8v-14h-2.77v14.59l-3.88,.79c-.59,.11-1.09,.79-1.09,1.39v5.75c0,1.09,.79,1.4,1.69,1.4l3.27-.7v16.37l-3.88,.79c-.59,.09-1.09,.79-1.09,1.4v5.75c0,1.09,.79,1.38,1.69,1.38l3.27-.68v14.77h2.77v-15.38l8.83-1.78v14h2.77v-14.59l3.77-.7c.6-.11,1.1-.79,1.1-1.39v-5.84c0-.99-.7-1.4-1.6-1.4l-3.27,.7v-16.37l3.77-.7m-15.38,3.07l8.83-1.78v16.37l-8.83,1.89v-16.48"/><path d="M283.84,82.94v7.33h-8.23c-.7,0-1.39,.6-1.39,1.39v1.89c0,.79,.7,1.38,1.39,1.38h30.05c.81,0,1.39-.59,1.39-1.38v-1.89c0-.79-.59-1.39-1.39-1.39h-8.82v-7.33h8.82c.81,0,1.39-.7,1.39-1.49v-1.89c0-.7-.59-1.38-1.39-1.38h-8.82v-15.78c0-.59-.29-1.09-.79-1.29l-1.19-.6c-.2-.09-.5-.19-.7-.19-.29,.09-.7,.19-.9,.39l-9.02,8.23c-.29,.31-.4,.7-.4,1.1v8.14h-11.41s11.02-11.9,22.72-27.59c.4-.5,.5-.99,.5-1.38,0-.5-.2-.9-.29-.99l-2.19-2.19c-.2-.2-.59-.4-.99-.4h-14.68c-.81,0-1.3,.6-1.4,1.19,0,0-.5,7.35-3.07,15.38-2.59,8.04-5.56,13-8.14,16.66,0,0-.29,.5-.29,1.1,0,.2,0,.39,.09,.59,.4,.7,.99,1.78,.99,1.78,0,0,.2,.6,1.09,.6h17.07"/><path d="M283.84,132.54v7.33h-8.23c-.7,0-1.39,.6-1.39,1.39v1.89c0,.79,.7,1.38,1.39,1.38h30.05c.81,0,1.39-.59,1.39-1.38v-1.89c0-.79-.59-1.39-1.39-1.39h-8.82v-7.33h8.82c.81,0,1.39-.7,1.39-1.49v-1.89c0-.7-.59-1.38-1.39-1.38h-8.82v-15.78c0-.59-.29-1.09-.79-1.29l-1.19-.6c-.2-.09-.5-.19-.7-.19-.29,.09-.7,.19-.9,.39l-9.02,8.23c-.29,.31-.4,.7-.4,1.1v8.14h-11.41s11.02-11.9,22.72-27.59c.4-.5,.5-.99,.5-1.38,0-.5-.2-.9-.29-.99l-2.19-2.19c-.2-.2-.59-.4-.99-.4h-14.68c-.81,0-1.3,.6-1.4,1.19,0,0-.5,7.35-3.07,15.38-2.59,8.04-5.56,13-8.14,16.66,0,0-.29,.5-.29,1.1,0,.2,0,.39,.09,.59,.4,.7,.99,1.78,.99,1.78,0,0,.2,.6,1.09,.6h17.07"/><path d="M1471.55,111.6c-.09-.09-.29-.29-.59-.68l-11.41-14.09c-.11-.11-.2-.4-.2-.6,0-.29,.09-.68,.2-.88l10.11-15.28c.11-.2,.2-.5,.2-.7v-.88c0-.29-.09-.6-.29-.79l-16.07-21.73s-.39-.6-.99-.6c-.29,0-.5,0-.79,.31-.4,.29-.5,.68-.5,.99,0,.59,.29,1.09,.29,1.09l7.55,10.32c.19,.29,.29,.68,.29,1.18,0,.4-.11,.9-.29,1.19l-10.03,15.28c-.09,.2-.2,.59-.2,.79v.9c0,.29,.11,.59,.31,.79l11.1,13.8c-.39-.11-1.29-.31-2.48-.31-5.05,0-9.02,4.17-9.02,9.24,0,1.38,.29,2.77,1.09,3.86,2.09,3.18,9.53,12.6,9.53,12.6,0,0,.5,.6,1.19,.6,.19,0,.39,0,.59-.2,.5-.4,.7-.79,.7-1.19s-.2-.7-.29-.9c-.31-.5-3.47-6.25-3.47-6.25,0,0-.7-1.39-.7-3.18,0-3.18,2.37-5.75,5.55-5.75,1.29,0,2.39,.4,3.18,.9l3.88,2.48s.39,.19,.79,.19,.7-.09,.99-.5c.2-.29,.29-.59,.29-.88s-.09-.5-.29-.79l-.2-.31"/><path d="M1539.74,94.15q0,1.4,1.4,1.4h29.47q1.38,0,1.38-1.4v-10.71q0-1.39-1.38-1.39h-29.47q-1.4,0-1.4,1.39v10.71"/><path d="M1099.3,57.93l184.51,12.4v12.43l-184.51-12.4v-12.43" fill-rule="evenodd"/><path d="M598.77,45.53l184.51-12.4v12.43l-184.51,12.4v-12.43" fill-rule="evenodd"/><path d="M977.95,33.11l63.16,6.2v12.46l-63.16-6.2v-12.46" fill-rule="evenodd"/><path d="M477.42,88.91l63.16-6.2v12.46l-63.16,6.2v-12.46" fill-rule="evenodd"/></g></svg>