<?xml version="1.0" encoding="UTF-8"?><svg id="b" xmlns="http://www.w3.org/2000/svg" viewBox="0 0 2552 603.09"><g id="c"><line y1="45.54" x2="2552" y2="45.54" fill="none" stroke="#000" stroke-linejoin="bevel" stroke-width="2.73"/><line y1="70.34" x2="2552" y2="70.34" fill="none" stroke="#000" stroke-linejoin="bevel" stroke-width="2.73"/><line y1="95.14" x2="2552" y2="95.14" fill="none" stroke="#000" stroke-linejoin="bevel" stroke-width="2.73"/><line y1="119.94" x2="2552" y2="119.94" fill="none" stroke="#000" stroke-linejoin="bevel" stroke-width="2.73"/><line y1="144.74" x2="2552" y2="144.74" fill="none" stroke="#000" stroke-linejoin="bevel" stroke-width="2.73"/><line y1="416.3" x2="2552" y2="416.3" fill="none" stroke="#000" stroke-linejoin="bevel" stroke-width="2.73"/><line y1="441.1" x2="2552" y2="441.1" fill="none" stroke="#000" stroke-linejoin="bevel" stroke-width="2.73"/><line y1="465.9" x2="2552" y2="465.9" fill="none" stroke="#000" stroke-linejoin="bevel" stroke-width="2.73"/><line y1="490.7" x2="2552" y2="490.7" fill="none" stroke="#000" stroke-linejoin="bevel" stroke-width="2.73"/><line y1="515.5" x2="2552" y2="515.5" fill="none" stroke="#000" stroke-linejoin="bevel" stroke-width="2.73"/><line x1="2049.77" y1="414.93" x2="2049.77" y2="516.86" fill="none" stroke="#000" stroke-linejoin="bevel" stroke-width="4.46"/><line x1="2536.13" y1="414.93" x2="2536.13" y2="516.86" fill="none" stroke="#000" stroke-linejoin="bevel" stroke-width="4.46"/><line x1="2549.77" y1="414.93" x2="2549.77" y2="516.86" fill="none" stroke="#000" stroke-linejoin="bevel" stroke-width="4.46"/><line x1="828.84" y1="44.18" x2="828.84" y2="146.1" fill="none" stroke="#000" stroke-linejoin="bevel" stroke-width="4.46"/><line x1="1444.71" y1="44.18" x2="1444.71" y2="146.1" fill="none" stroke="#000" stroke-linejoin="bevel" stroke-width="4.46"/><line x1="2060.59" y1="44.18" x2="2060.59" y2="146.1" fill="none" stroke="#000" stroke-linejoin="bevel" stroke-width="4.46"/><line x1="2549.77" y1="44.18" x2="2549.77" y2="146.1" fill="none" stroke="#000" stroke-linejoin="bevel" stroke-width="4.46"/><line x1="825.24" y1="414.93" x2="825.24" y2="516.86" fill="none" stroke="#000" stroke-linejoin="bevel" stroke-width="4.46"/><line x1="1437.5" y1="414.93" x2="1437.5" y2="516.86" fill="none" stroke="#000" stroke-linejoin="bevel" stroke-width="4.46"/><line x1="384.05" y1="169.54" x2="432.65" y2="169.54" fill="none" stroke="#000" stroke-linejoin="bevel" stroke-width="3.97"/><line x1="311.66" y1="169.54" x2="360.26" y2="169.54" fill="none" stroke="#000" stroke-linejoin="bevel" stroke-width="3.97"/><line x1="239.26" y1="169.54" x2="287.86" y2="169.54" fill="none" stroke="#000" stroke-linejoin="bevel" stroke-width="3.97"/><line x1="239.26" y1="194.34" x2="287.86" y2="194.34" fill="none" stroke="#000" stroke-linejoin="bevel" stroke-width="3.97"/><line x1="528.84" y1="169.54" x2="577.45" y2="169.54" fill="none" stroke="#000" stroke-linejoin="bevel" stroke-width="3.97"/><line x1="601.24" y1="169.54" x2="649.84" y2="169.54" fill="none" stroke="#000" stroke-linejoin="bevel" stroke-width="3.97"/><line x1="855.13" y1="169.54" x2="903.73" y2="169.54" fill="none" stroke="#000" stroke-linejoin="bevel" stroke-width="3.97"/><line x1="1823.52" y1="540.3" x2="1872.12" y2="540.3" fill="none" stroke="#000" stroke-linejoin="bevel" stroke-width="3.97"/><line x1="1067.36" y1="540.3" x2="1115.96" y2="540.3" fill="none" stroke="#000" stroke-linejoin="bevel" stroke-width="3.97"/><line x1="1283.2" y1="540.3" x2="1331.8" y2="540.3" fill="none" stroke="#000" stroke-linejoin="bevel" stroke-width="3.97"/><line x1="1355.14" y1="540.3" x2="1403.74" y2="540.3" fill="none" stroke="#000" stroke-linejoin="bevel" stroke-width="3.97"/><line x1="1535.74" y1="540.3" x2="1584.34" y2="540.3" fill="none" stroke="#000" stroke-linejoin="bevel" stroke-width="3.97"/><line x1="1607.68" y1="540.3" x2="1656.28" y2="540.3" fill="none" stroke="#000" stroke-linejoin="bevel" stroke-width="3.97"/><line x1="1679.63" y1="565.1" x2="1728.23" y2="565.1" fill="none" stroke="#000" stroke-linejoin="bevel" stroke-width="3.97"/><line x1="1679.63" y1="540.3" x2="1728.23" y2="540.3" fill="none" stroke="#000" stroke-linejoin="bevel" stroke-width="3.97"/><line x1="1751.57" y1="540.3" x2="1800.17" y2="540.3" fill="none" stroke="#000" stroke-linejoin="bevel" stroke-width="3.97"/><line x1="1895.46" y1="565.1" x2="1944.06" y2="565.1" fill="none" stroke="#000" stroke-linejoin="bevel" stroke-width="3.97"/><line x1="1895.46" y1="540.3" x2="1944.06" y2="540.3" fill="none" stroke="#000" stroke-linejoin="bevel" stroke-width="3.97"/><line x1="1967.41" y1="565.1" x2="2016.01" y2="565.1" fill="none" stroke="#000" stroke-linejoin="bevel" stroke-width="3.97"/><line x1="1967.41" y1="540.3" x2="2016.01" y2="540.3" fill="none" stroke="#000" stroke-linejoin="bevel" stroke-width="3.97"/><line x1="2076.06" y1="540.3" x2="2124.66" y2="540.3" fill="none" stroke="#000" stroke-linejoin="bevel" stroke-width="3.97"/><line x1="2148" y1="565.1" x2="2196.6" y2="565.1" fill="none" stroke="#000" stroke-linejoin="bevel" stroke-width="3.97"/><line x1="2148" y1="540.3" x2="2196.6" y2="540.3" fill="none" stroke="#000" stroke-linejoin="bevel" stroke-width="3.97"/><line x1="2219.95" y1="565.1" x2="2268.55" y2="565.1" fill="none" stroke="#000" stroke-linejoin="bevel" stroke-width="3.97"/><line x1="2219.95" y1="540.3" x2="2268.55" y2="540.3" fill="none" stroke="#000" stroke-linejoin="bevel" stroke-width="3.97"/><line x1="2291.89" y1="589.9" x2="2340.49" y2="589.9" fill="none" stroke="#000" stroke-linejoin="bevel" stroke-width="3.97"/><line x1="2291.89" y1="565.1" x2="2340.49" y2="565.1" fill="none" stroke="#000" stroke-linejoin="bevel" stroke-width="3.97"/><line x1="2291.89" y1="540.3" x2="2340.49" y2="540.3" fill="none" stroke="#000" stroke-linejoin="bevel" stroke-width="3.97"/><line x1="2363.84" y1="565.1" x2="2412.44" y2="565.1" fill="none" stroke="#000" stroke-linejoin="bevel" stroke-width="3.97"/><line x1="2363.84" y1="540.3" x2="2412.44" y2="540.3" fill="none" stroke="#000" stroke-linejoin="bevel" stroke-width="3.97"/><line x1="568.02" y1="177.97" x2="568.02" y2="76.5" fill="none" stroke="#000" stroke-linejoin="bevel" stroke-width="2.48"/><line x1="423.23" y1="165.57" x2="423.23" y2="93.1" fill="none" stroke="#000" stroke-linejoin="bevel" stroke-width="2.48"/><line x1="640.42" y1="165.57" x2="640.42" y2="74.46" fill="none" stroke="#000" stroke-linejoin="bevel" stroke-width="2.48"/><line x1="350.83" y1="177.97" x2="350.83" y2="97.18" fill="none" stroke="#000" stroke-linejoin="bevel" stroke-width="2.48"/><line x1="712.81" y1="153.17" x2="712.81" y2="72.42" fill="none" stroke="#000" stroke-linejoin="bevel" stroke-width="2.48"/><line x1="785.21" y1="140.77" x2="785.21" y2="70.37" fill="none" stroke="#000" stroke-linejoin="bevel" stroke-width="2.48"/><line x1="894.31" y1="165.57" x2="894.31" y2="76.47" fill="none" stroke="#000" stroke-linejoin="bevel" stroke-width="2.48"/><line x1="966.71" y1="153.17" x2="966.71" y2="72.38" fill="none" stroke="#000" stroke-linejoin="bevel" stroke-width="2.48"/><line x1="1039.1" y1="140.77" x2="1039.1" y2="68.3" fill="none" stroke="#000" stroke-linejoin="bevel" stroke-width="2.48"/><line x1="1111.5" y1="128.37" x2="1111.5" y2="64.21" fill="none" stroke="#000" stroke-linejoin="bevel" stroke-width="2.48"/><line x1="1183.89" y1="153.17" x2="1183.89" y2="51.7" fill="none" stroke="#000" stroke-linejoin="bevel" stroke-width="2.48"/><line x1="1256.29" y1="140.77" x2="1256.29" y2="49.66" fill="none" stroke="#000" stroke-linejoin="bevel" stroke-width="2.48"/><line x1="1328.68" y1="128.37" x2="1328.68" y2="47.62" fill="none" stroke="#000" stroke-linejoin="bevel" stroke-width="2.48"/><line x1="1401.08" y1="115.97" x2="1401.08" y2="45.57" fill="none" stroke="#000" stroke-linejoin="bevel" stroke-width="2.48"/><line x1="1510.18" y1="140.77" x2="1510.18" y2="51.67" fill="none" stroke="#000" stroke-linejoin="bevel" stroke-width="2.48"/><line x1="1582.58" y1="128.37" x2="1582.58" y2="47.58" fill="none" stroke="#000" stroke-linejoin="bevel" stroke-width="2.48"/><line x1="1654.97" y1="115.97" x2="1654.97" y2="43.5" fill="none" stroke="#000" stroke-linejoin="bevel" stroke-width="2.48"/><line x1="1727.37" y1="103.57" x2="1727.37" y2="39.41" fill="none" stroke="#000" stroke-linejoin="bevel" stroke-width="2.48"/><line x1="1394.32" y1="548.73" x2="1394.32" y2="447.26" fill="none" stroke="#000" stroke-linejoin="bevel" stroke-width="2.48"/><line x1="1799.77" y1="128.37" x2="1799.77" y2="45.43" fill="none" stroke="#000" stroke-linejoin="bevel" stroke-width="2.48"/><line x1="1872.16" y1="115.97" x2="1872.16" y2="39.3" fill="none" stroke="#000" stroke-linejoin="bevel" stroke-width="2.48"/><line x1="1944.56" y1="103.57" x2="1944.56" y2="33.17" fill="none" stroke="#000" stroke-linejoin="bevel" stroke-width="2.48"/><line x1="2016.95" y1="91.17" x2="2016.95" y2="27.04" fill="none" stroke="#000" stroke-linejoin="bevel" stroke-width="2.48"/><line x1="2126.06" y1="115.97" x2="2126.06" y2="26.87" fill="none" stroke="#000" stroke-linejoin="bevel" stroke-width="2.48"/><line x1="2198.45" y1="103.57" x2="2198.45" y2="22.78" fill="none" stroke="#000" stroke-linejoin="bevel" stroke-width="2.48"/><line x1="2270.85" y1="91.17" x2="2270.85" y2="18.7" fill="none" stroke="#000" stroke-linejoin="bevel" stroke-width="2.48"/><line x1="2343.24" y1="78.77" x2="2343.24" y2="14.61" fill="none" stroke="#000" stroke-linejoin="bevel" stroke-width="2.48"/><line x1="2415.64" y1="103.57" x2="2415.64" y2="26.94" fill="none" stroke="#000" stroke-linejoin="bevel" stroke-width="2.48"/><line x1="278.44" y1="474.33" x2="278.44" y2="410.17" fill="none" stroke="#000" stroke-linejoin="bevel" stroke-width="2.48"/><line x1="350.38" y1="486.73" x2="350.38" y2="414.25" fill="none" stroke="#000" stroke-linejoin="bevel" stroke-width="2.48"/><line x1="422.33" y1="499.13" x2="422.33" y2="418.34" fill="none" stroke="#000" stroke-linejoin="bevel" stroke-width="2.48"/><line x1="494.27" y1="511.53" x2="494.27" y2="422.43" fill="none" stroke="#000" stroke-linejoin="bevel" stroke-width="2.48"/><line x1="566.22" y1="486.73" x2="566.22" y2="416.33" fill="none" stroke="#000" stroke-linejoin="bevel" stroke-width="2.48"/><line x1="638.16" y1="499.13" x2="638.16" y2="418.37" fill="none" stroke="#000" stroke-linejoin="bevel" stroke-width="2.48"/><line x1="782.05" y1="523.93" x2="782.05" y2="422.46" fill="none" stroke="#000" stroke-linejoin="bevel" stroke-width="2.48"/><line x1="890.7" y1="499.13" x2="890.7" y2="434.97" fill="none" stroke="#000" stroke-linejoin="bevel" stroke-width="2.48"/><line x1="962.65" y1="511.53" x2="962.65" y2="439.05" fill="none" stroke="#000" stroke-linejoin="bevel" stroke-width="2.48"/><line x1="1034.59" y1="523.93" x2="1034.59" y2="443.14" fill="none" stroke="#000" stroke-linejoin="bevel" stroke-width="2.48"/><line x1="1106.54" y1="536.33" x2="1106.54" y2="447.23" fill="none" stroke="#000" stroke-linejoin="bevel" stroke-width="2.48"/><line x1="1178.48" y1="511.53" x2="1178.48" y2="441.13" fill="none" stroke="#000" stroke-linejoin="bevel" stroke-width="2.48"/><line x1="1250.43" y1="523.93" x2="1250.43" y2="443.17" fill="none" stroke="#000" stroke-linejoin="bevel" stroke-width="2.48"/><line x1="1322.37" y1="536.33" x2="1322.37" y2="445.22" fill="none" stroke="#000" stroke-linejoin="bevel" stroke-width="2.48"/><line x1="1502.97" y1="523.93" x2="1502.97" y2="459.77" fill="none" stroke="#000" stroke-linejoin="bevel" stroke-width="2.48"/><line x1="1574.91" y1="536.33" x2="1574.91" y2="463.85" fill="none" stroke="#000" stroke-linejoin="bevel" stroke-width="2.48"/><line x1="1718.8" y1="561.13" x2="1718.8" y2="472.03" fill="none" stroke="#000" stroke-linejoin="bevel" stroke-width="2.48"/><line x1="278.44" y1="190.37" x2="278.44" y2="101.27" fill="none" stroke="#000" stroke-linejoin="bevel" stroke-width="2.48"/><line x1="1790.75" y1="536.33" x2="1790.75" y2="459.77" fill="none" stroke="#000" stroke-linejoin="bevel" stroke-width="2.48"/><line x1="1862.69" y1="548.73" x2="1862.69" y2="463.85" fill="none" stroke="#000" stroke-linejoin="bevel" stroke-width="2.48"/><line x1="710.11" y1="511.53" x2="710.11" y2="420.42" fill="none" stroke="#000" stroke-linejoin="bevel" stroke-width="2.48"/><line x1="1934.64" y1="561.13" x2="1934.64" y2="467.94" fill="none" stroke="#000" stroke-linejoin="bevel" stroke-width="2.48"/><line x1="2006.58" y1="573.53" x2="2006.58" y2="472.03" fill="none" stroke="#000" stroke-linejoin="bevel" stroke-width="2.48"/><line x1="2115.24" y1="548.73" x2="2115.24" y2="459.77" fill="none" stroke="#000" stroke-linejoin="bevel" stroke-width="2.48"/><line x1="2187.18" y1="561.13" x2="2187.18" y2="463.85" fill="none" stroke="#000" stroke-linejoin="bevel" stroke-width="2.48"/><line x1="2259.12" y1="573.53" x2="2259.12" y2="467.94" fill="none" stroke="#000" stroke-linejoin="bevel" stroke-width="2.48"/><line x1="2331.07" y1="585.93" x2="2331.07" y2="472.03" fill="none" stroke="#000" stroke-linejoin="bevel" stroke-width="2.48"/><line x1="495.63" y1="153.17" x2="495.63" y2="89.01" fill="none" stroke="#000" stroke-linejoin="bevel" stroke-width="2.48"/><line x1="2403.01" y1="561.13" x2="2403.01" y2="465.9" fill="none" stroke="#000" stroke-linejoin="bevel" stroke-width="2.48"/><line x1="1646.86" y1="548.73" x2="1646.86" y2="467.94" fill="none" stroke="#000" stroke-linejoin="bevel" stroke-width="2.48"/><path d="M247.45,198.51c0,4.26,3.07,9.02,11.11,9.02,10.31,0,21.13-8.43,21.13-17.16,0-5.86-4.96-9.13-11.11-9.13-9.63,0-21.13,8.14-21.13,17.27"/><path d="M319.84,186.11c0,4.26,3.07,9.02,11.11,9.02,10.31,0,21.13-8.43,21.13-17.16,0-5.86-4.96-9.13-11.11-9.13-9.63,0-21.13,8.14-21.13,17.27"/><path d="M392.24,173.71c0,4.26,3.07,9.02,11.11,9.02,10.31,0,21.13-8.43,21.13-17.16,0-5.86-4.96-9.13-11.11-9.13-9.63,0-21.13,8.14-21.13,17.27"/><path d="M464.63,161.31c0,4.26,3.07,9.02,11.11,9.02,10.31,0,21.13-8.43,21.13-17.16,0-5.86-4.96-9.13-11.11-9.13-9.63,0-21.13,8.14-21.13,17.27"/><path d="M537.03,186.11c0,4.26,3.07,9.02,11.11,9.02,10.31,0,21.13-8.43,21.13-17.16,0-5.86-4.96-9.13-11.11-9.13-9.63,0-21.13,8.14-21.13,17.27"/><path d="M609.42,173.71c0,4.26,3.07,9.02,11.11,9.02,10.31,0,21.13-8.43,21.13-17.16,0-5.86-4.96-9.13-11.11-9.13-9.63,0-21.13,8.14-21.13,17.27"/><path d="M681.82,161.31c0,4.26,3.07,9.02,11.11,9.02,10.31,0,21.13-8.43,21.13-17.16,0-5.86-4.96-9.13-11.11-9.13-9.63,0-21.13,8.14-21.13,17.27"/><path d="M754.21,148.91c0,4.26,3.07,9.02,11.11,9.02,10.31,0,21.13-8.43,21.13-17.16,0-5.86-4.96-9.13-11.11-9.13-9.63,0-21.13,8.14-21.13,17.27"/><path d="M863.32,173.71c0,4.26,3.07,9.02,11.11,9.02,10.31,0,21.13-8.43,21.13-17.16,0-5.86-4.96-9.13-11.11-9.13-9.63,0-21.13,8.14-21.13,17.27"/><path d="M935.71,161.31c0,4.26,3.07,9.02,11.11,9.02,10.31,0,21.13-8.43,21.13-17.16,0-5.86-4.96-9.13-11.11-9.13-9.63,0-21.13,8.14-21.13,17.27"/><path d="M1008.11,148.91c0,4.26,3.07,9.02,11.11,9.02,10.31,0,21.13-8.43,21.13-17.16,0-5.86-4.96-9.13-11.11-9.13-9.63,0-21.13,8.14-21.13,17.27"/><path d="M1080.5,136.51c0,4.26,3.07,9.02,11.11,9.02,10.31,0,21.13-8.43,21.13-17.16,0-5.86-4.96-9.13-11.11-9.13-9.63,0-21.13,8.14-21.13,17.27"/><path d="M1152.9,161.31c0,4.26,3.07,9.02,11.11,9.02,10.31,0,21.13-8.43,21.13-17.16,0-5.86-4.96-9.13-11.11-9.13-9.63,0-21.13,8.14-21.13,17.27"/><path d="M1225.3,148.91c0,4.26,3.07,9.02,11.11,9.02,10.31,0,21.13-8.43,21.13-17.16,0-5.86-4.96-9.13-11.11-9.13-9.63,0-21.13,8.14-21.13,17.27"/><path d="M1297.69,136.51c0,4.26,3.07,9.02,11.11,9.02,10.31,0,21.13-8.43,21.13-17.16,0-5.86-4.96-9.13-11.11-9.13-9.63,0-21.13,8.14-21.13,17.27"/><path d="M1370.09,124.11c0,4.26,3.07,9.02,11.11,9.02,10.31,0,21.13-8.43,21.13-17.16,0-5.86-4.96-9.13-11.11-9.13-9.63,0-21.13,8.14-21.13,17.27"/><path d="M1479.19,148.91c0,4.26,3.07,9.02,11.11,9.02,10.31,0,21.13-8.43,21.13-17.16,0-5.86-4.96-9.13-11.11-9.13-9.63,0-21.13,8.14-21.13,17.27"/><path d="M1551.59,136.51c0,4.26,3.07,9.02,11.11,9.02,10.31,0,21.13-8.43,21.13-17.16,0-5.86-4.96-9.13-11.11-9.13-9.63,0-21.13,8.14-21.13,17.27"/><path d="M1623.98,124.11c0,4.26,3.07,9.02,11.11,9.02,10.31,0,21.13-8.43,21.13-17.16,0-5.86-4.96-9.13-11.11-9.13-9.63,0-21.13,8.14-21.13,17.27"/><path d="M1768.77,136.51c0,4.26,3.07,9.02,11.11,9.02,10.31,0,21.13-8.43,21.13-17.16,0-5.86-4.96-9.13-11.11-9.13-9.63,0-21.13,8.14-21.13,17.27"/><path d="M1841.17,124.11c0,4.26,3.07,9.02,11.11,9.02,10.31,0,21.13-8.43,21.13-17.16,0-5.86-4.96-9.13-11.11-9.13-9.63,0-21.13,8.14-21.13,17.27"/><path d="M1913.57,111.71c0,4.26,3.07,9.02,11.11,9.02,10.31,0,21.13-8.43,21.13-17.16,0-5.86-4.96-9.13-11.11-9.13-9.63,0-21.13,8.14-21.13,17.27"/><path d="M1985.96,99.31c0,4.26,3.07,9.02,11.11,9.02,10.31,0,21.13-8.43,21.13-17.16,0-5.86-4.96-9.13-11.11-9.13-9.63,0-21.13,8.14-21.13,17.27"/><path d="M2095.06,124.11c0,4.26,3.07,9.02,11.11,9.02,10.31,0,21.13-8.43,21.13-17.16,0-5.86-4.96-9.13-11.11-9.13-9.63,0-21.13,8.14-21.13,17.27"/><path d="M2167.46,111.71c0,4.26,3.07,9.02,11.11,9.02,10.31,0,21.13-8.43,21.13-17.16,0-5.86-4.96-9.13-11.11-9.13-9.63,0-21.13,8.14-21.13,17.27"/><path d="M2239.86,99.31c0,4.26,3.07,9.02,11.11,9.02,10.31,0,21.13-8.43,21.13-17.16,0-5.86-4.96-9.13-11.11-9.13-9.63,0-21.13,8.14-21.13,17.27"/><path d="M2312.25,86.91c0,4.26,3.07,9.02,11.11,9.02,10.31,0,21.13-8.43,21.13-17.16,0-5.86-4.96-9.13-11.11-9.13-9.63,0-21.13,8.14-21.13,17.27"/><path d="M2405.78,94.44c-9.63,0-21.13,8.04-21.13,17.27,0,4.26,3.07,9.02,11.11,9.02,10.31,0,21.13-8.43,21.13-17.16,0-5.86-4.96-9.13-11.11-9.13m-13.69,21.62c-3.27,0-3.97-2.67-3.97-3.56,0-4.87,16.66-13.39,21.33-13.39,2.39,0,3.97,1.39,3.97,3.56,0,4.96-16.77,13.39-21.33,13.39"/><path d="M247.45,482.47c0,4.26,3.07,9.02,11.11,9.02,10.31,0,21.13-8.43,21.13-17.16,0-5.86-4.96-9.13-11.11-9.13-9.63,0-21.13,8.14-21.13,17.27"/><path d="M319.39,494.87c0,4.26,3.07,9.02,11.11,9.02,10.31,0,21.13-8.43,21.13-17.16,0-5.86-4.96-9.13-11.11-9.13-9.63,0-21.13,8.14-21.13,17.27"/><path d="M391.34,507.27c0,4.26,3.07,9.02,11.11,9.02,10.31,0,21.13-8.43,21.13-17.16,0-5.86-4.96-9.13-11.11-9.13-9.63,0-21.13,8.14-21.13,17.27"/><path d="M463.28,519.67c0,4.26,3.07,9.02,11.11,9.02,10.31,0,21.13-8.43,21.13-17.16,0-5.86-4.96-9.13-11.11-9.13-9.63,0-21.13,8.14-21.13,17.27"/><path d="M535.23,494.87c0,4.26,3.07,9.02,11.11,9.02,10.31,0,21.13-8.43,21.13-17.16,0-5.86-4.96-9.13-11.11-9.13-9.63,0-21.13,8.14-21.13,17.27"/><path d="M607.17,507.27c0,4.26,3.07,9.02,11.11,9.02,10.31,0,21.13-8.43,21.13-17.16,0-5.86-4.96-9.13-11.11-9.13-9.63,0-21.13,8.14-21.13,17.27"/><path d="M679.12,519.67c0,4.26,3.07,9.02,11.11,9.02,10.31,0,21.13-8.43,21.13-17.16,0-5.86-4.96-9.13-11.11-9.13-9.63,0-21.13,8.14-21.13,17.27"/><path d="M751.06,532.07c0,4.26,3.07,9.02,11.11,9.02,10.31,0,21.13-8.43,21.13-17.16,0-5.86-4.96-9.13-11.11-9.13-9.63,0-21.13,8.14-21.13,17.27"/><path d="M859.71,507.27c0,4.26,3.07,9.02,11.11,9.02,10.31,0,21.13-8.43,21.13-17.16,0-5.86-4.96-9.13-11.11-9.13-9.63,0-21.13,8.14-21.13,17.27"/><path d="M931.66,519.67c0,4.26,3.07,9.02,11.11,9.02,10.31,0,21.13-8.43,21.13-17.16,0-5.86-4.96-9.13-11.11-9.13-9.63,0-21.13,8.14-21.13,17.27"/><path d="M1003.6,532.07c0,4.26,3.07,9.02,11.11,9.02,10.31,0,21.13-8.43,21.13-17.16,0-5.86-4.96-9.13-11.11-9.13-9.63,0-21.13,8.14-21.13,17.27"/><path d="M1075.55,544.47c0,4.26,3.07,9.02,11.11,9.02,10.31,0,21.13-8.43,21.13-17.16,0-5.86-4.96-9.13-11.11-9.13-9.63,0-21.13,8.14-21.13,17.27"/><path d="M1147.49,519.67c0,4.26,3.07,9.02,11.11,9.02,10.31,0,21.13-8.43,21.13-17.16,0-5.86-4.96-9.13-11.11-9.13-9.63,0-21.13,8.14-21.13,17.27"/><path d="M1219.44,532.07c0,4.26,3.07,9.02,11.11,9.02,10.31,0,21.13-8.43,21.13-17.16,0-5.86-4.96-9.13-11.11-9.13-9.63,0-21.13,8.14-21.13,17.27"/><path d="M1291.38,544.47c0,4.26,3.07,9.02,11.11,9.02,10.31,0,21.13-8.43,21.13-17.16,0-5.86-4.96-9.13-11.11-9.13-9.63,0-21.13,8.14-21.13,17.27"/><path d="M1696.38,111.71c0,4.26,3.07,9.02,11.11,9.02,10.31,0,21.13-8.43,21.13-17.16,0-5.86-4.96-9.13-11.11-9.13-9.63,0-21.13,8.14-21.13,17.27"/><path d="M1363.32,556.87c0,4.26,3.07,9.02,11.11,9.02,10.31,0,21.13-8.43,21.13-17.16,0-5.86-4.96-9.13-11.11-9.13-9.63,0-21.13,8.14-21.13,17.27"/><path d="M1471.98,532.07c0,4.26,3.07,9.02,11.11,9.02,10.31,0,21.13-8.43,21.13-17.16,0-5.86-4.96-9.13-11.11-9.13-9.63,0-21.13,8.14-21.13,17.27"/><path d="M1543.92,544.47c0,4.26,3.07,9.02,11.11,9.02,10.31,0,21.13-8.43,21.13-17.16,0-5.86-4.96-9.13-11.11-9.13-9.63,0-21.13,8.14-21.13,17.27"/><path d="M1615.87,556.87c0,4.26,3.07,9.02,11.11,9.02,10.31,0,21.13-8.43,21.13-17.16,0-5.86-4.96-9.13-11.11-9.13-9.63,0-21.13,8.14-21.13,17.27"/><path d="M1687.81,569.27c0,4.26,3.07,9.02,11.11,9.02,10.31,0,21.13-8.43,21.13-17.16,0-5.86-4.96-9.13-11.11-9.13-9.63,0-21.13,8.14-21.13,17.27"/><path d="M1759.76,544.47c0,4.26,3.07,9.02,11.11,9.02,10.31,0,21.13-8.43,21.13-17.16,0-5.86-4.96-9.13-11.11-9.13-9.63,0-21.13,8.14-21.13,17.27"/><path d="M1831.7,556.87c0,4.26,3.07,9.02,11.11,9.02,10.31,0,21.13-8.43,21.13-17.16,0-5.86-4.96-9.13-11.11-9.13-9.63,0-21.13,8.14-21.13,17.27"/><path d="M1903.65,569.27c0,4.26,3.07,9.02,11.11,9.02,10.31,0,21.13-8.43,21.13-17.16,0-5.86-4.96-9.13-11.11-9.13-9.63,0-21.13,8.14-21.13,17.27"/><path d="M1975.59,581.67c0,4.26,3.07,9.02,11.11,9.02,10.31,0,21.13-8.43,21.13-17.16,0-5.86-4.96-9.13-11.11-9.13-9.63,0-21.13,8.14-21.13,17.27"/><path d="M2084.24,556.87c0,4.26,3.07,9.02,11.11,9.02,10.31,0,21.13-8.43,21.13-17.16,0-5.86-4.96-9.13-11.11-9.13-9.63,0-21.13,8.14-21.13,17.27"/><path d="M2156.19,569.27c0,4.26,3.07,9.02,11.11,9.02,10.31,0,21.13-8.43,21.13-17.16,0-5.86-4.96-9.13-11.11-9.13-9.63,0-21.13,8.14-21.13,17.27"/><path d="M2228.13,581.67c0,4.26,3.07,9.02,11.11,9.02,10.31,0,21.13-8.43,21.13-17.16,0-5.86-4.96-9.13-11.11-9.13-9.63,0-21.13,8.14-21.13,17.27"/><path d="M2300.08,594.07c0,4.26,3.07,9.02,11.11,9.02,10.31,0,21.13-8.43,21.13-17.16,0-5.86-4.96-9.13-11.11-9.13-9.63,0-21.13,8.14-21.13,17.27"/><path d="M2393.15,552c-9.63,0-21.13,8.04-21.13,17.27,0,4.26,3.07,9.02,11.11,9.02,10.31,0,21.13-8.43,21.13-17.16,0-5.86-4.96-9.13-11.11-9.13m-13.69,21.62c-3.27,0-3.97-2.67-3.97-3.56,0-4.87,16.66-13.39,21.33-13.39,2.39,0,3.97,1.39,3.97,3.56,0,4.96-16.77,13.39-21.33,13.39"/><path d="M30.8,170.83c0,6.56,4.96,15.19,18.35,15.19,4.67,0,8.74-1.19,12.31-3.38,5.36-3.77,6.74-10.32,6.74-16.57,0-3.86-.59-8.32-1.58-13.98-.29-1.98-.9-4.96-1.49-8.84,9.72-3.18,16.96-13.3,16.96-23.51,0-14.97-10.62-25.09-25.09-25.09-.99-5.95-1.98-11.81-2.77-17.36,10.42-11.02,17.65-23.42,17.65-39.18,0-9.04-2.77-16.37-4.37-19.95-2.37-5.05-5.25-8.53-7.04-8.53-.7,0-3.77,1.19-7.04,5.05-6.36,7.55-8.14,20.24-8.14,28.57,0,5.36,.5,10.23,2.19,21.34-.11,.09-5.27,5.35-7.35,7.04-9.04,8.34-21.53,20.43-21.53,40.28,0,18.54,16.17,33.12,34.63,33.12,2.87,0,5.55-.29,7.83-.7,1.89,9.53,3.08,16.48,3.08,21.73,0,10.32-5.36,15.78-15.38,15.78-2.39,0-4.46-.5-4.67-.5-.09-.11-.29-.2-.29-.29,0-.2,.2-.31,.5-.31,4.67-.79,9.32-4.76,9.32-11.1,0-5.36-4.06-11.02-11.5-11.02-6.94,0-11.31,5.66-11.31,12.2M51.54,38.39c.9-3.97,5.46-14.38,10.62-14.38,1.49,0,3.86,4.76,3.86,11.7,0,10.32-7.63,18.06-14.48,24.8-.59-3.97-1.08-7.83-1.08-12,0-3.67,.29-7.05,1.08-10.12m8.73,101.97c-1.98,.4-3.86,.6-5.75,.6-14.18,0-26.29-9.92-26.29-24.91,0-12.09,8.53-22.91,17.27-30.46,1.67-1.49,3.27-2.87,4.76-4.36,.88,5.35,1.58,10.01,2.28,14.09-9.04,2.68-15.17,12.2-15.17,21.53,0,6.94,5.46,16.46,13.39,16.46,.79,0,1.69-.4,1.69-1.29s-.99-1.39-2.19-2.19c-3.88-2.39-6.06-4.96-6.06-9.83,0-6.04,4.57-10.91,10.32-12.29l5.75,32.63m14.09-18.35c0,7.05-2.88,14.29-9.92,17.17-2.08-11.9-4.76-27.68-5.46-32.05,8.93,0,15.38,6.06,15.38,14.88"/><path d="M30.8,541.59c0,6.56,4.96,15.19,18.35,15.19,4.67,0,8.74-1.19,12.31-3.38,5.36-3.77,6.74-10.32,6.74-16.57,0-3.86-.59-8.32-1.58-13.98-.29-1.98-.9-4.96-1.49-8.84,9.72-3.18,16.96-13.3,16.96-23.51,0-14.97-10.62-25.09-25.09-25.09-.99-5.95-1.98-11.81-2.77-17.36,10.42-11.02,17.65-23.42,17.65-39.18,0-9.04-2.77-16.37-4.37-19.95-2.37-5.05-5.25-8.53-7.04-8.53-.7,0-3.77,1.19-7.04,5.05-6.36,7.55-8.14,20.24-8.14,28.57,0,5.36,.5,10.23,2.19,21.34-.11,.09-5.27,5.35-7.35,7.04-9.04,8.34-21.53,20.43-21.53,40.28,0,18.54,16.17,33.12,34.63,33.12,2.87,0,5.55-.29,7.83-.7,1.89,9.53,3.08,16.48,3.08,21.73,0,10.32-5.36,15.78-15.38,15.78-2.39,0-4.46-.5-4.67-.5-.09-.11-.29-.2-.29-.29,0-.2,.2-.31,.5-.31,4.67-.79,9.32-4.76,9.32-11.1,0-5.36-4.06-11.02-11.5-11.02-6.94,0-11.31,5.66-11.31,12.2m20.74-132.43c.9-3.97,5.46-14.38,10.62-14.38,1.49,0,3.86,4.76,3.86,11.7,0,10.32-7.63,18.06-14.48,24.8-.59-3.97-1.08-7.83-1.08-12,0-3.67,.29-7.05,1.08-10.12m8.73,101.97c-1.98,.4-3.86,.6-5.75,.6-14.18,0-26.29-9.92-26.29-24.91,0-12.09,8.53-22.91,17.27-30.46,1.67-1.49,3.27-2.87,4.76-4.36,.88,5.35,1.58,10.01,2.28,14.09-9.04,2.68-15.17,12.2-15.17,21.53,0,6.94,5.46,16.46,13.39,16.46,.79,0,1.69-.4,1.69-1.29s-.99-1.39-2.19-2.19c-3.88-2.39-6.06-4.96-6.06-9.83,0-6.04,4.57-10.91,10.32-12.29l5.75,32.63m14.09-18.35c0,7.05-2.88,14.29-9.92,17.17-2.08-11.9-4.76-27.68-5.46-32.05,8.93,0,15.38,6.06,15.38,14.88"/><path d="M129.99,35.12c.6-.09,1.1-.79,1.1-1.4v-5.84c0-.99-.7-1.39-1.6-1.39l-3.27,.7V12.4h-2.77v15.38l-8.83,1.8V15.58h-2.77v14.59l-3.87,.79c-.59,.11-1.08,.79-1.08,1.39v5.75c0,1.08,.79,1.39,1.69,1.39l3.27-.7v16.37l-3.87,.79c-.59,.09-1.08,.79-1.08,1.4v5.75c0,1.09,.79,1.38,1.69,1.38l3.27-.68v14.77h2.77v-15.38l8.83-1.78v14h2.77v-14.59l3.77-.7c.6-.11,1.1-.79,1.1-1.39v-5.84c0-.99-.7-1.39-1.6-1.39l-3.27,.7v-16.37l3.77-.7m-15.38,3.07l8.83-1.78v16.37l-8.83,1.89v-16.48"/><path d="M157.17,72.32c.6-.09,1.1-.79,1.1-1.4v-5.84c0-.99-.7-1.39-1.6-1.39l-3.27,.7v-14.79h-2.77v15.38l-8.83,1.8v-14h-2.77v14.59l-3.87,.79c-.59,.11-1.08,.79-1.08,1.39v5.75c0,1.08,.79,1.39,1.69,1.39l3.27-.7v16.37l-3.87,.79c-.59,.09-1.08,.79-1.08,1.4v5.75c0,1.09,.79,1.38,1.69,1.38l3.27-.68v14.77h2.77v-15.38l8.83-1.78v14h2.77v-14.59l3.77-.7c.6-.11,1.1-.79,1.1-1.39v-5.84c0-.99-.7-1.39-1.6-1.39l-3.27,.7v-16.37l3.77-.7m-15.38,3.07l8.83-1.78v16.37l-8.83,1.89v-16.48"/><path d="M184.34,22.72c.6-.09,1.1-.79,1.1-1.4v-5.84c0-.99-.7-1.39-1.6-1.39l-3.27,.7V0h-2.77V15.38l-8.83,1.8V3.18h-2.77v14.59l-3.87,.79c-.59,.11-1.08,.79-1.08,1.39v5.75c0,1.08,.79,1.39,1.69,1.39l3.27-.7v16.37l-3.87,.79c-.59,.09-1.08,.79-1.08,1.4v5.75c0,1.09,.79,1.38,1.69,1.38l3.27-.68v14.77h2.77v-15.38l8.83-1.78v14h2.77v-14.59l3.77-.7c.6-.11,1.1-.79,1.1-1.39v-5.84c0-.99-.7-1.39-1.6-1.39l-3.27,.7V23.42l3.77-.7m-15.38,3.07l8.83-1.78v16.37l-8.83,1.89V25.79"/><path d="M130,405.88c.6-.09,1.1-.79,1.1-1.4v-5.84c0-.99-.7-1.39-1.6-1.39l-3.27,.7v-14.79h-2.77v15.38l-8.83,1.8v-14h-2.77v14.59l-3.87,.79c-.59,.11-1.08,.79-1.08,1.39v5.75c0,1.08,.79,1.39,1.69,1.39l3.27-.7v16.37l-3.87,.79c-.59,.09-1.08,.79-1.08,1.4v5.75c0,1.09,.79,1.38,1.69,1.38l3.27-.68v14.77h2.77v-15.38l8.83-1.78v14h2.77v-14.59l3.77-.7c.6-.11,1.1-.79,1.1-1.39v-5.84c0-.99-.7-1.39-1.6-1.39l-3.27,.7v-16.37l3.77-.7m-15.38,3.07l8.83-1.78v16.37l-8.83,1.89v-16.48"/><path d="M157.17,443.08c.6-.09,1.1-.79,1.1-1.4v-5.84c0-.99-.7-1.39-1.6-1.39l-3.27,.7v-14.79h-2.77v15.38l-8.83,1.8v-14h-2.77v14.59l-3.87,.79c-.59,.11-1.08,.79-1.08,1.39v5.75c0,1.08,.79,1.39,1.69,1.39l3.27-.7v16.37l-3.87,.79c-.59,.09-1.08,.79-1.08,1.4v5.75c0,1.09,.79,1.38,1.69,1.38l3.27-.68v14.77h2.77v-15.38l8.83-1.78v14h2.77v-14.59l3.77-.7c.6-.11,1.1-.79,1.1-1.39v-5.84c0-.99-.7-1.39-1.6-1.39l-3.27,.7v-16.37l3.77-.7m-15.38,3.07l8.83-1.78v16.37l-8.83,1.89v-16.48"/><path d="M184.34,393.48c.6-.09,1.1-.79,1.1-1.4v-5.84c0-.99-.7-1.39-1.6-1.39l-3.27,.7v-14.79h-2.77v15.38l-8.83,1.8v-14h-2.77v14.59l-3.87,.79c-.59,.11-1.08,.79-1.08,1.39v5.75c0,1.08,.79,1.39,1.69,1.39l3.27-.7v16.37l-3.87,.79c-.59,.09-1.08,.79-1.08,1.4v5.75c0,1.09,.79,1.38,1.69,1.38l3.27-.68v14.77h2.77v-15.38l8.83-1.78v14h2.77v-14.59l3.77-.7c.6-.11,1.1-.79,1.1-1.39v-5.84c0-.99-.7-1.39-1.6-1.39l-3.27,.7v-16.37l3.77-.7m-15.38,3.07l8.83-1.78v16.37l-8.83,1.89v-16.48"/><path d="M2509.45,33.14c9.13-6.35,13.28-12.6,13.28-19.75,0-7.53-4.36-12.11-11.01-12.11-4.76,0-7.94,3.38-7.94,7.35,0,4.26,3.67,7.55,7.94,7.55,2.88,0,4.26-.7,4.56-.81,.31-.09,.5-.19,.81-.19,.09,0,.29,0,.39,.09,.2,.09,.29,.4,.29,.99,0,4.26-3.86,9.13-10.71,13.89l2.39,2.98"/><path d="M2410.86,378.11c-9.32-10.12-17.56-10.71-22.71-10.71s-13.3,.59-22.63,10.71c-4.85,5.36-8.23,15.96-8.23,21.33,0,1.89,.4,3.18,1.39,3.18,2.77,0,1.38-8.54,9.72-16.97,7.33-7.33,17.16-7.44,19.55-7.44h.39c2.39,0,12.21,.11,19.55,7.44,8.34,8.43,6.94,16.97,9.72,16.97,.99,0,1.39-1.19,1.39-3.18,0-5.36-3.27-16.07-8.14-21.33m-29.56,18.94c0,3.78,3.07,6.85,6.85,6.85s6.84-3.07,6.84-6.85-3.07-6.84-6.84-6.84-6.85,3.07-6.85,6.84"/><path d="M1501.73,453.49l218.31,12.4v12.42l-218.31-12.4v-12.42" fill-rule="evenodd"/><path d="M1798.53,39.32l219.66-18.6v12.44l-219.66,18.6v-12.44" fill-rule="evenodd"/><path d="M1789.51,453.49l218.31,12.4v12.42l-218.31-12.4v-12.42" fill-rule="evenodd"/><path d="M2124.82,20.73l219.66-12.4v12.42l-219.66,12.4v-12.42" fill-rule="evenodd"/><path d="M277.2,95.13l219.67-12.4v12.42l-219.67,12.4v-12.42" fill-rule="evenodd"/><path d="M889.46,428.69l218.32,12.4v12.42l-218.32-12.4v-12.42" fill-rule="evenodd"/><path d="M2114,453.49l218.31,12.4v12.42l-218.31-12.4v-12.42" fill-rule="evenodd"/><path d="M1182.65,45.54l219.67-6.2v12.4l-219.67,6.2v-12.4" fill-rule="evenodd"/><path d="M277.2,403.89l218.31,12.4v12.42l-218.31-12.4v-12.42" fill-rule="evenodd"/><path d="M566.78,70.34l219.67-6.2v12.4l-219.67,6.2v-12.4" fill-rule="evenodd"/><path d="M1177.24,434.89l218.32,6.2v12.41l-218.32-6.2v-12.41" fill-rule="evenodd"/><path d="M564.98,410.09l218.31,6.2v12.41l-218.31-6.2v-12.41" fill-rule="evenodd"/><path d="M893.07,70.33l219.67-12.4v12.42l-219.67,12.4v-12.42" fill-rule="evenodd"/><path d="M1508.94,45.53l219.67-12.4v12.42l-219.67,12.4v-12.42" fill-rule="evenodd"/></g></svg>