<?xml version="1.0" encoding="UTF-8"?><svg id="b" xmlns="http://www.w3.org/2000/svg" viewBox="0 0 2552 843.75"><g id="c"><line y1="35.91" x2="2552" y2="35.91" fill="none" stroke="#000" stroke-linejoin="bevel" stroke-width="2.73"/><line y1="60.71" x2="2552" y2="60.71" fill="none" stroke="#000" stroke-linejoin="bevel" stroke-width="2.73"/><line y1="85.51" x2="2552" y2="85.51" fill="none" stroke="#000" stroke-linejoin="bevel" stroke-width="2.73"/><line y1="110.31" x2="2552" y2="110.31" fill="none" stroke="#000" stroke-linejoin="bevel" stroke-width="2.73"/><line y1="135.11" x2="2552" y2="135.11" fill="none" stroke="#000" stroke-linejoin="bevel" stroke-width="2.73"/><line y1="369.59" x2="2552" y2="369.59" fill="none" stroke="#000" stroke-linejoin="bevel" stroke-width="2.73"/><line y1="394.39" x2="2552" y2="394.39" fill="none" stroke="#000" stroke-linejoin="bevel" stroke-width="2.73"/><line y1="419.19" x2="2552" y2="419.19" fill="none" stroke="#000" stroke-linejoin="bevel" stroke-width="2.73"/><line y1="443.99" x2="2552" y2="443.99" fill="none" stroke="#000" stroke-linejoin="bevel" stroke-width="2.73"/><line y1="468.79" x2="2552" y2="468.79" fill="none" stroke="#000" stroke-linejoin="bevel" stroke-width="2.73"/><line y1="703.27" x2="2552" y2="703.27" fill="none" stroke="#000" stroke-linejoin="bevel" stroke-width="2.73"/><line y1="728.07" x2="2552" y2="728.07" fill="none" stroke="#000" stroke-linejoin="bevel" stroke-width="2.73"/><line y1="752.87" x2="2552" y2="752.87" fill="none" stroke="#000" stroke-linejoin="bevel" stroke-width="2.73"/><line y1="777.67" x2="2552" y2="777.67" fill="none" stroke="#000" stroke-linejoin="bevel" stroke-width="2.73"/><line y1="802.47" x2="2552" y2="802.47" fill="none" stroke="#000" stroke-linejoin="bevel" stroke-width="2.73"/><line x1="1008.1" y1="34.55" x2="1008.1" y2="136.47" fill="none" stroke="#000" stroke-linejoin="bevel" stroke-width="4.46"/><line x1="2164.35" y1="34.55" x2="2164.35" y2="136.47" fill="none" stroke="#000" stroke-linejoin="bevel" stroke-width="4.46"/><line x1="745.13" y1="368.23" x2="745.13" y2="470.15" fill="none" stroke="#000" stroke-linejoin="bevel" stroke-width="4.46"/><line x1="2549.77" y1="368.23" x2="2549.77" y2="470.15" fill="none" stroke="#000" stroke-linejoin="bevel" stroke-width="4.46"/><line x1="1534.04" y1="368.23" x2="1534.04" y2="470.15" fill="none" stroke="#000" stroke-linejoin="bevel" stroke-width="4.46"/><line x1="2256.65" y1="701.91" x2="2256.65" y2="803.83" fill="none" stroke="#000" stroke-linejoin="bevel" stroke-width="4.46"/><line x1="1393.52" y1="34.55" x2="1393.52" y2="136.47" fill="none" stroke="#000" stroke-linejoin="bevel" stroke-width="4.46"/><line x1="742.11" y1="701.91" x2="742.11" y2="803.83" fill="none" stroke="#000" stroke-linejoin="bevel" stroke-width="4.46"/><line x1="1026.17" y1="368.23" x2="1026.17" y2="470.15" fill="none" stroke="#000" stroke-linejoin="bevel" stroke-width="4.46"/><line x1="2041.91" y1="368.23" x2="2041.91" y2="470.15" fill="none" stroke="#000" stroke-linejoin="bevel" stroke-width="4.46"/><line x1="2549.77" y1="34.55" x2="2549.77" y2="136.47" fill="none" stroke="#000" stroke-linejoin="bevel" stroke-width="4.46"/><line x1="622.68" y1="34.55" x2="622.68" y2="136.47" fill="none" stroke="#000" stroke-linejoin="bevel" stroke-width="4.46"/><line x1="1778.94" y1="34.55" x2="1778.94" y2="136.47" fill="none" stroke="#000" stroke-linejoin="bevel" stroke-width="4.46"/><line x1="2536.13" y1="701.91" x2="2536.13" y2="803.83" fill="none" stroke="#000" stroke-linejoin="bevel" stroke-width="4.46"/><line x1="2549.77" y1="701.91" x2="2549.77" y2="803.83" fill="none" stroke="#000" stroke-linejoin="bevel" stroke-width="4.46"/><line x1="1751.8" y1="701.91" x2="1751.8" y2="803.83" fill="none" stroke="#000" stroke-linejoin="bevel" stroke-width="4.46"/><line x1="1246.96" y1="701.91" x2="1246.96" y2="803.83" fill="none" stroke="#000" stroke-linejoin="bevel" stroke-width="4.46"/><line x1="1052.46" y1="344.79" x2="1101.06" y2="344.79" fill="none" stroke="#000" stroke-linejoin="bevel" stroke-width="3.97"/><line x1="1817.33" y1="344.79" x2="1865.93" y2="344.79" fill="none" stroke="#000" stroke-linejoin="bevel" stroke-width="3.97"/><line x1="1395.13" y1="344.79" x2="1443.73" y2="344.79" fill="none" stroke="#000" stroke-linejoin="bevel" stroke-width="3.97"/><line x1="1223.79" y1="344.79" x2="1272.39" y2="344.79" fill="none" stroke="#000" stroke-linejoin="bevel" stroke-width="3.97"/><line x1="349.22" y1="344.79" x2="397.82" y2="344.79" fill="none" stroke="#000" stroke-linejoin="bevel" stroke-width="3.97"/><line x1="1309.46" y1="344.79" x2="1358.06" y2="344.79" fill="none" stroke="#000" stroke-linejoin="bevel" stroke-width="3.97"/><line x1="771.42" y1="344.79" x2="820.02" y2="344.79" fill="none" stroke="#000" stroke-linejoin="bevel" stroke-width="3.97"/><line x1="2453.67" y1="40.08" x2="2453.67" y2="122.71" fill="none" stroke="#000" stroke-linejoin="bevel" stroke-width="2.48"/><line x1="492.94" y1="106.34" x2="492.94" y2="35.79" fill="none" stroke="#000" stroke-linejoin="bevel" stroke-width="2.48"/><line x1="1912.41" y1="361.36" x2="1912.41" y2="443.99" fill="none" stroke="#000" stroke-linejoin="bevel" stroke-width="2.48"/><line x1="777.82" y1="732.24" x2="777.82" y2="802.56" fill="none" stroke="#000" stroke-linejoin="bevel" stroke-width="2.48"/><line x1="556.34" y1="93.94" x2="556.34" y2="17.31" fill="none" stroke="#000" stroke-linejoin="bevel" stroke-width="2.48"/><line x1="1318.88" y1="336.56" x2="1318.88" y2="413.08" fill="none" stroke="#000" stroke-linejoin="bevel" stroke-width="2.48"/><line x1="658.4" y1="89.68" x2="658.4" y2="159.79" fill="none" stroke="#000" stroke-linejoin="bevel" stroke-width="2.48"/><line x1="1623.14" y1="744.64" x2="1623.14" y2="821.07" fill="none" stroke="#000" stroke-linejoin="bevel" stroke-width="2.48"/><line x1="721.8" y1="77.28" x2="721.8" y2="153.83" fill="none" stroke="#000" stroke-linejoin="bevel" stroke-width="2.48"/><line x1="272.98" y1="361.36" x2="272.98" y2="425.3" fill="none" stroke="#000" stroke-linejoin="bevel" stroke-width="2.48"/><line x1="814.95" y1="81.54" x2="814.95" y2="11.23" fill="none" stroke="#000" stroke-linejoin="bevel" stroke-width="2.48"/><line x1="878.35" y1="93.94" x2="878.35" y2="17.19" fill="none" stroke="#000" stroke-linejoin="bevel" stroke-width="2.48"/><line x1="1538.02" y1="732.24" x2="1538.02" y2="802.56" fill="none" stroke="#000" stroke-linejoin="bevel" stroke-width="2.48"/><line x1="912" y1="89.68" x2="912" y2="159.91" fill="none" stroke="#000" stroke-linejoin="bevel" stroke-width="2.48"/><line x1="358.64" y1="348.96" x2="358.64" y2="419.28" fill="none" stroke="#000" stroke-linejoin="bevel" stroke-width="2.48"/><line x1="1043.81" y1="77.28" x2="1043.81" y2="141.19" fill="none" stroke="#000" stroke-linejoin="bevel" stroke-width="2.48"/><line x1="1233.22" y1="348.96" x2="1233.22" y2="419.1" fill="none" stroke="#000" stroke-linejoin="bevel" stroke-width="2.48"/><line x1="1107.21" y1="64.88" x2="1107.21" y2="135.23" fill="none" stroke="#000" stroke-linejoin="bevel" stroke-width="2.48"/><line x1="528.33" y1="707.44" x2="528.33" y2="777.76" fill="none" stroke="#000" stroke-linejoin="bevel" stroke-width="2.48"/><line x1="1170.62" y1="77.28" x2="1170.62" y2="153.83" fill="none" stroke="#000" stroke-linejoin="bevel" stroke-width="2.48"/><line x1="1452.9" y1="744.64" x2="1452.9" y2="808.58" fill="none" stroke="#000" stroke-linejoin="bevel" stroke-width="2.48"/><line x1="1234.02" y1="89.68" x2="1234.02" y2="159.79" fill="none" stroke="#000" stroke-linejoin="bevel" stroke-width="2.48"/><line x1="1297.42" y1="77.28" x2="1297.42" y2="153.71" fill="none" stroke="#000" stroke-linejoin="bevel" stroke-width="2.48"/><line x1="2334.61" y1="361.36" x2="2334.61" y2="437.88" fill="none" stroke="#000" stroke-linejoin="bevel" stroke-width="2.48"/><line x1="1429.23" y1="64.88" x2="1429.23" y2="134.99" fill="none" stroke="#000" stroke-linejoin="bevel" stroke-width="2.48"/><line x1="948.06" y1="732.24" x2="948.06" y2="802.38" fill="none" stroke="#000" stroke-linejoin="bevel" stroke-width="2.48"/><line x1="2322.12" y1="761.3" x2="2322.12" y2="684.67" fill="none" stroke="#000" stroke-linejoin="bevel" stroke-width="2.48"/><line x1="1492.63" y1="52.48" x2="1492.63" y2="129.03" fill="none" stroke="#000" stroke-linejoin="bevel" stroke-width="2.48"/><line x1="2420.28" y1="373.76" x2="2420.28" y2="456.39" fill="none" stroke="#000" stroke-linejoin="bevel" stroke-width="2.48"/><line x1="1556.03" y1="64.88" x2="1556.03" y2="135.23" fill="none" stroke="#000" stroke-linejoin="bevel" stroke-width="2.48"/><line x1="613.45" y1="719.84" x2="613.45" y2="802.47" fill="none" stroke="#000" stroke-linejoin="bevel" stroke-width="2.48"/><line x1="1741.08" y1="361.36" x2="1741.08" y2="425.3" fill="none" stroke="#000" stroke-linejoin="bevel" stroke-width="2.48"/><line x1="1147.55" y1="361.36" x2="1147.55" y2="425.3" fill="none" stroke="#000" stroke-linejoin="bevel" stroke-width="2.48"/><line x1="1619.44" y1="77.28" x2="1619.44" y2="141.19" fill="none" stroke="#000" stroke-linejoin="bevel" stroke-width="2.48"/><line x1="1682.84" y1="64.88" x2="1682.84" y2="147.51" fill="none" stroke="#000" stroke-linejoin="bevel" stroke-width="2.48"/><line x1="1033.17" y1="719.84" x2="1033.17" y2="796.36" fill="none" stroke="#000" stroke-linejoin="bevel" stroke-width="2.48"/><line x1="1814.65" y1="52.48" x2="1814.65" y2="116.39" fill="none" stroke="#000" stroke-linejoin="bevel" stroke-width="2.48"/><line x1="1404.55" y1="348.96" x2="1404.55" y2="431.59" fill="none" stroke="#000" stroke-linejoin="bevel" stroke-width="2.48"/><line x1="2127.98" y1="757.04" x2="2127.98" y2="827.27" fill="none" stroke="#000" stroke-linejoin="bevel" stroke-width="2.48"/><line x1="1878.05" y1="40.08" x2="1878.05" y2="110.43" fill="none" stroke="#000" stroke-linejoin="bevel" stroke-width="2.48"/><line x1="1367.79" y1="757.04" x2="1367.79" y2="827.18" fill="none" stroke="#000" stroke-linejoin="bevel" stroke-width="2.48"/><line x1="1941.45" y1="52.48" x2="1941.45" y2="129.03" fill="none" stroke="#000" stroke-linejoin="bevel" stroke-width="2.48"/><line x1="1282.67" y1="744.64" x2="1282.67" y2="821.16" fill="none" stroke="#000" stroke-linejoin="bevel" stroke-width="2.48"/><line x1="2042.87" y1="744.64" x2="2042.87" y2="821.16" fill="none" stroke="#000" stroke-linejoin="bevel" stroke-width="2.48"/><line x1="2004.85" y1="64.88" x2="2004.85" y2="134.99" fill="none" stroke="#000" stroke-linejoin="bevel" stroke-width="2.48"/><line x1="272.98" y1="719.84" x2="272.98" y2="796.36" fill="none" stroke="#000" stroke-linejoin="bevel" stroke-width="2.48"/><line x1="2068.26" y1="52.48" x2="2068.26" y2="135.11" fill="none" stroke="#000" stroke-linejoin="bevel" stroke-width="2.48"/><line x1="862.94" y1="744.64" x2="862.94" y2="808.58" fill="none" stroke="#000" stroke-linejoin="bevel" stroke-width="2.48"/><line x1="1957.75" y1="757.04" x2="1957.75" y2="827.18" fill="none" stroke="#000" stroke-linejoin="bevel" stroke-width="2.48"/><line x1="2200.06" y1="40.08" x2="2200.06" y2="110.19" fill="none" stroke="#000" stroke-linejoin="bevel" stroke-width="2.48"/><line x1="1655.42" y1="373.76" x2="1655.42" y2="443.9" fill="none" stroke="#000" stroke-linejoin="bevel" stroke-width="2.48"/><line x1="1902.39" y1="761.3" x2="1902.39" y2="684.58" fill="none" stroke="#000" stroke-linejoin="bevel" stroke-width="2.48"/><line x1="2263.47" y1="27.68" x2="2263.47" y2="104.23" fill="none" stroke="#000" stroke-linejoin="bevel" stroke-width="2.48"/><line x1="358.1" y1="732.24" x2="358.1" y2="802.38" fill="none" stroke="#000" stroke-linejoin="bevel" stroke-width="2.48"/><line x1="1826.75" y1="348.96" x2="1826.75" y2="419.28" fill="none" stroke="#000" stroke-linejoin="bevel" stroke-width="2.48"/><line x1="2326.87" y1="40.08" x2="2326.87" y2="110.43" fill="none" stroke="#000" stroke-linejoin="bevel" stroke-width="2.48"/><line x1="1118.29" y1="732.24" x2="1118.29" y2="814.87" fill="none" stroke="#000" stroke-linejoin="bevel" stroke-width="2.48"/><line x1="1817.27" y1="748.9" x2="1817.27" y2="678.56" fill="none" stroke="#000" stroke-linejoin="bevel" stroke-width="2.48"/><line x1="1061.89" y1="348.96" x2="1061.89" y2="419.28" fill="none" stroke="#000" stroke-linejoin="bevel" stroke-width="2.48"/><line x1="1569.75" y1="361.36" x2="1569.75" y2="437.88" fill="none" stroke="#000" stroke-linejoin="bevel" stroke-width="2.48"/><line x1="302.73" y1="93.94" x2="302.73" y2="17.19" fill="none" stroke="#000" stroke-linejoin="bevel" stroke-width="2.48"/><line x1="2077.62" y1="373.76" x2="2077.62" y2="444.08" fill="none" stroke="#000" stroke-linejoin="bevel" stroke-width="2.48"/><line x1="780.84" y1="348.96" x2="780.84" y2="431.59" fill="none" stroke="#000" stroke-linejoin="bevel" stroke-width="2.48"/><line x1="615.64" y1="361.36" x2="615.64" y2="443.99" fill="none" stroke="#000" stroke-linejoin="bevel" stroke-width="2.48"/><line x1="2163.28" y1="386.16" x2="2163.28" y2="450.1" fill="none" stroke="#000" stroke-linejoin="bevel" stroke-width="2.48"/><line x1="529.98" y1="373.76" x2="529.98" y2="443.9" fill="none" stroke="#000" stroke-linejoin="bevel" stroke-width="2.48"/><line x1="2390.27" y1="52.48" x2="2390.27" y2="116.39" fill="none" stroke="#000" stroke-linejoin="bevel" stroke-width="2.48"/><line x1="2248.95" y1="373.76" x2="2248.95" y2="443.9" fill="none" stroke="#000" stroke-linejoin="bevel" stroke-width="2.48"/><line x1="366.13" y1="81.54" x2="366.13" y2="11.23" fill="none" stroke="#000" stroke-linejoin="bevel" stroke-width="2.48"/><line x1="443.21" y1="719.84" x2="443.21" y2="783.78" fill="none" stroke="#000" stroke-linejoin="bevel" stroke-width="2.48"/><line x1="429.54" y1="93.94" x2="429.54" y2="29.83" fill="none" stroke="#000" stroke-linejoin="bevel" stroke-width="2.48"/><line x1="444.31" y1="361.36" x2="444.31" y2="437.88" fill="none" stroke="#000" stroke-linejoin="bevel" stroke-width="2.48"/><path d="M271.74,102.08c0,4.26,3.07,9.02,11.11,9.02,10.31,0,21.13-8.43,21.13-17.16,0-5.86-4.96-9.13-11.11-9.13-9.63,0-21.13,8.14-21.13,17.27"/><path d="M335.14,89.68c0,4.26,3.07,9.02,11.11,9.02,10.31,0,21.13-8.43,21.13-17.16,0-5.86-4.96-9.13-11.11-9.13-9.63,0-21.13,8.14-21.13,17.27"/><path d="M398.54,102.08c0,4.26,3.07,9.02,11.11,9.02,10.31,0,21.13-8.43,21.13-17.16,0-5.86-4.96-9.13-11.11-9.13-9.63,0-21.13,8.14-21.13,17.27"/><path d="M461.95,114.48c0,4.26,3.07,9.02,11.11,9.02,10.31,0,21.13-8.43,21.13-17.16,0-5.86-4.96-9.13-11.11-9.13-9.63,0-21.13,8.14-21.13,17.27"/><path d="M525.35,102.08c0,4.26,3.07,9.02,11.11,9.02,10.31,0,21.13-8.43,21.13-17.16,0-5.86-4.96-9.13-11.11-9.13-9.63,0-21.13,8.14-21.13,17.27"/><path d="M657.16,89.68c0,4.26,3.07,9.02,11.11,9.02,10.31,0,21.13-8.43,21.13-17.16,0-5.86-4.96-9.13-11.11-9.13-9.63,0-21.13,8.14-21.13,17.27"/><path d="M720.56,77.28c0,4.26,3.07,9.02,11.11,9.02,10.31,0,21.13-8.43,21.13-17.16,0-5.86-4.96-9.13-11.11-9.13-9.63,0-21.13,8.14-21.13,17.27"/><path d="M783.96,89.68c0,4.26,3.07,9.02,11.11,9.02,10.31,0,21.13-8.43,21.13-17.16,0-5.86-4.96-9.13-11.11-9.13-9.63,0-21.13,8.14-21.13,17.27"/><path d="M847.36,102.08c0,4.26,3.07,9.02,11.11,9.02,10.31,0,21.13-8.43,21.13-17.16,0-5.86-4.96-9.13-11.11-9.13-9.63,0-21.13,8.14-21.13,17.27"/><path d="M910.76,89.68c0,4.26,3.07,9.02,11.11,9.02,10.31,0,21.13-8.43,21.13-17.16,0-5.86-4.96-9.13-11.11-9.13-9.63,0-21.13,8.14-21.13,17.27"/><path d="M1042.57,77.28c0,4.26,3.07,9.02,11.11,9.02,10.31,0,21.13-8.43,21.13-17.16,0-5.86-4.96-9.13-11.11-9.13-9.63,0-21.13,8.14-21.13,17.27"/><path d="M1105.97,64.88c0,4.26,3.07,9.02,11.11,9.02,10.31,0,21.13-8.43,21.13-17.16,0-5.86-4.96-9.13-11.11-9.13-9.63,0-21.13,8.14-21.13,17.27"/><path d="M1169.38,77.28c0,4.26,3.07,9.02,11.11,9.02,10.31,0,21.13-8.43,21.13-17.16,0-5.86-4.96-9.13-11.11-9.13-9.63,0-21.13,8.14-21.13,17.27"/><path d="M1296.18,77.28c0,4.26,3.07,9.02,11.11,9.02,10.31,0,21.13-8.43,21.13-17.16,0-5.86-4.96-9.13-11.11-9.13-9.63,0-21.13,8.14-21.13,17.27"/><path d="M1427.99,64.88c0,4.26,3.07,9.02,11.11,9.02,10.31,0,21.13-8.43,21.13-17.16,0-5.86-4.96-9.13-11.11-9.13-9.63,0-21.13,8.14-21.13,17.27"/><path d="M1491.39,52.48c0,4.26,3.07,9.02,11.11,9.02,10.31,0,21.13-8.43,21.13-17.16,0-5.86-4.96-9.13-11.11-9.13-9.63,0-21.13,8.14-21.13,17.27"/><path d="M1554.79,64.88c0,4.26,3.07,9.02,11.11,9.02,10.31,0,21.13-8.43,21.13-17.16,0-5.86-4.96-9.13-11.11-9.13-9.63,0-21.13,8.14-21.13,17.27"/><path d="M1618.2,77.28c0,4.26,3.07,9.02,11.11,9.02,10.31,0,21.13-8.43,21.13-17.16,0-5.86-4.96-9.13-11.11-9.13-9.63,0-21.13,8.14-21.13,17.27"/><path d="M1681.6,64.88c0,4.26,3.07,9.02,11.11,9.02,10.31,0,21.13-8.43,21.13-17.16,0-5.86-4.96-9.13-11.11-9.13-9.63,0-21.13,8.14-21.13,17.27"/><path d="M1813.41,52.48c0,4.26,3.07,9.02,11.11,9.02,10.31,0,21.13-8.43,21.13-17.16,0-5.86-4.96-9.13-11.11-9.13-9.63,0-21.13,8.14-21.13,17.27"/><path d="M1876.81,40.08c0,4.26,3.07,9.02,11.11,9.02,10.31,0,21.13-8.43,21.13-17.16,0-5.86-4.96-9.13-11.11-9.13-9.63,0-21.13,8.14-21.13,17.27"/><path d="M1940.21,52.48c0,4.26,3.07,9.02,11.11,9.02,10.31,0,21.13-8.43,21.13-17.16,0-5.86-4.96-9.13-11.11-9.13-9.63,0-21.13,8.14-21.13,17.27"/><path d="M2003.61,64.88c0,4.26,3.07,9.02,11.11,9.02,10.31,0,21.13-8.43,21.13-17.16,0-5.86-4.96-9.13-11.11-9.13-9.63,0-21.13,8.14-21.13,17.27"/><path d="M2067.02,52.48c0,4.26,3.07,9.02,11.11,9.02,10.31,0,21.13-8.43,21.13-17.16,0-5.86-4.96-9.13-11.11-9.13-9.63,0-21.13,8.14-21.13,17.27"/><path d="M2198.82,40.08c0,4.26,3.07,9.02,11.11,9.02,10.31,0,21.13-8.43,21.13-17.16,0-5.86-4.96-9.13-11.11-9.13-9.63,0-21.13,8.14-21.13,17.27"/><path d="M2262.23,27.68c0,4.26,3.07,9.02,11.11,9.02,10.31,0,21.13-8.43,21.13-17.16,0-5.86-4.96-9.13-11.11-9.13-9.63,0-21.13,8.14-21.13,17.27"/><path d="M2325.63,40.08c0,4.26,3.07,9.02,11.11,9.02,10.31,0,21.13-8.43,21.13-17.16,0-5.86-4.96-9.13-11.11-9.13-9.63,0-21.13,8.14-21.13,17.27"/><path d="M2389.03,52.48c0,4.26,3.07,9.02,11.11,9.02,10.31,0,21.13-8.43,21.13-17.16,0-5.86-4.96-9.13-11.11-9.13-9.63,0-21.13,8.14-21.13,17.27"/><path d="M2452.43,40.08c0,4.26,3.07,9.02,11.11,9.02,10.31,0,21.13-8.43,21.13-17.16,0-5.86-4.96-9.13-11.11-9.13-9.63,0-21.13,8.14-21.13,17.27"/><path d="M271.74,361.36c0,4.26,3.07,9.02,11.11,9.02,10.31,0,21.13-8.43,21.13-17.16,0-5.86-4.96-9.13-11.11-9.13-9.63,0-21.13,8.14-21.13,17.27"/><path d="M357.4,348.96c0,4.26,3.07,9.02,11.11,9.02,10.31,0,21.13-8.43,21.13-17.16,0-5.86-4.96-9.13-11.11-9.13-9.63,0-21.13,8.14-21.13,17.27"/><path d="M2333.37,361.36c0,4.26,3.07,9.02,11.11,9.02,10.31,0,21.13-8.43,21.13-17.16,0-5.86-4.96-9.13-11.11-9.13-9.63,0-21.13,8.14-21.13,17.27"/><path d="M2419.04,373.76c0,4.26,3.07,9.02,11.11,9.02,10.31,0,21.13-8.43,21.13-17.16,0-5.86-4.96-9.13-11.11-9.13-9.63,0-21.13,8.14-21.13,17.27"/><path d="M1568.51,361.36c0,4.26,3.07,9.02,11.11,9.02,10.31,0,21.13-8.43,21.13-17.16,0-5.86-4.96-9.13-11.11-9.13-9.63,0-21.13,8.14-21.13,17.27"/><path d="M271.74,719.84c0,4.26,3.07,9.02,11.11,9.02,10.31,0,21.13-8.43,21.13-17.16,0-5.86-4.96-9.13-11.11-9.13-9.63,0-21.13,8.14-21.13,17.27"/><path d="M356.86,732.24c0,4.26,3.07,9.02,11.11,9.02,10.31,0,21.13-8.43,21.13-17.16,0-5.86-4.96-9.13-11.11-9.13-9.63,0-21.13,8.14-21.13,17.27"/><path d="M441.97,719.84c0,4.26,3.07,9.02,11.11,9.02,10.31,0,21.13-8.43,21.13-17.16,0-5.86-4.96-9.13-11.11-9.13-9.63,0-21.13,8.14-21.13,17.27"/><path d="M527.09,707.44c0,4.26,3.07,9.02,11.11,9.02,10.31,0,21.13-8.43,21.13-17.16,0-5.86-4.96-9.13-11.11-9.13-9.63,0-21.13,8.14-21.13,17.27"/><path d="M612.21,719.84c0,4.26,3.07,9.02,11.11,9.02,10.31,0,21.13-8.43,21.13-17.16,0-5.86-4.96-9.13-11.11-9.13-9.63,0-21.13,8.14-21.13,17.27"/><path d="M1317.64,336.56c0,4.26,3.07,9.02,11.11,9.02,10.31,0,21.13-8.43,21.13-17.16,0-5.86-4.96-9.13-11.11-9.13-9.63,0-21.13,8.14-21.13,17.27"/><path d="M776.58,732.24c0,4.26,3.07,9.02,11.11,9.02,10.31,0,21.13-8.43,21.13-17.16,0-5.86-4.96-9.13-11.11-9.13-9.63,0-21.13,8.14-21.13,17.27"/><path d="M861.7,744.64c0,4.26,3.07,9.02,11.11,9.02,10.31,0,21.13-8.43,21.13-17.16,0-5.86-4.96-9.13-11.11-9.13-9.63,0-21.13,8.14-21.13,17.27"/><path d="M946.82,732.24c0,4.26,3.07,9.02,11.11,9.02,10.31,0,21.13-8.43,21.13-17.16,0-5.86-4.96-9.13-11.11-9.13-9.63,0-21.13,8.14-21.13,17.27"/><path d="M1031.93,719.84c0,4.26,3.07,9.02,11.11,9.02,10.31,0,21.13-8.43,21.13-17.16,0-5.86-4.96-9.13-11.11-9.13-9.63,0-21.13,8.14-21.13,17.27"/><path d="M1117.05,732.24c0,4.26,3.07,9.02,11.11,9.02,10.31,0,21.13-8.43,21.13-17.16,0-5.86-4.96-9.13-11.11-9.13-9.63,0-21.13,8.14-21.13,17.27"/><path d="M1281.43,744.64c0,4.26,3.07,9.02,11.11,9.02,10.31,0,21.13-8.43,21.13-17.16,0-5.86-4.96-9.13-11.11-9.13-9.63,0-21.13,8.14-21.13,17.27"/><path d="M1366.55,757.04c0,4.26,3.07,9.02,11.11,9.02,10.31,0,21.13-8.43,21.13-17.16,0-5.86-4.96-9.13-11.11-9.13-9.63,0-21.13,8.14-21.13,17.27"/><path d="M1451.66,744.64c0,4.26,3.07,9.02,11.11,9.02,10.31,0,21.13-8.43,21.13-17.16,0-5.86-4.96-9.13-11.11-9.13-9.63,0-21.13,8.14-21.13,17.27"/><path d="M1536.78,732.24c0,4.26,3.07,9.02,11.11,9.02,10.31,0,21.13-8.43,21.13-17.16,0-5.86-4.96-9.13-11.11-9.13-9.63,0-21.13,8.14-21.13,17.27"/><path d="M1621.9,744.64c0,4.26,3.07,9.02,11.11,9.02,10.31,0,21.13-8.43,21.13-17.16,0-5.86-4.96-9.13-11.11-9.13-9.63,0-21.13,8.14-21.13,17.27"/><path d="M1654.18,373.76c0,4.26,3.07,9.02,11.11,9.02,10.31,0,21.13-8.43,21.13-17.16,0-5.86-4.96-9.13-11.11-9.13-9.63,0-21.13,8.14-21.13,17.27"/><path d="M1786.28,757.04c0,4.26,3.07,9.02,11.11,9.02,10.31,0,21.13-8.43,21.13-17.16,0-5.86-4.96-9.13-11.11-9.13-9.63,0-21.13,8.14-21.13,17.27"/><path d="M1871.39,769.44c0,4.26,3.07,9.02,11.11,9.02,10.31,0,21.13-8.43,21.13-17.16,0-5.86-4.96-9.13-11.11-9.13-9.63,0-21.13,8.14-21.13,17.27"/><path d="M1956.51,757.04c0,4.26,3.07,9.02,11.11,9.02,10.31,0,21.13-8.43,21.13-17.16,0-5.86-4.96-9.13-11.11-9.13-9.63,0-21.13,8.14-21.13,17.27"/><path d="M2041.63,744.64c0,4.26,3.07,9.02,11.11,9.02,10.31,0,21.13-8.43,21.13-17.16,0-5.86-4.96-9.13-11.11-9.13-9.63,0-21.13,8.14-21.13,17.27"/><path d="M2126.74,757.04c0,4.26,3.07,9.02,11.11,9.02,10.31,0,21.13-8.43,21.13-17.16,0-5.86-4.96-9.13-11.11-9.13-9.63,0-21.13,8.14-21.13,17.27"/><path d="M1232.78,89.68c0,4.26,3.07,9.02,11.11,9.02,10.31,0,21.13-8.43,21.13-17.16,0-5.86-4.96-9.13-11.11-9.13-9.63,0-21.13,8.14-21.13,17.27"/><path d="M2312.25,752.18c-9.63,0-21.13,8.04-21.13,17.27,0,4.26,3.07,9.02,11.11,9.02,10.31,0,21.13-8.43,21.13-17.16,0-5.86-4.96-9.13-11.11-9.13m-13.69,21.62c-3.27,0-3.97-2.67-3.97-3.57,0-4.87,16.66-13.39,21.33-13.39,2.39,0,3.97,1.4,3.97,3.57,0,4.96-16.77,13.39-21.33,13.39"/><path d="M1739.84,361.36c0,4.26,3.07,9.02,11.11,9.02,10.31,0,21.13-8.43,21.13-17.16,0-5.86-4.96-9.13-11.11-9.13-9.63,0-21.13,8.14-21.13,17.27"/><path d="M1231.98,348.96c0,4.26,3.07,9.02,11.11,9.02,10.31,0,21.13-8.43,21.13-17.16,0-5.86-4.96-9.13-11.11-9.13-9.63,0-21.13,8.14-21.13,17.27"/><path d="M1146.31,361.36c0,4.26,3.07,9.02,11.11,9.02,10.31,0,21.13-8.43,21.13-17.16,0-5.86-4.96-9.13-11.11-9.13-9.63,0-21.13,8.14-21.13,17.27"/><path d="M1825.51,348.96c0,4.26,3.07,9.02,11.11,9.02,10.31,0,21.13-8.43,21.13-17.16,0-5.86-4.96-9.13-11.11-9.13-9.63,0-21.13,8.14-21.13,17.27"/><path d="M1060.65,348.96c0,4.26,3.07,9.02,11.11,9.02,10.31,0,21.13-8.43,21.13-17.16,0-5.86-4.96-9.13-11.11-9.13-9.63,0-21.13,8.14-21.13,17.27"/><path d="M1911.17,361.36c0,4.26,3.07,9.02,11.11,9.02,10.31,0,21.13-8.43,21.13-17.16,0-5.86-4.96-9.13-11.11-9.13-9.63,0-21.13,8.14-21.13,17.27"/><path d="M1403.31,348.96c0,4.26,3.07,9.02,11.11,9.02,10.31,0,21.13-8.43,21.13-17.16,0-5.86-4.96-9.13-11.11-9.13-9.63,0-21.13,8.14-21.13,17.27"/><path d="M800.73,331.7c-9.63,0-21.13,8.04-21.13,17.27,0,4.26,3.07,9.02,11.11,9.02,10.31,0,21.13-8.43,21.13-17.16,0-5.86-4.96-9.13-11.11-9.13m-13.69,21.62c-3.27,0-3.97-2.67-3.97-3.57,0-4.87,16.66-13.39,21.33-13.39,2.39,0,3.97,1.4,3.97,3.57,0,4.96-16.77,13.39-21.33,13.39"/><path d="M2076.38,373.76c0,4.26,3.07,9.02,11.11,9.02,10.31,0,21.13-8.43,21.13-17.16,0-5.86-4.96-9.13-11.11-9.13-9.63,0-21.13,8.14-21.13,17.27"/><path d="M614.4,361.36c0,4.26,3.07,9.02,11.11,9.02,10.31,0,21.13-8.43,21.13-17.16,0-5.86-4.96-9.13-11.11-9.13-9.63,0-21.13,8.14-21.13,17.27"/><path d="M528.74,373.76c0,4.26,3.07,9.02,11.11,9.02,10.31,0,21.13-8.43,21.13-17.16,0-5.86-4.96-9.13-11.11-9.13-9.63,0-21.13,8.14-21.13,17.27"/><path d="M2162.04,386.16c0,4.26,3.07,9.02,11.11,9.02,10.31,0,21.13-8.43,21.13-17.16,0-5.86-4.96-9.13-11.11-9.13-9.63,0-21.13,8.14-21.13,17.27"/><path d="M443.07,361.36c0,4.26,3.07,9.02,11.11,9.02,10.31,0,21.13-8.43,21.13-17.16,0-5.86-4.96-9.13-11.11-9.13-9.63,0-21.13,8.14-21.13,17.27"/><path d="M2247.71,373.76c0,4.26,3.07,9.02,11.11,9.02,10.31,0,21.13-8.43,21.13-17.16,0-5.86-4.96-9.13-11.11-9.13-9.63,0-21.13,8.14-21.13,17.27"/><path d="M30.8,494.88c0,6.56,4.96,15.19,18.35,15.19,4.67,0,8.74-1.19,12.31-3.38,5.36-3.77,6.74-10.32,6.74-16.57,0-3.86-.59-8.32-1.58-13.98-.29-1.98-.9-4.96-1.49-8.84,9.72-3.18,16.96-13.3,16.96-23.51,0-14.97-10.62-25.09-25.09-25.09-.99-5.95-1.98-11.81-2.77-17.36,10.42-11.02,17.65-23.42,17.65-39.18,0-9.04-2.77-16.37-4.37-19.95-2.37-5.05-5.25-8.53-7.04-8.53-.7,0-3.77,1.19-7.04,5.05-6.36,7.55-8.14,20.24-8.14,28.57,0,5.36,.5,10.23,2.19,21.34-.11,.09-5.27,5.35-7.35,7.04-9.04,8.34-21.53,20.43-21.53,40.28,0,18.54,16.17,33.12,34.63,33.12,2.87,0,5.55-.29,7.83-.7,1.89,9.53,3.08,16.48,3.08,21.73,0,10.32-5.36,15.78-15.38,15.78-2.39,0-4.46-.5-4.67-.5-.09-.11-.29-.2-.29-.29,0-.2,.2-.31,.5-.31,4.67-.79,9.32-4.76,9.32-11.1,0-5.36-4.06-11.02-11.5-11.02-6.94,0-11.31,5.66-11.31,12.2m20.74-132.43c.9-3.97,5.46-14.38,10.62-14.38,1.49,0,3.86,4.76,3.86,11.7,0,10.32-7.63,18.06-14.48,24.8-.59-3.97-1.08-7.83-1.08-12,0-3.67,.29-7.05,1.08-10.12m8.73,101.97c-1.98,.4-3.86,.6-5.75,.6-14.18,0-26.29-9.92-26.29-24.91,0-12.09,8.53-22.91,17.27-30.46,1.67-1.49,3.27-2.87,4.76-4.36,.88,5.35,1.58,10.01,2.28,14.09-9.04,2.68-15.17,12.2-15.17,21.53,0,6.94,5.46,16.46,13.39,16.46,.79,0,1.69-.4,1.69-1.29s-.99-1.39-2.19-2.19c-3.88-2.39-6.06-4.96-6.06-9.83,0-6.05,4.57-10.91,10.32-12.29l5.75,32.63m14.09-18.35c0,7.05-2.88,14.29-9.92,17.17-2.08-11.9-4.76-27.68-5.46-32.05,8.93,0,15.38,6.06,15.38,14.88"/><path d="M30.8,828.56c0,6.56,4.96,15.19,18.35,15.19,4.67,0,8.74-1.19,12.31-3.38,5.36-3.77,6.74-10.32,6.74-16.57,0-3.86-.59-8.32-1.58-13.98-.29-1.98-.9-4.96-1.49-8.84,9.72-3.18,16.96-13.3,16.96-23.51,0-14.97-10.62-25.09-25.09-25.09-.99-5.95-1.98-11.81-2.77-17.36,10.42-11.02,17.65-23.42,17.65-39.18,0-9.04-2.77-16.37-4.37-19.95-2.37-5.05-5.25-8.53-7.04-8.53-.7,0-3.77,1.19-7.04,5.05-6.36,7.55-8.14,20.24-8.14,28.57,0,5.36,.5,10.23,2.19,21.34-.11,.09-5.27,5.35-7.35,7.04-9.04,8.34-21.53,20.43-21.53,40.28,0,18.54,16.17,33.12,34.63,33.12,2.87,0,5.55-.29,7.83-.7,1.89,9.53,3.08,16.48,3.08,21.73,0,10.32-5.36,15.78-15.38,15.78-2.39,0-4.46-.5-4.67-.5-.09-.11-.29-.2-.29-.29,0-.2,.2-.31,.5-.31,4.67-.79,9.32-4.76,9.32-11.1,0-5.36-4.06-11.02-11.5-11.02-6.94,0-11.31,5.66-11.31,12.2m20.74-132.43c.9-3.97,5.46-14.38,10.62-14.38,1.49,0,3.86,4.76,3.86,11.7,0,10.32-7.63,18.06-14.48,24.8-.59-3.97-1.08-7.83-1.08-12,0-3.67,.29-7.05,1.08-10.12m8.73,101.97c-1.98,.4-3.86,.6-5.75,.6-14.18,0-26.29-9.92-26.29-24.91,0-12.09,8.53-22.91,17.27-30.46,1.67-1.49,3.27-2.87,4.76-4.36,.88,5.35,1.58,10.01,2.28,14.09-9.04,2.68-15.17,12.2-15.17,21.53,0,6.94,5.46,16.46,13.39,16.46,.79,0,1.69-.4,1.69-1.29s-.99-1.39-2.19-2.19c-3.88-2.39-6.06-4.96-6.06-9.83,0-6.05,4.57-10.91,10.32-12.29l5.75,32.63m14.09-18.35c0,7.05-2.88,14.29-9.92,17.17-2.08-11.9-4.76-27.68-5.46-32.05,8.93,0,15.38,6.06,15.38,14.88"/><path d="M30.8,161.2c0,6.56,4.96,15.19,18.35,15.19,4.67,0,8.74-1.19,12.31-3.38,5.36-3.77,6.74-10.32,6.74-16.57,0-3.86-.59-8.32-1.58-13.98-.29-1.98-.9-4.96-1.49-8.84,9.72-3.18,16.96-13.3,16.96-23.51,0-14.97-10.62-25.09-25.09-25.09-.99-5.95-1.98-11.81-2.77-17.36,10.42-11.02,17.65-23.42,17.65-39.18,0-9.04-2.77-16.37-4.37-19.95-2.37-5.05-5.25-8.53-7.04-8.53-.7,0-3.77,1.19-7.04,5.05-6.36,7.55-8.14,20.24-8.14,28.57,0,5.36,.5,10.23,2.19,21.34-.11,.09-5.27,5.35-7.35,7.04-9.04,8.34-21.53,20.43-21.53,40.28,0,18.54,16.17,33.12,34.63,33.12,2.87,0,5.55-.29,7.83-.7,1.89,9.53,3.08,16.48,3.08,21.73,0,10.32-5.36,15.78-15.38,15.78-2.39,0-4.46-.5-4.67-.5-.09-.11-.29-.2-.29-.29,0-.2,.2-.31,.5-.31,4.67-.79,9.32-4.76,9.32-11.1,0-5.36-4.06-11.02-11.5-11.02-6.94,0-11.31,5.66-11.31,12.2M51.54,28.77c.9-3.97,5.46-14.38,10.62-14.38,1.49,0,3.86,4.76,3.86,11.7,0,10.32-7.63,18.06-14.48,24.8-.59-3.97-1.08-7.83-1.08-12,0-3.67,.29-7.05,1.08-10.12m8.73,101.97c-1.98,.4-3.86,.6-5.75,.6-14.18,0-26.29-9.92-26.29-24.91,0-12.09,8.53-22.91,17.27-30.46,1.67-1.49,3.27-2.87,4.76-4.36,.88,5.35,1.58,10.01,2.28,14.09-9.04,2.68-15.17,12.2-15.17,21.53,0,6.94,5.46,16.46,13.39,16.46,.79,0,1.69-.4,1.69-1.29s-.99-1.39-2.19-2.19c-3.88-2.39-6.06-4.96-6.06-9.83,0-6.05,4.57-10.91,10.32-12.29l5.75,32.63m14.09-18.35c0,7.05-2.88,14.29-9.92,17.17-2.08-11.9-4.76-27.68-5.46-32.05,8.93,0,15.38,6.06,15.38,14.88"/><path d="M118.79,403.82c-4.96,0-7.84,3.07-8.34,3.67l.4-31.85c0-.79-.59-1.38-1.4-1.38h-1.18c-.81,0-1.4,.59-1.4,1.38l.5,59.63c0,.79,.59,1.38,1.4,1.38,.19,0,.59-.09,.79-.19,8.53-4.28,17.45-12.4,17.45-22.63,0-5.15-2.37-10.01-8.23-10.01m-8.63,27.98l.29-19.34c.2-.9,1.69-3.77,5.66-3.77,3.58,0,3.87,3.36,3.87,5.46,0,8.82-3.27,12.49-9.83,17.65"/><path d="M146.36,366.62c-4.96,0-7.84,3.07-8.34,3.67l.4-31.85c0-.79-.59-1.38-1.4-1.38h-1.18c-.81,0-1.4,.59-1.4,1.38l.5,59.63c0,.79,.59,1.38,1.4,1.38,.19,0,.59-.09,.79-.19,8.53-4.28,17.45-12.4,17.45-22.63,0-5.15-2.37-10.01-8.23-10.01m-8.63,27.98l.29-19.34c.2-.9,1.69-3.77,5.66-3.77,3.58,0,3.87,3.36,3.87,5.46,0,8.82-3.27,12.49-9.83,17.65"/><path d="M173.93,416.22c-4.96,0-7.84,3.07-8.34,3.67l.4-31.85c0-.79-.59-1.38-1.4-1.38h-1.18c-.81,0-1.4,.59-1.4,1.38l.5,59.63c0,.79,.59,1.38,1.4,1.38,.19,0,.59-.09,.79-.19,8.53-4.28,17.45-12.4,17.45-22.63,0-5.15-2.37-10.01-8.23-10.01m-8.63,27.98l.29-19.34c.2-.9,1.69-3.77,5.66-3.77,3.58,0,3.87,3.36,3.87,5.46,0,8.82-3.27,12.49-9.83,17.65"/><path d="M201.51,379.02c-4.96,0-7.84,3.07-8.34,3.67l.4-31.85c0-.79-.59-1.38-1.4-1.38h-1.18c-.81,0-1.4,.59-1.4,1.38l.5,59.63c0,.79,.59,1.38,1.4,1.38,.19,0,.59-.09,.79-.19,8.53-4.28,17.45-12.4,17.45-22.63,0-5.15-2.37-10.01-8.23-10.01m-8.63,27.98l.29-19.34c.2-.9,1.69-3.77,5.66-3.77,3.58,0,3.87,3.36,3.87,5.46,0,8.82-3.27,12.49-9.83,17.65"/><path d="M118.79,737.5c-4.96,0-7.84,3.07-8.34,3.67l.4-31.85c0-.79-.59-1.38-1.4-1.38h-1.18c-.81,0-1.4,.59-1.4,1.38l.5,59.63c0,.79,.59,1.38,1.4,1.38,.19,0,.59-.09,.79-.19,8.53-4.28,17.45-12.4,17.45-22.63,0-5.15-2.37-10.01-8.23-10.01m-8.63,27.98l.29-19.34c.2-.9,1.69-3.77,5.66-3.77,3.58,0,3.87,3.36,3.87,5.46,0,8.82-3.27,12.49-9.83,17.65"/><path d="M146.36,700.3c-4.96,0-7.84,3.07-8.34,3.67l.4-31.85c0-.79-.59-1.38-1.4-1.38h-1.18c-.81,0-1.4,.59-1.4,1.38l.5,59.63c0,.79,.59,1.38,1.4,1.38,.19,0,.59-.09,.79-.19,8.53-4.28,17.45-12.4,17.45-22.63,0-5.15-2.37-10.01-8.23-10.01m-8.63,27.98l.29-19.34c.2-.9,1.69-3.77,5.66-3.77,3.58,0,3.87,3.36,3.87,5.46,0,8.82-3.27,12.49-9.83,17.65"/><path d="M173.93,749.9c-4.96,0-7.84,3.07-8.34,3.67l.4-31.85c0-.79-.59-1.38-1.4-1.38h-1.18c-.81,0-1.4,.59-1.4,1.38l.5,59.63c0,.79,.59,1.38,1.4,1.38,.19,0,.59-.09,.79-.19,8.53-4.28,17.45-12.4,17.45-22.63,0-5.15-2.37-10.01-8.23-10.01m-8.63,27.98l.29-19.34c.2-.9,1.69-3.77,5.66-3.77,3.58,0,3.87,3.36,3.87,5.46,0,8.82-3.27,12.49-9.83,17.65"/><path d="M201.51,712.7c-4.96,0-7.84,3.07-8.34,3.67l.4-31.85c0-.79-.59-1.38-1.4-1.38h-1.18c-.81,0-1.4,.59-1.4,1.38l.5,59.63c0,.79,.59,1.38,1.4,1.38,.19,0,.59-.09,.79-.19,8.53-4.28,17.45-12.4,17.45-22.63,0-5.15-2.37-10.01-8.23-10.01m-8.63,27.98l.29-19.34c.2-.9,1.69-3.77,5.66-3.77,3.58,0,3.87,3.36,3.87,5.46,0,8.82-3.27,12.49-9.83,17.65"/><path d="M118.79,70.14c-4.96,0-7.84,3.07-8.34,3.67l.4-31.85c0-.79-.59-1.38-1.4-1.38h-1.18c-.81,0-1.4,.59-1.4,1.38l.5,59.63c0,.79,.59,1.38,1.4,1.38,.19,0,.59-.09,.79-.19,8.53-4.28,17.45-12.4,17.45-22.63,0-5.15-2.37-10.01-8.23-10.01m-8.63,27.98l.29-19.34c.2-.9,1.69-3.77,5.66-3.77,3.58,0,3.87,3.36,3.87,5.46,0,8.82-3.27,12.49-9.83,17.65"/><path d="M146.36,32.94c-4.96,0-7.84,3.07-8.34,3.67l.4-31.85c0-.79-.59-1.38-1.4-1.38h-1.18c-.81,0-1.4,.59-1.4,1.38l.5,59.63c0,.79,.59,1.38,1.4,1.38,.19,0,.59-.09,.79-.19,8.53-4.28,17.45-12.4,17.45-22.63,0-5.15-2.37-10.01-8.23-10.01m-8.63,27.98l.29-19.34c.2-.9,1.69-3.77,5.66-3.77,3.58,0,3.87,3.36,3.87,5.46,0,8.82-3.27,12.49-9.83,17.65"/><path d="M173.93,82.54c-4.96,0-7.84,3.07-8.34,3.67l.4-31.85c0-.79-.59-1.38-1.4-1.38h-1.18c-.81,0-1.4,.59-1.4,1.38l.5,59.63c0,.79,.59,1.38,1.4,1.38,.19,0,.59-.09,.79-.19,8.53-4.28,17.45-12.4,17.45-22.63,0-5.15-2.37-10.01-8.23-10.01m-8.63,27.98l.29-19.34c.2-.9,1.69-3.77,5.66-3.77,3.58,0,3.87,3.36,3.87,5.46,0,8.82-3.27,12.49-9.83,17.65"/><path d="M201.51,45.34c-4.96,0-7.84,3.07-8.34,3.67l.4-31.85c0-.79-.59-1.38-1.4-1.38h-1.18c-.81,0-1.4,.59-1.4,1.38l.5,59.63c0,.79,.59,1.38,1.4,1.38,.19,0,.59-.09,.79-.19,8.53-4.28,17.45-12.4,17.45-22.63,0-5.15-2.37-10.01-8.23-10.01m-8.63,27.98l.29-19.34c.2-.9,1.69-3.77,5.66-3.77,3.58,0,3.87,3.36,3.87,5.46,0,8.82-3.27,12.49-9.83,17.65"/><path d="M985.86,357.19c9.13-6.36,13.28-12.6,13.28-19.75,0-7.53-4.36-12.11-11.01-12.11-4.76,0-7.94,3.38-7.94,7.35,0,4.26,3.67,7.55,7.94,7.55,2.88,0,4.26-.7,4.56-.81,.31-.09,.5-.19,.81-.19,.09,0,.29,0,.39,.09,.2,.09,.29,.4,.29,.99,0,4.26-3.86,9.13-10.71,13.89l2.39,2.98"/><path d="M2329.96,648.96c-9.32-10.12-17.56-10.71-22.71-10.71s-13.3,.59-22.63,10.71c-4.85,5.36-8.23,15.97-8.23,21.33,0,1.89,.4,3.18,1.4,3.18,2.77,0,1.38-8.54,9.72-16.97,7.33-7.33,17.16-7.44,19.55-7.44h.39c2.39,0,12.21,.11,19.55,7.44,8.34,8.43,6.94,16.97,9.72,16.97,.99,0,1.39-1.19,1.39-3.18,0-5.36-3.27-16.07-8.14-21.33m-29.56,18.94c0,3.78,3.07,6.85,6.85,6.85s6.84-3.07,6.84-6.85-3.07-6.84-6.84-6.84-6.85,3.07-6.85,6.84"/><path d="M1816.03,672.25l87.6,6.2v12.44l-87.6-6.2v-12.44" fill-rule="evenodd"/><path d="M2198.82,104.08l65.89-6.2v12.46l-65.89,6.2v-12.46" fill-rule="evenodd"/><path d="M1281.43,814.85l87.6,6.2v12.44l-87.6-6.2v-12.44" fill-rule="evenodd"/><path d="M1956.51,821.05l87.6-6.2v12.44l-87.6,6.2v-12.44" fill-rule="evenodd"/><path d="M1940.21,122.68l65.88,6.2v12.46l-65.88-6.2v-12.46" fill-rule="evenodd"/><path d="M1568.51,431.57l88.15,6.2v12.44l-88.15-6.2v-12.44" fill-rule="evenodd"/><path d="M2076.38,437.77l88.14,6.2v12.44l-88.14-6.2v-12.44" fill-rule="evenodd"/><path d="M1813.41,110.28l65.88-6.2v12.46l-65.88,6.2v-12.46" fill-rule="evenodd"/><path d="M2247.71,437.77l88.14-6.2v12.44l-88.14,6.2v-12.44" fill-rule="evenodd"/><path d="M1060.65,412.97l88.14,6.2v12.44l-88.14-6.2v-12.44" fill-rule="evenodd"/><path d="M776.58,796.25l87.6,6.2v12.44l-87.6-6.2v-12.44" fill-rule="evenodd"/><path d="M1554.79,128.88l65.89,6.2v12.46l-65.89-6.2v-12.46" fill-rule="evenodd"/><path d="M1427.99,128.88l65.88-6.2v12.46l-65.88,6.2v-12.46" fill-rule="evenodd"/><path d="M1451.66,802.45l87.6-6.2v12.44l-87.6,6.2v-12.44" fill-rule="evenodd"/><path d="M1231.98,412.97l88.14-6.2v12.44l-88.14,6.2v-12.44" fill-rule="evenodd"/><path d="M271.74,419.17l88.15-6.2v12.44l-88.15,6.2v-12.44" fill-rule="evenodd"/><path d="M441.97,777.65l87.6-6.2v12.44l-87.6,6.2v-12.44" fill-rule="evenodd"/><path d="M443.07,431.57l88.15,6.2v12.44l-88.15-6.2v-12.44" fill-rule="evenodd"/><path d="M1169.38,147.48l65.88,6.2v12.46l-65.88-6.2v-12.46" fill-rule="evenodd"/><path d="M1739.84,419.17l88.15-6.2v12.44l-88.15,6.2v-12.44" fill-rule="evenodd"/><path d="M1042.57,135.08l65.88-6.2v12.46l-65.88,6.2v-12.46" fill-rule="evenodd"/><path d="M813.71,4.88l65.88,6.2v12.46l-65.88-6.2V4.88" fill-rule="evenodd"/><path d="M657.16,153.68l65.88-6.2v12.46l-65.88,6.2v-12.46" fill-rule="evenodd"/><path d="M428.3,23.48l65.88,6.2v12.46l-65.88-6.2v-12.46" fill-rule="evenodd"/><path d="M301.49,11.08l65.88-6.2v12.46l-65.88,6.2V11.08" fill-rule="evenodd"/><path d="M2325.63,104.08l65.88,6.2v12.46l-65.88-6.2v-12.46" fill-rule="evenodd"/><path d="M271.74,790.05l87.6,6.2v12.44l-87.6-6.2v-12.44" fill-rule="evenodd"/><path d="M946.82,796.25l87.59-6.2v12.44l-87.59,6.2v-12.44" fill-rule="evenodd"/><path d="M824.23,332.39c0,2.77,2.19,4.96,4.96,4.96s4.96-2.19,4.96-4.96-2.19-4.96-4.96-4.96-4.96,2.19-4.96,4.96"/><path d="M2335.76,765.27c0,2.77,2.19,4.96,4.96,4.96s4.96-2.19,4.96-4.96-2.19-4.96-4.96-4.96-4.96,2.19-4.96,4.96"/></g></svg>