<?xml version="1.0" encoding="UTF-8"?><svg id="b" xmlns="http://www.w3.org/2000/svg" viewBox="0 0 2552 561.53"><g id="c"><line y1="50.3" x2="2552" y2="50.3" fill="none" stroke="#000" stroke-linejoin="bevel" stroke-width="2.73"/><line y1="75.1" x2="2552" y2="75.1" fill="none" stroke="#000" stroke-linejoin="bevel" stroke-width="2.73"/><line y1="99.9" x2="2552" y2="99.9" fill="none" stroke="#000" stroke-linejoin="bevel" stroke-width="2.73"/><line y1="124.7" x2="2552" y2="124.7" fill="none" stroke="#000" stroke-linejoin="bevel" stroke-width="2.73"/><line y1="149.5" x2="2552" y2="149.5" fill="none" stroke="#000" stroke-linejoin="bevel" stroke-width="2.73"/><line y1="421.06" x2="2552" y2="421.06" fill="none" stroke="#000" stroke-linejoin="bevel" stroke-width="2.73"/><line y1="445.86" x2="2552" y2="445.86" fill="none" stroke="#000" stroke-linejoin="bevel" stroke-width="2.73"/><line y1="470.66" x2="2552" y2="470.66" fill="none" stroke="#000" stroke-linejoin="bevel" stroke-width="2.73"/><line y1="495.46" x2="2552" y2="495.46" fill="none" stroke="#000" stroke-linejoin="bevel" stroke-width="2.73"/><line y1="520.26" x2="2552" y2="520.26" fill="none" stroke="#000" stroke-linejoin="bevel" stroke-width="2.73"/><line x1="2536.13" y1="419.69" x2="2536.13" y2="521.62" fill="none" stroke="#000" stroke-linejoin="bevel" stroke-width="4.46"/><line x1="2549.77" y1="419.69" x2="2549.77" y2="521.62" fill="none" stroke="#000" stroke-linejoin="bevel" stroke-width="4.46"/><line x1="2549.77" y1="48.94" x2="2549.77" y2="150.87" fill="none" stroke="#000" stroke-linejoin="bevel" stroke-width="4.46"/><line x1="2065.61" y1="48.94" x2="2065.61" y2="150.87" fill="none" stroke="#000" stroke-linejoin="bevel" stroke-width="4.46"/><line x1="843.11" y1="419.69" x2="843.11" y2="521.62" fill="none" stroke="#000" stroke-linejoin="bevel" stroke-width="4.46"/><line x1="846.71" y1="48.94" x2="846.71" y2="150.87" fill="none" stroke="#000" stroke-linejoin="bevel" stroke-width="4.46"/><line x1="1456.16" y1="48.94" x2="1456.16" y2="150.87" fill="none" stroke="#000" stroke-linejoin="bevel" stroke-width="4.46"/><line x1="1448.95" y1="419.69" x2="1448.95" y2="521.62" fill="none" stroke="#000" stroke-linejoin="bevel" stroke-width="4.46"/><line x1="2054.79" y1="419.69" x2="2054.79" y2="521.62" fill="none" stroke="#000" stroke-linejoin="bevel" stroke-width="4.46"/><line x1="2235.09" y1="25.5" x2="2283.69" y2="25.5" fill="none" stroke="#000" stroke-linejoin="bevel" stroke-width="3.97"/><line x1="1912.01" y1="25.5" x2="1960.61" y2="25.5" fill="none" stroke="#000" stroke-linejoin="bevel" stroke-width="3.97"/><line x1="2163.49" y1="25.5" x2="2212.09" y2="25.5" fill="none" stroke="#000" stroke-linejoin="bevel" stroke-width="3.97"/><line x1="263.56" y1="396.26" x2="312.16" y2="396.26" fill="none" stroke="#000" stroke-linejoin="bevel" stroke-width="3.97"/><line x1="476.99" y1="396.26" x2="525.58" y2="396.26" fill="none" stroke="#000" stroke-linejoin="bevel" stroke-width="3.97"/><line x1="2378.27" y1="25.5" x2="2426.87" y2="25.5" fill="none" stroke="#000" stroke-linejoin="bevel" stroke-width="3.97"/><line x1="770.97" y1="412.82" x2="770.97" y2="514.06" fill="none" stroke="#000" stroke-linejoin="bevel" stroke-width="2.48"/><line x1="702.54" y1="79.27" x2="702.54" y2="168.1" fill="none" stroke="#000" stroke-linejoin="bevel" stroke-width="2.48"/><line x1="2172.92" y1="29.67" x2="2172.92" y2="118.5" fill="none" stroke="#000" stroke-linejoin="bevel" stroke-width="2.48"/><line x1="774.13" y1="104.07" x2="774.13" y2="168.1" fill="none" stroke="#000" stroke-linejoin="bevel" stroke-width="2.48"/><line x1="882.43" y1="91.67" x2="882.43" y2="155.7" fill="none" stroke="#000" stroke-linejoin="bevel" stroke-width="2.48"/><line x1="1021.11" y1="450.02" x2="1021.11" y2="520.26" fill="none" stroke="#000" stroke-linejoin="bevel" stroke-width="2.48"/><line x1="954.02" y1="79.27" x2="954.02" y2="155.7" fill="none" stroke="#000" stroke-linejoin="bevel" stroke-width="2.48"/><line x1="486.41" y1="400.42" x2="486.41" y2="495.46" fill="none" stroke="#000" stroke-linejoin="bevel" stroke-width="2.48"/><line x1="1025.61" y1="66.87" x2="1025.61" y2="155.7" fill="none" stroke="#000" stroke-linejoin="bevel" stroke-width="2.48"/><line x1="2244.51" y1="17.27" x2="2244.51" y2="118.5" fill="none" stroke="#000" stroke-linejoin="bevel" stroke-width="2.48"/><line x1="1097.21" y1="91.67" x2="1097.21" y2="155.7" fill="none" stroke="#000" stroke-linejoin="bevel" stroke-width="2.48"/><line x1="1168.8" y1="79.27" x2="1168.8" y2="149.5" fill="none" stroke="#000" stroke-linejoin="bevel" stroke-width="2.48"/><line x1="415.27" y1="425.22" x2="415.27" y2="495.46" fill="none" stroke="#000" stroke-linejoin="bevel" stroke-width="2.48"/><line x1="2404.82" y1="479.09" x2="2404.82" y2="402.46" fill="none" stroke="#000" stroke-linejoin="bevel" stroke-width="2.48"/><line x1="2333.68" y1="466.69" x2="2333.68" y2="402.46" fill="none" stroke="#000" stroke-linejoin="bevel" stroke-width="2.48"/><line x1="2262.54" y1="491.49" x2="2262.54" y2="402.46" fill="none" stroke="#000" stroke-linejoin="bevel" stroke-width="2.48"/><line x1="949.96" y1="437.62" x2="949.96" y2="520.26" fill="none" stroke="#000" stroke-linejoin="bevel" stroke-width="2.48"/><line x1="2191.4" y1="479.09" x2="2191.4" y2="402.46" fill="none" stroke="#000" stroke-linejoin="bevel" stroke-width="2.48"/><line x1="1240.39" y1="66.87" x2="1240.39" y2="149.5" fill="none" stroke="#000" stroke-linejoin="bevel" stroke-width="2.48"/><line x1="2316.1" y1="42.07" x2="2316.1" y2="118.5" fill="none" stroke="#000" stroke-linejoin="bevel" stroke-width="2.48"/><line x1="1311.98" y1="54.47" x2="1311.98" y2="149.5" fill="none" stroke="#000" stroke-linejoin="bevel" stroke-width="2.48"/><line x1="2120.26" y1="466.69" x2="2120.26" y2="402.46" fill="none" stroke="#000" stroke-linejoin="bevel" stroke-width="2.48"/><line x1="1383.58" y1="79.27" x2="1383.58" y2="149.5" fill="none" stroke="#000" stroke-linejoin="bevel" stroke-width="2.48"/><line x1="2387.69" y1="29.67" x2="2387.69" y2="112.3" fill="none" stroke="#000" stroke-linejoin="bevel" stroke-width="2.48"/><line x1="1491.88" y1="66.87" x2="1491.88" y2="143.3" fill="none" stroke="#000" stroke-linejoin="bevel" stroke-width="2.48"/><line x1="1921.43" y1="29.67" x2="1921.43" y2="124.7" fill="none" stroke="#000" stroke-linejoin="bevel" stroke-width="2.48"/><line x1="1698.09" y1="450.02" x2="1698.09" y2="538.86" fill="none" stroke="#000" stroke-linejoin="bevel" stroke-width="2.48"/><line x1="628.69" y1="425.22" x2="628.69" y2="514.06" fill="none" stroke="#000" stroke-linejoin="bevel" stroke-width="2.48"/><line x1="1993.02" y1="54.47" x2="1993.02" y2="124.7" fill="none" stroke="#000" stroke-linejoin="bevel" stroke-width="2.48"/><line x1="557.55" y1="412.82" x2="557.55" y2="514.06" fill="none" stroke="#000" stroke-linejoin="bevel" stroke-width="2.48"/><line x1="1626.95" y1="474.82" x2="1626.95" y2="538.86" fill="none" stroke="#000" stroke-linejoin="bevel" stroke-width="2.48"/><line x1="1555.8" y1="462.42" x2="1555.8" y2="538.86" fill="none" stroke="#000" stroke-linejoin="bevel" stroke-width="2.48"/><line x1="1911.51" y1="487.22" x2="1911.51" y2="551.26" fill="none" stroke="#000" stroke-linejoin="bevel" stroke-width="2.48"/><line x1="1484.66" y1="450.02" x2="1484.66" y2="538.86" fill="none" stroke="#000" stroke-linejoin="bevel" stroke-width="2.48"/><line x1="1840.37" y1="474.82" x2="1840.37" y2="551.26" fill="none" stroke="#000" stroke-linejoin="bevel" stroke-width="2.48"/><line x1="1982.65" y1="462.42" x2="1982.65" y2="551.26" fill="none" stroke="#000" stroke-linejoin="bevel" stroke-width="2.48"/><line x1="1376.81" y1="437.62" x2="1376.81" y2="526.46" fill="none" stroke="#000" stroke-linejoin="bevel" stroke-width="2.48"/><line x1="1305.67" y1="462.42" x2="1305.67" y2="526.46" fill="none" stroke="#000" stroke-linejoin="bevel" stroke-width="2.48"/><line x1="1234.53" y1="450.02" x2="1234.53" y2="526.46" fill="none" stroke="#000" stroke-linejoin="bevel" stroke-width="2.48"/><line x1="272.98" y1="116.47" x2="272.98" y2="180.5" fill="none" stroke="#000" stroke-linejoin="bevel" stroke-width="2.48"/><line x1="699.83" y1="437.62" x2="699.83" y2="514.06" fill="none" stroke="#000" stroke-linejoin="bevel" stroke-width="2.48"/><line x1="1163.39" y1="437.62" x2="1163.39" y2="526.46" fill="none" stroke="#000" stroke-linejoin="bevel" stroke-width="2.48"/><line x1="1778.25" y1="54.47" x2="1778.25" y2="124.7" fill="none" stroke="#000" stroke-linejoin="bevel" stroke-width="2.48"/><line x1="344.57" y1="104.07" x2="344.57" y2="180.5" fill="none" stroke="#000" stroke-linejoin="bevel" stroke-width="2.48"/><line x1="1635.06" y1="42.07" x2="1635.06" y2="143.3" fill="none" stroke="#000" stroke-linejoin="bevel" stroke-width="2.48"/><line x1="344.13" y1="412.82" x2="344.13" y2="495.46" fill="none" stroke="#000" stroke-linejoin="bevel" stroke-width="2.48"/><line x1="1849.84" y1="42.07" x2="1849.84" y2="124.7" fill="none" stroke="#000" stroke-linejoin="bevel" stroke-width="2.48"/><line x1="1563.47" y1="54.47" x2="1563.47" y2="143.3" fill="none" stroke="#000" stroke-linejoin="bevel" stroke-width="2.48"/><line x1="878.82" y1="425.22" x2="878.82" y2="520.26" fill="none" stroke="#000" stroke-linejoin="bevel" stroke-width="2.48"/><line x1="416.17" y1="91.67" x2="416.17" y2="180.5" fill="none" stroke="#000" stroke-linejoin="bevel" stroke-width="2.48"/><line x1="487.76" y1="116.47" x2="487.76" y2="180.5" fill="none" stroke="#000" stroke-linejoin="bevel" stroke-width="2.48"/><line x1="1706.65" y1="66.87" x2="1706.65" y2="143.3" fill="none" stroke="#000" stroke-linejoin="bevel" stroke-width="2.48"/><line x1="2101.32" y1="42.07" x2="2101.32" y2="118.5" fill="none" stroke="#000" stroke-linejoin="bevel" stroke-width="2.48"/><line x1="559.35" y1="104.07" x2="559.35" y2="168.1" fill="none" stroke="#000" stroke-linejoin="bevel" stroke-width="2.48"/><line x1="272.98" y1="400.42" x2="272.98" y2="495.46" fill="none" stroke="#000" stroke-linejoin="bevel" stroke-width="2.48"/><line x1="1092.25" y1="425.22" x2="1092.25" y2="520.26" fill="none" stroke="#000" stroke-linejoin="bevel" stroke-width="2.48"/><line x1="630.94" y1="91.67" x2="630.94" y2="168.1" fill="none" stroke="#000" stroke-linejoin="bevel" stroke-width="2.48"/><line x1="1769.23" y1="462.42" x2="1769.23" y2="551.26" fill="none" stroke="#000" stroke-linejoin="bevel" stroke-width="2.48"/><path d="M948.72,437.63c0,4.26,3.07,9.02,11.11,9.02,10.31,0,21.13-8.43,21.13-17.16,0-5.86-4.96-9.13-11.11-9.13-9.63,0-21.13,8.14-21.13,17.27"/><path d="M1019.87,450.03c0,4.26,3.07,9.02,11.11,9.02,10.31,0,21.13-8.43,21.13-17.16,0-5.86-4.96-9.13-11.11-9.13-9.63,0-21.13,8.14-21.13,17.27"/><path d="M1091.01,425.23c0,4.26,3.07,9.02,11.11,9.02,10.31,0,21.13-8.43,21.13-17.16,0-5.86-4.96-9.13-11.11-9.13-9.63,0-21.13,8.14-21.13,17.27"/><path d="M1162.15,437.63c0,4.26,3.07,9.02,11.11,9.02,10.31,0,21.13-8.43,21.13-17.16,0-5.86-4.96-9.13-11.11-9.13-9.63,0-21.13,8.14-21.13,17.27"/><path d="M1233.29,450.03c0,4.26,3.07,9.02,11.11,9.02,10.31,0,21.13-8.43,21.13-17.16,0-5.86-4.96-9.13-11.11-9.13-9.63,0-21.13,8.14-21.13,17.27"/><path d="M1304.43,462.43c0,4.26,3.07,9.02,11.11,9.02,10.31,0,21.13-8.43,21.13-17.16,0-5.86-4.96-9.13-11.11-9.13-9.63,0-21.13,8.14-21.13,17.27"/><path d="M1375.57,437.63c0,4.26,3.07,9.02,11.11,9.02,10.31,0,21.13-8.43,21.13-17.16,0-5.86-4.96-9.13-11.11-9.13-9.63,0-21.13,8.14-21.13,17.27"/><path d="M1483.42,450.03c0,4.26,3.07,9.02,11.11,9.02,10.31,0,21.13-8.43,21.13-17.16,0-5.86-4.96-9.13-11.11-9.13-9.63,0-21.13,8.14-21.13,17.27"/><path d="M1554.56,462.43c0,4.26,3.07,9.02,11.11,9.02,10.31,0,21.13-8.43,21.13-17.16,0-5.86-4.96-9.13-11.11-9.13-9.63,0-21.13,8.14-21.13,17.27"/><path d="M1625.71,474.83c0,4.26,3.07,9.02,11.11,9.02,10.31,0,21.13-8.43,21.13-17.16,0-5.86-4.96-9.13-11.11-9.13-9.63,0-21.13,8.14-21.13,17.27"/><path d="M1696.85,450.03c0,4.26,3.07,9.02,11.11,9.02,10.31,0,21.13-8.43,21.13-17.16,0-5.86-4.96-9.13-11.11-9.13-9.63,0-21.13,8.14-21.13,17.27"/><path d="M1767.99,462.43c0,4.26,3.07,9.02,11.11,9.02,10.31,0,21.13-8.43,21.13-17.16,0-5.86-4.96-9.13-11.11-9.13-9.63,0-21.13,8.14-21.13,17.27"/><path d="M1839.13,474.83c0,4.26,3.07,9.02,11.11,9.02,10.31,0,21.13-8.43,21.13-17.16,0-5.86-4.96-9.13-11.11-9.13-9.63,0-21.13,8.14-21.13,17.27"/><path d="M1910.27,487.23c0,4.26,3.07,9.02,11.11,9.02,10.31,0,21.13-8.43,21.13-17.16,0-5.86-4.96-9.13-11.11-9.13-9.63,0-21.13,8.14-21.13,17.27"/><path d="M1981.41,462.43c0,4.26,3.07,9.02,11.11,9.02,10.31,0,21.13-8.43,21.13-17.16,0-5.86-4.96-9.13-11.11-9.13-9.63,0-21.13,8.14-21.13,17.27"/><path d="M2089.26,474.83c0,4.26,3.07,9.02,11.11,9.02,10.31,0,21.13-8.43,21.13-17.16,0-5.86-4.96-9.13-11.11-9.13-9.63,0-21.13,8.14-21.13,17.27"/><path d="M2160.4,487.23c0,4.26,3.07,9.02,11.11,9.02,10.31,0,21.13-8.43,21.13-17.16,0-5.86-4.96-9.13-11.11-9.13-9.63,0-21.13,8.14-21.13,17.27"/><path d="M2231.55,499.63c0,4.26,3.07,9.02,11.11,9.02,10.31,0,21.13-8.43,21.13-17.16,0-5.86-4.96-9.13-11.11-9.13-9.63,0-21.13,8.14-21.13,17.27"/><path d="M2302.69,474.83c0,4.26,3.07,9.02,11.11,9.02,10.31,0,21.13-8.43,21.13-17.16,0-5.86-4.96-9.13-11.11-9.13-9.63,0-21.13,8.14-21.13,17.27"/><path d="M2394.96,469.96c-9.63,0-21.13,8.04-21.13,17.27,0,4.26,3.07,9.02,11.11,9.02,10.31,0,21.13-8.43,21.13-17.16,0-5.86-4.96-9.13-11.11-9.13m-13.69,21.62c-3.27,0-3.97-2.67-3.97-3.56,0-4.87,16.66-13.39,21.33-13.39,2.39,0,3.97,1.39,3.97,3.56,0,4.96-16.77,13.39-21.33,13.39"/><path d="M952.78,79.27c0,4.26,3.07,9.02,11.11,9.02,10.31,0,21.13-8.43,21.13-17.16,0-5.86-4.96-9.13-11.11-9.13-9.63,0-21.13,8.14-21.13,17.27"/><path d="M271.74,116.47c0,4.26,3.07,9.02,11.11,9.02,10.31,0,21.13-8.43,21.13-17.16,0-5.86-4.96-9.13-11.11-9.13-9.63,0-21.13,8.14-21.13,17.27"/><path d="M343.33,104.07c0,4.26,3.07,9.02,11.11,9.02,10.31,0,21.13-8.43,21.13-17.16,0-5.86-4.96-9.13-11.11-9.13-9.63,0-21.13,8.14-21.13,17.27"/><path d="M414.93,91.67c0,4.26,3.07,9.02,11.11,9.02,10.31,0,21.13-8.43,21.13-17.16,0-5.86-4.96-9.13-11.11-9.13-9.63,0-21.13,8.14-21.13,17.27"/><path d="M486.52,116.47c0,4.26,3.07,9.02,11.11,9.02,10.31,0,21.13-8.43,21.13-17.16,0-5.86-4.96-9.13-11.11-9.13-9.63,0-21.13,8.14-21.13,17.27"/><path d="M558.11,104.07c0,4.26,3.07,9.02,11.11,9.02,10.31,0,21.13-8.43,21.13-17.16,0-5.86-4.96-9.13-11.11-9.13-9.63,0-21.13,8.14-21.13,17.27"/><path d="M629.7,91.67c0,4.26,3.07,9.02,11.11,9.02,10.31,0,21.13-8.43,21.13-17.16,0-5.86-4.96-9.13-11.11-9.13-9.63,0-21.13,8.14-21.13,17.27"/><path d="M701.3,79.27c0,4.26,3.07,9.02,11.11,9.02,10.31,0,21.13-8.43,21.13-17.16,0-5.86-4.96-9.13-11.11-9.13-9.63,0-21.13,8.14-21.13,17.27"/><path d="M772.89,104.07c0,4.26,3.07,9.02,11.11,9.02,10.31,0,21.13-8.43,21.13-17.16,0-5.86-4.96-9.13-11.11-9.13-9.63,0-21.13,8.14-21.13,17.27"/><path d="M881.19,91.67c0,4.26,3.07,9.02,11.11,9.02,10.31,0,21.13-8.43,21.13-17.16,0-5.86-4.96-9.13-11.11-9.13-9.63,0-21.13,8.14-21.13,17.27"/><path d="M1024.37,66.87c0,4.26,3.07,9.02,11.11,9.02,10.31,0,21.13-8.43,21.13-17.16,0-5.86-4.96-9.13-11.11-9.13-9.63,0-21.13,8.14-21.13,17.27"/><path d="M1095.97,91.67c0,4.26,3.07,9.02,11.11,9.02,10.31,0,21.13-8.43,21.13-17.16,0-5.86-4.96-9.13-11.11-9.13-9.63,0-21.13,8.14-21.13,17.27"/><path d="M1167.56,79.27c0,4.26,3.07,9.02,11.11,9.02,10.31,0,21.13-8.43,21.13-17.16,0-5.86-4.96-9.13-11.11-9.13-9.63,0-21.13,8.14-21.13,17.27"/><path d="M1239.15,66.87c0,4.26,3.07,9.02,11.11,9.02,10.31,0,21.13-8.43,21.13-17.16,0-5.86-4.96-9.13-11.11-9.13-9.63,0-21.13,8.14-21.13,17.27"/><path d="M1310.74,54.47c0,4.26,3.07,9.02,11.11,9.02,10.31,0,21.13-8.43,21.13-17.16,0-5.86-4.96-9.13-11.11-9.13-9.63,0-21.13,8.14-21.13,17.27"/><path d="M1382.34,79.27c0,4.26,3.07,9.02,11.11,9.02,10.31,0,21.13-8.43,21.13-17.16,0-5.86-4.96-9.13-11.11-9.13-9.63,0-21.13,8.14-21.13,17.27"/><path d="M1490.64,66.87c0,4.26,3.07,9.02,11.11,9.02,10.31,0,21.13-8.43,21.13-17.16,0-5.86-4.96-9.13-11.11-9.13-9.63,0-21.13,8.14-21.13,17.27"/><path d="M1562.23,54.47c0,4.26,3.07,9.02,11.11,9.02,10.31,0,21.13-8.43,21.13-17.16,0-5.86-4.96-9.13-11.11-9.13-9.63,0-21.13,8.14-21.13,17.27"/><path d="M1633.82,42.07c0,4.26,3.07,9.02,11.11,9.02,10.31,0,21.13-8.43,21.13-17.16,0-5.86-4.96-9.13-11.11-9.13-9.63,0-21.13,8.14-21.13,17.27"/><path d="M1705.41,66.87c0,4.26,3.07,9.02,11.11,9.02,10.31,0,21.13-8.43,21.13-17.16,0-5.86-4.96-9.13-11.11-9.13-9.63,0-21.13,8.14-21.13,17.27"/><path d="M1777.01,54.47c0,4.26,3.07,9.02,11.11,9.02,10.31,0,21.13-8.43,21.13-17.16,0-5.86-4.96-9.13-11.11-9.13-9.63,0-21.13,8.14-21.13,17.27"/><path d="M1848.6,42.07c0,4.26,3.07,9.02,11.11,9.02,10.31,0,21.13-8.43,21.13-17.16,0-5.86-4.96-9.13-11.11-9.13-9.63,0-21.13,8.14-21.13,17.27"/><path d="M1920.19,29.67c0,4.26,3.07,9.02,11.11,9.02,10.31,0,21.13-8.43,21.13-17.16,0-5.86-4.96-9.13-11.11-9.13-9.63,0-21.13,8.14-21.13,17.27"/><path d="M1991.78,54.47c0,4.26,3.07,9.02,11.11,9.02,10.31,0,21.13-8.43,21.13-17.16,0-5.86-4.96-9.13-11.11-9.13-9.63,0-21.13,8.14-21.13,17.27"/><path d="M2100.08,42.07c0,4.26,3.07,9.02,11.11,9.02,10.31,0,21.13-8.43,21.13-17.16,0-5.86-4.96-9.13-11.11-9.13-9.63,0-21.13,8.14-21.13,17.27"/><path d="M2171.68,29.67c0,4.26,3.07,9.02,11.11,9.02,10.31,0,21.13-8.43,21.13-17.16,0-5.86-4.96-9.13-11.11-9.13-9.63,0-21.13,8.14-21.13,17.27"/><path d="M2243.27,17.27c0,4.26,3.07,9.02,11.11,9.02,10.31,0,21.13-8.43,21.13-17.16,0-5.86-4.96-9.13-11.11-9.13-9.63,0-21.13,8.14-21.13,17.27"/><path d="M2314.86,42.07c0,4.26,3.07,9.02,11.11,9.02,10.31,0,21.13-8.43,21.13-17.16,0-5.86-4.96-9.13-11.11-9.13-9.63,0-21.13,8.14-21.13,17.27"/><path d="M2407.58,12.4c-9.63,0-21.13,8.04-21.13,17.27,0,4.26,3.07,9.02,11.11,9.02,10.31,0,21.13-8.43,21.13-17.16,0-5.86-4.96-9.13-11.11-9.13m-13.69,21.62c-3.27,0-3.97-2.67-3.97-3.56,0-4.87,16.66-13.39,21.33-13.39,2.39,0,3.97,1.39,3.97,3.56,0,4.96-16.77,13.39-21.33,13.39"/><path d="M271.74,400.43c0,4.26,3.07,9.02,11.11,9.02,10.31,0,21.13-8.43,21.13-17.16,0-5.86-4.96-9.13-11.11-9.13-9.63,0-21.13,8.14-21.13,17.27"/><path d="M342.89,412.83c0,4.26,3.07,9.02,11.11,9.02,10.31,0,21.13-8.43,21.13-17.16,0-5.86-4.96-9.13-11.11-9.13-9.63,0-21.13,8.14-21.13,17.27"/><path d="M414.03,425.23c0,4.26,3.07,9.02,11.11,9.02,10.31,0,21.13-8.43,21.13-17.16,0-5.86-4.96-9.13-11.11-9.13-9.63,0-21.13,8.14-21.13,17.27"/><path d="M485.17,400.43c0,4.26,3.07,9.02,11.11,9.02,10.31,0,21.13-8.43,21.13-17.16,0-5.86-4.96-9.13-11.11-9.13-9.63,0-21.13,8.14-21.13,17.27"/><path d="M556.31,412.83c0,4.26,3.07,9.02,11.11,9.02,10.31,0,21.13-8.43,21.13-17.16,0-5.86-4.96-9.13-11.11-9.13-9.63,0-21.13,8.14-21.13,17.27"/><path d="M627.45,425.23c0,4.26,3.07,9.02,11.11,9.02,10.31,0,21.13-8.43,21.13-17.16,0-5.86-4.96-9.13-11.11-9.13-9.63,0-21.13,8.14-21.13,17.27"/><path d="M698.59,437.63c0,4.26,3.07,9.02,11.11,9.02,10.31,0,21.13-8.43,21.13-17.16,0-5.86-4.96-9.13-11.11-9.13-9.63,0-21.13,8.14-21.13,17.27"/><path d="M769.74,412.83c0,4.26,3.07,9.02,11.11,9.02,10.31,0,21.13-8.43,21.13-17.16,0-5.86-4.96-9.13-11.11-9.13-9.63,0-21.13,8.14-21.13,17.27"/><path d="M877.58,425.23c0,4.26,3.07,9.02,11.11,9.02,10.31,0,21.13-8.43,21.13-17.16,0-5.86-4.96-9.13-11.11-9.13-9.63,0-21.13,8.14-21.13,17.27"/><path d="M30.8,175.58c0,6.56,4.96,15.19,18.35,15.19,4.67,0,8.74-1.19,12.31-3.38,5.36-3.77,6.74-10.32,6.74-16.57,0-3.86-.59-8.32-1.58-13.98-.29-1.98-.9-4.96-1.49-8.84,9.72-3.18,16.96-13.3,16.96-23.51,0-14.97-10.62-25.09-25.09-25.09-.99-5.95-1.98-11.81-2.77-17.36,10.42-11.02,17.65-23.42,17.65-39.18,0-9.04-2.77-16.37-4.37-19.95-2.37-5.05-5.25-8.53-7.04-8.53-.7,0-3.77,1.19-7.04,5.05-6.36,7.55-8.14,20.24-8.14,28.57,0,5.36,.5,10.23,2.19,21.34-.11,.09-5.27,5.35-7.35,7.04-9.04,8.34-21.53,20.43-21.53,40.28,0,18.54,16.17,33.12,34.63,33.12,2.87,0,5.55-.29,7.83-.7,1.89,9.53,3.08,16.48,3.08,21.73,0,10.32-5.36,15.78-15.38,15.78-2.39,0-4.46-.5-4.67-.5-.09-.11-.29-.2-.29-.29,0-.2,.2-.31,.5-.31,4.67-.79,9.32-4.76,9.32-11.1,0-5.36-4.06-11.02-11.5-11.02-6.94,0-11.31,5.66-11.31,12.2M51.54,43.15c.9-3.97,5.46-14.38,10.62-14.38,1.49,0,3.86,4.76,3.86,11.7,0,10.32-7.63,18.06-14.48,24.8-.59-3.97-1.08-7.83-1.08-12,0-3.67,.29-7.05,1.08-10.12m8.73,101.97c-1.98,.4-3.86,.6-5.75,.6-14.18,0-26.29-9.92-26.29-24.91,0-12.09,8.53-22.91,17.27-30.46,1.67-1.49,3.27-2.87,4.76-4.36,.88,5.35,1.58,10.01,2.28,14.09-9.04,2.68-15.17,12.2-15.17,21.53,0,6.94,5.46,16.46,13.39,16.46,.79,0,1.69-.4,1.69-1.29s-.99-1.39-2.19-2.19c-3.88-2.39-6.06-4.96-6.06-9.83,0-6.04,4.57-10.91,10.32-12.29l5.75,32.63m14.09-18.35c0,7.05-2.88,14.29-9.92,17.17-2.08-11.9-4.76-27.68-5.46-32.05,8.93,0,15.38,6.06,15.38,14.88"/><path d="M30.8,546.34c0,6.56,4.96,15.19,18.35,15.19,4.67,0,8.74-1.19,12.31-3.38,5.36-3.77,6.74-10.32,6.74-16.57,0-3.86-.59-8.32-1.58-13.98-.29-1.98-.9-4.96-1.49-8.84,9.72-3.18,16.96-13.3,16.96-23.51,0-14.97-10.62-25.09-25.09-25.09-.99-5.95-1.98-11.81-2.77-17.36,10.42-11.02,17.65-23.42,17.65-39.18,0-9.04-2.77-16.37-4.37-19.95-2.37-5.05-5.25-8.53-7.04-8.53-.7,0-3.77,1.19-7.04,5.05-6.36,7.55-8.14,20.24-8.14,28.57,0,5.36,.5,10.23,2.19,21.34-.11,.09-5.27,5.35-7.35,7.04-9.04,8.34-21.53,20.43-21.53,40.28,0,18.54,16.17,33.12,34.63,33.12,2.87,0,5.55-.29,7.83-.7,1.89,9.53,3.08,16.48,3.08,21.73,0,10.32-5.36,15.78-15.38,15.78-2.39,0-4.46-.5-4.67-.5-.09-.11-.29-.2-.29-.29,0-.2,.2-.31,.5-.31,4.67-.79,9.32-4.76,9.32-11.1,0-5.36-4.06-11.02-11.5-11.02-6.94,0-11.31,5.66-11.31,12.2m20.74-132.43c.9-3.97,5.46-14.38,10.62-14.38,1.49,0,3.86,4.76,3.86,11.7,0,10.32-7.63,18.06-14.48,24.8-.59-3.97-1.08-7.83-1.08-12,0-3.67,.29-7.05,1.08-10.12m8.73,101.97c-1.98,.4-3.86,.6-5.75,.6-14.18,0-26.29-9.92-26.29-24.91,0-12.09,8.53-22.91,17.27-30.46,1.67-1.49,3.27-2.87,4.76-4.36,.88,5.35,1.58,10.01,2.28,14.09-9.04,2.68-15.17,12.2-15.17,21.53,0,6.94,5.46,16.46,13.39,16.46,.79,0,1.69-.4,1.69-1.29s-.99-1.39-2.19-2.19c-3.88-2.39-6.06-4.96-6.06-9.83,0-6.04,4.57-10.91,10.32-12.29l5.75,32.63m14.09-18.35c0,7.05-2.88,14.29-9.92,17.17-2.08-11.9-4.76-27.68-5.46-32.05,8.93,0,15.38,6.06,15.38,14.88"/><path d="M118.79,455.28c-4.96,0-7.84,3.07-8.34,3.67l.4-31.85c0-.79-.59-1.38-1.39-1.38h-1.18c-.81,0-1.39,.59-1.39,1.38l.5,59.63c0,.79,.59,1.38,1.39,1.38,.19,0,.59-.09,.79-.19,8.53-4.28,17.45-12.4,17.45-22.63,0-5.15-2.37-10.01-8.23-10.01m-8.63,27.98l.29-19.34c.2-.9,1.69-3.77,5.66-3.77,3.58,0,3.87,3.36,3.87,5.46,0,8.82-3.27,12.49-9.83,17.65"/><path d="M146.36,418.08c-4.96,0-7.84,3.07-8.34,3.67l.4-31.85c0-.79-.59-1.38-1.39-1.38h-1.18c-.81,0-1.39,.59-1.39,1.38l.5,59.63c0,.79,.59,1.38,1.39,1.38,.19,0,.59-.09,.79-.19,8.53-4.28,17.45-12.4,17.45-22.63,0-5.15-2.37-10.01-8.23-10.01m-8.63,27.98l.29-19.34c.2-.9,1.69-3.77,5.66-3.77,3.58,0,3.87,3.36,3.87,5.46,0,8.82-3.27,12.49-9.83,17.65"/><path d="M173.94,467.68c-4.96,0-7.84,3.07-8.34,3.67l.4-31.85c0-.79-.59-1.38-1.39-1.38h-1.18c-.81,0-1.39,.59-1.39,1.38l.5,59.63c0,.79,.59,1.38,1.39,1.38,.19,0,.59-.09,.79-.19,8.53-4.28,17.45-12.4,17.45-22.63,0-5.15-2.37-10.01-8.23-10.01m-8.63,27.98l.29-19.34c.2-.9,1.69-3.77,5.66-3.77,3.58,0,3.87,3.36,3.87,5.46,0,8.82-3.27,12.49-9.83,17.65"/><path d="M201.5,430.48c-4.96,0-7.84,3.07-8.34,3.67l.4-31.85c0-.79-.59-1.38-1.39-1.38h-1.18c-.81,0-1.39,.59-1.39,1.38l.5,59.63c0,.79,.59,1.38,1.39,1.38,.19,0,.59-.09,.79-.19,8.53-4.28,17.45-12.4,17.45-22.63,0-5.15-2.37-10.01-8.23-10.01m-8.63,27.98l.29-19.34c.2-.9,1.69-3.77,5.66-3.77,3.58,0,3.87,3.36,3.87,5.46,0,8.82-3.27,12.49-9.83,17.65"/><path d="M118.79,84.52c-4.96,0-7.84,3.07-8.34,3.67l.4-31.85c0-.79-.59-1.38-1.39-1.38h-1.18c-.81,0-1.39,.59-1.39,1.38l.5,59.63c0,.79,.59,1.38,1.39,1.38,.19,0,.59-.09,.79-.19,8.53-4.28,17.45-12.4,17.45-22.63,0-5.15-2.37-10.01-8.23-10.01m-8.63,27.98l.29-19.34c.2-.9,1.69-3.77,5.66-3.77,3.58,0,3.87,3.36,3.87,5.46,0,8.82-3.27,12.49-9.83,17.65"/><path d="M146.36,47.32c-4.96,0-7.84,3.07-8.34,3.67l.4-31.85c0-.79-.59-1.38-1.39-1.38h-1.18c-.81,0-1.39,.59-1.39,1.38l.5,59.63c0,.79,.59,1.38,1.39,1.38,.19,0,.59-.09,.79-.19,8.53-4.28,17.45-12.4,17.45-22.63,0-5.15-2.37-10.01-8.23-10.01m-8.63,27.98l.29-19.34c.2-.9,1.69-3.77,5.66-3.77,3.58,0,3.87,3.36,3.87,5.46,0,8.82-3.27,12.49-9.83,17.65"/><path d="M173.94,96.92c-4.96,0-7.84,3.07-8.34,3.67l.4-31.85c0-.79-.59-1.38-1.39-1.38h-1.18c-.81,0-1.39,.59-1.39,1.38l.5,59.63c0,.79,.59,1.38,1.39,1.38,.19,0,.59-.09,.79-.19,8.53-4.28,17.45-12.4,17.45-22.63,0-5.15-2.37-10.01-8.23-10.01m-8.63,27.98l.29-19.34c.2-.9,1.69-3.77,5.66-3.77,3.58,0,3.87,3.36,3.87,5.46,0,8.82-3.27,12.49-9.83,17.65"/><path d="M201.5,59.72c-4.96,0-7.84,3.07-8.34,3.67l.4-31.85c0-.79-.59-1.38-1.39-1.38h-1.18c-.81,0-1.39,.59-1.39,1.38l.5,59.63c0,.79,.59,1.38,1.39,1.38,.19,0,.59-.09,.79-.19,8.53-4.28,17.45-12.4,17.45-22.63,0-5.15-2.37-10.01-8.23-10.01m-8.63,27.98l.29-19.34c.2-.9,1.69-3.77,5.66-3.77,3.58,0,3.87,3.36,3.87,5.46,0,8.82-3.27,12.49-9.83,17.65"/><path d="M2509.45,37.9c9.13-6.35,13.28-12.6,13.28-19.75,0-7.53-4.36-12.11-11.01-12.11-4.76,0-7.94,3.38-7.94,7.35,0,4.26,3.67,7.55,7.94,7.55,2.88,0,4.26-.7,4.56-.81,.31-.09,.5-.19,.81-.19,.09,0,.29,0,.39,.09,.2,.09,.29,.4,.29,.99,0,4.26-3.86,9.13-10.71,13.89l2.39,2.98"/><path d="M2412.67,366.75c-9.32-10.12-17.56-10.71-22.71-10.71s-13.3,.59-22.63,10.71c-4.85,5.36-8.23,15.96-8.23,21.33,0,1.89,.4,3.18,1.39,3.18,2.77,0,1.38-8.54,9.72-16.97,7.33-7.33,17.16-7.44,19.55-7.44h.39c2.39,0,12.21,.11,19.55,7.44,8.34,8.43,6.94,16.97,9.72,16.97,.99,0,1.39-1.19,1.39-3.18,0-5.36-3.27-16.07-8.14-21.33m-29.56,18.94c0,3.78,3.07,6.85,6.85,6.85s6.84-3.07,6.84-6.85-3.07-6.84-6.84-6.84-6.85,3.07-6.85,6.84"/><path d="M1767.99,545.06h215.9v12.4h-215.9v-12.4" fill-rule="evenodd"/><path d="M881.19,149.5h217.26v12.4h-217.26v-12.4" fill-rule="evenodd"/><path d="M2119.02,396.26h215.9v12.4h-215.9v-12.4" fill-rule="evenodd"/><path d="M558.11,161.9h217.26v12.4h-217.26v-12.4" fill-rule="evenodd"/><path d="M556.31,507.86h215.9v12.4h-215.9v-12.4" fill-rule="evenodd"/><path d="M1490.64,137.1h217.25v12.4h-217.25v-12.4" fill-rule="evenodd"/><path d="M271.74,489.26h215.9v12.4h-215.9v-12.4" fill-rule="evenodd"/><path d="M1777.01,118.5h217.25v12.4h-217.25v-12.4" fill-rule="evenodd"/><path d="M1162.15,520.26h215.9v12.4h-215.9v-12.4" fill-rule="evenodd"/><path d="M1483.42,532.66h215.91v12.4h-215.91v-12.4" fill-rule="evenodd"/><path d="M877.58,514.06h215.91v12.4h-215.91v-12.4" fill-rule="evenodd"/><path d="M2100.08,112.3h217.26v12.4h-217.26v-12.4" fill-rule="evenodd"/><path d="M1167.56,143.3h217.26v12.4h-217.26v-12.4" fill-rule="evenodd"/><path d="M271.74,174.3h217.26v12.4h-217.26v-12.4" fill-rule="evenodd"/></g></svg>