<?xml version="1.0" encoding="UTF-8"?><svg id="b" xmlns="http://www.w3.org/2000/svg" viewBox="0 0 2552 853.38"><g id="c"><line y1="45.54" x2="2552" y2="45.54" fill="none" stroke="#000" stroke-linejoin="bevel" stroke-width="2.73"/><line y1="70.34" x2="2552" y2="70.34" fill="none" stroke="#000" stroke-linejoin="bevel" stroke-width="2.73"/><line y1="95.14" x2="2552" y2="95.14" fill="none" stroke="#000" stroke-linejoin="bevel" stroke-width="2.73"/><line y1="119.94" x2="2552" y2="119.94" fill="none" stroke="#000" stroke-linejoin="bevel" stroke-width="2.73"/><line y1="144.74" x2="2552" y2="144.74" fill="none" stroke="#000" stroke-linejoin="bevel" stroke-width="2.73"/><line y1="379.22" x2="2552" y2="379.22" fill="none" stroke="#000" stroke-linejoin="bevel" stroke-width="2.73"/><line y1="404.02" x2="2552" y2="404.02" fill="none" stroke="#000" stroke-linejoin="bevel" stroke-width="2.73"/><line y1="428.82" x2="2552" y2="428.82" fill="none" stroke="#000" stroke-linejoin="bevel" stroke-width="2.73"/><line y1="453.62" x2="2552" y2="453.62" fill="none" stroke="#000" stroke-linejoin="bevel" stroke-width="2.73"/><line y1="478.42" x2="2552" y2="478.42" fill="none" stroke="#000" stroke-linejoin="bevel" stroke-width="2.73"/><line y1="712.9" x2="2552" y2="712.9" fill="none" stroke="#000" stroke-linejoin="bevel" stroke-width="2.73"/><line y1="737.7" x2="2552" y2="737.7" fill="none" stroke="#000" stroke-linejoin="bevel" stroke-width="2.73"/><line y1="762.5" x2="2552" y2="762.5" fill="none" stroke="#000" stroke-linejoin="bevel" stroke-width="2.73"/><line y1="787.3" x2="2552" y2="787.3" fill="none" stroke="#000" stroke-linejoin="bevel" stroke-width="2.73"/><line y1="812.1" x2="2552" y2="812.1" fill="none" stroke="#000" stroke-linejoin="bevel" stroke-width="2.73"/><line x1="1422.14" y1="44.18" x2="1422.14" y2="146.1" fill="none" stroke="#000" stroke-linejoin="bevel" stroke-width="4.46"/><line x1="1064.18" y1="377.86" x2="1064.18" y2="479.78" fill="none" stroke="#000" stroke-linejoin="bevel" stroke-width="4.46"/><line x1="789.7" y1="377.86" x2="789.7" y2="479.78" fill="none" stroke="#000" stroke-linejoin="bevel" stroke-width="4.46"/><line x1="1559.38" y1="377.86" x2="1559.38" y2="479.78" fill="none" stroke="#000" stroke-linejoin="bevel" stroke-width="4.46"/><line x1="2054.57" y1="377.86" x2="2054.57" y2="479.78" fill="none" stroke="#000" stroke-linejoin="bevel" stroke-width="4.46"/><line x1="2549.77" y1="44.18" x2="2549.77" y2="146.1" fill="none" stroke="#000" stroke-linejoin="bevel" stroke-width="4.46"/><line x1="2549.77" y1="377.86" x2="2549.77" y2="479.78" fill="none" stroke="#000" stroke-linejoin="bevel" stroke-width="4.46"/><line x1="2173.89" y1="44.18" x2="2173.89" y2="146.1" fill="none" stroke="#000" stroke-linejoin="bevel" stroke-width="4.46"/><line x1="786.69" y1="711.54" x2="786.69" y2="813.46" fill="none" stroke="#000" stroke-linejoin="bevel" stroke-width="4.46"/><line x1="1278.86" y1="711.54" x2="1278.86" y2="813.46" fill="none" stroke="#000" stroke-linejoin="bevel" stroke-width="4.46"/><line x1="1771.04" y1="711.54" x2="1771.04" y2="813.46" fill="none" stroke="#000" stroke-linejoin="bevel" stroke-width="4.46"/><line x1="670.39" y1="44.18" x2="670.39" y2="146.1" fill="none" stroke="#000" stroke-linejoin="bevel" stroke-width="4.46"/><line x1="2536.13" y1="711.54" x2="2536.13" y2="813.46" fill="none" stroke="#000" stroke-linejoin="bevel" stroke-width="4.46"/><line x1="2549.77" y1="711.54" x2="2549.77" y2="813.46" fill="none" stroke="#000" stroke-linejoin="bevel" stroke-width="4.46"/><line x1="1046.26" y1="44.18" x2="1046.26" y2="146.1" fill="none" stroke="#000" stroke-linejoin="bevel" stroke-width="4.46"/><line x1="2263.22" y1="711.54" x2="2263.22" y2="813.46" fill="none" stroke="#000" stroke-linejoin="bevel" stroke-width="4.46"/><line x1="1798.02" y1="44.18" x2="1798.02" y2="146.1" fill="none" stroke="#000" stroke-linejoin="bevel" stroke-width="4.46"/><line x1="735.85" y1="115.97" x2="735.85" y2="45.42" fill="none" stroke="#000" stroke-linejoin="bevel" stroke-width="2.48"/><line x1="2332.94" y1="74.51" x2="2332.94" y2="144.86" fill="none" stroke="#000" stroke-linejoin="bevel" stroke-width="2.48"/><line x1="2271.27" y1="62.11" x2="2271.27" y2="138.66" fill="none" stroke="#000" stroke-linejoin="bevel" stroke-width="2.48"/><line x1="2209.61" y1="74.51" x2="2209.61" y2="144.62" fill="none" stroke="#000" stroke-linejoin="bevel" stroke-width="2.48"/><line x1="2080.4" y1="86.91" x2="2080.4" y2="163.34" fill="none" stroke="#000" stroke-linejoin="bevel" stroke-width="2.48"/><line x1="2018.73" y1="99.31" x2="2018.73" y2="169.42" fill="none" stroke="#000" stroke-linejoin="bevel" stroke-width="2.48"/><line x1="1957.06" y1="86.91" x2="1957.06" y2="163.46" fill="none" stroke="#000" stroke-linejoin="bevel" stroke-width="2.48"/><line x1="1895.4" y1="74.51" x2="1895.4" y2="144.86" fill="none" stroke="#000" stroke-linejoin="bevel" stroke-width="2.48"/><line x1="982.52" y1="115.97" x2="982.52" y2="33.14" fill="none" stroke="#000" stroke-linejoin="bevel" stroke-width="2.48"/><line x1="1833.73" y1="86.91" x2="1833.73" y2="150.82" fill="none" stroke="#000" stroke-linejoin="bevel" stroke-width="2.48"/><line x1="825.42" y1="383.39" x2="825.42" y2="466.02" fill="none" stroke="#000" stroke-linejoin="bevel" stroke-width="2.48"/><line x1="663.67" y1="395.79" x2="663.67" y2="478.42" fill="none" stroke="#000" stroke-linejoin="bevel" stroke-width="2.48"/><line x1="580.31" y1="408.19" x2="580.31" y2="478.33" fill="none" stroke="#000" stroke-linejoin="bevel" stroke-width="2.48"/><line x1="606.64" y1="128.37" x2="606.64" y2="45.54" fill="none" stroke="#000" stroke-linejoin="bevel" stroke-width="2.48"/><line x1="1704.52" y1="99.31" x2="1704.52" y2="169.54" fill="none" stroke="#000" stroke-linejoin="bevel" stroke-width="2.48"/><line x1="544.98" y1="140.77" x2="544.98" y2="70.22" fill="none" stroke="#000" stroke-linejoin="bevel" stroke-width="2.48"/><line x1="1672.61" y1="103.57" x2="1672.61" y2="26.82" fill="none" stroke="#000" stroke-linejoin="bevel" stroke-width="2.48"/><line x1="496.95" y1="395.79" x2="496.95" y2="472.31" fill="none" stroke="#000" stroke-linejoin="bevel" stroke-width="2.48"/><line x1="1610.94" y1="91.17" x2="1610.94" y2="20.86" fill="none" stroke="#000" stroke-linejoin="bevel" stroke-width="2.48"/><line x1="483.31" y1="128.37" x2="483.31" y2="64.26" fill="none" stroke="#000" stroke-linejoin="bevel" stroke-width="2.48"/><line x1="920.85" y1="128.37" x2="920.85" y2="51.62" fill="none" stroke="#000" stroke-linejoin="bevel" stroke-width="2.48"/><line x1="1519.52" y1="86.91" x2="1519.52" y2="163.46" fill="none" stroke="#000" stroke-linejoin="bevel" stroke-width="2.48"/><line x1="1235.06" y1="103.57" x2="1235.06" y2="39.46" fill="none" stroke="#000" stroke-linejoin="bevel" stroke-width="2.48"/><line x1="1457.85" y1="99.31" x2="1457.85" y2="169.42" fill="none" stroke="#000" stroke-linejoin="bevel" stroke-width="2.48"/><line x1="413.58" y1="383.39" x2="413.58" y2="453.71" fill="none" stroke="#000" stroke-linejoin="bevel" stroke-width="2.48"/><line x1="421.64" y1="115.97" x2="421.64" y2="45.66" fill="none" stroke="#000" stroke-linejoin="bevel" stroke-width="2.48"/><line x1="859.18" y1="115.97" x2="859.18" y2="45.66" fill="none" stroke="#000" stroke-linejoin="bevel" stroke-width="2.48"/><line x1="330.22" y1="395.79" x2="330.22" y2="459.73" fill="none" stroke="#000" stroke-linejoin="bevel" stroke-width="2.48"/><line x1="1358.4" y1="103.57" x2="1358.4" y2="26.94" fill="none" stroke="#000" stroke-linejoin="bevel" stroke-width="2.48"/><line x1="1296.73" y1="115.97" x2="1296.73" y2="45.42" fill="none" stroke="#000" stroke-linejoin="bevel" stroke-width="2.48"/><line x1="1099.89" y1="383.39" x2="1099.89" y2="453.71" fill="none" stroke="#000" stroke-linejoin="bevel" stroke-width="2.48"/><line x1="1183.25" y1="395.79" x2="1183.25" y2="459.73" fill="none" stroke="#000" stroke-linejoin="bevel" stroke-width="2.48"/><line x1="1266.62" y1="383.39" x2="1266.62" y2="453.53" fill="none" stroke="#000" stroke-linejoin="bevel" stroke-width="2.48"/><line x1="1349.98" y1="370.99" x2="1349.98" y2="447.51" fill="none" stroke="#000" stroke-linejoin="bevel" stroke-width="2.48"/><line x1="1173.39" y1="91.17" x2="1173.39" y2="20.86" fill="none" stroke="#000" stroke-linejoin="bevel" stroke-width="2.48"/><line x1="1595.09" y1="395.79" x2="1595.09" y2="472.31" fill="none" stroke="#000" stroke-linejoin="bevel" stroke-width="2.48"/><line x1="1678.45" y1="408.19" x2="1678.45" y2="478.33" fill="none" stroke="#000" stroke-linejoin="bevel" stroke-width="2.48"/><line x1="1761.81" y1="395.79" x2="1761.81" y2="459.73" fill="none" stroke="#000" stroke-linejoin="bevel" stroke-width="2.48"/><line x1="1845.18" y1="383.39" x2="1845.18" y2="453.71" fill="none" stroke="#000" stroke-linejoin="bevel" stroke-width="2.48"/><line x1="1928.54" y1="395.79" x2="1928.54" y2="478.42" fill="none" stroke="#000" stroke-linejoin="bevel" stroke-width="2.48"/><line x1="797.52" y1="103.57" x2="797.52" y2="39.46" fill="none" stroke="#000" stroke-linejoin="bevel" stroke-width="2.48"/><line x1="2090.29" y1="408.19" x2="2090.29" y2="478.51" fill="none" stroke="#000" stroke-linejoin="bevel" stroke-width="2.48"/><line x1="2173.65" y1="420.59" x2="2173.65" y2="484.53" fill="none" stroke="#000" stroke-linejoin="bevel" stroke-width="2.48"/><line x1="2257.01" y1="408.19" x2="2257.01" y2="478.33" fill="none" stroke="#000" stroke-linejoin="bevel" stroke-width="2.48"/><line x1="2340.37" y1="395.79" x2="2340.37" y2="472.31" fill="none" stroke="#000" stroke-linejoin="bevel" stroke-width="2.48"/><line x1="2423.73" y1="408.19" x2="2423.73" y2="490.82" fill="none" stroke="#000" stroke-linejoin="bevel" stroke-width="2.48"/><line x1="330.22" y1="754.27" x2="330.22" y2="830.79" fill="none" stroke="#000" stroke-linejoin="bevel" stroke-width="2.48"/><line x1="413.03" y1="766.67" x2="413.03" y2="836.81" fill="none" stroke="#000" stroke-linejoin="bevel" stroke-width="2.48"/><line x1="495.85" y1="754.27" x2="495.85" y2="818.21" fill="none" stroke="#000" stroke-linejoin="bevel" stroke-width="2.48"/><line x1="578.66" y1="741.87" x2="578.66" y2="812.19" fill="none" stroke="#000" stroke-linejoin="bevel" stroke-width="2.48"/><line x1="661.47" y1="754.27" x2="661.47" y2="830.7" fill="none" stroke="#000" stroke-linejoin="bevel" stroke-width="2.48"/><line x1="852.15" y1="758.53" x2="852.15" y2="688.19" fill="none" stroke="#000" stroke-linejoin="bevel" stroke-width="2.48"/><line x1="934.96" y1="770.93" x2="934.96" y2="694.21" fill="none" stroke="#000" stroke-linejoin="bevel" stroke-width="2.48"/><line x1="988.02" y1="766.67" x2="988.02" y2="836.81" fill="none" stroke="#000" stroke-linejoin="bevel" stroke-width="2.48"/><line x1="1433.34" y1="383.39" x2="1433.34" y2="466.02" fill="none" stroke="#000" stroke-linejoin="bevel" stroke-width="2.48"/><line x1="1153.65" y1="766.67" x2="1153.65" y2="836.9" fill="none" stroke="#000" stroke-linejoin="bevel" stroke-width="2.48"/><line x1="1344.33" y1="770.93" x2="1344.33" y2="706.79" fill="none" stroke="#000" stroke-linejoin="bevel" stroke-width="2.48"/><line x1="1427.14" y1="783.33" x2="1427.14" y2="712.81" fill="none" stroke="#000" stroke-linejoin="bevel" stroke-width="2.48"/><line x1="1509.95" y1="770.93" x2="1509.95" y2="694.21" fill="none" stroke="#000" stroke-linejoin="bevel" stroke-width="2.48"/><line x1="1592.77" y1="758.53" x2="1592.77" y2="688.19" fill="none" stroke="#000" stroke-linejoin="bevel" stroke-width="2.48"/><line x1="1675.58" y1="770.93" x2="1675.58" y2="694.3" fill="none" stroke="#000" stroke-linejoin="bevel" stroke-width="2.48"/><line x1="1836.51" y1="783.33" x2="1836.51" y2="712.99" fill="none" stroke="#000" stroke-linejoin="bevel" stroke-width="2.48"/><line x1="1919.32" y1="795.73" x2="1919.32" y2="719.01" fill="none" stroke="#000" stroke-linejoin="bevel" stroke-width="2.48"/><line x1="2002.13" y1="783.33" x2="2002.13" y2="712.81" fill="none" stroke="#000" stroke-linejoin="bevel" stroke-width="2.48"/><line x1="2084.95" y1="770.93" x2="2084.95" y2="706.79" fill="none" stroke="#000" stroke-linejoin="bevel" stroke-width="2.48"/><line x1="2167.76" y1="783.33" x2="2167.76" y2="700.5" fill="none" stroke="#000" stroke-linejoin="bevel" stroke-width="2.48"/><line x1="1111.73" y1="103.57" x2="1111.73" y2="26.82" fill="none" stroke="#000" stroke-linejoin="bevel" stroke-width="2.48"/><line x1="2328.68" y1="795.73" x2="2328.68" y2="712.9" fill="none" stroke="#000" stroke-linejoin="bevel" stroke-width="2.48"/><line x1="2456.28" y1="74.51" x2="2456.28" y2="157.14" fill="none" stroke="#000" stroke-linejoin="bevel" stroke-width="2.48"/><line x1="359.97" y1="128.37" x2="359.97" y2="51.62" fill="none" stroke="#000" stroke-linejoin="bevel" stroke-width="2.48"/><line x1="2394.61" y1="86.91" x2="2394.61" y2="150.82" fill="none" stroke="#000" stroke-linejoin="bevel" stroke-width="2.48"/><line x1="1070.84" y1="754.27" x2="1070.84" y2="830.79" fill="none" stroke="#000" stroke-linejoin="bevel" stroke-width="2.48"/><path d="M1152.41,766.67c0,4.26,3.07,9.02,11.11,9.02,10.31,0,21.13-8.43,21.13-17.16,0-5.86-4.96-9.13-11.11-9.13-9.63,0-21.13,8.14-21.13,17.27"/><path d="M328.98,136.51c0,4.26,3.07,9.02,11.11,9.02,10.31,0,21.13-8.43,21.13-17.16,0-5.86-4.96-9.13-11.11-9.13-9.63,0-21.13,8.14-21.13,17.27"/><path d="M390.65,124.11c0,4.26,3.07,9.02,11.11,9.02,10.31,0,21.13-8.43,21.13-17.16,0-5.86-4.96-9.13-11.11-9.13-9.63,0-21.13,8.14-21.13,17.27"/><path d="M452.32,136.51c0,4.26,3.07,9.02,11.11,9.02,10.31,0,21.13-8.43,21.13-17.16,0-5.86-4.96-9.13-11.11-9.13-9.63,0-21.13,8.14-21.13,17.27"/><path d="M513.98,148.91c0,4.26,3.07,9.02,11.11,9.02,10.31,0,21.13-8.43,21.13-17.16,0-5.86-4.96-9.13-11.11-9.13-9.63,0-21.13,8.14-21.13,17.27"/><path d="M575.65,136.51c0,4.26,3.07,9.02,11.11,9.02,10.31,0,21.13-8.43,21.13-17.16,0-5.86-4.96-9.13-11.11-9.13-9.63,0-21.13,8.14-21.13,17.27"/><path d="M704.86,124.11c0,4.26,3.07,9.02,11.11,9.02,10.31,0,21.13-8.43,21.13-17.16,0-5.86-4.96-9.13-11.11-9.13-9.63,0-21.13,8.14-21.13,17.27"/><path d="M766.53,111.71c0,4.26,3.07,9.02,11.11,9.02,10.31,0,21.13-8.43,21.13-17.16,0-5.86-4.96-9.13-11.11-9.13-9.63,0-21.13,8.14-21.13,17.27"/><path d="M828.19,124.11c0,4.26,3.07,9.02,11.11,9.02,10.31,0,21.13-8.43,21.13-17.16,0-5.86-4.96-9.13-11.11-9.13-9.63,0-21.13,8.14-21.13,17.27"/><path d="M889.86,136.51c0,4.26,3.07,9.02,11.11,9.02,10.31,0,21.13-8.43,21.13-17.16,0-5.86-4.96-9.13-11.11-9.13-9.63,0-21.13,8.14-21.13,17.27"/><path d="M951.53,124.11c0,4.26,3.07,9.02,11.11,9.02,10.31,0,21.13-8.43,21.13-17.16,0-5.86-4.96-9.13-11.11-9.13-9.63,0-21.13,8.14-21.13,17.27"/><path d="M1080.73,111.71c0,4.26,3.07,9.02,11.11,9.02,10.31,0,21.13-8.43,21.13-17.16,0-5.86-4.96-9.13-11.11-9.13-9.63,0-21.13,8.14-21.13,17.27"/><path d="M1142.4,99.31c0,4.26,3.07,9.02,11.11,9.02,10.31,0,21.13-8.43,21.13-17.16,0-5.86-4.96-9.13-11.11-9.13-9.63,0-21.13,8.14-21.13,17.27"/><path d="M1204.07,111.71c0,4.26,3.07,9.02,11.11,9.02,10.31,0,21.13-8.43,21.13-17.16,0-5.86-4.96-9.13-11.11-9.13-9.63,0-21.13,8.14-21.13,17.27"/><path d="M1265.74,124.11c0,4.26,3.07,9.02,11.11,9.02,10.31,0,21.13-8.43,21.13-17.16,0-5.86-4.96-9.13-11.11-9.13-9.63,0-21.13,8.14-21.13,17.27"/><path d="M1327.4,111.71c0,4.26,3.07,9.02,11.11,9.02,10.31,0,21.13-8.43,21.13-17.16,0-5.86-4.96-9.13-11.11-9.13-9.63,0-21.13,8.14-21.13,17.27"/><path d="M1456.61,99.31c0,4.26,3.07,9.02,11.11,9.02,10.31,0,21.13-8.43,21.13-17.16,0-5.86-4.96-9.13-11.11-9.13-9.63,0-21.13,8.14-21.13,17.27"/><path d="M1518.28,86.91c0,4.26,3.07,9.02,11.11,9.02,10.31,0,21.13-8.43,21.13-17.16,0-5.86-4.96-9.13-11.11-9.13-9.63,0-21.13,8.14-21.13,17.27"/><path d="M1579.95,99.31c0,4.26,3.07,9.02,11.11,9.02,10.31,0,21.13-8.43,21.13-17.16,0-5.86-4.96-9.13-11.11-9.13-9.63,0-21.13,8.14-21.13,17.27"/><path d="M1641.61,111.71c0,4.26,3.07,9.02,11.11,9.02,10.31,0,21.13-8.43,21.13-17.16,0-5.86-4.96-9.13-11.11-9.13-9.63,0-21.13,8.14-21.13,17.27"/><path d="M1703.28,99.31c0,4.26,3.07,9.02,11.11,9.02,10.31,0,21.13-8.43,21.13-17.16,0-5.86-4.96-9.13-11.11-9.13-9.63,0-21.13,8.14-21.13,17.27"/><path d="M1832.49,86.91c0,4.26,3.07,9.02,11.11,9.02,10.31,0,21.13-8.43,21.13-17.16,0-5.86-4.96-9.13-11.11-9.13-9.63,0-21.13,8.14-21.13,17.27"/><path d="M1894.16,74.51c0,4.26,3.07,9.02,11.11,9.02,10.31,0,21.13-8.43,21.13-17.16,0-5.86-4.96-9.13-11.11-9.13-9.63,0-21.13,8.14-21.13,17.27"/><path d="M1955.82,86.91c0,4.26,3.07,9.02,11.11,9.02,10.31,0,21.13-8.43,21.13-17.16,0-5.86-4.96-9.13-11.11-9.13-9.63,0-21.13,8.14-21.13,17.27"/><path d="M2017.49,99.31c0,4.26,3.07,9.02,11.11,9.02,10.31,0,21.13-8.43,21.13-17.16,0-5.86-4.96-9.13-11.11-9.13-9.63,0-21.13,8.14-21.13,17.27"/><path d="M2079.16,86.91c0,4.26,3.07,9.02,11.11,9.02,10.31,0,21.13-8.43,21.13-17.16,0-5.86-4.96-9.13-11.11-9.13-9.63,0-21.13,8.14-21.13,17.27"/><path d="M2208.37,74.51c0,4.26,3.07,9.02,11.11,9.02,10.31,0,21.13-8.43,21.13-17.16,0-5.86-4.96-9.13-11.11-9.13-9.63,0-21.13,8.14-21.13,17.27"/><path d="M2270.03,62.11c0,4.26,3.07,9.02,11.11,9.02,10.31,0,21.13-8.43,21.13-17.16,0-5.86-4.96-9.13-11.11-9.13-9.63,0-21.13,8.14-21.13,17.27"/><path d="M2331.7,74.51c0,4.26,3.07,9.02,11.11,9.02,10.31,0,21.13-8.43,21.13-17.16,0-5.86-4.96-9.13-11.11-9.13-9.63,0-21.13,8.14-21.13,17.27"/><path d="M2393.37,86.91c0,4.26,3.07,9.02,11.11,9.02,10.31,0,21.13-8.43,21.13-17.16,0-5.86-4.96-9.13-11.11-9.13-9.63,0-21.13,8.14-21.13,17.27"/><path d="M2455.04,74.51c0,4.26,3.07,9.02,11.11,9.02,10.31,0,21.13-8.43,21.13-17.16,0-5.86-4.96-9.13-11.11-9.13-9.63,0-21.13,8.14-21.13,17.27"/><path d="M328.98,395.79c0,4.26,3.07,9.02,11.11,9.02,10.31,0,21.13-8.43,21.13-17.16,0-5.86-4.96-9.13-11.11-9.13-9.63,0-21.13,8.14-21.13,17.27"/><path d="M412.34,383.39c0,4.26,3.07,9.02,11.11,9.02,10.31,0,21.13-8.43,21.13-17.16,0-5.86-4.96-9.13-11.11-9.13-9.63,0-21.13,8.14-21.13,17.27"/><path d="M495.7,395.79c0,4.26,3.07,9.02,11.11,9.02,10.31,0,21.13-8.43,21.13-17.16,0-5.86-4.96-9.13-11.11-9.13-9.63,0-21.13,8.14-21.13,17.27"/><path d="M579.07,408.19c0,4.26,3.07,9.02,11.11,9.02,10.31,0,21.13-8.43,21.13-17.16,0-5.86-4.96-9.13-11.11-9.13-9.63,0-21.13,8.14-21.13,17.27"/><path d="M662.43,395.79c0,4.26,3.07,9.02,11.11,9.02,10.31,0,21.13-8.43,21.13-17.16,0-5.86-4.96-9.13-11.11-9.13-9.63,0-21.13,8.14-21.13,17.27"/><path d="M845.31,366.12c-9.63,0-21.13,8.04-21.13,17.27,0,4.26,3.07,9.02,11.11,9.02,10.31,0,21.13-8.43,21.13-17.16,0-5.86-4.96-9.13-11.11-9.13m-13.69,21.62c-3.27,0-3.97-2.67-3.97-3.57,0-4.87,16.66-13.39,21.33-13.39,2.39,0,3.97,1.4,3.97,3.57,0,4.96-16.77,13.39-21.33,13.39"/><path d="M1098.65,383.39c0,4.26,3.07,9.02,11.11,9.02,10.31,0,21.13-8.43,21.13-17.16,0-5.86-4.96-9.13-11.11-9.13-9.63,0-21.13,8.14-21.13,17.27"/><path d="M1182.01,395.79c0,4.26,3.07,9.02,11.11,9.02,10.31,0,21.13-8.43,21.13-17.16,0-5.86-4.96-9.13-11.11-9.13-9.63,0-21.13,8.14-21.13,17.27"/><path d="M1265.38,383.39c0,4.26,3.07,9.02,11.11,9.02,10.31,0,21.13-8.43,21.13-17.16,0-5.86-4.96-9.13-11.11-9.13-9.63,0-21.13,8.14-21.13,17.27"/><path d="M1348.74,370.99c0,4.26,3.07,9.02,11.11,9.02,10.31,0,21.13-8.43,21.13-17.16,0-5.86-4.96-9.13-11.11-9.13-9.63,0-21.13,8.14-21.13,17.27"/><path d="M1432.1,383.39c0,4.26,3.07,9.02,11.11,9.02,10.31,0,21.13-8.43,21.13-17.16,0-5.86-4.96-9.13-11.11-9.13-9.63,0-21.13,8.14-21.13,17.27"/><path d="M1593.85,395.79c0,4.26,3.07,9.02,11.11,9.02,10.31,0,21.13-8.43,21.13-17.16,0-5.86-4.96-9.13-11.11-9.13-9.63,0-21.13,8.14-21.13,17.27"/><path d="M1677.21,408.19c0,4.26,3.07,9.02,11.11,9.02,10.31,0,21.13-8.43,21.13-17.16,0-5.86-4.96-9.13-11.11-9.13-9.63,0-21.13,8.14-21.13,17.27"/><path d="M1760.57,395.79c0,4.26,3.07,9.02,11.11,9.02,10.31,0,21.13-8.43,21.13-17.16,0-5.86-4.96-9.13-11.11-9.13-9.63,0-21.13,8.14-21.13,17.27"/><path d="M1843.94,383.39c0,4.26,3.07,9.02,11.11,9.02,10.31,0,21.13-8.43,21.13-17.16,0-5.86-4.96-9.13-11.11-9.13-9.63,0-21.13,8.14-21.13,17.27"/><path d="M1927.3,395.79c0,4.26,3.07,9.02,11.11,9.02,10.31,0,21.13-8.43,21.13-17.16,0-5.86-4.96-9.13-11.11-9.13-9.63,0-21.13,8.14-21.13,17.27"/><path d="M2089.05,408.19c0,4.26,3.07,9.02,11.11,9.02,10.31,0,21.13-8.43,21.13-17.16,0-5.86-4.96-9.13-11.11-9.13-9.63,0-21.13,8.14-21.13,17.27"/><path d="M2172.41,420.59c0,4.26,3.07,9.02,11.11,9.02,10.31,0,21.13-8.43,21.13-17.16,0-5.86-4.96-9.13-11.11-9.13-9.63,0-21.13,8.14-21.13,17.27"/><path d="M2255.77,408.19c0,4.26,3.07,9.02,11.11,9.02,10.31,0,21.13-8.43,21.13-17.16,0-5.86-4.96-9.13-11.11-9.13-9.63,0-21.13,8.14-21.13,17.27"/><path d="M2339.13,395.79c0,4.26,3.07,9.02,11.11,9.02,10.31,0,21.13-8.43,21.13-17.16,0-5.86-4.96-9.13-11.11-9.13-9.63,0-21.13,8.14-21.13,17.27"/><path d="M2422.49,408.19c0,4.26,3.07,9.02,11.11,9.02,10.31,0,21.13-8.43,21.13-17.16,0-5.86-4.96-9.13-11.11-9.13-9.63,0-21.13,8.14-21.13,17.27"/><path d="M328.98,754.27c0,4.26,3.07,9.02,11.11,9.02,10.31,0,21.13-8.43,21.13-17.16,0-5.86-4.96-9.13-11.11-9.13-9.63,0-21.13,8.14-21.13,17.27"/><path d="M411.79,766.67c0,4.26,3.07,9.02,11.11,9.02,10.31,0,21.13-8.43,21.13-17.16,0-5.86-4.96-9.13-11.11-9.13-9.63,0-21.13,8.14-21.13,17.27"/><path d="M494.61,754.27c0,4.26,3.07,9.02,11.11,9.02,10.31,0,21.13-8.43,21.13-17.16,0-5.86-4.96-9.13-11.11-9.13-9.63,0-21.13,8.14-21.13,17.27"/><path d="M577.42,741.87c0,4.26,3.07,9.02,11.11,9.02,10.31,0,21.13-8.43,21.13-17.16,0-5.86-4.96-9.13-11.11-9.13-9.63,0-21.13,8.14-21.13,17.27"/><path d="M660.24,754.27c0,4.26,3.07,9.02,11.11,9.02,10.31,0,21.13-8.43,21.13-17.16,0-5.86-4.96-9.13-11.11-9.13-9.63,0-21.13,8.14-21.13,17.27"/><path d="M821.16,766.67c0,4.26,3.07,9.02,11.11,9.02,10.31,0,21.13-8.43,21.13-17.16,0-5.86-4.96-9.13-11.11-9.13-9.63,0-21.13,8.14-21.13,17.27"/><path d="M903.97,779.07c0,4.26,3.07,9.02,11.11,9.02,10.31,0,21.13-8.43,21.13-17.16,0-5.86-4.96-9.13-11.11-9.13-9.63,0-21.13,8.14-21.13,17.27"/><path d="M986.78,766.67c0,4.26,3.07,9.02,11.11,9.02,10.31,0,21.13-8.43,21.13-17.16,0-5.86-4.96-9.13-11.11-9.13-9.63,0-21.13,8.14-21.13,17.27"/><path d="M1069.6,754.27c0,4.26,3.07,9.02,11.11,9.02,10.31,0,21.13-8.43,21.13-17.16,0-5.86-4.96-9.13-11.11-9.13-9.63,0-21.13,8.14-21.13,17.27"/><path d="M1313.34,779.07c0,4.26,3.07,9.02,11.11,9.02,10.31,0,21.13-8.43,21.13-17.16,0-5.86-4.96-9.13-11.11-9.13-9.63,0-21.13,8.14-21.13,17.27"/><path d="M1396.15,791.47c0,4.26,3.07,9.02,11.11,9.02,10.31,0,21.13-8.43,21.13-17.16,0-5.86-4.96-9.13-11.11-9.13-9.63,0-21.13,8.14-21.13,17.27"/><path d="M1478.96,779.07c0,4.26,3.07,9.02,11.11,9.02,10.31,0,21.13-8.43,21.13-17.16,0-5.86-4.96-9.13-11.11-9.13-9.63,0-21.13,8.14-21.13,17.27"/><path d="M1561.78,766.67c0,4.26,3.07,9.02,11.11,9.02,10.31,0,21.13-8.43,21.13-17.16,0-5.86-4.96-9.13-11.11-9.13-9.63,0-21.13,8.14-21.13,17.27"/><path d="M1644.59,779.07c0,4.26,3.07,9.02,11.11,9.02,10.31,0,21.13-8.43,21.13-17.16,0-5.86-4.96-9.13-11.11-9.13-9.63,0-21.13,8.14-21.13,17.27"/><path d="M1805.51,791.47c0,4.26,3.07,9.02,11.11,9.02,10.31,0,21.13-8.43,21.13-17.16,0-5.86-4.96-9.13-11.11-9.13-9.63,0-21.13,8.14-21.13,17.27"/><path d="M1888.33,803.87c0,4.26,3.07,9.02,11.11,9.02,10.31,0,21.13-8.43,21.13-17.16,0-5.86-4.96-9.13-11.11-9.13-9.63,0-21.13,8.14-21.13,17.27"/><path d="M1971.14,791.47c0,4.26,3.07,9.02,11.11,9.02,10.31,0,21.13-8.43,21.13-17.16,0-5.86-4.96-9.13-11.11-9.13-9.63,0-21.13,8.14-21.13,17.27"/><path d="M2053.95,779.07c0,4.26,3.07,9.02,11.11,9.02,10.31,0,21.13-8.43,21.13-17.16,0-5.86-4.96-9.13-11.11-9.13-9.63,0-21.13,8.14-21.13,17.27"/><path d="M2136.77,791.47c0,4.26,3.07,9.02,11.11,9.02,10.31,0,21.13-8.43,21.13-17.16,0-5.86-4.96-9.13-11.11-9.13-9.63,0-21.13,8.14-21.13,17.27"/><path d="M2318.82,786.6c-9.63,0-21.13,8.04-21.13,17.27,0,4.26,3.07,9.02,11.11,9.02,10.31,0,21.13-8.43,21.13-17.16,0-5.86-4.96-9.13-11.11-9.13m-13.69,21.62c-3.27,0-3.97-2.67-3.97-3.57,0-4.87,16.66-13.39,21.33-13.39,2.39,0,3.97,1.4,3.97,3.57,0,4.96-16.77,13.39-21.33,13.39"/><path d="M30.8,504.51c0,6.56,4.96,15.19,18.35,15.19,4.67,0,8.74-1.19,12.31-3.38,5.36-3.77,6.74-10.32,6.74-16.57,0-3.86-.59-8.32-1.58-13.98-.29-1.98-.9-4.96-1.49-8.84,9.72-3.18,16.96-13.3,16.96-23.51,0-14.97-10.62-25.09-25.09-25.09-.99-5.95-1.98-11.81-2.77-17.36,10.42-11.02,17.65-23.42,17.65-39.18,0-9.04-2.77-16.37-4.37-19.95-2.37-5.05-5.25-8.53-7.04-8.53-.7,0-3.77,1.19-7.04,5.05-6.36,7.55-8.14,20.24-8.14,28.57,0,5.36,.5,10.23,2.19,21.34-.11,.09-5.27,5.35-7.35,7.04-9.04,8.34-21.53,20.43-21.53,40.28,0,18.54,16.17,33.12,34.63,33.12,2.87,0,5.55-.29,7.83-.7,1.89,9.53,3.08,16.48,3.08,21.73,0,10.32-5.36,15.78-15.38,15.78-2.39,0-4.46-.5-4.67-.5-.09-.11-.29-.2-.29-.29,0-.2,.2-.31,.5-.31,4.67-.79,9.32-4.76,9.32-11.1,0-5.36-4.06-11.02-11.5-11.02-6.94,0-11.31,5.66-11.31,12.2m20.74-132.43c.9-3.97,5.46-14.38,10.62-14.38,1.49,0,3.86,4.76,3.86,11.7,0,10.32-7.63,18.06-14.48,24.8-.59-3.97-1.08-7.83-1.08-12,0-3.67,.29-7.05,1.08-10.12m8.73,101.97c-1.98,.4-3.86,.6-5.75,.6-14.18,0-26.29-9.92-26.29-24.91,0-12.09,8.53-22.91,17.27-30.46,1.67-1.49,3.27-2.87,4.76-4.36,.88,5.35,1.58,10.01,2.28,14.09-9.04,2.68-15.17,12.2-15.17,21.53,0,6.94,5.46,16.46,13.39,16.46,.79,0,1.69-.4,1.69-1.29s-.99-1.39-2.19-2.19c-3.88-2.39-6.06-4.96-6.06-9.83,0-6.05,4.57-10.91,10.32-12.29l5.75,32.63m14.09-18.35c0,7.05-2.88,14.29-9.92,17.17-2.08-11.9-4.76-27.68-5.46-32.05,8.93,0,15.38,6.06,15.38,14.88"/><path d="M30.8,838.19c0,6.56,4.96,15.19,18.35,15.19,4.67,0,8.74-1.19,12.31-3.38,5.36-3.77,6.74-10.32,6.74-16.57,0-3.86-.59-8.32-1.58-13.98-.29-1.98-.9-4.96-1.49-8.84,9.72-3.18,16.96-13.3,16.96-23.51,0-14.97-10.62-25.09-25.09-25.09-.99-5.95-1.98-11.81-2.77-17.36,10.42-11.02,17.65-23.42,17.65-39.18,0-9.04-2.77-16.37-4.37-19.95-2.37-5.05-5.25-8.53-7.04-8.53-.7,0-3.77,1.19-7.04,5.05-6.36,7.55-8.14,20.24-8.14,28.57,0,5.36,.5,10.23,2.19,21.34-.11,.09-5.27,5.35-7.35,7.04-9.04,8.34-21.53,20.43-21.53,40.28,0,18.54,16.17,33.12,34.63,33.12,2.87,0,5.55-.29,7.83-.7,1.89,9.53,3.08,16.48,3.08,21.73,0,10.32-5.36,15.78-15.38,15.78-2.39,0-4.46-.5-4.67-.5-.09-.11-.29-.2-.29-.29,0-.2,.2-.31,.5-.31,4.67-.79,9.32-4.76,9.32-11.1,0-5.36-4.06-11.02-11.5-11.02-6.94,0-11.31,5.66-11.31,12.2m20.74-132.43c.9-3.97,5.46-14.38,10.62-14.38,1.49,0,3.86,4.76,3.86,11.7,0,10.32-7.63,18.06-14.48,24.8-.59-3.97-1.08-7.83-1.08-12,0-3.67,.29-7.05,1.08-10.12m8.73,101.97c-1.98,.4-3.86,.6-5.75,.6-14.18,0-26.29-9.92-26.29-24.91,0-12.09,8.53-22.91,17.27-30.46,1.67-1.49,3.27-2.87,4.76-4.36,.88,5.35,1.58,10.01,2.28,14.09-9.04,2.68-15.17,12.2-15.17,21.53,0,6.94,5.46,16.46,13.39,16.46,.79,0,1.69-.4,1.69-1.29s-.99-1.39-2.19-2.19c-3.88-2.39-6.06-4.96-6.06-9.83,0-6.05,4.57-10.91,10.32-12.29l5.75,32.63m14.09-18.35c0,7.05-2.88,14.29-9.92,17.17-2.08-11.9-4.76-27.68-5.46-32.05,8.93,0,15.38,6.06,15.38,14.88"/><path d="M30.8,170.83c0,6.56,4.96,15.19,18.35,15.19,4.67,0,8.74-1.19,12.31-3.38,5.36-3.77,6.74-10.32,6.74-16.57,0-3.86-.59-8.32-1.58-13.98-.29-1.98-.9-4.96-1.49-8.84,9.72-3.18,16.96-13.3,16.96-23.51,0-14.97-10.62-25.09-25.09-25.09-.99-5.95-1.98-11.81-2.77-17.36,10.42-11.02,17.65-23.42,17.65-39.18,0-9.04-2.77-16.37-4.37-19.95-2.37-5.05-5.25-8.53-7.04-8.53-.7,0-3.77,1.19-7.04,5.05-6.36,7.55-8.14,20.24-8.14,28.57,0,5.36,.5,10.23,2.19,21.34-.11,.09-5.27,5.35-7.35,7.04-9.04,8.34-21.53,20.43-21.53,40.28,0,18.54,16.17,33.12,34.63,33.12,2.87,0,5.55-.29,7.83-.7,1.89,9.53,3.08,16.48,3.08,21.73,0,10.32-5.36,15.78-15.38,15.78-2.39,0-4.46-.5-4.67-.5-.09-.11-.29-.2-.29-.29,0-.2,.2-.31,.5-.31,4.67-.79,9.32-4.76,9.32-11.1,0-5.36-4.06-11.02-11.5-11.02-6.94,0-11.31,5.66-11.31,12.2M51.54,38.39c.9-3.97,5.46-14.38,10.62-14.38,1.49,0,3.86,4.76,3.86,11.7,0,10.32-7.63,18.06-14.48,24.8-.59-3.97-1.08-7.83-1.08-12,0-3.67,.29-7.05,1.08-10.12m8.73,101.97c-1.98,.4-3.86,.6-5.75,.6-14.18,0-26.29-9.92-26.29-24.91,0-12.09,8.53-22.91,17.27-30.46,1.67-1.49,3.27-2.87,4.76-4.36,.88,5.35,1.58,10.01,2.28,14.09-9.04,2.68-15.17,12.2-15.17,21.53,0,6.94,5.46,16.46,13.39,16.46,.79,0,1.69-.4,1.69-1.29s-.99-1.39-2.19-2.19c-3.88-2.39-6.06-4.96-6.06-9.83,0-6.05,4.57-10.91,10.32-12.29l5.75,32.63m14.09-18.35c0,7.05-2.88,14.29-9.92,17.17-2.08-11.9-4.76-27.68-5.46-32.05,8.93,0,15.38,6.06,15.38,14.88"/><path d="M129.99,35.12c.6-.09,1.1-.79,1.1-1.4v-5.84c0-.99-.7-1.39-1.6-1.39l-3.27,.7V12.4h-2.77v15.38l-8.83,1.8V15.58h-2.77v14.59l-3.88,.79c-.59,.11-1.09,.79-1.09,1.39v5.75c0,1.09,.79,1.4,1.69,1.4l3.27-.7v16.37l-3.88,.79c-.59,.09-1.09,.79-1.09,1.4v5.75c0,1.09,.79,1.38,1.69,1.38l3.27-.68v14.77h2.77v-15.38l8.83-1.78v14h2.77v-14.59l3.77-.7c.6-.11,1.1-.79,1.1-1.39v-5.84c0-.99-.7-1.4-1.6-1.4l-3.27,.7v-16.37l3.77-.7m-15.38,3.07l8.83-1.78v16.37l-8.83,1.89v-16.48"/><path d="M157.16,72.32c.6-.09,1.1-.79,1.1-1.4v-5.84c0-.99-.7-1.39-1.6-1.39l-3.27,.7v-14.79h-2.77v15.38l-8.83,1.8v-14h-2.77v14.59l-3.88,.79c-.59,.11-1.09,.79-1.09,1.39v5.75c0,1.09,.79,1.4,1.69,1.4l3.27-.7v16.37l-3.88,.79c-.59,.09-1.09,.79-1.09,1.4v5.75c0,1.09,.79,1.38,1.69,1.38l3.27-.68v14.77h2.77v-15.38l8.83-1.78v14h2.77v-14.59l3.77-.7c.6-.11,1.1-.79,1.1-1.39v-5.84c0-.99-.7-1.4-1.6-1.4l-3.27,.7v-16.37l3.77-.7m-15.38,3.07l8.83-1.78v16.37l-8.83,1.89v-16.48"/><path d="M184.33,22.72c.6-.09,1.1-.79,1.1-1.4v-5.84c0-.99-.7-1.39-1.6-1.39l-3.27,.7V0h-2.77V15.38l-8.83,1.8V3.18h-2.77v14.59l-3.88,.79c-.59,.11-1.09,.79-1.09,1.39v5.75c0,1.09,.79,1.4,1.69,1.4l3.27-.7v16.37l-3.88,.79c-.59,.09-1.09,.79-1.09,1.4v5.75c0,1.09,.79,1.38,1.69,1.38l3.27-.68v14.77h2.77v-15.38l8.83-1.78v14h2.77v-14.59l3.77-.7c.6-.11,1.1-.79,1.1-1.39v-5.84c0-.99-.7-1.4-1.6-1.4l-3.27,.7V23.42l3.77-.7m-15.38,3.07l8.83-1.78v16.37l-8.83,1.89V25.79"/><path d="M211.52,59.92c.6-.09,1.1-.79,1.1-1.4v-5.84c0-.99-.7-1.39-1.6-1.39l-3.27,.7v-14.79h-2.77v15.38l-8.83,1.8v-14h-2.77v14.59l-3.88,.79c-.59,.11-1.09,.79-1.09,1.39v5.75c0,1.09,.79,1.4,1.69,1.4l3.27-.7v16.37l-3.88,.79c-.59,.09-1.09,.79-1.09,1.4v5.75c0,1.09,.79,1.38,1.69,1.38l3.27-.68v14.77h2.77v-15.38l8.83-1.78v14h2.77v-14.59l3.77-.7c.6-.11,1.1-.79,1.1-1.39v-5.84c0-.99-.7-1.4-1.6-1.4l-3.27,.7v-16.37l3.77-.7m-15.38,3.07l8.83-1.78v16.37l-8.83,1.89v-16.48"/><path d="M238.69,97.12c.6-.09,1.1-.79,1.1-1.4v-5.84c0-.99-.7-1.39-1.6-1.39l-3.27,.7v-14.79h-2.77v15.38l-8.83,1.8v-14h-2.77v14.59l-3.88,.79c-.59,.11-1.09,.79-1.09,1.39v5.75c0,1.09,.79,1.4,1.69,1.4l3.27-.7v16.37l-3.88,.79c-.59,.09-1.09,.79-1.09,1.4v5.75c0,1.09,.79,1.38,1.69,1.38l3.27-.68v14.77h2.77v-15.38l8.83-1.78v14h2.77v-14.59l3.77-.7c.6-.11,1.1-.79,1.1-1.39v-5.84c0-.99-.7-1.4-1.6-1.4l-3.27,.7v-16.37l3.77-.7m-15.38,3.07l8.83-1.78v16.37l-8.83,1.89v-16.48"/><path d="M265.88,47.52c.6-.09,1.1-.79,1.1-1.4v-5.84c0-.99-.7-1.39-1.6-1.39l-3.27,.7v-14.79h-2.77v15.38l-8.83,1.8v-14h-2.77v14.59l-3.88,.79c-.59,.11-1.09,.79-1.09,1.39v5.75c0,1.09,.79,1.4,1.69,1.4l3.27-.7v16.37l-3.88,.79c-.59,.09-1.09,.79-1.09,1.4v5.75c0,1.09,.79,1.38,1.69,1.38l3.27-.68v14.77h2.77v-15.38l8.83-1.78v14h2.77v-14.59l3.77-.7c.6-.11,1.1-.79,1.1-1.39v-5.84c0-.99-.7-1.4-1.6-1.4l-3.27,.7v-16.37l3.77-.7m-15.38,3.07l8.83-1.78v16.37l-8.83,1.89v-16.48"/><path d="M129.99,368.8c.6-.09,1.1-.79,1.1-1.4v-5.84c0-.99-.7-1.39-1.6-1.39l-3.27,.7v-14.79h-2.77v15.38l-8.83,1.8v-14h-2.77v14.59l-3.88,.79c-.59,.11-1.09,.79-1.09,1.39v5.75c0,1.09,.79,1.4,1.69,1.4l3.27-.7v16.37l-3.88,.79c-.59,.09-1.09,.79-1.09,1.4v5.75c0,1.09,.79,1.38,1.69,1.38l3.27-.68v14.77h2.77v-15.38l8.83-1.78v14h2.77v-14.59l3.77-.7c.6-.11,1.1-.79,1.1-1.39v-5.84c0-.99-.7-1.4-1.6-1.4l-3.27,.7v-16.37l3.77-.7m-15.38,3.07l8.83-1.78v16.37l-8.83,1.89v-16.48"/><path d="M157.16,406c.6-.09,1.1-.79,1.1-1.4v-5.84c0-.99-.7-1.39-1.6-1.39l-3.27,.7v-14.79h-2.77v15.38l-8.83,1.8v-14h-2.77v14.59l-3.88,.79c-.59,.11-1.09,.79-1.09,1.39v5.75c0,1.09,.79,1.4,1.69,1.4l3.27-.7v16.37l-3.88,.79c-.59,.09-1.09,.79-1.09,1.4v5.75c0,1.09,.79,1.38,1.69,1.38l3.27-.68v14.77h2.77v-15.38l8.83-1.78v14h2.77v-14.59l3.77-.7c.6-.11,1.1-.79,1.1-1.39v-5.84c0-.99-.7-1.4-1.6-1.4l-3.27,.7v-16.37l3.77-.7m-15.38,3.07l8.83-1.78v16.37l-8.83,1.89v-16.48"/><path d="M184.33,356.4c.6-.09,1.1-.79,1.1-1.4v-5.84c0-.99-.7-1.39-1.6-1.39l-3.27,.7v-14.79h-2.77v15.38l-8.83,1.8v-14h-2.77v14.59l-3.88,.79c-.59,.11-1.09,.79-1.09,1.39v5.75c0,1.09,.79,1.4,1.69,1.4l3.27-.7v16.37l-3.88,.79c-.59,.09-1.09,.79-1.09,1.4v5.75c0,1.09,.79,1.38,1.69,1.38l3.27-.68v14.77h2.77v-15.38l8.83-1.78v14h2.77v-14.59l3.77-.7c.6-.11,1.1-.79,1.1-1.39v-5.84c0-.99-.7-1.4-1.6-1.4l-3.27,.7v-16.37l3.77-.7m-15.38,3.07l8.83-1.78v16.37l-8.83,1.89v-16.48"/><path d="M211.52,393.6c.6-.09,1.1-.79,1.1-1.4v-5.84c0-.99-.7-1.39-1.6-1.39l-3.27,.7v-14.79h-2.77v15.38l-8.83,1.8v-14h-2.77v14.59l-3.88,.79c-.59,.11-1.09,.79-1.09,1.39v5.75c0,1.09,.79,1.4,1.69,1.4l3.27-.7v16.37l-3.88,.79c-.59,.09-1.09,.79-1.09,1.4v5.75c0,1.09,.79,1.38,1.69,1.38l3.27-.68v14.77h2.77v-15.38l8.83-1.78v14h2.77v-14.59l3.77-.7c.6-.11,1.1-.79,1.1-1.39v-5.84c0-.99-.7-1.4-1.6-1.4l-3.27,.7v-16.37l3.77-.7m-15.38,3.07l8.83-1.78v16.37l-8.83,1.89v-16.48"/><path d="M238.69,430.8c.6-.09,1.1-.79,1.1-1.4v-5.84c0-.99-.7-1.39-1.6-1.39l-3.27,.7v-14.79h-2.77v15.38l-8.83,1.8v-14h-2.77v14.59l-3.88,.79c-.59,.11-1.09,.79-1.09,1.39v5.75c0,1.09,.79,1.4,1.69,1.4l3.27-.7v16.37l-3.88,.79c-.59,.09-1.09,.79-1.09,1.4v5.75c0,1.09,.79,1.38,1.69,1.38l3.27-.68v14.77h2.77v-15.38l8.83-1.78v14h2.77v-14.59l3.77-.7c.6-.11,1.1-.79,1.1-1.39v-5.84c0-.99-.7-1.4-1.6-1.4l-3.27,.7v-16.37l3.77-.7m-15.38,3.07l8.83-1.78v16.37l-8.83,1.89v-16.48"/><path d="M265.88,381.2c.6-.09,1.1-.79,1.1-1.4v-5.84c0-.99-.7-1.39-1.6-1.39l-3.27,.7v-14.79h-2.77v15.38l-8.83,1.8v-14h-2.77v14.59l-3.88,.79c-.59,.11-1.09,.79-1.09,1.39v5.75c0,1.09,.79,1.4,1.69,1.4l3.27-.7v16.37l-3.88,.79c-.59,.09-1.09,.79-1.09,1.4v5.75c0,1.09,.79,1.38,1.69,1.38l3.27-.68v14.77h2.77v-15.38l8.83-1.78v14h2.77v-14.59l3.77-.7c.6-.11,1.1-.79,1.1-1.39v-5.84c0-.99-.7-1.4-1.6-1.4l-3.27,.7v-16.37l3.77-.7m-15.38,3.07l8.83-1.78v16.37l-8.83,1.89v-16.48"/><path d="M129.99,702.48c.6-.09,1.1-.79,1.1-1.4v-5.84c0-.99-.7-1.39-1.6-1.39l-3.27,.7v-14.79h-2.77v15.38l-8.83,1.8v-14h-2.77v14.59l-3.88,.79c-.59,.11-1.09,.79-1.09,1.39v5.75c0,1.09,.79,1.4,1.69,1.4l3.27-.7v16.37l-3.88,.79c-.59,.09-1.09,.79-1.09,1.4v5.75c0,1.09,.79,1.38,1.69,1.38l3.27-.68v14.77h2.77v-15.38l8.83-1.78v14h2.77v-14.59l3.77-.7c.6-.11,1.1-.79,1.1-1.39v-5.84c0-.99-.7-1.4-1.6-1.4l-3.27,.7v-16.37l3.77-.7m-15.38,3.07l8.83-1.78v16.37l-8.83,1.89v-16.48"/><path d="M157.16,739.68c.6-.09,1.1-.79,1.1-1.4v-5.84c0-.99-.7-1.39-1.6-1.39l-3.27,.7v-14.79h-2.77v15.38l-8.83,1.8v-14h-2.77v14.59l-3.88,.79c-.59,.11-1.09,.79-1.09,1.39v5.75c0,1.09,.79,1.4,1.69,1.4l3.27-.7v16.37l-3.88,.79c-.59,.09-1.09,.79-1.09,1.4v5.75c0,1.09,.79,1.38,1.69,1.38l3.27-.68v14.77h2.77v-15.38l8.83-1.78v14h2.77v-14.59l3.77-.7c.6-.11,1.1-.79,1.1-1.39v-5.84c0-.99-.7-1.4-1.6-1.4l-3.27,.7v-16.37l3.77-.7m-15.38,3.07l8.83-1.78v16.37l-8.83,1.89v-16.48"/><path d="M184.33,690.08c.6-.09,1.1-.79,1.1-1.4v-5.84c0-.99-.7-1.39-1.6-1.39l-3.27,.7v-14.79h-2.77v15.38l-8.83,1.8v-14h-2.77v14.59l-3.88,.79c-.59,.11-1.09,.79-1.09,1.39v5.75c0,1.09,.79,1.4,1.69,1.4l3.27-.7v16.37l-3.88,.79c-.59,.09-1.09,.79-1.09,1.4v5.75c0,1.09,.79,1.38,1.69,1.38l3.27-.68v14.77h2.77v-15.38l8.83-1.78v14h2.77v-14.59l3.77-.7c.6-.11,1.1-.79,1.1-1.39v-5.84c0-.99-.7-1.4-1.6-1.4l-3.27,.7v-16.37l3.77-.7m-15.38,3.07l8.83-1.78v16.37l-8.83,1.89v-16.48"/><path d="M211.52,727.28c.6-.09,1.1-.79,1.1-1.4v-5.84c0-.99-.7-1.39-1.6-1.39l-3.27,.7v-14.79h-2.77v15.38l-8.83,1.8v-14h-2.77v14.59l-3.88,.79c-.59,.11-1.09,.79-1.09,1.39v5.75c0,1.09,.79,1.4,1.69,1.4l3.27-.7v16.37l-3.88,.79c-.59,.09-1.09,.79-1.09,1.4v5.75c0,1.09,.79,1.38,1.69,1.38l3.27-.68v14.77h2.77v-15.38l8.83-1.78v14h2.77v-14.59l3.77-.7c.6-.11,1.1-.79,1.1-1.39v-5.84c0-.99-.7-1.4-1.6-1.4l-3.27,.7v-16.37l3.77-.7m-15.38,3.07l8.83-1.78v16.37l-8.83,1.89v-16.48"/><path d="M238.69,764.48c.6-.09,1.1-.79,1.1-1.4v-5.84c0-.99-.7-1.39-1.6-1.39l-3.27,.7v-14.79h-2.77v15.38l-8.83,1.8v-14h-2.77v14.59l-3.88,.79c-.59,.11-1.09,.79-1.09,1.39v5.75c0,1.09,.79,1.4,1.69,1.4l3.27-.7v16.37l-3.88,.79c-.59,.09-1.09,.79-1.09,1.4v5.75c0,1.09,.79,1.38,1.69,1.38l3.27-.68v14.77h2.77v-15.38l8.83-1.78v14h2.77v-14.59l3.77-.7c.6-.11,1.1-.79,1.1-1.39v-5.84c0-.99-.7-1.4-1.6-1.4l-3.27,.7v-16.37l3.77-.7m-15.38,3.07l8.83-1.78v16.37l-8.83,1.89v-16.48"/><path d="M265.88,714.88c.6-.09,1.1-.79,1.1-1.4v-5.84c0-.99-.7-1.39-1.6-1.39l-3.27,.7v-14.79h-2.77v15.38l-8.83,1.8v-14h-2.77v14.59l-3.88,.79c-.59,.11-1.09,.79-1.09,1.39v5.75c0,1.09,.79,1.4,1.69,1.4l3.27-.7v16.37l-3.88,.79c-.59,.09-1.09,.79-1.09,1.4v5.75c0,1.09,.79,1.38,1.69,1.38l3.27-.68v14.77h2.77v-15.38l8.83-1.78v14h2.77v-14.59l3.77-.7c.6-.11,1.1-.79,1.1-1.39v-5.84c0-.99-.7-1.4-1.6-1.4l-3.27,.7v-16.37l3.77-.7m-15.38,3.07l8.83-1.78v16.37l-8.83,1.89v-16.48"/><path d="M1023.87,366.82c9.13-6.36,13.28-12.6,13.28-19.75,0-7.53-4.36-12.11-11.01-12.11-4.76,0-7.94,3.38-7.94,7.35,0,4.26,3.67,7.55,7.94,7.55,2.88,0,4.26-.7,4.56-.81,.31-.09,.5-.19,.81-.19,.09,0,.29,0,.39,.09,.2,.09,.29,.4,.29,.99,0,4.26-3.86,9.13-10.71,13.89l2.39,2.98"/><path d="M2336.53,674.71c-9.32-10.12-17.56-10.71-22.71-10.71s-13.3,.59-22.63,10.71c-4.85,5.36-8.23,15.97-8.23,21.33,0,1.89,.4,3.18,1.4,3.18,2.77,0,1.38-8.54,9.72-16.97,7.33-7.33,17.16-7.44,19.55-7.44h.39c2.39,0,12.21,.11,19.55,7.44,8.34,8.43,6.94,16.97,9.72,16.97,.99,0,1.39-1.19,1.39-3.18,0-5.36-3.27-16.07-8.14-21.33m-29.56,18.94c0,3.78,3.07,6.85,6.85,6.85s6.84-3.07,6.84-6.85-3.07-6.84-6.84-6.84-6.85,3.07-6.85,6.84"/><path d="M2331.7,138.51l64.15,6.2v12.46l-64.15-6.2v-12.46" fill-rule="evenodd"/><path d="M494.61,812.08l85.29-6.2v12.44l-85.29,6.2v-12.44" fill-rule="evenodd"/><path d="M850.91,681.88l85.29,6.2v12.44l-85.29-6.2v-12.44" fill-rule="evenodd"/><path d="M1110.49,20.71l64.14-6.2v12.46l-64.14,6.2v-12.46" fill-rule="evenodd"/><path d="M986.78,830.68l85.3-6.2v12.44l-85.3,6.2v-12.44" fill-rule="evenodd"/><path d="M495.7,466l85.84,6.2v12.44l-85.84-6.2v-12.44" fill-rule="evenodd"/><path d="M1343.09,700.48l85.29,6.2v12.44l-85.29-6.2v-12.44" fill-rule="evenodd"/><path d="M328.98,453.6l85.84-6.2v12.44l-85.84,6.2v-12.44" fill-rule="evenodd"/><path d="M1508.71,688.08l85.3-6.2v12.44l-85.3,6.2v-12.44" fill-rule="evenodd"/><path d="M1233.82,33.11l64.15,6.2v12.46l-64.15-6.2v-12.46" fill-rule="evenodd"/><path d="M1832.49,144.71l64.15-6.2v12.46l-64.15,6.2v-12.46" fill-rule="evenodd"/><path d="M857.94,39.31l64.15,6.2v12.46l-64.15-6.2v-12.46" fill-rule="evenodd"/><path d="M1098.65,447.4l85.84,6.2v12.44l-85.84-6.2v-12.44" fill-rule="evenodd"/><path d="M1835.27,706.68l85.29,6.2v12.44l-85.29-6.2v-12.44" fill-rule="evenodd"/><path d="M2000.89,706.68l85.3-6.2v12.44l-85.3,6.2v-12.44" fill-rule="evenodd"/><path d="M1265.38,447.4l85.84-6.2v12.44l-85.84,6.2v-12.44" fill-rule="evenodd"/><path d="M1456.61,163.31l64.15-6.2v12.46l-64.15,6.2v-12.46" fill-rule="evenodd"/><path d="M734.61,39.31l64.15-6.2v12.46l-64.15,6.2v-12.46" fill-rule="evenodd"/><path d="M1609.7,14.51l64.15,6.2v12.46l-64.15-6.2V14.51" fill-rule="evenodd"/><path d="M1593.85,466l85.84,6.2v12.44l-85.84-6.2v-12.44" fill-rule="evenodd"/><path d="M358.73,45.51l64.15-6.2v12.46l-64.15,6.2v-12.46" fill-rule="evenodd"/><path d="M2089.05,472.2l85.84,6.2v12.44l-85.84-6.2v-12.44" fill-rule="evenodd"/><path d="M1955.82,157.11l64.15,6.2v12.46l-64.15-6.2v-12.46" fill-rule="evenodd"/><path d="M2255.77,472.2l85.84-6.2v12.44l-85.84,6.2v-12.44" fill-rule="evenodd"/><path d="M1760.57,453.6l85.85-6.2v12.44l-85.85,6.2v-12.44" fill-rule="evenodd"/><path d="M2208.37,138.51l64.14-6.2v12.46l-64.14,6.2v-12.46" fill-rule="evenodd"/><path d="M328.98,824.48l85.29,6.2v12.44l-85.29-6.2v-12.44" fill-rule="evenodd"/><path d="M482.07,57.91l64.15,6.2v12.46l-64.15-6.2v-12.46" fill-rule="evenodd"/><path d="M868.81,366.82c0,2.77,2.19,4.96,4.96,4.96s4.96-2.19,4.96-4.96-2.19-4.96-4.96-4.96-4.96,2.19-4.96,4.96"/><path d="M2342.32,799.7c0,2.77,2.19,4.96,4.96,4.96s4.96-2.19,4.96-4.96-2.19-4.96-4.96-4.96-4.96,2.19-4.96,4.96"/></g></svg>