<?xml version="1.0" encoding="UTF-8"?><svg id="b" xmlns="http://www.w3.org/2000/svg" viewBox="0 0 2552 555.49"><g id="c"><line y1="44.25" x2="2552" y2="44.25" fill="none" stroke="#000" stroke-linejoin="bevel" stroke-width="2.73"/><line y1="69.05" x2="2552" y2="69.05" fill="none" stroke="#000" stroke-linejoin="bevel" stroke-width="2.73"/><line y1="93.85" x2="2552" y2="93.85" fill="none" stroke="#000" stroke-linejoin="bevel" stroke-width="2.73"/><line y1="118.65" x2="2552" y2="118.65" fill="none" stroke="#000" stroke-linejoin="bevel" stroke-width="2.73"/><line y1="143.45" x2="2552" y2="143.45" fill="none" stroke="#000" stroke-linejoin="bevel" stroke-width="2.73"/><line y1="415.01" x2="2552" y2="415.01" fill="none" stroke="#000" stroke-linejoin="bevel" stroke-width="2.73"/><line y1="439.81" x2="2552" y2="439.81" fill="none" stroke="#000" stroke-linejoin="bevel" stroke-width="2.73"/><line y1="464.61" x2="2552" y2="464.61" fill="none" stroke="#000" stroke-linejoin="bevel" stroke-width="2.73"/><line y1="489.41" x2="2552" y2="489.41" fill="none" stroke="#000" stroke-linejoin="bevel" stroke-width="2.73"/><line y1="514.21" x2="2552" y2="514.21" fill="none" stroke="#000" stroke-linejoin="bevel" stroke-width="2.73"/><line x1="1419.11" y1="42.89" x2="1419.11" y2="144.82" fill="none" stroke="#000" stroke-linejoin="bevel" stroke-width="4.46"/><line x1="1411.89" y1="413.65" x2="1411.89" y2="515.57" fill="none" stroke="#000" stroke-linejoin="bevel" stroke-width="4.46"/><line x1="785.26" y1="413.65" x2="785.26" y2="515.57" fill="none" stroke="#000" stroke-linejoin="bevel" stroke-width="4.46"/><line x1="2549.77" y1="42.89" x2="2549.77" y2="144.82" fill="none" stroke="#000" stroke-linejoin="bevel" stroke-width="4.46"/><line x1="2049.36" y1="42.89" x2="2049.36" y2="144.82" fill="none" stroke="#000" stroke-linejoin="bevel" stroke-width="4.46"/><line x1="788.86" y1="42.89" x2="788.86" y2="144.82" fill="none" stroke="#000" stroke-linejoin="bevel" stroke-width="4.46"/><line x1="2536.13" y1="413.65" x2="2536.13" y2="515.57" fill="none" stroke="#000" stroke-linejoin="bevel" stroke-width="4.46"/><line x1="2549.77" y1="413.65" x2="2549.77" y2="515.57" fill="none" stroke="#000" stroke-linejoin="bevel" stroke-width="4.46"/><line x1="2038.54" y1="413.65" x2="2038.54" y2="515.57" fill="none" stroke="#000" stroke-linejoin="bevel" stroke-width="4.46"/><line x1="2224.03" y1="19.45" x2="2272.63" y2="19.45" fill="none" stroke="#000" stroke-linejoin="bevel" stroke-width="3.97"/><line x1="1047.15" y1="98.02" x2="1047.15" y2="162.05" fill="none" stroke="#000" stroke-linejoin="bevel" stroke-width="2.48"/><line x1="1121.35" y1="85.62" x2="1121.35" y2="149.65" fill="none" stroke="#000" stroke-linejoin="bevel" stroke-width="2.48"/><line x1="1195.54" y1="73.22" x2="1195.54" y2="149.65" fill="none" stroke="#000" stroke-linejoin="bevel" stroke-width="2.48"/><line x1="1269.73" y1="60.82" x2="1269.73" y2="149.65" fill="none" stroke="#000" stroke-linejoin="bevel" stroke-width="2.48"/><line x1="1343.92" y1="85.62" x2="1343.92" y2="149.65" fill="none" stroke="#000" stroke-linejoin="bevel" stroke-width="2.48"/><line x1="1454.82" y1="73.22" x2="1454.82" y2="143.45" fill="none" stroke="#000" stroke-linejoin="bevel" stroke-width="2.48"/><line x1="1529.02" y1="60.82" x2="1529.02" y2="143.45" fill="none" stroke="#000" stroke-linejoin="bevel" stroke-width="2.48"/><line x1="1603.21" y1="48.42" x2="1603.21" y2="143.45" fill="none" stroke="#000" stroke-linejoin="bevel" stroke-width="2.48"/><line x1="1677.4" y1="73.22" x2="1677.4" y2="143.45" fill="none" stroke="#000" stroke-linejoin="bevel" stroke-width="2.48"/><line x1="1751.59" y1="60.82" x2="1751.59" y2="137.25" fill="none" stroke="#000" stroke-linejoin="bevel" stroke-width="2.48"/><line x1="1825.79" y1="48.42" x2="1825.79" y2="137.25" fill="none" stroke="#000" stroke-linejoin="bevel" stroke-width="2.48"/><line x1="1974.17" y1="60.82" x2="1974.17" y2="137.25" fill="none" stroke="#000" stroke-linejoin="bevel" stroke-width="2.48"/><line x1="2085.07" y1="48.42" x2="2085.07" y2="118.65" fill="none" stroke="#000" stroke-linejoin="bevel" stroke-width="2.48"/><line x1="2159.27" y1="36.02" x2="2159.27" y2="118.65" fill="none" stroke="#000" stroke-linejoin="bevel" stroke-width="2.48"/><line x1="2233.46" y1="23.62" x2="2233.46" y2="118.65" fill="none" stroke="#000" stroke-linejoin="bevel" stroke-width="2.48"/><line x1="2307.65" y1="48.42" x2="2307.65" y2="118.65" fill="none" stroke="#000" stroke-linejoin="bevel" stroke-width="2.48"/><line x1="2381.84" y1="36.02" x2="2381.84" y2="118.65" fill="none" stroke="#000" stroke-linejoin="bevel" stroke-width="2.48"/><line x1="194.33" y1="406.78" x2="194.33" y2="508.01" fill="none" stroke="#000" stroke-linejoin="bevel" stroke-width="2.48"/><line x1="268.07" y1="419.18" x2="268.07" y2="508.01" fill="none" stroke="#000" stroke-linejoin="bevel" stroke-width="2.48"/><line x1="341.81" y1="431.58" x2="341.81" y2="508.01" fill="none" stroke="#000" stroke-linejoin="bevel" stroke-width="2.48"/><line x1="415.55" y1="406.78" x2="415.55" y2="508.01" fill="none" stroke="#000" stroke-linejoin="bevel" stroke-width="2.48"/><line x1="489.3" y1="419.18" x2="489.3" y2="514.21" fill="none" stroke="#000" stroke-linejoin="bevel" stroke-width="2.48"/><line x1="636.78" y1="443.98" x2="636.78" y2="514.21" fill="none" stroke="#000" stroke-linejoin="bevel" stroke-width="2.48"/><line x1="710.52" y1="419.18" x2="710.52" y2="514.21" fill="none" stroke="#000" stroke-linejoin="bevel" stroke-width="2.48"/><line x1="820.97" y1="431.58" x2="820.97" y2="520.41" fill="none" stroke="#000" stroke-linejoin="bevel" stroke-width="2.48"/><line x1="894.71" y1="443.98" x2="894.71" y2="520.41" fill="none" stroke="#000" stroke-linejoin="bevel" stroke-width="2.48"/><line x1="1772.33" y1="460.64" x2="1772.33" y2="396.41" fill="none" stroke="#000" stroke-linejoin="bevel" stroke-width="2.48"/><line x1="2104" y1="473.04" x2="2104" y2="408.81" fill="none" stroke="#000" stroke-linejoin="bevel" stroke-width="2.48"/><line x1="2177.75" y1="485.44" x2="2177.75" y2="408.81" fill="none" stroke="#000" stroke-linejoin="bevel" stroke-width="2.48"/><line x1="2251.49" y1="497.84" x2="2251.49" y2="408.81" fill="none" stroke="#000" stroke-linejoin="bevel" stroke-width="2.48"/><line x1="2325.23" y1="473.04" x2="2325.23" y2="408.81" fill="none" stroke="#000" stroke-linejoin="bevel" stroke-width="2.48"/><line x1="2398.97" y1="485.44" x2="2398.97" y2="402.61" fill="none" stroke="#000" stroke-linejoin="bevel" stroke-width="2.48"/><line x1="1521.35" y1="468.78" x2="1521.35" y2="545.21" fill="none" stroke="#000" stroke-linejoin="bevel" stroke-width="2.48"/><line x1="1668.84" y1="456.38" x2="1668.84" y2="545.21" fill="none" stroke="#000" stroke-linejoin="bevel" stroke-width="2.48"/><line x1="563.04" y1="431.58" x2="563.04" y2="514.21" fill="none" stroke="#000" stroke-linejoin="bevel" stroke-width="2.48"/><line x1="1846.07" y1="473.04" x2="1846.07" y2="396.41" fill="none" stroke="#000" stroke-linejoin="bevel" stroke-width="2.48"/><line x1="1447.61" y1="456.38" x2="1447.61" y2="545.21" fill="none" stroke="#000" stroke-linejoin="bevel" stroke-width="2.48"/><line x1="224.08" y1="114.68" x2="224.08" y2="25.65" fill="none" stroke="#000" stroke-linejoin="bevel" stroke-width="2.48"/><line x1="1337.16" y1="443.98" x2="1337.16" y2="532.81" fill="none" stroke="#000" stroke-linejoin="bevel" stroke-width="2.48"/><line x1="298.27" y1="102.28" x2="298.27" y2="25.65" fill="none" stroke="#000" stroke-linejoin="bevel" stroke-width="2.48"/><line x1="1919.81" y1="485.44" x2="1919.81" y2="396.41" fill="none" stroke="#000" stroke-linejoin="bevel" stroke-width="2.48"/><line x1="1263.42" y1="468.78" x2="1263.42" y2="532.81" fill="none" stroke="#000" stroke-linejoin="bevel" stroke-width="2.48"/><line x1="1189.68" y1="456.38" x2="1189.68" y2="532.81" fill="none" stroke="#000" stroke-linejoin="bevel" stroke-width="2.48"/><line x1="1993.55" y1="460.64" x2="1993.55" y2="396.41" fill="none" stroke="#000" stroke-linejoin="bevel" stroke-width="2.48"/><line x1="372.46" y1="89.88" x2="372.46" y2="25.65" fill="none" stroke="#000" stroke-linejoin="bevel" stroke-width="2.48"/><line x1="1115.94" y1="443.98" x2="1115.94" y2="532.81" fill="none" stroke="#000" stroke-linejoin="bevel" stroke-width="2.48"/><line x1="1595.09" y1="481.18" x2="1595.09" y2="545.21" fill="none" stroke="#000" stroke-linejoin="bevel" stroke-width="2.48"/><line x1="446.66" y1="114.68" x2="446.66" y2="25.65" fill="none" stroke="#000" stroke-linejoin="bevel" stroke-width="2.48"/><line x1="1899.98" y1="36.02" x2="1899.98" y2="137.25" fill="none" stroke="#000" stroke-linejoin="bevel" stroke-width="2.48"/><line x1="491.1" y1="110.42" x2="491.1" y2="174.45" fill="none" stroke="#000" stroke-linejoin="bevel" stroke-width="2.48"/><line x1="565.29" y1="98.02" x2="565.29" y2="174.45" fill="none" stroke="#000" stroke-linejoin="bevel" stroke-width="2.48"/><line x1="639.48" y1="85.62" x2="639.48" y2="174.45" fill="none" stroke="#000" stroke-linejoin="bevel" stroke-width="2.48"/><line x1="1042.19" y1="431.58" x2="1042.19" y2="520.41" fill="none" stroke="#000" stroke-linejoin="bevel" stroke-width="2.48"/><line x1="713.68" y1="110.42" x2="713.68" y2="174.45" fill="none" stroke="#000" stroke-linejoin="bevel" stroke-width="2.48"/><line x1="824.57" y1="98.02" x2="824.57" y2="162.05" fill="none" stroke="#000" stroke-linejoin="bevel" stroke-width="2.48"/><line x1="898.77" y1="85.62" x2="898.77" y2="162.05" fill="none" stroke="#000" stroke-linejoin="bevel" stroke-width="2.48"/><line x1="972.96" y1="73.22" x2="972.96" y2="162.05" fill="none" stroke="#000" stroke-linejoin="bevel" stroke-width="2.48"/><line x1="968.45" y1="456.38" x2="968.45" y2="520.41" fill="none" stroke="#000" stroke-linejoin="bevel" stroke-width="2.48"/><path d="M193.09,122.82c0,4.26,3.07,9.02,11.11,9.02,10.31,0,21.13-8.43,21.13-17.16,0-5.86-4.96-9.13-11.11-9.13-9.63,0-21.13,8.14-21.13,17.27"/><path d="M267.28,110.42c0,4.26,3.07,9.02,11.11,9.02,10.31,0,21.13-8.43,21.13-17.16,0-5.86-4.96-9.13-11.11-9.13-9.63,0-21.13,8.14-21.13,17.27"/><path d="M341.47,98.02c0,4.26,3.07,9.02,11.11,9.02,10.31,0,21.13-8.43,21.13-17.16,0-5.86-4.96-9.13-11.11-9.13-9.63,0-21.13,8.14-21.13,17.27"/><path d="M415.66,122.82c0,4.26,3.07,9.02,11.11,9.02,10.31,0,21.13-8.43,21.13-17.16,0-5.86-4.96-9.13-11.11-9.13-9.63,0-21.13,8.14-21.13,17.27"/><path d="M489.86,110.42c0,4.26,3.07,9.02,11.11,9.02,10.31,0,21.13-8.43,21.13-17.16,0-5.86-4.96-9.13-11.11-9.13-9.63,0-21.13,8.14-21.13,17.27"/><path d="M564.05,98.02c0,4.26,3.07,9.02,11.11,9.02,10.31,0,21.13-8.43,21.13-17.16,0-5.86-4.96-9.13-11.11-9.13-9.63,0-21.13,8.14-21.13,17.27"/><path d="M638.24,85.62c0,4.26,3.07,9.02,11.11,9.02,10.31,0,21.13-8.43,21.13-17.16,0-5.86-4.96-9.13-11.11-9.13-9.63,0-21.13,8.14-21.13,17.27"/><path d="M712.44,110.42c0,4.26,3.07,9.02,11.11,9.02,10.31,0,21.13-8.43,21.13-17.16,0-5.86-4.96-9.13-11.11-9.13-9.63,0-21.13,8.14-21.13,17.27"/><path d="M823.33,98.02c0,4.26,3.07,9.02,11.11,9.02,10.31,0,21.13-8.43,21.13-17.16,0-5.86-4.96-9.13-11.11-9.13-9.63,0-21.13,8.14-21.13,17.27"/><path d="M897.53,85.62c0,4.26,3.07,9.02,11.11,9.02,10.31,0,21.13-8.43,21.13-17.16,0-5.86-4.96-9.13-11.11-9.13-9.63,0-21.13,8.14-21.13,17.27"/><path d="M971.72,73.22c0,4.26,3.07,9.02,11.11,9.02,10.31,0,21.13-8.43,21.13-17.16,0-5.86-4.96-9.13-11.11-9.13-9.63,0-21.13,8.14-21.13,17.27"/><path d="M1045.91,98.02c0,4.26,3.07,9.02,11.11,9.02,10.31,0,21.13-8.43,21.13-17.16,0-5.86-4.96-9.13-11.11-9.13-9.63,0-21.13,8.14-21.13,17.27"/><path d="M1120.11,85.62c0,4.26,3.07,9.02,11.11,9.02,10.31,0,21.13-8.43,21.13-17.16,0-5.86-4.96-9.13-11.11-9.13-9.63,0-21.13,8.14-21.13,17.27"/><path d="M1194.3,73.22c0,4.26,3.07,9.02,11.11,9.02,10.31,0,21.13-8.43,21.13-17.16,0-5.86-4.96-9.13-11.11-9.13-9.63,0-21.13,8.14-21.13,17.27"/><path d="M1268.49,60.82c0,4.26,3.07,9.02,11.11,9.02,10.31,0,21.13-8.43,21.13-17.16,0-5.86-4.96-9.13-11.11-9.13-9.63,0-21.13,8.14-21.13,17.27"/><path d="M1342.68,85.62c0,4.26,3.07,9.02,11.11,9.02,10.31,0,21.13-8.43,21.13-17.16,0-5.86-4.96-9.13-11.11-9.13-9.63,0-21.13,8.14-21.13,17.27"/><path d="M1453.58,73.22c0,4.26,3.07,9.02,11.11,9.02,10.31,0,21.13-8.43,21.13-17.16,0-5.86-4.96-9.13-11.11-9.13-9.63,0-21.13,8.14-21.13,17.27"/><path d="M1527.78,60.82c0,4.26,3.07,9.02,11.11,9.02,10.31,0,21.13-8.43,21.13-17.16,0-5.86-4.96-9.13-11.11-9.13-9.63,0-21.13,8.14-21.13,17.27"/><path d="M1601.97,48.42c0,4.26,3.07,9.02,11.11,9.02,10.31,0,21.13-8.43,21.13-17.16,0-5.86-4.96-9.13-11.11-9.13-9.63,0-21.13,8.14-21.13,17.27"/><path d="M1676.16,73.22c0,4.26,3.07,9.02,11.11,9.02,10.31,0,21.13-8.43,21.13-17.16,0-5.86-4.96-9.13-11.11-9.13-9.63,0-21.13,8.14-21.13,17.27"/><path d="M1750.35,60.82c0,4.26,3.07,9.02,11.11,9.02,10.31,0,21.13-8.43,21.13-17.16,0-5.86-4.96-9.13-11.11-9.13-9.63,0-21.13,8.14-21.13,17.27"/><path d="M1824.55,48.42c0,4.26,3.07,9.02,11.11,9.02,10.31,0,21.13-8.43,21.13-17.16,0-5.86-4.96-9.13-11.11-9.13-9.63,0-21.13,8.14-21.13,17.27"/><path d="M1898.74,36.02c0,4.26,3.07,9.02,11.11,9.02,10.31,0,21.13-8.43,21.13-17.16,0-5.86-4.96-9.13-11.11-9.13-9.63,0-21.13,8.14-21.13,17.27"/><path d="M1972.93,60.82c0,4.26,3.07,9.02,11.11,9.02,10.31,0,21.13-8.43,21.13-17.16,0-5.86-4.96-9.13-11.11-9.13-9.63,0-21.13,8.14-21.13,17.27"/><path d="M2083.83,48.42c0,4.26,3.07,9.02,11.11,9.02,10.31,0,21.13-8.43,21.13-17.16,0-5.86-4.96-9.13-11.11-9.13-9.63,0-21.13,8.14-21.13,17.27"/><path d="M2158.03,36.02c0,4.26,3.07,9.02,11.11,9.02,10.31,0,21.13-8.43,21.13-17.16,0-5.86-4.96-9.13-11.11-9.13-9.63,0-21.13,8.14-21.13,17.27"/><path d="M2232.22,23.62c0,4.26,3.07,9.02,11.11,9.02,10.31,0,21.13-8.43,21.13-17.16,0-5.86-4.96-9.13-11.11-9.13-9.63,0-21.13,8.14-21.13,17.27"/><path d="M2306.41,48.42c0,4.26,3.07,9.02,11.11,9.02,10.31,0,21.13-8.43,21.13-17.16,0-5.86-4.96-9.13-11.11-9.13-9.63,0-21.13,8.14-21.13,17.27"/><path d="M2401.73,18.76c-9.63,0-21.13,8.04-21.13,17.27,0,4.26,3.07,9.02,11.11,9.02,10.31,0,21.13-8.43,21.13-17.16,0-5.86-4.96-9.13-11.11-9.13m-13.69,21.62c-3.27,0-3.97-2.67-3.97-3.56,0-4.87,16.66-13.39,21.33-13.39,2.39,0,3.97,1.39,3.97,3.56,0,4.96-16.77,13.39-21.33,13.39"/><path d="M193.09,406.78c0,4.26,3.07,9.02,11.11,9.02,10.31,0,21.13-8.43,21.13-17.16,0-5.86-4.96-9.13-11.11-9.13-9.63,0-21.13,8.14-21.13,17.27"/><path d="M266.83,419.18c0,4.26,3.07,9.02,11.11,9.02,10.31,0,21.13-8.43,21.13-17.16,0-5.86-4.96-9.13-11.11-9.13-9.63,0-21.13,8.14-21.13,17.27"/><path d="M340.57,431.58c0,4.26,3.07,9.02,11.11,9.02,10.31,0,21.13-8.43,21.13-17.16,0-5.86-4.96-9.13-11.11-9.13-9.63,0-21.13,8.14-21.13,17.27"/><path d="M414.31,406.78c0,4.26,3.07,9.02,11.11,9.02,10.31,0,21.13-8.43,21.13-17.16,0-5.86-4.96-9.13-11.11-9.13-9.63,0-21.13,8.14-21.13,17.27"/><path d="M488.06,419.18c0,4.26,3.07,9.02,11.11,9.02,10.31,0,21.13-8.43,21.13-17.16,0-5.86-4.96-9.13-11.11-9.13-9.63,0-21.13,8.14-21.13,17.27"/><path d="M561.8,431.58c0,4.26,3.07,9.02,11.11,9.02,10.31,0,21.13-8.43,21.13-17.16,0-5.86-4.96-9.13-11.11-9.13-9.63,0-21.13,8.14-21.13,17.27"/><path d="M635.54,443.98c0,4.26,3.07,9.02,11.11,9.02,10.31,0,21.13-8.43,21.13-17.16,0-5.86-4.96-9.13-11.11-9.13-9.63,0-21.13,8.14-21.13,17.27"/><path d="M709.28,419.18c0,4.26,3.07,9.02,11.11,9.02,10.31,0,21.13-8.43,21.13-17.16,0-5.86-4.96-9.13-11.11-9.13-9.63,0-21.13,8.14-21.13,17.27"/><path d="M819.73,431.58c0,4.26,3.07,9.02,11.11,9.02,10.31,0,21.13-8.43,21.13-17.16,0-5.86-4.96-9.13-11.11-9.13-9.63,0-21.13,8.14-21.13,17.27"/><path d="M893.47,443.98c0,4.26,3.07,9.02,11.11,9.02,10.31,0,21.13-8.43,21.13-17.16,0-5.86-4.96-9.13-11.11-9.13-9.63,0-21.13,8.14-21.13,17.27"/><path d="M967.21,456.38c0,4.26,3.07,9.02,11.11,9.02,10.31,0,21.13-8.43,21.13-17.16,0-5.86-4.96-9.13-11.11-9.13-9.63,0-21.13,8.14-21.13,17.27"/><path d="M1040.95,431.58c0,4.26,3.07,9.02,11.11,9.02,10.31,0,21.13-8.43,21.13-17.16,0-5.86-4.96-9.13-11.11-9.13-9.63,0-21.13,8.14-21.13,17.27"/><path d="M1114.7,443.98c0,4.26,3.07,9.02,11.11,9.02,10.31,0,21.13-8.43,21.13-17.16,0-5.86-4.96-9.13-11.11-9.13-9.63,0-21.13,8.14-21.13,17.27"/><path d="M1188.44,456.38c0,4.26,3.07,9.02,11.11,9.02,10.31,0,21.13-8.43,21.13-17.16,0-5.86-4.96-9.13-11.11-9.13-9.63,0-21.13,8.14-21.13,17.27"/><path d="M1262.18,468.78c0,4.26,3.07,9.02,11.11,9.02,10.31,0,21.13-8.43,21.13-17.16,0-5.86-4.96-9.13-11.11-9.13-9.63,0-21.13,8.14-21.13,17.27"/><path d="M1335.92,443.98c0,4.26,3.07,9.02,11.11,9.02,10.31,0,21.13-8.43,21.13-17.16,0-5.86-4.96-9.13-11.11-9.13-9.63,0-21.13,8.14-21.13,17.27"/><path d="M1520.11,468.78c0,4.26,3.07,9.02,11.11,9.02,10.31,0,21.13-8.43,21.13-17.16,0-5.86-4.96-9.13-11.11-9.13-9.63,0-21.13,8.14-21.13,17.27"/><path d="M1593.85,481.18c0,4.26,3.07,9.02,11.11,9.02,10.31,0,21.13-8.43,21.13-17.16,0-5.86-4.96-9.13-11.11-9.13-9.63,0-21.13,8.14-21.13,17.27"/><path d="M1667.6,456.38c0,4.26,3.07,9.02,11.11,9.02,10.31,0,21.13-8.43,21.13-17.16,0-5.86-4.96-9.13-11.11-9.13-9.63,0-21.13,8.14-21.13,17.27"/><path d="M1741.34,468.78c0,4.26,3.07,9.02,11.11,9.02,10.31,0,21.13-8.43,21.13-17.16,0-5.86-4.96-9.13-11.11-9.13-9.63,0-21.13,8.14-21.13,17.27"/><path d="M1815.08,481.18c0,4.26,3.07,9.02,11.11,9.02,10.31,0,21.13-8.43,21.13-17.16,0-5.86-4.96-9.13-11.11-9.13-9.63,0-21.13,8.14-21.13,17.27"/><path d="M1888.82,493.58c0,4.26,3.07,9.02,11.11,9.02,10.31,0,21.13-8.43,21.13-17.16,0-5.86-4.96-9.13-11.11-9.13-9.63,0-21.13,8.14-21.13,17.27"/><path d="M1962.56,468.78c0,4.26,3.07,9.02,11.11,9.02,10.31,0,21.13-8.43,21.13-17.16,0-5.86-4.96-9.13-11.11-9.13-9.63,0-21.13,8.14-21.13,17.27"/><path d="M2073.01,481.18c0,4.26,3.07,9.02,11.11,9.02,10.31,0,21.13-8.43,21.13-17.16,0-5.86-4.96-9.13-11.11-9.13-9.63,0-21.13,8.14-21.13,17.27"/><path d="M2146.75,493.58c0,4.26,3.07,9.02,11.11,9.02,10.31,0,21.13-8.43,21.13-17.16,0-5.86-4.96-9.13-11.11-9.13-9.63,0-21.13,8.14-21.13,17.27"/><path d="M2220.5,505.98c0,4.26,3.07,9.02,11.11,9.02,10.31,0,21.13-8.43,21.13-17.16,0-5.86-4.96-9.13-11.11-9.13-9.63,0-21.13,8.14-21.13,17.27"/><path d="M2294.24,481.18c0,4.26,3.07,9.02,11.11,9.02,10.31,0,21.13-8.43,21.13-17.16,0-5.86-4.96-9.13-11.11-9.13-9.63,0-21.13,8.14-21.13,17.27"/><path d="M2389.11,476.31c-9.63,0-21.13,8.04-21.13,17.27,0,4.26,3.07,9.02,11.11,9.02,10.31,0,21.13-8.43,21.13-17.16,0-5.86-4.96-9.13-11.11-9.13m-13.69,21.62c-3.27,0-3.97-2.67-3.97-3.56,0-4.87,16.66-13.39,21.33-13.39,2.39,0,3.97,1.39,3.97,3.56,0,4.96-16.77,13.39-21.33,13.39"/><path d="M1446.37,456.38c0,4.26,3.07,9.02,11.11,9.02,10.31,0,21.13-8.43,21.13-17.16,0-5.86-4.96-9.13-11.11-9.13-9.63,0-21.13,8.14-21.13,17.27"/><path d="M30.8,169.54c0,6.56,4.96,15.19,18.35,15.19,4.67,0,8.74-1.19,12.31-3.38,5.36-3.77,6.74-10.32,6.74-16.57,0-3.86-.59-8.32-1.58-13.98-.29-1.98-.9-4.96-1.49-8.84,9.72-3.18,16.96-13.3,16.96-23.51,0-14.97-10.62-25.09-25.09-25.09-.99-5.95-1.98-11.81-2.77-17.36,10.42-11.02,17.65-23.42,17.65-39.18,0-9.04-2.77-16.37-4.37-19.95-2.37-5.05-5.25-8.53-7.04-8.53-.7,0-3.77,1.19-7.04,5.05-6.36,7.55-8.14,20.24-8.14,28.57,0,5.36,.5,10.23,2.19,21.34-.11,.09-5.27,5.35-7.35,7.04-9.04,8.34-21.53,20.43-21.53,40.28,0,18.54,16.17,33.12,34.63,33.12,2.87,0,5.55-.29,7.83-.7,1.89,9.53,3.08,16.48,3.08,21.73,0,10.32-5.36,15.78-15.38,15.78-2.39,0-4.46-.5-4.67-.5-.09-.11-.29-.2-.29-.29,0-.2,.2-.31,.5-.31,4.67-.79,9.32-4.76,9.32-11.1,0-5.36-4.06-11.02-11.5-11.02-6.94,0-11.31,5.66-11.31,12.2M51.54,37.11c.9-3.97,5.46-14.38,10.62-14.38,1.49,0,3.86,4.76,3.86,11.7,0,10.32-7.63,18.06-14.48,24.8-.59-3.97-1.08-7.83-1.08-12,0-3.67,.29-7.05,1.08-10.12m8.73,101.97c-1.98,.4-3.86,.6-5.75,.6-14.18,0-26.29-9.92-26.29-24.91,0-12.09,8.53-22.91,17.27-30.46,1.67-1.49,3.27-2.87,4.76-4.36,.88,5.35,1.58,10.01,2.28,14.09-9.04,2.68-15.17,12.2-15.17,21.53,0,6.94,5.46,16.46,13.39,16.46,.79,0,1.69-.4,1.69-1.29s-.99-1.39-2.19-2.19c-3.88-2.39-6.06-4.96-6.06-9.83,0-6.04,4.57-10.91,10.32-12.29l5.75,32.63m14.09-18.35c0,7.05-2.88,14.29-9.92,17.17-2.08-11.9-4.76-27.68-5.46-32.05,8.93,0,15.38,6.06,15.38,14.88"/><path d="M30.8,540.3c0,6.56,4.96,15.19,18.35,15.19,4.67,0,8.74-1.19,12.31-3.38,5.36-3.77,6.74-10.32,6.74-16.57,0-3.86-.59-8.32-1.58-13.98-.29-1.98-.9-4.96-1.49-8.84,9.72-3.18,16.96-13.3,16.96-23.51,0-14.97-10.62-25.09-25.09-25.09-.99-5.95-1.98-11.81-2.77-17.36,10.42-11.02,17.65-23.42,17.65-39.18,0-9.04-2.77-16.37-4.37-19.95-2.37-5.05-5.25-8.53-7.04-8.53-.7,0-3.77,1.19-7.04,5.05-6.36,7.55-8.14,20.24-8.14,28.57,0,5.36,.5,10.23,2.19,21.34-.11,.09-5.27,5.35-7.35,7.04-9.04,8.34-21.53,20.43-21.53,40.28,0,18.54,16.17,33.12,34.63,33.12,2.87,0,5.55-.29,7.83-.7,1.89,9.53,3.08,16.48,3.08,21.73,0,10.32-5.36,15.78-15.38,15.78-2.39,0-4.46-.5-4.67-.5-.09-.11-.29-.2-.29-.29,0-.2,.2-.31,.5-.31,4.67-.79,9.32-4.76,9.32-11.1,0-5.36-4.06-11.02-11.5-11.02-6.94,0-11.31,5.66-11.31,12.2m20.74-132.43c.9-3.97,5.46-14.38,10.62-14.38,1.49,0,3.86,4.76,3.86,11.7,0,10.32-7.63,18.06-14.48,24.8-.59-3.97-1.08-7.83-1.08-12,0-3.67,.29-7.05,1.08-10.12m8.73,101.97c-1.98,.4-3.86,.6-5.75,.6-14.18,0-26.29-9.92-26.29-24.91,0-12.09,8.53-22.91,17.27-30.46,1.67-1.49,3.27-2.87,4.76-4.36,.88,5.35,1.58,10.01,2.28,14.09-9.04,2.68-15.17,12.2-15.17,21.53,0,6.94,5.46,16.46,13.39,16.46,.79,0,1.69-.4,1.69-1.29s-.99-1.39-2.19-2.19c-3.88-2.39-6.06-4.96-6.06-9.83,0-6.04,4.57-10.91,10.32-12.29l5.75,32.63m14.09-18.35c0,7.05-2.88,14.29-9.92,17.17-2.08-11.9-4.76-27.68-5.46-32.05,8.93,0,15.38,6.06,15.38,14.88"/><path d="M130,404.59c.6-.09,1.1-.79,1.1-1.4v-5.84c0-.99-.7-1.39-1.6-1.39l-3.27,.7v-14.79h-2.77v15.38l-8.83,1.8v-14h-2.77v14.59l-3.87,.79c-.59,.11-1.08,.79-1.08,1.39v5.75c0,1.08,.79,1.39,1.69,1.39l3.27-.7v16.37l-3.87,.79c-.59,.09-1.08,.79-1.08,1.4v5.75c0,1.09,.79,1.38,1.69,1.38l3.27-.68v14.77h2.77v-15.38l8.83-1.78v14h2.77v-14.59l3.77-.7c.6-.11,1.1-.79,1.1-1.39v-5.84c0-.99-.7-1.39-1.6-1.39l-3.27,.7v-16.37l3.77-.7m-15.38,3.07l8.83-1.78v16.37l-8.83,1.89v-16.48"/><path d="M129.99,33.84c.6-.09,1.1-.79,1.1-1.4v-5.84c0-.99-.7-1.39-1.6-1.39l-3.27,.7V11.11h-2.77v15.38l-8.83,1.8V14.29h-2.77v14.59l-3.87,.79c-.59,.11-1.08,.79-1.08,1.39v5.75c0,1.08,.79,1.39,1.69,1.39l3.27-.7v16.37l-3.87,.79c-.59,.09-1.08,.79-1.08,1.4v5.75c0,1.09,.79,1.38,1.69,1.38l3.27-.68v14.77h2.77v-15.38l8.83-1.78v14h2.77v-14.59l3.77-.7c.6-.11,1.1-.79,1.1-1.39v-5.84c0-.99-.7-1.39-1.6-1.39l-3.27,.7v-16.37l3.77-.7m-15.38,3.07l8.83-1.78v16.37l-8.83,1.89v-16.48"/><path d="M2509.45,31.85c9.13-6.35,13.28-12.6,13.28-19.75,0-7.53-4.36-12.11-11.01-12.11-4.76,0-7.94,3.38-7.94,7.35,0,4.26,3.67,7.55,7.94,7.55,2.88,0,4.26-.7,4.56-.81,.31-.09,.5-.19,.81-.19,.09,0,.29,0,.39,.09,.2,.09,.29,.4,.29,.99,0,4.26-3.86,9.13-10.71,13.89l2.39,2.98"/><path d="M2406.82,366.9c-9.32-10.12-17.56-10.71-22.71-10.71s-13.3,.59-22.63,10.71c-4.85,5.36-8.23,15.96-8.23,21.33,0,1.89,.4,3.18,1.39,3.18,2.77,0,1.38-8.54,9.72-16.97,7.33-7.33,17.16-7.44,19.55-7.44h.39c2.39,0,12.21,.11,19.55,7.44,8.34,8.43,6.94,16.97,9.72,16.97,.99,0,1.39-1.19,1.39-3.18,0-5.36-3.27-16.07-8.14-21.33m-29.56,18.94c0,3.78,3.07,6.85,6.85,6.85s6.84-3.07,6.84-6.85-3.07-6.84-6.84-6.84-6.85,3.07-6.85,6.84"/><path d="M1771.09,390.21h223.7v12.4h-223.7v-12.4" fill-rule="evenodd"/><path d="M1446.37,539.01h223.71v12.4h-223.71v-12.4" fill-rule="evenodd"/><path d="M1114.7,526.61h223.7v12.4h-223.7v-12.4" fill-rule="evenodd"/><path d="M819.73,514.21h223.7v12.4h-223.7v-12.4" fill-rule="evenodd"/><path d="M488.06,508.01h223.71v12.4h-223.71v-12.4" fill-rule="evenodd"/><path d="M823.33,155.85h225.06v12.4h-225.06v-12.4" fill-rule="evenodd"/><path d="M1120.11,143.45h225.05v12.4h-225.05v-12.4" fill-rule="evenodd"/><path d="M1453.58,137.25h225.06v12.4h-225.06v-12.4" fill-rule="evenodd"/><path d="M489.86,168.25h225.06v12.4h-225.06v-12.4" fill-rule="evenodd"/><path d="M1750.35,131.05h225.06v12.4h-225.06v-12.4" fill-rule="evenodd"/><path d="M2083.83,112.45h225.06v12.4h-225.06v-12.4" fill-rule="evenodd"/><path d="M222.84,19.45h225.06v12.4H222.84v-12.4" fill-rule="evenodd"/><path d="M2102.76,402.61h223.71v12.4h-223.71v-12.4" fill-rule="evenodd"/><path d="M193.09,501.81h223.71v12.4H193.09v-12.4" fill-rule="evenodd"/></g></svg>