<?xml version="1.0" encoding="UTF-8"?><svg id="b" xmlns="http://www.w3.org/2000/svg" viewBox="0 0 2552 590.69"><g id="c"><line y1="45.54" x2="2552" y2="45.54" fill="none" stroke="#000" stroke-linejoin="bevel" stroke-width="2.73"/><line y1="70.34" x2="2552" y2="70.34" fill="none" stroke="#000" stroke-linejoin="bevel" stroke-width="2.73"/><line y1="95.14" x2="2552" y2="95.14" fill="none" stroke="#000" stroke-linejoin="bevel" stroke-width="2.73"/><line y1="119.94" x2="2552" y2="119.94" fill="none" stroke="#000" stroke-linejoin="bevel" stroke-width="2.73"/><line y1="144.74" x2="2552" y2="144.74" fill="none" stroke="#000" stroke-linejoin="bevel" stroke-width="2.73"/><line y1="416.3" x2="2552" y2="416.3" fill="none" stroke="#000" stroke-linejoin="bevel" stroke-width="2.73"/><line y1="441.1" x2="2552" y2="441.1" fill="none" stroke="#000" stroke-linejoin="bevel" stroke-width="2.73"/><line y1="465.9" x2="2552" y2="465.9" fill="none" stroke="#000" stroke-linejoin="bevel" stroke-width="2.73"/><line y1="490.7" x2="2552" y2="490.7" fill="none" stroke="#000" stroke-linejoin="bevel" stroke-width="2.73"/><line y1="515.5" x2="2552" y2="515.5" fill="none" stroke="#000" stroke-linejoin="bevel" stroke-width="2.73"/><line x1="2536.13" y1="414.93" x2="2536.13" y2="516.86" fill="none" stroke="#000" stroke-linejoin="bevel" stroke-width="4.46"/><line x1="2549.77" y1="414.93" x2="2549.77" y2="516.86" fill="none" stroke="#000" stroke-linejoin="bevel" stroke-width="4.46"/><line x1="2071.82" y1="44.18" x2="2071.82" y2="146.11" fill="none" stroke="#000" stroke-linejoin="bevel" stroke-width="4.46"/><line x1="868.83" y1="44.18" x2="868.83" y2="146.11" fill="none" stroke="#000" stroke-linejoin="bevel" stroke-width="4.46"/><line x1="865.22" y1="414.93" x2="865.22" y2="516.86" fill="none" stroke="#000" stroke-linejoin="bevel" stroke-width="4.46"/><line x1="2061" y1="414.93" x2="2061" y2="516.86" fill="none" stroke="#000" stroke-linejoin="bevel" stroke-width="4.46"/><line x1="1463.11" y1="414.93" x2="1463.11" y2="516.86" fill="none" stroke="#000" stroke-linejoin="bevel" stroke-width="4.46"/><line x1="2549.77" y1="44.18" x2="2549.77" y2="146.11" fill="none" stroke="#000" stroke-linejoin="bevel" stroke-width="4.46"/><line x1="1470.32" y1="44.18" x2="1470.32" y2="146.11" fill="none" stroke="#000" stroke-linejoin="bevel" stroke-width="4.46"/><line x1="2227.58" y1="540.3" x2="2276.18" y2="540.3" fill="none" stroke="#000" stroke-linejoin="bevel" stroke-width="3.97"/><line x1="576.01" y1="169.54" x2="624.61" y2="169.54" fill="none" stroke="#000" stroke-linejoin="bevel" stroke-width="3.97"/><line x1="1629.69" y1="540.3" x2="1678.29" y2="540.3" fill="none" stroke="#000" stroke-linejoin="bevel" stroke-width="3.97"/><line x1="1910.29" y1="540.3" x2="1958.89" y2="540.3" fill="none" stroke="#000" stroke-linejoin="bevel" stroke-width="3.97"/><line x1="2227.58" y1="565.1" x2="2276.18" y2="565.1" fill="none" stroke="#000" stroke-linejoin="bevel" stroke-width="3.97"/><line x1="2157.44" y1="540.3" x2="2206.04" y2="540.3" fill="none" stroke="#000" stroke-linejoin="bevel" stroke-width="3.97"/><line x1="1382.54" y1="540.3" x2="1431.14" y2="540.3" fill="none" stroke="#000" stroke-linejoin="bevel" stroke-width="3.97"/><line x1="2087.29" y1="540.3" x2="2135.89" y2="540.3" fill="none" stroke="#000" stroke-linejoin="bevel" stroke-width="3.97"/><line x1="2367.88" y1="540.3" x2="2416.48" y2="540.3" fill="none" stroke="#000" stroke-linejoin="bevel" stroke-width="3.97"/><line x1="1840.14" y1="540.3" x2="1888.74" y2="540.3" fill="none" stroke="#000" stroke-linejoin="bevel" stroke-width="3.97"/><line x1="2297.73" y1="540.3" x2="2346.33" y2="540.3" fill="none" stroke="#000" stroke-linejoin="bevel" stroke-width="3.97"/><line x1="1980.43" y1="540.3" x2="2029.04" y2="540.3" fill="none" stroke="#000" stroke-linejoin="bevel" stroke-width="3.97"/><line x1="2297.73" y1="565.1" x2="2346.33" y2="565.1" fill="none" stroke="#000" stroke-linejoin="bevel" stroke-width="3.97"/><line x1="293.62" y1="169.54" x2="342.22" y2="169.54" fill="none" stroke="#000" stroke-linejoin="bevel" stroke-width="3.97"/><line x1="1980.43" y1="565.1" x2="2029.04" y2="565.1" fill="none" stroke="#000" stroke-linejoin="bevel" stroke-width="3.97"/><line x1="1699.84" y1="540.3" x2="1748.44" y2="540.3" fill="none" stroke="#000" stroke-linejoin="bevel" stroke-width="3.97"/><line x1="364.22" y1="169.54" x2="412.82" y2="169.54" fill="none" stroke="#000" stroke-linejoin="bevel" stroke-width="3.97"/><line x1="683.53" y1="486.73" x2="683.53" y2="414.26" fill="none" stroke="#000" stroke-linejoin="bevel" stroke-width="2.48"/><line x1="332.79" y1="177.97" x2="332.79" y2="76.51" fill="none" stroke="#000" stroke-linejoin="bevel" stroke-width="2.48"/><line x1="403.39" y1="165.57" x2="403.39" y2="74.46" fill="none" stroke="#000" stroke-linejoin="bevel" stroke-width="2.48"/><line x1="473.99" y1="153.17" x2="473.99" y2="72.42" fill="none" stroke="#000" stroke-linejoin="bevel" stroke-width="2.48"/><line x1="544.59" y1="140.77" x2="544.59" y2="70.38" fill="none" stroke="#000" stroke-linejoin="bevel" stroke-width="2.48"/><line x1="615.19" y1="165.57" x2="615.19" y2="76.47" fill="none" stroke="#000" stroke-linejoin="bevel" stroke-width="2.48"/><line x1="685.79" y1="153.17" x2="685.79" y2="72.38" fill="none" stroke="#000" stroke-linejoin="bevel" stroke-width="2.48"/><line x1="756.39" y1="140.77" x2="756.39" y2="68.3" fill="none" stroke="#000" stroke-linejoin="bevel" stroke-width="2.48"/><line x1="826.99" y1="128.37" x2="826.99" y2="64.21" fill="none" stroke="#000" stroke-linejoin="bevel" stroke-width="2.48"/><line x1="934.29" y1="153.17" x2="934.29" y2="51.71" fill="none" stroke="#000" stroke-linejoin="bevel" stroke-width="2.48"/><line x1="1004.89" y1="140.77" x2="1004.89" y2="49.66" fill="none" stroke="#000" stroke-linejoin="bevel" stroke-width="2.48"/><line x1="1075.49" y1="128.37" x2="1075.49" y2="47.62" fill="none" stroke="#000" stroke-linejoin="bevel" stroke-width="2.48"/><line x1="1146.09" y1="115.97" x2="1146.09" y2="45.58" fill="none" stroke="#000" stroke-linejoin="bevel" stroke-width="2.48"/><line x1="1216.69" y1="140.77" x2="1216.69" y2="51.67" fill="none" stroke="#000" stroke-linejoin="bevel" stroke-width="2.48"/><line x1="1287.29" y1="128.37" x2="1287.29" y2="47.58" fill="none" stroke="#000" stroke-linejoin="bevel" stroke-width="2.48"/><line x1="1357.88" y1="115.97" x2="1357.88" y2="43.5" fill="none" stroke="#000" stroke-linejoin="bevel" stroke-width="2.48"/><line x1="1428.48" y1="103.57" x2="1428.48" y2="39.41" fill="none" stroke="#000" stroke-linejoin="bevel" stroke-width="2.48"/><line x1="1535.79" y1="128.37" x2="1535.79" y2="45.43" fill="none" stroke="#000" stroke-linejoin="bevel" stroke-width="2.48"/><line x1="1606.39" y1="115.97" x2="1606.39" y2="39.31" fill="none" stroke="#000" stroke-linejoin="bevel" stroke-width="2.48"/><line x1="1676.99" y1="103.57" x2="1676.99" y2="33.18" fill="none" stroke="#000" stroke-linejoin="bevel" stroke-width="2.48"/><line x1="1747.59" y1="91.17" x2="1747.59" y2="27.05" fill="none" stroke="#000" stroke-linejoin="bevel" stroke-width="2.48"/><line x1="1818.18" y1="115.97" x2="1818.18" y2="26.87" fill="none" stroke="#000" stroke-linejoin="bevel" stroke-width="2.48"/><line x1="1888.78" y1="103.57" x2="1888.78" y2="22.78" fill="none" stroke="#000" stroke-linejoin="bevel" stroke-width="2.48"/><line x1="1959.38" y1="91.17" x2="1959.38" y2="18.7" fill="none" stroke="#000" stroke-linejoin="bevel" stroke-width="2.48"/><line x1="2029.98" y1="78.77" x2="2029.98" y2="14.61" fill="none" stroke="#000" stroke-linejoin="bevel" stroke-width="2.48"/><line x1="2107.53" y1="111.71" x2="2107.53" y2="175.67" fill="none" stroke="#000" stroke-linejoin="bevel" stroke-width="2.48"/><line x1="2178.13" y1="99.31" x2="2178.13" y2="171.58" fill="none" stroke="#000" stroke-linejoin="bevel" stroke-width="2.48"/><line x1="2248.73" y1="86.91" x2="2248.73" y2="167.5" fill="none" stroke="#000" stroke-linejoin="bevel" stroke-width="2.48"/><line x1="2319.33" y1="74.51" x2="2319.33" y2="163.41" fill="none" stroke="#000" stroke-linejoin="bevel" stroke-width="2.48"/><line x1="2389.93" y1="99.31" x2="2389.93" y2="169.54" fill="none" stroke="#000" stroke-linejoin="bevel" stroke-width="2.48"/><line x1="332.79" y1="461.93" x2="332.79" y2="397.81" fill="none" stroke="#000" stroke-linejoin="bevel" stroke-width="2.48"/><line x1="402.94" y1="474.33" x2="402.94" y2="403.93" fill="none" stroke="#000" stroke-linejoin="bevel" stroke-width="2.48"/><line x1="473.09" y1="486.73" x2="473.09" y2="410.06" fill="none" stroke="#000" stroke-linejoin="bevel" stroke-width="2.48"/><line x1="543.24" y1="499.13" x2="543.24" y2="416.19" fill="none" stroke="#000" stroke-linejoin="bevel" stroke-width="2.48"/><line x1="613.39" y1="474.33" x2="613.39" y2="410.17" fill="none" stroke="#000" stroke-linejoin="bevel" stroke-width="2.48"/><line x1="753.68" y1="499.13" x2="753.68" y2="418.34" fill="none" stroke="#000" stroke-linejoin="bevel" stroke-width="2.48"/><line x1="823.83" y1="511.53" x2="823.83" y2="422.43" fill="none" stroke="#000" stroke-linejoin="bevel" stroke-width="2.48"/><line x1="930.68" y1="486.73" x2="930.68" y2="416.33" fill="none" stroke="#000" stroke-linejoin="bevel" stroke-width="2.48"/><line x1="1000.83" y1="499.13" x2="1000.83" y2="418.38" fill="none" stroke="#000" stroke-linejoin="bevel" stroke-width="2.48"/><line x1="1070.98" y1="511.53" x2="1070.98" y2="420.42" fill="none" stroke="#000" stroke-linejoin="bevel" stroke-width="2.48"/><line x1="1141.13" y1="523.93" x2="1141.13" y2="422.46" fill="none" stroke="#000" stroke-linejoin="bevel" stroke-width="2.48"/><line x1="1211.28" y1="499.13" x2="1211.28" y2="434.97" fill="none" stroke="#000" stroke-linejoin="bevel" stroke-width="2.48"/><line x1="1281.42" y1="511.53" x2="1281.42" y2="439.06" fill="none" stroke="#000" stroke-linejoin="bevel" stroke-width="2.48"/><line x1="1351.57" y1="523.93" x2="1351.57" y2="443.14" fill="none" stroke="#000" stroke-linejoin="bevel" stroke-width="2.48"/><line x1="1421.72" y1="536.33" x2="1421.72" y2="447.23" fill="none" stroke="#000" stroke-linejoin="bevel" stroke-width="2.48"/><line x1="1528.57" y1="511.53" x2="1528.57" y2="441.13" fill="none" stroke="#000" stroke-linejoin="bevel" stroke-width="2.48"/><line x1="1598.72" y1="523.93" x2="1598.72" y2="443.18" fill="none" stroke="#000" stroke-linejoin="bevel" stroke-width="2.48"/><line x1="1668.87" y1="536.33" x2="1668.87" y2="445.22" fill="none" stroke="#000" stroke-linejoin="bevel" stroke-width="2.48"/><line x1="1739.02" y1="548.73" x2="1739.02" y2="447.26" fill="none" stroke="#000" stroke-linejoin="bevel" stroke-width="2.48"/><line x1="1809.17" y1="523.93" x2="1809.17" y2="459.77" fill="none" stroke="#000" stroke-linejoin="bevel" stroke-width="2.48"/><line x1="1879.31" y1="536.33" x2="1879.31" y2="463.86" fill="none" stroke="#000" stroke-linejoin="bevel" stroke-width="2.48"/><line x1="1949.46" y1="548.73" x2="1949.46" y2="467.94" fill="none" stroke="#000" stroke-linejoin="bevel" stroke-width="2.48"/><line x1="2019.61" y1="561.13" x2="2019.61" y2="472.03" fill="none" stroke="#000" stroke-linejoin="bevel" stroke-width="2.48"/><line x1="2126.46" y1="536.33" x2="2126.46" y2="459.77" fill="none" stroke="#000" stroke-linejoin="bevel" stroke-width="2.48"/><line x1="2196.61" y1="548.73" x2="2196.61" y2="463.86" fill="none" stroke="#000" stroke-linejoin="bevel" stroke-width="2.48"/><line x1="2266.76" y1="561.13" x2="2266.76" y2="467.94" fill="none" stroke="#000" stroke-linejoin="bevel" stroke-width="2.48"/><line x1="2336.91" y1="573.53" x2="2336.91" y2="472.03" fill="none" stroke="#000" stroke-linejoin="bevel" stroke-width="2.48"/><line x1="2407.06" y1="548.73" x2="2407.06" y2="465.9" fill="none" stroke="#000" stroke-linejoin="bevel" stroke-width="2.48"/><path d="M1857.79,111.71c0,4.26,3.07,9.02,11.11,9.02,10.31,0,21.13-8.43,21.13-17.16,0-5.86-4.96-9.13-11.11-9.13-9.63,0-21.13,8.14-21.13,17.27"/><path d="M2305.92,581.67c0,4.26,3.07,9.02,11.11,9.02,10.31,0,21.13-8.43,21.13-17.16,0-5.86-4.96-9.13-11.11-9.13-9.63,0-21.13,8.14-21.13,17.27"/><path d="M1320.58,532.07c0,4.26,3.07,9.02,11.11,9.02,10.31,0,21.13-8.43,21.13-17.16,0-5.86-4.96-9.13-11.11-9.13-9.63,0-21.13,8.14-21.13,17.27"/><path d="M1256.29,136.51c0,4.26,3.07,9.02,11.11,9.02,10.31,0,21.13-8.43,21.13-17.16,0-5.86-4.96-9.13-11.11-9.13-9.63,0-21.13,8.14-21.13,17.27"/><path d="M2397.19,539.6c-9.63,0-21.13,8.04-21.13,17.27,0,4.26,3.07,9.02,11.11,9.02,10.31,0,21.13-8.43,21.13-17.16,0-5.86-4.96-9.13-11.11-9.13m-13.69,21.62c-3.27,0-3.97-2.67-3.97-3.57,0-4.87,16.66-13.39,21.33-13.39,2.39,0,3.97,1.4,3.97,3.57,0,4.96-16.77,13.39-21.33,13.39"/><path d="M1787.19,124.11c0,4.26,3.07,9.02,11.11,9.02,10.31,0,21.13-8.43,21.13-17.16,0-5.86-4.96-9.13-11.11-9.13-9.63,0-21.13,8.14-21.13,17.27"/><path d="M1575.39,124.11c0,4.26,3.07,9.02,11.11,9.02,10.31,0,21.13-8.43,21.13-17.16,0-5.86-4.96-9.13-11.11-9.13-9.63,0-21.13,8.14-21.13,17.27"/><path d="M1504.8,136.51c0,4.26,3.07,9.02,11.11,9.02,10.31,0,21.13-8.43,21.13-17.16,0-5.86-4.96-9.13-11.11-9.13-9.63,0-21.13,8.14-21.13,17.27"/><path d="M1397.49,111.71c0,4.26,3.07,9.02,11.11,9.02,10.31,0,21.13-8.43,21.13-17.16,0-5.86-4.96-9.13-11.11-9.13-9.63,0-21.13,8.14-21.13,17.27"/><path d="M1326.89,124.11c0,4.26,3.07,9.02,11.11,9.02,10.31,0,21.13-8.43,21.13-17.16,0-5.86-4.96-9.13-11.11-9.13-9.63,0-21.13,8.14-21.13,17.27"/><path d="M1716.59,99.31c0,4.26,3.07,9.02,11.11,9.02,10.31,0,21.13-8.43,21.13-17.16,0-5.86-4.96-9.13-11.11-9.13-9.63,0-21.13,8.14-21.13,17.27"/><path d="M512.25,507.27c0,4.26,3.07,9.02,11.11,9.02,10.31,0,21.13-8.43,21.13-17.16,0-5.86-4.96-9.13-11.11-9.13-9.63,0-21.13,8.14-21.13,17.27"/><path d="M1390.73,544.47c0,4.26,3.07,9.02,11.11,9.02,10.31,0,21.13-8.43,21.13-17.16,0-5.86-4.96-9.13-11.11-9.13-9.63,0-21.13,8.14-21.13,17.27"/><path d="M1185.69,148.91c0,4.26,3.07,9.02,11.11,9.02,10.31,0,21.13-8.43,21.13-17.16,0-5.86-4.96-9.13-11.11-9.13-9.63,0-21.13,8.14-21.13,17.27"/><path d="M442.1,494.87c0,4.26,3.07,9.02,11.11,9.02,10.31,0,21.13-8.43,21.13-17.16,0-5.86-4.96-9.13-11.11-9.13-9.63,0-21.13,8.14-21.13,17.27"/><path d="M1115.09,124.11c0,4.26,3.07,9.02,11.11,9.02,10.31,0,21.13-8.43,21.13-17.16,0-5.86-4.96-9.13-11.11-9.13-9.63,0-21.13,8.14-21.13,17.27"/><path d="M1044.5,136.51c0,4.26,3.07,9.02,11.11,9.02,10.31,0,21.13-8.43,21.13-17.16,0-5.86-4.96-9.13-11.11-9.13-9.63,0-21.13,8.14-21.13,17.27"/><path d="M371.95,482.47c0,4.26,3.07,9.02,11.11,9.02,10.31,0,21.13-8.43,21.13-17.16,0-5.86-4.96-9.13-11.11-9.13-9.63,0-21.13,8.14-21.13,17.27"/><path d="M973.9,148.91c0,4.26,3.07,9.02,11.11,9.02,10.31,0,21.13-8.43,21.13-17.16,0-5.86-4.96-9.13-11.11-9.13-9.63,0-21.13,8.14-21.13,17.27"/><path d="M652.54,494.87c0,4.26,3.07,9.02,11.11,9.02,10.31,0,21.13-8.43,21.13-17.16,0-5.86-4.96-9.13-11.11-9.13-9.63,0-21.13,8.14-21.13,17.27"/><path d="M1645.99,111.71c0,4.26,3.07,9.02,11.11,9.02,10.31,0,21.13-8.43,21.13-17.16,0-5.86-4.96-9.13-11.11-9.13-9.63,0-21.13,8.14-21.13,17.27"/><path d="M1497.58,519.67c0,4.26,3.07,9.02,11.11,9.02,10.31,0,21.13-8.43,21.13-17.16,0-5.86-4.96-9.13-11.11-9.13-9.63,0-21.13,8.14-21.13,17.27"/><path d="M903.3,161.31c0,4.26,3.07,9.02,11.11,9.02,10.31,0,21.13-8.43,21.13-17.16,0-5.86-4.96-9.13-11.11-9.13-9.63,0-21.13,8.14-21.13,17.27"/><path d="M795.99,136.51c0,4.26,3.07,9.02,11.11,9.02,10.31,0,21.13-8.43,21.13-17.16,0-5.86-4.96-9.13-11.11-9.13-9.63,0-21.13,8.14-21.13,17.27"/><path d="M725.4,148.91c0,4.26,3.07,9.02,11.11,9.02,10.31,0,21.13-8.43,21.13-17.16,0-5.86-4.96-9.13-11.11-9.13-9.63,0-21.13,8.14-21.13,17.27"/><path d="M654.8,161.31c0,4.26,3.07,9.02,11.11,9.02,10.31,0,21.13-8.43,21.13-17.16,0-5.86-4.96-9.13-11.11-9.13-9.63,0-21.13,8.14-21.13,17.27"/><path d="M969.84,507.27c0,4.26,3.07,9.02,11.11,9.02,10.31,0,21.13-8.43,21.13-17.16,0-5.86-4.96-9.13-11.11-9.13-9.63,0-21.13,8.14-21.13,17.27"/><path d="M1567.73,532.07c0,4.26,3.07,9.02,11.11,9.02,10.31,0,21.13-8.43,21.13-17.16,0-5.86-4.96-9.13-11.11-9.13-9.63,0-21.13,8.14-21.13,17.27"/><path d="M584.2,173.71c0,4.26,3.07,9.02,11.11,9.02,10.31,0,21.13-8.43,21.13-17.16,0-5.86-4.96-9.13-11.11-9.13-9.63,0-21.13,8.14-21.13,17.27"/><path d="M792.84,519.67c0,4.26,3.07,9.02,11.11,9.02,10.31,0,21.13-8.43,21.13-17.16,0-5.86-4.96-9.13-11.11-9.13-9.63,0-21.13,8.14-21.13,17.27"/><path d="M513.6,148.91c0,4.26,3.07,9.02,11.11,9.02,10.31,0,21.13-8.43,21.13-17.16,0-5.86-4.96-9.13-11.11-9.13-9.63,0-21.13,8.14-21.13,17.27"/><path d="M1637.88,544.47c0,4.26,3.07,9.02,11.11,9.02,10.31,0,21.13-8.43,21.13-17.16,0-5.86-4.96-9.13-11.11-9.13-9.63,0-21.13,8.14-21.13,17.27"/><path d="M1039.99,519.67c0,4.26,3.07,9.02,11.11,9.02,10.31,0,21.13-8.43,21.13-17.16,0-5.86-4.96-9.13-11.11-9.13-9.63,0-21.13,8.14-21.13,17.27"/><path d="M301.8,470.07c0,4.26,3.07,9.02,11.11,9.02,10.31,0,21.13-8.43,21.13-17.16,0-5.86-4.96-9.13-11.11-9.13-9.63,0-21.13,8.14-21.13,17.27"/><path d="M1708.03,556.87c0,4.26,3.07,9.02,11.11,9.02,10.31,0,21.13-8.43,21.13-17.16,0-5.86-4.96-9.13-11.11-9.13-9.63,0-21.13,8.14-21.13,17.27"/><path d="M443,161.31c0,4.26,3.07,9.02,11.11,9.02,10.31,0,21.13-8.43,21.13-17.16,0-5.86-4.96-9.13-11.11-9.13-9.63,0-21.13,8.14-21.13,17.27"/><path d="M372.4,173.71c0,4.26,3.07,9.02,11.11,9.02,10.31,0,21.13-8.43,21.13-17.16,0-5.86-4.96-9.13-11.11-9.13-9.63,0-21.13,8.14-21.13,17.27"/><path d="M1778.17,532.07c0,4.26,3.07,9.02,11.11,9.02,10.31,0,21.13-8.43,21.13-17.16,0-5.86-4.96-9.13-11.11-9.13-9.63,0-21.13,8.14-21.13,17.27"/><path d="M1110.13,532.07c0,4.26,3.07,9.02,11.11,9.02,10.31,0,21.13-8.43,21.13-17.16,0-5.86-4.96-9.13-11.11-9.13-9.63,0-21.13,8.14-21.13,17.27"/><path d="M1848.32,544.47c0,4.26,3.07,9.02,11.11,9.02,10.31,0,21.13-8.43,21.13-17.16,0-5.86-4.96-9.13-11.11-9.13-9.63,0-21.13,8.14-21.13,17.27"/><path d="M582.39,482.47c0,4.26,3.07,9.02,11.11,9.02,10.31,0,21.13-8.43,21.13-17.16,0-5.86-4.96-9.13-11.11-9.13-9.63,0-21.13,8.14-21.13,17.27"/><path d="M301.8,186.11c0,4.26,3.07,9.02,11.11,9.02,10.31,0,21.13-8.43,21.13-17.16,0-5.86-4.96-9.13-11.11-9.13-9.63,0-21.13,8.14-21.13,17.27"/><path d="M1918.47,556.87c0,4.26,3.07,9.02,11.11,9.02,10.31,0,21.13-8.43,21.13-17.16,0-5.86-4.96-9.13-11.11-9.13-9.63,0-21.13,8.14-21.13,17.27"/><path d="M1180.28,507.27c0,4.26,3.07,9.02,11.11,9.02,10.31,0,21.13-8.43,21.13-17.16,0-5.86-4.96-9.13-11.11-9.13-9.63,0-21.13,8.14-21.13,17.27"/><path d="M2409.82,82.04c-9.63,0-21.13,8.04-21.13,17.27,0,4.26,3.07,9.02,11.11,9.02,10.31,0,21.13-8.43,21.13-17.16,0-5.86-4.96-9.13-11.11-9.13m-13.69,21.62c-3.27,0-3.97-2.67-3.97-3.57,0-4.87,16.66-13.39,21.33-13.39,2.39,0,3.97,1.4,3.97,3.57,0,4.96-16.77,13.39-21.33,13.39"/><path d="M1988.62,569.27c0,4.26,3.07,9.02,11.11,9.02,10.31,0,21.13-8.43,21.13-17.16,0-5.86-4.96-9.13-11.11-9.13-9.63,0-21.13,8.14-21.13,17.27"/><path d="M2318.09,74.51c0,4.26,3.07,9.02,11.11,9.02,10.31,0,21.13-8.43,21.13-17.16,0-5.86-4.96-9.13-11.11-9.13-9.63,0-21.13,8.14-21.13,17.27"/><path d="M2247.49,86.91c0,4.26,3.07,9.02,11.11,9.02,10.31,0,21.13-8.43,21.13-17.16,0-5.86-4.96-9.13-11.11-9.13-9.63,0-21.13,8.14-21.13,17.27"/><path d="M2176.89,99.31c0,4.26,3.07,9.02,11.11,9.02,10.31,0,21.13-8.43,21.13-17.16,0-5.86-4.96-9.13-11.11-9.13-9.63,0-21.13,8.14-21.13,17.27"/><path d="M2095.47,544.47c0,4.26,3.07,9.02,11.11,9.02,10.31,0,21.13-8.43,21.13-17.16,0-5.86-4.96-9.13-11.11-9.13-9.63,0-21.13,8.14-21.13,17.27"/><path d="M722.69,507.27c0,4.26,3.07,9.02,11.11,9.02,10.31,0,21.13-8.43,21.13-17.16,0-5.86-4.96-9.13-11.11-9.13-9.63,0-21.13,8.14-21.13,17.27"/><path d="M2165.62,556.87c0,4.26,3.07,9.02,11.11,9.02,10.31,0,21.13-8.43,21.13-17.16,0-5.86-4.96-9.13-11.11-9.13-9.63,0-21.13,8.14-21.13,17.27"/><path d="M1250.43,519.67c0,4.26,3.07,9.02,11.11,9.02,10.31,0,21.13-8.43,21.13-17.16,0-5.86-4.96-9.13-11.11-9.13-9.63,0-21.13,8.14-21.13,17.27"/><path d="M2106.29,111.71c0,4.26,3.07,9.02,11.11,9.02,10.31,0,21.13-8.43,21.13-17.16,0-5.86-4.96-9.13-11.11-9.13-9.63,0-21.13,8.14-21.13,17.27"/><path d="M1998.99,86.91c0,4.26,3.07,9.02,11.11,9.02,10.31,0,21.13-8.43,21.13-17.16,0-5.86-4.96-9.13-11.11-9.13-9.63,0-21.13,8.14-21.13,17.27"/><path d="M2235.77,569.27c0,4.26,3.07,9.02,11.11,9.02,10.31,0,21.13-8.43,21.13-17.16,0-5.86-4.96-9.13-11.11-9.13-9.63,0-21.13,8.14-21.13,17.27"/><path d="M899.69,494.87c0,4.26,3.07,9.02,11.11,9.02,10.31,0,21.13-8.43,21.13-17.16,0-5.86-4.96-9.13-11.11-9.13-9.63,0-21.13,8.14-21.13,17.27"/><path d="M1928.39,99.31c0,4.26,3.07,9.02,11.11,9.02,10.31,0,21.13-8.43,21.13-17.16,0-5.86-4.96-9.13-11.11-9.13-9.63,0-21.13,8.14-21.13,17.27"/><path d="M30.8,541.59c0,6.56,4.96,15.19,18.35,15.19,4.67,0,8.74-1.19,12.31-3.38,5.36-3.77,6.74-10.32,6.74-16.57,0-3.86-.59-8.32-1.58-13.98-.29-1.98-.9-4.96-1.49-8.84,9.72-3.18,16.96-13.3,16.96-23.51,0-14.97-10.62-25.09-25.09-25.09-.99-5.95-1.98-11.81-2.77-17.36,10.42-11.02,17.65-23.42,17.65-39.18,0-9.04-2.77-16.37-4.37-19.95-2.37-5.05-5.25-8.53-7.04-8.53-.7,0-3.77,1.19-7.04,5.05-6.36,7.55-8.14,20.24-8.14,28.57,0,5.36,.5,10.23,2.19,21.34-.11,.09-5.27,5.35-7.35,7.04-9.04,8.34-21.53,20.43-21.53,40.28,0,18.54,16.17,33.12,34.63,33.12,2.87,0,5.55-.29,7.83-.7,1.89,9.53,3.08,16.48,3.08,21.73,0,10.32-5.36,15.78-15.38,15.78-2.39,0-4.46-.5-4.67-.5-.09-.11-.29-.2-.29-.29,0-.2,.2-.31,.5-.31,4.67-.79,9.32-4.76,9.32-11.1,0-5.36-4.06-11.02-11.5-11.02-6.94,0-11.31,5.66-11.31,12.2m20.74-132.43c.9-3.97,5.46-14.38,10.62-14.38,1.49,0,3.86,4.76,3.86,11.7,0,10.32-7.63,18.06-14.48,24.8-.59-3.97-1.08-7.83-1.08-12,0-3.67,.29-7.05,1.08-10.12m8.73,101.97c-1.98,.4-3.86,.6-5.75,.6-14.18,0-26.29-9.92-26.29-24.91,0-12.09,8.53-22.91,17.27-30.46,1.67-1.49,3.27-2.87,4.76-4.36,.88,5.35,1.58,10.01,2.28,14.09-9.04,2.68-15.17,12.2-15.17,21.53,0,6.94,5.46,16.46,13.39,16.46,.79,0,1.69-.4,1.69-1.29s-.99-1.39-2.19-2.19c-3.88-2.39-6.06-4.96-6.06-9.83,0-6.05,4.57-10.91,10.32-12.29l5.75,32.63m14.09-18.35c0,7.05-2.88,14.29-9.92,17.17-2.08-11.9-4.76-27.68-5.46-32.05,8.93,0,15.38,6.06,15.38,14.88"/><path d="M30.8,170.83c0,6.56,4.96,15.19,18.35,15.19,4.67,0,8.74-1.19,12.31-3.38,5.36-3.77,6.74-10.32,6.74-16.57,0-3.86-.59-8.32-1.58-13.98-.29-1.98-.9-4.96-1.49-8.84,9.72-3.18,16.96-13.3,16.96-23.51,0-14.97-10.62-25.09-25.09-25.09-.99-5.95-1.98-11.81-2.77-17.36,10.42-11.02,17.65-23.42,17.65-39.18,0-9.04-2.77-16.37-4.37-19.95-2.37-5.05-5.25-8.53-7.04-8.53-.7,0-3.77,1.19-7.04,5.05-6.36,7.55-8.14,20.24-8.14,28.57,0,5.36,.5,10.23,2.19,21.34-.11,.09-5.27,5.35-7.35,7.04-9.04,8.34-21.53,20.43-21.53,40.28,0,18.54,16.17,33.12,34.63,33.12,2.87,0,5.55-.29,7.83-.7,1.89,9.53,3.08,16.48,3.08,21.73,0,10.32-5.36,15.78-15.38,15.78-2.39,0-4.46-.5-4.67-.5-.09-.11-.29-.2-.29-.29,0-.2,.2-.31,.5-.31,4.67-.79,9.32-4.76,9.32-11.1,0-5.36-4.06-11.02-11.5-11.02-6.94,0-11.31,5.66-11.31,12.2M51.54,38.39c.9-3.97,5.46-14.38,10.62-14.38,1.49,0,3.86,4.76,3.86,11.7,0,10.32-7.63,18.06-14.48,24.8-.59-3.97-1.08-7.83-1.08-12,0-3.67,.29-7.05,1.08-10.12m8.73,101.97c-1.98,.4-3.86,.6-5.75,.6-14.18,0-26.29-9.92-26.29-24.91,0-12.09,8.53-22.91,17.27-30.46,1.67-1.49,3.27-2.87,4.76-4.36,.88,5.35,1.58,10.01,2.28,14.09-9.04,2.68-15.17,12.2-15.17,21.53,0,6.94,5.46,16.46,13.39,16.46,.79,0,1.69-.4,1.69-1.29s-.99-1.39-2.19-2.19c-3.88-2.39-6.06-4.96-6.06-9.83,0-6.05,4.57-10.91,10.32-12.29l5.75,32.63m14.09-18.35c0,7.05-2.88,14.29-9.92,17.17-2.08-11.9-4.76-27.68-5.46-32.05,8.93,0,15.38,6.06,15.38,14.88"/><path d="M129.99,405.88c.6-.09,1.1-.79,1.1-1.4v-5.84c0-.99-.7-1.39-1.6-1.39l-3.27,.7v-14.79h-2.77v15.38l-8.83,1.8v-14h-2.77v14.59l-3.88,.79c-.59,.11-1.09,.79-1.09,1.39v5.75c0,1.09,.79,1.4,1.69,1.4l3.27-.7v16.37l-3.88,.79c-.59,.09-1.09,.79-1.09,1.4v5.75c0,1.09,.79,1.38,1.69,1.38l3.27-.68v14.77h2.77v-15.38l8.83-1.78v14h2.77v-14.59l3.77-.7c.6-.11,1.1-.79,1.1-1.39v-5.84c0-.99-.7-1.4-1.6-1.4l-3.27,.7v-16.37l3.77-.7m-15.38,3.07l8.83-1.78v16.37l-8.83,1.89v-16.48"/><path d="M157.16,443.08c.6-.09,1.1-.79,1.1-1.4v-5.84c0-.99-.7-1.39-1.6-1.39l-3.27,.7v-14.79h-2.77v15.38l-8.83,1.8v-14h-2.77v14.59l-3.88,.79c-.59,.11-1.09,.79-1.09,1.39v5.75c0,1.09,.79,1.4,1.69,1.4l3.27-.7v16.37l-3.88,.79c-.59,.09-1.09,.79-1.09,1.4v5.75c0,1.09,.79,1.38,1.69,1.38l3.27-.68v14.77h2.77v-15.38l8.83-1.78v14h2.77v-14.59l3.77-.7c.6-.11,1.1-.79,1.1-1.39v-5.84c0-.99-.7-1.4-1.6-1.4l-3.27,.7v-16.37l3.77-.7m-15.38,3.07l8.83-1.78v16.37l-8.83,1.89v-16.48"/><path d="M184.33,393.48c.6-.09,1.1-.79,1.1-1.4v-5.84c0-.99-.7-1.39-1.6-1.39l-3.27,.7v-14.79h-2.77v15.38l-8.83,1.8v-14h-2.77v14.59l-3.88,.79c-.59,.11-1.09,.79-1.09,1.39v5.75c0,1.09,.79,1.4,1.69,1.4l3.27-.7v16.37l-3.88,.79c-.59,.09-1.09,.79-1.09,1.4v5.75c0,1.09,.79,1.38,1.69,1.38l3.27-.68v14.77h2.77v-15.38l8.83-1.78v14h2.77v-14.59l3.77-.7c.6-.11,1.1-.79,1.1-1.39v-5.84c0-.99-.7-1.4-1.6-1.4l-3.27,.7v-16.37l3.77-.7m-15.38,3.07l8.83-1.78v16.37l-8.83,1.89v-16.48"/><path d="M211.52,430.68c.6-.09,1.1-.79,1.1-1.4v-5.84c0-.99-.7-1.39-1.6-1.39l-3.27,.7v-14.79h-2.77v15.38l-8.83,1.8v-14h-2.77v14.59l-3.88,.79c-.59,.11-1.09,.79-1.09,1.39v5.75c0,1.09,.79,1.4,1.69,1.4l3.27-.7v16.37l-3.88,.79c-.59,.09-1.09,.79-1.09,1.4v5.75c0,1.09,.79,1.38,1.69,1.38l3.27-.68v14.77h2.77v-15.38l8.83-1.78v14h2.77v-14.59l3.77-.7c.6-.11,1.1-.79,1.1-1.39v-5.84c0-.99-.7-1.4-1.6-1.4l-3.27,.7v-16.37l3.77-.7m-15.38,3.07l8.83-1.78v16.37l-8.83,1.89v-16.48"/><path d="M238.69,467.88c.6-.09,1.1-.79,1.1-1.4v-5.84c0-.99-.7-1.39-1.6-1.39l-3.27,.7v-14.79h-2.77v15.38l-8.83,1.8v-14h-2.77v14.59l-3.88,.79c-.59,.11-1.09,.79-1.09,1.39v5.75c0,1.09,.79,1.4,1.69,1.4l3.27-.7v16.37l-3.88,.79c-.59,.09-1.09,.79-1.09,1.4v5.75c0,1.09,.79,1.38,1.69,1.38l3.27-.68v14.77h2.77v-15.38l8.83-1.78v14h2.77v-14.59l3.77-.7c.6-.11,1.1-.79,1.1-1.39v-5.84c0-.99-.7-1.4-1.6-1.4l-3.27,.7v-16.37l3.77-.7m-15.38,3.07l8.83-1.78v16.37l-8.83,1.89v-16.48"/><path d="M129.99,35.12c.6-.09,1.1-.79,1.1-1.4v-5.84c0-.99-.7-1.39-1.6-1.39l-3.27,.7V12.4h-2.77v15.38l-8.83,1.8V15.58h-2.77v14.59l-3.88,.79c-.59,.11-1.09,.79-1.09,1.39v5.75c0,1.09,.79,1.4,1.69,1.4l3.27-.7v16.37l-3.88,.79c-.59,.09-1.09,.79-1.09,1.4v5.75c0,1.09,.79,1.38,1.69,1.38l3.27-.68v14.77h2.77v-15.38l8.83-1.78v14h2.77v-14.59l3.77-.7c.6-.11,1.1-.79,1.1-1.39v-5.84c0-.99-.7-1.4-1.6-1.4l-3.27,.7v-16.37l3.77-.7m-15.38,3.07l8.83-1.78v16.37l-8.83,1.89v-16.48"/><path d="M157.16,72.32c.6-.09,1.1-.79,1.1-1.4v-5.84c0-.99-.7-1.39-1.6-1.39l-3.27,.7v-14.79h-2.77v15.38l-8.83,1.8v-14h-2.77v14.59l-3.88,.79c-.59,.11-1.09,.79-1.09,1.39v5.75c0,1.09,.79,1.4,1.69,1.4l3.27-.7v16.37l-3.88,.79c-.59,.09-1.09,.79-1.09,1.4v5.75c0,1.09,.79,1.38,1.69,1.38l3.27-.68v14.77h2.77v-15.38l8.83-1.78v14h2.77v-14.59l3.77-.7c.6-.11,1.1-.79,1.1-1.39v-5.84c0-.99-.7-1.4-1.6-1.4l-3.27,.7v-16.37l3.77-.7m-15.38,3.07l8.83-1.78v16.37l-8.83,1.89v-16.48"/><path d="M184.33,22.72c.6-.09,1.1-.79,1.1-1.4v-5.84c0-.99-.7-1.39-1.6-1.39l-3.27,.7V0h-2.77V15.38l-8.83,1.8V3.18h-2.77v14.59l-3.88,.79c-.59,.11-1.09,.79-1.09,1.39v5.75c0,1.09,.79,1.4,1.69,1.4l3.27-.7v16.37l-3.88,.79c-.59,.09-1.09,.79-1.09,1.4v5.75c0,1.09,.79,1.38,1.69,1.38l3.27-.68v14.77h2.77v-15.38l8.83-1.78v14h2.77v-14.59l3.77-.7c.6-.11,1.1-.79,1.1-1.39v-5.84c0-.99-.7-1.4-1.6-1.4l-3.27,.7V23.42l3.77-.7m-15.38,3.07l8.83-1.78v16.37l-8.83,1.89V25.79"/><path d="M211.52,59.92c.6-.09,1.1-.79,1.1-1.4v-5.84c0-.99-.7-1.39-1.6-1.39l-3.27,.7v-14.79h-2.77v15.38l-8.83,1.8v-14h-2.77v14.59l-3.88,.79c-.59,.11-1.09,.79-1.09,1.39v5.75c0,1.09,.79,1.4,1.69,1.4l3.27-.7v16.37l-3.88,.79c-.59,.09-1.09,.79-1.09,1.4v5.75c0,1.09,.79,1.38,1.69,1.38l3.27-.68v14.77h2.77v-15.38l8.83-1.78v14h2.77v-14.59l3.77-.7c.6-.11,1.1-.79,1.1-1.39v-5.84c0-.99-.7-1.4-1.6-1.4l-3.27,.7v-16.37l3.77-.7m-15.38,3.07l8.83-1.78v16.37l-8.83,1.89v-16.48"/><path d="M238.69,97.12c.6-.09,1.1-.79,1.1-1.4v-5.84c0-.99-.7-1.39-1.6-1.39l-3.27,.7v-14.79h-2.77v15.38l-8.83,1.8v-14h-2.77v14.59l-3.88,.79c-.59,.11-1.09,.79-1.09,1.39v5.75c0,1.09,.79,1.4,1.69,1.4l3.27-.7v16.37l-3.88,.79c-.59,.09-1.09,.79-1.09,1.4v5.75c0,1.09,.79,1.38,1.69,1.38l3.27-.68v14.77h2.77v-15.38l8.83-1.78v14h2.77v-14.59l3.77-.7c.6-.11,1.1-.79,1.1-1.39v-5.84c0-.99-.7-1.4-1.6-1.4l-3.27,.7v-16.37l3.77-.7m-15.38,3.07l8.83-1.78v16.37l-8.83,1.89v-16.48"/><path d="M2509.46,33.14c9.13-6.36,13.28-12.6,13.28-19.75,0-7.53-4.36-12.11-11.01-12.11-4.76,0-7.94,3.38-7.94,7.35,0,4.26,3.67,7.55,7.94,7.55,2.88,0,4.26-.7,4.56-.81,.31-.09,.5-.19,.81-.19,.09,0,.29,0,.39,.09,.2,.09,.29,.4,.29,.99,0,4.26-3.86,9.13-10.71,13.89l2.39,2.98"/><path d="M2414.91,378.11c-9.32-10.12-17.56-10.71-22.71-10.71s-13.3,.59-22.63,10.71c-4.85,5.36-8.23,15.97-8.23,21.33,0,1.89,.4,3.18,1.4,3.18,2.77,0,1.38-8.54,9.72-16.97,7.33-7.33,17.16-7.44,19.55-7.44h.39c2.39,0,12.21,.11,19.55,7.44,8.34,8.43,6.94,16.97,9.72,16.97,.99,0,1.39-1.19,1.39-3.18,0-5.36-3.27-16.07-8.14-21.33m-29.56,18.94c0,3.78,3.07,6.85,6.85,6.85s6.84-3.07,6.84-6.85-3.07-6.84-6.84-6.84-6.85,3.07-6.85,6.84"/><path d="M331.55,391.47l212.93,18.6v12.45l-212.93-18.6v-12.45" fill-rule="evenodd"/><path d="M612.15,403.89l212.93,12.4v12.42l-212.93-12.4v-12.42" fill-rule="evenodd"/><path d="M1807.93,453.49l212.92,12.4v12.42l-212.92-12.4v-12.42" fill-rule="evenodd"/><path d="M1210.04,428.69l212.92,12.4v12.42l-212.92-12.4v-12.42" fill-rule="evenodd"/><path d="M2125.22,453.49l212.93,12.4v12.42l-212.93-12.4v-12.42" fill-rule="evenodd"/><path d="M2106.29,169.53l214.28-12.4v12.42l-214.28,12.4v-12.42" fill-rule="evenodd"/><path d="M1534.55,39.32l214.28-18.6v12.45l-214.28,18.6v-12.45" fill-rule="evenodd"/><path d="M929.44,410.1l212.93,6.2v12.4l-212.93-6.2v-12.4" fill-rule="evenodd"/><path d="M1215.45,45.53l214.27-12.4v12.42l-214.27,12.4v-12.42" fill-rule="evenodd"/><path d="M1816.94,20.73l214.28-12.4v12.42l-214.28,12.4v-12.42" fill-rule="evenodd"/><path d="M933.05,45.54l214.28-6.2v12.4l-214.28,6.2v-12.4" fill-rule="evenodd"/><path d="M1527.33,434.9l212.93,6.2v12.4l-212.93-6.2v-12.4" fill-rule="evenodd"/><path d="M613.95,70.33l214.28-12.4v12.42l-214.28,12.4v-12.42" fill-rule="evenodd"/><path d="M331.55,70.34l214.28-6.2v12.4l-214.28,6.2v-12.4" fill-rule="evenodd"/></g></svg>