<?xml version="1.0" encoding="UTF-8"?><svg id="b" xmlns="http://www.w3.org/2000/svg" viewBox="0 0 2552 537.04"><g id="c"><line y1="44.25" x2="2552" y2="44.25" fill="none" stroke="#000" stroke-linejoin="bevel" stroke-width="2.73"/><line y1="69.05" x2="2552" y2="69.05" fill="none" stroke="#000" stroke-linejoin="bevel" stroke-width="2.73"/><line y1="93.85" x2="2552" y2="93.85" fill="none" stroke="#000" stroke-linejoin="bevel" stroke-width="2.73"/><line y1="118.65" x2="2552" y2="118.65" fill="none" stroke="#000" stroke-linejoin="bevel" stroke-width="2.73"/><line y1="143.45" x2="2552" y2="143.45" fill="none" stroke="#000" stroke-linejoin="bevel" stroke-width="2.73"/><line y1="387.45" x2="2552" y2="387.45" fill="none" stroke="#000" stroke-linejoin="bevel" stroke-width="2.73"/><line y1="412.25" x2="2552" y2="412.25" fill="none" stroke="#000" stroke-linejoin="bevel" stroke-width="2.73"/><line y1="437.05" x2="2552" y2="437.05" fill="none" stroke="#000" stroke-linejoin="bevel" stroke-width="2.73"/><line y1="461.85" x2="2552" y2="461.85" fill="none" stroke="#000" stroke-linejoin="bevel" stroke-width="2.73"/><line y1="486.65" x2="2552" y2="486.65" fill="none" stroke="#000" stroke-linejoin="bevel" stroke-width="2.73"/><line x1="752.82" y1="42.89" x2="752.82" y2="144.81" fill="none" stroke="#000" stroke-linejoin="bevel" stroke-width="4.46"/><line x1="749.21" y1="386.09" x2="749.21" y2="488.01" fill="none" stroke="#000" stroke-linejoin="bevel" stroke-width="4.46"/><line x1="1388.81" y1="386.09" x2="1388.81" y2="488.01" fill="none" stroke="#000" stroke-linejoin="bevel" stroke-width="4.46"/><line x1="2028.41" y1="386.09" x2="2028.41" y2="488.01" fill="none" stroke="#000" stroke-linejoin="bevel" stroke-width="4.46"/><line x1="2039.23" y1="42.89" x2="2039.23" y2="144.81" fill="none" stroke="#000" stroke-linejoin="bevel" stroke-width="4.46"/><line x1="2549.77" y1="42.89" x2="2549.77" y2="144.81" fill="none" stroke="#000" stroke-linejoin="bevel" stroke-width="4.46"/><line x1="2536.13" y1="386.09" x2="2536.13" y2="488.01" fill="none" stroke="#000" stroke-linejoin="bevel" stroke-width="4.46"/><line x1="2549.77" y1="386.09" x2="2549.77" y2="488.01" fill="none" stroke="#000" stroke-linejoin="bevel" stroke-width="4.46"/><line x1="1396.02" y1="42.89" x2="1396.02" y2="144.81" fill="none" stroke="#000" stroke-linejoin="bevel" stroke-width="4.46"/><line x1="135.9" y1="168.25" x2="184.5" y2="168.25" fill="none" stroke="#000" stroke-linejoin="bevel" stroke-width="3.97"/><line x1="2205.43" y1="511.45" x2="2254.03" y2="511.45" fill="none" stroke="#000" stroke-linejoin="bevel" stroke-width="3.97"/><line x1="2356.15" y1="511.45" x2="2404.75" y2="511.45" fill="none" stroke="#000" stroke-linejoin="bevel" stroke-width="3.97"/><line x1="1867.27" y1="511.45" x2="1915.87" y2="511.45" fill="none" stroke="#000" stroke-linejoin="bevel" stroke-width="3.97"/><line x1="2130.06" y1="511.45" x2="2178.66" y2="511.45" fill="none" stroke="#000" stroke-linejoin="bevel" stroke-width="3.97"/><line x1="363.34" y1="168.25" x2="411.94" y2="168.25" fill="none" stroke="#000" stroke-linejoin="bevel" stroke-width="3.97"/><line x1="1537.3" y1="102.28" x2="1537.3" y2="25.65" fill="none" stroke="#000" stroke-linejoin="bevel" stroke-width="2.48"/><line x1="1613.12" y1="89.88" x2="1613.12" y2="25.65" fill="none" stroke="#000" stroke-linejoin="bevel" stroke-width="2.48"/><line x1="1688.93" y1="114.68" x2="1688.93" y2="25.65" fill="none" stroke="#000" stroke-linejoin="bevel" stroke-width="2.48"/><line x1="1734.99" y1="110.42" x2="1734.99" y2="174.45" fill="none" stroke="#000" stroke-linejoin="bevel" stroke-width="2.48"/><line x1="1810.8" y1="98.02" x2="1810.8" y2="174.45" fill="none" stroke="#000" stroke-linejoin="bevel" stroke-width="2.48"/><line x1="1886.62" y1="85.62" x2="1886.62" y2="174.45" fill="none" stroke="#000" stroke-linejoin="bevel" stroke-width="2.48"/><line x1="1962.43" y1="110.42" x2="1962.43" y2="174.45" fill="none" stroke="#000" stroke-linejoin="bevel" stroke-width="2.48"/><line x1="2074.95" y1="98.02" x2="2074.95" y2="162.05" fill="none" stroke="#000" stroke-linejoin="bevel" stroke-width="2.48"/><line x1="2150.76" y1="85.62" x2="2150.76" y2="162.05" fill="none" stroke="#000" stroke-linejoin="bevel" stroke-width="2.48"/><line x1="2226.57" y1="73.22" x2="2226.57" y2="162.05" fill="none" stroke="#000" stroke-linejoin="bevel" stroke-width="2.48"/><line x1="2302.39" y1="98.02" x2="2302.39" y2="162.05" fill="none" stroke="#000" stroke-linejoin="bevel" stroke-width="2.48"/><line x1="2378.2" y1="85.62" x2="2378.2" y2="162.05" fill="none" stroke="#000" stroke-linejoin="bevel" stroke-width="2.48"/><line x1="145.32" y1="428.82" x2="145.32" y2="517.65" fill="none" stroke="#000" stroke-linejoin="bevel" stroke-width="2.48"/><line x1="220.68" y1="441.22" x2="220.68" y2="517.65" fill="none" stroke="#000" stroke-linejoin="bevel" stroke-width="2.48"/><line x1="296.05" y1="453.62" x2="296.05" y2="517.65" fill="none" stroke="#000" stroke-linejoin="bevel" stroke-width="2.48"/><line x1="371.41" y1="428.82" x2="371.41" y2="517.65" fill="none" stroke="#000" stroke-linejoin="bevel" stroke-width="2.48"/><line x1="476.52" y1="433.08" x2="476.52" y2="368.85" fill="none" stroke="#000" stroke-linejoin="bevel" stroke-width="2.48"/><line x1="551.88" y1="445.48" x2="551.88" y2="368.85" fill="none" stroke="#000" stroke-linejoin="bevel" stroke-width="2.48"/><line x1="627.25" y1="457.88" x2="627.25" y2="368.85" fill="none" stroke="#000" stroke-linejoin="bevel" stroke-width="2.48"/><line x1="702.61" y1="433.08" x2="702.61" y2="368.85" fill="none" stroke="#000" stroke-linejoin="bevel" stroke-width="2.48"/><line x1="814.68" y1="445.48" x2="814.68" y2="381.25" fill="none" stroke="#000" stroke-linejoin="bevel" stroke-width="2.48"/><line x1="890.04" y1="457.88" x2="890.04" y2="381.25" fill="none" stroke="#000" stroke-linejoin="bevel" stroke-width="2.48"/><line x1="965.4" y1="470.28" x2="965.4" y2="381.25" fill="none" stroke="#000" stroke-linejoin="bevel" stroke-width="2.48"/><line x1="1040.76" y1="445.48" x2="1040.76" y2="381.25" fill="none" stroke="#000" stroke-linejoin="bevel" stroke-width="2.48"/><line x1="1116.12" y1="457.88" x2="1116.12" y2="387.45" fill="none" stroke="#000" stroke-linejoin="bevel" stroke-width="2.48"/><line x1="1191.48" y1="470.28" x2="1191.48" y2="387.45" fill="none" stroke="#000" stroke-linejoin="bevel" stroke-width="2.48"/><line x1="1266.85" y1="482.68" x2="1266.85" y2="387.45" fill="none" stroke="#000" stroke-linejoin="bevel" stroke-width="2.48"/><line x1="1342.21" y1="457.88" x2="1342.21" y2="387.45" fill="none" stroke="#000" stroke-linejoin="bevel" stroke-width="2.48"/><line x1="1454.28" y1="470.28" x2="1454.28" y2="393.65" fill="none" stroke="#000" stroke-linejoin="bevel" stroke-width="2.48"/><line x1="1529.64" y1="482.68" x2="1529.64" y2="393.65" fill="none" stroke="#000" stroke-linejoin="bevel" stroke-width="2.48"/><line x1="1605" y1="495.08" x2="1605" y2="393.65" fill="none" stroke="#000" stroke-linejoin="bevel" stroke-width="2.48"/><line x1="1680.36" y1="470.28" x2="1680.36" y2="393.65" fill="none" stroke="#000" stroke-linejoin="bevel" stroke-width="2.48"/><line x1="1755.72" y1="482.68" x2="1755.72" y2="412.25" fill="none" stroke="#000" stroke-linejoin="bevel" stroke-width="2.48"/><line x1="1831.09" y1="495.08" x2="1831.09" y2="412.25" fill="none" stroke="#000" stroke-linejoin="bevel" stroke-width="2.48"/><line x1="1906.45" y1="507.48" x2="1906.45" y2="412.25" fill="none" stroke="#000" stroke-linejoin="bevel" stroke-width="2.48"/><line x1="1981.81" y1="482.68" x2="1981.81" y2="412.25" fill="none" stroke="#000" stroke-linejoin="bevel" stroke-width="2.48"/><line x1="175.07" y1="164.28" x2="175.07" y2="69.05" fill="none" stroke="#000" stroke-linejoin="bevel" stroke-width="2.48"/><line x1="2093.88" y1="495.08" x2="2093.88" y2="418.45" fill="none" stroke="#000" stroke-linejoin="bevel" stroke-width="2.48"/><line x1="2169.24" y1="507.48" x2="2169.24" y2="418.45" fill="none" stroke="#000" stroke-linejoin="bevel" stroke-width="2.48"/><line x1="250.89" y1="151.88" x2="250.89" y2="69.05" fill="none" stroke="#000" stroke-linejoin="bevel" stroke-width="2.48"/><line x1="2244.6" y1="519.88" x2="2244.6" y2="418.45" fill="none" stroke="#000" stroke-linejoin="bevel" stroke-width="2.48"/><line x1="2395.33" y1="507.48" x2="2395.33" y2="424.65" fill="none" stroke="#000" stroke-linejoin="bevel" stroke-width="2.48"/><line x1="326.7" y1="139.48" x2="326.7" y2="69.05" fill="none" stroke="#000" stroke-linejoin="bevel" stroke-width="2.48"/><line x1="2319.96" y1="495.08" x2="2319.96" y2="418.45" fill="none" stroke="#000" stroke-linejoin="bevel" stroke-width="2.48"/><line x1="402.51" y1="164.28" x2="402.51" y2="69.05" fill="none" stroke="#000" stroke-linejoin="bevel" stroke-width="2.48"/><line x1="478.33" y1="151.88" x2="478.33" y2="50.45" fill="none" stroke="#000" stroke-linejoin="bevel" stroke-width="2.48"/><line x1="554.14" y1="139.48" x2="554.14" y2="50.45" fill="none" stroke="#000" stroke-linejoin="bevel" stroke-width="2.48"/><line x1="629.95" y1="127.08" x2="629.95" y2="50.45" fill="none" stroke="#000" stroke-linejoin="bevel" stroke-width="2.48"/><line x1="705.76" y1="151.88" x2="705.76" y2="50.45" fill="none" stroke="#000" stroke-linejoin="bevel" stroke-width="2.48"/><line x1="818.28" y1="139.48" x2="818.28" y2="44.25" fill="none" stroke="#000" stroke-linejoin="bevel" stroke-width="2.48"/><line x1="894.1" y1="127.08" x2="894.1" y2="44.25" fill="none" stroke="#000" stroke-linejoin="bevel" stroke-width="2.48"/><line x1="969.91" y1="114.68" x2="969.91" y2="44.25" fill="none" stroke="#000" stroke-linejoin="bevel" stroke-width="2.48"/><line x1="1045.72" y1="139.48" x2="1045.72" y2="44.25" fill="none" stroke="#000" stroke-linejoin="bevel" stroke-width="2.48"/><line x1="1121.53" y1="127.08" x2="1121.53" y2="38.05" fill="none" stroke="#000" stroke-linejoin="bevel" stroke-width="2.48"/><line x1="1197.35" y1="114.68" x2="1197.35" y2="38.05" fill="none" stroke="#000" stroke-linejoin="bevel" stroke-width="2.48"/><line x1="1273.16" y1="102.28" x2="1273.16" y2="38.05" fill="none" stroke="#000" stroke-linejoin="bevel" stroke-width="2.48"/><line x1="1348.97" y1="127.08" x2="1348.97" y2="38.05" fill="none" stroke="#000" stroke-linejoin="bevel" stroke-width="2.48"/><line x1="1461.49" y1="114.68" x2="1461.49" y2="25.65" fill="none" stroke="#000" stroke-linejoin="bevel" stroke-width="2.48"/><path d="M144.08,172.42c0,4.26,3.07,9.02,11.11,9.02,10.31,0,21.13-8.43,21.13-17.16,0-5.86-4.96-9.13-11.11-9.13-9.63,0-21.13,8.14-21.13,17.27"/><path d="M219.9,160.02c0,4.26,3.07,9.02,11.11,9.02,10.31,0,21.13-8.43,21.13-17.16,0-5.86-4.96-9.13-11.11-9.13-9.63,0-21.13,8.14-21.13,17.27"/><path d="M295.71,147.62c0,4.26,3.07,9.02,11.11,9.02,10.31,0,21.13-8.43,21.13-17.16,0-5.86-4.96-9.13-11.11-9.13-9.63,0-21.13,8.14-21.13,17.27"/><path d="M371.52,172.42c0,4.26,3.07,9.02,11.11,9.02,10.31,0,21.13-8.43,21.13-17.16,0-5.86-4.96-9.13-11.11-9.13-9.63,0-21.13,8.14-21.13,17.27"/><path d="M447.33,160.02c0,4.26,3.07,9.02,11.11,9.02,10.31,0,21.13-8.43,21.13-17.16,0-5.86-4.96-9.13-11.11-9.13-9.63,0-21.13,8.14-21.13,17.27"/><path d="M523.15,147.62c0,4.26,3.07,9.02,11.11,9.02,10.31,0,21.13-8.43,21.13-17.16,0-5.86-4.96-9.13-11.11-9.13-9.63,0-21.13,8.14-21.13,17.27"/><path d="M598.96,135.22c0,4.26,3.07,9.02,11.11,9.02,10.31,0,21.13-8.43,21.13-17.16,0-5.86-4.96-9.13-11.11-9.13-9.63,0-21.13,8.14-21.13,17.27"/><path d="M674.77,160.02c0,4.26,3.07,9.02,11.11,9.02,10.31,0,21.13-8.43,21.13-17.16,0-5.86-4.96-9.13-11.11-9.13-9.63,0-21.13,8.14-21.13,17.27"/><path d="M787.29,147.62c0,4.26,3.07,9.02,11.11,9.02,10.31,0,21.13-8.43,21.13-17.16,0-5.86-4.96-9.13-11.11-9.13-9.63,0-21.13,8.14-21.13,17.27"/><path d="M863.1,135.22c0,4.26,3.07,9.02,11.11,9.02,10.31,0,21.13-8.43,21.13-17.16,0-5.86-4.96-9.13-11.11-9.13-9.63,0-21.13,8.14-21.13,17.27"/><path d="M938.92,122.82c0,4.26,3.07,9.02,11.11,9.02,10.31,0,21.13-8.43,21.13-17.16,0-5.86-4.96-9.13-11.11-9.13-9.63,0-21.13,8.14-21.13,17.27"/><path d="M1014.73,147.62c0,4.26,3.07,9.02,11.11,9.02,10.31,0,21.13-8.43,21.13-17.16,0-5.86-4.96-9.13-11.11-9.13-9.63,0-21.13,8.14-21.13,17.27"/><path d="M1090.54,135.22c0,4.26,3.07,9.02,11.11,9.02,10.31,0,21.13-8.43,21.13-17.16,0-5.86-4.96-9.13-11.11-9.13-9.63,0-21.13,8.14-21.13,17.27"/><path d="M1166.35,122.82c0,4.26,3.07,9.02,11.11,9.02,10.31,0,21.13-8.43,21.13-17.16,0-5.86-4.96-9.13-11.11-9.13-9.63,0-21.13,8.14-21.13,17.27"/><path d="M1242.17,110.42c0,4.26,3.07,9.02,11.11,9.02,10.31,0,21.13-8.43,21.13-17.16,0-5.86-4.96-9.13-11.11-9.13-9.63,0-21.13,8.14-21.13,17.27"/><path d="M1317.98,135.22c0,4.26,3.07,9.02,11.11,9.02,10.31,0,21.13-8.43,21.13-17.16,0-5.86-4.96-9.13-11.11-9.13-9.63,0-21.13,8.14-21.13,17.27"/><path d="M1430.5,122.82c0,4.26,3.07,9.02,11.11,9.02,10.31,0,21.13-8.43,21.13-17.16,0-5.86-4.96-9.13-11.11-9.13-9.63,0-21.13,8.14-21.13,17.27"/><path d="M1506.31,110.42c0,4.26,3.07,9.02,11.11,9.02,10.31,0,21.13-8.43,21.13-17.16,0-5.86-4.96-9.13-11.11-9.13-9.63,0-21.13,8.14-21.13,17.27"/><path d="M1582.12,98.02c0,4.26,3.07,9.02,11.11,9.02,10.31,0,21.13-8.43,21.13-17.16,0-5.86-4.96-9.13-11.11-9.13-9.63,0-21.13,8.14-21.13,17.27"/><path d="M1657.94,122.82c0,4.26,3.07,9.02,11.11,9.02,10.31,0,21.13-8.43,21.13-17.16,0-5.86-4.96-9.13-11.11-9.13-9.63,0-21.13,8.14-21.13,17.27"/><path d="M1733.75,110.42c0,4.26,3.07,9.02,11.11,9.02,10.31,0,21.13-8.43,21.13-17.16,0-5.86-4.96-9.13-11.11-9.13-9.63,0-21.13,8.14-21.13,17.27"/><path d="M1809.56,98.02c0,4.26,3.07,9.02,11.11,9.02,10.31,0,21.13-8.43,21.13-17.16,0-5.86-4.96-9.13-11.11-9.13-9.63,0-21.13,8.14-21.13,17.27"/><path d="M1885.38,85.62c0,4.26,3.07,9.02,11.11,9.02,10.31,0,21.13-8.43,21.13-17.16,0-5.86-4.96-9.13-11.11-9.13-9.63,0-21.13,8.14-21.13,17.27"/><path d="M1961.19,110.42c0,4.26,3.07,9.02,11.11,9.02,10.31,0,21.13-8.43,21.13-17.16,0-5.86-4.96-9.13-11.11-9.13-9.63,0-21.13,8.14-21.13,17.27"/><path d="M2073.71,98.02c0,4.26,3.07,9.02,11.11,9.02,10.31,0,21.13-8.43,21.13-17.16,0-5.86-4.96-9.13-11.11-9.13-9.63,0-21.13,8.14-21.13,17.27"/><path d="M2149.52,85.62c0,4.26,3.07,9.02,11.11,9.02,10.31,0,21.13-8.43,21.13-17.16,0-5.86-4.96-9.13-11.11-9.13-9.63,0-21.13,8.14-21.13,17.27"/><path d="M2225.33,73.22c0,4.26,3.07,9.02,11.11,9.02,10.31,0,21.13-8.43,21.13-17.16,0-5.86-4.96-9.13-11.11-9.13-9.63,0-21.13,8.14-21.13,17.27"/><path d="M2301.15,98.02c0,4.26,3.07,9.02,11.11,9.02,10.31,0,21.13-8.43,21.13-17.16,0-5.86-4.96-9.13-11.11-9.13-9.63,0-21.13,8.14-21.13,17.27"/><path d="M2398.09,68.36c-9.63,0-21.13,8.04-21.13,17.27,0,4.26,3.07,9.02,11.11,9.02,10.31,0,21.13-8.43,21.13-17.16,0-5.86-4.96-9.13-11.11-9.13m-13.69,21.62c-3.27,0-3.97-2.67-3.97-3.56,0-4.87,16.66-13.39,21.33-13.39,2.39,0,3.97,1.39,3.97,3.56,0,4.96-16.77,13.39-21.33,13.39"/><path d="M144.08,428.82c0,4.26,3.07,9.02,11.11,9.02,10.31,0,21.13-8.43,21.13-17.16,0-5.86-4.96-9.13-11.11-9.13-9.63,0-21.13,8.14-21.13,17.27"/><path d="M219.44,441.22c0,4.26,3.07,9.02,11.11,9.02,10.31,0,21.13-8.43,21.13-17.16,0-5.86-4.96-9.13-11.11-9.13-9.63,0-21.13,8.14-21.13,17.27"/><path d="M294.81,453.62c0,4.26,3.07,9.02,11.11,9.02,10.31,0,21.13-8.43,21.13-17.16,0-5.86-4.96-9.13-11.11-9.13-9.63,0-21.13,8.14-21.13,17.27"/><path d="M370.17,428.82c0,4.26,3.07,9.02,11.11,9.02,10.31,0,21.13-8.43,21.13-17.16,0-5.86-4.96-9.13-11.11-9.13-9.63,0-21.13,8.14-21.13,17.27"/><path d="M445.53,441.22c0,4.26,3.07,9.02,11.11,9.02,10.31,0,21.13-8.43,21.13-17.16,0-5.86-4.96-9.13-11.11-9.13-9.63,0-21.13,8.14-21.13,17.27"/><path d="M520.89,453.62c0,4.26,3.07,9.02,11.11,9.02,10.31,0,21.13-8.43,21.13-17.16,0-5.86-4.96-9.13-11.11-9.13-9.63,0-21.13,8.14-21.13,17.27"/><path d="M596.25,466.02c0,4.26,3.07,9.02,11.11,9.02,10.31,0,21.13-8.43,21.13-17.16,0-5.86-4.96-9.13-11.11-9.13-9.63,0-21.13,8.14-21.13,17.27"/><path d="M671.62,441.22c0,4.26,3.07,9.02,11.11,9.02,10.31,0,21.13-8.43,21.13-17.16,0-5.86-4.96-9.13-11.11-9.13-9.63,0-21.13,8.14-21.13,17.27"/><path d="M783.69,453.62c0,4.26,3.07,9.02,11.11,9.02,10.31,0,21.13-8.43,21.13-17.16,0-5.86-4.96-9.13-11.11-9.13-9.63,0-21.13,8.14-21.13,17.27"/><path d="M859.04,466.02c0,4.26,3.07,9.02,11.11,9.02,10.31,0,21.13-8.43,21.13-17.16,0-5.86-4.96-9.13-11.11-9.13-9.63,0-21.13,8.14-21.13,17.27"/><path d="M934.41,478.42c0,4.26,3.07,9.02,11.11,9.02,10.31,0,21.13-8.43,21.13-17.16,0-5.86-4.96-9.13-11.11-9.13-9.63,0-21.13,8.14-21.13,17.27"/><path d="M1009.77,453.62c0,4.26,3.07,9.02,11.11,9.02,10.31,0,21.13-8.43,21.13-17.16,0-5.86-4.96-9.13-11.11-9.13-9.63,0-21.13,8.14-21.13,17.27"/><path d="M1085.13,466.02c0,4.26,3.07,9.02,11.11,9.02,10.31,0,21.13-8.43,21.13-17.16,0-5.86-4.96-9.13-11.11-9.13-9.63,0-21.13,8.14-21.13,17.27"/><path d="M1160.49,478.42c0,4.26,3.07,9.02,11.11,9.02,10.31,0,21.13-8.43,21.13-17.16,0-5.86-4.96-9.13-11.11-9.13-9.63,0-21.13,8.14-21.13,17.27"/><path d="M1235.85,490.82c0,4.26,3.07,9.02,11.11,9.02,10.31,0,21.13-8.43,21.13-17.16,0-5.86-4.96-9.13-11.11-9.13-9.63,0-21.13,8.14-21.13,17.27"/><path d="M1311.22,466.02c0,4.26,3.07,9.02,11.11,9.02,10.31,0,21.13-8.43,21.13-17.16,0-5.86-4.96-9.13-11.11-9.13-9.63,0-21.13,8.14-21.13,17.27"/><path d="M1423.28,478.42c0,4.26,3.07,9.02,11.11,9.02,10.31,0,21.13-8.43,21.13-17.16,0-5.86-4.96-9.13-11.11-9.13-9.63,0-21.13,8.14-21.13,17.27"/><path d="M1498.65,490.82c0,4.26,3.07,9.02,11.11,9.02,10.31,0,21.13-8.43,21.13-17.16,0-5.86-4.96-9.13-11.11-9.13-9.63,0-21.13,8.14-21.13,17.27"/><path d="M1574.01,503.22c0,4.26,3.07,9.02,11.11,9.02,10.31,0,21.13-8.43,21.13-17.16,0-5.86-4.96-9.13-11.11-9.13-9.63,0-21.13,8.14-21.13,17.27"/><path d="M1649.37,478.42c0,4.26,3.07,9.02,11.11,9.02,10.31,0,21.13-8.43,21.13-17.16,0-5.86-4.96-9.13-11.11-9.13-9.63,0-21.13,8.14-21.13,17.27"/><path d="M1724.73,490.82c0,4.26,3.07,9.02,11.11,9.02,10.31,0,21.13-8.43,21.13-17.16,0-5.86-4.96-9.13-11.11-9.13-9.63,0-21.13,8.14-21.13,17.27"/><path d="M1800.09,503.22c0,4.26,3.07,9.02,11.11,9.02,10.31,0,21.13-8.43,21.13-17.16,0-5.86-4.96-9.13-11.11-9.13-9.63,0-21.13,8.14-21.13,17.27"/><path d="M1875.46,515.62c0,4.26,3.07,9.02,11.11,9.02,10.31,0,21.13-8.43,21.13-17.16,0-5.86-4.96-9.13-11.11-9.13-9.63,0-21.13,8.14-21.13,17.27"/><path d="M1950.82,490.82c0,4.26,3.07,9.02,11.11,9.02,10.31,0,21.13-8.43,21.13-17.16,0-5.86-4.96-9.13-11.11-9.13-9.63,0-21.13,8.14-21.13,17.27"/><path d="M2062.89,503.22c0,4.26,3.07,9.02,11.11,9.02,10.31,0,21.13-8.43,21.13-17.16,0-5.86-4.96-9.13-11.11-9.13-9.63,0-21.13,8.14-21.13,17.27"/><path d="M2138.25,515.62c0,4.26,3.07,9.02,11.11,9.02,10.31,0,21.13-8.43,21.13-17.16,0-5.86-4.96-9.13-11.11-9.13-9.63,0-21.13,8.14-21.13,17.27"/><path d="M2213.61,528.02c0,4.26,3.07,9.02,11.11,9.02,10.31,0,21.13-8.43,21.13-17.16,0-5.86-4.96-9.13-11.11-9.13-9.63,0-21.13,8.14-21.13,17.27"/><path d="M2288.97,503.22c0,4.26,3.07,9.02,11.11,9.02,10.31,0,21.13-8.43,21.13-17.16,0-5.86-4.96-9.13-11.11-9.13-9.63,0-21.13,8.14-21.13,17.27"/><path d="M2385.46,498.36c-9.63,0-21.13,8.04-21.13,17.27,0,4.26,3.07,9.02,11.11,9.02,10.31,0,21.13-8.43,21.13-17.16,0-5.86-4.96-9.13-11.11-9.13m-13.69,21.62c-3.27,0-3.97-2.67-3.97-3.56,0-4.87,16.66-13.39,21.33-13.39,2.39,0,3.97,1.39,3.97,3.56,0,4.96-16.77,13.39-21.33,13.39"/><path d="M30.8,512.74c0,6.56,4.96,15.19,18.35,15.19,4.67,0,8.74-1.19,12.31-3.38,5.36-3.77,6.74-10.32,6.74-16.57,0-3.86-.59-8.32-1.58-13.98-.29-1.98-.9-4.96-1.49-8.84,9.72-3.18,16.96-13.3,16.96-23.51,0-14.97-10.62-25.09-25.09-25.09-.99-5.95-1.98-11.81-2.77-17.36,10.42-11.02,17.65-23.42,17.65-39.18,0-9.04-2.77-16.37-4.37-19.95-2.37-5.05-5.25-8.53-7.04-8.53-.7,0-3.77,1.19-7.04,5.05-6.36,7.55-8.14,20.24-8.14,28.57,0,5.36,.5,10.23,2.19,21.34-.11,.09-5.27,5.35-7.35,7.04-9.04,8.34-21.53,20.43-21.53,40.28,0,18.54,16.17,33.12,34.63,33.12,2.87,0,5.55-.29,7.83-.7,1.89,9.53,3.08,16.48,3.08,21.73,0,10.32-5.36,15.78-15.38,15.78-2.39,0-4.46-.5-4.67-.5-.09-.11-.29-.2-.29-.29,0-.2,.2-.31,.5-.31,4.67-.79,9.32-4.76,9.32-11.1,0-5.36-4.06-11.02-11.5-11.02-6.94,0-11.31,5.66-11.31,12.2m20.74-132.43c.9-3.97,5.46-14.38,10.62-14.38,1.49,0,3.86,4.76,3.86,11.7,0,10.32-7.63,18.06-14.48,24.8-.59-3.97-1.08-7.83-1.08-12,0-3.67,.29-7.05,1.08-10.12m8.73,101.97c-1.98,.4-3.86,.6-5.75,.6-14.18,0-26.29-9.92-26.29-24.91,0-12.09,8.53-22.91,17.27-30.46,1.67-1.49,3.27-2.87,4.76-4.36,.88,5.35,1.58,10.01,2.28,14.09-9.04,2.68-15.17,12.2-15.17,21.53,0,6.94,5.46,16.46,13.39,16.46,.79,0,1.69-.4,1.69-1.29s-.99-1.39-2.19-2.19c-3.88-2.39-6.06-4.96-6.06-9.83,0-6.04,4.57-10.91,10.32-12.29l5.75,32.63m14.09-18.35c0,7.05-2.88,14.29-9.92,17.17-2.08-11.9-4.76-27.68-5.46-32.05,8.93,0,15.38,6.06,15.38,14.88"/><path d="M30.8,169.54c0,6.56,4.96,15.19,18.35,15.19,4.67,0,8.74-1.19,12.31-3.38,5.36-3.77,6.74-10.32,6.74-16.57,0-3.86-.59-8.32-1.58-13.98-.29-1.98-.9-4.96-1.49-8.84,9.72-3.18,16.96-13.3,16.96-23.51,0-14.97-10.62-25.09-25.09-25.09-.99-5.95-1.98-11.81-2.77-17.36,10.42-11.02,17.65-23.42,17.65-39.18,0-9.04-2.77-16.37-4.37-19.95-2.37-5.05-5.25-8.53-7.04-8.53-.7,0-3.77,1.19-7.04,5.05-6.36,7.55-8.14,20.24-8.14,28.57,0,5.36,.5,10.23,2.19,21.34-.11,.09-5.27,5.35-7.35,7.04-9.04,8.34-21.53,20.43-21.53,40.28,0,18.54,16.17,33.12,34.63,33.12,2.87,0,5.55-.29,7.83-.7,1.89,9.53,3.08,16.48,3.08,21.73,0,10.32-5.36,15.78-15.38,15.78-2.39,0-4.46-.5-4.67-.5-.09-.11-.29-.2-.29-.29,0-.2,.2-.31,.5-.31,4.67-.79,9.32-4.76,9.32-11.1,0-5.36-4.06-11.02-11.5-11.02-6.94,0-11.31,5.66-11.31,12.2M51.54,37.11c.9-3.97,5.46-14.38,10.62-14.38,1.49,0,3.86,4.76,3.86,11.7,0,10.32-7.63,18.06-14.48,24.8-.59-3.97-1.08-7.83-1.08-12,0-3.67,.29-7.05,1.08-10.12m8.73,101.97c-1.98,.4-3.86,.6-5.75,.6-14.18,0-26.29-9.92-26.29-24.91,0-12.09,8.53-22.91,17.27-30.46,1.67-1.49,3.27-2.87,4.76-4.36,.88,5.35,1.58,10.01,2.28,14.09-9.04,2.68-15.17,12.2-15.17,21.53,0,6.94,5.46,16.46,13.39,16.46,.79,0,1.69-.4,1.69-1.29s-.99-1.39-2.19-2.19c-3.88-2.39-6.06-4.96-6.06-9.83,0-6.04,4.57-10.91,10.32-12.29l5.75,32.63m14.09-18.35c0,7.05-2.88,14.29-9.92,17.17-2.08-11.9-4.76-27.68-5.46-32.05,8.93,0,15.38,6.06,15.38,14.88"/><path d="M2509.45,31.85c9.13-6.35,13.28-12.6,13.28-19.75,0-7.53-4.36-12.11-11.01-12.11-4.76,0-7.94,3.38-7.94,7.35,0,4.26,3.67,7.55,7.94,7.55,2.88,0,4.26-.7,4.56-.81,.31-.09,.5-.19,.81-.19,.09,0,.29,0,.39,.09,.2,.09,.29,.4,.29,.99,0,4.26-3.86,9.13-10.71,13.89l2.39,2.98"/><path d="M2403.17,349.26c-9.32-10.12-17.56-10.71-22.71-10.71s-13.3,.59-22.63,10.71c-4.85,5.36-8.23,15.96-8.23,21.33,0,1.89,.4,3.18,1.39,3.18,2.77,0,1.38-8.54,9.72-16.97,7.33-7.33,17.16-7.44,19.55-7.44h.39c2.39,0,12.21,.11,19.55,7.44,8.34,8.43,6.94,16.97,9.72,16.97,.99,0,1.39-1.19,1.39-3.18,0-5.36-3.27-16.07-8.14-21.33m-29.56,18.94c0,3.78,3.07,6.85,6.85,6.85s6.84-3.07,6.84-6.85-3.07-6.84-6.84-6.84-6.85,3.07-6.85,6.84"/><path d="M1120.29,31.85h229.92v12.4h-229.92v-12.4" fill-rule="evenodd"/><path d="M817.04,38.05h229.92v12.4h-229.92v-12.4" fill-rule="evenodd"/><path d="M477.09,44.25h229.92v12.4h-229.92v-12.4" fill-rule="evenodd"/><path d="M173.84,62.85h229.92v12.4H173.84v-12.4" fill-rule="evenodd"/><path d="M2092.64,412.25h228.56v12.4h-228.56v-12.4" fill-rule="evenodd"/><path d="M813.44,375.05h228.56v12.4h-228.56v-12.4" fill-rule="evenodd"/><path d="M475.28,362.65h228.57v12.4h-228.57v-12.4" fill-rule="evenodd"/><path d="M144.08,511.45h228.56v12.4H144.08v-12.4" fill-rule="evenodd"/><path d="M1754.48,406.05h228.57v12.4h-228.57v-12.4" fill-rule="evenodd"/><path d="M2073.71,155.85h229.92v12.4h-229.92v-12.4" fill-rule="evenodd"/><path d="M1453.04,387.45h228.56v12.4h-228.56v-12.4" fill-rule="evenodd"/><path d="M1733.75,168.25h229.92v12.4h-229.92v-12.4" fill-rule="evenodd"/><path d="M1460.25,19.45h229.92v12.4h-229.92v-12.4" fill-rule="evenodd"/><path d="M1114.88,381.25h228.57v12.4h-228.57v-12.4" fill-rule="evenodd"/></g></svg>