<?xml version="1.0" encoding="UTF-8"?><svg id="b" xmlns="http://www.w3.org/2000/svg" viewBox="0 0 2552 299.28"><g id="c"><line y1="48.9" x2="2552" y2="48.9" fill="none" stroke="#000" stroke-linejoin="bevel" stroke-width="2.73"/><line y1="73.7" x2="2552" y2="73.7" fill="none" stroke="#000" stroke-linejoin="bevel" stroke-width="2.73"/><line y1="98.5" x2="2552" y2="98.5" fill="none" stroke="#000" stroke-linejoin="bevel" stroke-width="2.73"/><line y1="123.3" x2="2552" y2="123.3" fill="none" stroke="#000" stroke-linejoin="bevel" stroke-width="2.73"/><line y1="148.1" x2="2552" y2="148.1" fill="none" stroke="#000" stroke-linejoin="bevel" stroke-width="2.73"/><path d="M173.98,220.02c287.59,103.07,1626.52,94.39,1912.76-12.4-286.18,114.73-1625.11,123.41-1912.76,12.4" fill-rule="evenodd" stroke="#000" stroke-linecap="round" stroke-linejoin="round" stroke-width="1.24"/><line x1="626.14" y1="47.54" x2="626.14" y2="149.46" fill="none" stroke="#000" stroke-linejoin="bevel" stroke-width="4.46"/><path d="M2157.11,86.1c0-2.88-2.29-5.25-5.16-5.25s-5.16,2.37-5.16,5.25,2.28,5.25,5.16,5.25,5.16-2.37,5.16-5.25"/><path d="M2157.11,110.9c0-2.88-2.29-5.25-5.16-5.25s-5.16,2.37-5.16,5.25,2.28,5.25,5.16,5.25,5.16-2.37,5.16-5.25"/><line x1="2168.51" y1="47.54" x2="2168.51" y2="149.46" fill="none" stroke="#000" stroke-linejoin="bevel" stroke-width="4.46"/><line x1="2186.74" y1="47.54" x2="2186.74" y2="149.46" fill="none" stroke="#000" stroke-linejoin="bevel" stroke-width="13.64"/><line x1="1650.19" y1="47.54" x2="1650.19" y2="149.46" fill="none" stroke="#000" stroke-linejoin="bevel" stroke-width="4.46"/><line x1="1124.97" y1="47.54" x2="1124.97" y2="149.46" fill="none" stroke="#000" stroke-linejoin="bevel" stroke-width="4.46"/><line x1="2536.13" y1="47.54" x2="2536.13" y2="149.46" fill="none" stroke="#000" stroke-linejoin="bevel" stroke-width="4.46"/><line x1="2549.77" y1="47.54" x2="2549.77" y2="149.46" fill="none" stroke="#000" stroke-linejoin="bevel" stroke-width="4.46"/><path d="M2232.79,187.29c.6-.09,1.1-.79,1.1-1.4v-5.84c0-.99-.7-1.39-1.6-1.39l-3.27,.7v-14.79h-2.77v15.38l-8.83,1.8v-14h-2.77v14.59l-3.87,.79c-.59,.11-1.08,.79-1.08,1.39v5.75c0,1.08,.79,1.39,1.69,1.39l3.27-.7v16.37l-3.87,.79c-.59,.09-1.08,.79-1.08,1.4v5.75c0,1.09,.79,1.38,1.69,1.38l3.27-.68v14.77h2.77v-15.38l8.83-1.78v14h2.77v-14.59l3.77-.7c.6-.11,1.1-.79,1.1-1.39v-5.84c0-.99-.7-1.39-1.6-1.39l-3.27,.7v-16.37l3.77-.7m-15.38,3.07l8.83-1.78v16.37l-8.83,1.89v-16.48"/><path d="M379.93,162.49c.6-.09,1.1-.79,1.1-1.4v-5.84c0-.99-.7-1.39-1.6-1.39l-3.27,.7v-14.79h-2.77v15.38l-8.83,1.8v-14h-2.77v14.59l-3.87,.79c-.59,.11-1.08,.79-1.08,1.39v5.75c0,1.08,.79,1.39,1.69,1.39l3.27-.7v16.37l-3.87,.79c-.59,.09-1.08,.79-1.08,1.4v5.75c0,1.09,.79,1.38,1.69,1.38l3.27-.68v14.77h2.77v-15.38l8.83-1.78v14h2.77v-14.59l3.77-.7c.6-.11,1.1-.79,1.1-1.39v-5.84c0-.99-.7-1.39-1.6-1.39l-3.27,.7v-16.37l3.77-.7m-15.38,3.07l8.83-1.78v16.37l-8.83,1.89v-16.48"/><path d="M142.39,187.29c.6-.09,1.1-.79,1.1-1.4v-5.84c0-.99-.7-1.39-1.6-1.39l-3.27,.7v-14.79h-2.77v15.38l-8.83,1.8v-14h-2.77v14.59l-3.87,.79c-.59,.11-1.08,.79-1.08,1.39v5.75c0,1.08,.79,1.39,1.69,1.39l3.27-.7v16.37l-3.87,.79c-.59,.09-1.08,.79-1.08,1.4v5.75c0,1.09,.79,1.38,1.69,1.38l3.27-.68v14.77h2.77v-15.38l8.83-1.78v14h2.77v-14.59l3.77-.7c.6-.11,1.1-.79,1.1-1.39v-5.84c0-.99-.7-1.39-1.6-1.39l-3.27,.7v-16.37l3.77-.7m-15.38,3.07l8.83-1.78v16.37l-8.83,1.89v-16.48"/><path d="M1753.54,150.09c.6-.09,1.1-.79,1.1-1.4v-5.84c0-.99-.7-1.39-1.6-1.39l-3.27,.7v-14.79h-2.77v15.38l-8.83,1.8v-14h-2.77v14.59l-3.87,.79c-.59,.11-1.08,.79-1.08,1.39v5.75c0,1.08,.79,1.39,1.69,1.39l3.27-.7v16.37l-3.87,.79c-.59,.09-1.08,.79-1.08,1.4v5.75c0,1.09,.79,1.38,1.69,1.38l3.27-.68v14.77h2.77v-15.38l8.83-1.78v14h2.77v-14.59l3.77-.7c.6-.11,1.1-.79,1.1-1.39v-5.84c0-.99-.7-1.39-1.6-1.39l-3.27,.7v-16.37l3.77-.7m-15.38,3.07l8.83-1.78v16.37l-8.83,1.89v-16.48"/><path d="M1564.5,150.09c.6-.09,1.1-.79,1.1-1.4v-5.84c0-.99-.7-1.39-1.6-1.39l-3.27,.7v-14.79h-2.77v15.38l-8.83,1.8v-14h-2.77v14.59l-3.87,.79c-.59,.11-1.08,.79-1.08,1.39v5.75c0,1.08,.79,1.39,1.69,1.39l3.27-.7v16.37l-3.87,.79c-.59,.09-1.08,.79-1.08,1.4v5.75c0,1.09,.79,1.38,1.69,1.38l3.27-.68v14.77h2.77v-15.38l8.83-1.78v14h2.77v-14.59l3.77-.7c.6-.11,1.1-.79,1.1-1.39v-5.84c0-.99-.7-1.39-1.6-1.39l-3.27,.7v-16.37l3.77-.7m-15.38,3.07l8.83-1.78v16.37l-8.83,1.89v-16.48"/><path d="M1166.44,187.29c.6-.09,1.1-.79,1.1-1.4v-5.84c0-.99-.7-1.39-1.6-1.39l-3.27,.7v-14.79h-2.77v15.38l-8.83,1.8v-14h-2.77v14.59l-3.87,.79c-.59,.11-1.08,.79-1.08,1.39v5.75c0,1.08,.79,1.39,1.69,1.39l3.27-.7v16.37l-3.87,.79c-.59,.09-1.08,.79-1.08,1.4v5.75c0,1.09,.79,1.38,1.69,1.38l3.27-.68v14.77h2.77v-15.38l8.83-1.78v14h2.77v-14.59l3.77-.7c.6-.11,1.1-.79,1.1-1.39v-5.84c0-.99-.7-1.39-1.6-1.39l-3.27,.7v-16.37l3.77-.7m-15.38,3.07l8.83-1.78v16.37l-8.83,1.89v-16.48"/><path d="M955.52,154.75c-.19-.2-.5-.29-.88-.29l-.2,.09h-.09l-12.51,3.47v-17.36h-2.77v49.1c0,1.09,.9,1.29,1.78,1.29l12.51-3.47v17.36h2.67v-49.1c0-.39-.19-.88-.5-1.09m-13.69,27.78v-16.28l11.52-3.27v16.37l-11.52,3.18"/><path d="M876.97,162.49c.6-.09,1.1-.79,1.1-1.4v-5.84c0-.99-.7-1.39-1.6-1.39l-3.27,.7v-14.79h-2.77v15.38l-8.83,1.8v-14h-2.77v14.59l-3.87,.79c-.59,.11-1.08,.79-1.08,1.39v5.75c0,1.08,.79,1.39,1.69,1.39l3.27-.7v16.37l-3.87,.79c-.59,.09-1.08,.79-1.08,1.4v5.75c0,1.09,.79,1.38,1.69,1.38l3.27-.68v14.77h2.77v-15.38l8.83-1.78v14h2.77v-14.59l3.77-.7c.6-.11,1.1-.79,1.1-1.39v-5.84c0-.99-.7-1.39-1.6-1.39l-3.27,.7v-16.37l3.77-.7m-15.38,3.07l8.83-1.78v16.37l-8.83,1.89v-16.48"/><path d="M1830.3,142.35c-.19-.2-.5-.29-.88-.29l-.2,.09h-.09l-12.51,3.47v-17.36h-2.77v49.1c0,1.09,.9,1.29,1.78,1.29l12.51-3.47v17.36h2.67v-49.1c0-.39-.19-.88-.5-1.09m-13.69,27.78v-16.28l11.52-3.27v16.37l-11.52,3.18"/><path d="M806.25,142.35c-.19-.2-.5-.29-.88-.29l-.2,.09h-.09l-12.51,3.47v-17.36h-2.77v49.1c0,1.09,.9,1.29,1.78,1.29l12.51-3.47v17.36h2.67v-49.1c0-.39-.19-.88-.5-1.09m-13.69,27.78v-16.28l11.52-3.27v16.37l-11.52,3.18"/><path d="M729.49,150.09c.6-.09,1.1-.79,1.1-1.4v-5.84c0-.99-.7-1.39-1.6-1.39l-3.27,.7v-14.79h-2.77v15.38l-8.83,1.8v-14h-2.77v14.59l-3.87,.79c-.59,.11-1.08,.79-1.08,1.39v5.75c0,1.08,.79,1.39,1.69,1.39l3.27-.7v16.37l-3.87,.79c-.59,.09-1.08,.79-1.08,1.4v5.75c0,1.09,.79,1.38,1.69,1.38l3.27-.68v14.77h2.77v-15.38l8.83-1.78v14h2.77v-14.59l3.77-.7c.6-.11,1.1-.79,1.1-1.39v-5.84c0-.99-.7-1.39-1.6-1.39l-3.27,.7v-16.37l3.77-.7m-15.38,3.07l8.83-1.78v16.37l-8.83,1.89v-16.48"/><path d="M1403.98,162.49c.6-.09,1.1-.79,1.1-1.4v-5.84c0-.99-.7-1.39-1.6-1.39l-3.27,.7v-14.79h-2.77v15.38l-8.83,1.8v-14h-2.77v14.59l-3.87,.79c-.59,.11-1.08,.79-1.08,1.39v5.75c0,1.08,.79,1.39,1.69,1.39l3.27-.7v16.37l-3.87,.79c-.59,.09-1.08,.79-1.08,1.4v5.75c0,1.09,.79,1.38,1.69,1.38l3.27-.68v14.77h2.77v-15.38l8.83-1.78v14h2.77v-14.59l3.77-.7c.6-.11,1.1-.79,1.1-1.39v-5.84c0-.99-.7-1.39-1.6-1.39l-3.27,.7v-16.37l3.77-.7m-15.38,3.07l8.83-1.78v16.37l-8.83,1.89v-16.48"/><path d="M540.45,150.09c.6-.09,1.1-.79,1.1-1.4v-5.84c0-.99-.7-1.39-1.6-1.39l-3.27,.7v-14.79h-2.77v15.38l-8.83,1.8v-14h-2.77v14.59l-3.87,.79c-.59,.11-1.08,.79-1.08,1.39v5.75c0,1.08,.79,1.39,1.69,1.39l3.27-.7v16.37l-3.87,.79c-.59,.09-1.08,.79-1.08,1.4v5.75c0,1.09,.79,1.38,1.69,1.38l3.27-.68v14.77h2.77v-15.38l8.83-1.78v14h2.77v-14.59l3.77-.7c.6-.11,1.1-.79,1.1-1.39v-5.84c0-.99-.7-1.39-1.6-1.39l-3.27,.7v-16.37l3.77-.7m-15.38,3.07l8.83-1.78v16.37l-8.83,1.89v-16.48"/><path d="M1901.02,162.49c.6-.09,1.1-.79,1.1-1.4v-5.84c0-.99-.7-1.39-1.6-1.39l-3.27,.7v-14.79h-2.77v15.38l-8.83,1.8v-14h-2.77v14.59l-3.87,.79c-.59,.11-1.08,.79-1.08,1.39v5.75c0,1.08,.79,1.39,1.69,1.39l3.27-.7v16.37l-3.87,.79c-.59,.09-1.08,.79-1.08,1.4v5.75c0,1.09,.79,1.38,1.69,1.38l3.27-.68v14.77h2.77v-15.38l8.83-1.78v14h2.77v-14.59l3.77-.7c.6-.11,1.1-.79,1.1-1.39v-5.84c0-.99-.7-1.39-1.6-1.39l-3.27,.7v-16.37l3.77-.7m-15.38,3.07l8.83-1.78v16.37l-8.83,1.89v-16.48"/><path d="M1979.57,154.75c-.19-.2-.5-.29-.88-.29l-.2,.09h-.09l-12.51,3.47v-17.36h-2.77v49.1c0,1.09,.9,1.29,1.78,1.29l12.51-3.47v17.36h2.67v-49.1c0-.39-.19-.88-.5-1.09m-13.69,27.78v-16.28l11.52-3.27v16.37l-11.52,3.18"/><line x1="149.68" y1="197.7" x2="198.28" y2="197.7" fill="none" stroke="#000" stroke-linejoin="bevel" stroke-width="3.97"/><line x1="149.68" y1="172.9" x2="198.28" y2="172.9" fill="none" stroke="#000" stroke-linejoin="bevel" stroke-width="3.97"/><line x1="225.85" y1="172.9" x2="274.45" y2="172.9" fill="none" stroke="#000" stroke-linejoin="bevel" stroke-width="3.97"/><line x1="302.02" y1="172.9" x2="350.62" y2="172.9" fill="none" stroke="#000" stroke-linejoin="bevel" stroke-width="3.97"/><line x1="387.22" y1="172.9" x2="435.82" y2="172.9" fill="none" stroke="#000" stroke-linejoin="bevel" stroke-width="3.97"/><line x1="884.26" y1="172.9" x2="932.86" y2="172.9" fill="none" stroke="#000" stroke-linejoin="bevel" stroke-width="3.97"/><line x1="962.22" y1="172.9" x2="1010.82" y2="172.9" fill="none" stroke="#000" stroke-linejoin="bevel" stroke-width="3.97"/><line x1="1038.39" y1="172.9" x2="1086.99" y2="172.9" fill="none" stroke="#000" stroke-linejoin="bevel" stroke-width="3.97"/><line x1="1173.73" y1="197.7" x2="1222.33" y2="197.7" fill="none" stroke="#000" stroke-linejoin="bevel" stroke-width="3.97"/><line x1="1173.73" y1="172.9" x2="1222.33" y2="172.9" fill="none" stroke="#000" stroke-linejoin="bevel" stroke-width="3.97"/><line x1="1249.9" y1="172.9" x2="1298.5" y2="172.9" fill="none" stroke="#000" stroke-linejoin="bevel" stroke-width="3.97"/><line x1="1326.07" y1="172.9" x2="1374.67" y2="172.9" fill="none" stroke="#000" stroke-linejoin="bevel" stroke-width="3.97"/><line x1="1411.27" y1="172.9" x2="1459.87" y2="172.9" fill="none" stroke="#000" stroke-linejoin="bevel" stroke-width="3.97"/><line x1="1908.31" y1="172.9" x2="1956.91" y2="172.9" fill="none" stroke="#000" stroke-linejoin="bevel" stroke-width="3.97"/><line x1="1986.27" y1="172.9" x2="2034.87" y2="172.9" fill="none" stroke="#000" stroke-linejoin="bevel" stroke-width="3.97"/><line x1="2062.44" y1="172.9" x2="2111.04" y2="172.9" fill="none" stroke="#000" stroke-linejoin="bevel" stroke-width="3.97"/><line x1="2240.08" y1="197.7" x2="2288.68" y2="197.7" fill="none" stroke="#000" stroke-linejoin="bevel" stroke-width="3.97"/><line x1="2240.08" y1="172.9" x2="2288.68" y2="172.9" fill="none" stroke="#000" stroke-linejoin="bevel" stroke-width="3.97"/><line x1="1947.49" y1="168.93" x2="1947.49" y2="77.42" fill="none" stroke="#000" stroke-linejoin="bevel" stroke-width="2.48"/><line x1="2025.45" y1="168.93" x2="2025.45" y2="78.66" fill="none" stroke="#000" stroke-linejoin="bevel" stroke-width="2.48"/><line x1="188.86" y1="193.73" x2="188.86" y2="79.88" fill="none" stroke="#000" stroke-linejoin="bevel" stroke-width="2.48"/><line x1="2101.61" y1="181.33" x2="2101.61" y2="79.88" fill="none" stroke="#000" stroke-linejoin="bevel" stroke-width="2.48"/><line x1="2279.26" y1="193.73" x2="2279.26" y2="98.5" fill="none" stroke="#000" stroke-linejoin="bevel" stroke-width="2.48"/><line x1="1450.44" y1="168.93" x2="1450.44" y2="76.13" fill="none" stroke="#000" stroke-linejoin="bevel" stroke-width="2.48"/><line x1="426.4" y1="168.93" x2="426.4" y2="76.13" fill="none" stroke="#000" stroke-linejoin="bevel" stroke-width="2.48"/><line x1="265.03" y1="181.33" x2="265.03" y2="78.68" fill="none" stroke="#000" stroke-linejoin="bevel" stroke-width="2.48"/><line x1="767.78" y1="156.53" x2="767.78" y2="74.94" fill="none" stroke="#000" stroke-linejoin="bevel" stroke-width="2.48"/><line x1="843.94" y1="156.53" x2="843.94" y2="76.15" fill="none" stroke="#000" stroke-linejoin="bevel" stroke-width="2.48"/><line x1="502.57" y1="156.53" x2="502.57" y2="74.92" fill="none" stroke="#000" stroke-linejoin="bevel" stroke-width="2.48"/><line x1="923.44" y1="168.93" x2="923.44" y2="77.42" fill="none" stroke="#000" stroke-linejoin="bevel" stroke-width="2.48"/><line x1="1001.4" y1="168.93" x2="1001.4" y2="78.66" fill="none" stroke="#000" stroke-linejoin="bevel" stroke-width="2.48"/><line x1="1077.57" y1="181.33" x2="1077.57" y2="79.88" fill="none" stroke="#000" stroke-linejoin="bevel" stroke-width="2.48"/><line x1="1212.91" y1="193.73" x2="1212.91" y2="79.88" fill="none" stroke="#000" stroke-linejoin="bevel" stroke-width="2.48"/><line x1="578.74" y1="156.53" x2="578.74" y2="73.72" fill="none" stroke="#000" stroke-linejoin="bevel" stroke-width="2.48"/><line x1="1289.07" y1="181.33" x2="1289.07" y2="78.68" fill="none" stroke="#000" stroke-linejoin="bevel" stroke-width="2.48"/><line x1="1365.24" y1="168.93" x2="1365.24" y2="77.47" fill="none" stroke="#000" stroke-linejoin="bevel" stroke-width="2.48"/><line x1="1526.61" y1="156.53" x2="1526.61" y2="74.92" fill="none" stroke="#000" stroke-linejoin="bevel" stroke-width="2.48"/><line x1="1602.78" y1="156.53" x2="1602.78" y2="73.72" fill="none" stroke="#000" stroke-linejoin="bevel" stroke-width="2.48"/><line x1="1715.65" y1="144.13" x2="1715.65" y2="73.72" fill="none" stroke="#000" stroke-linejoin="bevel" stroke-width="2.48"/><line x1="341.2" y1="168.93" x2="341.2" y2="77.47" fill="none" stroke="#000" stroke-linejoin="bevel" stroke-width="2.48"/><line x1="1791.82" y1="156.53" x2="1791.82" y2="74.94" fill="none" stroke="#000" stroke-linejoin="bevel" stroke-width="2.48"/><line x1="1867.99" y1="156.53" x2="1867.99" y2="76.15" fill="none" stroke="#000" stroke-linejoin="bevel" stroke-width="2.48"/><line x1="691.61" y1="144.13" x2="691.61" y2="73.72" fill="none" stroke="#000" stroke-linejoin="bevel" stroke-width="2.48"/><path d="M234.04,189.47c0,4.26,3.07,9.02,11.11,9.02,10.31,0,21.13-8.43,21.13-17.16,0-5.86-4.96-9.13-11.11-9.13-9.63,0-21.13,8.14-21.13,17.27"/><path d="M310.2,177.07c0,4.26,3.07,9.02,11.11,9.02,10.31,0,21.13-8.43,21.13-17.16,0-5.86-4.96-9.13-11.11-9.13-9.63,0-21.13,8.14-21.13,17.27"/><path d="M395.41,177.07c0,4.26,3.07,9.02,11.11,9.02,10.31,0,21.13-8.43,21.13-17.16,0-5.86-4.96-9.13-11.11-9.13-9.63,0-21.13,8.14-21.13,17.27"/><path d="M471.57,164.67c0,4.26,3.07,9.02,11.11,9.02,10.31,0,21.13-8.43,21.13-17.16,0-5.86-4.96-9.13-11.11-9.13-9.63,0-21.13,8.14-21.13,17.27"/><path d="M547.74,164.67c0,4.26,3.07,9.02,11.11,9.02,10.31,0,21.13-8.43,21.13-17.16,0-5.86-4.96-9.13-11.11-9.13-9.63,0-21.13,8.14-21.13,17.27"/><path d="M660.62,152.27c0,4.26,3.07,9.02,11.11,9.02,10.31,0,21.13-8.43,21.13-17.16,0-5.86-4.96-9.13-11.11-9.13-9.63,0-21.13,8.14-21.13,17.27"/><path d="M736.78,164.67c0,4.26,3.07,9.02,11.11,9.02,10.31,0,21.13-8.43,21.13-17.16,0-5.86-4.96-9.13-11.11-9.13-9.63,0-21.13,8.14-21.13,17.27"/><path d="M812.95,164.67c0,4.26,3.07,9.02,11.11,9.02,10.31,0,21.13-8.43,21.13-17.16,0-5.86-4.96-9.13-11.11-9.13-9.63,0-21.13,8.14-21.13,17.27"/><path d="M892.45,177.07c0,4.26,3.07,9.02,11.11,9.02,10.31,0,21.13-8.43,21.13-17.16,0-5.86-4.96-9.13-11.11-9.13-9.63,0-21.13,8.14-21.13,17.27"/><path d="M970.41,177.07c0,4.26,3.07,9.02,11.11,9.02,10.31,0,21.13-8.43,21.13-17.16,0-5.86-4.96-9.13-11.11-9.13-9.63,0-21.13,8.14-21.13,17.27"/><path d="M1046.57,189.47c0,4.26,3.07,9.02,11.11,9.02,10.31,0,21.13-8.43,21.13-17.16,0-5.86-4.96-9.13-11.11-9.13-9.63,0-21.13,8.14-21.13,17.27"/><path d="M1181.91,201.87c0,4.26,3.07,9.02,11.11,9.02,10.31,0,21.13-8.43,21.13-17.16,0-5.86-4.96-9.13-11.11-9.13-9.63,0-21.13,8.14-21.13,17.27"/><path d="M1258.08,189.47c0,4.26,3.07,9.02,11.11,9.02,10.31,0,21.13-8.43,21.13-17.16,0-5.86-4.96-9.13-11.11-9.13-9.63,0-21.13,8.14-21.13,17.27"/><path d="M1334.25,177.07c0,4.26,3.07,9.02,11.11,9.02,10.31,0,21.13-8.43,21.13-17.16,0-5.86-4.96-9.13-11.11-9.13-9.63,0-21.13,8.14-21.13,17.27"/><path d="M1419.45,177.07c0,4.26,3.07,9.02,11.11,9.02,10.31,0,21.13-8.43,21.13-17.16,0-5.86-4.96-9.13-11.11-9.13-9.63,0-21.13,8.14-21.13,17.27"/><path d="M1495.62,164.67c0,4.26,3.07,9.02,11.11,9.02,10.31,0,21.13-8.43,21.13-17.16,0-5.86-4.96-9.13-11.11-9.13-9.63,0-21.13,8.14-21.13,17.27"/><path d="M1571.79,164.67c0,4.26,3.07,9.02,11.11,9.02,10.31,0,21.13-8.43,21.13-17.16,0-5.86-4.96-9.13-11.11-9.13-9.63,0-21.13,8.14-21.13,17.27"/><path d="M1684.66,152.27c0,4.26,3.07,9.02,11.11,9.02,10.31,0,21.13-8.43,21.13-17.16,0-5.86-4.96-9.13-11.11-9.13-9.63,0-21.13,8.14-21.13,17.27"/><path d="M1760.83,164.67c0,4.26,3.07,9.02,11.11,9.02,10.31,0,21.13-8.43,21.13-17.16,0-5.86-4.96-9.13-11.11-9.13-9.63,0-21.13,8.14-21.13,17.27"/><path d="M1837,164.67c0,4.26,3.07,9.02,11.11,9.02,10.31,0,21.13-8.43,21.13-17.16,0-5.86-4.96-9.13-11.11-9.13-9.63,0-21.13,8.14-21.13,17.27"/><path d="M1916.5,177.07c0,4.26,3.07,9.02,11.11,9.02,10.31,0,21.13-8.43,21.13-17.16,0-5.86-4.96-9.13-11.11-9.13-9.63,0-21.13,8.14-21.13,17.27"/><path d="M1994.45,177.07c0,4.26,3.07,9.02,11.11,9.02,10.31,0,21.13-8.43,21.13-17.16,0-5.86-4.96-9.13-11.11-9.13-9.63,0-21.13,8.14-21.13,17.27"/><path d="M2070.62,189.47c0,4.26,3.07,9.02,11.11,9.02,10.31,0,21.13-8.43,21.13-17.16,0-5.86-4.96-9.13-11.11-9.13-9.63,0-21.13,8.14-21.13,17.27"/><path d="M157.87,201.87c0,4.26,3.07,9.02,11.11,9.02,10.31,0,21.13-8.43,21.13-17.16,0-5.86-4.96-9.13-11.11-9.13-9.63,0-21.13,8.14-21.13,17.27"/><path d="M2269.4,184.61c-9.63,0-21.13,8.04-21.13,17.27,0,4.26,3.07,9.02,11.11,9.02,10.31,0,21.13-8.43,21.13-17.16,0-5.86-4.96-9.13-11.11-9.13m-13.69,21.62c-3.27,0-3.97-2.67-3.97-3.56,0-4.87,16.66-13.39,21.33-13.39,2.39,0,3.97,1.39,3.97,3.56,0,4.96-16.77,13.39-21.33,13.39"/><path d="M30.8,174.19c0,6.56,4.96,15.19,18.35,15.19,4.67,0,8.74-1.19,12.31-3.38,5.36-3.77,6.74-10.32,6.74-16.57,0-3.86-.59-8.32-1.58-13.98-.29-1.98-.9-4.96-1.49-8.84,9.72-3.18,16.96-13.3,16.96-23.51,0-14.97-10.62-25.09-25.09-25.09-.99-5.95-1.98-11.81-2.77-17.36,10.42-11.02,17.65-23.42,17.65-39.18,0-9.04-2.77-16.37-4.37-19.95-2.37-5.05-5.25-8.53-7.04-8.53-.7,0-3.77,1.19-7.04,5.05-6.36,7.55-8.14,20.24-8.14,28.57,0,5.36,.5,10.23,2.19,21.34-.11,.09-5.27,5.35-7.35,7.04-9.04,8.34-21.53,20.43-21.53,40.28,0,18.54,16.17,33.12,34.63,33.12,2.87,0,5.55-.29,7.83-.7,1.89,9.53,3.08,16.48,3.08,21.73,0,10.32-5.36,15.78-15.38,15.78-2.39,0-4.46-.5-4.67-.5-.09-.11-.29-.2-.29-.29,0-.2,.2-.31,.5-.31,4.67-.79,9.32-4.76,9.32-11.1,0-5.36-4.06-11.02-11.5-11.02-6.94,0-11.31,5.66-11.31,12.2M51.54,41.76c.9-3.97,5.46-14.38,10.62-14.38,1.49,0,3.86,4.76,3.86,11.7,0,10.32-7.63,18.06-14.48,24.8-.59-3.97-1.08-7.83-1.08-12,0-3.67,.29-7.05,1.08-10.12m8.73,101.97c-1.98,.4-3.86,.6-5.75,.6-14.18,0-26.29-9.92-26.29-24.91,0-12.09,8.53-22.91,17.27-30.46,1.67-1.49,3.27-2.87,4.76-4.36,.88,5.35,1.58,10.01,2.28,14.09-9.04,2.68-15.17,12.2-15.17,21.53,0,6.94,5.46,16.46,13.39,16.46,.79,0,1.69-.4,1.69-1.29s-.99-1.39-2.19-2.19c-3.88-2.39-6.06-4.96-6.06-9.83,0-6.04,4.57-10.91,10.32-12.29l5.75,32.63m14.09-18.35c0,7.05-2.88,14.29-9.92,17.17-2.08-11.9-4.76-27.68-5.46-32.05,8.93,0,15.38,6.06,15.38,14.88"/><path d="M2442.47,114.96c-.09-.09-.29-.29-.59-.68l-11.41-14.09c-.11-.11-.2-.4-.2-.6,0-.29,.09-.68,.2-.88l10.11-15.28c.11-.2,.2-.5,.2-.7v-.88c0-.29-.09-.6-.29-.79l-16.07-21.73s-.39-.6-.99-.6c-.29,0-.5,0-.79,.31-.4,.29-.5,.68-.5,.99,0,.59,.29,1.09,.29,1.09l7.55,10.32c.19,.29,.29,.68,.29,1.18,0,.4-.11,.9-.29,1.19l-10.03,15.28c-.09,.2-.2,.59-.2,.79v.9c0,.29,.11,.59,.31,.79l11.1,13.79c-.39-.11-1.29-.31-2.48-.31-5.05,0-9.02,4.17-9.02,9.24,0,1.38,.29,2.77,1.08,3.86,2.09,3.18,9.53,12.6,9.53,12.6,0,0,.5,.6,1.19,.6,.19,0,.39,0,.59-.2,.5-.4,.7-.79,.7-1.19s-.2-.7-.29-.9c-.31-.5-3.47-6.25-3.47-6.25,0,0-.7-1.39-.7-3.18,0-3.18,2.37-5.75,5.55-5.75,1.29,0,2.39,.4,3.18,.9l3.88,2.48s.39,.19,.79,.19,.7-.09,.99-.5c.2-.29,.29-.59,.29-.88s-.09-.5-.29-.79l-.2-.31"/><path d="M2287.11,10.71c-9.32-10.12-17.56-10.71-22.71-10.71s-13.3,.59-22.63,10.71c-4.85,5.36-8.23,15.96-8.23,21.33,0,1.89,.4,3.18,1.39,3.18,2.77,0,1.38-8.54,9.72-16.97,7.33-7.33,17.16-7.44,19.55-7.44h.39c2.39,0,12.21,.11,19.55,7.44,8.34,8.43,6.94,16.97,9.72,16.97,.99,0,1.39-1.19,1.39-3.18,0-5.36-3.27-16.07-8.14-21.33m-29.56,18.94c0,3.78,3.07,6.85,6.85,6.85s6.84-3.07,6.84-6.85-3.07-6.84-6.84-6.84-6.85,3.07-6.85,6.84"/><path d="M187.62,73.7l392.36-6.2v12.4l-392.36,6.2v-12.4" fill-rule="evenodd"/><path d="M1714.41,67.5l388.44,6.2v12.4l-388.44-6.2v-12.4" fill-rule="evenodd"/><path d="M690.37,67.5l388.44,6.2v12.4l-388.44-6.2v-12.4" fill-rule="evenodd"/><path d="M1211.67,73.7l392.35-6.2v12.4l-392.35,6.2v-12.4" fill-rule="evenodd"/></g></svg>