<?xml version="1.0" encoding="UTF-8"?><svg id="b" xmlns="http://www.w3.org/2000/svg" viewBox="0 0 2552 297.78"><g id="c"><line y1="48.9" x2="2552" y2="48.9" fill="none" stroke="#000" stroke-linejoin="bevel" stroke-width="2.73"/><line y1="73.7" x2="2552" y2="73.7" fill="none" stroke="#000" stroke-linejoin="bevel" stroke-width="2.73"/><line y1="98.5" x2="2552" y2="98.5" fill="none" stroke="#000" stroke-linejoin="bevel" stroke-width="2.73"/><line y1="123.3" x2="2552" y2="123.3" fill="none" stroke="#000" stroke-linejoin="bevel" stroke-width="2.73"/><line y1="148.1" x2="2552" y2="148.1" fill="none" stroke="#000" stroke-linejoin="bevel" stroke-width="2.73"/><path d="M160.2,207.36c273.13,122.27,1660.02,104.5,1942.27-12.14-282.24,124.57-1669.13,142.35-1942.27,12.14" fill-rule="evenodd" stroke="#000" stroke-linecap="round" stroke-linejoin="round" stroke-width="1.24"/><path d="M2174.26,86.1c0-2.88-2.29-5.25-5.16-5.25s-5.16,2.37-5.16,5.25,2.28,5.25,5.16,5.25,5.16-2.37,5.16-5.25"/><path d="M2174.26,110.9c0-2.88-2.29-5.25-5.16-5.25s-5.16,2.37-5.16,5.25,2.28,5.25,5.16,5.25,5.16-2.37,5.16-5.25"/><line x1="2185.65" y1="47.54" x2="2185.65" y2="149.46" fill="none" stroke="#000" stroke-linejoin="bevel" stroke-width="4.46"/><line x1="2203.88" y1="47.54" x2="2203.88" y2="149.46" fill="none" stroke="#000" stroke-linejoin="bevel" stroke-width="13.64"/><line x1="1647.73" y1="47.54" x2="1647.73" y2="149.46" fill="none" stroke="#000" stroke-linejoin="bevel" stroke-width="4.46"/><line x1="2536.13" y1="47.54" x2="2536.13" y2="149.46" fill="none" stroke="#000" stroke-linejoin="bevel" stroke-width="4.46"/><line x1="2549.77" y1="47.54" x2="2549.77" y2="149.46" fill="none" stroke="#000" stroke-linejoin="bevel" stroke-width="4.46"/><line x1="619.46" y1="47.54" x2="619.46" y2="149.46" fill="none" stroke="#000" stroke-linejoin="bevel" stroke-width="4.46"/><line x1="1137.88" y1="47.54" x2="1137.88" y2="149.46" fill="none" stroke="#000" stroke-linejoin="bevel" stroke-width="4.46"/><path d="M1405.44,150.09c.6-.09,1.1-.79,1.1-1.4v-5.84c0-.99-.7-1.39-1.6-1.39l-3.27,.7v-14.79h-2.77v15.38l-8.83,1.8v-14h-2.77v14.59l-3.87,.79c-.59,.11-1.08,.79-1.08,1.39v5.75c0,1.08,.79,1.39,1.69,1.39l3.27-.7v16.37l-3.87,.79c-.59,.09-1.08,.79-1.08,1.4v5.75c0,1.09,.79,1.38,1.69,1.38l3.27-.68v14.77h2.77v-15.38l8.83-1.78v14h2.77v-14.59l3.77-.7c.6-.11,1.1-.79,1.1-1.39v-5.84c0-.99-.7-1.39-1.6-1.39l-3.27,.7v-16.37l3.77-.7m-15.38,3.07l8.83-1.78v16.37l-8.83,1.89v-16.48"/><path d="M1242.08,162.49c.6-.09,1.1-.79,1.1-1.4v-5.84c0-.99-.7-1.39-1.6-1.39l-3.27,.7v-14.79h-2.77v15.38l-8.83,1.8v-14h-2.77v14.59l-3.87,.79c-.59,.11-1.08,.79-1.08,1.39v5.75c0,1.08,.79,1.39,1.69,1.39l3.27-.7v16.37l-3.87,.79c-.59,.09-1.08,.79-1.08,1.4v5.75c0,1.09,.79,1.38,1.69,1.38l3.27-.68v14.77h2.77v-15.38l8.83-1.78v14h2.77v-14.59l3.77-.7c.6-.11,1.1-.79,1.1-1.39v-5.84c0-.99-.7-1.39-1.6-1.39l-3.27,.7v-16.37l3.77-.7m-15.38,3.07l8.83-1.78v16.37l-8.83,1.89v-16.48"/><path d="M1042.59,162.49c.6-.09,1.1-.79,1.1-1.4v-5.84c0-.99-.7-1.39-1.6-1.39l-3.27,.7v-14.79h-2.77v15.38l-8.83,1.8v-14h-2.77v14.59l-3.87,.79c-.59,.11-1.08,.79-1.08,1.39v5.75c0,1.08,.79,1.39,1.69,1.39l3.27-.7v16.37l-3.87,.79c-.59,.09-1.08,.79-1.08,1.4v5.75c0,1.09,.79,1.38,1.69,1.38l3.27-.68v14.77h2.77v-15.38l8.83-1.78v14h2.77v-14.59l3.77-.7c.6-.11,1.1-.79,1.1-1.39v-5.84c0-.99-.7-1.39-1.6-1.39l-3.27,.7v-16.37l3.77-.7m-15.38,3.07l8.83-1.78v16.37l-8.83,1.89v-16.48"/><path d="M971.87,142.35c-.19-.2-.5-.29-.88-.29l-.2,.09h-.09l-12.51,3.47v-17.36h-2.77v49.1c0,1.09,.9,1.29,1.78,1.29l12.51-3.47v17.36h2.67v-49.1c0-.39-.19-.88-.5-1.09m-13.69,27.78v-16.28l11.52-3.27v16.37l-11.52,3.18"/><path d="M2070.86,162.49c.6-.09,1.1-.79,1.1-1.4v-5.84c0-.99-.7-1.39-1.6-1.39l-3.27,.7v-14.79h-2.77v15.38l-8.83,1.8v-14h-2.77v14.59l-3.87,.79c-.59,.11-1.08,.79-1.08,1.39v5.75c0,1.08,.79,1.39,1.69,1.39l3.27-.7v16.37l-3.87,.79c-.59,.09-1.08,.79-1.08,1.4v5.75c0,1.09,.79,1.38,1.69,1.38l3.27-.68v14.77h2.77v-15.38l8.83-1.78v14h2.77v-14.59l3.77-.7c.6-.11,1.1-.79,1.1-1.39v-5.84c0-.99-.7-1.39-1.6-1.39l-3.27,.7v-16.37l3.77-.7m-15.38,3.07l8.83-1.78v16.37l-8.83,1.89v-16.48"/><path d="M893.68,150.09c.6-.09,1.1-.79,1.1-1.4v-5.84c0-.99-.7-1.39-1.6-1.39l-3.27,.7v-14.79h-2.77v15.38l-8.83,1.8v-14h-2.77v14.59l-3.87,.79c-.59,.11-1.08,.79-1.08,1.39v5.75c0,1.08,.79,1.39,1.69,1.39l3.27-.7v16.37l-3.87,.79c-.59,.09-1.08,.79-1.08,1.4v5.75c0,1.09,.79,1.38,1.69,1.38l3.27-.68v14.77h2.77v-15.38l8.83-1.78v14h2.77v-14.59l3.77-.7c.6-.11,1.1-.79,1.1-1.39v-5.84c0-.99-.7-1.39-1.6-1.39l-3.27,.7v-16.37l3.77-.7m-15.38,3.07l8.83-1.78v16.37l-8.83,1.89v-16.48"/><path d="M739.11,117.55c-.19-.2-.5-.29-.88-.29l-.2,.09h-.09l-12.51,3.47v-17.36h-2.77v49.1c0,1.09,.9,1.29,1.78,1.29l12.51-3.47v17.36h2.67v-49.1c0-.39-.19-.88-.5-1.09m-13.69,27.78v-16.28l11.52-3.27v16.37l-11.52,3.18"/><path d="M660.92,125.29c.6-.09,1.1-.79,1.1-1.4v-5.84c0-.99-.7-1.39-1.6-1.39l-3.27,.7v-14.79h-2.77v15.38l-8.83,1.8v-14h-2.77v14.59l-3.87,.79c-.59,.11-1.08,.79-1.08,1.39v5.75c0,1.08,.79,1.39,1.69,1.39l3.27-.7v16.37l-3.87,.79c-.59,.09-1.08,.79-1.08,1.4v5.75c0,1.09,.79,1.38,1.69,1.38l3.27-.68v14.77h2.77v-15.38l8.83-1.78v14h2.77v-14.59l3.77-.7c.6-.11,1.1-.79,1.1-1.39v-5.84c0-.99-.7-1.39-1.6-1.39l-3.27,.7v-16.37l3.77-.7m-15.38,3.07l8.83-1.78v16.37l-8.83,1.89v-16.48"/><path d="M377.17,150.09c.6-.09,1.1-.79,1.1-1.4v-5.84c0-.99-.7-1.39-1.6-1.39l-3.27,.7v-14.79h-2.77v15.38l-8.83,1.8v-14h-2.77v14.59l-3.87,.79c-.59,.11-1.08,.79-1.08,1.39v5.75c0,1.08,.79,1.39,1.69,1.39l3.27-.7v16.37l-3.87,.79c-.59,.09-1.08,.79-1.08,1.4v5.75c0,1.09,.79,1.38,1.69,1.38l3.27-.68v14.77h2.77v-15.38l8.83-1.78v14h2.77v-14.59l3.77-.7c.6-.11,1.1-.79,1.1-1.39v-5.84c0-.99-.7-1.39-1.6-1.39l-3.27,.7v-16.37l3.77-.7m-15.38,3.07l8.83-1.78v16.37l-8.83,1.89v-16.48"/><path d="M2000.15,142.35c-.19-.2-.5-.29-.88-.29l-.2,.09h-.09l-12.51,3.47v-17.36h-2.77v49.1c0,1.09,.9,1.29,1.78,1.29l12.51-3.47v17.36h2.67v-49.1c0-.39-.19-.88-.5-1.09m-13.69,27.78v-16.28l11.52-3.27v16.37l-11.52,3.18"/><path d="M213.81,162.49c.6-.09,1.1-.79,1.1-1.4v-5.84c0-.99-.7-1.39-1.6-1.39l-3.27,.7v-14.79h-2.77v15.38l-8.83,1.8v-14h-2.77v14.59l-3.87,.79c-.59,.11-1.08,.79-1.08,1.39v5.75c0,1.08,.79,1.39,1.69,1.39l3.27-.7v16.37l-3.87,.79c-.59,.09-1.08,.79-1.08,1.4v5.75c0,1.09,.79,1.38,1.69,1.38l3.27-.68v14.77h2.77v-15.38l8.83-1.78v14h2.77v-14.59l3.77-.7c.6-.11,1.1-.79,1.1-1.39v-5.84c0-.99-.7-1.39-1.6-1.39l-3.27,.7v-16.37l3.77-.7m-15.38,3.07l8.83-1.78v16.37l-8.83,1.89v-16.48"/><path d="M1921.96,150.09c.6-.09,1.1-.79,1.1-1.4v-5.84c0-.99-.7-1.39-1.6-1.39l-3.27,.7v-14.79h-2.77v15.38l-8.83,1.8v-14h-2.77v14.59l-3.87,.79c-.59,.11-1.08,.79-1.08,1.39v5.75c0,1.08,.79,1.39,1.69,1.39l3.27-.7v16.37l-3.87,.79c-.59,.09-1.08,.79-1.08,1.4v5.75c0,1.09,.79,1.38,1.69,1.38l3.27-.68v14.77h2.77v-15.38l8.83-1.78v14h2.77v-14.59l3.77-.7c.6-.11,1.1-.79,1.1-1.39v-5.84c0-.99-.7-1.39-1.6-1.39l-3.27,.7v-16.37l3.77-.7m-15.38,3.07l8.83-1.78v16.37l-8.83,1.89v-16.48"/><path d="M1767.38,117.55c-.19-.2-.5-.29-.88-.29l-.2,.09h-.09l-12.51,3.47v-17.36h-2.77v49.1c0,1.09,.9,1.29,1.78,1.29l12.51-3.47v17.36h2.67v-49.1c0-.39-.19-.88-.5-1.09m-13.69,27.78v-16.28l11.52-3.27v16.37l-11.52,3.18"/><path d="M1689.2,125.29c.6-.09,1.1-.79,1.1-1.4v-5.84c0-.99-.7-1.39-1.6-1.39l-3.27,.7v-14.79h-2.77v15.38l-8.83,1.8v-14h-2.77v14.59l-3.87,.79c-.59,.11-1.08,.79-1.08,1.39v5.75c0,1.08,.79,1.39,1.69,1.39l3.27-.7v16.37l-3.87,.79c-.59,.09-1.08,.79-1.08,1.4v5.75c0,1.09,.79,1.38,1.69,1.38l3.27-.68v14.77h2.77v-15.38l8.83-1.78v14h2.77v-14.59l3.77-.7c.6-.11,1.1-.79,1.1-1.39v-5.84c0-.99-.7-1.39-1.6-1.39l-3.27,.7v-16.37l3.77-.7m-15.38,3.07l8.83-1.78v16.37l-8.83,1.89v-16.48"/><line x1="135.9" y1="172.9" x2="184.5" y2="172.9" fill="none" stroke="#000" stroke-linejoin="bevel" stroke-width="3.97"/><line x1="221.1" y1="172.9" x2="269.7" y2="172.9" fill="none" stroke="#000" stroke-linejoin="bevel" stroke-width="3.97"/><line x1="1049.88" y1="172.9" x2="1098.48" y2="172.9" fill="none" stroke="#000" stroke-linejoin="bevel" stroke-width="3.97"/><line x1="1164.17" y1="172.9" x2="1212.77" y2="172.9" fill="none" stroke="#000" stroke-linejoin="bevel" stroke-width="3.97"/><line x1="1249.38" y1="172.9" x2="1297.98" y2="172.9" fill="none" stroke="#000" stroke-linejoin="bevel" stroke-width="3.97"/><line x1="2078.16" y1="172.9" x2="2126.76" y2="172.9" fill="none" stroke="#000" stroke-linejoin="bevel" stroke-width="3.97"/><line x1="2234.76" y1="172.9" x2="2283.36" y2="172.9" fill="none" stroke="#000" stroke-linejoin="bevel" stroke-width="3.97"/><line x1="2117.33" y1="168.93" x2="2117.33" y2="55.08" fill="none" stroke="#000" stroke-linejoin="bevel" stroke-width="2.48"/><line x1="2037.83" y1="156.53" x2="2037.83" y2="53.82" fill="none" stroke="#000" stroke-linejoin="bevel" stroke-width="2.48"/><line x1="1960.25" y1="156.53" x2="1960.25" y2="52.6" fill="none" stroke="#000" stroke-linejoin="bevel" stroke-width="2.48"/><line x1="1882.66" y1="144.13" x2="1882.66" y2="51.37" fill="none" stroke="#000" stroke-linejoin="bevel" stroke-width="2.48"/><line x1="931.97" y1="156.53" x2="931.97" y2="52.6" fill="none" stroke="#000" stroke-linejoin="bevel" stroke-width="2.48"/><line x1="1805.07" y1="131.73" x2="1805.07" y2="50.15" fill="none" stroke="#000" stroke-linejoin="bevel" stroke-width="2.48"/><line x1="260.28" y1="168.93" x2="260.28" y2="77.21" fill="none" stroke="#000" stroke-linejoin="bevel" stroke-width="2.48"/><line x1="854.38" y1="144.13" x2="854.38" y2="51.37" fill="none" stroke="#000" stroke-linejoin="bevel" stroke-width="2.48"/><line x1="1727.48" y1="131.73" x2="1727.48" y2="48.92" fill="none" stroke="#000" stroke-linejoin="bevel" stroke-width="2.48"/><line x1="776.79" y1="131.73" x2="776.79" y2="50.15" fill="none" stroke="#000" stroke-linejoin="bevel" stroke-width="2.48"/><line x1="1598.91" y1="131.73" x2="1598.91" y2="67.54" fill="none" stroke="#000" stroke-linejoin="bevel" stroke-width="2.48"/><line x1="1521.32" y1="144.13" x2="1521.32" y2="69.96" fill="none" stroke="#000" stroke-linejoin="bevel" stroke-width="2.48"/><line x1="699.2" y1="131.73" x2="699.2" y2="48.92" fill="none" stroke="#000" stroke-linejoin="bevel" stroke-width="2.48"/><line x1="1443.73" y1="156.53" x2="1443.73" y2="72.37" fill="none" stroke="#000" stroke-linejoin="bevel" stroke-width="2.48"/><line x1="337.87" y1="156.53" x2="337.87" y2="74.79" fill="none" stroke="#000" stroke-linejoin="bevel" stroke-width="2.48"/><line x1="1366.14" y1="156.53" x2="1366.14" y2="74.79" fill="none" stroke="#000" stroke-linejoin="bevel" stroke-width="2.48"/><line x1="1288.55" y1="168.93" x2="1288.55" y2="77.21" fill="none" stroke="#000" stroke-linejoin="bevel" stroke-width="2.48"/><line x1="570.63" y1="131.73" x2="570.63" y2="67.54" fill="none" stroke="#000" stroke-linejoin="bevel" stroke-width="2.48"/><line x1="493.04" y1="144.13" x2="493.04" y2="69.96" fill="none" stroke="#000" stroke-linejoin="bevel" stroke-width="2.48"/><line x1="1203.35" y1="168.93" x2="1203.35" y2="79.86" fill="none" stroke="#000" stroke-linejoin="bevel" stroke-width="2.48"/><line x1="1089.06" y1="168.93" x2="1089.06" y2="55.08" fill="none" stroke="#000" stroke-linejoin="bevel" stroke-width="2.48"/><line x1="175.07" y1="168.93" x2="175.07" y2="79.86" fill="none" stroke="#000" stroke-linejoin="bevel" stroke-width="2.48"/><line x1="415.45" y1="156.53" x2="415.45" y2="72.37" fill="none" stroke="#000" stroke-linejoin="bevel" stroke-width="2.48"/><line x1="1009.56" y1="156.53" x2="1009.56" y2="53.82" fill="none" stroke="#000" stroke-linejoin="bevel" stroke-width="2.48"/><line x1="2273.93" y1="168.93" x2="2273.93" y2="86.1" fill="none" stroke="#000" stroke-linejoin="bevel" stroke-width="2.48"/><path d="M1696.49,139.87c0,4.26,3.07,9.02,11.11,9.02,10.31,0,21.13-8.43,21.13-17.16,0-5.86-4.96-9.13-11.11-9.13-9.63,0-21.13,8.14-21.13,17.27"/><path d="M144.08,177.07c0,4.26,3.07,9.02,11.11,9.02,10.31,0,21.13-8.43,21.13-17.16,0-5.86-4.96-9.13-11.11-9.13-9.63,0-21.13,8.14-21.13,17.27"/><path d="M229.28,177.07c0,4.26,3.07,9.02,11.11,9.02,10.31,0,21.13-8.43,21.13-17.16,0-5.86-4.96-9.13-11.11-9.13-9.63,0-21.13,8.14-21.13,17.27"/><path d="M306.87,164.67c0,4.26,3.07,9.02,11.11,9.02,10.31,0,21.13-8.43,21.13-17.16,0-5.86-4.96-9.13-11.11-9.13-9.63,0-21.13,8.14-21.13,17.27"/><path d="M384.46,164.67c0,4.26,3.07,9.02,11.11,9.02,10.31,0,21.13-8.43,21.13-17.16,0-5.86-4.96-9.13-11.11-9.13-9.63,0-21.13,8.14-21.13,17.27"/><path d="M462.05,152.27c0,4.26,3.07,9.02,11.11,9.02,10.31,0,21.13-8.43,21.13-17.16,0-5.86-4.96-9.13-11.11-9.13-9.63,0-21.13,8.14-21.13,17.27"/><path d="M539.64,139.87c0,4.26,3.07,9.02,11.11,9.02,10.31,0,21.13-8.43,21.13-17.16,0-5.86-4.96-9.13-11.11-9.13-9.63,0-21.13,8.14-21.13,17.27"/><path d="M668.21,139.87c0,4.26,3.07,9.02,11.11,9.02,10.31,0,21.13-8.43,21.13-17.16,0-5.86-4.96-9.13-11.11-9.13-9.63,0-21.13,8.14-21.13,17.27"/><path d="M745.8,139.87c0,4.26,3.07,9.02,11.11,9.02,10.31,0,21.13-8.43,21.13-17.16,0-5.86-4.96-9.13-11.11-9.13-9.63,0-21.13,8.14-21.13,17.27"/><path d="M823.39,152.27c0,4.26,3.07,9.02,11.11,9.02,10.31,0,21.13-8.43,21.13-17.16,0-5.86-4.96-9.13-11.11-9.13-9.63,0-21.13,8.14-21.13,17.27"/><path d="M900.98,164.67c0,4.26,3.07,9.02,11.11,9.02,10.31,0,21.13-8.43,21.13-17.16,0-5.86-4.96-9.13-11.11-9.13-9.63,0-21.13,8.14-21.13,17.27"/><path d="M978.56,164.67c0,4.26,3.07,9.02,11.11,9.02,10.31,0,21.13-8.43,21.13-17.16,0-5.86-4.96-9.13-11.11-9.13-9.63,0-21.13,8.14-21.13,17.27"/><path d="M1058.06,177.07c0,4.26,3.07,9.02,11.11,9.02,10.31,0,21.13-8.43,21.13-17.16,0-5.86-4.96-9.13-11.11-9.13-9.63,0-21.13,8.14-21.13,17.27"/><path d="M1172.36,177.07c0,4.26,3.07,9.02,11.11,9.02,10.31,0,21.13-8.43,21.13-17.16,0-5.86-4.96-9.13-11.11-9.13-9.63,0-21.13,8.14-21.13,17.27"/><path d="M1257.56,177.07c0,4.26,3.07,9.02,11.11,9.02,10.31,0,21.13-8.43,21.13-17.16,0-5.86-4.96-9.13-11.11-9.13-9.63,0-21.13,8.14-21.13,17.27"/><path d="M1335.15,164.67c0,4.26,3.07,9.02,11.11,9.02,10.31,0,21.13-8.43,21.13-17.16,0-5.86-4.96-9.13-11.11-9.13-9.63,0-21.13,8.14-21.13,17.27"/><path d="M1412.74,164.67c0,4.26,3.07,9.02,11.11,9.02,10.31,0,21.13-8.43,21.13-17.16,0-5.86-4.96-9.13-11.11-9.13-9.63,0-21.13,8.14-21.13,17.27"/><path d="M1490.32,152.27c0,4.26,3.07,9.02,11.11,9.02,10.31,0,21.13-8.43,21.13-17.16,0-5.86-4.96-9.13-11.11-9.13-9.63,0-21.13,8.14-21.13,17.27"/><path d="M1567.91,139.87c0,4.26,3.07,9.02,11.11,9.02,10.31,0,21.13-8.43,21.13-17.16,0-5.86-4.96-9.13-11.11-9.13-9.63,0-21.13,8.14-21.13,17.27"/><path d="M1774.08,139.87c0,4.26,3.07,9.02,11.11,9.02,10.31,0,21.13-8.43,21.13-17.16,0-5.86-4.96-9.13-11.11-9.13-9.63,0-21.13,8.14-21.13,17.27"/><path d="M1851.67,152.27c0,4.26,3.07,9.02,11.11,9.02,10.31,0,21.13-8.43,21.13-17.16,0-5.86-4.96-9.13-11.11-9.13-9.63,0-21.13,8.14-21.13,17.27"/><path d="M1929.25,164.67c0,4.26,3.07,9.02,11.11,9.02,10.31,0,21.13-8.43,21.13-17.16,0-5.86-4.96-9.13-11.11-9.13-9.63,0-21.13,8.14-21.13,17.27"/><path d="M2006.84,164.67c0,4.26,3.07,9.02,11.11,9.02,10.31,0,21.13-8.43,21.13-17.16,0-5.86-4.96-9.13-11.11-9.13-9.63,0-21.13,8.14-21.13,17.27"/><path d="M2086.34,177.07c0,4.26,3.07,9.02,11.11,9.02,10.31,0,21.13-8.43,21.13-17.16,0-5.86-4.96-9.13-11.11-9.13-9.63,0-21.13,8.14-21.13,17.27"/><path d="M2264.07,159.81c-9.63,0-21.13,8.04-21.13,17.27,0,4.26,3.07,9.02,11.11,9.02,10.31,0,21.13-8.43,21.13-17.16,0-5.86-4.96-9.13-11.11-9.13m-13.69,21.62c-3.27,0-3.97-2.67-3.97-3.56,0-4.87,16.66-13.39,21.33-13.39,2.39,0,3.97,1.39,3.97,3.56,0,4.96-16.77,13.39-21.33,13.39"/><path d="M30.8,174.19c0,6.56,4.96,15.19,18.35,15.19,4.67,0,8.74-1.19,12.31-3.38,5.36-3.77,6.74-10.32,6.74-16.57,0-3.86-.59-8.32-1.58-13.98-.29-1.98-.9-4.96-1.49-8.84,9.72-3.18,16.96-13.3,16.96-23.51,0-14.97-10.62-25.09-25.09-25.09-.99-5.95-1.98-11.81-2.77-17.36,10.42-11.02,17.65-23.42,17.65-39.18,0-9.04-2.77-16.37-4.37-19.95-2.37-5.05-5.25-8.53-7.04-8.53-.7,0-3.77,1.19-7.04,5.05-6.36,7.55-8.14,20.24-8.14,28.57,0,5.36,.5,10.23,2.19,21.34-.11,.09-5.27,5.35-7.35,7.04-9.04,8.34-21.53,20.43-21.53,40.28,0,18.54,16.17,33.12,34.63,33.12,2.87,0,5.55-.29,7.83-.7,1.89,9.53,3.08,16.48,3.08,21.73,0,10.32-5.36,15.78-15.38,15.78-2.39,0-4.46-.5-4.67-.5-.09-.11-.29-.2-.29-.29,0-.2,.2-.31,.5-.31,4.67-.79,9.32-4.76,9.32-11.1,0-5.36-4.06-11.02-11.5-11.02-6.94,0-11.31,5.66-11.31,12.2M51.54,41.76c.9-3.97,5.46-14.38,10.62-14.38,1.49,0,3.86,4.76,3.86,11.7,0,10.32-7.63,18.06-14.48,24.8-.59-3.97-1.08-7.83-1.08-12,0-3.67,.29-7.05,1.08-10.12m8.73,101.97c-1.98,.4-3.86,.6-5.75,.6-14.18,0-26.29-9.92-26.29-24.91,0-12.09,8.53-22.91,17.27-30.46,1.67-1.49,3.27-2.87,4.76-4.36,.88,5.35,1.58,10.01,2.28,14.09-9.04,2.68-15.17,12.2-15.17,21.53,0,6.94,5.46,16.46,13.39,16.46,.79,0,1.69-.4,1.69-1.29s-.99-1.39-2.19-2.19c-3.88-2.39-6.06-4.96-6.06-9.83,0-6.04,4.57-10.91,10.32-12.29l5.75,32.63m14.09-18.35c0,7.05-2.88,14.29-9.92,17.17-2.08-11.9-4.76-27.68-5.46-32.05,8.93,0,15.38,6.06,15.38,14.88"/><path d="M2440.34,114.96c-.09-.09-.29-.29-.59-.68l-11.41-14.09c-.11-.11-.2-.4-.2-.6,0-.29,.09-.68,.2-.88l10.11-15.28c.11-.2,.2-.5,.2-.7v-.88c0-.29-.09-.6-.29-.79l-16.07-21.73s-.39-.6-.99-.6c-.29,0-.5,0-.79,.31-.4,.29-.5,.68-.5,.99,0,.59,.29,1.09,.29,1.09l7.55,10.32c.19,.29,.29,.68,.29,1.18,0,.4-.11,.9-.29,1.19l-10.03,15.28c-.09,.2-.2,.59-.2,.79v.9c0,.29,.11,.59,.31,.79l11.1,13.79c-.39-.11-1.29-.31-2.48-.31-5.05,0-9.02,4.17-9.02,9.24,0,1.38,.29,2.77,1.08,3.86,2.09,3.18,9.53,12.6,9.53,12.6,0,0,.5,.6,1.19,.6,.19,0,.39,0,.59-.2,.5-.4,.7-.79,.7-1.19s-.2-.7-.29-.9c-.31-.5-3.47-6.25-3.47-6.25,0,0-.7-1.39-.7-3.18,0-3.18,2.37-5.75,5.55-5.75,1.29,0,2.39,.4,3.18,.9l3.88,2.48s.39,.19,.79,.19,.7-.09,.99-.5c.2-.29,.29-.59,.29-.88s-.09-.5-.29-.79l-.2-.31"/><path d="M2281.78,10.71c-9.32-10.12-17.56-10.71-22.71-10.71s-13.3,.59-22.63,10.71c-4.85,5.36-8.23,15.96-8.23,21.33,0,1.89,.4,3.18,1.39,3.18,2.77,0,1.38-8.54,9.72-16.97,7.33-7.33,17.16-7.44,19.55-7.44h.39c2.39,0,12.21,.11,19.55,7.44,8.34,8.43,6.94,16.97,9.72,16.97,.99,0,1.39-1.19,1.39-3.18,0-5.36-3.27-16.07-8.14-21.33m-29.56,18.94c0,3.78,3.07,6.85,6.85,6.85s6.84-3.07,6.84-6.85-3.07-6.84-6.84-6.84-6.85,3.07-6.85,6.84"/><path d="M1202.11,73.7l398.04-12.4v12.4l-398.04,12.4v-12.4" fill-rule="evenodd"/><path d="M697.96,42.7l392.34,6.2v12.4l-392.34-6.2v-12.4" fill-rule="evenodd"/><path d="M1726.24,42.7l392.33,6.2v12.4l-392.33-6.2v-12.4" fill-rule="evenodd"/><path d="M173.83,73.7l398.04-12.4v12.4l-398.04,12.4v-12.4" fill-rule="evenodd"/></g></svg>