<?xml version="1.0" encoding="UTF-8"?><svg id="Ebene_2" xmlns="http://www.w3.org/2000/svg" viewBox="0 0 348.55 342.41"><g id="Ebene_1-2"><line x1="2.23" y1="121.3" x2="346.32" y2="121.3" fill="none" stroke="#000" stroke-linejoin="bevel" stroke-width="2.73"/><line x1="2.23" y1="146.1" x2="346.32" y2="146.1" fill="none" stroke="#000" stroke-linejoin="bevel" stroke-width="2.73"/><line x1="2.23" y1="170.9" x2="346.32" y2="170.9" fill="none" stroke="#000" stroke-linejoin="bevel" stroke-width="2.73"/><line x1="2.23" y1="195.7" x2="346.32" y2="195.7" fill="none" stroke="#000" stroke-linejoin="bevel" stroke-width="2.73"/><line x1="2.23" y1="220.5" x2="346.32" y2="220.5" fill="none" stroke="#000" stroke-linejoin="bevel" stroke-width="2.73"/><path d="M52.82,136.18c53.15-47.84,168.42-60.24,230.53-24.8-61.26-27.55-176.53-15.15-230.53,24.8" fill-rule="evenodd" stroke="#000" stroke-linecap="round" stroke-linejoin="round" stroke-width="1.24"/><line x1="2.23" y1="119.94" x2="2.23" y2="221.87" fill="none" stroke="#000" stroke-linejoin="bevel" stroke-width="4.46"/><line x1="346.32" y1="119.94" x2="346.32" y2="221.87" fill="none" stroke="#000" stroke-linejoin="bevel" stroke-width="4.46"/><line x1="114.79" y1="199.87" x2="114.79" y2="257.7" fill="none" stroke="#000" stroke-linejoin="bevel" stroke-width="2.48"/><line x1="37.95" y1="162.67" x2="37.95" y2="257.7" fill="none" stroke="#000" stroke-linejoin="bevel" stroke-width="2.48"/><line x1="268.48" y1="137.87" x2="268.48" y2="257.7" fill="none" stroke="#000" stroke-linejoin="bevel" stroke-width="2.48"/><line x1="191.64" y1="162.67" x2="191.64" y2="257.7" fill="none" stroke="#000" stroke-linejoin="bevel" stroke-width="2.48"/><path d="M36.71,162.67c0,4.26,3.07,9.02,11.11,9.02,10.31,0,21.13-8.43,21.13-17.16,0-5.86-4.96-9.13-11.11-9.13-9.63,0-21.13,8.14-21.13,17.27"/><path d="M267.24,137.87c0,4.26,3.07,9.02,11.11,9.02,10.31,0,21.13-8.43,21.13-17.16,0-5.86-4.96-9.13-11.11-9.13-9.63,0-21.13,8.14-21.13,17.27"/><path d="M190.4,162.67c0,4.26,3.07,9.02,11.11,9.02,10.31,0,21.13-8.43,21.13-17.16,0-5.86-4.96-9.13-11.11-9.13-9.63,0-21.13,8.14-21.13,17.27"/><path d="M113.55,199.87c0,4.26,3.07,9.02,11.11,9.02,10.31,0,21.13-8.43,21.13-17.16,0-5.86-4.96-9.13-11.11-9.13-9.63,0-21.13,8.14-21.13,17.27"/><path d="M36.71,251.5h233.01v12.4H36.71v-12.4" fill-rule="evenodd"/><rect x="2.23" width="342.41" height="342.41" fill="none"/></g></svg>