<?xml version="1.0" encoding="UTF-8"?><svg id="b" xmlns="http://www.w3.org/2000/svg" viewBox="0 0 411.21 132.69"><g id="c"><line x1="410" y1="21.09" y2="21.09" fill="none" stroke="#000" stroke-linejoin="bevel" stroke-width="2.73"/><line x1="410" y1="45.89" y2="45.89" fill="none" stroke="#000" stroke-linejoin="bevel" stroke-width="2.73"/><line x1="410" y1="70.69" y2="70.69" fill="none" stroke="#000" stroke-linejoin="bevel" stroke-width="2.73"/><line x1="410" y1="95.49" y2="95.49" fill="none" stroke="#000" stroke-linejoin="bevel" stroke-width="2.73"/><line x1="410" y1="120.29" y2="120.29" fill="none" stroke="#000" stroke-linejoin="bevel" stroke-width="2.73"/><path d="M52.88,35.97c60.11-47.13,240.44-47.13,300.55,0C293.32-3.23,112.99-3.23,52.88,35.97" fill-rule="evenodd" stroke="#000" stroke-linecap="round" stroke-linejoin="round" stroke-width="1.24"/><line x1="408.98" y1="19.73" x2="408.98" y2="121.65" fill="none" stroke="#000" stroke-linejoin="bevel" stroke-width="4.46"/><line x1="2.29" y1="19.73" x2="2.29" y2="121.65" fill="none" stroke="#000" stroke-linejoin="bevel" stroke-width="4.46"/><line x1="38" y1="62.46" x2="38" y2="126.49" fill="none" stroke="#000" stroke-linejoin="bevel" stroke-width="2.48"/><line x1="98.11" y1="62.46" x2="98.11" y2="126.49" fill="none" stroke="#000" stroke-linejoin="bevel" stroke-width="2.48"/><line x1="158.22" y1="62.46" x2="158.22" y2="126.49" fill="none" stroke="#000" stroke-linejoin="bevel" stroke-width="2.48"/><line x1="218.33" y1="62.46" x2="218.33" y2="126.49" fill="none" stroke="#000" stroke-linejoin="bevel" stroke-width="2.48"/><line x1="278.44" y1="62.46" x2="278.44" y2="126.49" fill="none" stroke="#000" stroke-linejoin="bevel" stroke-width="2.48"/><line x1="338.55" y1="62.46" x2="338.55" y2="126.49" fill="none" stroke="#000" stroke-linejoin="bevel" stroke-width="2.48"/><path d="M277.2,62.46c0,4.26,3.07,9.02,11.11,9.02,10.31,0,21.13-8.43,21.13-17.16,0-5.86-4.96-9.13-11.11-9.13-9.63,0-21.13,8.14-21.13,17.27"/><path d="M337.31,62.46c0,4.26,3.07,9.02,11.11,9.02,10.31,0,21.13-8.43,21.13-17.16,0-5.86-4.96-9.13-11.11-9.13-9.63,0-21.13,8.14-21.13,17.27"/><path d="M36.76,62.46c0,4.26,3.07,9.02,11.11,9.02,10.31,0,21.13-8.43,21.13-17.16,0-5.86-4.96-9.13-11.11-9.13-9.63,0-21.13,8.14-21.13,17.27"/><path d="M96.87,62.46c0,4.26,3.07,9.02,11.11,9.02,10.31,0,21.13-8.43,21.13-17.16,0-5.86-4.96-9.13-11.11-9.13-9.63,0-21.13,8.14-21.13,17.27"/><path d="M156.98,62.46c0,4.26,3.07,9.02,11.11,9.02,10.31,0,21.13-8.43,21.13-17.16,0-5.86-4.96-9.13-11.11-9.13-9.63,0-21.13,8.14-21.13,17.27"/><path d="M217.09,62.46c0,4.26,3.07,9.02,11.11,9.02,10.31,0,21.13-8.43,21.13-17.16,0-5.86-4.96-9.13-11.11-9.13-9.63,0-21.13,8.14-21.13,17.27"/><path d="M36.76,120.29H339.79v12.4H36.76v-12.4" fill-rule="evenodd"/></g></svg>