<?xml version="1.0" encoding="UTF-8"?><svg id="b" xmlns="http://www.w3.org/2000/svg" viewBox="0 0 227.17 112.97"><g id="c"><line x1="3.76" y1="1.37" x2="224.94" y2="1.37" fill="none" stroke="#000" stroke-linejoin="bevel" stroke-width="2.73"/><line x1="3.76" y1="26.17" x2="224.94" y2="26.17" fill="none" stroke="#000" stroke-linejoin="bevel" stroke-width="2.73"/><line x1="3.76" y1="50.97" x2="224.94" y2="50.97" fill="none" stroke="#000" stroke-linejoin="bevel" stroke-width="2.73"/><line x1="3.76" y1="75.77" x2="224.94" y2="75.77" fill="none" stroke="#000" stroke-linejoin="bevel" stroke-width="2.73"/><line x1="3.76" y1="100.57" x2="224.94" y2="100.57" fill="none" stroke="#000" stroke-linejoin="bevel" stroke-width="2.73"/><line x1="2.23" y1="0" x2="2.23" y2="101.93" fill="none" stroke="#000" stroke-linejoin="bevel" stroke-width="4.46"/><line x1="224.94" y1="0" x2="224.94" y2="101.93" fill="none" stroke="#000" stroke-linejoin="bevel" stroke-width="4.46"/><line x1="37.94" y1="42.74" x2="37.94" y2="106.77" fill="none" stroke="#000" stroke-linejoin="bevel" stroke-width="2.48"/><line x1="96.22" y1="42.74" x2="96.22" y2="106.77" fill="none" stroke="#000" stroke-linejoin="bevel" stroke-width="2.48"/><line x1="154.51" y1="42.74" x2="154.51" y2="106.77" fill="none" stroke="#000" stroke-linejoin="bevel" stroke-width="2.48"/><path d="M36.7,42.73c0,4.26,3.07,9.02,11.11,9.02,10.31,0,21.13-8.43,21.13-17.16,0-5.86-4.96-9.13-11.11-9.13-9.63,0-21.13,8.14-21.13,17.27"/><path d="M94.98,42.73c0,4.26,3.07,9.02,11.11,9.02,10.31,0,21.13-8.43,21.13-17.16,0-5.86-4.96-9.13-11.11-9.13-9.63,0-21.13,8.14-21.13,17.27"/><path d="M153.27,42.73c0,4.26,3.07,9.02,11.11,9.02,10.31,0,21.13-8.43,21.13-17.16,0-5.86-4.96-9.13-11.11-9.13-9.63,0-21.13,8.14-21.13,17.27"/><path d="M36.7,100.57h119.05v12.4H36.7v-12.4" fill-rule="evenodd"/></g></svg>