<?xml version="1.0" encoding="UTF-8"?><svg id="Ebene_2" xmlns="http://www.w3.org/2000/svg" viewBox="0 0 306 306"><g id="Ebene_1-2"><line x1="2.44" y1="103.47" x2="303.46" y2="103.47" fill="none" stroke="#000" stroke-linejoin="bevel" stroke-width="2.73"/><line x1="2.44" y1="128.27" x2="303.46" y2="128.27" fill="none" stroke="#000" stroke-linejoin="bevel" stroke-width="2.73"/><line x1="2.44" y1="153.07" x2="303.46" y2="153.07" fill="none" stroke="#000" stroke-linejoin="bevel" stroke-width="2.73"/><line x1="2.44" y1="177.87" x2="303.46" y2="177.87" fill="none" stroke="#000" stroke-linejoin="bevel" stroke-width="2.73"/><line x1="2.44" y1="202.67" x2="303.46" y2="202.67" fill="none" stroke="#000" stroke-linejoin="bevel" stroke-width="2.73"/><line x1="2.44" y1="102.11" x2="2.44" y2="204.04" fill="none" stroke="#000" stroke-linejoin="bevel" stroke-width="4.46"/><line x1="303.46" y1="102.11" x2="303.46" y2="204.04" fill="none" stroke="#000" stroke-linejoin="bevel" stroke-width="4.46"/><line x1="126.26" y1="144.84" x2="126.26" y2="208.87" fill="none" stroke="#000" stroke-linejoin="bevel" stroke-width="2.48"/><line x1="38.16" y1="144.84" x2="38.16" y2="208.87" fill="none" stroke="#000" stroke-linejoin="bevel" stroke-width="2.48"/><line x1="214.36" y1="144.84" x2="214.36" y2="208.87" fill="none" stroke="#000" stroke-linejoin="bevel" stroke-width="2.48"/><path d="M36.92,144.84c0,4.26,3.07,9.02,11.11,9.02,10.31,0,21.13-8.43,21.13-17.16,0-5.86-4.96-9.13-11.11-9.13-9.63,0-21.13,8.14-21.13,17.27"/><path d="M125.02,144.84c0,4.26,3.07,9.02,11.11,9.02,10.31,0,21.13-8.43,21.13-17.16,0-5.86-4.96-9.13-11.11-9.13-9.63,0-21.13,8.14-21.13,17.27"/><path d="M213.12,144.84c0,4.26,3.07,9.02,11.11,9.02,10.31,0,21.13-8.43,21.13-17.16,0-5.86-4.96-9.13-11.11-9.13-9.63,0-21.13,8.14-21.13,17.27"/><path d="M36.92,202.67H215.6v12.4H36.92v-12.4" fill-rule="evenodd"/><path d="M219.79,86.05l7.83-.31v-1.94h-.8c-2.58-.12-2.8-.4-2.8-3.28v-27.94l-8.81,.49v1.94h2.66c1.7,.04,1.92,.31,1.92,2.25v10.17c-1.66-2.3-3.59-3.33-6.2-3.33-5.08,0-8.95,4.91-8.95,11.38s3.73,10.93,8.95,10.93c2.83,0,4.77-1.22,6.2-3.9v3.54m-5.3-19.53c1.84,0,3.59,1.36,4.41,3.42,.58,1.36,.84,3.21,.84,5.41,0,5.27-2.06,8.64-5.3,8.64s-5.09-2.97-5.09-7.97c0-2.7,.28-4.72,.86-6.2,.77-2.03,2.42-3.3,4.28-3.3m23.25-9.76c-1.22,0-2.25,1.04-2.25,2.25s1.03,2.25,2.2,2.25c1.3,0,2.3-.99,2.3-2.25s-1.03-2.25-2.25-2.25m8.95,0c-1.22,0-2.25,1.04-2.25,2.25s1.03,2.25,2.2,2.25c1.31,0,2.3-.99,2.3-2.25s-.98-2.25-2.25-2.25m.55,29.29l8.19-.31v-1.94h-1.12c-2.61-.09-2.84-.36-2.84-3.28v-15.75l-8.45,.5v1.92h2.3c1.7,.05,1.94,.33,1.94,2.25v5.55c0,3.91-.95,8.69-5.91,8.69-1.39,0-2.56-.5-3.14-1.41-.59-.84-.69-1.29-.69-3.78v-13.72l-7.88,.5v1.92h1.72c1.7,.05,1.94,.33,1.94,2.25v9.74c0,2.28,.17,3.33,.84,4.36,1.22,1.84,3.38,2.87,6.08,2.87,2.97,0,5.05-1.22,7.03-4.09v3.73"/><path d="M125.89,81.34c-2.47-.04-2.61-.09-3.14-.4-.31-.19-.55-.68-.55-1.18,0-1.34,1.22-1.93,4.23-2.03,4.24-.07,4.91-.17,6.44-.84,2.7-1.22,4.19-3.56,4.19-6.53,0-1.8-.41-2.92-1.62-4.41,.77-.81,1.17-1.08,1.53-1.08,.22,0,.36,.13,.45,.63,.17,1.08,.89,1.67,2.01,1.67s2.03-.95,2.03-2.17c0-1.52-1.22-2.61-2.97-2.61-1.44,0-2.25,.45-4.33,2.34-1.89-1.25-3.33-1.7-5.58-1.7-5.34,0-8.86,2.97-8.86,7.47,0,2.66,1.44,4.91,3.78,6.03-3.02,.67-4.28,2.02-4.28,4.5,0,1.97,.91,3.14,3.02,3.86-2.78,1.05-4.14,2.44-4.14,4.28,0,1.34,.91,2.61,2.34,3.38,1.75,.9,3.92,1.26,7.16,1.26,7.52,0,11.25-2.39,11.25-7.11,0-2.25-1.03-4.06-2.66-4.73-1.22-.46-2.66-.63-5.72-.63h-4.59m2.66-16.37c2.8,0,4.38,1.92,4.38,5.44s-1.72,5.62-4.55,5.62-4.55-2.11-4.55-5.48c0-3.57,1.7-5.58,4.72-5.58m-.41,20.25c3.73,0,4.02,0,4.64,.08,1.84,.18,2.92,1.17,2.92,2.61,0,2.57-2.92,4.06-7.92,4.06-3.81,0-5.94-1.13-5.94-3.16,0-1.48,.81-2.47,2.97-3.59h3.33m21.98-29.53c-1.22,0-2.25,1.04-2.25,2.25s1.03,2.25,2.2,2.25c1.3,0,2.3-.99,2.3-2.25s-1.03-2.25-2.25-2.25m8.95,0c-1.22,0-2.25,1.04-2.25,2.25s1.03,2.25,2.2,2.25c1.31,0,2.3-.99,2.3-2.25s-.98-2.25-2.25-2.25m.55,29.29l8.19-.31v-1.94h-1.12c-2.61-.09-2.84-.36-2.84-3.28v-15.75l-8.45,.5v1.92h2.3c1.7,.05,1.94,.33,1.94,2.25v5.55c0,3.91-.95,8.69-5.91,8.69-1.39,0-2.56-.5-3.14-1.41-.59-.84-.69-1.29-.69-3.78v-13.72l-7.88,.5v1.92h1.72c1.7,.05,1.94,.33,1.94,2.25v9.74c0,2.28,.17,3.33,.84,4.36,1.22,1.84,3.38,2.87,6.08,2.87,2.97,0,5.05-1.22,7.03-4.09v3.73"/><path d="M43.59,86.05l7.83-.31v-1.94h-.8c-2.58-.12-2.8-.4-2.8-3.28v-27.94l-8.81,.49v1.94h2.66c1.7,.04,1.92,.31,1.92,2.25v10.17c-1.66-2.3-3.59-3.33-6.2-3.33-5.08,0-8.95,4.91-8.95,11.38s3.73,10.93,8.95,10.93c2.83,0,4.77-1.22,6.2-3.9v3.54m-5.3-19.53c1.84,0,3.59,1.36,4.41,3.42,.58,1.36,.84,3.21,.84,5.41,0,5.27-2.06,8.64-5.3,8.64s-5.09-2.97-5.09-7.97c0-2.7,.28-4.72,.86-6.2,.77-2.03,2.42-3.3,4.28-3.3m23.25-9.76c-1.22,0-2.25,1.04-2.25,2.25s1.03,2.25,2.2,2.25c1.3,0,2.3-.99,2.3-2.25s-1.03-2.25-2.25-2.25m8.95,0c-1.22,0-2.25,1.04-2.25,2.25s1.03,2.25,2.2,2.25c1.31,0,2.3-.99,2.3-2.25s-.98-2.25-2.25-2.25m.55,29.29l8.19-.31v-1.94h-1.12c-2.61-.09-2.84-.36-2.84-3.28v-15.75l-8.45,.5v1.92h2.3c1.7,.05,1.94,.33,1.94,2.25v5.55c0,3.91-.95,8.69-5.91,8.69-1.39,0-2.56-.5-3.14-1.41-.59-.84-.69-1.29-.69-3.78v-13.72l-7.88,.5v1.92h1.72c1.7,.05,1.94,.33,1.94,2.25v9.74c0,2.28,.17,3.33,.84,4.36,1.22,1.84,3.38,2.87,6.08,2.87,2.97,0,5.05-1.22,7.03-4.09v3.73"/><rect width="306" height="306" fill="none"/></g></svg>