<?xml version="1.0" encoding="UTF-8"?><svg id="b" xmlns="http://www.w3.org/2000/svg" viewBox="0 0 280.75 114.38"><g id="c"><line x1="4.74" y1="2.78" x2="276.74" y2="2.78" fill="none" stroke="#000" stroke-linejoin="bevel" stroke-width="2.73"/><line x1="4.74" y1="27.58" x2="276.74" y2="27.58" fill="none" stroke="#000" stroke-linejoin="bevel" stroke-width="2.73"/><line x1="4.74" y1="52.38" x2="276.74" y2="52.38" fill="none" stroke="#000" stroke-linejoin="bevel" stroke-width="2.73"/><line x1="4.74" y1="77.18" x2="276.74" y2="77.18" fill="none" stroke="#000" stroke-linejoin="bevel" stroke-width="2.73"/><line x1="4.74" y1="101.98" x2="276.74" y2="101.98" fill="none" stroke="#000" stroke-linejoin="bevel" stroke-width="2.73"/><path d="M52.82,17.66c14.18-22.72,42.54-22.72,56.71,0-14.18-14.78-42.54-14.78-56.71,0" fill-rule="evenodd" stroke="#000" stroke-linecap="round" stroke-linejoin="round" stroke-width="1.24"/><line x1="2.23" y1="1.42" x2="2.23" y2="103.34" fill="none" stroke="#000" stroke-linejoin="bevel" stroke-width="4.46"/><line x1="278.52" y1="1.42" x2="278.52" y2="103.34" fill="none" stroke="#000" stroke-linejoin="bevel" stroke-width="4.46"/><line x1="37.95" y1="44.15" x2="37.95" y2="108.18" fill="none" stroke="#000" stroke-linejoin="bevel" stroke-width="2.48"/><line x1="94.66" y1="44.15" x2="94.66" y2="108.18" fill="none" stroke="#000" stroke-linejoin="bevel" stroke-width="2.48"/><line x1="151.38" y1="44.15" x2="151.38" y2="108.18" fill="none" stroke="#000" stroke-linejoin="bevel" stroke-width="2.48"/><line x1="208.09" y1="44.15" x2="208.09" y2="108.18" fill="none" stroke="#000" stroke-linejoin="bevel" stroke-width="2.48"/><path d="M36.71,44.15c0,4.26,3.07,9.02,11.11,9.02,10.31,0,21.13-8.43,21.13-17.16,0-5.86-4.96-9.13-11.11-9.13-9.63,0-21.13,8.14-21.13,17.27"/><path d="M93.42,44.15c0,4.26,3.07,9.02,11.11,9.02,10.31,0,21.13-8.43,21.13-17.16,0-5.86-4.96-9.13-11.11-9.13-9.63,0-21.13,8.14-21.13,17.27"/><path d="M150.14,44.15c0,4.26,3.07,9.02,11.11,9.02,10.31,0,21.13-8.43,21.13-17.16,0-5.86-4.96-9.13-11.11-9.13-9.63,0-21.13,8.14-21.13,17.27"/><path d="M206.85,44.15c0,4.26,3.07,9.02,11.11,9.02,10.31,0,21.13-8.43,21.13-17.16,0-5.86-4.96-9.13-11.11-9.13-9.63,0-21.13,8.14-21.13,17.27"/><path d="M36.71,101.98H209.33v12.4H36.71v-12.4" fill-rule="evenodd"/></g></svg>