<?xml version="1.0" encoding="UTF-8"?><svg id="b" xmlns="http://www.w3.org/2000/svg" viewBox="0 0 2552 874.89"><g id="c"><line y1="45.54" x2="2552" y2="45.54" fill="none" stroke="#000" stroke-linejoin="bevel" stroke-width="2.73"/><line y1="70.34" x2="2552" y2="70.34" fill="none" stroke="#000" stroke-linejoin="bevel" stroke-width="2.73"/><line y1="95.14" x2="2552" y2="95.14" fill="none" stroke="#000" stroke-linejoin="bevel" stroke-width="2.73"/><line y1="119.94" x2="2552" y2="119.94" fill="none" stroke="#000" stroke-linejoin="bevel" stroke-width="2.73"/><line y1="144.74" x2="2552" y2="144.74" fill="none" stroke="#000" stroke-linejoin="bevel" stroke-width="2.73"/><line y1="379.22" x2="2552" y2="379.22" fill="none" stroke="#000" stroke-linejoin="bevel" stroke-width="2.73"/><line y1="404.02" x2="2552" y2="404.02" fill="none" stroke="#000" stroke-linejoin="bevel" stroke-width="2.73"/><line y1="428.82" x2="2552" y2="428.82" fill="none" stroke="#000" stroke-linejoin="bevel" stroke-width="2.73"/><line y1="453.62" x2="2552" y2="453.62" fill="none" stroke="#000" stroke-linejoin="bevel" stroke-width="2.73"/><line y1="478.42" x2="2552" y2="478.42" fill="none" stroke="#000" stroke-linejoin="bevel" stroke-width="2.73"/><line y1="712.9" x2="2552" y2="712.9" fill="none" stroke="#000" stroke-linejoin="bevel" stroke-width="2.73"/><line y1="737.7" x2="2552" y2="737.7" fill="none" stroke="#000" stroke-linejoin="bevel" stroke-width="2.73"/><line y1="762.5" x2="2552" y2="762.5" fill="none" stroke="#000" stroke-linejoin="bevel" stroke-width="2.73"/><line y1="787.3" x2="2552" y2="787.3" fill="none" stroke="#000" stroke-linejoin="bevel" stroke-width="2.73"/><line y1="812.1" x2="2552" y2="812.1" fill="none" stroke="#000" stroke-linejoin="bevel" stroke-width="2.73"/><line x1="1743.64" y1="711.54" x2="1743.64" y2="813.47" fill="none" stroke="#000" stroke-linejoin="bevel" stroke-width="4.46"/><line x1="1233.42" y1="711.54" x2="1233.42" y2="813.47" fill="none" stroke="#000" stroke-linejoin="bevel" stroke-width="4.46"/><line x1="723.19" y1="711.54" x2="723.19" y2="813.47" fill="none" stroke="#000" stroke-linejoin="bevel" stroke-width="4.46"/><line x1="2549.77" y1="377.86" x2="2549.77" y2="479.79" fill="none" stroke="#000" stroke-linejoin="bevel" stroke-width="4.46"/><line x1="2036.53" y1="377.86" x2="2036.53" y2="479.79" fill="none" stroke="#000" stroke-linejoin="bevel" stroke-width="4.46"/><line x1="1523.29" y1="377.86" x2="1523.29" y2="479.79" fill="none" stroke="#000" stroke-linejoin="bevel" stroke-width="4.46"/><line x1="1010.04" y1="377.86" x2="1010.04" y2="479.79" fill="none" stroke="#000" stroke-linejoin="bevel" stroke-width="4.46"/><line x1="726.21" y1="377.86" x2="726.21" y2="479.79" fill="none" stroke="#000" stroke-linejoin="bevel" stroke-width="4.46"/><line x1="2549.77" y1="44.18" x2="2549.77" y2="146.1" fill="none" stroke="#000" stroke-linejoin="bevel" stroke-width="4.46"/><line x1="2160.3" y1="44.18" x2="2160.3" y2="146.1" fill="none" stroke="#000" stroke-linejoin="bevel" stroke-width="4.46"/><line x1="1770.84" y1="44.18" x2="1770.84" y2="146.1" fill="none" stroke="#000" stroke-linejoin="bevel" stroke-width="4.46"/><line x1="1381.37" y1="44.18" x2="1381.37" y2="146.1" fill="none" stroke="#000" stroke-linejoin="bevel" stroke-width="4.46"/><line x1="991.9" y1="44.18" x2="991.9" y2="146.1" fill="none" stroke="#000" stroke-linejoin="bevel" stroke-width="4.46"/><line x1="602.44" y1="44.18" x2="602.44" y2="146.1" fill="none" stroke="#000" stroke-linejoin="bevel" stroke-width="4.46"/><line x1="2536.13" y1="711.54" x2="2536.13" y2="813.47" fill="none" stroke="#000" stroke-linejoin="bevel" stroke-width="4.46"/><line x1="2549.77" y1="711.54" x2="2549.77" y2="813.47" fill="none" stroke="#000" stroke-linejoin="bevel" stroke-width="4.46"/><line x1="2253.86" y1="711.54" x2="2253.86" y2="813.47" fill="none" stroke="#000" stroke-linejoin="bevel" stroke-width="4.46"/><line x1="885.28" y1="169.54" x2="933.88" y2="169.54" fill="none" stroke="#000" stroke-linejoin="bevel" stroke-width="3.97"/><line x1="1018.19" y1="169.54" x2="1066.79" y2="169.54" fill="none" stroke="#000" stroke-linejoin="bevel" stroke-width="3.97"/><line x1="367.54" y1="169.54" x2="416.14" y2="169.54" fill="none" stroke="#000" stroke-linejoin="bevel" stroke-width="3.97"/><line x1="239.26" y1="194.34" x2="287.86" y2="194.34" fill="none" stroke="#000" stroke-linejoin="bevel" stroke-width="3.97"/><line x1="367.54" y1="194.34" x2="416.14" y2="194.34" fill="none" stroke="#000" stroke-linejoin="bevel" stroke-width="3.97"/><line x1="1600.07" y1="169.54" x2="1648.67" y2="169.54" fill="none" stroke="#000" stroke-linejoin="bevel" stroke-width="3.97"/><line x1="303.4" y1="169.54" x2="352" y2="169.54" fill="none" stroke="#000" stroke-linejoin="bevel" stroke-width="3.97"/><line x1="1210.61" y1="169.54" x2="1259.21" y2="169.54" fill="none" stroke="#000" stroke-linejoin="bevel" stroke-width="3.97"/><line x1="1274.75" y1="169.54" x2="1323.35" y2="169.54" fill="none" stroke="#000" stroke-linejoin="bevel" stroke-width="3.97"/><line x1="239.26" y1="169.54" x2="287.86" y2="169.54" fill="none" stroke="#000" stroke-linejoin="bevel" stroke-width="3.97"/><line x1="1146.47" y1="169.54" x2="1195.07" y2="169.54" fill="none" stroke="#000" stroke-linejoin="bevel" stroke-width="3.97"/><line x1="821.14" y1="169.54" x2="869.74" y2="169.54" fill="none" stroke="#000" stroke-linejoin="bevel" stroke-width="3.97"/><line x1="821.14" y1="194.34" x2="869.74" y2="194.34" fill="none" stroke="#000" stroke-linejoin="bevel" stroke-width="3.97"/><line x1="757" y1="169.54" x2="805.6" y2="169.54" fill="none" stroke="#000" stroke-linejoin="bevel" stroke-width="3.97"/><line x1="692.86" y1="169.54" x2="741.46" y2="169.54" fill="none" stroke="#000" stroke-linejoin="bevel" stroke-width="3.97"/><line x1="628.73" y1="169.54" x2="677.33" y2="169.54" fill="none" stroke="#000" stroke-linejoin="bevel" stroke-width="3.97"/><line x1="495.81" y1="169.54" x2="544.41" y2="169.54" fill="none" stroke="#000" stroke-linejoin="bevel" stroke-width="3.97"/><line x1="495.81" y1="194.34" x2="544.41" y2="194.34" fill="none" stroke="#000" stroke-linejoin="bevel" stroke-width="3.97"/><line x1="431.68" y1="169.54" x2="480.27" y2="169.54" fill="none" stroke="#000" stroke-linejoin="bevel" stroke-width="3.97"/><line x1="431.68" y1="194.34" x2="480.27" y2="194.34" fill="none" stroke="#000" stroke-linejoin="bevel" stroke-width="3.97"/><line x1="835.57" y1="836.9" x2="884.17" y2="836.9" fill="none" stroke="#000" stroke-linejoin="bevel" stroke-width="3.97"/><line x1="1259.7" y1="836.9" x2="1308.3" y2="836.9" fill="none" stroke="#000" stroke-linejoin="bevel" stroke-width="3.97"/><line x1="1345.8" y1="836.9" x2="1394.4" y2="836.9" fill="none" stroke="#000" stroke-linejoin="bevel" stroke-width="3.97"/><line x1="1431.89" y1="836.9" x2="1480.49" y2="836.9" fill="none" stroke="#000" stroke-linejoin="bevel" stroke-width="3.97"/><line x1="1604.08" y1="836.9" x2="1652.68" y2="836.9" fill="none" stroke="#000" stroke-linejoin="bevel" stroke-width="3.97"/><line x1="1769.93" y1="836.9" x2="1818.53" y2="836.9" fill="none" stroke="#000" stroke-linejoin="bevel" stroke-width="3.97"/><line x1="1856.02" y1="861.7" x2="1904.62" y2="861.7" fill="none" stroke="#000" stroke-linejoin="bevel" stroke-width="3.97"/><line x1="1856.02" y1="836.9" x2="1904.62" y2="836.9" fill="none" stroke="#000" stroke-linejoin="bevel" stroke-width="3.97"/><line x1="1942.12" y1="836.9" x2="1990.72" y2="836.9" fill="none" stroke="#000" stroke-linejoin="bevel" stroke-width="3.97"/><line x1="2028.21" y1="836.9" x2="2076.81" y2="836.9" fill="none" stroke="#000" stroke-linejoin="bevel" stroke-width="3.97"/><line x1="2114.3" y1="836.9" x2="2162.91" y2="836.9" fill="none" stroke="#000" stroke-linejoin="bevel" stroke-width="3.97"/><line x1="2280.15" y1="861.7" x2="2328.75" y2="861.7" fill="none" stroke="#000" stroke-linejoin="bevel" stroke-width="3.97"/><line x1="2280.15" y1="836.9" x2="2328.75" y2="836.9" fill="none" stroke="#000" stroke-linejoin="bevel" stroke-width="3.97"/><line x1="1836.3" y1="140.77" x2="1836.3" y2="70.23" fill="none" stroke="#000" stroke-linejoin="bevel" stroke-width="2.48"/><line x1="1703.39" y1="153.17" x2="1703.39" y2="70.34" fill="none" stroke="#000" stroke-linejoin="bevel" stroke-width="2.48"/><line x1="2188.64" y1="474.45" x2="2188.64" y2="403.93" fill="none" stroke="#000" stroke-linejoin="bevel" stroke-width="2.48"/><line x1="1639.25" y1="165.57" x2="1639.25" y2="95.03" fill="none" stroke="#000" stroke-linejoin="bevel" stroke-width="2.48"/><line x1="278.43" y1="190.37" x2="278.43" y2="101.23" fill="none" stroke="#000" stroke-linejoin="bevel" stroke-width="2.48"/><line x1="1575.11" y1="153.17" x2="1575.11" y2="89.06" fill="none" stroke="#000" stroke-linejoin="bevel" stroke-width="2.48"/><line x1="1510.97" y1="140.77" x2="1510.97" y2="70.46" fill="none" stroke="#000" stroke-linejoin="bevel" stroke-width="2.48"/><line x1="1446.83" y1="153.17" x2="1446.83" y2="76.43" fill="none" stroke="#000" stroke-linejoin="bevel" stroke-width="2.48"/><line x1="278.43" y1="808.13" x2="278.43" y2="737.79" fill="none" stroke="#000" stroke-linejoin="bevel" stroke-width="2.48"/><line x1="1313.92" y1="165.57" x2="1313.92" y2="82.74" fill="none" stroke="#000" stroke-linejoin="bevel" stroke-width="2.48"/><line x1="1249.78" y1="177.97" x2="1249.78" y2="101.23" fill="none" stroke="#000" stroke-linejoin="bevel" stroke-width="2.48"/><line x1="1185.64" y1="165.57" x2="1185.64" y2="95.26" fill="none" stroke="#000" stroke-linejoin="bevel" stroke-width="2.48"/><line x1="1121.51" y1="153.17" x2="1121.51" y2="89.06" fill="none" stroke="#000" stroke-linejoin="bevel" stroke-width="2.48"/><line x1="1057.37" y1="165.57" x2="1057.37" y2="95.03" fill="none" stroke="#000" stroke-linejoin="bevel" stroke-width="2.48"/><line x1="924.45" y1="177.97" x2="924.45" y2="95.14" fill="none" stroke="#000" stroke-linejoin="bevel" stroke-width="2.48"/><line x1="860.32" y1="190.37" x2="860.32" y2="101.23" fill="none" stroke="#000" stroke-linejoin="bevel" stroke-width="2.48"/><line x1="2092.86" y1="140.77" x2="2092.86" y2="57.94" fill="none" stroke="#000" stroke-linejoin="bevel" stroke-width="2.48"/><line x1="796.18" y1="177.97" x2="796.18" y2="95.26" fill="none" stroke="#000" stroke-linejoin="bevel" stroke-width="2.48"/><line x1="732.04" y1="165.57" x2="732.04" y2="95.26" fill="none" stroke="#000" stroke-linejoin="bevel" stroke-width="2.48"/><line x1="667.9" y1="177.97" x2="667.9" y2="101.23" fill="none" stroke="#000" stroke-linejoin="bevel" stroke-width="2.48"/><line x1="406.71" y1="190.37" x2="406.71" y2="95.26" fill="none" stroke="#000" stroke-linejoin="bevel" stroke-width="2.48"/><line x1="2028.72" y1="153.17" x2="2028.72" y2="76.43" fill="none" stroke="#000" stroke-linejoin="bevel" stroke-width="2.48"/><line x1="534.99" y1="190.37" x2="534.99" y2="95.14" fill="none" stroke="#000" stroke-linejoin="bevel" stroke-width="2.48"/><line x1="470.85" y1="202.77" x2="470.85" y2="101.23" fill="none" stroke="#000" stroke-linejoin="bevel" stroke-width="2.48"/><line x1="2225.77" y1="128.37" x2="2225.77" y2="51.63" fill="none" stroke="#000" stroke-linejoin="bevel" stroke-width="2.48"/><line x1="2289.91" y1="115.97" x2="2289.91" y2="45.66" fill="none" stroke="#000" stroke-linejoin="bevel" stroke-width="2.48"/><line x1="2354.05" y1="128.37" x2="2354.05" y2="64.26" fill="none" stroke="#000" stroke-linejoin="bevel" stroke-width="2.48"/><line x1="2418.18" y1="140.77" x2="2418.18" y2="70.23" fill="none" stroke="#000" stroke-linejoin="bevel" stroke-width="2.48"/><line x1="2482.32" y1="128.37" x2="2482.32" y2="45.54" fill="none" stroke="#000" stroke-linejoin="bevel" stroke-width="2.48"/><line x1="278.43" y1="449.65" x2="278.43" y2="379.13" fill="none" stroke="#000" stroke-linejoin="bevel" stroke-width="2.48"/><line x1="365.08" y1="437.25" x2="365.08" y2="373.11" fill="none" stroke="#000" stroke-linejoin="bevel" stroke-width="2.48"/><line x1="451.72" y1="449.65" x2="451.72" y2="379.31" fill="none" stroke="#000" stroke-linejoin="bevel" stroke-width="2.48"/><line x1="538.37" y1="462.05" x2="538.37" y2="385.33" fill="none" stroke="#000" stroke-linejoin="bevel" stroke-width="2.48"/><line x1="625.01" y1="449.65" x2="625.01" y2="366.82" fill="none" stroke="#000" stroke-linejoin="bevel" stroke-width="2.48"/><line x1="791.68" y1="437.25" x2="791.68" y2="360.62" fill="none" stroke="#000" stroke-linejoin="bevel" stroke-width="2.48"/><line x1="1075.51" y1="437.25" x2="1075.51" y2="373.11" fill="none" stroke="#000" stroke-linejoin="bevel" stroke-width="2.48"/><line x1="1162.15" y1="449.65" x2="1162.15" y2="379.13" fill="none" stroke="#000" stroke-linejoin="bevel" stroke-width="2.48"/><line x1="1248.79" y1="437.25" x2="1248.79" y2="360.53" fill="none" stroke="#000" stroke-linejoin="bevel" stroke-width="2.48"/><line x1="1335.44" y1="424.85" x2="1335.44" y2="354.51" fill="none" stroke="#000" stroke-linejoin="bevel" stroke-width="2.48"/><line x1="1422.08" y1="437.25" x2="1422.08" y2="360.62" fill="none" stroke="#000" stroke-linejoin="bevel" stroke-width="2.48"/><line x1="1588.75" y1="449.65" x2="1588.75" y2="379.31" fill="none" stroke="#000" stroke-linejoin="bevel" stroke-width="2.48"/><line x1="1675.39" y1="462.05" x2="1675.39" y2="385.33" fill="none" stroke="#000" stroke-linejoin="bevel" stroke-width="2.48"/><line x1="1762.04" y1="449.65" x2="1762.04" y2="379.13" fill="none" stroke="#000" stroke-linejoin="bevel" stroke-width="2.48"/><line x1="1848.68" y1="437.25" x2="1848.68" y2="373.11" fill="none" stroke="#000" stroke-linejoin="bevel" stroke-width="2.48"/><line x1="1935.32" y1="449.65" x2="1935.32" y2="366.82" fill="none" stroke="#000" stroke-linejoin="bevel" stroke-width="2.48"/><line x1="2101.99" y1="462.05" x2="2101.99" y2="397.91" fill="none" stroke="#000" stroke-linejoin="bevel" stroke-width="2.48"/><line x1="2275.28" y1="462.05" x2="2275.28" y2="385.33" fill="none" stroke="#000" stroke-linejoin="bevel" stroke-width="2.48"/><line x1="2361.92" y1="449.65" x2="2361.92" y2="379.31" fill="none" stroke="#000" stroke-linejoin="bevel" stroke-width="2.48"/><line x1="2448.57" y1="462.05" x2="2448.57" y2="379.22" fill="none" stroke="#000" stroke-linejoin="bevel" stroke-width="2.48"/><line x1="364.53" y1="820.53" x2="364.53" y2="743.81" fill="none" stroke="#000" stroke-linejoin="bevel" stroke-width="2.48"/><line x1="450.62" y1="808.13" x2="450.62" y2="737.61" fill="none" stroke="#000" stroke-linejoin="bevel" stroke-width="2.48"/><line x1="536.72" y1="795.73" x2="536.72" y2="731.59" fill="none" stroke="#000" stroke-linejoin="bevel" stroke-width="2.48"/><line x1="622.81" y1="808.13" x2="622.81" y2="725.3" fill="none" stroke="#000" stroke-linejoin="bevel" stroke-width="2.48"/><line x1="788.66" y1="820.53" x2="788.66" y2="756.39" fill="none" stroke="#000" stroke-linejoin="bevel" stroke-width="2.48"/><line x1="874.75" y1="832.93" x2="874.75" y2="762.41" fill="none" stroke="#000" stroke-linejoin="bevel" stroke-width="2.48"/><line x1="960.85" y1="820.53" x2="960.85" y2="743.81" fill="none" stroke="#000" stroke-linejoin="bevel" stroke-width="2.48"/><line x1="1046.94" y1="808.13" x2="1046.94" y2="737.79" fill="none" stroke="#000" stroke-linejoin="bevel" stroke-width="2.48"/><line x1="1133.03" y1="820.53" x2="1133.03" y2="737.7" fill="none" stroke="#000" stroke-linejoin="bevel" stroke-width="2.48"/><line x1="1298.88" y1="832.93" x2="1298.88" y2="762.59" fill="none" stroke="#000" stroke-linejoin="bevel" stroke-width="2.48"/><line x1="1384.97" y1="845.33" x2="1384.97" y2="768.61" fill="none" stroke="#000" stroke-linejoin="bevel" stroke-width="2.48"/><line x1="1964.58" y1="140.77" x2="1964.58" y2="70.46" fill="none" stroke="#000" stroke-linejoin="bevel" stroke-width="2.48"/><line x1="1471.07" y1="832.93" x2="1471.07" y2="762.41" fill="none" stroke="#000" stroke-linejoin="bevel" stroke-width="2.48"/><line x1="1557.16" y1="820.53" x2="1557.16" y2="756.39" fill="none" stroke="#000" stroke-linejoin="bevel" stroke-width="2.48"/><line x1="1643.26" y1="832.93" x2="1643.26" y2="750.1" fill="none" stroke="#000" stroke-linejoin="bevel" stroke-width="2.48"/><line x1="342.57" y1="177.97" x2="342.57" y2="95.26" fill="none" stroke="#000" stroke-linejoin="bevel" stroke-width="2.48"/><line x1="1809.1" y1="845.33" x2="1809.1" y2="762.59" fill="none" stroke="#000" stroke-linejoin="bevel" stroke-width="2.48"/><line x1="1895.2" y1="857.73" x2="1895.2" y2="768.61" fill="none" stroke="#000" stroke-linejoin="bevel" stroke-width="2.48"/><line x1="1900.44" y1="128.37" x2="1900.44" y2="64.26" fill="none" stroke="#000" stroke-linejoin="bevel" stroke-width="2.48"/><line x1="1981.29" y1="845.33" x2="1981.29" y2="768.61" fill="none" stroke="#000" stroke-linejoin="bevel" stroke-width="2.48"/><line x1="2067.39" y1="832.93" x2="2067.39" y2="762.59" fill="none" stroke="#000" stroke-linejoin="bevel" stroke-width="2.48"/><line x1="2153.48" y1="845.33" x2="2153.48" y2="762.5" fill="none" stroke="#000" stroke-linejoin="bevel" stroke-width="2.48"/><line x1="2319.33" y1="857.73" x2="2319.33" y2="762.5" fill="none" stroke="#000" stroke-linejoin="bevel" stroke-width="2.48"/><path d="M247.44,198.51c0,4.26,3.07,9.02,11.11,9.02,10.31,0,21.13-8.43,21.13-17.16,0-5.86-4.96-9.13-11.11-9.13-9.63,0-21.13,8.14-21.13,17.27"/><path d="M311.58,186.11c0,4.26,3.07,9.02,11.11,9.02,10.31,0,21.13-8.43,21.13-17.16,0-5.86-4.96-9.13-11.11-9.13-9.63,0-21.13,8.14-21.13,17.27"/><path d="M375.72,198.51c0,4.26,3.07,9.02,11.11,9.02,10.31,0,21.13-8.43,21.13-17.16,0-5.86-4.96-9.13-11.11-9.13-9.63,0-21.13,8.14-21.13,17.27"/><path d="M439.86,210.91c0,4.26,3.07,9.02,11.11,9.02,10.31,0,21.13-8.43,21.13-17.16,0-5.86-4.96-9.13-11.11-9.13-9.63,0-21.13,8.14-21.13,17.27"/><path d="M504,198.51c0,4.26,3.07,9.02,11.11,9.02,10.31,0,21.13-8.43,21.13-17.16,0-5.86-4.96-9.13-11.11-9.13-9.63,0-21.13,8.14-21.13,17.27"/><path d="M636.91,186.11c0,4.26,3.07,9.02,11.11,9.02,10.31,0,21.13-8.43,21.13-17.16,0-5.86-4.96-9.13-11.11-9.13-9.63,0-21.13,8.14-21.13,17.27"/><path d="M701.05,173.71c0,4.26,3.07,9.02,11.11,9.02,10.31,0,21.13-8.43,21.13-17.16,0-5.86-4.96-9.13-11.11-9.13-9.63,0-21.13,8.14-21.13,17.27"/><path d="M765.19,186.11c0,4.26,3.07,9.02,11.11,9.02,10.31,0,21.13-8.43,21.13-17.16,0-5.86-4.96-9.13-11.11-9.13-9.63,0-21.13,8.14-21.13,17.27"/><path d="M829.32,198.51c0,4.26,3.07,9.02,11.11,9.02,10.31,0,21.13-8.43,21.13-17.16,0-5.86-4.96-9.13-11.11-9.13-9.63,0-21.13,8.14-21.13,17.27"/><path d="M893.46,186.11c0,4.26,3.07,9.02,11.11,9.02,10.31,0,21.13-8.43,21.13-17.16,0-5.86-4.96-9.13-11.11-9.13-9.63,0-21.13,8.14-21.13,17.27"/><path d="M1026.37,173.71c0,4.26,3.07,9.02,11.11,9.02,10.31,0,21.13-8.43,21.13-17.16,0-5.86-4.96-9.13-11.11-9.13-9.63,0-21.13,8.14-21.13,17.27"/><path d="M1090.51,161.31c0,4.26,3.07,9.02,11.11,9.02,10.31,0,21.13-8.43,21.13-17.16,0-5.86-4.96-9.13-11.11-9.13-9.63,0-21.13,8.14-21.13,17.27"/><path d="M1154.65,173.71c0,4.26,3.07,9.02,11.11,9.02,10.31,0,21.13-8.43,21.13-17.16,0-5.86-4.96-9.13-11.11-9.13-9.63,0-21.13,8.14-21.13,17.27"/><path d="M1218.79,186.11c0,4.26,3.07,9.02,11.11,9.02,10.31,0,21.13-8.43,21.13-17.16,0-5.86-4.96-9.13-11.11-9.13-9.63,0-21.13,8.14-21.13,17.27"/><path d="M1282.93,173.71c0,4.26,3.07,9.02,11.11,9.02,10.31,0,21.13-8.43,21.13-17.16,0-5.86-4.96-9.13-11.11-9.13-9.63,0-21.13,8.14-21.13,17.27"/><path d="M1415.84,161.31c0,4.26,3.07,9.02,11.11,9.02,10.31,0,21.13-8.43,21.13-17.16,0-5.86-4.96-9.13-11.11-9.13-9.63,0-21.13,8.14-21.13,17.27"/><path d="M1479.98,148.91c0,4.26,3.07,9.02,11.11,9.02,10.31,0,21.13-8.43,21.13-17.16,0-5.86-4.96-9.13-11.11-9.13-9.63,0-21.13,8.14-21.13,17.27"/><path d="M1544.12,161.31c0,4.26,3.07,9.02,11.11,9.02,10.31,0,21.13-8.43,21.13-17.16,0-5.86-4.96-9.13-11.11-9.13-9.63,0-21.13,8.14-21.13,17.27"/><path d="M1672.4,161.31c0,4.26,3.07,9.02,11.11,9.02,10.31,0,21.13-8.43,21.13-17.16,0-5.86-4.96-9.13-11.11-9.13-9.63,0-21.13,8.14-21.13,17.27"/><path d="M1805.31,148.91c0,4.26,3.07,9.02,11.11,9.02,10.31,0,21.13-8.43,21.13-17.16,0-5.86-4.96-9.13-11.11-9.13-9.63,0-21.13,8.14-21.13,17.27"/><path d="M1869.45,136.51c0,4.26,3.07,9.02,11.11,9.02,10.31,0,21.13-8.43,21.13-17.16,0-5.86-4.96-9.13-11.11-9.13-9.63,0-21.13,8.14-21.13,17.27"/><path d="M1933.59,148.91c0,4.26,3.07,9.02,11.11,9.02,10.31,0,21.13-8.43,21.13-17.16,0-5.86-4.96-9.13-11.11-9.13-9.63,0-21.13,8.14-21.13,17.27"/><path d="M1997.72,161.31c0,4.26,3.07,9.02,11.11,9.02,10.31,0,21.13-8.43,21.13-17.16,0-5.86-4.96-9.13-11.11-9.13-9.63,0-21.13,8.14-21.13,17.27"/><path d="M2061.86,148.91c0,4.26,3.07,9.02,11.11,9.02,10.31,0,21.13-8.43,21.13-17.16,0-5.86-4.96-9.13-11.11-9.13-9.63,0-21.13,8.14-21.13,17.27"/><path d="M2194.78,136.51c0,4.26,3.07,9.02,11.11,9.02,10.31,0,21.13-8.43,21.13-17.16,0-5.86-4.96-9.13-11.11-9.13-9.63,0-21.13,8.14-21.13,17.27"/><path d="M2258.91,124.11c0,4.26,3.07,9.02,11.11,9.02,10.31,0,21.13-8.43,21.13-17.16,0-5.86-4.96-9.13-11.11-9.13-9.63,0-21.13,8.14-21.13,17.27"/><path d="M2323.05,136.51c0,4.26,3.07,9.02,11.11,9.02,10.31,0,21.13-8.43,21.13-17.16,0-5.86-4.96-9.13-11.11-9.13-9.63,0-21.13,8.14-21.13,17.27"/><path d="M2387.19,148.91c0,4.26,3.07,9.02,11.11,9.02,10.31,0,21.13-8.43,21.13-17.16,0-5.86-4.96-9.13-11.11-9.13-9.63,0-21.13,8.14-21.13,17.27"/><path d="M2451.33,136.51c0,4.26,3.07,9.02,11.11,9.02,10.31,0,21.13-8.43,21.13-17.16,0-5.86-4.96-9.13-11.11-9.13-9.63,0-21.13,8.14-21.13,17.27"/><path d="M247.44,457.79c0,4.26,3.07,9.02,11.11,9.02,10.31,0,21.13-8.43,21.13-17.16,0-5.86-4.96-9.13-11.11-9.13-9.63,0-21.13,8.14-21.13,17.27"/><path d="M334.09,445.39c0,4.26,3.07,9.02,11.11,9.02,10.31,0,21.13-8.43,21.13-17.16,0-5.86-4.96-9.13-11.11-9.13-9.63,0-21.13,8.14-21.13,17.27"/><path d="M420.73,457.79c0,4.26,3.07,9.02,11.11,9.02,10.31,0,21.13-8.43,21.13-17.16,0-5.86-4.96-9.13-11.11-9.13-9.63,0-21.13,8.14-21.13,17.27"/><path d="M507.37,470.19c0,4.26,3.07,9.02,11.11,9.02,10.31,0,21.13-8.43,21.13-17.16,0-5.86-4.96-9.13-11.11-9.13-9.63,0-21.13,8.14-21.13,17.27"/><path d="M594.02,457.79c0,4.26,3.07,9.02,11.11,9.02,10.31,0,21.13-8.43,21.13-17.16,0-5.86-4.96-9.13-11.11-9.13-9.63,0-21.13,8.14-21.13,17.27"/><path d="M781.81,428.12c-9.63,0-21.13,8.04-21.13,17.27,0,4.26,3.07,9.02,11.11,9.02,10.31,0,21.13-8.43,21.13-17.16,0-5.86-4.96-9.13-11.11-9.13m-13.69,21.62c-3.27,0-3.97-2.67-3.97-3.57,0-4.87,16.66-13.39,21.33-13.39,2.39,0,3.97,1.4,3.97,3.57,0,4.96-16.77,13.39-21.33,13.39"/><path d="M1044.52,445.39c0,4.26,3.07,9.02,11.11,9.02,10.31,0,21.13-8.43,21.13-17.16,0-5.86-4.96-9.13-11.11-9.13-9.63,0-21.13,8.14-21.13,17.27"/><path d="M1131.16,457.79c0,4.26,3.07,9.02,11.11,9.02,10.31,0,21.13-8.43,21.13-17.16,0-5.86-4.96-9.13-11.11-9.13-9.63,0-21.13,8.14-21.13,17.27"/><path d="M1217.8,445.39c0,4.26,3.07,9.02,11.11,9.02,10.31,0,21.13-8.43,21.13-17.16,0-5.86-4.96-9.13-11.11-9.13-9.63,0-21.13,8.14-21.13,17.27"/><path d="M1304.45,432.99c0,4.26,3.07,9.02,11.11,9.02,10.31,0,21.13-8.43,21.13-17.16,0-5.86-4.96-9.13-11.11-9.13-9.63,0-21.13,8.14-21.13,17.27"/><path d="M1391.09,445.39c0,4.26,3.07,9.02,11.11,9.02,10.31,0,21.13-8.43,21.13-17.16,0-5.86-4.96-9.13-11.11-9.13-9.63,0-21.13,8.14-21.13,17.27"/><path d="M1557.76,457.79c0,4.26,3.07,9.02,11.11,9.02,10.31,0,21.13-8.43,21.13-17.16,0-5.86-4.96-9.13-11.11-9.13-9.63,0-21.13,8.14-21.13,17.27"/><path d="M1644.4,470.19c0,4.26,3.07,9.02,11.11,9.02,10.31,0,21.13-8.43,21.13-17.16,0-5.86-4.96-9.13-11.11-9.13-9.63,0-21.13,8.14-21.13,17.27"/><path d="M1731.04,457.79c0,4.26,3.07,9.02,11.11,9.02,10.31,0,21.13-8.43,21.13-17.16,0-5.86-4.96-9.13-11.11-9.13-9.63,0-21.13,8.14-21.13,17.27"/><path d="M1817.69,445.39c0,4.26,3.07,9.02,11.11,9.02,10.31,0,21.13-8.43,21.13-17.16,0-5.86-4.96-9.13-11.11-9.13-9.63,0-21.13,8.14-21.13,17.27"/><path d="M1904.33,457.79c0,4.26,3.07,9.02,11.11,9.02,10.31,0,21.13-8.43,21.13-17.16,0-5.86-4.96-9.13-11.11-9.13-9.63,0-21.13,8.14-21.13,17.27"/><path d="M2071,470.19c0,4.26,3.07,9.02,11.11,9.02,10.31,0,21.13-8.43,21.13-17.16,0-5.86-4.96-9.13-11.11-9.13-9.63,0-21.13,8.14-21.13,17.27"/><path d="M1608.26,173.71c0,4.26,3.07,9.02,11.11,9.02,10.31,0,21.13-8.43,21.13-17.16,0-5.86-4.96-9.13-11.11-9.13-9.63,0-21.13,8.14-21.13,17.27"/><path d="M2157.64,482.59c0,4.26,3.07,9.02,11.11,9.02,10.31,0,21.13-8.43,21.13-17.16,0-5.86-4.96-9.13-11.11-9.13-9.63,0-21.13,8.14-21.13,17.27"/><path d="M2244.29,470.19c0,4.26,3.07,9.02,11.11,9.02,10.31,0,21.13-8.43,21.13-17.16,0-5.86-4.96-9.13-11.11-9.13-9.63,0-21.13,8.14-21.13,17.27"/><path d="M2330.93,457.79c0,4.26,3.07,9.02,11.11,9.02,10.31,0,21.13-8.43,21.13-17.16,0-5.86-4.96-9.13-11.11-9.13-9.63,0-21.13,8.14-21.13,17.27"/><path d="M2417.57,470.19c0,4.26,3.07,9.02,11.11,9.02,10.31,0,21.13-8.43,21.13-17.16,0-5.86-4.96-9.13-11.11-9.13-9.63,0-21.13,8.14-21.13,17.27"/><path d="M247.44,816.27c0,4.26,3.07,9.02,11.11,9.02,10.31,0,21.13-8.43,21.13-17.16,0-5.86-4.96-9.13-11.11-9.13-9.63,0-21.13,8.14-21.13,17.27"/><path d="M333.54,828.67c0,4.26,3.07,9.02,11.11,9.02,10.31,0,21.13-8.43,21.13-17.16,0-5.86-4.96-9.13-11.11-9.13-9.63,0-21.13,8.14-21.13,17.27"/><path d="M419.63,816.27c0,4.26,3.07,9.02,11.11,9.02,10.31,0,21.13-8.43,21.13-17.16,0-5.86-4.96-9.13-11.11-9.13-9.63,0-21.13,8.14-21.13,17.27"/><path d="M505.73,803.87c0,4.26,3.07,9.02,11.11,9.02,10.31,0,21.13-8.43,21.13-17.16,0-5.86-4.96-9.13-11.11-9.13-9.63,0-21.13,8.14-21.13,17.27"/><path d="M591.82,816.27c0,4.26,3.07,9.02,11.11,9.02,10.31,0,21.13-8.43,21.13-17.16,0-5.86-4.96-9.13-11.11-9.13-9.63,0-21.13,8.14-21.13,17.27"/><path d="M757.67,828.67c0,4.26,3.07,9.02,11.11,9.02,10.31,0,21.13-8.43,21.13-17.16,0-5.86-4.96-9.13-11.11-9.13-9.63,0-21.13,8.14-21.13,17.27"/><path d="M843.76,841.07c0,4.26,3.07,9.02,11.11,9.02,10.31,0,21.13-8.43,21.13-17.16,0-5.86-4.96-9.13-11.11-9.13-9.63,0-21.13,8.14-21.13,17.27"/><path d="M929.85,828.67c0,4.26,3.07,9.02,11.11,9.02,10.31,0,21.13-8.43,21.13-17.16,0-5.86-4.96-9.13-11.11-9.13-9.63,0-21.13,8.14-21.13,17.27"/><path d="M1015.95,816.27c0,4.26,3.07,9.02,11.11,9.02,10.31,0,21.13-8.43,21.13-17.16,0-5.86-4.96-9.13-11.11-9.13-9.63,0-21.13,8.14-21.13,17.27"/><path d="M1102.04,828.67c0,4.26,3.07,9.02,11.11,9.02,10.31,0,21.13-8.43,21.13-17.16,0-5.86-4.96-9.13-11.11-9.13-9.63,0-21.13,8.14-21.13,17.27"/><path d="M1267.89,841.07c0,4.26,3.07,9.02,11.11,9.02,10.31,0,21.13-8.43,21.13-17.16,0-5.86-4.96-9.13-11.11-9.13-9.63,0-21.13,8.14-21.13,17.27"/><path d="M1353.98,853.47c0,4.26,3.07,9.02,11.11,9.02,10.31,0,21.13-8.43,21.13-17.16,0-5.86-4.96-9.13-11.11-9.13-9.63,0-21.13,8.14-21.13,17.27"/><path d="M1440.08,841.07c0,4.26,3.07,9.02,11.11,9.02,10.31,0,21.13-8.43,21.13-17.16,0-5.86-4.96-9.13-11.11-9.13-9.63,0-21.13,8.14-21.13,17.27"/><path d="M1526.17,828.67c0,4.26,3.07,9.02,11.11,9.02,10.31,0,21.13-8.43,21.13-17.16,0-5.86-4.96-9.13-11.11-9.13-9.63,0-21.13,8.14-21.13,17.27"/><path d="M1612.27,841.07c0,4.26,3.07,9.02,11.11,9.02,10.31,0,21.13-8.43,21.13-17.16,0-5.86-4.96-9.13-11.11-9.13-9.63,0-21.13,8.14-21.13,17.27"/><path d="M1778.11,853.47c0,4.26,3.07,9.02,11.11,9.02,10.31,0,21.13-8.43,21.13-17.16,0-5.86-4.96-9.13-11.11-9.13-9.63,0-21.13,8.14-21.13,17.27"/><path d="M1864.21,865.87c0,4.26,3.07,9.02,11.11,9.02,10.31,0,21.13-8.43,21.13-17.16,0-5.86-4.96-9.13-11.11-9.13-9.63,0-21.13,8.14-21.13,17.27"/><path d="M1950.3,853.47c0,4.26,3.07,9.02,11.11,9.02,10.31,0,21.13-8.43,21.13-17.16,0-5.86-4.96-9.13-11.11-9.13-9.63,0-21.13,8.14-21.13,17.27"/><path d="M2036.39,841.07c0,4.26,3.07,9.02,11.11,9.02,10.31,0,21.13-8.43,21.13-17.16,0-5.86-4.96-9.13-11.11-9.13-9.63,0-21.13,8.14-21.13,17.27"/><path d="M2122.49,853.47c0,4.26,3.07,9.02,11.11,9.02,10.31,0,21.13-8.43,21.13-17.16,0-5.86-4.96-9.13-11.11-9.13-9.63,0-21.13,8.14-21.13,17.27"/><path d="M2309.46,848.6c-9.63,0-21.13,8.04-21.13,17.27,0,4.26,3.07,9.02,11.11,9.02,10.31,0,21.13-8.43,21.13-17.16,0-5.86-4.96-9.13-11.11-9.13m-13.69,21.62c-3.27,0-3.97-2.67-3.97-3.57,0-4.87,16.66-13.39,21.33-13.39,2.39,0,3.97,1.4,3.97,3.57,0,4.96-16.77,13.39-21.33,13.39"/><path d="M30.8,170.83c0,6.56,4.96,15.19,18.35,15.19,4.67,0,8.74-1.19,12.31-3.38,5.36-3.77,6.74-10.32,6.74-16.57,0-3.86-.59-8.32-1.58-13.98-.29-1.98-.9-4.96-1.49-8.84,9.72-3.18,16.96-13.3,16.96-23.51,0-14.97-10.62-25.09-25.09-25.09-.99-5.95-1.98-11.81-2.77-17.36,10.42-11.02,17.65-23.42,17.65-39.18,0-9.04-2.77-16.37-4.37-19.95-2.37-5.05-5.25-8.53-7.04-8.53-.7,0-3.77,1.19-7.04,5.05-6.36,7.55-8.14,20.24-8.14,28.57,0,5.36,.5,10.23,2.19,21.34-.11,.09-5.27,5.35-7.35,7.04-9.04,8.34-21.53,20.43-21.53,40.28,0,18.54,16.17,33.12,34.63,33.12,2.87,0,5.55-.29,7.83-.7,1.89,9.53,3.08,16.48,3.08,21.73,0,10.32-5.36,15.78-15.38,15.78-2.39,0-4.46-.5-4.67-.5-.09-.11-.29-.2-.29-.29,0-.2,.2-.31,.5-.31,4.67-.79,9.32-4.76,9.32-11.1,0-5.36-4.06-11.02-11.5-11.02-6.94,0-11.31,5.66-11.31,12.2M51.54,38.39c.9-3.97,5.46-14.38,10.62-14.38,1.49,0,3.86,4.76,3.86,11.7,0,10.32-7.63,18.06-14.48,24.8-.59-3.97-1.08-7.83-1.08-12,0-3.67,.29-7.05,1.08-10.12m8.73,101.97c-1.98,.4-3.86,.6-5.75,.6-14.18,0-26.29-9.92-26.29-24.91,0-12.09,8.53-22.91,17.27-30.46,1.67-1.49,3.27-2.87,4.76-4.36,.88,5.35,1.58,10.01,2.28,14.09-9.04,2.68-15.17,12.2-15.17,21.53,0,6.94,5.46,16.46,13.39,16.46,.79,0,1.69-.4,1.69-1.29s-.99-1.39-2.19-2.19c-3.88-2.39-6.06-4.96-6.06-9.83,0-6.05,4.57-10.91,10.32-12.29l5.75,32.63m14.09-18.35c0,7.05-2.88,14.29-9.92,17.17-2.08-11.9-4.76-27.68-5.46-32.05,8.93,0,15.38,6.06,15.38,14.88"/><path d="M30.8,838.19c0,6.56,4.96,15.19,18.35,15.19,4.67,0,8.74-1.19,12.31-3.38,5.36-3.77,6.74-10.32,6.74-16.57,0-3.86-.59-8.32-1.58-13.98-.29-1.98-.9-4.96-1.49-8.84,9.72-3.18,16.96-13.3,16.96-23.51,0-14.97-10.62-25.09-25.09-25.09-.99-5.95-1.98-11.81-2.77-17.36,10.42-11.02,17.65-23.42,17.65-39.18,0-9.04-2.77-16.37-4.37-19.95-2.37-5.05-5.25-8.53-7.04-8.53-.7,0-3.77,1.19-7.04,5.05-6.36,7.55-8.14,20.24-8.14,28.57,0,5.36,.5,10.23,2.19,21.34-.11,.09-5.27,5.35-7.35,7.04-9.04,8.34-21.53,20.43-21.53,40.28,0,18.54,16.17,33.12,34.63,33.12,2.87,0,5.55-.29,7.83-.7,1.89,9.53,3.08,16.48,3.08,21.73,0,10.32-5.36,15.78-15.38,15.78-2.39,0-4.46-.5-4.67-.5-.09-.11-.29-.2-.29-.29,0-.2,.2-.31,.5-.31,4.67-.79,9.32-4.76,9.32-11.1,0-5.36-4.06-11.02-11.5-11.02-6.94,0-11.31,5.66-11.31,12.2m20.74-132.43c.9-3.97,5.46-14.38,10.62-14.38,1.49,0,3.86,4.76,3.86,11.7,0,10.32-7.63,18.06-14.48,24.8-.59-3.97-1.08-7.83-1.08-12,0-3.67,.29-7.05,1.08-10.12m8.73,101.97c-1.98,.4-3.86,.6-5.75,.6-14.18,0-26.29-9.92-26.29-24.91,0-12.09,8.53-22.91,17.27-30.46,1.67-1.49,3.27-2.87,4.76-4.36,.88,5.35,1.58,10.01,2.28,14.09-9.04,2.68-15.17,12.2-15.17,21.53,0,6.94,5.46,16.46,13.39,16.46,.79,0,1.69-.4,1.69-1.29s-.99-1.39-2.19-2.19c-3.88-2.39-6.06-4.96-6.06-9.83,0-6.05,4.57-10.91,10.32-12.29l5.75,32.63m14.09-18.35c0,7.05-2.88,14.29-9.92,17.17-2.08-11.9-4.76-27.68-5.46-32.05,8.93,0,15.38,6.06,15.38,14.88"/><path d="M30.8,504.51c0,6.56,4.96,15.19,18.35,15.19,4.67,0,8.74-1.19,12.31-3.38,5.36-3.77,6.74-10.32,6.74-16.57,0-3.86-.59-8.32-1.58-13.98-.29-1.98-.9-4.96-1.49-8.84,9.72-3.18,16.96-13.3,16.96-23.51,0-14.97-10.62-25.09-25.09-25.09-.99-5.95-1.98-11.81-2.77-17.36,10.42-11.02,17.65-23.42,17.65-39.18,0-9.04-2.77-16.37-4.37-19.95-2.37-5.05-5.25-8.53-7.04-8.53-.7,0-3.77,1.19-7.04,5.05-6.36,7.55-8.14,20.24-8.14,28.57,0,5.36,.5,10.23,2.19,21.34-.11,.09-5.27,5.35-7.35,7.04-9.04,8.34-21.53,20.43-21.53,40.28,0,18.54,16.17,33.12,34.63,33.12,2.87,0,5.55-.29,7.83-.7,1.89,9.53,3.08,16.48,3.08,21.73,0,10.32-5.36,15.78-15.38,15.78-2.39,0-4.46-.5-4.67-.5-.09-.11-.29-.2-.29-.29,0-.2,.2-.31,.5-.31,4.67-.79,9.32-4.76,9.32-11.1,0-5.36-4.06-11.02-11.5-11.02-6.94,0-11.31,5.66-11.31,12.2m20.74-132.43c.9-3.97,5.46-14.38,10.62-14.38,1.49,0,3.86,4.76,3.86,11.7,0,10.32-7.63,18.06-14.48,24.8-.59-3.97-1.08-7.83-1.08-12,0-3.67,.29-7.05,1.08-10.12m8.73,101.97c-1.98,.4-3.86,.6-5.75,.6-14.18,0-26.29-9.92-26.29-24.91,0-12.09,8.53-22.91,17.27-30.46,1.67-1.49,3.27-2.87,4.76-4.36,.88,5.35,1.58,10.01,2.28,14.09-9.04,2.68-15.17,12.2-15.17,21.53,0,6.94,5.46,16.46,13.39,16.46,.79,0,1.69-.4,1.69-1.29s-.99-1.39-2.19-2.19c-3.88-2.39-6.06-4.96-6.06-9.83,0-6.05,4.57-10.91,10.32-12.29l5.75,32.63m14.09-18.35c0,7.05-2.88,14.29-9.92,17.17-2.08-11.9-4.76-27.68-5.46-32.05,8.93,0,15.38,6.06,15.38,14.88"/><path d="M129.99,35.12c.6-.09,1.1-.79,1.1-1.4v-5.84c0-.99-.7-1.39-1.6-1.39l-3.27,.7V12.4h-2.77v15.38l-8.83,1.8V15.58h-2.77v14.59l-3.88,.79c-.59,.11-1.09,.79-1.09,1.39v5.75c0,1.09,.79,1.4,1.69,1.4l3.27-.7v16.37l-3.88,.79c-.59,.09-1.09,.79-1.09,1.4v5.75c0,1.09,.79,1.38,1.69,1.38l3.27-.68v14.77h2.77v-15.38l8.83-1.78v14h2.77v-14.59l3.77-.7c.6-.11,1.1-.79,1.1-1.39v-5.84c0-.99-.7-1.4-1.6-1.4l-3.27,.7v-16.37l3.77-.7m-15.38,3.07l8.83-1.78v16.37l-8.83,1.89v-16.48"/><path d="M157.16,72.32c.6-.09,1.1-.79,1.1-1.4v-5.84c0-.99-.7-1.39-1.6-1.39l-3.27,.7v-14.79h-2.77v15.38l-8.83,1.8v-14h-2.77v14.59l-3.88,.79c-.59,.11-1.09,.79-1.09,1.39v5.75c0,1.09,.79,1.4,1.69,1.4l3.27-.7v16.37l-3.88,.79c-.59,.09-1.09,.79-1.09,1.4v5.75c0,1.09,.79,1.38,1.69,1.38l3.27-.68v14.77h2.77v-15.38l8.83-1.78v14h2.77v-14.59l3.77-.7c.6-.11,1.1-.79,1.1-1.39v-5.84c0-.99-.7-1.4-1.6-1.4l-3.27,.7v-16.37l3.77-.7m-15.38,3.07l8.83-1.78v16.37l-8.83,1.89v-16.48"/><path d="M184.33,22.72c.6-.09,1.1-.79,1.1-1.4v-5.84c0-.99-.7-1.39-1.6-1.39l-3.27,.7V0h-2.77V15.38l-8.83,1.8V3.18h-2.77v14.59l-3.88,.79c-.59,.11-1.09,.79-1.09,1.39v5.75c0,1.09,.79,1.4,1.69,1.4l3.27-.7v16.37l-3.88,.79c-.59,.09-1.09,.79-1.09,1.4v5.75c0,1.09,.79,1.38,1.69,1.38l3.27-.68v14.77h2.77v-15.38l8.83-1.78v14h2.77v-14.59l3.77-.7c.6-.11,1.1-.79,1.1-1.39v-5.84c0-.99-.7-1.4-1.6-1.4l-3.27,.7V23.42l3.77-.7m-15.38,3.07l8.83-1.78v16.37l-8.83,1.89V25.79"/><path d="M129.99,702.48c.6-.09,1.1-.79,1.1-1.4v-5.84c0-.99-.7-1.39-1.6-1.39l-3.27,.7v-14.79h-2.77v15.38l-8.83,1.8v-14h-2.77v14.59l-3.88,.79c-.59,.11-1.09,.79-1.09,1.39v5.75c0,1.09,.79,1.4,1.69,1.4l3.27-.7v16.37l-3.88,.79c-.59,.09-1.09,.79-1.09,1.4v5.75c0,1.09,.79,1.38,1.69,1.38l3.27-.68v14.77h2.77v-15.38l8.83-1.78v14h2.77v-14.59l3.77-.7c.6-.11,1.1-.79,1.1-1.39v-5.84c0-.99-.7-1.4-1.6-1.4l-3.27,.7v-16.37l3.77-.7m-15.38,3.07l8.83-1.78v16.37l-8.83,1.89v-16.48"/><path d="M157.16,739.68c.6-.09,1.1-.79,1.1-1.4v-5.84c0-.99-.7-1.39-1.6-1.39l-3.27,.7v-14.79h-2.77v15.38l-8.83,1.8v-14h-2.77v14.59l-3.88,.79c-.59,.11-1.09,.79-1.09,1.39v5.75c0,1.09,.79,1.4,1.69,1.4l3.27-.7v16.37l-3.88,.79c-.59,.09-1.09,.79-1.09,1.4v5.75c0,1.09,.79,1.38,1.69,1.38l3.27-.68v14.77h2.77v-15.38l8.83-1.78v14h2.77v-14.59l3.77-.7c.6-.11,1.1-.79,1.1-1.39v-5.84c0-.99-.7-1.4-1.6-1.4l-3.27,.7v-16.37l3.77-.7m-15.38,3.07l8.83-1.78v16.37l-8.83,1.89v-16.48"/><path d="M184.33,690.08c.6-.09,1.1-.79,1.1-1.4v-5.84c0-.99-.7-1.39-1.6-1.39l-3.27,.7v-14.79h-2.77v15.38l-8.83,1.8v-14h-2.77v14.59l-3.88,.79c-.59,.11-1.09,.79-1.09,1.39v5.75c0,1.09,.79,1.4,1.69,1.4l3.27-.7v16.37l-3.88,.79c-.59,.09-1.09,.79-1.09,1.4v5.75c0,1.09,.79,1.38,1.69,1.38l3.27-.68v14.77h2.77v-15.38l8.83-1.78v14h2.77v-14.59l3.77-.7c.6-.11,1.1-.79,1.1-1.39v-5.84c0-.99-.7-1.4-1.6-1.4l-3.27,.7v-16.37l3.77-.7m-15.38,3.07l8.83-1.78v16.37l-8.83,1.89v-16.48"/><path d="M129.99,368.8c.6-.09,1.1-.79,1.1-1.4v-5.84c0-.99-.7-1.39-1.6-1.39l-3.27,.7v-14.79h-2.77v15.38l-8.83,1.8v-14h-2.77v14.59l-3.88,.79c-.59,.11-1.09,.79-1.09,1.39v5.75c0,1.09,.79,1.4,1.69,1.4l3.27-.7v16.37l-3.88,.79c-.59,.09-1.09,.79-1.09,1.4v5.75c0,1.09,.79,1.38,1.69,1.38l3.27-.68v14.77h2.77v-15.38l8.83-1.78v14h2.77v-14.59l3.77-.7c.6-.11,1.1-.79,1.1-1.39v-5.84c0-.99-.7-1.4-1.6-1.4l-3.27,.7v-16.37l3.77-.7m-15.38,3.07l8.83-1.78v16.37l-8.83,1.89v-16.48"/><path d="M157.16,406c.6-.09,1.1-.79,1.1-1.4v-5.84c0-.99-.7-1.39-1.6-1.39l-3.27,.7v-14.79h-2.77v15.38l-8.83,1.8v-14h-2.77v14.59l-3.88,.79c-.59,.11-1.09,.79-1.09,1.39v5.75c0,1.09,.79,1.4,1.69,1.4l3.27-.7v16.37l-3.88,.79c-.59,.09-1.09,.79-1.09,1.4v5.75c0,1.09,.79,1.38,1.69,1.38l3.27-.68v14.77h2.77v-15.38l8.83-1.78v14h2.77v-14.59l3.77-.7c.6-.11,1.1-.79,1.1-1.39v-5.84c0-.99-.7-1.4-1.6-1.4l-3.27,.7v-16.37l3.77-.7m-15.38,3.07l8.83-1.78v16.37l-8.83,1.89v-16.48"/><path d="M184.33,356.4c.6-.09,1.1-.79,1.1-1.4v-5.84c0-.99-.7-1.39-1.6-1.39l-3.27,.7v-14.79h-2.77v15.38l-8.83,1.8v-14h-2.77v14.59l-3.88,.79c-.59,.11-1.09,.79-1.09,1.39v5.75c0,1.09,.79,1.4,1.69,1.4l3.27-.7v16.37l-3.88,.79c-.59,.09-1.09,.79-1.09,1.4v5.75c0,1.09,.79,1.38,1.69,1.38l3.27-.68v14.77h2.77v-15.38l8.83-1.78v14h2.77v-14.59l3.77-.7c.6-.11,1.1-.79,1.1-1.39v-5.84c0-.99-.7-1.4-1.6-1.4l-3.27,.7v-16.37l3.77-.7m-15.38,3.07l8.83-1.78v16.37l-8.83,1.89v-16.48"/><path d="M969.73,366.82c9.13-6.36,13.28-12.6,13.28-19.75,0-7.53-4.36-12.11-11.01-12.11-4.76,0-7.94,3.38-7.94,7.35,0,4.26,3.67,7.55,7.94,7.55,2.88,0,4.26-.7,4.56-.81,.31-.09,.5-.19,.81-.19,.09,0,.29,0,.39,.09,.2,.09,.29,.4,.29,.99,0,4.26-3.86,9.13-10.71,13.89l2.39,2.98"/><path d="M2327.18,674.71c-9.32-10.12-17.56-10.71-22.71-10.71s-13.3,.59-22.63,10.71c-4.85,5.36-8.23,15.97-8.23,21.33,0,1.89,.4,3.18,1.4,3.18,2.77,0,1.38-8.54,9.72-16.97,7.33-7.33,17.16-7.44,19.55-7.44h.39c2.39,0,12.21,.11,19.55,7.44,8.34,8.43,6.94,16.97,9.72,16.97,.99,0,1.39-1.19,1.39-3.18,0-5.36-3.27-16.07-8.14-21.33m-29.56,18.94c0,3.78,3.07,6.85,6.85,6.85s6.84-3.07,6.84-6.85-3.07-6.84-6.84-6.84-6.85,3.07-6.85,6.84"/><path d="M1247.55,354.41l89.13-6.2v12.43l-89.13,6.2v-12.43" fill-rule="evenodd"/><path d="M666.66,95.11l66.62-6.2v12.46l-66.62,6.2v-12.46" fill-rule="evenodd"/><path d="M1587.51,373.01l89.12,6.2v12.43l-89.12-6.2v-12.43" fill-rule="evenodd"/><path d="M794.94,88.91l66.62,6.2v12.46l-66.62-6.2v-12.46" fill-rule="evenodd"/><path d="M1760.8,373.01l89.12-6.2v12.43l-89.12,6.2v-12.43" fill-rule="evenodd"/><path d="M2100.75,391.61l89.13,6.2v12.43l-89.13-6.2v-12.43" fill-rule="evenodd"/><path d="M1056.13,88.91l66.62-6.2v12.46l-66.62,6.2v-12.46" fill-rule="evenodd"/><path d="M2274.04,379.21l89.12-6.2v12.43l-89.12,6.2v-12.43" fill-rule="evenodd"/><path d="M1184.4,88.91l66.62,6.2v12.46l-66.62-6.2v-12.46" fill-rule="evenodd"/><path d="M277.19,731.49l88.57,6.2v12.43l-88.57-6.2v-12.43" fill-rule="evenodd"/><path d="M449.38,731.49l88.57-6.2v12.43l-88.57,6.2v-12.43" fill-rule="evenodd"/><path d="M1445.59,70.31l66.62-6.2v12.46l-66.62,6.2v-12.46" fill-rule="evenodd"/><path d="M787.42,750.09l88.57,6.2v12.43l-88.57-6.2v-12.43" fill-rule="evenodd"/><path d="M1573.87,82.71l66.62,6.2v12.46l-66.62-6.2v-12.46" fill-rule="evenodd"/><path d="M959.61,737.69l88.57-6.2v12.43l-88.57,6.2v-12.43" fill-rule="evenodd"/><path d="M1835.06,64.11l66.62-6.2v12.46l-66.62,6.2v-12.46" fill-rule="evenodd"/><path d="M1297.64,756.29l88.57,6.2v12.43l-88.57-6.2v-12.43" fill-rule="evenodd"/><path d="M1963.34,64.11l66.62,6.2v12.46l-66.62-6.2v-12.46" fill-rule="evenodd"/><path d="M1469.83,756.29l88.57-6.2v12.43l-88.57,6.2v-12.43" fill-rule="evenodd"/><path d="M2224.53,45.51l66.62-6.2v12.46l-66.62,6.2v-12.46" fill-rule="evenodd"/><path d="M1807.86,756.29l88.58,6.2v12.43l-88.58-6.2v-12.43" fill-rule="evenodd"/><path d="M2352.81,57.91l66.61,6.2v12.46l-66.61-6.2v-12.46" fill-rule="evenodd"/><path d="M1980.05,762.49l88.58-6.2v12.43l-88.58,6.2v-12.43" fill-rule="evenodd"/><path d="M405.47,88.91l66.62,6.2v12.46l-66.62-6.2v-12.46" fill-rule="evenodd"/><path d="M1074.27,366.81l89.12,6.2v12.43l-89.12-6.2v-12.43" fill-rule="evenodd"/><path d="M277.19,95.11l66.62-6.2v12.46l-66.62,6.2v-12.46" fill-rule="evenodd"/><path d="M277.19,373.01l89.12-6.2v12.43l-89.12,6.2v-12.43" fill-rule="evenodd"/><path d="M450.48,373.01l89.12,6.2v12.43l-89.12-6.2v-12.43" fill-rule="evenodd"/><path d="M805.32,441.22c0,2.77,2.19,4.96,4.96,4.96s4.96-2.19,4.96-4.96-2.19-4.96-4.96-4.96-4.96,2.19-4.96,4.96"/><path d="M2332.97,849.3c0,2.77,2.19,4.96,4.96,4.96s4.96-2.19,4.96-4.96-2.19-4.96-4.96-4.96-4.96,2.19-4.96,4.96"/></g></svg>