<?xml version="1.0" encoding="UTF-8"?><svg id="b" xmlns="http://www.w3.org/2000/svg" viewBox="0 0 2552 518.41"><g id="c"><line y1="44.25" x2="2520.43" y2="44.25" fill="none" stroke="#000" stroke-linejoin="bevel" stroke-width="2.73"/><line y1="69.05" x2="2520.43" y2="69.05" fill="none" stroke="#000" stroke-linejoin="bevel" stroke-width="2.73"/><line y1="93.85" x2="2520.43" y2="93.85" fill="none" stroke="#000" stroke-linejoin="bevel" stroke-width="2.73"/><line y1="118.65" x2="2520.43" y2="118.65" fill="none" stroke="#000" stroke-linejoin="bevel" stroke-width="2.73"/><line y1="143.45" x2="2520.43" y2="143.45" fill="none" stroke="#000" stroke-linejoin="bevel" stroke-width="2.73"/><line y1="377.93" x2="2552" y2="377.93" fill="none" stroke="#000" stroke-linejoin="bevel" stroke-width="2.73"/><line y1="402.73" x2="2552" y2="402.73" fill="none" stroke="#000" stroke-linejoin="bevel" stroke-width="2.73"/><line y1="427.53" x2="2552" y2="427.53" fill="none" stroke="#000" stroke-linejoin="bevel" stroke-width="2.73"/><line y1="452.33" x2="2552" y2="452.33" fill="none" stroke="#000" stroke-linejoin="bevel" stroke-width="2.73"/><line y1="477.13" x2="2552" y2="477.13" fill="none" stroke="#000" stroke-linejoin="bevel" stroke-width="2.73"/><line x1="2536.13" y1="376.57" x2="2536.13" y2="478.49" fill="none" stroke="#000" stroke-linejoin="bevel" stroke-width="4.46"/><line x1="2549.77" y1="376.57" x2="2549.77" y2="478.49" fill="none" stroke="#000" stroke-linejoin="bevel" stroke-width="4.46"/><line x1="2518.2" y1="42.89" x2="2518.2" y2="144.81" fill="none" stroke="#000" stroke-linejoin="bevel" stroke-width="4.46"/><line x1="777.52" y1="42.89" x2="777.52" y2="144.81" fill="none" stroke="#000" stroke-linejoin="bevel" stroke-width="4.46"/><line x1="2037.7" y1="376.57" x2="2037.7" y2="478.49" fill="none" stroke="#000" stroke-linejoin="bevel" stroke-width="4.46"/><line x1="782.26" y1="376.57" x2="782.26" y2="478.49" fill="none" stroke="#000" stroke-linejoin="bevel" stroke-width="4.46"/><line x1="1409.98" y1="376.57" x2="1409.98" y2="478.49" fill="none" stroke="#000" stroke-linejoin="bevel" stroke-width="4.46"/><line x1="1400.49" y1="42.89" x2="1400.49" y2="144.81" fill="none" stroke="#000" stroke-linejoin="bevel" stroke-width="4.46"/><line x1="2023.47" y1="42.89" x2="2023.47" y2="144.81" fill="none" stroke="#000" stroke-linejoin="bevel" stroke-width="4.46"/><line x1="559.64" y1="406.9" x2="559.64" y2="483.33" fill="none" stroke="#000" stroke-linejoin="bevel" stroke-width="2.48"/><line x1="633.52" y1="419.3" x2="633.52" y2="483.33" fill="none" stroke="#000" stroke-linejoin="bevel" stroke-width="2.48"/><line x1="707.39" y1="394.5" x2="707.39" y2="483.33" fill="none" stroke="#000" stroke-linejoin="bevel" stroke-width="2.48"/><line x1="817.97" y1="406.9" x2="817.97" y2="495.73" fill="none" stroke="#000" stroke-linejoin="bevel" stroke-width="2.48"/><line x1="891.85" y1="419.3" x2="891.85" y2="495.73" fill="none" stroke="#000" stroke-linejoin="bevel" stroke-width="2.48"/><line x1="965.73" y1="431.7" x2="965.73" y2="495.73" fill="none" stroke="#000" stroke-linejoin="bevel" stroke-width="2.48"/><line x1="1039.6" y1="406.9" x2="1039.6" y2="495.73" fill="none" stroke="#000" stroke-linejoin="bevel" stroke-width="2.48"/><line x1="1326.22" y1="98.02" x2="1326.22" y2="162.05" fill="none" stroke="#000" stroke-linejoin="bevel" stroke-width="2.48"/><line x1="1113.48" y1="419.3" x2="1113.48" y2="508.13" fill="none" stroke="#000" stroke-linejoin="bevel" stroke-width="2.48"/><line x1="1187.36" y1="431.7" x2="1187.36" y2="508.13" fill="none" stroke="#000" stroke-linejoin="bevel" stroke-width="2.48"/><line x1="1261.23" y1="444.1" x2="1261.23" y2="508.13" fill="none" stroke="#000" stroke-linejoin="bevel" stroke-width="2.48"/><line x1="1335.11" y1="419.3" x2="1335.11" y2="508.13" fill="none" stroke="#000" stroke-linejoin="bevel" stroke-width="2.48"/><line x1="1475.44" y1="423.56" x2="1475.44" y2="359.33" fill="none" stroke="#000" stroke-linejoin="bevel" stroke-width="2.48"/><line x1="1549.32" y1="435.96" x2="1549.32" y2="359.33" fill="none" stroke="#000" stroke-linejoin="bevel" stroke-width="2.48"/><line x1="1623.2" y1="448.36" x2="1623.2" y2="359.33" fill="none" stroke="#000" stroke-linejoin="bevel" stroke-width="2.48"/><line x1="1697.07" y1="423.56" x2="1697.07" y2="359.33" fill="none" stroke="#000" stroke-linejoin="bevel" stroke-width="2.48"/><line x1="1770.95" y1="435.96" x2="1770.95" y2="371.73" fill="none" stroke="#000" stroke-linejoin="bevel" stroke-width="2.48"/><line x1="1252.93" y1="73.22" x2="1252.93" y2="162.05" fill="none" stroke="#000" stroke-linejoin="bevel" stroke-width="2.48"/><line x1="1844.83" y1="448.36" x2="1844.83" y2="371.73" fill="none" stroke="#000" stroke-linejoin="bevel" stroke-width="2.48"/><line x1="1918.7" y1="460.76" x2="1918.7" y2="371.73" fill="none" stroke="#000" stroke-linejoin="bevel" stroke-width="2.48"/><line x1="1992.58" y1="435.96" x2="1992.58" y2="371.73" fill="none" stroke="#000" stroke-linejoin="bevel" stroke-width="2.48"/><line x1="2103.16" y1="448.36" x2="2103.16" y2="377.93" fill="none" stroke="#000" stroke-linejoin="bevel" stroke-width="2.48"/><line x1="2177.04" y1="460.76" x2="2177.04" y2="377.93" fill="none" stroke="#000" stroke-linejoin="bevel" stroke-width="2.48"/><line x1="2250.91" y1="473.16" x2="2250.91" y2="377.93" fill="none" stroke="#000" stroke-linejoin="bevel" stroke-width="2.48"/><line x1="2324.79" y1="448.36" x2="2324.79" y2="377.93" fill="none" stroke="#000" stroke-linejoin="bevel" stroke-width="2.48"/><line x1="2398.67" y1="460.76" x2="2398.67" y2="377.93" fill="none" stroke="#000" stroke-linejoin="bevel" stroke-width="2.48"/><line x1="1179.65" y1="85.62" x2="1179.65" y2="162.05" fill="none" stroke="#000" stroke-linejoin="bevel" stroke-width="2.48"/><line x1="1106.36" y1="98.02" x2="1106.36" y2="162.05" fill="none" stroke="#000" stroke-linejoin="bevel" stroke-width="2.48"/><line x1="1033.08" y1="110.42" x2="1033.08" y2="174.45" fill="none" stroke="#000" stroke-linejoin="bevel" stroke-width="2.48"/><line x1="959.8" y1="85.62" x2="959.8" y2="174.45" fill="none" stroke="#000" stroke-linejoin="bevel" stroke-width="2.48"/><line x1="886.51" y1="98.02" x2="886.51" y2="174.45" fill="none" stroke="#000" stroke-linejoin="bevel" stroke-width="2.48"/><line x1="813.23" y1="110.42" x2="813.23" y2="174.45" fill="none" stroke="#000" stroke-linejoin="bevel" stroke-width="2.48"/><line x1="733" y1="114.68" x2="733" y2="25.65" fill="none" stroke="#000" stroke-linejoin="bevel" stroke-width="2.48"/><line x1="659.71" y1="89.88" x2="659.71" y2="25.65" fill="none" stroke="#000" stroke-linejoin="bevel" stroke-width="2.48"/><line x1="586.43" y1="102.28" x2="586.43" y2="25.65" fill="none" stroke="#000" stroke-linejoin="bevel" stroke-width="2.48"/><line x1="513.14" y1="114.68" x2="513.14" y2="25.65" fill="none" stroke="#000" stroke-linejoin="bevel" stroke-width="2.48"/><line x1="439.86" y1="127.08" x2="439.86" y2="38.05" fill="none" stroke="#000" stroke-linejoin="bevel" stroke-width="2.48"/><line x1="366.58" y1="102.28" x2="366.58" y2="38.05" fill="none" stroke="#000" stroke-linejoin="bevel" stroke-width="2.48"/><line x1="293.29" y1="114.68" x2="293.29" y2="38.05" fill="none" stroke="#000" stroke-linejoin="bevel" stroke-width="2.48"/><line x1="220.01" y1="127.08" x2="220.01" y2="38.05" fill="none" stroke="#000" stroke-linejoin="bevel" stroke-width="2.48"/><line x1="1436.2" y1="85.62" x2="1436.2" y2="149.65" fill="none" stroke="#000" stroke-linejoin="bevel" stroke-width="2.48"/><line x1="1509.49" y1="73.22" x2="1509.49" y2="149.65" fill="none" stroke="#000" stroke-linejoin="bevel" stroke-width="2.48"/><line x1="1582.77" y1="60.82" x2="1582.77" y2="149.65" fill="none" stroke="#000" stroke-linejoin="bevel" stroke-width="2.48"/><line x1="1656.06" y1="85.62" x2="1656.06" y2="149.65" fill="none" stroke="#000" stroke-linejoin="bevel" stroke-width="2.48"/><line x1="1729.34" y1="73.22" x2="1729.34" y2="143.45" fill="none" stroke="#000" stroke-linejoin="bevel" stroke-width="2.48"/><line x1="1802.62" y1="60.82" x2="1802.62" y2="143.45" fill="none" stroke="#000" stroke-linejoin="bevel" stroke-width="2.48"/><line x1="1875.91" y1="48.42" x2="1875.91" y2="143.45" fill="none" stroke="#000" stroke-linejoin="bevel" stroke-width="2.48"/><line x1="1949.19" y1="73.22" x2="1949.19" y2="143.45" fill="none" stroke="#000" stroke-linejoin="bevel" stroke-width="2.48"/><line x1="2059.18" y1="60.82" x2="2059.18" y2="137.25" fill="none" stroke="#000" stroke-linejoin="bevel" stroke-width="2.48"/><line x1="2132.46" y1="48.42" x2="2132.46" y2="137.25" fill="none" stroke="#000" stroke-linejoin="bevel" stroke-width="2.48"/><line x1="2205.75" y1="36.02" x2="2205.75" y2="137.25" fill="none" stroke="#000" stroke-linejoin="bevel" stroke-width="2.48"/><line x1="2279.03" y1="60.82" x2="2279.03" y2="137.25" fill="none" stroke="#000" stroke-linejoin="bevel" stroke-width="2.48"/><line x1="2352.32" y1="48.42" x2="2352.32" y2="131.05" fill="none" stroke="#000" stroke-linejoin="bevel" stroke-width="2.48"/><line x1="190.25" y1="382.1" x2="190.25" y2="477.13" fill="none" stroke="#000" stroke-linejoin="bevel" stroke-width="2.48"/><line x1="264.13" y1="394.5" x2="264.13" y2="477.13" fill="none" stroke="#000" stroke-linejoin="bevel" stroke-width="2.48"/><line x1="338.01" y1="406.9" x2="338.01" y2="477.13" fill="none" stroke="#000" stroke-linejoin="bevel" stroke-width="2.48"/><line x1="411.89" y1="382.1" x2="411.89" y2="477.13" fill="none" stroke="#000" stroke-linejoin="bevel" stroke-width="2.48"/><line x1="485.76" y1="394.5" x2="485.76" y2="483.33" fill="none" stroke="#000" stroke-linejoin="bevel" stroke-width="2.48"/><path d="M1324.98,98.02c0,4.26,3.07,9.02,11.11,9.02,10.31,0,21.13-8.43,21.13-17.16,0-5.86-4.96-9.13-11.11-9.13-9.63,0-21.13,8.14-21.13,17.27"/><path d="M1251.69,73.22c0,4.26,3.07,9.02,11.11,9.02,10.31,0,21.13-8.43,21.13-17.16,0-5.86-4.96-9.13-11.11-9.13-9.63,0-21.13,8.14-21.13,17.27"/><path d="M1178.41,85.62c0,4.26,3.07,9.02,11.11,9.02,10.31,0,21.13-8.43,21.13-17.16,0-5.86-4.96-9.13-11.11-9.13-9.63,0-21.13,8.14-21.13,17.27"/><path d="M1105.12,98.02c0,4.26,3.07,9.02,11.11,9.02,10.31,0,21.13-8.43,21.13-17.16,0-5.86-4.96-9.13-11.11-9.13-9.63,0-21.13,8.14-21.13,17.27"/><path d="M1031.84,110.42c0,4.26,3.07,9.02,11.11,9.02,10.31,0,21.13-8.43,21.13-17.16,0-5.86-4.96-9.13-11.11-9.13-9.63,0-21.13,8.14-21.13,17.27"/><path d="M958.56,85.62c0,4.26,3.07,9.02,11.11,9.02,10.31,0,21.13-8.43,21.13-17.16,0-5.86-4.96-9.13-11.11-9.13-9.63,0-21.13,8.14-21.13,17.27"/><path d="M885.27,98.02c0,4.26,3.07,9.02,11.11,9.02,10.31,0,21.13-8.43,21.13-17.16,0-5.86-4.96-9.13-11.11-9.13-9.63,0-21.13,8.14-21.13,17.27"/><path d="M811.99,110.42c0,4.26,3.07,9.02,11.11,9.02,10.31,0,21.13-8.43,21.13-17.16,0-5.86-4.96-9.13-11.11-9.13-9.63,0-21.13,8.14-21.13,17.27"/><path d="M1592.2,456.5c0,4.26,3.07,9.02,11.11,9.02,10.31,0,21.13-8.43,21.13-17.16,0-5.86-4.96-9.13-11.11-9.13-9.63,0-21.13,8.14-21.13,17.27"/><path d="M702,122.82c0,4.26,3.07,9.02,11.11,9.02,10.31,0,21.13-8.43,21.13-17.16,0-5.86-4.96-9.13-11.11-9.13-9.63,0-21.13,8.14-21.13,17.27"/><path d="M628.72,98.02c0,4.26,3.07,9.02,11.11,9.02,10.31,0,21.13-8.43,21.13-17.16,0-5.86-4.96-9.13-11.11-9.13-9.63,0-21.13,8.14-21.13,17.27"/><path d="M555.44,110.42c0,4.26,3.07,9.02,11.11,9.02,10.31,0,21.13-8.43,21.13-17.16,0-5.86-4.96-9.13-11.11-9.13-9.63,0-21.13,8.14-21.13,17.27"/><path d="M1728.1,73.22c0,4.26,3.07,9.02,11.11,9.02,10.31,0,21.13-8.43,21.13-17.16,0-5.86-4.96-9.13-11.11-9.13-9.63,0-21.13,8.14-21.13,17.27"/><path d="M1739.96,444.1c0,4.26,3.07,9.02,11.11,9.02,10.31,0,21.13-8.43,21.13-17.16,0-5.86-4.96-9.13-11.11-9.13-9.63,0-21.13,8.14-21.13,17.27"/><path d="M1813.83,456.5c0,4.26,3.07,9.02,11.11,9.02,10.31,0,21.13-8.43,21.13-17.16,0-5.86-4.96-9.13-11.11-9.13-9.63,0-21.13,8.14-21.13,17.27"/><path d="M1801.38,60.82c0,4.26,3.07,9.02,11.11,9.02,10.31,0,21.13-8.43,21.13-17.16,0-5.86-4.96-9.13-11.11-9.13-9.63,0-21.13,8.14-21.13,17.27"/><path d="M1887.71,468.9c0,4.26,3.07,9.02,11.11,9.02,10.31,0,21.13-8.43,21.13-17.16,0-5.86-4.96-9.13-11.11-9.13-9.63,0-21.13,8.14-21.13,17.27"/><path d="M1961.59,444.1c0,4.26,3.07,9.02,11.11,9.02,10.31,0,21.13-8.43,21.13-17.16,0-5.86-4.96-9.13-11.11-9.13-9.63,0-21.13,8.14-21.13,17.27"/><path d="M1874.67,48.42c0,4.26,3.07,9.02,11.11,9.02,10.31,0,21.13-8.43,21.13-17.16,0-5.86-4.96-9.13-11.11-9.13-9.63,0-21.13,8.14-21.13,17.27"/><path d="M2072.17,456.5c0,4.26,3.07,9.02,11.11,9.02,10.31,0,21.13-8.43,21.13-17.16,0-5.86-4.96-9.13-11.11-9.13-9.63,0-21.13,8.14-21.13,17.27"/><path d="M2146.05,468.9c0,4.26,3.07,9.02,11.11,9.02,10.31,0,21.13-8.43,21.13-17.16,0-5.86-4.96-9.13-11.11-9.13-9.63,0-21.13,8.14-21.13,17.27"/><path d="M1947.95,73.22c0,4.26,3.07,9.02,11.11,9.02,10.31,0,21.13-8.43,21.13-17.16,0-5.86-4.96-9.13-11.11-9.13-9.63,0-21.13,8.14-21.13,17.27"/><path d="M2219.92,481.3c0,4.26,3.07,9.02,11.11,9.02,10.31,0,21.13-8.43,21.13-17.16,0-5.86-4.96-9.13-11.11-9.13-9.63,0-21.13,8.14-21.13,17.27"/><path d="M2293.8,456.5c0,4.26,3.07,9.02,11.11,9.02,10.31,0,21.13-8.43,21.13-17.16,0-5.86-4.96-9.13-11.11-9.13-9.63,0-21.13,8.14-21.13,17.27"/><path d="M2388.81,451.64c-9.63,0-21.13,8.04-21.13,17.27,0,4.26,3.07,9.02,11.11,9.02,10.31,0,21.13-8.43,21.13-17.16,0-5.86-4.96-9.13-11.11-9.13m-13.69,21.62c-3.27,0-3.97-2.67-3.97-3.57,0-4.87,16.66-13.39,21.33-13.39,2.39,0,3.97,1.4,3.97,3.57,0,4.96-16.77,13.39-21.33,13.39"/><path d="M1666.08,431.7c0,4.26,3.07,9.02,11.11,9.02,10.31,0,21.13-8.43,21.13-17.16,0-5.86-4.96-9.13-11.11-9.13-9.63,0-21.13,8.14-21.13,17.27"/><path d="M408.87,135.22c0,4.26,3.07,9.02,11.11,9.02,10.31,0,21.13-8.43,21.13-17.16,0-5.86-4.96-9.13-11.11-9.13-9.63,0-21.13,8.14-21.13,17.27"/><path d="M2057.94,60.82c0,4.26,3.07,9.02,11.11,9.02,10.31,0,21.13-8.43,21.13-17.16,0-5.86-4.96-9.13-11.11-9.13-9.63,0-21.13,8.14-21.13,17.27"/><path d="M2131.22,48.42c0,4.26,3.07,9.02,11.11,9.02,10.31,0,21.13-8.43,21.13-17.16,0-5.86-4.96-9.13-11.11-9.13-9.63,0-21.13,8.14-21.13,17.27"/><path d="M2204.51,36.02c0,4.26,3.07,9.02,11.11,9.02,10.31,0,21.13-8.43,21.13-17.16,0-5.86-4.96-9.13-11.11-9.13-9.63,0-21.13,8.14-21.13,17.27"/><path d="M2277.79,60.82c0,4.26,3.07,9.02,11.11,9.02,10.31,0,21.13-8.43,21.13-17.16,0-5.86-4.96-9.13-11.11-9.13-9.63,0-21.13,8.14-21.13,17.27"/><path d="M2372.21,31.16c-9.63,0-21.13,8.04-21.13,17.27,0,4.26,3.07,9.02,11.11,9.02,10.31,0,21.13-8.43,21.13-17.16,0-5.86-4.96-9.13-11.11-9.13m-13.69,21.62c-3.27,0-3.97-2.67-3.97-3.57,0-4.87,16.66-13.39,21.33-13.39,2.39,0,3.97,1.4,3.97,3.57,0,4.96-16.77,13.39-21.33,13.39"/><path d="M262.3,122.82c0,4.26,3.07,9.02,11.11,9.02,10.31,0,21.13-8.43,21.13-17.16,0-5.86-4.96-9.13-11.11-9.13-9.63,0-21.13,8.14-21.13,17.27"/><path d="M189.01,382.1c0,4.26,3.07,9.02,11.11,9.02,10.31,0,21.13-8.43,21.13-17.16,0-5.86-4.96-9.13-11.11-9.13-9.63,0-21.13,8.14-21.13,17.27"/><path d="M262.89,394.5c0,4.26,3.07,9.02,11.11,9.02,10.31,0,21.13-8.43,21.13-17.16,0-5.86-4.96-9.13-11.11-9.13-9.63,0-21.13,8.14-21.13,17.27"/><path d="M336.77,406.9c0,4.26,3.07,9.02,11.11,9.02,10.31,0,21.13-8.43,21.13-17.16,0-5.86-4.96-9.13-11.11-9.13-9.63,0-21.13,8.14-21.13,17.27"/><path d="M410.65,382.1c0,4.26,3.07,9.02,11.11,9.02,10.31,0,21.13-8.43,21.13-17.16,0-5.86-4.96-9.13-11.11-9.13-9.63,0-21.13,8.14-21.13,17.27"/><path d="M484.52,394.5c0,4.26,3.07,9.02,11.11,9.02,10.31,0,21.13-8.43,21.13-17.16,0-5.86-4.96-9.13-11.11-9.13-9.63,0-21.13,8.14-21.13,17.27"/><path d="M558.4,406.9c0,4.26,3.07,9.02,11.11,9.02,10.31,0,21.13-8.43,21.13-17.16,0-5.86-4.96-9.13-11.11-9.13-9.63,0-21.13,8.14-21.13,17.27"/><path d="M632.28,419.3c0,4.26,3.07,9.02,11.11,9.02,10.31,0,21.13-8.43,21.13-17.16,0-5.86-4.96-9.13-11.11-9.13-9.63,0-21.13,8.14-21.13,17.27"/><path d="M482.15,122.82c0,4.26,3.07,9.02,11.11,9.02,10.31,0,21.13-8.43,21.13-17.16,0-5.86-4.96-9.13-11.11-9.13-9.63,0-21.13,8.14-21.13,17.27"/><path d="M706.15,394.5c0,4.26,3.07,9.02,11.11,9.02,10.31,0,21.13-8.43,21.13-17.16,0-5.86-4.96-9.13-11.11-9.13-9.63,0-21.13,8.14-21.13,17.27"/><path d="M816.73,406.9c0,4.26,3.07,9.02,11.11,9.02,10.31,0,21.13-8.43,21.13-17.16,0-5.86-4.96-9.13-11.11-9.13-9.63,0-21.13,8.14-21.13,17.27"/><path d="M890.61,419.3c0,4.26,3.07,9.02,11.11,9.02,10.31,0,21.13-8.43,21.13-17.16,0-5.86-4.96-9.13-11.11-9.13-9.63,0-21.13,8.14-21.13,17.27"/><path d="M964.49,431.7c0,4.26,3.07,9.02,11.11,9.02,10.31,0,21.13-8.43,21.13-17.16,0-5.86-4.96-9.13-11.11-9.13-9.63,0-21.13,8.14-21.13,17.27"/><path d="M1038.36,406.9c0,4.26,3.07,9.02,11.11,9.02,10.31,0,21.13-8.43,21.13-17.16,0-5.86-4.96-9.13-11.11-9.13-9.63,0-21.13,8.14-21.13,17.27"/><path d="M1434.96,85.62c0,4.26,3.07,9.02,11.11,9.02,10.31,0,21.13-8.43,21.13-17.16,0-5.86-4.96-9.13-11.11-9.13-9.63,0-21.13,8.14-21.13,17.27"/><path d="M1112.24,419.3c0,4.26,3.07,9.02,11.11,9.02,10.31,0,21.13-8.43,21.13-17.16,0-5.86-4.96-9.13-11.11-9.13-9.63,0-21.13,8.14-21.13,17.27"/><path d="M1186.12,431.7c0,4.26,3.07,9.02,11.11,9.02,10.31,0,21.13-8.43,21.13-17.16,0-5.86-4.96-9.13-11.11-9.13-9.63,0-21.13,8.14-21.13,17.27"/><path d="M1508.25,73.22c0,4.26,3.07,9.02,11.11,9.02,10.31,0,21.13-8.43,21.13-17.16,0-5.86-4.96-9.13-11.11-9.13-9.63,0-21.13,8.14-21.13,17.27"/><path d="M1259.99,444.1c0,4.26,3.07,9.02,11.11,9.02,10.31,0,21.13-8.43,21.13-17.16,0-5.86-4.96-9.13-11.11-9.13-9.63,0-21.13,8.14-21.13,17.27"/><path d="M189.01,135.22c0,4.26,3.07,9.02,11.11,9.02,10.31,0,21.13-8.43,21.13-17.16,0-5.86-4.96-9.13-11.11-9.13-9.63,0-21.13,8.14-21.13,17.27"/><path d="M1333.87,419.3c0,4.26,3.07,9.02,11.11,9.02,10.31,0,21.13-8.43,21.13-17.16,0-5.86-4.96-9.13-11.11-9.13-9.63,0-21.13,8.14-21.13,17.27"/><path d="M335.58,110.42c0,4.26,3.07,9.02,11.11,9.02,10.31,0,21.13-8.43,21.13-17.16,0-5.86-4.96-9.13-11.11-9.13-9.63,0-21.13,8.14-21.13,17.27"/><path d="M1581.53,60.82c0,4.26,3.07,9.02,11.11,9.02,10.31,0,21.13-8.43,21.13-17.16,0-5.86-4.96-9.13-11.11-9.13-9.63,0-21.13,8.14-21.13,17.27"/><path d="M1444.45,431.7c0,4.26,3.07,9.02,11.11,9.02,10.31,0,21.13-8.43,21.13-17.16,0-5.86-4.96-9.13-11.11-9.13-9.63,0-21.13,8.14-21.13,17.27"/><path d="M1518.33,444.1c0,4.26,3.07,9.02,11.11,9.02,10.31,0,21.13-8.43,21.13-17.16,0-5.86-4.96-9.13-11.11-9.13-9.63,0-21.13,8.14-21.13,17.27"/><path d="M1654.82,85.62c0,4.26,3.07,9.02,11.11,9.02,10.31,0,21.13-8.43,21.13-17.16,0-5.86-4.96-9.13-11.11-9.13-9.63,0-21.13,8.14-21.13,17.27"/><path d="M30.8,169.54c0,6.56,4.96,15.19,18.35,15.19,4.67,0,8.74-1.19,12.31-3.38,5.36-3.77,6.74-10.32,6.74-16.57,0-3.86-.59-8.32-1.58-13.98-.29-1.98-.9-4.96-1.49-8.84,9.72-3.18,16.96-13.3,16.96-23.51,0-14.97-10.62-25.09-25.09-25.09-.99-5.95-1.98-11.81-2.77-17.36,10.42-11.02,17.65-23.42,17.65-39.18,0-9.04-2.77-16.37-4.37-19.95-2.37-5.05-5.25-8.53-7.04-8.53-.7,0-3.77,1.19-7.04,5.05-6.36,7.55-8.14,20.24-8.14,28.57,0,5.36,.5,10.23,2.19,21.34-.11,.09-5.27,5.35-7.35,7.04-9.04,8.34-21.53,20.43-21.53,40.28,0,18.54,16.17,33.12,34.63,33.12,2.87,0,5.55-.29,7.83-.7,1.89,9.53,3.08,16.48,3.08,21.73,0,10.32-5.36,15.78-15.38,15.78-2.39,0-4.46-.5-4.67-.5-.09-.11-.29-.2-.29-.29,0-.2,.2-.31,.5-.31,4.67-.79,9.32-4.76,9.32-11.1,0-5.36-4.06-11.02-11.5-11.02-6.94,0-11.31,5.66-11.31,12.2M51.54,37.11c.9-3.97,5.46-14.38,10.62-14.38,1.49,0,3.86,4.76,3.86,11.7,0,10.32-7.63,18.06-14.48,24.8-.59-3.97-1.08-7.83-1.08-12,0-3.67,.29-7.05,1.08-10.12m8.73,101.97c-1.98,.4-3.86,.6-5.75,.6-14.18,0-26.29-9.92-26.29-24.91,0-12.09,8.53-22.91,17.27-30.46,1.67-1.49,3.27-2.87,4.76-4.36,.88,5.35,1.58,10.01,2.28,14.09-9.04,2.68-15.17,12.2-15.17,21.53,0,6.94,5.46,16.46,13.39,16.46,.79,0,1.69-.4,1.69-1.29s-.99-1.39-2.19-2.19c-3.88-2.39-6.06-4.96-6.06-9.83,0-6.05,4.57-10.91,10.32-12.29l5.75,32.63m14.09-18.35c0,7.05-2.88,14.29-9.92,17.17-2.08-11.9-4.76-27.68-5.46-32.05,8.93,0,15.38,6.06,15.38,14.88"/><path d="M30.8,503.22c0,6.56,4.96,15.19,18.35,15.19,4.67,0,8.74-1.19,12.31-3.38,5.36-3.77,6.74-10.32,6.74-16.57,0-3.86-.59-8.32-1.58-13.98-.29-1.98-.9-4.96-1.49-8.84,9.72-3.18,16.96-13.3,16.96-23.51,0-14.97-10.62-25.09-25.09-25.09-.99-5.95-1.98-11.81-2.77-17.36,10.42-11.02,17.65-23.42,17.65-39.18,0-9.04-2.77-16.37-4.37-19.95-2.37-5.05-5.25-8.53-7.04-8.53-.7,0-3.77,1.19-7.04,5.05-6.36,7.55-8.14,20.24-8.14,28.57,0,5.36,.5,10.23,2.19,21.34-.11,.09-5.27,5.35-7.35,7.04-9.04,8.34-21.53,20.43-21.53,40.28,0,18.54,16.17,33.12,34.63,33.12,2.87,0,5.55-.29,7.83-.7,1.89,9.53,3.08,16.48,3.08,21.73,0,10.32-5.36,15.78-15.38,15.78-2.39,0-4.46-.5-4.67-.5-.09-.11-.29-.2-.29-.29,0-.2,.2-.31,.5-.31,4.67-.79,9.32-4.76,9.32-11.1,0-5.36-4.06-11.02-11.5-11.02-6.94,0-11.31,5.66-11.31,12.2m20.74-132.43c.9-3.97,5.46-14.38,10.62-14.38,1.49,0,3.86,4.76,3.86,11.7,0,10.32-7.63,18.06-14.48,24.8-.59-3.97-1.08-7.83-1.08-12,0-3.67,.29-7.05,1.08-10.12m8.73,101.97c-1.98,.4-3.86,.6-5.75,.6-14.18,0-26.29-9.92-26.29-24.91,0-12.09,8.53-22.91,17.27-30.46,1.67-1.49,3.27-2.87,4.76-4.36,.88,5.35,1.58,10.01,2.28,14.09-9.04,2.68-15.17,12.2-15.17,21.53,0,6.94,5.46,16.46,13.39,16.46,.79,0,1.69-.4,1.69-1.29s-.99-1.39-2.19-2.19c-3.88-2.39-6.06-4.96-6.06-9.83,0-6.05,4.57-10.91,10.32-12.29l5.75,32.63m14.09-18.35c0,7.05-2.88,14.29-9.92,17.17-2.08-11.9-4.76-27.68-5.46-32.05,8.93,0,15.38,6.06,15.38,14.88"/><path d="M118.79,412.16c-4.96,0-7.84,3.07-8.34,3.67l.4-31.85c0-.79-.59-1.38-1.4-1.38h-1.18c-.81,0-1.4,.59-1.4,1.38l.5,59.63c0,.79,.59,1.38,1.4,1.38,.19,0,.59-.09,.79-.19,8.53-4.28,17.45-12.4,17.45-22.63,0-5.15-2.37-10.01-8.23-10.01m-8.63,27.98l.29-19.34c.2-.9,1.69-3.77,5.66-3.77,3.58,0,3.87,3.36,3.87,5.46,0,8.82-3.27,12.49-9.83,17.65"/><path d="M118.79,78.48c-4.96,0-7.84,3.07-8.34,3.67l.4-31.85c0-.79-.59-1.38-1.4-1.38h-1.18c-.81,0-1.4,.59-1.4,1.38l.5,59.63c0,.79,.59,1.38,1.4,1.38,.19,0,.59-.09,.79-.19,8.53-4.28,17.45-12.4,17.45-22.63,0-5.15-2.37-10.01-8.23-10.01m-8.63,27.98l.29-19.34c.2-.9,1.69-3.77,5.66-3.77,3.58,0,3.87,3.36,3.87,5.46,0,8.82-3.27,12.49-9.83,17.65"/><path d="M2477.88,31.85c9.13-6.36,13.28-12.6,13.28-19.75,0-7.53-4.36-12.11-11.01-12.11-4.76,0-7.94,3.38-7.94,7.35,0,4.26,3.67,7.55,7.94,7.55,2.88,0,4.26-.7,4.56-.81,.31-.09,.5-.19,.81-.19,.09,0,.29,0,.39,.09,.2,.09,.29,.4,.29,.99,0,4.26-3.86,9.13-10.71,13.89l2.39,2.98"/><path d="M2406.52,339.74c-9.32-10.12-17.56-10.71-22.71-10.71s-13.3,.59-22.63,10.71c-4.85,5.36-8.23,15.97-8.23,21.33,0,1.89,.4,3.18,1.4,3.18,2.77,0,1.38-8.54,9.72-16.97,7.33-7.33,17.16-7.44,19.55-7.44h.39c2.39,0,12.21,.11,19.55,7.44,8.34,8.43,6.94,16.97,9.72,16.97,.99,0,1.39-1.19,1.39-3.18,0-5.36-3.27-16.07-8.14-21.33m-29.56,18.94c0,3.78,3.07,6.85,6.85,6.85s6.84-3.07,6.84-6.85-3.07-6.84-6.84-6.84-6.85,3.07-6.85,6.84"/><path d="M2057.94,131.05h222.33v12.4h-222.33v-12.4" fill-rule="evenodd"/><path d="M1474.2,353.13h224.11v12.4h-224.11v-12.4" fill-rule="evenodd"/><path d="M811.99,168.25h222.33v12.4h-222.33v-12.4" fill-rule="evenodd"/><path d="M1769.71,365.53h224.11v12.4h-224.11v-12.4" fill-rule="evenodd"/><path d="M1105.12,155.85h222.34v12.4h-222.34v-12.4" fill-rule="evenodd"/><path d="M189.01,470.93h224.11v12.4H189.01v-12.4" fill-rule="evenodd"/><path d="M2101.92,371.73h224.11v12.4h-224.11v-12.4" fill-rule="evenodd"/><path d="M484.52,477.13h224.11v12.4h-224.11v-12.4" fill-rule="evenodd"/><path d="M1434.96,143.45h222.34v12.4h-222.34v-12.4" fill-rule="evenodd"/><path d="M218.77,31.85h222.33v12.4H218.77v-12.4" fill-rule="evenodd"/><path d="M816.73,489.53h224.11v12.4h-224.11v-12.4" fill-rule="evenodd"/><path d="M1728.1,137.25h222.33v12.4h-222.33v-12.4" fill-rule="evenodd"/><path d="M511.9,19.45h222.33v12.4h-222.33v-12.4" fill-rule="evenodd"/><path d="M1112.24,501.93h224.11v12.4h-224.11v-12.4" fill-rule="evenodd"/></g></svg>