<?xml version="1.0" encoding="UTF-8"?><svg id="b" xmlns="http://www.w3.org/2000/svg" viewBox="0 0 2552 561.53"><g id="c"><line y1="50.3" x2="2552" y2="50.3" fill="none" stroke="#000" stroke-linejoin="bevel" stroke-width="2.73"/><line y1="75.1" x2="2552" y2="75.1" fill="none" stroke="#000" stroke-linejoin="bevel" stroke-width="2.73"/><line y1="99.9" x2="2552" y2="99.9" fill="none" stroke="#000" stroke-linejoin="bevel" stroke-width="2.73"/><line y1="124.7" x2="2552" y2="124.7" fill="none" stroke="#000" stroke-linejoin="bevel" stroke-width="2.73"/><line y1="149.5" x2="2552" y2="149.5" fill="none" stroke="#000" stroke-linejoin="bevel" stroke-width="2.73"/><line y1="421.05" x2="2552" y2="421.05" fill="none" stroke="#000" stroke-linejoin="bevel" stroke-width="2.73"/><line y1="445.85" x2="2552" y2="445.85" fill="none" stroke="#000" stroke-linejoin="bevel" stroke-width="2.73"/><line y1="470.65" x2="2552" y2="470.65" fill="none" stroke="#000" stroke-linejoin="bevel" stroke-width="2.73"/><line y1="495.45" x2="2552" y2="495.45" fill="none" stroke="#000" stroke-linejoin="bevel" stroke-width="2.73"/><line y1="520.25" x2="2552" y2="520.25" fill="none" stroke="#000" stroke-linejoin="bevel" stroke-width="2.73"/><line x1="788.86" y1="48.93" x2="788.86" y2="150.86" fill="none" stroke="#000" stroke-linejoin="bevel" stroke-width="4.46"/><line x1="2038.54" y1="419.69" x2="2038.54" y2="521.61" fill="none" stroke="#000" stroke-linejoin="bevel" stroke-width="4.46"/><line x1="2536.13" y1="419.69" x2="2536.13" y2="521.61" fill="none" stroke="#000" stroke-linejoin="bevel" stroke-width="4.46"/><line x1="2549.77" y1="419.69" x2="2549.77" y2="521.61" fill="none" stroke="#000" stroke-linejoin="bevel" stroke-width="4.46"/><line x1="2549.77" y1="48.93" x2="2549.77" y2="150.86" fill="none" stroke="#000" stroke-linejoin="bevel" stroke-width="4.46"/><line x1="785.26" y1="419.69" x2="785.26" y2="521.61" fill="none" stroke="#000" stroke-linejoin="bevel" stroke-width="4.46"/><line x1="2049.36" y1="48.93" x2="2049.36" y2="150.86" fill="none" stroke="#000" stroke-linejoin="bevel" stroke-width="4.46"/><line x1="1419.11" y1="48.93" x2="1419.11" y2="150.86" fill="none" stroke="#000" stroke-linejoin="bevel" stroke-width="4.46"/><line x1="1411.89" y1="419.69" x2="1411.89" y2="521.61" fill="none" stroke="#000" stroke-linejoin="bevel" stroke-width="4.46"/><line x1="2298.23" y1="25.5" x2="2346.83" y2="25.5" fill="none" stroke="#000" stroke-linejoin="bevel" stroke-width="3.97"/><line x1="1964.75" y1="25.5" x2="2013.35" y2="25.5" fill="none" stroke="#000" stroke-linejoin="bevel" stroke-width="3.97"/><line x1="2224.03" y1="25.5" x2="2272.63" y2="25.5" fill="none" stroke="#000" stroke-linejoin="bevel" stroke-width="3.97"/><line x1="1454.82" y1="79.26" x2="1454.82" y2="149.46" fill="none" stroke="#000" stroke-linejoin="bevel" stroke-width="2.48"/><line x1="1529.02" y1="66.86" x2="1529.02" y2="147.42" fill="none" stroke="#000" stroke-linejoin="bevel" stroke-width="2.48"/><line x1="1603.21" y1="54.46" x2="1603.21" y2="145.38" fill="none" stroke="#000" stroke-linejoin="bevel" stroke-width="2.48"/><line x1="1677.4" y1="42.06" x2="1677.4" y2="143.33" fill="none" stroke="#000" stroke-linejoin="bevel" stroke-width="2.48"/><line x1="1751.59" y1="66.86" x2="1751.59" y2="130.83" fill="none" stroke="#000" stroke-linejoin="bevel" stroke-width="2.48"/><line x1="1825.79" y1="54.46" x2="1825.79" y2="126.74" fill="none" stroke="#000" stroke-linejoin="bevel" stroke-width="2.48"/><line x1="1899.98" y1="42.06" x2="1899.98" y2="122.65" fill="none" stroke="#000" stroke-linejoin="bevel" stroke-width="2.48"/><line x1="1974.17" y1="29.66" x2="1974.17" y2="118.57" fill="none" stroke="#000" stroke-linejoin="bevel" stroke-width="2.48"/><line x1="972.96" y1="79.26" x2="972.96" y2="155.73" fill="none" stroke="#000" stroke-linejoin="bevel" stroke-width="2.48"/><line x1="2085.07" y1="54.46" x2="2085.07" y2="124.66" fill="none" stroke="#000" stroke-linejoin="bevel" stroke-width="2.48"/><line x1="1047.15" y1="66.86" x2="1047.15" y2="149.6" fill="none" stroke="#000" stroke-linejoin="bevel" stroke-width="2.48"/><line x1="2159.27" y1="42.06" x2="2159.27" y2="122.62" fill="none" stroke="#000" stroke-linejoin="bevel" stroke-width="2.48"/><line x1="2233.46" y1="29.66" x2="2233.46" y2="120.58" fill="none" stroke="#000" stroke-linejoin="bevel" stroke-width="2.48"/><line x1="2307.65" y1="17.26" x2="2307.65" y2="118.53" fill="none" stroke="#000" stroke-linejoin="bevel" stroke-width="2.48"/><line x1="2381.84" y1="42.06" x2="2381.84" y2="124.7" fill="none" stroke="#000" stroke-linejoin="bevel" stroke-width="2.48"/><line x1="194.33" y1="412.82" x2="194.33" y2="514.08" fill="none" stroke="#000" stroke-linejoin="bevel" stroke-width="2.48"/><line x1="268.07" y1="425.22" x2="268.07" y2="516.13" fill="none" stroke="#000" stroke-linejoin="bevel" stroke-width="2.48"/><line x1="341.81" y1="437.62" x2="341.81" y2="518.17" fill="none" stroke="#000" stroke-linejoin="bevel" stroke-width="2.48"/><line x1="415.55" y1="450.02" x2="415.55" y2="520.22" fill="none" stroke="#000" stroke-linejoin="bevel" stroke-width="2.48"/><line x1="489.3" y1="425.22" x2="489.3" y2="514.12" fill="none" stroke="#000" stroke-linejoin="bevel" stroke-width="2.48"/><line x1="563.04" y1="437.62" x2="563.04" y2="518.21" fill="none" stroke="#000" stroke-linejoin="bevel" stroke-width="2.48"/><line x1="636.78" y1="450.02" x2="636.78" y2="522.29" fill="none" stroke="#000" stroke-linejoin="bevel" stroke-width="2.48"/><line x1="710.52" y1="462.42" x2="710.52" y2="526.38" fill="none" stroke="#000" stroke-linejoin="bevel" stroke-width="2.48"/><line x1="820.97" y1="437.62" x2="820.97" y2="520.35" fill="none" stroke="#000" stroke-linejoin="bevel" stroke-width="2.48"/><line x1="894.71" y1="450.02" x2="894.71" y2="526.48" fill="none" stroke="#000" stroke-linejoin="bevel" stroke-width="2.48"/><line x1="968.45" y1="462.42" x2="968.45" y2="532.62" fill="none" stroke="#000" stroke-linejoin="bevel" stroke-width="2.48"/><line x1="1042.19" y1="474.82" x2="1042.19" y2="538.75" fill="none" stroke="#000" stroke-linejoin="bevel" stroke-width="2.48"/><line x1="1115.94" y1="450.02" x2="1115.94" y2="538.92" fill="none" stroke="#000" stroke-linejoin="bevel" stroke-width="2.48"/><line x1="1189.68" y1="462.42" x2="1189.68" y2="543.01" fill="none" stroke="#000" stroke-linejoin="bevel" stroke-width="2.48"/><line x1="1263.42" y1="474.82" x2="1263.42" y2="547.09" fill="none" stroke="#000" stroke-linejoin="bevel" stroke-width="2.48"/><line x1="1337.16" y1="487.22" x2="1337.16" y2="551.18" fill="none" stroke="#000" stroke-linejoin="bevel" stroke-width="2.48"/><line x1="1477.36" y1="454.28" x2="1477.36" y2="390.12" fill="none" stroke="#000" stroke-linejoin="bevel" stroke-width="2.48"/><line x1="1551.1" y1="466.68" x2="1551.1" y2="394.21" fill="none" stroke="#000" stroke-linejoin="bevel" stroke-width="2.48"/><line x1="2177.75" y1="491.48" x2="2177.75" y2="419.01" fill="none" stroke="#000" stroke-linejoin="bevel" stroke-width="2.48"/><line x1="1698.59" y1="491.48" x2="1698.59" y2="402.38" fill="none" stroke="#000" stroke-linejoin="bevel" stroke-width="2.48"/><line x1="2251.49" y1="503.88" x2="2251.49" y2="423.09" fill="none" stroke="#000" stroke-linejoin="bevel" stroke-width="2.48"/><line x1="1919.81" y1="491.48" x2="1919.81" y2="414.82" fill="none" stroke="#000" stroke-linejoin="bevel" stroke-width="2.48"/><line x1="224.08" y1="120.73" x2="224.08" y2="31.63" fill="none" stroke="#000" stroke-linejoin="bevel" stroke-width="2.48"/><line x1="1993.55" y1="503.88" x2="1993.55" y2="420.95" fill="none" stroke="#000" stroke-linejoin="bevel" stroke-width="2.48"/><line x1="2325.23" y1="516.28" x2="2325.23" y2="427.18" fill="none" stroke="#000" stroke-linejoin="bevel" stroke-width="2.48"/><line x1="1772.33" y1="466.68" x2="1772.33" y2="402.55" fill="none" stroke="#000" stroke-linejoin="bevel" stroke-width="2.48"/><line x1="1624.85" y1="479.08" x2="1624.85" y2="398.29" fill="none" stroke="#000" stroke-linejoin="bevel" stroke-width="2.48"/><line x1="298.27" y1="108.33" x2="298.27" y2="27.54" fill="none" stroke="#000" stroke-linejoin="bevel" stroke-width="2.48"/><line x1="372.46" y1="95.93" x2="372.46" y2="23.45" fill="none" stroke="#000" stroke-linejoin="bevel" stroke-width="2.48"/><line x1="446.66" y1="83.53" x2="446.66" y2="19.37" fill="none" stroke="#000" stroke-linejoin="bevel" stroke-width="2.48"/><line x1="2398.97" y1="491.48" x2="2398.97" y2="408.65" fill="none" stroke="#000" stroke-linejoin="bevel" stroke-width="2.48"/><line x1="898.77" y1="91.66" x2="898.77" y2="161.86" fill="none" stroke="#000" stroke-linejoin="bevel" stroke-width="2.48"/><line x1="491.1" y1="116.46" x2="491.1" y2="180.43" fill="none" stroke="#000" stroke-linejoin="bevel" stroke-width="2.48"/><line x1="565.29" y1="104.06" x2="565.29" y2="176.34" fill="none" stroke="#000" stroke-linejoin="bevel" stroke-width="2.48"/><line x1="639.48" y1="91.66" x2="639.48" y2="172.25" fill="none" stroke="#000" stroke-linejoin="bevel" stroke-width="2.48"/><line x1="713.68" y1="79.26" x2="713.68" y2="168.17" fill="none" stroke="#000" stroke-linejoin="bevel" stroke-width="2.48"/><line x1="2104" y1="479.08" x2="2104" y2="414.92" fill="none" stroke="#000" stroke-linejoin="bevel" stroke-width="2.48"/><line x1="824.57" y1="104.06" x2="824.57" y2="168" fill="none" stroke="#000" stroke-linejoin="bevel" stroke-width="2.48"/><line x1="1121.35" y1="91.66" x2="1121.35" y2="155.63" fill="none" stroke="#000" stroke-linejoin="bevel" stroke-width="2.48"/><line x1="1195.54" y1="79.26" x2="1195.54" y2="151.54" fill="none" stroke="#000" stroke-linejoin="bevel" stroke-width="2.48"/><line x1="1269.73" y1="66.86" x2="1269.73" y2="147.45" fill="none" stroke="#000" stroke-linejoin="bevel" stroke-width="2.48"/><line x1="1343.92" y1="54.46" x2="1343.92" y2="143.37" fill="none" stroke="#000" stroke-linejoin="bevel" stroke-width="2.48"/><line x1="1846.07" y1="479.08" x2="1846.07" y2="408.68" fill="none" stroke="#000" stroke-linejoin="bevel" stroke-width="2.48"/><path d="M1898.74,42.07c0,4.26,3.07,9.02,11.11,9.02,10.31,0,21.13-8.43,21.13-17.16,0-5.86-4.96-9.13-11.11-9.13-9.63,0-21.13,8.14-21.13,17.27"/><path d="M193.09,128.87c0,4.26,3.07,9.02,11.11,9.02,10.31,0,21.13-8.43,21.13-17.16,0-5.86-4.96-9.13-11.11-9.13-9.63,0-21.13,8.14-21.13,17.27"/><path d="M267.28,116.47c0,4.26,3.07,9.02,11.11,9.02,10.31,0,21.13-8.43,21.13-17.16,0-5.86-4.96-9.13-11.11-9.13-9.63,0-21.13,8.14-21.13,17.27"/><path d="M341.47,104.07c0,4.26,3.07,9.02,11.11,9.02,10.31,0,21.13-8.43,21.13-17.16,0-5.86-4.96-9.13-11.11-9.13-9.63,0-21.13,8.14-21.13,17.27"/><path d="M415.66,91.67c0,4.26,3.07,9.02,11.11,9.02,10.31,0,21.13-8.43,21.13-17.16,0-5.86-4.96-9.13-11.11-9.13-9.63,0-21.13,8.14-21.13,17.27"/><path d="M489.86,116.47c0,4.26,3.07,9.02,11.11,9.02,10.31,0,21.13-8.43,21.13-17.16,0-5.86-4.96-9.13-11.11-9.13-9.63,0-21.13,8.14-21.13,17.27"/><path d="M564.05,104.07c0,4.26,3.07,9.02,11.11,9.02,10.31,0,21.13-8.43,21.13-17.16,0-5.86-4.96-9.13-11.11-9.13-9.63,0-21.13,8.14-21.13,17.27"/><path d="M638.24,91.67c0,4.26,3.07,9.02,11.11,9.02,10.31,0,21.13-8.43,21.13-17.16,0-5.86-4.96-9.13-11.11-9.13-9.63,0-21.13,8.14-21.13,17.27"/><path d="M712.44,79.27c0,4.26,3.07,9.02,11.11,9.02,10.31,0,21.13-8.43,21.13-17.16,0-5.86-4.96-9.13-11.11-9.13-9.63,0-21.13,8.14-21.13,17.27"/><path d="M823.33,104.07c0,4.26,3.07,9.02,11.11,9.02,10.31,0,21.13-8.43,21.13-17.16,0-5.86-4.96-9.13-11.11-9.13-9.63,0-21.13,8.14-21.13,17.27"/><path d="M897.53,91.67c0,4.26,3.07,9.02,11.11,9.02,10.31,0,21.13-8.43,21.13-17.16,0-5.86-4.96-9.13-11.11-9.13-9.63,0-21.13,8.14-21.13,17.27"/><path d="M971.72,79.27c0,4.26,3.07,9.02,11.11,9.02,10.31,0,21.13-8.43,21.13-17.16,0-5.86-4.96-9.13-11.11-9.13-9.63,0-21.13,8.14-21.13,17.27"/><path d="M1045.91,66.87c0,4.26,3.07,9.02,11.11,9.02,10.31,0,21.13-8.43,21.13-17.16,0-5.86-4.96-9.13-11.11-9.13-9.63,0-21.13,8.14-21.13,17.27"/><path d="M1120.11,91.67c0,4.26,3.07,9.02,11.11,9.02,10.31,0,21.13-8.43,21.13-17.16,0-5.86-4.96-9.13-11.11-9.13-9.63,0-21.13,8.14-21.13,17.27"/><path d="M1194.3,79.27c0,4.26,3.07,9.02,11.11,9.02,10.31,0,21.13-8.43,21.13-17.16,0-5.86-4.96-9.13-11.11-9.13-9.63,0-21.13,8.14-21.13,17.27"/><path d="M1268.49,66.87c0,4.26,3.07,9.02,11.11,9.02,10.31,0,21.13-8.43,21.13-17.16,0-5.86-4.96-9.13-11.11-9.13-9.63,0-21.13,8.14-21.13,17.27"/><path d="M1342.68,54.47c0,4.26,3.07,9.02,11.11,9.02,10.31,0,21.13-8.43,21.13-17.16,0-5.86-4.96-9.13-11.11-9.13-9.63,0-21.13,8.14-21.13,17.27"/><path d="M1453.58,79.27c0,4.26,3.07,9.02,11.11,9.02,10.31,0,21.13-8.43,21.13-17.16,0-5.86-4.96-9.13-11.11-9.13-9.63,0-21.13,8.14-21.13,17.27"/><path d="M1527.78,66.87c0,4.26,3.07,9.02,11.11,9.02,10.31,0,21.13-8.43,21.13-17.16,0-5.86-4.96-9.13-11.11-9.13-9.63,0-21.13,8.14-21.13,17.27"/><path d="M1601.97,54.47c0,4.26,3.07,9.02,11.11,9.02,10.31,0,21.13-8.43,21.13-17.16,0-5.86-4.96-9.13-11.11-9.13-9.63,0-21.13,8.14-21.13,17.27"/><path d="M1676.16,42.07c0,4.26,3.07,9.02,11.11,9.02,10.31,0,21.13-8.43,21.13-17.16,0-5.86-4.96-9.13-11.11-9.13-9.63,0-21.13,8.14-21.13,17.27"/><path d="M1750.35,66.87c0,4.26,3.07,9.02,11.11,9.02,10.31,0,21.13-8.43,21.13-17.16,0-5.86-4.96-9.13-11.11-9.13-9.63,0-21.13,8.14-21.13,17.27"/><path d="M1824.55,54.47c0,4.26,3.07,9.02,11.11,9.02,10.31,0,21.13-8.43,21.13-17.16,0-5.86-4.96-9.13-11.11-9.13-9.63,0-21.13,8.14-21.13,17.27"/><path d="M1972.93,29.67c0,4.26,3.07,9.02,11.11,9.02,10.31,0,21.13-8.43,21.13-17.16,0-5.86-4.96-9.13-11.11-9.13-9.63,0-21.13,8.14-21.13,17.27"/><path d="M2083.83,54.47c0,4.26,3.07,9.02,11.11,9.02,10.31,0,21.13-8.43,21.13-17.16,0-5.86-4.96-9.13-11.11-9.13-9.63,0-21.13,8.14-21.13,17.27"/><path d="M2158.03,42.07c0,4.26,3.07,9.02,11.11,9.02,10.31,0,21.13-8.43,21.13-17.16,0-5.86-4.96-9.13-11.11-9.13-9.63,0-21.13,8.14-21.13,17.27"/><path d="M2232.22,29.67c0,4.26,3.07,9.02,11.11,9.02,10.31,0,21.13-8.43,21.13-17.16,0-5.86-4.96-9.13-11.11-9.13-9.63,0-21.13,8.14-21.13,17.27"/><path d="M2306.41,17.27c0,4.26,3.07,9.02,11.11,9.02,10.31,0,21.13-8.43,21.13-17.16,0-5.86-4.96-9.13-11.11-9.13-9.63,0-21.13,8.14-21.13,17.27"/><path d="M2401.73,24.8c-9.63,0-21.13,8.04-21.13,17.27,0,4.26,3.07,9.02,11.11,9.02,10.31,0,21.13-8.43,21.13-17.16,0-5.86-4.96-9.13-11.11-9.13m-13.69,21.62c-3.27,0-3.97-2.67-3.97-3.56,0-4.87,16.66-13.39,21.33-13.39,2.39,0,3.97,1.39,3.97,3.56,0,4.96-16.77,13.39-21.33,13.39"/><path d="M193.09,412.82c0,4.26,3.07,9.02,11.11,9.02,10.31,0,21.13-8.43,21.13-17.16,0-5.86-4.96-9.13-11.11-9.13-9.63,0-21.13,8.14-21.13,17.27"/><path d="M266.83,425.22c0,4.26,3.07,9.02,11.11,9.02,10.31,0,21.13-8.43,21.13-17.16,0-5.86-4.96-9.13-11.11-9.13-9.63,0-21.13,8.14-21.13,17.27"/><path d="M340.57,437.62c0,4.26,3.07,9.02,11.11,9.02,10.31,0,21.13-8.43,21.13-17.16,0-5.86-4.96-9.13-11.11-9.13-9.63,0-21.13,8.14-21.13,17.27"/><path d="M414.31,450.02c0,4.26,3.07,9.02,11.11,9.02,10.31,0,21.13-8.43,21.13-17.16,0-5.86-4.96-9.13-11.11-9.13-9.63,0-21.13,8.14-21.13,17.27"/><path d="M488.06,425.22c0,4.26,3.07,9.02,11.11,9.02,10.31,0,21.13-8.43,21.13-17.16,0-5.86-4.96-9.13-11.11-9.13-9.63,0-21.13,8.14-21.13,17.27"/><path d="M561.8,437.62c0,4.26,3.07,9.02,11.11,9.02,10.31,0,21.13-8.43,21.13-17.16,0-5.86-4.96-9.13-11.11-9.13-9.63,0-21.13,8.14-21.13,17.27"/><path d="M635.54,450.02c0,4.26,3.07,9.02,11.11,9.02,10.31,0,21.13-8.43,21.13-17.16,0-5.86-4.96-9.13-11.11-9.13-9.63,0-21.13,8.14-21.13,17.27"/><path d="M709.28,462.42c0,4.26,3.07,9.02,11.11,9.02,10.31,0,21.13-8.43,21.13-17.16,0-5.86-4.96-9.13-11.11-9.13-9.63,0-21.13,8.14-21.13,17.27"/><path d="M819.73,437.62c0,4.26,3.07,9.02,11.11,9.02,10.31,0,21.13-8.43,21.13-17.16,0-5.86-4.96-9.13-11.11-9.13-9.63,0-21.13,8.14-21.13,17.27"/><path d="M893.47,450.02c0,4.26,3.07,9.02,11.11,9.02,10.31,0,21.13-8.43,21.13-17.16,0-5.86-4.96-9.13-11.11-9.13-9.63,0-21.13,8.14-21.13,17.27"/><path d="M967.21,462.42c0,4.26,3.07,9.02,11.11,9.02,10.31,0,21.13-8.43,21.13-17.16,0-5.86-4.96-9.13-11.11-9.13-9.63,0-21.13,8.14-21.13,17.27"/><path d="M1040.95,474.82c0,4.26,3.07,9.02,11.11,9.02,10.31,0,21.13-8.43,21.13-17.16,0-5.86-4.96-9.13-11.11-9.13-9.63,0-21.13,8.14-21.13,17.27"/><path d="M1114.7,450.02c0,4.26,3.07,9.02,11.11,9.02,10.31,0,21.13-8.43,21.13-17.16,0-5.86-4.96-9.13-11.11-9.13-9.63,0-21.13,8.14-21.13,17.27"/><path d="M1188.44,462.42c0,4.26,3.07,9.02,11.11,9.02,10.31,0,21.13-8.43,21.13-17.16,0-5.86-4.96-9.13-11.11-9.13-9.63,0-21.13,8.14-21.13,17.27"/><path d="M1262.18,474.82c0,4.26,3.07,9.02,11.11,9.02,10.31,0,21.13-8.43,21.13-17.16,0-5.86-4.96-9.13-11.11-9.13-9.63,0-21.13,8.14-21.13,17.27"/><path d="M1335.92,487.22c0,4.26,3.07,9.02,11.11,9.02,10.31,0,21.13-8.43,21.13-17.16,0-5.86-4.96-9.13-11.11-9.13-9.63,0-21.13,8.14-21.13,17.27"/><path d="M1520.11,474.82c0,4.26,3.07,9.02,11.11,9.02,10.31,0,21.13-8.43,21.13-17.16,0-5.86-4.96-9.13-11.11-9.13-9.63,0-21.13,8.14-21.13,17.27"/><path d="M1593.85,487.22c0,4.26,3.07,9.02,11.11,9.02,10.31,0,21.13-8.43,21.13-17.16,0-5.86-4.96-9.13-11.11-9.13-9.63,0-21.13,8.14-21.13,17.27"/><path d="M1667.6,499.62c0,4.26,3.07,9.02,11.11,9.02,10.31,0,21.13-8.43,21.13-17.16,0-5.86-4.96-9.13-11.11-9.13-9.63,0-21.13,8.14-21.13,17.27"/><path d="M1741.34,474.82c0,4.26,3.07,9.02,11.11,9.02,10.31,0,21.13-8.43,21.13-17.16,0-5.86-4.96-9.13-11.11-9.13-9.63,0-21.13,8.14-21.13,17.27"/><path d="M1815.08,487.22c0,4.26,3.07,9.02,11.11,9.02,10.31,0,21.13-8.43,21.13-17.16,0-5.86-4.96-9.13-11.11-9.13-9.63,0-21.13,8.14-21.13,17.27"/><path d="M1888.82,499.62c0,4.26,3.07,9.02,11.11,9.02,10.31,0,21.13-8.43,21.13-17.16,0-5.86-4.96-9.13-11.11-9.13-9.63,0-21.13,8.14-21.13,17.27"/><path d="M1962.56,512.02c0,4.26,3.07,9.02,11.11,9.02,10.31,0,21.13-8.43,21.13-17.16,0-5.86-4.96-9.13-11.11-9.13-9.63,0-21.13,8.14-21.13,17.27"/><path d="M2073.01,487.22c0,4.26,3.07,9.02,11.11,9.02,10.31,0,21.13-8.43,21.13-17.16,0-5.86-4.96-9.13-11.11-9.13-9.63,0-21.13,8.14-21.13,17.27"/><path d="M2146.75,499.62c0,4.26,3.07,9.02,11.11,9.02,10.31,0,21.13-8.43,21.13-17.16,0-5.86-4.96-9.13-11.11-9.13-9.63,0-21.13,8.14-21.13,17.27"/><path d="M2220.5,512.02c0,4.26,3.07,9.02,11.11,9.02,10.31,0,21.13-8.43,21.13-17.16,0-5.86-4.96-9.13-11.11-9.13-9.63,0-21.13,8.14-21.13,17.27"/><path d="M2294.24,524.42c0,4.26,3.07,9.02,11.11,9.02,10.31,0,21.13-8.43,21.13-17.16,0-5.86-4.96-9.13-11.11-9.13-9.63,0-21.13,8.14-21.13,17.27"/><path d="M2389.11,482.36c-9.63,0-21.13,8.04-21.13,17.27,0,4.26,3.07,9.02,11.11,9.02,10.31,0,21.13-8.43,21.13-17.16,0-5.86-4.96-9.13-11.11-9.13m-13.69,21.62c-3.27,0-3.97-2.67-3.97-3.56,0-4.87,16.66-13.39,21.33-13.39,2.39,0,3.97,1.39,3.97,3.56,0,4.96-16.77,13.39-21.33,13.39"/><path d="M1446.37,462.42c0,4.26,3.07,9.02,11.11,9.02,10.31,0,21.13-8.43,21.13-17.16,0-5.86-4.96-9.13-11.11-9.13-9.63,0-21.13,8.14-21.13,17.27"/><path d="M30.8,175.58c0,6.56,4.96,15.19,18.35,15.19,4.67,0,8.74-1.19,12.31-3.38,5.36-3.77,6.74-10.32,6.74-16.57,0-3.86-.59-8.32-1.58-13.98-.29-1.98-.9-4.96-1.49-8.84,9.72-3.18,16.96-13.3,16.96-23.51,0-14.97-10.62-25.09-25.09-25.09-.99-5.95-1.98-11.81-2.77-17.36,10.42-11.02,17.65-23.42,17.65-39.18,0-9.04-2.77-16.37-4.37-19.95-2.37-5.05-5.25-8.53-7.04-8.53-.7,0-3.77,1.19-7.04,5.05-6.36,7.55-8.14,20.24-8.14,28.57,0,5.36,.5,10.23,2.19,21.34-.11,.09-5.27,5.35-7.35,7.04-9.04,8.34-21.53,20.43-21.53,40.28,0,18.54,16.17,33.12,34.63,33.12,2.87,0,5.55-.29,7.83-.7,1.89,9.53,3.08,16.48,3.08,21.73,0,10.32-5.36,15.78-15.38,15.78-2.39,0-4.46-.5-4.67-.5-.09-.11-.29-.2-.29-.29,0-.2,.2-.31,.5-.31,4.67-.79,9.32-4.76,9.32-11.1,0-5.36-4.06-11.02-11.5-11.02-6.94,0-11.31,5.66-11.31,12.2M51.54,43.15c.9-3.97,5.46-14.38,10.62-14.38,1.49,0,3.86,4.76,3.86,11.7,0,10.32-7.63,18.06-14.48,24.8-.59-3.97-1.08-7.83-1.08-12,0-3.67,.29-7.05,1.08-10.12m8.73,101.97c-1.98,.4-3.86,.6-5.75,.6-14.18,0-26.29-9.92-26.29-24.91,0-12.09,8.53-22.91,17.27-30.46,1.67-1.49,3.27-2.87,4.76-4.36,.88,5.35,1.58,10.01,2.28,14.09-9.04,2.68-15.17,12.2-15.17,21.53,0,6.94,5.46,16.46,13.39,16.46,.79,0,1.69-.4,1.69-1.29s-.99-1.39-2.19-2.19c-3.88-2.39-6.06-4.96-6.06-9.83,0-6.04,4.57-10.91,10.32-12.29l5.75,32.63m14.09-18.35c0,7.05-2.88,14.29-9.92,17.17-2.08-11.9-4.76-27.68-5.46-32.05,8.93,0,15.38,6.06,15.38,14.88"/><path d="M30.8,546.34c0,6.56,4.96,15.19,18.35,15.19,4.67,0,8.74-1.19,12.31-3.38,5.36-3.77,6.74-10.32,6.74-16.57,0-3.86-.59-8.32-1.58-13.98-.29-1.98-.9-4.96-1.49-8.84,9.72-3.18,16.96-13.3,16.96-23.51,0-14.97-10.62-25.09-25.09-25.09-.99-5.95-1.98-11.81-2.77-17.36,10.42-11.02,17.65-23.42,17.65-39.18,0-9.04-2.77-16.37-4.37-19.95-2.37-5.05-5.25-8.53-7.04-8.53-.7,0-3.77,1.19-7.04,5.05-6.36,7.55-8.14,20.24-8.14,28.57,0,5.36,.5,10.23,2.19,21.34-.11,.09-5.27,5.35-7.35,7.04-9.04,8.34-21.53,20.43-21.53,40.28,0,18.54,16.17,33.12,34.63,33.12,2.87,0,5.55-.29,7.83-.7,1.89,9.53,3.08,16.48,3.08,21.73,0,10.32-5.36,15.78-15.38,15.78-2.39,0-4.46-.5-4.67-.5-.09-.11-.29-.2-.29-.29,0-.2,.2-.31,.5-.31,4.67-.79,9.32-4.76,9.32-11.1,0-5.36-4.06-11.02-11.5-11.02-6.94,0-11.31,5.66-11.31,12.2m20.74-132.43c.9-3.97,5.46-14.38,10.62-14.38,1.49,0,3.86,4.76,3.86,11.7,0,10.32-7.63,18.06-14.48,24.8-.59-3.97-1.08-7.83-1.08-12,0-3.67,.29-7.05,1.08-10.12m8.73,101.97c-1.98,.4-3.86,.6-5.75,.6-14.18,0-26.29-9.92-26.29-24.91,0-12.09,8.53-22.91,17.27-30.46,1.67-1.49,3.27-2.87,4.76-4.36,.88,5.35,1.58,10.01,2.28,14.09-9.04,2.68-15.17,12.2-15.17,21.53,0,6.94,5.46,16.46,13.39,16.46,.79,0,1.69-.4,1.69-1.29s-.99-1.39-2.19-2.19c-3.88-2.39-6.06-4.96-6.06-9.83,0-6.04,4.57-10.91,10.32-12.29l5.75,32.63m14.09-18.35c0,7.05-2.88,14.29-9.92,17.17-2.08-11.9-4.76-27.68-5.46-32.05,8.93,0,15.38,6.06,15.38,14.88"/><path d="M129.99,39.88c.6-.09,1.1-.79,1.1-1.4v-5.84c0-.99-.7-1.39-1.6-1.39l-3.27,.7v-14.79h-2.77v15.38l-8.83,1.8v-14h-2.77v14.59l-3.87,.79c-.59,.11-1.08,.79-1.08,1.39v5.75c0,1.08,.79,1.39,1.69,1.39l3.27-.7v16.37l-3.87,.79c-.59,.09-1.08,.79-1.08,1.4v5.75c0,1.09,.79,1.38,1.69,1.38l3.27-.68v14.77h2.77v-15.38l8.83-1.78v14h2.77v-14.59l3.77-.7c.6-.11,1.1-.79,1.1-1.39v-5.84c0-.99-.7-1.39-1.6-1.39l-3.27,.7v-16.37l3.77-.7m-15.38,3.07l8.83-1.78v16.37l-8.83,1.89v-16.48"/><path d="M130,410.64c.6-.09,1.1-.79,1.1-1.4v-5.84c0-.99-.7-1.39-1.6-1.39l-3.27,.7v-14.79h-2.77v15.38l-8.83,1.8v-14h-2.77v14.59l-3.87,.79c-.59,.11-1.08,.79-1.08,1.39v5.75c0,1.08,.79,1.39,1.69,1.39l3.27-.7v16.37l-3.87,.79c-.59,.09-1.08,.79-1.08,1.4v5.75c0,1.09,.79,1.38,1.69,1.38l3.27-.68v14.77h2.77v-15.38l8.83-1.78v14h2.77v-14.59l3.77-.7c.6-.11,1.1-.79,1.1-1.39v-5.84c0-.99-.7-1.39-1.6-1.39l-3.27,.7v-16.37l3.77-.7m-15.38,3.07l8.83-1.78v16.37l-8.83,1.89v-16.48"/><path d="M2509.45,37.9c9.13-6.35,13.28-12.6,13.28-19.75,0-7.53-4.36-12.11-11.01-12.11-4.76,0-7.94,3.38-7.94,7.35,0,4.26,3.67,7.55,7.94,7.55,2.88,0,4.26-.7,4.56-.81,.31-.09,.5-.19,.81-.19,.09,0,.29,0,.39,.09,.2,.09,.29,.4,.29,.99,0,4.26-3.86,9.13-10.71,13.89l2.39,2.98"/><path d="M2406.82,372.94c-9.32-10.12-17.56-10.71-22.71-10.71s-13.3,.59-22.63,10.71c-4.85,5.36-8.23,15.96-8.23,21.33,0,1.89,.4,3.18,1.39,3.18,2.77,0,1.38-8.54,9.72-16.97,7.33-7.33,17.16-7.44,19.55-7.44h.39c2.39,0,12.21,.11,19.55,7.44,8.34,8.43,6.94,16.97,9.72,16.97,.99,0,1.39-1.19,1.39-3.18,0-5.36-3.27-16.07-8.14-21.33m-29.56,18.94c0,3.78,3.07,6.85,6.85,6.85s6.84-3.07,6.84-6.85-3.07-6.84-6.84-6.84-6.85,3.07-6.85,6.84"/><path d="M1750.35,124.69l225.06-12.4v12.42l-225.06,12.4v-12.42" fill-rule="evenodd"/><path d="M1120.11,149.49l225.05-12.4v12.42l-225.05,12.4v-12.42" fill-rule="evenodd"/><path d="M823.33,161.88l225.06-18.6v12.44l-225.06,18.6v-12.44" fill-rule="evenodd"/><path d="M489.86,174.29l225.06-12.4v12.42l-225.06,12.4v-12.42" fill-rule="evenodd"/><path d="M222.84,25.49l225.06-12.4v12.42l-225.06,12.4v-12.42" fill-rule="evenodd"/><path d="M1453.58,143.3l225.06-6.2v12.4l-225.06,6.2v-12.4" fill-rule="evenodd"/><path d="M1476.12,383.84l223.71,12.4v12.42l-223.71-12.4v-12.42" fill-rule="evenodd"/><path d="M1114.7,532.64l223.7,12.4v12.42l-223.7-12.4v-12.42" fill-rule="evenodd"/><path d="M819.73,514.03l223.7,18.6v12.44l-223.7-18.6v-12.44" fill-rule="evenodd"/><path d="M488.06,507.84l223.71,12.4v12.42l-223.71-12.4v-12.42" fill-rule="evenodd"/><path d="M193.09,507.85l223.71,6.2v12.4l-223.71-6.2v-12.4" fill-rule="evenodd"/><path d="M2102.76,408.64l223.71,12.4v12.42l-223.71-12.4v-12.42" fill-rule="evenodd"/><path d="M1771.09,396.23l223.7,18.6v12.44l-223.7-18.6v-12.44" fill-rule="evenodd"/><path d="M2083.83,118.5l225.06-6.2v12.4l-225.06,6.2v-12.41" fill-rule="evenodd"/></g></svg>