<?xml version="1.0" encoding="UTF-8"?><svg id="Ebene_2" xmlns="http://www.w3.org/2000/svg" viewBox="0 0 2095.2 572.81"><g id="Ebene_1-2"><line y1="58.66" x2="2095.2" y2="58.66" fill="none" stroke="#000" stroke-linejoin="bevel" stroke-width="2.73"/><line y1="83.46" x2="2095.2" y2="83.46" fill="none" stroke="#000" stroke-linejoin="bevel" stroke-width="2.73"/><line y1="108.26" x2="2095.2" y2="108.26" fill="none" stroke="#000" stroke-linejoin="bevel" stroke-width="2.73"/><line y1="133.06" x2="2095.2" y2="133.06" fill="none" stroke="#000" stroke-linejoin="bevel" stroke-width="2.73"/><line y1="157.86" x2="2095.2" y2="157.86" fill="none" stroke="#000" stroke-linejoin="bevel" stroke-width="2.73"/><line y1="392.34" x2="2095.2" y2="392.34" fill="none" stroke="#000" stroke-linejoin="bevel" stroke-width="2.73"/><line y1="417.14" x2="2095.2" y2="417.14" fill="none" stroke="#000" stroke-linejoin="bevel" stroke-width="2.73"/><line y1="441.94" x2="2095.2" y2="441.94" fill="none" stroke="#000" stroke-linejoin="bevel" stroke-width="2.73"/><line y1="466.74" x2="2095.2" y2="466.74" fill="none" stroke="#000" stroke-linejoin="bevel" stroke-width="2.73"/><line y1="491.54" x2="2095.2" y2="491.54" fill="none" stroke="#000" stroke-linejoin="bevel" stroke-width="2.73"/><line x1="2079.33" y1="390.98" x2="2079.33" y2="492.9" fill="none" stroke="#000" stroke-linejoin="bevel" stroke-width="4.46"/><line x1="2092.97" y1="390.98" x2="2092.97" y2="492.9" fill="none" stroke="#000" stroke-linejoin="bevel" stroke-width="4.46"/><line x1="2092.97" y1="57.3" x2="2092.97" y2="159.22" fill="none" stroke="#000" stroke-linejoin="bevel" stroke-width="4.46"/><line x1="1207.86" y1="57.3" x2="1207.86" y2="159.22" fill="none" stroke="#000" stroke-linejoin="bevel" stroke-width="4.46"/><line x1="1200.71" y1="390.98" x2="1200.71" y2="492.9" fill="none" stroke="#000" stroke-linejoin="bevel" stroke-width="4.46"/><line x1="263.56" y1="367.54" x2="312.15" y2="367.54" fill="none" stroke="#000" stroke-linejoin="bevel" stroke-width="3.97"/><line x1="1778.92" y1="33.86" x2="1827.52" y2="33.86" fill="none" stroke="#000" stroke-linejoin="bevel" stroke-width="3.97"/><line x1="1623.27" y1="33.86" x2="1671.87" y2="33.86" fill="none" stroke="#000" stroke-linejoin="bevel" stroke-width="3.97"/><line x1="1545.45" y1="33.86" x2="1594.05" y2="33.86" fill="none" stroke="#000" stroke-linejoin="bevel" stroke-width="3.97"/><line x1="1856.74" y1="33.86" x2="1905.34" y2="33.86" fill="none" stroke="#000" stroke-linejoin="bevel" stroke-width="3.97"/><line x1="1934.57" y1="33.86" x2="1983.17" y2="33.86" fill="none" stroke="#000" stroke-linejoin="bevel" stroke-width="3.97"/><line x1="817.75" y1="75.23" x2="817.75" y2="157.86" fill="none" stroke="#000" stroke-linejoin="bevel" stroke-width="2.48"/><line x1="350.21" y1="396.51" x2="350.21" y2="463.64" fill="none" stroke="#000" stroke-linejoin="bevel" stroke-width="2.48"/><line x1="895.57" y1="75.23" x2="895.57" y2="151.76" fill="none" stroke="#000" stroke-linejoin="bevel" stroke-width="2.48"/><line x1="1866.17" y1="25.63" x2="1866.17" y2="102.16" fill="none" stroke="#000" stroke-linejoin="bevel" stroke-width="2.48"/><line x1="973.4" y1="87.63" x2="973.4" y2="157.81" fill="none" stroke="#000" stroke-linejoin="bevel" stroke-width="2.48"/><line x1="1051.22" y1="62.83" x2="1051.22" y2="154.76" fill="none" stroke="#000" stroke-linejoin="bevel" stroke-width="2.48"/><line x1="427.44" y1="396.51" x2="427.44" y2="466.69" fill="none" stroke="#000" stroke-linejoin="bevel" stroke-width="2.48"/><line x1="1129.04" y1="62.83" x2="1129.04" y2="151.71" fill="none" stroke="#000" stroke-linejoin="bevel" stroke-width="2.48"/><line x1="1943.99" y1="38.03" x2="1943.99" y2="120.66" fill="none" stroke="#000" stroke-linejoin="bevel" stroke-width="2.48"/><line x1="1243.57" y1="75.23" x2="1243.57" y2="139.16" fill="none" stroke="#000" stroke-linejoin="bevel" stroke-width="2.48"/><line x1="1122.49" y1="433.71" x2="1122.49" y2="497.69" fill="none" stroke="#000" stroke-linejoin="bevel" stroke-width="2.48"/><line x1="1045.26" y1="433.71" x2="1045.26" y2="494.64" fill="none" stroke="#000" stroke-linejoin="bevel" stroke-width="2.48"/><line x1="1321.4" y1="50.43" x2="1321.4" y2="133.06" fill="none" stroke="#000" stroke-linejoin="bevel" stroke-width="2.48"/><line x1="504.66" y1="384.11" x2="504.66" y2="485.39" fill="none" stroke="#000" stroke-linejoin="bevel" stroke-width="2.48"/><line x1="1399.22" y1="50.43" x2="1399.22" y2="126.96" fill="none" stroke="#000" stroke-linejoin="bevel" stroke-width="2.48"/><line x1="1622.57" y1="458.51" x2="1622.57" y2="522.49" fill="none" stroke="#000" stroke-linejoin="bevel" stroke-width="2.48"/><line x1="1477.05" y1="62.83" x2="1477.05" y2="133.01" fill="none" stroke="#000" stroke-linejoin="bevel" stroke-width="2.48"/><line x1="968.04" y1="408.91" x2="968.04" y2="491.59" fill="none" stroke="#000" stroke-linejoin="bevel" stroke-width="2.48"/><line x1="890.81" y1="421.31" x2="890.81" y2="491.49" fill="none" stroke="#000" stroke-linejoin="bevel" stroke-width="2.48"/><line x1="1554.87" y1="38.03" x2="1554.87" y2="129.96" fill="none" stroke="#000" stroke-linejoin="bevel" stroke-width="2.48"/><line x1="584.28" y1="87.63" x2="584.28" y2="173.36" fill="none" stroke="#000" stroke-linejoin="bevel" stroke-width="2.48"/><line x1="659.12" y1="408.91" x2="659.12" y2="491.49" fill="none" stroke="#000" stroke-linejoin="bevel" stroke-width="2.48"/><line x1="1632.69" y1="38.03" x2="1632.69" y2="126.91" fill="none" stroke="#000" stroke-linejoin="bevel" stroke-width="2.48"/><line x1="736.35" y1="396.51" x2="736.35" y2="485.39" fill="none" stroke="#000" stroke-linejoin="bevel" stroke-width="2.48"/><line x1="1545.34" y1="458.51" x2="1545.34" y2="519.44" fill="none" stroke="#000" stroke-linejoin="bevel" stroke-width="2.48"/><line x1="662.1" y1="87.63" x2="662.1" y2="170.31" fill="none" stroke="#000" stroke-linejoin="bevel" stroke-width="2.48"/><line x1="272.98" y1="124.83" x2="272.98" y2="188.76" fill="none" stroke="#000" stroke-linejoin="bevel" stroke-width="2.48"/><line x1="581.89" y1="408.91" x2="581.89" y2="488.44" fill="none" stroke="#000" stroke-linejoin="bevel" stroke-width="2.48"/><line x1="1788.34" y1="25.63" x2="1788.34" y2="108.26" fill="none" stroke="#000" stroke-linejoin="bevel" stroke-width="2.48"/><line x1="350.8" y1="100.03" x2="350.8" y2="182.66" fill="none" stroke="#000" stroke-linejoin="bevel" stroke-width="2.48"/><line x1="1710.52" y1="50.43" x2="1710.52" y2="114.36" fill="none" stroke="#000" stroke-linejoin="bevel" stroke-width="2.48"/><line x1="1961.24" y1="450.37" x2="1961.24" y2="373.74" fill="none" stroke="#000" stroke-linejoin="bevel" stroke-width="2.48"/><line x1="428.63" y1="100.03" x2="428.63" y2="176.56" fill="none" stroke="#000" stroke-linejoin="bevel" stroke-width="2.48"/><line x1="272.98" y1="371.71" x2="272.98" y2="460.59" fill="none" stroke="#000" stroke-linejoin="bevel" stroke-width="2.48"/><line x1="1884.01" y1="462.77" x2="1884.01" y2="379.89" fill="none" stroke="#000" stroke-linejoin="bevel" stroke-width="2.48"/><line x1="506.45" y1="112.43" x2="506.45" y2="176.41" fill="none" stroke="#000" stroke-linejoin="bevel" stroke-width="2.48"/><line x1="813.58" y1="421.31" x2="813.58" y2="488.44" fill="none" stroke="#000" stroke-linejoin="bevel" stroke-width="2.48"/><line x1="1806.78" y1="462.77" x2="1806.78" y2="376.84" fill="none" stroke="#000" stroke-linejoin="bevel" stroke-width="2.48"/><line x1="1468.11" y1="433.71" x2="1468.11" y2="516.39" fill="none" stroke="#000" stroke-linejoin="bevel" stroke-width="2.48"/><line x1="739.93" y1="100.03" x2="739.93" y2="163.96" fill="none" stroke="#000" stroke-linejoin="bevel" stroke-width="2.48"/><line x1="1390.88" y1="446.11" x2="1390.88" y2="510.09" fill="none" stroke="#000" stroke-linejoin="bevel" stroke-width="2.48"/><line x1="1313.65" y1="446.11" x2="1313.65" y2="507.04" fill="none" stroke="#000" stroke-linejoin="bevel" stroke-width="2.48"/><line x1="1236.43" y1="421.31" x2="1236.43" y2="503.99" fill="none" stroke="#000" stroke-linejoin="bevel" stroke-width="2.48"/><line x1="1729.55" y1="437.97" x2="1729.55" y2="373.79" fill="none" stroke="#000" stroke-linejoin="bevel" stroke-width="2.48"/><path d="M271.74,124.83c0,4.26,3.07,9.02,11.11,9.02,10.31,0,21.13-8.43,21.13-17.16,0-5.86-4.96-9.13-11.11-9.13-9.63,0-21.13,8.14-21.13,17.27"/><path d="M349.56,100.03c0,4.26,3.07,9.02,11.11,9.02,10.31,0,21.13-8.43,21.13-17.16,0-5.86-4.96-9.13-11.11-9.13-9.63,0-21.13,8.14-21.13,17.27"/><path d="M427.39,100.03c0,4.26,3.07,9.02,11.11,9.02,10.31,0,21.13-8.43,21.13-17.16,0-5.86-4.96-9.13-11.11-9.13-9.63,0-21.13,8.14-21.13,17.27"/><path d="M505.21,112.43c0,4.26,3.07,9.02,11.11,9.02,10.31,0,21.13-8.43,21.13-17.16,0-5.86-4.96-9.13-11.11-9.13-9.63,0-21.13,8.14-21.13,17.27"/><path d="M583.04,87.63c0,4.26,3.07,9.02,11.11,9.02,10.31,0,21.13-8.43,21.13-17.16,0-5.86-4.96-9.13-11.11-9.13-9.63,0-21.13,8.14-21.13,17.27"/><path d="M660.86,87.63c0,4.26,3.07,9.02,11.11,9.02,10.31,0,21.13-8.43,21.13-17.16,0-5.86-4.96-9.13-11.11-9.13-9.63,0-21.13,8.14-21.13,17.27"/><path d="M738.69,100.03c0,4.26,3.07,9.02,11.11,9.02,10.31,0,21.13-8.43,21.13-17.16,0-5.86-4.96-9.13-11.11-9.13-9.63,0-21.13,8.14-21.13,17.27"/><path d="M816.51,75.23c0,4.26,3.07,9.02,11.11,9.02,10.31,0,21.13-8.43,21.13-17.16,0-5.86-4.96-9.13-11.11-9.13-9.63,0-21.13,8.14-21.13,17.27"/><path d="M894.33,75.23c0,4.26,3.07,9.02,11.11,9.02,10.31,0,21.13-8.43,21.13-17.16,0-5.86-4.96-9.13-11.11-9.13-9.63,0-21.13,8.14-21.13,17.27"/><path d="M972.16,87.63c0,4.26,3.07,9.02,11.11,9.02,10.31,0,21.13-8.43,21.13-17.16,0-5.86-4.96-9.13-11.11-9.13-9.63,0-21.13,8.14-21.13,17.27"/><path d="M1049.98,62.83c0,4.26,3.07,9.02,11.11,9.02,10.31,0,21.13-8.43,21.13-17.16,0-5.86-4.96-9.13-11.11-9.13-9.63,0-21.13,8.14-21.13,17.27"/><path d="M1127.8,62.83c0,4.26,3.07,9.02,11.11,9.02,10.31,0,21.13-8.43,21.13-17.16,0-5.86-4.96-9.13-11.11-9.13-9.63,0-21.13,8.14-21.13,17.27"/><path d="M1242.33,75.23c0,4.26,3.07,9.02,11.11,9.02,10.31,0,21.13-8.43,21.13-17.16,0-5.86-4.96-9.13-11.11-9.13-9.63,0-21.13,8.14-21.13,17.27"/><path d="M1320.16,50.43c0,4.26,3.07,9.02,11.11,9.02,10.31,0,21.13-8.43,21.13-17.16,0-5.86-4.96-9.13-11.11-9.13-9.63,0-21.13,8.14-21.13,17.27"/><path d="M1397.98,50.43c0,4.26,3.07,9.02,11.11,9.02,10.31,0,21.13-8.43,21.13-17.16,0-5.86-4.96-9.13-11.11-9.13-9.63,0-21.13,8.14-21.13,17.27"/><path d="M1475.81,62.83c0,4.26,3.07,9.02,11.11,9.02,10.31,0,21.13-8.43,21.13-17.16,0-5.86-4.96-9.13-11.11-9.13-9.63,0-21.13,8.14-21.13,17.27"/><path d="M1553.63,38.03c0,4.26,3.07,9.02,11.11,9.02,10.31,0,21.13-8.43,21.13-17.16,0-5.86-4.96-9.13-11.11-9.13-9.63,0-21.13,8.14-21.13,17.27"/><path d="M1631.45,38.03c0,4.26,3.07,9.02,11.11,9.02,10.31,0,21.13-8.43,21.13-17.16,0-5.86-4.96-9.13-11.11-9.13-9.63,0-21.13,8.14-21.13,17.27"/><path d="M1709.28,50.43c0,4.26,3.07,9.02,11.11,9.02,10.31,0,21.13-8.43,21.13-17.16,0-5.86-4.96-9.13-11.11-9.13-9.63,0-21.13,8.14-21.13,17.27"/><path d="M1787.1,25.63c0,4.26,3.07,9.02,11.11,9.02,10.31,0,21.13-8.43,21.13-17.16,0-5.86-4.96-9.13-11.11-9.13-9.63,0-21.13,8.14-21.13,17.27"/><path d="M1864.93,25.63c0,4.26,3.07,9.02,11.11,9.02,10.31,0,21.13-8.43,21.13-17.16,0-5.86-4.96-9.13-11.11-9.13-9.63,0-21.13,8.14-21.13,17.27"/><path d="M1942.75,38.03c0,4.26,3.07,9.02,11.11,9.02,10.31,0,21.13-8.43,21.13-17.16,0-5.86-4.96-9.13-11.11-9.13-9.63,0-21.13,8.14-21.13,17.27"/><path d="M271.74,371.71c0,4.26,3.07,9.02,11.11,9.02,10.31,0,21.13-8.43,21.13-17.16,0-5.86-4.96-9.13-11.11-9.13-9.63,0-21.13,8.14-21.13,17.27"/><path d="M348.97,396.51c0,4.26,3.07,9.02,11.11,9.02,10.31,0,21.13-8.43,21.13-17.16,0-5.86-4.96-9.13-11.11-9.13-9.63,0-21.13,8.14-21.13,17.27"/><path d="M426.2,396.51c0,4.26,3.07,9.02,11.11,9.02,10.31,0,21.13-8.43,21.13-17.16,0-5.86-4.96-9.13-11.11-9.13-9.63,0-21.13,8.14-21.13,17.27"/><path d="M503.43,384.11c0,4.26,3.07,9.02,11.11,9.02,10.31,0,21.13-8.43,21.13-17.16,0-5.86-4.96-9.13-11.11-9.13-9.63,0-21.13,8.14-21.13,17.27"/><path d="M580.65,408.91c0,4.26,3.07,9.02,11.11,9.02,10.31,0,21.13-8.43,21.13-17.16,0-5.86-4.96-9.13-11.11-9.13-9.63,0-21.13,8.14-21.13,17.27"/><path d="M657.88,408.91c0,4.26,3.07,9.02,11.11,9.02,10.31,0,21.13-8.43,21.13-17.16,0-5.86-4.96-9.13-11.11-9.13-9.63,0-21.13,8.14-21.13,17.27"/><path d="M735.11,396.51c0,4.26,3.07,9.02,11.11,9.02,10.31,0,21.13-8.43,21.13-17.16,0-5.86-4.96-9.13-11.11-9.13-9.63,0-21.13,8.14-21.13,17.27"/><path d="M812.34,421.31c0,4.26,3.07,9.02,11.11,9.02,10.31,0,21.13-8.43,21.13-17.16,0-5.86-4.96-9.13-11.11-9.13-9.63,0-21.13,8.14-21.13,17.27"/><path d="M889.57,421.31c0,4.26,3.07,9.02,11.11,9.02,10.31,0,21.13-8.43,21.13-17.16,0-5.86-4.96-9.13-11.11-9.13-9.63,0-21.13,8.14-21.13,17.27"/><path d="M966.8,408.91c0,4.26,3.07,9.02,11.11,9.02,10.31,0,21.13-8.43,21.13-17.16,0-5.86-4.96-9.13-11.11-9.13-9.63,0-21.13,8.14-21.13,17.27"/><path d="M1044.02,433.71c0,4.26,3.07,9.02,11.11,9.02,10.31,0,21.13-8.43,21.13-17.16,0-5.86-4.96-9.13-11.11-9.13-9.63,0-21.13,8.14-21.13,17.27"/><path d="M1121.25,433.71c0,4.26,3.07,9.02,11.11,9.02,10.31,0,21.13-8.43,21.13-17.16,0-5.86-4.96-9.13-11.11-9.13-9.63,0-21.13,8.14-21.13,17.27"/><path d="M1235.19,421.31c0,4.26,3.07,9.02,11.11,9.02,10.31,0,21.13-8.43,21.13-17.16,0-5.86-4.96-9.13-11.11-9.13-9.63,0-21.13,8.14-21.13,17.27"/><path d="M1312.41,446.11c0,4.26,3.07,9.02,11.11,9.02,10.31,0,21.13-8.43,21.13-17.16,0-5.86-4.96-9.13-11.11-9.13-9.63,0-21.13,8.14-21.13,17.27"/><path d="M1389.64,446.11c0,4.26,3.07,9.02,11.11,9.02,10.31,0,21.13-8.43,21.13-17.16,0-5.86-4.96-9.13-11.11-9.13-9.63,0-21.13,8.14-21.13,17.27"/><path d="M1466.87,433.71c0,4.26,3.07,9.02,11.11,9.02,10.31,0,21.13-8.43,21.13-17.16,0-5.86-4.96-9.13-11.11-9.13-9.63,0-21.13,8.14-21.13,17.27"/><path d="M1544.1,458.51c0,4.26,3.07,9.02,11.11,9.02,10.31,0,21.13-8.43,21.13-17.16,0-5.86-4.96-9.13-11.11-9.13-9.63,0-21.13,8.14-21.13,17.27"/><path d="M1621.33,458.51c0,4.26,3.07,9.02,11.11,9.02,10.31,0,21.13-8.43,21.13-17.16,0-5.86-4.96-9.13-11.11-9.13-9.63,0-21.13,8.14-21.13,17.27"/><path d="M1698.56,446.11c0,4.26,3.07,9.02,11.11,9.02,10.31,0,21.13-8.43,21.13-17.16,0-5.86-4.96-9.13-11.11-9.13-9.63,0-21.13,8.14-21.13,17.27"/><path d="M1775.79,470.91c0,4.26,3.07,9.02,11.11,9.02,10.31,0,21.13-8.43,21.13-17.16,0-5.86-4.96-9.13-11.11-9.13-9.63,0-21.13,8.14-21.13,17.27"/><path d="M1853.01,470.91c0,4.26,3.07,9.02,11.11,9.02,10.31,0,21.13-8.43,21.13-17.16,0-5.86-4.96-9.13-11.11-9.13-9.63,0-21.13,8.14-21.13,17.27"/><path d="M1930.24,458.51c0,4.26,3.07,9.02,11.11,9.02,10.31,0,21.13-8.43,21.13-17.16,0-5.86-4.96-9.13-11.11-9.13-9.63,0-21.13,8.14-21.13,17.27"/><path d="M30.8,517.63c0,6.56,4.96,15.19,18.35,15.19,4.67,0,8.74-1.19,12.31-3.38,5.36-3.77,6.74-10.32,6.74-16.57,0-3.86-.59-8.32-1.58-13.98-.29-1.98-.9-4.96-1.49-8.84,9.72-3.18,16.96-13.3,16.96-23.51,0-14.97-10.62-25.09-25.09-25.09-.99-5.95-1.98-11.81-2.77-17.36,10.42-11.02,17.65-23.42,17.65-39.18,0-9.04-2.77-16.37-4.37-19.95-2.37-5.05-5.25-8.53-7.04-8.53-.7,0-3.77,1.19-7.04,5.05-6.36,7.55-8.14,20.24-8.14,28.57,0,5.36,.5,10.23,2.19,21.34-.11,.09-5.27,5.35-7.35,7.04-9.04,8.34-21.53,20.43-21.53,40.28,0,18.54,16.17,33.12,34.63,33.12,2.87,0,5.55-.29,7.83-.7,1.89,9.53,3.08,16.48,3.08,21.73,0,10.32-5.36,15.78-15.38,15.78-2.39,0-4.46-.5-4.67-.5-.09-.11-.29-.2-.29-.29,0-.2,.2-.31,.5-.31,4.67-.79,9.32-4.76,9.32-11.1,0-5.36-4.06-11.02-11.5-11.02-6.94,0-11.31,5.66-11.31,12.2m20.74-132.43c.9-3.97,5.46-14.38,10.62-14.38,1.49,0,3.86,4.76,3.86,11.7,0,10.32-7.63,18.06-14.48,24.8-.59-3.97-1.08-7.83-1.08-12,0-3.67,.29-7.05,1.08-10.12m8.73,101.97c-1.98,.4-3.86,.6-5.75,.6-14.18,0-26.29-9.92-26.29-24.91,0-12.09,8.53-22.91,17.27-30.46,1.67-1.49,3.27-2.87,4.76-4.36,.88,5.35,1.58,10.01,2.28,14.09-9.04,2.68-15.17,12.2-15.17,21.53,0,6.94,5.46,16.46,13.39,16.46,.79,0,1.69-.4,1.69-1.29s-.99-1.39-2.19-2.19c-3.88-2.39-6.06-4.96-6.06-9.83,0-6.05,4.57-10.91,10.32-12.29l5.75,32.63m14.09-18.35c0,7.05-2.88,14.29-9.92,17.17-2.08-11.9-4.76-27.68-5.46-32.05,8.93,0,15.38,6.06,15.38,14.88"/><path d="M30.8,183.95c0,6.56,4.96,15.19,18.35,15.19,4.67,0,8.74-1.19,12.31-3.38,5.36-3.77,6.74-10.32,6.74-16.57,0-3.86-.59-8.32-1.58-13.98-.29-1.98-.9-4.96-1.49-8.84,9.72-3.18,16.96-13.3,16.96-23.51,0-14.97-10.62-25.09-25.09-25.09-.99-5.95-1.98-11.81-2.77-17.36,10.42-11.02,17.65-23.42,17.65-39.18,0-9.04-2.77-16.37-4.37-19.95-2.37-5.05-5.25-8.53-7.04-8.53-.7,0-3.77,1.19-7.04,5.05-6.36,7.55-8.14,20.24-8.14,28.57,0,5.36,.5,10.23,2.19,21.34-.11,.09-5.27,5.35-7.35,7.04-9.04,8.34-21.53,20.43-21.53,40.28,0,18.54,16.17,33.12,34.63,33.12,2.87,0,5.55-.29,7.83-.7,1.89,9.53,3.08,16.48,3.08,21.73,0,10.32-5.36,15.78-15.38,15.78-2.39,0-4.46-.5-4.67-.5-.09-.11-.29-.2-.29-.29,0-.2,.2-.31,.5-.31,4.67-.79,9.32-4.76,9.32-11.1,0-5.36-4.06-11.02-11.5-11.02-6.94,0-11.31,5.66-11.31,12.2M51.54,51.51c.9-3.97,5.46-14.38,10.62-14.38,1.49,0,3.86,4.76,3.86,11.7,0,10.32-7.63,18.06-14.48,24.8-.59-3.97-1.08-7.83-1.08-12,0-3.67,.29-7.05,1.08-10.12m8.73,101.97c-1.98,.4-3.86,.6-5.75,.6-14.18,0-26.29-9.92-26.29-24.91,0-12.09,8.53-22.91,17.27-30.46,1.67-1.49,3.27-2.87,4.76-4.36,.88,5.35,1.58,10.01,2.28,14.09-9.04,2.68-15.17,12.2-15.17,21.53,0,6.94,5.46,16.46,13.39,16.46,.79,0,1.69-.4,1.69-1.29s-.99-1.39-2.19-2.19c-3.88-2.39-6.06-4.96-6.06-9.83,0-6.05,4.57-10.91,10.32-12.29l5.75,32.63m14.09-18.35c0,7.05-2.88,14.29-9.92,17.17-2.08-11.9-4.76-27.68-5.46-32.05,8.93,0,15.38,6.06,15.38,14.88"/><path d="M118.79,92.88c-4.96,0-7.84,3.07-8.34,3.67l.4-31.85c0-.79-.59-1.38-1.4-1.38h-1.18c-.81,0-1.4,.59-1.4,1.38l.5,59.63c0,.79,.59,1.38,1.4,1.38,.19,0,.59-.09,.79-.19,8.53-4.28,17.45-12.4,17.45-22.63,0-5.15-2.37-10.01-8.23-10.01m-8.63,27.98l.29-19.34c.2-.9,1.69-3.77,5.66-3.77,3.58,0,3.87,3.36,3.87,5.46,0,8.82-3.27,12.49-9.83,17.65"/><path d="M146.36,55.68c-4.96,0-7.84,3.07-8.34,3.67l.4-31.85c0-.79-.59-1.38-1.4-1.38h-1.18c-.81,0-1.4,.59-1.4,1.38l.5,59.63c0,.79,.59,1.38,1.4,1.38,.19,0,.59-.09,.79-.19,8.53-4.28,17.45-12.4,17.45-22.63,0-5.15-2.37-10.01-8.23-10.01m-8.63,27.98l.29-19.34c.2-.9,1.69-3.77,5.66-3.77,3.58,0,3.87,3.36,3.87,5.46,0,8.82-3.27,12.49-9.83,17.65"/><path d="M173.93,105.28c-4.96,0-7.84,3.07-8.34,3.67l.4-31.85c0-.79-.59-1.38-1.4-1.38h-1.18c-.81,0-1.4,.59-1.4,1.38l.5,59.63c0,.79,.59,1.38,1.4,1.38,.19,0,.59-.09,.79-.19,8.53-4.28,17.45-12.4,17.45-22.63,0-5.15-2.37-10.01-8.23-10.01m-8.63,27.98l.29-19.34c.2-.9,1.69-3.77,5.66-3.77,3.58,0,3.87,3.36,3.87,5.46,0,8.82-3.27,12.49-9.83,17.65"/><path d="M201.51,68.08c-4.96,0-7.84,3.07-8.34,3.67l.4-31.85c0-.79-.59-1.38-1.4-1.38h-1.18c-.81,0-1.4,.59-1.4,1.38l.5,59.63c0,.79,.59,1.38,1.4,1.38,.19,0,.59-.09,.79-.19,8.53-4.28,17.45-12.4,17.45-22.63,0-5.15-2.37-10.01-8.23-10.01m-8.63,27.98l.29-19.34c.2-.9,1.69-3.77,5.66-3.77,3.58,0,3.87,3.36,3.87,5.46,0,8.82-3.27,12.49-9.83,17.65"/><path d="M118.79,426.56c-4.96,0-7.84,3.07-8.34,3.67l.4-31.85c0-.79-.59-1.38-1.4-1.38h-1.18c-.81,0-1.4,.59-1.4,1.38l.5,59.63c0,.79,.59,1.38,1.4,1.38,.19,0,.59-.09,.79-.19,8.53-4.28,17.45-12.4,17.45-22.63,0-5.15-2.37-10.01-8.23-10.01m-8.63,27.98l.29-19.34c.2-.9,1.69-3.77,5.66-3.77,3.58,0,3.87,3.36,3.87,5.46,0,8.82-3.27,12.49-9.83,17.65"/><path d="M146.36,389.36c-4.96,0-7.84,3.07-8.34,3.67l.4-31.85c0-.79-.59-1.38-1.4-1.38h-1.18c-.81,0-1.4,.59-1.4,1.38l.5,59.63c0,.79,.59,1.38,1.4,1.38,.19,0,.59-.09,.79-.19,8.53-4.28,17.45-12.4,17.45-22.63,0-5.15-2.37-10.01-8.23-10.01m-8.63,27.98l.29-19.34c.2-.9,1.69-3.77,5.66-3.77,3.58,0,3.87,3.36,3.87,5.46,0,8.82-3.27,12.49-9.83,17.65"/><path d="M173.93,438.96c-4.96,0-7.84,3.07-8.34,3.67l.4-31.85c0-.79-.59-1.38-1.4-1.38h-1.18c-.81,0-1.4,.59-1.4,1.38l.5,59.63c0,.79,.59,1.38,1.4,1.38,.19,0,.59-.09,.79-.19,8.53-4.28,17.45-12.4,17.45-22.63,0-5.15-2.37-10.01-8.23-10.01m-8.63,27.98l.29-19.34c.2-.9,1.69-3.77,5.66-3.77,3.58,0,3.87,3.36,3.87,5.46,0,8.82-3.27,12.49-9.83,17.65"/><path d="M201.51,401.76c-4.96,0-7.84,3.07-8.34,3.67l.4-31.85c0-.79-.59-1.38-1.4-1.38h-1.18c-.81,0-1.4,.59-1.4,1.38l.5,59.63c0,.79,.59,1.38,1.4,1.38,.19,0,.59-.09,.79-.19,8.53-4.28,17.45-12.4,17.45-22.63,0-5.15-2.37-10.01-8.23-10.01m-8.63,27.98l.29-19.34c.2-.9,1.69-3.77,5.66-3.77,3.58,0,3.87,3.36,3.87,5.46,0,8.82-3.27,12.49-9.83,17.65"/><path d="M1969.08,338.03c-9.32-10.12-17.56-10.71-22.71-10.71s-13.3,.59-22.63,10.71c-4.85,5.36-8.23,15.97-8.23,21.33,0,1.89,.4,3.18,1.4,3.18,2.77,0,1.38-8.54,9.72-16.97,7.33-7.33,17.16-7.44,19.55-7.44h.39c2.39,0,12.21,.11,19.55,7.44,8.34,8.43,6.94,16.97,9.72,16.97,.99,0,1.39-1.19,1.39-3.18,0-5.36-3.27-16.07-8.14-21.33m-29.56,18.94c0,3.78,3.07,6.85,6.85,6.85s6.84-3.07,6.84-6.85-3.07-6.84-6.84-6.84-6.85,3.07-6.85,6.84"/><path d="M604.67,12.18c.64-.56,1-.75,1.47-.75,.41,0,.73,.19,1.05,.65,.64,.87,.88,1.03,1.52,1.03,.92,0,1.61-.75,1.61-1.75,0-1.18-1.12-2.1-2.53-2.1s-2.47,.53-4.55,2.17c-1.25-.56-2.17-.76-3.45-.76-4.44,0-8.19,3.16-8.19,6.84,0,1.92,.75,3.24,2.47,4.16-1.83,.23-2.67,.51-3.59,1.31-.8,.64-1.31,1.72-1.31,2.69,0,1.36,.64,2.2,2.19,2.95-2.36,.53-5.11,1.53-5.11,4.44,0,4,5.28,4.48,8.2,4.48,3.95,0,6.23-.48,8.19-1.76,1.72-1.11,2.72-2.83,2.72-4.72,0-4.03-4.28-4.52-7.36-4.72-3.55-.19-3.83-.23-4.39-.36-1-.23-1.48-.72-1.48-1.39,0-.97,.95-1.61,2.41-1.61,.52,0,1.11,.05,1.64,.13,1.64,.23,1.88,.28,2.88,.28,2.23,0,4-.56,5.39-1.69,1.61-1.23,2.61-3.23,2.61-5.08s-.8-3.31-2.36-4.44m-4.61,0c2.09,0,3.41,1.25,3.41,3.21,0,2.87-1.31,6.51-4.72,6.51-2.16,0-3.52-1.36-3.52-3.59,0-3.59,1.95-6.13,4.83-6.13m-4.88,17.16c1.8,0,4.69,.41,5.59,.77,1,.43,1.48,1.12,1.48,2.12,0,2.36-2.52,3.64-7.11,3.64-3.89,0-5.69-.97-5.69-3.09s2.08-3.44,5.72-3.44m25.08-25.62c-1.08,0-1.95,.87-1.95,1.95s.88,1.95,1.95,1.95,1.97-.87,1.97-1.95-.89-1.95-1.97-1.95m8.08,0c-1.08,0-1.95,.87-1.95,1.95s.88,1.95,1.95,1.95,1.97-.87,1.97-1.95-.89-1.95-1.97-1.95m2.41,7.54h-3.48l-1.88,6.41c-1.64,5.56-5.33,10.11-8.16,10.11-.97,0-1.72-.75-1.72-1.72,0-.52,.11-1.16,.44-2.27l3.92-13.12-7.72,.59-.12,1.46h.95c1.64,0,2.25,.36,2.25,1.26,0,.41-.12,.97-.33,1.74l-1.59,5.39q-1.23,4-1.23,5.23c0,2.2,1.52,3.69,3.8,3.69,2.8,0,5.08-1.64,7.44-5.33-.41,1.41-.48,1.97-.48,2.72,0,1.56,1.08,2.64,2.56,2.64,2.44,0,4.39-1.64,7.23-6l-1.2-.72c-1.95,2.92-3.52,4.53-4.39,4.53-.36,0-.72-.45-.72-.97,0-.43,.16-1.2,.47-2.36l3.97-13.28"/><path d="M528.93,23.15c-2.33,3.75-3.33,4.8-4.64,4.8-.64,0-1-.41-1-1.12,0-.52,.2-1.44,.59-2.85l7.12-23.98-7.95,.59-.17,1.44h1.25c1.64,0,2.28,.36,2.28,1.23,0,.41-.12,.92-.36,1.77l-2.64,8.87c-.72-2.07-2.28-3.23-4.61-3.23-5.75,0-11.11,6.16-11.11,12.8,0,3.92,2.52,6.59,6.28,6.59,2.72,0,4.72-1.11,6.47-3.72-.03,.33-.03,.72-.03,.89,0,1.83,.95,2.83,2.72,2.83,2.51,0,4.72-1.95,7-6.19l-1.2-.72m-10-10.68c1.95,0,3.39,1.51,3.39,3.61,0,3.62-2.55,12.1-7.19,12.1-2.16,0-3.56-1.71-3.56-4.31,0-3.79,2.72-11.4,7.36-11.4m22.51-8.75c-1.08,0-1.95,.87-1.95,1.95s.88,1.95,1.95,1.95,1.97-.87,1.97-1.95-.89-1.95-1.97-1.95m8.08,0c-1.08,0-1.95,.87-1.95,1.95s.88,1.95,1.95,1.95,1.97-.87,1.97-1.95-.89-1.95-1.97-1.95m2.41,7.54h-3.49l-1.88,6.41c-1.64,5.56-5.33,10.11-8.16,10.11-.97,0-1.72-.75-1.72-1.72,0-.52,.11-1.16,.44-2.27l3.92-13.12-7.72,.59-.12,1.46h.95c1.64,0,2.25,.36,2.25,1.26,0,.41-.12,.97-.33,1.74l-1.59,5.39q-1.23,4-1.23,5.23c0,2.2,1.51,3.69,3.8,3.69,2.8,0,5.08-1.64,7.44-5.33-.41,1.41-.48,1.97-.48,2.72,0,1.56,1.08,2.64,2.56,2.64,2.44,0,4.39-1.64,7.24-6l-1.2-.72c-1.95,2.92-3.51,4.53-4.39,4.53-.36,0-.72-.45-.72-.97,0-.43,.16-1.2,.47-2.36l3.97-13.28"/><path d="M451.1,23.15c-2.33,3.75-3.33,4.8-4.64,4.8-.64,0-1-.41-1-1.12,0-.52,.2-1.44,.59-2.85l7.12-23.98-7.95,.59-.17,1.44h1.25c1.64,0,2.28,.36,2.28,1.23,0,.41-.12,.92-.36,1.77l-2.64,8.87c-.72-2.07-2.28-3.23-4.61-3.23-5.75,0-11.11,6.16-11.11,12.8,0,3.92,2.52,6.59,6.28,6.59,2.72,0,4.72-1.11,6.47-3.72-.03,.33-.03,.72-.03,.89,0,1.83,.95,2.83,2.72,2.83,2.52,0,4.72-1.95,7-6.19l-1.2-.72m-10-10.68c1.95,0,3.39,1.51,3.39,3.61,0,3.62-2.55,12.1-7.19,12.1-2.16,0-3.56-1.71-3.56-4.31,0-3.79,2.72-11.4,7.36-11.4m22.52-8.75c-1.08,0-1.95,.87-1.95,1.95s.88,1.95,1.95,1.95,1.97-.87,1.97-1.95-.89-1.95-1.97-1.95m8.08,0c-1.08,0-1.95,.87-1.95,1.95s.88,1.95,1.95,1.95,1.97-.87,1.97-1.95-.89-1.95-1.97-1.95m2.41,7.54h-3.48l-1.88,6.41c-1.64,5.56-5.33,10.11-8.16,10.11-.97,0-1.72-.75-1.72-1.72,0-.52,.11-1.16,.44-2.27l3.92-13.12-7.72,.59-.12,1.46h.95c1.64,0,2.25,.36,2.25,1.26,0,.41-.12,.97-.33,1.74l-1.59,5.39q-1.23,4-1.23,5.23c0,2.2,1.52,3.69,3.8,3.69,2.8,0,5.08-1.64,7.44-5.33-.41,1.41-.48,1.97-.48,2.72,0,1.56,1.08,2.64,2.56,2.64,2.44,0,4.39-1.64,7.23-6l-1.2-.72c-1.95,2.92-3.52,4.53-4.39,4.53-.36,0-.72-.45-.72-.97,0-.43,.16-1.2,.47-2.36l3.97-13.28"/><path d="M295.45,23.15c-2.33,3.75-3.33,4.8-4.64,4.8-.64,0-1-.41-1-1.12,0-.52,.2-1.44,.59-2.85l7.12-23.98-7.95,.59-.17,1.44h1.25c1.64,0,2.28,.36,2.28,1.23,0,.41-.12,.92-.36,1.77l-2.64,8.87c-.72-2.07-2.28-3.23-4.61-3.23-5.75,0-11.11,6.16-11.11,12.8,0,3.92,2.52,6.59,6.28,6.59,2.72,0,4.72-1.11,6.47-3.72-.03,.33-.03,.72-.03,.89,0,1.83,.95,2.83,2.72,2.83,2.51,0,4.72-1.95,7-6.19l-1.2-.72m-10-10.68c1.95,0,3.39,1.51,3.39,3.61,0,3.62-2.55,12.1-7.19,12.1-2.16,0-3.56-1.71-3.56-4.31,0-3.79,2.72-11.4,7.36-11.4m22.52-8.75c-1.08,0-1.95,.87-1.95,1.95s.88,1.95,1.95,1.95,1.97-.87,1.97-1.95-.89-1.95-1.97-1.95m8.08,0c-1.08,0-1.95,.87-1.95,1.95s.88,1.95,1.95,1.95,1.97-.87,1.97-1.95-.89-1.95-1.97-1.95m2.41,7.54h-3.48l-1.88,6.41c-1.64,5.56-5.33,10.11-8.16,10.11-.97,0-1.72-.75-1.72-1.72,0-.52,.11-1.16,.44-2.27l3.92-13.12-7.72,.59-.12,1.46h.95c1.64,0,2.25,.36,2.25,1.26,0,.41-.12,.97-.33,1.74l-1.59,5.39q-1.23,4-1.23,5.23c0,2.2,1.52,3.69,3.8,3.69,2.8,0,5.08-1.64,7.44-5.33-.41,1.41-.48,1.97-.48,2.72,0,1.56,1.08,2.64,2.56,2.64,2.44,0,4.39-1.64,7.23-6l-1.2-.72c-1.95,2.92-3.52,4.53-4.39,4.53-.36,0-.72-.45-.72-.97,0-.43,.16-1.2,.47-2.36l3.97-13.28"/><path d="M684.57,23.15c-2.33,3.75-3.33,4.8-4.64,4.8-.64,0-1-.41-1-1.12,0-.52,.2-1.44,.59-2.85l7.12-23.98-7.95,.59-.17,1.44h1.25c1.64,0,2.28,.36,2.28,1.23,0,.41-.12,.92-.36,1.77l-2.64,8.87c-.72-2.07-2.28-3.23-4.61-3.23-5.75,0-11.11,6.16-11.11,12.8,0,3.92,2.51,6.59,6.28,6.59,2.72,0,4.72-1.11,6.47-3.72-.03,.33-.03,.72-.03,.89,0,1.83,.95,2.83,2.72,2.83,2.52,0,4.72-1.95,7-6.19l-1.2-.72m-10-10.68c1.95,0,3.39,1.51,3.39,3.61,0,3.62-2.55,12.1-7.19,12.1-2.16,0-3.56-1.71-3.56-4.31,0-3.79,2.72-11.4,7.36-11.4m22.52-8.75c-1.08,0-1.95,.87-1.95,1.95s.88,1.95,1.95,1.95,1.97-.87,1.97-1.95-.89-1.95-1.97-1.95m8.08,0c-1.08,0-1.95,.87-1.95,1.95s.88,1.95,1.95,1.95,1.97-.87,1.97-1.95-.89-1.95-1.97-1.95m2.41,7.54h-3.48l-1.88,6.41c-1.64,5.56-5.33,10.11-8.16,10.11-.97,0-1.72-.75-1.72-1.72,0-.52,.11-1.16,.44-2.27l3.92-13.12-7.72,.59-.12,1.46h.95c1.64,0,2.25,.36,2.25,1.26,0,.41-.12,.97-.33,1.74l-1.59,5.39q-1.24,4-1.24,5.23c0,2.2,1.52,3.69,3.8,3.69,2.8,0,5.08-1.64,7.44-5.33-.41,1.41-.49,1.97-.49,2.72,0,1.56,1.08,2.64,2.56,2.64,2.44,0,4.39-1.64,7.23-6l-1.2-.72c-1.95,2.92-3.52,4.53-4.39,4.53-.36,0-.72-.45-.72-.97,0-.43,.16-1.2,.47-2.36l3.97-13.28"/><path d="M751.81,10.67c-4.2,0-7.25,2.56-7.25,6.03,0,1.73,1,3.17,2.77,4.09,.64,.32,1.44,.68,3.12,1.36,2.27,.91,2.83,1.47,2.83,2.88,0,2.15-1.8,3.51-4.56,3.51-2.03,0-3.47-.56-3.47-1.36,0-.2,.11-.43,.28-.59,.75-.8,.83-1,.83-1.72,0-1.12-.88-2-2.03-2-1.33,0-2.33,1.11-2.33,2.67,0,2.8,2.48,4.52,6.53,4.52,4.59,0,7.75-2.52,7.75-6.16,0-1.59-.72-2.95-2-3.82-.88-.61-1.28-.77-3.47-1.57-2.61-.92-3.28-1.56-3.28-3.12,0-1.85,1.75-3.21,4.08-3.21,1.56,0,2.59,.44,2.59,1.08,0,.17-.08,.36-.2,.57-.56,.79-.64,1-.64,1.6,0,1.08,.84,1.83,2.08,1.83,1.36,0,2.28-1,2.28-2.43,0-2.44-2.44-4.16-5.91-4.16m16.75-9.77c-1.2,0-2.16,.97-2.16,2.18s.95,2.15,2.12,2.15c1.23,0,2.19-.97,2.19-2.15s-.95-2.18-2.16-2.18m.72,9.77l-7.67,.59-.16,1.46h.95c1.64,0,2.28,.36,2.28,1.23,0,.39-.08,.84-.36,1.77l-2.33,7.79c-.75,2.55-.88,3.11-.88,4.03,0,1.41,1.2,2.49,2.72,2.49,3.44,0,5.8-3.56,7.48-6.16l-1.25-.69c-2.08,3.16-3.75,4.85-4.83,4.85-.41,0-.69-.36-.69-.85,0-.39,.16-1.12,.48-2.23l4.23-14.28m12.97,0l-7.28,.59-.12,1.46h.97c1.59,0,2.23,.36,2.23,1.26,0,.36-.12,.97-.33,1.74l-4.08,13.75h3.48l1.64-5.64c1.8-6.13,5.44-10.75,8.44-10.75,1.05,0,1.69,.54,1.69,1.54,0,.81-.33,2.49-.81,4l-3.19,10.85h3.47l1.72-5.8c1-3.33,2-5.56,3.28-7.28,1.44-2,3.48-3.31,5-3.31,1,0,1.56,.51,1.56,1.46,0,.57-.2,1.44-.56,2.57l-1.84,5.68c-1.08,3.11-1.11,3.36-1.11,4.47,0,1.69,1.23,2.8,3.11,2.8,1.32,0,2.61-.64,3.97-1.91,.84-.81,1.39-1.53,3.03-3.92l-1.24-.84c-2.08,3.12-3.56,4.64-4.59,4.64-.44,0-.85-.44-.85-1,0-.36,.13-.8,.49-1.97l2.51-7.75c.29-.88,.49-2.13,.49-3,0-2.13-1.56-3.64-3.72-3.64-2.84,0-5.41,1.84-7.72,5.64,.16-.77,.24-1.44,.24-1.92,0-2.13-1.69-3.72-3.88-3.72-2.53,0-4.36,1.41-7.17,5.41l1.17-5.41m29.95,14.44c-1.36,0-2.46,1.12-2.46,2.48s1.1,2.47,2.43,2.47c1.44,0,2.52-1.08,2.52-2.47s-1.13-2.48-2.49-2.48"/><path d="M371.2,12.18c.64-.56,1-.75,1.47-.75,.41,0,.73,.19,1.05,.65,.64,.87,.88,1.03,1.51,1.03,.92,0,1.61-.75,1.61-1.75,0-1.18-1.12-2.1-2.53-2.1s-2.47,.53-4.55,2.17c-1.25-.56-2.17-.76-3.45-.76-4.44,0-8.19,3.16-8.19,6.84,0,1.92,.75,3.24,2.47,4.16-1.83,.23-2.67,.51-3.59,1.31-.8,.64-1.31,1.72-1.31,2.69,0,1.36,.64,2.2,2.19,2.95-2.36,.53-5.11,1.53-5.11,4.44,0,4,5.28,4.48,8.2,4.48,3.95,0,6.23-.48,8.19-1.76,1.72-1.11,2.72-2.83,2.72-4.72,0-4.03-4.28-4.52-7.36-4.72-3.55-.19-3.83-.23-4.39-.36-1-.23-1.48-.72-1.48-1.39,0-.97,.95-1.61,2.41-1.61,.51,0,1.11,.05,1.64,.13,1.64,.23,1.88,.28,2.88,.28,2.24,0,4-.56,5.39-1.69,1.61-1.23,2.61-3.23,2.61-5.08s-.8-3.31-2.36-4.44m-4.61,0c2.09,0,3.41,1.25,3.41,3.21,0,2.87-1.31,6.51-4.72,6.51-2.16,0-3.52-1.36-3.52-3.59,0-3.59,1.95-6.13,4.83-6.13m-4.88,17.16c1.8,0,4.69,.41,5.59,.77,1,.43,1.49,1.12,1.49,2.12,0,2.36-2.52,3.64-7.11,3.64-3.89,0-5.69-.97-5.69-3.09s2.08-3.44,5.72-3.44m25.08-25.62c-1.08,0-1.95,.87-1.95,1.95s.88,1.95,1.95,1.95,1.97-.87,1.97-1.95-.89-1.95-1.97-1.95m8.08,0c-1.08,0-1.95,.87-1.95,1.95s.88,1.95,1.95,1.95,1.97-.87,1.97-1.95-.89-1.95-1.97-1.95m2.41,7.54h-3.48l-1.88,6.41c-1.64,5.56-5.33,10.11-8.16,10.11-.97,0-1.72-.75-1.72-1.72,0-.52,.11-1.16,.44-2.27l3.92-13.12-7.72,.59-.12,1.46h.95c1.64,0,2.25,.36,2.25,1.26,0,.41-.12,.97-.33,1.74l-1.59,5.39q-1.24,4-1.24,5.23c0,2.2,1.52,3.69,3.8,3.69,2.8,0,5.08-1.64,7.44-5.33-.41,1.41-.49,1.97-.49,2.72,0,1.56,1.08,2.64,2.56,2.64,2.44,0,4.39-1.64,7.23-6l-1.2-.72c-1.95,2.92-3.52,4.53-4.39,4.53-.36,0-.72-.45-.72-.97,0-.43,.16-1.2,.47-2.36l3.97-13.28"/><path d="M1235.19,497.74l156.93,6.2v12.4l-156.93-6.2v-12.4" fill-rule="evenodd"/><path d="M503.43,479.14l156.94,6.2v12.4l-156.94-6.2v-12.4" fill-rule="evenodd"/><path d="M738.69,157.84l158.13-12.4v12.44l-158.13,12.4v-12.44" fill-rule="evenodd"/><path d="M735.11,479.14l156.94,6.2v12.4l-156.94-6.2v-12.4" fill-rule="evenodd"/><path d="M1466.87,510.14l156.94,6.2v12.4l-156.94-6.2v-12.4" fill-rule="evenodd"/><path d="M1709.28,108.24l158.13-12.4v12.44l-158.13,12.4v-12.44" fill-rule="evenodd"/><path d="M1728.31,367.54l156.94,6.2v12.4l-156.94-6.2v-12.4" fill-rule="evenodd"/><path d="M505.21,170.26l158.13-6.2v12.4l-158.13,6.2v-12.4" fill-rule="evenodd"/><path d="M1475.81,126.85l158.12-6.2v12.41l-158.12,6.2v-12.41" fill-rule="evenodd"/><path d="M271.74,454.34l156.94,6.2v12.4l-156.94-6.2v-12.4" fill-rule="evenodd"/><path d="M271.74,182.64l158.13-12.4v12.44l-158.13,12.4v-12.44" fill-rule="evenodd"/><path d="M966.8,485.34l156.93,6.2v12.4l-156.93-6.2v-12.4" fill-rule="evenodd"/><path d="M1242.33,133.04l158.13-12.4v12.44l-158.13,12.4v-12.44" fill-rule="evenodd"/><path d="M972.16,151.66l158.12-6.2v12.4l-158.12,6.2v-12.4" fill-rule="evenodd"/><path d="M1548.4,555.77c2.12-.68,2.97-1.05,4.04-1.77,2.13-1.39,3.43-3.86,3.43-6.39,0-4.27-3.43-7.14-8.46-7.14s-9.04,3.05-9.04,6.75c0,1.84,1.12,3.09,2.82,3.09,1.49,0,2.58-1.08,2.58-2.56,0-.77-.23-1.3-.95-2.02-.45-.4-.63-.73-.63-1.04,0-1.08,2.25-2.21,4.36-2.21,3.02,0,4.82,1.68,4.82,4.46,0,4.01-2.83,7.78-5.85,7.78-.14,0-.55-.03-1.03-.08q-1.31-.09-1.58-.09c-1,0-1.53,.45-1.53,1.26,0,.72,.5,1.16,1.3,1.16,.23,0,.54-.03,.9-.08,.63-.14,1.32-.19,1.71-.19,2.12,0,3.56,1.89,3.56,4.69,0,4.86-2.39,9.53-7.83,9.53-2.51,0-4.69-1.25-4.69-2.7,0-.49,.19-.67,.91-.99,1.3-.57,1.84-1.39,1.84-2.61,0-1.57-1.26-2.78-2.87-2.78-1.94,0-3.2,1.52-3.2,3.86,0,4.38,3.32,7.11,8.73,7.11,6.8,0,11.97-4.54,11.97-10.58,0-3.5-2.16-5.48-5.31-6.46"/><path d="M816.63,524.77c2.13-.68,2.97-1.05,4.05-1.77,2.13-1.39,3.42-3.86,3.42-6.39,0-4.27-3.42-7.14-8.45-7.14s-9.05,3.05-9.05,6.75c0,1.84,1.13,3.09,2.83,3.09,1.49,0,2.58-1.08,2.58-2.56,0-.77-.23-1.3-.95-2.02-.46-.4-.63-.73-.63-1.04,0-1.08,2.25-2.21,4.36-2.21,3.02,0,4.81,1.68,4.81,4.46,0,4.01-2.82,7.78-5.84,7.78-.14,0-.55-.03-1.03-.08q-1.31-.09-1.58-.09c-1,0-1.53,.45-1.53,1.26,0,.72,.5,1.16,1.3,1.16,.23,0,.54-.03,.9-.08,.63-.14,1.31-.19,1.71-.19,2.12,0,3.56,1.89,3.56,4.69,0,4.86-2.39,9.53-7.83,9.53-2.52,0-4.69-1.25-4.69-2.7,0-.49,.19-.67,.91-.99,1.3-.57,1.84-1.39,1.84-2.61,0-1.57-1.26-2.78-2.87-2.78-1.94,0-3.21,1.52-3.21,3.86,0,4.38,3.33,7.11,8.74,7.11,6.8,0,11.97-4.54,11.97-10.58,0-3.5-2.16-5.48-5.32-6.46"/><path d="M820.8,194.76c2.13-.67,2.97-1.05,4.05-1.76,2.13-1.4,3.42-3.86,3.42-6.4,0-4.26-3.42-7.14-8.45-7.14s-9.05,3.05-9.05,6.75c0,1.85,1.13,3.1,2.83,3.1,1.49,0,2.58-1.08,2.58-2.56,0-.77-.24-1.3-.95-2.02-.46-.41-.63-.73-.63-1.05,0-1.08,2.25-2.2,4.36-2.2,3.02,0,4.81,1.67,4.81,4.45,0,4.02-2.83,7.78-5.84,7.78-.14,0-.55-.03-1.03-.07q-1.31-.1-1.58-.1c-1,0-1.53,.46-1.53,1.27,0,.72,.5,1.15,1.3,1.15,.23,0,.54-.03,.9-.07,.63-.14,1.31-.19,1.7-.19,2.13,0,3.57,1.89,3.57,4.69,0,4.86-2.39,9.53-7.83,9.53-2.52,0-4.69-1.25-4.69-2.71,0-.48,.19-.67,.91-.98,1.29-.58,1.84-1.39,1.84-2.61,0-1.58-1.26-2.78-2.87-2.78-1.94,0-3.21,1.51-3.21,3.86,0,4.37,3.33,7.11,8.74,7.11,6.79,0,11.97-4.55,11.97-10.58,0-3.5-2.16-5.48-5.32-6.47"/><path d="M353.86,219.56c2.12-.67,2.97-1.05,4.05-1.76,2.12-1.4,3.42-3.86,3.42-6.4,0-4.26-3.42-7.14-8.45-7.14s-9.05,3.05-9.05,6.75c0,1.85,1.12,3.1,2.83,3.1,1.48,0,2.58-1.08,2.58-2.56,0-.77-.23-1.3-.95-2.02-.45-.41-.62-.73-.62-1.05,0-1.08,2.25-2.2,4.36-2.2,3.02,0,4.81,1.67,4.81,4.45,0,4.02-2.83,7.78-5.84,7.78-.14,0-.55-.03-1.03-.07q-1.31-.1-1.58-.1c-1,0-1.53,.46-1.53,1.27,0,.72,.5,1.15,1.3,1.15,.23,0,.55-.03,.91-.07,.62-.14,1.31-.19,1.7-.19,2.12,0,3.56,1.89,3.56,4.69,0,4.86-2.39,9.53-7.83,9.53-2.52,0-4.69-1.25-4.69-2.71,0-.48,.19-.67,.91-.98,1.3-.58,1.84-1.39,1.84-2.61,0-1.58-1.27-2.78-2.88-2.78-1.94,0-3.2,1.51-3.2,3.86,0,4.37,3.33,7.11,8.73,7.11,6.8,0,11.97-4.55,11.97-10.58,0-3.5-2.16-5.48-5.31-6.47"/><path d="M1316.71,543.37c2.13-.68,2.97-1.05,4.05-1.77,2.12-1.39,3.42-3.86,3.42-6.39,0-4.27-3.42-7.14-8.45-7.14s-9.05,3.05-9.05,6.75c0,1.84,1.12,3.09,2.83,3.09,1.48,0,2.58-1.08,2.58-2.56,0-.77-.24-1.3-.96-2.02-.45-.4-.62-.73-.62-1.04,0-1.08,2.25-2.21,4.36-2.21,3.01,0,4.81,1.68,4.81,4.46,0,4.01-2.83,7.78-5.84,7.78-.14,0-.55-.03-1.04-.08q-1.31-.09-1.57-.09c-1,0-1.53,.45-1.53,1.26,0,.72,.5,1.16,1.29,1.16,.24,0,.55-.03,.91-.08,.62-.14,1.31-.19,1.7-.19,2.13,0,3.56,1.89,3.56,4.69,0,4.86-2.39,9.53-7.82,9.53-2.52,0-4.69-1.25-4.69-2.7,0-.49,.19-.67,.9-.99,1.3-.57,1.85-1.39,1.85-2.61,0-1.57-1.27-2.78-2.88-2.78-1.93,0-3.2,1.52-3.2,3.86,0,4.38,3.33,7.11,8.73,7.11,6.8,0,11.97-4.54,11.97-10.58,0-3.5-2.15-5.48-5.31-6.46"/><path d="M1791.4,187.98c2.12-.67,2.97-1.04,4.05-1.76,2.12-1.39,3.42-3.86,3.42-6.39,0-4.27-3.42-7.14-8.46-7.14s-9.04,3.04-9.04,6.75c0,1.84,1.12,3.09,2.83,3.09,1.48,0,2.57-1.08,2.57-2.56,0-.77-.23-1.3-.95-2.02-.45-.4-.62-.73-.62-1.04,0-1.08,2.25-2.21,4.36-2.21,3.01,0,4.81,1.68,4.81,4.46,0,4.01-2.83,7.78-5.85,7.78-.14,0-.54-.03-1.03-.08q-1.31-.09-1.58-.09c-1,0-1.53,.45-1.53,1.26,0,.72,.5,1.16,1.3,1.16,.23,0,.55-.03,.91-.08,.62-.14,1.31-.19,1.7-.19,2.12,0,3.56,1.89,3.56,4.69,0,4.86-2.39,9.53-7.83,9.53-2.51,0-4.68-1.25-4.68-2.7,0-.49,.18-.67,.9-.99,1.3-.57,1.85-1.39,1.85-2.61,0-1.57-1.27-2.78-2.88-2.78-1.94,0-3.2,1.52-3.2,3.86,0,4.38,3.33,7.11,8.73,7.11,6.8,0,11.97-4.55,11.97-10.58,0-3.5-2.15-5.48-5.31-6.47"/><path d="M587.33,209.68c2.12-.67,2.97-1.04,4.05-1.76,2.12-1.39,3.42-3.86,3.42-6.39,0-4.27-3.42-7.14-8.45-7.14s-9.05,3.04-9.05,6.75c0,1.84,1.12,3.09,2.83,3.09,1.48,0,2.58-1.08,2.58-2.56,0-.77-.23-1.3-.95-2.02-.45-.4-.62-.73-.62-1.04,0-1.08,2.25-2.21,4.36-2.21,3.02,0,4.81,1.68,4.81,4.46,0,4.01-2.83,7.78-5.84,7.78-.14,0-.55-.03-1.03-.08q-1.31-.09-1.58-.09c-1,0-1.53,.45-1.53,1.26,0,.72,.5,1.16,1.3,1.16,.24,0,.55-.03,.91-.08,.62-.14,1.31-.19,1.7-.19,2.12,0,3.56,1.89,3.56,4.69,0,4.86-2.39,9.53-7.83,9.53-2.52,0-4.69-1.25-4.69-2.7,0-.49,.19-.67,.91-.99,1.3-.57,1.84-1.39,1.84-2.61,0-1.57-1.26-2.78-2.88-2.78-1.94,0-3.2,1.52-3.2,3.86,0,4.38,3.33,7.11,8.74,7.11,6.8,0,11.97-4.55,11.97-10.58,0-3.5-2.16-5.48-5.31-6.47"/><path d="M1048.32,530.97c2.13-.68,2.97-1.05,4.05-1.77,2.12-1.39,3.42-3.86,3.42-6.39,0-4.27-3.42-7.14-8.45-7.14s-9.05,3.05-9.05,6.75c0,1.84,1.12,3.09,2.83,3.09,1.48,0,2.58-1.08,2.58-2.56,0-.77-.24-1.3-.96-2.02-.45-.4-.62-.73-.62-1.04,0-1.08,2.25-2.21,4.36-2.21,3.01,0,4.81,1.68,4.81,4.46,0,4.01-2.83,7.78-5.84,7.78-.14,0-.55-.03-1.04-.08q-1.31-.09-1.57-.09c-1,0-1.53,.45-1.53,1.26,0,.72,.5,1.16,1.29,1.16,.24,0,.55-.03,.91-.08,.62-.14,1.31-.19,1.7-.19,2.13,0,3.56,1.89,3.56,4.69,0,4.86-2.39,9.53-7.82,9.53-2.52,0-4.69-1.25-4.69-2.7,0-.49,.19-.67,.9-.99,1.3-.57,1.85-1.39,1.85-2.61,0-1.57-1.27-2.78-2.88-2.78-1.93,0-3.2,1.52-3.2,3.86,0,4.38,3.33,7.11,8.73,7.11,6.8,0,11.97-4.54,11.97-10.58,0-3.5-2.15-5.48-5.31-6.46"/><path d="M1324.45,187.98c2.13-.67,2.97-1.04,4.05-1.76,2.13-1.39,3.42-3.86,3.42-6.39,0-4.27-3.42-7.14-8.45-7.14s-9.05,3.04-9.05,6.75c0,1.84,1.13,3.09,2.83,3.09,1.48,0,2.58-1.08,2.58-2.56,0-.77-.24-1.3-.95-2.02-.46-.4-.63-.73-.63-1.04,0-1.08,2.25-2.21,4.36-2.21,3.02,0,4.81,1.68,4.81,4.46,0,4.01-2.83,7.78-5.84,7.78-.14,0-.55-.03-1.03-.08q-1.32-.09-1.58-.09c-1,0-1.53,.45-1.53,1.26,0,.72,.5,1.16,1.29,1.16,.24,0,.55-.03,.91-.08,.63-.14,1.31-.19,1.7-.19,2.13,0,3.57,1.89,3.57,4.69,0,4.86-2.39,9.53-7.83,9.53-2.52,0-4.69-1.25-4.69-2.7,0-.49,.19-.67,.91-.99,1.29-.57,1.84-1.39,1.84-2.61,0-1.57-1.26-2.78-2.87-2.78-1.94,0-3.21,1.52-3.21,3.86,0,4.38,3.33,7.11,8.74,7.11,6.79,0,11.97-4.55,11.97-10.58,0-3.5-2.16-5.48-5.32-6.47"/><path d="M1054.28,191.08c2.12-.67,2.97-1.04,4.04-1.76,2.13-1.39,3.43-3.86,3.43-6.39,0-4.27-3.43-7.14-8.46-7.14s-9.04,3.04-9.04,6.75c0,1.84,1.12,3.09,2.82,3.09,1.49,0,2.58-1.08,2.58-2.56,0-.77-.23-1.3-.95-2.02-.45-.4-.63-.73-.63-1.04,0-1.08,2.25-2.21,4.36-2.21,3.02,0,4.82,1.68,4.82,4.46,0,4.01-2.83,7.78-5.85,7.78-.14,0-.55-.03-1.03-.08q-1.31-.09-1.58-.09c-1,0-1.53,.45-1.53,1.26,0,.72,.5,1.16,1.3,1.16,.23,0,.54-.03,.9-.08,.63-.14,1.32-.19,1.71-.19,2.12,0,3.56,1.89,3.56,4.69,0,4.86-2.39,9.53-7.83,9.53-2.51,0-4.69-1.25-4.69-2.7,0-.49,.19-.67,.91-.99,1.3-.57,1.84-1.39,1.84-2.61,0-1.57-1.26-2.78-2.87-2.78-1.94,0-3.2,1.52-3.2,3.86,0,4.38,3.32,7.11,8.73,7.11,6.8,0,11.97-4.55,11.97-10.58,0-3.5-2.16-5.48-5.31-6.47"/><path d="M584.95,524.77c2.12-.68,2.97-1.05,4.05-1.77,2.12-1.39,3.42-3.86,3.42-6.39,0-4.27-3.42-7.14-8.45-7.14s-9.05,3.05-9.05,6.75c0,1.84,1.12,3.09,2.83,3.09,1.49,0,2.58-1.08,2.58-2.56,0-.77-.23-1.3-.95-2.02-.45-.4-.62-.73-.62-1.04,0-1.08,2.25-2.21,4.36-2.21,3.01,0,4.81,1.68,4.81,4.46,0,4.01-2.83,7.78-5.84,7.78-.14,0-.55-.03-1.03-.08q-1.31-.09-1.58-.09c-1,0-1.53,.45-1.53,1.26,0,.72,.5,1.16,1.3,1.16,.23,0,.55-.03,.91-.08,.62-.14,1.31-.19,1.7-.19,2.12,0,3.56,1.89,3.56,4.69,0,4.86-2.39,9.53-7.83,9.53-2.52,0-4.69-1.25-4.69-2.7,0-.49,.19-.67,.91-.99,1.3-.57,1.84-1.39,1.84-2.61,0-1.57-1.27-2.78-2.88-2.78-1.94,0-3.2,1.52-3.2,3.86,0,4.38,3.33,7.11,8.73,7.11,6.8,0,11.97-4.54,11.97-10.58,0-3.5-2.16-5.48-5.31-6.46"/><path d="M353.26,521.67c2.12-.68,2.97-1.05,4.05-1.77,2.12-1.39,3.42-3.86,3.42-6.39,0-4.27-3.42-7.14-8.45-7.14s-9.05,3.05-9.05,6.75c0,1.84,1.12,3.09,2.83,3.09,1.48,0,2.58-1.08,2.58-2.56,0-.77-.23-1.3-.95-2.02-.45-.4-.62-.73-.62-1.04,0-1.08,2.25-2.21,4.36-2.21,3.02,0,4.81,1.68,4.81,4.46,0,4.01-2.83,7.78-5.84,7.78-.14,0-.55-.03-1.03-.08q-1.31-.09-1.58-.09c-1,0-1.53,.45-1.53,1.26,0,.72,.5,1.16,1.3,1.16,.23,0,.55-.03,.91-.08,.62-.14,1.31-.19,1.7-.19,2.12,0,3.56,1.89,3.56,4.69,0,4.86-2.39,9.53-7.83,9.53-2.52,0-4.69-1.25-4.69-2.7,0-.49,.19-.67,.91-.99,1.3-.57,1.84-1.39,1.84-2.61,0-1.57-1.27-2.78-2.88-2.78-1.94,0-3.2,1.52-3.2,3.86,0,4.38,3.33,7.11,8.73,7.11,6.8,0,11.97-4.54,11.97-10.58,0-3.5-2.16-5.48-5.31-6.46"/><path d="M1557.93,187.98c2.12-.67,2.97-1.04,4.04-1.76,2.13-1.39,3.43-3.86,3.43-6.39,0-4.27-3.43-7.14-8.46-7.14s-9.04,3.04-9.04,6.75c0,1.84,1.12,3.09,2.82,3.09,1.49,0,2.58-1.08,2.58-2.56,0-.77-.23-1.3-.95-2.02-.45-.4-.63-.73-.63-1.04,0-1.08,2.25-2.21,4.36-2.21,3.02,0,4.82,1.68,4.82,4.46,0,4.01-2.83,7.78-5.85,7.78-.14,0-.55-.03-1.03-.08q-1.31-.09-1.58-.09c-1,0-1.53,.45-1.53,1.26,0,.72,.5,1.16,1.3,1.16,.23,0,.54-.03,.9-.08,.63-.14,1.32-.19,1.71-.19,2.12,0,3.56,1.89,3.56,4.69,0,4.86-2.39,9.53-7.83,9.53-2.51,0-4.69-1.25-4.69-2.7,0-.49,.19-.67,.91-.99,1.3-.57,1.84-1.39,1.84-2.61,0-1.57-1.26-2.78-2.87-2.78-1.94,0-3.2,1.52-3.2,3.86,0,4.38,3.32,7.11,8.73,7.11,6.8,0,11.97-4.55,11.97-10.58,0-3.5-2.16-5.48-5.31-6.47"/><path d="M1809.84,338.76c2.12-.67,2.96-1.04,4.04-1.76,2.13-1.39,3.42-3.86,3.42-6.39,0-4.27-3.42-7.14-8.45-7.14s-9.05,3.04-9.05,6.75c0,1.84,1.13,3.09,2.83,3.09,1.49,0,2.58-1.08,2.58-2.56,0-.77-.23-1.3-.95-2.02-.46-.4-.63-.73-.63-1.04,0-1.08,2.25-2.21,4.36-2.21,3.02,0,4.81,1.68,4.81,4.46,0,4.01-2.82,7.78-5.84,7.78-.14,0-.55-.03-1.03-.08q-1.31-.09-1.58-.09c-1,0-1.53,.45-1.53,1.26,0,.72,.5,1.16,1.3,1.16,.23,0,.54-.03,.9-.08,.63-.14,1.32-.19,1.71-.19,2.12,0,3.56,1.89,3.56,4.69,0,4.86-2.39,9.53-7.83,9.53-2.52,0-4.69-1.25-4.69-2.7,0-.49,.19-.67,.91-.99,1.3-.57,1.84-1.39,1.84-2.61,0-1.57-1.26-2.78-2.87-2.78-1.94,0-3.21,1.52-3.21,3.86,0,4.38,3.33,7.11,8.74,7.11,6.8,0,11.97-4.55,11.97-10.58,0-3.5-2.16-5.48-5.31-6.47"/></g></svg>