<?xml version="1.0" encoding="UTF-8"?><svg id="b" xmlns="http://www.w3.org/2000/svg" viewBox="0 0 2095.2 564.54"><g id="c"><line y1="68.87" x2="2095.2" y2="68.87" fill="none" stroke="#000" stroke-linejoin="bevel" stroke-width="2.73"/><line y1="93.67" x2="2095.2" y2="93.67" fill="none" stroke="#000" stroke-linejoin="bevel" stroke-width="2.73"/><line y1="118.47" x2="2095.2" y2="118.47" fill="none" stroke="#000" stroke-linejoin="bevel" stroke-width="2.73"/><line y1="143.27" x2="2095.2" y2="143.27" fill="none" stroke="#000" stroke-linejoin="bevel" stroke-width="2.73"/><line y1="168.07" x2="2095.2" y2="168.07" fill="none" stroke="#000" stroke-linejoin="bevel" stroke-width="2.73"/><line y1="402.55" x2="2095.2" y2="402.55" fill="none" stroke="#000" stroke-linejoin="bevel" stroke-width="2.73"/><line y1="427.35" x2="2095.2" y2="427.35" fill="none" stroke="#000" stroke-linejoin="bevel" stroke-width="2.73"/><line y1="452.15" x2="2095.2" y2="452.15" fill="none" stroke="#000" stroke-linejoin="bevel" stroke-width="2.73"/><line y1="476.95" x2="2095.2" y2="476.95" fill="none" stroke="#000" stroke-linejoin="bevel" stroke-width="2.73"/><line y1="501.75" x2="2095.2" y2="501.75" fill="none" stroke="#000" stroke-linejoin="bevel" stroke-width="2.73"/><line x1="2092.97" y1="67.51" x2="2092.97" y2="169.44" fill="none" stroke="#000" stroke-linejoin="bevel" stroke-width="4.46"/><line x1="2079.33" y1="401.19" x2="2079.33" y2="503.12" fill="none" stroke="#000" stroke-linejoin="bevel" stroke-width="4.46"/><line x1="2092.97" y1="401.19" x2="2092.97" y2="503.12" fill="none" stroke="#000" stroke-linejoin="bevel" stroke-width="4.46"/><line x1="1181.61" y1="67.51" x2="1181.61" y2="169.44" fill="none" stroke="#000" stroke-linejoin="bevel" stroke-width="4.46"/><line x1="1174.46" y1="401.19" x2="1174.46" y2="503.12" fill="none" stroke="#000" stroke-linejoin="bevel" stroke-width="4.46"/><line x1="1837.84" y1="551.35" x2="1886.44" y2="551.35" fill="none" stroke="#000" stroke-linejoin="bevel" stroke-width="3.97"/><line x1="208.41" y1="192.87" x2="257.01" y2="192.87" fill="none" stroke="#000" stroke-linejoin="bevel" stroke-width="3.97"/><line x1="1837.84" y1="526.55" x2="1886.44" y2="526.55" fill="none" stroke="#000" stroke-linejoin="bevel" stroke-width="3.97"/><line x1="1758.21" y1="551.35" x2="1806.81" y2="551.35" fill="none" stroke="#000" stroke-linejoin="bevel" stroke-width="3.97"/><line x1="1598.93" y1="526.55" x2="1647.53" y2="526.55" fill="none" stroke="#000" stroke-linejoin="bevel" stroke-width="3.97"/><line x1="1917.48" y1="526.55" x2="1966.08" y2="526.55" fill="none" stroke="#000" stroke-linejoin="bevel" stroke-width="3.97"/><line x1="1280.39" y1="526.55" x2="1328.99" y2="526.55" fill="none" stroke="#000" stroke-linejoin="bevel" stroke-width="3.97"/><line x1="1360.02" y1="526.55" x2="1408.62" y2="526.55" fill="none" stroke="#000" stroke-linejoin="bevel" stroke-width="3.97"/><line x1="449.1" y1="192.87" x2="497.7" y2="192.87" fill="none" stroke="#000" stroke-linejoin="bevel" stroke-width="3.97"/><line x1="1519.3" y1="526.55" x2="1567.9" y2="526.55" fill="none" stroke="#000" stroke-linejoin="bevel" stroke-width="3.97"/><line x1="1678.57" y1="526.55" x2="1727.17" y2="526.55" fill="none" stroke="#000" stroke-linejoin="bevel" stroke-width="3.97"/><line x1="1758.21" y1="526.55" x2="1806.81" y2="526.55" fill="none" stroke="#000" stroke-linejoin="bevel" stroke-width="3.97"/><line x1="247.58" y1="201.3" x2="247.58" y2="99.82" fill="none" stroke="#000" stroke-linejoin="bevel" stroke-width="2.48"/><line x1="327.82" y1="176.5" x2="327.82" y2="96.77" fill="none" stroke="#000" stroke-linejoin="bevel" stroke-width="2.48"/><line x1="408.05" y1="176.5" x2="408.05" y2="93.72" fill="none" stroke="#000" stroke-linejoin="bevel" stroke-width="2.48"/><line x1="1558.47" y1="534.98" x2="1558.47" y2="452.15" fill="none" stroke="#000" stroke-linejoin="bevel" stroke-width="2.48"/><line x1="488.28" y1="188.9" x2="488.28" y2="99.82" fill="none" stroke="#000" stroke-linejoin="bevel" stroke-width="2.48"/><line x1="568.51" y1="164.1" x2="568.51" y2="96.77" fill="none" stroke="#000" stroke-linejoin="bevel" stroke-width="2.48"/><line x1="648.74" y1="164.1" x2="648.74" y2="93.72" fill="none" stroke="#000" stroke-linejoin="bevel" stroke-width="2.48"/><line x1="1638.11" y1="534.98" x2="1638.11" y2="458.26" fill="none" stroke="#000" stroke-linejoin="bevel" stroke-width="2.48"/><line x1="728.98" y1="176.5" x2="728.98" y2="75.02" fill="none" stroke="#000" stroke-linejoin="bevel" stroke-width="2.48"/><line x1="809.21" y1="151.7" x2="809.21" y2="71.97" fill="none" stroke="#000" stroke-linejoin="bevel" stroke-width="2.48"/><line x1="889.44" y1="151.7" x2="889.44" y2="68.92" fill="none" stroke="#000" stroke-linejoin="bevel" stroke-width="2.48"/><line x1="1717.75" y1="522.58" x2="1717.75" y2="446.05" fill="none" stroke="#000" stroke-linejoin="bevel" stroke-width="2.48"/><line x1="969.67" y1="164.1" x2="969.67" y2="75.02" fill="none" stroke="#000" stroke-linejoin="bevel" stroke-width="2.48"/><line x1="327.22" y1="472.98" x2="327.22" y2="387.05" fill="none" stroke="#000" stroke-linejoin="bevel" stroke-width="2.48"/><line x1="406.86" y1="472.98" x2="406.86" y2="390.1" fill="none" stroke="#000" stroke-linejoin="bevel" stroke-width="2.48"/><line x1="1778.95" y1="110.24" x2="1778.95" y2="192.87" fill="none" stroke="#000" stroke-linejoin="bevel" stroke-width="2.48"/><line x1="486.49" y1="460.58" x2="486.49" y2="396.45" fill="none" stroke="#000" stroke-linejoin="bevel" stroke-width="2.48"/><line x1="1939.41" y1="122.64" x2="1939.41" y2="192.87" fill="none" stroke="#000" stroke-linejoin="bevel" stroke-width="2.48"/><line x1="566.13" y1="485.38" x2="566.13" y2="402.55" fill="none" stroke="#000" stroke-linejoin="bevel" stroke-width="2.48"/><line x1="645.77" y1="485.38" x2="645.77" y2="408.66" fill="none" stroke="#000" stroke-linejoin="bevel" stroke-width="2.48"/><line x1="1698.71" y1="135.04" x2="1698.71" y2="198.98" fill="none" stroke="#000" stroke-linejoin="bevel" stroke-width="2.48"/><line x1="725.4" y1="472.98" x2="725.4" y2="402.6" fill="none" stroke="#000" stroke-linejoin="bevel" stroke-width="2.48"/><line x1="1877.02" y1="547.38" x2="1877.02" y2="458.26" fill="none" stroke="#000" stroke-linejoin="bevel" stroke-width="2.48"/><line x1="805.04" y1="497.78" x2="805.04" y2="405.65" fill="none" stroke="#000" stroke-linejoin="bevel" stroke-width="2.48"/><line x1="884.67" y1="497.78" x2="884.67" y2="408.7" fill="none" stroke="#000" stroke-linejoin="bevel" stroke-width="2.48"/><line x1="964.31" y1="485.38" x2="964.31" y2="421.25" fill="none" stroke="#000" stroke-linejoin="bevel" stroke-width="2.48"/><line x1="1648.23" y1="114.5" x2="1648.23" y2="50.32" fill="none" stroke="#000" stroke-linejoin="bevel" stroke-width="2.48"/><line x1="1043.95" y1="510.18" x2="1043.95" y2="427.35" fill="none" stroke="#000" stroke-linejoin="bevel" stroke-width="2.48"/><line x1="1568" y1="114.5" x2="1568" y2="53.37" fill="none" stroke="#000" stroke-linejoin="bevel" stroke-width="2.48"/><line x1="1487.77" y1="139.3" x2="1487.77" y2="56.42" fill="none" stroke="#000" stroke-linejoin="bevel" stroke-width="2.48"/><line x1="1239.93" y1="497.78" x2="1239.93" y2="427.4" fill="none" stroke="#000" stroke-linejoin="bevel" stroke-width="2.48"/><line x1="1319.56" y1="522.58" x2="1319.56" y2="430.45" fill="none" stroke="#000" stroke-linejoin="bevel" stroke-width="2.48"/><line x1="1399.2" y1="522.58" x2="1399.2" y2="433.5" fill="none" stroke="#000" stroke-linejoin="bevel" stroke-width="2.48"/><line x1="1859.18" y1="110.24" x2="1859.18" y2="186.77" fill="none" stroke="#000" stroke-linejoin="bevel" stroke-width="2.48"/><line x1="1478.84" y1="510.18" x2="1478.84" y2="446.05" fill="none" stroke="#000" stroke-linejoin="bevel" stroke-width="2.48"/><line x1="1123.58" y1="510.18" x2="1123.58" y2="433.46" fill="none" stroke="#000" stroke-linejoin="bevel" stroke-width="2.48"/><line x1="247.58" y1="448.18" x2="247.58" y2="384" fill="none" stroke="#000" stroke-linejoin="bevel" stroke-width="2.48"/><line x1="1956.66" y1="534.98" x2="1956.66" y2="452.15" fill="none" stroke="#000" stroke-linejoin="bevel" stroke-width="2.48"/><line x1="1407.54" y1="126.9" x2="1407.54" y2="62.72" fill="none" stroke="#000" stroke-linejoin="bevel" stroke-width="2.48"/><line x1="1797.38" y1="547.38" x2="1797.38" y2="452.15" fill="none" stroke="#000" stroke-linejoin="bevel" stroke-width="2.48"/><line x1="1327.31" y1="126.9" x2="1327.31" y2="65.77" fill="none" stroke="#000" stroke-linejoin="bevel" stroke-width="2.48"/><line x1="1247.07" y1="151.7" x2="1247.07" y2="68.82" fill="none" stroke="#000" stroke-linejoin="bevel" stroke-width="2.48"/><line x1="1130.14" y1="139.3" x2="1130.14" y2="68.92" fill="none" stroke="#000" stroke-linejoin="bevel" stroke-width="2.48"/><line x1="1049.9" y1="139.3" x2="1049.9" y2="71.97" fill="none" stroke="#000" stroke-linejoin="bevel" stroke-width="2.48"/><path d="M1697.47,135.04c0,4.26,3.07,9.02,11.11,9.02,10.31,0,21.13-8.43,21.13-17.16,0-5.86-4.96-9.13-11.11-9.13-9.63,0-21.13,8.14-21.13,17.27"/><path d="M1777.71,110.24c0,4.26,3.07,9.02,11.11,9.02,10.31,0,21.13-8.43,21.13-17.16,0-5.86-4.96-9.13-11.11-9.13-9.63,0-21.13,8.14-21.13,17.27"/><path d="M1857.94,110.24c0,4.26,3.07,9.02,11.11,9.02,10.31,0,21.13-8.43,21.13-17.16,0-5.86-4.96-9.13-11.11-9.13-9.63,0-21.13,8.14-21.13,17.27"/><path d="M1938.17,122.64c0,4.26,3.07,9.02,11.11,9.02,10.31,0,21.13-8.43,21.13-17.16,0-5.86-4.96-9.13-11.11-9.13-9.63,0-21.13,8.14-21.13,17.27"/><path d="M216.59,456.32c0,4.26,3.07,9.02,11.11,9.02,10.31,0,21.13-8.43,21.13-17.16,0-5.86-4.96-9.13-11.11-9.13-9.63,0-21.13,8.14-21.13,17.27"/><path d="M296.23,481.12c0,4.26,3.07,9.02,11.11,9.02,10.31,0,21.13-8.43,21.13-17.16,0-5.86-4.96-9.13-11.11-9.13-9.63,0-21.13,8.14-21.13,17.27"/><path d="M375.86,481.12c0,4.26,3.07,9.02,11.11,9.02,10.31,0,21.13-8.43,21.13-17.16,0-5.86-4.96-9.13-11.11-9.13-9.63,0-21.13,8.14-21.13,17.27"/><path d="M455.5,468.72c0,4.26,3.07,9.02,11.11,9.02,10.31,0,21.13-8.43,21.13-17.16,0-5.86-4.96-9.13-11.11-9.13-9.63,0-21.13,8.14-21.13,17.27"/><path d="M535.14,493.52c0,4.26,3.07,9.02,11.11,9.02,10.31,0,21.13-8.43,21.13-17.16,0-5.86-4.96-9.13-11.11-9.13-9.63,0-21.13,8.14-21.13,17.27"/><path d="M614.77,493.52c0,4.26,3.07,9.02,11.11,9.02,10.31,0,21.13-8.43,21.13-17.16,0-5.86-4.96-9.13-11.11-9.13-9.63,0-21.13,8.14-21.13,17.27"/><path d="M694.41,481.12c0,4.26,3.07,9.02,11.11,9.02,10.31,0,21.13-8.43,21.13-17.16,0-5.86-4.96-9.13-11.11-9.13-9.63,0-21.13,8.14-21.13,17.27"/><path d="M774.05,505.92c0,4.26,3.07,9.02,11.11,9.02,10.31,0,21.13-8.43,21.13-17.16,0-5.86-4.96-9.13-11.11-9.13-9.63,0-21.13,8.14-21.13,17.27"/><path d="M853.68,505.92c0,4.26,3.07,9.02,11.11,9.02,10.31,0,21.13-8.43,21.13-17.16,0-5.86-4.96-9.13-11.11-9.13-9.63,0-21.13,8.14-21.13,17.27"/><path d="M933.32,493.52c0,4.26,3.07,9.02,11.11,9.02,10.31,0,21.13-8.43,21.13-17.16,0-5.86-4.96-9.13-11.11-9.13-9.63,0-21.13,8.14-21.13,17.27"/><path d="M1012.96,518.32c0,4.26,3.07,9.02,11.11,9.02,10.31,0,21.13-8.43,21.13-17.16,0-5.86-4.96-9.13-11.11-9.13-9.63,0-21.13,8.14-21.13,17.27"/><path d="M1092.59,518.32c0,4.26,3.07,9.02,11.11,9.02,10.31,0,21.13-8.43,21.13-17.16,0-5.86-4.96-9.13-11.11-9.13-9.63,0-21.13,8.14-21.13,17.27"/><path d="M1208.93,505.92c0,4.26,3.07,9.02,11.11,9.02,10.31,0,21.13-8.43,21.13-17.16,0-5.86-4.96-9.13-11.11-9.13-9.63,0-21.13,8.14-21.13,17.27"/><path d="M1288.57,530.72c0,4.26,3.07,9.02,11.11,9.02,10.31,0,21.13-8.43,21.13-17.16,0-5.86-4.96-9.13-11.11-9.13-9.63,0-21.13,8.14-21.13,17.27"/><path d="M1368.21,530.72c0,4.26,3.07,9.02,11.11,9.02,10.31,0,21.13-8.43,21.13-17.16,0-5.86-4.96-9.13-11.11-9.13-9.63,0-21.13,8.14-21.13,17.27"/><path d="M1447.84,518.32c0,4.26,3.07,9.02,11.11,9.02,10.31,0,21.13-8.43,21.13-17.16,0-5.86-4.96-9.13-11.11-9.13-9.63,0-21.13,8.14-21.13,17.27"/><path d="M1527.48,543.12c0,4.26,3.07,9.02,11.11,9.02,10.31,0,21.13-8.43,21.13-17.16,0-5.86-4.96-9.13-11.11-9.13-9.63,0-21.13,8.14-21.13,17.27"/><path d="M1607.12,543.12c0,4.26,3.07,9.02,11.11,9.02,10.31,0,21.13-8.43,21.13-17.16,0-5.86-4.96-9.13-11.11-9.13-9.63,0-21.13,8.14-21.13,17.27"/><path d="M1686.75,530.72c0,4.26,3.07,9.02,11.11,9.02,10.31,0,21.13-8.43,21.13-17.16,0-5.86-4.96-9.13-11.11-9.13-9.63,0-21.13,8.14-21.13,17.27"/><path d="M1766.39,555.52c0,4.26,3.07,9.02,11.11,9.02,10.31,0,21.13-8.43,21.13-17.16,0-5.86-4.96-9.13-11.11-9.13-9.63,0-21.13,8.14-21.13,17.27"/><path d="M1846.03,555.52c0,4.26,3.07,9.02,11.11,9.02,10.31,0,21.13-8.43,21.13-17.16,0-5.86-4.96-9.13-11.11-9.13-9.63,0-21.13,8.14-21.13,17.27"/><path d="M1925.66,543.12c0,4.26,3.07,9.02,11.11,9.02,10.31,0,21.13-8.43,21.13-17.16,0-5.86-4.96-9.13-11.11-9.13-9.63,0-21.13,8.14-21.13,17.27"/><path d="M216.59,209.44c0,4.26,3.07,9.02,11.11,9.02,10.31,0,21.13-8.43,21.13-17.16,0-5.86-4.96-9.13-11.11-9.13-9.63,0-21.13,8.14-21.13,17.27"/><path d="M296.82,184.64c0,4.26,3.07,9.02,11.11,9.02,10.31,0,21.13-8.43,21.13-17.16,0-5.86-4.96-9.13-11.11-9.13-9.63,0-21.13,8.14-21.13,17.27"/><path d="M377.06,184.64c0,4.26,3.07,9.02,11.11,9.02,10.31,0,21.13-8.43,21.13-17.16,0-5.86-4.96-9.13-11.11-9.13-9.63,0-21.13,8.14-21.13,17.27"/><path d="M457.29,197.04c0,4.26,3.07,9.02,11.11,9.02,10.31,0,21.13-8.43,21.13-17.16,0-5.86-4.96-9.13-11.11-9.13-9.63,0-21.13,8.14-21.13,17.27"/><path d="M537.52,172.24c0,4.26,3.07,9.02,11.11,9.02,10.31,0,21.13-8.43,21.13-17.16,0-5.86-4.96-9.13-11.11-9.13-9.63,0-21.13,8.14-21.13,17.27"/><path d="M617.75,172.24c0,4.26,3.07,9.02,11.11,9.02,10.31,0,21.13-8.43,21.13-17.16,0-5.86-4.96-9.13-11.11-9.13-9.63,0-21.13,8.14-21.13,17.27"/><path d="M697.98,184.64c0,4.26,3.07,9.02,11.11,9.02,10.31,0,21.13-8.43,21.13-17.16,0-5.86-4.96-9.13-11.11-9.13-9.63,0-21.13,8.14-21.13,17.27"/><path d="M778.22,159.84c0,4.26,3.07,9.02,11.11,9.02,10.31,0,21.13-8.43,21.13-17.16,0-5.86-4.96-9.13-11.11-9.13-9.63,0-21.13,8.14-21.13,17.27"/><path d="M858.45,159.84c0,4.26,3.07,9.02,11.11,9.02,10.31,0,21.13-8.43,21.13-17.16,0-5.86-4.96-9.13-11.11-9.13-9.63,0-21.13,8.14-21.13,17.27"/><path d="M938.68,172.24c0,4.26,3.07,9.02,11.11,9.02,10.31,0,21.13-8.43,21.13-17.16,0-5.86-4.96-9.13-11.11-9.13-9.63,0-21.13,8.14-21.13,17.27"/><path d="M1018.91,147.44c0,4.26,3.07,9.02,11.11,9.02,10.31,0,21.13-8.43,21.13-17.16,0-5.86-4.96-9.13-11.11-9.13-9.63,0-21.13,8.14-21.13,17.27"/><path d="M1099.14,147.44c0,4.26,3.07,9.02,11.11,9.02,10.31,0,21.13-8.43,21.13-17.16,0-5.86-4.96-9.13-11.11-9.13-9.63,0-21.13,8.14-21.13,17.27"/><path d="M1216.08,159.84c0,4.26,3.07,9.02,11.11,9.02,10.31,0,21.13-8.43,21.13-17.16,0-5.86-4.96-9.13-11.11-9.13-9.63,0-21.13,8.14-21.13,17.27"/><path d="M1296.31,135.04c0,4.26,3.07,9.02,11.11,9.02,10.31,0,21.13-8.43,21.13-17.16,0-5.86-4.96-9.13-11.11-9.13-9.63,0-21.13,8.14-21.13,17.27"/><path d="M1376.55,135.04c0,4.26,3.07,9.02,11.11,9.02,10.31,0,21.13-8.43,21.13-17.16,0-5.86-4.96-9.13-11.11-9.13-9.63,0-21.13,8.14-21.13,17.27"/><path d="M1456.78,147.44c0,4.26,3.07,9.02,11.11,9.02,10.31,0,21.13-8.43,21.13-17.16,0-5.86-4.96-9.13-11.11-9.13-9.63,0-21.13,8.14-21.13,17.27"/><path d="M1537.01,122.64c0,4.26,3.07,9.02,11.11,9.02,10.31,0,21.13-8.43,21.13-17.16,0-5.86-4.96-9.13-11.11-9.13-9.63,0-21.13,8.14-21.13,17.27"/><path d="M1617.24,122.64c0,4.26,3.07,9.02,11.11,9.02,10.31,0,21.13-8.43,21.13-17.16,0-5.86-4.96-9.13-11.11-9.13-9.63,0-21.13,8.14-21.13,17.27"/><path d="M30.8,527.84c0,6.56,4.96,15.19,18.35,15.19,4.67,0,8.74-1.19,12.31-3.38,5.36-3.77,6.74-10.32,6.74-16.57,0-3.86-.59-8.32-1.58-13.98-.29-1.98-.9-4.96-1.49-8.84,9.72-3.18,16.96-13.3,16.96-23.51,0-14.97-10.62-25.09-25.09-25.09-.99-5.95-1.98-11.81-2.77-17.36,10.42-11.02,17.65-23.42,17.65-39.18,0-9.04-2.77-16.37-4.37-19.95-2.37-5.05-5.25-8.53-7.04-8.53-.7,0-3.77,1.19-7.04,5.05-6.36,7.55-8.14,20.24-8.14,28.57,0,5.36,.5,10.23,2.19,21.34-.11,.09-5.27,5.35-7.35,7.04-9.04,8.34-21.53,20.43-21.53,40.28,0,18.54,16.17,33.12,34.63,33.12,2.87,0,5.55-.29,7.83-.7,1.89,9.53,3.08,16.48,3.08,21.73,0,10.32-5.36,15.78-15.38,15.78-2.39,0-4.46-.5-4.67-.5-.09-.11-.29-.2-.29-.29,0-.2,.2-.31,.5-.31,4.67-.79,9.32-4.76,9.32-11.1,0-5.36-4.06-11.02-11.5-11.02-6.94,0-11.31,5.66-11.31,12.2m20.74-132.43c.9-3.97,5.46-14.38,10.62-14.38,1.49,0,3.86,4.76,3.86,11.7,0,10.32-7.63,18.06-14.48,24.8-.59-3.97-1.08-7.83-1.08-12,0-3.67,.29-7.05,1.08-10.12m8.73,101.97c-1.98,.4-3.86,.6-5.75,.6-14.18,0-26.29-9.92-26.29-24.91,0-12.09,8.53-22.91,17.27-30.46,1.67-1.49,3.27-2.87,4.76-4.36,.88,5.35,1.58,10.01,2.28,14.09-9.04,2.68-15.17,12.2-15.17,21.53,0,6.94,5.46,16.46,13.39,16.46,.79,0,1.69-.4,1.69-1.29s-.99-1.39-2.19-2.19c-3.88-2.39-6.06-4.96-6.06-9.83,0-6.05,4.57-10.91,10.32-12.29l5.75,32.63m14.09-18.35c0,7.05-2.88,14.29-9.92,17.17-2.08-11.9-4.76-27.68-5.46-32.05,8.93,0,15.38,6.06,15.38,14.88"/><path d="M30.8,194.16c0,6.56,4.96,15.19,18.35,15.19,4.67,0,8.74-1.19,12.31-3.38,5.36-3.77,6.74-10.32,6.74-16.57,0-3.86-.59-8.32-1.58-13.98-.29-1.98-.9-4.96-1.49-8.84,9.72-3.18,16.96-13.3,16.96-23.51,0-14.97-10.62-25.09-25.09-25.09-.99-5.95-1.98-11.81-2.77-17.36,10.42-11.02,17.65-23.42,17.65-39.18,0-9.04-2.77-16.37-4.37-19.95-2.37-5.05-5.25-8.53-7.04-8.53-.7,0-3.77,1.19-7.04,5.05-6.36,7.55-8.14,20.24-8.14,28.57,0,5.36,.5,10.23,2.19,21.34-.11,.09-5.27,5.35-7.35,7.04-9.04,8.34-21.53,20.43-21.53,40.28,0,18.54,16.17,33.12,34.63,33.12,2.87,0,5.55-.29,7.83-.7,1.89,9.53,3.08,16.48,3.08,21.73,0,10.32-5.36,15.78-15.38,15.78-2.39,0-4.46-.5-4.67-.5-.09-.11-.29-.2-.29-.29,0-.2,.2-.31,.5-.31,4.67-.79,9.32-4.76,9.32-11.1,0-5.36-4.06-11.02-11.5-11.02-6.94,0-11.31,5.66-11.31,12.2M51.54,61.73c.9-3.97,5.46-14.38,10.62-14.38,1.49,0,3.86,4.76,3.86,11.7,0,10.32-7.63,18.06-14.48,24.8-.59-3.97-1.08-7.83-1.08-12,0-3.67,.29-7.05,1.08-10.12m8.73,101.97c-1.98,.4-3.86,.6-5.75,.6-14.18,0-26.29-9.92-26.29-24.91,0-12.09,8.53-22.91,17.27-30.46,1.67-1.49,3.27-2.87,4.76-4.36,.88,5.35,1.58,10.01,2.28,14.09-9.04,2.68-15.17,12.2-15.17,21.53,0,6.94,5.46,16.46,13.39,16.46,.79,0,1.69-.4,1.69-1.29s-.99-1.39-2.19-2.19c-3.88-2.39-6.06-4.96-6.06-9.83,0-6.05,4.57-10.91,10.32-12.29l5.75,32.63m14.09-18.35c0,7.05-2.88,14.29-9.92,17.17-2.08-11.9-4.76-27.68-5.46-32.05,8.93,0,15.38,6.06,15.38,14.88"/><path d="M118.79,436.78c-4.96,0-7.84,3.07-8.34,3.67l.4-31.85c0-.79-.59-1.38-1.4-1.38h-1.18c-.81,0-1.4,.59-1.4,1.38l.5,59.63c0,.79,.59,1.38,1.4,1.38,.19,0,.59-.09,.79-.19,8.53-4.28,17.45-12.4,17.45-22.63,0-5.15-2.37-10.01-8.23-10.01m-8.63,27.98l.29-19.34c.2-.9,1.69-3.77,5.66-3.77,3.58,0,3.87,3.36,3.87,5.46,0,8.82-3.27,12.49-9.83,17.65"/><path d="M146.36,399.58c-4.96,0-7.84,3.07-8.34,3.67l.4-31.85c0-.79-.59-1.38-1.4-1.38h-1.18c-.81,0-1.4,.59-1.4,1.38l.5,59.63c0,.79,.59,1.38,1.4,1.38,.19,0,.59-.09,.79-.19,8.53-4.28,17.45-12.4,17.45-22.63,0-5.15-2.37-10.01-8.23-10.01m-8.63,27.98l.29-19.34c.2-.9,1.69-3.77,5.66-3.77,3.58,0,3.87,3.36,3.87,5.46,0,8.82-3.27,12.49-9.83,17.65"/><path d="M118.79,103.1c-4.96,0-7.84,3.07-8.34,3.67l.4-31.85c0-.79-.59-1.38-1.4-1.38h-1.18c-.81,0-1.4,.59-1.4,1.38l.5,59.63c0,.79,.59,1.38,1.4,1.38,.19,0,.59-.09,.79-.19,8.53-4.28,17.45-12.4,17.45-22.63,0-5.15-2.37-10.01-8.23-10.01m-8.63,27.98l.29-19.34c.2-.9,1.69-3.77,5.66-3.77,3.58,0,3.87,3.36,3.87,5.46,0,8.82-3.27,12.49-9.83,17.65"/><path d="M146.36,65.9c-4.96,0-7.84,3.07-8.34,3.67l.4-31.85c0-.79-.59-1.38-1.4-1.38h-1.18c-.81,0-1.4,.59-1.4,1.38l.5,59.63c0,.79,.59,1.38,1.4,1.38,.19,0,.59-.09,.79-.19,8.53-4.28,17.45-12.4,17.45-22.63,0-5.15-2.37-10.01-8.23-10.01m-8.63,27.98l.29-19.34c.2-.9,1.69-3.77,5.66-3.77,3.58,0,3.87,3.36,3.87,5.46,0,8.82-3.27,12.49-9.83,17.65"/><path d="M1964.51,364.36c-9.32-10.12-17.56-10.71-22.71-10.71s-13.3,.59-22.63,10.71c-4.85,5.36-8.23,15.97-8.23,21.33,0,1.89,.4,3.18,1.4,3.18,2.77,0,1.38-8.54,9.72-16.97,7.33-7.33,17.16-7.44,19.55-7.44h.39c2.39,0,12.21,.11,19.55,7.44,8.34,8.43,6.94,16.97,9.72,16.97,.99,0,1.39-1.19,1.39-3.18,0-5.36-3.27-16.07-8.14-21.33m-29.56,18.94c0,3.78,3.07,6.85,6.85,6.85s6.84-3.07,6.84-6.85-3.07-6.84-6.84-6.84-6.85,3.07-6.85,6.84"/><path d="M228.53,269.65c-2.33,3.75-3.33,4.8-4.64,4.8-.64,0-1-.41-1-1.12,0-.52,.2-1.44,.59-2.84l7.12-23.98-7.95,.59-.17,1.44h1.25c1.64,0,2.28,.36,2.28,1.23,0,.41-.12,.92-.36,1.77l-2.64,8.88c-.72-2.08-2.28-3.23-4.61-3.23-5.75,0-11.11,6.16-11.11,12.8,0,3.92,2.52,6.59,6.28,6.59,2.72,0,4.72-1.11,6.47-3.72-.03,.33-.03,.72-.03,.89,0,1.83,.95,2.83,2.72,2.83,2.51,0,4.72-1.95,7-6.19l-1.2-.72m-10-10.69c1.95,0,3.39,1.52,3.39,3.61,0,3.62-2.55,12.11-7.19,12.11-2.16,0-3.56-1.72-3.56-4.31,0-3.8,2.72-11.41,7.36-11.41m33-1.2h-3.49l-1.88,6.41c-1.64,5.56-5.33,10.11-8.16,10.11-.97,0-1.72-.75-1.72-1.72,0-.52,.11-1.16,.44-2.27l3.92-13.12-7.72,.59-.12,1.45h.95c1.64,0,2.25,.36,2.25,1.27,0,.41-.12,.97-.33,1.73l-1.59,5.39q-1.23,4-1.23,5.23c0,2.2,1.51,3.69,3.8,3.69,2.8,0,5.08-1.64,7.44-5.33-.41,1.41-.48,1.97-.48,2.72,0,1.56,1.08,2.64,2.56,2.64,2.44,0,4.39-1.64,7.24-6l-1.2-.72c-1.95,2.92-3.52,4.53-4.39,4.53-.36,0-.72-.45-.72-.97,0-.44,.16-1.2,.47-2.36l3.97-13.28"/><path d="M699.33,261.12c-4.2,0-7.25,2.56-7.25,6.03,0,1.73,1,3.17,2.77,4.09,.64,.31,1.44,.67,3.12,1.36,2.26,.91,2.83,1.47,2.83,2.88,0,2.16-1.8,3.51-4.56,3.51-2.03,0-3.47-.56-3.47-1.36,0-.2,.11-.44,.28-.59,.75-.8,.83-1,.83-1.72,0-1.12-.88-2-2.03-2-1.33,0-2.33,1.11-2.33,2.67,0,2.8,2.48,4.52,6.53,4.52,4.59,0,7.75-2.52,7.75-6.16,0-1.59-.72-2.95-2-3.83-.88-.61-1.28-.77-3.47-1.56-2.61-.92-3.28-1.56-3.28-3.12,0-1.84,1.75-3.2,4.08-3.2,1.56,0,2.59,.44,2.59,1.08,0,.17-.08,.36-.2,.56-.56,.8-.64,1-.64,1.61,0,1.08,.84,1.83,2.08,1.83,1.36,0,2.28-1,2.28-2.44,0-2.44-2.44-4.16-5.91-4.16m16.75-9.76c-1.2,0-2.16,.97-2.16,2.17s.95,2.16,2.12,2.16c1.23,0,2.19-.97,2.19-2.16s-.95-2.17-2.16-2.17m.72,9.76l-7.67,.59-.16,1.45h.95c1.64,0,2.28,.36,2.28,1.24,0,.39-.08,.84-.36,1.76l-2.33,7.8c-.75,2.55-.88,3.11-.88,4.03,0,1.41,1.2,2.49,2.72,2.49,3.44,0,5.8-3.56,7.49-6.16l-1.25-.69c-2.08,3.16-3.75,4.84-4.83,4.84-.41,0-.69-.36-.69-.84,0-.39,.16-1.12,.48-2.23l4.23-14.28m12.97,0l-7.28,.59-.12,1.45h.97c1.59,0,2.23,.36,2.23,1.27,0,.36-.12,.97-.33,1.73l-4.08,13.75h3.48l1.64-5.64c1.8-6.12,5.44-10.75,8.44-10.75,1.05,0,1.69,.55,1.69,1.55,0,.81-.33,2.49-.81,4l-3.19,10.84h3.47l1.72-5.8c1-3.33,2-5.56,3.28-7.28,1.44-2,3.48-3.31,5-3.31,1,0,1.56,.51,1.56,1.47,0,.56-.2,1.44-.56,2.56l-1.84,5.69c-1.08,3.11-1.11,3.36-1.11,4.47,0,1.69,1.23,2.8,3.11,2.8,1.33,0,2.61-.64,3.97-1.91,.84-.81,1.39-1.53,3.03-3.92l-1.23-.84c-2.08,3.12-3.56,4.64-4.59,4.64-.44,0-.84-.44-.84-1,0-.36,.12-.8,.49-1.97l2.51-7.75c.28-.88,.49-2.12,.49-3,0-2.12-1.56-3.64-3.72-3.64-2.84,0-5.41,1.84-7.72,5.64,.16-.77,.23-1.44,.23-1.92,0-2.12-1.69-3.72-3.88-3.72-2.53,0-4.36,1.41-7.17,5.41l1.17-5.41m29.95,14.44c-1.36,0-2.47,1.12-2.47,2.48s1.11,2.47,2.44,2.47c1.44,0,2.52-1.08,2.52-2.47s-1.12-2.48-2.48-2.48"/><path d="M306.68,258.12c.64-.56,1-.75,1.47-.75,.41,0,.73,.19,1.05,.64,.64,.88,.88,1.03,1.51,1.03,.92,0,1.61-.75,1.61-1.75,0-1.17-1.12-2.09-2.53-2.09s-2.47,.53-4.55,2.17c-1.25-.56-2.17-.77-3.45-.77-4.44,0-8.19,3.16-8.19,6.84,0,1.92,.75,3.23,2.47,4.16-1.83,.23-2.67,.52-3.59,1.31-.8,.64-1.31,1.72-1.31,2.69,0,1.36,.64,2.2,2.19,2.95-2.36,.53-5.11,1.53-5.11,4.44,0,4,5.28,4.48,8.2,4.48,3.95,0,6.23-.48,8.19-1.77,1.72-1.11,2.72-2.83,2.72-4.72,0-4.03-4.28-4.52-7.36-4.72-3.55-.19-3.83-.23-4.39-.36-1-.23-1.48-.72-1.48-1.39,0-.97,.95-1.61,2.41-1.61,.52,0,1.11,.05,1.64,.12,1.64,.23,1.87,.28,2.87,.28,2.24,0,4-.56,5.39-1.69,1.61-1.23,2.61-3.23,2.61-5.08s-.8-3.31-2.36-4.44m-4.61,0c2.09,0,3.41,1.25,3.41,3.2,0,2.88-1.31,6.52-4.72,6.52-2.16,0-3.52-1.36-3.52-3.59,0-3.59,1.95-6.12,4.83-6.12m-4.88,17.16c1.8,0,4.69,.41,5.59,.77,1,.44,1.49,1.12,1.49,2.12,0,2.36-2.52,3.64-7.11,3.64-3.89,0-5.69-.97-5.69-3.09s2.08-3.44,5.72-3.44m35.56-18.08h-3.48l-1.88,6.41c-1.64,5.56-5.33,10.11-8.16,10.11-.97,0-1.72-.75-1.72-1.72,0-.52,.11-1.16,.44-2.27l3.92-13.12-7.72,.59-.12,1.45h.95c1.64,0,2.25,.36,2.25,1.27,0,.41-.12,.97-.33,1.73l-1.59,5.39q-1.24,4-1.24,5.23c0,2.2,1.52,3.69,3.8,3.69,2.8,0,5.08-1.64,7.44-5.33-.41,1.41-.49,1.97-.49,2.72,0,1.56,1.08,2.64,2.56,2.64,2.44,0,4.39-1.64,7.23-6l-1.2-.72c-1.95,2.92-3.52,4.53-4.39,4.53-.36,0-.72-.45-.72-.97,0-.44,.16-1.2,.47-2.36l3.97-13.28"/><path d="M629.69,274.61c-2.33,3.75-3.33,4.8-4.64,4.8-.64,0-1-.41-1-1.12,0-.52,.2-1.44,.59-2.84l7.12-23.99-7.95,.59-.17,1.44h1.25c1.64,0,2.28,.36,2.28,1.23,0,.41-.12,.92-.36,1.77l-2.64,8.88c-.72-2.08-2.28-3.24-4.61-3.24-5.75,0-11.11,6.16-11.11,12.8,0,3.92,2.52,6.59,6.28,6.59,2.72,0,4.72-1.11,6.47-3.72-.03,.33-.03,.72-.03,.89,0,1.83,.95,2.83,2.72,2.83,2.51,0,4.72-1.95,7-6.19l-1.2-.72m-10-10.69c1.95,0,3.39,1.52,3.39,3.61,0,3.62-2.55,12.11-7.19,12.11-2.16,0-3.56-1.72-3.56-4.31,0-3.8,2.72-11.41,7.36-11.41m33-1.2h-3.49l-1.88,6.41c-1.64,5.56-5.33,10.11-8.16,10.11-.97,0-1.72-.75-1.72-1.72,0-.52,.11-1.16,.44-2.27l3.92-13.12-7.72,.59-.12,1.45h.95c1.64,0,2.25,.36,2.25,1.27,0,.41-.12,.97-.33,1.73l-1.59,5.39q-1.23,4-1.23,5.23c0,2.2,1.51,3.69,3.8,3.69,2.8,0,5.08-1.64,7.44-5.33-.41,1.41-.48,1.97-.48,2.72,0,1.56,1.08,2.64,2.56,2.64,2.44,0,4.39-1.64,7.24-6l-1.2-.72c-1.95,2.92-3.52,4.53-4.39,4.53-.36,0-.72-.45-.72-.97,0-.44,.16-1.2,.47-2.36l3.97-13.28"/><path d="M547.38,260.6c.64-.56,1-.75,1.47-.75,.41,0,.73,.19,1.05,.64,.64,.88,.88,1.03,1.52,1.03,.92,0,1.61-.75,1.61-1.75,0-1.17-1.12-2.09-2.53-2.09s-2.47,.53-4.55,2.17c-1.25-.56-2.17-.77-3.45-.77-4.44,0-8.19,3.16-8.19,6.84,0,1.92,.75,3.23,2.47,4.16-1.83,.23-2.67,.52-3.59,1.31-.8,.64-1.31,1.72-1.31,2.69,0,1.36,.64,2.2,2.19,2.95-2.36,.53-5.11,1.53-5.11,4.44,0,4,5.28,4.48,8.2,4.48,3.95,0,6.23-.48,8.19-1.77,1.72-1.11,2.72-2.83,2.72-4.72,0-4.03-4.28-4.52-7.36-4.72-3.55-.19-3.83-.23-4.39-.36-1-.23-1.48-.72-1.48-1.39,0-.97,.95-1.61,2.41-1.61,.52,0,1.11,.05,1.64,.12,1.64,.23,1.88,.28,2.88,.28,2.23,0,4-.56,5.39-1.69,1.61-1.23,2.61-3.23,2.61-5.08s-.8-3.31-2.36-4.44m-4.61,0c2.09,0,3.41,1.25,3.41,3.2,0,2.88-1.31,6.52-4.72,6.52-2.16,0-3.52-1.36-3.52-3.59,0-3.59,1.95-6.12,4.83-6.12m-4.88,17.16c1.8,0,4.69,.41,5.59,.77,1,.44,1.48,1.12,1.48,2.12,0,2.36-2.52,3.64-7.11,3.64-3.89,0-5.69-.97-5.69-3.09s2.08-3.44,5.72-3.44m35.56-18.08h-3.48l-1.88,6.41c-1.64,5.56-5.33,10.11-8.16,10.11-.97,0-1.72-.75-1.72-1.72,0-.52,.11-1.16,.44-2.27l3.92-13.12-7.72,.59-.12,1.45h.95c1.64,0,2.25,.36,2.25,1.27,0,.41-.12,.97-.33,1.73l-1.59,5.39q-1.23,4-1.23,5.23c0,2.2,1.52,3.69,3.8,3.69,2.8,0,5.08-1.64,7.44-5.33-.41,1.41-.48,1.97-.48,2.72,0,1.56,1.08,2.64,2.56,2.64,2.44,0,4.39-1.64,7.23-6l-1.2-.72c-1.95,2.92-3.52,4.53-4.39,4.53-.36,0-.72-.45-.72-.97,0-.44,.16-1.2,.47-2.36l3.97-13.28"/><path d="M469.22,269.65c-2.33,3.75-3.33,4.8-4.64,4.8-.64,0-1-.41-1-1.12,0-.52,.2-1.44,.59-2.84l7.12-23.98-7.95,.59-.17,1.44h1.25c1.64,0,2.28,.36,2.28,1.23,0,.41-.12,.92-.36,1.77l-2.64,8.88c-.72-2.08-2.28-3.23-4.61-3.23-5.75,0-11.11,6.16-11.11,12.8,0,3.92,2.52,6.59,6.28,6.59,2.72,0,4.72-1.11,6.47-3.72-.03,.33-.03,.72-.03,.89,0,1.83,.95,2.83,2.72,2.83,2.52,0,4.72-1.95,7-6.19l-1.2-.72m-10-10.69c1.95,0,3.39,1.52,3.39,3.61,0,3.62-2.55,12.11-7.19,12.11-2.16,0-3.56-1.72-3.56-4.31,0-3.8,2.72-11.41,7.36-11.41m33-1.2h-3.48l-1.88,6.41c-1.64,5.56-5.33,10.11-8.16,10.11-.97,0-1.72-.75-1.72-1.72,0-.52,.11-1.16,.44-2.27l3.92-13.12-7.72,.59-.12,1.45h.95c1.64,0,2.25,.36,2.25,1.27,0,.41-.12,.97-.33,1.73l-1.59,5.39q-1.23,4-1.23,5.23c0,2.2,1.52,3.69,3.8,3.69,2.8,0,5.08-1.64,7.44-5.33-.41,1.41-.48,1.97-.48,2.72,0,1.56,1.08,2.64,2.56,2.64,2.44,0,4.39-1.64,7.23-6l-1.2-.72c-1.95,2.92-3.52,4.53-4.39,4.53-.36,0-.72-.45-.72-.97,0-.44,.16-1.2,.47-2.36l3.97-13.28"/><path d="M388.99,269.65c-2.33,3.75-3.33,4.8-4.64,4.8-.64,0-1-.41-1-1.12,0-.52,.2-1.44,.59-2.84l7.12-23.98-7.95,.59-.17,1.44h1.25c1.64,0,2.28,.36,2.28,1.23,0,.41-.12,.92-.36,1.77l-2.64,8.88c-.72-2.08-2.28-3.23-4.61-3.23-5.75,0-11.11,6.16-11.11,12.8,0,3.92,2.52,6.59,6.28,6.59,2.72,0,4.72-1.11,6.47-3.72-.03,.33-.03,.72-.03,.89,0,1.83,.95,2.83,2.72,2.83,2.52,0,4.72-1.95,7-6.19l-1.2-.72m-10-10.69c1.95,0,3.39,1.52,3.39,3.61,0,3.62-2.55,12.11-7.19,12.11-2.16,0-3.56-1.72-3.56-4.31,0-3.8,2.72-11.41,7.36-11.41m33-1.2h-3.48l-1.88,6.41c-1.64,5.56-5.33,10.11-8.16,10.11-.97,0-1.72-.75-1.72-1.72,0-.52,.11-1.16,.44-2.27l3.92-13.12-7.72,.59-.12,1.45h.95c1.64,0,2.25,.36,2.25,1.27,0,.41-.12,.97-.33,1.73l-1.59,5.39q-1.23,4-1.23,5.23c0,2.2,1.52,3.69,3.8,3.69,2.8,0,5.08-1.64,7.44-5.33-.41,1.41-.48,1.97-.48,2.72,0,1.56,1.08,2.64,2.56,2.64,2.44,0,4.39-1.64,7.23-6l-1.2-.72c-1.95,2.92-3.52,4.53-4.39,4.53-.36,0-.72-.45-.72-.97,0-.44,.16-1.2,.47-2.36l3.97-13.28"/><path d="M485.25,390.13l161.75,12.4v12.44l-161.75-12.4v-12.44" fill-rule="evenodd"/><path d="M1477.6,439.73l161.75,12.4v12.44l-161.75-12.4v-12.44" fill-rule="evenodd"/><path d="M246.34,377.75l161.75,6.2v12.41l-161.75-6.2v-12.41" fill-rule="evenodd"/><path d="M1238.69,421.15l161.75,6.2v12.41l-161.75-6.2v-12.41" fill-rule="evenodd"/><path d="M1697.47,192.85l162.95-12.4v12.44l-162.95,12.4v-12.44" fill-rule="evenodd"/><path d="M1486.53,50.27l162.94-6.2v12.41l-162.94,6.2v-12.41" fill-rule="evenodd"/><path d="M246.34,93.67l162.95-6.2v12.41l-162.95,6.2v-12.41" fill-rule="evenodd"/><path d="M1716.51,439.73l161.75,12.4v12.44l-161.75-12.4v-12.44" fill-rule="evenodd"/><path d="M487.04,93.67l162.94-6.2v12.41l-162.94,6.2v-12.41" fill-rule="evenodd"/><path d="M727.74,68.87l162.95-6.2v12.41l-162.95,6.2v-12.41" fill-rule="evenodd"/><path d="M968.43,68.87l162.95-6.2v12.41l-162.95,6.2v-12.41" fill-rule="evenodd"/><path d="M963.07,414.93l161.75,12.4v12.44l-161.75-12.4v-12.44" fill-rule="evenodd"/><path d="M1245.83,62.67l162.95-6.2v12.41l-162.95,6.2v-12.41" fill-rule="evenodd"/><path d="M724.16,396.35l161.75,6.2v12.41l-161.75-6.2v-12.41" fill-rule="evenodd"/><path d="M330.87,37c2.12-.67,2.97-1.05,4.05-1.77,2.12-1.39,3.42-3.86,3.42-6.39,0-4.26-3.42-7.14-8.45-7.14s-9.05,3.05-9.05,6.75c0,1.84,1.12,3.09,2.83,3.09,1.48,0,2.58-1.08,2.58-2.56,0-.77-.23-1.3-.95-2.02-.45-.41-.62-.73-.62-1.05,0-1.08,2.25-2.2,4.36-2.2,3.02,0,4.81,1.67,4.81,4.45,0,4.02-2.83,7.78-5.84,7.78-.14,0-.55-.03-1.03-.08q-1.31-.09-1.58-.09c-1,0-1.53,.45-1.53,1.26,0,.72,.5,1.16,1.3,1.16,.23,0,.55-.03,.91-.08,.62-.14,1.31-.19,1.7-.19,2.12,0,3.56,1.89,3.56,4.69,0,4.86-2.39,9.53-7.83,9.53-2.52,0-4.69-1.25-4.69-2.7,0-.49,.19-.67,.91-.99,1.3-.58,1.84-1.39,1.84-2.61,0-1.58-1.27-2.78-2.88-2.78-1.94,0-3.2,1.51-3.2,3.86,0,4.38,3.33,7.11,8.73,7.11,6.8,0,11.97-4.55,11.97-10.58,0-3.5-2.16-5.48-5.31-6.47"/><path d="M571.57,37c2.12-.67,2.97-1.05,4.05-1.77,2.12-1.39,3.42-3.86,3.42-6.39,0-4.26-3.42-7.14-8.45-7.14s-9.05,3.05-9.05,6.75c0,1.84,1.12,3.09,2.83,3.09,1.48,0,2.58-1.08,2.58-2.56,0-.77-.23-1.3-.95-2.02-.45-.41-.62-.73-.62-1.05,0-1.08,2.25-2.2,4.36-2.2,3.02,0,4.81,1.67,4.81,4.45,0,4.02-2.83,7.78-5.84,7.78-.14,0-.55-.03-1.03-.08q-1.31-.09-1.58-.09c-1,0-1.53,.45-1.53,1.26,0,.72,.5,1.16,1.3,1.16,.23,0,.55-.03,.91-.08,.62-.14,1.31-.19,1.7-.19,2.12,0,3.56,1.89,3.56,4.69,0,4.86-2.39,9.53-7.83,9.53-2.52,0-4.69-1.25-4.69-2.7,0-.49,.19-.67,.91-.99,1.3-.58,1.84-1.39,1.84-2.61,0-1.58-1.27-2.78-2.88-2.78-1.94,0-3.2,1.51-3.2,3.86,0,4.38,3.33,7.11,8.73,7.11,6.8,0,11.97-4.55,11.97-10.58,0-3.5-2.16-5.48-5.31-6.47"/><path d="M812.26,33.9c2.13-.67,2.97-1.05,4.05-1.77,2.13-1.39,3.42-3.86,3.42-6.39,0-4.26-3.42-7.14-8.45-7.14s-9.05,3.05-9.05,6.75c0,1.84,1.13,3.09,2.83,3.09,1.48,0,2.58-1.08,2.58-2.56,0-.77-.24-1.3-.95-2.02-.46-.41-.63-.73-.63-1.05,0-1.08,2.25-2.2,4.36-2.2,3.02,0,4.81,1.67,4.81,4.45,0,4.02-2.83,7.78-5.84,7.78-.14,0-.55-.03-1.03-.08q-1.32-.09-1.58-.09c-1,0-1.53,.45-1.53,1.26,0,.72,.5,1.16,1.29,1.16,.24,0,.55-.03,.91-.08,.63-.14,1.31-.19,1.7-.19,2.13,0,3.57,1.89,3.57,4.69,0,4.86-2.39,9.53-7.83,9.53-2.52,0-4.69-1.25-4.69-2.7,0-.49,.19-.67,.91-.99,1.29-.58,1.84-1.39,1.84-2.61,0-1.58-1.26-2.78-2.87-2.78-1.94,0-3.21,1.51-3.21,3.86,0,4.38,3.33,7.11,8.74,7.11,6.79,0,11.97-4.55,11.97-10.58,0-3.5-2.16-5.48-5.32-6.47"/><path d="M1322.62,370.68c2.12-.67,2.97-1.05,4.05-1.77,2.12-1.39,3.42-3.86,3.42-6.39,0-4.27-3.42-7.14-8.46-7.14s-9.04,3.05-9.04,6.75c0,1.84,1.12,3.09,2.83,3.09,1.48,0,2.57-1.08,2.57-2.56,0-.76-.23-1.3-.95-2.01-.45-.41-.62-.74-.62-1.05,0-1.08,2.25-2.2,4.36-2.2,3.01,0,4.81,1.67,4.81,4.45,0,4.01-2.83,7.78-5.85,7.78-.14,0-.54-.03-1.03-.08q-1.31-.09-1.58-.09c-1,0-1.53,.45-1.53,1.27,0,.72,.5,1.16,1.3,1.16,.23,0,.55-.03,.91-.08,.62-.14,1.31-.19,1.7-.19,2.12,0,3.56,1.89,3.56,4.69,0,4.86-2.39,9.53-7.83,9.53-2.51,0-4.68-1.25-4.68-2.7,0-.48,.18-.67,.9-.98,1.3-.58,1.85-1.39,1.85-2.61,0-1.58-1.27-2.78-2.88-2.78-1.94,0-3.2,1.52-3.2,3.86,0,4.38,3.33,7.11,8.73,7.11,6.8,0,11.97-4.55,11.97-10.58,0-3.5-2.15-5.49-5.31-6.47"/><path d="M330.28,348.98c2.12-.67,2.97-1.05,4.05-1.77,2.12-1.39,3.42-3.86,3.42-6.39,0-4.27-3.42-7.14-8.45-7.14s-9.05,3.05-9.05,6.75c0,1.84,1.12,3.09,2.83,3.09,1.48,0,2.58-1.08,2.58-2.56,0-.77-.24-1.3-.95-2.02-.45-.41-.62-.73-.62-1.05,0-1.08,2.25-2.2,4.36-2.2,3.02,0,4.81,1.67,4.81,4.45,0,4.02-2.83,7.78-5.84,7.78-.14,0-.55-.03-1.03-.08q-1.31-.09-1.58-.09c-1,0-1.53,.45-1.53,1.27,0,.72,.5,1.16,1.3,1.16,.23,0,.55-.03,.91-.08,.62-.14,1.31-.19,1.7-.19,2.12,0,3.56,1.89,3.56,4.69,0,4.86-2.39,9.53-7.83,9.53-2.52,0-4.69-1.25-4.69-2.7,0-.48,.19-.67,.91-.98,1.3-.58,1.84-1.39,1.84-2.61,0-1.58-1.26-2.78-2.88-2.78-1.94,0-3.2,1.52-3.2,3.86,0,4.38,3.33,7.11,8.74,7.11,6.8,0,11.97-4.55,11.97-10.58,0-3.5-2.16-5.48-5.31-6.47"/><path d="M1800.44,370.68c2.12-.67,2.97-1.05,4.05-1.77,2.12-1.39,3.42-3.86,3.42-6.39,0-4.27-3.42-7.14-8.45-7.14s-9.05,3.05-9.05,6.75c0,1.84,1.12,3.09,2.83,3.09,1.48,0,2.57-1.08,2.57-2.56,0-.76-.23-1.3-.95-2.01-.45-.41-.62-.74-.62-1.05,0-1.08,2.25-2.2,4.36-2.2,3.01,0,4.81,1.67,4.81,4.45,0,4.01-2.83,7.78-5.85,7.78-.14,0-.54-.03-1.03-.08q-1.31-.09-1.57-.09c-1,0-1.54,.45-1.54,1.27,0,.72,.5,1.16,1.3,1.16,.24,0,.55-.03,.91-.08,.62-.14,1.31-.19,1.7-.19,2.13,0,3.56,1.89,3.56,4.69,0,4.86-2.39,9.53-7.83,9.53-2.51,0-4.68-1.25-4.68-2.7,0-.48,.18-.67,.9-.98,1.3-.58,1.85-1.39,1.85-2.61,0-1.58-1.27-2.78-2.88-2.78-1.94,0-3.2,1.52-3.2,3.86,0,4.38,3.33,7.11,8.73,7.11,6.8,0,11.97-4.55,11.97-10.58,0-3.5-2.15-5.49-5.31-6.47"/><path d="M1782,229.77c2.13-.67,2.97-1.05,4.05-1.77,2.13-1.39,3.42-3.86,3.42-6.39,0-4.27-3.42-7.14-8.45-7.14s-9.05,3.05-9.05,6.75c0,1.84,1.13,3.09,2.83,3.09,1.49,0,2.58-1.08,2.58-2.56,0-.77-.24-1.3-.95-2.02-.46-.41-.63-.73-.63-1.05,0-1.08,2.25-2.2,4.36-2.2,3.02,0,4.81,1.67,4.81,4.45,0,4.02-2.83,7.78-5.84,7.78-.14,0-.55-.03-1.03-.08q-1.31-.09-1.58-.09c-1,0-1.53,.45-1.53,1.27,0,.72,.5,1.16,1.3,1.16,.23,0,.54-.03,.9-.08,.63-.14,1.31-.19,1.7-.19,2.13,0,3.57,1.89,3.57,4.69,0,4.86-2.39,9.53-7.83,9.53-2.52,0-4.69-1.25-4.69-2.7,0-.48,.19-.67,.91-.98,1.29-.58,1.84-1.39,1.84-2.61,0-1.58-1.26-2.78-2.87-2.78-1.94,0-3.21,1.52-3.21,3.86,0,4.38,3.33,7.11,8.74,7.11,6.79,0,11.97-4.55,11.97-10.58,0-3.5-2.16-5.48-5.32-6.47"/><path d="M1047,370.68c2.13-.67,2.97-1.05,4.05-1.77,2.13-1.39,3.42-3.86,3.42-6.39,0-4.27-3.42-7.14-8.45-7.14s-9.05,3.05-9.05,6.75c0,1.84,1.13,3.09,2.83,3.09,1.49,0,2.58-1.08,2.58-2.56,0-.76-.23-1.3-.95-2.01-.46-.41-.63-.74-.63-1.05,0-1.08,2.25-2.2,4.36-2.2,3.02,0,4.81,1.67,4.81,4.45,0,4.01-2.82,7.78-5.84,7.78-.14,0-.55-.03-1.03-.08q-1.31-.09-1.58-.09c-1,0-1.53,.45-1.53,1.27,0,.72,.5,1.16,1.3,1.16,.23,0,.54-.03,.9-.08,.63-.14,1.31-.19,1.71-.19,2.12,0,3.56,1.89,3.56,4.69,0,4.86-2.39,9.53-7.83,9.53-2.52,0-4.69-1.25-4.69-2.7,0-.48,.19-.67,.91-.98,1.3-.58,1.84-1.39,1.84-2.61,0-1.58-1.26-2.78-2.87-2.78-1.94,0-3.21,1.52-3.21,3.86,0,4.38,3.33,7.11,8.74,7.11,6.8,0,11.97-4.55,11.97-10.58,0-3.5-2.16-5.49-5.32-6.47"/><path d="M1561.53,370.68c2.12-.67,2.97-1.05,4.05-1.77,2.12-1.39,3.42-3.86,3.42-6.39,0-4.27-3.42-7.14-8.45-7.14s-9.05,3.05-9.05,6.75c0,1.84,1.12,3.09,2.83,3.09,1.48,0,2.57-1.08,2.57-2.56,0-.76-.23-1.3-.95-2.01-.45-.41-.62-.74-.62-1.05,0-1.08,2.25-2.2,4.36-2.2,3.01,0,4.81,1.67,4.81,4.45,0,4.01-2.83,7.78-5.85,7.78-.14,0-.54-.03-1.03-.08q-1.31-.09-1.57-.09c-1,0-1.54,.45-1.54,1.27,0,.72,.5,1.16,1.3,1.16,.24,0,.55-.03,.91-.08,.62-.14,1.31-.19,1.7-.19,2.13,0,3.56,1.89,3.56,4.69,0,4.86-2.39,9.53-7.83,9.53-2.51,0-4.68-1.25-4.68-2.7,0-.48,.18-.67,.9-.98,1.3-.58,1.85-1.39,1.85-2.61,0-1.58-1.27-2.78-2.88-2.78-1.94,0-3.2,1.52-3.2,3.86,0,4.38,3.33,7.11,8.73,7.11,6.8,0,11.97-4.55,11.97-10.58,0-3.5-2.15-5.49-5.31-6.47"/><path d="M1052.96,33.9c2.13-.67,2.97-1.05,4.05-1.77,2.12-1.39,3.42-3.86,3.42-6.39,0-4.26-3.42-7.14-8.45-7.14s-9.05,3.05-9.05,6.75c0,1.84,1.12,3.09,2.83,3.09,1.48,0,2.58-1.08,2.58-2.56,0-.77-.24-1.3-.96-2.02-.45-.41-.62-.73-.62-1.05,0-1.08,2.25-2.2,4.36-2.2,3.01,0,4.81,1.67,4.81,4.45,0,4.02-2.83,7.78-5.84,7.78-.14,0-.55-.03-1.04-.08q-1.31-.09-1.57-.09c-1,0-1.53,.45-1.53,1.26,0,.72,.5,1.16,1.29,1.16,.24,0,.55-.03,.91-.08,.62-.14,1.31-.19,1.7-.19,2.13,0,3.56,1.89,3.56,4.69,0,4.86-2.39,9.53-7.82,9.53-2.52,0-4.69-1.25-4.69-2.7,0-.49,.19-.67,.9-.99,1.3-.58,1.85-1.39,1.85-2.61,0-1.58-1.27-2.78-2.88-2.78-1.93,0-3.2,1.51-3.2,3.86,0,4.38,3.33,7.11,8.73,7.11,6.8,0,11.97-4.55,11.97-10.58,0-3.5-2.15-5.48-5.31-6.47"/><path d="M569.19,363.9c2.12-.67,2.97-1.05,4.05-1.77,2.12-1.39,3.42-3.86,3.42-6.39,0-4.27-3.42-7.14-8.45-7.14s-9.05,3.05-9.05,6.75c0,1.84,1.12,3.09,2.83,3.09,1.48,0,2.58-1.08,2.58-2.56,0-.77-.23-1.3-.95-2.02-.45-.41-.62-.73-.62-1.05,0-1.08,2.25-2.2,4.36-2.2,3.02,0,4.81,1.67,4.81,4.45,0,4.02-2.83,7.78-5.84,7.78-.14,0-.55-.03-1.03-.08q-1.31-.09-1.58-.09c-1,0-1.53,.45-1.53,1.27,0,.72,.5,1.16,1.3,1.16,.23,0,.55-.03,.91-.08,.62-.14,1.31-.19,1.7-.19,2.12,0,3.56,1.89,3.56,4.69,0,4.86-2.39,9.53-7.83,9.53-2.52,0-4.69-1.25-4.69-2.7,0-.48,.19-.67,.91-.98,1.3-.58,1.84-1.39,1.84-2.61,0-1.58-1.27-2.78-2.88-2.78-1.94,0-3.2,1.52-3.2,3.86,0,4.38,3.33,7.11,8.73,7.11,6.8,0,11.97-4.55,11.97-10.58,0-3.5-2.16-5.48-5.31-6.47"/><path d="M808.09,367.58c2.13-.67,2.97-1.05,4.05-1.77,2.13-1.39,3.42-3.86,3.42-6.39,0-4.27-3.42-7.14-8.45-7.14s-9.05,3.05-9.05,6.75c0,1.84,1.13,3.09,2.83,3.09,1.49,0,2.58-1.08,2.58-2.56,0-.77-.23-1.3-.95-2.02-.46-.41-.63-.73-.63-1.05,0-1.08,2.25-2.2,4.36-2.2,3.02,0,4.81,1.67,4.81,4.45,0,4.02-2.82,7.78-5.84,7.78-.14,0-.55-.03-1.03-.08q-1.31-.09-1.58-.09c-1,0-1.53,.45-1.53,1.27,0,.72,.5,1.16,1.3,1.16,.23,0,.54-.03,.9-.08,.63-.14,1.31-.19,1.71-.19,2.12,0,3.56,1.89,3.56,4.69,0,4.86-2.39,9.53-7.83,9.53-2.52,0-4.69-1.25-4.69-2.7,0-.48,.19-.67,.91-.98,1.3-.58,1.84-1.39,1.84-2.61,0-1.58-1.26-2.78-2.87-2.78-1.94,0-3.21,1.52-3.21,3.86,0,4.38,3.33,7.11,8.74,7.11,6.8,0,11.97-4.55,11.97-10.58,0-3.5-2.16-5.48-5.32-6.47"/><path d="M1571.06,15.3c2.12-.67,2.97-1.05,4.05-1.77,2.12-1.39,3.42-3.86,3.42-6.39,0-4.27-3.42-7.14-8.46-7.14s-9.04,3.05-9.04,6.75c0,1.84,1.12,3.09,2.83,3.09,1.48,0,2.57-1.08,2.57-2.56,0-.77-.23-1.3-.95-2.02-.45-.41-.62-.73-.62-1.05,0-1.08,2.25-2.2,4.36-2.2,3.01,0,4.81,1.67,4.81,4.45,0,4.02-2.83,7.78-5.85,7.78-.14,0-.54-.03-1.03-.08q-1.31-.09-1.58-.09c-1,0-1.53,.45-1.53,1.27,0,.72,.5,1.16,1.3,1.16,.23,0,.55-.03,.91-.08,.62-.14,1.31-.19,1.7-.19,2.12,0,3.56,1.89,3.56,4.69,0,4.86-2.39,9.53-7.83,9.53-2.51,0-4.68-1.25-4.68-2.7,0-.48,.18-.67,.9-.98,1.3-.58,1.85-1.39,1.85-2.61,0-1.58-1.27-2.78-2.88-2.78-1.94,0-3.2,1.52-3.2,3.86,0,4.38,3.33,7.11,8.73,7.11,6.8,0,11.97-4.55,11.97-10.58,0-3.5-2.15-5.48-5.31-6.47"/><path d="M1330.36,27.7c2.13-.67,2.97-1.05,4.05-1.77,2.12-1.39,3.42-3.86,3.42-6.39,0-4.27-3.42-7.14-8.45-7.14s-9.05,3.05-9.05,6.75c0,1.84,1.13,3.09,2.83,3.09,1.48,0,2.58-1.08,2.58-2.56,0-.77-.24-1.3-.96-2.02-.45-.41-.62-.73-.62-1.05,0-1.08,2.25-2.2,4.36-2.2,3.01,0,4.81,1.67,4.81,4.45,0,4.02-2.83,7.78-5.84,7.78-.14,0-.55-.03-1.03-.08q-1.32-.09-1.58-.09c-1,0-1.53,.45-1.53,1.27,0,.72,.5,1.16,1.29,1.16,.24,0,.55-.03,.91-.08,.62-.14,1.31-.19,1.7-.19,2.13,0,3.57,1.89,3.57,4.69,0,4.86-2.4,9.53-7.83,9.53-2.52,0-4.69-1.25-4.69-2.7,0-.48,.19-.67,.91-.98,1.29-.58,1.84-1.39,1.84-2.61,0-1.58-1.27-2.78-2.88-2.78-1.93,0-3.2,1.52-3.2,3.86,0,4.38,3.33,7.11,8.74,7.11,6.79,0,11.96-4.55,11.96-10.58,0-3.5-2.15-5.48-5.31-6.47"/></g></svg>