<?xml version="1.0" encoding="UTF-8"?><svg id="Ebene_2" xmlns="http://www.w3.org/2000/svg" viewBox="0 0 2786.4 255.74"><g id="Ebene_1-2"><line y1="68.87" x2="2786.4" y2="68.87" fill="none" stroke="#000" stroke-linejoin="bevel" stroke-width="2.73"/><line y1="93.67" x2="2786.4" y2="93.67" fill="none" stroke="#000" stroke-linejoin="bevel" stroke-width="2.73"/><line y1="118.47" x2="2786.4" y2="118.47" fill="none" stroke="#000" stroke-linejoin="bevel" stroke-width="2.73"/><line y1="143.27" x2="2786.4" y2="143.27" fill="none" stroke="#000" stroke-linejoin="bevel" stroke-width="2.73"/><line y1="168.07" x2="2786.4" y2="168.07" fill="none" stroke="#000" stroke-linejoin="bevel" stroke-width="2.73"/><line x1="1439.46" y1="67.51" x2="1439.46" y2="169.43" fill="none" stroke="#000" stroke-linejoin="bevel" stroke-width="4.46"/><line x1="2141.78" y1="67.51" x2="2141.78" y2="169.43" fill="none" stroke="#000" stroke-linejoin="bevel" stroke-width="4.46"/><line x1="2770.53" y1="67.51" x2="2770.53" y2="169.43" fill="none" stroke="#000" stroke-linejoin="bevel" stroke-width="4.46"/><line x1="2784.17" y1="67.51" x2="2784.17" y2="169.43" fill="none" stroke="#000" stroke-linejoin="bevel" stroke-width="4.46"/><line x1="811.92" y1="67.51" x2="811.92" y2="169.43" fill="none" stroke="#000" stroke-linejoin="bevel" stroke-width="4.46"/><line x1="135.9" y1="192.87" x2="184.5" y2="192.87" fill="none" stroke="#000" stroke-linejoin="bevel" stroke-width="3.97"/><line x1="2547.45" y1="192.87" x2="2596.05" y2="192.87" fill="none" stroke="#000" stroke-linejoin="bevel" stroke-width="3.97"/><line x1="2602.25" y1="192.87" x2="2650.85" y2="192.87" fill="none" stroke="#000" stroke-linejoin="bevel" stroke-width="3.97"/><line x1="2657.05" y1="192.87" x2="2705.65" y2="192.87" fill="none" stroke="#000" stroke-linejoin="bevel" stroke-width="3.97"/><line x1="2439.06" y1="192.87" x2="2487.66" y2="192.87" fill="none" stroke="#000" stroke-linejoin="bevel" stroke-width="3.97"/><line x1="500.26" y1="164.1" x2="500.26" y2="75" fill="none" stroke="#000" stroke-linejoin="bevel" stroke-width="2.48"/><line x1="554.46" y1="151.7" x2="554.46" y2="71.97" fill="none" stroke="#000" stroke-linejoin="bevel" stroke-width="2.48"/><line x1="608.66" y1="139.3" x2="608.66" y2="68.94" fill="none" stroke="#000" stroke-linejoin="bevel" stroke-width="2.48"/><line x1="662.85" y1="151.7" x2="662.85" y2="74.93" fill="none" stroke="#000" stroke-linejoin="bevel" stroke-width="2.48"/><line x1="717.05" y1="139.3" x2="717.05" y2="68.87" fill="none" stroke="#000" stroke-linejoin="bevel" stroke-width="2.48"/><line x1="771.25" y1="126.9" x2="771.25" y2="62.81" fill="none" stroke="#000" stroke-linejoin="bevel" stroke-width="2.48"/><line x1="877.39" y1="139.3" x2="877.39" y2="56.4" fill="none" stroke="#000" stroke-linejoin="bevel" stroke-width="2.48"/><line x1="931.58" y1="126.9" x2="931.58" y2="53.37" fill="none" stroke="#000" stroke-linejoin="bevel" stroke-width="2.48"/><line x1="985.78" y1="114.5" x2="985.78" y2="50.34" fill="none" stroke="#000" stroke-linejoin="bevel" stroke-width="2.48"/><line x1="1010.23" y1="135.04" x2="1010.23" y2="198.93" fill="none" stroke="#000" stroke-linejoin="bevel" stroke-width="2.48"/><line x1="1064.42" y1="122.64" x2="1064.42" y2="192.87" fill="none" stroke="#000" stroke-linejoin="bevel" stroke-width="2.48"/><line x1="1118.62" y1="110.24" x2="1118.62" y2="186.81" fill="none" stroke="#000" stroke-linejoin="bevel" stroke-width="2.48"/><line x1="1172.82" y1="122.64" x2="1172.82" y2="186.6" fill="none" stroke="#000" stroke-linejoin="bevel" stroke-width="2.48"/><line x1="1227.02" y1="110.24" x2="1227.02" y2="183.57" fill="none" stroke="#000" stroke-linejoin="bevel" stroke-width="2.48"/><line x1="1281.22" y1="97.84" x2="1281.22" y2="180.54" fill="none" stroke="#000" stroke-linejoin="bevel" stroke-width="2.48"/><line x1="1335.41" y1="110.24" x2="1335.41" y2="186.67" fill="none" stroke="#000" stroke-linejoin="bevel" stroke-width="2.48"/><line x1="1475.18" y1="110.24" x2="1475.18" y2="186.81" fill="none" stroke="#000" stroke-linejoin="bevel" stroke-width="2.48"/><line x1="1529.37" y1="122.64" x2="1529.37" y2="192.87" fill="none" stroke="#000" stroke-linejoin="bevel" stroke-width="2.48"/><line x1="1583.57" y1="135.04" x2="1583.57" y2="198.93" fill="none" stroke="#000" stroke-linejoin="bevel" stroke-width="2.48"/><line x1="1667.52" y1="114.5" x2="1667.52" y2="50.34" fill="none" stroke="#000" stroke-linejoin="bevel" stroke-width="2.48"/><line x1="1721.72" y1="126.9" x2="1721.72" y2="53.37" fill="none" stroke="#000" stroke-linejoin="bevel" stroke-width="2.48"/><line x1="1775.92" y1="139.3" x2="1775.92" y2="56.4" fill="none" stroke="#000" stroke-linejoin="bevel" stroke-width="2.48"/><line x1="1830.12" y1="126.9" x2="1830.12" y2="62.81" fill="none" stroke="#000" stroke-linejoin="bevel" stroke-width="2.48"/><line x1="1884.31" y1="139.3" x2="1884.31" y2="68.87" fill="none" stroke="#000" stroke-linejoin="bevel" stroke-width="2.48"/><line x1="1938.51" y1="151.7" x2="1938.51" y2="74.93" fill="none" stroke="#000" stroke-linejoin="bevel" stroke-width="2.48"/><line x1="1992.71" y1="139.3" x2="1992.71" y2="68.94" fill="none" stroke="#000" stroke-linejoin="bevel" stroke-width="2.48"/><line x1="2046.91" y1="151.7" x2="2046.91" y2="71.97" fill="none" stroke="#000" stroke-linejoin="bevel" stroke-width="2.48"/><line x1="2101.11" y1="164.1" x2="2101.11" y2="75" fill="none" stroke="#000" stroke-linejoin="bevel" stroke-width="2.48"/><line x1="2207.24" y1="151.7" x2="2207.24" y2="87.61" fill="none" stroke="#000" stroke-linejoin="bevel" stroke-width="2.48"/><line x1="2261.44" y1="164.1" x2="2261.44" y2="93.67" fill="none" stroke="#000" stroke-linejoin="bevel" stroke-width="2.48"/><line x1="2315.64" y1="176.5" x2="2315.64" y2="99.73" fill="none" stroke="#000" stroke-linejoin="bevel" stroke-width="2.48"/><line x1="2369.84" y1="164.1" x2="2369.84" y2="93.74" fill="none" stroke="#000" stroke-linejoin="bevel" stroke-width="2.48"/><line x1="2424.03" y1="176.5" x2="2424.03" y2="96.77" fill="none" stroke="#000" stroke-linejoin="bevel" stroke-width="2.48"/><line x1="2478.23" y1="188.9" x2="2478.23" y2="99.8" fill="none" stroke="#000" stroke-linejoin="bevel" stroke-width="2.48"/><line x1="2532.43" y1="176.5" x2="2532.43" y2="112.41" fill="none" stroke="#000" stroke-linejoin="bevel" stroke-width="2.48"/><line x1="2586.63" y1="188.9" x2="2586.63" y2="118.44" fill="none" stroke="#000" stroke-linejoin="bevel" stroke-width="2.48"/><line x1="2641.43" y1="201.3" x2="2641.43" y2="124.53" fill="none" stroke="#000" stroke-linejoin="bevel" stroke-width="2.48"/><line x1="2696.23" y1="188.9" x2="2696.23" y2="106.07" fill="none" stroke="#000" stroke-linejoin="bevel" stroke-width="2.48"/><line x1="175.07" y1="188.9" x2="175.07" y2="99.8" fill="none" stroke="#000" stroke-linejoin="bevel" stroke-width="2.48"/><line x1="229.27" y1="176.5" x2="229.27" y2="96.77" fill="none" stroke="#000" stroke-linejoin="bevel" stroke-width="2.48"/><line x1="283.47" y1="164.1" x2="283.47" y2="93.74" fill="none" stroke="#000" stroke-linejoin="bevel" stroke-width="2.48"/><line x1="337.67" y1="176.5" x2="337.67" y2="99.73" fill="none" stroke="#000" stroke-linejoin="bevel" stroke-width="2.48"/><line x1="391.87" y1="164.1" x2="391.87" y2="93.67" fill="none" stroke="#000" stroke-linejoin="bevel" stroke-width="2.48"/><line x1="446.06" y1="151.7" x2="446.06" y2="87.61" fill="none" stroke="#000" stroke-linejoin="bevel" stroke-width="2.48"/><path d="M1853.32,147.44c0,4.26,3.07,9.02,11.11,9.02,10.31,0,21.13-8.43,21.13-17.16,0-5.86-4.96-9.13-11.11-9.13-9.63,0-21.13,8.14-21.13,17.27"/><path d="M1907.52,159.84c0,4.26,3.07,9.02,11.11,9.02,10.31,0,21.13-8.43,21.13-17.16,0-5.86-4.96-9.13-11.11-9.13-9.63,0-21.13,8.14-21.13,17.27"/><path d="M1961.72,147.44c0,4.26,3.07,9.02,11.11,9.02,10.31,0,21.13-8.43,21.13-17.16,0-5.86-4.96-9.13-11.11-9.13-9.63,0-21.13,8.14-21.13,17.27"/><path d="M2015.92,159.84c0,4.26,3.07,9.02,11.11,9.02,10.31,0,21.13-8.43,21.13-17.16,0-5.86-4.96-9.13-11.11-9.13-9.63,0-21.13,8.14-21.13,17.27"/><path d="M2070.11,172.24c0,4.26,3.07,9.02,11.11,9.02,10.31,0,21.13-8.43,21.13-17.16,0-5.86-4.96-9.13-11.11-9.13-9.63,0-21.13,8.14-21.13,17.27"/><path d="M2176.25,159.84c0,4.26,3.07,9.02,11.11,9.02,10.31,0,21.13-8.43,21.13-17.16,0-5.86-4.96-9.13-11.11-9.13-9.63,0-21.13,8.14-21.13,17.27"/><path d="M2230.45,172.24c0,4.26,3.07,9.02,11.11,9.02,10.31,0,21.13-8.43,21.13-17.16,0-5.86-4.96-9.13-11.11-9.13-9.63,0-21.13,8.14-21.13,17.27"/><path d="M2284.65,184.64c0,4.26,3.07,9.02,11.11,9.02,10.31,0,21.13-8.43,21.13-17.16,0-5.86-4.96-9.13-11.11-9.13-9.63,0-21.13,8.14-21.13,17.27"/><path d="M2338.84,172.24c0,4.26,3.07,9.02,11.11,9.02,10.31,0,21.13-8.43,21.13-17.16,0-5.86-4.96-9.13-11.11-9.13-9.63,0-21.13,8.14-21.13,17.27"/><path d="M2393.04,184.64c0,4.26,3.07,9.02,11.11,9.02,10.31,0,21.13-8.43,21.13-17.16,0-5.86-4.96-9.13-11.11-9.13-9.63,0-21.13,8.14-21.13,17.27"/><path d="M2447.24,197.04c0,4.26,3.07,9.02,11.11,9.02,10.31,0,21.13-8.43,21.13-17.16,0-5.86-4.96-9.13-11.11-9.13-9.63,0-21.13,8.14-21.13,17.27"/><path d="M2501.44,184.64c0,4.26,3.07,9.02,11.11,9.02,10.31,0,21.13-8.43,21.13-17.16,0-5.86-4.96-9.13-11.11-9.13-9.63,0-21.13,8.14-21.13,17.27"/><path d="M2555.64,197.04c0,4.26,3.07,9.02,11.11,9.02,10.31,0,21.13-8.43,21.13-17.16,0-5.86-4.96-9.13-11.11-9.13-9.63,0-21.13,8.14-21.13,17.27"/><path d="M2610.44,209.44c0,4.26,3.07,9.02,11.11,9.02,10.31,0,21.13-8.43,21.13-17.16,0-5.86-4.96-9.13-11.11-9.13-9.63,0-21.13,8.14-21.13,17.27"/><path d="M2665.24,197.04c0,4.26,3.07,9.02,11.11,9.02,10.31,0,21.13-8.43,21.13-17.16,0-5.86-4.96-9.13-11.11-9.13-9.63,0-21.13,8.14-21.13,17.27"/><path d="M1582.33,135.04c0,4.26,3.07,9.02,11.11,9.02,10.31,0,21.13-8.43,21.13-17.16,0-5.86-4.96-9.13-11.11-9.13-9.63,0-21.13,8.14-21.13,17.27"/><path d="M144.08,197.04c0,4.26,3.07,9.02,11.11,9.02,10.31,0,21.13-8.43,21.13-17.16,0-5.86-4.96-9.13-11.11-9.13-9.63,0-21.13,8.14-21.13,17.27"/><path d="M198.28,184.64c0,4.26,3.07,9.02,11.11,9.02,10.31,0,21.13-8.43,21.13-17.16,0-5.86-4.96-9.13-11.11-9.13-9.63,0-21.13,8.14-21.13,17.27"/><path d="M252.48,172.24c0,4.26,3.07,9.02,11.11,9.02,10.31,0,21.13-8.43,21.13-17.16,0-5.86-4.96-9.13-11.11-9.13-9.63,0-21.13,8.14-21.13,17.27"/><path d="M306.68,184.64c0,4.26,3.07,9.02,11.11,9.02,10.31,0,21.13-8.43,21.13-17.16,0-5.86-4.96-9.13-11.11-9.13-9.63,0-21.13,8.14-21.13,17.27"/><path d="M360.87,172.24c0,4.26,3.07,9.02,11.11,9.02,10.31,0,21.13-8.43,21.13-17.16,0-5.86-4.96-9.13-11.11-9.13-9.63,0-21.13,8.14-21.13,17.27"/><path d="M415.07,159.84c0,4.26,3.07,9.02,11.11,9.02,10.31,0,21.13-8.43,21.13-17.16,0-5.86-4.96-9.13-11.11-9.13-9.63,0-21.13,8.14-21.13,17.27"/><path d="M469.27,172.24c0,4.26,3.07,9.02,11.11,9.02,10.31,0,21.13-8.43,21.13-17.16,0-5.86-4.96-9.13-11.11-9.13-9.63,0-21.13,8.14-21.13,17.27"/><path d="M523.47,159.84c0,4.26,3.07,9.02,11.11,9.02,10.31,0,21.13-8.43,21.13-17.16,0-5.86-4.96-9.13-11.11-9.13-9.63,0-21.13,8.14-21.13,17.27"/><path d="M577.66,147.44c0,4.26,3.07,9.02,11.11,9.02,10.31,0,21.13-8.43,21.13-17.16,0-5.86-4.96-9.13-11.11-9.13-9.63,0-21.13,8.14-21.13,17.27"/><path d="M631.86,159.84c0,4.26,3.07,9.02,11.11,9.02,10.31,0,21.13-8.43,21.13-17.16,0-5.86-4.96-9.13-11.11-9.13-9.63,0-21.13,8.14-21.13,17.27"/><path d="M686.06,147.44c0,4.26,3.07,9.02,11.11,9.02,10.31,0,21.13-8.43,21.13-17.16,0-5.86-4.96-9.13-11.11-9.13-9.63,0-21.13,8.14-21.13,17.27"/><path d="M740.26,135.04c0,4.26,3.07,9.02,11.11,9.02,10.31,0,21.13-8.43,21.13-17.16,0-5.86-4.96-9.13-11.11-9.13-9.63,0-21.13,8.14-21.13,17.27"/><path d="M846.39,147.44c0,4.26,3.07,9.02,11.11,9.02,10.31,0,21.13-8.43,21.13-17.16,0-5.86-4.96-9.13-11.11-9.13-9.63,0-21.13,8.14-21.13,17.27"/><path d="M900.59,135.04c0,4.26,3.07,9.02,11.11,9.02,10.31,0,21.13-8.43,21.13-17.16,0-5.86-4.96-9.13-11.11-9.13-9.63,0-21.13,8.14-21.13,17.27"/><path d="M954.79,122.64c0,4.26,3.07,9.02,11.11,9.02,10.31,0,21.13-8.43,21.13-17.16,0-5.86-4.96-9.13-11.11-9.13-9.63,0-21.13,8.14-21.13,17.27"/><path d="M1008.99,135.04c0,4.26,3.07,9.02,11.11,9.02,10.31,0,21.13-8.43,21.13-17.16,0-5.86-4.96-9.13-11.11-9.13-9.63,0-21.13,8.14-21.13,17.27"/><path d="M1063.18,122.64c0,4.26,3.07,9.02,11.11,9.02,10.31,0,21.13-8.43,21.13-17.16,0-5.86-4.96-9.13-11.11-9.13-9.63,0-21.13,8.14-21.13,17.27"/><path d="M1117.38,110.24c0,4.26,3.07,9.02,11.11,9.02,10.31,0,21.13-8.43,21.13-17.16,0-5.86-4.96-9.13-11.11-9.13-9.63,0-21.13,8.14-21.13,17.27"/><path d="M1171.58,122.64c0,4.26,3.07,9.02,11.11,9.02,10.31,0,21.13-8.43,21.13-17.16,0-5.86-4.96-9.13-11.11-9.13-9.63,0-21.13,8.14-21.13,17.27"/><path d="M1225.78,110.24c0,4.26,3.07,9.02,11.11,9.02,10.31,0,21.13-8.43,21.13-17.16,0-5.86-4.96-9.13-11.11-9.13-9.63,0-21.13,8.14-21.13,17.27"/><path d="M1279.98,97.84c0,4.26,3.07,9.02,11.11,9.02,10.31,0,21.13-8.43,21.13-17.16,0-5.86-4.96-9.13-11.11-9.13-9.63,0-21.13,8.14-21.13,17.27"/><path d="M1334.17,110.24c0,4.26,3.07,9.02,11.11,9.02,10.31,0,21.13-8.43,21.13-17.16,0-5.86-4.96-9.13-11.11-9.13-9.63,0-21.13,8.14-21.13,17.27"/><path d="M1473.94,110.24c0,4.26,3.07,9.02,11.11,9.02,10.31,0,21.13-8.43,21.13-17.16,0-5.86-4.96-9.13-11.11-9.13-9.63,0-21.13,8.14-21.13,17.27"/><path d="M1528.13,122.64c0,4.26,3.07,9.02,11.11,9.02,10.31,0,21.13-8.43,21.13-17.16,0-5.86-4.96-9.13-11.11-9.13-9.63,0-21.13,8.14-21.13,17.27"/><path d="M1636.53,122.64c0,4.26,3.07,9.02,11.11,9.02,10.31,0,21.13-8.43,21.13-17.16,0-5.86-4.96-9.13-11.11-9.13-9.63,0-21.13,8.14-21.13,17.27"/><path d="M1690.73,135.04c0,4.26,3.07,9.02,11.11,9.02,10.31,0,21.13-8.43,21.13-17.16,0-5.86-4.96-9.13-11.11-9.13-9.63,0-21.13,8.14-21.13,17.27"/><path d="M1744.93,147.44c0,4.26,3.07,9.02,11.11,9.02,10.31,0,21.13-8.43,21.13-17.16,0-5.86-4.96-9.13-11.11-9.13-9.63,0-21.13,8.14-21.13,17.27"/><path d="M1799.12,135.04c0,4.26,3.07,9.02,11.11,9.02,10.31,0,21.13-8.43,21.13-17.16,0-5.86-4.96-9.13-11.11-9.13-9.63,0-21.13,8.14-21.13,17.27"/><path d="M30.8,194.16c0,6.56,4.96,15.19,18.35,15.19,4.67,0,8.74-1.19,12.31-3.38,5.36-3.77,6.74-10.32,6.74-16.57,0-3.86-.59-8.32-1.58-13.98-.29-1.98-.9-4.96-1.49-8.84,9.72-3.18,16.96-13.3,16.96-23.51,0-14.97-10.62-25.09-25.09-25.09-.99-5.95-1.98-11.81-2.77-17.36,10.42-11.02,17.65-23.42,17.65-39.18,0-9.04-2.77-16.37-4.37-19.95-2.37-5.05-5.25-8.53-7.04-8.53-.7,0-3.77,1.19-7.04,5.05-6.36,7.55-8.14,20.24-8.14,28.57,0,5.36,.5,10.23,2.19,21.34-.11,.09-5.27,5.35-7.35,7.04-9.04,8.34-21.53,20.43-21.53,40.28,0,18.54,16.17,33.12,34.63,33.12,2.87,0,5.55-.29,7.83-.7,1.89,9.53,3.08,16.48,3.08,21.73,0,10.32-5.36,15.78-15.38,15.78-2.39,0-4.46-.5-4.67-.5-.09-.11-.29-.2-.29-.29,0-.2,.2-.31,.5-.31,4.67-.79,9.32-4.76,9.32-11.1,0-5.36-4.06-11.02-11.5-11.02-6.94,0-11.31,5.66-11.31,12.2M51.54,61.73c.9-3.97,5.46-14.38,10.62-14.38,1.49,0,3.86,4.76,3.86,11.7,0,10.32-7.63,18.06-14.48,24.8-.59-3.97-1.08-7.83-1.08-12,0-3.67,.29-7.05,1.08-10.12m8.73,101.97c-1.98,.4-3.86,.6-5.75,.6-14.18,0-26.29-9.92-26.29-24.91,0-12.09,8.53-22.91,17.27-30.46,1.67-1.49,3.27-2.87,4.76-4.36,.88,5.35,1.58,10.01,2.28,14.09-9.04,2.68-15.17,12.2-15.17,21.53,0,6.94,5.46,16.46,13.39,16.46,.79,0,1.69-.4,1.69-1.29s-.99-1.39-2.19-2.19c-3.88-2.39-6.06-4.96-6.06-9.83,0-6.05,4.57-10.91,10.32-12.29l5.75,32.63m14.09-18.35c0,7.05-2.88,14.29-9.92,17.17-2.08-11.9-4.76-27.68-5.46-32.05,8.93,0,15.38,6.06,15.38,14.88"/><path d="M2704.08,30.68c-9.32-10.12-17.56-10.71-22.71-10.71s-13.3,.59-22.63,10.71c-4.85,5.36-8.23,15.97-8.23,21.33,0,1.89,.4,3.18,1.4,3.18,2.77,0,1.38-8.54,9.72-16.97,7.33-7.33,17.16-7.44,19.55-7.44h.39c2.39,0,12.21,.11,19.55,7.44,8.34,8.43,6.94,16.97,9.72,16.97,.99,0,1.39-1.19,1.39-3.18,0-5.36-3.27-16.07-8.14-21.33m-29.56,18.94c0,3.78,3.07,6.85,6.85,6.85s6.84-3.07,6.84-6.85-3.07-6.84-6.84-6.84-6.85,3.07-6.85,6.84"/><path d="M152.85,243.13c-2.03,3.3-2.91,4.2-4.06,4.2-.55,0-.88-.36-.88-.98,0-.45,.19-1.27,.53-2.49l6.23-21-6.97,.54-.14,1.25h1.08c1.44,0,2,.31,2,1.09,0,.34-.11,.8-.31,1.53l-2.31,7.78c-.62-1.83-2-2.84-4.02-2.84-5.05,0-9.73,5.39-9.73,11.2,0,3.44,2.2,5.78,5.48,5.78,2.39,0,4.14-.98,5.67-3.26-.03,.28-.03,.64-.03,.78,0,1.61,.84,2.48,2.38,2.48,2.22,0,4.14-1.72,6.12-5.43l-1.05-.63m-8.75-9.34c1.72,0,2.98,1.32,2.98,3.15,0,3.17-2.25,10.6-6.31,10.6-1.89,0-3.11-1.5-3.11-3.78,0-3.32,2.38-9.97,6.44-9.97m19.7-7.68c-.94,0-1.7,.79-1.7,1.72s.77,1.72,1.7,1.72,1.72-.76,1.72-1.72-.77-1.72-1.72-1.72m7.08,0c-.95,0-1.72,.79-1.72,1.72s.76,1.72,1.72,1.72,1.72-.76,1.72-1.72-.78-1.72-1.72-1.72m2.09,6.63h-3.05l-1.64,5.59c-1.44,4.88-4.66,8.86-7.14,8.86-.84,0-1.5-.67-1.5-1.5,0-.47,.09-1.01,.38-2l3.44-11.48-6.75,.53-.11,1.25h.84c1.42,0,1.95,.33,1.95,1.12,0,.35-.11,.85-.28,1.5l-1.39,4.74q-1.09,3.5-1.09,4.58c0,1.92,1.33,3.22,3.33,3.22,2.45,0,4.44-1.43,6.52-4.66-.36,1.23-.42,1.72-.42,2.39,0,1.36,.94,2.31,2.24,2.31,2.14,0,3.86-1.43,6.34-5.25l-1.06-.64c-1.7,2.56-3.08,3.96-3.84,3.96-.31,0-.62-.38-.62-.83,0-.39,.14-1.07,.41-2.08l3.47-11.61"/><path d="M204.73,233.54c.56-.49,.88-.66,1.3-.66,.34,0,.62,.17,.91,.55,.56,.78,.76,.92,1.33,.92,.81,0,1.41-.67,1.41-1.55,0-1.01-.98-1.81-2.2-1.81s-2.17,.45-4,1.89c-1.08-.5-1.89-.67-3.02-.67-3.88,0-7.17,2.76-7.17,5.98,0,1.69,.67,2.85,2.17,3.64-1.61,.22-2.34,.46-3.16,1.16-.69,.56-1.14,1.5-1.14,2.34,0,1.19,.55,1.93,1.92,2.6-2.06,.45-4.48,1.33-4.48,3.89,0,3.5,4.62,3.92,7.17,3.92,3.47,0,5.47-.42,7.19-1.55,1.5-.98,2.38-2.48,2.38-4.12,0-3.55-3.75-3.97-6.44-4.14-3.12-.17-3.36-.21-3.86-.32-.88-.2-1.3-.62-1.3-1.21,0-.85,.84-1.41,2.11-1.41,.45,0,.97,.03,1.44,.11,1.42,.2,1.64,.23,2.52,.23,1.95,0,3.5-.48,4.72-1.47,1.41-1.07,2.28-2.82,2.28-4.43s-.7-2.91-2.06-3.89m-4.03,0c1.83,0,2.99,1.09,2.99,2.79,0,2.53-1.16,5.72-4.14,5.72-1.89,0-3.08-1.2-3.08-3.15,0-3.16,1.72-5.36,4.23-5.36m-4.26,15.01c1.58,0,4.09,.36,4.89,.67,.88,.38,1.3,.99,1.3,1.86,0,2.07-2.2,3.18-6.22,3.18-3.41,0-4.98-.83-4.98-2.69s1.83-3.02,5.02-3.02m22.56-22.44c-.94,0-1.7,.79-1.7,1.72s.77,1.72,1.7,1.72,1.72-.76,1.72-1.72-.77-1.72-1.72-1.72m7.08,0c-.95,0-1.72,.79-1.72,1.72s.76,1.72,1.72,1.72,1.72-.76,1.72-1.72-.78-1.72-1.72-1.72m2.09,6.63h-3.05l-1.64,5.59c-1.44,4.88-4.66,8.86-7.14,8.86-.84,0-1.5-.67-1.5-1.5,0-.47,.09-1.01,.38-2l3.44-11.48-6.75,.53-.11,1.25h.84c1.42,0,1.95,.33,1.95,1.12,0,.35-.11,.85-.28,1.5l-1.39,4.74q-1.09,3.5-1.09,4.58c0,1.92,1.33,3.22,3.33,3.22,2.45,0,4.44-1.43,6.52-4.66-.36,1.23-.42,1.72-.42,2.39,0,1.36,.94,2.31,2.24,2.31,2.14,0,3.86-1.43,6.34-5.25l-1.06-.64c-1.7,2.56-3.08,3.96-3.84,3.96-.31,0-.62-.38-.62-.83,0-.39,.14-1.07,.41-2.08l3.47-11.61"/><path d="M315.44,243.13c-2.03,3.3-2.91,4.2-4.06,4.2-.55,0-.88-.36-.88-.98,0-.45,.19-1.27,.53-2.49l6.23-21-6.97,.54-.14,1.25h1.08c1.44,0,2,.31,2,1.09,0,.34-.11,.8-.31,1.53l-2.31,7.78c-.62-1.83-2-2.84-4.02-2.84-5.05,0-9.73,5.39-9.73,11.2,0,3.44,2.2,5.78,5.48,5.78,2.39,0,4.14-.98,5.67-3.26-.03,.28-.03,.64-.03,.78,0,1.61,.84,2.48,2.38,2.48,2.22,0,4.14-1.72,6.12-5.43l-1.05-.63m-8.75-9.34c1.72,0,2.99,1.32,2.99,3.15,0,3.17-2.25,10.6-6.31,10.6-1.89,0-3.11-1.5-3.11-3.78,0-3.32,2.38-9.97,6.44-9.97m19.7-7.68c-.94,0-1.7,.79-1.7,1.72s.77,1.72,1.7,1.72,1.72-.76,1.72-1.72-.77-1.72-1.72-1.72m7.08,0c-.95,0-1.72,.79-1.72,1.72s.76,1.72,1.72,1.72,1.72-.76,1.72-1.72-.78-1.72-1.72-1.72m2.09,6.63h-3.05l-1.64,5.59c-1.44,4.88-4.66,8.86-7.14,8.86-.84,0-1.5-.67-1.5-1.5,0-.47,.09-1.01,.38-2l3.44-11.48-6.75,.53-.11,1.25h.84c1.42,0,1.95,.33,1.95,1.12,0,.35-.11,.85-.28,1.5l-1.39,4.74q-1.09,3.5-1.09,4.58c0,1.92,1.33,3.22,3.33,3.22,2.45,0,4.44-1.43,6.51-4.66-.36,1.23-.42,1.72-.42,2.39,0,1.36,.94,2.31,2.24,2.31,2.14,0,3.86-1.43,6.34-5.25l-1.06-.64c-1.7,2.56-3.08,3.96-3.84,3.96-.31,0-.62-.38-.62-.83,0-.39,.14-1.07,.41-2.08l3.47-11.61"/><path d="M468.89,232.21c-3.69,0-6.34,2.23-6.34,5.28,0,1.52,.88,2.77,2.42,3.58,.56,.28,1.25,.59,2.72,1.19,2,.81,2.5,1.29,2.5,2.51,0,1.89-1.58,3.08-4,3.08-1.78,0-3.05-.49-3.05-1.19,0-.17,.11-.37,.25-.51,.66-.71,.74-.88,.74-1.52,0-.97-.77-1.75-1.78-1.75-1.16,0-2.03,.98-2.03,2.34,0,2.46,2.17,3.97,5.7,3.97,4.03,0,6.8-2.22,6.8-5.39,0-1.4-.64-2.59-1.75-3.36-.78-.53-1.12-.67-3.05-1.37-2.28-.8-2.88-1.36-2.88-2.74,0-1.61,1.53-2.79,3.56-2.79,1.38,0,2.28,.39,2.28,.95,0,.14-.06,.31-.17,.48-.5,.71-.56,.88-.56,1.41,0,.94,.73,1.61,1.81,1.61,1.2,0,2-.88,2-2.14,0-2.14-2.12-3.64-5.17-3.64m14.91-8.55c-1.05,0-1.89,.85-1.89,1.89s.84,1.89,1.86,1.89c1.08,0,1.92-.83,1.92-1.89s-.84-1.89-1.89-1.89m.62,8.55l-6.72,.53-.14,1.25h.84c1.44,0,2,.33,2,1.09,0,.35-.08,.74-.31,1.53l-2.03,6.83c-.67,2.25-.78,2.74-.78,3.53,0,1.24,1.06,2.18,2.39,2.18,3,0,5.08-3.11,6.55-5.39l-1.09-.6c-1.81,2.77-3.28,4.24-4.24,4.24-.34,0-.59-.32-.59-.74,0-.34,.14-.97,.42-1.95l3.7-12.5m11.97,0l-6.36,.53-.11,1.25h.84c1.39,0,1.95,.33,1.95,1.12,0,.32-.11,.85-.28,1.5l-3.56,12.05h3.05l1.42-4.94c1.58-5.36,4.76-9.4,7.39-9.4,.91,0,1.47,.48,1.47,1.36,0,.7-.28,2.17-.7,3.5l-2.8,9.48h3.05l1.5-5.08c.88-2.9,1.75-4.86,2.88-6.37,1.26-1.75,3.05-2.89,4.38-2.89,.88,0,1.36,.45,1.36,1.28,0,.5-.17,1.26-.48,2.25l-1.61,4.97c-.94,2.73-.98,2.94-.98,3.92,0,1.47,1.09,2.45,2.73,2.45,1.16,0,2.28-.56,3.47-1.68,.74-.71,1.22-1.33,2.66-3.43l-1.08-.75c-1.83,2.74-3.12,4.07-4.03,4.07-.39,0-.73-.38-.73-.88,0-.31,.11-.69,.42-1.7l2.2-6.8c.25-.76,.42-1.86,.42-2.62,0-1.86-1.38-3.19-3.25-3.19-2.5,0-4.74,1.61-6.77,4.94,.14-.68,.22-1.27,.22-1.69,0-1.85-1.47-3.25-3.41-3.25-2.2,0-3.81,1.22-6.26,4.73l1.01-4.73m25.72,12.64c-1.19,0-2.17,.98-2.17,2.17s.99,2.17,2.14,2.17c1.25,0,2.2-.95,2.2-2.17s-.98-2.17-2.17-2.17"/><path d="M261.24,243.13c-2.03,3.3-2.91,4.2-4.06,4.2-.55,0-.88-.36-.88-.98,0-.45,.19-1.27,.53-2.49l6.23-21-6.97,.54-.14,1.25h1.08c1.44,0,2,.31,2,1.09,0,.34-.11,.8-.31,1.53l-2.31,7.78c-.62-1.83-2-2.84-4.02-2.84-5.05,0-9.73,5.39-9.73,11.2,0,3.44,2.2,5.78,5.48,5.78,2.39,0,4.14-.98,5.67-3.26-.03,.28-.03,.64-.03,.78,0,1.61,.84,2.48,2.38,2.48,2.22,0,4.14-1.72,6.12-5.43l-1.05-.63m-8.75-9.34c1.72,0,2.98,1.32,2.98,3.15,0,3.17-2.25,10.6-6.31,10.6-1.89,0-3.11-1.5-3.11-3.78,0-3.32,2.38-9.97,6.44-9.97m19.7-7.68c-.94,0-1.7,.79-1.7,1.72s.77,1.72,1.7,1.72,1.72-.76,1.72-1.72-.77-1.72-1.72-1.72m7.08,0c-.95,0-1.72,.79-1.72,1.72s.77,1.72,1.72,1.72,1.72-.76,1.72-1.72-.78-1.72-1.72-1.72m2.09,6.63h-3.05l-1.64,5.59c-1.44,4.88-4.66,8.86-7.14,8.86-.84,0-1.5-.67-1.5-1.5,0-.47,.09-1.01,.38-2l3.44-11.48-6.75,.53-.11,1.25h.84c1.42,0,1.95,.33,1.95,1.12,0,.35-.11,.85-.28,1.5l-1.39,4.74q-1.09,3.5-1.09,4.58c0,1.92,1.33,3.22,3.33,3.22,2.45,0,4.44-1.43,6.52-4.66-.36,1.23-.42,1.72-.42,2.39,0,1.36,.94,2.31,2.23,2.31,2.14,0,3.86-1.43,6.34-5.25l-1.06-.64c-1.7,2.56-3.08,3.96-3.84,3.96-.31,0-.62-.38-.62-.83,0-.39,.14-1.07,.41-2.08l3.47-11.61"/><path d="M367.33,233.54c.56-.49,.88-.66,1.3-.66,.34,0,.62,.17,.91,.55,.56,.78,.76,.92,1.33,.92,.81,0,1.41-.67,1.41-1.55,0-1.01-.98-1.81-2.2-1.81s-2.17,.45-4,1.89c-1.08-.5-1.89-.67-3.02-.67-3.88,0-7.17,2.76-7.17,5.98,0,1.69,.67,2.85,2.17,3.64-1.61,.22-2.34,.46-3.16,1.16-.69,.56-1.14,1.5-1.14,2.34,0,1.19,.55,1.93,1.92,2.6-2.06,.45-4.48,1.33-4.48,3.89,0,3.5,4.62,3.92,7.17,3.92,3.47,0,5.47-.42,7.19-1.55,1.5-.98,2.38-2.48,2.38-4.12,0-3.55-3.75-3.97-6.44-4.14-3.12-.17-3.36-.21-3.86-.32-.88-.2-1.3-.62-1.3-1.21,0-.85,.84-1.41,2.11-1.41,.45,0,.97,.03,1.44,.11,1.42,.2,1.64,.23,2.52,.23,1.95,0,3.5-.48,4.72-1.47,1.41-1.07,2.28-2.82,2.28-4.43s-.7-2.91-2.06-3.89m-4.03,0c1.83,0,2.99,1.09,2.99,2.79,0,2.53-1.16,5.72-4.14,5.72-1.89,0-3.08-1.2-3.08-3.15,0-3.16,1.72-5.36,4.23-5.36m-4.26,15.01c1.58,0,4.09,.36,4.89,.67,.88,.38,1.3,.99,1.3,1.86,0,2.07-2.2,3.18-6.22,3.18-3.41,0-4.98-.83-4.98-2.69s1.83-3.02,5.02-3.02m22.56-22.44c-.94,0-1.7,.79-1.7,1.72s.77,1.72,1.7,1.72,1.72-.76,1.72-1.72-.77-1.72-1.72-1.72m7.08,0c-.95,0-1.72,.79-1.72,1.72s.76,1.72,1.72,1.72,1.72-.76,1.72-1.72-.78-1.72-1.72-1.72m2.09,6.63h-3.05l-1.64,5.59c-1.44,4.88-4.66,8.86-7.14,8.86-.84,0-1.5-.67-1.5-1.5,0-.47,.09-1.01,.38-2l3.44-11.48-6.75,.53-.11,1.25h.84c1.42,0,1.95,.33,1.95,1.12,0,.35-.11,.85-.28,1.5l-1.39,4.74q-1.09,3.5-1.09,4.58c0,1.92,1.33,3.22,3.33,3.22,2.45,0,4.44-1.43,6.52-4.66-.36,1.23-.42,1.72-.42,2.39,0,1.36,.94,2.31,2.24,2.31,2.14,0,3.86-1.43,6.34-5.25l-1.06-.64c-1.7,2.56-3.08,3.96-3.84,3.96-.31,0-.62-.38-.62-.83,0-.39,.14-1.07,.41-2.08l3.47-11.61"/><path d="M423.84,243.13c-2.03,3.3-2.91,4.2-4.06,4.2-.55,0-.88-.36-.88-.98,0-.45,.19-1.27,.53-2.49l6.23-21-6.97,.54-.14,1.25h1.08c1.44,0,2,.31,2,1.09,0,.34-.11,.8-.31,1.53l-2.31,7.78c-.62-1.83-2-2.84-4.02-2.84-5.05,0-9.73,5.39-9.73,11.2,0,3.44,2.2,5.78,5.48,5.78,2.39,0,4.14-.98,5.67-3.26-.03,.28-.03,.64-.03,.78,0,1.61,.84,2.48,2.38,2.48,2.22,0,4.14-1.72,6.12-5.43l-1.05-.63m-8.75-9.34c1.72,0,2.98,1.32,2.98,3.15,0,3.17-2.25,10.6-6.31,10.6-1.89,0-3.11-1.5-3.11-3.78,0-3.32,2.38-9.97,6.44-9.97m19.7-7.68c-.94,0-1.7,.79-1.7,1.72s.77,1.72,1.7,1.72,1.72-.76,1.72-1.72-.77-1.72-1.72-1.72m7.08,0c-.95,0-1.72,.79-1.72,1.72s.76,1.72,1.72,1.72,1.72-.76,1.72-1.72-.78-1.72-1.72-1.72m2.09,6.63h-3.05l-1.64,5.59c-1.44,4.88-4.66,8.86-7.14,8.86-.84,0-1.5-.67-1.5-1.5,0-.47,.09-1.01,.38-2l3.44-11.48-6.75,.53-.11,1.25h.84c1.42,0,1.95,.33,1.95,1.12,0,.35-.11,.85-.28,1.5l-1.39,4.74q-1.09,3.5-1.09,4.58c0,1.92,1.33,3.22,3.33,3.22,2.45,0,4.44-1.43,6.52-4.66-.36,1.23-.42,1.72-.42,2.39,0,1.36,.94,2.31,2.24,2.31,2.14,0,3.86-1.43,6.34-5.25l-1.06-.64c-1.7,2.56-3.08,3.96-3.84,3.96-.31,0-.62-.38-.62-.83,0-.39,.14-1.07,.41-2.08l3.47-11.61"/><path d="M2531.19,106.03l111.48,12.4v12.48l-111.48-12.4v-12.48" fill-rule="evenodd"/><path d="M2368.6,87.46l110.87,6.2v12.42l-110.87-6.2v-12.42" fill-rule="evenodd"/><path d="M2206,81.23l110.88,12.4v12.48l-110.88-12.4v-12.48" fill-rule="evenodd"/><path d="M1991.47,62.66l110.88,6.2v12.42l-110.88-6.2v-12.42" fill-rule="evenodd"/><path d="M1828.88,56.43l110.87,12.4v12.48l-110.87-12.4v-12.48" fill-rule="evenodd"/><path d="M1666.28,44.06l110.88,6.2v12.42l-110.88-6.2v-12.42" fill-rule="evenodd"/><path d="M1473.94,180.43l110.87,12.4v12.48l-110.87-12.4v-12.48" fill-rule="evenodd"/><path d="M1171.58,180.46l110.88-6.2v12.42l-110.88,6.2v-12.42" fill-rule="evenodd"/><path d="M1008.99,192.83l110.87-12.4v12.48l-110.87,12.4v-12.48" fill-rule="evenodd"/><path d="M876.15,50.26l110.87-6.2v12.42l-110.87,6.2v-12.42" fill-rule="evenodd"/><path d="M661.62,68.83l110.88-12.4v12.48l-110.88,12.4v-12.48" fill-rule="evenodd"/><path d="M499.02,68.86l110.88-6.2v12.42l-110.88,6.2v-12.42" fill-rule="evenodd"/><path d="M336.43,93.63l110.88-12.4v12.48l-110.88,12.4v-12.48" fill-rule="evenodd"/><path d="M173.83,93.66l110.88-6.2v12.42l-110.88,6.2v-12.42" fill-rule="evenodd"/><path d="M394.92,37c2.12-.67,2.97-1.05,4.05-1.77,2.12-1.39,3.42-3.86,3.42-6.39,0-4.27-3.42-7.14-8.45-7.14s-9.05,3.05-9.05,6.75c0,1.84,1.12,3.09,2.83,3.09,1.48,0,2.58-1.08,2.58-2.56,0-.77-.24-1.3-.95-2.02-.45-.41-.62-.73-.62-1.05,0-1.08,2.25-2.2,4.36-2.2,3.02,0,4.81,1.67,4.81,4.45,0,4.02-2.83,7.78-5.84,7.78-.14,0-.55-.03-1.03-.08q-1.31-.09-1.58-.09c-1,0-1.53,.45-1.53,1.27,0,.72,.5,1.16,1.3,1.16,.23,0,.55-.03,.91-.08,.62-.14,1.31-.19,1.7-.19,2.12,0,3.56,1.89,3.56,4.69,0,4.86-2.39,9.53-7.83,9.53-2.52,0-4.69-1.25-4.69-2.7,0-.48,.19-.67,.91-.98,1.3-.58,1.84-1.39,1.84-2.61,0-1.58-1.26-2.78-2.88-2.78-1.94,0-3.2,1.52-3.2,3.86,0,4.38,3.33,7.11,8.73,7.11,6.8,0,11.97-4.55,11.97-10.58,0-3.5-2.16-5.48-5.31-6.47"/><path d="M934.64,15.3c2.12-.67,2.97-1.05,4.05-1.77,2.12-1.39,3.42-3.86,3.42-6.39,0-4.27-3.42-7.14-8.45-7.14s-9.05,3.05-9.05,6.75c0,1.84,1.12,3.09,2.83,3.09,1.48,0,2.57-1.08,2.57-2.56,0-.76-.23-1.3-.95-2.01-.45-.41-.62-.74-.62-1.05,0-1.08,2.25-2.2,4.36-2.2,3.01,0,4.81,1.67,4.81,4.45,0,4.02-2.83,7.78-5.85,7.78-.14,0-.54-.03-1.03-.08q-1.31-.09-1.57-.09c-1,0-1.54,.45-1.54,1.27,0,.72,.5,1.16,1.3,1.16,.24,0,.55-.03,.91-.08,.62-.14,1.31-.19,1.7-.19,2.13,0,3.56,1.89,3.56,4.69,0,4.86-2.39,9.53-7.83,9.53-2.51,0-4.68-1.25-4.68-2.7,0-.48,.18-.67,.9-.98,1.3-.58,1.85-1.39,1.85-2.61,0-1.58-1.27-2.78-2.88-2.78-1.94,0-3.2,1.52-3.2,3.86,0,4.38,3.33,7.11,8.73,7.11,6.8,0,11.97-4.55,11.97-10.58,0-3.5-2.15-5.49-5.31-6.47"/><path d="M2049.96,33.9c2.13-.67,2.97-1.05,4.05-1.77,2.13-1.39,3.42-3.86,3.42-6.39,0-4.27-3.42-7.14-8.45-7.14s-9.05,3.05-9.05,6.75c0,1.84,1.13,3.09,2.83,3.09,1.49,0,2.58-1.08,2.58-2.56,0-.77-.23-1.3-.95-2.02-.46-.41-.63-.73-.63-1.05,0-1.08,2.25-2.2,4.36-2.2,3.02,0,4.81,1.67,4.81,4.45,0,4.02-2.82,7.78-5.84,7.78-.14,0-.55-.03-1.03-.08q-1.31-.09-1.58-.09c-1,0-1.53,.45-1.53,1.27,0,.72,.5,1.16,1.3,1.16,.23,0,.54-.03,.9-.08,.63-.14,1.31-.19,1.71-.19,2.12,0,3.56,1.89,3.56,4.69,0,4.86-2.39,9.53-7.83,9.53-2.52,0-4.69-1.25-4.69-2.7,0-.48,.19-.67,.91-.98,1.3-.58,1.84-1.39,1.84-2.61,0-1.58-1.26-2.78-2.87-2.78-1.94,0-3.21,1.52-3.21,3.86,0,4.38,3.33,7.11,8.74,7.11,6.8,0,11.97-4.55,11.97-10.58,0-3.5-2.16-5.48-5.32-6.47"/><path d="M1067.48,230.85c2.13-.67,2.97-1.04,4.05-1.76,2.12-1.39,3.42-3.86,3.42-6.39,0-4.27-3.42-7.14-8.45-7.14s-9.05,3.04-9.05,6.75c0,1.84,1.13,3.09,2.83,3.09,1.48,0,2.58-1.08,2.58-2.56,0-.77-.24-1.3-.96-2.02-.45-.4-.62-.73-.62-1.05,0-1.07,2.25-2.2,4.36-2.2,3.01,0,4.81,1.67,4.81,4.45,0,4.02-2.83,7.79-5.84,7.79-.14,0-.55-.04-1.03-.08q-1.32-.1-1.58-.1c-1,0-1.53,.46-1.53,1.27,0,.72,.5,1.16,1.29,1.16,.24,0,.55-.04,.91-.08,.62-.14,1.31-.19,1.7-.19,2.13,0,3.56,1.89,3.56,4.69,0,4.86-2.39,9.53-7.82,9.53-2.52,0-4.69-1.25-4.69-2.7,0-.49,.19-.68,.91-.99,1.29-.58,1.84-1.39,1.84-2.61,0-1.58-1.27-2.78-2.88-2.78-1.93,0-3.2,1.52-3.2,3.86,0,4.38,3.33,7.11,8.74,7.11,6.79,0,11.96-4.55,11.96-10.58,0-3.5-2.15-5.48-5.31-6.47"/><path d="M1230.08,219.89c2.12-.67,2.96-1.04,4.04-1.76,2.13-1.39,3.42-3.86,3.42-6.39,0-4.27-3.42-7.14-8.45-7.14s-9.05,3.04-9.05,6.75c0,1.84,1.13,3.09,2.83,3.09,1.49,0,2.58-1.08,2.58-2.56,0-.77-.23-1.3-.95-2.02-.46-.4-.63-.73-.63-1.04,0-1.08,2.25-2.21,4.36-2.21,3.02,0,4.81,1.67,4.81,4.46,0,4.01-2.82,7.78-5.84,7.78-.14,0-.55-.03-1.03-.08q-1.31-.09-1.58-.09c-1,0-1.53,.45-1.53,1.26,0,.72,.5,1.16,1.3,1.16,.23,0,.54-.03,.9-.08,.63-.14,1.32-.19,1.71-.19,2.12,0,3.56,1.89,3.56,4.69,0,4.86-2.39,9.53-7.83,9.53-2.52,0-4.69-1.25-4.69-2.7,0-.49,.19-.67,.91-.99,1.3-.58,1.84-1.39,1.84-2.61,0-1.57-1.26-2.78-2.87-2.78-1.94,0-3.21,1.52-3.21,3.86,0,4.38,3.33,7.11,8.74,7.11,6.8,0,11.97-4.55,11.97-10.58,0-3.5-2.16-5.48-5.31-6.47"/><path d="M232.33,37c2.12-.67,2.97-1.05,4.05-1.77,2.12-1.39,3.42-3.86,3.42-6.39,0-4.27-3.42-7.14-8.45-7.14s-9.05,3.05-9.05,6.75c0,1.84,1.12,3.09,2.83,3.09,1.48,0,2.58-1.08,2.58-2.56,0-.77-.23-1.3-.95-2.02-.45-.41-.62-.73-.62-1.05,0-1.08,2.25-2.2,4.36-2.2,3.02,0,4.81,1.67,4.81,4.45,0,4.02-2.83,7.78-5.84,7.78-.14,0-.55-.03-1.03-.08q-1.31-.09-1.58-.09c-1,0-1.53,.45-1.53,1.27,0,.72,.5,1.16,1.3,1.16,.23,0,.55-.03,.91-.08,.62-.14,1.31-.19,1.7-.19,2.12,0,3.56,1.89,3.56,4.69,0,4.86-2.39,9.53-7.83,9.53-2.52,0-4.69-1.25-4.69-2.7,0-.48,.19-.67,.91-.98,1.3-.58,1.84-1.39,1.84-2.61,0-1.58-1.27-2.78-2.88-2.78-1.94,0-3.2,1.52-3.2,3.86,0,4.38,3.33,7.11,8.73,7.11,6.8,0,11.97-4.55,11.97-10.58,0-3.5-2.16-5.48-5.31-6.47"/><path d="M557.52,33.9c2.12-.67,2.97-1.05,4.05-1.77,2.12-1.39,3.42-3.86,3.42-6.39,0-4.27-3.42-7.14-8.45-7.14s-9.05,3.05-9.05,6.75c0,1.84,1.12,3.09,2.83,3.09,1.48,0,2.58-1.08,2.58-2.56,0-.77-.23-1.3-.95-2.02-.45-.41-.62-.73-.62-1.05,0-1.08,2.25-2.2,4.36-2.2,3.02,0,4.81,1.67,4.81,4.45,0,4.02-2.83,7.78-5.84,7.78-.14,0-.55-.03-1.03-.08q-1.31-.09-1.58-.09c-1,0-1.53,.45-1.53,1.27,0,.72,.5,1.16,1.3,1.16,.23,0,.55-.03,.91-.08,.62-.14,1.31-.19,1.7-.19,2.12,0,3.56,1.89,3.56,4.69,0,4.86-2.39,9.53-7.83,9.53-2.52,0-4.69-1.25-4.69-2.7,0-.48,.19-.67,.91-.98,1.3-.58,1.84-1.39,1.84-2.61,0-1.58-1.27-2.78-2.88-2.78-1.94,0-3.2,1.52-3.2,3.86,0,4.38,3.33,7.11,8.73,7.11,6.8,0,11.97-4.55,11.97-10.58,0-3.5-2.16-5.48-5.31-6.47"/><path d="M2264.5,37c2.12-.67,2.97-1.05,4.04-1.77,2.13-1.39,3.43-3.86,3.43-6.39,0-4.27-3.43-7.14-8.46-7.14s-9.04,3.05-9.04,6.75c0,1.84,1.12,3.09,2.82,3.09,1.49,0,2.58-1.08,2.58-2.56,0-.77-.23-1.3-.95-2.02-.45-.41-.63-.73-.63-1.05,0-1.08,2.25-2.2,4.36-2.2,3.02,0,4.82,1.67,4.82,4.45,0,4.02-2.83,7.78-5.85,7.78-.14,0-.54-.03-1.03-.08q-1.31-.09-1.58-.09c-1,0-1.53,.45-1.53,1.27,0,.72,.5,1.16,1.3,1.16,.23,0,.55-.03,.9-.08,.63-.14,1.32-.19,1.71-.19,2.12,0,3.56,1.89,3.56,4.69,0,4.86-2.39,9.53-7.83,9.53-2.51,0-4.69-1.25-4.69-2.7,0-.48,.19-.67,.91-.98,1.3-.58,1.84-1.39,1.84-2.61,0-1.58-1.26-2.78-2.87-2.78-1.94,0-3.2,1.52-3.2,3.86,0,4.38,3.32,7.11,8.73,7.11,6.8,0,11.97-4.55,11.97-10.58,0-3.5-2.16-5.48-5.31-6.47"/><path d="M720.11,30.8c2.12-.67,2.97-1.05,4.05-1.77,2.12-1.39,3.42-3.86,3.42-6.39,0-4.27-3.42-7.14-8.45-7.14s-9.05,3.05-9.05,6.75c0,1.84,1.12,3.09,2.83,3.09,1.48,0,2.58-1.08,2.58-2.56,0-.76-.23-1.3-.95-2.01-.45-.41-.62-.74-.62-1.05,0-1.08,2.25-2.2,4.36-2.2,3.02,0,4.81,1.67,4.81,4.45,0,4.02-2.83,7.78-5.84,7.78-.14,0-.55-.03-1.03-.08q-1.31-.09-1.58-.09c-1,0-1.53,.45-1.53,1.27,0,.72,.5,1.16,1.3,1.16,.23,0,.55-.03,.91-.08,.62-.14,1.31-.19,1.7-.19,2.12,0,3.56,1.89,3.56,4.69,0,4.86-2.39,9.53-7.83,9.53-2.52,0-4.69-1.25-4.69-2.7,0-.48,.19-.67,.91-.98,1.3-.58,1.84-1.39,1.84-2.61,0-1.58-1.27-2.78-2.88-2.78-1.94,0-3.2,1.52-3.2,3.86,0,4.38,3.33,7.11,8.73,7.11,6.8,0,11.97-4.55,11.97-10.58,0-3.5-2.16-5.49-5.31-6.47"/><path d="M1532.43,229.19c2.13-.67,2.97-1.04,4.05-1.76,2.12-1.39,3.42-3.86,3.42-6.39,0-4.27-3.42-7.14-8.45-7.14s-9.05,3.04-9.05,6.75c0,1.84,1.12,3.09,2.83,3.09,1.48,0,2.58-1.08,2.58-2.56,0-.77-.24-1.3-.96-2.02-.45-.4-.62-.73-.62-1.04,0-1.08,2.25-2.21,4.36-2.21,3.01,0,4.81,1.67,4.81,4.46,0,4.01-2.83,7.78-5.84,7.78-.14,0-.55-.03-1.04-.08q-1.31-.09-1.57-.09c-1,0-1.53,.45-1.53,1.26,0,.72,.5,1.16,1.29,1.16,.24,0,.55-.03,.91-.08,.62-.14,1.31-.19,1.7-.19,2.13,0,3.56,1.89,3.56,4.69,0,4.86-2.39,9.53-7.82,9.53-2.52,0-4.69-1.25-4.69-2.7,0-.49,.19-.67,.9-.99,1.3-.58,1.85-1.39,1.85-2.61,0-1.57-1.27-2.78-2.88-2.78-1.93,0-3.2,1.52-3.2,3.86,0,4.38,3.33,7.11,8.73,7.11,6.8,0,11.97-4.55,11.97-10.58,0-3.5-2.15-5.48-5.31-6.47"/><path d="M2427.09,37c2.13-.67,2.97-1.05,4.05-1.77,2.12-1.39,3.42-3.86,3.42-6.39,0-4.27-3.42-7.14-8.45-7.14s-9.05,3.05-9.05,6.75c0,1.84,1.12,3.09,2.83,3.09,1.48,0,2.58-1.08,2.58-2.56,0-.77-.24-1.3-.96-2.02-.45-.41-.62-.73-.62-1.05,0-1.08,2.25-2.2,4.36-2.2,3.01,0,4.81,1.67,4.81,4.45,0,4.02-2.83,7.78-5.84,7.78-.14,0-.55-.03-1.04-.08q-1.31-.09-1.57-.09c-1,0-1.53,.45-1.53,1.27,0,.72,.5,1.16,1.29,1.16,.24,0,.55-.03,.91-.08,.62-.14,1.31-.19,1.7-.19,2.13,0,3.56,1.89,3.56,4.69,0,4.86-2.39,9.53-7.82,9.53-2.52,0-4.69-1.25-4.69-2.7,0-.48,.19-.67,.9-.98,1.3-.58,1.85-1.39,1.85-2.61,0-1.58-1.27-2.78-2.88-2.78-1.93,0-3.2,1.52-3.2,3.86,0,4.38,3.33,7.11,8.73,7.11,6.8,0,11.97-4.55,11.97-10.58,0-3.5-2.15-5.48-5.31-6.47"/><path d="M1724.78,15.3c2.12-.67,2.97-1.05,4.04-1.77,2.13-1.39,3.43-3.86,3.43-6.39,0-4.27-3.43-7.14-8.46-7.14s-9.04,3.05-9.04,6.75c0,1.84,1.12,3.09,2.82,3.09,1.49,0,2.58-1.08,2.58-2.56,0-.76-.23-1.3-.95-2.01-.45-.41-.63-.74-.63-1.05,0-1.08,2.25-2.2,4.36-2.2,3.02,0,4.82,1.67,4.82,4.45,0,4.02-2.83,7.78-5.85,7.78-.14,0-.54-.03-1.03-.08q-1.31-.09-1.58-.09c-1,0-1.53,.45-1.53,1.27,0,.72,.5,1.16,1.3,1.16,.23,0,.55-.03,.9-.08,.63-.14,1.32-.19,1.71-.19,2.12,0,3.56,1.89,3.56,4.69,0,4.86-2.39,9.53-7.83,9.53-2.51,0-4.69-1.25-4.69-2.7,0-.48,.19-.67,.91-.98,1.3-.58,1.84-1.39,1.84-2.61,0-1.58-1.26-2.78-2.87-2.78-1.94,0-3.2,1.52-3.2,3.86,0,4.38,3.32,7.11,8.73,7.11,6.8,0,11.97-4.55,11.97-10.58,0-3.5-2.16-5.49-5.31-6.47"/><path d="M2589.99,37c2.12-.67,2.96-1.05,4.04-1.77,2.13-1.39,3.42-3.86,3.42-6.39,0-4.27-3.42-7.14-8.45-7.14s-9.05,3.05-9.05,6.75c0,1.84,1.13,3.09,2.83,3.09,1.49,0,2.58-1.08,2.58-2.56,0-.77-.23-1.3-.95-2.02-.46-.41-.63-.73-.63-1.05,0-1.08,2.25-2.2,4.36-2.2,3.02,0,4.81,1.67,4.81,4.45,0,4.02-2.82,7.78-5.84,7.78-.14,0-.55-.03-1.03-.08q-1.31-.09-1.58-.09c-1,0-1.53,.45-1.53,1.27,0,.72,.5,1.16,1.3,1.16,.23,0,.54-.03,.9-.08,.63-.14,1.32-.19,1.71-.19,2.12,0,3.56,1.89,3.56,4.69,0,4.86-2.39,9.53-7.83,9.53-2.51,0-4.69-1.25-4.69-2.7,0-.48,.19-.67,.91-.98,1.3-.58,1.84-1.39,1.84-2.61,0-1.58-1.26-2.78-2.87-2.78-1.94,0-3.2,1.52-3.2,3.86,0,4.38,3.32,7.11,8.73,7.11,6.8,0,11.97-4.55,11.97-10.58,0-3.5-2.16-5.48-5.31-6.47"/><path d="M1887.37,29.14c2.13-.67,2.97-1.05,4.05-1.76,2.12-1.39,3.42-3.86,3.42-6.39,0-4.26-3.42-7.14-8.45-7.14s-9.05,3.05-9.05,6.75c0,1.84,1.12,3.09,2.83,3.09,1.48,0,2.58-1.08,2.58-2.56,0-.77-.24-1.3-.96-2.02-.45-.41-.62-.73-.62-1.05,0-1.08,2.25-2.2,4.36-2.2,3.01,0,4.81,1.67,4.81,4.45,0,4.02-2.83,7.78-5.84,7.78-.14,0-.55-.03-1.04-.08q-1.31-.09-1.57-.09c-1,0-1.53,.45-1.53,1.26,0,.72,.5,1.16,1.29,1.16,.24,0,.55-.03,.91-.08,.62-.14,1.31-.19,1.7-.19,2.13,0,3.56,1.89,3.56,4.69,0,4.86-2.39,9.53-7.82,9.53-2.52,0-4.69-1.25-4.69-2.7,0-.49,.19-.67,.9-.99,1.3-.58,1.85-1.39,1.85-2.61,0-1.58-1.27-2.78-2.88-2.78-1.93,0-3.2,1.51-3.2,3.86,0,4.38,3.33,7.11,8.73,7.11,6.8,0,11.97-4.55,11.97-10.58,0-3.5-2.15-5.48-5.31-6.47"/></g></svg>