<?xml version="1.0" encoding="UTF-8"?><svg id="Ebene_2" xmlns="http://www.w3.org/2000/svg" viewBox="0 0 2552 886.45"><g id="Ebene_1-2"><line y1="59.57" x2="2552" y2="59.57" fill="none" stroke="#000" stroke-linejoin="bevel" stroke-width="2.73"/><line y1="84.37" x2="2552" y2="84.37" fill="none" stroke="#000" stroke-linejoin="bevel" stroke-width="2.73"/><line y1="109.17" x2="2552" y2="109.17" fill="none" stroke="#000" stroke-linejoin="bevel" stroke-width="2.73"/><line y1="133.97" x2="2552" y2="133.97" fill="none" stroke="#000" stroke-linejoin="bevel" stroke-width="2.73"/><line y1="158.77" x2="2552" y2="158.77" fill="none" stroke="#000" stroke-linejoin="bevel" stroke-width="2.73"/><line y1="402.77" x2="2552" y2="402.77" fill="none" stroke="#000" stroke-linejoin="bevel" stroke-width="2.73"/><line y1="427.57" x2="2552" y2="427.57" fill="none" stroke="#000" stroke-linejoin="bevel" stroke-width="2.73"/><line y1="452.37" x2="2552" y2="452.37" fill="none" stroke="#000" stroke-linejoin="bevel" stroke-width="2.73"/><line y1="477.17" x2="2552" y2="477.17" fill="none" stroke="#000" stroke-linejoin="bevel" stroke-width="2.73"/><line y1="501.97" x2="2552" y2="501.97" fill="none" stroke="#000" stroke-linejoin="bevel" stroke-width="2.73"/><line y1="745.97" x2="2552" y2="745.97" fill="none" stroke="#000" stroke-linejoin="bevel" stroke-width="2.73"/><line y1="770.77" x2="2552" y2="770.77" fill="none" stroke="#000" stroke-linejoin="bevel" stroke-width="2.73"/><line y1="795.57" x2="2552" y2="795.57" fill="none" stroke="#000" stroke-linejoin="bevel" stroke-width="2.73"/><line y1="820.37" x2="2552" y2="820.37" fill="none" stroke="#000" stroke-linejoin="bevel" stroke-width="2.73"/><line y1="845.17" x2="2552" y2="845.17" fill="none" stroke="#000" stroke-linejoin="bevel" stroke-width="2.73"/><line x1="1217.63" y1="744.61" x2="1217.63" y2="846.53" fill="none" stroke="#000" stroke-linejoin="bevel" stroke-width="4.46"/><line x1="2549.77" y1="58.21" x2="2549.77" y2="160.13" fill="none" stroke="#000" stroke-linejoin="bevel" stroke-width="4.46"/><line x1="1026.48" y1="401.41" x2="1026.48" y2="503.33" fill="none" stroke="#000" stroke-linejoin="bevel" stroke-width="4.46"/><line x1="2536.13" y1="744.61" x2="2536.13" y2="846.53" fill="none" stroke="#000" stroke-linejoin="bevel" stroke-width="4.46"/><line x1="2549.77" y1="744.61" x2="2549.77" y2="846.53" fill="none" stroke="#000" stroke-linejoin="bevel" stroke-width="4.46"/><line x1="2170.43" y1="744.61" x2="2170.43" y2="846.53" fill="none" stroke="#000" stroke-linejoin="bevel" stroke-width="4.46"/><line x1="1788.13" y1="58.21" x2="1788.13" y2="160.13" fill="none" stroke="#000" stroke-linejoin="bevel" stroke-width="4.46"/><line x1="2549.77" y1="401.41" x2="2549.77" y2="503.33" fill="none" stroke="#000" stroke-linejoin="bevel" stroke-width="4.46"/><line x1="1788.13" y1="401.41" x2="1788.13" y2="503.33" fill="none" stroke="#000" stroke-linejoin="bevel" stroke-width="4.46"/><line x1="1026.48" y1="58.21" x2="1026.48" y2="160.13" fill="none" stroke="#000" stroke-linejoin="bevel" stroke-width="4.46"/><line x1="2469.92" y1="526.77" x2="2518.52" y2="526.77" fill="none" stroke="#000" stroke-linejoin="bevel" stroke-width="3.97"/><line x1="2410.33" y1="526.77" x2="2458.93" y2="526.77" fill="none" stroke="#000" stroke-linejoin="bevel" stroke-width="3.97"/><line x1="2350.74" y1="526.77" x2="2399.34" y2="526.77" fill="none" stroke="#000" stroke-linejoin="bevel" stroke-width="3.97"/><line x1="1933.6" y1="526.77" x2="1982.2" y2="526.77" fill="none" stroke="#000" stroke-linejoin="bevel" stroke-width="3.97"/><line x1="1874.01" y1="526.77" x2="1922.61" y2="526.77" fill="none" stroke="#000" stroke-linejoin="bevel" stroke-width="3.97"/><line x1="1814.41" y1="526.77" x2="1863.02" y2="526.77" fill="none" stroke="#000" stroke-linejoin="bevel" stroke-width="3.97"/><line x1="712.01" y1="828.8" x2="712.01" y2="752.17" fill="none" stroke="#000" stroke-linejoin="bevel" stroke-width="2.48"/><line x1="788.35" y1="841.2" x2="788.35" y2="770.77" fill="none" stroke="#000" stroke-linejoin="bevel" stroke-width="2.48"/><line x1="864.69" y1="841.2" x2="864.69" y2="770.77" fill="none" stroke="#000" stroke-linejoin="bevel" stroke-width="2.48"/><line x1="941.03" y1="841.2" x2="941.03" y2="770.77" fill="none" stroke="#000" stroke-linejoin="bevel" stroke-width="2.48"/><line x1="1017.37" y1="853.6" x2="1017.37" y2="776.97" fill="none" stroke="#000" stroke-linejoin="bevel" stroke-width="2.48"/><line x1="1093.71" y1="853.6" x2="1093.71" y2="776.97" fill="none" stroke="#000" stroke-linejoin="bevel" stroke-width="2.48"/><line x1="1170.05" y1="853.6" x2="1170.05" y2="776.97" fill="none" stroke="#000" stroke-linejoin="bevel" stroke-width="2.48"/><line x1="1283.1" y1="841.2" x2="1283.1" y2="770.77" fill="none" stroke="#000" stroke-linejoin="bevel" stroke-width="2.48"/><line x1="1359.44" y1="841.2" x2="1359.44" y2="770.77" fill="none" stroke="#000" stroke-linejoin="bevel" stroke-width="2.48"/><line x1="1435.78" y1="841.2" x2="1435.78" y2="770.77" fill="none" stroke="#000" stroke-linejoin="bevel" stroke-width="2.48"/><line x1="1512.12" y1="816.4" x2="1512.12" y2="745.97" fill="none" stroke="#000" stroke-linejoin="bevel" stroke-width="2.48"/><line x1="1588.46" y1="816.4" x2="1588.46" y2="745.97" fill="none" stroke="#000" stroke-linejoin="bevel" stroke-width="2.48"/><line x1="1664.8" y1="816.4" x2="1664.8" y2="745.97" fill="none" stroke="#000" stroke-linejoin="bevel" stroke-width="2.48"/><line x1="1741.14" y1="828.8" x2="1741.14" y2="752.17" fill="none" stroke="#000" stroke-linejoin="bevel" stroke-width="2.48"/><line x1="1817.48" y1="828.8" x2="1817.48" y2="752.17" fill="none" stroke="#000" stroke-linejoin="bevel" stroke-width="2.48"/><line x1="1893.82" y1="828.8" x2="1893.82" y2="752.17" fill="none" stroke="#000" stroke-linejoin="bevel" stroke-width="2.48"/><line x1="1970.17" y1="841.2" x2="1970.17" y2="770.77" fill="none" stroke="#000" stroke-linejoin="bevel" stroke-width="2.48"/><line x1="2046.51" y1="841.2" x2="2046.51" y2="770.77" fill="none" stroke="#000" stroke-linejoin="bevel" stroke-width="2.48"/><line x1="2122.85" y1="841.2" x2="2122.85" y2="770.77" fill="none" stroke="#000" stroke-linejoin="bevel" stroke-width="2.48"/><line x1="330.31" y1="167.2" x2="330.31" y2="90.57" fill="none" stroke="#000" stroke-linejoin="bevel" stroke-width="2.48"/><line x1="389.9" y1="167.2" x2="389.9" y2="90.57" fill="none" stroke="#000" stroke-linejoin="bevel" stroke-width="2.48"/><line x1="449.49" y1="167.2" x2="449.49" y2="90.57" fill="none" stroke="#000" stroke-linejoin="bevel" stroke-width="2.48"/><line x1="509.08" y1="154.8" x2="509.08" y2="84.37" fill="none" stroke="#000" stroke-linejoin="bevel" stroke-width="2.48"/><line x1="568.67" y1="154.8" x2="568.67" y2="84.37" fill="none" stroke="#000" stroke-linejoin="bevel" stroke-width="2.48"/><line x1="628.26" y1="154.8" x2="628.26" y2="84.37" fill="none" stroke="#000" stroke-linejoin="bevel" stroke-width="2.48"/><line x1="687.85" y1="142.4" x2="687.85" y2="65.77" fill="none" stroke="#000" stroke-linejoin="bevel" stroke-width="2.48"/><line x1="747.45" y1="142.4" x2="747.45" y2="65.77" fill="none" stroke="#000" stroke-linejoin="bevel" stroke-width="2.48"/><line x1="807.04" y1="142.4" x2="807.04" y2="65.77" fill="none" stroke="#000" stroke-linejoin="bevel" stroke-width="2.48"/><line x1="866.63" y1="167.2" x2="866.63" y2="90.57" fill="none" stroke="#000" stroke-linejoin="bevel" stroke-width="2.48"/><line x1="926.22" y1="167.2" x2="926.22" y2="90.57" fill="none" stroke="#000" stroke-linejoin="bevel" stroke-width="2.48"/><line x1="985.81" y1="167.2" x2="985.81" y2="90.57" fill="none" stroke="#000" stroke-linejoin="bevel" stroke-width="2.48"/><line x1="1091.95" y1="154.8" x2="1091.95" y2="84.37" fill="none" stroke="#000" stroke-linejoin="bevel" stroke-width="2.48"/><line x1="1151.54" y1="154.8" x2="1151.54" y2="84.37" fill="none" stroke="#000" stroke-linejoin="bevel" stroke-width="2.48"/><line x1="1211.13" y1="154.8" x2="1211.13" y2="84.37" fill="none" stroke="#000" stroke-linejoin="bevel" stroke-width="2.48"/><line x1="1270.72" y1="142.4" x2="1270.72" y2="65.77" fill="none" stroke="#000" stroke-linejoin="bevel" stroke-width="2.48"/><line x1="1330.31" y1="142.4" x2="1330.31" y2="65.77" fill="none" stroke="#000" stroke-linejoin="bevel" stroke-width="2.48"/><line x1="1389.91" y1="142.4" x2="1389.91" y2="65.77" fill="none" stroke="#000" stroke-linejoin="bevel" stroke-width="2.48"/><line x1="1449.5" y1="130" x2="1449.5" y2="59.57" fill="none" stroke="#000" stroke-linejoin="bevel" stroke-width="2.48"/><line x1="1509.09" y1="130" x2="1509.09" y2="59.57" fill="none" stroke="#000" stroke-linejoin="bevel" stroke-width="2.48"/><line x1="1568.68" y1="130" x2="1568.68" y2="59.57" fill="none" stroke="#000" stroke-linejoin="bevel" stroke-width="2.48"/><line x1="1628.27" y1="154.8" x2="1628.27" y2="84.37" fill="none" stroke="#000" stroke-linejoin="bevel" stroke-width="2.48"/><line x1="1687.86" y1="154.8" x2="1687.86" y2="84.37" fill="none" stroke="#000" stroke-linejoin="bevel" stroke-width="2.48"/><line x1="1747.45" y1="154.8" x2="1747.45" y2="84.37" fill="none" stroke="#000" stroke-linejoin="bevel" stroke-width="2.48"/><line x1="1853.59" y1="142.4" x2="1853.59" y2="65.77" fill="none" stroke="#000" stroke-linejoin="bevel" stroke-width="2.48"/><line x1="1913.18" y1="142.4" x2="1913.18" y2="65.77" fill="none" stroke="#000" stroke-linejoin="bevel" stroke-width="2.48"/><line x1="1972.77" y1="142.4" x2="1972.77" y2="65.77" fill="none" stroke="#000" stroke-linejoin="bevel" stroke-width="2.48"/><line x1="2032.37" y1="130" x2="2032.37" y2="59.57" fill="none" stroke="#000" stroke-linejoin="bevel" stroke-width="2.48"/><line x1="2091.96" y1="130" x2="2091.96" y2="59.57" fill="none" stroke="#000" stroke-linejoin="bevel" stroke-width="2.48"/><line x1="2151.55" y1="130" x2="2151.55" y2="59.57" fill="none" stroke="#000" stroke-linejoin="bevel" stroke-width="2.48"/><line x1="2211.14" y1="117.6" x2="2211.14" y2="53.37" fill="none" stroke="#000" stroke-linejoin="bevel" stroke-width="2.48"/><line x1="2270.73" y1="117.6" x2="2270.73" y2="53.37" fill="none" stroke="#000" stroke-linejoin="bevel" stroke-width="2.48"/><line x1="2330.32" y1="117.6" x2="2330.32" y2="53.37" fill="none" stroke="#000" stroke-linejoin="bevel" stroke-width="2.48"/><line x1="2389.92" y1="142.4" x2="2389.92" y2="65.77" fill="none" stroke="#000" stroke-linejoin="bevel" stroke-width="2.48"/><line x1="2449.51" y1="142.4" x2="2449.51" y2="65.77" fill="none" stroke="#000" stroke-linejoin="bevel" stroke-width="2.48"/><line x1="2509.1" y1="142.4" x2="2509.1" y2="65.77" fill="none" stroke="#000" stroke-linejoin="bevel" stroke-width="2.48"/><line x1="330.31" y1="510.4" x2="330.31" y2="433.77" fill="none" stroke="#000" stroke-linejoin="bevel" stroke-width="2.48"/><line x1="389.9" y1="510.4" x2="389.9" y2="433.77" fill="none" stroke="#000" stroke-linejoin="bevel" stroke-width="2.48"/><line x1="449.49" y1="510.4" x2="449.49" y2="433.77" fill="none" stroke="#000" stroke-linejoin="bevel" stroke-width="2.48"/><line x1="509.08" y1="498" x2="509.08" y2="427.57" fill="none" stroke="#000" stroke-linejoin="bevel" stroke-width="2.48"/><line x1="568.67" y1="498" x2="568.67" y2="427.57" fill="none" stroke="#000" stroke-linejoin="bevel" stroke-width="2.48"/><line x1="628.26" y1="498" x2="628.26" y2="427.57" fill="none" stroke="#000" stroke-linejoin="bevel" stroke-width="2.48"/><line x1="687.85" y1="485.6" x2="687.85" y2="408.97" fill="none" stroke="#000" stroke-linejoin="bevel" stroke-width="2.48"/><line x1="747.45" y1="485.6" x2="747.45" y2="408.97" fill="none" stroke="#000" stroke-linejoin="bevel" stroke-width="2.48"/><line x1="807.04" y1="485.6" x2="807.04" y2="408.97" fill="none" stroke="#000" stroke-linejoin="bevel" stroke-width="2.48"/><line x1="866.63" y1="510.4" x2="866.63" y2="433.77" fill="none" stroke="#000" stroke-linejoin="bevel" stroke-width="2.48"/><line x1="926.22" y1="510.4" x2="926.22" y2="433.77" fill="none" stroke="#000" stroke-linejoin="bevel" stroke-width="2.48"/><line x1="985.81" y1="510.4" x2="985.81" y2="433.77" fill="none" stroke="#000" stroke-linejoin="bevel" stroke-width="2.48"/><line x1="1091.95" y1="498" x2="1091.95" y2="427.57" fill="none" stroke="#000" stroke-linejoin="bevel" stroke-width="2.48"/><line x1="1151.54" y1="498" x2="1151.54" y2="427.57" fill="none" stroke="#000" stroke-linejoin="bevel" stroke-width="2.48"/><line x1="1211.13" y1="498" x2="1211.13" y2="427.57" fill="none" stroke="#000" stroke-linejoin="bevel" stroke-width="2.48"/><line x1="1270.72" y1="485.6" x2="1270.72" y2="408.97" fill="none" stroke="#000" stroke-linejoin="bevel" stroke-width="2.48"/><line x1="1330.31" y1="485.6" x2="1330.31" y2="408.97" fill="none" stroke="#000" stroke-linejoin="bevel" stroke-width="2.48"/><line x1="1389.91" y1="485.6" x2="1389.91" y2="408.97" fill="none" stroke="#000" stroke-linejoin="bevel" stroke-width="2.48"/><line x1="1449.5" y1="473.2" x2="1449.5" y2="402.77" fill="none" stroke="#000" stroke-linejoin="bevel" stroke-width="2.48"/><line x1="1509.09" y1="473.2" x2="1509.09" y2="402.77" fill="none" stroke="#000" stroke-linejoin="bevel" stroke-width="2.48"/><line x1="1568.68" y1="473.2" x2="1568.68" y2="402.77" fill="none" stroke="#000" stroke-linejoin="bevel" stroke-width="2.48"/><line x1="1628.27" y1="498" x2="1628.27" y2="427.57" fill="none" stroke="#000" stroke-linejoin="bevel" stroke-width="2.48"/><line x1="1687.86" y1="498" x2="1687.86" y2="427.57" fill="none" stroke="#000" stroke-linejoin="bevel" stroke-width="2.48"/><line x1="1747.45" y1="498" x2="1747.45" y2="427.57" fill="none" stroke="#000" stroke-linejoin="bevel" stroke-width="2.48"/><line x1="1853.59" y1="522.8" x2="1853.59" y2="452.37" fill="none" stroke="#000" stroke-linejoin="bevel" stroke-width="2.48"/><line x1="1913.18" y1="522.8" x2="1913.18" y2="452.37" fill="none" stroke="#000" stroke-linejoin="bevel" stroke-width="2.48"/><line x1="1972.77" y1="522.8" x2="1972.77" y2="452.37" fill="none" stroke="#000" stroke-linejoin="bevel" stroke-width="2.48"/><line x1="2032.37" y1="510.4" x2="2032.37" y2="433.77" fill="none" stroke="#000" stroke-linejoin="bevel" stroke-width="2.48"/><line x1="2091.96" y1="510.4" x2="2091.96" y2="433.77" fill="none" stroke="#000" stroke-linejoin="bevel" stroke-width="2.48"/><line x1="2151.55" y1="510.4" x2="2151.55" y2="433.77" fill="none" stroke="#000" stroke-linejoin="bevel" stroke-width="2.48"/><line x1="2211.14" y1="498" x2="2211.14" y2="427.57" fill="none" stroke="#000" stroke-linejoin="bevel" stroke-width="2.48"/><line x1="2270.73" y1="498" x2="2270.73" y2="427.57" fill="none" stroke="#000" stroke-linejoin="bevel" stroke-width="2.48"/><line x1="2330.32" y1="498" x2="2330.32" y2="427.57" fill="none" stroke="#000" stroke-linejoin="bevel" stroke-width="2.48"/><line x1="2389.92" y1="522.8" x2="2389.92" y2="452.37" fill="none" stroke="#000" stroke-linejoin="bevel" stroke-width="2.48"/><line x1="2449.51" y1="522.8" x2="2449.51" y2="452.37" fill="none" stroke="#000" stroke-linejoin="bevel" stroke-width="2.48"/><line x1="2509.1" y1="522.8" x2="2509.1" y2="452.37" fill="none" stroke="#000" stroke-linejoin="bevel" stroke-width="2.48"/><line x1="330.31" y1="853.6" x2="330.31" y2="776.97" fill="none" stroke="#000" stroke-linejoin="bevel" stroke-width="2.48"/><line x1="406.65" y1="853.6" x2="406.65" y2="776.97" fill="none" stroke="#000" stroke-linejoin="bevel" stroke-width="2.48"/><line x1="482.99" y1="853.6" x2="482.99" y2="776.97" fill="none" stroke="#000" stroke-linejoin="bevel" stroke-width="2.48"/><line x1="559.33" y1="828.8" x2="559.33" y2="752.17" fill="none" stroke="#000" stroke-linejoin="bevel" stroke-width="2.48"/><line x1="635.67" y1="828.8" x2="635.67" y2="752.17" fill="none" stroke="#000" stroke-linejoin="bevel" stroke-width="2.48"/><path d="M895.23,518.54c0,4.26,3.07,9.02,11.11,9.02,10.31,0,21.13-8.43,21.13-17.16,0-5.86-4.96-9.13-11.11-9.13-9.63,0-21.13,8.14-21.13,17.27"/><path d="M954.82,518.54c0,4.26,3.07,9.02,11.11,9.02,10.31,0,21.13-8.43,21.13-17.16,0-5.86-4.96-9.13-11.11-9.13-9.63,0-21.13,8.14-21.13,17.27"/><path d="M1060.96,506.14c0,4.26,3.07,9.02,11.11,9.02,10.31,0,21.13-8.43,21.13-17.16,0-5.86-4.96-9.13-11.11-9.13-9.63,0-21.13,8.14-21.13,17.27"/><path d="M895.23,175.34c0,4.26,3.07,9.02,11.11,9.02,10.31,0,21.13-8.43,21.13-17.16,0-5.86-4.96-9.13-11.11-9.13-9.63,0-21.13,8.14-21.13,17.27"/><path d="M1120.55,506.14c0,4.26,3.07,9.02,11.11,9.02,10.31,0,21.13-8.43,21.13-17.16,0-5.86-4.96-9.13-11.11-9.13-9.63,0-21.13,8.14-21.13,17.27"/><path d="M1180.14,506.14c0,4.26,3.07,9.02,11.11,9.02,10.31,0,21.13-8.43,21.13-17.16,0-5.86-4.96-9.13-11.11-9.13-9.63,0-21.13,8.14-21.13,17.27"/><path d="M954.82,175.34c0,4.26,3.07,9.02,11.11,9.02,10.31,0,21.13-8.43,21.13-17.16,0-5.86-4.96-9.13-11.11-9.13-9.63,0-21.13,8.14-21.13,17.27"/><path d="M1239.73,493.74c0,4.26,3.07,9.02,11.11,9.02,10.31,0,21.13-8.43,21.13-17.16,0-5.86-4.96-9.13-11.11-9.13-9.63,0-21.13,8.14-21.13,17.27"/><path d="M1299.32,493.74c0,4.26,3.07,9.02,11.11,9.02,10.31,0,21.13-8.43,21.13-17.16,0-5.86-4.96-9.13-11.11-9.13-9.63,0-21.13,8.14-21.13,17.27"/><path d="M1358.91,493.74c0,4.26,3.07,9.02,11.11,9.02,10.31,0,21.13-8.43,21.13-17.16,0-5.86-4.96-9.13-11.11-9.13-9.63,0-21.13,8.14-21.13,17.27"/><path d="M1418.5,481.34c0,4.26,3.07,9.02,11.11,9.02,10.31,0,21.13-8.43,21.13-17.16,0-5.86-4.96-9.13-11.11-9.13-9.63,0-21.13,8.14-21.13,17.27"/><path d="M1060.96,162.94c0,4.26,3.07,9.02,11.11,9.02,10.31,0,21.13-8.43,21.13-17.16,0-5.86-4.96-9.13-11.11-9.13-9.63,0-21.13,8.14-21.13,17.27"/><path d="M1478.1,481.34c0,4.26,3.07,9.02,11.11,9.02,10.31,0,21.13-8.43,21.13-17.16,0-5.86-4.96-9.13-11.11-9.13-9.63,0-21.13,8.14-21.13,17.27"/><path d="M1537.69,481.34c0,4.26,3.07,9.02,11.11,9.02,10.31,0,21.13-8.43,21.13-17.16,0-5.86-4.96-9.13-11.11-9.13-9.63,0-21.13,8.14-21.13,17.27"/><path d="M1597.28,506.14c0,4.26,3.07,9.02,11.11,9.02,10.31,0,21.13-8.43,21.13-17.16,0-5.86-4.96-9.13-11.11-9.13-9.63,0-21.13,8.14-21.13,17.27"/><path d="M1656.87,506.14c0,4.26,3.07,9.02,11.11,9.02,10.31,0,21.13-8.43,21.13-17.16,0-5.86-4.96-9.13-11.11-9.13-9.63,0-21.13,8.14-21.13,17.27"/><path d="M1120.55,162.94c0,4.26,3.07,9.02,11.11,9.02,10.31,0,21.13-8.43,21.13-17.16,0-5.86-4.96-9.13-11.11-9.13-9.63,0-21.13,8.14-21.13,17.27"/><path d="M1716.46,506.14c0,4.26,3.07,9.02,11.11,9.02,10.31,0,21.13-8.43,21.13-17.16,0-5.86-4.96-9.13-11.11-9.13-9.63,0-21.13,8.14-21.13,17.27"/><path d="M299.31,175.34c0,4.26,3.07,9.02,11.11,9.02,10.31,0,21.13-8.43,21.13-17.16,0-5.86-4.96-9.13-11.11-9.13-9.63,0-21.13,8.14-21.13,17.27"/><path d="M1822.6,530.94c0,4.26,3.07,9.02,11.11,9.02,10.31,0,21.13-8.43,21.13-17.16,0-5.86-4.96-9.13-11.11-9.13-9.63,0-21.13,8.14-21.13,17.27"/><path d="M1180.14,162.94c0,4.26,3.07,9.02,11.11,9.02,10.31,0,21.13-8.43,21.13-17.16,0-5.86-4.96-9.13-11.11-9.13-9.63,0-21.13,8.14-21.13,17.27"/><path d="M1882.19,530.94c0,4.26,3.07,9.02,11.11,9.02,10.31,0,21.13-8.43,21.13-17.16,0-5.86-4.96-9.13-11.11-9.13-9.63,0-21.13,8.14-21.13,17.27"/><path d="M1941.78,530.94c0,4.26,3.07,9.02,11.11,9.02,10.31,0,21.13-8.43,21.13-17.16,0-5.86-4.96-9.13-11.11-9.13-9.63,0-21.13,8.14-21.13,17.27"/><path d="M1239.73,150.54c0,4.26,3.07,9.02,11.11,9.02,10.31,0,21.13-8.43,21.13-17.16,0-5.86-4.96-9.13-11.11-9.13-9.63,0-21.13,8.14-21.13,17.27"/><path d="M2001.37,518.54c0,4.26,3.07,9.02,11.11,9.02,10.31,0,21.13-8.43,21.13-17.16,0-5.86-4.96-9.13-11.11-9.13-9.63,0-21.13,8.14-21.13,17.27"/><path d="M2060.97,518.54c0,4.26,3.07,9.02,11.11,9.02,10.31,0,21.13-8.43,21.13-17.16,0-5.86-4.96-9.13-11.11-9.13-9.63,0-21.13,8.14-21.13,17.27"/><path d="M2120.56,518.54c0,4.26,3.07,9.02,11.11,9.02,10.31,0,21.13-8.43,21.13-17.16,0-5.86-4.96-9.13-11.11-9.13-9.63,0-21.13,8.14-21.13,17.27"/><path d="M2180.15,506.14c0,4.26,3.07,9.02,11.11,9.02,10.31,0,21.13-8.43,21.13-17.16,0-5.86-4.96-9.13-11.11-9.13-9.63,0-21.13,8.14-21.13,17.27"/><path d="M1299.32,150.54c0,4.26,3.07,9.02,11.11,9.02,10.31,0,21.13-8.43,21.13-17.16,0-5.86-4.96-9.13-11.11-9.13-9.63,0-21.13,8.14-21.13,17.27"/><path d="M2239.74,506.14c0,4.26,3.07,9.02,11.11,9.02,10.31,0,21.13-8.43,21.13-17.16,0-5.86-4.96-9.13-11.11-9.13-9.63,0-21.13,8.14-21.13,17.27"/><path d="M2299.33,506.14c0,4.26,3.07,9.02,11.11,9.02,10.31,0,21.13-8.43,21.13-17.16,0-5.86-4.96-9.13-11.11-9.13-9.63,0-21.13,8.14-21.13,17.27"/><path d="M1358.91,150.54c0,4.26,3.07,9.02,11.11,9.02,10.31,0,21.13-8.43,21.13-17.16,0-5.86-4.96-9.13-11.11-9.13-9.63,0-21.13,8.14-21.13,17.27"/><path d="M2358.92,530.94c0,4.26,3.07,9.02,11.11,9.02,10.31,0,21.13-8.43,21.13-17.16,0-5.86-4.96-9.13-11.11-9.13-9.63,0-21.13,8.14-21.13,17.27"/><path d="M2418.51,530.94c0,4.26,3.07,9.02,11.11,9.02,10.31,0,21.13-8.43,21.13-17.16,0-5.86-4.96-9.13-11.11-9.13-9.63,0-21.13,8.14-21.13,17.27"/><path d="M1418.5,138.14c0,4.26,3.07,9.02,11.11,9.02,10.31,0,21.13-8.43,21.13-17.16,0-5.86-4.96-9.13-11.11-9.13-9.63,0-21.13,8.14-21.13,17.27"/><path d="M2478.11,530.94c0,4.26,3.07,9.02,11.11,9.02,10.31,0,21.13-8.43,21.13-17.16,0-5.86-4.96-9.13-11.11-9.13-9.63,0-21.13,8.14-21.13,17.27"/><path d="M299.31,861.74c0,4.26,3.07,9.02,11.11,9.02,10.31,0,21.13-8.43,21.13-17.16,0-5.86-4.96-9.13-11.11-9.13-9.63,0-21.13,8.14-21.13,17.27"/><path d="M375.65,861.74c0,4.26,3.07,9.02,11.11,9.02,10.31,0,21.13-8.43,21.13-17.16,0-5.86-4.96-9.13-11.11-9.13-9.63,0-21.13,8.14-21.13,17.27"/><path d="M358.9,175.34c0,4.26,3.07,9.02,11.11,9.02,10.31,0,21.13-8.43,21.13-17.16,0-5.86-4.96-9.13-11.11-9.13-9.63,0-21.13,8.14-21.13,17.27"/><path d="M452,861.74c0,4.26,3.07,9.02,11.11,9.02,10.31,0,21.13-8.43,21.13-17.16,0-5.86-4.96-9.13-11.11-9.13-9.63,0-21.13,8.14-21.13,17.27"/><path d="M1478.1,138.14c0,4.26,3.07,9.02,11.11,9.02,10.31,0,21.13-8.43,21.13-17.16,0-5.86-4.96-9.13-11.11-9.13-9.63,0-21.13,8.14-21.13,17.27"/><path d="M528.34,836.94c0,4.26,3.07,9.02,11.11,9.02,10.31,0,21.13-8.43,21.13-17.16,0-5.86-4.96-9.13-11.11-9.13-9.63,0-21.13,8.14-21.13,17.27"/><path d="M604.68,836.94c0,4.26,3.07,9.02,11.11,9.02,10.31,0,21.13-8.43,21.13-17.16,0-5.86-4.96-9.13-11.11-9.13-9.63,0-21.13,8.14-21.13,17.27"/><path d="M1537.69,138.14c0,4.26,3.07,9.02,11.11,9.02,10.31,0,21.13-8.43,21.13-17.16,0-5.86-4.96-9.13-11.11-9.13-9.63,0-21.13,8.14-21.13,17.27"/><path d="M681.02,836.94c0,4.26,3.07,9.02,11.11,9.02,10.31,0,21.13-8.43,21.13-17.16,0-5.86-4.96-9.13-11.11-9.13-9.63,0-21.13,8.14-21.13,17.27"/><path d="M757.36,849.34c0,4.26,3.07,9.02,11.11,9.02,10.31,0,21.13-8.43,21.13-17.16,0-5.86-4.96-9.13-11.11-9.13-9.63,0-21.13,8.14-21.13,17.27"/><path d="M1597.28,162.94c0,4.26,3.07,9.02,11.11,9.02,10.31,0,21.13-8.43,21.13-17.16,0-5.86-4.96-9.13-11.11-9.13-9.63,0-21.13,8.14-21.13,17.27"/><path d="M833.7,849.34c0,4.26,3.07,9.02,11.11,9.02,10.31,0,21.13-8.43,21.13-17.16,0-5.86-4.96-9.13-11.11-9.13-9.63,0-21.13,8.14-21.13,17.27"/><path d="M910.04,849.34c0,4.26,3.07,9.02,11.11,9.02,10.31,0,21.13-8.43,21.13-17.16,0-5.86-4.96-9.13-11.11-9.13-9.63,0-21.13,8.14-21.13,17.27"/><path d="M986.38,861.74c0,4.26,3.07,9.02,11.11,9.02,10.31,0,21.13-8.43,21.13-17.16,0-5.86-4.96-9.13-11.11-9.13-9.63,0-21.13,8.14-21.13,17.27"/><path d="M418.5,175.34c0,4.26,3.07,9.02,11.11,9.02,10.31,0,21.13-8.43,21.13-17.16,0-5.86-4.96-9.13-11.11-9.13-9.63,0-21.13,8.14-21.13,17.27"/><path d="M1062.72,861.74c0,4.26,3.07,9.02,11.11,9.02,10.31,0,21.13-8.43,21.13-17.16,0-5.86-4.96-9.13-11.11-9.13-9.63,0-21.13,8.14-21.13,17.27"/><path d="M1656.87,162.94c0,4.26,3.07,9.02,11.11,9.02,10.31,0,21.13-8.43,21.13-17.16,0-5.86-4.96-9.13-11.11-9.13-9.63,0-21.13,8.14-21.13,17.27"/><path d="M1139.06,861.74c0,4.26,3.07,9.02,11.11,9.02,10.31,0,21.13-8.43,21.13-17.16,0-5.86-4.96-9.13-11.11-9.13-9.63,0-21.13,8.14-21.13,17.27"/><path d="M1252.11,849.34c0,4.26,3.07,9.02,11.11,9.02,10.31,0,21.13-8.43,21.13-17.16,0-5.86-4.96-9.13-11.11-9.13-9.63,0-21.13,8.14-21.13,17.27"/><path d="M1716.46,162.94c0,4.26,3.07,9.02,11.11,9.02,10.31,0,21.13-8.43,21.13-17.16,0-5.86-4.96-9.13-11.11-9.13-9.63,0-21.13,8.14-21.13,17.27"/><path d="M2001.37,138.14c0,4.26,3.07,9.02,11.11,9.02,10.31,0,21.13-8.43,21.13-17.16,0-5.86-4.96-9.13-11.11-9.13-9.63,0-21.13,8.14-21.13,17.27"/><path d="M1404.79,849.34c0,4.26,3.07,9.02,11.11,9.02,10.31,0,21.13-8.43,21.13-17.16,0-5.86-4.96-9.13-11.11-9.13-9.63,0-21.13,8.14-21.13,17.27"/><path d="M1481.13,824.54c0,4.26,3.07,9.02,11.11,9.02,10.31,0,21.13-8.43,21.13-17.16,0-5.86-4.96-9.13-11.11-9.13-9.63,0-21.13,8.14-21.13,17.27"/><path d="M2060.97,138.14c0,4.26,3.07,9.02,11.11,9.02,10.31,0,21.13-8.43,21.13-17.16,0-5.86-4.96-9.13-11.11-9.13-9.63,0-21.13,8.14-21.13,17.27"/><path d="M1557.47,824.54c0,4.26,3.07,9.02,11.11,9.02,10.31,0,21.13-8.43,21.13-17.16,0-5.86-4.96-9.13-11.11-9.13-9.63,0-21.13,8.14-21.13,17.27"/><path d="M2120.56,138.14c0,4.26,3.07,9.02,11.11,9.02,10.31,0,21.13-8.43,21.13-17.16,0-5.86-4.96-9.13-11.11-9.13-9.63,0-21.13,8.14-21.13,17.27"/><path d="M537.68,162.94c0,4.26,3.07,9.02,11.11,9.02,10.31,0,21.13-8.43,21.13-17.16,0-5.86-4.96-9.13-11.11-9.13-9.63,0-21.13,8.14-21.13,17.27"/><path d="M2180.15,125.74c0,4.26,3.07,9.02,11.11,9.02,10.31,0,21.13-8.43,21.13-17.16,0-5.86-4.96-9.13-11.11-9.13-9.63,0-21.13,8.14-21.13,17.27"/><path d="M1822.6,150.54c0,4.26,3.07,9.02,11.11,9.02,10.31,0,21.13-8.43,21.13-17.16,0-5.86-4.96-9.13-11.11-9.13-9.63,0-21.13,8.14-21.13,17.27"/><path d="M1633.81,824.54c0,4.26,3.07,9.02,11.11,9.02,10.31,0,21.13-8.43,21.13-17.16,0-5.86-4.96-9.13-11.11-9.13-9.63,0-21.13,8.14-21.13,17.27"/><path d="M1710.15,836.94c0,4.26,3.07,9.02,11.11,9.02,10.31,0,21.13-8.43,21.13-17.16,0-5.86-4.96-9.13-11.11-9.13-9.63,0-21.13,8.14-21.13,17.27"/><path d="M2239.74,125.74c0,4.26,3.07,9.02,11.11,9.02,10.31,0,21.13-8.43,21.13-17.16,0-5.86-4.96-9.13-11.11-9.13-9.63,0-21.13,8.14-21.13,17.27"/><path d="M2299.33,125.74c0,4.26,3.07,9.02,11.11,9.02,10.31,0,21.13-8.43,21.13-17.16,0-5.86-4.96-9.13-11.11-9.13-9.63,0-21.13,8.14-21.13,17.27"/><path d="M597.27,162.94c0,4.26,3.07,9.02,11.11,9.02,10.31,0,21.13-8.43,21.13-17.16,0-5.86-4.96-9.13-11.11-9.13-9.63,0-21.13,8.14-21.13,17.27"/><path d="M2358.92,150.54c0,4.26,3.07,9.02,11.11,9.02,10.31,0,21.13-8.43,21.13-17.16,0-5.86-4.96-9.13-11.11-9.13-9.63,0-21.13,8.14-21.13,17.27"/><path d="M1786.49,836.94c0,4.26,3.07,9.02,11.11,9.02,10.31,0,21.13-8.43,21.13-17.16,0-5.86-4.96-9.13-11.11-9.13-9.63,0-21.13,8.14-21.13,17.27"/><path d="M478.09,162.94c0,4.26,3.07,9.02,11.11,9.02,10.31,0,21.13-8.43,21.13-17.16,0-5.86-4.96-9.13-11.11-9.13-9.63,0-21.13,8.14-21.13,17.27"/><path d="M1862.83,836.94c0,4.26,3.07,9.02,11.11,9.02,10.31,0,21.13-8.43,21.13-17.16,0-5.86-4.96-9.13-11.11-9.13-9.63,0-21.13,8.14-21.13,17.27"/><path d="M2418.51,150.54c0,4.26,3.07,9.02,11.11,9.02,10.31,0,21.13-8.43,21.13-17.16,0-5.86-4.96-9.13-11.11-9.13-9.63,0-21.13,8.14-21.13,17.27"/><path d="M1882.19,150.54c0,4.26,3.07,9.02,11.11,9.02,10.31,0,21.13-8.43,21.13-17.16,0-5.86-4.96-9.13-11.11-9.13-9.63,0-21.13,8.14-21.13,17.27"/><path d="M2478.11,150.54c0,4.26,3.07,9.02,11.11,9.02,10.31,0,21.13-8.43,21.13-17.16,0-5.86-4.96-9.13-11.11-9.13-9.63,0-21.13,8.14-21.13,17.27"/><path d="M1939.17,849.34c0,4.26,3.07,9.02,11.11,9.02,10.31,0,21.13-8.43,21.13-17.16,0-5.86-4.96-9.13-11.11-9.13-9.63,0-21.13,8.14-21.13,17.27"/><path d="M2015.51,849.34c0,4.26,3.07,9.02,11.11,9.02,10.31,0,21.13-8.43,21.13-17.16,0-5.86-4.96-9.13-11.11-9.13-9.63,0-21.13,8.14-21.13,17.27"/><path d="M1941.78,150.54c0,4.26,3.07,9.02,11.11,9.02,10.31,0,21.13-8.43,21.13-17.16,0-5.86-4.96-9.13-11.11-9.13-9.63,0-21.13,8.14-21.13,17.27"/><path d="M656.86,150.54c0,4.26,3.07,9.02,11.11,9.02,10.31,0,21.13-8.43,21.13-17.16,0-5.86-4.96-9.13-11.11-9.13-9.63,0-21.13,8.14-21.13,17.27"/><path d="M299.31,518.54c0,4.26,3.07,9.02,11.11,9.02,10.31,0,21.13-8.43,21.13-17.16,0-5.86-4.96-9.13-11.11-9.13-9.63,0-21.13,8.14-21.13,17.27"/><path d="M2091.85,849.34c0,4.26,3.07,9.02,11.11,9.02,10.31,0,21.13-8.43,21.13-17.16,0-5.86-4.96-9.13-11.11-9.13-9.63,0-21.13,8.14-21.13,17.27"/><path d="M358.9,518.54c0,4.26,3.07,9.02,11.11,9.02,10.31,0,21.13-8.43,21.13-17.16,0-5.86-4.96-9.13-11.11-9.13-9.63,0-21.13,8.14-21.13,17.27"/><path d="M2223.46,844.09c-13.69,0-18.55,6.94-18.55,13.39s4.87,13.39,18.55,13.39,18.45-6.94,18.45-13.39-4.76-13.39-18.45-13.39m.79,23.61c-2.77,0-4.67-.79-5.95-3.27s-3.07-8.93-3.18-11.52c-.2-2.68,.79-4.26,3.18-5.05,1.19-.4,2.77-.6,4.37-.6,2.67,0,4.46,.6,5.84,3.29,1.39,2.57,3.29,9.02,3.29,11.5,0,4.87-3.58,5.66-7.55,5.66"/><path d="M418.5,518.54c0,4.26,3.07,9.02,11.11,9.02,10.31,0,21.13-8.43,21.13-17.16,0-5.86-4.96-9.13-11.11-9.13-9.63,0-21.13,8.14-21.13,17.27"/><path d="M478.09,506.14c0,4.26,3.07,9.02,11.11,9.02,10.31,0,21.13-8.43,21.13-17.16,0-5.86-4.96-9.13-11.11-9.13-9.63,0-21.13,8.14-21.13,17.27"/><path d="M1328.45,849.34c0,4.26,3.07,9.02,11.11,9.02,10.31,0,21.13-8.43,21.13-17.16,0-5.86-4.96-9.13-11.11-9.13-9.63,0-21.13,8.14-21.13,17.27"/><path d="M537.68,506.14c0,4.26,3.07,9.02,11.11,9.02,10.31,0,21.13-8.43,21.13-17.16,0-5.86-4.96-9.13-11.11-9.13-9.63,0-21.13,8.14-21.13,17.27"/><path d="M716.45,150.54c0,4.26,3.07,9.02,11.11,9.02,10.31,0,21.13-8.43,21.13-17.16,0-5.86-4.96-9.13-11.11-9.13-9.63,0-21.13,8.14-21.13,17.27"/><path d="M597.27,506.14c0,4.26,3.07,9.02,11.11,9.02,10.31,0,21.13-8.43,21.13-17.16,0-5.86-4.96-9.13-11.11-9.13-9.63,0-21.13,8.14-21.13,17.27"/><path d="M656.86,493.74c0,4.26,3.07,9.02,11.11,9.02,10.31,0,21.13-8.43,21.13-17.16,0-5.86-4.96-9.13-11.11-9.13-9.63,0-21.13,8.14-21.13,17.27"/><path d="M776.05,150.54c0,4.26,3.07,9.02,11.11,9.02,10.31,0,21.13-8.43,21.13-17.16,0-5.86-4.96-9.13-11.11-9.13-9.63,0-21.13,8.14-21.13,17.27"/><path d="M716.45,493.74c0,4.26,3.07,9.02,11.11,9.02,10.31,0,21.13-8.43,21.13-17.16,0-5.86-4.96-9.13-11.11-9.13-9.63,0-21.13,8.14-21.13,17.27"/><path d="M776.05,493.74c0,4.26,3.07,9.02,11.11,9.02,10.31,0,21.13-8.43,21.13-17.16,0-5.86-4.96-9.13-11.11-9.13-9.63,0-21.13,8.14-21.13,17.27"/><path d="M835.64,175.34c0,4.26,3.07,9.02,11.11,9.02,10.31,0,21.13-8.43,21.13-17.16,0-5.86-4.96-9.13-11.11-9.13-9.63,0-21.13,8.14-21.13,17.27"/><path d="M835.64,518.54c0,4.26,3.07,9.02,11.11,9.02,10.31,0,21.13-8.43,21.13-17.16,0-5.86-4.96-9.13-11.11-9.13-9.63,0-21.13,8.14-21.13,17.27"/><path d="M30.8,871.26c0,6.56,4.96,15.19,18.35,15.19,4.67,0,8.74-1.19,12.31-3.38,5.36-3.77,6.74-10.32,6.74-16.57,0-3.86-.59-8.32-1.58-13.98-.29-1.98-.9-4.96-1.49-8.84,9.72-3.18,16.96-13.3,16.96-23.51,0-14.97-10.62-25.09-25.09-25.09-.99-5.95-1.98-11.81-2.77-17.36,10.42-11.02,17.65-23.42,17.65-39.18,0-9.04-2.77-16.37-4.37-19.95-2.37-5.05-5.25-8.53-7.04-8.53-.7,0-3.77,1.19-7.04,5.05-6.36,7.55-8.14,20.24-8.14,28.57,0,5.36,.5,10.23,2.19,21.34-.11,.09-5.27,5.35-7.35,7.04-9.04,8.34-21.53,20.43-21.53,40.28,0,18.54,16.17,33.12,34.63,33.12,2.87,0,5.55-.29,7.83-.7,1.89,9.53,3.08,16.48,3.08,21.73,0,10.32-5.36,15.78-15.38,15.78-2.39,0-4.46-.5-4.67-.5-.09-.11-.29-.2-.29-.29,0-.2,.2-.31,.5-.31,4.67-.79,9.32-4.76,9.32-11.1,0-5.36-4.06-11.02-11.5-11.02-6.94,0-11.31,5.66-11.31,12.2m20.74-132.43c.9-3.97,5.46-14.38,10.62-14.38,1.49,0,3.86,4.76,3.86,11.7,0,10.32-7.63,18.06-14.48,24.8-.59-3.97-1.08-7.83-1.08-12,0-3.67,.29-7.05,1.08-10.12m8.73,101.97c-1.98,.4-3.86,.6-5.75,.6-14.18,0-26.29-9.92-26.29-24.91,0-12.09,8.53-22.91,17.27-30.46,1.67-1.49,3.27-2.87,4.76-4.36,.88,5.35,1.58,10.01,2.28,14.09-9.04,2.68-15.17,12.2-15.17,21.53,0,6.94,5.46,16.46,13.39,16.46,.79,0,1.69-.4,1.69-1.29s-.99-1.39-2.19-2.19c-3.88-2.39-6.06-4.96-6.06-9.83,0-6.05,4.57-10.91,10.32-12.29l5.75,32.63m14.09-18.35c0,7.05-2.88,14.29-9.92,17.17-2.08-11.9-4.76-27.68-5.46-32.05,8.93,0,15.38,6.06,15.38,14.88"/><path d="M30.8,528.06c0,6.56,4.96,15.19,18.35,15.19,4.67,0,8.74-1.19,12.31-3.38,5.36-3.77,6.74-10.32,6.74-16.57,0-3.86-.59-8.32-1.58-13.98-.29-1.98-.9-4.96-1.49-8.84,9.72-3.18,16.96-13.3,16.96-23.51,0-14.97-10.62-25.09-25.09-25.09-.99-5.95-1.98-11.81-2.77-17.36,10.42-11.02,17.65-23.42,17.65-39.18,0-9.04-2.77-16.37-4.37-19.95-2.37-5.05-5.25-8.53-7.04-8.53-.7,0-3.77,1.19-7.04,5.05-6.36,7.55-8.14,20.24-8.14,28.57,0,5.36,.5,10.23,2.19,21.34-.11,.09-5.27,5.35-7.35,7.04-9.04,8.34-21.53,20.43-21.53,40.28,0,18.54,16.17,33.12,34.63,33.12,2.87,0,5.55-.29,7.83-.7,1.89,9.53,3.08,16.48,3.08,21.73,0,10.32-5.36,15.78-15.38,15.78-2.39,0-4.46-.5-4.67-.5-.09-.11-.29-.2-.29-.29,0-.2,.2-.31,.5-.31,4.67-.79,9.32-4.76,9.32-11.1,0-5.36-4.06-11.02-11.5-11.02-6.94,0-11.31,5.66-11.31,12.2m20.74-132.43c.9-3.97,5.46-14.38,10.62-14.38,1.49,0,3.86,4.76,3.86,11.7,0,10.32-7.63,18.06-14.48,24.8-.59-3.97-1.08-7.83-1.08-12,0-3.67,.29-7.05,1.08-10.12m8.73,101.97c-1.98,.4-3.86,.6-5.75,.6-14.18,0-26.29-9.92-26.29-24.91,0-12.09,8.53-22.91,17.27-30.46,1.67-1.49,3.27-2.87,4.76-4.36,.88,5.35,1.58,10.01,2.28,14.09-9.04,2.68-15.17,12.2-15.17,21.53,0,6.94,5.46,16.46,13.39,16.46,.79,0,1.69-.4,1.69-1.29s-.99-1.39-2.19-2.19c-3.88-2.39-6.06-4.96-6.06-9.83,0-6.05,4.57-10.91,10.32-12.29l5.75,32.63m14.09-18.35c0,7.05-2.88,14.29-9.92,17.17-2.08-11.9-4.76-27.68-5.46-32.05,8.93,0,15.38,6.06,15.38,14.88"/><path d="M30.8,184.86c0,6.56,4.96,15.19,18.35,15.19,4.67,0,8.74-1.19,12.31-3.38,5.36-3.77,6.74-10.32,6.74-16.57,0-3.86-.59-8.32-1.58-13.98-.29-1.98-.9-4.96-1.49-8.84,9.72-3.18,16.96-13.3,16.96-23.51,0-14.97-10.62-25.09-25.09-25.09-.99-5.95-1.98-11.81-2.77-17.36,10.42-11.02,17.65-23.42,17.65-39.18,0-9.04-2.77-16.37-4.37-19.95-2.37-5.05-5.25-8.53-7.04-8.53-.7,0-3.77,1.19-7.04,5.05-6.36,7.55-8.14,20.24-8.14,28.57,0,5.36,.5,10.23,2.19,21.34-.11,.09-5.27,5.35-7.35,7.04-9.04,8.34-21.53,20.43-21.53,40.28,0,18.54,16.17,33.12,34.63,33.12,2.87,0,5.55-.29,7.83-.7,1.89,9.53,3.08,16.48,3.08,21.73,0,10.32-5.36,15.78-15.38,15.78-2.39,0-4.46-.5-4.67-.5-.09-.11-.29-.2-.29-.29,0-.2,.2-.31,.5-.31,4.67-.79,9.32-4.76,9.32-11.1,0-5.36-4.06-11.02-11.5-11.02-6.94,0-11.31,5.66-11.31,12.2M51.54,52.42c.9-3.97,5.46-14.38,10.62-14.38,1.49,0,3.86,4.76,3.86,11.7,0,10.32-7.63,18.06-14.48,24.8-.59-3.97-1.08-7.83-1.08-12,0-3.67,.29-7.05,1.08-10.12m8.73,101.97c-1.98,.4-3.86,.6-5.75,.6-14.18,0-26.29-9.92-26.29-24.91,0-12.09,8.53-22.91,17.27-30.46,1.67-1.49,3.27-2.87,4.76-4.36,.88,5.35,1.58,10.01,2.28,14.09-9.04,2.68-15.17,12.2-15.17,21.53,0,6.94,5.46,16.46,13.39,16.46,.79,0,1.69-.4,1.69-1.29s-.99-1.39-2.19-2.19c-3.88-2.39-6.06-4.96-6.06-9.83,0-6.05,4.57-10.91,10.32-12.29l5.75,32.63m14.09-18.35c0,7.05-2.88,14.29-9.92,17.17-2.08-11.9-4.76-27.68-5.46-32.05,8.93,0,15.38,6.06,15.38,14.88"/><path d="M118.79,436.99c-4.96,0-7.84,3.07-8.34,3.67l.4-31.85c0-.79-.59-1.38-1.4-1.38h-1.18c-.81,0-1.4,.59-1.4,1.38l.5,59.63c0,.79,.59,1.38,1.4,1.38,.19,0,.59-.09,.79-.19,8.53-4.28,17.45-12.4,17.45-22.63,0-5.15-2.37-10.01-8.23-10.01m-8.63,27.98l.29-19.34c.2-.9,1.69-3.77,5.66-3.77,3.58,0,3.87,3.36,3.87,5.46,0,8.82-3.27,12.49-9.83,17.65"/><path d="M146.36,399.79c-4.96,0-7.84,3.07-8.34,3.67l.4-31.85c0-.79-.59-1.38-1.4-1.38h-1.18c-.81,0-1.4,.59-1.4,1.38l.5,59.63c0,.79,.59,1.38,1.4,1.38,.19,0,.59-.09,.79-.19,8.53-4.28,17.45-12.4,17.45-22.63,0-5.15-2.37-10.01-8.23-10.01m-8.63,27.98l.29-19.34c.2-.9,1.69-3.77,5.66-3.77,3.58,0,3.87,3.36,3.87,5.46,0,8.82-3.27,12.49-9.83,17.65"/><path d="M173.93,449.39c-4.96,0-7.84,3.07-8.34,3.67l.4-31.85c0-.79-.59-1.38-1.4-1.38h-1.18c-.81,0-1.4,.59-1.4,1.38l.5,59.63c0,.79,.59,1.38,1.4,1.38,.19,0,.59-.09,.79-.19,8.53-4.28,17.45-12.4,17.45-22.63,0-5.15-2.37-10.01-8.23-10.01m-8.63,27.98l.29-19.34c.2-.9,1.69-3.77,5.66-3.77,3.58,0,3.87,3.36,3.87,5.46,0,8.82-3.27,12.49-9.83,17.65"/><path d="M201.51,412.19c-4.96,0-7.84,3.07-8.34,3.67l.4-31.85c0-.79-.59-1.38-1.4-1.38h-1.18c-.81,0-1.4,.59-1.4,1.38l.5,59.63c0,.79,.59,1.38,1.4,1.38,.19,0,.59-.09,.79-.19,8.53-4.28,17.45-12.4,17.45-22.63,0-5.15-2.37-10.01-8.23-10.01m-8.63,27.98l.29-19.34c.2-.9,1.69-3.77,5.66-3.77,3.58,0,3.87,3.36,3.87,5.46,0,8.82-3.27,12.49-9.83,17.65"/><path d="M229.08,461.79c-4.96,0-7.84,3.07-8.34,3.67l.4-31.85c0-.79-.59-1.38-1.4-1.38h-1.18c-.81,0-1.4,.59-1.4,1.38l.5,59.63c0,.79,.59,1.38,1.4,1.38,.19,0,.59-.09,.79-.19,8.53-4.28,17.45-12.4,17.45-22.63,0-5.15-2.37-10.01-8.23-10.01m-8.63,27.98l.29-19.34c.2-.9,1.69-3.77,5.66-3.77,3.58,0,3.87,3.36,3.87,5.46,0,8.82-3.27,12.49-9.83,17.65"/><path d="M118.79,780.19c-4.96,0-7.84,3.07-8.34,3.67l.4-31.85c0-.79-.59-1.38-1.4-1.38h-1.18c-.81,0-1.4,.59-1.4,1.38l.5,59.63c0,.79,.59,1.38,1.4,1.38,.19,0,.59-.09,.79-.19,8.53-4.28,17.45-12.4,17.45-22.63,0-5.15-2.37-10.01-8.23-10.01m-8.63,27.98l.29-19.34c.2-.9,1.69-3.77,5.66-3.77,3.58,0,3.87,3.36,3.87,5.46,0,8.82-3.27,12.49-9.83,17.65"/><path d="M146.36,742.99c-4.96,0-7.84,3.07-8.34,3.67l.4-31.85c0-.79-.59-1.38-1.4-1.38h-1.18c-.81,0-1.4,.59-1.4,1.38l.5,59.63c0,.79,.59,1.38,1.4,1.38,.19,0,.59-.09,.79-.19,8.53-4.28,17.45-12.4,17.45-22.63,0-5.15-2.37-10.01-8.23-10.01m-8.63,27.98l.29-19.34c.2-.9,1.69-3.77,5.66-3.77,3.58,0,3.87,3.36,3.87,5.46,0,8.82-3.27,12.49-9.83,17.65"/><path d="M173.93,792.59c-4.96,0-7.84,3.07-8.34,3.67l.4-31.85c0-.79-.59-1.38-1.4-1.38h-1.18c-.81,0-1.4,.59-1.4,1.38l.5,59.63c0,.79,.59,1.38,1.4,1.38,.19,0,.59-.09,.79-.19,8.53-4.28,17.45-12.4,17.45-22.63,0-5.15-2.37-10.01-8.23-10.01m-8.63,27.98l.29-19.34c.2-.9,1.69-3.77,5.66-3.77,3.58,0,3.87,3.36,3.87,5.46,0,8.82-3.27,12.49-9.83,17.65"/><path d="M201.51,755.39c-4.96,0-7.84,3.07-8.34,3.67l.4-31.85c0-.79-.59-1.38-1.4-1.38h-1.18c-.81,0-1.4,.59-1.4,1.38l.5,59.63c0,.79,.59,1.38,1.4,1.38,.19,0,.59-.09,.79-.19,8.53-4.28,17.45-12.4,17.45-22.63,0-5.15-2.37-10.01-8.23-10.01m-8.63,27.98l.29-19.34c.2-.9,1.69-3.77,5.66-3.77,3.58,0,3.87,3.36,3.87,5.46,0,8.82-3.27,12.49-9.83,17.65"/><path d="M229.08,804.99c-4.96,0-7.84,3.07-8.34,3.67l.4-31.85c0-.79-.59-1.38-1.4-1.38h-1.18c-.81,0-1.4,.59-1.4,1.38l.5,59.63c0,.79,.59,1.38,1.4,1.38,.19,0,.59-.09,.79-.19,8.53-4.28,17.45-12.4,17.45-22.63,0-5.15-2.37-10.01-8.23-10.01m-8.63,27.98l.29-19.34c.2-.9,1.69-3.77,5.66-3.77,3.58,0,3.87,3.36,3.87,5.46,0,8.82-3.27,12.49-9.83,17.65"/><path d="M118.79,93.79c-4.96,0-7.84,3.07-8.34,3.67l.4-31.85c0-.79-.59-1.38-1.4-1.38h-1.18c-.81,0-1.4,.59-1.4,1.38l.5,59.63c0,.79,.59,1.38,1.4,1.38,.19,0,.59-.09,.79-.19,8.53-4.28,17.45-12.4,17.45-22.63,0-5.15-2.37-10.01-8.23-10.01m-8.63,27.98l.29-19.34c.2-.9,1.69-3.77,5.66-3.77,3.58,0,3.87,3.36,3.87,5.46,0,8.82-3.27,12.49-9.83,17.65"/><path d="M146.36,56.59c-4.96,0-7.84,3.07-8.34,3.67l.4-31.85c0-.79-.59-1.38-1.4-1.38h-1.18c-.81,0-1.4,.59-1.4,1.38l.5,59.63c0,.79,.59,1.38,1.4,1.38,.19,0,.59-.09,.79-.19,8.53-4.28,17.45-12.4,17.45-22.63,0-5.15-2.37-10.01-8.23-10.01m-8.63,27.98l.29-19.34c.2-.9,1.69-3.77,5.66-3.77,3.58,0,3.87,3.36,3.87,5.46,0,8.82-3.27,12.49-9.83,17.65"/><path d="M173.93,106.19c-4.96,0-7.84,3.07-8.34,3.67l.4-31.85c0-.79-.59-1.38-1.4-1.38h-1.18c-.81,0-1.4,.59-1.4,1.38l.5,59.63c0,.79,.59,1.38,1.4,1.38,.19,0,.59-.09,.79-.19,8.53-4.28,17.45-12.4,17.45-22.63,0-5.15-2.37-10.01-8.23-10.01m-8.63,27.98l.29-19.34c.2-.9,1.69-3.77,5.66-3.77,3.58,0,3.87,3.36,3.87,5.46,0,8.82-3.27,12.49-9.83,17.65"/><path d="M201.51,68.99c-4.96,0-7.84,3.07-8.34,3.67l.4-31.85c0-.79-.59-1.38-1.4-1.38h-1.18c-.81,0-1.4,.59-1.4,1.38l.5,59.63c0,.79,.59,1.38,1.4,1.38,.19,0,.59-.09,.79-.19,8.53-4.28,17.45-12.4,17.45-22.63,0-5.15-2.37-10.01-8.23-10.01m-8.63,27.98l.29-19.34c.2-.9,1.69-3.77,5.66-3.77,3.58,0,3.87,3.36,3.87,5.46,0,8.82-3.27,12.49-9.83,17.65"/><path d="M229.08,118.59c-4.96,0-7.84,3.07-8.34,3.67l.4-31.85c0-.79-.59-1.38-1.4-1.38h-1.18c-.81,0-1.4,.59-1.4,1.38l.5,59.63c0,.79,.59,1.38,1.4,1.38,.19,0,.59-.09,.79-.19,8.53-4.28,17.45-12.4,17.45-22.63,0-5.15-2.37-10.01-8.23-10.01m-8.63,27.98l.29-19.34c.2-.9,1.69-3.77,5.66-3.77,3.58,0,3.87,3.36,3.87,5.46,0,8.82-3.27,12.49-9.83,17.65"/><path d="M2246.12,707.78c-9.32-10.12-17.56-10.71-22.71-10.71s-13.3,.59-22.63,10.71c-4.85,5.36-8.23,15.97-8.23,21.33,0,1.89,.4,3.18,1.4,3.18,2.77,0,1.38-8.54,9.72-16.97,7.33-7.33,17.16-7.44,19.55-7.44h.39c2.39,0,12.21,.11,19.55,7.44,8.34,8.43,6.94,16.97,9.72,16.97,.99,0,1.39-1.19,1.39-3.18,0-5.36-3.27-16.07-8.14-21.33m-29.56,18.94c0,3.78,3.07,6.85,6.85,6.85s6.84-3.07,6.84-6.85-3.07-6.84-6.84-6.84-6.85,3.07-6.85,6.84"/><path d="M614.54,215.87c-2.33,3.75-3.33,4.8-4.64,4.8-.64,0-1-.41-1-1.13,0-.51,.2-1.43,.59-2.84l7.12-23.98-7.95,.59-.17,1.44h1.25c1.64,0,2.28,.36,2.28,1.23,0,.41-.12,.92-.36,1.77l-2.64,8.87c-.72-2.08-2.28-3.23-4.61-3.23-5.75,0-11.11,6.15-11.11,12.8,0,3.92,2.52,6.59,6.28,6.59,2.72,0,4.72-1.11,6.47-3.72-.03,.33-.03,.72-.03,.89,0,1.83,.95,2.83,2.72,2.83,2.52,0,4.72-1.95,7-6.19l-1.2-.72m-10-10.68c1.95,0,3.39,1.51,3.39,3.6,0,3.63-2.55,12.11-7.19,12.11-2.16,0-3.56-1.71-3.56-4.31,0-3.8,2.72-11.4,7.36-11.4m22.52-8.75c-1.08,0-1.95,.87-1.95,1.95s.88,1.95,1.95,1.95,1.97-.87,1.97-1.95-.89-1.95-1.97-1.95m8.08,0c-1.08,0-1.95,.87-1.95,1.95s.88,1.95,1.95,1.95,1.97-.87,1.97-1.95-.89-1.95-1.97-1.95m2.41,7.54h-3.48l-1.88,6.41c-1.64,5.56-5.33,10.11-8.16,10.11-.97,0-1.72-.75-1.72-1.72,0-.52,.11-1.16,.44-2.27l3.92-13.12-7.72,.59-.12,1.46h.95c1.64,0,2.25,.35,2.25,1.26,0,.41-.12,.97-.33,1.74l-1.59,5.39q-1.23,4-1.23,5.23c0,2.2,1.52,3.69,3.8,3.69,2.8,0,5.08-1.64,7.44-5.33-.41,1.41-.48,1.97-.48,2.72,0,1.56,1.08,2.64,2.56,2.64,2.44,0,4.39-1.64,7.23-6l-1.2-.72c-1.95,2.92-3.52,4.53-4.39,4.53-.36,0-.72-.45-.72-.97,0-.43,.16-1.2,.47-2.36l3.97-13.28"/><path d="M656.1,203.39c-4.2,0-7.25,2.56-7.25,6.03,0,1.73,1,3.17,2.77,4.09,.64,.32,1.44,.68,3.12,1.36,2.27,.91,2.83,1.47,2.83,2.88,0,2.15-1.8,3.51-4.56,3.51-2.03,0-3.47-.56-3.47-1.36,0-.2,.11-.43,.28-.59,.75-.8,.83-1,.83-1.72,0-1.12-.88-2-2.03-2-1.33,0-2.33,1.11-2.33,2.67,0,2.8,2.48,4.52,6.53,4.52,4.59,0,7.75-2.52,7.75-6.16,0-1.59-.72-2.95-2-3.83-.88-.6-1.28-.76-3.47-1.56-2.61-.92-3.28-1.56-3.28-3.12,0-1.85,1.75-3.21,4.08-3.21,1.56,0,2.59,.44,2.59,1.08,0,.17-.08,.36-.2,.56-.56,.8-.64,1-.64,1.61,0,1.08,.84,1.83,2.08,1.83,1.36,0,2.28-1,2.28-2.44,0-2.43-2.44-4.15-5.91-4.15m16.75-9.77c-1.2,0-2.16,.97-2.16,2.17s.95,2.16,2.12,2.16c1.23,0,2.19-.97,2.19-2.16s-.95-2.17-2.16-2.17m.72,9.77l-7.67,.59-.16,1.46h.95c1.64,0,2.28,.35,2.28,1.23,0,.39-.08,.84-.36,1.77l-2.33,7.79c-.75,2.55-.88,3.11-.88,4.03,0,1.41,1.2,2.49,2.72,2.49,3.44,0,5.8-3.56,7.48-6.16l-1.25-.69c-2.08,3.16-3.75,4.85-4.83,4.85-.41,0-.69-.36-.69-.85,0-.39,.16-1.12,.48-2.23l4.23-14.28m12.97,0l-7.28,.59-.12,1.46h.97c1.59,0,2.23,.35,2.23,1.26,0,.36-.12,.97-.33,1.74l-4.08,13.75h3.48l1.64-5.65c1.8-6.12,5.44-10.75,8.44-10.75,1.05,0,1.69,.55,1.69,1.55,0,.81-.33,2.49-.81,4l-3.19,10.85h3.47l1.72-5.8c1-3.33,2-5.56,3.28-7.28,1.44-2,3.48-3.32,5-3.32,1,0,1.56,.52,1.56,1.47,0,.57-.2,1.44-.56,2.57l-1.84,5.68c-1.08,3.11-1.11,3.36-1.11,4.47,0,1.69,1.23,2.8,3.11,2.8,1.33,0,2.61-.64,3.97-1.91,.84-.81,1.39-1.53,3.03-3.92l-1.23-.84c-2.08,3.12-3.56,4.64-4.59,4.64-.44,0-.84-.44-.84-1,0-.36,.12-.8,.48-1.97l2.52-7.75c.28-.88,.48-2.13,.48-3,0-2.13-1.56-3.64-3.72-3.64-2.84,0-5.41,1.84-7.72,5.64,.16-.77,.23-1.44,.23-1.92,0-2.13-1.69-3.72-3.88-3.72-2.53,0-4.36,1.4-7.17,5.4l1.17-5.4m29.95,14.44c-1.36,0-2.47,1.12-2.47,2.48s1.11,2.47,2.44,2.47c1.44,0,2.52-1.08,2.52-2.47s-1.12-2.48-2.48-2.48"/><path d="M550.39,204.9c.64-.56,1-.75,1.47-.75,.41,0,.73,.19,1.05,.64,.64,.88,.88,1.04,1.51,1.04,.92,0,1.61-.75,1.61-1.75,0-1.18-1.12-2.1-2.53-2.1s-2.47,.53-4.55,2.17c-1.25-.56-2.17-.76-3.45-.76-4.44,0-8.19,3.15-8.19,6.84,0,1.92,.75,3.24,2.47,4.16-1.83,.23-2.67,.51-3.59,1.31-.8,.64-1.31,1.72-1.31,2.69,0,1.36,.64,2.2,2.19,2.95-2.36,.53-5.11,1.53-5.11,4.44,0,4,5.28,4.48,8.2,4.48,3.95,0,6.23-.48,8.19-1.76,1.72-1.11,2.72-2.83,2.72-4.72,0-4.03-4.28-4.52-7.36-4.72-3.55-.19-3.83-.23-4.39-.36-1-.23-1.48-.72-1.48-1.39,0-.97,.95-1.61,2.41-1.61,.52,0,1.11,.05,1.64,.13,1.64,.23,1.88,.28,2.88,.28,2.23,0,4-.57,5.39-1.69,1.61-1.23,2.61-3.23,2.61-5.08s-.8-3.31-2.36-4.44m-4.61,0c2.09,0,3.41,1.25,3.41,3.21,0,2.87-1.31,6.51-4.72,6.51-2.16,0-3.51-1.36-3.51-3.59,0-3.59,1.95-6.13,4.83-6.13m-4.88,17.16c1.8,0,4.69,.41,5.59,.77,1,.43,1.48,1.12,1.48,2.12,0,2.36-2.52,3.64-7.11,3.64-3.89,0-5.69-.97-5.69-3.09s2.08-3.44,5.72-3.44m25.08-25.62c-1.08,0-1.95,.87-1.95,1.95s.88,1.95,1.95,1.95,1.97-.87,1.97-1.95-.89-1.95-1.97-1.95m8.08,0c-1.08,0-1.95,.87-1.95,1.95s.88,1.95,1.95,1.95,1.97-.87,1.97-1.95-.89-1.95-1.97-1.95m2.41,7.54h-3.48l-1.88,6.41c-1.64,5.56-5.33,10.11-8.16,10.11-.97,0-1.72-.75-1.72-1.72,0-.52,.11-1.16,.44-2.27l3.92-13.12-7.72,.59-.12,1.46h.95c1.64,0,2.25,.35,2.25,1.26,0,.41-.12,.97-.33,1.74l-1.59,5.39q-1.24,4-1.24,5.23c0,2.2,1.52,3.69,3.8,3.69,2.8,0,5.08-1.64,7.44-5.33-.41,1.41-.49,1.97-.49,2.72,0,1.56,1.08,2.64,2.56,2.64,2.44,0,4.39-1.64,7.23-6l-1.2-.72c-1.95,2.92-3.52,4.53-4.39,4.53-.36,0-.72-.45-.72-.97,0-.43,.16-1.2,.47-2.36l3.97-13.28"/><path d="M371.62,205.68c.64-.56,1-.75,1.47-.75,.41,0,.73,.19,1.05,.64,.64,.88,.88,1.03,1.52,1.03,.92,0,1.61-.75,1.61-1.75,0-1.17-1.12-2.09-2.53-2.09s-2.47,.53-4.55,2.17c-1.25-.56-2.17-.76-3.45-.76-4.44,0-8.19,3.15-8.19,6.84,0,1.92,.75,3.23,2.47,4.16-1.83,.23-2.67,.51-3.59,1.31-.8,.64-1.31,1.72-1.31,2.69,0,1.35,.64,2.2,2.19,2.95-2.36,.53-5.11,1.53-5.11,4.44,0,4,5.28,4.48,8.2,4.48,3.95,0,6.23-.48,8.19-1.77,1.72-1.1,2.72-2.82,2.72-4.71,0-4.04-4.28-4.52-7.36-4.72-3.55-.19-3.83-.24-4.39-.36-1-.24-1.48-.72-1.48-1.39,0-.97,.95-1.61,2.41-1.61,.52,0,1.11,.04,1.64,.12,1.64,.24,1.88,.28,2.88,.28,2.23,0,4-.56,5.39-1.68,1.61-1.24,2.61-3.24,2.61-5.08s-.8-3.31-2.36-4.44m-4.61,0c2.09,0,3.41,1.25,3.41,3.2,0,2.88-1.31,6.52-4.72,6.52-2.16,0-3.52-1.36-3.52-3.59,0-3.6,1.95-6.13,4.83-6.13m-4.88,17.16c1.8,0,4.69,.4,5.59,.76,1,.44,1.48,1.13,1.48,2.13,0,2.36-2.52,3.64-7.11,3.64-3.89,0-5.69-.97-5.69-3.1s2.08-3.43,5.72-3.43m25.08-25.63c-1.08,0-1.95,.88-1.95,1.96s.88,1.95,1.95,1.95,1.97-.88,1.97-1.95-.89-1.96-1.97-1.96m8.08,0c-1.08,0-1.95,.88-1.95,1.96s.88,1.95,1.95,1.95,1.97-.88,1.97-1.95-.89-1.96-1.97-1.96m2.41,7.55h-3.48l-1.88,6.41c-1.64,5.56-5.33,10.1-8.16,10.1-.97,0-1.72-.75-1.72-1.71,0-.52,.11-1.16,.44-2.27l3.92-13.12-7.72,.59-.12,1.45h.95c1.64,0,2.25,.36,2.25,1.27,0,.4-.12,.97-.33,1.73l-1.59,5.39q-1.23,4-1.23,5.24c0,2.2,1.52,3.68,3.8,3.68,2.8,0,5.08-1.64,7.44-5.32-.41,1.4-.48,1.97-.48,2.72,0,1.56,1.08,2.64,2.56,2.64,2.44,0,4.39-1.64,7.23-6l-1.2-.72c-1.95,2.92-3.52,4.53-4.39,4.53-.36,0-.72-.45-.72-.97,0-.44,.16-1.2,.47-2.36l3.97-13.28"/><path d="M435.77,215.87c-2.33,3.75-3.33,4.8-4.64,4.8-.64,0-1-.41-1-1.13,0-.51,.2-1.43,.59-2.84l7.12-23.98-7.95,.59-.17,1.44h1.25c1.64,0,2.28,.36,2.28,1.23,0,.41-.12,.92-.36,1.77l-2.64,8.87c-.72-2.08-2.28-3.23-4.61-3.23-5.75,0-11.11,6.15-11.11,12.8,0,3.92,2.51,6.59,6.28,6.59,2.72,0,4.72-1.11,6.47-3.72-.03,.33-.03,.72-.03,.89,0,1.83,.95,2.83,2.72,2.83,2.52,0,4.72-1.95,7-6.19l-1.2-.72m-10-10.68c1.95,0,3.39,1.51,3.39,3.6,0,3.63-2.55,12.11-7.19,12.11-2.16,0-3.56-1.71-3.56-4.31,0-3.8,2.72-11.4,7.36-11.4m22.52-8.75c-1.08,0-1.95,.87-1.95,1.95s.88,1.95,1.95,1.95,1.97-.87,1.97-1.95-.89-1.95-1.97-1.95m8.08,0c-1.08,0-1.95,.87-1.95,1.95s.88,1.95,1.95,1.95,1.97-.87,1.97-1.95-.89-1.95-1.97-1.95m2.41,7.54h-3.48l-1.88,6.41c-1.64,5.56-5.33,10.11-8.16,10.11-.97,0-1.72-.75-1.72-1.72,0-.52,.11-1.16,.44-2.27l3.92-13.12-7.72,.59-.12,1.46h.95c1.64,0,2.25,.35,2.25,1.26,0,.41-.12,.97-.33,1.74l-1.59,5.39q-1.24,4-1.24,5.23c0,2.2,1.52,3.69,3.8,3.69,2.8,0,5.08-1.64,7.44-5.33-.41,1.41-.49,1.97-.49,2.72,0,1.56,1.08,2.64,2.56,2.64,2.44,0,4.39-1.64,7.23-6l-1.2-.72c-1.95,2.92-3.52,4.53-4.39,4.53-.36,0-.72-.45-.72-.97,0-.43,.16-1.2,.47-2.36l3.97-13.28"/><path d="M309.14,215.87c-2.33,3.75-3.33,4.8-4.64,4.8-.64,0-1-.41-1-1.13,0-.51,.2-1.43,.59-2.84l7.12-23.98-7.95,.59-.17,1.44h1.25c1.64,0,2.28,.36,2.28,1.23,0,.41-.12,.92-.36,1.77l-2.64,8.87c-.72-2.08-2.28-3.23-4.61-3.23-5.75,0-11.11,6.15-11.11,12.8,0,3.92,2.51,6.59,6.28,6.59,2.72,0,4.72-1.11,6.47-3.72-.03,.33-.03,.72-.03,.89,0,1.83,.95,2.83,2.72,2.83,2.52,0,4.72-1.95,7-6.19l-1.2-.72m-10-10.68c1.95,0,3.39,1.51,3.39,3.6,0,3.63-2.55,12.11-7.19,12.11-2.16,0-3.56-1.71-3.56-4.31,0-3.8,2.72-11.4,7.36-11.4m22.52-8.75c-1.08,0-1.95,.87-1.95,1.95s.88,1.95,1.95,1.95,1.97-.87,1.97-1.95-.89-1.95-1.97-1.95m8.08,0c-1.08,0-1.95,.87-1.95,1.95s.88,1.95,1.95,1.95,1.97-.87,1.97-1.95-.89-1.95-1.97-1.95m2.41,7.54h-3.48l-1.88,6.41c-1.64,5.56-5.33,10.11-8.16,10.11-.97,0-1.72-.75-1.72-1.72,0-.52,.11-1.16,.44-2.27l3.92-13.12-7.72,.59-.12,1.46h.95c1.64,0,2.25,.35,2.25,1.26,0,.41-.12,.97-.33,1.74l-1.59,5.39q-1.24,4-1.24,5.23c0,2.2,1.52,3.69,3.8,3.69,2.8,0,5.08-1.64,7.44-5.33-.41,1.41-.49,1.97-.49,2.72,0,1.56,1.08,2.64,2.56,2.64,2.44,0,4.39-1.64,7.23-6l-1.2-.72c-1.95,2.92-3.52,4.53-4.39,4.53-.36,0-.72-.45-.72-.97,0-.43,.16-1.2,.47-2.36l3.97-13.28"/><path d="M492.88,215.87c-2.33,3.75-3.33,4.8-4.64,4.8-.64,0-1-.41-1-1.13,0-.51,.2-1.43,.59-2.84l7.12-23.98-7.95,.59-.17,1.44h1.25c1.64,0,2.28,.36,2.28,1.23,0,.41-.12,.92-.36,1.77l-2.64,8.87c-.72-2.08-2.28-3.23-4.61-3.23-5.75,0-11.11,6.15-11.11,12.8,0,3.92,2.52,6.59,6.28,6.59,2.72,0,4.72-1.11,6.47-3.72-.03,.33-.03,.72-.03,.89,0,1.83,.95,2.83,2.72,2.83,2.52,0,4.72-1.95,7-6.19l-1.2-.72m-10-10.68c1.95,0,3.39,1.51,3.39,3.6,0,3.63-2.55,12.11-7.19,12.11-2.16,0-3.56-1.71-3.56-4.31,0-3.8,2.72-11.4,7.36-11.4m22.51-8.75c-1.08,0-1.95,.87-1.95,1.95s.88,1.95,1.95,1.95,1.97-.87,1.97-1.95-.89-1.95-1.97-1.95m8.08,0c-1.08,0-1.95,.87-1.95,1.95s.88,1.95,1.95,1.95,1.97-.87,1.97-1.95-.89-1.95-1.97-1.95m2.41,7.54h-3.49l-1.88,6.41c-1.64,5.56-5.33,10.11-8.16,10.11-.97,0-1.72-.75-1.72-1.72,0-.52,.11-1.16,.44-2.27l3.92-13.12-7.72,.59-.12,1.46h.95c1.64,0,2.25,.35,2.25,1.26,0,.41-.12,.97-.33,1.74l-1.59,5.39q-1.23,4-1.23,5.23c0,2.2,1.52,3.69,3.8,3.69,2.8,0,5.08-1.64,7.44-5.33-.41,1.41-.48,1.97-.48,2.72,0,1.56,1.08,2.64,2.56,2.64,2.44,0,4.39-1.64,7.24-6l-1.2-.72c-1.95,2.92-3.52,4.53-4.39,4.53-.36,0-.72-.45-.72-.97,0-.43,.16-1.2,.47-2.36l3.97-13.28"/><path d="M1448.26,396.57h121.66v12.4h-121.66v-12.4" fill-rule="evenodd"/><path d="M507.84,421.37h121.66v12.4h-121.66v-12.4" fill-rule="evenodd"/><path d="M686.62,59.57h121.67v12.4h-121.67v-12.4" fill-rule="evenodd"/><path d="M558.09,745.97h155.16v12.4h-155.16v-12.4" fill-rule="evenodd"/><path d="M865.39,427.57h121.66v12.4h-121.66v-12.4" fill-rule="evenodd"/><path d="M329.07,84.37h121.66v12.4h-121.66v-12.4" fill-rule="evenodd"/><path d="M1090.71,421.37h121.66v12.4h-121.66v-12.4" fill-rule="evenodd"/><path d="M787.11,764.57h155.16v12.4h-155.16v-12.4" fill-rule="evenodd"/><path d="M1627.03,78.17h121.66v12.4h-121.66v-12.4" fill-rule="evenodd"/><path d="M2031.13,427.57h121.66v12.4h-121.66v-12.4" fill-rule="evenodd"/><path d="M1016.13,770.77h155.16v12.4h-155.16v-12.4" fill-rule="evenodd"/><path d="M1269.48,59.57h121.67v12.4h-121.67v-12.4" fill-rule="evenodd"/><path d="M2388.68,59.57h121.66v12.4h-121.66v-12.4" fill-rule="evenodd"/><path d="M1281.86,764.57h155.16v12.4h-155.16v-12.4" fill-rule="evenodd"/><path d="M1090.71,78.17h121.66v12.4h-121.66v-12.4" fill-rule="evenodd"/><path d="M2209.9,421.37h121.66v12.4h-121.66v-12.4" fill-rule="evenodd"/><path d="M865.39,84.37h121.66v12.4h-121.66v-12.4" fill-rule="evenodd"/><path d="M2209.9,47.17h121.66v12.4h-121.66v-12.4" fill-rule="evenodd"/><path d="M1627.03,421.37h121.66v12.4h-121.66v-12.4" fill-rule="evenodd"/><path d="M1852.35,59.57h121.66v12.4h-121.66v-12.4" fill-rule="evenodd"/><path d="M1739.9,745.97h155.16v12.4h-155.16v-12.4" fill-rule="evenodd"/><path d="M2388.68,446.17h121.66v12.4h-121.66v-12.4" fill-rule="evenodd"/><path d="M1968.93,764.57h155.16v12.4h-155.16v-12.4" fill-rule="evenodd"/><path d="M507.84,78.17h121.66v12.4h-121.66v-12.4" fill-rule="evenodd"/><path d="M1852.35,446.17h121.66v12.4h-121.66v-12.4" fill-rule="evenodd"/><path d="M1510.88,739.77h155.16v12.4h-155.16v-12.4" fill-rule="evenodd"/><path d="M329.07,770.77h155.16v12.4h-155.16v-12.4" fill-rule="evenodd"/><path d="M686.62,402.77h121.67v12.4h-121.67v-12.4" fill-rule="evenodd"/><path d="M329.07,427.57h121.66v12.4h-121.66v-12.4" fill-rule="evenodd"/><path d="M2031.13,53.37h121.66v12.4h-121.66v-12.4" fill-rule="evenodd"/><path d="M1448.26,53.37h121.66v12.4h-121.66v-12.4" fill-rule="evenodd"/><path d="M1269.48,402.77h121.67v12.4h-121.67v-12.4" fill-rule="evenodd"/><path d="M867.75,714.1c2.12-.68,2.97-1.05,4.04-1.77,2.13-1.39,3.43-3.86,3.43-6.39,0-4.27-3.43-7.14-8.46-7.14s-9.04,3.05-9.04,6.75c0,1.84,1.12,3.09,2.82,3.09,1.49,0,2.58-1.08,2.58-2.56,0-.77-.23-1.3-.95-2.02-.45-.4-.63-.73-.63-1.04,0-1.08,2.25-2.21,4.36-2.21,3.02,0,4.82,1.68,4.82,4.46,0,4.01-2.83,7.78-5.85,7.78-.14,0-.55-.03-1.03-.08q-1.31-.09-1.58-.09c-1,0-1.53,.45-1.53,1.26,0,.72,.5,1.16,1.3,1.16,.23,0,.54-.03,.9-.08,.63-.14,1.32-.19,1.71-.19,2.12,0,3.56,1.89,3.56,4.69,0,4.86-2.39,9.53-7.83,9.53-2.51,0-4.69-1.25-4.69-2.7,0-.49,.19-.67,.91-.99,1.3-.57,1.84-1.39,1.84-2.6,0-1.58-1.26-2.79-2.87-2.79-1.94,0-3.2,1.52-3.2,3.86,0,4.38,3.32,7.11,8.73,7.11,6.8,0,11.97-4.54,11.97-10.58,0-3.5-2.16-5.48-5.31-6.46"/><path d="M1512.15,364.7c2.12-.68,2.96-1.05,4.04-1.77,2.13-1.39,3.42-3.86,3.42-6.39,0-4.27-3.42-7.14-8.45-7.14s-9.05,3.05-9.05,6.75c0,1.84,1.13,3.09,2.83,3.09,1.49,0,2.58-1.08,2.58-2.56,0-.77-.23-1.3-.95-2.02-.46-.4-.63-.73-.63-1.04,0-1.08,2.25-2.21,4.36-2.21,3.02,0,4.81,1.68,4.81,4.46,0,4.01-2.82,7.78-5.84,7.78-.14,0-.55-.03-1.03-.08q-1.31-.09-1.58-.09c-1,0-1.53,.45-1.53,1.26,0,.72,.5,1.16,1.3,1.16,.23,0,.54-.03,.9-.08,.63-.14,1.32-.19,1.71-.19,2.12,0,3.56,1.89,3.56,4.69,0,4.86-2.39,9.53-7.83,9.53-2.52,0-4.69-1.25-4.69-2.7,0-.49,.19-.67,.91-.99,1.3-.57,1.84-1.39,1.84-2.61,0-1.57-1.26-2.78-2.87-2.78-1.94,0-3.21,1.52-3.21,3.86,0,4.38,3.33,7.11,8.74,7.11,6.8,0,11.97-4.54,11.97-10.58,0-3.5-2.16-5.48-5.31-6.46"/><path d="M1690.92,27.7c2.12-.68,2.97-1.05,4.05-1.77,2.12-1.39,3.42-3.86,3.42-6.39,0-4.27-3.42-7.14-8.45-7.14s-9.05,3.05-9.05,6.75c0,1.84,1.12,3.09,2.83,3.09,1.48,0,2.57-1.08,2.57-2.56,0-.77-.23-1.3-.95-2.02-.45-.4-.62-.73-.62-1.04,0-1.08,2.25-2.21,4.36-2.21,3.01,0,4.81,1.68,4.81,4.46,0,4.01-2.83,7.78-5.85,7.78-.14,0-.54-.03-1.03-.08q-1.31-.09-1.57-.09c-1,0-1.54,.45-1.54,1.26,0,.72,.5,1.16,1.3,1.16,.24,0,.55-.03,.91-.08,.62-.14,1.31-.19,1.7-.19,2.13,0,3.56,1.89,3.56,4.69,0,4.86-2.39,9.53-7.83,9.53-2.51,0-4.68-1.25-4.68-2.7,0-.49,.18-.67,.9-.99,1.3-.57,1.85-1.39,1.85-2.61,0-1.57-1.27-2.78-2.88-2.78-1.94,0-3.2,1.52-3.2,3.86,0,4.38,3.33,7.11,8.73,7.11,6.8,0,11.97-4.54,11.97-10.58,0-3.5-2.15-5.48-5.31-6.46"/><path d="M2095.01,370.9c2.13-.68,2.97-1.05,4.05-1.77,2.13-1.39,3.42-3.86,3.42-6.39,0-4.27-3.42-7.14-8.45-7.14s-9.05,3.05-9.05,6.75c0,1.84,1.13,3.09,2.83,3.09,1.49,0,2.58-1.08,2.58-2.56,0-.77-.24-1.3-.95-2.02-.46-.4-.63-.73-.63-1.04,0-1.08,2.25-2.21,4.36-2.21,3.02,0,4.81,1.68,4.81,4.46,0,4.01-2.83,7.78-5.84,7.78-.14,0-.55-.03-1.03-.08q-1.31-.09-1.58-.09c-1,0-1.53,.45-1.53,1.26,0,.72,.5,1.16,1.3,1.16,.23,0,.54-.03,.9-.08,.63-.14,1.31-.19,1.7-.19,2.13,0,3.57,1.89,3.57,4.69,0,4.86-2.39,9.53-7.83,9.53-2.52,0-4.69-1.25-4.69-2.7,0-.49,.19-.67,.91-.99,1.29-.57,1.84-1.39,1.84-2.61,0-1.57-1.26-2.78-2.87-2.78-1.94,0-3.21,1.52-3.21,3.86,0,4.38,3.33,7.11,8.74,7.11,6.79,0,11.97-4.54,11.97-10.58,0-3.5-2.16-5.48-5.32-6.46"/><path d="M1096.77,714.1c2.12-.68,2.97-1.05,4.05-1.77,2.12-1.39,3.42-3.86,3.42-6.39,0-4.27-3.42-7.14-8.46-7.14s-9.04,3.05-9.04,6.75c0,1.84,1.12,3.09,2.83,3.09,1.48,0,2.57-1.08,2.57-2.56,0-.77-.23-1.3-.95-2.02-.45-.4-.62-.73-.62-1.04,0-1.08,2.25-2.21,4.36-2.21,3.01,0,4.81,1.68,4.81,4.46,0,4.01-2.83,7.78-5.85,7.78-.14,0-.54-.03-1.03-.08q-1.31-.09-1.58-.09c-1,0-1.53,.45-1.53,1.26,0,.72,.5,1.16,1.3,1.16,.23,0,.55-.03,.91-.08,.62-.14,1.31-.19,1.7-.19,2.12,0,3.56,1.89,3.56,4.69,0,4.86-2.39,9.53-7.83,9.53-2.51,0-4.68-1.25-4.68-2.7,0-.49,.18-.67,.9-.99,1.3-.57,1.85-1.39,1.85-2.6,0-1.58-1.27-2.79-2.88-2.79-1.94,0-3.2,1.52-3.2,3.86,0,4.38,3.33,7.11,8.73,7.11,6.8,0,11.97-4.54,11.97-10.58,0-3.5-2.15-5.48-5.31-6.46"/><path d="M1154.6,370.9c2.12-.68,2.96-1.05,4.04-1.77,2.13-1.39,3.42-3.86,3.42-6.39,0-4.27-3.42-7.14-8.45-7.14s-9.05,3.05-9.05,6.75c0,1.84,1.13,3.09,2.83,3.09,1.49,0,2.58-1.08,2.58-2.56,0-.77-.23-1.3-.95-2.02-.46-.4-.63-.73-.63-1.04,0-1.08,2.25-2.21,4.36-2.21,3.02,0,4.81,1.68,4.81,4.46,0,4.01-2.82,7.78-5.84,7.78-.14,0-.55-.03-1.03-.08q-1.31-.09-1.58-.09c-1,0-1.53,.45-1.53,1.26,0,.72,.5,1.16,1.3,1.16,.23,0,.54-.03,.9-.08,.63-.14,1.32-.19,1.71-.19,2.12,0,3.56,1.89,3.56,4.69,0,4.86-2.39,9.53-7.83,9.53-2.51,0-4.69-1.25-4.69-2.7,0-.49,.19-.67,.91-.99,1.3-.57,1.84-1.39,1.84-2.61,0-1.57-1.26-2.78-2.87-2.78-1.94,0-3.2,1.52-3.2,3.86,0,4.38,3.32,7.11,8.73,7.11,6.8,0,11.97-4.54,11.97-10.58,0-3.5-2.16-5.48-5.31-6.46"/><path d="M1333.37,27.7c2.13-.68,2.97-1.05,4.05-1.77,2.12-1.39,3.42-3.86,3.42-6.39,0-4.27-3.42-7.14-8.45-7.14s-9.05,3.05-9.05,6.75c0,1.84,1.12,3.09,2.83,3.09,1.48,0,2.58-1.08,2.58-2.56,0-.77-.24-1.3-.96-2.02-.45-.4-.62-.73-.62-1.04,0-1.08,2.25-2.21,4.36-2.21,3.01,0,4.81,1.68,4.81,4.46,0,4.01-2.83,7.78-5.84,7.78-.15,0-.55-.03-1.04-.08q-1.31-.09-1.57-.09c-1,0-1.54,.45-1.54,1.26,0,.72,.5,1.16,1.3,1.16,.24,0,.55-.03,.91-.08,.62-.14,1.31-.19,1.7-.19,2.13,0,3.56,1.89,3.56,4.69,0,4.86-2.39,9.53-7.82,9.53-2.52,0-4.69-1.25-4.69-2.7,0-.49,.19-.67,.9-.99,1.3-.57,1.85-1.39,1.85-2.61,0-1.57-1.27-2.78-2.88-2.78-1.93,0-3.2,1.52-3.2,3.86,0,4.38,3.33,7.11,8.73,7.11,6.8,0,11.97-4.54,11.97-10.58,0-3.5-2.15-5.48-5.31-6.46"/><path d="M929.28,370.9c2.12-.68,2.97-1.05,4.04-1.77,2.13-1.39,3.43-3.86,3.43-6.39,0-4.27-3.43-7.14-8.46-7.14s-9.04,3.05-9.04,6.75c0,1.84,1.12,3.09,2.82,3.09,1.49,0,2.58-1.08,2.58-2.56,0-.77-.23-1.3-.95-2.02-.45-.4-.63-.73-.63-1.04,0-1.08,2.25-2.21,4.36-2.21,3.02,0,4.82,1.68,4.82,4.46,0,4.01-2.83,7.78-5.85,7.78-.14,0-.55-.03-1.03-.08q-1.31-.09-1.58-.09c-1,0-1.53,.45-1.53,1.26,0,.72,.5,1.16,1.3,1.16,.23,0,.54-.03,.9-.08,.63-.14,1.32-.19,1.71-.19,2.12,0,3.56,1.89,3.56,4.69,0,4.86-2.39,9.53-7.83,9.53-2.51,0-4.69-1.25-4.69-2.7,0-.49,.19-.67,.91-.99,1.3-.57,1.84-1.39,1.84-2.61,0-1.57-1.26-2.78-2.87-2.78-1.94,0-3.2,1.52-3.2,3.86,0,4.38,3.32,7.11,8.73,7.11,6.8,0,11.97-4.54,11.97-10.58,0-3.5-2.16-5.48-5.31-6.46"/><path d="M392.95,27.7c2.12-.68,2.97-1.05,4.05-1.77,2.12-1.39,3.42-3.86,3.42-6.39,0-4.27-3.42-7.14-8.45-7.14s-9.05,3.05-9.05,6.75c0,1.84,1.12,3.09,2.83,3.09,1.48,0,2.58-1.08,2.58-2.56,0-.77-.23-1.3-.95-2.02-.45-.4-.62-.73-.62-1.04,0-1.08,2.25-2.21,4.36-2.21,3.02,0,4.81,1.68,4.81,4.46,0,4.01-2.83,7.78-5.84,7.78-.14,0-.55-.03-1.03-.08q-1.31-.09-1.58-.09c-1,0-1.53,.45-1.53,1.26,0,.72,.5,1.16,1.3,1.16,.23,0,.55-.03,.91-.08,.62-.14,1.31-.19,1.7-.19,2.12,0,3.56,1.89,3.56,4.69,0,4.86-2.39,9.53-7.83,9.53-2.52,0-4.69-1.25-4.69-2.7,0-.49,.19-.67,.91-.99,1.3-.57,1.84-1.39,1.84-2.61,0-1.57-1.27-2.78-2.88-2.78-1.94,0-3.2,1.52-3.2,3.86,0,4.38,3.33,7.11,8.73,7.11,6.8,0,11.97-4.54,11.97-10.58,0-3.5-2.16-5.48-5.31-6.46"/><path d="M1362.5,714.1c2.12-.68,2.96-1.05,4.04-1.77,2.13-1.39,3.42-3.86,3.42-6.39,0-4.27-3.42-7.14-8.45-7.14s-9.05,3.05-9.05,6.75c0,1.84,1.13,3.09,2.83,3.09,1.49,0,2.58-1.08,2.58-2.56,0-.77-.23-1.3-.95-2.02-.46-.4-.63-.73-.63-1.04,0-1.08,2.25-2.21,4.36-2.21,3.02,0,4.81,1.68,4.81,4.46,0,4.01-2.82,7.78-5.84,7.78-.14,0-.55-.03-1.03-.08q-1.31-.09-1.58-.09c-1,0-1.53,.45-1.53,1.26,0,.72,.5,1.16,1.3,1.16,.23,0,.54-.03,.9-.08,.63-.14,1.32-.19,1.71-.19,2.12,0,3.56,1.89,3.56,4.69,0,4.86-2.39,9.53-7.83,9.53-2.52,0-4.69-1.25-4.69-2.7,0-.49,.19-.67,.91-.99,1.3-.57,1.84-1.39,1.84-2.6,0-1.58-1.26-2.79-2.87-2.79-1.94,0-3.21,1.52-3.21,3.86,0,4.38,3.33,7.11,8.74,7.11,6.8,0,11.97-4.54,11.97-10.58,0-3.5-2.16-5.48-5.31-6.46"/><path d="M2273.79,370.9c2.12-.68,2.97-1.05,4.05-1.77,2.12-1.39,3.42-3.86,3.42-6.39,0-4.27-3.42-7.14-8.46-7.14s-9.04,3.05-9.04,6.75c0,1.84,1.12,3.09,2.83,3.09,1.48,0,2.57-1.08,2.57-2.56,0-.77-.23-1.3-.95-2.02-.45-.4-.62-.73-.62-1.04,0-1.08,2.25-2.21,4.36-2.21,3.01,0,4.81,1.68,4.81,4.46,0,4.01-2.83,7.78-5.85,7.78-.14,0-.54-.03-1.03-.08q-1.31-.09-1.58-.09c-1,0-1.53,.45-1.53,1.26,0,.72,.5,1.16,1.3,1.16,.23,0,.55-.03,.91-.08,.62-.14,1.31-.19,1.7-.19,2.12,0,3.56,1.89,3.56,4.69,0,4.86-2.39,9.53-7.83,9.53-2.51,0-4.68-1.25-4.68-2.7,0-.49,.18-.67,.9-.99,1.3-.57,1.85-1.39,1.85-2.61,0-1.57-1.27-2.78-2.88-2.78-1.94,0-3.2,1.52-3.2,3.86,0,4.38,3.33,7.11,8.73,7.11,6.8,0,11.97-4.54,11.97-10.58,0-3.5-2.15-5.48-5.31-6.46"/><path d="M1591.52,707.9c2.12-.68,2.97-1.05,4.04-1.77,2.13-1.39,3.43-3.86,3.43-6.39,0-4.27-3.43-7.14-8.46-7.14s-9.04,3.05-9.04,6.75c0,1.84,1.12,3.09,2.82,3.09,1.49,0,2.58-1.08,2.58-2.56,0-.77-.23-1.3-.95-2.02-.45-.4-.63-.73-.63-1.04,0-1.08,2.25-2.21,4.36-2.21,3.02,0,4.82,1.68,4.82,4.46,0,4.01-2.83,7.78-5.85,7.78-.14,0-.54-.03-1.03-.08q-1.31-.09-1.58-.09c-1,0-1.53,.45-1.53,1.26,0,.72,.5,1.16,1.3,1.16,.23,0,.55-.03,.91-.08,.62-.14,1.31-.19,1.7-.19,2.12,0,3.56,1.89,3.56,4.69,0,4.86-2.39,9.53-7.83,9.53-2.51,0-4.68-1.25-4.68-2.7,0-.49,.18-.67,.9-.99,1.3-.57,1.85-1.39,1.85-2.6,0-1.58-1.27-2.79-2.88-2.79-1.94,0-3.2,1.52-3.2,3.86,0,4.38,3.33,7.11,8.73,7.11,6.8,0,11.97-4.54,11.97-10.58,0-3.5-2.16-5.48-5.31-6.46"/><path d="M1154.6,27.7c2.12-.68,2.96-1.05,4.04-1.77,2.13-1.39,3.42-3.86,3.42-6.39,0-4.27-3.42-7.14-8.45-7.14s-9.05,3.05-9.05,6.75c0,1.84,1.13,3.09,2.83,3.09,1.49,0,2.58-1.08,2.58-2.56,0-.77-.23-1.3-.95-2.02-.46-.4-.63-.73-.63-1.04,0-1.08,2.25-2.21,4.36-2.21,3.02,0,4.81,1.68,4.81,4.46,0,4.01-2.82,7.78-5.84,7.78-.14,0-.55-.03-1.03-.08q-1.31-.09-1.58-.09c-1,0-1.53,.45-1.53,1.26,0,.72,.5,1.16,1.3,1.16,.23,0,.54-.03,.9-.08,.63-.14,1.32-.19,1.71-.19,2.12,0,3.56,1.89,3.56,4.69,0,4.86-2.39,9.53-7.83,9.53-2.51,0-4.69-1.25-4.69-2.7,0-.49,.19-.67,.91-.99,1.3-.57,1.84-1.39,1.84-2.61,0-1.57-1.26-2.78-2.87-2.78-1.94,0-3.2,1.52-3.2,3.86,0,4.38,3.32,7.11,8.73,7.11,6.8,0,11.97-4.54,11.97-10.58,0-3.5-2.16-5.48-5.31-6.46"/><path d="M571.73,27.7c2.12-.68,2.97-1.05,4.05-1.77,2.12-1.39,3.42-3.86,3.42-6.39,0-4.27-3.42-7.14-8.45-7.14s-9.05,3.05-9.05,6.75c0,1.84,1.12,3.09,2.83,3.09,1.48,0,2.58-1.08,2.58-2.56,0-.77-.23-1.3-.95-2.02-.45-.4-.62-.73-.62-1.04,0-1.08,2.25-2.21,4.36-2.21,3.02,0,4.81,1.68,4.81,4.46,0,4.01-2.83,7.78-5.84,7.78-.14,0-.55-.03-1.03-.08q-1.31-.09-1.58-.09c-1,0-1.53,.45-1.53,1.26,0,.72,.5,1.16,1.3,1.16,.24,0,.55-.03,.91-.08,.62-.14,1.31-.19,1.7-.19,2.12,0,3.56,1.89,3.56,4.69,0,4.86-2.39,9.53-7.83,9.53-2.52,0-4.69-1.25-4.69-2.7,0-.49,.19-.67,.91-.99,1.3-.57,1.84-1.39,1.84-2.61,0-1.57-1.26-2.78-2.88-2.78-1.94,0-3.2,1.52-3.2,3.86,0,4.38,3.33,7.11,8.74,7.11,6.8,0,11.97-4.54,11.97-10.58,0-3.5-2.16-5.48-5.31-6.46"/><path d="M2095.01,21.5c2.13-.68,2.97-1.05,4.05-1.77,2.13-1.39,3.42-3.86,3.42-6.39,0-4.27-3.42-7.14-8.45-7.14s-9.05,3.05-9.05,6.75c0,1.84,1.13,3.09,2.83,3.09,1.49,0,2.58-1.08,2.58-2.56,0-.77-.24-1.3-.95-2.02-.46-.4-.63-.73-.63-1.04,0-1.08,2.25-2.21,4.36-2.21,3.02,0,4.81,1.68,4.81,4.46,0,4.01-2.83,7.78-5.84,7.78-.14,0-.55-.03-1.03-.08q-1.31-.09-1.58-.09c-1,0-1.53,.45-1.53,1.26,0,.72,.5,1.16,1.3,1.16,.23,0,.54-.03,.9-.08,.63-.14,1.31-.19,1.7-.19,2.13,0,3.57,1.89,3.57,4.69,0,4.86-2.39,9.53-7.83,9.53-2.52,0-4.69-1.25-4.69-2.7,0-.49,.19-.67,.91-.99,1.29-.57,1.84-1.39,1.84-2.61,0-1.57-1.26-2.78-2.87-2.78-1.94,0-3.21,1.52-3.21,3.86,0,4.38,3.33,7.11,8.74,7.11,6.79,0,11.97-4.54,11.97-10.58,0-3.5-2.16-5.48-5.32-6.46"/><path d="M1820.54,714.1c2.13-.68,2.97-1.05,4.05-1.77,2.12-1.39,3.42-3.86,3.42-6.39,0-4.27-3.42-7.14-8.45-7.14s-9.05,3.05-9.05,6.75c0,1.84,1.12,3.09,2.83,3.09,1.48,0,2.58-1.08,2.58-2.56,0-.77-.24-1.3-.96-2.02-.45-.4-.62-.73-.62-1.04,0-1.08,2.25-2.21,4.36-2.21,3.01,0,4.81,1.68,4.81,4.46,0,4.01-2.83,7.78-5.84,7.78-.15,0-.55-.03-1.04-.08q-1.31-.09-1.57-.09c-1,0-1.54,.45-1.54,1.26,0,.72,.5,1.16,1.3,1.16,.24,0,.55-.03,.91-.08,.62-.14,1.31-.19,1.7-.19,2.13,0,3.56,1.89,3.56,4.69,0,4.86-2.39,9.53-7.82,9.53-2.52,0-4.69-1.25-4.69-2.7,0-.49,.19-.67,.9-.99,1.3-.57,1.85-1.39,1.85-2.6,0-1.58-1.27-2.79-2.88-2.79-1.93,0-3.2,1.52-3.2,3.86,0,4.38,3.33,7.11,8.73,7.11,6.8,0,11.97-4.54,11.97-10.58,0-3.5-2.15-5.48-5.31-6.46"/><path d="M1916.24,27.7c2.12-.68,2.97-1.05,4.05-1.77,2.12-1.39,3.42-3.86,3.42-6.39,0-4.27-3.42-7.14-8.45-7.14s-9.05,3.05-9.05,6.75c0,1.84,1.12,3.09,2.83,3.09,1.48,0,2.57-1.08,2.57-2.56,0-.77-.23-1.3-.95-2.02-.45-.4-.62-.73-.62-1.04,0-1.08,2.25-2.21,4.36-2.21,3.01,0,4.81,1.68,4.81,4.46,0,4.01-2.83,7.78-5.85,7.78-.14,0-.54-.03-1.03-.08q-1.31-.09-1.57-.09c-1,0-1.54,.45-1.54,1.26,0,.72,.5,1.16,1.3,1.16,.24,0,.55-.03,.91-.08,.62-.14,1.31-.19,1.7-.19,2.13,0,3.56,1.89,3.56,4.69,0,4.86-2.39,9.53-7.83,9.53-2.51,0-4.68-1.25-4.68-2.7,0-.49,.18-.67,.9-.99,1.3-.57,1.85-1.39,1.85-2.61,0-1.57-1.27-2.78-2.88-2.78-1.94,0-3.2,1.52-3.2,3.86,0,4.38,3.33,7.11,8.73,7.11,6.8,0,11.97-4.54,11.97-10.58,0-3.5-2.15-5.48-5.31-6.46"/><path d="M1690.92,370.9c2.12-.68,2.97-1.05,4.05-1.77,2.12-1.39,3.42-3.86,3.42-6.39,0-4.27-3.42-7.14-8.45-7.14s-9.05,3.05-9.05,6.75c0,1.84,1.12,3.09,2.83,3.09,1.48,0,2.57-1.08,2.57-2.56,0-.77-.23-1.3-.95-2.02-.45-.4-.62-.73-.62-1.04,0-1.08,2.25-2.21,4.36-2.21,3.01,0,4.81,1.68,4.81,4.46,0,4.01-2.83,7.78-5.85,7.78-.14,0-.54-.03-1.03-.08q-1.31-.09-1.57-.09c-1,0-1.54,.45-1.54,1.26,0,.72,.5,1.16,1.3,1.16,.24,0,.55-.03,.91-.08,.62-.14,1.31-.19,1.7-.19,2.13,0,3.56,1.89,3.56,4.69,0,4.86-2.39,9.53-7.83,9.53-2.51,0-4.68-1.25-4.68-2.7,0-.49,.18-.67,.9-.99,1.3-.57,1.85-1.39,1.85-2.61,0-1.57-1.27-2.78-2.88-2.78-1.94,0-3.2,1.52-3.2,3.86,0,4.38,3.33,7.11,8.73,7.11,6.8,0,11.97-4.54,11.97-10.58,0-3.5-2.15-5.48-5.31-6.46"/><path d="M2273.79,15.3c2.12-.68,2.97-1.05,4.05-1.77,2.12-1.39,3.42-3.86,3.42-6.39,0-4.27-3.42-7.14-8.46-7.14s-9.04,3.05-9.04,6.75c0,1.84,1.12,3.09,2.83,3.09,1.48,0,2.57-1.08,2.57-2.56,0-.77-.23-1.3-.95-2.02-.45-.4-.62-.73-.62-1.04,0-1.08,2.25-2.21,4.36-2.21,3.01,0,4.81,1.68,4.81,4.46,0,4.01-2.83,7.78-5.85,7.78-.14,0-.54-.03-1.03-.08q-1.31-.09-1.58-.09c-1,0-1.53,.45-1.53,1.26,0,.72,.5,1.16,1.3,1.16,.23,0,.55-.03,.91-.08,.62-.14,1.31-.19,1.7-.19,2.12,0,3.56,1.89,3.56,4.69,0,4.86-2.39,9.53-7.83,9.53-2.51,0-4.68-1.25-4.68-2.7,0-.49,.18-.67,.9-.99,1.3-.57,1.85-1.39,1.85-2.61,0-1.57-1.27-2.78-2.88-2.78-1.94,0-3.2,1.52-3.2,3.86,0,4.38,3.33,7.11,8.73,7.11,6.8,0,11.97-4.54,11.97-10.58,0-3.5-2.15-5.48-5.31-6.46"/><path d="M2452.56,370.9c2.13-.68,2.97-1.05,4.05-1.77,2.13-1.39,3.42-3.86,3.42-6.39,0-4.27-3.42-7.14-8.45-7.14s-9.05,3.05-9.05,6.75c0,1.84,1.13,3.09,2.83,3.09,1.48,0,2.58-1.08,2.58-2.56,0-.77-.24-1.3-.95-2.02-.46-.4-.63-.73-.63-1.04,0-1.08,2.25-2.21,4.36-2.21,3.02,0,4.81,1.68,4.81,4.46,0,4.01-2.83,7.78-5.84,7.78-.14,0-.55-.03-1.03-.08q-1.32-.09-1.58-.09c-1,0-1.53,.45-1.53,1.26,0,.72,.5,1.16,1.29,1.16,.24,0,.55-.03,.91-.08,.63-.14,1.31-.19,1.7-.19,2.13,0,3.57,1.89,3.57,4.69,0,4.86-2.39,9.53-7.83,9.53-2.52,0-4.69-1.25-4.69-2.7,0-.49,.19-.67,.91-.99,1.29-.57,1.84-1.39,1.84-2.61,0-1.57-1.26-2.78-2.87-2.78-1.94,0-3.21,1.52-3.21,3.86,0,4.38,3.33,7.11,8.74,7.11,6.79,0,11.97-4.54,11.97-10.58,0-3.5-2.16-5.48-5.32-6.46"/><path d="M2452.56,27.7c2.13-.68,2.97-1.05,4.05-1.77,2.13-1.39,3.42-3.86,3.42-6.39,0-4.27-3.42-7.14-8.45-7.14s-9.05,3.05-9.05,6.75c0,1.84,1.13,3.09,2.83,3.09,1.48,0,2.58-1.08,2.58-2.56,0-.77-.24-1.3-.95-2.02-.46-.4-.63-.73-.63-1.04,0-1.08,2.25-2.21,4.36-2.21,3.02,0,4.81,1.68,4.81,4.46,0,4.01-2.83,7.78-5.84,7.78-.14,0-.55-.03-1.03-.08q-1.32-.09-1.58-.09c-1,0-1.53,.45-1.53,1.26,0,.72,.5,1.16,1.29,1.16,.24,0,.55-.03,.91-.08,.63-.14,1.31-.19,1.7-.19,2.13,0,3.57,1.89,3.57,4.69,0,4.86-2.39,9.53-7.83,9.53-2.52,0-4.69-1.25-4.69-2.7,0-.49,.19-.67,.91-.99,1.29-.57,1.84-1.39,1.84-2.61,0-1.57-1.26-2.78-2.87-2.78-1.94,0-3.21,1.52-3.21,3.86,0,4.38,3.33,7.11,8.74,7.11,6.79,0,11.97-4.54,11.97-10.58,0-3.5-2.16-5.48-5.32-6.46"/><path d="M392.95,370.9c2.12-.68,2.97-1.05,4.05-1.77,2.12-1.39,3.42-3.86,3.42-6.39,0-4.27-3.42-7.14-8.45-7.14s-9.05,3.05-9.05,6.75c0,1.84,1.12,3.09,2.83,3.09,1.48,0,2.58-1.08,2.58-2.56,0-.77-.23-1.3-.95-2.02-.45-.4-.62-.73-.62-1.04,0-1.08,2.25-2.21,4.36-2.21,3.02,0,4.81,1.68,4.81,4.46,0,4.01-2.83,7.78-5.84,7.78-.14,0-.55-.03-1.03-.08q-1.31-.09-1.58-.09c-1,0-1.53,.45-1.53,1.26,0,.72,.5,1.16,1.3,1.16,.23,0,.55-.03,.91-.08,.62-.14,1.31-.19,1.7-.19,2.12,0,3.56,1.89,3.56,4.69,0,4.86-2.39,9.53-7.83,9.53-2.52,0-4.69-1.25-4.69-2.7,0-.49,.19-.67,.91-.99,1.3-.57,1.84-1.39,1.84-2.61,0-1.57-1.27-2.78-2.88-2.78-1.94,0-3.2,1.52-3.2,3.86,0,4.38,3.33,7.11,8.73,7.11,6.8,0,11.97-4.54,11.97-10.58,0-3.5-2.16-5.48-5.31-6.46"/><path d="M2049.56,714.1c2.13-.68,2.97-1.05,4.05-1.77,2.12-1.39,3.42-3.86,3.42-6.39,0-4.27-3.42-7.14-8.45-7.14s-9.05,3.05-9.05,6.75c0,1.84,1.13,3.09,2.83,3.09,1.48,0,2.58-1.08,2.58-2.56,0-.77-.24-1.3-.96-2.02-.45-.4-.62-.73-.62-1.04,0-1.08,2.25-2.21,4.36-2.21,3.01,0,4.81,1.68,4.81,4.46,0,4.01-2.83,7.78-5.84,7.78-.14,0-.55-.03-1.03-.08q-1.32-.09-1.58-.09c-1,0-1.53,.45-1.53,1.26,0,.72,.5,1.16,1.29,1.16,.24,0,.55-.03,.91-.08,.63-.14,1.31-.19,1.7-.19,2.13,0,3.57,1.89,3.57,4.69,0,4.86-2.39,9.53-7.83,9.53-2.52,0-4.69-1.25-4.69-2.7,0-.49,.19-.67,.91-.99,1.29-.57,1.84-1.39,1.84-2.6,0-1.58-1.27-2.79-2.87-2.79-1.94,0-3.21,1.52-3.21,3.86,0,4.38,3.33,7.11,8.74,7.11,6.79,0,11.97-4.54,11.97-10.58,0-3.5-2.16-5.48-5.32-6.46"/><path d="M750.5,27.7c2.12-.68,2.97-1.05,4.05-1.77,2.12-1.39,3.42-3.86,3.42-6.39,0-4.27-3.42-7.14-8.45-7.14s-9.05,3.05-9.05,6.75c0,1.84,1.12,3.09,2.83,3.09,1.48,0,2.58-1.08,2.58-2.56,0-.77-.23-1.3-.95-2.02-.45-.4-.62-.73-.62-1.04,0-1.08,2.25-2.21,4.36-2.21,3.02,0,4.81,1.68,4.81,4.46,0,4.01-2.83,7.78-5.84,7.78-.14,0-.55-.03-1.03-.08q-1.31-.09-1.58-.09c-1,0-1.53,.45-1.53,1.26,0,.72,.5,1.16,1.3,1.16,.23,0,.55-.03,.91-.08,.62-.14,1.31-.19,1.7-.19,2.12,0,3.56,1.89,3.56,4.69,0,4.86-2.39,9.53-7.83,9.53-2.52,0-4.69-1.25-4.69-2.7,0-.49,.19-.67,.91-.99,1.3-.57,1.84-1.39,1.84-2.61,0-1.57-1.27-2.78-2.88-2.78-1.94,0-3.2,1.52-3.2,3.86,0,4.38,3.33,7.11,8.73,7.11,6.8,0,11.97-4.54,11.97-10.58,0-3.5-2.16-5.48-5.31-6.46"/><path d="M929.28,27.7c2.12-.68,2.97-1.05,4.04-1.77,2.13-1.39,3.43-3.86,3.43-6.39,0-4.27-3.43-7.14-8.46-7.14s-9.04,3.05-9.04,6.75c0,1.84,1.12,3.09,2.82,3.09,1.49,0,2.58-1.08,2.58-2.56,0-.77-.23-1.3-.95-2.02-.45-.4-.63-.73-.63-1.04,0-1.08,2.25-2.21,4.36-2.21,3.02,0,4.82,1.68,4.82,4.46,0,4.01-2.83,7.78-5.85,7.78-.14,0-.55-.03-1.03-.08q-1.31-.09-1.58-.09c-1,0-1.53,.45-1.53,1.26,0,.72,.5,1.16,1.3,1.16,.23,0,.54-.03,.9-.08,.63-.14,1.32-.19,1.71-.19,2.12,0,3.56,1.89,3.56,4.69,0,4.86-2.39,9.53-7.83,9.53-2.51,0-4.69-1.25-4.69-2.7,0-.49,.19-.67,.91-.99,1.3-.57,1.84-1.39,1.84-2.61,0-1.57-1.26-2.78-2.87-2.78-1.94,0-3.2,1.52-3.2,3.86,0,4.38,3.32,7.11,8.73,7.11,6.8,0,11.97-4.54,11.97-10.58,0-3.5-2.16-5.48-5.31-6.46"/><path d="M750.5,370.9c2.12-.68,2.97-1.05,4.05-1.77,2.12-1.39,3.42-3.86,3.42-6.39,0-4.27-3.42-7.14-8.45-7.14s-9.05,3.05-9.05,6.75c0,1.84,1.12,3.09,2.83,3.09,1.48,0,2.58-1.08,2.58-2.56,0-.77-.23-1.3-.95-2.02-.45-.4-.62-.73-.62-1.04,0-1.08,2.25-2.21,4.36-2.21,3.02,0,4.81,1.68,4.81,4.46,0,4.01-2.83,7.78-5.84,7.78-.14,0-.55-.03-1.03-.08q-1.31-.09-1.58-.09c-1,0-1.53,.45-1.53,1.26,0,.72,.5,1.16,1.3,1.16,.23,0,.55-.03,.91-.08,.62-.14,1.31-.19,1.7-.19,2.12,0,3.56,1.89,3.56,4.69,0,4.86-2.39,9.53-7.83,9.53-2.52,0-4.69-1.25-4.69-2.7,0-.49,.19-.67,.91-.99,1.3-.57,1.84-1.39,1.84-2.61,0-1.57-1.27-2.78-2.88-2.78-1.94,0-3.2,1.52-3.2,3.86,0,4.38,3.33,7.11,8.73,7.11,6.8,0,11.97-4.54,11.97-10.58,0-3.5-2.16-5.48-5.31-6.46"/><path d="M571.73,370.9c2.12-.68,2.97-1.05,4.05-1.77,2.12-1.39,3.42-3.86,3.42-6.39,0-4.27-3.42-7.14-8.45-7.14s-9.05,3.05-9.05,6.75c0,1.84,1.12,3.09,2.83,3.09,1.48,0,2.58-1.08,2.58-2.56,0-.77-.23-1.3-.95-2.02-.45-.4-.62-.73-.62-1.04,0-1.08,2.25-2.21,4.36-2.21,3.02,0,4.81,1.68,4.81,4.46,0,4.01-2.83,7.78-5.84,7.78-.14,0-.55-.03-1.03-.08q-1.31-.09-1.58-.09c-1,0-1.53,.45-1.53,1.26,0,.72,.5,1.16,1.3,1.16,.24,0,.55-.03,.91-.08,.62-.14,1.31-.19,1.7-.19,2.12,0,3.56,1.89,3.56,4.69,0,4.86-2.39,9.53-7.83,9.53-2.52,0-4.69-1.25-4.69-2.7,0-.49,.19-.67,.91-.99,1.3-.57,1.84-1.39,1.84-2.61,0-1.57-1.26-2.78-2.88-2.78-1.94,0-3.2,1.52-3.2,3.86,0,4.38,3.33,7.11,8.74,7.11,6.8,0,11.97-4.54,11.97-10.58,0-3.5-2.16-5.48-5.31-6.46"/><path d="M1333.37,370.9c2.13-.68,2.97-1.05,4.05-1.77,2.12-1.39,3.42-3.86,3.42-6.39,0-4.27-3.42-7.14-8.45-7.14s-9.05,3.05-9.05,6.75c0,1.84,1.12,3.09,2.83,3.09,1.48,0,2.58-1.08,2.58-2.56,0-.77-.24-1.3-.96-2.02-.45-.4-.62-.73-.62-1.04,0-1.08,2.25-2.21,4.36-2.21,3.01,0,4.81,1.68,4.81,4.46,0,4.01-2.83,7.78-5.84,7.78-.15,0-.55-.03-1.04-.08q-1.31-.09-1.57-.09c-1,0-1.54,.45-1.54,1.26,0,.72,.5,1.16,1.3,1.16,.24,0,.55-.03,.91-.08,.62-.14,1.31-.19,1.7-.19,2.13,0,3.56,1.89,3.56,4.69,0,4.86-2.39,9.53-7.82,9.53-2.52,0-4.69-1.25-4.69-2.7,0-.49,.19-.67,.9-.99,1.3-.57,1.85-1.39,1.85-2.61,0-1.57-1.27-2.78-2.88-2.78-1.93,0-3.2,1.52-3.2,3.86,0,4.38,3.33,7.11,8.73,7.11,6.8,0,11.97-4.54,11.97-10.58,0-3.5-2.15-5.48-5.31-6.46"/><path d="M409.7,714.1c2.12-.68,2.97-1.05,4.05-1.77,2.12-1.39,3.42-3.86,3.42-6.39,0-4.27-3.42-7.14-8.45-7.14s-9.05,3.05-9.05,6.75c0,1.84,1.12,3.09,2.83,3.09,1.48,0,2.58-1.08,2.58-2.56,0-.77-.23-1.3-.95-2.02-.45-.4-.62-.73-.62-1.04,0-1.08,2.25-2.21,4.36-2.21,3.02,0,4.81,1.68,4.81,4.46,0,4.01-2.83,7.78-5.84,7.78-.14,0-.55-.03-1.03-.08q-1.31-.09-1.58-.09c-1,0-1.53,.45-1.53,1.26,0,.72,.5,1.16,1.3,1.16,.23,0,.55-.03,.91-.08,.62-.14,1.31-.19,1.7-.19,2.12,0,3.56,1.89,3.56,4.69,0,4.86-2.39,9.53-7.83,9.53-2.52,0-4.69-1.25-4.69-2.7,0-.49,.19-.67,.91-.99,1.3-.57,1.84-1.39,1.84-2.6,0-1.58-1.27-2.79-2.88-2.79-1.94,0-3.2,1.52-3.2,3.86,0,4.38,3.33,7.11,8.73,7.11,6.8,0,11.97-4.54,11.97-10.58,0-3.5-2.16-5.48-5.31-6.46"/><path d="M1512.15,21.5c2.12-.68,2.96-1.05,4.04-1.77,2.13-1.39,3.42-3.86,3.42-6.39,0-4.27-3.42-7.14-8.45-7.14s-9.05,3.05-9.05,6.75c0,1.84,1.13,3.09,2.83,3.09,1.49,0,2.58-1.08,2.58-2.56,0-.77-.23-1.3-.95-2.02-.46-.4-.63-.73-.63-1.04,0-1.08,2.25-2.21,4.36-2.21,3.02,0,4.81,1.68,4.81,4.46,0,4.01-2.82,7.78-5.84,7.78-.14,0-.55-.03-1.03-.08q-1.31-.09-1.58-.09c-1,0-1.53,.45-1.53,1.26,0,.72,.5,1.16,1.3,1.16,.23,0,.54-.03,.9-.08,.63-.14,1.32-.19,1.71-.19,2.12,0,3.56,1.89,3.56,4.69,0,4.86-2.39,9.53-7.83,9.53-2.52,0-4.69-1.25-4.69-2.7,0-.49,.19-.67,.91-.99,1.3-.57,1.84-1.39,1.84-2.61,0-1.57-1.26-2.78-2.87-2.78-1.94,0-3.21,1.52-3.21,3.86,0,4.38,3.33,7.11,8.74,7.11,6.8,0,11.97-4.54,11.97-10.58,0-3.5-2.16-5.48-5.31-6.46"/><path d="M1916.24,370.9c2.12-.68,2.97-1.05,4.05-1.77,2.12-1.39,3.42-3.86,3.42-6.39,0-4.27-3.42-7.14-8.45-7.14s-9.05,3.05-9.05,6.75c0,1.84,1.12,3.09,2.83,3.09,1.48,0,2.57-1.08,2.57-2.56,0-.77-.23-1.3-.95-2.02-.45-.4-.62-.73-.62-1.04,0-1.08,2.25-2.21,4.36-2.21,3.01,0,4.81,1.68,4.81,4.46,0,4.01-2.83,7.78-5.85,7.78-.14,0-.54-.03-1.03-.08q-1.31-.09-1.57-.09c-1,0-1.54,.45-1.54,1.26,0,.72,.5,1.16,1.3,1.16,.24,0,.55-.03,.91-.08,.62-.14,1.31-.19,1.7-.19,2.13,0,3.56,1.89,3.56,4.69,0,4.86-2.39,9.53-7.83,9.53-2.51,0-4.68-1.25-4.68-2.7,0-.49,.18-.67,.9-.99,1.3-.57,1.85-1.39,1.85-2.61,0-1.57-1.27-2.78-2.88-2.78-1.94,0-3.2,1.52-3.2,3.86,0,4.38,3.33,7.11,8.73,7.11,6.8,0,11.97-4.54,11.97-10.58,0-3.5-2.15-5.48-5.31-6.46"/><path d="M638.73,714.1c2.12-.68,2.97-1.05,4.05-1.77,2.12-1.39,3.42-3.86,3.42-6.39,0-4.27-3.42-7.14-8.45-7.14s-9.05,3.05-9.05,6.75c0,1.84,1.12,3.09,2.83,3.09,1.48,0,2.58-1.08,2.58-2.56,0-.77-.23-1.3-.95-2.02-.45-.4-.62-.73-.62-1.04,0-1.08,2.25-2.21,4.36-2.21,3.02,0,4.81,1.68,4.81,4.46,0,4.01-2.83,7.78-5.84,7.78-.14,0-.55-.03-1.03-.08q-1.31-.09-1.58-.09c-1,0-1.53,.45-1.53,1.26,0,.72,.5,1.16,1.3,1.16,.24,0,.55-.03,.91-.08,.62-.14,1.31-.19,1.7-.19,2.12,0,3.56,1.89,3.56,4.69,0,4.86-2.39,9.53-7.83,9.53-2.52,0-4.69-1.25-4.69-2.7,0-.49,.19-.67,.91-.99,1.3-.57,1.84-1.39,1.84-2.6,0-1.58-1.27-2.79-2.88-2.79-1.94,0-3.2,1.52-3.2,3.86,0,4.38,3.33,7.11,8.74,7.11,6.8,0,11.97-4.54,11.97-10.58,0-3.5-2.16-5.48-5.31-6.46"/></g></svg>