<?xml version="1.0" encoding="UTF-8"?><svg id="b" xmlns="http://www.w3.org/2000/svg" viewBox="0 0 227.17 120.48"><g id="c"><line x1="223.9" y1="8.88" x2=".9" y2="8.88" fill="none" stroke="#000" stroke-linejoin="bevel" stroke-width="2.73"/><line x1="223.9" y1="33.68" x2=".9" y2="33.68" fill="none" stroke="#000" stroke-linejoin="bevel" stroke-width="2.73"/><line x1="223.9" y1="58.48" x2=".9" y2="58.48" fill="none" stroke="#000" stroke-linejoin="bevel" stroke-width="2.73"/><line x1="223.9" y1="83.28" x2=".9" y2="83.28" fill="none" stroke="#000" stroke-linejoin="bevel" stroke-width="2.73"/><line x1="223.9" y1="108.08" x2=".9" y2="108.08" fill="none" stroke="#000" stroke-linejoin="bevel" stroke-width="2.73"/><path d="M52.83,23.76c29.14-30.85,87.42-30.85,116.56,0C140.25,.85,81.97,.85,52.83,23.76" fill-rule="evenodd" stroke="#000" stroke-linecap="round" stroke-linejoin="round" stroke-width="1.24"/><line x1="224.94" y1="7.52" x2="224.94" y2="109.44" fill="none" stroke="#000" stroke-linejoin="bevel" stroke-width="4.46"/><line x1="2.23" y1="7.52" x2="2.23" y2="109.44" fill="none" stroke="#000" stroke-linejoin="bevel" stroke-width="4.46"/><line x1="37.95" y1="50.25" x2="37.95" y2="114.28" fill="none" stroke="#000" stroke-linejoin="bevel" stroke-width="2.48"/><line x1="96.23" y1="50.25" x2="96.23" y2="114.28" fill="none" stroke="#000" stroke-linejoin="bevel" stroke-width="2.48"/><line x1="154.52" y1="50.25" x2="154.52" y2="114.28" fill="none" stroke="#000" stroke-linejoin="bevel" stroke-width="2.48"/><path d="M153.28,50.25c0,4.26,3.07,9.02,11.11,9.02,10.31,0,21.13-8.43,21.13-17.16,0-5.86-4.96-9.13-11.11-9.13-9.63,0-21.13,8.14-21.13,17.27"/><path d="M94.99,50.25c0,4.26,3.07,9.02,11.11,9.02,10.31,0,21.13-8.43,21.13-17.16,0-5.86-4.96-9.13-11.11-9.13-9.63,0-21.13,8.14-21.13,17.27"/><path d="M36.71,50.25c0,4.26,3.07,9.02,11.11,9.02,10.31,0,21.13-8.43,21.13-17.16,0-5.86-4.96-9.13-11.11-9.13-9.63,0-21.13,8.14-21.13,17.27"/><path d="M36.71,108.08h119.05v12.4H36.71v-12.4" fill-rule="evenodd"/></g></svg>