<?xml version="1.0" encoding="UTF-8"?><svg id="b" xmlns="http://www.w3.org/2000/svg" viewBox="0 0 280.75 120.21"><g id="c"><line x1="277.45" y1="8.61" x2=".45" y2="8.61" fill="none" stroke="#000" stroke-linejoin="bevel" stroke-width="2.73"/><line x1="277.45" y1="33.41" x2=".45" y2="33.41" fill="none" stroke="#000" stroke-linejoin="bevel" stroke-width="2.73"/><line x1="277.45" y1="58.21" x2=".45" y2="58.21" fill="none" stroke="#000" stroke-linejoin="bevel" stroke-width="2.73"/><line x1="277.45" y1="83.01" x2=".45" y2="83.01" fill="none" stroke="#000" stroke-linejoin="bevel" stroke-width="2.73"/><line x1="277.45" y1="107.81" x2=".45" y2="107.81" fill="none" stroke="#000" stroke-linejoin="bevel" stroke-width="2.73"/><path d="M52.82,23.49c28.36-30.49,85.08-30.49,113.44,0C137.9,.94,81.18,.94,52.82,23.49" fill-rule="evenodd" stroke="#000" stroke-linecap="round" stroke-linejoin="round" stroke-width="1.24"/><line x1="2.23" y1="7.25" x2="2.23" y2="109.17" fill="none" stroke="#000" stroke-linejoin="bevel" stroke-width="4.46"/><line x1="278.52" y1="7.25" x2="278.52" y2="109.17" fill="none" stroke="#000" stroke-linejoin="bevel" stroke-width="4.46"/><line x1="37.95" y1="49.98" x2="37.95" y2="114.01" fill="none" stroke="#000" stroke-linejoin="bevel" stroke-width="2.48"/><line x1="94.66" y1="49.98" x2="94.66" y2="114.01" fill="none" stroke="#000" stroke-linejoin="bevel" stroke-width="2.48"/><line x1="151.38" y1="49.98" x2="151.38" y2="114.01" fill="none" stroke="#000" stroke-linejoin="bevel" stroke-width="2.48"/><line x1="208.09" y1="49.98" x2="208.09" y2="114.01" fill="none" stroke="#000" stroke-linejoin="bevel" stroke-width="2.48"/><path d="M93.42,49.98c0,4.26,3.07,9.02,11.11,9.02,10.31,0,21.13-8.43,21.13-17.16,0-5.86-4.96-9.13-11.11-9.13-9.63,0-21.13,8.14-21.13,17.27"/><path d="M36.71,49.98c0,4.26,3.07,9.02,11.11,9.02,10.31,0,21.13-8.43,21.13-17.16,0-5.86-4.96-9.13-11.11-9.13-9.63,0-21.13,8.14-21.13,17.27"/><path d="M150.14,49.98c0,4.26,3.07,9.02,11.11,9.02,10.31,0,21.13-8.43,21.13-17.16,0-5.86-4.96-9.13-11.11-9.13-9.63,0-21.13,8.14-21.13,17.27"/><path d="M206.85,49.98c0,4.26,3.07,9.02,11.11,9.02,10.31,0,21.13-8.43,21.13-17.16,0-5.86-4.96-9.13-11.11-9.13-9.63,0-21.13,8.14-21.13,17.27"/><path d="M36.71,107.81H209.33v12.4H36.71v-12.4" fill-rule="evenodd"/></g></svg>