<?xml version="1.0" encoding="UTF-8"?><svg id="b" xmlns="http://www.w3.org/2000/svg" viewBox="0 0 280.75 124.68"><g id="c"><line x1="1.16" y1="13.08" x2="278.16" y2="13.08" fill="none" stroke="#000" stroke-linejoin="bevel" stroke-width="2.73"/><line x1="1.16" y1="37.88" x2="278.16" y2="37.88" fill="none" stroke="#000" stroke-linejoin="bevel" stroke-width="2.73"/><line x1="1.16" y1="62.68" x2="278.16" y2="62.68" fill="none" stroke="#000" stroke-linejoin="bevel" stroke-width="2.73"/><line x1="1.16" y1="87.48" x2="278.16" y2="87.48" fill="none" stroke="#000" stroke-linejoin="bevel" stroke-width="2.73"/><line x1="1.16" y1="112.28" x2="278.16" y2="112.28" fill="none" stroke="#000" stroke-linejoin="bevel" stroke-width="2.73"/><path d="M52.83,27.96c42.53-36.45,127.6-36.45,170.14,0C180.43-.55,95.36-.55,52.83,27.96" fill-rule="evenodd" stroke="#000" stroke-linecap="round" stroke-linejoin="round" stroke-width="1.24"/><line x1="2.23" y1="11.72" x2="2.23" y2="113.64" fill="none" stroke="#000" stroke-linejoin="bevel" stroke-width="4.46"/><line x1="278.52" y1="11.72" x2="278.52" y2="113.64" fill="none" stroke="#000" stroke-linejoin="bevel" stroke-width="4.46"/><line x1="37.95" y1="54.45" x2="37.95" y2="118.48" fill="none" stroke="#000" stroke-linejoin="bevel" stroke-width="2.48"/><line x1="94.66" y1="54.45" x2="94.66" y2="118.48" fill="none" stroke="#000" stroke-linejoin="bevel" stroke-width="2.48"/><line x1="151.38" y1="54.45" x2="151.38" y2="118.48" fill="none" stroke="#000" stroke-linejoin="bevel" stroke-width="2.48"/><line x1="208.09" y1="54.45" x2="208.09" y2="118.48" fill="none" stroke="#000" stroke-linejoin="bevel" stroke-width="2.48"/><path d="M36.71,54.45c0,4.26,3.07,9.02,11.11,9.02,10.31,0,21.13-8.43,21.13-17.16,0-5.86-4.96-9.13-11.11-9.13-9.63,0-21.13,8.14-21.13,17.27"/><path d="M93.42,54.45c0,4.26,3.07,9.02,11.11,9.02,10.31,0,21.13-8.43,21.13-17.16,0-5.86-4.96-9.13-11.11-9.13-9.63,0-21.13,8.14-21.13,17.27"/><path d="M150.14,54.45c0,4.26,3.07,9.02,11.11,9.02,10.31,0,21.13-8.43,21.13-17.16,0-5.86-4.96-9.13-11.11-9.13-9.63,0-21.13,8.14-21.13,17.27"/><path d="M206.85,54.45c0,4.26,3.07,9.02,11.11,9.02,10.31,0,21.13-8.43,21.13-17.16,0-5.86-4.96-9.13-11.11-9.13-9.63,0-21.13,8.14-21.13,17.27"/><path d="M36.71,112.28H209.33v12.4H36.71v-12.4" fill-rule="evenodd"/></g></svg>