<?xml version="1.0" encoding="UTF-8"?><svg id="b" xmlns="http://www.w3.org/2000/svg" viewBox="0 0 2095.2 592.54"><g id="c"><line y1="68.87" x2="2095.2" y2="68.87" fill="none" stroke="#000" stroke-linejoin="bevel" stroke-width="2.73"/><line y1="93.67" x2="2095.2" y2="93.67" fill="none" stroke="#000" stroke-linejoin="bevel" stroke-width="2.73"/><line y1="118.47" x2="2095.2" y2="118.47" fill="none" stroke="#000" stroke-linejoin="bevel" stroke-width="2.73"/><line y1="143.27" x2="2095.2" y2="143.27" fill="none" stroke="#000" stroke-linejoin="bevel" stroke-width="2.73"/><line y1="168.07" x2="2095.2" y2="168.07" fill="none" stroke="#000" stroke-linejoin="bevel" stroke-width="2.73"/><line y1="412.07" x2="2095.2" y2="412.07" fill="none" stroke="#000" stroke-linejoin="bevel" stroke-width="2.73"/><line y1="436.87" x2="2095.2" y2="436.87" fill="none" stroke="#000" stroke-linejoin="bevel" stroke-width="2.73"/><line y1="461.67" x2="2095.2" y2="461.67" fill="none" stroke="#000" stroke-linejoin="bevel" stroke-width="2.73"/><line y1="486.47" x2="2095.2" y2="486.47" fill="none" stroke="#000" stroke-linejoin="bevel" stroke-width="2.73"/><line y1="511.27" x2="2095.2" y2="511.27" fill="none" stroke="#000" stroke-linejoin="bevel" stroke-width="2.73"/><line x1="2092.97" y1="67.51" x2="2092.97" y2="169.43" fill="none" stroke="#000" stroke-linejoin="bevel" stroke-width="4.46"/><line x1="1147.09" y1="67.51" x2="1147.09" y2="169.43" fill="none" stroke="#000" stroke-linejoin="bevel" stroke-width="4.46"/><line x1="1139.95" y1="410.71" x2="1139.95" y2="512.63" fill="none" stroke="#000" stroke-linejoin="bevel" stroke-width="4.46"/><line x1="2079.33" y1="410.71" x2="2079.33" y2="512.63" fill="none" stroke="#000" stroke-linejoin="bevel" stroke-width="4.46"/><line x1="2092.97" y1="410.71" x2="2092.97" y2="512.63" fill="none" stroke="#000" stroke-linejoin="bevel" stroke-width="4.46"/><line x1="1497.45" y1="536.07" x2="1546.05" y2="536.07" fill="none" stroke="#000" stroke-linejoin="bevel" stroke-width="3.97"/><line x1="1580.25" y1="536.07" x2="1628.85" y2="536.07" fill="none" stroke="#000" stroke-linejoin="bevel" stroke-width="3.97"/><line x1="1745.85" y1="536.07" x2="1794.45" y2="536.07" fill="none" stroke="#000" stroke-linejoin="bevel" stroke-width="3.97"/><line x1="1828.66" y1="536.07" x2="1877.26" y2="536.07" fill="none" stroke="#000" stroke-linejoin="bevel" stroke-width="3.97"/><line x1="135.9" y1="192.87" x2="184.5" y2="192.87" fill="none" stroke="#000" stroke-linejoin="bevel" stroke-width="3.97"/><line x1="1911.46" y1="536.07" x2="1960.06" y2="536.07" fill="none" stroke="#000" stroke-linejoin="bevel" stroke-width="3.97"/><line x1="758.86" y1="139.3" x2="758.86" y2="71.97" fill="none" stroke="#000" stroke-linejoin="bevel" stroke-width="2.48"/><line x1="842.26" y1="139.3" x2="842.26" y2="68.92" fill="none" stroke="#000" stroke-linejoin="bevel" stroke-width="2.48"/><line x1="925.66" y1="151.7" x2="925.66" y2="68.83" fill="none" stroke="#000" stroke-linejoin="bevel" stroke-width="2.48"/><line x1="1009.06" y1="126.9" x2="1009.06" y2="65.77" fill="none" stroke="#000" stroke-linejoin="bevel" stroke-width="2.48"/><line x1="1092.45" y1="126.9" x2="1092.45" y2="62.72" fill="none" stroke="#000" stroke-linejoin="bevel" stroke-width="2.48"/><line x1="1212.56" y1="139.3" x2="1212.56" y2="56.43" fill="none" stroke="#000" stroke-linejoin="bevel" stroke-width="2.48"/><line x1="1003.1" y1="507.3" x2="1003.1" y2="415.17" fill="none" stroke="#000" stroke-linejoin="bevel" stroke-width="2.48"/><line x1="1295.96" y1="114.5" x2="1295.96" y2="53.37" fill="none" stroke="#000" stroke-linejoin="bevel" stroke-width="2.48"/><line x1="1379.35" y1="114.5" x2="1379.35" y2="50.32" fill="none" stroke="#000" stroke-linejoin="bevel" stroke-width="2.48"/><line x1="1433" y1="135.04" x2="1433" y2="198.98" fill="none" stroke="#000" stroke-linejoin="bevel" stroke-width="2.48"/><line x1="1516.4" y1="110.24" x2="1516.4" y2="192.87" fill="none" stroke="#000" stroke-linejoin="bevel" stroke-width="2.48"/><line x1="1599.8" y1="110.24" x2="1599.8" y2="186.76" fill="none" stroke="#000" stroke-linejoin="bevel" stroke-width="2.48"/><line x1="1683.2" y1="122.64" x2="1683.2" y2="186.62" fill="none" stroke="#000" stroke-linejoin="bevel" stroke-width="2.48"/><line x1="1766.59" y1="97.84" x2="1766.59" y2="183.57" fill="none" stroke="#000" stroke-linejoin="bevel" stroke-width="2.48"/><line x1="1849.99" y1="97.84" x2="1849.99" y2="180.51" fill="none" stroke="#000" stroke-linejoin="bevel" stroke-width="2.48"/><line x1="1933.39" y1="110.24" x2="1933.39" y2="186.67" fill="none" stroke="#000" stroke-linejoin="bevel" stroke-width="2.48"/><line x1="145.32" y1="453.44" x2="145.32" y2="536.12" fill="none" stroke="#000" stroke-linejoin="bevel" stroke-width="2.48"/><line x1="310.93" y1="478.24" x2="310.93" y2="542.22" fill="none" stroke="#000" stroke-linejoin="bevel" stroke-width="2.48"/><line x1="423.48" y1="457.7" x2="423.48" y2="393.52" fill="none" stroke="#000" stroke-linejoin="bevel" stroke-width="2.48"/><line x1="506.28" y1="482.5" x2="506.28" y2="396.57" fill="none" stroke="#000" stroke-linejoin="bevel" stroke-width="2.48"/><line x1="589.09" y1="482.5" x2="589.09" y2="399.62" fill="none" stroke="#000" stroke-linejoin="bevel" stroke-width="2.48"/><line x1="671.89" y1="470.1" x2="671.89" y2="405.96" fill="none" stroke="#000" stroke-linejoin="bevel" stroke-width="2.48"/><line x1="754.69" y1="494.9" x2="754.69" y2="412.07" fill="none" stroke="#000" stroke-linejoin="bevel" stroke-width="2.48"/><line x1="837.49" y1="494.9" x2="837.49" y2="418.18" fill="none" stroke="#000" stroke-linejoin="bevel" stroke-width="2.48"/><line x1="920.3" y1="482.5" x2="920.3" y2="412.12" fill="none" stroke="#000" stroke-linejoin="bevel" stroke-width="2.48"/><line x1="1085.9" y1="507.3" x2="1085.9" y2="418.22" fill="none" stroke="#000" stroke-linejoin="bevel" stroke-width="2.48"/><line x1="1205.41" y1="494.9" x2="1205.41" y2="430.76" fill="none" stroke="#000" stroke-linejoin="bevel" stroke-width="2.48"/><line x1="1288.21" y1="519.7" x2="1288.21" y2="436.87" fill="none" stroke="#000" stroke-linejoin="bevel" stroke-width="2.48"/><line x1="1371.02" y1="519.7" x2="1371.02" y2="442.98" fill="none" stroke="#000" stroke-linejoin="bevel" stroke-width="2.48"/><line x1="1453.82" y1="507.3" x2="1453.82" y2="436.92" fill="none" stroke="#000" stroke-linejoin="bevel" stroke-width="2.48"/><line x1="175.07" y1="188.9" x2="175.07" y2="99.82" fill="none" stroke="#000" stroke-linejoin="bevel" stroke-width="2.48"/><line x1="1536.62" y1="532.1" x2="1536.62" y2="439.97" fill="none" stroke="#000" stroke-linejoin="bevel" stroke-width="2.48"/><line x1="1619.42" y1="532.1" x2="1619.42" y2="443.02" fill="none" stroke="#000" stroke-linejoin="bevel" stroke-width="2.48"/><line x1="258.47" y1="164.1" x2="258.47" y2="96.77" fill="none" stroke="#000" stroke-linejoin="bevel" stroke-width="2.48"/><line x1="1702.23" y1="519.7" x2="1702.23" y2="455.56" fill="none" stroke="#000" stroke-linejoin="bevel" stroke-width="2.48"/><line x1="1785.03" y1="544.5" x2="1785.03" y2="461.67" fill="none" stroke="#000" stroke-linejoin="bevel" stroke-width="2.48"/><line x1="341.87" y1="164.1" x2="341.87" y2="93.71" fill="none" stroke="#000" stroke-linejoin="bevel" stroke-width="2.48"/><line x1="1867.83" y1="544.5" x2="1867.83" y2="467.78" fill="none" stroke="#000" stroke-linejoin="bevel" stroke-width="2.48"/><line x1="1950.64" y1="532.1" x2="1950.64" y2="449.27" fill="none" stroke="#000" stroke-linejoin="bevel" stroke-width="2.48"/><line x1="425.27" y1="176.5" x2="425.27" y2="75.03" fill="none" stroke="#000" stroke-linejoin="bevel" stroke-width="2.48"/><line x1="228.12" y1="478.24" x2="228.12" y2="539.17" fill="none" stroke="#000" stroke-linejoin="bevel" stroke-width="2.48"/><line x1="508.67" y1="151.7" x2="508.67" y2="71.97" fill="none" stroke="#000" stroke-linejoin="bevel" stroke-width="2.48"/><line x1="592.07" y1="151.7" x2="592.07" y2="68.92" fill="none" stroke="#000" stroke-linejoin="bevel" stroke-width="2.48"/><line x1="675.46" y1="164.1" x2="675.46" y2="75.03" fill="none" stroke="#000" stroke-linejoin="bevel" stroke-width="2.48"/><path d="M1515.16,110.24c0,4.26,3.07,9.02,11.11,9.02,10.31,0,21.13-8.43,21.13-17.16,0-5.86-4.96-9.13-11.11-9.13-9.63,0-21.13,8.14-21.13,17.27"/><path d="M1598.56,110.24c0,4.26,3.07,9.02,11.11,9.02,10.31,0,21.13-8.43,21.13-17.16,0-5.86-4.96-9.13-11.11-9.13-9.63,0-21.13,8.14-21.13,17.27"/><path d="M1681.96,122.64c0,4.26,3.07,9.02,11.11,9.02,10.31,0,21.13-8.43,21.13-17.16,0-5.86-4.96-9.13-11.11-9.13-9.63,0-21.13,8.14-21.13,17.27"/><path d="M1765.35,97.84c0,4.26,3.07,9.02,11.11,9.02,10.31,0,21.13-8.43,21.13-17.16,0-5.86-4.96-9.13-11.11-9.13-9.63,0-21.13,8.14-21.13,17.27"/><path d="M1848.75,97.84c0,4.26,3.07,9.02,11.11,9.02,10.31,0,21.13-8.43,21.13-17.16,0-5.86-4.96-9.13-11.11-9.13-9.63,0-21.13,8.14-21.13,17.27"/><path d="M1932.15,110.24c0,4.26,3.07,9.02,11.11,9.02,10.31,0,21.13-8.43,21.13-17.16,0-5.86-4.96-9.13-11.11-9.13-9.63,0-21.13,8.14-21.13,17.27"/><path d="M144.08,453.44c0,4.26,3.07,9.02,11.11,9.02,10.31,0,21.13-8.43,21.13-17.16,0-5.86-4.96-9.13-11.11-9.13-9.63,0-21.13,8.14-21.13,17.27"/><path d="M226.88,478.24c0,4.26,3.07,9.02,11.11,9.02,10.31,0,21.13-8.43,21.13-17.16,0-5.86-4.96-9.13-11.11-9.13-9.63,0-21.13,8.14-21.13,17.27"/><path d="M309.69,478.24c0,4.26,3.07,9.02,11.11,9.02,10.31,0,21.13-8.43,21.13-17.16,0-5.86-4.96-9.13-11.11-9.13-9.63,0-21.13,8.14-21.13,17.27"/><path d="M392.49,465.84c0,4.26,3.07,9.02,11.11,9.02,10.31,0,21.13-8.43,21.13-17.16,0-5.86-4.96-9.13-11.11-9.13-9.63,0-21.13,8.14-21.13,17.27"/><path d="M475.29,490.64c0,4.26,3.07,9.02,11.11,9.02,10.31,0,21.13-8.43,21.13-17.16,0-5.86-4.96-9.13-11.11-9.13-9.63,0-21.13,8.14-21.13,17.27"/><path d="M558.09,490.64c0,4.26,3.07,9.02,11.11,9.02,10.31,0,21.13-8.43,21.13-17.16,0-5.86-4.96-9.13-11.11-9.13-9.63,0-21.13,8.14-21.13,17.27"/><path d="M640.9,478.24c0,4.26,3.07,9.02,11.11,9.02,10.31,0,21.13-8.43,21.13-17.16,0-5.86-4.96-9.13-11.11-9.13-9.63,0-21.13,8.14-21.13,17.27"/><path d="M723.7,503.04c0,4.26,3.07,9.02,11.11,9.02,10.31,0,21.13-8.43,21.13-17.16,0-5.86-4.96-9.13-11.11-9.13-9.63,0-21.13,8.14-21.13,17.27"/><path d="M806.5,503.04c0,4.26,3.07,9.02,11.11,9.02,10.31,0,21.13-8.43,21.13-17.16,0-5.86-4.96-9.13-11.11-9.13-9.63,0-21.13,8.14-21.13,17.27"/><path d="M889.3,490.64c0,4.26,3.07,9.02,11.11,9.02,10.31,0,21.13-8.43,21.13-17.16,0-5.86-4.96-9.13-11.11-9.13-9.63,0-21.13,8.14-21.13,17.27"/><path d="M1181.56,147.44c0,4.26,3.07,9.02,11.11,9.02,10.31,0,21.13-8.43,21.13-17.16,0-5.86-4.96-9.13-11.11-9.13-9.63,0-21.13,8.14-21.13,17.27"/><path d="M972.11,515.44c0,4.26,3.07,9.02,11.11,9.02,10.31,0,21.13-8.43,21.13-17.16,0-5.86-4.96-9.13-11.11-9.13-9.63,0-21.13,8.14-21.13,17.27"/><path d="M1054.91,515.44c0,4.26,3.07,9.02,11.11,9.02,10.31,0,21.13-8.43,21.13-17.16,0-5.86-4.96-9.13-11.11-9.13-9.63,0-21.13,8.14-21.13,17.27"/><path d="M1174.42,503.04c0,4.26,3.07,9.02,11.11,9.02,10.31,0,21.13-8.43,21.13-17.16,0-5.86-4.96-9.13-11.11-9.13-9.63,0-21.13,8.14-21.13,17.27"/><path d="M1257.22,527.84c0,4.26,3.07,9.02,11.11,9.02,10.31,0,21.13-8.43,21.13-17.16,0-5.86-4.96-9.13-11.11-9.13-9.63,0-21.13,8.14-21.13,17.27"/><path d="M1340.02,527.84c0,4.26,3.07,9.02,11.11,9.02,10.31,0,21.13-8.43,21.13-17.16,0-5.86-4.96-9.13-11.11-9.13-9.63,0-21.13,8.14-21.13,17.27"/><path d="M1422.83,515.44c0,4.26,3.07,9.02,11.11,9.02,10.31,0,21.13-8.43,21.13-17.16,0-5.86-4.96-9.13-11.11-9.13-9.63,0-21.13,8.14-21.13,17.27"/><path d="M1505.63,540.24c0,4.26,3.07,9.02,11.11,9.02,10.31,0,21.13-8.43,21.13-17.16,0-5.86-4.96-9.13-11.11-9.13-9.63,0-21.13,8.14-21.13,17.27"/><path d="M1588.43,540.24c0,4.26,3.07,9.02,11.11,9.02,10.31,0,21.13-8.43,21.13-17.16,0-5.86-4.96-9.13-11.11-9.13-9.63,0-21.13,8.14-21.13,17.27"/><path d="M1671.24,527.84c0,4.26,3.07,9.02,11.11,9.02,10.31,0,21.13-8.43,21.13-17.16,0-5.86-4.96-9.13-11.11-9.13-9.63,0-21.13,8.14-21.13,17.27"/><path d="M1754.04,552.64c0,4.26,3.07,9.02,11.11,9.02,10.31,0,21.13-8.43,21.13-17.16,0-5.86-4.96-9.13-11.11-9.13-9.63,0-21.13,8.14-21.13,17.27"/><path d="M1836.84,552.64c0,4.26,3.07,9.02,11.11,9.02,10.31,0,21.13-8.43,21.13-17.16,0-5.86-4.96-9.13-11.11-9.13-9.63,0-21.13,8.14-21.13,17.27"/><path d="M1919.64,540.24c0,4.26,3.07,9.02,11.11,9.02,10.31,0,21.13-8.43,21.13-17.16,0-5.86-4.96-9.13-11.11-9.13-9.63,0-21.13,8.14-21.13,17.27"/><path d="M144.08,197.04c0,4.26,3.07,9.02,11.11,9.02,10.31,0,21.13-8.43,21.13-17.16,0-5.86-4.96-9.13-11.11-9.13-9.63,0-21.13,8.14-21.13,17.27"/><path d="M227.48,172.24c0,4.26,3.07,9.02,11.11,9.02,10.31,0,21.13-8.43,21.13-17.16,0-5.86-4.96-9.13-11.11-9.13-9.63,0-21.13,8.14-21.13,17.27"/><path d="M310.88,172.24c0,4.26,3.07,9.02,11.11,9.02,10.31,0,21.13-8.43,21.13-17.16,0-5.86-4.96-9.13-11.11-9.13-9.63,0-21.13,8.14-21.13,17.27"/><path d="M394.28,184.64c0,4.26,3.07,9.02,11.11,9.02,10.31,0,21.13-8.43,21.13-17.16,0-5.86-4.96-9.13-11.11-9.13-9.63,0-21.13,8.14-21.13,17.27"/><path d="M477.68,159.84c0,4.26,3.07,9.02,11.11,9.02,10.31,0,21.13-8.43,21.13-17.16,0-5.86-4.96-9.13-11.11-9.13-9.63,0-21.13,8.14-21.13,17.27"/><path d="M561.07,159.84c0,4.26,3.07,9.02,11.11,9.02,10.31,0,21.13-8.43,21.13-17.16,0-5.86-4.96-9.13-11.11-9.13-9.63,0-21.13,8.14-21.13,17.27"/><path d="M644.47,172.24c0,4.26,3.07,9.02,11.11,9.02,10.31,0,21.13-8.43,21.13-17.16,0-5.86-4.96-9.13-11.11-9.13-9.63,0-21.13,8.14-21.13,17.27"/><path d="M727.87,147.44c0,4.26,3.07,9.02,11.11,9.02,10.31,0,21.13-8.43,21.13-17.16,0-5.86-4.96-9.13-11.11-9.13-9.63,0-21.13,8.14-21.13,17.27"/><path d="M811.27,147.44c0,4.26,3.07,9.02,11.11,9.02,10.31,0,21.13-8.43,21.13-17.16,0-5.86-4.96-9.13-11.11-9.13-9.63,0-21.13,8.14-21.13,17.27"/><path d="M894.67,159.84c0,4.26,3.07,9.02,11.11,9.02,10.31,0,21.13-8.43,21.13-17.16,0-5.86-4.96-9.13-11.11-9.13-9.63,0-21.13,8.14-21.13,17.27"/><path d="M978.06,135.04c0,4.26,3.07,9.02,11.11,9.02,10.31,0,21.13-8.43,21.13-17.16,0-5.86-4.96-9.13-11.11-9.13-9.63,0-21.13,8.14-21.13,17.27"/><path d="M1061.46,135.04c0,4.26,3.07,9.02,11.11,9.02,10.31,0,21.13-8.43,21.13-17.16,0-5.86-4.96-9.13-11.11-9.13-9.63,0-21.13,8.14-21.13,17.27"/><path d="M1264.96,122.64c0,4.26,3.07,9.02,11.11,9.02,10.31,0,21.13-8.43,21.13-17.16,0-5.86-4.96-9.13-11.11-9.13-9.63,0-21.13,8.14-21.13,17.27"/><path d="M1348.36,122.64c0,4.26,3.07,9.02,11.11,9.02,10.31,0,21.13-8.43,21.13-17.16,0-5.86-4.96-9.13-11.11-9.13-9.63,0-21.13,8.14-21.13,17.27"/><path d="M1431.76,135.04c0,4.26,3.07,9.02,11.11,9.02,10.31,0,21.13-8.43,21.13-17.16,0-5.86-4.96-9.13-11.11-9.13-9.63,0-21.13,8.14-21.13,17.27"/><path d="M30.8,194.16c0,6.56,4.96,15.19,18.35,15.19,4.67,0,8.74-1.19,12.31-3.38,5.36-3.77,6.74-10.32,6.74-16.57,0-3.86-.59-8.32-1.58-13.98-.29-1.98-.9-4.96-1.49-8.84,9.72-3.18,16.96-13.3,16.96-23.51,0-14.97-10.62-25.09-25.09-25.09-.99-5.95-1.98-11.81-2.77-17.36,10.42-11.02,17.65-23.42,17.65-39.18,0-9.04-2.77-16.37-4.37-19.95-2.37-5.05-5.25-8.53-7.04-8.53-.7,0-3.77,1.19-7.04,5.05-6.36,7.55-8.14,20.24-8.14,28.57,0,5.36,.5,10.23,2.19,21.34-.11,.09-5.27,5.35-7.35,7.04-9.04,8.34-21.53,20.43-21.53,40.28,0,18.54,16.17,33.12,34.63,33.12,2.87,0,5.55-.29,7.83-.7,1.89,9.53,3.08,16.48,3.08,21.73,0,10.32-5.36,15.78-15.38,15.78-2.39,0-4.46-.5-4.67-.5-.09-.11-.29-.2-.29-.29,0-.2,.2-.31,.5-.31,4.67-.79,9.32-4.76,9.32-11.1,0-5.36-4.06-11.02-11.5-11.02-6.94,0-11.31,5.66-11.31,12.2M51.54,61.73c.9-3.97,5.46-14.38,10.62-14.38,1.49,0,3.86,4.76,3.86,11.7,0,10.32-7.63,18.06-14.48,24.8-.59-3.97-1.08-7.83-1.08-12,0-3.67,.29-7.05,1.08-10.12m8.73,101.97c-1.98,.4-3.86,.6-5.75,.6-14.18,0-26.29-9.92-26.29-24.91,0-12.09,8.53-22.91,17.27-30.46,1.67-1.49,3.27-2.87,4.76-4.36,.88,5.35,1.58,10.01,2.28,14.09-9.04,2.68-15.17,12.2-15.17,21.53,0,6.94,5.46,16.46,13.39,16.46,.79,0,1.69-.4,1.69-1.29s-.99-1.39-2.19-2.19c-3.88-2.39-6.06-4.96-6.06-9.83,0-6.05,4.57-10.91,10.32-12.29l5.75,32.63m14.09-18.35c0,7.05-2.88,14.29-9.92,17.17-2.08-11.9-4.76-27.68-5.46-32.05,8.93,0,15.38,6.06,15.38,14.88"/><path d="M30.8,537.36c0,6.56,4.96,15.19,18.35,15.19,4.67,0,8.74-1.19,12.31-3.38,5.36-3.77,6.74-10.32,6.74-16.57,0-3.86-.59-8.32-1.58-13.98-.29-1.98-.9-4.96-1.49-8.84,9.72-3.18,16.96-13.3,16.96-23.51,0-14.97-10.62-25.09-25.09-25.09-.99-5.95-1.98-11.81-2.77-17.36,10.42-11.02,17.65-23.42,17.65-39.18,0-9.04-2.77-16.37-4.37-19.95-2.37-5.05-5.25-8.53-7.04-8.53-.7,0-3.77,1.19-7.04,5.05-6.36,7.55-8.14,20.24-8.14,28.57,0,5.36,.5,10.23,2.19,21.34-.11,.09-5.27,5.35-7.35,7.04-9.04,8.34-21.53,20.43-21.53,40.28,0,18.54,16.17,33.12,34.63,33.12,2.87,0,5.55-.29,7.83-.7,1.89,9.53,3.08,16.48,3.08,21.73,0,10.32-5.36,15.78-15.38,15.78-2.39,0-4.46-.5-4.67-.5-.09-.11-.29-.2-.29-.29,0-.2,.2-.31,.5-.31,4.67-.79,9.32-4.76,9.32-11.1,0-5.36-4.06-11.02-11.5-11.02-6.94,0-11.31,5.66-11.31,12.2m20.74-132.43c.9-3.97,5.46-14.38,10.62-14.38,1.49,0,3.86,4.76,3.86,11.7,0,10.32-7.63,18.06-14.48,24.8-.59-3.97-1.08-7.83-1.08-12,0-3.67,.29-7.05,1.08-10.12m8.73,101.97c-1.98,.4-3.86,.6-5.75,.6-14.18,0-26.29-9.92-26.29-24.91,0-12.09,8.53-22.91,17.27-30.46,1.67-1.49,3.27-2.87,4.76-4.36,.88,5.35,1.58,10.01,2.28,14.09-9.04,2.68-15.17,12.2-15.17,21.53,0,6.94,5.46,16.46,13.39,16.46,.79,0,1.69-.4,1.69-1.29s-.99-1.39-2.19-2.19c-3.88-2.39-6.06-4.96-6.06-9.83,0-6.05,4.57-10.91,10.32-12.29l5.75,32.63m14.09-18.35c0,7.05-2.88,14.29-9.92,17.17-2.08-11.9-4.76-27.68-5.46-32.05,8.93,0,15.38,6.06,15.38,14.88"/><path d="M1958.49,373.88c-9.32-10.12-17.56-10.71-22.71-10.71s-13.3,.59-22.63,10.71c-4.85,5.36-8.23,15.97-8.23,21.33,0,1.89,.4,3.18,1.4,3.18,2.77,0,1.38-8.54,9.72-16.97,7.33-7.33,17.16-7.44,19.55-7.44h.39c2.39,0,12.21,.11,19.55,7.44,8.34,8.43,6.94,16.97,9.72,16.97,.99,0,1.39-1.19,1.39-3.18,0-5.36-3.27-16.07-8.14-21.33m-29.56,18.94c0,3.78,3.07,6.85,6.85,6.85s6.84-3.07,6.84-6.85-3.07-6.84-6.84-6.84-6.85,3.07-6.85,6.84"/><path d="M573.01,247.7c-2.33,3.75-3.33,4.8-4.64,4.8-.64,0-1-.41-1-1.12,0-.52,.2-1.44,.59-2.85l7.12-23.98-7.95,.59-.17,1.44h1.25c1.64,0,2.28,.36,2.28,1.23,0,.41-.12,.93-.36,1.77l-2.64,8.87c-.72-2.07-2.28-3.23-4.61-3.23-5.75,0-11.11,6.16-11.11,12.8,0,3.92,2.52,6.59,6.28,6.59,2.72,0,4.72-1.11,6.47-3.72-.03,.33-.03,.72-.03,.89,0,1.83,.95,2.83,2.72,2.83,2.52,0,4.72-1.95,7-6.19l-1.2-.72m-10-10.68c1.95,0,3.39,1.51,3.39,3.61,0,3.62-2.55,12.11-7.19,12.11-2.16,0-3.56-1.72-3.56-4.32,0-3.79,2.72-11.4,7.36-11.4m33-1.21h-3.48l-1.88,6.41c-1.64,5.56-5.33,10.11-8.16,10.11-.97,0-1.72-.75-1.72-1.72,0-.52,.11-1.16,.44-2.27l3.92-13.12-7.72,.59-.12,1.46h.95c1.64,0,2.25,.36,2.25,1.26,0,.41-.12,.97-.33,1.74l-1.59,5.39q-1.23,4-1.23,5.23c0,2.2,1.52,3.69,3.8,3.69,2.8,0,5.08-1.64,7.44-5.33-.41,1.41-.48,1.97-.48,2.72,0,1.56,1.08,2.64,2.56,2.64,2.44,0,4.39-1.64,7.23-6l-1.2-.72c-1.95,2.92-3.52,4.53-4.39,4.53-.36,0-.72-.45-.72-.97,0-.43,.16-1.2,.47-2.36l3.97-13.28"/><path d="M487.53,236.74c.64-.57,1-.75,1.47-.75,.41,0,.73,.18,1.05,.64,.64,.87,.88,1.03,1.52,1.03,.92,0,1.61-.75,1.61-1.75,0-1.17-1.12-2.1-2.53-2.1s-2.47,.53-4.55,2.18c-1.25-.57-2.17-.77-3.45-.77-4.44,0-8.19,3.16-8.19,6.84,0,1.93,.75,3.24,2.47,4.16-1.83,.23-2.67,.52-3.59,1.31-.8,.64-1.31,1.72-1.31,2.69,0,1.36,.64,2.2,2.19,2.95-2.36,.53-5.11,1.53-5.11,4.44,0,4,5.28,4.48,8.2,4.48,3.95,0,6.23-.48,8.19-1.76,1.72-1.11,2.72-2.83,2.72-4.72,0-4.03-4.28-4.52-7.36-4.72-3.55-.19-3.83-.23-4.39-.36-1-.23-1.48-.72-1.48-1.39,0-.97,.95-1.61,2.41-1.61,.52,0,1.11,.05,1.64,.13,1.64,.23,1.88,.28,2.88,.28,2.23,0,4-.56,5.39-1.69,1.61-1.23,2.61-3.23,2.61-5.08s-.8-3.31-2.36-4.43m-4.61,0c2.09,0,3.41,1.25,3.41,3.2,0,2.87-1.31,6.51-4.72,6.51-2.16,0-3.52-1.36-3.52-3.59,0-3.59,1.95-6.12,4.83-6.12m-4.88,17.15c1.8,0,4.69,.41,5.59,.77,1,.43,1.48,1.12,1.48,2.12,0,2.36-2.52,3.64-7.11,3.64-3.89,0-5.69-.97-5.69-3.09s2.08-3.44,5.72-3.44m35.56-18.08h-3.48l-1.88,6.41c-1.64,5.56-5.33,10.11-8.16,10.11-.97,0-1.72-.75-1.72-1.72,0-.52,.11-1.16,.44-2.27l3.92-13.12-7.72,.59-.12,1.46h.95c1.64,0,2.25,.36,2.25,1.26,0,.41-.12,.97-.33,1.74l-1.59,5.39q-1.23,4-1.23,5.23c0,2.2,1.52,3.69,3.8,3.69,2.8,0,5.08-1.64,7.44-5.33-.41,1.41-.48,1.97-.48,2.72,0,1.56,1.08,2.64,2.56,2.64,2.44,0,4.39-1.64,7.23-6l-1.2-.72c-1.95,2.92-3.52,4.53-4.39,4.53-.36,0-.72-.45-.72-.97,0-.43,.16-1.2,.47-2.36l3.97-13.28"/><path d="M406.21,247.7c-2.33,3.75-3.33,4.8-4.64,4.8-.64,0-1-.41-1-1.12,0-.52,.2-1.44,.59-2.85l7.12-23.98-7.95,.59-.17,1.44h1.25c1.64,0,2.28,.36,2.28,1.23,0,.41-.12,.93-.36,1.77l-2.64,8.87c-.72-2.07-2.28-3.23-4.61-3.23-5.75,0-11.11,6.16-11.11,12.8,0,3.92,2.52,6.59,6.28,6.59,2.72,0,4.72-1.11,6.47-3.72-.03,.33-.03,.72-.03,.89,0,1.83,.95,2.83,2.72,2.83,2.52,0,4.72-1.95,7-6.19l-1.2-.72m-10-10.68c1.95,0,3.39,1.51,3.39,3.61,0,3.62-2.55,12.11-7.19,12.11-2.16,0-3.56-1.72-3.56-4.32,0-3.79,2.72-11.4,7.36-11.4m33-1.21h-3.48l-1.88,6.41c-1.64,5.56-5.33,10.11-8.16,10.11-.97,0-1.72-.75-1.72-1.72,0-.52,.11-1.16,.44-2.27l3.92-13.12-7.72,.59-.12,1.46h.95c1.64,0,2.25,.36,2.25,1.26,0,.41-.12,.97-.33,1.74l-1.59,5.39q-1.23,4-1.23,5.23c0,2.2,1.52,3.69,3.8,3.69,2.8,0,5.08-1.64,7.44-5.33-.41,1.41-.48,1.97-.48,2.72,0,1.56,1.08,2.64,2.56,2.64,2.44,0,4.39-1.64,7.23-6l-1.2-.72c-1.95,2.92-3.52,4.53-4.39,4.53-.36,0-.72-.45-.72-.97,0-.43,.16-1.2,.47-2.36l3.97-13.28"/><path d="M237.34,236.74c.64-.57,1-.75,1.47-.75,.41,0,.73,.18,1.05,.64,.64,.87,.88,1.03,1.51,1.03,.92,0,1.61-.75,1.61-1.75,0-1.17-1.12-2.1-2.53-2.1s-2.47,.53-4.55,2.18c-1.25-.57-2.17-.77-3.45-.77-4.44,0-8.19,3.16-8.19,6.84,0,1.93,.75,3.24,2.47,4.16-1.83,.23-2.67,.52-3.59,1.31-.8,.64-1.31,1.72-1.31,2.69,0,1.36,.64,2.2,2.19,2.95-2.36,.53-5.11,1.53-5.11,4.44,0,4,5.28,4.48,8.2,4.48,3.95,0,6.23-.48,8.19-1.76,1.72-1.11,2.72-2.83,2.72-4.72,0-4.03-4.28-4.52-7.36-4.72-3.55-.19-3.83-.23-4.39-.36-1-.23-1.49-.72-1.49-1.39,0-.97,.95-1.61,2.41-1.61,.51,0,1.11,.05,1.64,.13,1.64,.23,1.88,.28,2.88,.28,2.24,0,4-.56,5.39-1.69,1.61-1.23,2.61-3.23,2.61-5.08s-.8-3.31-2.36-4.43m-4.61,0c2.09,0,3.41,1.25,3.41,3.2,0,2.87-1.31,6.51-4.72,6.51-2.16,0-3.52-1.36-3.52-3.59,0-3.59,1.95-6.12,4.83-6.12m-4.88,17.15c1.8,0,4.69,.41,5.59,.77,1,.43,1.49,1.12,1.49,2.12,0,2.36-2.52,3.64-7.11,3.64-3.89,0-5.69-.97-5.69-3.09s2.08-3.44,5.72-3.44m35.56-18.08h-3.48l-1.88,6.41c-1.64,5.56-5.33,10.11-8.16,10.11-.97,0-1.72-.75-1.72-1.72,0-.52,.11-1.16,.44-2.27l3.92-13.12-7.72,.59-.12,1.46h.95c1.64,0,2.25,.36,2.25,1.26,0,.41-.12,.97-.33,1.74l-1.59,5.39q-1.24,4-1.24,5.23c0,2.2,1.52,3.69,3.8,3.69,2.8,0,5.08-1.64,7.44-5.33-.41,1.41-.49,1.97-.49,2.72,0,1.56,1.08,2.64,2.56,2.64,2.44,0,4.39-1.64,7.23-6l-1.2-.72c-1.95,2.92-3.52,4.53-4.39,4.53-.36,0-.72-.45-.72-.97,0-.43,.16-1.2,.47-2.36l3.97-13.28"/><path d="M645.82,235.22c-4.2,0-7.25,2.56-7.25,6.03,0,1.74,1,3.17,2.77,4.09,.64,.32,1.44,.68,3.12,1.36,2.27,.91,2.83,1.47,2.83,2.88,0,2.16-1.8,3.51-4.56,3.51-2.03,0-3.47-.56-3.47-1.35,0-.21,.11-.44,.28-.6,.75-.8,.83-1,.83-1.72,0-1.12-.88-2-2.03-2-1.33,0-2.33,1.11-2.33,2.67,0,2.8,2.48,4.52,6.53,4.52,4.59,0,7.75-2.52,7.75-6.16,0-1.59-.72-2.95-2-3.82-.88-.61-1.28-.77-3.47-1.57-2.61-.92-3.28-1.56-3.28-3.12,0-1.85,1.75-3.2,4.08-3.2,1.56,0,2.59,.43,2.59,1.07,0,.18-.08,.36-.2,.57-.56,.79-.64,1-.64,1.61,0,1.07,.84,1.82,2.08,1.82,1.36,0,2.28-1,2.28-2.43,0-2.44-2.44-4.16-5.91-4.16m16.75-9.77c-1.2,0-2.16,.97-2.16,2.18s.95,2.15,2.12,2.15c1.23,0,2.19-.97,2.19-2.15s-.95-2.18-2.16-2.18m.72,9.77l-7.67,.59-.16,1.46h.95c1.64,0,2.28,.36,2.28,1.23,0,.39-.08,.84-.36,1.77l-2.33,7.79c-.75,2.55-.88,3.11-.88,4.03,0,1.41,1.2,2.49,2.72,2.49,3.44,0,5.8-3.56,7.48-6.16l-1.25-.68c-2.08,3.15-3.75,4.84-4.83,4.84-.41,0-.69-.36-.69-.84,0-.4,.16-1.13,.48-2.24l4.23-14.28m12.97,0l-7.28,.59-.12,1.46h.97c1.59,0,2.23,.36,2.23,1.26,0,.36-.12,.97-.33,1.74l-4.08,13.75h3.48l1.64-5.64c1.8-6.13,5.44-10.75,8.44-10.75,1.05,0,1.69,.54,1.69,1.54,0,.82-.33,2.49-.81,4l-3.19,10.85h3.47l1.72-5.8c1-3.33,2-5.56,3.28-7.28,1.44-2,3.48-3.31,5-3.31,1,0,1.56,.51,1.56,1.46,0,.57-.2,1.44-.56,2.57l-1.84,5.68c-1.08,3.11-1.11,3.36-1.11,4.47,0,1.69,1.23,2.8,3.11,2.8,1.33,0,2.61-.64,3.97-1.91,.84-.81,1.39-1.53,3.03-3.92l-1.23-.84c-2.08,3.12-3.56,4.64-4.59,4.64-.44,0-.84-.44-.84-1,0-.36,.12-.8,.48-1.97l2.52-7.75c.28-.87,.48-2.12,.48-3,0-2.12-1.56-3.64-3.72-3.64-2.84,0-5.41,1.84-7.72,5.64,.16-.77,.23-1.44,.23-1.92,0-2.13-1.69-3.72-3.88-3.72-2.53,0-4.36,1.41-7.17,5.41l1.17-5.41m29.95,14.44c-1.36,0-2.47,1.12-2.47,2.48s1.11,2.47,2.44,2.47c1.44,0,2.52-1.08,2.52-2.47s-1.12-2.48-2.48-2.48"/><path d="M322.82,247.7c-2.33,3.75-3.33,4.8-4.64,4.8-.64,0-1-.41-1-1.12,0-.52,.2-1.44,.59-2.85l7.12-23.98-7.95,.59-.17,1.44h1.25c1.64,0,2.28,.36,2.28,1.23,0,.41-.12,.93-.36,1.77l-2.64,8.87c-.72-2.07-2.28-3.23-4.61-3.23-5.75,0-11.11,6.16-11.11,12.8,0,3.92,2.52,6.59,6.28,6.59,2.72,0,4.72-1.11,6.47-3.72-.03,.33-.03,.72-.03,.89,0,1.83,.95,2.83,2.72,2.83,2.52,0,4.72-1.95,7-6.19l-1.2-.72m-10-10.68c1.95,0,3.39,1.51,3.39,3.61,0,3.62-2.55,12.11-7.19,12.11-2.16,0-3.56-1.72-3.56-4.32,0-3.79,2.72-11.4,7.36-11.4m33-1.21h-3.48l-1.88,6.41c-1.64,5.56-5.33,10.11-8.16,10.11-.97,0-1.72-.75-1.72-1.72,0-.52,.11-1.16,.44-2.27l3.92-13.12-7.72,.59-.12,1.46h.95c1.64,0,2.25,.36,2.25,1.26,0,.41-.12,.97-.33,1.74l-1.59,5.39q-1.23,4-1.23,5.23c0,2.2,1.52,3.69,3.8,3.69,2.8,0,5.08-1.64,7.44-5.33-.41,1.41-.48,1.97-.48,2.72,0,1.56,1.08,2.64,2.56,2.64,2.44,0,4.39-1.64,7.23-6l-1.2-.72c-1.95,2.92-3.52,4.53-4.39,4.53-.36,0-.72-.45-.72-.97,0-.43,.16-1.2,.47-2.36l3.97-13.28"/><path d="M156.02,247.7c-2.33,3.75-3.33,4.8-4.64,4.8-.64,0-1-.41-1-1.12,0-.52,.2-1.44,.59-2.85l7.12-23.98-7.95,.59-.17,1.44h1.25c1.64,0,2.28,.36,2.28,1.23,0,.41-.12,.93-.36,1.77l-2.64,8.87c-.72-2.07-2.28-3.23-4.61-3.23-5.75,0-11.11,6.16-11.11,12.8,0,3.92,2.52,6.59,6.28,6.59,2.72,0,4.72-1.11,6.47-3.72-.03,.33-.03,.72-.03,.89,0,1.83,.95,2.83,2.72,2.83,2.51,0,4.72-1.95,7-6.19l-1.2-.72m-10-10.68c1.95,0,3.39,1.51,3.39,3.61,0,3.62-2.55,12.11-7.19,12.11-2.16,0-3.56-1.72-3.56-4.32,0-3.79,2.72-11.4,7.36-11.4m33-1.21h-3.49l-1.88,6.41c-1.64,5.56-5.33,10.11-8.16,10.11-.97,0-1.72-.75-1.72-1.72,0-.52,.11-1.16,.44-2.27l3.92-13.12-7.72,.59-.12,1.46h.95c1.64,0,2.25,.36,2.25,1.26,0,.41-.12,.97-.33,1.74l-1.59,5.39q-1.23,4-1.23,5.23c0,2.2,1.51,3.69,3.8,3.69,2.8,0,5.08-1.64,7.44-5.33-.41,1.41-.48,1.97-.48,2.72,0,1.56,1.08,2.64,2.56,2.64,2.44,0,4.39-1.64,7.24-6l-1.2-.72c-1.95,2.92-3.51,4.53-4.39,4.53-.36,0-.72-.45-.72-.97,0-.43,.16-1.2,.47-2.36l3.97-13.28"/><path d="M424.03,68.87l169.28-6.2v12.41l-169.28,6.2v-12.41" fill-rule="evenodd"/><path d="M1204.17,424.45l168.09,12.4v12.44l-168.09-12.4v-12.44" fill-rule="evenodd"/><path d="M173.83,93.67l169.28-6.21v12.41l-169.28,6.2v-12.4" fill-rule="evenodd"/><path d="M919.06,405.87l168.08,6.2v12.4l-168.08-6.2v-12.4" fill-rule="evenodd"/><path d="M924.42,62.67l169.27-6.2v12.41l-169.27,6.2v-12.41" fill-rule="evenodd"/><path d="M670.65,399.65l168.08,12.4v12.44l-168.08-12.4v-12.44" fill-rule="evenodd"/><path d="M422.24,387.27l168.09,6.2v12.4l-168.09-6.2v-12.4" fill-rule="evenodd"/><path d="M144.08,529.87l168.09,6.2v12.4l-168.09-6.2v-12.4" fill-rule="evenodd"/><path d="M1681.96,180.47l169.27-6.2v12.4l-169.27,6.2v-12.4" fill-rule="evenodd"/><path d="M1431.76,192.85l169.28-12.4v12.44l-169.28,12.4v-12.44" fill-rule="evenodd"/><path d="M1452.58,430.67l168.08,6.2v12.4l-168.08-6.2v-12.4" fill-rule="evenodd"/><path d="M674.22,68.87l169.28-6.2v12.41l-169.28,6.2v-12.41" fill-rule="evenodd"/><path d="M1211.32,50.27l169.27-6.2v12.41l-169.27,6.2v-12.41" fill-rule="evenodd"/><path d="M1700.99,449.25l168.08,12.4v12.44l-168.08-12.4v-12.44" fill-rule="evenodd"/><path d="M1769.65,219.89c2.13-.67,2.97-1.04,4.05-1.76,2.12-1.39,3.42-3.86,3.42-6.39,0-4.27-3.42-7.14-8.45-7.14s-9.05,3.04-9.05,6.75c0,1.84,1.13,3.09,2.83,3.09,1.48,0,2.58-1.08,2.58-2.56,0-.77-.24-1.3-.96-2.02-.45-.4-.62-.73-.62-1.04,0-1.08,2.25-2.21,4.36-2.21,3.01,0,4.81,1.67,4.81,4.46,0,4.01-2.83,7.78-5.84,7.78-.14,0-.55-.03-1.03-.08q-1.32-.09-1.58-.09c-1,0-1.53,.45-1.53,1.26,0,.72,.5,1.16,1.29,1.16,.24,0,.55-.03,.91-.08,.62-.14,1.31-.19,1.7-.19,2.13,0,3.56,1.89,3.56,4.69,0,4.86-2.39,9.53-7.82,9.53-2.52,0-4.69-1.25-4.69-2.7,0-.49,.19-.67,.91-.99,1.29-.58,1.84-1.39,1.84-2.61,0-1.57-1.27-2.78-2.88-2.78-1.93,0-3.2,1.52-3.2,3.86,0,4.38,3.33,7.11,8.74,7.11,6.79,0,11.96-4.55,11.96-10.58,0-3.5-2.15-5.48-5.31-6.47"/><path d="M1519.46,229.77c2.12-.67,2.96-1.05,4.04-1.77,2.13-1.39,3.42-3.86,3.42-6.39,0-4.26-3.42-7.14-8.45-7.14s-9.05,3.05-9.05,6.75c0,1.84,1.13,3.09,2.83,3.09,1.49,0,2.58-1.07,2.58-2.56,0-.76-.23-1.29-.95-2.01-.46-.41-.63-.74-.63-1.05,0-1.08,2.25-2.2,4.36-2.2,3.02,0,4.81,1.67,4.81,4.45,0,4.02-2.82,7.78-5.84,7.78-.14,0-.55-.03-1.03-.08q-1.31-.09-1.58-.09c-1,0-1.53,.45-1.53,1.26,0,.72,.5,1.16,1.3,1.16,.23,0,.54-.03,.9-.08,.63-.14,1.32-.18,1.71-.18,2.12,0,3.56,1.89,3.56,4.68,0,4.86-2.39,9.53-7.83,9.53-2.51,0-4.69-1.25-4.69-2.7,0-.48,.19-.67,.91-.98,1.3-.58,1.84-1.39,1.84-2.61,0-1.58-1.26-2.78-2.87-2.78-1.94,0-3.2,1.51-3.2,3.86,0,4.37,3.32,7.1,8.73,7.1,6.8,0,11.97-4.54,11.97-10.57,0-3.5-2.16-5.49-5.31-6.47"/><path d="M1299.01,15.3c2.13-.67,2.97-1.05,4.05-1.77,2.12-1.39,3.42-3.86,3.42-6.39,0-4.27-3.42-7.14-8.45-7.14s-9.05,3.05-9.05,6.75c0,1.84,1.13,3.09,2.83,3.09,1.48,0,2.58-1.08,2.58-2.56,0-.76-.24-1.3-.96-2.01-.45-.41-.62-.74-.62-1.05,0-1.08,2.25-2.2,4.36-2.2,3.01,0,4.81,1.67,4.81,4.45,0,4.02-2.83,7.78-5.84,7.78-.14,0-.55-.03-1.03-.08q-1.32-.09-1.58-.09c-1,0-1.53,.45-1.53,1.27,0,.72,.5,1.16,1.29,1.16,.24,0,.55-.03,.91-.08,.63-.14,1.31-.19,1.7-.19,2.13,0,3.57,1.89,3.57,4.69,0,4.86-2.39,9.53-7.83,9.53-2.52,0-4.69-1.25-4.69-2.7,0-.48,.19-.67,.91-.98,1.29-.58,1.84-1.39,1.84-2.61,0-1.58-1.27-2.78-2.87-2.78-1.94,0-3.21,1.52-3.21,3.86,0,4.38,3.33,7.11,8.74,7.11,6.79,0,11.97-4.55,11.97-10.58,0-3.5-2.16-5.49-5.32-6.47"/><path d="M1012.11,27.7c2.13-.67,2.97-1.05,4.05-1.77,2.12-1.39,3.42-3.86,3.42-6.39,0-4.27-3.42-7.14-8.45-7.14s-9.05,3.05-9.05,6.75c0,1.84,1.13,3.09,2.83,3.09,1.48,0,2.58-1.08,2.58-2.56,0-.77-.24-1.3-.96-2.02-.45-.41-.62-.73-.62-1.05,0-1.08,2.25-2.2,4.36-2.2,3.01,0,4.81,1.67,4.81,4.45,0,4.02-2.83,7.78-5.84,7.78-.14,0-.55-.03-1.03-.08q-1.32-.09-1.58-.09c-1,0-1.53,.45-1.53,1.27,0,.72,.5,1.16,1.29,1.16,.24,0,.55-.03,.91-.08,.63-.14,1.31-.19,1.7-.19,2.13,0,3.57,1.89,3.57,4.69,0,4.86-2.39,9.53-7.83,9.53-2.52,0-4.69-1.25-4.69-2.7,0-.48,.19-.67,.91-.98,1.29-.58,1.84-1.39,1.84-2.61,0-1.58-1.27-2.78-2.87-2.78-1.94,0-3.21,1.52-3.21,3.86,0,4.38,3.33,7.11,8.74,7.11,6.79,0,11.97-4.55,11.97-10.58,0-3.5-2.16-5.48-5.32-6.47"/><path d="M761.92,33.9c2.12-.67,2.97-1.05,4.05-1.77,2.12-1.39,3.42-3.86,3.42-6.39,0-4.27-3.42-7.14-8.45-7.14s-9.05,3.05-9.05,6.75c0,1.84,1.12,3.09,2.83,3.09,1.48,0,2.58-1.08,2.58-2.56,0-.77-.23-1.3-.95-2.02-.45-.41-.62-.73-.62-1.05,0-1.08,2.25-2.2,4.36-2.2,3.02,0,4.81,1.67,4.81,4.45,0,4.02-2.83,7.78-5.84,7.78-.14,0-.55-.03-1.03-.08q-1.31-.09-1.58-.09c-1,0-1.53,.45-1.53,1.27,0,.72,.5,1.16,1.3,1.16,.23,0,.55-.03,.91-.08,.62-.14,1.31-.19,1.7-.19,2.12,0,3.56,1.89,3.56,4.69,0,4.86-2.39,9.53-7.83,9.53-2.52,0-4.69-1.25-4.69-2.7,0-.48,.19-.67,.91-.98,1.3-.58,1.84-1.39,1.84-2.61,0-1.58-1.27-2.78-2.88-2.78-1.94,0-3.2,1.52-3.2,3.86,0,4.38,3.33,7.11,8.73,7.11,6.8,0,11.97-4.55,11.97-10.58,0-3.5-2.16-5.48-5.31-6.47"/><path d="M511.72,33.9c2.12-.67,2.97-1.05,4.05-1.77,2.12-1.39,3.42-3.86,3.42-6.39,0-4.27-3.42-7.14-8.45-7.14s-9.05,3.05-9.05,6.75c0,1.84,1.12,3.09,2.83,3.09,1.48,0,2.58-1.08,2.58-2.56,0-.77-.23-1.3-.95-2.02-.45-.41-.62-.73-.62-1.05,0-1.08,2.25-2.2,4.36-2.2,3.02,0,4.81,1.67,4.81,4.45,0,4.02-2.83,7.78-5.84,7.78-.14,0-.55-.03-1.03-.08q-1.31-.09-1.58-.09c-1,0-1.53,.45-1.53,1.27,0,.72,.5,1.16,1.3,1.16,.23,0,.55-.03,.91-.08,.62-.14,1.31-.19,1.7-.19,2.12,0,3.56,1.89,3.56,4.69,0,4.86-2.39,9.53-7.83,9.53-2.52,0-4.69-1.25-4.69-2.7,0-.48,.19-.67,.91-.98,1.3-.58,1.84-1.39,1.84-2.61,0-1.58-1.26-2.78-2.88-2.78-1.94,0-3.2,1.52-3.2,3.86,0,4.38,3.33,7.11,8.73,7.11,6.8,0,11.97-4.55,11.97-10.58,0-3.5-2.16-5.48-5.31-6.47"/><path d="M757.75,373.42c2.12-.67,2.97-1.05,4.05-1.77,2.12-1.39,3.42-3.85,3.42-6.39,0-4.26-3.42-7.14-8.45-7.14s-9.05,3.05-9.05,6.75c0,1.85,1.12,3.1,2.83,3.1,1.48,0,2.58-1.08,2.58-2.57,0-.76-.23-1.29-.95-2.01-.45-.41-.62-.74-.62-1.05,0-1.08,2.25-2.2,4.36-2.2,3.02,0,4.81,1.67,4.81,4.45,0,4.02-2.83,7.78-5.84,7.78-.14,0-.55-.03-1.03-.07q-1.31-.1-1.58-.1c-1,0-1.53,.45-1.53,1.27,0,.72,.5,1.15,1.3,1.15,.23,0,.55-.03,.91-.07,.62-.15,1.31-.19,1.7-.19,2.12,0,3.56,1.89,3.56,4.69,0,4.85-2.39,9.53-7.83,9.53-2.52,0-4.69-1.25-4.69-2.71,0-.48,.19-.67,.91-.98,1.3-.58,1.84-1.39,1.84-2.61,0-1.58-1.27-2.78-2.88-2.78-1.94,0-3.2,1.51-3.2,3.86,0,4.37,3.33,7.11,8.73,7.11,6.8,0,11.97-4.55,11.97-10.58,0-3.5-2.16-5.49-5.31-6.47"/><path d="M1788.09,380.19c2.12-.67,2.97-1.04,4.04-1.76,2.13-1.39,3.43-3.86,3.43-6.39,0-4.27-3.43-7.14-8.46-7.14s-9.04,3.04-9.04,6.75c0,1.84,1.12,3.09,2.82,3.09,1.49,0,2.58-1.08,2.58-2.56,0-.77-.23-1.3-.95-2.02-.45-.4-.63-.73-.63-1.04,0-1.08,2.25-2.21,4.36-2.21,3.02,0,4.82,1.68,4.82,4.46,0,4.01-2.83,7.78-5.85,7.78-.14,0-.54-.03-1.03-.08q-1.31-.09-1.58-.09c-1,0-1.53,.45-1.53,1.26,0,.72,.5,1.16,1.3,1.16,.23,0,.55-.03,.9-.08,.63-.14,1.32-.19,1.71-.19,2.12,0,3.56,1.89,3.56,4.69,0,4.86-2.39,9.53-7.83,9.53-2.51,0-4.69-1.25-4.69-2.7,0-.49,.19-.67,.91-.99,1.3-.57,1.84-1.39,1.84-2.61,0-1.57-1.26-2.78-2.87-2.78-1.94,0-3.2,1.52-3.2,3.86,0,4.38,3.32,7.11,8.73,7.11,6.8,0,11.97-4.55,11.97-10.58,0-3.5-2.16-5.48-5.31-6.47"/><path d="M1006.16,377.09c2.12-.67,2.97-1.04,4.04-1.76,2.13-1.39,3.43-3.86,3.43-6.39,0-4.27-3.43-7.14-8.46-7.14s-9.04,3.04-9.04,6.75c0,1.84,1.12,3.09,2.82,3.09,1.49,0,2.58-1.08,2.58-2.56,0-.77-.23-1.3-.95-2.02-.45-.4-.63-.73-.63-1.04,0-1.08,2.25-2.21,4.36-2.21,3.02,0,4.82,1.68,4.82,4.46,0,4.01-2.83,7.78-5.85,7.78-.14,0-.54-.03-1.03-.08q-1.31-.09-1.58-.09c-1,0-1.53,.45-1.53,1.26,0,.72,.5,1.16,1.3,1.16,.23,0,.55-.03,.9-.08,.63-.14,1.32-.19,1.71-.19,2.12,0,3.56,1.89,3.56,4.69,0,4.86-2.39,9.53-7.83,9.53-2.51,0-4.69-1.25-4.69-2.7,0-.49,.19-.67,.91-.99,1.3-.57,1.84-1.39,1.84-2.61,0-1.57-1.26-2.78-2.87-2.78-1.94,0-3.2,1.52-3.2,3.86,0,4.38,3.32,7.11,8.73,7.11,6.8,0,11.97-4.55,11.97-10.58,0-3.5-2.16-5.48-5.31-6.47"/><path d="M1539.68,380.19c2.12-.67,2.97-1.04,4.05-1.76,2.12-1.39,3.42-3.86,3.42-6.39,0-4.27-3.42-7.14-8.46-7.14s-9.04,3.04-9.04,6.75c0,1.84,1.12,3.09,2.83,3.09,1.48,0,2.57-1.08,2.57-2.56,0-.77-.23-1.3-.95-2.02-.45-.4-.62-.73-.62-1.04,0-1.08,2.25-2.21,4.35-2.21,3.02,0,4.82,1.68,4.82,4.46,0,4.01-2.83,7.78-5.85,7.78-.14,0-.54-.03-1.03-.08q-1.31-.09-1.58-.09c-1,0-1.53,.45-1.53,1.26,0,.72,.5,1.16,1.3,1.16,.23,0,.55-.03,.91-.08,.62-.14,1.31-.19,1.7-.19,2.12,0,3.56,1.89,3.56,4.69,0,4.86-2.39,9.53-7.83,9.53-2.51,0-4.68-1.25-4.68-2.7,0-.49,.18-.67,.9-.99,1.3-.57,1.85-1.39,1.85-2.61,0-1.57-1.27-2.78-2.88-2.78-1.94,0-3.2,1.52-3.2,3.86,0,4.38,3.33,7.11,8.73,7.11,6.8,0,11.97-4.55,11.97-10.58,0-3.5-2.16-5.48-5.31-6.47"/><path d="M261.53,37c2.12-.67,2.97-1.05,4.05-1.77,2.12-1.39,3.42-3.86,3.42-6.39,0-4.27-3.42-7.14-8.45-7.14s-9.05,3.05-9.05,6.75c0,1.84,1.12,3.09,2.83,3.09,1.48,0,2.58-1.08,2.58-2.56,0-.77-.23-1.3-.95-2.02-.45-.41-.62-.73-.62-1.05,0-1.08,2.25-2.2,4.36-2.2,3.02,0,4.81,1.67,4.81,4.45,0,4.02-2.83,7.78-5.84,7.78-.14,0-.55-.03-1.03-.08q-1.31-.09-1.58-.09c-1,0-1.53,.45-1.53,1.27,0,.72,.5,1.16,1.3,1.16,.23,0,.55-.03,.91-.08,.62-.14,1.31-.19,1.7-.19,2.12,0,3.56,1.89,3.56,4.69,0,4.86-2.39,9.53-7.83,9.53-2.52,0-4.69-1.25-4.69-2.7,0-.48,.19-.67,.91-.98,1.3-.58,1.84-1.39,1.84-2.61,0-1.58-1.27-2.78-2.88-2.78-1.94,0-3.2,1.52-3.2,3.86,0,4.38,3.33,7.11,8.73,7.11,6.8,0,11.97-4.55,11.97-10.58,0-3.5-2.16-5.48-5.31-6.47"/><path d="M1291.27,380.19c2.12-.67,2.97-1.04,4.05-1.76,2.12-1.39,3.42-3.86,3.42-6.39,0-4.27-3.42-7.14-8.45-7.14s-9.05,3.04-9.05,6.75c0,1.84,1.12,3.09,2.83,3.09,1.48,0,2.57-1.08,2.57-2.56,0-.77-.23-1.3-.95-2.02-.45-.4-.62-.73-.62-1.04,0-1.08,2.25-2.21,4.36-2.21,3.01,0,4.81,1.68,4.81,4.46,0,4.01-2.83,7.78-5.85,7.78-.14,0-.54-.03-1.03-.08q-1.31-.09-1.57-.09c-1,0-1.54,.45-1.54,1.26,0,.72,.5,1.16,1.3,1.16,.24,0,.55-.03,.91-.08,.62-.14,1.31-.19,1.7-.19,2.13,0,3.56,1.89,3.56,4.69,0,4.86-2.39,9.53-7.83,9.53-2.51,0-4.68-1.25-4.68-2.7,0-.49,.18-.67,.9-.99,1.3-.57,1.85-1.39,1.85-2.61,0-1.57-1.27-2.78-2.88-2.78-1.94,0-3.2,1.52-3.2,3.86,0,4.38,3.33,7.11,8.73,7.11,6.8,0,11.97-4.55,11.97-10.58,0-3.5-2.15-5.48-5.31-6.47"/><path d="M509.34,358.49c2.12-.67,2.97-1.04,4.05-1.76,2.12-1.39,3.42-3.86,3.42-6.39,0-4.27-3.42-7.14-8.45-7.14s-9.05,3.04-9.05,6.75c0,1.84,1.12,3.09,2.83,3.09,1.48,0,2.58-1.08,2.58-2.56,0-.77-.23-1.3-.95-2.02-.45-.4-.62-.73-.62-1.04,0-1.08,2.25-2.21,4.36-2.21,3.02,0,4.81,1.67,4.81,4.46,0,4.01-2.83,7.78-5.84,7.78-.14,0-.55-.03-1.03-.08q-1.31-.09-1.58-.09c-1,0-1.53,.45-1.53,1.26,0,.72,.5,1.16,1.3,1.16,.23,0,.55-.03,.91-.08,.62-.14,1.31-.19,1.7-.19,2.12,0,3.56,1.89,3.56,4.69,0,4.86-2.39,9.53-7.83,9.53-2.52,0-4.69-1.25-4.69-2.7,0-.49,.19-.67,.91-.99,1.3-.58,1.84-1.39,1.84-2.61,0-1.57-1.27-2.78-2.88-2.78-1.94,0-3.2,1.52-3.2,3.86,0,4.38,3.33,7.11,8.73,7.11,6.8,0,11.97-4.55,11.97-10.58,0-3.5-2.16-5.48-5.31-6.47"/><path d="M231.18,575.49c2.12-.67,2.97-1.04,4.05-1.76,2.12-1.39,3.42-3.86,3.42-6.39,0-4.27-3.42-7.14-8.45-7.14s-9.05,3.04-9.05,6.75c0,1.84,1.12,3.09,2.83,3.09,1.48,0,2.58-1.08,2.58-2.56,0-.77-.23-1.3-.95-2.02-.45-.4-.62-.73-.62-1.04,0-1.08,2.25-2.21,4.36-2.21,3.02,0,4.81,1.68,4.81,4.46,0,4.01-2.83,7.78-5.84,7.78-.14,0-.55-.03-1.03-.08q-1.31-.09-1.58-.09c-1,0-1.53,.45-1.53,1.26,0,.72,.5,1.16,1.3,1.16,.23,0,.55-.03,.91-.08,.62-.14,1.31-.19,1.7-.19,2.12,0,3.56,1.89,3.56,4.69,0,4.86-2.39,9.53-7.83,9.53-2.52,0-4.69-1.25-4.69-2.7,0-.49,.19-.67,.91-.99,1.3-.57,1.84-1.39,1.84-2.61,0-1.57-1.27-2.78-2.88-2.78-1.94,0-3.2,1.52-3.2,3.86,0,4.38,3.33,7.11,8.73,7.11,6.8,0,11.97-4.55,11.97-10.58,0-3.5-2.16-5.48-5.31-6.47"/></g></svg>