<?xml version="1.0" encoding="UTF-8"?><svg id="b" xmlns="http://www.w3.org/2000/svg" viewBox="0 0 2552 867.41"><g id="c"><line y1="59.57" x2="2552" y2="59.57" fill="none" stroke="#000" stroke-linejoin="bevel" stroke-width="2.73"/><line y1="84.37" x2="2552" y2="84.37" fill="none" stroke="#000" stroke-linejoin="bevel" stroke-width="2.73"/><line y1="109.17" x2="2552" y2="109.17" fill="none" stroke="#000" stroke-linejoin="bevel" stroke-width="2.73"/><line y1="133.97" x2="2552" y2="133.97" fill="none" stroke="#000" stroke-linejoin="bevel" stroke-width="2.73"/><line y1="158.77" x2="2552" y2="158.77" fill="none" stroke="#000" stroke-linejoin="bevel" stroke-width="2.73"/><line y1="393.25" x2="2552" y2="393.25" fill="none" stroke="#000" stroke-linejoin="bevel" stroke-width="2.73"/><line y1="418.05" x2="2552" y2="418.05" fill="none" stroke="#000" stroke-linejoin="bevel" stroke-width="2.73"/><line y1="442.85" x2="2552" y2="442.85" fill="none" stroke="#000" stroke-linejoin="bevel" stroke-width="2.73"/><line y1="467.65" x2="2552" y2="467.65" fill="none" stroke="#000" stroke-linejoin="bevel" stroke-width="2.73"/><line y1="492.45" x2="2552" y2="492.45" fill="none" stroke="#000" stroke-linejoin="bevel" stroke-width="2.73"/><line y1="726.93" x2="2552" y2="726.93" fill="none" stroke="#000" stroke-linejoin="bevel" stroke-width="2.73"/><line y1="751.73" x2="2552" y2="751.73" fill="none" stroke="#000" stroke-linejoin="bevel" stroke-width="2.73"/><line y1="776.53" x2="2552" y2="776.53" fill="none" stroke="#000" stroke-linejoin="bevel" stroke-width="2.73"/><line y1="801.33" x2="2552" y2="801.33" fill="none" stroke="#000" stroke-linejoin="bevel" stroke-width="2.73"/><line y1="826.13" x2="2552" y2="826.13" fill="none" stroke="#000" stroke-linejoin="bevel" stroke-width="2.73"/><line x1="2549.77" y1="391.89" x2="2549.77" y2="493.82" fill="none" stroke="#000" stroke-linejoin="bevel" stroke-width="4.46"/><line x1="1761.78" y1="58.21" x2="1761.78" y2="160.14" fill="none" stroke="#000" stroke-linejoin="bevel" stroke-width="4.46"/><line x1="1172.13" y1="725.57" x2="1172.13" y2="827.49" fill="none" stroke="#000" stroke-linejoin="bevel" stroke-width="4.46"/><line x1="973.78" y1="391.89" x2="973.78" y2="493.82" fill="none" stroke="#000" stroke-linejoin="bevel" stroke-width="4.46"/><line x1="973.78" y1="58.21" x2="973.78" y2="160.14" fill="none" stroke="#000" stroke-linejoin="bevel" stroke-width="4.46"/><line x1="2158.47" y1="725.57" x2="2158.47" y2="827.49" fill="none" stroke="#000" stroke-linejoin="bevel" stroke-width="4.46"/><line x1="2549.77" y1="58.21" x2="2549.77" y2="160.14" fill="none" stroke="#000" stroke-linejoin="bevel" stroke-width="4.46"/><line x1="2536.13" y1="725.57" x2="2536.13" y2="827.49" fill="none" stroke="#000" stroke-linejoin="bevel" stroke-width="4.46"/><line x1="2549.77" y1="725.57" x2="2549.77" y2="827.49" fill="none" stroke="#000" stroke-linejoin="bevel" stroke-width="4.46"/><line x1="1761.78" y1="391.89" x2="1761.78" y2="493.82" fill="none" stroke="#000" stroke-linejoin="bevel" stroke-width="4.46"/><line x1="1788.06" y1="517.25" x2="1836.67" y2="517.25" fill="none" stroke="#000" stroke-linejoin="bevel" stroke-width="3.97"/><line x1="1850.05" y1="517.25" x2="1898.65" y2="517.25" fill="none" stroke="#000" stroke-linejoin="bevel" stroke-width="3.97"/><line x1="1912.04" y1="517.25" x2="1960.64" y2="517.25" fill="none" stroke="#000" stroke-linejoin="bevel" stroke-width="3.97"/><line x1="2345.95" y1="517.25" x2="2394.55" y2="517.25" fill="none" stroke="#000" stroke-linejoin="bevel" stroke-width="3.97"/><line x1="2407.93" y1="517.25" x2="2456.54" y2="517.25" fill="none" stroke="#000" stroke-linejoin="bevel" stroke-width="3.97"/><line x1="2469.92" y1="517.25" x2="2518.52" y2="517.25" fill="none" stroke="#000" stroke-linejoin="bevel" stroke-width="3.97"/><line x1="1101.23" y1="154.8" x2="1101.23" y2="84.37" fill="none" stroke="#000" stroke-linejoin="bevel" stroke-width="2.48"/><line x1="1163.22" y1="154.8" x2="1163.22" y2="84.37" fill="none" stroke="#000" stroke-linejoin="bevel" stroke-width="2.48"/><line x1="1225.21" y1="142.4" x2="1225.21" y2="65.77" fill="none" stroke="#000" stroke-linejoin="bevel" stroke-width="2.48"/><line x1="1287.2" y1="142.4" x2="1287.2" y2="65.77" fill="none" stroke="#000" stroke-linejoin="bevel" stroke-width="2.48"/><line x1="1349.18" y1="142.4" x2="1349.18" y2="65.77" fill="none" stroke="#000" stroke-linejoin="bevel" stroke-width="2.48"/><line x1="1411.17" y1="130" x2="1411.17" y2="59.57" fill="none" stroke="#000" stroke-linejoin="bevel" stroke-width="2.48"/><line x1="1473.16" y1="130" x2="1473.16" y2="59.57" fill="none" stroke="#000" stroke-linejoin="bevel" stroke-width="2.48"/><line x1="1535.14" y1="130" x2="1535.14" y2="59.57" fill="none" stroke="#000" stroke-linejoin="bevel" stroke-width="2.48"/><line x1="1597.13" y1="154.8" x2="1597.13" y2="84.37" fill="none" stroke="#000" stroke-linejoin="bevel" stroke-width="2.48"/><line x1="1659.12" y1="154.8" x2="1659.12" y2="84.37" fill="none" stroke="#000" stroke-linejoin="bevel" stroke-width="2.48"/><line x1="1721.1" y1="154.8" x2="1721.1" y2="84.37" fill="none" stroke="#000" stroke-linejoin="bevel" stroke-width="2.48"/><line x1="1827.24" y1="142.4" x2="1827.24" y2="65.77" fill="none" stroke="#000" stroke-linejoin="bevel" stroke-width="2.48"/><line x1="1889.23" y1="142.4" x2="1889.23" y2="65.77" fill="none" stroke="#000" stroke-linejoin="bevel" stroke-width="2.48"/><line x1="1951.22" y1="142.4" x2="1951.22" y2="65.77" fill="none" stroke="#000" stroke-linejoin="bevel" stroke-width="2.48"/><line x1="2013.2" y1="130" x2="2013.2" y2="59.57" fill="none" stroke="#000" stroke-linejoin="bevel" stroke-width="2.48"/><line x1="2075.19" y1="130" x2="2075.19" y2="59.57" fill="none" stroke="#000" stroke-linejoin="bevel" stroke-width="2.48"/><line x1="2137.18" y1="130" x2="2137.18" y2="59.57" fill="none" stroke="#000" stroke-linejoin="bevel" stroke-width="2.48"/><line x1="2199.16" y1="117.6" x2="2199.16" y2="53.37" fill="none" stroke="#000" stroke-linejoin="bevel" stroke-width="2.48"/><line x1="2261.15" y1="117.6" x2="2261.15" y2="53.37" fill="none" stroke="#000" stroke-linejoin="bevel" stroke-width="2.48"/><line x1="2323.14" y1="117.6" x2="2323.14" y2="53.37" fill="none" stroke="#000" stroke-linejoin="bevel" stroke-width="2.48"/><line x1="2385.12" y1="142.4" x2="2385.12" y2="65.77" fill="none" stroke="#000" stroke-linejoin="bevel" stroke-width="2.48"/><line x1="2447.11" y1="142.4" x2="2447.11" y2="65.77" fill="none" stroke="#000" stroke-linejoin="bevel" stroke-width="2.48"/><line x1="2509.1" y1="142.4" x2="2509.1" y2="65.77" fill="none" stroke="#000" stroke-linejoin="bevel" stroke-width="2.48"/><line x1="251.26" y1="500.88" x2="251.26" y2="424.25" fill="none" stroke="#000" stroke-linejoin="bevel" stroke-width="2.48"/><line x1="313.24" y1="500.88" x2="313.24" y2="424.25" fill="none" stroke="#000" stroke-linejoin="bevel" stroke-width="2.48"/><line x1="375.23" y1="500.88" x2="375.23" y2="424.25" fill="none" stroke="#000" stroke-linejoin="bevel" stroke-width="2.48"/><line x1="437.22" y1="488.48" x2="437.22" y2="418.05" fill="none" stroke="#000" stroke-linejoin="bevel" stroke-width="2.48"/><line x1="499.2" y1="488.48" x2="499.2" y2="418.05" fill="none" stroke="#000" stroke-linejoin="bevel" stroke-width="2.48"/><line x1="561.19" y1="488.48" x2="561.19" y2="418.05" fill="none" stroke="#000" stroke-linejoin="bevel" stroke-width="2.48"/><line x1="623.18" y1="476.08" x2="623.18" y2="399.45" fill="none" stroke="#000" stroke-linejoin="bevel" stroke-width="2.48"/><line x1="685.16" y1="476.08" x2="685.16" y2="399.45" fill="none" stroke="#000" stroke-linejoin="bevel" stroke-width="2.48"/><line x1="747.15" y1="476.08" x2="747.15" y2="399.45" fill="none" stroke="#000" stroke-linejoin="bevel" stroke-width="2.48"/><line x1="809.14" y1="500.88" x2="809.14" y2="424.25" fill="none" stroke="#000" stroke-linejoin="bevel" stroke-width="2.48"/><line x1="871.12" y1="500.88" x2="871.12" y2="424.25" fill="none" stroke="#000" stroke-linejoin="bevel" stroke-width="2.48"/><line x1="933.11" y1="500.88" x2="933.11" y2="424.25" fill="none" stroke="#000" stroke-linejoin="bevel" stroke-width="2.48"/><line x1="1039.25" y1="488.48" x2="1039.25" y2="418.05" fill="none" stroke="#000" stroke-linejoin="bevel" stroke-width="2.48"/><line x1="1101.23" y1="488.48" x2="1101.23" y2="418.05" fill="none" stroke="#000" stroke-linejoin="bevel" stroke-width="2.48"/><line x1="1163.22" y1="488.48" x2="1163.22" y2="418.05" fill="none" stroke="#000" stroke-linejoin="bevel" stroke-width="2.48"/><line x1="1225.21" y1="476.08" x2="1225.21" y2="399.45" fill="none" stroke="#000" stroke-linejoin="bevel" stroke-width="2.48"/><line x1="1287.2" y1="476.08" x2="1287.2" y2="399.45" fill="none" stroke="#000" stroke-linejoin="bevel" stroke-width="2.48"/><line x1="1349.18" y1="476.08" x2="1349.18" y2="399.45" fill="none" stroke="#000" stroke-linejoin="bevel" stroke-width="2.48"/><line x1="1411.17" y1="463.68" x2="1411.17" y2="393.25" fill="none" stroke="#000" stroke-linejoin="bevel" stroke-width="2.48"/><line x1="1473.16" y1="463.68" x2="1473.16" y2="393.25" fill="none" stroke="#000" stroke-linejoin="bevel" stroke-width="2.48"/><line x1="1535.14" y1="463.68" x2="1535.14" y2="393.25" fill="none" stroke="#000" stroke-linejoin="bevel" stroke-width="2.48"/><line x1="1597.13" y1="488.48" x2="1597.13" y2="418.05" fill="none" stroke="#000" stroke-linejoin="bevel" stroke-width="2.48"/><line x1="1039.25" y1="154.8" x2="1039.25" y2="84.37" fill="none" stroke="#000" stroke-linejoin="bevel" stroke-width="2.48"/><line x1="1721.1" y1="488.48" x2="1721.1" y2="418.05" fill="none" stroke="#000" stroke-linejoin="bevel" stroke-width="2.48"/><line x1="1827.24" y1="513.28" x2="1827.24" y2="442.85" fill="none" stroke="#000" stroke-linejoin="bevel" stroke-width="2.48"/><line x1="251.26" y1="167.2" x2="251.26" y2="90.57" fill="none" stroke="#000" stroke-linejoin="bevel" stroke-width="2.48"/><line x1="1889.23" y1="513.28" x2="1889.23" y2="442.85" fill="none" stroke="#000" stroke-linejoin="bevel" stroke-width="2.48"/><line x1="1951.22" y1="513.28" x2="1951.22" y2="442.85" fill="none" stroke="#000" stroke-linejoin="bevel" stroke-width="2.48"/><line x1="2013.2" y1="500.88" x2="2013.2" y2="424.25" fill="none" stroke="#000" stroke-linejoin="bevel" stroke-width="2.48"/><line x1="2075.19" y1="500.88" x2="2075.19" y2="424.25" fill="none" stroke="#000" stroke-linejoin="bevel" stroke-width="2.48"/><line x1="2137.18" y1="500.88" x2="2137.18" y2="424.25" fill="none" stroke="#000" stroke-linejoin="bevel" stroke-width="2.48"/><line x1="2199.16" y1="488.48" x2="2199.16" y2="418.05" fill="none" stroke="#000" stroke-linejoin="bevel" stroke-width="2.48"/><line x1="2261.15" y1="488.48" x2="2261.15" y2="418.05" fill="none" stroke="#000" stroke-linejoin="bevel" stroke-width="2.48"/><line x1="2323.14" y1="488.48" x2="2323.14" y2="418.05" fill="none" stroke="#000" stroke-linejoin="bevel" stroke-width="2.48"/><line x1="2385.12" y1="513.28" x2="2385.12" y2="442.85" fill="none" stroke="#000" stroke-linejoin="bevel" stroke-width="2.48"/><line x1="313.24" y1="167.2" x2="313.24" y2="90.57" fill="none" stroke="#000" stroke-linejoin="bevel" stroke-width="2.48"/><line x1="2447.11" y1="513.28" x2="2447.11" y2="442.85" fill="none" stroke="#000" stroke-linejoin="bevel" stroke-width="2.48"/><line x1="2509.1" y1="513.28" x2="2509.1" y2="442.85" fill="none" stroke="#000" stroke-linejoin="bevel" stroke-width="2.48"/><line x1="1659.12" y1="488.48" x2="1659.12" y2="418.05" fill="none" stroke="#000" stroke-linejoin="bevel" stroke-width="2.48"/><line x1="375.23" y1="167.2" x2="375.23" y2="90.57" fill="none" stroke="#000" stroke-linejoin="bevel" stroke-width="2.48"/><line x1="251.26" y1="834.56" x2="251.26" y2="757.93" fill="none" stroke="#000" stroke-linejoin="bevel" stroke-width="2.48"/><line x1="330.39" y1="834.56" x2="330.39" y2="757.93" fill="none" stroke="#000" stroke-linejoin="bevel" stroke-width="2.48"/><line x1="409.53" y1="834.56" x2="409.53" y2="757.93" fill="none" stroke="#000" stroke-linejoin="bevel" stroke-width="2.48"/><line x1="488.66" y1="809.76" x2="488.66" y2="733.13" fill="none" stroke="#000" stroke-linejoin="bevel" stroke-width="2.48"/><line x1="567.8" y1="809.76" x2="567.8" y2="733.13" fill="none" stroke="#000" stroke-linejoin="bevel" stroke-width="2.48"/><line x1="437.22" y1="154.8" x2="437.22" y2="84.37" fill="none" stroke="#000" stroke-linejoin="bevel" stroke-width="2.48"/><line x1="646.94" y1="809.76" x2="646.94" y2="733.13" fill="none" stroke="#000" stroke-linejoin="bevel" stroke-width="2.48"/><line x1="726.07" y1="822.16" x2="726.07" y2="751.73" fill="none" stroke="#000" stroke-linejoin="bevel" stroke-width="2.48"/><line x1="499.2" y1="154.8" x2="499.2" y2="84.37" fill="none" stroke="#000" stroke-linejoin="bevel" stroke-width="2.48"/><line x1="805.21" y1="822.16" x2="805.21" y2="751.73" fill="none" stroke="#000" stroke-linejoin="bevel" stroke-width="2.48"/><line x1="884.34" y1="822.16" x2="884.34" y2="751.73" fill="none" stroke="#000" stroke-linejoin="bevel" stroke-width="2.48"/><line x1="963.48" y1="834.56" x2="963.48" y2="757.93" fill="none" stroke="#000" stroke-linejoin="bevel" stroke-width="2.48"/><line x1="561.19" y1="154.8" x2="561.19" y2="84.37" fill="none" stroke="#000" stroke-linejoin="bevel" stroke-width="2.48"/><line x1="1042.62" y1="834.56" x2="1042.62" y2="757.93" fill="none" stroke="#000" stroke-linejoin="bevel" stroke-width="2.48"/><line x1="1121.75" y1="834.56" x2="1121.75" y2="757.93" fill="none" stroke="#000" stroke-linejoin="bevel" stroke-width="2.48"/><line x1="1237.59" y1="822.16" x2="1237.59" y2="751.73" fill="none" stroke="#000" stroke-linejoin="bevel" stroke-width="2.48"/><line x1="623.18" y1="142.4" x2="623.18" y2="65.77" fill="none" stroke="#000" stroke-linejoin="bevel" stroke-width="2.48"/><line x1="1316.73" y1="822.16" x2="1316.73" y2="751.73" fill="none" stroke="#000" stroke-linejoin="bevel" stroke-width="2.48"/><line x1="1395.87" y1="822.16" x2="1395.87" y2="751.73" fill="none" stroke="#000" stroke-linejoin="bevel" stroke-width="2.48"/><line x1="1475" y1="797.36" x2="1475" y2="726.93" fill="none" stroke="#000" stroke-linejoin="bevel" stroke-width="2.48"/><line x1="1554.14" y1="797.36" x2="1554.14" y2="726.93" fill="none" stroke="#000" stroke-linejoin="bevel" stroke-width="2.48"/><line x1="1633.27" y1="797.36" x2="1633.27" y2="726.93" fill="none" stroke="#000" stroke-linejoin="bevel" stroke-width="2.48"/><line x1="1712.41" y1="809.76" x2="1712.41" y2="733.13" fill="none" stroke="#000" stroke-linejoin="bevel" stroke-width="2.48"/><line x1="1791.55" y1="809.76" x2="1791.55" y2="733.13" fill="none" stroke="#000" stroke-linejoin="bevel" stroke-width="2.48"/><line x1="1870.68" y1="809.76" x2="1870.68" y2="733.13" fill="none" stroke="#000" stroke-linejoin="bevel" stroke-width="2.48"/><line x1="1949.82" y1="822.16" x2="1949.82" y2="751.73" fill="none" stroke="#000" stroke-linejoin="bevel" stroke-width="2.48"/><line x1="2028.96" y1="822.16" x2="2028.96" y2="751.73" fill="none" stroke="#000" stroke-linejoin="bevel" stroke-width="2.48"/><line x1="2108.09" y1="822.16" x2="2108.09" y2="751.73" fill="none" stroke="#000" stroke-linejoin="bevel" stroke-width="2.48"/><line x1="685.16" y1="142.4" x2="685.16" y2="65.77" fill="none" stroke="#000" stroke-linejoin="bevel" stroke-width="2.48"/><line x1="747.15" y1="142.4" x2="747.15" y2="65.77" fill="none" stroke="#000" stroke-linejoin="bevel" stroke-width="2.48"/><line x1="809.14" y1="167.2" x2="809.14" y2="90.57" fill="none" stroke="#000" stroke-linejoin="bevel" stroke-width="2.48"/><line x1="871.12" y1="167.2" x2="871.12" y2="90.57" fill="none" stroke="#000" stroke-linejoin="bevel" stroke-width="2.48"/><line x1="933.11" y1="167.2" x2="933.11" y2="90.57" fill="none" stroke="#000" stroke-linejoin="bevel" stroke-width="2.48"/><path d="M1070.24,496.62c0,4.26,3.07,9.02,11.11,9.02,10.31,0,21.13-8.43,21.13-17.16,0-5.86-4.96-9.13-11.11-9.13-9.63,0-21.13,8.14-21.13,17.27"/><path d="M1132.23,496.62c0,4.26,3.07,9.02,11.11,9.02,10.31,0,21.13-8.43,21.13-17.16,0-5.86-4.96-9.13-11.11-9.13-9.63,0-21.13,8.14-21.13,17.27"/><path d="M1194.22,484.22c0,4.26,3.07,9.02,11.11,9.02,10.31,0,21.13-8.43,21.13-17.16,0-5.86-4.96-9.13-11.11-9.13-9.63,0-21.13,8.14-21.13,17.27"/><path d="M1256.2,484.22c0,4.26,3.07,9.02,11.11,9.02,10.31,0,21.13-8.43,21.13-17.16,0-5.86-4.96-9.13-11.11-9.13-9.63,0-21.13,8.14-21.13,17.27"/><path d="M1318.19,484.22c0,4.26,3.07,9.02,11.11,9.02,10.31,0,21.13-8.43,21.13-17.16,0-5.86-4.96-9.13-11.11-9.13-9.63,0-21.13,8.14-21.13,17.27"/><path d="M1380.18,471.82c0,4.26,3.07,9.02,11.11,9.02,10.31,0,21.13-8.43,21.13-17.16,0-5.86-4.96-9.13-11.11-9.13-9.63,0-21.13,8.14-21.13,17.27"/><path d="M1442.16,471.82c0,4.26,3.07,9.02,11.11,9.02,10.31,0,21.13-8.43,21.13-17.16,0-5.86-4.96-9.13-11.11-9.13-9.63,0-21.13,8.14-21.13,17.27"/><path d="M1504.15,471.82c0,4.26,3.07,9.02,11.11,9.02,10.31,0,21.13-8.43,21.13-17.16,0-5.86-4.96-9.13-11.11-9.13-9.63,0-21.13,8.14-21.13,17.27"/><path d="M1566.14,496.62c0,4.26,3.07,9.02,11.11,9.02,10.31,0,21.13-8.43,21.13-17.16,0-5.86-4.96-9.13-11.11-9.13-9.63,0-21.13,8.14-21.13,17.27"/><path d="M1628.13,496.62c0,4.26,3.07,9.02,11.11,9.02,10.31,0,21.13-8.43,21.13-17.16,0-5.86-4.96-9.13-11.11-9.13-9.63,0-21.13,8.14-21.13,17.27"/><path d="M1690.11,496.62c0,4.26,3.07,9.02,11.11,9.02,10.31,0,21.13-8.43,21.13-17.16,0-5.86-4.96-9.13-11.11-9.13-9.63,0-21.13,8.14-21.13,17.27"/><path d="M1796.25,521.42c0,4.26,3.07,9.02,11.11,9.02,10.31,0,21.13-8.43,21.13-17.16,0-5.86-4.96-9.13-11.11-9.13-9.63,0-21.13,8.14-21.13,17.27"/><path d="M1858.24,521.42c0,4.26,3.07,9.02,11.11,9.02,10.31,0,21.13-8.43,21.13-17.16,0-5.86-4.96-9.13-11.11-9.13-9.63,0-21.13,8.14-21.13,17.27"/><path d="M1920.22,521.42c0,4.26,3.07,9.02,11.11,9.02,10.31,0,21.13-8.43,21.13-17.16,0-5.86-4.96-9.13-11.11-9.13-9.63,0-21.13,8.14-21.13,17.27"/><path d="M1982.21,509.02c0,4.26,3.07,9.02,11.11,9.02,10.31,0,21.13-8.43,21.13-17.16,0-5.86-4.96-9.13-11.11-9.13-9.63,0-21.13,8.14-21.13,17.27"/><path d="M2044.2,509.02c0,4.26,3.07,9.02,11.11,9.02,10.31,0,21.13-8.43,21.13-17.16,0-5.86-4.96-9.13-11.11-9.13-9.63,0-21.13,8.14-21.13,17.27"/><path d="M2106.18,509.02c0,4.26,3.07,9.02,11.11,9.02,10.31,0,21.13-8.43,21.13-17.16,0-5.86-4.96-9.13-11.11-9.13-9.63,0-21.13,8.14-21.13,17.27"/><path d="M2168.17,496.62c0,4.26,3.07,9.02,11.11,9.02,10.31,0,21.13-8.43,21.13-17.16,0-5.86-4.96-9.13-11.11-9.13-9.63,0-21.13,8.14-21.13,17.27"/><path d="M2230.16,496.62c0,4.26,3.07,9.02,11.11,9.02,10.31,0,21.13-8.43,21.13-17.16,0-5.86-4.96-9.13-11.11-9.13-9.63,0-21.13,8.14-21.13,17.27"/><path d="M2292.14,496.62c0,4.26,3.07,9.02,11.11,9.02,10.31,0,21.13-8.43,21.13-17.16,0-5.86-4.96-9.13-11.11-9.13-9.63,0-21.13,8.14-21.13,17.27"/><path d="M2354.13,521.42c0,4.26,3.07,9.02,11.11,9.02,10.31,0,21.13-8.43,21.13-17.16,0-5.86-4.96-9.13-11.11-9.13-9.63,0-21.13,8.14-21.13,17.27"/><path d="M2416.12,521.42c0,4.26,3.07,9.02,11.11,9.02,10.31,0,21.13-8.43,21.13-17.16,0-5.86-4.96-9.13-11.11-9.13-9.63,0-21.13,8.14-21.13,17.27"/><path d="M2478.11,521.42c0,4.26,3.07,9.02,11.11,9.02,10.31,0,21.13-8.43,21.13-17.16,0-5.86-4.96-9.13-11.11-9.13-9.63,0-21.13,8.14-21.13,17.27"/><path d="M220.26,842.7c0,4.26,3.07,9.02,11.11,9.02,10.31,0,21.13-8.43,21.13-17.16,0-5.86-4.96-9.13-11.11-9.13-9.63,0-21.13,8.14-21.13,17.27"/><path d="M299.4,842.7c0,4.26,3.07,9.02,11.11,9.02,10.31,0,21.13-8.43,21.13-17.16,0-5.86-4.96-9.13-11.11-9.13-9.63,0-21.13,8.14-21.13,17.27"/><path d="M378.54,842.7c0,4.26,3.07,9.02,11.11,9.02,10.31,0,21.13-8.43,21.13-17.16,0-5.86-4.96-9.13-11.11-9.13-9.63,0-21.13,8.14-21.13,17.27"/><path d="M457.67,817.9c0,4.26,3.07,9.02,11.11,9.02,10.31,0,21.13-8.43,21.13-17.16,0-5.86-4.96-9.13-11.11-9.13-9.63,0-21.13,8.14-21.13,17.27"/><path d="M536.81,817.9c0,4.26,3.07,9.02,11.11,9.02,10.31,0,21.13-8.43,21.13-17.16,0-5.86-4.96-9.13-11.11-9.13-9.63,0-21.13,8.14-21.13,17.27"/><path d="M615.95,817.9c0,4.26,3.07,9.02,11.11,9.02,10.31,0,21.13-8.43,21.13-17.16,0-5.86-4.96-9.13-11.11-9.13-9.63,0-21.13,8.14-21.13,17.27"/><path d="M695.08,830.3c0,4.26,3.07,9.02,11.11,9.02,10.31,0,21.13-8.43,21.13-17.16,0-5.86-4.96-9.13-11.11-9.13-9.63,0-21.13,8.14-21.13,17.27"/><path d="M774.22,830.3c0,4.26,3.07,9.02,11.11,9.02,10.31,0,21.13-8.43,21.13-17.16,0-5.86-4.96-9.13-11.11-9.13-9.63,0-21.13,8.14-21.13,17.27"/><path d="M853.35,830.3c0,4.26,3.07,9.02,11.11,9.02,10.31,0,21.13-8.43,21.13-17.16,0-5.86-4.96-9.13-11.11-9.13-9.63,0-21.13,8.14-21.13,17.27"/><path d="M932.49,842.7c0,4.26,3.07,9.02,11.11,9.02,10.31,0,21.13-8.43,21.13-17.16,0-5.86-4.96-9.13-11.11-9.13-9.63,0-21.13,8.14-21.13,17.27"/><path d="M1011.62,842.7c0,4.26,3.07,9.02,11.11,9.02,10.31,0,21.13-8.43,21.13-17.16,0-5.86-4.96-9.13-11.11-9.13-9.63,0-21.13,8.14-21.13,17.27"/><path d="M1090.76,842.7c0,4.26,3.07,9.02,11.11,9.02,10.31,0,21.13-8.43,21.13-17.16,0-5.86-4.96-9.13-11.11-9.13-9.63,0-21.13,8.14-21.13,17.27"/><path d="M1206.6,830.3c0,4.26,3.07,9.02,11.11,9.02,10.31,0,21.13-8.43,21.13-17.16,0-5.86-4.96-9.13-11.11-9.13-9.63,0-21.13,8.14-21.13,17.27"/><path d="M1285.74,830.3c0,4.26,3.07,9.02,11.11,9.02,10.31,0,21.13-8.43,21.13-17.16,0-5.86-4.96-9.13-11.11-9.13-9.63,0-21.13,8.14-21.13,17.27"/><path d="M1364.87,830.3c0,4.26,3.07,9.02,11.11,9.02,10.31,0,21.13-8.43,21.13-17.16,0-5.86-4.96-9.13-11.11-9.13-9.63,0-21.13,8.14-21.13,17.27"/><path d="M1444.01,805.5c0,4.26,3.07,9.02,11.11,9.02,10.31,0,21.13-8.43,21.13-17.16,0-5.86-4.96-9.13-11.11-9.13-9.63,0-21.13,8.14-21.13,17.27"/><path d="M1523.15,805.5c0,4.26,3.07,9.02,11.11,9.02,10.31,0,21.13-8.43,21.13-17.16,0-5.86-4.96-9.13-11.11-9.13-9.63,0-21.13,8.14-21.13,17.27"/><path d="M1602.28,805.5c0,4.26,3.07,9.02,11.11,9.02,10.31,0,21.13-8.43,21.13-17.16,0-5.86-4.96-9.13-11.11-9.13-9.63,0-21.13,8.14-21.13,17.27"/><path d="M1681.42,817.9c0,4.26,3.07,9.02,11.11,9.02,10.31,0,21.13-8.43,21.13-17.16,0-5.86-4.96-9.13-11.11-9.13-9.63,0-21.13,8.14-21.13,17.27"/><path d="M1760.55,817.9c0,4.26,3.07,9.02,11.11,9.02,10.31,0,21.13-8.43,21.13-17.16,0-5.86-4.96-9.13-11.11-9.13-9.63,0-21.13,8.14-21.13,17.27"/><path d="M1839.69,817.9c0,4.26,3.07,9.02,11.11,9.02,10.31,0,21.13-8.43,21.13-17.16,0-5.86-4.96-9.13-11.11-9.13-9.63,0-21.13,8.14-21.13,17.27"/><path d="M1918.83,830.3c0,4.26,3.07,9.02,11.11,9.02,10.31,0,21.13-8.43,21.13-17.16,0-5.86-4.96-9.13-11.11-9.13-9.63,0-21.13,8.14-21.13,17.27"/><path d="M1997.96,830.3c0,4.26,3.07,9.02,11.11,9.02,10.31,0,21.13-8.43,21.13-17.16,0-5.86-4.96-9.13-11.11-9.13-9.63,0-21.13,8.14-21.13,17.27"/><path d="M2077.1,830.3c0,4.26,3.07,9.02,11.11,9.02,10.31,0,21.13-8.43,21.13-17.16,0-5.86-4.96-9.13-11.11-9.13-9.63,0-21.13,8.14-21.13,17.27"/><path d="M2211.5,825.05c-13.69,0-18.55,6.94-18.55,13.39s4.87,13.39,18.55,13.39,18.45-6.94,18.45-13.39-4.76-13.39-18.45-13.39m.79,23.61c-2.77,0-4.67-.79-5.95-3.27s-3.07-8.93-3.18-11.52c-.2-2.68,.79-4.26,3.18-5.05,1.19-.4,2.77-.6,4.37-.6,2.67,0,4.46,.6,5.84,3.29,1.39,2.57,3.29,9.02,3.29,11.5,0,4.87-3.58,5.66-7.55,5.66"/><path d="M220.26,175.34c0,4.26,3.07,9.02,11.11,9.02,10.31,0,21.13-8.43,21.13-17.16,0-5.86-4.96-9.13-11.11-9.13-9.63,0-21.13,8.14-21.13,17.27"/><path d="M282.25,175.34c0,4.26,3.07,9.02,11.11,9.02,10.31,0,21.13-8.43,21.13-17.16,0-5.86-4.96-9.13-11.11-9.13-9.63,0-21.13,8.14-21.13,17.27"/><path d="M344.24,175.34c0,4.26,3.07,9.02,11.11,9.02,10.31,0,21.13-8.43,21.13-17.16,0-5.86-4.96-9.13-11.11-9.13-9.63,0-21.13,8.14-21.13,17.27"/><path d="M406.22,162.94c0,4.26,3.07,9.02,11.11,9.02,10.31,0,21.13-8.43,21.13-17.16,0-5.86-4.96-9.13-11.11-9.13-9.63,0-21.13,8.14-21.13,17.27"/><path d="M468.21,162.94c0,4.26,3.07,9.02,11.11,9.02,10.31,0,21.13-8.43,21.13-17.16,0-5.86-4.96-9.13-11.11-9.13-9.63,0-21.13,8.14-21.13,17.27"/><path d="M530.2,162.94c0,4.26,3.07,9.02,11.11,9.02,10.31,0,21.13-8.43,21.13-17.16,0-5.86-4.96-9.13-11.11-9.13-9.63,0-21.13,8.14-21.13,17.27"/><path d="M592.19,150.54c0,4.26,3.07,9.02,11.11,9.02,10.31,0,21.13-8.43,21.13-17.16,0-5.86-4.96-9.13-11.11-9.13-9.63,0-21.13,8.14-21.13,17.27"/><path d="M654.17,150.54c0,4.26,3.07,9.02,11.11,9.02,10.31,0,21.13-8.43,21.13-17.16,0-5.86-4.96-9.13-11.11-9.13-9.63,0-21.13,8.14-21.13,17.27"/><path d="M716.16,150.54c0,4.26,3.07,9.02,11.11,9.02,10.31,0,21.13-8.43,21.13-17.16,0-5.86-4.96-9.13-11.11-9.13-9.63,0-21.13,8.14-21.13,17.27"/><path d="M778.15,175.34c0,4.26,3.07,9.02,11.11,9.02,10.31,0,21.13-8.43,21.13-17.16,0-5.86-4.96-9.13-11.11-9.13-9.63,0-21.13,8.14-21.13,17.27"/><path d="M840.13,175.34c0,4.26,3.07,9.02,11.11,9.02,10.31,0,21.13-8.43,21.13-17.16,0-5.86-4.96-9.13-11.11-9.13-9.63,0-21.13,8.14-21.13,17.27"/><path d="M902.12,175.34c0,4.26,3.07,9.02,11.11,9.02,10.31,0,21.13-8.43,21.13-17.16,0-5.86-4.96-9.13-11.11-9.13-9.63,0-21.13,8.14-21.13,17.27"/><path d="M1008.26,162.94c0,4.26,3.07,9.02,11.11,9.02,10.31,0,21.13-8.43,21.13-17.16,0-5.86-4.96-9.13-11.11-9.13-9.63,0-21.13,8.14-21.13,17.27"/><path d="M1070.24,162.94c0,4.26,3.07,9.02,11.11,9.02,10.31,0,21.13-8.43,21.13-17.16,0-5.86-4.96-9.13-11.11-9.13-9.63,0-21.13,8.14-21.13,17.27"/><path d="M1132.23,162.94c0,4.26,3.07,9.02,11.11,9.02,10.31,0,21.13-8.43,21.13-17.16,0-5.86-4.96-9.13-11.11-9.13-9.63,0-21.13,8.14-21.13,17.27"/><path d="M1194.22,150.54c0,4.26,3.07,9.02,11.11,9.02,10.31,0,21.13-8.43,21.13-17.16,0-5.86-4.96-9.13-11.11-9.13-9.63,0-21.13,8.14-21.13,17.27"/><path d="M1256.2,150.54c0,4.26,3.07,9.02,11.11,9.02,10.31,0,21.13-8.43,21.13-17.16,0-5.86-4.96-9.13-11.11-9.13-9.63,0-21.13,8.14-21.13,17.27"/><path d="M1318.19,150.54c0,4.26,3.07,9.02,11.11,9.02,10.31,0,21.13-8.43,21.13-17.16,0-5.86-4.96-9.13-11.11-9.13-9.63,0-21.13,8.14-21.13,17.27"/><path d="M1380.18,138.14c0,4.26,3.07,9.02,11.11,9.02,10.31,0,21.13-8.43,21.13-17.16,0-5.86-4.96-9.13-11.11-9.13-9.63,0-21.13,8.14-21.13,17.27"/><path d="M1442.16,138.14c0,4.26,3.07,9.02,11.11,9.02,10.31,0,21.13-8.43,21.13-17.16,0-5.86-4.96-9.13-11.11-9.13-9.63,0-21.13,8.14-21.13,17.27"/><path d="M1504.15,138.14c0,4.26,3.07,9.02,11.11,9.02,10.31,0,21.13-8.43,21.13-17.16,0-5.86-4.96-9.13-11.11-9.13-9.63,0-21.13,8.14-21.13,17.27"/><path d="M1566.14,162.94c0,4.26,3.07,9.02,11.11,9.02,10.31,0,21.13-8.43,21.13-17.16,0-5.86-4.96-9.13-11.11-9.13-9.63,0-21.13,8.14-21.13,17.27"/><path d="M1628.13,162.94c0,4.26,3.07,9.02,11.11,9.02,10.31,0,21.13-8.43,21.13-17.16,0-5.86-4.96-9.13-11.11-9.13-9.63,0-21.13,8.14-21.13,17.27"/><path d="M1690.11,162.94c0,4.26,3.07,9.02,11.11,9.02,10.31,0,21.13-8.43,21.13-17.16,0-5.86-4.96-9.13-11.11-9.13-9.63,0-21.13,8.14-21.13,17.27"/><path d="M1796.25,150.54c0,4.26,3.07,9.02,11.11,9.02,10.31,0,21.13-8.43,21.13-17.16,0-5.86-4.96-9.13-11.11-9.13-9.63,0-21.13,8.14-21.13,17.27"/><path d="M1858.24,150.54c0,4.26,3.07,9.02,11.11,9.02,10.31,0,21.13-8.43,21.13-17.16,0-5.86-4.96-9.13-11.11-9.13-9.63,0-21.13,8.14-21.13,17.27"/><path d="M1920.22,150.54c0,4.26,3.07,9.02,11.11,9.02,10.31,0,21.13-8.43,21.13-17.16,0-5.86-4.96-9.13-11.11-9.13-9.63,0-21.13,8.14-21.13,17.27"/><path d="M1982.21,138.14c0,4.26,3.07,9.02,11.11,9.02,10.31,0,21.13-8.43,21.13-17.16,0-5.86-4.96-9.13-11.11-9.13-9.63,0-21.13,8.14-21.13,17.27"/><path d="M2044.2,138.14c0,4.26,3.07,9.02,11.11,9.02,10.31,0,21.13-8.43,21.13-17.16,0-5.86-4.96-9.13-11.11-9.13-9.63,0-21.13,8.14-21.13,17.27"/><path d="M2106.18,138.14c0,4.26,3.07,9.02,11.11,9.02,10.31,0,21.13-8.43,21.13-17.16,0-5.86-4.96-9.13-11.11-9.13-9.63,0-21.13,8.14-21.13,17.27"/><path d="M2168.17,125.74c0,4.26,3.07,9.02,11.11,9.02,10.31,0,21.13-8.43,21.13-17.16,0-5.86-4.96-9.13-11.11-9.13-9.63,0-21.13,8.14-21.13,17.27"/><path d="M2230.16,125.74c0,4.26,3.07,9.02,11.11,9.02,10.31,0,21.13-8.43,21.13-17.16,0-5.86-4.96-9.13-11.11-9.13-9.63,0-21.13,8.14-21.13,17.27"/><path d="M2292.14,125.74c0,4.26,3.07,9.02,11.11,9.02,10.31,0,21.13-8.43,21.13-17.16,0-5.86-4.96-9.13-11.11-9.13-9.63,0-21.13,8.14-21.13,17.27"/><path d="M2354.13,150.54c0,4.26,3.07,9.02,11.11,9.02,10.31,0,21.13-8.43,21.13-17.16,0-5.86-4.96-9.13-11.11-9.13-9.63,0-21.13,8.14-21.13,17.27"/><path d="M2416.12,150.54c0,4.26,3.07,9.02,11.11,9.02,10.31,0,21.13-8.43,21.13-17.16,0-5.86-4.96-9.13-11.11-9.13-9.63,0-21.13,8.14-21.13,17.27"/><path d="M2478.11,150.54c0,4.26,3.07,9.02,11.11,9.02,10.31,0,21.13-8.43,21.13-17.16,0-5.86-4.96-9.13-11.11-9.13-9.63,0-21.13,8.14-21.13,17.27"/><path d="M220.26,509.02c0,4.26,3.07,9.02,11.11,9.02,10.31,0,21.13-8.43,21.13-17.16,0-5.86-4.96-9.13-11.11-9.13-9.63,0-21.13,8.14-21.13,17.27"/><path d="M282.25,509.02c0,4.26,3.07,9.02,11.11,9.02,10.31,0,21.13-8.43,21.13-17.16,0-5.86-4.96-9.13-11.11-9.13-9.63,0-21.13,8.14-21.13,17.27"/><path d="M344.24,509.02c0,4.26,3.07,9.02,11.11,9.02,10.31,0,21.13-8.43,21.13-17.16,0-5.86-4.96-9.13-11.11-9.13-9.63,0-21.13,8.14-21.13,17.27"/><path d="M406.22,496.62c0,4.26,3.07,9.02,11.11,9.02,10.31,0,21.13-8.43,21.13-17.16,0-5.86-4.96-9.13-11.11-9.13-9.63,0-21.13,8.14-21.13,17.27"/><path d="M468.21,496.62c0,4.26,3.07,9.02,11.11,9.02,10.31,0,21.13-8.43,21.13-17.16,0-5.86-4.96-9.13-11.11-9.13-9.63,0-21.13,8.14-21.13,17.27"/><path d="M530.2,496.62c0,4.26,3.07,9.02,11.11,9.02,10.31,0,21.13-8.43,21.13-17.16,0-5.86-4.96-9.13-11.11-9.13-9.63,0-21.13,8.14-21.13,17.27"/><path d="M592.19,484.22c0,4.26,3.07,9.02,11.11,9.02,10.31,0,21.13-8.43,21.13-17.16,0-5.86-4.96-9.13-11.11-9.13-9.63,0-21.13,8.14-21.13,17.27"/><path d="M654.17,484.22c0,4.26,3.07,9.02,11.11,9.02,10.31,0,21.13-8.43,21.13-17.16,0-5.86-4.96-9.13-11.11-9.13-9.63,0-21.13,8.14-21.13,17.27"/><path d="M716.16,484.22c0,4.26,3.07,9.02,11.11,9.02,10.31,0,21.13-8.43,21.13-17.16,0-5.86-4.96-9.13-11.11-9.13-9.63,0-21.13,8.14-21.13,17.27"/><path d="M778.15,509.02c0,4.26,3.07,9.02,11.11,9.02,10.31,0,21.13-8.43,21.13-17.16,0-5.86-4.96-9.13-11.11-9.13-9.63,0-21.13,8.14-21.13,17.27"/><path d="M840.13,509.02c0,4.26,3.07,9.02,11.11,9.02,10.31,0,21.13-8.43,21.13-17.16,0-5.86-4.96-9.13-11.11-9.13-9.63,0-21.13,8.14-21.13,17.27"/><path d="M902.12,509.02c0,4.26,3.07,9.02,11.11,9.02,10.31,0,21.13-8.43,21.13-17.16,0-5.86-4.96-9.13-11.11-9.13-9.63,0-21.13,8.14-21.13,17.27"/><path d="M1008.26,496.62c0,4.26,3.07,9.02,11.11,9.02,10.31,0,21.13-8.43,21.13-17.16,0-5.86-4.96-9.13-11.11-9.13-9.63,0-21.13,8.14-21.13,17.27"/><path d="M30.8,518.54c0,6.56,4.96,15.19,18.35,15.19,4.67,0,8.74-1.19,12.31-3.38,5.36-3.77,6.74-10.32,6.74-16.57,0-3.86-.59-8.32-1.58-13.98-.29-1.98-.9-4.96-1.49-8.84,9.72-3.18,16.96-13.3,16.96-23.51,0-14.97-10.62-25.09-25.09-25.09-.99-5.95-1.98-11.81-2.77-17.36,10.42-11.02,17.65-23.42,17.65-39.18,0-9.04-2.77-16.37-4.37-19.95-2.37-5.05-5.25-8.53-7.04-8.53-.7,0-3.77,1.19-7.04,5.05-6.36,7.55-8.14,20.24-8.14,28.57,0,5.36,.5,10.23,2.19,21.34-.11,.09-5.27,5.35-7.35,7.04-9.04,8.34-21.53,20.43-21.53,40.28,0,18.54,16.17,33.12,34.63,33.12,2.87,0,5.55-.29,7.83-.7,1.89,9.53,3.08,16.48,3.08,21.73,0,10.32-5.36,15.78-15.38,15.78-2.39,0-4.46-.5-4.67-.5-.09-.11-.29-.2-.29-.29,0-.2,.2-.31,.5-.31,4.67-.79,9.32-4.76,9.32-11.1,0-5.36-4.06-11.02-11.5-11.02-6.94,0-11.31,5.66-11.31,12.2m20.74-132.43c.9-3.97,5.46-14.38,10.62-14.38,1.49,0,3.86,4.76,3.86,11.7,0,10.32-7.63,18.06-14.48,24.8-.59-3.97-1.08-7.83-1.08-12,0-3.67,.29-7.05,1.08-10.12m8.73,101.97c-1.98,.4-3.86,.6-5.75,.6-14.18,0-26.29-9.92-26.29-24.91,0-12.09,8.53-22.91,17.27-30.46,1.67-1.49,3.27-2.87,4.76-4.36,.88,5.35,1.58,10.01,2.28,14.09-9.04,2.68-15.17,12.2-15.17,21.53,0,6.94,5.46,16.46,13.39,16.46,.79,0,1.69-.4,1.69-1.29s-.99-1.39-2.19-2.19c-3.88-2.39-6.06-4.96-6.06-9.83,0-6.05,4.57-10.91,10.32-12.29l5.75,32.63m14.09-18.35c0,7.05-2.88,14.29-9.92,17.17-2.08-11.9-4.76-27.68-5.46-32.05,8.93,0,15.38,6.06,15.38,14.88"/><path d="M30.8,184.86c0,6.56,4.96,15.19,18.35,15.19,4.67,0,8.74-1.19,12.31-3.38,5.36-3.77,6.74-10.32,6.74-16.57,0-3.86-.59-8.32-1.58-13.98-.29-1.98-.9-4.96-1.49-8.84,9.72-3.18,16.96-13.3,16.96-23.51,0-14.97-10.62-25.09-25.09-25.09-.99-5.95-1.98-11.81-2.77-17.36,10.42-11.02,17.65-23.42,17.65-39.18,0-9.04-2.77-16.37-4.37-19.95-2.37-5.05-5.25-8.53-7.04-8.53-.7,0-3.77,1.19-7.04,5.05-6.36,7.55-8.14,20.24-8.14,28.57,0,5.36,.5,10.23,2.19,21.34-.11,.09-5.27,5.35-7.35,7.04-9.04,8.34-21.53,20.43-21.53,40.28,0,18.54,16.17,33.12,34.63,33.12,2.87,0,5.55-.29,7.83-.7,1.89,9.53,3.08,16.48,3.08,21.73,0,10.32-5.36,15.78-15.38,15.78-2.39,0-4.46-.5-4.67-.5-.09-.11-.29-.2-.29-.29,0-.2,.2-.31,.5-.31,4.67-.79,9.32-4.76,9.32-11.1,0-5.36-4.06-11.02-11.5-11.02-6.94,0-11.31,5.66-11.31,12.2M51.54,52.43c.9-3.97,5.46-14.38,10.62-14.38,1.49,0,3.86,4.76,3.86,11.7,0,10.32-7.63,18.06-14.48,24.8-.59-3.97-1.08-7.83-1.08-12,0-3.67,.29-7.05,1.08-10.12m8.73,101.97c-1.98,.4-3.86,.6-5.75,.6-14.18,0-26.29-9.92-26.29-24.91,0-12.09,8.53-22.91,17.27-30.46,1.67-1.49,3.27-2.87,4.76-4.36,.88,5.35,1.58,10.01,2.28,14.09-9.04,2.68-15.17,12.2-15.17,21.53,0,6.94,5.46,16.46,13.39,16.46,.79,0,1.69-.4,1.69-1.29s-.99-1.39-2.19-2.19c-3.88-2.39-6.06-4.96-6.06-9.83,0-6.05,4.57-10.91,10.32-12.29l5.75,32.63m14.09-18.35c0,7.05-2.88,14.29-9.92,17.17-2.08-11.9-4.76-27.68-5.46-32.05,8.93,0,15.38,6.06,15.38,14.88"/><path d="M30.8,852.22c0,6.56,4.96,15.19,18.35,15.19,4.67,0,8.74-1.19,12.31-3.38,5.36-3.77,6.74-10.32,6.74-16.57,0-3.86-.59-8.32-1.58-13.98-.29-1.98-.9-4.96-1.49-8.84,9.72-3.18,16.96-13.3,16.96-23.51,0-14.97-10.62-25.09-25.09-25.09-.99-5.95-1.98-11.81-2.77-17.36,10.42-11.02,17.65-23.42,17.65-39.18,0-9.04-2.77-16.37-4.37-19.95-2.37-5.05-5.25-8.53-7.04-8.53-.7,0-3.77,1.19-7.04,5.05-6.36,7.55-8.14,20.24-8.14,28.57,0,5.36,.5,10.23,2.19,21.34-.11,.09-5.27,5.35-7.35,7.04-9.04,8.34-21.53,20.43-21.53,40.28,0,18.54,16.17,33.12,34.63,33.12,2.87,0,5.55-.29,7.83-.7,1.89,9.53,3.08,16.48,3.08,21.73,0,10.32-5.36,15.78-15.38,15.78-2.39,0-4.46-.5-4.67-.5-.09-.11-.29-.2-.29-.29,0-.2,.2-.31,.5-.31,4.67-.79,9.32-4.76,9.32-11.1,0-5.36-4.06-11.02-11.5-11.02-6.94,0-11.31,5.66-11.31,12.2m20.74-132.43c.9-3.97,5.46-14.38,10.62-14.38,1.49,0,3.86,4.76,3.86,11.7,0,10.32-7.63,18.06-14.48,24.8-.59-3.97-1.08-7.83-1.08-12,0-3.67,.29-7.05,1.08-10.12m8.73,101.97c-1.98,.4-3.86,.6-5.75,.6-14.18,0-26.29-9.92-26.29-24.91,0-12.09,8.53-22.91,17.27-30.46,1.67-1.49,3.27-2.87,4.76-4.36,.88,5.35,1.58,10.01,2.28,14.09-9.04,2.68-15.17,12.2-15.17,21.53,0,6.94,5.46,16.46,13.39,16.46,.79,0,1.69-.4,1.69-1.29s-.99-1.39-2.19-2.19c-3.88-2.39-6.06-4.96-6.06-9.83,0-6.05,4.57-10.91,10.32-12.29l5.75,32.63m14.09-18.35c0,7.05-2.88,14.29-9.92,17.17-2.08-11.9-4.76-27.68-5.46-32.05,8.93,0,15.38,6.06,15.38,14.88"/><path d="M129.99,382.84c.6-.09,1.1-.79,1.1-1.4v-5.84c0-.99-.7-1.39-1.6-1.39l-3.27,.7v-14.79h-2.77v15.38l-8.83,1.8v-14h-2.77v14.59l-3.88,.79c-.59,.11-1.09,.79-1.09,1.39v5.75c0,1.09,.79,1.4,1.69,1.4l3.27-.7v16.37l-3.88,.79c-.59,.09-1.09,.79-1.09,1.4v5.75c0,1.09,.79,1.38,1.69,1.38l3.27-.68v14.77h2.77v-15.38l8.83-1.78v14h2.77v-14.59l3.77-.7c.6-.11,1.1-.79,1.1-1.39v-5.84c0-.99-.7-1.4-1.6-1.4l-3.27,.7v-16.37l3.77-.7m-15.38,3.07l8.83-1.78v16.37l-8.83,1.89v-16.48"/><path d="M157.16,420.04c.6-.09,1.1-.79,1.1-1.4v-5.84c0-.99-.7-1.39-1.6-1.39l-3.27,.7v-14.79h-2.77v15.38l-8.83,1.8v-14h-2.77v14.59l-3.88,.79c-.59,.11-1.09,.79-1.09,1.39v5.75c0,1.09,.79,1.4,1.69,1.4l3.27-.7v16.37l-3.88,.79c-.59,.09-1.09,.79-1.09,1.4v5.75c0,1.09,.79,1.38,1.69,1.38l3.27-.68v14.77h2.77v-15.38l8.83-1.78v14h2.77v-14.59l3.77-.7c.6-.11,1.1-.79,1.1-1.39v-5.84c0-.99-.7-1.4-1.6-1.4l-3.27,.7v-16.37l3.77-.7m-15.38,3.07l8.83-1.78v16.37l-8.83,1.89v-16.48"/><path d="M129.99,49.16c.6-.09,1.1-.79,1.1-1.4v-5.84c0-.99-.7-1.39-1.6-1.39l-3.27,.7v-14.79h-2.77v15.38l-8.83,1.8v-14h-2.77v14.59l-3.88,.79c-.59,.11-1.09,.79-1.09,1.39v5.75c0,1.09,.79,1.4,1.69,1.4l3.27-.7v16.37l-3.88,.79c-.59,.09-1.09,.79-1.09,1.4v5.75c0,1.09,.79,1.38,1.69,1.38l3.27-.68v14.77h2.77v-15.38l8.83-1.78v14h2.77v-14.59l3.77-.7c.6-.11,1.1-.79,1.1-1.39v-5.84c0-.99-.7-1.4-1.6-1.4l-3.27,.7v-16.37l3.77-.7m-15.38,3.07l8.83-1.78v16.37l-8.83,1.89v-16.48"/><path d="M157.16,86.36c.6-.09,1.1-.79,1.1-1.4v-5.84c0-.99-.7-1.39-1.6-1.39l-3.27,.7v-14.79h-2.77v15.38l-8.83,1.8v-14h-2.77v14.59l-3.88,.79c-.59,.11-1.09,.79-1.09,1.39v5.75c0,1.09,.79,1.4,1.69,1.4l3.27-.7v16.37l-3.88,.79c-.59,.09-1.09,.79-1.09,1.4v5.75c0,1.09,.79,1.38,1.69,1.38l3.27-.68v14.77h2.77v-15.38l8.83-1.78v14h2.77v-14.59l3.77-.7c.6-.11,1.1-.79,1.1-1.39v-5.84c0-.99-.7-1.4-1.6-1.4l-3.27,.7v-16.37l3.77-.7m-15.38,3.07l8.83-1.78v16.37l-8.83,1.89v-16.48"/><path d="M129.99,716.52c.6-.09,1.1-.79,1.1-1.4v-5.84c0-.99-.7-1.39-1.6-1.39l-3.27,.7v-14.79h-2.77v15.38l-8.83,1.8v-14h-2.77v14.59l-3.88,.79c-.59,.11-1.09,.79-1.09,1.39v5.75c0,1.09,.79,1.4,1.69,1.4l3.27-.7v16.37l-3.88,.79c-.59,.09-1.09,.79-1.09,1.4v5.75c0,1.09,.79,1.38,1.69,1.38l3.27-.68v14.77h2.77v-15.38l8.83-1.78v14h2.77v-14.59l3.77-.7c.6-.11,1.1-.79,1.1-1.39v-5.84c0-.99-.7-1.4-1.6-1.4l-3.27,.7v-16.37l3.77-.7m-15.38,3.07l8.83-1.78v16.37l-8.83,1.89v-16.48"/><path d="M157.16,753.72c.6-.09,1.1-.79,1.1-1.4v-5.84c0-.99-.7-1.39-1.6-1.39l-3.27,.7v-14.79h-2.77v15.38l-8.83,1.8v-14h-2.77v14.59l-3.88,.79c-.59,.11-1.09,.79-1.09,1.39v5.75c0,1.09,.79,1.4,1.69,1.4l3.27-.7v16.37l-3.88,.79c-.59,.09-1.09,.79-1.09,1.4v5.75c0,1.09,.79,1.38,1.69,1.38l3.27-.68v14.77h2.77v-15.38l8.83-1.78v14h2.77v-14.59l3.77-.7c.6-.11,1.1-.79,1.1-1.39v-5.84c0-.99-.7-1.4-1.6-1.4l-3.27,.7v-16.37l3.77-.7m-15.38,3.07l8.83-1.78v16.37l-8.83,1.89v-16.48"/><path d="M2234.16,688.74c-9.32-10.12-17.56-10.71-22.71-10.71s-13.3,.59-22.63,10.71c-4.85,5.36-8.23,15.97-8.23,21.33,0,1.89,.4,3.18,1.4,3.18,2.77,0,1.38-8.54,9.72-16.97,7.33-7.33,17.16-7.44,19.55-7.44h.39c2.39,0,12.21,.11,19.55,7.44,8.34,8.43,6.94,16.97,9.72,16.97,.99,0,1.39-1.19,1.39-3.18,0-5.36-3.27-16.07-8.14-21.33m-29.56,18.94c0,3.78,3.07,6.85,6.85,6.85s6.84-3.07,6.84-6.85-3.07-6.84-6.84-6.84-6.85,3.07-6.85,6.84"/><path d="M359.15,218.23c-2.33,3.75-3.33,4.8-4.64,4.8-.64,0-1-.41-1-1.12,0-.52,.2-1.44,.59-2.84l7.12-23.98-7.95,.59-.17,1.44h1.25c1.64,0,2.28,.36,2.28,1.23,0,.41-.12,.92-.36,1.77l-2.64,8.88c-.72-2.08-2.28-3.23-4.61-3.23-5.75,0-11.11,6.16-11.11,12.8,0,3.92,2.52,6.59,6.28,6.59,2.72,0,4.72-1.11,6.47-3.72-.03,.33-.03,.72-.03,.89,0,1.83,.95,2.83,2.72,2.83,2.51,0,4.72-1.95,7-6.19l-1.2-.72m-10-10.69c1.95,0,3.39,1.52,3.39,3.61,0,3.62-2.55,12.11-7.19,12.11-2.16,0-3.56-1.72-3.56-4.31,0-3.8,2.72-11.41,7.36-11.41m33-1.2h-3.48l-1.88,6.41c-1.64,5.56-5.33,10.11-8.16,10.11-.97,0-1.72-.75-1.72-1.72,0-.52,.11-1.16,.44-2.27l3.92-13.12-7.72,.59-.12,1.45h.95c1.64,0,2.25,.36,2.25,1.27,0,.41-.12,.97-.33,1.73l-1.59,5.39q-1.23,4-1.23,5.23c0,2.2,1.51,3.69,3.8,3.69,2.8,0,5.08-1.64,7.44-5.33-.41,1.41-.48,1.97-.48,2.72,0,1.56,1.08,2.64,2.56,2.64,2.44,0,4.39-1.64,7.23-6l-1.2-.72c-1.95,2.92-3.51,4.53-4.39,4.53-.36,0-.72-.45-.72-.97,0-.44,.16-1.2,.47-2.36l3.97-13.28"/><path d="M545.12,220.71c-2.33,3.75-3.33,4.8-4.64,4.8-.64,0-1-.41-1-1.12,0-.52,.2-1.44,.59-2.84l7.12-23.98-7.95,.59-.17,1.44h1.25c1.64,0,2.28,.36,2.28,1.23,0,.41-.12,.92-.36,1.77l-2.64,8.88c-.72-2.08-2.28-3.23-4.61-3.23-5.75,0-11.11,6.16-11.11,12.8,0,3.92,2.52,6.59,6.28,6.59,2.72,0,4.72-1.11,6.47-3.72-.03,.33-.03,.72-.03,.89,0,1.83,.95,2.83,2.72,2.83,2.52,0,4.72-1.95,7-6.19l-1.2-.72m-10-10.69c1.95,0,3.39,1.52,3.39,3.61,0,3.62-2.55,12.11-7.19,12.11-2.16,0-3.56-1.72-3.56-4.31,0-3.8,2.72-11.41,7.36-11.41m33-1.2h-3.48l-1.88,6.41c-1.64,5.56-5.33,10.11-8.16,10.11-.97,0-1.72-.75-1.72-1.72,0-.52,.11-1.16,.44-2.27l3.92-13.12-7.72,.59-.12,1.45h.95c1.64,0,2.25,.36,2.25,1.27,0,.41-.12,.97-.33,1.73l-1.59,5.39q-1.23,4-1.23,5.23c0,2.2,1.52,3.69,3.8,3.69,2.8,0,5.08-1.64,7.44-5.33-.41,1.41-.48,1.97-.48,2.72,0,1.56,1.08,2.64,2.56,2.64,2.44,0,4.39-1.64,7.23-6l-1.2-.72c-1.95,2.92-3.52,4.53-4.39,4.53-.36,0-.72-.45-.72-.97,0-.44,.16-1.2,.47-2.36l3.97-13.28"/><path d="M478.57,209.74c.64-.56,1-.75,1.47-.75,.41,0,.73,.19,1.05,.64,.64,.88,.88,1.03,1.52,1.03,.92,0,1.61-.75,1.61-1.75,0-1.17-1.12-2.09-2.53-2.09s-2.47,.53-4.55,2.17c-1.25-.56-2.17-.77-3.45-.77-4.44,0-8.19,3.16-8.19,6.84,0,1.92,.75,3.23,2.47,4.16-1.83,.23-2.67,.52-3.59,1.31-.8,.64-1.31,1.72-1.31,2.69,0,1.36,.64,2.2,2.19,2.95-2.36,.53-5.11,1.53-5.11,4.44,0,4,5.28,4.48,8.2,4.48,3.95,0,6.24-.48,8.19-1.77,1.72-1.11,2.72-2.83,2.72-4.72,0-4.03-4.28-4.52-7.36-4.72-3.55-.19-3.83-.23-4.39-.36-1-.23-1.48-.72-1.48-1.39,0-.97,.95-1.61,2.41-1.61,.52,0,1.11,.05,1.64,.12,1.64,.23,1.88,.28,2.88,.28,2.23,0,4-.56,5.39-1.69,1.61-1.23,2.61-3.23,2.61-5.08s-.8-3.31-2.36-4.44m-4.61,0c2.09,0,3.41,1.25,3.41,3.2,0,2.88-1.31,6.52-4.72,6.52-2.16,0-3.52-1.36-3.52-3.59,0-3.59,1.95-6.12,4.83-6.12m-4.88,17.16c1.8,0,4.69,.41,5.59,.77,1,.44,1.48,1.12,1.48,2.12,0,2.36-2.52,3.64-7.11,3.64-3.89,0-5.69-.97-5.69-3.09s2.08-3.44,5.72-3.44m35.56-18.08h-3.48l-1.88,6.41c-1.64,5.56-5.33,10.11-8.16,10.11-.97,0-1.72-.75-1.72-1.72,0-.52,.11-1.16,.44-2.27l3.92-13.12-7.72,.59-.12,1.45h.95c1.64,0,2.25,.36,2.25,1.27,0,.41-.12,.97-.33,1.73l-1.59,5.39q-1.23,4-1.23,5.23c0,2.2,1.52,3.69,3.8,3.69,2.8,0,5.08-1.64,7.44-5.33-.41,1.41-.48,1.97-.48,2.72,0,1.56,1.08,2.64,2.56,2.64,2.44,0,4.39-1.64,7.23-6l-1.2-.72c-1.95,2.92-3.52,4.53-4.39,4.53-.36,0-.72-.45-.72-.97,0-.44,.16-1.2,.47-2.36l3.97-13.28"/><path d="M418.66,220.71c-2.33,3.75-3.33,4.8-4.64,4.8-.64,0-1-.41-1-1.12,0-.52,.2-1.44,.59-2.84l7.12-23.98-7.95,.59-.17,1.44h1.25c1.64,0,2.28,.36,2.28,1.23,0,.41-.12,.92-.36,1.77l-2.64,8.88c-.72-2.08-2.28-3.23-4.61-3.23-5.75,0-11.11,6.16-11.11,12.8,0,3.92,2.52,6.59,6.28,6.59,2.72,0,4.72-1.11,6.47-3.72-.03,.33-.03,.72-.03,.89,0,1.83,.95,2.83,2.72,2.83,2.52,0,4.72-1.95,7-6.19l-1.2-.72m-10-10.69c1.95,0,3.39,1.52,3.39,3.61,0,3.62-2.55,12.11-7.19,12.11-2.16,0-3.56-1.72-3.56-4.31,0-3.8,2.72-11.41,7.36-11.41m33-1.2h-3.48l-1.88,6.41c-1.64,5.56-5.33,10.11-8.16,10.11-.97,0-1.72-.75-1.72-1.72,0-.52,.11-1.16,.44-2.27l3.92-13.12-7.72,.59-.12,1.45h.95c1.64,0,2.25,.36,2.25,1.27,0,.41-.12,.97-.33,1.73l-1.59,5.39q-1.23,4-1.23,5.23c0,2.2,1.52,3.69,3.8,3.69,2.8,0,5.08-1.64,7.44-5.33-.41,1.41-.48,1.97-.48,2.72,0,1.56,1.08,2.64,2.56,2.64,2.44,0,4.39-1.64,7.23-6l-1.2-.72c-1.95,2.92-3.52,4.53-4.39,4.53-.36,0-.72-.45-.72-.97,0-.44,.16-1.2,.47-2.36l3.97-13.28"/><path d="M292.61,207.26c.64-.56,1-.75,1.47-.75,.41,0,.74,.19,1.05,.64,.64,.88,.88,1.03,1.52,1.03,.92,0,1.61-.75,1.61-1.75,0-1.17-1.12-2.09-2.53-2.09s-2.47,.53-4.55,2.17c-1.25-.56-2.17-.77-3.45-.77-4.44,0-8.19,3.16-8.19,6.84,0,1.92,.75,3.23,2.47,4.16-1.83,.23-2.67,.52-3.59,1.31-.8,.64-1.31,1.72-1.31,2.69,0,1.36,.64,2.2,2.19,2.95-2.36,.53-5.11,1.53-5.11,4.44,0,4,5.28,4.48,8.2,4.48,3.95,0,6.23-.48,8.19-1.77,1.72-1.11,2.72-2.83,2.72-4.72,0-4.03-4.28-4.52-7.36-4.72-3.55-.19-3.83-.23-4.39-.36-1-.23-1.48-.72-1.48-1.39,0-.97,.95-1.61,2.41-1.61,.52,0,1.11,.05,1.64,.12,1.64,.23,1.88,.28,2.88,.28,2.23,0,4-.56,5.39-1.69,1.61-1.23,2.61-3.23,2.61-5.08s-.8-3.31-2.36-4.44m-4.61,0c2.09,0,3.41,1.25,3.41,3.2,0,2.88-1.31,6.52-4.72,6.52-2.16,0-3.52-1.36-3.52-3.59,0-3.59,1.95-6.12,4.83-6.12m-4.88,17.16c1.8,0,4.69,.41,5.59,.77,1,.44,1.48,1.12,1.48,2.12,0,2.36-2.51,3.64-7.11,3.64-3.89,0-5.69-.97-5.69-3.09s2.08-3.44,5.72-3.44m35.56-18.08h-3.48l-1.88,6.41c-1.64,5.56-5.33,10.11-8.16,10.11-.97,0-1.72-.75-1.72-1.72,0-.52,.11-1.16,.44-2.27l3.92-13.12-7.72,.59-.12,1.45h.95c1.64,0,2.25,.36,2.25,1.27,0,.41-.12,.97-.33,1.73l-1.59,5.39q-1.23,4-1.23,5.23c0,2.2,1.52,3.69,3.8,3.69,2.8,0,5.08-1.64,7.44-5.33-.41,1.41-.48,1.97-.48,2.72,0,1.56,1.08,2.64,2.56,2.64,2.44,0,4.39-1.64,7.23-6l-1.2-.72c-1.95,2.92-3.52,4.53-4.39,4.53-.36,0-.72-.45-.72-.97,0-.44,.16-1.2,.47-2.36l3.97-13.28"/><path d="M589.07,208.22c-4.2,0-7.25,2.56-7.25,6.03,0,1.73,1,3.17,2.77,4.09,.64,.31,1.44,.67,3.12,1.36,2.27,.91,2.83,1.47,2.83,2.88,0,2.16-1.8,3.52-4.56,3.52-2.03,0-3.47-.56-3.47-1.36,0-.2,.11-.44,.28-.59,.75-.8,.83-1,.83-1.72,0-1.12-.88-2-2.03-2-1.33,0-2.33,1.11-2.33,2.67,0,2.8,2.48,4.52,6.53,4.52,4.59,0,7.75-2.52,7.75-6.16,0-1.59-.72-2.95-2-3.83-.88-.61-1.28-.77-3.47-1.56-2.61-.92-3.28-1.56-3.28-3.12,0-1.84,1.75-3.2,4.08-3.2,1.56,0,2.59,.44,2.59,1.08,0,.17-.08,.36-.2,.56-.56,.8-.64,1-.64,1.61,0,1.08,.84,1.83,2.08,1.83,1.36,0,2.28-1,2.28-2.44,0-2.44-2.44-4.16-5.91-4.16m16.75-9.77c-1.2,0-2.16,.97-2.16,2.17s.95,2.16,2.12,2.16c1.23,0,2.19-.97,2.19-2.16s-.95-2.17-2.16-2.17m.72,9.77l-7.67,.59-.16,1.45h.95c1.64,0,2.28,.36,2.28,1.23,0,.39-.08,.84-.36,1.77l-2.33,7.8c-.75,2.55-.88,3.11-.88,4.03,0,1.41,1.2,2.48,2.72,2.48,3.44,0,5.8-3.56,7.48-6.16l-1.25-.69c-2.08,3.16-3.75,4.84-4.83,4.84-.41,0-.69-.36-.69-.84,0-.39,.16-1.12,.48-2.23l4.23-14.28m12.97,0l-7.28,.59-.12,1.45h.97c1.59,0,2.23,.36,2.23,1.27,0,.36-.12,.97-.33,1.73l-4.08,13.75h3.48l1.64-5.64c1.8-6.12,5.44-10.75,8.44-10.75,1.05,0,1.69,.55,1.69,1.55,0,.81-.33,2.48-.81,4l-3.19,10.84h3.47l1.72-5.8c1-3.33,2-5.56,3.28-7.28,1.44-2,3.48-3.31,5-3.31,1,0,1.56,.52,1.56,1.47,0,.56-.2,1.44-.56,2.56l-1.84,5.69c-1.08,3.11-1.11,3.36-1.11,4.47,0,1.69,1.23,2.8,3.11,2.8,1.33,0,2.61-.64,3.97-1.91,.84-.81,1.39-1.53,3.03-3.92l-1.23-.84c-2.08,3.12-3.56,4.64-4.59,4.64-.44,0-.84-.44-.84-1,0-.36,.12-.8,.48-1.97l2.52-7.75c.28-.88,.48-2.12,.48-3,0-2.12-1.56-3.64-3.72-3.64-2.84,0-5.41,1.84-7.72,5.64,.16-.77,.23-1.44,.23-1.92,0-2.12-1.69-3.72-3.88-3.72-2.53,0-4.36,1.41-7.17,5.41l1.17-5.41m29.95,14.44c-1.36,0-2.47,1.12-2.47,2.48s1.11,2.47,2.44,2.47c1.44,0,2.52-1.08,2.52-2.47s-1.12-2.48-2.48-2.48"/><path d="M227.74,218.23c-2.33,3.75-3.33,4.8-4.64,4.8-.64,0-1-.41-1-1.12,0-.52,.2-1.44,.59-2.84l7.12-23.98-7.95,.59-.17,1.44h1.25c1.64,0,2.28,.36,2.28,1.23,0,.41-.12,.92-.36,1.77l-2.64,8.88c-.72-2.08-2.28-3.23-4.61-3.23-5.75,0-11.11,6.16-11.11,12.8,0,3.92,2.52,6.59,6.28,6.59,2.72,0,4.72-1.11,6.47-3.72-.03,.33-.03,.72-.03,.89,0,1.83,.95,2.83,2.72,2.83,2.52,0,4.72-1.95,7-6.19l-1.2-.72m-10-10.69c1.95,0,3.39,1.52,3.39,3.61,0,3.62-2.55,12.11-7.19,12.11-2.16,0-3.56-1.72-3.56-4.31,0-3.8,2.72-11.41,7.36-11.41m33-1.2h-3.49l-1.88,6.41c-1.64,5.56-5.33,10.11-8.16,10.11-.97,0-1.72-.75-1.72-1.72,0-.52,.11-1.16,.44-2.27l3.92-13.12-7.72,.59-.12,1.45h.95c1.64,0,2.25,.36,2.25,1.27,0,.41-.12,.97-.33,1.73l-1.59,5.39q-1.23,4-1.23,5.23c0,2.2,1.52,3.69,3.8,3.69,2.8,0,5.08-1.64,7.44-5.33-.41,1.41-.48,1.97-.48,2.72,0,1.56,1.08,2.64,2.56,2.64,2.44,0,4.39-1.64,7.24-6l-1.2-.72c-1.95,2.92-3.52,4.53-4.39,4.53-.36,0-.72-.45-.72-.97,0-.44,.16-1.2,.47-2.36l3.97-13.28"/><path d="M1595.89,411.85h126.45v12.4h-126.45v-12.4" fill-rule="evenodd"/><path d="M1223.97,59.57h126.45v12.4h-126.45v-12.4" fill-rule="evenodd"/><path d="M1409.93,387.05h126.45v12.4h-126.45v-12.4" fill-rule="evenodd"/><path d="M1223.97,393.25h126.45v12.4h-126.45v-12.4" fill-rule="evenodd"/><path d="M1038.01,411.85h126.45v12.4h-126.45v-12.4" fill-rule="evenodd"/><path d="M1038.01,78.17h126.45v12.4h-126.45v-12.4" fill-rule="evenodd"/><path d="M807.9,418.05h126.45v12.4h-126.45v-12.4" fill-rule="evenodd"/><path d="M250.02,84.37h126.45v12.4h-126.45v-12.4" fill-rule="evenodd"/><path d="M807.9,84.37h126.45v12.4h-126.45v-12.4" fill-rule="evenodd"/><path d="M621.94,393.25h126.45v12.4h-126.45v-12.4" fill-rule="evenodd"/><path d="M435.98,411.85h126.45v12.4h-126.45v-12.4" fill-rule="evenodd"/><path d="M250.02,418.05h126.45v12.4h-126.45v-12.4" fill-rule="evenodd"/><path d="M435.98,78.17h126.45v12.4h-126.45v-12.4" fill-rule="evenodd"/><path d="M1826,59.57h126.46v12.4h-126.46v-12.4" fill-rule="evenodd"/><path d="M1948.58,745.53h160.75v12.4h-160.75v-12.4" fill-rule="evenodd"/><path d="M1711.17,726.93h160.75v12.4h-160.75v-12.4" fill-rule="evenodd"/><path d="M1473.76,720.73h160.75v12.4h-160.75v-12.4" fill-rule="evenodd"/><path d="M1236.35,745.53h160.76v12.4h-160.76v-12.4" fill-rule="evenodd"/><path d="M2011.96,53.37h126.46v12.4h-126.46v-12.4" fill-rule="evenodd"/><path d="M962.24,751.73h160.75v12.4h-160.75v-12.4" fill-rule="evenodd"/><path d="M724.83,745.53h160.75v12.4h-160.75v-12.4" fill-rule="evenodd"/><path d="M2197.92,47.17h126.46v12.4h-126.46v-12.4" fill-rule="evenodd"/><path d="M487.42,726.93h160.75v12.4h-160.75v-12.4" fill-rule="evenodd"/><path d="M250.02,751.73h160.75v12.4H250.02v-12.4" fill-rule="evenodd"/><path d="M1409.93,53.37h126.45v12.4h-126.45v-12.4" fill-rule="evenodd"/><path d="M621.94,59.57h126.45v12.4h-126.45v-12.4" fill-rule="evenodd"/><path d="M2383.88,59.57h126.46v12.4h-126.46v-12.4" fill-rule="evenodd"/><path d="M1595.89,78.17h126.45v12.4h-126.45v-12.4" fill-rule="evenodd"/><path d="M2383.88,436.65h126.46v12.4h-126.46v-12.4" fill-rule="evenodd"/><path d="M2197.92,411.85h126.46v12.4h-126.46v-12.4" fill-rule="evenodd"/><path d="M2011.96,418.05h126.46v12.4h-126.46v-12.4" fill-rule="evenodd"/><path d="M1826,436.65h126.46v12.4h-126.46v-12.4" fill-rule="evenodd"/><path d="M316.3,361.38c2.12-.67,2.97-1.05,4.05-1.77,2.12-1.39,3.42-3.86,3.42-6.39,0-4.27-3.42-7.14-8.45-7.14s-9.05,3.05-9.05,6.75c0,1.84,1.12,3.09,2.83,3.09,1.49,0,2.58-1.08,2.58-2.56,0-.76-.23-1.3-.95-2.01-.45-.41-.62-.74-.62-1.05,0-1.08,2.25-2.2,4.36-2.2,3.01,0,4.81,1.67,4.81,4.45,0,4.01-2.83,7.78-5.84,7.78-.14,0-.55-.03-1.03-.08q-1.31-.09-1.58-.09c-1,0-1.53,.45-1.53,1.27,0,.72,.5,1.16,1.3,1.16,.23,0,.55-.03,.91-.08,.62-.14,1.31-.19,1.7-.19,2.12,0,3.56,1.89,3.56,4.69,0,4.86-2.39,9.53-7.83,9.53-2.52,0-4.69-1.25-4.69-2.7,0-.48,.19-.67,.91-.98,1.3-.58,1.84-1.39,1.84-2.61,0-1.58-1.27-2.78-2.88-2.78-1.94,0-3.2,1.52-3.2,3.86,0,4.38,3.33,7.11,8.73,7.11,6.8,0,11.97-4.55,11.97-10.58,0-3.5-2.16-5.49-5.31-6.47"/><path d="M1794.6,695.05c2.13-.67,2.97-1.04,4.05-1.76,2.13-1.39,3.42-3.86,3.42-6.39,0-4.27-3.42-7.14-8.45-7.14s-9.05,3.04-9.05,6.75c0,1.84,1.13,3.09,2.83,3.09,1.48,0,2.58-1.08,2.58-2.56,0-.77-.24-1.3-.95-2.02-.46-.4-.63-.73-.63-1.04,0-1.08,2.25-2.21,4.36-2.21,3.02,0,4.81,1.67,4.81,4.46,0,4.01-2.83,7.78-5.84,7.78-.14,0-.55-.03-1.03-.08q-1.32-.09-1.58-.09c-1,0-1.53,.45-1.53,1.26,0,.72,.5,1.16,1.29,1.16,.24,0,.55-.03,.91-.08,.63-.14,1.31-.19,1.7-.19,2.13,0,3.57,1.89,3.57,4.69,0,4.86-2.39,9.53-7.83,9.53-2.52,0-4.69-1.25-4.69-2.7,0-.49,.19-.67,.91-.99,1.29-.58,1.84-1.39,1.84-2.61,0-1.57-1.26-2.78-2.87-2.78-1.94,0-3.21,1.52-3.21,3.86,0,4.38,3.33,7.11,8.74,7.11,6.79,0,11.97-4.55,11.97-10.58,0-3.5-2.16-5.48-5.32-6.47"/><path d="M2450.17,27.7c2.12-.67,2.97-1.05,4.05-1.77,2.12-1.39,3.42-3.86,3.42-6.39,0-4.26-3.42-7.14-8.46-7.14s-9.04,3.05-9.04,6.75c0,1.84,1.12,3.09,2.83,3.09,1.48,0,2.57-1.08,2.57-2.56,0-.77-.23-1.3-.95-2.02-.45-.41-.62-.73-.62-1.05,0-1.08,2.25-2.2,4.35-2.2,3.02,0,4.82,1.67,4.82,4.45,0,4.02-2.83,7.78-5.85,7.78-.14,0-.54-.03-1.03-.08q-1.31-.09-1.58-.09c-1,0-1.53,.45-1.53,1.26,0,.72,.5,1.16,1.3,1.16,.23,0,.55-.03,.91-.08,.62-.14,1.31-.19,1.7-.19,2.12,0,3.56,1.89,3.56,4.69,0,4.86-2.39,9.53-7.83,9.53-2.51,0-4.68-1.25-4.68-2.7,0-.49,.18-.67,.9-.99,1.3-.58,1.85-1.39,1.85-2.61,0-1.58-1.27-2.78-2.88-2.78-1.94,0-3.2,1.51-3.2,3.86,0,4.38,3.33,7.11,8.73,7.11,6.8,0,11.97-4.55,11.97-10.58,0-3.5-2.16-5.48-5.31-6.47"/><path d="M1557.19,688.85c2.13-.67,2.97-1.04,4.05-1.76,2.13-1.39,3.42-3.86,3.42-6.39,0-4.27-3.42-7.14-8.45-7.14s-9.05,3.04-9.05,6.75c0,1.84,1.13,3.09,2.83,3.09,1.49,0,2.58-1.08,2.58-2.56,0-.77-.23-1.3-.95-2.02-.46-.4-.63-.73-.63-1.04,0-1.08,2.25-2.21,4.36-2.21,3.02,0,4.81,1.67,4.81,4.46,0,4.01-2.82,7.78-5.84,7.78-.14,0-.55-.03-1.03-.08q-1.31-.09-1.58-.09c-1,0-1.53,.45-1.53,1.26,0,.72,.5,1.16,1.3,1.16,.23,0,.54-.03,.9-.08,.63-.14,1.31-.19,1.71-.19,2.12,0,3.56,1.89,3.56,4.69,0,4.86-2.39,9.53-7.83,9.53-2.52,0-4.69-1.25-4.69-2.7,0-.49,.19-.67,.91-.99,1.3-.58,1.84-1.39,1.84-2.61,0-1.57-1.26-2.78-2.87-2.78-1.94,0-3.21,1.52-3.21,3.86,0,4.38,3.33,7.11,8.74,7.11,6.8,0,11.97-4.55,11.97-10.58,0-3.5-2.16-5.48-5.32-6.47"/><path d="M2264.21,15.3c2.12-.67,2.97-1.05,4.04-1.77,2.13-1.39,3.43-3.86,3.43-6.39,0-4.26-3.43-7.14-8.46-7.14s-9.04,3.05-9.04,6.75c0,1.84,1.12,3.09,2.82,3.09,1.49,0,2.58-1.08,2.58-2.56,0-.77-.23-1.3-.95-2.02-.45-.41-.63-.73-.63-1.05,0-1.08,2.25-2.2,4.36-2.2,3.02,0,4.82,1.67,4.82,4.45,0,4.02-2.83,7.78-5.85,7.78-.14,0-.54-.03-1.03-.08q-1.31-.09-1.58-.09c-1,0-1.53,.45-1.53,1.27,0,.72,.5,1.16,1.3,1.16,.23,0,.55-.03,.9-.08,.63-.14,1.32-.19,1.71-.19,2.12,0,3.56,1.89,3.56,4.69,0,4.86-2.39,9.53-7.83,9.53-2.51,0-4.69-1.25-4.69-2.7,0-.49,.19-.67,.91-.99,1.3-.58,1.84-1.39,1.84-2.61,0-1.58-1.26-2.78-2.87-2.78-1.94,0-3.2,1.51-3.2,3.86,0,4.38,3.32,7.11,8.73,7.11,6.8,0,11.97-4.55,11.97-10.58,0-3.5-2.16-5.48-5.31-6.47"/><path d="M2078.25,21.5c2.12-.67,2.96-1.05,4.04-1.77,2.13-1.39,3.42-3.86,3.42-6.39,0-4.27-3.42-7.14-8.45-7.14s-9.05,3.05-9.05,6.75c0,1.84,1.13,3.09,2.83,3.09,1.49,0,2.58-1.08,2.58-2.56,0-.77-.23-1.3-.95-2.02-.46-.41-.63-.73-.63-1.05,0-1.08,2.25-2.2,4.36-2.2,3.02,0,4.81,1.67,4.81,4.45,0,4.02-2.82,7.78-5.84,7.78-.14,0-.55-.03-1.03-.08q-1.31-.09-1.58-.09c-1,0-1.53,.45-1.53,1.27,0,.72,.5,1.16,1.3,1.16,.23,0,.54-.03,.9-.08,.63-.14,1.32-.19,1.71-.19,2.12,0,3.56,1.89,3.56,4.69,0,4.86-2.39,9.53-7.83,9.53-2.51,0-4.69-1.25-4.69-2.7,0-.48,.19-.67,.91-.98,1.3-.58,1.84-1.39,1.84-2.61,0-1.58-1.26-2.78-2.87-2.78-1.94,0-3.2,1.52-3.2,3.86,0,4.38,3.32,7.11,8.73,7.11,6.8,0,11.97-4.55,11.97-10.58,0-3.5-2.16-5.48-5.31-6.47"/><path d="M1319.79,695.05c2.12-.67,2.96-1.04,4.04-1.76,2.13-1.39,3.42-3.86,3.42-6.39,0-4.27-3.42-7.14-8.45-7.14s-9.05,3.04-9.05,6.75c0,1.84,1.13,3.09,2.83,3.09,1.49,0,2.58-1.08,2.58-2.56,0-.77-.23-1.3-.95-2.02-.46-.4-.63-.73-.63-1.04,0-1.08,2.25-2.21,4.36-2.21,3.02,0,4.81,1.67,4.81,4.46,0,4.01-2.82,7.78-5.84,7.78-.14,0-.55-.03-1.03-.08q-1.31-.09-1.58-.09c-1,0-1.53,.45-1.53,1.26,0,.72,.5,1.16,1.3,1.16,.23,0,.54-.03,.9-.08,.63-.14,1.32-.19,1.71-.19,2.12,0,3.56,1.89,3.56,4.69,0,4.86-2.39,9.53-7.83,9.53-2.51,0-4.69-1.25-4.69-2.7,0-.49,.19-.67,.91-.99,1.3-.58,1.84-1.39,1.84-2.61,0-1.57-1.26-2.78-2.87-2.78-1.94,0-3.2,1.52-3.2,3.86,0,4.38,3.32,7.11,8.73,7.11,6.8,0,11.97-4.55,11.97-10.58,0-3.5-2.16-5.48-5.31-6.47"/><path d="M1892.28,27.7c2.13-.67,2.97-1.05,4.05-1.77,2.13-1.39,3.42-3.86,3.42-6.39,0-4.26-3.42-7.14-8.45-7.14s-9.05,3.05-9.05,6.75c0,1.84,1.13,3.09,2.83,3.09,1.49,0,2.58-1.08,2.58-2.56,0-.77-.23-1.3-.95-2.02-.46-.41-.63-.73-.63-1.05,0-1.08,2.25-2.2,4.36-2.2,3.02,0,4.81,1.67,4.81,4.45,0,4.02-2.82,7.78-5.84,7.78-.14,0-.55-.03-1.03-.08q-1.31-.09-1.58-.09c-1,0-1.53,.45-1.53,1.26,0,.72,.5,1.16,1.3,1.16,.23,0,.54-.03,.9-.08,.63-.14,1.31-.19,1.71-.19,2.12,0,3.56,1.89,3.56,4.69,0,4.86-2.39,9.53-7.83,9.53-2.52,0-4.69-1.25-4.69-2.7,0-.49,.19-.67,.91-.99,1.3-.58,1.84-1.39,1.84-2.61,0-1.58-1.26-2.78-2.87-2.78-1.94,0-3.21,1.51-3.21,3.86,0,4.38,3.33,7.11,8.74,7.11,6.8,0,11.97-4.55,11.97-10.58,0-3.5-2.16-5.48-5.32-6.47"/><path d="M1662.17,27.7c2.13-.67,2.97-1.05,4.05-1.77,2.13-1.39,3.42-3.86,3.42-6.39,0-4.26-3.42-7.14-8.45-7.14s-9.05,3.05-9.05,6.75c0,1.84,1.13,3.09,2.83,3.09,1.49,0,2.58-1.08,2.58-2.56,0-.77-.23-1.3-.95-2.02-.46-.41-.63-.73-.63-1.05,0-1.08,2.25-2.2,4.36-2.2,3.02,0,4.81,1.67,4.81,4.45,0,4.02-2.82,7.78-5.84,7.78-.14,0-.55-.03-1.03-.08q-1.31-.09-1.58-.09c-1,0-1.53,.45-1.53,1.26,0,.72,.5,1.16,1.3,1.16,.23,0,.54-.03,.9-.08,.63-.14,1.31-.19,1.71-.19,2.12,0,3.56,1.89,3.56,4.69,0,4.86-2.39,9.53-7.83,9.53-2.52,0-4.69-1.25-4.69-2.7,0-.49,.19-.67,.91-.99,1.3-.58,1.84-1.39,1.84-2.61,0-1.58-1.26-2.78-2.87-2.78-1.94,0-3.21,1.51-3.21,3.86,0,4.38,3.33,7.11,8.74,7.11,6.8,0,11.97-4.55,11.97-10.58,0-3.5-2.16-5.48-5.32-6.47"/><path d="M1045.67,695.05c2.13-.67,2.97-1.04,4.05-1.76,2.12-1.39,3.42-3.86,3.42-6.39,0-4.27-3.42-7.14-8.45-7.14s-9.05,3.04-9.05,6.75c0,1.84,1.13,3.09,2.83,3.09,1.48,0,2.58-1.08,2.58-2.56,0-.77-.24-1.3-.96-2.02-.45-.4-.62-.73-.62-1.04,0-1.08,2.25-2.21,4.36-2.21,3.01,0,4.81,1.67,4.81,4.46,0,4.01-2.83,7.78-5.84,7.78-.14,0-.55-.03-1.03-.08q-1.32-.09-1.58-.09c-1,0-1.53,.45-1.53,1.26,0,.72,.5,1.16,1.29,1.16,.24,0,.55-.03,.91-.08,.63-.14,1.31-.19,1.7-.19,2.13,0,3.57,1.89,3.57,4.69,0,4.86-2.39,9.53-7.83,9.53-2.52,0-4.69-1.25-4.69-2.7,0-.49,.19-.67,.91-.99,1.29-.58,1.84-1.39,1.84-2.61,0-1.57-1.27-2.78-2.87-2.78-1.94,0-3.21,1.52-3.21,3.86,0,4.38,3.33,7.11,8.74,7.11,6.79,0,11.97-4.55,11.97-10.58,0-3.5-2.16-5.48-5.32-6.47"/><path d="M1476.21,21.5c2.13-.67,2.97-1.05,4.05-1.77,2.13-1.39,3.42-3.86,3.42-6.39,0-4.27-3.42-7.14-8.45-7.14s-9.05,3.05-9.05,6.75c0,1.84,1.13,3.09,2.83,3.09,1.48,0,2.58-1.08,2.58-2.56,0-.77-.24-1.3-.95-2.02-.46-.41-.63-.73-.63-1.05,0-1.08,2.25-2.2,4.36-2.2,3.02,0,4.81,1.67,4.81,4.45,0,4.02-2.83,7.78-5.84,7.78-.14,0-.55-.03-1.03-.08q-1.32-.09-1.58-.09c-1,0-1.53,.45-1.53,1.27,0,.72,.5,1.16,1.29,1.16,.24,0,.55-.03,.91-.08,.63-.14,1.31-.19,1.7-.19,2.13,0,3.57,1.89,3.57,4.69,0,4.86-2.39,9.53-7.83,9.53-2.52,0-4.69-1.25-4.69-2.7,0-.48,.19-.67,.91-.98,1.29-.58,1.84-1.39,1.84-2.61,0-1.58-1.26-2.78-2.87-2.78-1.94,0-3.21,1.52-3.21,3.86,0,4.38,3.33,7.11,8.74,7.11,6.79,0,11.97-4.55,11.97-10.58,0-3.5-2.16-5.48-5.32-6.47"/><path d="M808.26,695.05c2.13-.67,2.97-1.04,4.05-1.76,2.13-1.39,3.42-3.86,3.42-6.39,0-4.27-3.42-7.14-8.45-7.14s-9.05,3.04-9.05,6.75c0,1.84,1.13,3.09,2.83,3.09,1.49,0,2.58-1.08,2.58-2.56,0-.77-.24-1.3-.95-2.02-.46-.4-.63-.73-.63-1.04,0-1.08,2.25-2.21,4.36-2.21,3.02,0,4.81,1.67,4.81,4.46,0,4.01-2.83,7.78-5.84,7.78-.14,0-.55-.03-1.03-.08q-1.31-.09-1.58-.09c-1,0-1.53,.45-1.53,1.26,0,.72,.5,1.16,1.3,1.16,.23,0,.54-.03,.9-.08,.63-.14,1.31-.19,1.7-.19,2.13,0,3.57,1.89,3.57,4.69,0,4.86-2.39,9.53-7.83,9.53-2.52,0-4.69-1.25-4.69-2.7,0-.49,.19-.67,.91-.99,1.29-.58,1.84-1.39,1.84-2.61,0-1.57-1.26-2.78-2.87-2.78-1.94,0-3.21,1.52-3.21,3.86,0,4.38,3.33,7.11,8.74,7.11,6.79,0,11.97-4.55,11.97-10.58,0-3.5-2.16-5.48-5.32-6.47"/><path d="M1290.25,27.7c2.13-.67,2.97-1.05,4.05-1.77,2.12-1.39,3.42-3.86,3.42-6.39,0-4.26-3.42-7.14-8.45-7.14s-9.05,3.05-9.05,6.75c0,1.84,1.13,3.09,2.83,3.09,1.48,0,2.58-1.08,2.58-2.56,0-.77-.24-1.3-.96-2.02-.45-.41-.62-.73-.62-1.05,0-1.08,2.25-2.2,4.36-2.2,3.01,0,4.81,1.67,4.81,4.45,0,4.02-2.83,7.78-5.84,7.78-.14,0-.55-.03-1.03-.08q-1.32-.09-1.58-.09c-1,0-1.53,.45-1.53,1.26,0,.72,.5,1.16,1.29,1.16,.24,0,.55-.03,.91-.08,.62-.14,1.31-.19,1.7-.19,2.13,0,3.57,1.89,3.57,4.69,0,4.86-2.4,9.53-7.83,9.53-2.52,0-4.69-1.25-4.69-2.7,0-.49,.19-.67,.91-.99,1.29-.58,1.84-1.39,1.84-2.61,0-1.58-1.27-2.78-2.88-2.78-1.93,0-3.2,1.51-3.2,3.86,0,4.38,3.33,7.11,8.74,7.11,6.79,0,11.96-4.55,11.96-10.58,0-3.5-2.15-5.48-5.31-6.47"/><path d="M1104.29,27.7c2.13-.67,2.97-1.05,4.05-1.77,2.12-1.39,3.42-3.86,3.42-6.39,0-4.26-3.42-7.14-8.45-7.14s-9.05,3.05-9.05,6.75c0,1.84,1.12,3.09,2.83,3.09,1.48,0,2.58-1.08,2.58-2.56,0-.77-.24-1.3-.96-2.02-.45-.41-.62-.73-.62-1.05,0-1.08,2.25-2.2,4.36-2.2,3.01,0,4.81,1.67,4.81,4.45,0,4.02-2.83,7.78-5.84,7.78-.14,0-.55-.03-1.04-.08q-1.31-.09-1.57-.09c-1,0-1.53,.45-1.53,1.26,0,.72,.5,1.16,1.29,1.16,.24,0,.55-.03,.91-.08,.62-.14,1.31-.19,1.7-.19,2.13,0,3.56,1.89,3.56,4.69,0,4.86-2.39,9.53-7.82,9.53-2.52,0-4.69-1.25-4.69-2.7,0-.49,.19-.67,.9-.99,1.3-.58,1.85-1.39,1.85-2.61,0-1.58-1.27-2.78-2.88-2.78-1.93,0-3.2,1.51-3.2,3.86,0,4.38,3.33,7.11,8.73,7.11,6.8,0,11.97-4.55,11.97-10.58,0-3.5-2.15-5.48-5.31-6.47"/><path d="M874.18,27.7c2.13-.67,2.97-1.05,4.05-1.77,2.12-1.39,3.42-3.86,3.42-6.39,0-4.26-3.42-7.14-8.45-7.14s-9.05,3.05-9.05,6.75c0,1.84,1.12,3.09,2.83,3.09,1.48,0,2.58-1.08,2.58-2.56,0-.77-.24-1.3-.96-2.02-.45-.41-.62-.73-.62-1.05,0-1.08,2.25-2.2,4.36-2.2,3.01,0,4.81,1.67,4.81,4.45,0,4.02-2.83,7.78-5.84,7.78-.14,0-.55-.03-1.04-.08q-1.31-.09-1.57-.09c-1,0-1.53,.45-1.53,1.26,0,.72,.5,1.16,1.29,1.16,.24,0,.55-.03,.91-.08,.62-.14,1.31-.19,1.7-.19,2.13,0,3.56,1.89,3.56,4.69,0,4.86-2.39,9.53-7.82,9.53-2.52,0-4.69-1.25-4.69-2.7,0-.49,.19-.67,.9-.99,1.3-.58,1.85-1.39,1.85-2.61,0-1.58-1.27-2.78-2.88-2.78-1.93,0-3.2,1.51-3.2,3.86,0,4.38,3.33,7.11,8.73,7.11,6.8,0,11.97-4.55,11.97-10.58,0-3.5-2.15-5.48-5.31-6.47"/><path d="M570.86,695.05c2.12-.67,2.97-1.04,4.05-1.76,2.12-1.39,3.42-3.86,3.42-6.39,0-4.27-3.42-7.14-8.45-7.14s-9.05,3.04-9.05,6.75c0,1.84,1.12,3.09,2.83,3.09,1.48,0,2.58-1.08,2.58-2.56,0-.77-.23-1.3-.95-2.02-.45-.4-.62-.73-.62-1.04,0-1.08,2.25-2.21,4.36-2.21,3.02,0,4.81,1.67,4.81,4.46,0,4.01-2.83,7.78-5.84,7.78-.14,0-.55-.03-1.03-.08q-1.31-.09-1.58-.09c-1,0-1.53,.45-1.53,1.26,0,.72,.5,1.16,1.3,1.16,.23,0,.55-.03,.91-.08,.62-.14,1.31-.19,1.7-.19,2.12,0,3.56,1.89,3.56,4.69,0,4.86-2.39,9.53-7.83,9.53-2.52,0-4.69-1.25-4.69-2.7,0-.49,.19-.67,.91-.99,1.3-.58,1.84-1.39,1.84-2.61,0-1.57-1.27-2.78-2.88-2.78-1.94,0-3.2,1.52-3.2,3.86,0,4.38,3.33,7.11,8.73,7.11,6.8,0,11.97-4.55,11.97-10.58,0-3.5-2.16-5.48-5.31-6.47"/><path d="M688.22,27.7c2.12-.67,2.97-1.05,4.05-1.77,2.12-1.39,3.42-3.86,3.42-6.39,0-4.26-3.42-7.14-8.45-7.14s-9.05,3.05-9.05,6.75c0,1.84,1.12,3.09,2.83,3.09,1.48,0,2.58-1.08,2.58-2.56,0-.77-.23-1.3-.95-2.02-.45-.41-.62-.73-.62-1.05,0-1.08,2.25-2.2,4.36-2.2,3.02,0,4.81,1.67,4.81,4.45,0,4.02-2.83,7.78-5.84,7.78-.14,0-.55-.03-1.03-.08q-1.31-.09-1.58-.09c-1,0-1.53,.45-1.53,1.26,0,.72,.5,1.16,1.3,1.16,.23,0,.55-.03,.91-.08,.62-.14,1.31-.19,1.7-.19,2.12,0,3.56,1.89,3.56,4.69,0,4.86-2.39,9.53-7.83,9.53-2.52,0-4.69-1.25-4.69-2.7,0-.49,.19-.67,.91-.99,1.3-.58,1.84-1.39,1.84-2.61,0-1.58-1.27-2.78-2.88-2.78-1.94,0-3.2,1.51-3.2,3.86,0,4.38,3.33,7.11,8.73,7.11,6.8,0,11.97-4.55,11.97-10.58,0-3.5-2.16-5.48-5.31-6.47"/><path d="M502.26,27.7c2.12-.67,2.97-1.05,4.05-1.77,2.12-1.39,3.42-3.86,3.42-6.39,0-4.26-3.42-7.14-8.45-7.14s-9.05,3.05-9.05,6.75c0,1.84,1.12,3.09,2.83,3.09,1.48,0,2.58-1.08,2.58-2.56,0-.77-.23-1.3-.95-2.02-.45-.41-.62-.73-.62-1.05,0-1.08,2.25-2.2,4.36-2.2,3.02,0,4.81,1.67,4.81,4.45,0,4.02-2.83,7.78-5.84,7.78-.14,0-.55-.03-1.03-.08q-1.31-.09-1.58-.09c-1,0-1.53,.45-1.53,1.26,0,.72,.5,1.16,1.3,1.16,.23,0,.55-.03,.91-.08,.62-.14,1.31-.19,1.7-.19,2.12,0,3.56,1.89,3.56,4.69,0,4.86-2.39,9.53-7.83,9.53-2.52,0-4.69-1.25-4.69-2.7,0-.49,.19-.67,.91-.99,1.3-.58,1.84-1.39,1.84-2.61,0-1.58-1.27-2.78-2.88-2.78-1.94,0-3.2,1.51-3.2,3.86,0,4.38,3.33,7.11,8.73,7.11,6.8,0,11.97-4.55,11.97-10.58,0-3.5-2.16-5.48-5.31-6.47"/><path d="M333.45,695.05c2.12-.67,2.97-1.04,4.05-1.76,2.12-1.39,3.42-3.86,3.42-6.39,0-4.27-3.42-7.14-8.45-7.14s-9.05,3.04-9.05,6.75c0,1.84,1.12,3.09,2.83,3.09,1.48,0,2.58-1.08,2.58-2.56,0-.77-.23-1.3-.95-2.02-.45-.4-.62-.73-.62-1.04,0-1.08,2.25-2.21,4.36-2.21,3.02,0,4.81,1.67,4.81,4.46,0,4.01-2.83,7.78-5.84,7.78-.14,0-.55-.03-1.03-.08q-1.31-.09-1.58-.09c-1,0-1.53,.45-1.53,1.26,0,.72,.5,1.16,1.3,1.16,.23,0,.55-.03,.91-.08,.62-.14,1.31-.19,1.7-.19,2.12,0,3.56,1.89,3.56,4.69,0,4.86-2.39,9.53-7.83,9.53-2.52,0-4.69-1.25-4.69-2.7,0-.49,.19-.67,.91-.99,1.3-.58,1.84-1.39,1.84-2.61,0-1.57-1.27-2.78-2.88-2.78-1.94,0-3.2,1.52-3.2,3.86,0,4.38,3.33,7.11,8.73,7.11,6.8,0,11.97-4.55,11.97-10.58,0-3.5-2.16-5.48-5.31-6.47"/><path d="M316.3,27.7c2.12-.67,2.97-1.05,4.05-1.77,2.12-1.39,3.42-3.86,3.42-6.39,0-4.26-3.42-7.14-8.45-7.14s-9.05,3.05-9.05,6.75c0,1.84,1.12,3.09,2.83,3.09,1.49,0,2.58-1.08,2.58-2.56,0-.77-.23-1.3-.95-2.02-.45-.41-.62-.73-.62-1.05,0-1.08,2.25-2.2,4.36-2.2,3.01,0,4.81,1.67,4.81,4.45,0,4.02-2.83,7.78-5.84,7.78-.14,0-.55-.03-1.03-.08q-1.31-.09-1.58-.09c-1,0-1.53,.45-1.53,1.26,0,.72,.5,1.16,1.3,1.16,.23,0,.55-.03,.91-.08,.62-.14,1.31-.19,1.7-.19,2.12,0,3.56,1.89,3.56,4.69,0,4.86-2.39,9.53-7.83,9.53-2.52,0-4.69-1.25-4.69-2.7,0-.49,.19-.67,.91-.99,1.3-.58,1.84-1.39,1.84-2.61,0-1.58-1.27-2.78-2.88-2.78-1.94,0-3.2,1.51-3.2,3.86,0,4.38,3.33,7.11,8.73,7.11,6.8,0,11.97-4.55,11.97-10.58,0-3.5-2.16-5.48-5.31-6.47"/><path d="M502.26,361.38c2.12-.67,2.97-1.05,4.05-1.77,2.12-1.39,3.42-3.86,3.42-6.39,0-4.27-3.42-7.14-8.45-7.14s-9.05,3.05-9.05,6.75c0,1.84,1.12,3.09,2.83,3.09,1.48,0,2.58-1.08,2.58-2.56,0-.76-.23-1.3-.95-2.01-.45-.41-.62-.74-.62-1.05,0-1.08,2.25-2.2,4.36-2.2,3.02,0,4.81,1.67,4.81,4.45,0,4.01-2.83,7.78-5.84,7.78-.14,0-.55-.03-1.03-.08q-1.31-.09-1.58-.09c-1,0-1.53,.45-1.53,1.27,0,.72,.5,1.16,1.3,1.16,.23,0,.55-.03,.91-.08,.62-.14,1.31-.19,1.7-.19,2.12,0,3.56,1.89,3.56,4.69,0,4.86-2.39,9.53-7.83,9.53-2.52,0-4.69-1.25-4.69-2.7,0-.48,.19-.67,.91-.98,1.3-.58,1.84-1.39,1.84-2.61,0-1.58-1.27-2.78-2.88-2.78-1.94,0-3.2,1.52-3.2,3.86,0,4.38,3.33,7.11,8.73,7.11,6.8,0,11.97-4.55,11.97-10.58,0-3.5-2.16-5.49-5.31-6.47"/><path d="M1662.17,361.38c2.13-.67,2.97-1.05,4.05-1.77,2.13-1.39,3.42-3.86,3.42-6.39,0-4.27-3.42-7.14-8.45-7.14s-9.05,3.05-9.05,6.75c0,1.84,1.13,3.09,2.83,3.09,1.49,0,2.58-1.08,2.58-2.56,0-.76-.23-1.3-.95-2.01-.46-.41-.63-.74-.63-1.05,0-1.08,2.25-2.2,4.36-2.2,3.02,0,4.81,1.67,4.81,4.45,0,4.01-2.82,7.78-5.84,7.78-.14,0-.55-.03-1.03-.08q-1.31-.09-1.58-.09c-1,0-1.53,.45-1.53,1.27,0,.72,.5,1.16,1.3,1.16,.23,0,.54-.03,.9-.08,.63-.14,1.31-.19,1.71-.19,2.12,0,3.56,1.89,3.56,4.69,0,4.86-2.39,9.53-7.83,9.53-2.52,0-4.69-1.25-4.69-2.7,0-.48,.19-.67,.91-.98,1.3-.58,1.84-1.39,1.84-2.61,0-1.58-1.26-2.78-2.87-2.78-1.94,0-3.21,1.52-3.21,3.86,0,4.38,3.33,7.11,8.74,7.11,6.8,0,11.97-4.55,11.97-10.58,0-3.5-2.16-5.49-5.32-6.47"/><path d="M1476.21,355.18c2.13-.67,2.97-1.05,4.05-1.77,2.13-1.39,3.42-3.86,3.42-6.39,0-4.27-3.42-7.14-8.45-7.14s-9.05,3.05-9.05,6.75c0,1.84,1.13,3.09,2.83,3.09,1.48,0,2.58-1.08,2.58-2.56,0-.77-.24-1.3-.95-2.02-.46-.41-.63-.73-.63-1.05,0-1.08,2.25-2.2,4.36-2.2,3.02,0,4.81,1.67,4.81,4.45,0,4.02-2.83,7.78-5.84,7.78-.14,0-.55-.03-1.03-.08q-1.32-.09-1.58-.09c-1,0-1.53,.45-1.53,1.27,0,.72,.5,1.16,1.29,1.16,.24,0,.55-.03,.91-.08,.63-.14,1.31-.19,1.7-.19,2.13,0,3.57,1.89,3.57,4.69,0,4.86-2.39,9.53-7.83,9.53-2.52,0-4.69-1.25-4.69-2.7,0-.48,.19-.67,.91-.98,1.29-.58,1.84-1.39,1.84-2.61,0-1.58-1.26-2.78-2.87-2.78-1.94,0-3.21,1.52-3.21,3.86,0,4.38,3.33,7.11,8.74,7.11,6.79,0,11.97-4.55,11.97-10.58,0-3.5-2.16-5.48-5.32-6.47"/><path d="M1290.25,361.38c2.13-.67,2.97-1.05,4.05-1.77,2.12-1.39,3.42-3.86,3.42-6.39,0-4.27-3.42-7.14-8.45-7.14s-9.05,3.05-9.05,6.75c0,1.84,1.13,3.09,2.83,3.09,1.48,0,2.58-1.08,2.58-2.56,0-.76-.24-1.3-.96-2.01-.45-.41-.62-.74-.62-1.05,0-1.08,2.25-2.2,4.36-2.2,3.01,0,4.81,1.67,4.81,4.45,0,4.01-2.83,7.78-5.84,7.78-.14,0-.55-.03-1.03-.08q-1.32-.09-1.58-.09c-1,0-1.53,.45-1.53,1.27,0,.72,.5,1.16,1.29,1.16,.24,0,.55-.03,.91-.08,.62-.14,1.31-.19,1.7-.19,2.13,0,3.57,1.89,3.57,4.69,0,4.86-2.4,9.53-7.83,9.53-2.52,0-4.69-1.25-4.69-2.7,0-.48,.19-.67,.91-.98,1.29-.58,1.84-1.39,1.84-2.61,0-1.58-1.27-2.78-2.88-2.78-1.93,0-3.2,1.52-3.2,3.86,0,4.38,3.33,7.11,8.74,7.11,6.79,0,11.96-4.55,11.96-10.58,0-3.5-2.15-5.49-5.31-6.47"/><path d="M2450.17,361.38c2.12-.67,2.97-1.05,4.05-1.77,2.12-1.39,3.42-3.86,3.42-6.39,0-4.27-3.42-7.14-8.46-7.14s-9.04,3.05-9.04,6.75c0,1.84,1.12,3.09,2.83,3.09,1.48,0,2.57-1.08,2.57-2.56,0-.76-.23-1.3-.95-2.01-.45-.41-.62-.74-.62-1.05,0-1.08,2.25-2.2,4.35-2.2,3.02,0,4.82,1.67,4.82,4.45,0,4.01-2.83,7.78-5.85,7.78-.14,0-.54-.03-1.03-.08q-1.31-.09-1.58-.09c-1,0-1.53,.45-1.53,1.27,0,.72,.5,1.16,1.3,1.16,.23,0,.55-.03,.91-.08,.62-.14,1.31-.19,1.7-.19,2.12,0,3.56,1.89,3.56,4.69,0,4.86-2.39,9.53-7.83,9.53-2.51,0-4.68-1.25-4.68-2.7,0-.48,.18-.67,.9-.98,1.3-.58,1.85-1.39,1.85-2.61,0-1.58-1.27-2.78-2.88-2.78-1.94,0-3.2,1.52-3.2,3.86,0,4.38,3.33,7.11,8.73,7.11,6.8,0,11.97-4.55,11.97-10.58,0-3.5-2.16-5.49-5.31-6.47"/><path d="M1104.29,361.38c2.13-.67,2.97-1.05,4.05-1.77,2.12-1.39,3.42-3.86,3.42-6.39,0-4.27-3.42-7.14-8.45-7.14s-9.05,3.05-9.05,6.75c0,1.84,1.12,3.09,2.83,3.09,1.48,0,2.58-1.08,2.58-2.56,0-.76-.24-1.3-.96-2.01-.45-.41-.62-.74-.62-1.05,0-1.08,2.25-2.2,4.36-2.2,3.01,0,4.81,1.67,4.81,4.45,0,4.01-2.83,7.78-5.84,7.78-.14,0-.55-.03-1.04-.08q-1.31-.09-1.57-.09c-1,0-1.53,.45-1.53,1.27,0,.72,.5,1.16,1.29,1.16,.24,0,.55-.03,.91-.08,.62-.14,1.31-.19,1.7-.19,2.13,0,3.56,1.89,3.56,4.69,0,4.86-2.39,9.53-7.82,9.53-2.52,0-4.69-1.25-4.69-2.7,0-.48,.19-.67,.9-.98,1.3-.58,1.85-1.39,1.85-2.61,0-1.58-1.27-2.78-2.88-2.78-1.93,0-3.2,1.52-3.2,3.86,0,4.38,3.33,7.11,8.73,7.11,6.8,0,11.97-4.55,11.97-10.58,0-3.5-2.15-5.49-5.31-6.47"/><path d="M2264.21,361.38c2.12-.67,2.97-1.05,4.04-1.77,2.13-1.39,3.43-3.86,3.43-6.39,0-4.27-3.43-7.14-8.46-7.14s-9.04,3.05-9.04,6.75c0,1.84,1.12,3.09,2.82,3.09,1.49,0,2.58-1.08,2.58-2.56,0-.76-.23-1.3-.95-2.01-.45-.41-.63-.74-.63-1.05,0-1.08,2.25-2.2,4.36-2.2,3.02,0,4.82,1.67,4.82,4.45,0,4.01-2.83,7.78-5.85,7.78-.14,0-.54-.03-1.03-.08q-1.31-.09-1.58-.09c-1,0-1.53,.45-1.53,1.27,0,.72,.5,1.16,1.3,1.16,.23,0,.55-.03,.9-.08,.63-.14,1.32-.19,1.71-.19,2.12,0,3.56,1.89,3.56,4.69,0,4.86-2.39,9.53-7.83,9.53-2.51,0-4.69-1.25-4.69-2.7,0-.48,.19-.67,.91-.98,1.3-.58,1.84-1.39,1.84-2.61,0-1.58-1.26-2.78-2.87-2.78-1.94,0-3.2,1.52-3.2,3.86,0,4.38,3.32,7.11,8.73,7.11,6.8,0,11.97-4.55,11.97-10.58,0-3.5-2.16-5.49-5.31-6.47"/><path d="M874.18,361.38c2.13-.67,2.97-1.05,4.05-1.77,2.12-1.39,3.42-3.86,3.42-6.39,0-4.27-3.42-7.14-8.45-7.14s-9.05,3.05-9.05,6.75c0,1.84,1.12,3.09,2.83,3.09,1.48,0,2.58-1.08,2.58-2.56,0-.76-.24-1.3-.96-2.01-.45-.41-.62-.74-.62-1.05,0-1.08,2.25-2.2,4.36-2.2,3.01,0,4.81,1.67,4.81,4.45,0,4.01-2.83,7.78-5.84,7.78-.14,0-.55-.03-1.04-.08q-1.31-.09-1.57-.09c-1,0-1.53,.45-1.53,1.27,0,.72,.5,1.16,1.29,1.16,.24,0,.55-.03,.91-.08,.62-.14,1.31-.19,1.7-.19,2.13,0,3.56,1.89,3.56,4.69,0,4.86-2.39,9.53-7.82,9.53-2.52,0-4.69-1.25-4.69-2.7,0-.48,.19-.67,.9-.98,1.3-.58,1.85-1.39,1.85-2.61,0-1.58-1.27-2.78-2.88-2.78-1.93,0-3.2,1.52-3.2,3.86,0,4.38,3.33,7.11,8.73,7.11,6.8,0,11.97-4.55,11.97-10.58,0-3.5-2.15-5.49-5.31-6.47"/><path d="M2078.25,361.38c2.12-.67,2.96-1.05,4.04-1.77,2.13-1.39,3.42-3.86,3.42-6.39,0-4.27-3.42-7.14-8.45-7.14s-9.05,3.05-9.05,6.75c0,1.84,1.13,3.09,2.83,3.09,1.49,0,2.58-1.08,2.58-2.56,0-.76-.23-1.3-.95-2.01-.46-.41-.63-.74-.63-1.05,0-1.08,2.25-2.2,4.36-2.2,3.02,0,4.81,1.67,4.81,4.45,0,4.01-2.82,7.78-5.84,7.78-.14,0-.55-.03-1.03-.08q-1.31-.09-1.58-.09c-1,0-1.53,.45-1.53,1.27,0,.72,.5,1.16,1.3,1.16,.23,0,.54-.03,.9-.08,.63-.14,1.32-.19,1.71-.19,2.12,0,3.56,1.89,3.56,4.69,0,4.86-2.39,9.53-7.83,9.53-2.51,0-4.69-1.25-4.69-2.7,0-.48,.19-.67,.91-.98,1.3-.58,1.84-1.39,1.84-2.61,0-1.58-1.26-2.78-2.87-2.78-1.94,0-3.2,1.52-3.2,3.86,0,4.38,3.32,7.11,8.73,7.11,6.8,0,11.97-4.55,11.97-10.58,0-3.5-2.16-5.49-5.31-6.47"/><path d="M688.22,361.38c2.12-.67,2.97-1.05,4.05-1.77,2.12-1.39,3.42-3.86,3.42-6.39,0-4.27-3.42-7.14-8.45-7.14s-9.05,3.05-9.05,6.75c0,1.84,1.12,3.09,2.83,3.09,1.48,0,2.58-1.08,2.58-2.56,0-.76-.23-1.3-.95-2.01-.45-.41-.62-.74-.62-1.05,0-1.08,2.25-2.2,4.36-2.2,3.02,0,4.81,1.67,4.81,4.45,0,4.01-2.83,7.78-5.84,7.78-.14,0-.55-.03-1.03-.08q-1.31-.09-1.58-.09c-1,0-1.53,.45-1.53,1.27,0,.72,.5,1.16,1.3,1.16,.23,0,.55-.03,.91-.08,.62-.14,1.31-.19,1.7-.19,2.12,0,3.56,1.89,3.56,4.69,0,4.86-2.39,9.53-7.83,9.53-2.52,0-4.69-1.25-4.69-2.7,0-.48,.19-.67,.91-.98,1.3-.58,1.84-1.39,1.84-2.61,0-1.58-1.27-2.78-2.88-2.78-1.94,0-3.2,1.52-3.2,3.86,0,4.38,3.33,7.11,8.73,7.11,6.8,0,11.97-4.55,11.97-10.58,0-3.5-2.16-5.49-5.31-6.47"/><path d="M1892.28,361.38c2.13-.67,2.97-1.05,4.05-1.77,2.13-1.39,3.42-3.86,3.42-6.39,0-4.27-3.42-7.14-8.45-7.14s-9.05,3.05-9.05,6.75c0,1.84,1.13,3.09,2.83,3.09,1.49,0,2.58-1.08,2.58-2.56,0-.76-.23-1.3-.95-2.01-.46-.41-.63-.74-.63-1.05,0-1.08,2.25-2.2,4.36-2.2,3.02,0,4.81,1.67,4.81,4.45,0,4.01-2.82,7.78-5.84,7.78-.14,0-.55-.03-1.03-.08q-1.31-.09-1.58-.09c-1,0-1.53,.45-1.53,1.27,0,.72,.5,1.16,1.3,1.16,.23,0,.54-.03,.9-.08,.63-.14,1.31-.19,1.71-.19,2.12,0,3.56,1.89,3.56,4.69,0,4.86-2.39,9.53-7.83,9.53-2.52,0-4.69-1.25-4.69-2.7,0-.48,.19-.67,.91-.98,1.3-.58,1.84-1.39,1.84-2.61,0-1.58-1.26-2.78-2.87-2.78-1.94,0-3.21,1.52-3.21,3.86,0,4.38,3.33,7.11,8.74,7.11,6.8,0,11.97-4.55,11.97-10.58,0-3.5-2.16-5.49-5.32-6.47"/><path d="M2032.01,695.05c2.13-.67,2.97-1.04,4.05-1.76,2.12-1.39,3.42-3.86,3.42-6.39,0-4.27-3.42-7.14-8.45-7.14s-9.05,3.04-9.05,6.75c0,1.84,1.13,3.09,2.83,3.09,1.48,0,2.58-1.08,2.58-2.56,0-.77-.24-1.3-.96-2.02-.45-.4-.62-.73-.62-1.04,0-1.08,2.25-2.21,4.36-2.21,3.01,0,4.81,1.67,4.81,4.46,0,4.01-2.83,7.78-5.84,7.78-.14,0-.55-.03-1.03-.08q-1.32-.09-1.58-.09c-1,0-1.53,.45-1.53,1.26,0,.72,.5,1.16,1.29,1.16,.24,0,.55-.03,.91-.08,.62-.14,1.31-.19,1.7-.19,2.13,0,3.57,1.89,3.57,4.69,0,4.86-2.4,9.53-7.83,9.53-2.52,0-4.69-1.25-4.69-2.7,0-.49,.19-.67,.91-.99,1.29-.58,1.84-1.39,1.84-2.61,0-1.57-1.27-2.78-2.88-2.78-1.93,0-3.2,1.52-3.2,3.86,0,4.38,3.33,7.11,8.74,7.11,6.79,0,11.96-4.55,11.96-10.58,0-3.5-2.15-5.48-5.31-6.47"/></g></svg>