<?xml version="1.0" encoding="UTF-8"?><svg id="Ebene_2" xmlns="http://www.w3.org/2000/svg" viewBox="0 0 1678.8 176.39"><g id="Ebene_1-2"><line y1="35.91" x2="1675.53" y2="35.91" fill="none" stroke="#000" stroke-linejoin="bevel" stroke-width="2.73"/><line y1="60.71" x2="1675.53" y2="60.71" fill="none" stroke="#000" stroke-linejoin="bevel" stroke-width="2.73"/><line y1="85.51" x2="1675.53" y2="85.51" fill="none" stroke="#000" stroke-linejoin="bevel" stroke-width="2.73"/><line y1="110.31" x2="1675.53" y2="110.31" fill="none" stroke="#000" stroke-linejoin="bevel" stroke-width="2.73"/><line y1="135.11" x2="1675.53" y2="135.11" fill="none" stroke="#000" stroke-linejoin="bevel" stroke-width="2.73"/><line x1="822.15" y1="34.55" x2="822.15" y2="136.48" fill="none" stroke="#000" stroke-linejoin="bevel" stroke-width="4.46"/><line x1="1139.48" y1="34.55" x2="1139.48" y2="136.48" fill="none" stroke="#000" stroke-linejoin="bevel" stroke-width="4.46"/><line x1="1653.76" y1="34.55" x2="1653.76" y2="136.48" fill="none" stroke="#000" stroke-linejoin="bevel" stroke-width="4.46"/><line x1="1671.98" y1="34.55" x2="1671.98" y2="136.48" fill="none" stroke="#000" stroke-linejoin="bevel" stroke-width="13.64"/><line x1="1456.81" y1="34.55" x2="1456.81" y2="136.48" fill="none" stroke="#000" stroke-linejoin="bevel" stroke-width="4.46"/><line x1="581.88" y1="34.55" x2="581.88" y2="136.48" fill="none" stroke="#000" stroke-linejoin="bevel" stroke-width="4.46"/><line x1="1345.26" y1="106.35" x2="1345.26" y2="23.51" fill="none" stroke="#000" stroke-linejoin="bevel" stroke-width="2.48"/><line x1="1415.42" y1="118.75" x2="1415.42" y2="35.91" fill="none" stroke="#000" stroke-linejoin="bevel" stroke-width="2.48"/><line x1="330.02" y1="131.15" x2="330.02" y2="48.31" fill="none" stroke="#000" stroke-linejoin="bevel" stroke-width="2.48"/><line x1="400.17" y1="118.75" x2="400.17" y2="35.91" fill="none" stroke="#000" stroke-linejoin="bevel" stroke-width="2.48"/><line x1="617.6" y1="89.68" x2="617.6" y2="159.91" fill="none" stroke="#000" stroke-linejoin="bevel" stroke-width="2.48"/><line x1="470.33" y1="106.35" x2="470.33" y2="23.51" fill="none" stroke="#000" stroke-linejoin="bevel" stroke-width="2.48"/><line x1="540.49" y1="93.95" x2="540.49" y2="17.31" fill="none" stroke="#000" stroke-linejoin="bevel" stroke-width="2.48"/><line x1="780.75" y1="93.95" x2="780.75" y2="17.31" fill="none" stroke="#000" stroke-linejoin="bevel" stroke-width="2.48"/><line x1="857.86" y1="89.68" x2="857.86" y2="159.91" fill="none" stroke="#000" stroke-linejoin="bevel" stroke-width="2.48"/><line x1="998.18" y1="89.68" x2="998.18" y2="159.91" fill="none" stroke="#000" stroke-linejoin="bevel" stroke-width="2.48"/><line x1="1098.08" y1="93.95" x2="1098.08" y2="17.31" fill="none" stroke="#000" stroke-linejoin="bevel" stroke-width="2.48"/><line x1="957.77" y1="93.95" x2="957.77" y2="17.31" fill="none" stroke="#000" stroke-linejoin="bevel" stroke-width="2.48"/><line x1="1175.2" y1="89.68" x2="1175.2" y2="159.91" fill="none" stroke="#000" stroke-linejoin="bevel" stroke-width="2.48"/><line x1="1275.1" y1="93.95" x2="1275.1" y2="17.31" fill="none" stroke="#000" stroke-linejoin="bevel" stroke-width="2.48"/><path d="M1173.96,89.68c0,4.26,3.07,9.02,11.11,9.02,10.31,0,21.13-8.43,21.13-17.16,0-5.86-4.96-9.13-11.11-9.13-9.63,0-21.13,8.14-21.13,17.27"/><path d="M1314.27,114.48c0,4.26,3.07,9.02,11.11,9.02,10.31,0,21.13-8.43,21.13-17.16,0-5.86-4.96-9.13-11.11-9.13-9.63,0-21.13,8.14-21.13,17.27"/><path d="M1244.11,102.08c0,4.26,3.07,9.02,11.11,9.02,10.31,0,21.13-8.43,21.13-17.16,0-5.86-4.96-9.13-11.11-9.13-9.63,0-21.13,8.14-21.13,17.27"/><path d="M1384.42,126.88c0,4.26,3.07,9.02,11.11,9.02,10.31,0,21.13-8.43,21.13-17.16,0-5.86-4.96-9.13-11.11-9.13-9.63,0-21.13,8.14-21.13,17.27"/><path d="M1067.09,102.08c0,4.26,3.07,9.02,11.11,9.02,10.31,0,21.13-8.43,21.13-17.16,0-5.86-4.96-9.13-11.11-9.13-9.63,0-21.13,8.14-21.13,17.27"/><path d="M996.94,89.68c0,4.26,3.07,9.02,11.11,9.02,10.31,0,21.13-8.43,21.13-17.16,0-5.86-4.96-9.13-11.11-9.13-9.63,0-21.13,8.14-21.13,17.27"/><path d="M1509.85,121.63c-13.69,0-18.55,6.94-18.55,13.39s4.87,13.39,18.55,13.39,18.45-6.94,18.45-13.39-4.76-13.39-18.45-13.39m.79,23.61c-2.77,0-4.67-.79-5.95-3.27s-3.07-8.93-3.18-11.52c-.2-2.68,.79-4.26,3.18-5.05,1.19-.4,2.77-.6,4.37-.6,2.67,0,4.46,.6,5.84,3.29,1.39,2.57,3.29,9.02,3.29,11.5,0,4.87-3.58,5.66-7.55,5.66"/><path d="M926.78,102.08c0,4.26,3.07,9.02,11.11,9.02,10.31,0,21.13-8.43,21.13-17.16,0-5.86-4.96-9.13-11.11-9.13-9.63,0-21.13,8.14-21.13,17.27"/><path d="M856.62,89.68c0,4.26,3.07,9.02,11.11,9.02,10.31,0,21.13-8.43,21.13-17.16,0-5.86-4.96-9.13-11.11-9.13-9.63,0-21.13,8.14-21.13,17.27"/><path d="M749.76,102.08c0,4.26,3.07,9.02,11.11,9.02,10.31,0,21.13-8.43,21.13-17.16,0-5.86-4.96-9.13-11.11-9.13-9.63,0-21.13,8.14-21.13,17.27"/><path d="M637.48,72.42c-9.63,0-21.13,8.04-21.13,17.27,0,4.26,3.07,9.02,11.11,9.02,10.31,0,21.13-8.43,21.13-17.16,0-5.86-4.96-9.13-11.11-9.13m-13.69,21.62c-3.27,0-3.97-2.67-3.97-3.56,0-4.87,16.66-13.39,21.33-13.39,2.39,0,3.97,1.39,3.97,3.56,0,4.96-16.77,13.39-21.33,13.39"/><path d="M369.18,126.88c0,4.26,3.07,9.02,11.11,9.02,10.31,0,21.13-8.43,21.13-17.16,0-5.86-4.96-9.13-11.11-9.13-9.63,0-21.13,8.14-21.13,17.27"/><path d="M509.49,102.08c0,4.26,3.07,9.02,11.11,9.02,10.31,0,21.13-8.43,21.13-17.16,0-5.86-4.96-9.13-11.11-9.13-9.63,0-21.13,8.14-21.13,17.27"/><path d="M439.34,114.48c0,4.26,3.07,9.02,11.11,9.02,10.31,0,21.13-8.43,21.13-17.16,0-5.86-4.96-9.13-11.11-9.13-9.63,0-21.13,8.14-21.13,17.27"/><path d="M299.02,139.28c0,4.26,3.07,9.02,11.11,9.02,10.31,0,21.13-8.43,21.13-17.16,0-5.86-4.96-9.13-11.11-9.13-9.63,0-21.13,8.14-21.13,17.27"/><path d="M30.8,161.2c0,6.56,4.96,15.19,18.35,15.19,4.67,0,8.74-1.19,12.31-3.38,5.36-3.77,6.74-10.32,6.74-16.57,0-3.86-.59-8.32-1.58-13.98-.29-1.98-.9-4.96-1.49-8.84,9.72-3.18,16.96-13.3,16.96-23.51,0-14.97-10.62-25.09-25.09-25.09-.99-5.95-1.98-11.81-2.77-17.36,10.42-11.02,17.65-23.42,17.65-39.18,0-9.04-2.77-16.37-4.37-19.95-2.37-5.05-5.25-8.53-7.04-8.53-.7,0-3.77,1.19-7.04,5.05-6.36,7.55-8.14,20.24-8.14,28.57,0,5.36,.5,10.23,2.19,21.34-.11,.09-5.27,5.35-7.35,7.04-9.04,8.34-21.53,20.43-21.53,40.28,0,18.54,16.17,33.12,34.63,33.12,2.87,0,5.55-.29,7.83-.7,1.89,9.53,3.08,16.48,3.08,21.73,0,10.32-5.36,15.78-15.38,15.78-2.39,0-4.46-.5-4.67-.5-.09-.11-.29-.2-.29-.29,0-.2,.2-.31,.5-.31,4.67-.79,9.32-4.76,9.32-11.1,0-5.36-4.06-11.02-11.5-11.02-6.94,0-11.31,5.66-11.31,12.2M51.54,28.77c.9-3.97,5.46-14.38,10.62-14.38,1.49,0,3.86,4.76,3.86,11.7,0,10.32-7.63,18.06-14.48,24.8-.59-3.97-1.08-7.83-1.08-12,0-3.67,.29-7.05,1.08-10.12m8.73,101.97c-1.98,.4-3.86,.6-5.75,.6-14.18,0-26.29-9.92-26.29-24.91,0-12.09,8.53-22.91,17.27-30.46,1.67-1.49,3.27-2.87,4.76-4.36,.88,5.35,1.58,10.01,2.28,14.09-9.04,2.68-15.17,12.2-15.17,21.53,0,6.94,5.46,16.46,13.39,16.46,.79,0,1.69-.4,1.69-1.29s-.99-1.39-2.19-2.19c-3.88-2.39-6.06-4.96-6.06-9.83,0-6.04,4.57-10.91,10.32-12.29l5.75,32.63m14.09-18.35c0,7.05-2.88,14.29-9.92,17.17-2.08-11.9-4.76-27.68-5.46-32.05,8.93,0,15.38,6.06,15.38,14.88"/><path d="M118.79,70.14c-4.96,0-7.84,3.07-8.34,3.67l.4-31.85c0-.79-.59-1.38-1.39-1.38h-1.18c-.81,0-1.39,.59-1.39,1.38l.5,59.63c0,.79,.59,1.38,1.39,1.38,.19,0,.59-.09,.79-.19,8.53-4.28,17.45-12.4,17.45-22.63,0-5.15-2.37-10.01-8.23-10.01m-8.63,27.98l.29-19.34c.2-.9,1.69-3.77,5.66-3.77,3.58,0,3.87,3.36,3.87,5.46,0,8.82-3.27,12.49-9.83,17.65"/><path d="M146.36,32.94c-4.96,0-7.84,3.07-8.34,3.67l.4-31.85c0-.79-.59-1.38-1.39-1.38h-1.18c-.81,0-1.39,.59-1.39,1.38l.5,59.63c0,.79,.59,1.38,1.39,1.38,.19,0,.59-.09,.79-.19,8.53-4.28,17.45-12.4,17.45-22.63,0-5.15-2.37-10.01-8.23-10.01m-8.63,27.98l.29-19.34c.2-.9,1.69-3.77,5.66-3.77,3.58,0,3.87,3.36,3.87,5.46,0,8.82-3.27,12.49-9.83,17.65"/><path d="M173.94,82.54c-4.96,0-7.84,3.07-8.34,3.67l.4-31.85c0-.79-.59-1.38-1.39-1.38h-1.18c-.81,0-1.39,.59-1.39,1.38l.5,59.63c0,.79,.59,1.38,1.39,1.38,.19,0,.59-.09,.79-.19,8.53-4.28,17.45-12.4,17.45-22.63,0-5.15-2.37-10.01-8.23-10.01m-8.63,27.98l.29-19.34c.2-.9,1.69-3.77,5.66-3.77,3.58,0,3.87,3.36,3.87,5.46,0,8.82-3.27,12.49-9.83,17.65"/><path d="M226.21,73.31v7.33h-8.23c-.7,0-1.39,.6-1.39,1.39v1.89c0,.79,.7,1.38,1.39,1.38h30.05c.81,0,1.39-.59,1.39-1.38v-1.89c0-.79-.59-1.39-1.39-1.39h-8.82v-7.33h8.82c.81,0,1.39-.7,1.39-1.49v-1.89c0-.7-.59-1.38-1.39-1.38h-8.82v-15.78c0-.59-.29-1.08-.79-1.29l-1.19-.6c-.2-.09-.5-.19-.7-.19-.29,.09-.7,.19-.9,.39l-9.02,8.23c-.29,.31-.4,.7-.4,1.1v8.14h-11.41s11.02-11.9,22.72-27.59c.4-.5,.5-.99,.5-1.38,0-.5-.2-.9-.29-.99l-2.19-2.19c-.2-.2-.59-.4-.99-.4h-14.68c-.81,0-1.3,.6-1.4,1.19,0,0-.5,7.35-3.07,15.38-2.59,8.04-5.56,13-8.14,16.66,0,0-.29,.5-.29,1.1,0,.2,0,.39,.09,.59,.4,.7,.99,1.78,.99,1.78,0,0,.2,.6,1.08,.6h17.07"/><path d="M226.21,122.91v7.33h-8.23c-.7,0-1.39,.6-1.39,1.39v1.89c0,.79,.7,1.38,1.39,1.38h30.05c.81,0,1.39-.59,1.39-1.38v-1.89c0-.79-.59-1.39-1.39-1.39h-8.82v-7.33h8.82c.81,0,1.39-.7,1.39-1.49v-1.89c0-.7-.59-1.38-1.39-1.38h-8.82v-15.78c0-.59-.29-1.08-.79-1.29l-1.19-.6c-.2-.09-.5-.19-.7-.19-.29,.09-.7,.19-.9,.39l-9.02,8.23c-.29,.31-.4,.7-.4,1.1v8.14h-11.41s11.02-11.9,22.72-27.59c.4-.5,.5-.99,.5-1.38,0-.5-.2-.9-.29-.99l-2.19-2.19c-.2-.2-.59-.4-.99-.4h-14.68c-.81,0-1.3,.6-1.4,1.19,0,0-.5,7.35-3.07,15.38-2.59,8.04-5.56,13-8.14,16.66,0,0-.29,.5-.29,1.1,0,.2,0,.39,.09,.59,.4,.7,.99,1.78,.99,1.78,0,0,.2,.6,1.08,.6h17.07"/><path d="M660.99,73.11c0,2.77,2.19,4.96,4.96,4.96s4.96-2.19,4.96-4.96-2.19-4.96-4.96-4.96-4.96,2.19-4.96,4.96"/></g></svg>