<?xml version="1.0" encoding="UTF-8"?><svg id="b" xmlns="http://www.w3.org/2000/svg" viewBox="0 0 2095.2 529.99"><g id="c"><line y1="55.83" x2="2095.2" y2="55.83" fill="none" stroke="#000" stroke-linejoin="bevel" stroke-width="2.73"/><line y1="80.63" x2="2095.2" y2="80.63" fill="none" stroke="#000" stroke-linejoin="bevel" stroke-width="2.73"/><line y1="105.43" x2="2095.2" y2="105.43" fill="none" stroke="#000" stroke-linejoin="bevel" stroke-width="2.73"/><line y1="130.23" x2="2095.2" y2="130.23" fill="none" stroke="#000" stroke-linejoin="bevel" stroke-width="2.73"/><line y1="155.03" x2="2095.2" y2="155.03" fill="none" stroke="#000" stroke-linejoin="bevel" stroke-width="2.73"/><line y1="389.51" x2="2095.2" y2="389.51" fill="none" stroke="#000" stroke-linejoin="bevel" stroke-width="2.73"/><line y1="414.31" x2="2095.2" y2="414.31" fill="none" stroke="#000" stroke-linejoin="bevel" stroke-width="2.73"/><line y1="439.11" x2="2095.2" y2="439.11" fill="none" stroke="#000" stroke-linejoin="bevel" stroke-width="2.73"/><line y1="463.91" x2="2095.2" y2="463.91" fill="none" stroke="#000" stroke-linejoin="bevel" stroke-width="2.73"/><line y1="488.71" x2="2095.2" y2="488.71" fill="none" stroke="#000" stroke-linejoin="bevel" stroke-width="2.73"/><line x1="1067.42" y1="54.47" x2="1067.42" y2="156.39" fill="none" stroke="#000" stroke-linejoin="bevel" stroke-width="4.46"/><line x1="554.65" y1="54.47" x2="554.65" y2="156.39" fill="none" stroke="#000" stroke-linejoin="bevel" stroke-width="4.46"/><line x1="1580.19" y1="54.47" x2="1580.19" y2="156.39" fill="none" stroke="#000" stroke-linejoin="bevel" stroke-width="4.46"/><line x1="2092.97" y1="54.47" x2="2092.97" y2="156.39" fill="none" stroke="#000" stroke-linejoin="bevel" stroke-width="4.46"/><line x1="935.04" y1="388.15" x2="935.04" y2="490.07" fill="none" stroke="#000" stroke-linejoin="bevel" stroke-width="4.46"/><line x1="1657.1" y1="388.15" x2="1657.1" y2="490.07" fill="none" stroke="#000" stroke-linejoin="bevel" stroke-width="4.46"/><line x1="2079.33" y1="388.15" x2="2079.33" y2="490.07" fill="none" stroke="#000" stroke-linejoin="bevel" stroke-width="4.46"/><line x1="2092.97" y1="388.15" x2="2092.97" y2="490.07" fill="none" stroke="#000" stroke-linejoin="bevel" stroke-width="4.46"/><line x1="1442.25" y1="31.03" x2="1490.86" y2="31.03" fill="none" stroke="#000" stroke-linejoin="bevel" stroke-width="3.97"/><line x1="968.66" y1="76.66" x2="968.66" y2="18.63" fill="none" stroke="#000" stroke-linejoin="bevel" stroke-width="2.48"/><line x1="910.57" y1="151.06" x2="910.57" y2="18.63" fill="none" stroke="#000" stroke-linejoin="bevel" stroke-width="2.48"/><line x1="852.48" y1="89.06" x2="852.48" y2="18.63" fill="none" stroke="#000" stroke-linejoin="bevel" stroke-width="2.48"/><line x1="794.39" y1="151.06" x2="794.39" y2="37.23" fill="none" stroke="#000" stroke-linejoin="bevel" stroke-width="2.48"/><line x1="736.3" y1="101.46" x2="736.3" y2="37.23" fill="none" stroke="#000" stroke-linejoin="bevel" stroke-width="2.48"/><line x1="678.21" y1="151.06" x2="678.21" y2="37.23" fill="none" stroke="#000" stroke-linejoin="bevel" stroke-width="2.48"/><line x1="620.12" y1="113.86" x2="620.12" y2="37.23" fill="none" stroke="#000" stroke-linejoin="bevel" stroke-width="2.48"/><line x1="1026.75" y1="151.06" x2="1026.75" y2="18.63" fill="none" stroke="#000" stroke-linejoin="bevel" stroke-width="2.48"/><line x1="1103.13" y1="72.4" x2="1103.13" y2="217.03" fill="none" stroke="#000" stroke-linejoin="bevel" stroke-width="2.48"/><line x1="1161.22" y1="159.2" x2="1161.22" y2="217.03" fill="none" stroke="#000" stroke-linejoin="bevel" stroke-width="2.48"/><line x1="1277.41" y1="159.2" x2="1277.41" y2="217.03" fill="none" stroke="#000" stroke-linejoin="bevel" stroke-width="2.48"/><line x1="1335.5" y1="47.6" x2="1335.5" y2="217.03" fill="none" stroke="#000" stroke-linejoin="bevel" stroke-width="2.48"/><line x1="1393.59" y1="159.2" x2="1393.59" y2="217.03" fill="none" stroke="#000" stroke-linejoin="bevel" stroke-width="2.48"/><line x1="1451.68" y1="35.2" x2="1451.68" y2="217.03" fill="none" stroke="#000" stroke-linejoin="bevel" stroke-width="2.48"/><line x1="1509.77" y1="159.2" x2="1509.77" y2="217.03" fill="none" stroke="#000" stroke-linejoin="bevel" stroke-width="2.48"/><line x1="1615.91" y1="47.6" x2="1615.91" y2="217.03" fill="none" stroke="#000" stroke-linejoin="bevel" stroke-width="2.48"/><line x1="1674" y1="159.2" x2="1674" y2="217.03" fill="none" stroke="#000" stroke-linejoin="bevel" stroke-width="2.48"/><line x1="1732.09" y1="60" x2="1732.09" y2="217.03" fill="none" stroke="#000" stroke-linejoin="bevel" stroke-width="2.48"/><line x1="1790.18" y1="159.2" x2="1790.18" y2="217.03" fill="none" stroke="#000" stroke-linejoin="bevel" stroke-width="2.48"/><line x1="1878.02" y1="64.26" x2="1878.02" y2="6.36" fill="none" stroke="#000" stroke-linejoin="bevel" stroke-width="2.48"/><line x1="1936.11" y1="151.06" x2="1936.11" y2="12.47" fill="none" stroke="#000" stroke-linejoin="bevel" stroke-width="2.48"/><line x1="1994.2" y1="76.66" x2="1994.2" y2="18.59" fill="none" stroke="#000" stroke-linejoin="bevel" stroke-width="2.48"/><line x1="2052.29" y1="151.06" x2="2052.29" y2="24.7" fill="none" stroke="#000" stroke-linejoin="bevel" stroke-width="2.48"/><line x1="278.43" y1="422.74" x2="278.43" y2="358.66" fill="none" stroke="#000" stroke-linejoin="bevel" stroke-width="2.48"/><line x1="364.1" y1="484.74" x2="364.1" y2="368.89" fill="none" stroke="#000" stroke-linejoin="bevel" stroke-width="2.48"/><line x1="449.78" y1="435.14" x2="449.78" y2="379.13" fill="none" stroke="#000" stroke-linejoin="bevel" stroke-width="2.48"/><line x1="1219.32" y1="60" x2="1219.32" y2="217.03" fill="none" stroke="#000" stroke-linejoin="bevel" stroke-width="2.48"/><line x1="621.12" y1="447.54" x2="621.12" y2="383.37" fill="none" stroke="#000" stroke-linejoin="bevel" stroke-width="2.48"/><line x1="706.79" y1="484.74" x2="706.79" y2="387.46" fill="none" stroke="#000" stroke-linejoin="bevel" stroke-width="2.48"/><line x1="792.46" y1="459.94" x2="792.46" y2="391.56" fill="none" stroke="#000" stroke-linejoin="bevel" stroke-width="2.48"/><line x1="878.13" y1="484.74" x2="878.13" y2="395.65" fill="none" stroke="#000" stroke-linejoin="bevel" stroke-width="2.48"/><line x1="496.28" y1="151.06" x2="496.28" y2="68.23" fill="none" stroke="#000" stroke-linejoin="bevel" stroke-width="2.48"/><line x1="1000.5" y1="447.54" x2="1000.5" y2="358.51" fill="none" stroke="#000" stroke-linejoin="bevel" stroke-width="2.48"/><line x1="1086.17" y1="484.74" x2="1086.17" y2="358.51" fill="none" stroke="#000" stroke-linejoin="bevel" stroke-width="2.48"/><line x1="1171.84" y1="422.74" x2="1171.84" y2="358.51" fill="none" stroke="#000" stroke-linejoin="bevel" stroke-width="2.48"/><line x1="1257.51" y1="484.74" x2="1257.51" y2="358.51" fill="none" stroke="#000" stroke-linejoin="bevel" stroke-width="2.48"/><line x1="1343.18" y1="397.94" x2="1343.18" y2="340.06" fill="none" stroke="#000" stroke-linejoin="bevel" stroke-width="2.48"/><line x1="1428.85" y1="484.74" x2="1428.85" y2="350.29" fill="none" stroke="#000" stroke-linejoin="bevel" stroke-width="2.48"/><line x1="1514.52" y1="422.74" x2="1514.52" y2="360.53" fill="none" stroke="#000" stroke-linejoin="bevel" stroke-width="2.48"/><line x1="1600.19" y1="484.74" x2="1600.19" y2="370.76" fill="none" stroke="#000" stroke-linejoin="bevel" stroke-width="2.48"/><line x1="1722.57" y1="447.54" x2="1722.57" y2="370.91" fill="none" stroke="#000" stroke-linejoin="bevel" stroke-width="2.48"/><line x1="535.45" y1="484.74" x2="535.45" y2="389.36" fill="none" stroke="#000" stroke-linejoin="bevel" stroke-width="2.48"/><path d="M465.28,159.2c0,4.26,3.07,9.02,11.11,9.02,10.31,0,21.13-8.43,21.13-17.16,0-5.86-4.96-9.13-11.11-9.13-9.63,0-21.13,8.14-21.13,17.27"/><path d="M589.12,122c0,4.26,3.07,9.02,11.11,9.02,10.31,0,21.13-8.43,21.13-17.16,0-5.86-4.96-9.13-11.11-9.13-9.63,0-21.13,8.14-21.13,17.27"/><path d="M647.21,159.2c0,4.26,3.07,9.02,11.11,9.02,10.31,0,21.13-8.43,21.13-17.16,0-5.86-4.96-9.13-11.11-9.13-9.63,0-21.13,8.14-21.13,17.27"/><path d="M705.31,109.6c0,4.26,3.07,9.02,11.11,9.02,10.31,0,21.13-8.43,21.13-17.16,0-5.86-4.96-9.13-11.11-9.13-9.63,0-21.13,8.14-21.13,17.27"/><path d="M763.4,159.2c0,4.26,3.07,9.02,11.11,9.02,10.31,0,21.13-8.43,21.13-17.16,0-5.86-4.96-9.13-11.11-9.13-9.63,0-21.13,8.14-21.13,17.27"/><path d="M821.48,97.2c0,4.26,3.07,9.02,11.11,9.02,10.31,0,21.13-8.43,21.13-17.16,0-5.86-4.96-9.13-11.11-9.13-9.63,0-21.13,8.14-21.13,17.27"/><path d="M879.58,159.2c0,4.26,3.07,9.02,11.11,9.02,10.31,0,21.13-8.43,21.13-17.16,0-5.86-4.96-9.13-11.11-9.13-9.63,0-21.13,8.14-21.13,17.27"/><path d="M937.67,84.8c0,4.26,3.07,9.02,11.11,9.02,10.31,0,21.13-8.43,21.13-17.16,0-5.86-4.96-9.13-11.11-9.13-9.63,0-21.13,8.14-21.13,17.27"/><path d="M995.76,159.2c0,4.26,3.07,9.02,11.11,9.02,10.31,0,21.13-8.43,21.13-17.16,0-5.86-4.96-9.13-11.11-9.13-9.63,0-21.13,8.14-21.13,17.27"/><path d="M1101.89,72.4c0,4.26,3.07,9.02,11.11,9.02,10.31,0,21.13-8.43,21.13-17.16,0-5.86-4.96-9.13-11.11-9.13-9.63,0-21.13,8.14-21.13,17.27"/><path d="M1159.98,159.2c0,4.26,3.07,9.02,11.11,9.02,10.31,0,21.13-8.43,21.13-17.16,0-5.86-4.96-9.13-11.11-9.13-9.63,0-21.13,8.14-21.13,17.27"/><path d="M1218.08,60c0,4.26,3.07,9.02,11.11,9.02,10.31,0,21.13-8.43,21.13-17.16,0-5.86-4.96-9.13-11.11-9.13-9.63,0-21.13,8.14-21.13,17.27"/><path d="M1276.17,159.2c0,4.26,3.07,9.02,11.11,9.02,10.31,0,21.13-8.43,21.13-17.16,0-5.86-4.96-9.13-11.11-9.13-9.63,0-21.13,8.14-21.13,17.27"/><path d="M1334.26,47.6c0,4.26,3.07,9.02,11.11,9.02,10.31,0,21.13-8.43,21.13-17.16,0-5.86-4.96-9.13-11.11-9.13-9.63,0-21.13,8.14-21.13,17.27"/><path d="M1392.35,159.2c0,4.26,3.07,9.02,11.11,9.02,10.31,0,21.13-8.43,21.13-17.16,0-5.86-4.96-9.13-11.11-9.13-9.63,0-21.13,8.14-21.13,17.27"/><path d="M1450.44,35.2c0,4.26,3.07,9.02,11.11,9.02,10.31,0,21.13-8.43,21.13-17.16,0-5.86-4.96-9.13-11.11-9.13-9.63,0-21.13,8.14-21.13,17.27"/><path d="M1508.53,159.2c0,4.26,3.07,9.02,11.11,9.02,10.31,0,21.13-8.43,21.13-17.16,0-5.86-4.96-9.13-11.11-9.13-9.63,0-21.13,8.14-21.13,17.27"/><path d="M1614.67,47.6c0,4.26,3.07,9.02,11.11,9.02,10.31,0,21.13-8.43,21.13-17.16,0-5.86-4.96-9.13-11.11-9.13-9.63,0-21.13,8.14-21.13,17.27"/><path d="M1672.76,159.2c0,4.26,3.07,9.02,11.11,9.02,10.31,0,21.13-8.43,21.13-17.16,0-5.86-4.96-9.13-11.11-9.13-9.63,0-21.13,8.14-21.13,17.27"/><path d="M1730.85,60c0,4.26,3.07,9.02,11.11,9.02,10.31,0,21.13-8.43,21.13-17.16,0-5.86-4.96-9.13-11.11-9.13-9.63,0-21.13,8.14-21.13,17.27"/><path d="M1788.94,159.2c0,4.26,3.07,9.02,11.11,9.02,10.31,0,21.13-8.43,21.13-17.16,0-5.86-4.96-9.13-11.11-9.13-9.63,0-21.13,8.14-21.13,17.27"/><path d="M1847.03,72.4c0,4.26,3.07,9.02,11.11,9.02,10.31,0,21.13-8.43,21.13-17.16,0-5.86-4.96-9.13-11.11-9.13-9.63,0-21.13,8.14-21.13,17.27"/><path d="M1905.12,159.2c0,4.26,3.07,9.02,11.11,9.02,10.31,0,21.13-8.43,21.13-17.16,0-5.86-4.96-9.13-11.11-9.13-9.63,0-21.13,8.14-21.13,17.27"/><path d="M1963.21,84.8c0,4.26,3.07,9.02,11.11,9.02,10.31,0,21.13-8.43,21.13-17.16,0-5.86-4.96-9.13-11.11-9.13-9.63,0-21.13,8.14-21.13,17.27"/><path d="M2021.3,159.2c0,4.26,3.07,9.02,11.11,9.02,10.31,0,21.13-8.43,21.13-17.16,0-5.86-4.96-9.13-11.11-9.13-9.63,0-21.13,8.14-21.13,17.27"/><path d="M247.44,430.88c0,4.26,3.07,9.02,11.11,9.02,10.31,0,21.13-8.43,21.13-17.16,0-5.86-4.96-9.13-11.11-9.13-9.63,0-21.13,8.14-21.13,17.27"/><path d="M333.11,492.88c0,4.26,3.07,9.02,11.11,9.02,10.31,0,21.13-8.43,21.13-17.16,0-5.86-4.96-9.13-11.11-9.13-9.63,0-21.13,8.14-21.13,17.27"/><path d="M418.78,443.28c0,4.26,3.07,9.02,11.11,9.02,10.31,0,21.13-8.43,21.13-17.16,0-5.86-4.96-9.13-11.11-9.13-9.63,0-21.13,8.14-21.13,17.27"/><path d="M504.45,492.88c0,4.26,3.07,9.02,11.11,9.02,10.31,0,21.13-8.43,21.13-17.16,0-5.86-4.96-9.13-11.11-9.13-9.63,0-21.13,8.14-21.13,17.27"/><path d="M590.13,455.68c0,4.26,3.07,9.02,11.11,9.02,10.31,0,21.13-8.43,21.13-17.16,0-5.86-4.96-9.13-11.11-9.13-9.63,0-21.13,8.14-21.13,17.27"/><path d="M675.79,492.88c0,4.26,3.07,9.02,11.11,9.02,10.31,0,21.13-8.43,21.13-17.16,0-5.86-4.96-9.13-11.11-9.13-9.63,0-21.13,8.14-21.13,17.27"/><path d="M761.47,468.08c0,4.26,3.07,9.02,11.11,9.02,10.31,0,21.13-8.43,21.13-17.16,0-5.86-4.96-9.13-11.11-9.13-9.63,0-21.13,8.14-21.13,17.27"/><path d="M847.13,492.88c0,4.26,3.07,9.02,11.11,9.02,10.31,0,21.13-8.43,21.13-17.16,0-5.86-4.96-9.13-11.11-9.13-9.63,0-21.13,8.14-21.13,17.27"/><path d="M969.51,455.68c0,4.26,3.07,9.02,11.11,9.02,10.31,0,21.13-8.43,21.13-17.16,0-5.86-4.96-9.13-11.11-9.13-9.63,0-21.13,8.14-21.13,17.27"/><path d="M1055.18,492.88c0,4.26,3.07,9.02,11.11,9.02,10.31,0,21.13-8.43,21.13-17.16,0-5.86-4.96-9.13-11.11-9.13-9.63,0-21.13,8.14-21.13,17.27"/><path d="M1140.85,430.88c0,4.26,3.07,9.02,11.11,9.02,10.31,0,21.13-8.43,21.13-17.16,0-5.86-4.96-9.13-11.11-9.13-9.63,0-21.13,8.14-21.13,17.27"/><path d="M1226.52,492.88c0,4.26,3.07,9.02,11.11,9.02,10.31,0,21.13-8.43,21.13-17.16,0-5.86-4.96-9.13-11.11-9.13-9.63,0-21.13,8.14-21.13,17.27"/><path d="M1312.19,406.08c0,4.26,3.07,9.02,11.11,9.02,10.31,0,21.13-8.43,21.13-17.16,0-5.86-4.96-9.13-11.11-9.13-9.63,0-21.13,8.14-21.13,17.27"/><path d="M1397.86,492.88c0,4.26,3.07,9.02,11.11,9.02,10.31,0,21.13-8.43,21.13-17.16,0-5.86-4.96-9.13-11.11-9.13-9.63,0-21.13,8.14-21.13,17.27"/><path d="M1483.53,430.88c0,4.26,3.07,9.02,11.11,9.02,10.31,0,21.13-8.43,21.13-17.16,0-5.86-4.96-9.13-11.11-9.13-9.63,0-21.13,8.14-21.13,17.27"/><path d="M1569.2,492.88c0,4.26,3.07,9.02,11.11,9.02,10.31,0,21.13-8.43,21.13-17.16,0-5.86-4.96-9.13-11.11-9.13-9.63,0-21.13,8.14-21.13,17.27"/><path d="M1712.71,438.41c-9.63,0-21.13,8.04-21.13,17.27,0,4.26,3.07,9.02,11.11,9.02,10.31,0,21.13-8.43,21.13-17.16,0-5.86-4.96-9.13-11.11-9.13m-13.69,21.62c-3.27,0-3.97-2.67-3.97-3.57,0-4.87,16.66-13.39,21.33-13.39,2.39,0,3.97,1.4,3.97,3.57,0,4.96-16.77,13.39-21.33,13.39"/><path d="M30.8,181.12c0,6.56,4.96,15.19,18.35,15.19,4.67,0,8.74-1.19,12.31-3.38,5.36-3.77,6.74-10.32,6.74-16.57,0-3.86-.59-8.32-1.58-13.98-.29-1.98-.9-4.96-1.49-8.84,9.72-3.18,16.96-13.3,16.96-23.51,0-14.97-10.62-25.09-25.09-25.09-.99-5.95-1.98-11.81-2.77-17.36,10.42-11.02,17.65-23.42,17.65-39.18,0-9.04-2.77-16.37-4.37-19.95-2.37-5.05-5.25-8.53-7.04-8.53-.7,0-3.77,1.19-7.04,5.05-6.36,7.55-8.14,20.24-8.14,28.57,0,5.36,.5,10.23,2.19,21.34-.11,.09-5.27,5.35-7.35,7.04-9.04,8.34-21.53,20.43-21.53,40.28,0,18.54,16.17,33.12,34.63,33.12,2.87,0,5.55-.29,7.83-.7,1.89,9.53,3.08,16.48,3.08,21.73,0,10.32-5.36,15.78-15.38,15.78-2.39,0-4.46-.5-4.67-.5-.09-.11-.29-.2-.29-.29,0-.2,.2-.31,.5-.31,4.67-.79,9.32-4.76,9.32-11.1,0-5.36-4.06-11.02-11.5-11.02-6.94,0-11.31,5.66-11.31,12.2M51.54,48.68c.9-3.97,5.46-14.38,10.62-14.38,1.49,0,3.86,4.76,3.86,11.7,0,10.32-7.63,18.06-14.48,24.8-.59-3.97-1.08-7.83-1.08-12,0-3.67,.29-7.05,1.08-10.12m8.73,101.97c-1.98,.4-3.86,.6-5.75,.6-14.18,0-26.29-9.92-26.29-24.91,0-12.09,8.53-22.91,17.27-30.46,1.67-1.49,3.27-2.87,4.76-4.36,.88,5.35,1.58,10.01,2.28,14.09-9.04,2.68-15.17,12.2-15.17,21.53,0,6.94,5.46,16.46,13.39,16.46,.79,0,1.69-.4,1.69-1.29s-.99-1.39-2.19-2.19c-3.88-2.39-6.06-4.96-6.06-9.83,0-6.05,4.57-10.91,10.32-12.29l5.75,32.63m14.09-18.35c0,7.05-2.88,14.29-9.92,17.17-2.08-11.9-4.76-27.68-5.46-32.05,8.93,0,15.38,6.06,15.38,14.88"/><path d="M30.8,514.8c0,6.56,4.96,15.19,18.35,15.19,4.67,0,8.74-1.19,12.31-3.38,5.36-3.77,6.74-10.32,6.74-16.57,0-3.86-.59-8.32-1.58-13.98-.29-1.98-.9-4.96-1.49-8.84,9.72-3.18,16.96-13.3,16.96-23.51,0-14.97-10.62-25.09-25.09-25.09-.99-5.95-1.98-11.81-2.77-17.36,10.42-11.02,17.65-23.42,17.65-39.18,0-9.04-2.77-16.37-4.37-19.95-2.37-5.05-5.25-8.53-7.04-8.53-.7,0-3.77,1.19-7.04,5.05-6.36,7.55-8.14,20.24-8.14,28.57,0,5.36,.5,10.23,2.19,21.34-.11,.09-5.27,5.35-7.35,7.04-9.04,8.34-21.53,20.43-21.53,40.28,0,18.54,16.17,33.12,34.63,33.12,2.87,0,5.55-.29,7.83-.7,1.89,9.53,3.08,16.48,3.08,21.73,0,10.32-5.36,15.78-15.38,15.78-2.39,0-4.46-.5-4.67-.5-.09-.11-.29-.2-.29-.29,0-.2,.2-.31,.5-.31,4.67-.79,9.32-4.76,9.32-11.1,0-5.36-4.06-11.02-11.5-11.02-6.94,0-11.31,5.66-11.31,12.2m20.74-132.43c.9-3.97,5.46-14.38,10.62-14.38,1.49,0,3.86,4.76,3.86,11.7,0,10.32-7.63,18.06-14.48,24.8-.59-3.97-1.08-7.83-1.08-12,0-3.67,.29-7.05,1.08-10.12m8.73,101.97c-1.98,.4-3.86,.6-5.75,.6-14.18,0-26.29-9.92-26.29-24.91,0-12.09,8.53-22.91,17.27-30.46,1.67-1.49,3.27-2.87,4.76-4.36,.88,5.35,1.58,10.01,2.28,14.09-9.04,2.68-15.17,12.2-15.17,21.53,0,6.94,5.46,16.46,13.39,16.46,.79,0,1.69-.4,1.69-1.29s-.99-1.39-2.19-2.19c-3.88-2.39-6.06-4.96-6.06-9.83,0-6.05,4.57-10.91,10.32-12.29l5.75,32.63m14.09-18.35c0,7.05-2.88,14.29-9.92,17.17-2.08-11.9-4.76-27.68-5.46-32.05,8.93,0,15.38,6.06,15.38,14.88"/><path d="M129.99,379.09c.6-.09,1.1-.79,1.1-1.4v-5.84c0-.99-.7-1.39-1.6-1.39l-3.27,.7v-14.79h-2.77v15.38l-8.83,1.8v-14h-2.77v14.59l-3.88,.79c-.59,.11-1.09,.79-1.09,1.39v5.75c0,1.09,.79,1.4,1.69,1.4l3.27-.7v16.37l-3.88,.79c-.59,.09-1.09,.79-1.09,1.4v5.75c0,1.09,.79,1.38,1.69,1.38l3.27-.68v14.77h2.77v-15.38l8.83-1.78v14h2.77v-14.59l3.77-.7c.6-.11,1.1-.79,1.1-1.39v-5.84c0-.99-.7-1.4-1.6-1.4l-3.27,.7v-16.37l3.77-.7m-15.38,3.07l8.83-1.78v16.37l-8.83,1.89v-16.48"/><path d="M157.16,416.29c.6-.09,1.1-.79,1.1-1.4v-5.84c0-.99-.7-1.39-1.6-1.39l-3.27,.7v-14.79h-2.77v15.38l-8.83,1.8v-14h-2.77v14.59l-3.88,.79c-.59,.11-1.09,.79-1.09,1.39v5.75c0,1.09,.79,1.4,1.69,1.4l3.27-.7v16.37l-3.88,.79c-.59,.09-1.09,.79-1.09,1.4v5.75c0,1.09,.79,1.38,1.69,1.38l3.27-.68v14.77h2.77v-15.38l8.83-1.78v14h2.77v-14.59l3.77-.7c.6-.11,1.1-.79,1.1-1.39v-5.84c0-.99-.7-1.4-1.6-1.4l-3.27,.7v-16.37l3.77-.7m-15.38,3.07l8.83-1.78v16.37l-8.83,1.89v-16.48"/><path d="M184.33,366.69c.6-.09,1.1-.79,1.1-1.4v-5.84c0-.99-.7-1.39-1.6-1.39l-3.27,.7v-14.79h-2.77v15.38l-8.83,1.8v-14h-2.77v14.59l-3.88,.79c-.59,.11-1.09,.79-1.09,1.39v5.75c0,1.09,.79,1.4,1.69,1.4l3.27-.7v16.37l-3.88,.79c-.59,.09-1.09,.79-1.09,1.4v5.75c0,1.09,.79,1.38,1.69,1.38l3.27-.68v14.77h2.77v-15.38l8.83-1.78v14h2.77v-14.59l3.77-.7c.6-.11,1.1-.79,1.1-1.39v-5.84c0-.99-.7-1.4-1.6-1.4l-3.27,.7v-16.37l3.77-.7m-15.38,3.07l8.83-1.78v16.37l-8.83,1.89v-16.48"/><path d="M129.99,45.41c.6-.09,1.1-.79,1.1-1.4v-5.84c0-.99-.7-1.39-1.6-1.39l-3.27,.7v-14.79h-2.77v15.38l-8.83,1.8v-14h-2.77v14.59l-3.88,.79c-.59,.11-1.09,.79-1.09,1.39v5.75c0,1.09,.79,1.4,1.69,1.4l3.27-.7v16.37l-3.88,.79c-.59,.09-1.09,.79-1.09,1.4v5.75c0,1.09,.79,1.38,1.69,1.38l3.27-.68v14.77h2.77v-15.38l8.83-1.78v14h2.77v-14.59l3.77-.7c.6-.11,1.1-.79,1.1-1.39v-5.84c0-.99-.7-1.4-1.6-1.4l-3.27,.7v-16.37l3.77-.7m-15.38,3.07l8.83-1.78v16.37l-8.83,1.89v-16.48"/><path d="M157.16,82.61c.6-.09,1.1-.79,1.1-1.4v-5.84c0-.99-.7-1.39-1.6-1.39l-3.27,.7v-14.79h-2.77v15.38l-8.83,1.8v-14h-2.77v14.59l-3.88,.79c-.59,.11-1.09,.79-1.09,1.39v5.75c0,1.09,.79,1.4,1.69,1.4l3.27-.7v16.37l-3.88,.79c-.59,.09-1.09,.79-1.09,1.4v5.75c0,1.09,.79,1.38,1.69,1.38l3.27-.68v14.77h2.77v-15.38l8.83-1.78v14h2.77v-14.59l3.77-.7c.6-.11,1.1-.79,1.1-1.39v-5.84c0-.99-.7-1.4-1.6-1.4l-3.27,.7v-16.37l3.77-.7m-15.38,3.07l8.83-1.78v16.37l-8.83,1.89v-16.48"/><path d="M184.33,33.01c.6-.09,1.1-.79,1.1-1.4v-5.84c0-.99-.7-1.39-1.6-1.39l-3.27,.7V10.29h-2.77v15.38l-8.83,1.8V13.47h-2.77v14.59l-3.88,.79c-.59,.11-1.09,.79-1.09,1.39v5.75c0,1.09,.79,1.4,1.69,1.4l3.27-.7v16.37l-3.88,.79c-.59,.09-1.09,.79-1.09,1.4v5.75c0,1.09,.79,1.38,1.69,1.38l3.27-.68v14.77h2.77v-15.38l8.83-1.78v14h2.77v-14.59l3.77-.7c.6-.11,1.1-.79,1.1-1.39v-5.84c0-.99-.7-1.4-1.6-1.4l-3.27,.7v-16.37l3.77-.7m-15.38,3.07l8.83-1.78v16.37l-8.83,1.89v-16.48"/><path d="M247.44,104.44q0,1.4,1.4,1.4h29.47q1.38,0,1.38-1.4v-10.71q0-1.39-1.38-1.39h-29.47q-1.4,0-1.4,1.39v10.71"/><path d="M400.96,121.89c-.09-.09-.29-.29-.59-.68l-11.41-14.09c-.11-.11-.2-.4-.2-.6,0-.29,.09-.68,.2-.88l10.11-15.28c.11-.2,.2-.5,.2-.7v-.88c0-.29-.09-.6-.29-.79l-16.07-21.73s-.39-.6-.99-.6c-.29,0-.5,0-.79,.31-.4,.29-.5,.68-.5,.99,0,.59,.29,1.09,.29,1.09l7.55,10.32c.19,.29,.29,.68,.29,1.18,0,.4-.11,.9-.29,1.19l-10.03,15.28c-.09,.2-.2,.59-.2,.79v.9c0,.29,.11,.59,.31,.79l11.1,13.8c-.39-.11-1.29-.31-2.48-.31-5.05,0-9.02,4.17-9.02,9.24,0,1.38,.29,2.77,1.09,3.86,2.09,3.18,9.53,12.6,9.53,12.6,0,0,.5,.6,1.19,.6,.19,0,.39,0,.59-.2,.5-.4,.7-.79,.7-1.19s-.2-.7-.29-.9c-.31-.5-3.47-6.25-3.47-6.25,0,0-.7-1.39-.7-3.18,0-3.18,2.37-5.75,5.55-5.75,1.29,0,2.39,.4,3.18,.9l3.88,2.48s.39,.19,.79,.19,.7-.09,.99-.5c.2-.29,.29-.59,.29-.88s-.09-.5-.29-.79l-.2-.31"/><path d="M1884.34,438.12q0,1.4,1.4,1.4h29.47q1.38,0,1.38-1.4v-10.71q0-1.39-1.38-1.39h-29.47q-1.4,0-1.4,1.39v10.71"/><path d="M1730.42,335.2c-9.32-10.12-17.56-10.71-22.71-10.71s-13.3,.59-22.63,10.71c-4.85,5.36-8.23,15.97-8.23,21.33,0,1.89,.4,3.18,1.4,3.18,2.77,0,1.38-8.54,9.72-16.97,7.33-7.33,17.16-7.44,19.55-7.44h.39c2.39,0,12.21,.11,19.55,7.44,8.34,8.43,6.94,16.97,9.72,16.97,.99,0,1.39-1.19,1.39-3.18,0-5.36-3.27-16.07-8.14-21.33m-29.56,18.94c0,3.78,3.07,6.85,6.85,6.85s6.84-3.07,6.84-6.85-3.07-6.84-6.84-6.84-6.85,3.07-6.85,6.84"/><path d="M277.19,352.27l259.49,31v12.48l-259.49-31v-12.48" fill-rule="evenodd"/><path d="M618.88,31.03h176.76v12.4h-176.76v-12.4" fill-rule="evenodd"/><path d="M619.88,377.1l259.49,12.4v12.42l-259.49-12.4v-12.42" fill-rule="evenodd"/><path d="M1101.89,210.83h176.76v12.4h-176.76v-12.4" fill-rule="evenodd"/><path d="M1341.94,333.67l259.49,31v12.48l-259.49-31v-12.48" fill-rule="evenodd"/><path d="M1876.78,0l176.75,18.6v12.46l-176.75-18.6V0" fill-rule="evenodd"/><path d="M1334.26,210.83h176.75v12.4h-176.75v-12.4" fill-rule="evenodd"/><path d="M1614.67,210.83h176.75v12.4h-176.75v-12.4" fill-rule="evenodd"/><path d="M999.26,352.31h259.49v12.4h-259.49v-12.4" fill-rule="evenodd"/><path d="M851.24,12.43h176.75v12.4h-176.75V12.43" fill-rule="evenodd"/></g></svg>