<?xml version="1.0" encoding="UTF-8"?><svg id="b" xmlns="http://www.w3.org/2000/svg" viewBox="0 0 2095.2 542.36"><g id="c"><line y1="68.2" x2="2095.2" y2="68.2" fill="none" stroke="#000" stroke-linejoin="bevel" stroke-width="2.73"/><line y1="93" x2="2095.2" y2="93" fill="none" stroke="#000" stroke-linejoin="bevel" stroke-width="2.73"/><line y1="117.8" x2="2095.2" y2="117.8" fill="none" stroke="#000" stroke-linejoin="bevel" stroke-width="2.73"/><line y1="142.6" x2="2095.2" y2="142.6" fill="none" stroke="#000" stroke-linejoin="bevel" stroke-width="2.73"/><line y1="167.4" x2="2095.2" y2="167.4" fill="none" stroke="#000" stroke-linejoin="bevel" stroke-width="2.73"/><line y1="401.88" x2="2095.2" y2="401.88" fill="none" stroke="#000" stroke-linejoin="bevel" stroke-width="2.73"/><line y1="426.68" x2="2095.2" y2="426.68" fill="none" stroke="#000" stroke-linejoin="bevel" stroke-width="2.73"/><line y1="451.48" x2="2095.2" y2="451.48" fill="none" stroke="#000" stroke-linejoin="bevel" stroke-width="2.73"/><line y1="476.28" x2="2095.2" y2="476.28" fill="none" stroke="#000" stroke-linejoin="bevel" stroke-width="2.73"/><line y1="501.08" x2="2095.2" y2="501.08" fill="none" stroke="#000" stroke-linejoin="bevel" stroke-width="2.73"/><line x1="1036.26" y1="66.84" x2="1036.26" y2="168.76" fill="none" stroke="#000" stroke-linejoin="bevel" stroke-width="4.46"/><line x1="1644.28" y1="400.52" x2="1644.28" y2="502.44" fill="none" stroke="#000" stroke-linejoin="bevel" stroke-width="4.46"/><line x1="899.41" y1="400.52" x2="899.41" y2="502.44" fill="none" stroke="#000" stroke-linejoin="bevel" stroke-width="4.46"/><line x1="2079.33" y1="400.52" x2="2079.33" y2="502.44" fill="none" stroke="#000" stroke-linejoin="bevel" stroke-width="4.46"/><line x1="2092.97" y1="400.52" x2="2092.97" y2="502.44" fill="none" stroke="#000" stroke-linejoin="bevel" stroke-width="4.46"/><line x1="2092.97" y1="66.84" x2="2092.97" y2="168.76" fill="none" stroke="#000" stroke-linejoin="bevel" stroke-width="4.46"/><line x1="1564.61" y1="66.84" x2="1564.61" y2="168.76" fill="none" stroke="#000" stroke-linejoin="bevel" stroke-width="4.46"/><line x1="507.91" y1="66.84" x2="507.91" y2="168.76" fill="none" stroke="#000" stroke-linejoin="bevel" stroke-width="4.46"/><line x1="956.41" y1="192.2" x2="1005.01" y2="192.2" fill="none" stroke="#000" stroke-linejoin="bevel" stroke-width="3.97"/><line x1="1771.85" y1="192.2" x2="1820.45" y2="192.2" fill="none" stroke="#000" stroke-linejoin="bevel" stroke-width="3.97"/><line x1="407.02" y1="192.2" x2="455.62" y2="192.2" fill="none" stroke="#000" stroke-linejoin="bevel" stroke-width="3.97"/><line x1="1651.22" y1="192.2" x2="1699.82" y2="192.2" fill="none" stroke="#000" stroke-linejoin="bevel" stroke-width="3.97"/><line x1="1364.13" y1="192.2" x2="1412.73" y2="192.2" fill="none" stroke="#000" stroke-linejoin="bevel" stroke-width="3.97"/><line x1="1484.77" y1="192.2" x2="1533.37" y2="192.2" fill="none" stroke="#000" stroke-linejoin="bevel" stroke-width="3.97"/><line x1="594.51" y1="192.2" x2="643.12" y2="192.2" fill="none" stroke="#000" stroke-linejoin="bevel" stroke-width="3.97"/><line x1="1892.48" y1="192.2" x2="1941.09" y2="192.2" fill="none" stroke="#000" stroke-linejoin="bevel" stroke-width="3.97"/><line x1="2013.12" y1="192.2" x2="2061.72" y2="192.2" fill="none" stroke="#000" stroke-linejoin="bevel" stroke-width="3.97"/><line x1="269.35" y1="525.88" x2="317.95" y2="525.88" fill="none" stroke="#000" stroke-linejoin="bevel" stroke-width="3.97"/><line x1="446.39" y1="525.88" x2="494.99" y2="525.88" fill="none" stroke="#000" stroke-linejoin="bevel" stroke-width="3.97"/><line x1="623.43" y1="525.88" x2="672.03" y2="525.88" fill="none" stroke="#000" stroke-linejoin="bevel" stroke-width="3.97"/><line x1="800.47" y1="525.88" x2="849.07" y2="525.88" fill="none" stroke="#000" stroke-linejoin="bevel" stroke-width="3.97"/><line x1="1014.22" y1="525.88" x2="1062.82" y2="525.88" fill="none" stroke="#000" stroke-linejoin="bevel" stroke-width="3.97"/><line x1="1191.26" y1="525.88" x2="1239.86" y2="525.88" fill="none" stroke="#000" stroke-linejoin="bevel" stroke-width="3.97"/><line x1="1368.3" y1="525.88" x2="1416.9" y2="525.88" fill="none" stroke="#000" stroke-linejoin="bevel" stroke-width="3.97"/><line x1="1545.34" y1="525.88" x2="1593.94" y2="525.88" fill="none" stroke="#000" stroke-linejoin="bevel" stroke-width="3.97"/><line x1="1243.5" y1="192.2" x2="1292.1" y2="192.2" fill="none" stroke="#000" stroke-linejoin="bevel" stroke-width="3.97"/><line x1="835.78" y1="192.2" x2="884.38" y2="192.2" fill="none" stroke="#000" stroke-linejoin="bevel" stroke-width="3.97"/><line x1="715.15" y1="192.2" x2="763.75" y2="192.2" fill="none" stroke="#000" stroke-linejoin="bevel" stroke-width="3.97"/><line x1="1122.87" y1="192.2" x2="1171.47" y2="192.2" fill="none" stroke="#000" stroke-linejoin="bevel" stroke-width="3.97"/><line x1="1282.67" y1="188.23" x2="1282.67" y2="31" fill="none" stroke="#000" stroke-linejoin="bevel" stroke-width="2.48"/><line x1="1222.36" y1="89.03" x2="1222.36" y2="31" fill="none" stroke="#000" stroke-linejoin="bevel" stroke-width="2.48"/><line x1="1162.04" y1="188.23" x2="1162.04" y2="31" fill="none" stroke="#000" stroke-linejoin="bevel" stroke-width="2.48"/><line x1="1101.72" y1="101.43" x2="1101.72" y2="31" fill="none" stroke="#000" stroke-linejoin="bevel" stroke-width="2.48"/><line x1="995.59" y1="188.23" x2="995.59" y2="49.6" fill="none" stroke="#000" stroke-linejoin="bevel" stroke-width="2.48"/><line x1="935.27" y1="113.83" x2="935.27" y2="49.6" fill="none" stroke="#000" stroke-linejoin="bevel" stroke-width="2.48"/><line x1="874.96" y1="188.23" x2="874.96" y2="49.6" fill="none" stroke="#000" stroke-linejoin="bevel" stroke-width="2.48"/><line x1="814.64" y1="126.23" x2="814.64" y2="49.6" fill="none" stroke="#000" stroke-linejoin="bevel" stroke-width="2.48"/><line x1="1871.34" y1="101.43" x2="1871.34" y2="37.33" fill="none" stroke="#000" stroke-linejoin="bevel" stroke-width="2.48"/><line x1="1811.03" y1="188.23" x2="1811.03" y2="37.07" fill="none" stroke="#000" stroke-linejoin="bevel" stroke-width="2.48"/><line x1="1750.71" y1="89.03" x2="1750.71" y2="30.96" fill="none" stroke="#000" stroke-linejoin="bevel" stroke-width="2.48"/><line x1="446.2" y1="188.23" x2="446.2" y2="105.4" fill="none" stroke="#000" stroke-linejoin="bevel" stroke-width="2.48"/><line x1="754.32" y1="188.23" x2="754.32" y2="68.2" fill="none" stroke="#000" stroke-linejoin="bevel" stroke-width="2.48"/><line x1="1630.08" y1="76.63" x2="1630.08" y2="18.73" fill="none" stroke="#000" stroke-linejoin="bevel" stroke-width="2.48"/><line x1="694.01" y1="138.63" x2="694.01" y2="68.2" fill="none" stroke="#000" stroke-linejoin="bevel" stroke-width="2.48"/><line x1="633.69" y1="188.23" x2="633.69" y2="68.2" fill="none" stroke="#000" stroke-linejoin="bevel" stroke-width="2.48"/><line x1="1931.66" y1="188.23" x2="1931.66" y2="43.44" fill="none" stroke="#000" stroke-linejoin="bevel" stroke-width="2.48"/><line x1="1991.98" y1="113.83" x2="1991.98" y2="49.56" fill="none" stroke="#000" stroke-linejoin="bevel" stroke-width="2.48"/><line x1="2052.29" y1="188.23" x2="2052.29" y2="55.67" fill="none" stroke="#000" stroke-linejoin="bevel" stroke-width="2.48"/><line x1="220.01" y1="459.91" x2="220.01" y2="395.82" fill="none" stroke="#000" stroke-linejoin="bevel" stroke-width="2.48"/><line x1="308.53" y1="521.91" x2="308.53" y2="406.06" fill="none" stroke="#000" stroke-linejoin="bevel" stroke-width="2.48"/><line x1="397.05" y1="472.31" x2="397.05" y2="416.3" fill="none" stroke="#000" stroke-linejoin="bevel" stroke-width="2.48"/><line x1="485.57" y1="521.91" x2="485.57" y2="426.54" fill="none" stroke="#000" stroke-linejoin="bevel" stroke-width="2.48"/><line x1="574.09" y1="484.71" x2="574.09" y2="420.54" fill="none" stroke="#000" stroke-linejoin="bevel" stroke-width="2.48"/><line x1="662.61" y1="521.91" x2="662.61" y2="424.63" fill="none" stroke="#000" stroke-linejoin="bevel" stroke-width="2.48"/><line x1="751.13" y1="497.11" x2="751.13" y2="428.73" fill="none" stroke="#000" stroke-linejoin="bevel" stroke-width="2.48"/><line x1="839.65" y1="521.91" x2="839.65" y2="432.82" fill="none" stroke="#000" stroke-linejoin="bevel" stroke-width="2.48"/><line x1="964.87" y1="484.71" x2="964.87" y2="395.68" fill="none" stroke="#000" stroke-linejoin="bevel" stroke-width="2.48"/><line x1="1053.4" y1="521.91" x2="1053.4" y2="395.68" fill="none" stroke="#000" stroke-linejoin="bevel" stroke-width="2.48"/><line x1="1141.92" y1="459.91" x2="1141.92" y2="395.68" fill="none" stroke="#000" stroke-linejoin="bevel" stroke-width="2.48"/><line x1="573.37" y1="151.03" x2="573.37" y2="68.2" fill="none" stroke="#000" stroke-linejoin="bevel" stroke-width="2.48"/><line x1="1318.96" y1="435.11" x2="1318.96" y2="371.02" fill="none" stroke="#000" stroke-linejoin="bevel" stroke-width="2.48"/><line x1="1407.48" y1="521.91" x2="1407.48" y2="381.26" fill="none" stroke="#000" stroke-linejoin="bevel" stroke-width="2.48"/><line x1="1496" y1="459.91" x2="1496" y2="391.5" fill="none" stroke="#000" stroke-linejoin="bevel" stroke-width="2.48"/><line x1="1584.52" y1="521.91" x2="1584.52" y2="401.74" fill="none" stroke="#000" stroke-linejoin="bevel" stroke-width="2.48"/><line x1="1709.74" y1="484.71" x2="1709.74" y2="401.88" fill="none" stroke="#000" stroke-linejoin="bevel" stroke-width="2.48"/><line x1="1690.39" y1="188.23" x2="1690.39" y2="24.84" fill="none" stroke="#000" stroke-linejoin="bevel" stroke-width="2.48"/><line x1="1523.94" y1="188.23" x2="1523.94" y2="6.2" fill="none" stroke="#000" stroke-linejoin="bevel" stroke-width="2.48"/><line x1="1463.62" y1="64.23" x2="1463.62" y2="6.2" fill="none" stroke="#000" stroke-linejoin="bevel" stroke-width="2.48"/><line x1="1230.44" y1="521.91" x2="1230.44" y2="395.68" fill="none" stroke="#000" stroke-linejoin="bevel" stroke-width="2.48"/><line x1="1403.31" y1="188.23" x2="1403.31" y2="6.2" fill="none" stroke="#000" stroke-linejoin="bevel" stroke-width="2.48"/><line x1="1342.99" y1="76.63" x2="1342.99" y2="6.2" fill="none" stroke="#000" stroke-linejoin="bevel" stroke-width="2.48"/><path d="M1492.95,196.37c0,4.26,3.07,9.02,11.11,9.02,10.31,0,21.13-8.43,21.13-17.16,0-5.86-4.96-9.13-11.11-9.13-9.63,0-21.13,8.14-21.13,17.27"/><path d="M1599.09,84.77c0,4.26,3.07,9.02,11.11,9.02,10.31,0,21.13-8.43,21.13-17.16,0-5.86-4.96-9.13-11.11-9.13-9.63,0-21.13,8.14-21.13,17.27"/><path d="M1659.4,196.37c0,4.26,3.07,9.02,11.11,9.02,10.31,0,21.13-8.43,21.13-17.16,0-5.86-4.96-9.13-11.11-9.13-9.63,0-21.13,8.14-21.13,17.27"/><path d="M1719.72,97.17c0,4.26,3.07,9.02,11.11,9.02,10.31,0,21.13-8.43,21.13-17.16,0-5.86-4.96-9.13-11.11-9.13-9.63,0-21.13,8.14-21.13,17.27"/><path d="M1780.04,196.37c0,4.26,3.07,9.02,11.11,9.02,10.31,0,21.13-8.43,21.13-17.16,0-5.86-4.96-9.13-11.11-9.13-9.63,0-21.13,8.14-21.13,17.27"/><path d="M1840.35,109.57c0,4.26,3.07,9.02,11.11,9.02,10.31,0,21.13-8.43,21.13-17.16,0-5.86-4.96-9.13-11.11-9.13-9.63,0-21.13,8.14-21.13,17.27"/><path d="M1900.67,196.37c0,4.26,3.07,9.02,11.11,9.02,10.31,0,21.13-8.43,21.13-17.16,0-5.86-4.96-9.13-11.11-9.13-9.63,0-21.13,8.14-21.13,17.27"/><path d="M1960.99,121.97c0,4.26,3.07,9.02,11.11,9.02,10.31,0,21.13-8.43,21.13-17.16,0-5.86-4.96-9.13-11.11-9.13-9.63,0-21.13,8.14-21.13,17.27"/><path d="M2021.3,196.37c0,4.26,3.07,9.02,11.11,9.02,10.31,0,21.13-8.43,21.13-17.16,0-5.86-4.96-9.13-11.11-9.13-9.63,0-21.13,8.14-21.13,17.27"/><path d="M189.01,468.05c0,4.26,3.07,9.02,11.11,9.02,10.31,0,21.13-8.43,21.13-17.16,0-5.86-4.96-9.13-11.11-9.13-9.63,0-21.13,8.14-21.13,17.27"/><path d="M277.54,530.05c0,4.26,3.07,9.02,11.11,9.02,10.31,0,21.13-8.43,21.13-17.16,0-5.86-4.96-9.13-11.11-9.13-9.63,0-21.13,8.14-21.13,17.27"/><path d="M366.06,480.45c0,4.26,3.07,9.02,11.11,9.02,10.31,0,21.13-8.43,21.13-17.16,0-5.86-4.96-9.13-11.11-9.13-9.63,0-21.13,8.14-21.13,17.27"/><path d="M454.58,530.05c0,4.26,3.07,9.02,11.11,9.02,10.31,0,21.13-8.43,21.13-17.16,0-5.86-4.96-9.13-11.11-9.13-9.63,0-21.13,8.14-21.13,17.27"/><path d="M543.1,492.85c0,4.26,3.07,9.02,11.11,9.02,10.31,0,21.13-8.43,21.13-17.16,0-5.86-4.96-9.13-11.11-9.13-9.63,0-21.13,8.14-21.13,17.27"/><path d="M631.62,530.05c0,4.26,3.07,9.02,11.11,9.02,10.31,0,21.13-8.43,21.13-17.16,0-5.86-4.96-9.13-11.11-9.13-9.63,0-21.13,8.14-21.13,17.27"/><path d="M720.14,505.25c0,4.26,3.07,9.02,11.11,9.02,10.31,0,21.13-8.43,21.13-17.16,0-5.86-4.96-9.13-11.11-9.13-9.63,0-21.13,8.14-21.13,17.27"/><path d="M808.66,530.05c0,4.26,3.07,9.02,11.11,9.02,10.31,0,21.13-8.43,21.13-17.16,0-5.86-4.96-9.13-11.11-9.13-9.63,0-21.13,8.14-21.13,17.27"/><path d="M933.88,492.85c0,4.26,3.07,9.02,11.11,9.02,10.31,0,21.13-8.43,21.13-17.16,0-5.86-4.96-9.13-11.11-9.13-9.63,0-21.13,8.14-21.13,17.27"/><path d="M1022.4,530.05c0,4.26,3.07,9.02,11.11,9.02,10.31,0,21.13-8.43,21.13-17.16,0-5.86-4.96-9.13-11.11-9.13-9.63,0-21.13,8.14-21.13,17.27"/><path d="M1110.92,468.05c0,4.26,3.07,9.02,11.11,9.02,10.31,0,21.13-8.43,21.13-17.16,0-5.86-4.96-9.13-11.11-9.13-9.63,0-21.13,8.14-21.13,17.27"/><path d="M1199.44,530.05c0,4.26,3.07,9.02,11.11,9.02,10.31,0,21.13-8.43,21.13-17.16,0-5.86-4.96-9.13-11.11-9.13-9.63,0-21.13,8.14-21.13,17.27"/><path d="M1287.96,443.25c0,4.26,3.07,9.02,11.11,9.02,10.31,0,21.13-8.43,21.13-17.16,0-5.86-4.96-9.13-11.11-9.13-9.63,0-21.13,8.14-21.13,17.27"/><path d="M1376.49,530.05c0,4.26,3.07,9.02,11.11,9.02,10.31,0,21.13-8.43,21.13-17.16,0-5.86-4.96-9.13-11.11-9.13-9.63,0-21.13,8.14-21.13,17.27"/><path d="M1465.01,468.05c0,4.26,3.07,9.02,11.11,9.02,10.31,0,21.13-8.43,21.13-17.16,0-5.86-4.96-9.13-11.11-9.13-9.63,0-21.13,8.14-21.13,17.27"/><path d="M1553.53,530.05c0,4.26,3.07,9.02,11.11,9.02,10.31,0,21.13-8.43,21.13-17.16,0-5.86-4.96-9.13-11.11-9.13-9.63,0-21.13,8.14-21.13,17.27"/><path d="M1699.88,475.58c-9.63,0-21.13,8.04-21.13,17.27,0,4.26,3.07,9.02,11.11,9.02,10.31,0,21.13-8.43,21.13-17.16,0-5.86-4.96-9.13-11.11-9.13m-13.69,21.62c-3.27,0-3.97-2.67-3.97-3.57,0-4.87,16.66-13.39,21.33-13.39,2.39,0,3.97,1.4,3.97,3.57,0,4.96-16.77,13.39-21.33,13.39"/><path d="M415.2,196.37c0,4.26,3.07,9.02,11.11,9.02,10.31,0,21.13-8.43,21.13-17.16,0-5.86-4.96-9.13-11.11-9.13-9.63,0-21.13,8.14-21.13,17.27"/><path d="M542.38,159.17c0,4.26,3.07,9.02,11.11,9.02,10.31,0,21.13-8.43,21.13-17.16,0-5.86-4.96-9.13-11.11-9.13-9.63,0-21.13,8.14-21.13,17.27"/><path d="M602.7,196.37c0,4.26,3.07,9.02,11.11,9.02,10.31,0,21.13-8.43,21.13-17.16,0-5.86-4.96-9.13-11.11-9.13-9.63,0-21.13,8.14-21.13,17.27"/><path d="M663.01,146.77c0,4.26,3.07,9.02,11.11,9.02,10.31,0,21.13-8.43,21.13-17.16,0-5.86-4.96-9.13-11.11-9.13-9.63,0-21.13,8.14-21.13,17.27"/><path d="M723.33,196.37c0,4.26,3.07,9.02,11.11,9.02,10.31,0,21.13-8.43,21.13-17.16,0-5.86-4.96-9.13-11.11-9.13-9.63,0-21.13,8.14-21.13,17.27"/><path d="M783.65,134.37c0,4.26,3.07,9.02,11.11,9.02,10.31,0,21.13-8.43,21.13-17.16,0-5.86-4.96-9.13-11.11-9.13-9.63,0-21.13,8.14-21.13,17.27"/><path d="M843.96,196.37c0,4.26,3.07,9.02,11.11,9.02,10.31,0,21.13-8.43,21.13-17.16,0-5.86-4.96-9.13-11.11-9.13-9.63,0-21.13,8.14-21.13,17.27"/><path d="M904.28,121.97c0,4.26,3.07,9.02,11.11,9.02,10.31,0,21.13-8.43,21.13-17.16,0-5.86-4.96-9.13-11.11-9.13-9.63,0-21.13,8.14-21.13,17.27"/><path d="M964.6,196.37c0,4.26,3.07,9.02,11.11,9.02,10.31,0,21.13-8.43,21.13-17.16,0-5.86-4.96-9.13-11.11-9.13-9.63,0-21.13,8.14-21.13,17.27"/><path d="M1070.73,109.57c0,4.26,3.07,9.02,11.11,9.02,10.31,0,21.13-8.43,21.13-17.16,0-5.86-4.96-9.13-11.11-9.13-9.63,0-21.13,8.14-21.13,17.27"/><path d="M1131.05,196.37c0,4.26,3.07,9.02,11.11,9.02,10.31,0,21.13-8.43,21.13-17.16,0-5.86-4.96-9.13-11.11-9.13-9.63,0-21.13,8.14-21.13,17.27"/><path d="M1191.37,97.17c0,4.26,3.07,9.02,11.11,9.02,10.31,0,21.13-8.43,21.13-17.16,0-5.86-4.96-9.13-11.11-9.13-9.63,0-21.13,8.14-21.13,17.27"/><path d="M1251.68,196.37c0,4.26,3.07,9.02,11.11,9.02,10.31,0,21.13-8.43,21.13-17.16,0-5.86-4.96-9.13-11.11-9.13-9.63,0-21.13,8.14-21.13,17.27"/><path d="M1312,84.77c0,4.26,3.07,9.02,11.11,9.02,10.31,0,21.13-8.43,21.13-17.16,0-5.86-4.96-9.13-11.11-9.13-9.63,0-21.13,8.14-21.13,17.27"/><path d="M1372.32,196.37c0,4.26,3.07,9.02,11.11,9.02,10.31,0,21.13-8.43,21.13-17.16,0-5.86-4.96-9.13-11.11-9.13-9.63,0-21.13,8.14-21.13,17.27"/><path d="M1432.63,72.37c0,4.26,3.07,9.02,11.11,9.02,10.31,0,21.13-8.43,21.13-17.16,0-5.86-4.96-9.13-11.11-9.13-9.63,0-21.13,8.14-21.13,17.27"/><path d="M30.8,527.17c0,6.56,4.96,15.19,18.35,15.19,4.67,0,8.74-1.19,12.31-3.38,5.36-3.77,6.74-10.32,6.74-16.57,0-3.86-.59-8.32-1.58-13.98-.29-1.98-.9-4.96-1.49-8.84,9.72-3.18,16.96-13.3,16.96-23.51,0-14.97-10.62-25.09-25.09-25.09-.99-5.95-1.98-11.81-2.77-17.36,10.42-11.02,17.65-23.42,17.65-39.18,0-9.04-2.77-16.37-4.37-19.95-2.37-5.05-5.25-8.53-7.04-8.53-.7,0-3.77,1.19-7.04,5.05-6.36,7.55-8.14,20.24-8.14,28.57,0,5.36,.5,10.23,2.19,21.34-.11,.09-5.27,5.35-7.35,7.04-9.04,8.34-21.53,20.43-21.53,40.28,0,18.54,16.17,33.12,34.63,33.12,2.87,0,5.55-.29,7.83-.7,1.89,9.53,3.08,16.48,3.08,21.73,0,10.32-5.36,15.78-15.38,15.78-2.39,0-4.46-.5-4.67-.5-.09-.11-.29-.2-.29-.29,0-.2,.2-.31,.5-.31,4.67-.79,9.32-4.76,9.32-11.1,0-5.36-4.06-11.02-11.5-11.02-6.94,0-11.31,5.66-11.31,12.2m20.74-132.43c.9-3.97,5.46-14.38,10.62-14.38,1.49,0,3.86,4.76,3.86,11.7,0,10.32-7.63,18.06-14.48,24.8-.59-3.97-1.08-7.83-1.08-12,0-3.67,.29-7.05,1.08-10.12m8.73,101.97c-1.98,.4-3.86,.6-5.75,.6-14.18,0-26.29-9.92-26.29-24.91,0-12.09,8.53-22.91,17.27-30.46,1.67-1.49,3.27-2.87,4.76-4.36,.88,5.35,1.58,10.01,2.28,14.09-9.04,2.68-15.17,12.2-15.17,21.53,0,6.94,5.46,16.46,13.39,16.46,.79,0,1.69-.4,1.69-1.29s-.99-1.39-2.19-2.19c-3.88-2.39-6.06-4.96-6.06-9.83,0-6.05,4.57-10.91,10.32-12.29l5.75,32.63m14.09-18.35c0,7.05-2.88,14.29-9.92,17.17-2.08-11.9-4.76-27.68-5.46-32.05,8.93,0,15.38,6.06,15.38,14.88"/><path d="M30.8,193.49c0,6.56,4.96,15.19,18.35,15.19,4.67,0,8.74-1.19,12.31-3.38,5.36-3.77,6.74-10.32,6.74-16.57,0-3.86-.59-8.32-1.58-13.98-.29-1.98-.9-4.96-1.49-8.84,9.72-3.18,16.96-13.3,16.96-23.51,0-14.97-10.62-25.09-25.09-25.09-.99-5.95-1.98-11.81-2.77-17.36,10.42-11.02,17.65-23.42,17.65-39.18,0-9.04-2.77-16.37-4.37-19.95-2.37-5.05-5.25-8.53-7.04-8.53-.7,0-3.77,1.19-7.04,5.05-6.36,7.55-8.14,20.24-8.14,28.57,0,5.36,.5,10.23,2.19,21.34-.11,.09-5.27,5.35-7.35,7.04-9.04,8.34-21.53,20.43-21.53,40.28,0,18.54,16.17,33.12,34.63,33.12,2.87,0,5.55-.29,7.83-.7,1.89,9.53,3.08,16.48,3.08,21.73,0,10.32-5.36,15.78-15.38,15.78-2.39,0-4.46-.5-4.67-.5-.09-.11-.29-.2-.29-.29,0-.2,.2-.31,.5-.31,4.67-.79,9.32-4.76,9.32-11.1,0-5.36-4.06-11.02-11.5-11.02-6.94,0-11.31,5.66-11.31,12.2M51.54,61.05c.9-3.97,5.46-14.38,10.62-14.38,1.49,0,3.86,4.76,3.86,11.7,0,10.32-7.63,18.06-14.48,24.8-.59-3.97-1.08-7.83-1.08-12,0-3.67,.29-7.05,1.08-10.12m8.73,101.97c-1.98,.4-3.86,.6-5.75,.6-14.18,0-26.29-9.92-26.29-24.91,0-12.09,8.53-22.91,17.27-30.46,1.67-1.49,3.27-2.87,4.76-4.36,.88,5.35,1.58,10.01,2.28,14.09-9.04,2.68-15.17,12.2-15.17,21.53,0,6.94,5.46,16.46,13.39,16.46,.79,0,1.69-.4,1.69-1.29s-.99-1.39-2.19-2.19c-3.88-2.39-6.06-4.96-6.06-9.83,0-6.05,4.57-10.91,10.32-12.29l5.75,32.63m14.09-18.35c0,7.05-2.88,14.29-9.92,17.17-2.08-11.9-4.76-27.68-5.46-32.05,8.93,0,15.38,6.06,15.38,14.88"/><path d="M118.79,436.1c-4.96,0-7.84,3.07-8.34,3.67l.4-31.85c0-.79-.59-1.38-1.4-1.38h-1.18c-.81,0-1.4,.59-1.4,1.38l.5,59.63c0,.79,.59,1.38,1.4,1.38,.19,0,.59-.09,.79-.19,8.53-4.28,17.45-12.4,17.45-22.63,0-5.15-2.37-10.01-8.23-10.01m-8.63,27.98l.29-19.34c.2-.9,1.69-3.77,5.66-3.77,3.58,0,3.87,3.36,3.87,5.46,0,8.82-3.27,12.49-9.83,17.65"/><path d="M118.79,102.42c-4.96,0-7.84,3.07-8.34,3.67l.4-31.85c0-.79-.59-1.38-1.4-1.38h-1.18c-.81,0-1.4,.59-1.4,1.38l.5,59.63c0,.79,.59,1.38,1.4,1.38,.19,0,.59-.09,.79-.19,8.53-4.28,17.45-12.4,17.45-22.63,0-5.15-2.37-10.01-8.23-10.01m-8.63,27.98l.29-19.34c.2-.9,1.69-3.77,5.66-3.77,3.58,0,3.87,3.36,3.87,5.46,0,8.82-3.27,12.49-9.83,17.65"/><path d="M1877.92,450.49q0,1.4,1.4,1.4h29.47q1.38,0,1.38-1.4v-10.71q0-1.39-1.38-1.39h-29.47q-1.4,0-1.4,1.39v10.71"/><path d="M189.01,116.81q0,1.4,1.4,1.4h29.47q1.38,0,1.38-1.4v-10.71q0-1.39-1.38-1.39h-29.47q-1.4,0-1.4,1.39v10.71"/><path d="M347.54,134.26c-.09-.09-.29-.29-.59-.68l-11.41-14.09c-.11-.11-.2-.4-.2-.6,0-.29,.09-.68,.2-.88l10.11-15.28c.11-.2,.2-.5,.2-.7v-.88c0-.29-.09-.6-.29-.79l-16.07-21.73s-.39-.6-.99-.6c-.29,0-.5,0-.79,.31-.4,.29-.5,.68-.5,.99,0,.59,.29,1.09,.29,1.09l7.55,10.32c.19,.29,.29,.68,.29,1.18,0,.4-.11,.9-.29,1.19l-10.03,15.28c-.09,.2-.2,.59-.2,.79v.9c0,.29,.11,.59,.31,.79l11.1,13.8c-.39-.11-1.29-.31-2.48-.31-5.05,0-9.02,4.17-9.02,9.24,0,1.38,.29,2.77,1.09,3.86,2.09,3.18,9.53,12.6,9.53,12.6,0,0,.5,.6,1.19,.6,.19,0,.39,0,.59-.2,.5-.4,.7-.79,.7-1.19s-.2-.7-.29-.9c-.31-.5-3.47-6.25-3.47-6.25,0,0-.7-1.39-.7-3.18,0-3.18,2.37-5.75,5.55-5.75,1.29,0,2.39,.4,3.18,.9l3.88,2.48s.39,.19,.79,.19,.7-.09,.99-.5c.2-.29,.29-.59,.29-.88s-.09-.5-.29-.79l-.2-.31"/><path d="M1717.59,363.69c-9.32-10.12-17.56-10.71-22.71-10.71s-13.3,.59-22.63,10.71c-4.85,5.36-8.23,15.97-8.23,21.33,0,1.89,.4,3.18,1.4,3.18,2.77,0,1.38-8.54,9.72-16.97,7.33-7.33,17.16-7.44,19.55-7.44h.39c2.39,0,12.21,.11,19.55,7.44,8.34,8.43,6.94,16.97,9.72,16.97,.99,0,1.39-1.19,1.39-3.18,0-5.36-3.27-16.07-8.14-21.33m-29.56,18.94c0,3.78,3.07,6.85,6.85,6.85s6.84-3.07,6.84-6.85-3.07-6.84-6.84-6.84-6.85,3.07-6.85,6.84"/><path d="M572.13,62h183.43v12.4h-183.43v-12.4" fill-rule="evenodd"/><path d="M1870.1,30.97l183.43,18.6v12.46l-183.43-18.6v-12.46" fill-rule="evenodd"/><path d="M813.4,43.4h183.43v12.4h-183.43v-12.4" fill-rule="evenodd"/><path d="M1341.75,0h183.43V12.4h-183.43V0" fill-rule="evenodd"/><path d="M963.63,389.48h268.05v12.4h-268.05v-12.4" fill-rule="evenodd"/><path d="M218.77,389.44l268.04,31v12.48l-268.04-31v-12.48" fill-rule="evenodd"/><path d="M1317.72,364.64l268.04,31v12.48l-268.04-31v-12.48" fill-rule="evenodd"/><path d="M572.85,414.27l268.04,12.4v12.42l-268.04-12.4v-12.42" fill-rule="evenodd"/><path d="M1100.48,24.8h183.43v12.4h-183.43v-12.4" fill-rule="evenodd"/><path d="M1628.84,12.37l183.43,18.6v12.46l-183.43-18.6V12.37" fill-rule="evenodd"/></g></svg>