<?xml version="1.0" encoding="UTF-8"?><svg id="b" xmlns="http://www.w3.org/2000/svg" viewBox="0 0 2815.2 853.38"><g id="c"><line y1="45.54" x2="2815.2" y2="45.54" fill="none" stroke="#000" stroke-linejoin="bevel" stroke-width="2.73"/><line y1="70.34" x2="2815.2" y2="70.34" fill="none" stroke="#000" stroke-linejoin="bevel" stroke-width="2.73"/><line y1="95.14" x2="2815.2" y2="95.14" fill="none" stroke="#000" stroke-linejoin="bevel" stroke-width="2.73"/><line y1="119.94" x2="2815.2" y2="119.94" fill="none" stroke="#000" stroke-linejoin="bevel" stroke-width="2.73"/><line y1="144.74" x2="2815.2" y2="144.74" fill="none" stroke="#000" stroke-linejoin="bevel" stroke-width="2.73"/><line y1="379.22" x2="2815.2" y2="379.22" fill="none" stroke="#000" stroke-linejoin="bevel" stroke-width="2.73"/><line y1="404.02" x2="2815.2" y2="404.02" fill="none" stroke="#000" stroke-linejoin="bevel" stroke-width="2.73"/><line y1="428.82" x2="2815.2" y2="428.82" fill="none" stroke="#000" stroke-linejoin="bevel" stroke-width="2.73"/><line y1="453.62" x2="2815.2" y2="453.62" fill="none" stroke="#000" stroke-linejoin="bevel" stroke-width="2.73"/><line y1="478.42" x2="2815.2" y2="478.42" fill="none" stroke="#000" stroke-linejoin="bevel" stroke-width="2.73"/><line y1="712.9" x2="2815.2" y2="712.9" fill="none" stroke="#000" stroke-linejoin="bevel" stroke-width="2.73"/><line y1="737.7" x2="2815.2" y2="737.7" fill="none" stroke="#000" stroke-linejoin="bevel" stroke-width="2.73"/><line y1="762.5" x2="2815.2" y2="762.5" fill="none" stroke="#000" stroke-linejoin="bevel" stroke-width="2.73"/><line y1="787.3" x2="2815.2" y2="787.3" fill="none" stroke="#000" stroke-linejoin="bevel" stroke-width="2.73"/><line y1="812.1" x2="2815.2" y2="812.1" fill="none" stroke="#000" stroke-linejoin="bevel" stroke-width="2.73"/><line x1="2430.95" y1="711.54" x2="2430.95" y2="813.46" fill="none" stroke="#000" stroke-linejoin="bevel" stroke-width="4.46"/><line x1="2812.97" y1="44.18" x2="2812.97" y2="146.1" fill="none" stroke="#000" stroke-linejoin="bevel" stroke-width="4.46"/><line x1="1961.82" y1="377.86" x2="1961.82" y2="479.78" fill="none" stroke="#000" stroke-linejoin="bevel" stroke-width="4.46"/><line x1="1114.57" y1="377.86" x2="1114.57" y2="479.78" fill="none" stroke="#000" stroke-linejoin="bevel" stroke-width="4.46"/><line x1="1349.14" y1="711.54" x2="1349.14" y2="813.46" fill="none" stroke="#000" stroke-linejoin="bevel" stroke-width="4.46"/><line x1="1964.42" y1="44.18" x2="1964.42" y2="146.1" fill="none" stroke="#000" stroke-linejoin="bevel" stroke-width="4.46"/><line x1="1115.87" y1="44.18" x2="1115.87" y2="146.1" fill="none" stroke="#000" stroke-linejoin="bevel" stroke-width="4.46"/><line x1="2812.97" y1="377.86" x2="2812.97" y2="479.78" fill="none" stroke="#000" stroke-linejoin="bevel" stroke-width="4.46"/><line x1="2799.33" y1="711.54" x2="2799.33" y2="813.46" fill="none" stroke="#000" stroke-linejoin="bevel" stroke-width="4.46"/><line x1="2812.97" y1="711.54" x2="2812.97" y2="813.46" fill="none" stroke="#000" stroke-linejoin="bevel" stroke-width="4.46"/><line x1="1547.54" y1="62.11" x2="1547.54" y2="138.54" fill="none" stroke="#000" stroke-linejoin="bevel" stroke-width="2.48"/><line x1="1498.04" y1="74.51" x2="1498.04" y2="144.74" fill="none" stroke="#000" stroke-linejoin="bevel" stroke-width="2.48"/><line x1="1448.55" y1="74.51" x2="1448.55" y2="144.74" fill="none" stroke="#000" stroke-linejoin="bevel" stroke-width="2.48"/><line x1="303.04" y1="99.31" x2="303.04" y2="169.54" fill="none" stroke="#000" stroke-linejoin="bevel" stroke-width="2.48"/><line x1="1399.06" y1="74.51" x2="1399.06" y2="144.74" fill="none" stroke="#000" stroke-linejoin="bevel" stroke-width="2.48"/><line x1="1597.03" y1="62.11" x2="1597.03" y2="138.54" fill="none" stroke="#000" stroke-linejoin="bevel" stroke-width="2.48"/><line x1="1646.53" y1="62.11" x2="1646.53" y2="138.54" fill="none" stroke="#000" stroke-linejoin="bevel" stroke-width="2.48"/><line x1="1349.56" y1="74.51" x2="1349.56" y2="144.74" fill="none" stroke="#000" stroke-linejoin="bevel" stroke-width="2.48"/><line x1="1696.02" y1="62.11" x2="1696.02" y2="138.54" fill="none" stroke="#000" stroke-linejoin="bevel" stroke-width="2.48"/><line x1="1745.51" y1="86.91" x2="1745.51" y2="163.34" fill="none" stroke="#000" stroke-linejoin="bevel" stroke-width="2.48"/><line x1="1795.01" y1="86.91" x2="1795.01" y2="163.34" fill="none" stroke="#000" stroke-linejoin="bevel" stroke-width="2.48"/><line x1="1300.07" y1="86.91" x2="1300.07" y2="163.34" fill="none" stroke="#000" stroke-linejoin="bevel" stroke-width="2.48"/><line x1="1844.5" y1="86.91" x2="1844.5" y2="163.34" fill="none" stroke="#000" stroke-linejoin="bevel" stroke-width="2.48"/><line x1="1894" y1="86.91" x2="1894" y2="163.34" fill="none" stroke="#000" stroke-linejoin="bevel" stroke-width="2.48"/><line x1="2000.13" y1="74.51" x2="2000.13" y2="144.74" fill="none" stroke="#000" stroke-linejoin="bevel" stroke-width="2.48"/><line x1="1250.57" y1="86.91" x2="1250.57" y2="163.34" fill="none" stroke="#000" stroke-linejoin="bevel" stroke-width="2.48"/><line x1="2049.63" y1="74.51" x2="2049.63" y2="144.74" fill="none" stroke="#000" stroke-linejoin="bevel" stroke-width="2.48"/><line x1="2099.12" y1="74.51" x2="2099.12" y2="144.74" fill="none" stroke="#000" stroke-linejoin="bevel" stroke-width="2.48"/><line x1="1201.08" y1="86.91" x2="1201.08" y2="163.34" fill="none" stroke="#000" stroke-linejoin="bevel" stroke-width="2.48"/><line x1="2148.61" y1="74.51" x2="2148.61" y2="144.74" fill="none" stroke="#000" stroke-linejoin="bevel" stroke-width="2.48"/><line x1="2198.11" y1="62.11" x2="2198.11" y2="138.54" fill="none" stroke="#000" stroke-linejoin="bevel" stroke-width="2.48"/><line x1="2247.6" y1="62.11" x2="2247.6" y2="138.54" fill="none" stroke="#000" stroke-linejoin="bevel" stroke-width="2.48"/><line x1="1151.59" y1="86.91" x2="1151.59" y2="163.34" fill="none" stroke="#000" stroke-linejoin="bevel" stroke-width="2.48"/><line x1="2297.1" y1="62.11" x2="2297.1" y2="138.54" fill="none" stroke="#000" stroke-linejoin="bevel" stroke-width="2.48"/><line x1="2346.59" y1="62.11" x2="2346.59" y2="138.54" fill="none" stroke="#000" stroke-linejoin="bevel" stroke-width="2.48"/><line x1="2396.08" y1="49.71" x2="2396.08" y2="119.94" fill="none" stroke="#000" stroke-linejoin="bevel" stroke-width="2.48"/><line x1="2445.58" y1="49.71" x2="2445.58" y2="119.94" fill="none" stroke="#000" stroke-linejoin="bevel" stroke-width="2.48"/><line x1="2495.07" y1="49.71" x2="2495.07" y2="119.94" fill="none" stroke="#000" stroke-linejoin="bevel" stroke-width="2.48"/><line x1="2544.57" y1="49.71" x2="2544.57" y2="119.94" fill="none" stroke="#000" stroke-linejoin="bevel" stroke-width="2.48"/><line x1="2594.06" y1="74.51" x2="2594.06" y2="144.74" fill="none" stroke="#000" stroke-linejoin="bevel" stroke-width="2.48"/><line x1="2643.55" y1="74.51" x2="2643.55" y2="144.74" fill="none" stroke="#000" stroke-linejoin="bevel" stroke-width="2.48"/><line x1="2693.05" y1="74.51" x2="2693.05" y2="144.74" fill="none" stroke="#000" stroke-linejoin="bevel" stroke-width="2.48"/><line x1="2742.54" y1="74.51" x2="2742.54" y2="144.74" fill="none" stroke="#000" stroke-linejoin="bevel" stroke-width="2.48"/><line x1="1045.45" y1="99.31" x2="1045.45" y2="169.54" fill="none" stroke="#000" stroke-linejoin="bevel" stroke-width="2.48"/><line x1="303.04" y1="432.99" x2="303.04" y2="503.22" fill="none" stroke="#000" stroke-linejoin="bevel" stroke-width="2.48"/><line x1="352.45" y1="432.99" x2="352.45" y2="503.22" fill="none" stroke="#000" stroke-linejoin="bevel" stroke-width="2.48"/><line x1="847.47" y1="74.51" x2="847.47" y2="144.74" fill="none" stroke="#000" stroke-linejoin="bevel" stroke-width="2.48"/><line x1="401.86" y1="432.99" x2="401.86" y2="503.22" fill="none" stroke="#000" stroke-linejoin="bevel" stroke-width="2.48"/><line x1="451.26" y1="432.99" x2="451.26" y2="503.22" fill="none" stroke="#000" stroke-linejoin="bevel" stroke-width="2.48"/><line x1="500.67" y1="420.59" x2="500.67" y2="497.02" fill="none" stroke="#000" stroke-linejoin="bevel" stroke-width="2.48"/><line x1="550.08" y1="420.59" x2="550.08" y2="497.02" fill="none" stroke="#000" stroke-linejoin="bevel" stroke-width="2.48"/><line x1="599.49" y1="420.59" x2="599.49" y2="497.02" fill="none" stroke="#000" stroke-linejoin="bevel" stroke-width="2.48"/><line x1="648.89" y1="420.59" x2="648.89" y2="497.02" fill="none" stroke="#000" stroke-linejoin="bevel" stroke-width="2.48"/><line x1="698.3" y1="408.19" x2="698.3" y2="478.42" fill="none" stroke="#000" stroke-linejoin="bevel" stroke-width="2.48"/><line x1="995.96" y1="99.31" x2="995.96" y2="169.54" fill="none" stroke="#000" stroke-linejoin="bevel" stroke-width="2.48"/><line x1="747.71" y1="408.19" x2="747.71" y2="478.42" fill="none" stroke="#000" stroke-linejoin="bevel" stroke-width="2.48"/><line x1="797.11" y1="408.19" x2="797.11" y2="478.42" fill="none" stroke="#000" stroke-linejoin="bevel" stroke-width="2.48"/><line x1="846.52" y1="408.19" x2="846.52" y2="478.42" fill="none" stroke="#000" stroke-linejoin="bevel" stroke-width="2.48"/><line x1="895.93" y1="432.99" x2="895.93" y2="503.22" fill="none" stroke="#000" stroke-linejoin="bevel" stroke-width="2.48"/><line x1="945.33" y1="432.99" x2="945.33" y2="503.22" fill="none" stroke="#000" stroke-linejoin="bevel" stroke-width="2.48"/><line x1="994.74" y1="432.99" x2="994.74" y2="503.22" fill="none" stroke="#000" stroke-linejoin="bevel" stroke-width="2.48"/><line x1="1044.15" y1="432.99" x2="1044.15" y2="503.22" fill="none" stroke="#000" stroke-linejoin="bevel" stroke-width="2.48"/><line x1="1199.69" y1="420.59" x2="1199.69" y2="497.02" fill="none" stroke="#000" stroke-linejoin="bevel" stroke-width="2.48"/><line x1="1249.1" y1="420.59" x2="1249.1" y2="497.02" fill="none" stroke="#000" stroke-linejoin="bevel" stroke-width="2.48"/><line x1="946.46" y1="99.31" x2="946.46" y2="169.54" fill="none" stroke="#000" stroke-linejoin="bevel" stroke-width="2.48"/><line x1="1298.51" y1="420.59" x2="1298.51" y2="497.02" fill="none" stroke="#000" stroke-linejoin="bevel" stroke-width="2.48"/><line x1="1347.91" y1="408.19" x2="1347.91" y2="478.42" fill="none" stroke="#000" stroke-linejoin="bevel" stroke-width="2.48"/><line x1="1397.32" y1="408.19" x2="1397.32" y2="478.42" fill="none" stroke="#000" stroke-linejoin="bevel" stroke-width="2.48"/><line x1="1446.73" y1="408.19" x2="1446.73" y2="478.42" fill="none" stroke="#000" stroke-linejoin="bevel" stroke-width="2.48"/><line x1="1496.13" y1="408.19" x2="1496.13" y2="478.42" fill="none" stroke="#000" stroke-linejoin="bevel" stroke-width="2.48"/><line x1="1545.54" y1="395.79" x2="1545.54" y2="472.22" fill="none" stroke="#000" stroke-linejoin="bevel" stroke-width="2.48"/><line x1="1594.95" y1="395.79" x2="1594.95" y2="472.22" fill="none" stroke="#000" stroke-linejoin="bevel" stroke-width="2.48"/><line x1="1644.36" y1="395.79" x2="1644.36" y2="472.22" fill="none" stroke="#000" stroke-linejoin="bevel" stroke-width="2.48"/><line x1="1693.76" y1="395.79" x2="1693.76" y2="472.22" fill="none" stroke="#000" stroke-linejoin="bevel" stroke-width="2.48"/><line x1="896.97" y1="99.31" x2="896.97" y2="169.54" fill="none" stroke="#000" stroke-linejoin="bevel" stroke-width="2.48"/><line x1="1743.17" y1="420.59" x2="1743.17" y2="497.02" fill="none" stroke="#000" stroke-linejoin="bevel" stroke-width="2.48"/><line x1="1792.58" y1="420.59" x2="1792.58" y2="497.02" fill="none" stroke="#000" stroke-linejoin="bevel" stroke-width="2.48"/><line x1="1841.99" y1="420.59" x2="1841.99" y2="497.02" fill="none" stroke="#000" stroke-linejoin="bevel" stroke-width="2.48"/><line x1="1891.39" y1="420.59" x2="1891.39" y2="497.02" fill="none" stroke="#000" stroke-linejoin="bevel" stroke-width="2.48"/><line x1="2027.28" y1="437.25" x2="2027.28" y2="360.62" fill="none" stroke="#000" stroke-linejoin="bevel" stroke-width="2.48"/><line x1="2076.69" y1="437.25" x2="2076.69" y2="360.62" fill="none" stroke="#000" stroke-linejoin="bevel" stroke-width="2.48"/><line x1="2126.1" y1="437.25" x2="2126.1" y2="360.62" fill="none" stroke="#000" stroke-linejoin="bevel" stroke-width="2.48"/><line x1="2175.5" y1="437.25" x2="2175.5" y2="360.62" fill="none" stroke="#000" stroke-linejoin="bevel" stroke-width="2.48"/><line x1="2199.06" y1="432.99" x2="2199.06" y2="503.22" fill="none" stroke="#000" stroke-linejoin="bevel" stroke-width="2.48"/><line x1="2248.47" y1="432.99" x2="2248.47" y2="503.22" fill="none" stroke="#000" stroke-linejoin="bevel" stroke-width="2.48"/><line x1="2297.88" y1="432.99" x2="2297.88" y2="503.22" fill="none" stroke="#000" stroke-linejoin="bevel" stroke-width="2.48"/><line x1="2347.28" y1="432.99" x2="2347.28" y2="503.22" fill="none" stroke="#000" stroke-linejoin="bevel" stroke-width="2.48"/><line x1="2396.69" y1="420.59" x2="2396.69" y2="497.02" fill="none" stroke="#000" stroke-linejoin="bevel" stroke-width="2.48"/><line x1="2446.1" y1="420.59" x2="2446.1" y2="497.02" fill="none" stroke="#000" stroke-linejoin="bevel" stroke-width="2.48"/><line x1="2495.51" y1="420.59" x2="2495.51" y2="497.02" fill="none" stroke="#000" stroke-linejoin="bevel" stroke-width="2.48"/><line x1="797.98" y1="74.51" x2="797.98" y2="144.74" fill="none" stroke="#000" stroke-linejoin="bevel" stroke-width="2.48"/><line x1="2544.91" y1="420.59" x2="2544.91" y2="497.02" fill="none" stroke="#000" stroke-linejoin="bevel" stroke-width="2.48"/><line x1="2624.07" y1="437.25" x2="2624.07" y2="360.62" fill="none" stroke="#000" stroke-linejoin="bevel" stroke-width="2.48"/><line x1="2673.48" y1="437.25" x2="2673.48" y2="360.62" fill="none" stroke="#000" stroke-linejoin="bevel" stroke-width="2.48"/><line x1="2722.89" y1="437.25" x2="2722.89" y2="360.62" fill="none" stroke="#000" stroke-linejoin="bevel" stroke-width="2.48"/><line x1="2772.29" y1="437.25" x2="2772.29" y2="360.62" fill="none" stroke="#000" stroke-linejoin="bevel" stroke-width="2.48"/><line x1="303.04" y1="766.67" x2="303.04" y2="836.9" fill="none" stroke="#000" stroke-linejoin="bevel" stroke-width="2.48"/><line x1="1150.28" y1="420.59" x2="1150.28" y2="497.02" fill="none" stroke="#000" stroke-linejoin="bevel" stroke-width="2.48"/><line x1="433.13" y1="766.67" x2="433.13" y2="836.9" fill="none" stroke="#000" stroke-linejoin="bevel" stroke-width="2.48"/><line x1="498.18" y1="766.67" x2="498.18" y2="836.9" fill="none" stroke="#000" stroke-linejoin="bevel" stroke-width="2.48"/><line x1="748.49" y1="74.51" x2="748.49" y2="144.74" fill="none" stroke="#000" stroke-linejoin="bevel" stroke-width="2.48"/><line x1="563.22" y1="741.87" x2="563.22" y2="812.1" fill="none" stroke="#000" stroke-linejoin="bevel" stroke-width="2.48"/><line x1="628.27" y1="741.87" x2="628.27" y2="812.1" fill="none" stroke="#000" stroke-linejoin="bevel" stroke-width="2.48"/><line x1="693.31" y1="741.87" x2="693.31" y2="812.1" fill="none" stroke="#000" stroke-linejoin="bevel" stroke-width="2.48"/><line x1="758.36" y1="741.87" x2="758.36" y2="812.1" fill="none" stroke="#000" stroke-linejoin="bevel" stroke-width="2.48"/><line x1="823.4" y1="754.27" x2="823.4" y2="830.7" fill="none" stroke="#000" stroke-linejoin="bevel" stroke-width="2.48"/><line x1="888.44" y1="754.27" x2="888.44" y2="830.7" fill="none" stroke="#000" stroke-linejoin="bevel" stroke-width="2.48"/><line x1="953.49" y1="754.27" x2="953.49" y2="830.7" fill="none" stroke="#000" stroke-linejoin="bevel" stroke-width="2.48"/><line x1="1018.53" y1="754.27" x2="1018.53" y2="830.7" fill="none" stroke="#000" stroke-linejoin="bevel" stroke-width="2.48"/><line x1="1083.58" y1="766.67" x2="1083.58" y2="836.9" fill="none" stroke="#000" stroke-linejoin="bevel" stroke-width="2.48"/><line x1="698.99" y1="74.51" x2="698.99" y2="144.74" fill="none" stroke="#000" stroke-linejoin="bevel" stroke-width="2.48"/><line x1="1148.62" y1="766.67" x2="1148.62" y2="836.9" fill="none" stroke="#000" stroke-linejoin="bevel" stroke-width="2.48"/><line x1="1213.67" y1="766.67" x2="1213.67" y2="836.9" fill="none" stroke="#000" stroke-linejoin="bevel" stroke-width="2.48"/><line x1="1278.71" y1="766.67" x2="1278.71" y2="836.9" fill="none" stroke="#000" stroke-linejoin="bevel" stroke-width="2.48"/><line x1="1384.85" y1="754.27" x2="1384.85" y2="830.7" fill="none" stroke="#000" stroke-linejoin="bevel" stroke-width="2.48"/><line x1="1449.9" y1="754.27" x2="1449.9" y2="830.7" fill="none" stroke="#000" stroke-linejoin="bevel" stroke-width="2.48"/><line x1="1514.94" y1="754.27" x2="1514.94" y2="830.7" fill="none" stroke="#000" stroke-linejoin="bevel" stroke-width="2.48"/><line x1="1579.99" y1="754.27" x2="1579.99" y2="830.7" fill="none" stroke="#000" stroke-linejoin="bevel" stroke-width="2.48"/><line x1="1645.03" y1="729.47" x2="1645.03" y2="805.9" fill="none" stroke="#000" stroke-linejoin="bevel" stroke-width="2.48"/><line x1="1710.07" y1="729.47" x2="1710.07" y2="805.9" fill="none" stroke="#000" stroke-linejoin="bevel" stroke-width="2.48"/><line x1="649.5" y1="86.91" x2="649.5" y2="163.34" fill="none" stroke="#000" stroke-linejoin="bevel" stroke-width="2.48"/><line x1="1775.12" y1="729.47" x2="1775.12" y2="805.9" fill="none" stroke="#000" stroke-linejoin="bevel" stroke-width="2.48"/><line x1="1840.16" y1="729.47" x2="1840.16" y2="805.9" fill="none" stroke="#000" stroke-linejoin="bevel" stroke-width="2.48"/><line x1="1905.21" y1="741.87" x2="1905.21" y2="812.1" fill="none" stroke="#000" stroke-linejoin="bevel" stroke-width="2.48"/><line x1="1970.25" y1="741.87" x2="1970.25" y2="812.1" fill="none" stroke="#000" stroke-linejoin="bevel" stroke-width="2.48"/><line x1="2035.3" y1="741.87" x2="2035.3" y2="812.1" fill="none" stroke="#000" stroke-linejoin="bevel" stroke-width="2.48"/><line x1="2100.34" y1="741.87" x2="2100.34" y2="812.1" fill="none" stroke="#000" stroke-linejoin="bevel" stroke-width="2.48"/><line x1="2165.39" y1="754.27" x2="2165.39" y2="830.7" fill="none" stroke="#000" stroke-linejoin="bevel" stroke-width="2.48"/><line x1="2230.43" y1="754.27" x2="2230.43" y2="830.7" fill="none" stroke="#000" stroke-linejoin="bevel" stroke-width="2.48"/><line x1="600.01" y1="86.91" x2="600.01" y2="163.34" fill="none" stroke="#000" stroke-linejoin="bevel" stroke-width="2.48"/><line x1="2295.48" y1="754.27" x2="2295.48" y2="830.7" fill="none" stroke="#000" stroke-linejoin="bevel" stroke-width="2.48"/><line x1="2360.52" y1="754.27" x2="2360.52" y2="830.7" fill="none" stroke="#000" stroke-linejoin="bevel" stroke-width="2.48"/><line x1="368.09" y1="766.67" x2="368.09" y2="836.9" fill="none" stroke="#000" stroke-linejoin="bevel" stroke-width="2.48"/><line x1="550.51" y1="86.91" x2="550.51" y2="163.34" fill="none" stroke="#000" stroke-linejoin="bevel" stroke-width="2.48"/><line x1="501.02" y1="86.91" x2="501.02" y2="163.34" fill="none" stroke="#000" stroke-linejoin="bevel" stroke-width="2.48"/><line x1="451.52" y1="99.31" x2="451.52" y2="169.54" fill="none" stroke="#000" stroke-linejoin="bevel" stroke-width="2.48"/><line x1="402.03" y1="99.31" x2="402.03" y2="169.54" fill="none" stroke="#000" stroke-linejoin="bevel" stroke-width="2.48"/><line x1="352.53" y1="99.31" x2="352.53" y2="169.54" fill="none" stroke="#000" stroke-linejoin="bevel" stroke-width="2.48"/><path d="M1496.8,74.51c0,4.26,3.07,9.02,11.11,9.02,10.31,0,21.13-8.43,21.13-17.16,0-5.86-4.96-9.13-11.11-9.13-9.63,0-21.13,8.14-21.13,17.27"/><path d="M1447.31,74.51c0,4.26,3.07,9.02,11.11,9.02,10.31,0,21.13-8.43,21.13-17.16,0-5.86-4.96-9.13-11.11-9.13-9.63,0-21.13,8.14-21.13,17.27"/><path d="M1397.82,74.51c0,4.26,3.07,9.02,11.11,9.02,10.31,0,21.13-8.43,21.13-17.16,0-5.86-4.96-9.13-11.11-9.13-9.63,0-21.13,8.14-21.13,17.27"/><path d="M1348.32,74.51c0,4.26,3.07,9.02,11.11,9.02,10.31,0,21.13-8.43,21.13-17.16,0-5.86-4.96-9.13-11.11-9.13-9.63,0-21.13,8.14-21.13,17.27"/><path d="M1298.83,86.91c0,4.26,3.07,9.02,11.11,9.02,10.31,0,21.13-8.43,21.13-17.16,0-5.86-4.96-9.13-11.11-9.13-9.63,0-21.13,8.14-21.13,17.27"/><path d="M1249.33,86.91c0,4.26,3.07,9.02,11.11,9.02,10.31,0,21.13-8.43,21.13-17.16,0-5.86-4.96-9.13-11.11-9.13-9.63,0-21.13,8.14-21.13,17.27"/><path d="M1199.84,86.91c0,4.26,3.07,9.02,11.11,9.02,10.31,0,21.13-8.43,21.13-17.16,0-5.86-4.96-9.13-11.11-9.13-9.63,0-21.13,8.14-21.13,17.27"/><path d="M1150.35,86.91c0,4.26,3.07,9.02,11.11,9.02,10.31,0,21.13-8.43,21.13-17.16,0-5.86-4.96-9.13-11.11-9.13-9.63,0-21.13,8.14-21.13,17.27"/><path d="M1044.21,99.31c0,4.26,3.07,9.02,11.11,9.02,10.31,0,21.13-8.43,21.13-17.16,0-5.86-4.96-9.13-11.11-9.13-9.63,0-21.13,8.14-21.13,17.27"/><path d="M994.72,99.31c0,4.26,3.07,9.02,11.11,9.02,10.31,0,21.13-8.43,21.13-17.16,0-5.86-4.96-9.13-11.11-9.13-9.63,0-21.13,8.14-21.13,17.27"/><path d="M431.89,766.67c0,4.26,3.07,9.02,11.11,9.02,10.31,0,21.13-8.43,21.13-17.16,0-5.86-4.96-9.13-11.11-9.13-9.63,0-21.13,8.14-21.13,17.27"/><path d="M945.22,99.31c0,4.26,3.07,9.02,11.11,9.02,10.31,0,21.13-8.43,21.13-17.16,0-5.86-4.96-9.13-11.11-9.13-9.63,0-21.13,8.14-21.13,17.27"/><path d="M895.73,99.31c0,4.26,3.07,9.02,11.11,9.02,10.31,0,21.13-8.43,21.13-17.16,0-5.86-4.96-9.13-11.11-9.13-9.63,0-21.13,8.14-21.13,17.27"/><path d="M846.23,74.51c0,4.26,3.07,9.02,11.11,9.02,10.31,0,21.13-8.43,21.13-17.16,0-5.86-4.96-9.13-11.11-9.13-9.63,0-21.13,8.14-21.13,17.27"/><path d="M796.74,74.51c0,4.26,3.07,9.02,11.11,9.02,10.31,0,21.13-8.43,21.13-17.16,0-5.86-4.96-9.13-11.11-9.13-9.63,0-21.13,8.14-21.13,17.27"/><path d="M747.25,74.51c0,4.26,3.07,9.02,11.11,9.02,10.31,0,21.13-8.43,21.13-17.16,0-5.86-4.96-9.13-11.11-9.13-9.63,0-21.13,8.14-21.13,17.27"/><path d="M697.75,74.51c0,4.26,3.07,9.02,11.11,9.02,10.31,0,21.13-8.43,21.13-17.16,0-5.86-4.96-9.13-11.11-9.13-9.63,0-21.13,8.14-21.13,17.27"/><path d="M648.26,86.91c0,4.26,3.07,9.02,11.11,9.02,10.31,0,21.13-8.43,21.13-17.16,0-5.86-4.96-9.13-11.11-9.13-9.63,0-21.13,8.14-21.13,17.27"/><path d="M598.76,86.91c0,4.26,3.07,9.02,11.11,9.02,10.31,0,21.13-8.43,21.13-17.16,0-5.86-4.96-9.13-11.11-9.13-9.63,0-21.13,8.14-21.13,17.27"/><path d="M845.28,408.19c0,4.26,3.07,9.02,11.11,9.02,10.31,0,21.13-8.43,21.13-17.16,0-5.86-4.96-9.13-11.11-9.13-9.63,0-21.13,8.14-21.13,17.27"/><path d="M894.69,432.99c0,4.26,3.07,9.02,11.11,9.02,10.31,0,21.13-8.43,21.13-17.16,0-5.86-4.96-9.13-11.11-9.13-9.63,0-21.13,8.14-21.13,17.27"/><path d="M1694.78,62.11c0,4.26,3.07,9.02,11.11,9.02,10.31,0,21.13-8.43,21.13-17.16,0-5.86-4.96-9.13-11.11-9.13-9.63,0-21.13,8.14-21.13,17.27"/><path d="M944.09,432.99c0,4.26,3.07,9.02,11.11,9.02,10.31,0,21.13-8.43,21.13-17.16,0-5.86-4.96-9.13-11.11-9.13-9.63,0-21.13,8.14-21.13,17.27"/><path d="M993.5,432.99c0,4.26,3.07,9.02,11.11,9.02,10.31,0,21.13-8.43,21.13-17.16,0-5.86-4.96-9.13-11.11-9.13-9.63,0-21.13,8.14-21.13,17.27"/><path d="M1744.27,86.91c0,4.26,3.07,9.02,11.11,9.02,10.31,0,21.13-8.43,21.13-17.16,0-5.86-4.96-9.13-11.11-9.13-9.63,0-21.13,8.14-21.13,17.27"/><path d="M1042.91,432.99c0,4.26,3.07,9.02,11.11,9.02,10.31,0,21.13-8.43,21.13-17.16,0-5.86-4.96-9.13-11.11-9.13-9.63,0-21.13,8.14-21.13,17.27"/><path d="M1149.04,420.59c0,4.26,3.07,9.02,11.11,9.02,10.31,0,21.13-8.43,21.13-17.16,0-5.86-4.96-9.13-11.11-9.13-9.63,0-21.13,8.14-21.13,17.27"/><path d="M1198.45,420.59c0,4.26,3.07,9.02,11.11,9.02,10.31,0,21.13-8.43,21.13-17.16,0-5.86-4.96-9.13-11.11-9.13-9.63,0-21.13,8.14-21.13,17.27"/><path d="M1247.86,420.59c0,4.26,3.07,9.02,11.11,9.02,10.31,0,21.13-8.43,21.13-17.16,0-5.86-4.96-9.13-11.11-9.13-9.63,0-21.13,8.14-21.13,17.27"/><path d="M1843.26,86.91c0,4.26,3.07,9.02,11.11,9.02,10.31,0,21.13-8.43,21.13-17.16,0-5.86-4.96-9.13-11.11-9.13-9.63,0-21.13,8.14-21.13,17.27"/><path d="M1297.27,420.59c0,4.26,3.07,9.02,11.11,9.02,10.31,0,21.13-8.43,21.13-17.16,0-5.86-4.96-9.13-11.11-9.13-9.63,0-21.13,8.14-21.13,17.27"/><path d="M1346.67,408.19c0,4.26,3.07,9.02,11.11,9.02,10.31,0,21.13-8.43,21.13-17.16,0-5.86-4.96-9.13-11.11-9.13-9.63,0-21.13,8.14-21.13,17.27"/><path d="M1892.76,86.91c0,4.26,3.07,9.02,11.11,9.02,10.31,0,21.13-8.43,21.13-17.16,0-5.86-4.96-9.13-11.11-9.13-9.63,0-21.13,8.14-21.13,17.27"/><path d="M1396.08,408.19c0,4.26,3.07,9.02,11.11,9.02,10.31,0,21.13-8.43,21.13-17.16,0-5.86-4.96-9.13-11.11-9.13-9.63,0-21.13,8.14-21.13,17.27"/><path d="M1445.49,408.19c0,4.26,3.07,9.02,11.11,9.02,10.31,0,21.13-8.43,21.13-17.16,0-5.86-4.96-9.13-11.11-9.13-9.63,0-21.13,8.14-21.13,17.27"/><path d="M1494.89,408.19c0,4.26,3.07,9.02,11.11,9.02,10.31,0,21.13-8.43,21.13-17.16,0-5.86-4.96-9.13-11.11-9.13-9.63,0-21.13,8.14-21.13,17.27"/><path d="M1544.3,395.79c0,4.26,3.07,9.02,11.11,9.02,10.31,0,21.13-8.43,21.13-17.16,0-5.86-4.96-9.13-11.11-9.13-9.63,0-21.13,8.14-21.13,17.27"/><path d="M1998.89,74.51c0,4.26,3.07,9.02,11.11,9.02,10.31,0,21.13-8.43,21.13-17.16,0-5.86-4.96-9.13-11.11-9.13-9.63,0-21.13,8.14-21.13,17.27"/><path d="M1593.71,395.79c0,4.26,3.07,9.02,11.11,9.02,10.31,0,21.13-8.43,21.13-17.16,0-5.86-4.96-9.13-11.11-9.13-9.63,0-21.13,8.14-21.13,17.27"/><path d="M400.79,99.31c0,4.26,3.07,9.02,11.11,9.02,10.31,0,21.13-8.43,21.13-17.16,0-5.86-4.96-9.13-11.11-9.13-9.63,0-21.13,8.14-21.13,17.27"/><path d="M1643.12,395.79c0,4.26,3.07,9.02,11.11,9.02,10.31,0,21.13-8.43,21.13-17.16,0-5.86-4.96-9.13-11.11-9.13-9.63,0-21.13,8.14-21.13,17.27"/><path d="M2048.39,74.51c0,4.26,3.07,9.02,11.11,9.02,10.31,0,21.13-8.43,21.13-17.16,0-5.86-4.96-9.13-11.11-9.13-9.63,0-21.13,8.14-21.13,17.27"/><path d="M1692.52,395.79c0,4.26,3.07,9.02,11.11,9.02,10.31,0,21.13-8.43,21.13-17.16,0-5.86-4.96-9.13-11.11-9.13-9.63,0-21.13,8.14-21.13,17.27"/><path d="M1741.93,420.59c0,4.26,3.07,9.02,11.11,9.02,10.31,0,21.13-8.43,21.13-17.16,0-5.86-4.96-9.13-11.11-9.13-9.63,0-21.13,8.14-21.13,17.27"/><path d="M2097.88,74.51c0,4.26,3.07,9.02,11.11,9.02,10.31,0,21.13-8.43,21.13-17.16,0-5.86-4.96-9.13-11.11-9.13-9.63,0-21.13,8.14-21.13,17.27"/><path d="M1791.34,420.59c0,4.26,3.07,9.02,11.11,9.02,10.31,0,21.13-8.43,21.13-17.16,0-5.86-4.96-9.13-11.11-9.13-9.63,0-21.13,8.14-21.13,17.27"/><path d="M1840.75,420.59c0,4.26,3.07,9.02,11.11,9.02,10.31,0,21.13-8.43,21.13-17.16,0-5.86-4.96-9.13-11.11-9.13-9.63,0-21.13,8.14-21.13,17.27"/><path d="M2147.37,74.51c0,4.26,3.07,9.02,11.11,9.02,10.31,0,21.13-8.43,21.13-17.16,0-5.86-4.96-9.13-11.11-9.13-9.63,0-21.13,8.14-21.13,17.27"/><path d="M1890.15,420.59c0,4.26,3.07,9.02,11.11,9.02,10.31,0,21.13-8.43,21.13-17.16,0-5.86-4.96-9.13-11.11-9.13-9.63,0-21.13,8.14-21.13,17.27"/><path d="M499.78,86.91c0,4.26,3.07,9.02,11.11,9.02,10.31,0,21.13-8.43,21.13-17.16,0-5.86-4.96-9.13-11.11-9.13-9.63,0-21.13,8.14-21.13,17.27"/><path d="M1996.29,445.39c0,4.26,3.07,9.02,11.11,9.02,10.31,0,21.13-8.43,21.13-17.16,0-5.86-4.96-9.13-11.11-9.13-9.63,0-21.13,8.14-21.13,17.27"/><path d="M2196.87,62.11c0,4.26,3.07,9.02,11.11,9.02,10.31,0,21.13-8.43,21.13-17.16,0-5.86-4.96-9.13-11.11-9.13-9.63,0-21.13,8.14-21.13,17.27"/><path d="M2045.7,445.39c0,4.26,3.07,9.02,11.11,9.02,10.31,0,21.13-8.43,21.13-17.16,0-5.86-4.96-9.13-11.11-9.13-9.63,0-21.13,8.14-21.13,17.27"/><path d="M2095.1,445.39c0,4.26,3.07,9.02,11.11,9.02,10.31,0,21.13-8.43,21.13-17.16,0-5.86-4.96-9.13-11.11-9.13-9.63,0-21.13,8.14-21.13,17.27"/><path d="M2246.36,62.11c0,4.26,3.07,9.02,11.11,9.02,10.31,0,21.13-8.43,21.13-17.16,0-5.86-4.96-9.13-11.11-9.13-9.63,0-21.13,8.14-21.13,17.27"/><path d="M2144.51,445.39c0,4.26,3.07,9.02,11.11,9.02,10.31,0,21.13-8.43,21.13-17.16,0-5.86-4.96-9.13-11.11-9.13-9.63,0-21.13,8.14-21.13,17.27"/><path d="M2197.82,432.99c0,4.26,3.07,9.02,11.11,9.02,10.31,0,21.13-8.43,21.13-17.16,0-5.86-4.96-9.13-11.11-9.13-9.63,0-21.13,8.14-21.13,17.27"/><path d="M2295.86,62.11c0,4.26,3.07,9.02,11.11,9.02,10.31,0,21.13-8.43,21.13-17.16,0-5.86-4.96-9.13-11.11-9.13-9.63,0-21.13,8.14-21.13,17.27"/><path d="M2247.23,432.99c0,4.26,3.07,9.02,11.11,9.02,10.31,0,21.13-8.43,21.13-17.16,0-5.86-4.96-9.13-11.11-9.13-9.63,0-21.13,8.14-21.13,17.27"/><path d="M2296.64,432.99c0,4.26,3.07,9.02,11.11,9.02,10.31,0,21.13-8.43,21.13-17.16,0-5.86-4.96-9.13-11.11-9.13-9.63,0-21.13,8.14-21.13,17.27"/><path d="M2345.35,62.11c0,4.26,3.07,9.02,11.11,9.02,10.31,0,21.13-8.43,21.13-17.16,0-5.86-4.96-9.13-11.11-9.13-9.63,0-21.13,8.14-21.13,17.27"/><path d="M2346.04,432.99c0,4.26,3.07,9.02,11.11,9.02,10.31,0,21.13-8.43,21.13-17.16,0-5.86-4.96-9.13-11.11-9.13-9.63,0-21.13,8.14-21.13,17.27"/><path d="M2395.45,420.59c0,4.26,3.07,9.02,11.11,9.02,10.31,0,21.13-8.43,21.13-17.16,0-5.86-4.96-9.13-11.11-9.13-9.63,0-21.13,8.14-21.13,17.27"/><path d="M2394.84,49.71c0,4.26,3.07,9.02,11.11,9.02,10.31,0,21.13-8.43,21.13-17.16,0-5.86-4.96-9.13-11.11-9.13-9.63,0-21.13,8.14-21.13,17.27"/><path d="M2444.86,420.59c0,4.26,3.07,9.02,11.11,9.02,10.31,0,21.13-8.43,21.13-17.16,0-5.86-4.96-9.13-11.11-9.13-9.63,0-21.13,8.14-21.13,17.27"/><path d="M2494.27,420.59c0,4.26,3.07,9.02,11.11,9.02,10.31,0,21.13-8.43,21.13-17.16,0-5.86-4.96-9.13-11.11-9.13-9.63,0-21.13,8.14-21.13,17.27"/><path d="M2444.34,49.71c0,4.26,3.07,9.02,11.11,9.02,10.31,0,21.13-8.43,21.13-17.16,0-5.86-4.96-9.13-11.11-9.13-9.63,0-21.13,8.14-21.13,17.27"/><path d="M2543.67,420.59c0,4.26,3.07,9.02,11.11,9.02,10.31,0,21.13-8.43,21.13-17.16,0-5.86-4.96-9.13-11.11-9.13-9.63,0-21.13,8.14-21.13,17.27"/><path d="M2593.08,445.39c0,4.26,3.07,9.02,11.11,9.02,10.31,0,21.13-8.43,21.13-17.16,0-5.86-4.96-9.13-11.11-9.13-9.63,0-21.13,8.14-21.13,17.27"/><path d="M2493.83,49.71c0,4.26,3.07,9.02,11.11,9.02,10.31,0,21.13-8.43,21.13-17.16,0-5.86-4.96-9.13-11.11-9.13-9.63,0-21.13,8.14-21.13,17.27"/><path d="M2642.49,445.39c0,4.26,3.07,9.02,11.11,9.02,10.31,0,21.13-8.43,21.13-17.16,0-5.86-4.96-9.13-11.11-9.13-9.63,0-21.13,8.14-21.13,17.27"/><path d="M2691.89,445.39c0,4.26,3.07,9.02,11.11,9.02,10.31,0,21.13-8.43,21.13-17.16,0-5.86-4.96-9.13-11.11-9.13-9.63,0-21.13,8.14-21.13,17.27"/><path d="M2543.33,49.71c0,4.26,3.07,9.02,11.11,9.02,10.31,0,21.13-8.43,21.13-17.16,0-5.86-4.96-9.13-11.11-9.13-9.63,0-21.13,8.14-21.13,17.27"/><path d="M2741.3,445.39c0,4.26,3.07,9.02,11.11,9.02,10.31,0,21.13-8.43,21.13-17.16,0-5.86-4.96-9.13-11.11-9.13-9.63,0-21.13,8.14-21.13,17.27"/><path d="M1793.77,86.91c0,4.26,3.07,9.02,11.11,9.02,10.31,0,21.13-8.43,21.13-17.16,0-5.86-4.96-9.13-11.11-9.13-9.63,0-21.13,8.14-21.13,17.27"/><path d="M301.8,99.31c0,4.26,3.07,9.02,11.11,9.02,10.31,0,21.13-8.43,21.13-17.16,0-5.86-4.96-9.13-11.11-9.13-9.63,0-21.13,8.14-21.13,17.27"/><path d="M301.8,766.67c0,4.26,3.07,9.02,11.11,9.02,10.31,0,21.13-8.43,21.13-17.16,0-5.86-4.96-9.13-11.11-9.13-9.63,0-21.13,8.14-21.13,17.27"/><path d="M2592.82,74.51c0,4.26,3.07,9.02,11.11,9.02,10.31,0,21.13-8.43,21.13-17.16,0-5.86-4.96-9.13-11.11-9.13-9.63,0-21.13,8.14-21.13,17.27"/><path d="M366.85,766.67c0,4.26,3.07,9.02,11.11,9.02,10.31,0,21.13-8.43,21.13-17.16,0-5.86-4.96-9.13-11.11-9.13-9.63,0-21.13,8.14-21.13,17.27"/><path d="M2642.31,74.51c0,4.26,3.07,9.02,11.11,9.02,10.31,0,21.13-8.43,21.13-17.16,0-5.86-4.96-9.13-11.11-9.13-9.63,0-21.13,8.14-21.13,17.27"/><path d="M496.94,766.67c0,4.26,3.07,9.02,11.11,9.02,10.31,0,21.13-8.43,21.13-17.16,0-5.86-4.96-9.13-11.11-9.13-9.63,0-21.13,8.14-21.13,17.27"/><path d="M561.98,741.87c0,4.26,3.07,9.02,11.11,9.02,10.31,0,21.13-8.43,21.13-17.16,0-5.86-4.96-9.13-11.11-9.13-9.63,0-21.13,8.14-21.13,17.27"/><path d="M2691.81,74.51c0,4.26,3.07,9.02,11.11,9.02,10.31,0,21.13-8.43,21.13-17.16,0-5.86-4.96-9.13-11.11-9.13-9.63,0-21.13,8.14-21.13,17.27"/><path d="M627.03,741.87c0,4.26,3.07,9.02,11.11,9.02,10.31,0,21.13-8.43,21.13-17.16,0-5.86-4.96-9.13-11.11-9.13-9.63,0-21.13,8.14-21.13,17.27"/><path d="M692.07,741.87c0,4.26,3.07,9.02,11.11,9.02,10.31,0,21.13-8.43,21.13-17.16,0-5.86-4.96-9.13-11.11-9.13-9.63,0-21.13,8.14-21.13,17.27"/><path d="M2741.3,74.51c0,4.26,3.07,9.02,11.11,9.02,10.31,0,21.13-8.43,21.13-17.16,0-5.86-4.96-9.13-11.11-9.13-9.63,0-21.13,8.14-21.13,17.27"/><path d="M757.12,741.87c0,4.26,3.07,9.02,11.11,9.02,10.31,0,21.13-8.43,21.13-17.16,0-5.86-4.96-9.13-11.11-9.13-9.63,0-21.13,8.14-21.13,17.27"/><path d="M450.28,99.31c0,4.26,3.07,9.02,11.11,9.02,10.31,0,21.13-8.43,21.13-17.16,0-5.86-4.96-9.13-11.11-9.13-9.63,0-21.13,8.14-21.13,17.27"/><path d="M822.16,754.27c0,4.26,3.07,9.02,11.11,9.02,10.31,0,21.13-8.43,21.13-17.16,0-5.86-4.96-9.13-11.11-9.13-9.63,0-21.13,8.14-21.13,17.27"/><path d="M887.2,754.27c0,4.26,3.07,9.02,11.11,9.02,10.31,0,21.13-8.43,21.13-17.16,0-5.86-4.96-9.13-11.11-9.13-9.63,0-21.13,8.14-21.13,17.27"/><path d="M952.25,754.27c0,4.26,3.07,9.02,11.11,9.02,10.31,0,21.13-8.43,21.13-17.16,0-5.86-4.96-9.13-11.11-9.13-9.63,0-21.13,8.14-21.13,17.27"/><path d="M301.8,432.99c0,4.26,3.07,9.02,11.11,9.02,10.31,0,21.13-8.43,21.13-17.16,0-5.86-4.96-9.13-11.11-9.13-9.63,0-21.13,8.14-21.13,17.27"/><path d="M1017.29,754.27c0,4.26,3.07,9.02,11.11,9.02,10.31,0,21.13-8.43,21.13-17.16,0-5.86-4.96-9.13-11.11-9.13-9.63,0-21.13,8.14-21.13,17.27"/><path d="M1082.34,766.67c0,4.26,3.07,9.02,11.11,9.02,10.31,0,21.13-8.43,21.13-17.16,0-5.86-4.96-9.13-11.11-9.13-9.63,0-21.13,8.14-21.13,17.27"/><path d="M351.21,432.99c0,4.26,3.07,9.02,11.11,9.02,10.31,0,21.13-8.43,21.13-17.16,0-5.86-4.96-9.13-11.11-9.13-9.63,0-21.13,8.14-21.13,17.27"/><path d="M1147.38,766.67c0,4.26,3.07,9.02,11.11,9.02,10.31,0,21.13-8.43,21.13-17.16,0-5.86-4.96-9.13-11.11-9.13-9.63,0-21.13,8.14-21.13,17.27"/><path d="M1212.43,766.67c0,4.26,3.07,9.02,11.11,9.02,10.31,0,21.13-8.43,21.13-17.16,0-5.86-4.96-9.13-11.11-9.13-9.63,0-21.13,8.14-21.13,17.27"/><path d="M400.62,432.99c0,4.26,3.07,9.02,11.11,9.02,10.31,0,21.13-8.43,21.13-17.16,0-5.86-4.96-9.13-11.11-9.13-9.63,0-21.13,8.14-21.13,17.27"/><path d="M1277.47,766.67c0,4.26,3.07,9.02,11.11,9.02,10.31,0,21.13-8.43,21.13-17.16,0-5.86-4.96-9.13-11.11-9.13-9.63,0-21.13,8.14-21.13,17.27"/><path d="M1383.61,754.27c0,4.26,3.07,9.02,11.11,9.02,10.31,0,21.13-8.43,21.13-17.16,0-5.86-4.96-9.13-11.11-9.13-9.63,0-21.13,8.14-21.13,17.27"/><path d="M450.02,432.99c0,4.26,3.07,9.02,11.11,9.02,10.31,0,21.13-8.43,21.13-17.16,0-5.86-4.96-9.13-11.11-9.13-9.63,0-21.13,8.14-21.13,17.27"/><path d="M1448.66,754.27c0,4.26,3.07,9.02,11.11,9.02,10.31,0,21.13-8.43,21.13-17.16,0-5.86-4.96-9.13-11.11-9.13-9.63,0-21.13,8.14-21.13,17.27"/><path d="M1513.7,754.27c0,4.26,3.07,9.02,11.11,9.02,10.31,0,21.13-8.43,21.13-17.16,0-5.86-4.96-9.13-11.11-9.13-9.63,0-21.13,8.14-21.13,17.27"/><path d="M499.43,420.59c0,4.26,3.07,9.02,11.11,9.02,10.31,0,21.13-8.43,21.13-17.16,0-5.86-4.96-9.13-11.11-9.13-9.63,0-21.13,8.14-21.13,17.27"/><path d="M1578.75,754.27c0,4.26,3.07,9.02,11.11,9.02,10.31,0,21.13-8.43,21.13-17.16,0-5.86-4.96-9.13-11.11-9.13-9.63,0-21.13,8.14-21.13,17.27"/><path d="M1643.79,729.47c0,4.26,3.07,9.02,11.11,9.02,10.31,0,21.13-8.43,21.13-17.16,0-5.86-4.96-9.13-11.11-9.13-9.63,0-21.13,8.14-21.13,17.27"/><path d="M548.84,420.59c0,4.26,3.07,9.02,11.11,9.02,10.31,0,21.13-8.43,21.13-17.16,0-5.86-4.96-9.13-11.11-9.13-9.63,0-21.13,8.14-21.13,17.27"/><path d="M1708.83,729.47c0,4.26,3.07,9.02,11.11,9.02,10.31,0,21.13-8.43,21.13-17.16,0-5.86-4.96-9.13-11.11-9.13-9.63,0-21.13,8.14-21.13,17.27"/><path d="M1773.88,729.47c0,4.26,3.07,9.02,11.11,9.02,10.31,0,21.13-8.43,21.13-17.16,0-5.86-4.96-9.13-11.11-9.13-9.63,0-21.13,8.14-21.13,17.27"/><path d="M598.25,420.59c0,4.26,3.07,9.02,11.11,9.02,10.31,0,21.13-8.43,21.13-17.16,0-5.86-4.96-9.13-11.11-9.13-9.63,0-21.13,8.14-21.13,17.27"/><path d="M1838.92,729.47c0,4.26,3.07,9.02,11.11,9.02,10.31,0,21.13-8.43,21.13-17.16,0-5.86-4.96-9.13-11.11-9.13-9.63,0-21.13,8.14-21.13,17.27"/><path d="M1546.3,62.11c0,4.26,3.07,9.02,11.11,9.02,10.31,0,21.13-8.43,21.13-17.16,0-5.86-4.96-9.13-11.11-9.13-9.63,0-21.13,8.14-21.13,17.27"/><path d="M1903.97,741.87c0,4.26,3.07,9.02,11.11,9.02,10.31,0,21.13-8.43,21.13-17.16,0-5.86-4.96-9.13-11.11-9.13-9.63,0-21.13,8.14-21.13,17.27"/><path d="M647.65,420.59c0,4.26,3.07,9.02,11.11,9.02,10.31,0,21.13-8.43,21.13-17.16,0-5.86-4.96-9.13-11.11-9.13-9.63,0-21.13,8.14-21.13,17.27"/><path d="M1969.01,741.87c0,4.26,3.07,9.02,11.11,9.02,10.31,0,21.13-8.43,21.13-17.16,0-5.86-4.96-9.13-11.11-9.13-9.63,0-21.13,8.14-21.13,17.27"/><path d="M2034.06,741.87c0,4.26,3.07,9.02,11.11,9.02,10.31,0,21.13-8.43,21.13-17.16,0-5.86-4.96-9.13-11.11-9.13-9.63,0-21.13,8.14-21.13,17.27"/><path d="M697.06,408.19c0,4.26,3.07,9.02,11.11,9.02,10.31,0,21.13-8.43,21.13-17.16,0-5.86-4.96-9.13-11.11-9.13-9.63,0-21.13,8.14-21.13,17.27"/><path d="M2099.1,741.87c0,4.26,3.07,9.02,11.11,9.02,10.31,0,21.13-8.43,21.13-17.16,0-5.86-4.96-9.13-11.11-9.13-9.63,0-21.13,8.14-21.13,17.27"/><path d="M1595.79,62.11c0,4.26,3.07,9.02,11.11,9.02,10.31,0,21.13-8.43,21.13-17.16,0-5.86-4.96-9.13-11.11-9.13-9.63,0-21.13,8.14-21.13,17.27"/><path d="M2164.15,754.27c0,4.26,3.07,9.02,11.11,9.02,10.31,0,21.13-8.43,21.13-17.16,0-5.86-4.96-9.13-11.11-9.13-9.63,0-21.13,8.14-21.13,17.27"/><path d="M746.47,408.19c0,4.26,3.07,9.02,11.11,9.02,10.31,0,21.13-8.43,21.13-17.16,0-5.86-4.96-9.13-11.11-9.13-9.63,0-21.13,8.14-21.13,17.27"/><path d="M2229.19,754.27c0,4.26,3.07,9.02,11.11,9.02,10.31,0,21.13-8.43,21.13-17.16,0-5.86-4.96-9.13-11.11-9.13-9.63,0-21.13,8.14-21.13,17.27"/><path d="M351.29,99.31c0,4.26,3.07,9.02,11.11,9.02,10.31,0,21.13-8.43,21.13-17.16,0-5.86-4.96-9.13-11.11-9.13-9.63,0-21.13,8.14-21.13,17.27"/><path d="M2294.24,754.27c0,4.26,3.07,9.02,11.11,9.02,10.31,0,21.13-8.43,21.13-17.16,0-5.86-4.96-9.13-11.11-9.13-9.63,0-21.13,8.14-21.13,17.27"/><path d="M795.87,408.19c0,4.26,3.07,9.02,11.11,9.02,10.31,0,21.13-8.43,21.13-17.16,0-5.86-4.96-9.13-11.11-9.13-9.63,0-21.13,8.14-21.13,17.27"/><path d="M2359.28,754.27c0,4.26,3.07,9.02,11.11,9.02,10.31,0,21.13-8.43,21.13-17.16,0-5.86-4.96-9.13-11.11-9.13-9.63,0-21.13,8.14-21.13,17.27"/><path d="M2483.98,749.01c-13.69,0-18.55,6.94-18.55,13.39s4.87,13.39,18.55,13.39,18.45-6.94,18.45-13.39-4.76-13.39-18.45-13.39m.79,23.61c-2.77,0-4.67-.79-5.95-3.27s-3.07-8.93-3.18-11.52c-.2-2.68,.79-4.26,3.18-5.05,1.19-.4,2.77-.6,4.37-.6,2.67,0,4.46,.6,5.84,3.29,1.39,2.57,3.29,9.02,3.29,11.5,0,4.87-3.58,5.66-7.55,5.66"/><path d="M549.27,86.91c0,4.26,3.07,9.02,11.11,9.02,10.31,0,21.13-8.43,21.13-17.16,0-5.86-4.96-9.13-11.11-9.13-9.63,0-21.13,8.14-21.13,17.27"/><path d="M1645.29,62.11c0,4.26,3.07,9.02,11.11,9.02,10.31,0,21.13-8.43,21.13-17.16,0-5.86-4.96-9.13-11.11-9.13-9.63,0-21.13,8.14-21.13,17.27"/><path d="M30.8,504.51c0,6.56,4.96,15.19,18.35,15.19,4.67,0,8.74-1.19,12.31-3.38,5.36-3.77,6.74-10.32,6.74-16.57,0-3.86-.59-8.32-1.58-13.98-.29-1.98-.9-4.96-1.49-8.84,9.72-3.18,16.96-13.3,16.96-23.51,0-14.97-10.62-25.09-25.09-25.09-.99-5.95-1.98-11.81-2.77-17.36,10.42-11.02,17.65-23.42,17.65-39.18,0-9.04-2.77-16.37-4.37-19.95-2.37-5.05-5.25-8.53-7.04-8.53-.7,0-3.77,1.19-7.04,5.05-6.36,7.55-8.14,20.24-8.14,28.57,0,5.36,.5,10.23,2.19,21.34-.11,.09-5.27,5.35-7.35,7.04-9.04,8.34-21.53,20.43-21.53,40.28,0,18.54,16.17,33.12,34.63,33.12,2.87,0,5.55-.29,7.83-.7,1.89,9.53,3.08,16.48,3.08,21.73,0,10.32-5.36,15.78-15.38,15.78-2.39,0-4.46-.5-4.67-.5-.09-.11-.29-.2-.29-.29,0-.2,.2-.31,.5-.31,4.67-.79,9.32-4.76,9.32-11.1,0-5.36-4.06-11.02-11.5-11.02-6.94,0-11.31,5.66-11.31,12.2m20.74-132.43c.9-3.97,5.46-14.38,10.62-14.38,1.49,0,3.86,4.76,3.86,11.7,0,10.32-7.63,18.06-14.48,24.8-.59-3.97-1.08-7.83-1.08-12,0-3.67,.29-7.05,1.08-10.12m8.73,101.97c-1.98,.4-3.86,.6-5.75,.6-14.18,0-26.29-9.92-26.29-24.91,0-12.09,8.53-22.91,17.27-30.46,1.67-1.49,3.27-2.87,4.76-4.36,.88,5.35,1.58,10.01,2.28,14.09-9.04,2.68-15.17,12.2-15.17,21.53,0,6.94,5.46,16.46,13.39,16.46,.79,0,1.69-.4,1.69-1.29s-.99-1.39-2.19-2.19c-3.88-2.39-6.06-4.96-6.06-9.83,0-6.05,4.57-10.91,10.32-12.29l5.75,32.63m14.09-18.35c0,7.05-2.88,14.29-9.92,17.17-2.08-11.9-4.76-27.68-5.46-32.05,8.93,0,15.38,6.06,15.38,14.88"/><path d="M30.8,170.83c0,6.56,4.96,15.19,18.35,15.19,4.67,0,8.74-1.19,12.31-3.38,5.36-3.77,6.74-10.32,6.74-16.57,0-3.86-.59-8.32-1.58-13.98-.29-1.98-.9-4.96-1.49-8.84,9.72-3.18,16.96-13.3,16.96-23.51,0-14.97-10.62-25.09-25.09-25.09-.99-5.95-1.98-11.81-2.77-17.36,10.42-11.02,17.65-23.42,17.65-39.18,0-9.04-2.77-16.37-4.37-19.95-2.37-5.05-5.25-8.53-7.04-8.53-.7,0-3.77,1.19-7.04,5.05-6.36,7.55-8.14,20.24-8.14,28.57,0,5.36,.5,10.23,2.19,21.34-.11,.09-5.27,5.35-7.35,7.04-9.04,8.34-21.53,20.43-21.53,40.28,0,18.54,16.17,33.12,34.63,33.12,2.87,0,5.55-.29,7.83-.7,1.89,9.53,3.08,16.48,3.08,21.73,0,10.32-5.36,15.78-15.38,15.78-2.39,0-4.46-.5-4.67-.5-.09-.11-.29-.2-.29-.29,0-.2,.2-.31,.5-.31,4.67-.79,9.32-4.76,9.32-11.1,0-5.36-4.06-11.02-11.5-11.02-6.94,0-11.31,5.66-11.31,12.2M51.54,38.39c.9-3.97,5.46-14.38,10.62-14.38,1.49,0,3.86,4.76,3.86,11.7,0,10.32-7.63,18.06-14.48,24.8-.59-3.97-1.08-7.83-1.08-12,0-3.67,.29-7.05,1.08-10.12m8.73,101.97c-1.98,.4-3.86,.6-5.75,.6-14.18,0-26.29-9.92-26.29-24.91,0-12.09,8.53-22.91,17.27-30.46,1.67-1.49,3.27-2.87,4.76-4.36,.88,5.35,1.58,10.01,2.28,14.09-9.04,2.68-15.17,12.2-15.17,21.53,0,6.94,5.46,16.46,13.39,16.46,.79,0,1.69-.4,1.69-1.29s-.99-1.39-2.19-2.19c-3.88-2.39-6.06-4.96-6.06-9.83,0-6.05,4.57-10.91,10.32-12.29l5.75,32.63m14.09-18.35c0,7.05-2.88,14.29-9.92,17.17-2.08-11.9-4.76-27.68-5.46-32.05,8.93,0,15.38,6.06,15.38,14.88"/><path d="M30.8,838.19c0,6.56,4.96,15.19,18.35,15.19,4.67,0,8.74-1.19,12.31-3.38,5.36-3.77,6.74-10.32,6.74-16.57,0-3.86-.59-8.32-1.58-13.98-.29-1.98-.9-4.96-1.49-8.84,9.72-3.18,16.96-13.3,16.96-23.51,0-14.97-10.62-25.09-25.09-25.09-.99-5.95-1.98-11.81-2.77-17.36,10.42-11.02,17.65-23.42,17.65-39.18,0-9.04-2.77-16.37-4.37-19.95-2.37-5.05-5.25-8.53-7.04-8.53-.7,0-3.77,1.19-7.04,5.05-6.36,7.55-8.14,20.24-8.14,28.57,0,5.36,.5,10.23,2.19,21.34-.11,.09-5.27,5.35-7.35,7.04-9.04,8.34-21.53,20.43-21.53,40.28,0,18.54,16.17,33.12,34.63,33.12,2.87,0,5.55-.29,7.83-.7,1.89,9.53,3.08,16.48,3.08,21.73,0,10.32-5.36,15.78-15.38,15.78-2.39,0-4.46-.5-4.67-.5-.09-.11-.29-.2-.29-.29,0-.2,.2-.31,.5-.31,4.67-.79,9.32-4.76,9.32-11.1,0-5.36-4.06-11.02-11.5-11.02-6.94,0-11.31,5.66-11.31,12.2m20.74-132.43c.9-3.97,5.46-14.38,10.62-14.38,1.49,0,3.86,4.76,3.86,11.7,0,10.32-7.63,18.06-14.48,24.8-.59-3.97-1.08-7.83-1.08-12,0-3.67,.29-7.05,1.08-10.12m8.73,101.97c-1.98,.4-3.86,.6-5.75,.6-14.18,0-26.29-9.92-26.29-24.91,0-12.09,8.53-22.91,17.27-30.46,1.67-1.49,3.27-2.87,4.76-4.36,.88,5.35,1.58,10.01,2.28,14.09-9.04,2.68-15.17,12.2-15.17,21.53,0,6.94,5.46,16.46,13.39,16.46,.79,0,1.69-.4,1.69-1.29s-.99-1.39-2.19-2.19c-3.88-2.39-6.06-4.96-6.06-9.83,0-6.05,4.57-10.91,10.32-12.29l5.75,32.63m14.09-18.35c0,7.05-2.88,14.29-9.92,17.17-2.08-11.9-4.76-27.68-5.46-32.05,8.93,0,15.38,6.06,15.38,14.88"/><path d="M129.99,702.48c.6-.09,1.1-.79,1.1-1.4v-5.84c0-.99-.7-1.39-1.6-1.39l-3.27,.7v-14.79h-2.77v15.38l-8.83,1.8v-14h-2.77v14.59l-3.88,.79c-.59,.11-1.09,.79-1.09,1.39v5.75c0,1.09,.79,1.4,1.69,1.4l3.27-.7v16.37l-3.88,.79c-.59,.09-1.09,.79-1.09,1.4v5.75c0,1.09,.79,1.38,1.69,1.38l3.27-.68v14.77h2.77v-15.38l8.83-1.78v14h2.77v-14.59l3.77-.7c.6-.11,1.1-.79,1.1-1.39v-5.84c0-.99-.7-1.4-1.6-1.4l-3.27,.7v-16.37l3.77-.7m-15.38,3.07l8.83-1.78v16.37l-8.83,1.89v-16.48"/><path d="M157.16,739.68c.6-.09,1.1-.79,1.1-1.4v-5.84c0-.99-.7-1.39-1.6-1.39l-3.27,.7v-14.79h-2.77v15.38l-8.83,1.8v-14h-2.77v14.59l-3.88,.79c-.59,.11-1.09,.79-1.09,1.39v5.75c0,1.09,.79,1.4,1.69,1.4l3.27-.7v16.37l-3.88,.79c-.59,.09-1.09,.79-1.09,1.4v5.75c0,1.09,.79,1.38,1.69,1.38l3.27-.68v14.77h2.77v-15.38l8.83-1.78v14h2.77v-14.59l3.77-.7c.6-.11,1.1-.79,1.1-1.39v-5.84c0-.99-.7-1.4-1.6-1.4l-3.27,.7v-16.37l3.77-.7m-15.38,3.07l8.83-1.78v16.37l-8.83,1.89v-16.48"/><path d="M184.33,690.08c.6-.09,1.1-.79,1.1-1.4v-5.84c0-.99-.7-1.39-1.6-1.39l-3.27,.7v-14.79h-2.77v15.38l-8.83,1.8v-14h-2.77v14.59l-3.88,.79c-.59,.11-1.09,.79-1.09,1.39v5.75c0,1.09,.79,1.4,1.69,1.4l3.27-.7v16.37l-3.88,.79c-.59,.09-1.09,.79-1.09,1.4v5.75c0,1.09,.79,1.38,1.69,1.38l3.27-.68v14.77h2.77v-15.38l8.83-1.78v14h2.77v-14.59l3.77-.7c.6-.11,1.1-.79,1.1-1.39v-5.84c0-.99-.7-1.4-1.6-1.4l-3.27,.7v-16.37l3.77-.7m-15.38,3.07l8.83-1.78v16.37l-8.83,1.89v-16.48"/><path d="M211.52,727.28c.6-.09,1.1-.79,1.1-1.4v-5.84c0-.99-.7-1.39-1.6-1.39l-3.27,.7v-14.79h-2.77v15.38l-8.83,1.8v-14h-2.77v14.59l-3.88,.79c-.59,.11-1.09,.79-1.09,1.39v5.75c0,1.09,.79,1.4,1.69,1.4l3.27-.7v16.37l-3.88,.79c-.59,.09-1.09,.79-1.09,1.4v5.75c0,1.09,.79,1.38,1.69,1.38l3.27-.68v14.77h2.77v-15.38l8.83-1.78v14h2.77v-14.59l3.77-.7c.6-.11,1.1-.79,1.1-1.39v-5.84c0-.99-.7-1.4-1.6-1.4l-3.27,.7v-16.37l3.77-.7m-15.38,3.07l8.83-1.78v16.37l-8.83,1.89v-16.48"/><path d="M238.69,764.48c.6-.09,1.1-.79,1.1-1.4v-5.84c0-.99-.7-1.39-1.6-1.39l-3.27,.7v-14.79h-2.77v15.38l-8.83,1.8v-14h-2.77v14.59l-3.88,.79c-.59,.11-1.09,.79-1.09,1.39v5.75c0,1.09,.79,1.4,1.69,1.4l3.27-.7v16.37l-3.88,.79c-.59,.09-1.09,.79-1.09,1.4v5.75c0,1.09,.79,1.38,1.69,1.38l3.27-.68v14.77h2.77v-15.38l8.83-1.78v14h2.77v-14.59l3.77-.7c.6-.11,1.1-.79,1.1-1.39v-5.84c0-.99-.7-1.4-1.6-1.4l-3.27,.7v-16.37l3.77-.7m-15.38,3.07l8.83-1.78v16.37l-8.83,1.89v-16.48"/><path d="M129.99,35.12c.6-.09,1.1-.79,1.1-1.4v-5.84c0-.99-.7-1.39-1.6-1.39l-3.27,.7V12.4h-2.77v15.38l-8.83,1.8V15.58h-2.77v14.59l-3.88,.79c-.59,.11-1.09,.79-1.09,1.39v5.75c0,1.09,.79,1.4,1.69,1.4l3.27-.7v16.37l-3.88,.79c-.59,.09-1.09,.79-1.09,1.4v5.75c0,1.09,.79,1.38,1.69,1.38l3.27-.68v14.77h2.77v-15.38l8.83-1.78v14h2.77v-14.59l3.77-.7c.6-.11,1.1-.79,1.1-1.39v-5.84c0-.99-.7-1.4-1.6-1.4l-3.27,.7v-16.37l3.77-.7m-15.38,3.07l8.83-1.78v16.37l-8.83,1.89v-16.48"/><path d="M157.16,72.32c.6-.09,1.1-.79,1.1-1.4v-5.84c0-.99-.7-1.39-1.6-1.39l-3.27,.7v-14.79h-2.77v15.38l-8.83,1.8v-14h-2.77v14.59l-3.88,.79c-.59,.11-1.09,.79-1.09,1.39v5.75c0,1.09,.79,1.4,1.69,1.4l3.27-.7v16.37l-3.88,.79c-.59,.09-1.09,.79-1.09,1.4v5.75c0,1.09,.79,1.38,1.69,1.38l3.27-.68v14.77h2.77v-15.38l8.83-1.78v14h2.77v-14.59l3.77-.7c.6-.11,1.1-.79,1.1-1.39v-5.84c0-.99-.7-1.4-1.6-1.4l-3.27,.7v-16.37l3.77-.7m-15.38,3.07l8.83-1.78v16.37l-8.83,1.89v-16.48"/><path d="M184.33,22.72c.6-.09,1.1-.79,1.1-1.4v-5.84c0-.99-.7-1.39-1.6-1.39l-3.27,.7V0h-2.77V15.38l-8.83,1.8V3.18h-2.77v14.59l-3.88,.79c-.59,.11-1.09,.79-1.09,1.39v5.75c0,1.09,.79,1.4,1.69,1.4l3.27-.7v16.37l-3.88,.79c-.59,.09-1.09,.79-1.09,1.4v5.75c0,1.09,.79,1.38,1.69,1.38l3.27-.68v14.77h2.77v-15.38l8.83-1.78v14h2.77v-14.59l3.77-.7c.6-.11,1.1-.79,1.1-1.39v-5.84c0-.99-.7-1.4-1.6-1.4l-3.27,.7V23.42l3.77-.7m-15.38,3.07l8.83-1.78v16.37l-8.83,1.89V25.79"/><path d="M211.52,59.92c.6-.09,1.1-.79,1.1-1.4v-5.84c0-.99-.7-1.39-1.6-1.39l-3.27,.7v-14.79h-2.77v15.38l-8.83,1.8v-14h-2.77v14.59l-3.88,.79c-.59,.11-1.09,.79-1.09,1.39v5.75c0,1.09,.79,1.4,1.69,1.4l3.27-.7v16.37l-3.88,.79c-.59,.09-1.09,.79-1.09,1.4v5.75c0,1.09,.79,1.38,1.69,1.38l3.27-.68v14.77h2.77v-15.38l8.83-1.78v14h2.77v-14.59l3.77-.7c.6-.11,1.1-.79,1.1-1.39v-5.84c0-.99-.7-1.4-1.6-1.4l-3.27,.7v-16.37l3.77-.7m-15.38,3.07l8.83-1.78v16.37l-8.83,1.89v-16.48"/><path d="M238.69,97.12c.6-.09,1.1-.79,1.1-1.4v-5.84c0-.99-.7-1.39-1.6-1.39l-3.27,.7v-14.79h-2.77v15.38l-8.83,1.8v-14h-2.77v14.59l-3.88,.79c-.59,.11-1.09,.79-1.09,1.39v5.75c0,1.09,.79,1.4,1.69,1.4l3.27-.7v16.37l-3.88,.79c-.59,.09-1.09,.79-1.09,1.4v5.75c0,1.09,.79,1.38,1.69,1.38l3.27-.68v14.77h2.77v-15.38l8.83-1.78v14h2.77v-14.59l3.77-.7c.6-.11,1.1-.79,1.1-1.39v-5.84c0-.99-.7-1.4-1.6-1.4l-3.27,.7v-16.37l3.77-.7m-15.38,3.07l8.83-1.78v16.37l-8.83,1.89v-16.48"/><path d="M129.99,368.8c.6-.09,1.1-.79,1.1-1.4v-5.84c0-.99-.7-1.39-1.6-1.39l-3.27,.7v-14.79h-2.77v15.38l-8.83,1.8v-14h-2.77v14.59l-3.88,.79c-.59,.11-1.09,.79-1.09,1.39v5.75c0,1.09,.79,1.4,1.69,1.4l3.27-.7v16.37l-3.88,.79c-.59,.09-1.09,.79-1.09,1.4v5.75c0,1.09,.79,1.38,1.69,1.38l3.27-.68v14.77h2.77v-15.38l8.83-1.78v14h2.77v-14.59l3.77-.7c.6-.11,1.1-.79,1.1-1.39v-5.84c0-.99-.7-1.4-1.6-1.4l-3.27,.7v-16.37l3.77-.7m-15.38,3.07l8.83-1.78v16.37l-8.83,1.89v-16.48"/><path d="M157.16,406c.6-.09,1.1-.79,1.1-1.4v-5.84c0-.99-.7-1.39-1.6-1.39l-3.27,.7v-14.79h-2.77v15.38l-8.83,1.8v-14h-2.77v14.59l-3.88,.79c-.59,.11-1.09,.79-1.09,1.39v5.75c0,1.09,.79,1.4,1.69,1.4l3.27-.7v16.37l-3.88,.79c-.59,.09-1.09,.79-1.09,1.4v5.75c0,1.09,.79,1.38,1.69,1.38l3.27-.68v14.77h2.77v-15.38l8.83-1.78v14h2.77v-14.59l3.77-.7c.6-.11,1.1-.79,1.1-1.39v-5.84c0-.99-.7-1.4-1.6-1.4l-3.27,.7v-16.37l3.77-.7m-15.38,3.07l8.83-1.78v16.37l-8.83,1.89v-16.48"/><path d="M184.33,356.4c.6-.09,1.1-.79,1.1-1.4v-5.84c0-.99-.7-1.39-1.6-1.39l-3.27,.7v-14.79h-2.77v15.38l-8.83,1.8v-14h-2.77v14.59l-3.88,.79c-.59,.11-1.09,.79-1.09,1.39v5.75c0,1.09,.79,1.4,1.69,1.4l3.27-.7v16.37l-3.88,.79c-.59,.09-1.09,.79-1.09,1.4v5.75c0,1.09,.79,1.38,1.69,1.38l3.27-.68v14.77h2.77v-15.38l8.83-1.78v14h2.77v-14.59l3.77-.7c.6-.11,1.1-.79,1.1-1.39v-5.84c0-.99-.7-1.4-1.6-1.4l-3.27,.7v-16.37l3.77-.7m-15.38,3.07l8.83-1.78v16.37l-8.83,1.89v-16.48"/><path d="M211.52,393.6c.6-.09,1.1-.79,1.1-1.4v-5.84c0-.99-.7-1.39-1.6-1.39l-3.27,.7v-14.79h-2.77v15.38l-8.83,1.8v-14h-2.77v14.59l-3.88,.79c-.59,.11-1.09,.79-1.09,1.39v5.75c0,1.09,.79,1.4,1.69,1.4l3.27-.7v16.37l-3.88,.79c-.59,.09-1.09,.79-1.09,1.4v5.75c0,1.09,.79,1.38,1.69,1.38l3.27-.68v14.77h2.77v-15.38l8.83-1.78v14h2.77v-14.59l3.77-.7c.6-.11,1.1-.79,1.1-1.39v-5.84c0-.99-.7-1.4-1.6-1.4l-3.27,.7v-16.37l3.77-.7m-15.38,3.07l8.83-1.78v16.37l-8.83,1.89v-16.48"/><path d="M238.69,430.8c.6-.09,1.1-.79,1.1-1.4v-5.84c0-.99-.7-1.39-1.6-1.39l-3.27,.7v-14.79h-2.77v15.38l-8.83,1.8v-14h-2.77v14.59l-3.88,.79c-.59,.11-1.09,.79-1.09,1.39v5.75c0,1.09,.79,1.4,1.69,1.4l3.27-.7v16.37l-3.88,.79c-.59,.09-1.09,.79-1.09,1.4v5.75c0,1.09,.79,1.38,1.69,1.38l3.27-.68v14.77h2.77v-15.38l8.83-1.78v14h2.77v-14.59l3.77-.7c.6-.11,1.1-.79,1.1-1.39v-5.84c0-.99-.7-1.4-1.6-1.4l-3.27,.7v-16.37l3.77-.7m-15.38,3.07l8.83-1.78v16.37l-8.83,1.89v-16.48"/><path d="M2506.65,674.71c-9.32-10.12-17.56-10.71-22.71-10.71s-13.3,.59-22.63,10.71c-4.85,5.36-8.23,15.97-8.23,21.33,0,1.89,.4,3.18,1.4,3.18,2.77,0,1.38-8.54,9.72-16.97,7.33-7.33,17.16-7.44,19.55-7.44h.39c2.39,0,12.21,.11,19.55,7.44,8.34,8.43,6.94,16.97,9.72,16.97,.99,0,1.39-1.19,1.39-3.18,0-5.36-3.27-16.07-8.14-21.33m-29.56,18.94c0,3.78,3.07,6.85,6.85,6.85s6.84-3.07,6.84-6.85-3.07-6.84-6.84-6.84-6.85,3.07-6.85,6.84"/><path d="M609.69,20.71c-2.03,3.29-2.91,4.2-4.06,4.2-.55,0-.88-.36-.88-.98,0-.46,.19-1.27,.53-2.49l6.23-21-6.97,.53-.14,1.25h1.08c1.44,0,2,.31,2,1.1,0,.34-.11,.79-.31,1.53l-2.31,7.78c-.62-1.83-2-2.85-4.02-2.85-5.05,0-9.73,5.4-9.73,11.21,0,3.44,2.2,5.78,5.48,5.78,2.39,0,4.14-.99,5.67-3.27-.03,.28-.03,.64-.03,.78,0,1.61,.84,2.49,2.38,2.49,2.22,0,4.14-1.72,6.12-5.44l-1.05-.62m-8.75-9.35c1.72,0,2.98,1.33,2.98,3.16,0,3.17-2.25,10.59-6.31,10.59-1.89,0-3.11-1.5-3.11-3.78,0-3.31,2.38-9.97,6.44-9.97m28.88-1.04h-3.05l-1.64,5.59c-1.44,4.87-4.66,8.86-7.14,8.86-.84,0-1.5-.67-1.5-1.5,0-.47,.09-1.02,.38-2l3.44-11.49-6.75,.54-.11,1.25h.84c1.42,0,1.95,.32,1.95,1.12,0,.34-.11,.84-.28,1.5l-1.39,4.74q-1.09,3.5-1.09,4.57c0,1.93,1.33,3.22,3.33,3.22,2.45,0,4.44-1.42,6.52-4.65-.36,1.23-.42,1.71-.42,2.39,0,1.36,.94,2.31,2.23,2.31,2.14,0,3.86-1.44,6.34-5.25l-1.06-.64c-1.7,2.56-3.08,3.95-3.84,3.95-.31,0-.62-.37-.62-.83,0-.39,.14-1.06,.41-2.07l3.47-11.61"/><path d="M359.91,11.11c.56-.48,.88-.65,1.3-.65,.34,0,.62,.17,.91,.54,.56,.78,.77,.93,1.33,.93,.81,0,1.41-.68,1.41-1.55,0-1.02-.98-1.81-2.2-1.81s-2.17,.45-4,1.89c-1.08-.5-1.89-.68-3.01-.68-3.88,0-7.17,2.77-7.17,5.99,0,1.69,.67,2.84,2.17,3.64-1.61,.22-2.34,.45-3.16,1.16-.69,.56-1.14,1.5-1.14,2.34,0,1.19,.55,1.92,1.92,2.59-2.06,.46-4.49,1.33-4.49,3.89,0,3.5,4.62,3.93,7.17,3.93,3.47,0,5.47-.43,7.19-1.55,1.5-.99,2.38-2.49,2.38-4.13,0-3.54-3.75-3.96-6.44-4.14-3.12-.17-3.36-.2-3.86-.31-.88-.2-1.3-.62-1.3-1.22,0-.84,.84-1.4,2.11-1.4,.45,0,.97,.03,1.44,.11,1.42,.2,1.64,.23,2.51,.23,1.95,0,3.5-.48,4.72-1.47,1.41-1.08,2.28-2.83,2.28-4.44s-.7-2.9-2.06-3.89m-4.03,0c1.83,0,2.98,1.1,2.98,2.8,0,2.53-1.16,5.72-4.14,5.72-1.89,0-3.08-1.2-3.08-3.16,0-3.15,1.72-5.36,4.24-5.36m-4.27,15.02c1.58,0,4.09,.36,4.89,.67,.88,.38,1.3,.98,1.3,1.86,0,2.06-2.2,3.17-6.22,3.17-3.41,0-4.99-.83-4.99-2.69s1.83-3.01,5.02-3.01m31.73-15.81h-3.05l-1.64,5.59c-1.44,4.87-4.66,8.86-7.14,8.86-.84,0-1.5-.67-1.5-1.5,0-.47,.09-1.02,.38-2l3.44-11.49-6.75,.54-.11,1.25h.84c1.42,0,1.95,.32,1.95,1.12,0,.34-.11,.84-.28,1.5l-1.39,4.74q-1.09,3.5-1.09,4.57c0,1.93,1.33,3.22,3.33,3.22,2.45,0,4.44-1.42,6.51-4.65-.36,1.23-.42,1.71-.42,2.39,0,1.36,.94,2.31,2.23,2.31,2.14,0,3.86-1.44,6.34-5.25l-1.06-.64c-1.7,2.56-3.08,3.95-3.84,3.95-.31,0-.62-.37-.62-.83,0-.39,.14-1.06,.41-2.07l3.47-11.61"/><path d="M411.72,20.71c-2.03,3.29-2.91,4.2-4.06,4.2-.55,0-.88-.36-.88-.98,0-.46,.19-1.27,.53-2.49L413.55,.44l-6.97,.53-.14,1.25h1.08c1.44,0,2,.31,2,1.1,0,.34-.11,.79-.31,1.53l-2.31,7.78c-.62-1.83-2-2.85-4.02-2.85-5.05,0-9.73,5.4-9.73,11.21,0,3.44,2.2,5.78,5.48,5.78,2.39,0,4.14-.99,5.67-3.27-.03,.28-.03,.64-.03,.78,0,1.61,.84,2.49,2.38,2.49,2.22,0,4.14-1.72,6.12-5.44l-1.05-.62m-8.75-9.35c1.72,0,2.98,1.33,2.98,3.16,0,3.17-2.25,10.59-6.31,10.59-1.89,0-3.11-1.5-3.11-3.78,0-3.31,2.38-9.97,6.44-9.97m28.88-1.04h-3.05l-1.64,5.59c-1.44,4.87-4.66,8.86-7.14,8.86-.84,0-1.5-.67-1.5-1.5,0-.47,.09-1.02,.38-2l3.44-11.49-6.75,.54-.11,1.25h.84c1.42,0,1.95,.32,1.95,1.12,0,.34-.11,.84-.28,1.5l-1.39,4.74q-1.09,3.5-1.09,4.57c0,1.93,1.33,3.22,3.33,3.22,2.45,0,4.44-1.42,6.52-4.65-.36,1.23-.42,1.71-.42,2.39,0,1.36,.94,2.31,2.23,2.31,2.14,0,3.86-1.44,6.34-5.25l-1.06-.64c-1.7,2.56-3.08,3.95-3.84,3.95-.31,0-.62-.37-.62-.83,0-.39,.14-1.06,.41-2.07l3.47-11.61"/><path d="M510.7,20.71c-2.03,3.29-2.91,4.2-4.06,4.2-.55,0-.88-.36-.88-.98,0-.46,.19-1.27,.53-2.49l6.24-21-6.97,.53-.14,1.25h1.08c1.44,0,2,.31,2,1.1,0,.34-.11,.79-.31,1.53l-2.31,7.78c-.62-1.83-2-2.85-4.01-2.85-5.05,0-9.74,5.4-9.74,11.21,0,3.44,2.2,5.78,5.49,5.78,2.39,0,4.14-.99,5.67-3.27-.03,.28-.03,.64-.03,.78,0,1.61,.84,2.49,2.38,2.49,2.22,0,4.14-1.72,6.12-5.44l-1.05-.62m-8.75-9.35c1.72,0,2.99,1.33,2.99,3.16,0,3.17-2.25,10.59-6.31,10.59-1.89,0-3.11-1.5-3.11-3.78,0-3.31,2.38-9.97,6.44-9.97m28.88-1.04h-3.05l-1.64,5.59c-1.44,4.87-4.66,8.86-7.14,8.86-.84,0-1.5-.67-1.5-1.5,0-.47,.09-1.02,.38-2l3.44-11.49-6.75,.54-.11,1.25h.84c1.42,0,1.95,.32,1.95,1.12,0,.34-.11,.84-.28,1.5l-1.39,4.74q-1.09,3.5-1.09,4.57c0,1.93,1.33,3.22,3.33,3.22,2.45,0,4.44-1.42,6.51-4.65-.36,1.23-.42,1.71-.42,2.39,0,1.36,.94,2.31,2.23,2.31,2.14,0,3.86-1.44,6.34-5.25l-1.06-.64c-1.7,2.56-3.08,3.95-3.84,3.95-.31,0-.62-.37-.62-.83,0-.39,.14-1.06,.41-2.07l3.47-11.61"/><path d="M699.54,9.78c-3.69,0-6.34,2.24-6.34,5.29,0,1.51,.88,2.76,2.42,3.57,.56,.29,1.25,.6,2.72,1.19,2,.81,2.5,1.3,2.5,2.52,0,1.89-1.58,3.08-4,3.08-1.78,0-3.05-.49-3.05-1.19,0-.17,.11-.38,.25-.52,.66-.7,.73-.87,.73-1.51,0-.97-.77-1.75-1.78-1.75-1.16,0-2.03,.98-2.03,2.34,0,2.45,2.17,3.97,5.7,3.97,4.03,0,6.8-2.22,6.8-5.39,0-1.41-.64-2.6-1.75-3.36-.78-.53-1.12-.67-3.05-1.38-2.28-.79-2.88-1.36-2.88-2.73,0-1.61,1.53-2.8,3.56-2.8,1.38,0,2.28,.39,2.28,.96,0,.14-.06,.31-.17,.48-.5,.7-.56,.88-.56,1.41,0,.93,.73,1.61,1.81,1.61,1.2,0,2-.88,2-2.14,0-2.15-2.12-3.65-5.17-3.65m14.91-8.54c-1.05,0-1.89,.84-1.89,1.89s.84,1.89,1.86,1.89c1.08,0,1.92-.83,1.92-1.89s-.84-1.89-1.89-1.89m.62,8.54l-6.72,.54-.14,1.25h.84c1.44,0,2,.32,2,1.09,0,.34-.08,.73-.31,1.53l-2.03,6.83c-.67,2.25-.78,2.73-.78,3.53,0,1.23,1.06,2.17,2.39,2.17,3,0,5.08-3.11,6.55-5.39l-1.09-.59c-1.81,2.76-3.28,4.23-4.23,4.23-.34,0-.59-.31-.59-.73,0-.35,.14-.97,.42-1.96l3.7-12.5m11.97,0l-6.36,.54-.11,1.25h.84c1.39,0,1.95,.32,1.95,1.12,0,.31-.11,.84-.28,1.5l-3.56,12.05h3.05l1.42-4.94c1.58-5.36,4.77-9.41,7.39-9.41,.91,0,1.47,.49,1.47,1.36,0,.71-.28,2.18-.7,3.5l-2.8,9.49h3.05l1.5-5.08c.88-2.91,1.75-4.86,2.88-6.38,1.27-1.75,3.05-2.89,4.38-2.89,.88,0,1.36,.46,1.36,1.29,0,.5-.17,1.26-.48,2.25l-1.61,4.96c-.94,2.74-.98,2.94-.98,3.93,0,1.46,1.09,2.45,2.73,2.45,1.16,0,2.28-.56,3.47-1.69,.73-.7,1.22-1.33,2.66-3.42l-1.08-.75c-1.83,2.73-3.12,4.06-4.03,4.06-.39,0-.73-.37-.73-.87,0-.32,.11-.69,.42-1.71l2.2-6.79c.25-.77,.42-1.86,.42-2.63,0-1.86-1.38-3.19-3.25-3.19-2.5,0-4.73,1.61-6.77,4.94,.14-.67,.22-1.26,.22-1.69,0-1.84-1.47-3.25-3.41-3.25-2.2,0-3.81,1.22-6.27,4.74l1.02-4.74m25.72,12.65c-1.19,0-2.17,.98-2.17,2.17s.98,2.17,2.14,2.17c1.25,0,2.2-.95,2.2-2.17s-.98-2.17-2.17-2.17"/><path d="M312.73,20.71c-2.03,3.29-2.91,4.2-4.06,4.2-.55,0-.88-.36-.88-.98,0-.46,.19-1.27,.53-2.49L314.56,.44l-6.97,.53-.14,1.25h1.08c1.44,0,2,.31,2,1.1,0,.34-.11,.79-.31,1.53l-2.31,7.78c-.62-1.83-2-2.85-4.02-2.85-5.05,0-9.74,5.4-9.74,11.21,0,3.44,2.2,5.78,5.49,5.78,2.39,0,4.14-.99,5.67-3.27-.03,.28-.03,.64-.03,.78,0,1.61,.84,2.49,2.38,2.49,2.22,0,4.14-1.72,6.12-5.44l-1.05-.62m-8.75-9.35c1.72,0,2.98,1.33,2.98,3.16,0,3.17-2.25,10.59-6.31,10.59-1.89,0-3.11-1.5-3.11-3.78,0-3.31,2.38-9.97,6.44-9.97m28.88-1.04h-3.05l-1.64,5.59c-1.44,4.87-4.66,8.86-7.14,8.86-.84,0-1.5-.67-1.5-1.5,0-.47,.09-1.02,.38-2l3.44-11.49-6.75,.54-.11,1.25h.84c1.42,0,1.95,.32,1.95,1.12,0,.34-.11,.84-.28,1.5l-1.39,4.74q-1.09,3.5-1.09,4.57c0,1.93,1.33,3.22,3.33,3.22,2.45,0,4.44-1.42,6.52-4.65-.36,1.23-.42,1.71-.42,2.39,0,1.36,.94,2.31,2.23,2.31,2.14,0,3.86-1.44,6.34-5.25l-1.06-.64c-1.7,2.56-3.08,3.95-3.84,3.95-.31,0-.62-.37-.62-.83,0-.39,.14-1.06,.41-2.07l3.47-11.61"/><path d="M656.88,11.11c.56-.48,.88-.65,1.3-.65,.34,0,.62,.17,.91,.54,.56,.78,.77,.93,1.33,.93,.81,0,1.41-.68,1.41-1.55,0-1.02-.98-1.81-2.2-1.81s-2.17,.45-4,1.89c-1.08-.5-1.89-.68-3.01-.68-3.88,0-7.17,2.77-7.17,5.99,0,1.69,.67,2.84,2.17,3.64-1.61,.22-2.34,.45-3.16,1.16-.69,.56-1.14,1.5-1.14,2.34,0,1.19,.55,1.92,1.92,2.59-2.06,.46-4.49,1.33-4.49,3.89,0,3.5,4.62,3.93,7.17,3.93,3.47,0,5.47-.43,7.19-1.55,1.5-.99,2.38-2.49,2.38-4.13,0-3.54-3.75-3.96-6.44-4.14-3.12-.17-3.36-.2-3.86-.31-.88-.2-1.3-.62-1.3-1.22,0-.84,.84-1.4,2.11-1.4,.45,0,.97,.03,1.44,.11,1.42,.2,1.64,.23,2.51,.23,1.95,0,3.5-.48,4.72-1.47,1.41-1.08,2.28-2.83,2.28-4.44s-.7-2.9-2.06-3.89m-4.03,0c1.83,0,2.98,1.1,2.98,2.8,0,2.53-1.16,5.72-4.14,5.72-1.89,0-3.08-1.2-3.08-3.16,0-3.15,1.72-5.36,4.24-5.36m-4.27,15.02c1.58,0,4.09,.36,4.89,.67,.88,.38,1.3,.98,1.3,1.86,0,2.06-2.2,3.17-6.22,3.17-3.41,0-4.99-.83-4.99-2.69s1.83-3.01,5.02-3.01m31.73-15.81h-3.05l-1.64,5.59c-1.44,4.87-4.66,8.86-7.14,8.86-.84,0-1.5-.67-1.5-1.5,0-.47,.09-1.02,.38-2l3.44-11.49-6.75,.54-.11,1.25h.84c1.42,0,1.95,.32,1.95,1.12,0,.34-.11,.84-.28,1.5l-1.39,4.74q-1.09,3.5-1.09,4.57c0,1.93,1.33,3.22,3.33,3.22,2.45,0,4.44-1.42,6.51-4.65-.36,1.23-.42,1.71-.42,2.39,0,1.36,.94,2.31,2.23,2.31,2.14,0,3.86-1.44,6.34-5.25l-1.06-.64c-1.7,2.56-3.08,3.95-3.84,3.95-.31,0-.62-.37-.62-.83,0-.39,.14-1.06,.41-2.07l3.47-11.61"/><path d="M458.9,11.11c.56-.48,.88-.65,1.3-.65,.34,0,.62,.17,.91,.54,.56,.78,.77,.93,1.33,.93,.81,0,1.41-.68,1.41-1.55,0-1.02-.98-1.81-2.2-1.81s-2.17,.45-4,1.89c-1.08-.5-1.89-.68-3.02-.68-3.88,0-7.17,2.77-7.17,5.99,0,1.69,.67,2.84,2.17,3.64-1.61,.22-2.34,.45-3.16,1.16-.69,.56-1.14,1.5-1.14,2.34,0,1.19,.55,1.92,1.92,2.59-2.06,.46-4.48,1.33-4.48,3.89,0,3.5,4.62,3.93,7.17,3.93,3.47,0,5.47-.43,7.19-1.55,1.5-.99,2.38-2.49,2.38-4.13,0-3.54-3.75-3.96-6.44-4.14-3.12-.17-3.36-.2-3.86-.31-.88-.2-1.3-.62-1.3-1.22,0-.84,.84-1.4,2.11-1.4,.45,0,.97,.03,1.44,.11,1.42,.2,1.64,.23,2.52,.23,1.95,0,3.5-.48,4.72-1.47,1.41-1.08,2.28-2.83,2.28-4.44s-.7-2.9-2.06-3.89m-4.03,0c1.83,0,2.98,1.1,2.98,2.8,0,2.53-1.16,5.72-4.14,5.72-1.89,0-3.08-1.2-3.08-3.16,0-3.15,1.72-5.36,4.23-5.36m-4.27,15.02c1.58,0,4.09,.36,4.89,.67,.88,.38,1.3,.98,1.3,1.86,0,2.06-2.2,3.17-6.22,3.17-3.41,0-4.98-.83-4.98-2.69s1.83-3.01,5.02-3.01m31.73-15.81h-3.05l-1.64,5.59c-1.44,4.87-4.66,8.86-7.14,8.86-.84,0-1.5-.67-1.5-1.5,0-.47,.09-1.02,.38-2l3.44-11.49-6.75,.54-.11,1.25h.84c1.42,0,1.95,.32,1.95,1.12,0,.34-.11,.84-.28,1.5l-1.39,4.74q-1.09,3.5-1.09,4.57c0,1.93,1.33,3.22,3.33,3.22,2.45,0,4.44-1.42,6.52-4.65-.36,1.23-.42,1.71-.42,2.39,0,1.36,.94,2.31,2.23,2.31,2.14,0,3.86-1.44,6.34-5.25l-1.06-.64c-1.7,2.56-3.08,3.95-3.84,3.95-.31,0-.62-.37-.62-.83,0-.39,.14-1.06,.41-2.07l3.47-11.61"/><path d="M557.89,11.11c.56-.48,.88-.65,1.3-.65,.34,0,.62,.17,.91,.54,.56,.78,.77,.93,1.33,.93,.81,0,1.41-.68,1.41-1.55,0-1.02-.98-1.81-2.2-1.81s-2.17,.45-4,1.89c-1.08-.5-1.89-.68-3.02-.68-3.88,0-7.17,2.77-7.17,5.99,0,1.69,.67,2.84,2.17,3.64-1.61,.22-2.34,.45-3.16,1.16-.69,.56-1.14,1.5-1.14,2.34,0,1.19,.55,1.92,1.92,2.59-2.06,.46-4.48,1.33-4.48,3.89,0,3.5,4.62,3.93,7.17,3.93,3.47,0,5.47-.43,7.19-1.55,1.5-.99,2.38-2.49,2.38-4.13,0-3.54-3.75-3.96-6.44-4.14-3.12-.17-3.36-.2-3.86-.31-.88-.2-1.3-.62-1.3-1.22,0-.84,.84-1.4,2.11-1.4,.45,0,.97,.03,1.44,.11,1.42,.2,1.64,.23,2.52,.23,1.95,0,3.5-.48,4.72-1.47,1.41-1.08,2.28-2.83,2.28-4.44s-.7-2.9-2.06-3.89m-4.03,0c1.83,0,2.98,1.1,2.98,2.8,0,2.53-1.16,5.72-4.14,5.72-1.89,0-3.08-1.2-3.08-3.16,0-3.15,1.72-5.36,4.23-5.36m-4.27,15.02c1.58,0,4.09,.36,4.89,.67,.88,.38,1.3,.98,1.3,1.86,0,2.06-2.2,3.17-6.22,3.17-3.41,0-4.98-.83-4.98-2.69s1.83-3.01,5.02-3.01m31.73-15.81h-3.05l-1.64,5.59c-1.44,4.87-4.66,8.86-7.14,8.86-.84,0-1.5-.67-1.5-1.5,0-.47,.09-1.02,.38-2l3.44-11.49-6.75,.54-.11,1.25h.84c1.42,0,1.95,.32,1.95,1.12,0,.34-.11,.84-.28,1.5l-1.39,4.74q-1.09,3.5-1.09,4.57c0,1.93,1.33,3.22,3.33,3.22,2.45,0,4.44-1.42,6.52-4.65-.36,1.23-.42,1.71-.42,2.39,0,1.36,.94,2.31,2.23,2.31,2.14,0,3.86-1.44,6.34-5.25l-1.06-.64c-1.7,2.56-3.08,3.95-3.84,3.95-.31,0-.62-.37-.62-.83,0-.39,.14-1.06,.41-2.07l3.47-11.61"/><path d="M1149.04,490.82h150.71v12.4h-150.71v-12.4" fill-rule="evenodd"/><path d="M1149.04,472.22h150.71v12.4h-150.71v-12.4" fill-rule="evenodd"/><path d="M822.16,824.5h197.61v12.4h-197.61v-12.4" fill-rule="evenodd"/><path d="M822.16,805.9h197.61v12.4h-197.61v-12.4" fill-rule="evenodd"/><path d="M1998.89,138.54h150.96v12.4h-150.96v-12.4" fill-rule="evenodd"/><path d="M1998.89,119.94h150.96v12.4h-150.96v-12.4" fill-rule="evenodd"/><path d="M1082.34,830.7h197.61v12.4h-197.61v-12.4" fill-rule="evenodd"/><path d="M1082.34,812.1h197.61v12.4h-197.61v-12.4" fill-rule="evenodd"/><path d="M1346.67,472.22h150.7v12.4h-150.7v-12.4" fill-rule="evenodd"/><path d="M1346.67,453.62h150.7v12.4h-150.7v-12.4" fill-rule="evenodd"/><path d="M499.78,157.14h150.96v12.4h-150.96v-12.4" fill-rule="evenodd"/><path d="M499.78,138.54h150.96v12.4h-150.96v-12.4" fill-rule="evenodd"/><path d="M2196.87,132.34h150.96v12.4h-150.96v-12.4" fill-rule="evenodd"/><path d="M2196.87,113.74h150.96v12.4h-150.96v-12.4" fill-rule="evenodd"/><path d="M1544.3,466.02h150.7v12.4h-150.7v-12.4" fill-rule="evenodd"/><path d="M1544.3,447.42h150.7v12.4h-150.7v-12.4" fill-rule="evenodd"/><path d="M1383.61,824.5h197.62v12.4h-197.62v-12.4" fill-rule="evenodd"/><path d="M1383.61,805.9h197.62v12.4h-197.62v-12.4" fill-rule="evenodd"/><path d="M697.75,138.54h150.96v12.4h-150.96v-12.4" fill-rule="evenodd"/><path d="M697.75,119.94h150.96v12.4h-150.96v-12.4" fill-rule="evenodd"/><path d="M2394.84,113.74h150.97v12.4h-150.97v-12.4" fill-rule="evenodd"/><path d="M2394.84,95.14h150.97v12.4h-150.97v-12.4" fill-rule="evenodd"/><path d="M1643.79,799.7h197.61v12.4h-197.61v-12.4" fill-rule="evenodd"/><path d="M1643.79,781.1h197.61v12.4h-197.61v-12.4" fill-rule="evenodd"/><path d="M1741.93,490.82h150.7v12.4h-150.7v-12.4" fill-rule="evenodd"/><path d="M1741.93,472.22h150.7v12.4h-150.7v-12.4" fill-rule="evenodd"/><path d="M499.43,490.82h150.7v12.4h-150.7v-12.4" fill-rule="evenodd"/><path d="M499.43,472.22h150.7v12.4h-150.7v-12.4" fill-rule="evenodd"/><path d="M1903.97,805.9h197.61v12.4h-197.61v-12.4" fill-rule="evenodd"/><path d="M1903.97,787.3h197.61v12.4h-197.61v-12.4" fill-rule="evenodd"/><path d="M2592.82,138.54h150.96v12.4h-150.96v-12.4" fill-rule="evenodd"/><path d="M2592.82,119.94h150.96v12.4h-150.96v-12.4" fill-rule="evenodd"/><path d="M2026.04,354.42h150.7v12.4h-150.7v-12.4" fill-rule="evenodd"/><path d="M2026.04,373.02h150.7v12.4h-150.7v-12.4" fill-rule="evenodd"/><path d="M895.73,163.34h150.96v12.4h-150.96v-12.4" fill-rule="evenodd"/><path d="M895.73,144.74h150.96v12.4h-150.96v-12.4" fill-rule="evenodd"/><path d="M2164.15,824.5h197.61v12.4h-197.61v-12.4" fill-rule="evenodd"/><path d="M2164.15,805.9h197.61v12.4h-197.61v-12.4" fill-rule="evenodd"/><path d="M1348.32,138.54h150.96v12.4h-150.96v-12.4" fill-rule="evenodd"/><path d="M1348.32,119.94h150.96v12.4h-150.96v-12.4" fill-rule="evenodd"/><path d="M2197.82,497.02h150.7v12.4h-150.7v-12.4" fill-rule="evenodd"/><path d="M2197.82,478.42h150.7v12.4h-150.7v-12.4" fill-rule="evenodd"/><path d="M2622.83,354.42h150.7v12.4h-150.7v-12.4" fill-rule="evenodd"/><path d="M2622.83,373.02h150.7v12.4h-150.7v-12.4" fill-rule="evenodd"/><path d="M697.06,472.22h150.7v12.4h-150.7v-12.4" fill-rule="evenodd"/><path d="M697.06,453.62h150.7v12.4h-150.7v-12.4" fill-rule="evenodd"/><path d="M301.8,497.02h150.7v12.4h-150.7v-12.4" fill-rule="evenodd"/><path d="M301.8,478.42h150.7v12.4h-150.7v-12.4" fill-rule="evenodd"/><path d="M1546.3,132.34h150.96v12.4h-150.96v-12.4" fill-rule="evenodd"/><path d="M1546.3,113.74h150.96v12.4h-150.96v-12.4" fill-rule="evenodd"/><path d="M1150.35,157.14h150.96v12.4h-150.96v-12.4" fill-rule="evenodd"/><path d="M1150.35,138.54h150.96v12.4h-150.96v-12.4" fill-rule="evenodd"/><path d="M301.8,830.7h197.61v12.4h-197.61v-12.4" fill-rule="evenodd"/><path d="M301.8,812.1h197.61v12.4h-197.61v-12.4" fill-rule="evenodd"/><path d="M894.69,497.02h150.7v12.4h-150.7v-12.4" fill-rule="evenodd"/><path d="M894.69,478.42h150.7v12.4h-150.7v-12.4" fill-rule="evenodd"/><path d="M2395.45,490.82h150.7v12.4h-150.7v-12.4" fill-rule="evenodd"/><path d="M2395.45,472.22h150.7v12.4h-150.7v-12.4" fill-rule="evenodd"/><path d="M301.8,163.34h150.96v12.4h-150.96v-12.4" fill-rule="evenodd"/><path d="M301.8,144.74h150.96v12.4h-150.96v-12.4" fill-rule="evenodd"/><path d="M561.98,805.9h197.61v12.4h-197.61v-12.4" fill-rule="evenodd"/><path d="M561.98,787.3h197.61v12.4h-197.61v-12.4" fill-rule="evenodd"/><path d="M1744.27,157.14h150.97v12.4h-150.97v-12.4" fill-rule="evenodd"/><path d="M1744.27,138.54h150.97v12.4h-150.97v-12.4" fill-rule="evenodd"/></g></svg>