<?xml version="1.0" encoding="UTF-8"?><svg id="Ebene_2" xmlns="http://www.w3.org/2000/svg" viewBox="0 0 2815.2 853.38"><g id="Ebene_1-2"><line y1="45.54" x2="2815.2" y2="45.54" fill="none" stroke="#000" stroke-linejoin="bevel" stroke-width="2.73"/><line y1="70.34" x2="2815.2" y2="70.34" fill="none" stroke="#000" stroke-linejoin="bevel" stroke-width="2.73"/><line y1="95.14" x2="2815.2" y2="95.14" fill="none" stroke="#000" stroke-linejoin="bevel" stroke-width="2.73"/><line y1="119.94" x2="2815.2" y2="119.94" fill="none" stroke="#000" stroke-linejoin="bevel" stroke-width="2.73"/><line y1="144.74" x2="2815.2" y2="144.74" fill="none" stroke="#000" stroke-linejoin="bevel" stroke-width="2.73"/><line y1="379.22" x2="2815.2" y2="379.22" fill="none" stroke="#000" stroke-linejoin="bevel" stroke-width="2.73"/><line y1="404.02" x2="2815.2" y2="404.02" fill="none" stroke="#000" stroke-linejoin="bevel" stroke-width="2.73"/><line y1="428.82" x2="2815.2" y2="428.82" fill="none" stroke="#000" stroke-linejoin="bevel" stroke-width="2.73"/><line y1="453.62" x2="2815.2" y2="453.62" fill="none" stroke="#000" stroke-linejoin="bevel" stroke-width="2.73"/><line y1="478.42" x2="2815.2" y2="478.42" fill="none" stroke="#000" stroke-linejoin="bevel" stroke-width="2.73"/><line y1="712.9" x2="2815.2" y2="712.9" fill="none" stroke="#000" stroke-linejoin="bevel" stroke-width="2.73"/><line y1="737.7" x2="2815.2" y2="737.7" fill="none" stroke="#000" stroke-linejoin="bevel" stroke-width="2.73"/><line y1="762.5" x2="2815.2" y2="762.5" fill="none" stroke="#000" stroke-linejoin="bevel" stroke-width="2.73"/><line y1="787.3" x2="2815.2" y2="787.3" fill="none" stroke="#000" stroke-linejoin="bevel" stroke-width="2.73"/><line y1="812.1" x2="2815.2" y2="812.1" fill="none" stroke="#000" stroke-linejoin="bevel" stroke-width="2.73"/><line x1="2799.33" y1="711.54" x2="2799.33" y2="813.47" fill="none" stroke="#000" stroke-linejoin="bevel" stroke-width="4.46"/><line x1="2812.97" y1="711.54" x2="2812.97" y2="813.47" fill="none" stroke="#000" stroke-linejoin="bevel" stroke-width="4.46"/><line x1="1081.41" y1="44.18" x2="1081.41" y2="146.1" fill="none" stroke="#000" stroke-linejoin="bevel" stroke-width="4.46"/><line x1="1945.39" y1="377.86" x2="1945.39" y2="479.79" fill="none" stroke="#000" stroke-linejoin="bevel" stroke-width="4.46"/><line x1="1947.19" y1="44.18" x2="1947.19" y2="146.1" fill="none" stroke="#000" stroke-linejoin="bevel" stroke-width="4.46"/><line x1="2812.97" y1="44.18" x2="2812.97" y2="146.1" fill="none" stroke="#000" stroke-linejoin="bevel" stroke-width="4.46"/><line x1="1080.55" y1="377.86" x2="1080.55" y2="479.79" fill="none" stroke="#000" stroke-linejoin="bevel" stroke-width="4.46"/><line x1="2812.97" y1="377.86" x2="2812.97" y2="479.79" fill="none" stroke="#000" stroke-linejoin="bevel" stroke-width="4.46"/><line x1="1318.03" y1="711.54" x2="1318.03" y2="813.47" fill="none" stroke="#000" stroke-linejoin="bevel" stroke-width="4.46"/><line x1="2423.1" y1="711.54" x2="2423.1" y2="813.47" fill="none" stroke="#000" stroke-linejoin="bevel" stroke-width="4.46"/><line x1="453.92" y1="99.31" x2="453.92" y2="169.54" fill="none" stroke="#000" stroke-linejoin="bevel" stroke-width="2.48"/><line x1="430.36" y1="103.57" x2="430.36" y2="26.94" fill="none" stroke="#000" stroke-linejoin="bevel" stroke-width="2.48"/><line x1="379.72" y1="103.57" x2="379.72" y2="26.94" fill="none" stroke="#000" stroke-linejoin="bevel" stroke-width="2.48"/><line x1="329.08" y1="103.57" x2="329.08" y2="26.94" fill="none" stroke="#000" stroke-linejoin="bevel" stroke-width="2.48"/><line x1="278.43" y1="103.57" x2="278.43" y2="26.94" fill="none" stroke="#000" stroke-linejoin="bevel" stroke-width="2.48"/><line x1="504.57" y1="99.31" x2="504.57" y2="169.54" fill="none" stroke="#000" stroke-linejoin="bevel" stroke-width="2.48"/><line x1="555.21" y1="99.31" x2="555.21" y2="169.54" fill="none" stroke="#000" stroke-linejoin="bevel" stroke-width="2.48"/><line x1="605.85" y1="99.31" x2="605.85" y2="169.54" fill="none" stroke="#000" stroke-linejoin="bevel" stroke-width="2.48"/><line x1="656.49" y1="86.91" x2="656.49" y2="163.34" fill="none" stroke="#000" stroke-linejoin="bevel" stroke-width="2.48"/><line x1="707.14" y1="86.91" x2="707.14" y2="163.34" fill="none" stroke="#000" stroke-linejoin="bevel" stroke-width="2.48"/><line x1="757.78" y1="86.91" x2="757.78" y2="163.34" fill="none" stroke="#000" stroke-linejoin="bevel" stroke-width="2.48"/><line x1="808.42" y1="86.91" x2="808.42" y2="163.34" fill="none" stroke="#000" stroke-linejoin="bevel" stroke-width="2.48"/><line x1="888.81" y1="103.57" x2="888.81" y2="26.94" fill="none" stroke="#000" stroke-linejoin="bevel" stroke-width="2.48"/><line x1="939.46" y1="103.57" x2="939.46" y2="26.94" fill="none" stroke="#000" stroke-linejoin="bevel" stroke-width="2.48"/><line x1="990.1" y1="103.57" x2="990.1" y2="26.94" fill="none" stroke="#000" stroke-linejoin="bevel" stroke-width="2.48"/><line x1="1040.74" y1="103.57" x2="1040.74" y2="26.94" fill="none" stroke="#000" stroke-linejoin="bevel" stroke-width="2.48"/><line x1="1117.13" y1="99.31" x2="1117.13" y2="169.54" fill="none" stroke="#000" stroke-linejoin="bevel" stroke-width="2.48"/><line x1="1167.77" y1="99.31" x2="1167.77" y2="169.54" fill="none" stroke="#000" stroke-linejoin="bevel" stroke-width="2.48"/><line x1="1218.41" y1="99.31" x2="1218.41" y2="169.54" fill="none" stroke="#000" stroke-linejoin="bevel" stroke-width="2.48"/><line x1="1269.05" y1="99.31" x2="1269.05" y2="169.54" fill="none" stroke="#000" stroke-linejoin="bevel" stroke-width="2.48"/><line x1="1319.7" y1="86.91" x2="1319.7" y2="163.34" fill="none" stroke="#000" stroke-linejoin="bevel" stroke-width="2.48"/><line x1="1370.34" y1="86.91" x2="1370.34" y2="163.34" fill="none" stroke="#000" stroke-linejoin="bevel" stroke-width="2.48"/><line x1="1420.98" y1="86.91" x2="1420.98" y2="163.34" fill="none" stroke="#000" stroke-linejoin="bevel" stroke-width="2.48"/><line x1="1471.62" y1="86.91" x2="1471.62" y2="163.34" fill="none" stroke="#000" stroke-linejoin="bevel" stroke-width="2.48"/><line x1="1522.27" y1="74.51" x2="1522.27" y2="144.74" fill="none" stroke="#000" stroke-linejoin="bevel" stroke-width="2.48"/><line x1="1572.91" y1="74.51" x2="1572.91" y2="144.74" fill="none" stroke="#000" stroke-linejoin="bevel" stroke-width="2.48"/><line x1="1623.55" y1="74.51" x2="1623.55" y2="144.74" fill="none" stroke="#000" stroke-linejoin="bevel" stroke-width="2.48"/><line x1="1674.2" y1="74.51" x2="1674.2" y2="144.74" fill="none" stroke="#000" stroke-linejoin="bevel" stroke-width="2.48"/><line x1="1724.84" y1="99.31" x2="1724.84" y2="169.54" fill="none" stroke="#000" stroke-linejoin="bevel" stroke-width="2.48"/><line x1="1775.48" y1="99.31" x2="1775.48" y2="169.54" fill="none" stroke="#000" stroke-linejoin="bevel" stroke-width="2.48"/><line x1="1826.12" y1="99.31" x2="1826.12" y2="169.54" fill="none" stroke="#000" stroke-linejoin="bevel" stroke-width="2.48"/><line x1="1876.77" y1="99.31" x2="1876.77" y2="169.54" fill="none" stroke="#000" stroke-linejoin="bevel" stroke-width="2.48"/><line x1="1982.9" y1="86.91" x2="1982.9" y2="163.34" fill="none" stroke="#000" stroke-linejoin="bevel" stroke-width="2.48"/><line x1="2033.55" y1="86.91" x2="2033.55" y2="163.34" fill="none" stroke="#000" stroke-linejoin="bevel" stroke-width="2.48"/><line x1="2084.19" y1="86.91" x2="2084.19" y2="163.34" fill="none" stroke="#000" stroke-linejoin="bevel" stroke-width="2.48"/><line x1="2134.83" y1="86.91" x2="2134.83" y2="163.34" fill="none" stroke="#000" stroke-linejoin="bevel" stroke-width="2.48"/><line x1="2185.47" y1="74.51" x2="2185.47" y2="144.74" fill="none" stroke="#000" stroke-linejoin="bevel" stroke-width="2.48"/><line x1="2236.12" y1="74.51" x2="2236.12" y2="144.74" fill="none" stroke="#000" stroke-linejoin="bevel" stroke-width="2.48"/><line x1="2286.76" y1="74.51" x2="2286.76" y2="144.74" fill="none" stroke="#000" stroke-linejoin="bevel" stroke-width="2.48"/><line x1="2337.4" y1="74.51" x2="2337.4" y2="144.74" fill="none" stroke="#000" stroke-linejoin="bevel" stroke-width="2.48"/><line x1="2388.04" y1="62.11" x2="2388.04" y2="138.54" fill="none" stroke="#000" stroke-linejoin="bevel" stroke-width="2.48"/><line x1="2438.69" y1="62.11" x2="2438.69" y2="138.54" fill="none" stroke="#000" stroke-linejoin="bevel" stroke-width="2.48"/><line x1="2489.33" y1="62.11" x2="2489.33" y2="138.54" fill="none" stroke="#000" stroke-linejoin="bevel" stroke-width="2.48"/><line x1="2539.97" y1="62.11" x2="2539.97" y2="138.54" fill="none" stroke="#000" stroke-linejoin="bevel" stroke-width="2.48"/><line x1="2590.61" y1="86.91" x2="2590.61" y2="163.34" fill="none" stroke="#000" stroke-linejoin="bevel" stroke-width="2.48"/><line x1="2641.26" y1="86.91" x2="2641.26" y2="163.34" fill="none" stroke="#000" stroke-linejoin="bevel" stroke-width="2.48"/><line x1="2691.9" y1="86.91" x2="2691.9" y2="163.34" fill="none" stroke="#000" stroke-linejoin="bevel" stroke-width="2.48"/><line x1="2742.54" y1="86.91" x2="2742.54" y2="163.34" fill="none" stroke="#000" stroke-linejoin="bevel" stroke-width="2.48"/><line x1="278.43" y1="437.25" x2="278.43" y2="360.62" fill="none" stroke="#000" stroke-linejoin="bevel" stroke-width="2.48"/><line x1="329.02" y1="437.25" x2="329.02" y2="360.62" fill="none" stroke="#000" stroke-linejoin="bevel" stroke-width="2.48"/><line x1="379.6" y1="437.25" x2="379.6" y2="360.62" fill="none" stroke="#000" stroke-linejoin="bevel" stroke-width="2.48"/><line x1="430.18" y1="437.25" x2="430.18" y2="360.62" fill="none" stroke="#000" stroke-linejoin="bevel" stroke-width="2.48"/><line x1="453.74" y1="432.99" x2="453.74" y2="503.22" fill="none" stroke="#000" stroke-linejoin="bevel" stroke-width="2.48"/><line x1="504.32" y1="432.99" x2="504.32" y2="503.22" fill="none" stroke="#000" stroke-linejoin="bevel" stroke-width="2.48"/><line x1="554.9" y1="432.99" x2="554.9" y2="503.22" fill="none" stroke="#000" stroke-linejoin="bevel" stroke-width="2.48"/><line x1="605.48" y1="432.99" x2="605.48" y2="503.22" fill="none" stroke="#000" stroke-linejoin="bevel" stroke-width="2.48"/><line x1="656.06" y1="420.59" x2="656.06" y2="497.02" fill="none" stroke="#000" stroke-linejoin="bevel" stroke-width="2.48"/><line x1="706.64" y1="420.59" x2="706.64" y2="497.02" fill="none" stroke="#000" stroke-linejoin="bevel" stroke-width="2.48"/><line x1="757.22" y1="420.59" x2="757.22" y2="497.02" fill="none" stroke="#000" stroke-linejoin="bevel" stroke-width="2.48"/><line x1="807.8" y1="420.59" x2="807.8" y2="497.02" fill="none" stroke="#000" stroke-linejoin="bevel" stroke-width="2.48"/><line x1="888.13" y1="437.25" x2="888.13" y2="360.62" fill="none" stroke="#000" stroke-linejoin="bevel" stroke-width="2.48"/><line x1="938.71" y1="437.25" x2="938.71" y2="360.62" fill="none" stroke="#000" stroke-linejoin="bevel" stroke-width="2.48"/><line x1="989.29" y1="437.25" x2="989.29" y2="360.62" fill="none" stroke="#000" stroke-linejoin="bevel" stroke-width="2.48"/><line x1="1039.87" y1="437.25" x2="1039.87" y2="360.62" fill="none" stroke="#000" stroke-linejoin="bevel" stroke-width="2.48"/><line x1="1116.26" y1="432.99" x2="1116.26" y2="503.22" fill="none" stroke="#000" stroke-linejoin="bevel" stroke-width="2.48"/><line x1="1166.84" y1="432.99" x2="1166.84" y2="503.22" fill="none" stroke="#000" stroke-linejoin="bevel" stroke-width="2.48"/><line x1="1217.42" y1="432.99" x2="1217.42" y2="503.22" fill="none" stroke="#000" stroke-linejoin="bevel" stroke-width="2.48"/><line x1="1268" y1="432.99" x2="1268" y2="503.22" fill="none" stroke="#000" stroke-linejoin="bevel" stroke-width="2.48"/><line x1="1318.58" y1="420.59" x2="1318.58" y2="497.02" fill="none" stroke="#000" stroke-linejoin="bevel" stroke-width="2.48"/><line x1="1369.16" y1="420.59" x2="1369.16" y2="497.02" fill="none" stroke="#000" stroke-linejoin="bevel" stroke-width="2.48"/><line x1="1419.74" y1="420.59" x2="1419.74" y2="497.02" fill="none" stroke="#000" stroke-linejoin="bevel" stroke-width="2.48"/><line x1="1470.32" y1="420.59" x2="1470.32" y2="497.02" fill="none" stroke="#000" stroke-linejoin="bevel" stroke-width="2.48"/><line x1="1520.9" y1="408.19" x2="1520.9" y2="478.42" fill="none" stroke="#000" stroke-linejoin="bevel" stroke-width="2.48"/><line x1="1571.48" y1="408.19" x2="1571.48" y2="478.42" fill="none" stroke="#000" stroke-linejoin="bevel" stroke-width="2.48"/><line x1="1622.06" y1="408.19" x2="1622.06" y2="478.42" fill="none" stroke="#000" stroke-linejoin="bevel" stroke-width="2.48"/><line x1="1672.64" y1="408.19" x2="1672.64" y2="478.42" fill="none" stroke="#000" stroke-linejoin="bevel" stroke-width="2.48"/><line x1="1723.22" y1="432.99" x2="1723.22" y2="503.22" fill="none" stroke="#000" stroke-linejoin="bevel" stroke-width="2.48"/><line x1="1773.8" y1="432.99" x2="1773.8" y2="503.22" fill="none" stroke="#000" stroke-linejoin="bevel" stroke-width="2.48"/><line x1="1824.38" y1="432.99" x2="1824.38" y2="503.22" fill="none" stroke="#000" stroke-linejoin="bevel" stroke-width="2.48"/><line x1="1874.97" y1="432.99" x2="1874.97" y2="503.22" fill="none" stroke="#000" stroke-linejoin="bevel" stroke-width="2.48"/><line x1="2010.85" y1="449.65" x2="2010.85" y2="379.22" fill="none" stroke="#000" stroke-linejoin="bevel" stroke-width="2.48"/><line x1="2061.43" y1="449.65" x2="2061.43" y2="379.22" fill="none" stroke="#000" stroke-linejoin="bevel" stroke-width="2.48"/><line x1="2112.02" y1="449.65" x2="2112.02" y2="379.22" fill="none" stroke="#000" stroke-linejoin="bevel" stroke-width="2.48"/><line x1="2162.6" y1="449.65" x2="2162.6" y2="379.22" fill="none" stroke="#000" stroke-linejoin="bevel" stroke-width="2.48"/><line x1="2213.18" y1="437.25" x2="2213.18" y2="360.62" fill="none" stroke="#000" stroke-linejoin="bevel" stroke-width="2.48"/><line x1="2263.76" y1="437.25" x2="2263.76" y2="360.62" fill="none" stroke="#000" stroke-linejoin="bevel" stroke-width="2.48"/><line x1="2314.34" y1="437.25" x2="2314.34" y2="360.62" fill="none" stroke="#000" stroke-linejoin="bevel" stroke-width="2.48"/><line x1="2364.92" y1="437.25" x2="2364.92" y2="360.62" fill="none" stroke="#000" stroke-linejoin="bevel" stroke-width="2.48"/><line x1="2388.48" y1="432.99" x2="2388.48" y2="503.22" fill="none" stroke="#000" stroke-linejoin="bevel" stroke-width="2.48"/><line x1="2439.06" y1="432.99" x2="2439.06" y2="503.22" fill="none" stroke="#000" stroke-linejoin="bevel" stroke-width="2.48"/><line x1="2489.64" y1="432.99" x2="2489.64" y2="503.22" fill="none" stroke="#000" stroke-linejoin="bevel" stroke-width="2.48"/><line x1="2540.22" y1="432.99" x2="2540.22" y2="503.22" fill="none" stroke="#000" stroke-linejoin="bevel" stroke-width="2.48"/><line x1="2620.55" y1="449.65" x2="2620.55" y2="379.22" fill="none" stroke="#000" stroke-linejoin="bevel" stroke-width="2.48"/><line x1="2671.13" y1="449.65" x2="2671.13" y2="379.22" fill="none" stroke="#000" stroke-linejoin="bevel" stroke-width="2.48"/><line x1="2721.71" y1="449.65" x2="2721.71" y2="379.22" fill="none" stroke="#000" stroke-linejoin="bevel" stroke-width="2.48"/><line x1="2772.29" y1="449.65" x2="2772.29" y2="379.22" fill="none" stroke="#000" stroke-linejoin="bevel" stroke-width="2.48"/><line x1="278.43" y1="770.93" x2="278.43" y2="694.3" fill="none" stroke="#000" stroke-linejoin="bevel" stroke-width="2.48"/><line x1="345.03" y1="770.93" x2="345.03" y2="694.3" fill="none" stroke="#000" stroke-linejoin="bevel" stroke-width="2.48"/><line x1="411.63" y1="770.93" x2="411.63" y2="694.3" fill="none" stroke="#000" stroke-linejoin="bevel" stroke-width="2.48"/><line x1="478.22" y1="770.93" x2="478.22" y2="694.3" fill="none" stroke="#000" stroke-linejoin="bevel" stroke-width="2.48"/><line x1="515.06" y1="754.27" x2="515.06" y2="830.7" fill="none" stroke="#000" stroke-linejoin="bevel" stroke-width="2.48"/><line x1="581.66" y1="754.27" x2="581.66" y2="830.7" fill="none" stroke="#000" stroke-linejoin="bevel" stroke-width="2.48"/><line x1="648.25" y1="754.27" x2="648.25" y2="830.7" fill="none" stroke="#000" stroke-linejoin="bevel" stroke-width="2.48"/><line x1="714.85" y1="754.27" x2="714.85" y2="830.7" fill="none" stroke="#000" stroke-linejoin="bevel" stroke-width="2.48"/><line x1="781.45" y1="766.67" x2="781.45" y2="836.9" fill="none" stroke="#000" stroke-linejoin="bevel" stroke-width="2.48"/><line x1="848.04" y1="766.67" x2="848.04" y2="836.9" fill="none" stroke="#000" stroke-linejoin="bevel" stroke-width="2.48"/><line x1="914.63" y1="766.67" x2="914.63" y2="836.9" fill="none" stroke="#000" stroke-linejoin="bevel" stroke-width="2.48"/><line x1="981.23" y1="766.67" x2="981.23" y2="836.9" fill="none" stroke="#000" stroke-linejoin="bevel" stroke-width="2.48"/><line x1="1077.58" y1="770.93" x2="1077.58" y2="694.3" fill="none" stroke="#000" stroke-linejoin="bevel" stroke-width="2.48"/><line x1="1144.17" y1="770.93" x2="1144.17" y2="694.3" fill="none" stroke="#000" stroke-linejoin="bevel" stroke-width="2.48"/><line x1="1210.77" y1="770.93" x2="1210.77" y2="694.3" fill="none" stroke="#000" stroke-linejoin="bevel" stroke-width="2.48"/><line x1="1277.36" y1="770.93" x2="1277.36" y2="694.3" fill="none" stroke="#000" stroke-linejoin="bevel" stroke-width="2.48"/><line x1="1353.75" y1="766.67" x2="1353.75" y2="836.9" fill="none" stroke="#000" stroke-linejoin="bevel" stroke-width="2.48"/><line x1="1420.34" y1="766.67" x2="1420.34" y2="836.9" fill="none" stroke="#000" stroke-linejoin="bevel" stroke-width="2.48"/><line x1="1486.94" y1="766.67" x2="1486.94" y2="836.9" fill="none" stroke="#000" stroke-linejoin="bevel" stroke-width="2.48"/><line x1="1553.53" y1="766.67" x2="1553.53" y2="836.9" fill="none" stroke="#000" stroke-linejoin="bevel" stroke-width="2.48"/><line x1="1620.13" y1="741.87" x2="1620.13" y2="812.1" fill="none" stroke="#000" stroke-linejoin="bevel" stroke-width="2.48"/><line x1="1686.72" y1="741.87" x2="1686.72" y2="812.1" fill="none" stroke="#000" stroke-linejoin="bevel" stroke-width="2.48"/><line x1="1753.32" y1="741.87" x2="1753.32" y2="812.1" fill="none" stroke="#000" stroke-linejoin="bevel" stroke-width="2.48"/><line x1="1819.91" y1="741.87" x2="1819.91" y2="812.1" fill="none" stroke="#000" stroke-linejoin="bevel" stroke-width="2.48"/><line x1="1886.51" y1="754.27" x2="1886.51" y2="830.7" fill="none" stroke="#000" stroke-linejoin="bevel" stroke-width="2.48"/><line x1="1953.1" y1="754.27" x2="1953.1" y2="830.7" fill="none" stroke="#000" stroke-linejoin="bevel" stroke-width="2.48"/><line x1="2019.7" y1="754.27" x2="2019.7" y2="830.7" fill="none" stroke="#000" stroke-linejoin="bevel" stroke-width="2.48"/><line x1="2086.29" y1="754.27" x2="2086.29" y2="830.7" fill="none" stroke="#000" stroke-linejoin="bevel" stroke-width="2.48"/><line x1="2152.89" y1="766.67" x2="2152.89" y2="836.9" fill="none" stroke="#000" stroke-linejoin="bevel" stroke-width="2.48"/><line x1="2219.49" y1="766.67" x2="2219.49" y2="836.9" fill="none" stroke="#000" stroke-linejoin="bevel" stroke-width="2.48"/><line x1="2286.08" y1="766.67" x2="2286.08" y2="836.9" fill="none" stroke="#000" stroke-linejoin="bevel" stroke-width="2.48"/><line x1="2352.68" y1="766.67" x2="2352.68" y2="836.9" fill="none" stroke="#000" stroke-linejoin="bevel" stroke-width="2.48"/><path d="M247.44,111.71c0,4.26,3.07,9.02,11.11,9.02,10.31,0,21.13-8.43,21.13-17.16,0-5.86-4.96-9.13-11.11-9.13-9.63,0-21.13,8.14-21.13,17.27"/><path d="M298.09,111.71c0,4.26,3.07,9.02,11.11,9.02,10.31,0,21.13-8.43,21.13-17.16,0-5.86-4.96-9.13-11.11-9.13-9.63,0-21.13,8.14-21.13,17.27"/><path d="M348.73,111.71c0,4.26,3.07,9.02,11.11,9.02,10.31,0,21.13-8.43,21.13-17.16,0-5.86-4.96-9.13-11.11-9.13-9.63,0-21.13,8.14-21.13,17.27"/><path d="M399.37,111.71c0,4.26,3.07,9.02,11.11,9.02,10.31,0,21.13-8.43,21.13-17.16,0-5.86-4.96-9.13-11.11-9.13-9.63,0-21.13,8.14-21.13,17.27"/><path d="M452.68,99.31c0,4.26,3.07,9.02,11.11,9.02,10.31,0,21.13-8.43,21.13-17.16,0-5.86-4.96-9.13-11.11-9.13-9.63,0-21.13,8.14-21.13,17.27"/><path d="M503.33,99.31c0,4.26,3.07,9.02,11.11,9.02,10.31,0,21.13-8.43,21.13-17.16,0-5.86-4.96-9.13-11.11-9.13-9.63,0-21.13,8.14-21.13,17.27"/><path d="M553.97,99.31c0,4.26,3.07,9.02,11.11,9.02,10.31,0,21.13-8.43,21.13-17.16,0-5.86-4.96-9.13-11.11-9.13-9.63,0-21.13,8.14-21.13,17.27"/><path d="M604.61,99.31c0,4.26,3.07,9.02,11.11,9.02,10.31,0,21.13-8.43,21.13-17.16,0-5.86-4.96-9.13-11.11-9.13-9.63,0-21.13,8.14-21.13,17.27"/><path d="M655.25,86.91c0,4.26,3.07,9.02,11.11,9.02,10.31,0,21.13-8.43,21.13-17.16,0-5.86-4.96-9.13-11.11-9.13-9.63,0-21.13,8.14-21.13,17.27"/><path d="M705.9,86.91c0,4.26,3.07,9.02,11.11,9.02,10.31,0,21.13-8.43,21.13-17.16,0-5.86-4.96-9.13-11.11-9.13-9.63,0-21.13,8.14-21.13,17.27"/><path d="M756.54,86.91c0,4.26,3.07,9.02,11.11,9.02,10.31,0,21.13-8.43,21.13-17.16,0-5.86-4.96-9.13-11.11-9.13-9.63,0-21.13,8.14-21.13,17.27"/><path d="M807.18,86.91c0,4.26,3.07,9.02,11.11,9.02,10.31,0,21.13-8.43,21.13-17.16,0-5.86-4.96-9.13-11.11-9.13-9.63,0-21.13,8.14-21.13,17.27"/><path d="M857.82,111.71c0,4.26,3.07,9.02,11.11,9.02,10.31,0,21.13-8.43,21.13-17.16,0-5.86-4.96-9.13-11.11-9.13-9.63,0-21.13,8.14-21.13,17.27"/><path d="M908.46,111.71c0,4.26,3.07,9.02,11.11,9.02,10.31,0,21.13-8.43,21.13-17.16,0-5.86-4.96-9.13-11.11-9.13-9.63,0-21.13,8.14-21.13,17.27"/><path d="M959.11,111.71c0,4.26,3.07,9.02,11.11,9.02,10.31,0,21.13-8.43,21.13-17.16,0-5.86-4.96-9.13-11.11-9.13-9.63,0-21.13,8.14-21.13,17.27"/><path d="M1009.75,111.71c0,4.26,3.07,9.02,11.11,9.02,10.31,0,21.13-8.43,21.13-17.16,0-5.86-4.96-9.13-11.11-9.13-9.63,0-21.13,8.14-21.13,17.27"/><path d="M1115.89,99.31c0,4.26,3.07,9.02,11.11,9.02,10.31,0,21.13-8.43,21.13-17.16,0-5.86-4.96-9.13-11.11-9.13-9.63,0-21.13,8.14-21.13,17.27"/><path d="M1166.53,99.31c0,4.26,3.07,9.02,11.11,9.02,10.31,0,21.13-8.43,21.13-17.16,0-5.86-4.96-9.13-11.11-9.13-9.63,0-21.13,8.14-21.13,17.27"/><path d="M1217.17,99.31c0,4.26,3.07,9.02,11.11,9.02,10.31,0,21.13-8.43,21.13-17.16,0-5.86-4.96-9.13-11.11-9.13-9.63,0-21.13,8.14-21.13,17.27"/><path d="M1267.81,99.31c0,4.26,3.07,9.02,11.11,9.02,10.31,0,21.13-8.43,21.13-17.16,0-5.86-4.96-9.13-11.11-9.13-9.63,0-21.13,8.14-21.13,17.27"/><path d="M1318.46,86.91c0,4.26,3.07,9.02,11.11,9.02,10.31,0,21.13-8.43,21.13-17.16,0-5.86-4.96-9.13-11.11-9.13-9.63,0-21.13,8.14-21.13,17.27"/><path d="M1369.1,86.91c0,4.26,3.07,9.02,11.11,9.02,10.31,0,21.13-8.43,21.13-17.16,0-5.86-4.96-9.13-11.11-9.13-9.63,0-21.13,8.14-21.13,17.27"/><path d="M1419.74,86.91c0,4.26,3.07,9.02,11.11,9.02,10.31,0,21.13-8.43,21.13-17.16,0-5.86-4.96-9.13-11.11-9.13-9.63,0-21.13,8.14-21.13,17.27"/><path d="M1470.38,86.91c0,4.26,3.07,9.02,11.11,9.02,10.31,0,21.13-8.43,21.13-17.16,0-5.86-4.96-9.13-11.11-9.13-9.63,0-21.13,8.14-21.13,17.27"/><path d="M1521.03,74.51c0,4.26,3.07,9.02,11.11,9.02,10.31,0,21.13-8.43,21.13-17.16,0-5.86-4.96-9.13-11.11-9.13-9.63,0-21.13,8.14-21.13,17.27"/><path d="M1571.67,74.51c0,4.26,3.07,9.02,11.11,9.02,10.31,0,21.13-8.43,21.13-17.16,0-5.86-4.96-9.13-11.11-9.13-9.63,0-21.13,8.14-21.13,17.27"/><path d="M1622.31,74.51c0,4.26,3.07,9.02,11.11,9.02,10.31,0,21.13-8.43,21.13-17.16,0-5.86-4.96-9.13-11.11-9.13-9.63,0-21.13,8.14-21.13,17.27"/><path d="M1672.96,74.51c0,4.26,3.07,9.02,11.11,9.02,10.31,0,21.13-8.43,21.13-17.16,0-5.86-4.96-9.13-11.11-9.13-9.63,0-21.13,8.14-21.13,17.27"/><path d="M1723.6,99.31c0,4.26,3.07,9.02,11.11,9.02,10.31,0,21.13-8.43,21.13-17.16,0-5.86-4.96-9.13-11.11-9.13-9.63,0-21.13,8.14-21.13,17.27"/><path d="M1774.24,99.31c0,4.26,3.07,9.02,11.11,9.02,10.31,0,21.13-8.43,21.13-17.16,0-5.86-4.96-9.13-11.11-9.13-9.63,0-21.13,8.14-21.13,17.27"/><path d="M1824.88,99.31c0,4.26,3.07,9.02,11.11,9.02,10.31,0,21.13-8.43,21.13-17.16,0-5.86-4.96-9.13-11.11-9.13-9.63,0-21.13,8.14-21.13,17.27"/><path d="M1875.53,99.31c0,4.26,3.07,9.02,11.11,9.02,10.31,0,21.13-8.43,21.13-17.16,0-5.86-4.96-9.13-11.11-9.13-9.63,0-21.13,8.14-21.13,17.27"/><path d="M1981.66,86.91c0,4.26,3.07,9.02,11.11,9.02,10.31,0,21.13-8.43,21.13-17.16,0-5.86-4.96-9.13-11.11-9.13-9.63,0-21.13,8.14-21.13,17.27"/><path d="M2032.31,86.91c0,4.26,3.07,9.02,11.11,9.02,10.31,0,21.13-8.43,21.13-17.16,0-5.86-4.96-9.13-11.11-9.13-9.63,0-21.13,8.14-21.13,17.27"/><path d="M2082.95,86.91c0,4.26,3.07,9.02,11.11,9.02,10.31,0,21.13-8.43,21.13-17.16,0-5.86-4.96-9.13-11.11-9.13-9.63,0-21.13,8.14-21.13,17.27"/><path d="M2133.59,86.91c0,4.26,3.07,9.02,11.11,9.02,10.31,0,21.13-8.43,21.13-17.16,0-5.86-4.96-9.13-11.11-9.13-9.63,0-21.13,8.14-21.13,17.27"/><path d="M2184.23,74.51c0,4.26,3.07,9.02,11.11,9.02,10.31,0,21.13-8.43,21.13-17.16,0-5.86-4.96-9.13-11.11-9.13-9.63,0-21.13,8.14-21.13,17.27"/><path d="M2234.88,74.51c0,4.26,3.07,9.02,11.11,9.02,10.31,0,21.13-8.43,21.13-17.16,0-5.86-4.96-9.13-11.11-9.13-9.63,0-21.13,8.14-21.13,17.27"/><path d="M2285.52,74.51c0,4.26,3.07,9.02,11.11,9.02,10.31,0,21.13-8.43,21.13-17.16,0-5.86-4.96-9.13-11.11-9.13-9.63,0-21.13,8.14-21.13,17.27"/><path d="M2336.16,74.51c0,4.26,3.07,9.02,11.11,9.02,10.31,0,21.13-8.43,21.13-17.16,0-5.86-4.96-9.13-11.11-9.13-9.63,0-21.13,8.14-21.13,17.27"/><path d="M2386.8,62.11c0,4.26,3.07,9.02,11.11,9.02,10.31,0,21.13-8.43,21.13-17.16,0-5.86-4.96-9.13-11.11-9.13-9.63,0-21.13,8.14-21.13,17.27"/><path d="M2437.45,62.11c0,4.26,3.07,9.02,11.11,9.02,10.31,0,21.13-8.43,21.13-17.16,0-5.86-4.96-9.13-11.11-9.13-9.63,0-21.13,8.14-21.13,17.27"/><path d="M2488.09,62.11c0,4.26,3.07,9.02,11.11,9.02,10.31,0,21.13-8.43,21.13-17.16,0-5.86-4.96-9.13-11.11-9.13-9.63,0-21.13,8.14-21.13,17.27"/><path d="M2538.73,62.11c0,4.26,3.07,9.02,11.11,9.02,10.31,0,21.13-8.43,21.13-17.16,0-5.86-4.96-9.13-11.11-9.13-9.63,0-21.13,8.14-21.13,17.27"/><path d="M2589.37,86.91c0,4.26,3.07,9.02,11.11,9.02,10.31,0,21.13-8.43,21.13-17.16,0-5.86-4.96-9.13-11.11-9.13-9.63,0-21.13,8.14-21.13,17.27"/><path d="M2640.02,86.91c0,4.26,3.07,9.02,11.11,9.02,10.31,0,21.13-8.43,21.13-17.16,0-5.86-4.96-9.13-11.11-9.13-9.63,0-21.13,8.14-21.13,17.27"/><path d="M2690.66,86.91c0,4.26,3.07,9.02,11.11,9.02,10.31,0,21.13-8.43,21.13-17.16,0-5.86-4.96-9.13-11.11-9.13-9.63,0-21.13,8.14-21.13,17.27"/><path d="M2741.3,86.91c0,4.26,3.07,9.02,11.11,9.02,10.31,0,21.13-8.43,21.13-17.16,0-5.86-4.96-9.13-11.11-9.13-9.63,0-21.13,8.14-21.13,17.27"/><path d="M247.44,445.39c0,4.26,3.07,9.02,11.11,9.02,10.31,0,21.13-8.43,21.13-17.16,0-5.86-4.96-9.13-11.11-9.13-9.63,0-21.13,8.14-21.13,17.27"/><path d="M298.02,445.39c0,4.26,3.07,9.02,11.11,9.02,10.31,0,21.13-8.43,21.13-17.16,0-5.86-4.96-9.13-11.11-9.13-9.63,0-21.13,8.14-21.13,17.27"/><path d="M348.6,445.39c0,4.26,3.07,9.02,11.11,9.02,10.31,0,21.13-8.43,21.13-17.16,0-5.86-4.96-9.13-11.11-9.13-9.63,0-21.13,8.14-21.13,17.27"/><path d="M399.18,445.39c0,4.26,3.07,9.02,11.11,9.02,10.31,0,21.13-8.43,21.13-17.16,0-5.86-4.96-9.13-11.11-9.13-9.63,0-21.13,8.14-21.13,17.27"/><path d="M452.5,432.99c0,4.26,3.07,9.02,11.11,9.02,10.31,0,21.13-8.43,21.13-17.16,0-5.86-4.96-9.13-11.11-9.13-9.63,0-21.13,8.14-21.13,17.27"/><path d="M503.08,432.99c0,4.26,3.07,9.02,11.11,9.02,10.31,0,21.13-8.43,21.13-17.16,0-5.86-4.96-9.13-11.11-9.13-9.63,0-21.13,8.14-21.13,17.27"/><path d="M553.66,432.99c0,4.26,3.07,9.02,11.11,9.02,10.31,0,21.13-8.43,21.13-17.16,0-5.86-4.96-9.13-11.11-9.13-9.63,0-21.13,8.14-21.13,17.27"/><path d="M604.24,432.99c0,4.26,3.07,9.02,11.11,9.02,10.31,0,21.13-8.43,21.13-17.16,0-5.86-4.96-9.13-11.11-9.13-9.63,0-21.13,8.14-21.13,17.27"/><path d="M654.82,420.59c0,4.26,3.07,9.02,11.11,9.02,10.31,0,21.13-8.43,21.13-17.16,0-5.86-4.96-9.13-11.11-9.13-9.63,0-21.13,8.14-21.13,17.27"/><path d="M705.4,420.59c0,4.26,3.07,9.02,11.11,9.02,10.31,0,21.13-8.43,21.13-17.16,0-5.86-4.96-9.13-11.11-9.13-9.63,0-21.13,8.14-21.13,17.27"/><path d="M755.98,420.59c0,4.26,3.07,9.02,11.11,9.02,10.31,0,21.13-8.43,21.13-17.16,0-5.86-4.96-9.13-11.11-9.13-9.63,0-21.13,8.14-21.13,17.27"/><path d="M806.56,420.59c0,4.26,3.07,9.02,11.11,9.02,10.31,0,21.13-8.43,21.13-17.16,0-5.86-4.96-9.13-11.11-9.13-9.63,0-21.13,8.14-21.13,17.27"/><path d="M857.14,445.39c0,4.26,3.07,9.02,11.11,9.02,10.31,0,21.13-8.43,21.13-17.16,0-5.86-4.96-9.13-11.11-9.13-9.63,0-21.13,8.14-21.13,17.27"/><path d="M907.72,445.39c0,4.26,3.07,9.02,11.11,9.02,10.31,0,21.13-8.43,21.13-17.16,0-5.86-4.96-9.13-11.11-9.13-9.63,0-21.13,8.14-21.13,17.27"/><path d="M958.3,445.39c0,4.26,3.07,9.02,11.11,9.02,10.31,0,21.13-8.43,21.13-17.16,0-5.86-4.96-9.13-11.11-9.13-9.63,0-21.13,8.14-21.13,17.27"/><path d="M1008.88,445.39c0,4.26,3.07,9.02,11.11,9.02,10.31,0,21.13-8.43,21.13-17.16,0-5.86-4.96-9.13-11.11-9.13-9.63,0-21.13,8.14-21.13,17.27"/><path d="M1115.02,432.99c0,4.26,3.07,9.02,11.11,9.02,10.31,0,21.13-8.43,21.13-17.16,0-5.86-4.96-9.13-11.11-9.13-9.63,0-21.13,8.14-21.13,17.27"/><path d="M1165.6,432.99c0,4.26,3.07,9.02,11.11,9.02,10.31,0,21.13-8.43,21.13-17.16,0-5.86-4.96-9.13-11.11-9.13-9.63,0-21.13,8.14-21.13,17.27"/><path d="M1216.18,432.99c0,4.26,3.07,9.02,11.11,9.02,10.31,0,21.13-8.43,21.13-17.16,0-5.86-4.96-9.13-11.11-9.13-9.63,0-21.13,8.14-21.13,17.27"/><path d="M1266.76,432.99c0,4.26,3.07,9.02,11.11,9.02,10.31,0,21.13-8.43,21.13-17.16,0-5.86-4.96-9.13-11.11-9.13-9.63,0-21.13,8.14-21.13,17.27"/><path d="M1317.34,420.59c0,4.26,3.07,9.02,11.11,9.02,10.31,0,21.13-8.43,21.13-17.16,0-5.86-4.96-9.13-11.11-9.13-9.63,0-21.13,8.14-21.13,17.27"/><path d="M1367.92,420.59c0,4.26,3.07,9.02,11.11,9.02,10.31,0,21.13-8.43,21.13-17.16,0-5.86-4.96-9.13-11.11-9.13-9.63,0-21.13,8.14-21.13,17.27"/><path d="M1418.5,420.59c0,4.26,3.07,9.02,11.11,9.02,10.31,0,21.13-8.43,21.13-17.16,0-5.86-4.96-9.13-11.11-9.13-9.63,0-21.13,8.14-21.13,17.27"/><path d="M1469.08,420.59c0,4.26,3.07,9.02,11.11,9.02,10.31,0,21.13-8.43,21.13-17.16,0-5.86-4.96-9.13-11.11-9.13-9.63,0-21.13,8.14-21.13,17.27"/><path d="M1519.66,408.19c0,4.26,3.07,9.02,11.11,9.02,10.31,0,21.13-8.43,21.13-17.16,0-5.86-4.96-9.13-11.11-9.13-9.63,0-21.13,8.14-21.13,17.27"/><path d="M1570.24,408.19c0,4.26,3.07,9.02,11.11,9.02,10.31,0,21.13-8.43,21.13-17.16,0-5.86-4.96-9.13-11.11-9.13-9.63,0-21.13,8.14-21.13,17.27"/><path d="M1620.82,408.19c0,4.26,3.07,9.02,11.11,9.02,10.31,0,21.13-8.43,21.13-17.16,0-5.86-4.96-9.13-11.11-9.13-9.63,0-21.13,8.14-21.13,17.27"/><path d="M1671.4,408.19c0,4.26,3.07,9.02,11.11,9.02,10.31,0,21.13-8.43,21.13-17.16,0-5.86-4.96-9.13-11.11-9.13-9.63,0-21.13,8.14-21.13,17.27"/><path d="M1721.98,432.99c0,4.26,3.07,9.02,11.11,9.02,10.31,0,21.13-8.43,21.13-17.16,0-5.86-4.96-9.13-11.11-9.13-9.63,0-21.13,8.14-21.13,17.27"/><path d="M1772.56,432.99c0,4.26,3.07,9.02,11.11,9.02,10.31,0,21.13-8.43,21.13-17.16,0-5.86-4.96-9.13-11.11-9.13-9.63,0-21.13,8.14-21.13,17.27"/><path d="M1823.14,432.99c0,4.26,3.07,9.02,11.11,9.02,10.31,0,21.13-8.43,21.13-17.16,0-5.86-4.96-9.13-11.11-9.13-9.63,0-21.13,8.14-21.13,17.27"/><path d="M1873.73,432.99c0,4.26,3.07,9.02,11.11,9.02,10.31,0,21.13-8.43,21.13-17.16,0-5.86-4.96-9.13-11.11-9.13-9.63,0-21.13,8.14-21.13,17.27"/><path d="M1979.86,457.79c0,4.26,3.07,9.02,11.11,9.02,10.31,0,21.13-8.43,21.13-17.16,0-5.86-4.96-9.13-11.11-9.13-9.63,0-21.13,8.14-21.13,17.27"/><path d="M2030.44,457.79c0,4.26,3.07,9.02,11.11,9.02,10.31,0,21.13-8.43,21.13-17.16,0-5.86-4.96-9.13-11.11-9.13-9.63,0-21.13,8.14-21.13,17.27"/><path d="M2081.02,457.79c0,4.26,3.07,9.02,11.11,9.02,10.31,0,21.13-8.43,21.13-17.16,0-5.86-4.96-9.13-11.11-9.13-9.63,0-21.13,8.14-21.13,17.27"/><path d="M2131.6,457.79c0,4.26,3.07,9.02,11.11,9.02,10.31,0,21.13-8.43,21.13-17.16,0-5.86-4.96-9.13-11.11-9.13-9.63,0-21.13,8.14-21.13,17.27"/><path d="M2182.18,445.39c0,4.26,3.07,9.02,11.11,9.02,10.31,0,21.13-8.43,21.13-17.16,0-5.86-4.96-9.13-11.11-9.13-9.63,0-21.13,8.14-21.13,17.27"/><path d="M2232.76,445.39c0,4.26,3.07,9.02,11.11,9.02,10.31,0,21.13-8.43,21.13-17.16,0-5.86-4.96-9.13-11.11-9.13-9.63,0-21.13,8.14-21.13,17.27"/><path d="M2283.35,445.39c0,4.26,3.07,9.02,11.11,9.02,10.31,0,21.13-8.43,21.13-17.16,0-5.86-4.96-9.13-11.11-9.13-9.63,0-21.13,8.14-21.13,17.27"/><path d="M2333.93,445.39c0,4.26,3.07,9.02,11.11,9.02,10.31,0,21.13-8.43,21.13-17.16,0-5.86-4.96-9.13-11.11-9.13-9.63,0-21.13,8.14-21.13,17.27"/><path d="M2387.24,432.99c0,4.26,3.07,9.02,11.11,9.02,10.31,0,21.13-8.43,21.13-17.16,0-5.86-4.96-9.13-11.11-9.13-9.63,0-21.13,8.14-21.13,17.27"/><path d="M2437.82,432.99c0,4.26,3.07,9.02,11.11,9.02,10.31,0,21.13-8.43,21.13-17.16,0-5.86-4.96-9.13-11.11-9.13-9.63,0-21.13,8.14-21.13,17.27"/><path d="M2488.4,432.99c0,4.26,3.07,9.02,11.11,9.02,10.31,0,21.13-8.43,21.13-17.16,0-5.86-4.96-9.13-11.11-9.13-9.63,0-21.13,8.14-21.13,17.27"/><path d="M2538.98,432.99c0,4.26,3.07,9.02,11.11,9.02,10.31,0,21.13-8.43,21.13-17.16,0-5.86-4.96-9.13-11.11-9.13-9.63,0-21.13,8.14-21.13,17.27"/><path d="M2589.56,457.79c0,4.26,3.07,9.02,11.11,9.02,10.31,0,21.13-8.43,21.13-17.16,0-5.86-4.96-9.13-11.11-9.13-9.63,0-21.13,8.14-21.13,17.27"/><path d="M2640.14,457.79c0,4.26,3.07,9.02,11.11,9.02,10.31,0,21.13-8.43,21.13-17.16,0-5.86-4.96-9.13-11.11-9.13-9.63,0-21.13,8.14-21.13,17.27"/><path d="M2690.72,457.79c0,4.26,3.07,9.02,11.11,9.02,10.31,0,21.13-8.43,21.13-17.16,0-5.86-4.96-9.13-11.11-9.13-9.63,0-21.13,8.14-21.13,17.27"/><path d="M2741.3,457.79c0,4.26,3.07,9.02,11.11,9.02,10.31,0,21.13-8.43,21.13-17.16,0-5.86-4.96-9.13-11.11-9.13-9.63,0-21.13,8.14-21.13,17.27"/><path d="M247.44,779.07c0,4.26,3.07,9.02,11.11,9.02,10.31,0,21.13-8.43,21.13-17.16,0-5.86-4.96-9.13-11.11-9.13-9.63,0-21.13,8.14-21.13,17.27"/><path d="M314.04,779.07c0,4.26,3.07,9.02,11.11,9.02,10.31,0,21.13-8.43,21.13-17.16,0-5.86-4.96-9.13-11.11-9.13-9.63,0-21.13,8.14-21.13,17.27"/><path d="M380.63,779.07c0,4.26,3.07,9.02,11.11,9.02,10.31,0,21.13-8.43,21.13-17.16,0-5.86-4.96-9.13-11.11-9.13-9.63,0-21.13,8.14-21.13,17.27"/><path d="M447.23,779.07c0,4.26,3.07,9.02,11.11,9.02,10.31,0,21.13-8.43,21.13-17.16,0-5.86-4.96-9.13-11.11-9.13-9.63,0-21.13,8.14-21.13,17.27"/><path d="M513.82,754.27c0,4.26,3.07,9.02,11.11,9.02,10.31,0,21.13-8.43,21.13-17.16,0-5.86-4.96-9.13-11.11-9.13-9.63,0-21.13,8.14-21.13,17.27"/><path d="M580.42,754.27c0,4.26,3.07,9.02,11.11,9.02,10.31,0,21.13-8.43,21.13-17.16,0-5.86-4.96-9.13-11.11-9.13-9.63,0-21.13,8.14-21.13,17.27"/><path d="M647.01,754.27c0,4.26,3.07,9.02,11.11,9.02,10.31,0,21.13-8.43,21.13-17.16,0-5.86-4.96-9.13-11.11-9.13-9.63,0-21.13,8.14-21.13,17.27"/><path d="M713.61,754.27c0,4.26,3.07,9.02,11.11,9.02,10.31,0,21.13-8.43,21.13-17.16,0-5.86-4.96-9.13-11.11-9.13-9.63,0-21.13,8.14-21.13,17.27"/><path d="M780.2,766.67c0,4.26,3.07,9.02,11.11,9.02,10.31,0,21.13-8.43,21.13-17.16,0-5.86-4.96-9.13-11.11-9.13-9.63,0-21.13,8.14-21.13,17.27"/><path d="M846.8,766.67c0,4.26,3.07,9.02,11.11,9.02,10.31,0,21.13-8.43,21.13-17.16,0-5.86-4.96-9.13-11.11-9.13-9.63,0-21.13,8.14-21.13,17.27"/><path d="M913.39,766.67c0,4.26,3.07,9.02,11.11,9.02,10.31,0,21.13-8.43,21.13-17.16,0-5.86-4.96-9.13-11.11-9.13-9.63,0-21.13,8.14-21.13,17.27"/><path d="M979.99,766.67c0,4.26,3.07,9.02,11.11,9.02,10.31,0,21.13-8.43,21.13-17.16,0-5.86-4.96-9.13-11.11-9.13-9.63,0-21.13,8.14-21.13,17.27"/><path d="M1046.58,779.07c0,4.26,3.07,9.02,11.11,9.02,10.31,0,21.13-8.43,21.13-17.16,0-5.86-4.96-9.13-11.11-9.13-9.63,0-21.13,8.14-21.13,17.27"/><path d="M1113.18,779.07c0,4.26,3.07,9.02,11.11,9.02,10.31,0,21.13-8.43,21.13-17.16,0-5.86-4.96-9.13-11.11-9.13-9.63,0-21.13,8.14-21.13,17.27"/><path d="M1179.77,779.07c0,4.26,3.07,9.02,11.11,9.02,10.31,0,21.13-8.43,21.13-17.16,0-5.86-4.96-9.13-11.11-9.13-9.63,0-21.13,8.14-21.13,17.27"/><path d="M1246.37,779.07c0,4.26,3.07,9.02,11.11,9.02,10.31,0,21.13-8.43,21.13-17.16,0-5.86-4.96-9.13-11.11-9.13-9.63,0-21.13,8.14-21.13,17.27"/><path d="M1352.51,766.67c0,4.26,3.07,9.02,11.11,9.02,10.31,0,21.13-8.43,21.13-17.16,0-5.86-4.96-9.13-11.11-9.13-9.63,0-21.13,8.14-21.13,17.27"/><path d="M1419.1,766.67c0,4.26,3.07,9.02,11.11,9.02,10.31,0,21.13-8.43,21.13-17.16,0-5.86-4.96-9.13-11.11-9.13-9.63,0-21.13,8.14-21.13,17.27"/><path d="M1485.7,766.67c0,4.26,3.07,9.02,11.11,9.02,10.31,0,21.13-8.43,21.13-17.16,0-5.86-4.96-9.13-11.11-9.13-9.63,0-21.13,8.14-21.13,17.27"/><path d="M1552.29,766.67c0,4.26,3.07,9.02,11.11,9.02,10.31,0,21.13-8.43,21.13-17.16,0-5.86-4.96-9.13-11.11-9.13-9.63,0-21.13,8.14-21.13,17.27"/><path d="M1618.89,741.87c0,4.26,3.07,9.02,11.11,9.02,10.31,0,21.13-8.43,21.13-17.16,0-5.86-4.96-9.13-11.11-9.13-9.63,0-21.13,8.14-21.13,17.27"/><path d="M1685.48,741.87c0,4.26,3.07,9.02,11.11,9.02,10.31,0,21.13-8.43,21.13-17.16,0-5.86-4.96-9.13-11.11-9.13-9.63,0-21.13,8.14-21.13,17.27"/><path d="M1752.08,741.87c0,4.26,3.07,9.02,11.11,9.02,10.31,0,21.13-8.43,21.13-17.16,0-5.86-4.96-9.13-11.11-9.13-9.63,0-21.13,8.14-21.13,17.27"/><path d="M1818.67,741.87c0,4.26,3.07,9.02,11.11,9.02,10.31,0,21.13-8.43,21.13-17.16,0-5.86-4.96-9.13-11.11-9.13-9.63,0-21.13,8.14-21.13,17.27"/><path d="M1885.27,754.27c0,4.26,3.07,9.02,11.11,9.02,10.31,0,21.13-8.43,21.13-17.16,0-5.86-4.96-9.13-11.11-9.13-9.63,0-21.13,8.14-21.13,17.27"/><path d="M1951.86,754.27c0,4.26,3.07,9.02,11.11,9.02,10.31,0,21.13-8.43,21.13-17.16,0-5.86-4.96-9.13-11.11-9.13-9.63,0-21.13,8.14-21.13,17.27"/><path d="M2018.46,754.27c0,4.26,3.07,9.02,11.11,9.02,10.31,0,21.13-8.43,21.13-17.16,0-5.86-4.96-9.13-11.11-9.13-9.63,0-21.13,8.14-21.13,17.27"/><path d="M2085.05,754.27c0,4.26,3.07,9.02,11.11,9.02,10.31,0,21.13-8.43,21.13-17.16,0-5.86-4.96-9.13-11.11-9.13-9.63,0-21.13,8.14-21.13,17.27"/><path d="M2151.65,766.67c0,4.26,3.07,9.02,11.11,9.02,10.31,0,21.13-8.43,21.13-17.16,0-5.86-4.96-9.13-11.11-9.13-9.63,0-21.13,8.14-21.13,17.27"/><path d="M2218.25,766.67c0,4.26,3.07,9.02,11.11,9.02,10.31,0,21.13-8.43,21.13-17.16,0-5.86-4.96-9.13-11.11-9.13-9.63,0-21.13,8.14-21.13,17.27"/><path d="M2284.84,766.67c0,4.26,3.07,9.02,11.11,9.02,10.31,0,21.13-8.43,21.13-17.16,0-5.86-4.96-9.13-11.11-9.13-9.63,0-21.13,8.14-21.13,17.27"/><path d="M2351.44,766.67c0,4.26,3.07,9.02,11.11,9.02,10.31,0,21.13-8.43,21.13-17.16,0-5.86-4.96-9.13-11.11-9.13-9.63,0-21.13,8.14-21.13,17.27"/><path d="M2476.13,761.41c-13.69,0-18.55,6.94-18.55,13.39s4.87,13.39,18.55,13.39,18.45-6.94,18.45-13.39-4.76-13.39-18.45-13.39m.79,23.61c-2.77,0-4.67-.79-5.95-3.27s-3.07-8.93-3.18-11.52c-.2-2.68,.79-4.26,3.18-5.05,1.19-.4,2.77-.6,4.37-.6,2.67,0,4.46,.6,5.84,3.29,1.39,2.57,3.29,9.02,3.29,11.5,0,4.87-3.58,5.66-7.55,5.66"/><path d="M30.8,170.83c0,6.56,4.96,15.19,18.35,15.19,4.67,0,8.74-1.19,12.31-3.38,5.36-3.77,6.74-10.32,6.74-16.57,0-3.86-.59-8.32-1.58-13.98-.29-1.98-.9-4.96-1.49-8.84,9.72-3.18,16.96-13.3,16.96-23.51,0-14.97-10.62-25.09-25.09-25.09-.99-5.95-1.98-11.81-2.77-17.36,10.42-11.02,17.65-23.42,17.65-39.18,0-9.04-2.77-16.37-4.37-19.95-2.37-5.05-5.25-8.53-7.04-8.53-.7,0-3.77,1.19-7.04,5.05-6.36,7.55-8.14,20.24-8.14,28.57,0,5.36,.5,10.23,2.19,21.34-.11,.09-5.27,5.35-7.35,7.04-9.04,8.34-21.53,20.43-21.53,40.28,0,18.54,16.17,33.12,34.63,33.12,2.87,0,5.55-.29,7.83-.7,1.89,9.53,3.08,16.48,3.08,21.73,0,10.32-5.36,15.78-15.38,15.78-2.39,0-4.46-.5-4.67-.5-.09-.11-.29-.2-.29-.29,0-.2,.2-.31,.5-.31,4.67-.79,9.32-4.76,9.32-11.1,0-5.36-4.06-11.02-11.5-11.02-6.94,0-11.31,5.66-11.31,12.2M51.54,38.39c.9-3.97,5.46-14.38,10.62-14.38,1.49,0,3.86,4.76,3.86,11.7,0,10.32-7.63,18.06-14.48,24.8-.59-3.97-1.08-7.83-1.08-12,0-3.67,.29-7.05,1.08-10.12m8.73,101.97c-1.98,.4-3.86,.6-5.75,.6-14.18,0-26.29-9.92-26.29-24.91,0-12.09,8.53-22.91,17.27-30.46,1.67-1.49,3.27-2.87,4.76-4.36,.88,5.35,1.58,10.01,2.28,14.09-9.04,2.68-15.17,12.2-15.17,21.53,0,6.94,5.46,16.46,13.39,16.46,.79,0,1.69-.4,1.69-1.29s-.99-1.39-2.19-2.19c-3.88-2.39-6.06-4.96-6.06-9.83,0-6.05,4.57-10.91,10.32-12.29l5.75,32.63m14.09-18.35c0,7.05-2.88,14.29-9.92,17.17-2.08-11.9-4.76-27.68-5.46-32.05,8.93,0,15.38,6.06,15.38,14.88"/><path d="M30.8,504.51c0,6.56,4.96,15.19,18.35,15.19,4.67,0,8.74-1.19,12.31-3.38,5.36-3.77,6.74-10.32,6.74-16.57,0-3.86-.59-8.32-1.58-13.98-.29-1.98-.9-4.96-1.49-8.84,9.72-3.18,16.96-13.3,16.96-23.51,0-14.97-10.62-25.09-25.09-25.09-.99-5.95-1.98-11.81-2.77-17.36,10.42-11.02,17.65-23.42,17.65-39.18,0-9.04-2.77-16.37-4.37-19.95-2.37-5.05-5.25-8.53-7.04-8.53-.7,0-3.77,1.19-7.04,5.05-6.36,7.55-8.14,20.24-8.14,28.57,0,5.36,.5,10.23,2.19,21.34-.11,.09-5.27,5.35-7.35,7.04-9.04,8.34-21.53,20.43-21.53,40.28,0,18.54,16.17,33.12,34.63,33.12,2.87,0,5.55-.29,7.83-.7,1.89,9.53,3.08,16.48,3.08,21.73,0,10.32-5.36,15.78-15.38,15.78-2.39,0-4.46-.5-4.67-.5-.09-.11-.29-.2-.29-.29,0-.2,.2-.31,.5-.31,4.67-.79,9.32-4.76,9.32-11.1,0-5.36-4.06-11.02-11.5-11.02-6.94,0-11.31,5.66-11.31,12.2m20.74-132.43c.9-3.97,5.46-14.38,10.62-14.38,1.49,0,3.86,4.76,3.86,11.7,0,10.32-7.63,18.06-14.48,24.8-.59-3.97-1.08-7.83-1.08-12,0-3.67,.29-7.05,1.08-10.12m8.73,101.97c-1.98,.4-3.86,.6-5.75,.6-14.18,0-26.29-9.92-26.29-24.91,0-12.09,8.53-22.91,17.27-30.46,1.67-1.49,3.27-2.87,4.76-4.36,.88,5.35,1.58,10.01,2.28,14.09-9.04,2.68-15.17,12.2-15.17,21.53,0,6.94,5.46,16.46,13.39,16.46,.79,0,1.69-.4,1.69-1.29s-.99-1.39-2.19-2.19c-3.88-2.39-6.06-4.96-6.06-9.83,0-6.05,4.57-10.91,10.32-12.29l5.75,32.63m14.09-18.35c0,7.05-2.88,14.29-9.92,17.17-2.08-11.9-4.76-27.68-5.46-32.05,8.93,0,15.38,6.06,15.38,14.88"/><path d="M30.8,838.19c0,6.56,4.96,15.19,18.35,15.19,4.67,0,8.74-1.19,12.31-3.38,5.36-3.77,6.74-10.32,6.74-16.57,0-3.86-.59-8.32-1.58-13.98-.29-1.98-.9-4.96-1.49-8.84,9.72-3.18,16.96-13.3,16.96-23.51,0-14.97-10.62-25.09-25.09-25.09-.99-5.95-1.98-11.81-2.77-17.36,10.42-11.02,17.65-23.42,17.65-39.18,0-9.04-2.77-16.37-4.37-19.95-2.37-5.05-5.25-8.53-7.04-8.53-.7,0-3.77,1.19-7.04,5.05-6.36,7.55-8.14,20.24-8.14,28.57,0,5.36,.5,10.23,2.19,21.34-.11,.09-5.27,5.35-7.35,7.04-9.04,8.34-21.53,20.43-21.53,40.28,0,18.54,16.17,33.12,34.63,33.12,2.87,0,5.55-.29,7.83-.7,1.89,9.53,3.08,16.48,3.08,21.73,0,10.32-5.36,15.78-15.38,15.78-2.39,0-4.46-.5-4.67-.5-.09-.11-.29-.2-.29-.29,0-.2,.2-.31,.5-.31,4.67-.79,9.32-4.76,9.32-11.1,0-5.36-4.06-11.02-11.5-11.02-6.94,0-11.31,5.66-11.31,12.2m20.74-132.43c.9-3.97,5.46-14.38,10.62-14.38,1.49,0,3.86,4.76,3.86,11.7,0,10.32-7.63,18.06-14.48,24.8-.59-3.97-1.08-7.83-1.08-12,0-3.67,.29-7.05,1.08-10.12m8.73,101.97c-1.98,.4-3.86,.6-5.75,.6-14.18,0-26.29-9.92-26.29-24.91,0-12.09,8.53-22.91,17.27-30.46,1.67-1.49,3.27-2.87,4.76-4.36,.88,5.35,1.58,10.01,2.28,14.09-9.04,2.68-15.17,12.2-15.17,21.53,0,6.94,5.46,16.46,13.39,16.46,.79,0,1.69-.4,1.69-1.29s-.99-1.39-2.19-2.19c-3.88-2.39-6.06-4.96-6.06-9.83,0-6.05,4.57-10.91,10.32-12.29l5.75,32.63m14.09-18.35c0,7.05-2.88,14.29-9.92,17.17-2.08-11.9-4.76-27.68-5.46-32.05,8.93,0,15.38,6.06,15.38,14.88"/><path d="M129.99,35.12c.6-.09,1.1-.79,1.1-1.4v-5.84c0-.99-.7-1.39-1.6-1.39l-3.27,.7V12.4h-2.77v15.38l-8.83,1.8V15.58h-2.77v14.59l-3.88,.79c-.59,.11-1.09,.79-1.09,1.39v5.75c0,1.09,.79,1.4,1.69,1.4l3.27-.7v16.37l-3.88,.79c-.59,.09-1.09,.79-1.09,1.4v5.75c0,1.09,.79,1.38,1.69,1.38l3.27-.68v14.77h2.77v-15.38l8.83-1.78v14h2.77v-14.59l3.77-.7c.6-.11,1.1-.79,1.1-1.39v-5.84c0-.99-.7-1.4-1.6-1.4l-3.27,.7v-16.37l3.77-.7m-15.38,3.07l8.83-1.78v16.37l-8.83,1.89v-16.48"/><path d="M157.16,72.32c.6-.09,1.1-.79,1.1-1.4v-5.84c0-.99-.7-1.39-1.6-1.39l-3.27,.7v-14.79h-2.77v15.38l-8.83,1.8v-14h-2.77v14.59l-3.88,.79c-.59,.11-1.09,.79-1.09,1.39v5.75c0,1.09,.79,1.4,1.69,1.4l3.27-.7v16.37l-3.88,.79c-.59,.09-1.09,.79-1.09,1.4v5.75c0,1.09,.79,1.38,1.69,1.38l3.27-.68v14.77h2.77v-15.38l8.83-1.78v14h2.77v-14.59l3.77-.7c.6-.11,1.1-.79,1.1-1.39v-5.84c0-.99-.7-1.4-1.6-1.4l-3.27,.7v-16.37l3.77-.7m-15.38,3.07l8.83-1.78v16.37l-8.83,1.89v-16.48"/><path d="M184.33,22.72c.6-.09,1.1-.79,1.1-1.4v-5.84c0-.99-.7-1.39-1.6-1.39l-3.27,.7V0h-2.77V15.38l-8.83,1.8V3.18h-2.77v14.59l-3.88,.79c-.59,.11-1.09,.79-1.09,1.39v5.75c0,1.09,.79,1.4,1.69,1.4l3.27-.7v16.37l-3.88,.79c-.59,.09-1.09,.79-1.09,1.4v5.75c0,1.09,.79,1.38,1.69,1.38l3.27-.68v14.77h2.77v-15.38l8.83-1.78v14h2.77v-14.59l3.77-.7c.6-.11,1.1-.79,1.1-1.39v-5.84c0-.99-.7-1.4-1.6-1.4l-3.27,.7V23.42l3.77-.7m-15.38,3.07l8.83-1.78v16.37l-8.83,1.89V25.79"/><path d="M129.99,368.8c.6-.09,1.1-.79,1.1-1.4v-5.84c0-.99-.7-1.39-1.6-1.39l-3.27,.7v-14.79h-2.77v15.38l-8.83,1.8v-14h-2.77v14.59l-3.88,.79c-.59,.11-1.09,.79-1.09,1.39v5.75c0,1.09,.79,1.4,1.69,1.4l3.27-.7v16.37l-3.88,.79c-.59,.09-1.09,.79-1.09,1.4v5.75c0,1.09,.79,1.38,1.69,1.38l3.27-.68v14.77h2.77v-15.38l8.83-1.78v14h2.77v-14.59l3.77-.7c.6-.11,1.1-.79,1.1-1.39v-5.84c0-.99-.7-1.4-1.6-1.4l-3.27,.7v-16.37l3.77-.7m-15.38,3.07l8.83-1.78v16.37l-8.83,1.89v-16.48"/><path d="M157.16,406c.6-.09,1.1-.79,1.1-1.4v-5.84c0-.99-.7-1.39-1.6-1.39l-3.27,.7v-14.79h-2.77v15.38l-8.83,1.8v-14h-2.77v14.59l-3.88,.79c-.59,.11-1.09,.79-1.09,1.39v5.75c0,1.09,.79,1.4,1.69,1.4l3.27-.7v16.37l-3.88,.79c-.59,.09-1.09,.79-1.09,1.4v5.75c0,1.09,.79,1.38,1.69,1.38l3.27-.68v14.77h2.77v-15.38l8.83-1.78v14h2.77v-14.59l3.77-.7c.6-.11,1.1-.79,1.1-1.39v-5.84c0-.99-.7-1.4-1.6-1.4l-3.27,.7v-16.37l3.77-.7m-15.38,3.07l8.83-1.78v16.37l-8.83,1.89v-16.48"/><path d="M184.33,356.4c.6-.09,1.1-.79,1.1-1.4v-5.84c0-.99-.7-1.39-1.6-1.39l-3.27,.7v-14.79h-2.77v15.38l-8.83,1.8v-14h-2.77v14.59l-3.88,.79c-.59,.11-1.09,.79-1.09,1.39v5.75c0,1.09,.79,1.4,1.69,1.4l3.27-.7v16.37l-3.88,.79c-.59,.09-1.09,.79-1.09,1.4v5.75c0,1.09,.79,1.38,1.69,1.38l3.27-.68v14.77h2.77v-15.38l8.83-1.78v14h2.77v-14.59l3.77-.7c.6-.11,1.1-.79,1.1-1.39v-5.84c0-.99-.7-1.4-1.6-1.4l-3.27,.7v-16.37l3.77-.7m-15.38,3.07l8.83-1.78v16.37l-8.83,1.89v-16.48"/><path d="M129.99,702.48c.6-.09,1.1-.79,1.1-1.4v-5.84c0-.99-.7-1.39-1.6-1.39l-3.27,.7v-14.79h-2.77v15.38l-8.83,1.8v-14h-2.77v14.59l-3.88,.79c-.59,.11-1.09,.79-1.09,1.39v5.75c0,1.09,.79,1.4,1.69,1.4l3.27-.7v16.37l-3.88,.79c-.59,.09-1.09,.79-1.09,1.4v5.75c0,1.09,.79,1.38,1.69,1.38l3.27-.68v14.77h2.77v-15.38l8.83-1.78v14h2.77v-14.59l3.77-.7c.6-.11,1.1-.79,1.1-1.39v-5.84c0-.99-.7-1.4-1.6-1.4l-3.27,.7v-16.37l3.77-.7m-15.38,3.07l8.83-1.78v16.37l-8.83,1.89v-16.48"/><path d="M157.16,739.68c.6-.09,1.1-.79,1.1-1.4v-5.84c0-.99-.7-1.39-1.6-1.39l-3.27,.7v-14.79h-2.77v15.38l-8.83,1.8v-14h-2.77v14.59l-3.88,.79c-.59,.11-1.09,.79-1.09,1.39v5.75c0,1.09,.79,1.4,1.69,1.4l3.27-.7v16.37l-3.88,.79c-.59,.09-1.09,.79-1.09,1.4v5.75c0,1.09,.79,1.38,1.69,1.38l3.27-.68v14.77h2.77v-15.38l8.83-1.78v14h2.77v-14.59l3.77-.7c.6-.11,1.1-.79,1.1-1.39v-5.84c0-.99-.7-1.4-1.6-1.4l-3.27,.7v-16.37l3.77-.7m-15.38,3.07l8.83-1.78v16.37l-8.83,1.89v-16.48"/><path d="M184.33,690.08c.6-.09,1.1-.79,1.1-1.4v-5.84c0-.99-.7-1.39-1.6-1.39l-3.27,.7v-14.79h-2.77v15.38l-8.83,1.8v-14h-2.77v14.59l-3.88,.79c-.59,.11-1.09,.79-1.09,1.39v5.75c0,1.09,.79,1.4,1.69,1.4l3.27-.7v16.37l-3.88,.79c-.59,.09-1.09,.79-1.09,1.4v5.75c0,1.09,.79,1.38,1.69,1.38l3.27-.68v14.77h2.77v-15.38l8.83-1.78v14h2.77v-14.59l3.77-.7c.6-.11,1.1-.79,1.1-1.39v-5.84c0-.99-.7-1.4-1.6-1.4l-3.27,.7v-16.37l3.77-.7m-15.38,3.07l8.83-1.78v16.37l-8.83,1.89v-16.48"/><path d="M2498.8,674.71c-9.32-10.12-17.56-10.71-22.71-10.71s-13.3,.59-22.63,10.71c-4.85,5.36-8.23,15.97-8.23,21.33,0,1.89,.4,3.18,1.4,3.18,2.77,0,1.38-8.54,9.72-16.97,7.33-7.33,17.16-7.44,19.55-7.44h.39c2.39,0,12.21,.11,19.55,7.44,8.34,8.43,6.94,16.97,9.72,16.97,.99,0,1.39-1.19,1.39-3.18,0-5.36-3.27-16.07-8.14-21.33m-29.56,18.94c0,3.78,3.07,6.85,6.85,6.85s6.84-3.07,6.84-6.85-3.07-6.84-6.84-6.84-6.85,3.07-6.85,6.84"/><path d="M613.23,11.11c.56-.48,.88-.65,1.3-.65,.34,0,.62,.17,.91,.54,.56,.79,.77,.93,1.33,.93,.81,0,1.41-.68,1.41-1.55,0-1.02-.98-1.81-2.2-1.81s-2.17,.45-4,1.89c-1.08-.5-1.89-.67-3.02-.67-3.88,0-7.17,2.76-7.17,5.98,0,1.69,.67,2.84,2.17,3.64-1.61,.22-2.34,.45-3.16,1.16-.69,.56-1.14,1.5-1.14,2.34,0,1.19,.55,1.92,1.92,2.59-2.06,.46-4.48,1.33-4.48,3.89,0,3.5,4.62,3.93,7.17,3.93,3.47,0,5.47-.43,7.19-1.55,1.5-.98,2.38-2.48,2.38-4.13,0-3.54-3.75-3.96-6.44-4.14-3.12-.17-3.36-.2-3.86-.31-.88-.2-1.3-.62-1.3-1.22,0-.84,.84-1.4,2.11-1.4,.45,0,.97,.03,1.44,.11,1.42,.2,1.64,.23,2.52,.23,1.95,0,3.5-.48,4.72-1.47,1.41-1.08,2.28-2.83,2.28-4.44s-.7-2.9-2.06-3.89m-4.03,0c1.83,0,2.98,1.1,2.98,2.8,0,2.53-1.16,5.72-4.14,5.72-1.89,0-3.08-1.2-3.08-3.16,0-3.15,1.72-5.36,4.23-5.36m-4.27,15.02c1.58,0,4.09,.36,4.89,.67,.88,.38,1.3,.99,1.3,1.86,0,2.06-2.2,3.17-6.22,3.17-3.41,0-4.98-.83-4.98-2.69s1.83-3.01,5.02-3.01m22.56-22.44c-.94,0-1.7,.78-1.7,1.72s.77,1.72,1.7,1.72,1.72-.77,1.72-1.72-.77-1.72-1.72-1.72m7.08,0c-.95,0-1.72,.78-1.72,1.72s.77,1.72,1.72,1.72,1.72-.77,1.72-1.72-.78-1.72-1.72-1.72m2.09,6.63h-3.05l-1.64,5.59c-1.44,4.88-4.66,8.86-7.14,8.86-.84,0-1.5-.67-1.5-1.5,0-.47,.09-1.02,.38-2l3.44-11.48-6.75,.53-.11,1.25h.84c1.42,0,1.95,.32,1.95,1.12,0,.35-.11,.85-.28,1.5l-1.39,4.74q-1.09,3.5-1.09,4.57c0,1.93,1.33,3.22,3.33,3.22,2.45,0,4.44-1.42,6.52-4.65-.36,1.23-.42,1.72-.42,2.39,0,1.36,.94,2.31,2.23,2.31,2.14,0,3.86-1.44,6.34-5.25l-1.06-.64c-1.7,2.56-3.08,3.95-3.84,3.95-.31,0-.62-.37-.62-.83,0-.39,.14-1.06,.41-2.07l3.47-11.61"/><path d="M657.04,9.79c-3.69,0-6.34,2.23-6.34,5.28,0,1.51,.88,2.76,2.42,3.57,.56,.29,1.25,.6,2.72,1.19,2,.81,2.5,1.3,2.5,2.52,0,1.89-1.58,3.08-4,3.08-1.78,0-3.05-.49-3.05-1.19,0-.17,.11-.38,.25-.52,.66-.7,.73-.87,.73-1.51,0-.97-.77-1.75-1.78-1.75-1.16,0-2.03,.98-2.03,2.34,0,2.45,2.17,3.97,5.7,3.97,4.03,0,6.8-2.22,6.8-5.39,0-1.41-.64-2.59-1.75-3.36-.78-.53-1.12-.67-3.05-1.38-2.28-.79-2.88-1.35-2.88-2.73,0-1.61,1.53-2.8,3.56-2.8,1.38,0,2.28,.39,2.28,.96,0,.14-.06,.31-.17,.48-.5,.7-.56,.88-.56,1.41,0,.93,.73,1.61,1.81,1.61,1.2,0,2-.88,2-2.14,0-2.14-2.12-3.64-5.17-3.64m14.91-8.55c-1.05,0-1.89,.84-1.89,1.89s.84,1.89,1.86,1.89c1.08,0,1.92-.83,1.92-1.89s-.84-1.89-1.89-1.89m.62,8.55l-6.72,.53-.14,1.25h.84c1.44,0,2,.32,2,1.09,0,.34-.08,.73-.31,1.53l-2.03,6.83c-.67,2.25-.78,2.73-.78,3.53,0,1.24,1.06,2.17,2.39,2.17,3,0,5.08-3.11,6.55-5.39l-1.09-.59c-1.81,2.76-3.28,4.23-4.23,4.23-.34,0-.59-.31-.59-.73,0-.35,.14-.97,.42-1.95l3.7-12.5m11.97,0l-6.36,.53-.11,1.25h.84c1.39,0,1.95,.32,1.95,1.12,0,.31-.11,.85-.28,1.5l-3.56,12.05h3.05l1.42-4.94c1.58-5.36,4.77-9.41,7.39-9.41,.91,0,1.47,.49,1.47,1.36,0,.71-.28,2.18-.7,3.5l-2.8,9.49h3.05l1.5-5.08c.88-2.91,1.75-4.86,2.88-6.37,1.27-1.75,3.05-2.9,4.38-2.9,.88,0,1.36,.46,1.36,1.29,0,.5-.17,1.26-.48,2.25l-1.61,4.96c-.94,2.74-.98,2.94-.98,3.93,0,1.47,1.09,2.45,2.73,2.45,1.16,0,2.28-.56,3.47-1.69,.73-.7,1.22-1.33,2.66-3.42l-1.08-.75c-1.83,2.73-3.12,4.06-4.03,4.06-.39,0-.74-.37-.74-.87,0-.31,.11-.69,.42-1.71l2.2-6.79c.25-.77,.42-1.86,.42-2.63,0-1.86-1.38-3.18-3.25-3.18-2.5,0-4.73,1.6-6.76,4.93,.14-.67,.22-1.26,.22-1.68,0-1.85-1.47-3.25-3.41-3.25-2.2,0-3.81,1.21-6.27,4.73l1.02-4.73m25.72,12.64c-1.19,0-2.17,.98-2.17,2.17s.98,2.17,2.14,2.17c1.25,0,2.2-.95,2.2-2.17s-.99-2.17-2.17-2.17"/><path d="M405.38,178.01c.56-.48,.88-.66,1.3-.66,.34,0,.62,.18,.91,.55,.56,.78,.77,.92,1.33,.92,.81,0,1.41-.67,1.41-1.54,0-1.02-.98-1.82-2.2-1.82s-2.17,.46-4,1.89c-1.08-.5-1.89-.67-3.02-.67-3.88,0-7.17,2.77-7.17,5.99,0,1.68,.67,2.84,2.17,3.64-1.61,.22-2.34,.45-3.16,1.15-.69,.57-1.14,1.5-1.14,2.35,0,1.18,.55,1.92,1.92,2.59-2.06,.45-4.48,1.33-4.48,3.89,0,3.5,4.62,3.92,7.17,3.92,3.47,0,5.47-.42,7.19-1.54,1.5-.99,2.38-2.49,2.38-4.13,0-3.55-3.75-3.97-6.44-4.14-3.12-.17-3.36-.2-3.86-.31-.88-.21-1.3-.63-1.3-1.22,0-.84,.84-1.41,2.11-1.41,.45,0,.97,.03,1.44,.11,1.42,.21,1.64,.24,2.52,.24,1.95,0,3.5-.49,4.72-1.47,1.41-1.08,2.28-2.83,2.28-4.44s-.7-2.91-2.06-3.89m-4.03,0c1.83,0,2.98,1.09,2.98,2.8,0,2.53-1.16,5.72-4.14,5.72-1.89,0-3.08-1.21-3.08-3.16,0-3.16,1.72-5.36,4.23-5.36m-4.27,15.02c1.58,0,4.09,.35,4.89,.67,.88,.37,1.3,.98,1.3,1.86,0,2.06-2.2,3.17-6.22,3.17-3.41,0-4.98-.83-4.98-2.69s1.83-3.01,5.02-3.01m22.56-22.44c-.94,0-1.7,.78-1.7,1.72s.77,1.72,1.7,1.72,1.72-.77,1.72-1.72-.77-1.72-1.72-1.72m7.08,0c-.95,0-1.72,.78-1.72,1.72s.77,1.72,1.72,1.72,1.72-.77,1.72-1.72-.78-1.72-1.72-1.72m2.09,6.62h-3.05l-1.64,5.6c-1.44,4.87-4.66,8.86-7.14,8.86-.84,0-1.5-.68-1.5-1.5,0-.47,.09-1.02,.38-2l3.44-11.49-6.75,.53-.11,1.25h.84c1.42,0,1.95,.33,1.95,1.13,0,.34-.11,.84-.28,1.5l-1.39,4.73q-1.09,3.5-1.09,4.58c0,1.92,1.33,3.22,3.33,3.22,2.45,0,4.44-1.42,6.52-4.66-.36,1.24-.42,1.72-.42,2.39,0,1.36,.94,2.32,2.23,2.32,2.14,0,3.86-1.44,6.34-5.25l-1.06-.64c-1.7,2.56-3.08,3.95-3.84,3.95-.31,0-.62-.38-.62-.83,0-.39,.14-1.06,.41-2.08l3.47-11.61"/><path d="M255.76,187.6c-2.03,3.3-2.91,4.21-4.06,4.21-.55,0-.88-.36-.88-.99,0-.45,.19-1.26,.53-2.48l6.23-21-6.97,.53-.14,1.25h1.08c1.44,0,2,.31,2,1.09,0,.35-.11,.8-.31,1.53l-2.31,7.79c-.62-1.83-2-2.85-4.02-2.85-5.05,0-9.73,5.39-9.73,11.2,0,3.44,2.2,5.79,5.48,5.79,2.39,0,4.14-.99,5.67-3.27-.03,.28-.03,.64-.03,.78,0,1.61,.84,2.49,2.38,2.49,2.22,0,4.14-1.72,6.12-5.44l-1.05-.63m-8.75-9.34c1.72,0,2.98,1.33,2.98,3.16,0,3.17-2.25,10.59-6.31,10.59-1.89,0-3.11-1.5-3.11-3.78,0-3.31,2.38-9.97,6.44-9.97m19.7-7.67c-.94,0-1.7,.78-1.7,1.72s.77,1.72,1.7,1.72,1.72-.77,1.72-1.72-.77-1.72-1.72-1.72m7.08,0c-.95,0-1.72,.78-1.72,1.72s.76,1.72,1.72,1.72,1.72-.77,1.72-1.72-.78-1.72-1.72-1.72m2.09,6.62h-3.05l-1.64,5.6c-1.44,4.87-4.66,8.86-7.14,8.86-.84,0-1.5-.68-1.5-1.5,0-.47,.09-1.02,.38-2l3.44-11.49-6.75,.53-.11,1.25h.84c1.42,0,1.95,.33,1.95,1.13,0,.34-.11,.84-.28,1.5l-1.39,4.73q-1.09,3.5-1.09,4.58c0,1.92,1.33,3.22,3.33,3.22,2.45,0,4.44-1.42,6.52-4.66-.36,1.24-.42,1.72-.42,2.39,0,1.36,.94,2.32,2.24,2.32,2.14,0,3.86-1.44,6.34-5.25l-1.06-.64c-1.7,2.56-3.08,3.95-3.84,3.95-.31,0-.62-.38-.62-.83,0-.39,.14-1.06,.41-2.08l3.47-11.61"/><path d="M304.09,178.01c.56-.48,.88-.66,1.3-.66,.34,0,.62,.18,.91,.55,.56,.78,.77,.92,1.33,.92,.81,0,1.41-.67,1.41-1.54,0-1.02-.99-1.82-2.2-1.82s-2.17,.46-4,1.89c-1.08-.5-1.89-.67-3.02-.67-3.87,0-7.17,2.77-7.17,5.99,0,1.68,.67,2.84,2.17,3.64-1.61,.22-2.34,.45-3.16,1.15-.69,.57-1.14,1.5-1.14,2.35,0,1.18,.55,1.92,1.92,2.59-2.06,.45-4.48,1.33-4.48,3.89,0,3.5,4.62,3.92,7.17,3.92,3.47,0,5.47-.42,7.19-1.54,1.5-.99,2.38-2.49,2.38-4.13,0-3.55-3.75-3.97-6.44-4.14-3.12-.17-3.36-.2-3.86-.31-.88-.21-1.3-.63-1.3-1.22,0-.84,.84-1.41,2.11-1.41,.45,0,.97,.03,1.44,.11,1.42,.21,1.64,.24,2.52,.24,1.95,0,3.5-.49,4.72-1.47,1.41-1.08,2.28-2.83,2.28-4.44s-.7-2.91-2.06-3.89m-4.03,0c1.83,0,2.98,1.09,2.98,2.8,0,2.53-1.16,5.72-4.14,5.72-1.89,0-3.08-1.21-3.08-3.16,0-3.16,1.72-5.36,4.23-5.36m-4.27,15.02c1.58,0,4.09,.35,4.89,.67,.88,.37,1.3,.98,1.3,1.86,0,2.06-2.2,3.17-6.22,3.17-3.41,0-4.98-.83-4.98-2.69s1.83-3.01,5.02-3.01m22.56-22.44c-.94,0-1.7,.78-1.7,1.72s.76,1.72,1.7,1.72,1.72-.77,1.72-1.72-.77-1.72-1.72-1.72m7.08,0c-.95,0-1.72,.78-1.72,1.72s.77,1.72,1.72,1.72,1.72-.77,1.72-1.72-.78-1.72-1.72-1.72m2.09,6.62h-3.05l-1.64,5.6c-1.44,4.87-4.66,8.86-7.14,8.86-.84,0-1.5-.68-1.5-1.5,0-.47,.09-1.02,.38-2l3.44-11.49-6.75,.53-.11,1.25h.84c1.42,0,1.95,.33,1.95,1.13,0,.34-.11,.84-.28,1.5l-1.39,4.73q-1.09,3.5-1.09,4.58c0,1.92,1.33,3.22,3.33,3.22,2.45,0,4.44-1.42,6.52-4.66-.36,1.24-.42,1.72-.42,2.39,0,1.36,.94,2.32,2.23,2.32,2.14,0,3.86-1.44,6.34-5.25l-1.06-.64c-1.7,2.56-3.08,3.95-3.84,3.95-.31,0-.62-.38-.62-.83,0-.39,.14-1.06,.41-2.08l3.47-11.61"/><path d="M357.05,187.6c-2.03,3.3-2.91,4.21-4.06,4.21-.55,0-.88-.36-.88-.99,0-.45,.19-1.26,.53-2.48l6.23-21-6.97,.53-.14,1.25h1.08c1.44,0,2,.31,2,1.09,0,.35-.11,.8-.31,1.53l-2.31,7.79c-.62-1.83-2-2.85-4.02-2.85-5.05,0-9.73,5.39-9.73,11.2,0,3.44,2.2,5.79,5.48,5.79,2.39,0,4.14-.99,5.67-3.27-.03,.28-.03,.64-.03,.78,0,1.61,.84,2.49,2.38,2.49,2.22,0,4.14-1.72,6.12-5.44l-1.05-.63m-8.75-9.34c1.72,0,2.98,1.33,2.98,3.16,0,3.17-2.25,10.59-6.31,10.59-1.89,0-3.11-1.5-3.11-3.78,0-3.31,2.38-9.97,6.44-9.97m19.7-7.67c-.94,0-1.7,.78-1.7,1.72s.77,1.72,1.7,1.72,1.72-.77,1.72-1.72-.77-1.72-1.72-1.72m7.08,0c-.95,0-1.72,.78-1.72,1.72s.77,1.72,1.72,1.72,1.72-.77,1.72-1.72-.78-1.72-1.72-1.72m2.09,6.62h-3.05l-1.64,5.6c-1.44,4.87-4.66,8.86-7.14,8.86-.84,0-1.5-.68-1.5-1.5,0-.47,.09-1.02,.38-2l3.44-11.49-6.75,.53-.11,1.25h.84c1.42,0,1.95,.33,1.95,1.13,0,.34-.11,.84-.28,1.5l-1.39,4.73q-1.09,3.5-1.09,4.58c0,1.92,1.33,3.22,3.33,3.22,2.45,0,4.44-1.42,6.52-4.66-.36,1.24-.42,1.72-.42,2.39,0,1.36,.94,2.32,2.23,2.32,2.14,0,3.86-1.44,6.34-5.25l-1.06-.64c-1.7,2.56-3.08,3.95-3.84,3.95-.31,0-.62-.38-.62-.83,0-.39,.14-1.06,.41-2.08l3.47-11.61"/><path d="M463.61,20.71c-2.03,3.29-2.91,4.2-4.06,4.2-.55,0-.88-.36-.88-.98,0-.46,.19-1.27,.53-2.49L465.44,.44l-6.97,.53-.14,1.25h1.08c1.44,0,2,.32,2,1.1,0,.34-.11,.79-.31,1.53l-2.31,7.78c-.62-1.83-2-2.84-4.02-2.84-5.05,0-9.73,5.39-9.73,11.2,0,3.44,2.2,5.78,5.48,5.78,2.39,0,4.14-.98,5.67-3.27-.03,.29-.03,.64-.03,.79,0,1.6,.84,2.48,2.38,2.48,2.22,0,4.14-1.72,6.12-5.44l-1.05-.62m-8.75-9.35c1.72,0,2.98,1.33,2.98,3.16,0,3.17-2.25,10.59-6.31,10.59-1.89,0-3.11-1.5-3.11-3.78,0-3.31,2.38-9.97,6.44-9.97m19.7-7.67c-.94,0-1.7,.78-1.7,1.72s.77,1.72,1.7,1.72,1.72-.77,1.72-1.72-.77-1.72-1.72-1.72m7.08,0c-.95,0-1.72,.78-1.72,1.72s.77,1.72,1.72,1.72,1.72-.77,1.72-1.72-.78-1.72-1.72-1.72m2.09,6.63h-3.05l-1.64,5.59c-1.44,4.88-4.66,8.86-7.14,8.86-.84,0-1.5-.67-1.5-1.5,0-.47,.09-1.02,.38-2l3.44-11.48-6.75,.53-.11,1.25h.84c1.42,0,1.95,.32,1.95,1.12,0,.35-.11,.85-.28,1.5l-1.39,4.74q-1.09,3.5-1.09,4.57c0,1.93,1.33,3.22,3.33,3.22,2.45,0,4.44-1.42,6.52-4.65-.36,1.23-.42,1.72-.42,2.39,0,1.36,.94,2.31,2.23,2.31,2.14,0,3.86-1.44,6.34-5.25l-1.06-.64c-1.7,2.56-3.08,3.95-3.84,3.95-.31,0-.62-.37-.62-.83,0-.39,.14-1.06,.41-2.07l3.47-11.61"/><path d="M511.94,11.11c.56-.48,.88-.65,1.3-.65,.34,0,.62,.17,.91,.54,.56,.79,.77,.93,1.33,.93,.81,0,1.41-.68,1.41-1.55,0-1.02-.98-1.81-2.2-1.81s-2.17,.45-4,1.89c-1.08-.5-1.89-.67-3.02-.67-3.88,0-7.17,2.76-7.17,5.98,0,1.69,.67,2.84,2.17,3.64-1.61,.22-2.34,.45-3.16,1.16-.69,.56-1.14,1.5-1.14,2.34,0,1.19,.55,1.92,1.92,2.59-2.06,.46-4.48,1.33-4.48,3.89,0,3.5,4.62,3.93,7.17,3.93,3.47,0,5.47-.43,7.19-1.55,1.5-.98,2.38-2.48,2.38-4.13,0-3.54-3.75-3.96-6.44-4.14-3.12-.17-3.36-.2-3.86-.31-.88-.2-1.3-.62-1.3-1.22,0-.84,.84-1.4,2.11-1.4,.45,0,.97,.03,1.44,.11,1.42,.2,1.64,.23,2.52,.23,1.95,0,3.5-.48,4.72-1.47,1.41-1.08,2.28-2.83,2.28-4.44s-.7-2.9-2.06-3.89m-4.03,0c1.83,0,2.98,1.1,2.98,2.8,0,2.53-1.16,5.72-4.14,5.72-1.89,0-3.08-1.2-3.08-3.16,0-3.15,1.72-5.36,4.23-5.36m-4.27,15.02c1.58,0,4.09,.36,4.89,.67,.88,.38,1.3,.99,1.3,1.86,0,2.06-2.2,3.17-6.22,3.17-3.41,0-4.98-.83-4.98-2.69s1.83-3.01,5.02-3.01m22.56-22.44c-.94,0-1.7,.78-1.7,1.72s.77,1.72,1.7,1.72,1.72-.77,1.72-1.72-.77-1.72-1.72-1.72m7.08,0c-.95,0-1.72,.78-1.72,1.72s.77,1.72,1.72,1.72,1.72-.77,1.72-1.72-.78-1.72-1.72-1.72m2.09,6.63h-3.05l-1.64,5.59c-1.44,4.88-4.66,8.86-7.14,8.86-.84,0-1.5-.67-1.5-1.5,0-.47,.09-1.02,.38-2l3.44-11.48-6.75,.53-.11,1.25h.84c1.42,0,1.95,.32,1.95,1.12,0,.35-.11,.85-.28,1.5l-1.39,4.74q-1.09,3.5-1.09,4.57c0,1.93,1.33,3.22,3.33,3.22,2.45,0,4.44-1.42,6.52-4.65-.36,1.23-.42,1.72-.42,2.39,0,1.36,.94,2.31,2.23,2.31,2.14,0,3.86-1.44,6.34-5.25l-1.06-.64c-1.7,2.56-3.08,3.95-3.84,3.95-.31,0-.62-.37-.62-.83,0-.39,.14-1.06,.41-2.07l3.47-11.61"/><path d="M564.9,20.71c-2.03,3.29-2.91,4.2-4.06,4.2-.55,0-.88-.36-.88-.98,0-.46,.19-1.27,.53-2.49l6.23-21-6.97,.53-.14,1.25h1.08c1.44,0,2,.32,2,1.1,0,.34-.11,.79-.31,1.53l-2.31,7.78c-.62-1.83-2-2.84-4.02-2.84-5.05,0-9.73,5.39-9.73,11.2,0,3.44,2.2,5.78,5.48,5.78,2.39,0,4.14-.98,5.67-3.27-.03,.29-.03,.64-.03,.79,0,1.6,.84,2.48,2.38,2.48,2.22,0,4.14-1.72,6.12-5.44l-1.05-.62m-8.75-9.35c1.72,0,2.98,1.33,2.98,3.16,0,3.17-2.25,10.59-6.31,10.59-1.89,0-3.11-1.5-3.11-3.78,0-3.31,2.38-9.97,6.44-9.97m19.7-7.67c-.94,0-1.7,.78-1.7,1.72s.77,1.72,1.7,1.72,1.72-.77,1.72-1.72-.77-1.72-1.72-1.72m7.08,0c-.95,0-1.72,.78-1.72,1.72s.77,1.72,1.72,1.72,1.72-.77,1.72-1.72-.78-1.72-1.72-1.72m2.09,6.63h-3.05l-1.64,5.59c-1.44,4.88-4.66,8.86-7.14,8.86-.84,0-1.5-.67-1.5-1.5,0-.47,.09-1.02,.38-2l3.44-11.48-6.75,.53-.11,1.25h.84c1.42,0,1.95,.32,1.95,1.12,0,.35-.11,.85-.28,1.5l-1.39,4.74q-1.09,3.5-1.09,4.57c0,1.93,1.33,3.22,3.33,3.22,2.45,0,4.44-1.42,6.52-4.65-.36,1.23-.42,1.72-.42,2.39,0,1.36,.94,2.31,2.23,2.31,2.14,0,3.86-1.44,6.34-5.25l-1.06-.64c-1.7,2.56-3.08,3.95-3.84,3.95-.31,0-.62-.37-.62-.83,0-.39,.14-1.06,.41-2.07l3.47-11.61"/><path d="M1115.02,497.02h154.22v12.4h-154.22v-12.4" fill-rule="evenodd"/><path d="M1115.02,478.42h154.22v12.4h-154.22v-12.4" fill-rule="evenodd"/><path d="M655.25,157.14h154.41v12.4h-154.41v-12.4" fill-rule="evenodd"/><path d="M655.25,138.54h154.41v12.4h-154.41v-12.4" fill-rule="evenodd"/><path d="M1317.34,490.82h154.22v12.4h-154.22v-12.4" fill-rule="evenodd"/><path d="M1317.34,472.22h154.22v12.4h-154.22v-12.4" fill-rule="evenodd"/><path d="M887.57,20.74h154.41v12.4h-154.41v-12.4" fill-rule="evenodd"/><path d="M887.57,39.34h154.41v12.4h-154.41v-12.4" fill-rule="evenodd"/><path d="M1115.89,163.34h154.4v12.4h-154.4v-12.4" fill-rule="evenodd"/><path d="M1115.89,144.74h154.4v12.4h-154.4v-12.4" fill-rule="evenodd"/><path d="M1721.98,497.02h154.23v12.4h-154.23v-12.4" fill-rule="evenodd"/><path d="M1721.98,478.42h154.23v12.4h-154.23v-12.4" fill-rule="evenodd"/><path d="M1318.46,157.14h154.4v12.4h-154.4v-12.4" fill-rule="evenodd"/><path d="M1318.46,138.54h154.4v12.4h-154.4v-12.4" fill-rule="evenodd"/><path d="M2009.61,373.02h154.23v12.4h-154.23v-12.4" fill-rule="evenodd"/><path d="M2009.61,391.62h154.23v12.4h-154.23v-12.4" fill-rule="evenodd"/><path d="M1521.03,138.54h154.41v12.4h-154.41v-12.4" fill-rule="evenodd"/><path d="M1521.03,119.94h154.41v12.4h-154.41v-12.4" fill-rule="evenodd"/><path d="M2211.94,354.42h154.22v12.4h-154.22v-12.4" fill-rule="evenodd"/><path d="M2211.94,373.02h154.22v12.4h-154.22v-12.4" fill-rule="evenodd"/><path d="M780.2,830.7h202.27v12.4h-202.27v-12.4" fill-rule="evenodd"/><path d="M780.2,812.1h202.27v12.4h-202.27v-12.4" fill-rule="evenodd"/><path d="M277.19,688.1h202.27v12.4h-202.27v-12.4" fill-rule="evenodd"/><path d="M277.19,706.7h202.27v12.4h-202.27v-12.4" fill-rule="evenodd"/><path d="M2589.37,157.14h154.41v12.4h-154.41v-12.4" fill-rule="evenodd"/><path d="M2589.37,138.54h154.41v12.4h-154.41v-12.4" fill-rule="evenodd"/><path d="M1076.34,688.1h202.26v12.4h-202.26v-12.4" fill-rule="evenodd"/><path d="M1076.34,706.7h202.26v12.4h-202.26v-12.4" fill-rule="evenodd"/><path d="M1981.66,157.14h154.41v12.4h-154.41v-12.4" fill-rule="evenodd"/><path d="M1981.66,138.54h154.41v12.4h-154.41v-12.4" fill-rule="evenodd"/><path d="M277.19,354.42h154.22v12.4h-154.22v-12.4" fill-rule="evenodd"/><path d="M277.19,373.02h154.22v12.4h-154.22v-12.4" fill-rule="evenodd"/><path d="M2619.31,373.02h154.22v12.4h-154.22v-12.4" fill-rule="evenodd"/><path d="M2619.31,391.62h154.22v12.4h-154.22v-12.4" fill-rule="evenodd"/><path d="M1352.51,830.7h202.26v12.4h-202.26v-12.4" fill-rule="evenodd"/><path d="M1352.51,812.1h202.26v12.4h-202.26v-12.4" fill-rule="evenodd"/><path d="M452.5,497.02h154.22v12.4h-154.22v-12.4" fill-rule="evenodd"/><path d="M452.5,478.42h154.22v12.4h-154.22v-12.4" fill-rule="evenodd"/><path d="M277.19,20.74h154.41v12.4h-154.41v-12.4" fill-rule="evenodd"/><path d="M277.19,39.34h154.41v12.4h-154.41v-12.4" fill-rule="evenodd"/><path d="M1618.89,805.9h202.26v12.4h-202.26v-12.4" fill-rule="evenodd"/><path d="M1618.89,787.3h202.26v12.4h-202.26v-12.4" fill-rule="evenodd"/><path d="M513.82,824.5h202.27v12.4h-202.27v-12.4" fill-rule="evenodd"/><path d="M513.82,805.9h202.27v12.4h-202.27v-12.4" fill-rule="evenodd"/><path d="M2387.24,497.02h154.22v12.4h-154.22v-12.4" fill-rule="evenodd"/><path d="M2387.24,478.42h154.22v12.4h-154.22v-12.4" fill-rule="evenodd"/><path d="M2386.8,132.34h154.41v12.4h-154.41v-12.4" fill-rule="evenodd"/><path d="M2386.8,113.74h154.41v12.4h-154.41v-12.4" fill-rule="evenodd"/><path d="M654.82,490.82h154.22v12.4h-154.22v-12.4" fill-rule="evenodd"/><path d="M654.82,472.22h154.22v12.4h-154.22v-12.4" fill-rule="evenodd"/><path d="M1885.27,824.5h202.26v12.4h-202.26v-12.4" fill-rule="evenodd"/><path d="M1885.27,805.9h202.26v12.4h-202.26v-12.4" fill-rule="evenodd"/><path d="M1519.66,472.22h154.22v12.4h-154.22v-12.4" fill-rule="evenodd"/><path d="M1519.66,453.62h154.22v12.4h-154.22v-12.4" fill-rule="evenodd"/><path d="M1723.6,163.34h154.41v12.4h-154.41v-12.4" fill-rule="evenodd"/><path d="M1723.6,144.74h154.41v12.4h-154.41v-12.4" fill-rule="evenodd"/><path d="M452.68,163.34h154.41v12.4h-154.41v-12.4" fill-rule="evenodd"/><path d="M452.68,144.74h154.41v12.4h-154.41v-12.4" fill-rule="evenodd"/><path d="M2151.65,830.7h202.27v12.4h-202.27v-12.4" fill-rule="evenodd"/><path d="M2151.65,812.1h202.27v12.4h-202.27v-12.4" fill-rule="evenodd"/><path d="M886.89,354.42h154.22v12.4h-154.22v-12.4" fill-rule="evenodd"/><path d="M886.89,373.02h154.22v12.4h-154.22v-12.4" fill-rule="evenodd"/><path d="M2184.23,138.54h154.41v12.4h-154.41v-12.4" fill-rule="evenodd"/><path d="M2184.23,119.94h154.41v12.4h-154.41v-12.4" fill-rule="evenodd"/></g></svg>