<?xml version="1.0" encoding="UTF-8"?><svg id="Ebene_2" xmlns="http://www.w3.org/2000/svg" viewBox="0 0 2552.4 196.17"><g id="Ebene_1-2"><line y1="55.69" x2="2552.4" y2="55.69" fill="none" stroke="#000" stroke-linejoin="bevel" stroke-width="2.73"/><line y1="80.49" x2="2552.4" y2="80.49" fill="none" stroke="#000" stroke-linejoin="bevel" stroke-width="2.73"/><line y1="105.29" x2="2552.4" y2="105.29" fill="none" stroke="#000" stroke-linejoin="bevel" stroke-width="2.73"/><line y1="130.09" x2="2552.4" y2="130.09" fill="none" stroke="#000" stroke-linejoin="bevel" stroke-width="2.73"/><line y1="154.89" x2="2552.4" y2="154.89" fill="none" stroke="#000" stroke-linejoin="bevel" stroke-width="2.73"/><line x1="1255.17" y1="54.33" x2="1255.17" y2="156.26" fill="none" stroke="#000" stroke-linejoin="bevel" stroke-width="4.46"/><line x1="734.07" y1="54.33" x2="734.07" y2="156.26" fill="none" stroke="#000" stroke-linejoin="bevel" stroke-width="4.46"/><line x1="1776.27" y1="54.33" x2="1776.27" y2="156.26" fill="none" stroke="#000" stroke-linejoin="bevel" stroke-width="4.46"/><line x1="2297.37" y1="54.33" x2="2297.37" y2="156.26" fill="none" stroke="#000" stroke-linejoin="bevel" stroke-width="4.46"/><line x1="2536.53" y1="54.33" x2="2536.53" y2="156.26" fill="none" stroke="#000" stroke-linejoin="bevel" stroke-width="4.46"/><line x1="2550.17" y1="54.33" x2="2550.17" y2="156.26" fill="none" stroke="#000" stroke-linejoin="bevel" stroke-width="4.46"/><line x1="307.96" y1="109.46" x2="307.96" y2="185.89" fill="none" stroke="#000" stroke-linejoin="bevel" stroke-width="2.48"/><line x1="248.68" y1="121.86" x2="248.68" y2="185.89" fill="none" stroke="#000" stroke-linejoin="bevel" stroke-width="2.48"/><line x1="367.24" y1="97.06" x2="367.24" y2="185.89" fill="none" stroke="#000" stroke-linejoin="bevel" stroke-width="2.48"/><line x1="426.52" y1="121.86" x2="426.52" y2="185.89" fill="none" stroke="#000" stroke-linejoin="bevel" stroke-width="2.48"/><line x1="485.81" y1="109.46" x2="485.81" y2="173.49" fill="none" stroke="#000" stroke-linejoin="bevel" stroke-width="2.48"/><line x1="545.08" y1="97.06" x2="545.08" y2="173.49" fill="none" stroke="#000" stroke-linejoin="bevel" stroke-width="2.48"/><line x1="604.37" y1="84.66" x2="604.37" y2="173.49" fill="none" stroke="#000" stroke-linejoin="bevel" stroke-width="2.48"/><line x1="663.65" y1="109.46" x2="663.65" y2="173.49" fill="none" stroke="#000" stroke-linejoin="bevel" stroke-width="2.48"/><line x1="769.78" y1="97.06" x2="769.78" y2="161.09" fill="none" stroke="#000" stroke-linejoin="bevel" stroke-width="2.48"/><line x1="829.06" y1="84.66" x2="829.06" y2="161.09" fill="none" stroke="#000" stroke-linejoin="bevel" stroke-width="2.48"/><line x1="888.34" y1="72.26" x2="888.34" y2="161.09" fill="none" stroke="#000" stroke-linejoin="bevel" stroke-width="2.48"/><line x1="947.62" y1="97.06" x2="947.62" y2="161.09" fill="none" stroke="#000" stroke-linejoin="bevel" stroke-width="2.48"/><line x1="1006.9" y1="121.86" x2="1006.9" y2="185.89" fill="none" stroke="#000" stroke-linejoin="bevel" stroke-width="2.48"/><line x1="1125.46" y1="97.06" x2="1125.46" y2="185.89" fill="none" stroke="#000" stroke-linejoin="bevel" stroke-width="2.48"/><line x1="1184.74" y1="121.86" x2="1184.74" y2="185.89" fill="none" stroke="#000" stroke-linejoin="bevel" stroke-width="2.48"/><line x1="1290.88" y1="109.46" x2="1290.88" y2="173.49" fill="none" stroke="#000" stroke-linejoin="bevel" stroke-width="2.48"/><line x1="1350.16" y1="97.06" x2="1350.16" y2="173.49" fill="none" stroke="#000" stroke-linejoin="bevel" stroke-width="2.48"/><line x1="1409.44" y1="84.66" x2="1409.44" y2="173.49" fill="none" stroke="#000" stroke-linejoin="bevel" stroke-width="2.48"/><line x1="1468.72" y1="109.46" x2="1468.72" y2="173.49" fill="none" stroke="#000" stroke-linejoin="bevel" stroke-width="2.48"/><line x1="1557.75" y1="126.12" x2="1557.75" y2="37.09" fill="none" stroke="#000" stroke-linejoin="bevel" stroke-width="2.48"/><line x1="1617.03" y1="113.72" x2="1617.03" y2="37.09" fill="none" stroke="#000" stroke-linejoin="bevel" stroke-width="2.48"/><line x1="1676.32" y1="101.32" x2="1676.32" y2="37.09" fill="none" stroke="#000" stroke-linejoin="bevel" stroke-width="2.48"/><line x1="1735.6" y1="126.12" x2="1735.6" y2="37.09" fill="none" stroke="#000" stroke-linejoin="bevel" stroke-width="2.48"/><line x1="1811.98" y1="121.86" x2="1811.98" y2="185.89" fill="none" stroke="#000" stroke-linejoin="bevel" stroke-width="2.48"/><line x1="1871.26" y1="97.06" x2="1871.26" y2="185.89" fill="none" stroke="#000" stroke-linejoin="bevel" stroke-width="2.48"/><line x1="1930.54" y1="109.46" x2="1930.54" y2="185.89" fill="none" stroke="#000" stroke-linejoin="bevel" stroke-width="2.48"/><line x1="1989.82" y1="121.86" x2="1989.82" y2="185.89" fill="none" stroke="#000" stroke-linejoin="bevel" stroke-width="2.48"/><line x1="2049.1" y1="109.46" x2="2049.1" y2="173.49" fill="none" stroke="#000" stroke-linejoin="bevel" stroke-width="2.48"/><line x1="2108.38" y1="84.66" x2="2108.38" y2="173.49" fill="none" stroke="#000" stroke-linejoin="bevel" stroke-width="2.48"/><line x1="2167.66" y1="97.06" x2="2167.66" y2="173.49" fill="none" stroke="#000" stroke-linejoin="bevel" stroke-width="2.48"/><line x1="2226.94" y1="109.46" x2="2226.94" y2="173.49" fill="none" stroke="#000" stroke-linejoin="bevel" stroke-width="2.48"/><line x1="1066.18" y1="109.46" x2="1066.18" y2="185.89" fill="none" stroke="#000" stroke-linejoin="bevel" stroke-width="2.48"/><path d="M247.44,121.86c0,4.26,3.07,9.02,11.11,9.02,10.31,0,21.13-8.43,21.13-17.16,0-5.86-4.96-9.13-11.11-9.13-9.63,0-21.13,8.14-21.13,17.27"/><path d="M306.72,109.46c0,4.26,3.07,9.02,11.11,9.02,10.31,0,21.13-8.43,21.13-17.16,0-5.86-4.96-9.13-11.11-9.13-9.63,0-21.13,8.14-21.13,17.27"/><path d="M366,97.06c0,4.26,3.07,9.02,11.11,9.02,10.31,0,21.13-8.43,21.13-17.16,0-5.86-4.96-9.13-11.11-9.13-9.63,0-21.13,8.14-21.13,17.27"/><path d="M425.28,121.86c0,4.26,3.07,9.02,11.11,9.02,10.31,0,21.13-8.43,21.13-17.16,0-5.86-4.96-9.13-11.11-9.13-9.63,0-21.13,8.14-21.13,17.27"/><path d="M484.57,109.46c0,4.26,3.07,9.02,11.11,9.02,10.31,0,21.13-8.43,21.13-17.16,0-5.86-4.96-9.13-11.11-9.13-9.63,0-21.13,8.14-21.13,17.27"/><path d="M543.84,97.06c0,4.26,3.07,9.02,11.11,9.02,10.31,0,21.13-8.43,21.13-17.16,0-5.86-4.96-9.13-11.11-9.13-9.63,0-21.13,8.14-21.13,17.27"/><path d="M603.13,84.66c0,4.26,3.07,9.02,11.11,9.02,10.31,0,21.13-8.43,21.13-17.16,0-5.86-4.96-9.13-11.11-9.13-9.63,0-21.13,8.14-21.13,17.27"/><path d="M662.41,109.46c0,4.26,3.07,9.02,11.11,9.02,10.31,0,21.13-8.43,21.13-17.16,0-5.86-4.96-9.13-11.11-9.13-9.63,0-21.13,8.14-21.13,17.27"/><path d="M768.54,97.06c0,4.26,3.07,9.02,11.11,9.02,10.31,0,21.13-8.43,21.13-17.16,0-5.86-4.96-9.13-11.11-9.13-9.63,0-21.13,8.14-21.13,17.27"/><path d="M827.82,84.66c0,4.26,3.07,9.02,11.11,9.02,10.31,0,21.13-8.43,21.13-17.16,0-5.86-4.96-9.13-11.11-9.13-9.63,0-21.13,8.14-21.13,17.27"/><path d="M887.1,72.26c0,4.26,3.07,9.02,11.11,9.02,10.31,0,21.13-8.43,21.13-17.16,0-5.86-4.96-9.13-11.11-9.13-9.63,0-21.13,8.14-21.13,17.27"/><path d="M946.38,97.06c0,4.26,3.07,9.02,11.11,9.02,10.31,0,21.13-8.43,21.13-17.16,0-5.86-4.96-9.13-11.11-9.13-9.63,0-21.13,8.14-21.13,17.27"/><path d="M1005.66,121.86c0,4.26,3.07,9.02,11.11,9.02,10.31,0,21.13-8.43,21.13-17.16,0-5.86-4.96-9.13-11.11-9.13-9.63,0-21.13,8.14-21.13,17.27"/><path d="M1064.94,109.46c0,4.26,3.07,9.02,11.11,9.02,10.31,0,21.13-8.43,21.13-17.16,0-5.86-4.96-9.13-11.11-9.13-9.63,0-21.13,8.14-21.13,17.27"/><path d="M1124.22,97.06c0,4.26,3.07,9.02,11.11,9.02,10.31,0,21.13-8.43,21.13-17.16,0-5.86-4.96-9.13-11.11-9.13-9.63,0-21.13,8.14-21.13,17.27"/><path d="M1183.5,121.86c0,4.26,3.07,9.02,11.11,9.02,10.31,0,21.13-8.43,21.13-17.16,0-5.86-4.96-9.13-11.11-9.13-9.63,0-21.13,8.14-21.13,17.27"/><path d="M1289.64,109.46c0,4.26,3.07,9.02,11.11,9.02,10.31,0,21.13-8.43,21.13-17.16,0-5.86-4.96-9.13-11.11-9.13-9.63,0-21.13,8.14-21.13,17.27"/><path d="M1348.92,97.06c0,4.26,3.07,9.02,11.11,9.02,10.31,0,21.13-8.43,21.13-17.16,0-5.86-4.96-9.13-11.11-9.13-9.63,0-21.13,8.14-21.13,17.27"/><path d="M1408.2,84.66c0,4.26,3.07,9.02,11.11,9.02,10.31,0,21.13-8.43,21.13-17.16,0-5.86-4.96-9.13-11.11-9.13-9.63,0-21.13,8.14-21.13,17.27"/><path d="M1467.48,109.46c0,4.26,3.07,9.02,11.11,9.02,10.31,0,21.13-8.43,21.13-17.16,0-5.86-4.96-9.13-11.11-9.13-9.63,0-21.13,8.14-21.13,17.27"/><path d="M1526.76,134.26c0,4.26,3.07,9.02,11.11,9.02,10.31,0,21.13-8.43,21.13-17.16,0-5.86-4.96-9.13-11.11-9.13-9.63,0-21.13,8.14-21.13,17.27"/><path d="M1586.04,121.86c0,4.26,3.07,9.02,11.11,9.02,10.31,0,21.13-8.43,21.13-17.16,0-5.86-4.96-9.13-11.11-9.13-9.63,0-21.13,8.14-21.13,17.27"/><path d="M1645.32,109.46c0,4.26,3.07,9.02,11.11,9.02,10.31,0,21.13-8.43,21.13-17.16,0-5.86-4.96-9.13-11.11-9.13-9.63,0-21.13,8.14-21.13,17.27"/><path d="M1704.6,134.26c0,4.26,3.07,9.02,11.11,9.02,10.31,0,21.13-8.43,21.13-17.16,0-5.86-4.96-9.13-11.11-9.13-9.63,0-21.13,8.14-21.13,17.27"/><path d="M1810.74,121.86c0,4.26,3.07,9.02,11.11,9.02,10.31,0,21.13-8.43,21.13-17.16,0-5.86-4.96-9.13-11.11-9.13-9.63,0-21.13,8.14-21.13,17.27"/><path d="M1870.02,97.06c0,4.26,3.07,9.02,11.11,9.02,10.31,0,21.13-8.43,21.13-17.16,0-5.86-4.96-9.13-11.11-9.13-9.63,0-21.13,8.14-21.13,17.27"/><path d="M1929.3,109.46c0,4.26,3.07,9.02,11.11,9.02,10.31,0,21.13-8.43,21.13-17.16,0-5.86-4.96-9.13-11.11-9.13-9.63,0-21.13,8.14-21.13,17.27"/><path d="M1988.58,121.86c0,4.26,3.07,9.02,11.11,9.02,10.31,0,21.13-8.43,21.13-17.16,0-5.86-4.96-9.13-11.11-9.13-9.63,0-21.13,8.14-21.13,17.27"/><path d="M2047.86,109.46c0,4.26,3.07,9.02,11.11,9.02,10.31,0,21.13-8.43,21.13-17.16,0-5.86-4.96-9.13-11.11-9.13-9.63,0-21.13,8.14-21.13,17.27"/><path d="M2107.14,84.66c0,4.26,3.07,9.02,11.11,9.02,10.31,0,21.13-8.43,21.13-17.16,0-5.86-4.96-9.13-11.11-9.13-9.63,0-21.13,8.14-21.13,17.27"/><path d="M2166.42,97.06c0,4.26,3.07,9.02,11.11,9.02,10.31,0,21.13-8.43,21.13-17.16,0-5.86-4.96-9.13-11.11-9.13-9.63,0-21.13,8.14-21.13,17.27"/><path d="M2225.7,109.46c0,4.26,3.07,9.02,11.11,9.02,10.31,0,21.13-8.43,21.13-17.16,0-5.86-4.96-9.13-11.11-9.13-9.63,0-21.13,8.14-21.13,17.27"/><path d="M2350.4,104.21c-13.69,0-18.55,6.94-18.55,13.39s4.87,13.39,18.55,13.39,18.45-6.94,18.45-13.39-4.76-13.39-18.45-13.39m.79,23.61c-2.77,0-4.67-.79-5.95-3.27s-3.07-8.93-3.18-11.52c-.2-2.68,.79-4.26,3.18-5.05,1.19-.4,2.77-.6,4.37-.6,2.67,0,4.46,.6,5.84,3.29,1.39,2.57,3.29,9.02,3.29,11.5,0,4.87-3.58,5.66-7.55,5.66"/><path d="M30.8,180.98c0,6.56,4.96,15.19,18.35,15.19,4.67,0,8.74-1.19,12.31-3.38,5.36-3.77,6.74-10.32,6.74-16.57,0-3.86-.59-8.32-1.58-13.98-.29-1.98-.9-4.96-1.49-8.84,9.72-3.18,16.96-13.3,16.96-23.51,0-14.97-10.62-25.09-25.09-25.09-.99-5.95-1.98-11.81-2.77-17.36,10.42-11.02,17.65-23.42,17.65-39.18,0-9.04-2.77-16.37-4.37-19.95-2.37-5.05-5.25-8.53-7.04-8.53-.7,0-3.77,1.19-7.04,5.05-6.36,7.55-8.14,20.24-8.14,28.57,0,5.36,.5,10.23,2.19,21.34-.11,.09-5.27,5.35-7.35,7.04-9.04,8.34-21.53,20.43-21.53,40.28,0,18.54,16.17,33.12,34.63,33.12,2.87,0,5.55-.29,7.83-.7,1.89,9.53,3.08,16.48,3.08,21.73,0,10.32-5.36,15.78-15.38,15.78-2.39,0-4.46-.5-4.67-.5-.09-.11-.29-.2-.29-.29,0-.2,.2-.31,.5-.31,4.67-.79,9.32-4.76,9.32-11.1,0-5.36-4.06-11.02-11.5-11.02-6.94,0-11.31,5.66-11.31,12.2M51.54,48.54c.9-3.97,5.46-14.38,10.62-14.38,1.49,0,3.86,4.76,3.86,11.7,0,10.32-7.63,18.06-14.48,24.8-.59-3.97-1.08-7.83-1.08-12,0-3.67,.29-7.05,1.08-10.12m8.73,101.97c-1.98,.4-3.86,.6-5.75,.6-14.18,0-26.29-9.92-26.29-24.91,0-12.09,8.53-22.91,17.27-30.46,1.67-1.49,3.27-2.87,4.76-4.36,.88,5.35,1.58,10.01,2.28,14.09-9.04,2.68-15.17,12.2-15.17,21.53,0,6.94,5.46,16.46,13.39,16.46,.79,0,1.69-.4,1.69-1.29s-.99-1.39-2.19-2.19c-3.88-2.39-6.06-4.96-6.06-9.83,0-6.05,4.57-10.91,10.32-12.29l5.75,32.63m14.09-18.35c0,7.05-2.88,14.29-9.92,17.17-2.08-11.9-4.76-27.68-5.46-32.05,8.93,0,15.38,6.06,15.38,14.88"/><path d="M129.99,45.27c.6-.09,1.1-.79,1.1-1.4v-5.84c0-.99-.7-1.39-1.6-1.39l-3.27,.7v-14.79h-2.77v15.38l-8.83,1.8v-14h-2.77v14.59l-3.88,.79c-.59,.11-1.09,.79-1.09,1.39v5.75c0,1.09,.79,1.4,1.69,1.4l3.27-.7v16.37l-3.88,.79c-.59,.09-1.09,.79-1.09,1.4v5.75c0,1.09,.79,1.38,1.69,1.38l3.27-.68v14.77h2.77v-15.38l8.83-1.78v14h2.77v-14.59l3.77-.7c.6-.11,1.1-.79,1.1-1.39v-5.84c0-.99-.7-1.4-1.6-1.4l-3.27,.7v-16.37l3.77-.7m-15.38,3.07l8.83-1.78v16.37l-8.83,1.89v-16.48"/><path d="M157.16,82.47c.6-.09,1.1-.79,1.1-1.4v-5.84c0-.99-.7-1.39-1.6-1.39l-3.27,.7v-14.79h-2.77v15.38l-8.83,1.8v-14h-2.77v14.59l-3.88,.79c-.59,.11-1.09,.79-1.09,1.39v5.75c0,1.09,.79,1.4,1.69,1.4l3.27-.7v16.37l-3.88,.79c-.59,.09-1.09,.79-1.09,1.4v5.75c0,1.09,.79,1.38,1.69,1.38l3.27-.68v14.77h2.77v-15.38l8.83-1.78v14h2.77v-14.59l3.77-.7c.6-.11,1.1-.79,1.1-1.39v-5.84c0-.99-.7-1.4-1.6-1.4l-3.27,.7v-16.37l3.77-.7m-15.38,3.07l8.83-1.78v16.37l-8.83,1.89v-16.48"/><path d="M184.33,32.87c.6-.09,1.1-.79,1.1-1.4v-5.84c0-.99-.7-1.39-1.6-1.39l-3.27,.7V10.15h-2.77v15.38l-8.83,1.8V13.33h-2.77v14.59l-3.88,.79c-.59,.11-1.09,.79-1.09,1.39v5.75c0,1.09,.79,1.4,1.69,1.4l3.27-.7v16.37l-3.88,.79c-.59,.09-1.09,.79-1.09,1.4v5.75c0,1.09,.79,1.38,1.69,1.38l3.27-.68v14.77h2.77v-15.38l8.83-1.78v14h2.77v-14.59l3.77-.7c.6-.11,1.1-.79,1.1-1.39v-5.84c0-.99-.7-1.4-1.6-1.4l-3.27,.7v-16.37l3.77-.7m-15.38,3.07l8.83-1.78v16.37l-8.83,1.89v-16.48"/><path d="M2373.06,17.5c-9.32-10.12-17.56-10.71-22.71-10.71s-13.3,.59-22.63,10.71c-4.85,5.36-8.23,15.97-8.23,21.33,0,1.89,.4,3.18,1.4,3.18,2.77,0,1.38-8.54,9.72-16.97,7.33-7.33,17.16-7.44,19.55-7.44h.39c2.39,0,12.21,.11,19.55,7.44,8.34,8.43,6.94,16.97,9.72,16.97,.99,0,1.39-1.19,1.39-3.18,0-5.36-3.27-16.07-8.14-21.33m-29.56,18.94c0,3.78,3.07,6.85,6.85,6.85s6.84-3.07,6.84-6.85-3.07-6.84-6.84-6.84-6.85,3.07-6.85,6.84"/><path d="M265.27,23.16c-2.33,3.75-3.33,4.79-4.64,4.79-.64,0-1-.4-1-1.12,0-.52,.2-1.44,.59-2.84l7.12-23.99-7.95,.6-.17,1.43h1.25c1.64,0,2.28,.36,2.28,1.24,0,.4-.12,.92-.36,1.76l-2.64,8.88c-.72-2.08-2.28-3.24-4.61-3.24-5.75,0-11.11,6.16-11.11,12.8,0,3.92,2.52,6.59,6.28,6.59,2.72,0,4.72-1.11,6.47-3.71-.03,.32-.03,.71-.03,.89,0,1.82,.95,2.82,2.72,2.82,2.51,0,4.72-1.95,7-6.18l-1.2-.72m-10-10.69c1.95,0,3.39,1.52,3.39,3.61,0,3.62-2.55,12.11-7.19,12.11-2.16,0-3.56-1.72-3.56-4.31,0-3.8,2.72-11.41,7.36-11.41m22.51-8.75c-1.08,0-1.95,.88-1.95,1.95s.88,1.96,1.95,1.96,1.97-.88,1.97-1.96-.89-1.95-1.97-1.95m8.08,0c-1.08,0-1.95,.88-1.95,1.95s.88,1.96,1.95,1.96,1.97-.88,1.97-1.96-.89-1.95-1.97-1.95m2.41,7.55h-3.49l-1.88,6.4c-1.64,5.57-5.33,10.11-8.16,10.11-.97,0-1.72-.75-1.72-1.72,0-.51,.11-1.15,.44-2.26l3.92-13.13-7.72,.6-.12,1.45h.95c1.64,0,2.25,.36,2.25,1.27,0,.4-.12,.96-.33,1.73l-1.59,5.39q-1.23,4-1.23,5.24c0,2.2,1.51,3.68,3.8,3.68,2.8,0,5.08-1.64,7.44-5.33-.41,1.41-.48,1.97-.48,2.72,0,1.57,1.08,2.64,2.56,2.64,2.44,0,4.39-1.64,7.24-6l-1.2-.71c-1.95,2.92-3.52,4.53-4.39,4.53-.36,0-.72-.46-.72-.97,0-.44,.16-1.21,.47-2.36l3.97-13.28"/><path d="M322.48,12.19c.64-.56,1-.75,1.47-.75,.41,0,.73,.19,1.05,.64,.64,.87,.88,1.03,1.51,1.03,.92,0,1.61-.75,1.61-1.75,0-1.17-1.12-2.09-2.53-2.09s-2.47,.53-4.55,2.17c-1.25-.56-2.17-.77-3.45-.77-4.44,0-8.19,3.16-8.19,6.85,0,1.92,.75,3.23,2.47,4.15-1.83,.24-2.67,.52-3.59,1.32-.8,.64-1.31,1.71-1.31,2.68,0,1.36,.64,2.21,2.19,2.96-2.36,.53-5.11,1.53-5.11,4.43,0,4,5.28,4.49,8.2,4.49,3.95,0,6.23-.49,8.19-1.77,1.72-1.11,2.72-2.83,2.72-4.72,0-4.03-4.28-4.51-7.36-4.71-3.55-.19-3.83-.24-4.39-.36-1-.24-1.48-.72-1.48-1.39,0-.97,.95-1.61,2.41-1.61,.51,0,1.11,.04,1.64,.12,1.64,.24,1.88,.28,2.88,.28,2.24,0,4-.56,5.39-1.69,1.61-1.23,2.61-3.23,2.61-5.07s-.8-3.32-2.36-4.44m-4.61,0c2.09,0,3.41,1.25,3.41,3.2,0,2.88-1.31,6.52-4.72,6.52-2.16,0-3.51-1.36-3.51-3.6,0-3.59,1.95-6.12,4.83-6.12m-4.88,17.16c1.8,0,4.69,.4,5.59,.76,1,.44,1.49,1.13,1.49,2.13,0,2.36-2.52,3.64-7.11,3.64-3.89,0-5.69-.97-5.69-3.1s2.08-3.43,5.72-3.43m25.08-25.63c-1.08,0-1.95,.88-1.95,1.95s.88,1.96,1.95,1.96,1.97-.88,1.97-1.96-.89-1.95-1.97-1.95m8.08,0c-1.08,0-1.95,.88-1.95,1.95s.88,1.96,1.95,1.96,1.97-.88,1.97-1.96-.89-1.95-1.97-1.95m2.41,7.55h-3.48l-1.88,6.4c-1.64,5.57-5.33,10.11-8.16,10.11-.97,0-1.72-.75-1.72-1.72,0-.51,.11-1.15,.44-2.26l3.92-13.13-7.72,.6-.12,1.45h.95c1.64,0,2.25,.36,2.25,1.27,0,.4-.12,.96-.33,1.73l-1.59,5.39q-1.24,4-1.24,5.24c0,2.2,1.52,3.68,3.8,3.68,2.8,0,5.08-1.64,7.44-5.33-.41,1.41-.49,1.97-.49,2.72,0,1.57,1.08,2.64,2.56,2.64,2.44,0,4.39-1.64,7.23-6l-1.2-.71c-1.95,2.92-3.52,4.53-4.39,4.53-.36,0-.72-.46-.72-.97,0-.44,.16-1.21,.47-2.36l3.97-13.28"/><path d="M383.83,23.16c-2.33,3.75-3.33,4.79-4.64,4.79-.64,0-1-.4-1-1.12,0-.52,.2-1.44,.59-2.84l7.12-23.99-7.95,.6-.17,1.43h1.25c1.64,0,2.28,.36,2.28,1.24,0,.4-.12,.92-.36,1.76l-2.64,8.88c-.72-2.08-2.28-3.24-4.61-3.24-5.75,0-11.11,6.16-11.11,12.8,0,3.92,2.52,6.59,6.28,6.59,2.72,0,4.72-1.11,6.47-3.71-.03,.32-.03,.71-.03,.89,0,1.82,.95,2.82,2.72,2.82,2.52,0,4.72-1.95,7-6.18l-1.2-.72m-10-10.69c1.95,0,3.39,1.52,3.39,3.61,0,3.62-2.55,12.11-7.19,12.11-2.16,0-3.56-1.72-3.56-4.31,0-3.8,2.72-11.41,7.36-11.41m22.52-8.75c-1.08,0-1.95,.88-1.95,1.95s.88,1.96,1.95,1.96,1.97-.88,1.97-1.96-.89-1.95-1.97-1.95m8.08,0c-1.08,0-1.95,.88-1.95,1.95s.88,1.96,1.95,1.96,1.97-.88,1.97-1.96-.89-1.95-1.97-1.95m2.41,7.55h-3.48l-1.88,6.4c-1.64,5.57-5.33,10.11-8.16,10.11-.97,0-1.72-.75-1.72-1.72,0-.51,.11-1.15,.44-2.26l3.92-13.13-7.72,.6-.12,1.45h.95c1.64,0,2.25,.36,2.25,1.27,0,.4-.12,.96-.33,1.73l-1.59,5.39q-1.23,4-1.23,5.24c0,2.2,1.52,3.68,3.8,3.68,2.8,0,5.08-1.64,7.44-5.33-.41,1.41-.48,1.97-.48,2.72,0,1.57,1.08,2.64,2.56,2.64,2.44,0,4.39-1.64,7.23-6l-1.2-.71c-1.95,2.92-3.52,4.53-4.39,4.53-.36,0-.72-.46-.72-.97,0-.44,.16-1.21,.47-2.36l3.97-13.28"/><path d="M441.04,12.19c.64-.56,1-.75,1.47-.75,.41,0,.73,.19,1.05,.64,.64,.87,.88,1.03,1.52,1.03,.92,0,1.61-.75,1.61-1.75,0-1.17-1.12-2.09-2.53-2.09s-2.47,.53-4.55,2.17c-1.25-.56-2.17-.77-3.45-.77-4.44,0-8.19,3.16-8.19,6.85,0,1.92,.75,3.23,2.47,4.15-1.83,.24-2.67,.52-3.59,1.32-.8,.64-1.31,1.71-1.31,2.68,0,1.36,.64,2.21,2.19,2.96-2.36,.53-5.11,1.53-5.11,4.43,0,4,5.28,4.49,8.2,4.49,3.95,0,6.23-.49,8.19-1.77,1.72-1.11,2.72-2.83,2.72-4.72,0-4.03-4.28-4.51-7.36-4.71-3.55-.19-3.83-.24-4.39-.36-1-.24-1.48-.72-1.48-1.39,0-.97,.95-1.61,2.41-1.61,.52,0,1.11,.04,1.64,.12,1.64,.24,1.88,.28,2.88,.28,2.23,0,4-.56,5.39-1.69,1.61-1.23,2.61-3.23,2.61-5.07s-.8-3.32-2.36-4.44m-4.61,0c2.09,0,3.41,1.25,3.41,3.2,0,2.88-1.31,6.52-4.72,6.52-2.16,0-3.52-1.36-3.52-3.6,0-3.59,1.95-6.12,4.83-6.12m-4.88,17.16c1.8,0,4.69,.4,5.59,.76,1,.44,1.48,1.13,1.48,2.13,0,2.36-2.52,3.64-7.11,3.64-3.89,0-5.69-.97-5.69-3.1s2.08-3.43,5.72-3.43m25.08-25.63c-1.08,0-1.95,.88-1.95,1.95s.88,1.96,1.95,1.96,1.97-.88,1.97-1.96-.89-1.95-1.97-1.95m8.08,0c-1.08,0-1.95,.88-1.95,1.95s.88,1.96,1.95,1.96,1.97-.88,1.97-1.96-.89-1.95-1.97-1.95m2.41,7.55h-3.48l-1.88,6.4c-1.64,5.57-5.33,10.11-8.16,10.11-.97,0-1.72-.75-1.72-1.72,0-.51,.11-1.15,.44-2.26l3.92-13.13-7.72,.6-.12,1.45h.95c1.64,0,2.25,.36,2.25,1.27,0,.4-.12,.96-.33,1.73l-1.59,5.39q-1.23,4-1.23,5.24c0,2.2,1.52,3.68,3.8,3.68,2.8,0,5.08-1.64,7.44-5.33-.41,1.41-.48,1.97-.48,2.72,0,1.57,1.08,2.64,2.56,2.64,2.44,0,4.39-1.64,7.23-6l-1.2-.71c-1.95,2.92-3.52,4.53-4.39,4.53-.36,0-.72-.46-.72-.97,0-.44,.16-1.21,.47-2.36l3.97-13.28"/><path d="M562.21,13.49c.64-.56,1-.75,1.47-.75,.41,0,.74,.19,1.05,.64,.64,.88,.88,1.04,1.52,1.04,.92,0,1.61-.75,1.61-1.75,0-1.18-1.12-2.1-2.53-2.1s-2.47,.53-4.55,2.17c-1.25-.56-2.17-.76-3.45-.76-4.44,0-8.19,3.15-8.19,6.84,0,1.92,.75,3.24,2.47,4.16-1.83,.23-2.67,.51-3.59,1.31-.8,.64-1.31,1.72-1.31,2.69,0,1.36,.64,2.2,2.19,2.95-2.36,.53-5.11,1.53-5.11,4.44,0,4,5.28,4.48,8.2,4.48,3.95,0,6.24-.48,8.19-1.76,1.72-1.11,2.72-2.83,2.72-4.72,0-4.03-4.28-4.52-7.36-4.72-3.55-.19-3.83-.23-4.39-.36-1-.23-1.48-.72-1.48-1.39,0-.97,.95-1.61,2.41-1.61,.52,0,1.11,.05,1.64,.13,1.64,.23,1.88,.28,2.88,.28,2.23,0,4-.57,5.39-1.69,1.61-1.24,2.61-3.24,2.61-5.08s-.8-3.31-2.36-4.44m-4.61,0c2.09,0,3.41,1.25,3.41,3.21,0,2.87-1.31,6.51-4.72,6.51-2.16,0-3.52-1.36-3.52-3.59,0-3.6,1.95-6.13,4.83-6.13m-4.88,17.16c1.8,0,4.69,.41,5.59,.77,1,.43,1.48,1.12,1.48,2.12,0,2.36-2.51,3.64-7.11,3.64-3.89,0-5.69-.97-5.69-3.09s2.08-3.44,5.72-3.44m25.08-25.63c-1.08,0-1.95,.88-1.95,1.96s.88,1.95,1.95,1.95,1.97-.87,1.97-1.95-.89-1.96-1.97-1.96m8.08,0c-1.08,0-1.95,.88-1.95,1.96s.88,1.95,1.95,1.95,1.97-.87,1.97-1.95-.89-1.96-1.97-1.96m2.41,7.55h-3.49l-1.88,6.41c-1.64,5.56-5.33,10.11-8.16,10.11-.97,0-1.72-.75-1.72-1.72,0-.52,.11-1.16,.44-2.27l3.92-13.12-7.72,.59-.12,1.45h.95c1.64,0,2.25,.36,2.25,1.27,0,.41-.12,.97-.33,1.73l-1.59,5.4q-1.23,4-1.23,5.23c0,2.2,1.52,3.69,3.8,3.69,2.8,0,5.08-1.64,7.44-5.33-.41,1.41-.48,1.97-.48,2.72,0,1.56,1.08,2.64,2.56,2.64,2.44,0,4.39-1.64,7.24-6l-1.2-.72c-1.95,2.92-3.52,4.53-4.39,4.53-.36,0-.72-.45-.72-.97,0-.44,.16-1.2,.47-2.36l3.97-13.28"/><path d="M623.56,24.46c-2.33,3.75-3.33,4.8-4.64,4.8-.64,0-1-.41-1-1.13,0-.51,.2-1.43,.59-2.84l7.12-23.98-7.95,.59-.17,1.44h1.25c1.64,0,2.28,.36,2.28,1.23,0,.41-.12,.92-.36,1.77l-2.64,8.87c-.72-2.08-2.28-3.23-4.61-3.23-5.75,0-11.11,6.15-11.11,12.79,0,3.93,2.52,6.6,6.28,6.6,2.72,0,4.72-1.11,6.47-3.72-.03,.33-.03,.72-.03,.89,0,1.83,.95,2.83,2.72,2.83,2.52,0,4.72-1.95,7-6.19l-1.2-.72m-10-10.69c1.95,0,3.39,1.52,3.39,3.61,0,3.63-2.55,12.11-7.19,12.11-2.16,0-3.56-1.72-3.56-4.31,0-3.8,2.72-11.41,7.36-11.41m22.52-8.75c-1.08,0-1.95,.88-1.95,1.96s.88,1.95,1.95,1.95,1.97-.87,1.97-1.95-.89-1.96-1.97-1.96m8.08,0c-1.08,0-1.95,.88-1.95,1.96s.88,1.95,1.95,1.95,1.97-.87,1.97-1.95-.89-1.96-1.97-1.96m2.41,7.55h-3.48l-1.88,6.41c-1.64,5.56-5.33,10.11-8.16,10.11-.97,0-1.72-.75-1.72-1.72,0-.52,.11-1.16,.44-2.27l3.92-13.12-7.72,.59-.12,1.45h.95c1.64,0,2.25,.36,2.25,1.27,0,.41-.12,.97-.33,1.73l-1.59,5.4q-1.23,4-1.23,5.23c0,2.2,1.52,3.69,3.8,3.69,2.8,0,5.08-1.64,7.44-5.33-.41,1.41-.48,1.97-.48,2.72,0,1.56,1.08,2.64,2.56,2.64,2.44,0,4.39-1.64,7.23-6l-1.2-.72c-1.95,2.92-3.52,4.53-4.39,4.53-.36,0-.72-.45-.72-.97,0-.44,.16-1.2,.47-2.36l3.97-13.28"/><path d="M680.77,13.49c.64-.56,1-.75,1.47-.75,.41,0,.73,.19,1.05,.64,.64,.88,.88,1.04,1.52,1.04,.92,0,1.61-.75,1.61-1.75,0-1.18-1.12-2.1-2.53-2.1s-2.47,.53-4.55,2.17c-1.25-.56-2.17-.76-3.45-.76-4.44,0-8.19,3.15-8.19,6.84,0,1.92,.75,3.24,2.47,4.16-1.83,.23-2.67,.51-3.59,1.31-.8,.64-1.31,1.72-1.31,2.69,0,1.36,.64,2.2,2.19,2.95-2.36,.53-5.11,1.53-5.11,4.44,0,4,5.28,4.48,8.2,4.48,3.95,0,6.23-.48,8.19-1.76,1.72-1.11,2.72-2.83,2.72-4.72,0-4.03-4.28-4.52-7.36-4.72-3.55-.19-3.83-.23-4.39-.36-1-.23-1.48-.72-1.48-1.39,0-.97,.95-1.61,2.41-1.61,.52,0,1.11,.05,1.64,.13,1.64,.23,1.88,.28,2.88,.28,2.23,0,4-.57,5.39-1.69,1.61-1.24,2.61-3.24,2.61-5.08s-.8-3.31-2.36-4.44m-4.61,0c2.09,0,3.41,1.25,3.41,3.21,0,2.87-1.31,6.51-4.72,6.51-2.16,0-3.52-1.36-3.52-3.59,0-3.6,1.95-6.13,4.83-6.13m-4.88,17.16c1.8,0,4.69,.41,5.59,.77,1,.43,1.48,1.12,1.48,2.12,0,2.36-2.52,3.64-7.11,3.64-3.89,0-5.69-.97-5.69-3.09s2.08-3.44,5.72-3.44m25.08-25.63c-1.08,0-1.95,.88-1.95,1.96s.88,1.95,1.95,1.95,1.97-.87,1.97-1.95-.89-1.96-1.97-1.96m8.08,0c-1.08,0-1.95,.88-1.95,1.96s.88,1.95,1.95,1.95,1.97-.87,1.97-1.95-.89-1.96-1.97-1.96m2.41,7.55h-3.48l-1.88,6.41c-1.64,5.56-5.33,10.11-8.16,10.11-.97,0-1.72-.75-1.72-1.72,0-.52,.11-1.16,.44-2.27l3.92-13.12-7.72,.59-.12,1.45h.95c1.64,0,2.25,.36,2.25,1.27,0,.41-.12,.97-.33,1.73l-1.59,5.4q-1.23,4-1.23,5.23c0,2.2,1.52,3.69,3.8,3.69,2.8,0,5.08-1.64,7.44-5.33-.41,1.41-.48,1.97-.48,2.72,0,1.56,1.08,2.64,2.56,2.64,2.44,0,4.39-1.64,7.23-6l-1.2-.72c-1.95,2.92-3.52,4.53-4.39,4.53-.36,0-.72-.45-.72-.97,0-.44,.16-1.2,.47-2.36l3.97-13.28"/><path d="M769.26,14.2c-4.2,0-7.25,2.56-7.25,6.03,0,1.74,1,3.17,2.77,4.1,.64,.31,1.44,.67,3.12,1.36,2.27,.9,2.83,1.46,2.83,2.87,0,2.16-1.8,3.52-4.56,3.52-2.03,0-3.47-.57-3.47-1.36,0-.21,.11-.44,.28-.6,.75-.79,.83-1,.83-1.72,0-1.12-.88-2-2.03-2-1.33,0-2.33,1.11-2.33,2.68,0,2.79,2.48,4.51,6.53,4.51,4.59,0,7.75-2.51,7.75-6.15,0-1.6-.72-2.96-2-3.83-.88-.61-1.28-.77-3.47-1.57-2.61-.92-3.28-1.56-3.28-3.12,0-1.84,1.75-3.2,4.08-3.2,1.56,0,2.59,.43,2.59,1.07,0,.18-.08,.36-.2,.57-.56,.79-.64,1-.64,1.61,0,1.07,.84,1.82,2.08,1.82,1.36,0,2.28-1,2.28-2.43,0-2.44-2.44-4.16-5.91-4.16m16.75-9.76c-1.2,0-2.16,.96-2.16,2.17s.95,2.15,2.12,2.15c1.23,0,2.18-.97,2.18-2.15s-.95-2.17-2.15-2.17m.72,9.76l-7.67,.59-.16,1.46h.95c1.64,0,2.28,.36,2.28,1.23,0,.39-.08,.85-.36,1.77l-2.33,7.79c-.75,2.55-.88,3.11-.88,4.04,0,1.4,1.2,2.48,2.72,2.48,3.44,0,5.8-3.56,7.48-6.16l-1.25-.68c-2.07,3.15-3.75,4.84-4.82,4.84-.41,0-.69-.36-.69-.84,0-.39,.16-1.13,.49-2.24l4.23-14.28m12.97,0l-7.29,.59-.12,1.46h.97c1.59,0,2.23,.36,2.23,1.26,0,.36-.12,.97-.33,1.74l-4.07,13.75h3.48l1.64-5.64c1.8-6.13,5.44-10.75,8.44-10.75,1.05,0,1.69,.54,1.69,1.54,0,.82-.33,2.49-.82,4l-3.18,10.85h3.47l1.71-5.8c1-3.33,2-5.56,3.29-7.28,1.43-2,3.48-3.31,5-3.31,1,0,1.56,.51,1.56,1.47,0,.56-.21,1.43-.56,2.56l-1.85,5.69c-1.08,3.11-1.11,3.36-1.11,4.46,0,1.69,1.24,2.8,3.11,2.8,1.33,0,2.61-.64,3.97-1.9,.84-.82,1.39-1.54,3.03-3.93l-1.23-.84c-2.08,3.12-3.57,4.64-4.6,4.64-.43,0-.84-.44-.84-1,0-.36,.12-.8,.48-1.97l2.52-7.75c.28-.87,.48-2.12,.48-3,0-2.12-1.56-3.64-3.71-3.64-2.85,0-5.41,1.84-7.72,5.64,.15-.76,.23-1.44,.23-1.92,0-2.13-1.69-3.72-3.87-3.72-2.54,0-4.36,1.41-7.18,5.41l1.18-5.41m29.95,14.44c-1.36,0-2.47,1.12-2.47,2.48s1.11,2.47,2.44,2.47c1.44,0,2.51-1.08,2.51-2.47s-1.12-2.48-2.48-2.48"/><path d="M505,24.46c-2.33,3.75-3.33,4.8-4.64,4.8-.64,0-1-.41-1-1.13,0-.51,.2-1.43,.59-2.84l7.12-23.98-7.95,.59-.17,1.44h1.25c1.64,0,2.28,.36,2.28,1.23,0,.41-.12,.92-.36,1.77l-2.64,8.87c-.72-2.08-2.28-3.23-4.61-3.23-5.75,0-11.11,6.15-11.11,12.79,0,3.93,2.52,6.6,6.28,6.6,2.72,0,4.72-1.11,6.47-3.72-.03,.33-.03,.72-.03,.89,0,1.83,.95,2.83,2.72,2.83,2.52,0,4.72-1.95,7-6.19l-1.2-.72m-10-10.69c1.95,0,3.39,1.52,3.39,3.61,0,3.63-2.55,12.11-7.19,12.11-2.16,0-3.56-1.72-3.56-4.31,0-3.8,2.72-11.41,7.36-11.41m22.52-8.75c-1.08,0-1.95,.88-1.95,1.96s.88,1.95,1.95,1.95,1.97-.87,1.97-1.95-.89-1.96-1.97-1.96m8.08,0c-1.08,0-1.95,.88-1.95,1.96s.88,1.95,1.95,1.95,1.97-.87,1.97-1.95-.89-1.96-1.97-1.96m2.41,7.55h-3.48l-1.88,6.41c-1.64,5.56-5.33,10.11-8.16,10.11-.97,0-1.72-.75-1.72-1.72,0-.52,.11-1.16,.44-2.27l3.92-13.12-7.72,.59-.12,1.45h.95c1.64,0,2.25,.36,2.25,1.27,0,.41-.12,.97-.33,1.73l-1.59,5.4q-1.23,4-1.23,5.23c0,2.2,1.52,3.69,3.8,3.69,2.8,0,5.08-1.64,7.44-5.33-.41,1.41-.48,1.97-.48,2.72,0,1.56,1.08,2.64,2.56,2.64,2.44,0,4.39-1.64,7.23-6l-1.2-.72c-1.95,2.92-3.52,4.53-4.39,4.53-.36,0-.72-.45-.72-.97,0-.44,.16-1.2,.47-2.36l3.97-13.28"/><path d="M1005.66,179.69h180.32v12.4h-180.32v-12.4" fill-rule="evenodd"/><path d="M1289.64,167.29h180.32v12.4h-180.32v-12.4" fill-rule="evenodd"/><path d="M768.54,154.89h180.32v12.4h-180.32v-12.4" fill-rule="evenodd"/><path d="M1556.51,30.89h180.33v12.4h-180.33v-12.4" fill-rule="evenodd"/><path d="M484.57,167.29h180.32v12.4h-180.32v-12.4" fill-rule="evenodd"/><path d="M247.44,179.69h180.32v12.4H247.44v-12.4" fill-rule="evenodd"/><path d="M1810.74,179.69h180.32v12.4h-180.32v-12.4" fill-rule="evenodd"/><path d="M2047.86,167.29h180.32v12.4h-180.32v-12.4" fill-rule="evenodd"/></g></svg>