<?xml version="1.0" encoding="UTF-8"?><svg id="Ebene_2" xmlns="http://www.w3.org/2000/svg" viewBox="0 0 2552.4 519.59"><g id="Ebene_1-2"><line y1="35.91" x2="2552.4" y2="35.91" fill="none" stroke="#000" stroke-linejoin="bevel" stroke-width="2.73"/><line y1="60.71" x2="2552.4" y2="60.71" fill="none" stroke="#000" stroke-linejoin="bevel" stroke-width="2.73"/><line y1="85.51" x2="2552.4" y2="85.51" fill="none" stroke="#000" stroke-linejoin="bevel" stroke-width="2.73"/><line y1="110.31" x2="2552.4" y2="110.31" fill="none" stroke="#000" stroke-linejoin="bevel" stroke-width="2.73"/><line y1="135.11" x2="2552.4" y2="135.11" fill="none" stroke="#000" stroke-linejoin="bevel" stroke-width="2.73"/><line y1="379.11" x2="2552.4" y2="379.11" fill="none" stroke="#000" stroke-linejoin="bevel" stroke-width="2.73"/><line y1="403.91" x2="2552.4" y2="403.91" fill="none" stroke="#000" stroke-linejoin="bevel" stroke-width="2.73"/><line y1="428.71" x2="2552.4" y2="428.71" fill="none" stroke="#000" stroke-linejoin="bevel" stroke-width="2.73"/><line y1="453.51" x2="2552.4" y2="453.51" fill="none" stroke="#000" stroke-linejoin="bevel" stroke-width="2.73"/><line y1="478.31" x2="2552.4" y2="478.31" fill="none" stroke="#000" stroke-linejoin="bevel" stroke-width="2.73"/><line x1="2536.53" y1="377.75" x2="2536.53" y2="479.68" fill="none" stroke="#000" stroke-linejoin="bevel" stroke-width="4.46"/><line x1="2550.17" y1="377.75" x2="2550.17" y2="479.68" fill="none" stroke="#000" stroke-linejoin="bevel" stroke-width="4.46"/><line x1="2194.32" y1="377.75" x2="2194.32" y2="479.68" fill="none" stroke="#000" stroke-linejoin="bevel" stroke-width="4.46"/><line x1="1190.05" y1="377.75" x2="1190.05" y2="479.68" fill="none" stroke="#000" stroke-linejoin="bevel" stroke-width="4.46"/><line x1="2550.17" y1="34.55" x2="2550.17" y2="136.47" fill="none" stroke="#000" stroke-linejoin="bevel" stroke-width="4.46"/><line x1="1367.98" y1="34.55" x2="1367.98" y2="136.47" fill="none" stroke="#000" stroke-linejoin="bevel" stroke-width="4.46"/><line x1="691.08" y1="503.11" x2="739.68" y2="503.11" fill="none" stroke="#000" stroke-linejoin="bevel" stroke-width="3.97"/><line x1="1050.33" y1="503.11" x2="1098.93" y2="503.11" fill="none" stroke="#000" stroke-linejoin="bevel" stroke-width="3.97"/><line x1="1110.21" y1="503.11" x2="1158.81" y2="503.11" fill="none" stroke="#000" stroke-linejoin="bevel" stroke-width="3.97"/><line x1="750.96" y1="503.11" x2="799.56" y2="503.11" fill="none" stroke="#000" stroke-linejoin="bevel" stroke-width="3.97"/><line x1="824" y1="131.14" x2="824" y2="42.08" fill="none" stroke="#000" stroke-linejoin="bevel" stroke-width="2.48"/><line x1="752.4" y1="143.54" x2="752.4" y2="42.08" fill="none" stroke="#000" stroke-linejoin="bevel" stroke-width="2.48"/><line x1="680.81" y1="143.54" x2="680.81" y2="40.03" fill="none" stroke="#000" stroke-linejoin="bevel" stroke-width="2.48"/><line x1="609.22" y1="118.74" x2="609.22" y2="37.99" fill="none" stroke="#000" stroke-linejoin="bevel" stroke-width="2.48"/><line x1="537.63" y1="118.74" x2="537.63" y2="35.95" fill="none" stroke="#000" stroke-linejoin="bevel" stroke-width="2.48"/><line x1="466.03" y1="131.14" x2="466.03" y2="60.75" fill="none" stroke="#000" stroke-linejoin="bevel" stroke-width="2.48"/><line x1="394.44" y1="131.14" x2="394.44" y2="62.79" fill="none" stroke="#000" stroke-linejoin="bevel" stroke-width="2.48"/><line x1="322.85" y1="143.54" x2="322.85" y2="64.83" fill="none" stroke="#000" stroke-linejoin="bevel" stroke-width="2.48"/><line x1="251.26" y1="143.54" x2="251.26" y2="66.88" fill="none" stroke="#000" stroke-linejoin="bevel" stroke-width="2.48"/><line x1="895.59" y1="131.14" x2="895.59" y2="40.03" fill="none" stroke="#000" stroke-linejoin="bevel" stroke-width="2.48"/><line x1="967.18" y1="118.74" x2="967.18" y2="37.99" fill="none" stroke="#000" stroke-linejoin="bevel" stroke-width="2.48"/><line x1="1038.77" y1="118.74" x2="1038.77" y2="35.95" fill="none" stroke="#000" stroke-linejoin="bevel" stroke-width="2.48"/><line x1="1110.37" y1="106.34" x2="1110.37" y2="35.95" fill="none" stroke="#000" stroke-linejoin="bevel" stroke-width="2.48"/><line x1="1181.96" y1="106.34" x2="1181.96" y2="37.99" fill="none" stroke="#000" stroke-linejoin="bevel" stroke-width="2.48"/><line x1="1325.15" y1="131.14" x2="1325.15" y2="42.08" fill="none" stroke="#000" stroke-linejoin="bevel" stroke-width="2.48"/><line x1="1433.44" y1="118.74" x2="1433.44" y2="42.08" fill="none" stroke="#000" stroke-linejoin="bevel" stroke-width="2.48"/><line x1="1505.03" y1="118.74" x2="1505.03" y2="40.03" fill="none" stroke="#000" stroke-linejoin="bevel" stroke-width="2.48"/><line x1="1576.63" y1="106.34" x2="1576.63" y2="37.99" fill="none" stroke="#000" stroke-linejoin="bevel" stroke-width="2.48"/><line x1="1648.22" y1="106.34" x2="1648.22" y2="35.95" fill="none" stroke="#000" stroke-linejoin="bevel" stroke-width="2.48"/><line x1="1719.81" y1="93.94" x2="1719.81" y2="17.35" fill="none" stroke="#000" stroke-linejoin="bevel" stroke-width="2.48"/><line x1="1791.41" y1="93.94" x2="1791.41" y2="19.39" fill="none" stroke="#000" stroke-linejoin="bevel" stroke-width="2.48"/><line x1="1863" y1="118.74" x2="1863" y2="21.43" fill="none" stroke="#000" stroke-linejoin="bevel" stroke-width="2.48"/><line x1="1934.59" y1="118.74" x2="1934.59" y2="23.48" fill="none" stroke="#000" stroke-linejoin="bevel" stroke-width="2.48"/><line x1="2006.18" y1="143.54" x2="2006.18" y2="66.88" fill="none" stroke="#000" stroke-linejoin="bevel" stroke-width="2.48"/><line x1="2077.78" y1="143.54" x2="2077.78" y2="64.83" fill="none" stroke="#000" stroke-linejoin="bevel" stroke-width="2.48"/><line x1="2149.37" y1="131.14" x2="2149.37" y2="62.79" fill="none" stroke="#000" stroke-linejoin="bevel" stroke-width="2.48"/><line x1="2220.96" y1="131.14" x2="2220.96" y2="60.75" fill="none" stroke="#000" stroke-linejoin="bevel" stroke-width="2.48"/><line x1="2292.56" y1="118.74" x2="2292.56" y2="35.95" fill="none" stroke="#000" stroke-linejoin="bevel" stroke-width="2.48"/><line x1="2364.15" y1="118.74" x2="2364.15" y2="37.99" fill="none" stroke="#000" stroke-linejoin="bevel" stroke-width="2.48"/><line x1="2435.74" y1="143.54" x2="2435.74" y2="40.03" fill="none" stroke="#000" stroke-linejoin="bevel" stroke-width="2.48"/><line x1="2507.33" y1="143.54" x2="2507.33" y2="42.08" fill="none" stroke="#000" stroke-linejoin="bevel" stroke-width="2.48"/><line x1="251.26" y1="474.34" x2="251.26" y2="385.27" fill="none" stroke="#000" stroke-linejoin="bevel" stroke-width="2.48"/><line x1="311.13" y1="474.34" x2="311.13" y2="383.23" fill="none" stroke="#000" stroke-linejoin="bevel" stroke-width="2.48"/><line x1="371.01" y1="461.94" x2="371.01" y2="381.19" fill="none" stroke="#000" stroke-linejoin="bevel" stroke-width="2.48"/><line x1="430.88" y1="461.94" x2="430.88" y2="379.15" fill="none" stroke="#000" stroke-linejoin="bevel" stroke-width="2.48"/><line x1="490.76" y1="449.54" x2="490.76" y2="379.15" fill="none" stroke="#000" stroke-linejoin="bevel" stroke-width="2.48"/><line x1="550.63" y1="449.54" x2="550.63" y2="381.19" fill="none" stroke="#000" stroke-linejoin="bevel" stroke-width="2.48"/><line x1="610.51" y1="474.34" x2="610.51" y2="383.23" fill="none" stroke="#000" stroke-linejoin="bevel" stroke-width="2.48"/><line x1="670.38" y1="474.34" x2="670.38" y2="385.27" fill="none" stroke="#000" stroke-linejoin="bevel" stroke-width="2.48"/><line x1="730.26" y1="499.14" x2="730.26" y2="410.07" fill="none" stroke="#000" stroke-linejoin="bevel" stroke-width="2.48"/><line x1="1253.55" y1="131.14" x2="1253.55" y2="40.03" fill="none" stroke="#000" stroke-linejoin="bevel" stroke-width="2.48"/><line x1="850.01" y1="486.74" x2="850.01" y2="405.99" fill="none" stroke="#000" stroke-linejoin="bevel" stroke-width="2.48"/><line x1="909.88" y1="486.74" x2="909.88" y2="403.95" fill="none" stroke="#000" stroke-linejoin="bevel" stroke-width="2.48"/><line x1="969.76" y1="474.34" x2="969.76" y2="403.95" fill="none" stroke="#000" stroke-linejoin="bevel" stroke-width="2.48"/><line x1="1029.63" y1="474.34" x2="1029.63" y2="405.99" fill="none" stroke="#000" stroke-linejoin="bevel" stroke-width="2.48"/><line x1="1089.51" y1="499.14" x2="1089.51" y2="408.03" fill="none" stroke="#000" stroke-linejoin="bevel" stroke-width="2.48"/><line x1="1149.38" y1="499.14" x2="1149.38" y2="410.07" fill="none" stroke="#000" stroke-linejoin="bevel" stroke-width="2.48"/><line x1="1255.52" y1="486.74" x2="1255.52" y2="385.27" fill="none" stroke="#000" stroke-linejoin="bevel" stroke-width="2.48"/><line x1="1315.39" y1="486.74" x2="1315.39" y2="383.23" fill="none" stroke="#000" stroke-linejoin="bevel" stroke-width="2.48"/><line x1="1375.27" y1="461.94" x2="1375.27" y2="381.19" fill="none" stroke="#000" stroke-linejoin="bevel" stroke-width="2.48"/><line x1="1435.15" y1="461.94" x2="1435.15" y2="379.15" fill="none" stroke="#000" stroke-linejoin="bevel" stroke-width="2.48"/><line x1="1495.02" y1="474.34" x2="1495.02" y2="403.95" fill="none" stroke="#000" stroke-linejoin="bevel" stroke-width="2.48"/><line x1="1554.9" y1="474.34" x2="1554.9" y2="405.99" fill="none" stroke="#000" stroke-linejoin="bevel" stroke-width="2.48"/><line x1="1614.77" y1="486.74" x2="1614.77" y2="408.03" fill="none" stroke="#000" stroke-linejoin="bevel" stroke-width="2.48"/><line x1="1674.65" y1="486.74" x2="1674.65" y2="410.07" fill="none" stroke="#000" stroke-linejoin="bevel" stroke-width="2.48"/><line x1="1734.52" y1="474.34" x2="1734.52" y2="385.27" fill="none" stroke="#000" stroke-linejoin="bevel" stroke-width="2.48"/><line x1="1794.4" y1="474.34" x2="1794.4" y2="383.23" fill="none" stroke="#000" stroke-linejoin="bevel" stroke-width="2.48"/><line x1="1854.27" y1="449.54" x2="1854.27" y2="381.19" fill="none" stroke="#000" stroke-linejoin="bevel" stroke-width="2.48"/><line x1="1914.15" y1="449.54" x2="1914.15" y2="379.15" fill="none" stroke="#000" stroke-linejoin="bevel" stroke-width="2.48"/><line x1="1974.02" y1="461.94" x2="1974.02" y2="379.15" fill="none" stroke="#000" stroke-linejoin="bevel" stroke-width="2.48"/><line x1="2033.9" y1="461.94" x2="2033.9" y2="381.19" fill="none" stroke="#000" stroke-linejoin="bevel" stroke-width="2.48"/><line x1="2093.77" y1="474.34" x2="2093.77" y2="383.23" fill="none" stroke="#000" stroke-linejoin="bevel" stroke-width="2.48"/><line x1="2153.65" y1="474.34" x2="2153.65" y2="385.27" fill="none" stroke="#000" stroke-linejoin="bevel" stroke-width="2.48"/><line x1="790.13" y1="499.14" x2="790.13" y2="408.03" fill="none" stroke="#000" stroke-linejoin="bevel" stroke-width="2.48"/><path d="M220.26,151.68c0,4.26,3.07,9.02,11.11,9.02,10.31,0,21.13-8.43,21.13-17.16,0-5.86-4.96-9.13-11.11-9.13-9.63,0-21.13,8.14-21.13,17.27"/><path d="M291.86,151.68c0,4.26,3.07,9.02,11.11,9.02,10.31,0,21.13-8.43,21.13-17.16,0-5.86-4.96-9.13-11.11-9.13-9.63,0-21.13,8.14-21.13,17.27"/><path d="M363.45,139.28c0,4.26,3.07,9.02,11.11,9.02,10.31,0,21.13-8.43,21.13-17.16,0-5.86-4.96-9.13-11.11-9.13-9.63,0-21.13,8.14-21.13,17.27"/><path d="M435.04,139.28c0,4.26,3.07,9.02,11.11,9.02,10.31,0,21.13-8.43,21.13-17.16,0-5.86-4.96-9.13-11.11-9.13-9.63,0-21.13,8.14-21.13,17.27"/><path d="M506.63,126.88c0,4.26,3.07,9.02,11.11,9.02,10.31,0,21.13-8.43,21.13-17.16,0-5.86-4.96-9.13-11.11-9.13-9.63,0-21.13,8.14-21.13,17.27"/><path d="M578.23,126.88c0,4.26,3.07,9.02,11.11,9.02,10.31,0,21.13-8.43,21.13-17.16,0-5.86-4.96-9.13-11.11-9.13-9.63,0-21.13,8.14-21.13,17.27"/><path d="M649.82,151.68c0,4.26,3.07,9.02,11.11,9.02,10.31,0,21.13-8.43,21.13-17.16,0-5.86-4.96-9.13-11.11-9.13-9.63,0-21.13,8.14-21.13,17.27"/><path d="M721.41,151.68c0,4.26,3.07,9.02,11.11,9.02,10.31,0,21.13-8.43,21.13-17.16,0-5.86-4.96-9.13-11.11-9.13-9.63,0-21.13,8.14-21.13,17.27"/><path d="M793,139.28c0,4.26,3.07,9.02,11.11,9.02,10.31,0,21.13-8.43,21.13-17.16,0-5.86-4.96-9.13-11.11-9.13-9.63,0-21.13,8.14-21.13,17.27"/><path d="M864.6,139.28c0,4.26,3.07,9.02,11.11,9.02,10.31,0,21.13-8.43,21.13-17.16,0-5.86-4.96-9.13-11.11-9.13-9.63,0-21.13,8.14-21.13,17.27"/><path d="M936.19,126.88c0,4.26,3.07,9.02,11.11,9.02,10.31,0,21.13-8.43,21.13-17.16,0-5.86-4.96-9.13-11.11-9.13-9.63,0-21.13,8.14-21.13,17.27"/><path d="M1007.78,126.88c0,4.26,3.07,9.02,11.11,9.02,10.31,0,21.13-8.43,21.13-17.16,0-5.86-4.96-9.13-11.11-9.13-9.63,0-21.13,8.14-21.13,17.27"/><path d="M1079.37,114.48c0,4.26,3.07,9.02,11.11,9.02,10.31,0,21.13-8.43,21.13-17.16,0-5.86-4.96-9.13-11.11-9.13-9.63,0-21.13,8.14-21.13,17.27"/><path d="M1150.97,114.48c0,4.26,3.07,9.02,11.11,9.02,10.31,0,21.13-8.43,21.13-17.16,0-5.86-4.96-9.13-11.11-9.13-9.63,0-21.13,8.14-21.13,17.27"/><path d="M1222.56,139.28c0,4.26,3.07,9.02,11.11,9.02,10.31,0,21.13-8.43,21.13-17.16,0-5.86-4.96-9.13-11.11-9.13-9.63,0-21.13,8.14-21.13,17.27"/><path d="M1294.15,139.28c0,4.26,3.07,9.02,11.11,9.02,10.31,0,21.13-8.43,21.13-17.16,0-5.86-4.96-9.13-11.11-9.13-9.63,0-21.13,8.14-21.13,17.27"/><path d="M1402.45,126.88c0,4.26,3.07,9.02,11.11,9.02,10.31,0,21.13-8.43,21.13-17.16,0-5.86-4.96-9.13-11.11-9.13-9.63,0-21.13,8.14-21.13,17.27"/><path d="M1474.04,126.88c0,4.26,3.07,9.02,11.11,9.02,10.31,0,21.13-8.43,21.13-17.16,0-5.86-4.96-9.13-11.11-9.13-9.63,0-21.13,8.14-21.13,17.27"/><path d="M1545.64,114.48c0,4.26,3.07,9.02,11.11,9.02,10.31,0,21.13-8.43,21.13-17.16,0-5.86-4.96-9.13-11.11-9.13-9.63,0-21.13,8.14-21.13,17.27"/><path d="M1617.23,114.48c0,4.26,3.07,9.02,11.11,9.02,10.31,0,21.13-8.43,21.13-17.16,0-5.86-4.96-9.13-11.11-9.13-9.63,0-21.13,8.14-21.13,17.27"/><path d="M1688.82,102.08c0,4.26,3.07,9.02,11.11,9.02,10.31,0,21.13-8.43,21.13-17.16,0-5.86-4.96-9.13-11.11-9.13-9.63,0-21.13,8.14-21.13,17.27"/><path d="M1760.41,102.08c0,4.26,3.07,9.02,11.11,9.02,10.31,0,21.13-8.43,21.13-17.16,0-5.86-4.96-9.13-11.11-9.13-9.63,0-21.13,8.14-21.13,17.27"/><path d="M1832.01,126.88c0,4.26,3.07,9.02,11.11,9.02,10.31,0,21.13-8.43,21.13-17.16,0-5.86-4.96-9.13-11.11-9.13-9.63,0-21.13,8.14-21.13,17.27"/><path d="M1903.6,126.88c0,4.26,3.07,9.02,11.11,9.02,10.31,0,21.13-8.43,21.13-17.16,0-5.86-4.96-9.13-11.11-9.13-9.63,0-21.13,8.14-21.13,17.27"/><path d="M1975.19,151.68c0,4.26,3.07,9.02,11.11,9.02,10.31,0,21.13-8.43,21.13-17.16,0-5.86-4.96-9.13-11.11-9.13-9.63,0-21.13,8.14-21.13,17.27"/><path d="M2046.78,151.68c0,4.26,3.07,9.02,11.11,9.02,10.31,0,21.13-8.43,21.13-17.16,0-5.86-4.96-9.13-11.11-9.13-9.63,0-21.13,8.14-21.13,17.27"/><path d="M2118.38,139.28c0,4.26,3.07,9.02,11.11,9.02,10.31,0,21.13-8.43,21.13-17.16,0-5.86-4.96-9.13-11.11-9.13-9.63,0-21.13,8.14-21.13,17.27"/><path d="M2189.97,139.28c0,4.26,3.07,9.02,11.11,9.02,10.31,0,21.13-8.43,21.13-17.16,0-5.86-4.96-9.13-11.11-9.13-9.63,0-21.13,8.14-21.13,17.27"/><path d="M2261.56,126.88c0,4.26,3.07,9.02,11.11,9.02,10.31,0,21.13-8.43,21.13-17.16,0-5.86-4.96-9.13-11.11-9.13-9.63,0-21.13,8.14-21.13,17.27"/><path d="M2333.16,126.88c0,4.26,3.07,9.02,11.11,9.02,10.31,0,21.13-8.43,21.13-17.16,0-5.86-4.96-9.13-11.11-9.13-9.63,0-21.13,8.14-21.13,17.27"/><path d="M2404.75,151.68c0,4.26,3.07,9.02,11.11,9.02,10.31,0,21.13-8.43,21.13-17.16,0-5.86-4.96-9.13-11.11-9.13-9.63,0-21.13,8.14-21.13,17.27"/><path d="M2476.34,151.68c0,4.26,3.07,9.02,11.11,9.02,10.31,0,21.13-8.43,21.13-17.16,0-5.86-4.96-9.13-11.11-9.13-9.63,0-21.13,8.14-21.13,17.27"/><path d="M220.26,482.48c0,4.26,3.07,9.02,11.11,9.02,10.31,0,21.13-8.43,21.13-17.16,0-5.86-4.96-9.13-11.11-9.13-9.63,0-21.13,8.14-21.13,17.27"/><path d="M280.14,482.48c0,4.26,3.07,9.02,11.11,9.02,10.31,0,21.13-8.43,21.13-17.16,0-5.86-4.96-9.13-11.11-9.13-9.63,0-21.13,8.14-21.13,17.27"/><path d="M340.01,470.08c0,4.26,3.07,9.02,11.11,9.02,10.31,0,21.13-8.43,21.13-17.16,0-5.86-4.96-9.13-11.11-9.13-9.63,0-21.13,8.14-21.13,17.27"/><path d="M399.89,470.08c0,4.26,3.07,9.02,11.11,9.02,10.31,0,21.13-8.43,21.13-17.16,0-5.86-4.96-9.13-11.11-9.13-9.63,0-21.13,8.14-21.13,17.27"/><path d="M459.76,457.68c0,4.26,3.07,9.02,11.11,9.02,10.31,0,21.13-8.43,21.13-17.16,0-5.86-4.96-9.13-11.11-9.13-9.63,0-21.13,8.14-21.13,17.27"/><path d="M519.64,457.68c0,4.26,3.07,9.02,11.11,9.02,10.31,0,21.13-8.43,21.13-17.16,0-5.86-4.96-9.13-11.11-9.13-9.63,0-21.13,8.14-21.13,17.27"/><path d="M579.51,482.48c0,4.26,3.07,9.02,11.11,9.02,10.31,0,21.13-8.43,21.13-17.16,0-5.86-4.96-9.13-11.11-9.13-9.63,0-21.13,8.14-21.13,17.27"/><path d="M639.39,482.48c0,4.26,3.07,9.02,11.11,9.02,10.31,0,21.13-8.43,21.13-17.16,0-5.86-4.96-9.13-11.11-9.13-9.63,0-21.13,8.14-21.13,17.27"/><path d="M699.27,507.28c0,4.26,3.07,9.02,11.11,9.02,10.31,0,21.13-8.43,21.13-17.16,0-5.86-4.96-9.13-11.11-9.13-9.63,0-21.13,8.14-21.13,17.27"/><path d="M759.14,507.28c0,4.26,3.07,9.02,11.11,9.02,10.31,0,21.13-8.43,21.13-17.16,0-5.86-4.96-9.13-11.11-9.13-9.63,0-21.13,8.14-21.13,17.27"/><path d="M819.01,494.88c0,4.26,3.07,9.02,11.11,9.02,10.31,0,21.13-8.43,21.13-17.16,0-5.86-4.96-9.13-11.11-9.13-9.63,0-21.13,8.14-21.13,17.27"/><path d="M878.89,494.88c0,4.26,3.07,9.02,11.11,9.02,10.31,0,21.13-8.43,21.13-17.16,0-5.86-4.96-9.13-11.11-9.13-9.63,0-21.13,8.14-21.13,17.27"/><path d="M938.76,482.48c0,4.26,3.07,9.02,11.11,9.02,10.31,0,21.13-8.43,21.13-17.16,0-5.86-4.96-9.13-11.11-9.13-9.63,0-21.13,8.14-21.13,17.27"/><path d="M998.64,482.48c0,4.26,3.07,9.02,11.11,9.02,10.31,0,21.13-8.43,21.13-17.16,0-5.86-4.96-9.13-11.11-9.13-9.63,0-21.13,8.14-21.13,17.27"/><path d="M1058.52,507.28c0,4.26,3.07,9.02,11.11,9.02,10.31,0,21.13-8.43,21.13-17.16,0-5.86-4.96-9.13-11.11-9.13-9.63,0-21.13,8.14-21.13,17.27"/><path d="M1118.39,507.28c0,4.26,3.07,9.02,11.11,9.02,10.31,0,21.13-8.43,21.13-17.16,0-5.86-4.96-9.13-11.11-9.13-9.63,0-21.13,8.14-21.13,17.27"/><path d="M1224.53,494.88c0,4.26,3.07,9.02,11.11,9.02,10.31,0,21.13-8.43,21.13-17.16,0-5.86-4.96-9.13-11.11-9.13-9.63,0-21.13,8.14-21.13,17.27"/><path d="M1284.4,494.88c0,4.26,3.07,9.02,11.11,9.02,10.31,0,21.13-8.43,21.13-17.16,0-5.86-4.96-9.13-11.11-9.13-9.63,0-21.13,8.14-21.13,17.27"/><path d="M1344.28,470.08c0,4.26,3.07,9.02,11.11,9.02,10.31,0,21.13-8.43,21.13-17.16,0-5.86-4.96-9.13-11.11-9.13-9.63,0-21.13,8.14-21.13,17.27"/><path d="M1404.15,470.08c0,4.26,3.07,9.02,11.11,9.02,10.31,0,21.13-8.43,21.13-17.16,0-5.86-4.96-9.13-11.11-9.13-9.63,0-21.13,8.14-21.13,17.27"/><path d="M1464.03,482.48c0,4.26,3.07,9.02,11.11,9.02,10.31,0,21.13-8.43,21.13-17.16,0-5.86-4.96-9.13-11.11-9.13-9.63,0-21.13,8.14-21.13,17.27"/><path d="M1523.9,482.48c0,4.26,3.07,9.02,11.11,9.02,10.31,0,21.13-8.43,21.13-17.16,0-5.86-4.96-9.13-11.11-9.13-9.63,0-21.13,8.14-21.13,17.27"/><path d="M1583.78,494.88c0,4.26,3.07,9.02,11.11,9.02,10.31,0,21.13-8.43,21.13-17.16,0-5.86-4.96-9.13-11.11-9.13-9.63,0-21.13,8.14-21.13,17.27"/><path d="M1643.65,494.88c0,4.26,3.07,9.02,11.11,9.02,10.31,0,21.13-8.43,21.13-17.16,0-5.86-4.96-9.13-11.11-9.13-9.63,0-21.13,8.14-21.13,17.27"/><path d="M1703.53,482.48c0,4.26,3.07,9.02,11.11,9.02,10.31,0,21.13-8.43,21.13-17.16,0-5.86-4.96-9.13-11.11-9.13-9.63,0-21.13,8.14-21.13,17.27"/><path d="M1763.4,482.48c0,4.26,3.07,9.02,11.11,9.02,10.31,0,21.13-8.43,21.13-17.16,0-5.86-4.96-9.13-11.11-9.13-9.63,0-21.13,8.14-21.13,17.27"/><path d="M1823.28,457.68c0,4.26,3.07,9.02,11.11,9.02,10.31,0,21.13-8.43,21.13-17.16,0-5.86-4.96-9.13-11.11-9.13-9.63,0-21.13,8.14-21.13,17.27"/><path d="M1883.16,457.68c0,4.26,3.07,9.02,11.11,9.02,10.31,0,21.13-8.43,21.13-17.16,0-5.86-4.96-9.13-11.11-9.13-9.63,0-21.13,8.14-21.13,17.27"/><path d="M1943.03,470.08c0,4.26,3.07,9.02,11.11,9.02,10.31,0,21.13-8.43,21.13-17.16,0-5.86-4.96-9.13-11.11-9.13-9.63,0-21.13,8.14-21.13,17.27"/><path d="M2002.91,470.08c0,4.26,3.07,9.02,11.11,9.02,10.31,0,21.13-8.43,21.13-17.16,0-5.86-4.96-9.13-11.11-9.13-9.63,0-21.13,8.14-21.13,17.27"/><path d="M2062.78,482.48c0,4.26,3.07,9.02,11.11,9.02,10.31,0,21.13-8.43,21.13-17.16,0-5.86-4.96-9.13-11.11-9.13-9.63,0-21.13,8.14-21.13,17.27"/><path d="M2122.66,482.48c0,4.26,3.07,9.02,11.11,9.02,10.31,0,21.13-8.43,21.13-17.16,0-5.86-4.96-9.13-11.11-9.13-9.63,0-21.13,8.14-21.13,17.27"/><path d="M2247.35,477.23c-13.69,0-18.55,6.94-18.55,13.39s4.87,13.39,18.55,13.39,18.45-6.94,18.45-13.39-4.76-13.39-18.45-13.39m.79,23.61c-2.77,0-4.67-.79-5.95-3.27s-3.07-8.93-3.18-11.52c-.2-2.68,.79-4.26,3.18-5.05,1.19-.4,2.77-.6,4.37-.6,2.67,0,4.46,.6,5.84,3.29,1.39,2.57,3.29,9.02,3.29,11.5,0,4.87-3.58,5.66-7.55,5.66"/><path d="M30.8,161.2c0,6.56,4.96,15.19,18.35,15.19,4.67,0,8.74-1.19,12.31-3.38,5.36-3.77,6.74-10.32,6.74-16.57,0-3.86-.59-8.32-1.58-13.98-.29-1.98-.9-4.96-1.49-8.84,9.72-3.18,16.96-13.3,16.96-23.51,0-14.97-10.62-25.09-25.09-25.09-.99-5.95-1.98-11.81-2.77-17.36,10.42-11.02,17.65-23.42,17.65-39.18,0-9.04-2.77-16.37-4.37-19.95-2.37-5.05-5.25-8.53-7.04-8.53-.7,0-3.77,1.19-7.04,5.05-6.36,7.55-8.14,20.24-8.14,28.57,0,5.36,.5,10.23,2.19,21.34-.11,.09-5.27,5.35-7.35,7.04-9.04,8.34-21.53,20.43-21.53,40.28,0,18.54,16.17,33.12,34.63,33.12,2.87,0,5.55-.29,7.83-.7,1.89,9.53,3.08,16.48,3.08,21.73,0,10.32-5.36,15.78-15.38,15.78-2.39,0-4.46-.5-4.67-.5-.09-.11-.29-.2-.29-.29,0-.2,.2-.31,.5-.31,4.67-.79,9.32-4.76,9.32-11.1,0-5.36-4.06-11.02-11.5-11.02-6.94,0-11.31,5.66-11.31,12.2M51.54,28.77c.9-3.97,5.46-14.38,10.62-14.38,1.49,0,3.86,4.76,3.86,11.7,0,10.32-7.63,18.06-14.48,24.8-.59-3.97-1.08-7.83-1.08-12,0-3.67,.29-7.05,1.08-10.12m8.73,101.97c-1.98,.4-3.86,.6-5.75,.6-14.18,0-26.29-9.92-26.29-24.91,0-12.09,8.53-22.91,17.27-30.46,1.67-1.49,3.27-2.87,4.76-4.36,.88,5.35,1.58,10.01,2.28,14.09-9.04,2.68-15.17,12.2-15.17,21.53,0,6.94,5.46,16.46,13.39,16.46,.79,0,1.69-.4,1.69-1.29s-.99-1.39-2.19-2.19c-3.88-2.39-6.06-4.96-6.06-9.83,0-6.05,4.57-10.91,10.32-12.29l5.75,32.63m14.09-18.35c0,7.05-2.88,14.29-9.92,17.17-2.08-11.9-4.76-27.68-5.46-32.05,8.93,0,15.38,6.06,15.38,14.88"/><path d="M30.8,504.4c0,6.56,4.96,15.19,18.35,15.19,4.67,0,8.74-1.19,12.31-3.38,5.36-3.77,6.74-10.32,6.74-16.57,0-3.86-.59-8.32-1.58-13.98-.29-1.98-.9-4.96-1.49-8.84,9.72-3.18,16.96-13.3,16.96-23.51,0-14.97-10.62-25.09-25.09-25.09-.99-5.95-1.98-11.81-2.77-17.36,10.42-11.02,17.65-23.42,17.65-39.18,0-9.04-2.77-16.37-4.37-19.95-2.37-5.05-5.25-8.53-7.04-8.53-.7,0-3.77,1.19-7.04,5.05-6.36,7.55-8.14,20.24-8.14,28.57,0,5.36,.5,10.23,2.19,21.34-.11,.09-5.27,5.35-7.35,7.04-9.04,8.34-21.53,20.43-21.53,40.28,0,18.54,16.17,33.12,34.63,33.12,2.87,0,5.55-.29,7.83-.7,1.89,9.53,3.08,16.48,3.08,21.73,0,10.32-5.36,15.78-15.38,15.78-2.39,0-4.46-.5-4.67-.5-.09-.11-.29-.2-.29-.29,0-.2,.2-.31,.5-.31,4.67-.79,9.32-4.76,9.32-11.1,0-5.36-4.06-11.02-11.5-11.02-6.94,0-11.31,5.66-11.31,12.2m20.74-132.43c.9-3.97,5.46-14.38,10.62-14.38,1.49,0,3.86,4.76,3.86,11.7,0,10.32-7.63,18.06-14.48,24.8-.59-3.97-1.08-7.83-1.08-12,0-3.67,.29-7.05,1.08-10.12m8.73,101.97c-1.98,.4-3.86,.6-5.75,.6-14.18,0-26.29-9.92-26.29-24.91,0-12.09,8.53-22.91,17.27-30.46,1.67-1.49,3.27-2.87,4.76-4.36,.88,5.35,1.58,10.01,2.28,14.09-9.04,2.68-15.17,12.2-15.17,21.53,0,6.94,5.46,16.46,13.39,16.46,.79,0,1.69-.4,1.69-1.29s-.99-1.39-2.19-2.19c-3.88-2.39-6.06-4.96-6.06-9.83,0-6.05,4.57-10.91,10.32-12.29l5.75,32.63m14.09-18.35c0,7.05-2.88,14.29-9.92,17.17-2.08-11.9-4.76-27.68-5.46-32.05,8.93,0,15.38,6.06,15.38,14.88"/><path d="M129.99,25.5c.6-.09,1.1-.79,1.1-1.4v-5.84c0-.99-.7-1.39-1.6-1.39l-3.27,.7V2.77h-2.77v15.38l-8.83,1.8V5.95h-2.77v14.59l-3.88,.79c-.59,.11-1.09,.79-1.09,1.39v5.75c0,1.09,.79,1.4,1.69,1.4l3.27-.7v16.37l-3.88,.79c-.59,.09-1.09,.79-1.09,1.4v5.75c0,1.09,.79,1.38,1.69,1.38l3.27-.68v14.77h2.77v-15.38l8.83-1.78v14h2.77v-14.59l3.77-.7c.6-.11,1.1-.79,1.1-1.39v-5.84c0-.99-.7-1.4-1.6-1.4l-3.27,.7V26.2l3.77-.7m-15.38,3.07l8.83-1.78v16.37l-8.83,1.89V28.57"/><path d="M157.16,62.7c.6-.09,1.1-.79,1.1-1.4v-5.84c0-.99-.7-1.39-1.6-1.39l-3.27,.7v-14.79h-2.77v15.38l-8.83,1.8v-14h-2.77v14.59l-3.88,.79c-.59,.11-1.09,.79-1.09,1.39v5.75c0,1.09,.79,1.4,1.69,1.4l3.27-.7v16.37l-3.88,.79c-.59,.09-1.09,.79-1.09,1.4v5.75c0,1.09,.79,1.38,1.69,1.38l3.27-.68v14.77h2.77v-15.38l8.83-1.78v14h2.77v-14.59l3.77-.7c.6-.11,1.1-.79,1.1-1.39v-5.84c0-.99-.7-1.4-1.6-1.4l-3.27,.7v-16.37l3.77-.7m-15.38,3.07l8.83-1.78v16.37l-8.83,1.89v-16.48"/><path d="M129.99,368.7c.6-.09,1.1-.79,1.1-1.4v-5.84c0-.99-.7-1.39-1.6-1.39l-3.27,.7v-14.79h-2.77v15.38l-8.83,1.8v-14h-2.77v14.59l-3.88,.79c-.59,.11-1.09,.79-1.09,1.39v5.75c0,1.09,.79,1.4,1.69,1.4l3.27-.7v16.37l-3.88,.79c-.59,.09-1.09,.79-1.09,1.4v5.75c0,1.09,.79,1.38,1.69,1.38l3.27-.68v14.77h2.77v-15.38l8.83-1.78v14h2.77v-14.59l3.77-.7c.6-.11,1.1-.79,1.1-1.39v-5.84c0-.99-.7-1.4-1.6-1.4l-3.27,.7v-16.37l3.77-.7m-15.38,3.07l8.83-1.78v16.37l-8.83,1.89v-16.48"/><path d="M157.16,405.9c.6-.09,1.1-.79,1.1-1.4v-5.84c0-.99-.7-1.39-1.6-1.39l-3.27,.7v-14.79h-2.77v15.38l-8.83,1.8v-14h-2.77v14.59l-3.88,.79c-.59,.11-1.09,.79-1.09,1.39v5.75c0,1.09,.79,1.4,1.69,1.4l3.27-.7v16.37l-3.88,.79c-.59,.09-1.09,.79-1.09,1.4v5.75c0,1.09,.79,1.38,1.69,1.38l3.27-.68v14.77h2.77v-15.38l8.83-1.78v14h2.77v-14.59l3.77-.7c.6-.11,1.1-.79,1.1-1.39v-5.84c0-.99-.7-1.4-1.6-1.4l-3.27,.7v-16.37l3.77-.7m-15.38,3.07l8.83-1.78v16.37l-8.83,1.89v-16.48"/><path d="M2270.02,340.92c-9.32-10.12-17.56-10.71-22.71-10.71s-13.3,.59-22.63,10.71c-4.85,5.36-8.23,15.97-8.23,21.33,0,1.89,.4,3.18,1.4,3.18,2.77,0,1.38-8.54,9.72-16.97,7.33-7.33,17.16-7.44,19.55-7.44h.39c2.39,0,12.21,.11,19.55,7.44,8.34,8.43,6.94,16.97,9.72,16.97,.99,0,1.39-1.19,1.39-3.18,0-5.36-3.27-16.07-8.14-21.33m-29.56,18.94c0,3.78,3.07,6.85,6.85,6.85s6.84-3.07,6.84-6.85-3.07-6.84-6.84-6.84-6.85,3.07-6.85,6.84"/><path d="M663.74,197.68c-2.33,3.75-3.33,4.8-4.64,4.8-.64,0-1-.41-1-1.13,0-.51,.2-1.43,.59-2.84l7.12-23.98-7.95,.59-.17,1.44h1.25c1.64,0,2.28,.36,2.28,1.23,0,.41-.12,.92-.36,1.77l-2.64,8.87c-.72-2.08-2.28-3.23-4.61-3.23-5.75,0-11.11,6.15-11.11,12.79,0,3.93,2.52,6.6,6.28,6.6,2.72,0,4.72-1.11,6.47-3.72-.03,.33-.03,.72-.03,.89,0,1.83,.95,2.83,2.72,2.83,2.52,0,4.72-1.95,7-6.19l-1.2-.72m-10-10.69c1.95,0,3.39,1.52,3.39,3.61,0,3.63-2.55,12.11-7.19,12.11-2.16,0-3.56-1.72-3.56-4.31,0-3.8,2.72-11.41,7.36-11.41m22.52-8.75c-1.08,0-1.95,.88-1.95,1.96s.88,1.95,1.95,1.95,1.97-.87,1.97-1.95-.89-1.96-1.97-1.96m8.08,0c-1.08,0-1.95,.88-1.95,1.96s.88,1.95,1.95,1.95,1.97-.87,1.97-1.95-.89-1.96-1.97-1.96m2.41,7.55h-3.48l-1.88,6.41c-1.64,5.56-5.33,10.11-8.16,10.11-.97,0-1.72-.75-1.72-1.72,0-.52,.11-1.16,.44-2.27l3.92-13.12-7.72,.59-.12,1.45h.95c1.64,0,2.25,.36,2.25,1.27,0,.41-.12,.97-.33,1.73l-1.59,5.4q-1.23,4-1.23,5.23c0,2.2,1.52,3.69,3.8,3.69,2.8,0,5.08-1.64,7.44-5.33-.41,1.41-.48,1.97-.48,2.72,0,1.56,1.08,2.64,2.56,2.64,2.44,0,4.39-1.64,7.23-6l-1.2-.72c-1.95,2.92-3.51,4.53-4.39,4.53-.36,0-.72-.45-.72-.97,0-.44,.16-1.2,.47-2.36l3.97-13.28"/><path d="M446.88,186.71c.64-.56,1-.75,1.47-.75,.41,0,.73,.19,1.05,.64,.64,.88,.88,1.04,1.52,1.04,.92,0,1.61-.75,1.61-1.75,0-1.18-1.12-2.1-2.53-2.1s-2.47,.53-4.55,2.17c-1.25-.56-2.17-.76-3.45-.76-4.44,0-8.19,3.15-8.19,6.84,0,1.92,.75,3.24,2.47,4.16-1.83,.23-2.67,.51-3.59,1.31-.8,.64-1.31,1.72-1.31,2.69,0,1.36,.64,2.2,2.19,2.95-2.36,.53-5.11,1.53-5.11,4.44,0,4,5.28,4.48,8.2,4.48,3.95,0,6.23-.48,8.19-1.76,1.72-1.11,2.72-2.83,2.72-4.72,0-4.03-4.28-4.52-7.36-4.72-3.55-.19-3.83-.23-4.39-.36-1-.23-1.48-.72-1.48-1.39,0-.97,.95-1.61,2.41-1.61,.52,0,1.11,.05,1.64,.13,1.64,.23,1.88,.28,2.88,.28,2.23,0,4-.57,5.39-1.69,1.61-1.24,2.61-3.24,2.61-5.08s-.8-3.31-2.36-4.44m-4.61,0c2.09,0,3.41,1.25,3.41,3.21,0,2.87-1.31,6.51-4.72,6.51-2.16,0-3.52-1.36-3.52-3.59,0-3.6,1.95-6.13,4.83-6.13m-4.88,17.16c1.8,0,4.69,.41,5.59,.77,1,.43,1.48,1.12,1.48,2.12,0,2.36-2.52,3.64-7.11,3.64-3.89,0-5.69-.97-5.69-3.09s2.08-3.44,5.72-3.44m25.08-25.63c-1.08,0-1.95,.88-1.95,1.96s.88,1.95,1.95,1.95,1.97-.87,1.97-1.95-.89-1.96-1.97-1.96m8.08,0c-1.08,0-1.95,.88-1.95,1.96s.88,1.95,1.95,1.95,1.97-.87,1.97-1.95-.89-1.96-1.97-1.96m2.41,7.55h-3.48l-1.88,6.41c-1.64,5.56-5.33,10.11-8.16,10.11-.97,0-1.72-.75-1.72-1.72,0-.52,.11-1.16,.44-2.27l3.92-13.12-7.72,.59-.12,1.45h.95c1.64,0,2.25,.36,2.25,1.27,0,.41-.12,.97-.33,1.73l-1.59,5.4q-1.23,4-1.23,5.23c0,2.2,1.52,3.69,3.8,3.69,2.8,0,5.08-1.64,7.44-5.33-.41,1.41-.48,1.97-.48,2.72,0,1.56,1.08,2.64,2.56,2.64,2.44,0,4.39-1.64,7.23-6l-1.2-.72c-1.95,2.92-3.52,4.53-4.39,4.53-.36,0-.72-.45-.72-.97,0-.44,.16-1.2,.47-2.36l3.97-13.28"/><path d="M733.25,186.71c.64-.56,1-.75,1.47-.75,.41,0,.73,.19,1.05,.64,.64,.88,.88,1.04,1.52,1.04,.92,0,1.61-.75,1.61-1.75,0-1.18-1.12-2.1-2.53-2.1s-2.47,.53-4.55,2.17c-1.25-.56-2.17-.76-3.45-.76-4.44,0-8.19,3.15-8.19,6.84,0,1.92,.75,3.24,2.47,4.16-1.83,.23-2.67,.51-3.59,1.31-.8,.64-1.31,1.72-1.31,2.69,0,1.36,.64,2.2,2.19,2.95-2.36,.53-5.11,1.53-5.11,4.44,0,4,5.28,4.48,8.2,4.48,3.95,0,6.23-.48,8.19-1.76,1.72-1.11,2.72-2.83,2.72-4.72,0-4.03-4.28-4.52-7.36-4.72-3.55-.19-3.83-.23-4.39-.36-1-.23-1.48-.72-1.48-1.39,0-.97,.95-1.61,2.41-1.61,.52,0,1.11,.05,1.64,.13,1.64,.23,1.88,.28,2.88,.28,2.23,0,4-.57,5.39-1.69,1.61-1.24,2.61-3.24,2.61-5.08s-.8-3.31-2.36-4.44m-4.61,0c2.09,0,3.41,1.25,3.41,3.21,0,2.87-1.31,6.51-4.72,6.51-2.16,0-3.52-1.36-3.52-3.59,0-3.6,1.95-6.13,4.83-6.13m-4.88,17.16c1.8,0,4.69,.41,5.59,.77,1,.43,1.48,1.12,1.48,2.12,0,2.36-2.52,3.64-7.11,3.64-3.89,0-5.69-.97-5.69-3.09s2.08-3.44,5.72-3.44m25.08-25.63c-1.08,0-1.95,.88-1.95,1.96s.88,1.95,1.95,1.95,1.97-.87,1.97-1.95-.89-1.96-1.97-1.96m8.08,0c-1.08,0-1.95,.88-1.95,1.96s.88,1.95,1.95,1.95,1.97-.87,1.97-1.95-.89-1.96-1.97-1.96m2.41,7.55h-3.48l-1.88,6.41c-1.64,5.56-5.33,10.11-8.16,10.11-.97,0-1.72-.75-1.72-1.72,0-.52,.11-1.16,.44-2.27l3.92-13.12-7.72,.59-.12,1.45h.95c1.64,0,2.25,.36,2.25,1.27,0,.41-.12,.97-.33,1.73l-1.59,5.4q-1.23,4-1.23,5.23c0,2.2,1.52,3.69,3.8,3.69,2.8,0,5.08-1.64,7.44-5.33-.41,1.41-.48,1.97-.48,2.72,0,1.56,1.08,2.64,2.56,2.64,2.44,0,4.39-1.64,7.23-6l-1.2-.72c-1.95,2.92-3.52,4.53-4.39,4.53-.36,0-.72-.45-.72-.97,0-.44,.16-1.2,.47-2.36l3.97-13.28"/><path d="M796.33,185.2c-4.2,0-7.25,2.56-7.25,6.03,0,1.73,1,3.17,2.76,4.09,.65,.32,1.44,.67,3.13,1.36,2.27,.91,2.83,1.47,2.83,2.88,0,2.15-1.8,3.51-4.56,3.51-2.04,0-3.47-.56-3.47-1.36,0-.2,.11-.43,.28-.59,.75-.8,.83-1,.83-1.72,0-1.12-.88-2-2.04-2-1.32,0-2.32,1.11-2.32,2.67,0,2.8,2.48,4.52,6.53,4.52,4.59,0,7.75-2.52,7.75-6.16,0-1.59-.72-2.95-2-3.83-.88-.61-1.28-.76-3.47-1.56-2.61-.92-3.28-1.56-3.28-3.12,0-1.85,1.75-3.21,4.08-3.21,1.56,0,2.59,.44,2.59,1.08,0,.17-.08,.36-.2,.56-.57,.8-.64,1-.64,1.61,0,1.08,.84,1.83,2.07,1.83,1.36,0,2.29-1,2.29-2.44,0-2.43-2.44-4.15-5.91-4.15m16.75-9.77c-1.2,0-2.16,.97-2.16,2.17s.96,2.16,2.13,2.16c1.23,0,2.19-.97,2.19-2.16s-.96-2.17-2.16-2.17m.72,9.77l-7.67,.59-.16,1.45h.95c1.64,0,2.28,.36,2.28,1.24,0,.39-.07,.84-.36,1.76l-2.32,7.8c-.75,2.55-.88,3.11-.88,4.03,0,1.41,1.2,2.49,2.72,2.49,3.44,0,5.8-3.57,7.48-6.16l-1.25-.69c-2.07,3.16-3.75,4.85-4.82,4.85-.41,0-.69-.36-.69-.85,0-.39,.16-1.12,.48-2.23l4.24-14.28m12.97,0l-7.28,.59-.13,1.45h.97c1.59,0,2.23,.36,2.23,1.27,0,.36-.12,.97-.32,1.73l-4.08,13.75h3.48l1.64-5.64c1.8-6.12,5.44-10.75,8.44-10.75,1.05,0,1.69,.55,1.69,1.55,0,.81-.33,2.49-.82,4l-3.18,10.84h3.47l1.71-5.79c1-3.33,2-5.56,3.29-7.28,1.43-2,3.48-3.32,5-3.32,1,0,1.56,.52,1.56,1.47,0,.57-.2,1.44-.56,2.57l-1.85,5.68c-1.08,3.11-1.11,3.36-1.11,4.47,0,1.69,1.24,2.8,3.11,2.8,1.33,0,2.61-.64,3.97-1.91,.84-.81,1.39-1.53,3.03-3.92l-1.23-.84c-2.08,3.12-3.56,4.64-4.6,4.64-.43,0-.84-.44-.84-1,0-.36,.13-.8,.48-1.97l2.52-7.75c.28-.88,.48-2.13,.48-3,0-2.13-1.56-3.64-3.71-3.64-2.85,0-5.41,1.84-7.72,5.64,.15-.77,.23-1.44,.23-1.92,0-2.13-1.69-3.72-3.87-3.72-2.53,0-4.36,1.4-7.18,5.4l1.18-5.4m29.95,14.44c-1.36,0-2.47,1.12-2.47,2.48s1.11,2.47,2.44,2.47c1.44,0,2.51-1.08,2.51-2.47s-1.12-2.48-2.48-2.48"/><path d="M234.18,197.68c-2.33,3.75-3.33,4.8-4.64,4.8-.64,0-1-.41-1-1.13,0-.51,.2-1.43,.59-2.84l7.12-23.98-7.95,.59-.17,1.44h1.25c1.64,0,2.28,.36,2.28,1.23,0,.41-.12,.92-.36,1.77l-2.64,8.87c-.72-2.08-2.28-3.23-4.61-3.23-5.75,0-11.11,6.15-11.11,12.79,0,3.93,2.52,6.6,6.28,6.6,2.72,0,4.72-1.11,6.47-3.72-.03,.33-.03,.72-.03,.89,0,1.83,.95,2.83,2.72,2.83,2.52,0,4.72-1.95,7-6.19l-1.2-.72m-10-10.69c1.95,0,3.39,1.52,3.39,3.61,0,3.63-2.55,12.11-7.19,12.11-2.16,0-3.56-1.72-3.56-4.31,0-3.8,2.72-11.41,7.36-11.41m22.51-8.75c-1.08,0-1.95,.88-1.95,1.96s.88,1.95,1.95,1.95,1.97-.87,1.97-1.95-.89-1.96-1.97-1.96m8.08,0c-1.08,0-1.95,.88-1.95,1.96s.88,1.95,1.95,1.95,1.97-.87,1.97-1.95-.89-1.96-1.97-1.96m2.41,7.55h-3.49l-1.88,6.41c-1.64,5.56-5.33,10.11-8.16,10.11-.97,0-1.72-.75-1.72-1.72,0-.52,.11-1.16,.44-2.27l3.92-13.12-7.72,.59-.12,1.45h.95c1.64,0,2.25,.36,2.25,1.27,0,.41-.12,.97-.33,1.73l-1.59,5.4q-1.23,4-1.23,5.23c0,2.2,1.52,3.69,3.8,3.69,2.8,0,5.08-1.64,7.44-5.33-.41,1.41-.48,1.97-.48,2.72,0,1.56,1.08,2.64,2.56,2.64,2.44,0,4.39-1.64,7.24-6l-1.2-.72c-1.95,2.92-3.52,4.53-4.39,4.53-.36,0-.72-.45-.72-.97,0-.44,.16-1.2,.47-2.36l3.97-13.28"/><path d="M303.7,186.71c.64-.56,1-.75,1.47-.75,.41,0,.74,.19,1.05,.64,.64,.88,.88,1.04,1.52,1.04,.92,0,1.61-.75,1.61-1.75,0-1.18-1.12-2.1-2.53-2.1s-2.47,.53-4.55,2.17c-1.25-.56-2.17-.76-3.45-.76-4.44,0-8.19,3.15-8.19,6.84,0,1.92,.75,3.24,2.47,4.16-1.83,.23-2.67,.51-3.59,1.31-.8,.64-1.31,1.72-1.31,2.69,0,1.36,.64,2.2,2.19,2.95-2.36,.53-5.11,1.53-5.11,4.44,0,4,5.28,4.48,8.2,4.48,3.95,0,6.23-.48,8.19-1.76,1.72-1.11,2.72-2.83,2.72-4.72,0-4.03-4.28-4.52-7.36-4.72-3.55-.19-3.83-.23-4.39-.36-1-.23-1.48-.72-1.48-1.39,0-.97,.95-1.61,2.41-1.61,.52,0,1.11,.05,1.64,.13,1.64,.23,1.88,.28,2.88,.28,2.23,0,4-.57,5.39-1.69,1.61-1.24,2.61-3.24,2.61-5.08s-.8-3.31-2.36-4.44m-4.61,0c2.09,0,3.41,1.25,3.41,3.21,0,2.87-1.31,6.51-4.72,6.51-2.16,0-3.52-1.36-3.52-3.59,0-3.6,1.95-6.13,4.83-6.13m-4.88,17.16c1.8,0,4.69,.41,5.59,.77,1,.43,1.48,1.12,1.48,2.12,0,2.36-2.51,3.64-7.11,3.64-3.89,0-5.69-.97-5.69-3.09s2.08-3.44,5.72-3.44m25.08-25.63c-1.08,0-1.95,.88-1.95,1.96s.88,1.95,1.95,1.95,1.97-.87,1.97-1.95-.89-1.96-1.97-1.96m8.08,0c-1.08,0-1.95,.88-1.95,1.96s.88,1.95,1.95,1.95,1.97-.87,1.97-1.95-.89-1.96-1.97-1.96m2.41,7.55h-3.49l-1.88,6.41c-1.64,5.56-5.33,10.11-8.16,10.11-.97,0-1.72-.75-1.72-1.72,0-.52,.11-1.16,.44-2.27l3.92-13.12-7.72,.59-.12,1.45h.95c1.64,0,2.25,.36,2.25,1.27,0,.41-.12,.97-.33,1.73l-1.59,5.4q-1.23,4-1.23,5.23c0,2.2,1.51,3.69,3.8,3.69,2.8,0,5.08-1.64,7.44-5.33-.41,1.41-.48,1.97-.48,2.72,0,1.56,1.08,2.64,2.56,2.64,2.44,0,4.39-1.64,7.24-6l-1.2-.72c-1.95,2.92-3.51,4.53-4.39,4.53-.36,0-.72-.45-.72-.97,0-.44,.16-1.2,.47-2.36l3.97-13.28"/><path d="M377.37,197.68c-2.33,3.75-3.33,4.8-4.64,4.8-.64,0-1-.41-1-1.13,0-.51,.2-1.43,.59-2.84l7.12-23.98-7.95,.59-.17,1.44h1.25c1.64,0,2.28,.36,2.28,1.23,0,.41-.12,.92-.36,1.77l-2.64,8.87c-.72-2.08-2.28-3.23-4.61-3.23-5.75,0-11.11,6.15-11.11,12.79,0,3.93,2.52,6.6,6.28,6.6,2.72,0,4.72-1.11,6.47-3.72-.03,.33-.03,.72-.03,.89,0,1.83,.95,2.83,2.72,2.83,2.52,0,4.72-1.95,7-6.19l-1.2-.72m-10-10.69c1.95,0,3.39,1.52,3.39,3.61,0,3.63-2.55,12.11-7.19,12.11-2.16,0-3.56-1.72-3.56-4.31,0-3.8,2.72-11.41,7.36-11.41m22.52-8.75c-1.08,0-1.95,.88-1.95,1.96s.88,1.95,1.95,1.95,1.97-.87,1.97-1.95-.89-1.96-1.97-1.96m8.08,0c-1.08,0-1.95,.88-1.95,1.96s.88,1.95,1.95,1.95,1.97-.87,1.97-1.95-.89-1.96-1.97-1.96m2.41,7.55h-3.48l-1.88,6.41c-1.64,5.56-5.33,10.11-8.16,10.11-.97,0-1.72-.75-1.72-1.72,0-.52,.11-1.16,.44-2.27l3.92-13.12-7.72,.59-.12,1.45h.95c1.64,0,2.25,.36,2.25,1.27,0,.41-.12,.97-.33,1.73l-1.59,5.4q-1.23,4-1.23,5.23c0,2.2,1.52,3.69,3.8,3.69,2.8,0,5.08-1.64,7.44-5.33-.41,1.41-.48,1.97-.48,2.72,0,1.56,1.08,2.64,2.56,2.64,2.44,0,4.39-1.64,7.23-6l-1.2-.72c-1.95,2.92-3.52,4.53-4.39,4.53-.36,0-.72-.45-.72-.97,0-.44,.16-1.2,.47-2.36l3.97-13.28"/><path d="M520.55,197.68c-2.33,3.75-3.33,4.8-4.64,4.8-.64,0-1-.41-1-1.13,0-.51,.2-1.43,.59-2.84l7.12-23.98-7.95,.59-.17,1.44h1.25c1.64,0,2.28,.36,2.28,1.23,0,.41-.12,.92-.36,1.77l-2.64,8.87c-.72-2.08-2.28-3.23-4.61-3.23-5.75,0-11.11,6.15-11.11,12.79,0,3.93,2.52,6.6,6.28,6.6,2.72,0,4.72-1.11,6.47-3.72-.03,.33-.03,.72-.03,.89,0,1.83,.95,2.83,2.72,2.83,2.52,0,4.72-1.95,7-6.19l-1.2-.72m-10-10.69c1.95,0,3.39,1.52,3.39,3.61,0,3.63-2.55,12.11-7.19,12.11-2.16,0-3.56-1.72-3.56-4.31,0-3.8,2.72-11.41,7.36-11.41m22.52-8.75c-1.08,0-1.95,.88-1.95,1.96s.88,1.95,1.95,1.95,1.97-.87,1.97-1.95-.89-1.96-1.97-1.96m8.08,0c-1.08,0-1.95,.88-1.95,1.96s.88,1.95,1.95,1.95,1.97-.87,1.97-1.95-.89-1.96-1.97-1.96m2.41,7.55h-3.48l-1.88,6.41c-1.64,5.56-5.33,10.11-8.16,10.11-.97,0-1.72-.75-1.72-1.72,0-.52,.11-1.16,.44-2.27l3.92-13.12-7.72,.59-.12,1.45h.95c1.64,0,2.25,.36,2.25,1.27,0,.41-.12,.97-.33,1.73l-1.59,5.4q-1.23,4-1.23,5.23c0,2.2,1.52,3.69,3.8,3.69,2.8,0,5.08-1.64,7.44-5.33-.41,1.41-.48,1.97-.48,2.72,0,1.56,1.08,2.64,2.56,2.64,2.44,0,4.39-1.64,7.23-6l-1.2-.72c-1.95,2.92-3.52,4.53-4.39,4.53-.36,0-.72-.45-.72-.97,0-.44,.16-1.2,.47-2.36l3.97-13.28"/><path d="M590.07,186.71c.64-.56,1-.75,1.47-.75,.41,0,.73,.19,1.05,.64,.64,.88,.88,1.04,1.52,1.04,.92,0,1.61-.75,1.61-1.75,0-1.18-1.12-2.1-2.53-2.1s-2.47,.53-4.55,2.17c-1.25-.56-2.17-.76-3.45-.76-4.44,0-8.19,3.15-8.19,6.84,0,1.92,.75,3.24,2.47,4.16-1.83,.23-2.67,.51-3.59,1.31-.8,.64-1.31,1.72-1.31,2.69,0,1.36,.64,2.2,2.19,2.95-2.36,.53-5.11,1.53-5.11,4.44,0,4,5.28,4.48,8.2,4.48,3.95,0,6.23-.48,8.19-1.76,1.72-1.11,2.72-2.83,2.72-4.72,0-4.03-4.28-4.52-7.36-4.72-3.55-.19-3.83-.23-4.39-.36-1-.23-1.48-.72-1.48-1.39,0-.97,.95-1.61,2.41-1.61,.52,0,1.11,.05,1.64,.13,1.64,.23,1.88,.28,2.88,.28,2.23,0,4-.57,5.39-1.69,1.61-1.24,2.61-3.24,2.61-5.08s-.8-3.31-2.36-4.44m-4.61,0c2.09,0,3.41,1.25,3.41,3.21,0,2.87-1.31,6.51-4.72,6.51-2.16,0-3.52-1.36-3.52-3.59,0-3.6,1.95-6.13,4.83-6.13m-4.88,17.16c1.8,0,4.69,.41,5.59,.77,1,.43,1.48,1.12,1.48,2.12,0,2.36-2.52,3.64-7.11,3.64-3.89,0-5.69-.97-5.69-3.09s2.08-3.44,5.72-3.44m25.08-25.63c-1.08,0-1.95,.88-1.95,1.96s.88,1.95,1.95,1.95,1.97-.87,1.97-1.95-.89-1.96-1.97-1.96m8.08,0c-1.08,0-1.95,.88-1.95,1.96s.88,1.95,1.95,1.95,1.97-.87,1.97-1.95-.89-1.96-1.97-1.96m2.41,7.55h-3.48l-1.88,6.41c-1.64,5.56-5.33,10.11-8.16,10.11-.97,0-1.72-.75-1.72-1.72,0-.52,.11-1.16,.44-2.27l3.92-13.12-7.72,.59-.12,1.45h.95c1.64,0,2.25,.36,2.25,1.27,0,.41-.12,.97-.33,1.73l-1.59,5.4q-1.23,4-1.23,5.23c0,2.2,1.52,3.69,3.8,3.69,2.8,0,5.08-1.64,7.44-5.33-.41,1.41-.48,1.97-.48,2.72,0,1.56,1.08,2.64,2.56,2.64,2.44,0,4.39-1.64,7.23-6l-1.2-.72c-1.95,2.92-3.52,4.53-4.39,4.53-.36,0-.72-.45-.72-.97,0-.44,.16-1.2,.47-2.36l3.97-13.28"/><path d="M2291.32,29.71l217.25,6.2v12.4l-217.25-6.2v-12.4" fill-rule="evenodd"/><path d="M2291.32,48.31l217.25,6.2v12.4l-217.25-6.2v-12.4" fill-rule="evenodd"/><path d="M250.02,379.11l182.11-6.2v12.4l-182.11,6.2v-12.4" fill-rule="evenodd"/><path d="M250.02,397.71l182.11-6.2v12.4l-182.11,6.2v-12.4" fill-rule="evenodd"/><path d="M1254.28,379.11l182.11-6.2v12.4l-182.11,6.2v-12.4" fill-rule="evenodd"/><path d="M1254.28,397.71l182.11-6.2v12.4l-182.11,6.2v-12.4" fill-rule="evenodd"/><path d="M968.52,397.71l182.1,6.2v12.4l-182.1-6.2v-12.4" fill-rule="evenodd"/><path d="M968.52,416.31l182.1,6.2v12.4l-182.1-6.2v-12.4" fill-rule="evenodd"/><path d="M250.02,60.71l217.26-6.2v12.4l-217.26,6.2v-12.4" fill-rule="evenodd"/><path d="M250.02,79.31l217.26-6.2v12.4l-217.26,6.2v-12.4" fill-rule="evenodd"/><path d="M2004.94,60.71l217.26-6.2v12.4l-217.26,6.2v-12.4" fill-rule="evenodd"/><path d="M2004.94,79.31l217.26-6.2v12.4l-217.26,6.2v-12.4" fill-rule="evenodd"/><path d="M536.39,29.71l217.26,6.2v12.4l-217.26-6.2v-12.4" fill-rule="evenodd"/><path d="M536.39,48.31l217.26,6.2v12.4l-217.26-6.2v-12.4" fill-rule="evenodd"/><path d="M1109.13,29.71l217.26,6.2v12.4l-217.26-6.2v-12.4" fill-rule="evenodd"/><path d="M1109.13,48.31l217.26,6.2v12.4l-217.26-6.2v-12.4" fill-rule="evenodd"/><path d="M1493.78,397.71l182.11,6.2v12.4l-182.11-6.2v-12.4" fill-rule="evenodd"/><path d="M1493.78,416.31l182.11,6.2v12.4l-182.11-6.2v-12.4" fill-rule="evenodd"/><path d="M822.76,35.91l217.25-6.2v12.4l-217.25,6.2v-12.4" fill-rule="evenodd"/><path d="M822.76,54.51l217.25-6.2v12.4l-217.25,6.2v-12.4" fill-rule="evenodd"/><path d="M489.52,372.91l182.11,6.2v12.4l-182.11-6.2v-12.4" fill-rule="evenodd"/><path d="M489.52,391.51l182.11,6.2v12.4l-182.11-6.2v-12.4" fill-rule="evenodd"/><path d="M1733.28,379.11l182.11-6.2v12.4l-182.11,6.2v-12.4" fill-rule="evenodd"/><path d="M1733.28,397.71l182.11-6.2v12.4l-182.11,6.2v-12.4" fill-rule="evenodd"/><path d="M1432.2,35.91l217.26-6.2v12.4l-217.26,6.2v-12.4" fill-rule="evenodd"/><path d="M1432.2,54.51l217.26-6.2v12.4l-217.26,6.2v-12.4" fill-rule="evenodd"/><path d="M1972.78,372.91l182.11,6.2v12.4l-182.11-6.2v-12.4" fill-rule="evenodd"/><path d="M1972.78,391.51l182.11,6.2v12.4l-182.11-6.2v-12.4" fill-rule="evenodd"/><path d="M1718.57,11.11l217.26,6.2v12.4l-217.26-6.2V11.11" fill-rule="evenodd"/><path d="M1718.57,29.71l217.26,6.2v12.4l-217.26-6.2v-12.4" fill-rule="evenodd"/><path d="M729.02,403.91l182.1-6.2v12.4l-182.1,6.2v-12.4" fill-rule="evenodd"/><path d="M729.02,422.51l182.1-6.2v12.4l-182.1,6.2v-12.4" fill-rule="evenodd"/></g></svg>