<?xml version="1.0" encoding="UTF-8"?><svg id="Ebene_2" xmlns="http://www.w3.org/2000/svg" viewBox="0 0 2552.4 225.04"><g id="Ebene_1-2"><line y1="48.9" x2="2552.4" y2="48.9" fill="none" stroke="#000" stroke-linejoin="bevel" stroke-width="2.73"/><line y1="73.7" x2="2552.4" y2="73.7" fill="none" stroke="#000" stroke-linejoin="bevel" stroke-width="2.73"/><line y1="98.5" x2="2552.4" y2="98.5" fill="none" stroke="#000" stroke-linejoin="bevel" stroke-width="2.73"/><line y1="123.3" x2="2552.4" y2="123.3" fill="none" stroke="#000" stroke-linejoin="bevel" stroke-width="2.73"/><line y1="148.1" x2="2552.4" y2="148.1" fill="none" stroke="#000" stroke-linejoin="bevel" stroke-width="2.73"/><line x1="1240.12" y1="47.54" x2="1240.12" y2="149.46" fill="none" stroke="#000" stroke-linejoin="bevel" stroke-width="4.46"/><line x1="1767.28" y1="47.54" x2="1767.28" y2="149.46" fill="none" stroke="#000" stroke-linejoin="bevel" stroke-width="4.46"/><line x1="2294.44" y1="47.54" x2="2294.44" y2="149.46" fill="none" stroke="#000" stroke-linejoin="bevel" stroke-width="4.46"/><line x1="712.95" y1="47.54" x2="712.95" y2="149.46" fill="none" stroke="#000" stroke-linejoin="bevel" stroke-width="4.46"/><line x1="2536.53" y1="47.54" x2="2536.53" y2="149.46" fill="none" stroke="#000" stroke-linejoin="bevel" stroke-width="4.46"/><line x1="2550.17" y1="47.54" x2="2550.17" y2="149.46" fill="none" stroke="#000" stroke-linejoin="bevel" stroke-width="4.46"/><line x1="1687.43" y1="172.9" x2="1736.03" y2="172.9" fill="none" stroke="#000" stroke-linejoin="bevel" stroke-width="3.97"/><line x1="1506.99" y1="172.9" x2="1555.59" y2="172.9" fill="none" stroke="#000" stroke-linejoin="bevel" stroke-width="3.97"/><line x1="612.14" y1="119.33" x2="612.14" y2="48.9" fill="none" stroke="#000" stroke-linejoin="bevel" stroke-width="2.48"/><line x1="838.56" y1="119.33" x2="838.56" y2="42.7" fill="none" stroke="#000" stroke-linejoin="bevel" stroke-width="2.48"/><line x1="2013.18" y1="156.53" x2="2013.18" y2="55.1" fill="none" stroke="#000" stroke-linejoin="bevel" stroke-width="2.48"/><line x1="1199.44" y1="156.53" x2="1199.44" y2="55.1" fill="none" stroke="#000" stroke-linejoin="bevel" stroke-width="2.48"/><line x1="672.28" y1="144.13" x2="672.28" y2="48.9" fill="none" stroke="#000" stroke-linejoin="bevel" stroke-width="2.48"/><line x1="958.86" y1="131.73" x2="958.86" y2="42.7" fill="none" stroke="#000" stroke-linejoin="bevel" stroke-width="2.48"/><line x1="1953.04" y1="144.13" x2="1953.04" y2="55.1" fill="none" stroke="#000" stroke-linejoin="bevel" stroke-width="2.48"/><line x1="1139.3" y1="131.73" x2="1139.3" y2="55.1" fill="none" stroke="#000" stroke-linejoin="bevel" stroke-width="2.48"/><line x1="1892.89" y1="131.73" x2="1892.89" y2="55.1" fill="none" stroke="#000" stroke-linejoin="bevel" stroke-width="2.48"/><line x1="1832.74" y1="156.53" x2="1832.74" y2="55.1" fill="none" stroke="#000" stroke-linejoin="bevel" stroke-width="2.48"/><line x1="1726.61" y1="168.93" x2="1726.61" y2="73.7" fill="none" stroke="#000" stroke-linejoin="bevel" stroke-width="2.48"/><line x1="1666.46" y1="144.13" x2="1666.46" y2="73.7" fill="none" stroke="#000" stroke-linejoin="bevel" stroke-width="2.48"/><line x1="1606.31" y1="156.53" x2="1606.31" y2="73.7" fill="none" stroke="#000" stroke-linejoin="bevel" stroke-width="2.48"/><line x1="251.26" y1="156.53" x2="251.26" y2="55.1" fill="none" stroke="#000" stroke-linejoin="bevel" stroke-width="2.48"/><line x1="1305.58" y1="144.13" x2="1305.58" y2="48.9" fill="none" stroke="#000" stroke-linejoin="bevel" stroke-width="2.48"/><line x1="1546.17" y1="168.93" x2="1546.17" y2="73.7" fill="none" stroke="#000" stroke-linejoin="bevel" stroke-width="2.48"/><line x1="311.4" y1="144.13" x2="311.4" y2="55.1" fill="none" stroke="#000" stroke-linejoin="bevel" stroke-width="2.48"/><line x1="2253.77" y1="144.13" x2="2253.77" y2="48.9" fill="none" stroke="#000" stroke-linejoin="bevel" stroke-width="2.48"/><line x1="1486.02" y1="144.13" x2="1486.02" y2="48.9" fill="none" stroke="#000" stroke-linejoin="bevel" stroke-width="2.48"/><line x1="371.55" y1="131.73" x2="371.55" y2="55.1" fill="none" stroke="#000" stroke-linejoin="bevel" stroke-width="2.48"/><line x1="778.42" y1="131.73" x2="778.42" y2="42.7" fill="none" stroke="#000" stroke-linejoin="bevel" stroke-width="2.48"/><line x1="1425.87" y1="119.33" x2="1425.87" y2="48.9" fill="none" stroke="#000" stroke-linejoin="bevel" stroke-width="2.48"/><line x1="2193.63" y1="131.73" x2="2193.63" y2="48.9" fill="none" stroke="#000" stroke-linejoin="bevel" stroke-width="2.48"/><line x1="431.7" y1="156.53" x2="431.7" y2="55.1" fill="none" stroke="#000" stroke-linejoin="bevel" stroke-width="2.48"/><line x1="898.71" y1="106.93" x2="898.71" y2="42.7" fill="none" stroke="#000" stroke-linejoin="bevel" stroke-width="2.48"/><line x1="1365.73" y1="131.73" x2="1365.73" y2="48.9" fill="none" stroke="#000" stroke-linejoin="bevel" stroke-width="2.48"/><line x1="491.84" y1="144.13" x2="491.84" y2="48.9" fill="none" stroke="#000" stroke-linejoin="bevel" stroke-width="2.48"/><line x1="2133.48" y1="119.33" x2="2133.48" y2="48.9" fill="none" stroke="#000" stroke-linejoin="bevel" stroke-width="2.48"/><line x1="1079.15" y1="144.13" x2="1079.15" y2="55.1" fill="none" stroke="#000" stroke-linejoin="bevel" stroke-width="2.48"/><line x1="551.99" y1="131.73" x2="551.99" y2="48.9" fill="none" stroke="#000" stroke-linejoin="bevel" stroke-width="2.48"/><line x1="2073.33" y1="144.13" x2="2073.33" y2="48.9" fill="none" stroke="#000" stroke-linejoin="bevel" stroke-width="2.48"/><line x1="1019" y1="156.53" x2="1019" y2="55.1" fill="none" stroke="#000" stroke-linejoin="bevel" stroke-width="2.48"/><path d="M220.26,164.67c0,4.26,3.07,9.02,11.11,9.02,10.31,0,21.13-8.43,21.13-17.16,0-5.86-4.96-9.13-11.11-9.13-9.63,0-21.13,8.14-21.13,17.27"/><path d="M280.41,152.27c0,4.26,3.07,9.02,11.11,9.02,10.31,0,21.13-8.43,21.13-17.16,0-5.86-4.96-9.13-11.11-9.13-9.63,0-21.13,8.14-21.13,17.27"/><path d="M340.56,139.87c0,4.26,3.07,9.02,11.11,9.02,10.31,0,21.13-8.43,21.13-17.16,0-5.86-4.96-9.13-11.11-9.13-9.63,0-21.13,8.14-21.13,17.27"/><path d="M400.7,164.67c0,4.26,3.07,9.02,11.11,9.02,10.31,0,21.13-8.43,21.13-17.16,0-5.86-4.96-9.13-11.11-9.13-9.63,0-21.13,8.14-21.13,17.27"/><path d="M460.85,152.27c0,4.26,3.07,9.02,11.11,9.02,10.31,0,21.13-8.43,21.13-17.16,0-5.86-4.96-9.13-11.11-9.13-9.63,0-21.13,8.14-21.13,17.27"/><path d="M521,139.87c0,4.26,3.07,9.02,11.11,9.02,10.31,0,21.13-8.43,21.13-17.16,0-5.86-4.96-9.13-11.11-9.13-9.63,0-21.13,8.14-21.13,17.27"/><path d="M581.14,127.47c0,4.26,3.07,9.02,11.11,9.02,10.31,0,21.13-8.43,21.13-17.16,0-5.86-4.96-9.13-11.11-9.13-9.63,0-21.13,8.14-21.13,17.27"/><path d="M641.29,152.27c0,4.26,3.07,9.02,11.11,9.02,10.31,0,21.13-8.43,21.13-17.16,0-5.86-4.96-9.13-11.11-9.13-9.63,0-21.13,8.14-21.13,17.27"/><path d="M747.43,139.87c0,4.26,3.07,9.02,11.11,9.02,10.31,0,21.13-8.43,21.13-17.16,0-5.86-4.96-9.13-11.11-9.13-9.63,0-21.13,8.14-21.13,17.27"/><path d="M807.57,127.47c0,4.26,3.07,9.02,11.11,9.02,10.31,0,21.13-8.43,21.13-17.16,0-5.86-4.96-9.13-11.11-9.13-9.63,0-21.13,8.14-21.13,17.27"/><path d="M867.72,115.07c0,4.26,3.07,9.02,11.11,9.02,10.31,0,21.13-8.43,21.13-17.16,0-5.86-4.96-9.13-11.11-9.13-9.63,0-21.13,8.14-21.13,17.27"/><path d="M988.01,164.67c0,4.26,3.07,9.02,11.11,9.02,10.31,0,21.13-8.43,21.13-17.16,0-5.86-4.96-9.13-11.11-9.13-9.63,0-21.13,8.14-21.13,17.27"/><path d="M1048.16,152.27c0,4.26,3.07,9.02,11.11,9.02,10.31,0,21.13-8.43,21.13-17.16,0-5.86-4.96-9.13-11.11-9.13-9.63,0-21.13,8.14-21.13,17.27"/><path d="M1108.31,139.87c0,4.26,3.07,9.02,11.11,9.02,10.31,0,21.13-8.43,21.13-17.16,0-5.86-4.96-9.13-11.11-9.13-9.63,0-21.13,8.14-21.13,17.27"/><path d="M1168.45,164.67c0,4.26,3.07,9.02,11.11,9.02,10.31,0,21.13-8.43,21.13-17.16,0-5.86-4.96-9.13-11.11-9.13-9.63,0-21.13,8.14-21.13,17.27"/><path d="M1274.59,152.27c0,4.26,3.07,9.02,11.11,9.02,10.31,0,21.13-8.43,21.13-17.16,0-5.86-4.96-9.13-11.11-9.13-9.63,0-21.13,8.14-21.13,17.27"/><path d="M1334.74,139.87c0,4.26,3.07,9.02,11.11,9.02,10.31,0,21.13-8.43,21.13-17.16,0-5.86-4.96-9.13-11.11-9.13-9.63,0-21.13,8.14-21.13,17.27"/><path d="M1394.88,127.47c0,4.26,3.07,9.02,11.11,9.02,10.31,0,21.13-8.43,21.13-17.16,0-5.86-4.96-9.13-11.11-9.13-9.63,0-21.13,8.14-21.13,17.27"/><path d="M1455.03,152.27c0,4.26,3.07,9.02,11.11,9.02,10.31,0,21.13-8.43,21.13-17.16,0-5.86-4.96-9.13-11.11-9.13-9.63,0-21.13,8.14-21.13,17.27"/><path d="M1515.18,177.07c0,4.26,3.07,9.02,11.11,9.02,10.31,0,21.13-8.43,21.13-17.16,0-5.86-4.96-9.13-11.11-9.13-9.63,0-21.13,8.14-21.13,17.27"/><path d="M1575.32,164.67c0,4.26,3.07,9.02,11.11,9.02,10.31,0,21.13-8.43,21.13-17.16,0-5.86-4.96-9.13-11.11-9.13-9.63,0-21.13,8.14-21.13,17.27"/><path d="M1635.47,152.27c0,4.26,3.07,9.02,11.11,9.02,10.31,0,21.13-8.43,21.13-17.16,0-5.86-4.96-9.13-11.11-9.13-9.63,0-21.13,8.14-21.13,17.27"/><path d="M1695.62,177.07c0,4.26,3.07,9.02,11.11,9.02,10.31,0,21.13-8.43,21.13-17.16,0-5.86-4.96-9.13-11.11-9.13-9.63,0-21.13,8.14-21.13,17.27"/><path d="M1801.75,164.67c0,4.26,3.07,9.02,11.11,9.02,10.31,0,21.13-8.43,21.13-17.16,0-5.86-4.96-9.13-11.11-9.13-9.63,0-21.13,8.14-21.13,17.27"/><path d="M1861.9,139.87c0,4.26,3.07,9.02,11.11,9.02,10.31,0,21.13-8.43,21.13-17.16,0-5.86-4.96-9.13-11.11-9.13-9.63,0-21.13,8.14-21.13,17.27"/><path d="M1922.05,152.27c0,4.26,3.07,9.02,11.11,9.02,10.31,0,21.13-8.43,21.13-17.16,0-5.86-4.96-9.13-11.11-9.13-9.63,0-21.13,8.14-21.13,17.27"/><path d="M1982.19,164.67c0,4.26,3.07,9.02,11.11,9.02,10.31,0,21.13-8.43,21.13-17.16,0-5.86-4.96-9.13-11.11-9.13-9.63,0-21.13,8.14-21.13,17.27"/><path d="M2042.34,152.27c0,4.26,3.07,9.02,11.11,9.02,10.31,0,21.13-8.43,21.13-17.16,0-5.86-4.96-9.13-11.11-9.13-9.63,0-21.13,8.14-21.13,17.27"/><path d="M2102.49,127.47c0,4.26,3.07,9.02,11.11,9.02,10.31,0,21.13-8.43,21.13-17.16,0-5.86-4.96-9.13-11.11-9.13-9.63,0-21.13,8.14-21.13,17.27"/><path d="M2162.63,139.87c0,4.26,3.07,9.02,11.11,9.02,10.31,0,21.13-8.43,21.13-17.16,0-5.86-4.96-9.13-11.11-9.13-9.63,0-21.13,8.14-21.13,17.27"/><path d="M2222.78,152.27c0,4.26,3.07,9.02,11.11,9.02,10.31,0,21.13-8.43,21.13-17.16,0-5.86-4.96-9.13-11.11-9.13-9.63,0-21.13,8.14-21.13,17.27"/><path d="M2347.48,147.02c-13.69,0-18.55,6.94-18.55,13.39s4.87,13.39,18.55,13.39,18.45-6.94,18.45-13.39-4.76-13.39-18.45-13.39m.79,23.61c-2.77,0-4.67-.79-5.95-3.27s-3.07-8.93-3.18-11.52c-.2-2.68,.79-4.26,3.18-5.05,1.19-.4,2.77-.6,4.37-.6,2.67,0,4.46,.6,5.84,3.29,1.39,2.57,3.29,9.02,3.29,11.5,0,4.87-3.58,5.66-7.55,5.66"/><path d="M927.87,139.87c0,4.26,3.07,9.02,11.11,9.02,10.31,0,21.13-8.43,21.13-17.16,0-5.86-4.96-9.13-11.11-9.13-9.63,0-21.13,8.14-21.13,17.27"/><path d="M30.8,174.19c0,6.56,4.96,15.19,18.35,15.19,4.67,0,8.74-1.19,12.31-3.38,5.36-3.77,6.74-10.32,6.74-16.57,0-3.86-.59-8.32-1.58-13.98-.29-1.98-.9-4.96-1.49-8.84,9.72-3.18,16.96-13.3,16.96-23.51,0-14.97-10.62-25.09-25.09-25.09-.99-5.95-1.98-11.81-2.77-17.36,10.42-11.02,17.65-23.42,17.65-39.18,0-9.04-2.77-16.37-4.37-19.95-2.37-5.05-5.25-8.53-7.04-8.53-.7,0-3.77,1.19-7.04,5.05-6.36,7.55-8.14,20.24-8.14,28.57,0,5.36,.5,10.23,2.19,21.34-.11,.09-5.27,5.35-7.35,7.04-9.04,8.34-21.53,20.43-21.53,40.28,0,18.54,16.17,33.12,34.63,33.12,2.87,0,5.55-.29,7.83-.7,1.89,9.53,3.08,16.48,3.08,21.73,0,10.32-5.36,15.78-15.38,15.78-2.39,0-4.46-.5-4.67-.5-.09-.11-.29-.2-.29-.29,0-.2,.2-.31,.5-.31,4.67-.79,9.32-4.76,9.32-11.1,0-5.36-4.06-11.02-11.5-11.02-6.94,0-11.31,5.66-11.31,12.2M51.54,41.76c.9-3.97,5.46-14.38,10.62-14.38,1.49,0,3.86,4.76,3.86,11.7,0,10.32-7.63,18.06-14.48,24.8-.59-3.97-1.08-7.83-1.08-12,0-3.67,.29-7.05,1.08-10.12m8.73,101.97c-1.98,.4-3.86,.6-5.75,.6-14.18,0-26.29-9.92-26.29-24.91,0-12.09,8.53-22.91,17.27-30.46,1.67-1.49,3.27-2.87,4.76-4.36,.88,5.35,1.58,10.01,2.28,14.09-9.04,2.68-15.17,12.2-15.17,21.53,0,6.94,5.46,16.46,13.39,16.46,.79,0,1.69-.4,1.69-1.29s-.99-1.39-2.19-2.19c-3.88-2.39-6.06-4.96-6.06-9.83,0-6.05,4.57-10.91,10.32-12.29l5.75,32.63m14.09-18.35c0,7.05-2.88,14.29-9.92,17.17-2.08-11.9-4.76-27.68-5.46-32.05,8.93,0,15.38,6.06,15.38,14.88"/><path d="M129.99,38.49c.6-.09,1.1-.79,1.1-1.4v-5.84c0-.99-.7-1.39-1.6-1.39l-3.27,.7V15.76h-2.77v15.38l-8.83,1.8v-14h-2.77v14.59l-3.88,.79c-.59,.11-1.09,.79-1.09,1.39v5.75c0,1.09,.79,1.4,1.69,1.4l3.27-.7v16.37l-3.88,.79c-.59,.09-1.09,.79-1.09,1.4v5.75c0,1.09,.79,1.38,1.69,1.38l3.27-.68v14.77h2.77v-15.38l8.83-1.78v14h2.77v-14.59l3.77-.7c.6-.11,1.1-.79,1.1-1.39v-5.84c0-.99-.7-1.4-1.6-1.4l-3.27,.7v-16.37l3.77-.7m-15.38,3.07l8.83-1.78v16.37l-8.83,1.89v-16.48"/><path d="M157.16,75.69c.6-.09,1.1-.79,1.1-1.4v-5.84c0-.99-.7-1.39-1.6-1.39l-3.27,.7v-14.79h-2.77v15.38l-8.83,1.8v-14h-2.77v14.59l-3.88,.79c-.59,.11-1.09,.79-1.09,1.39v5.75c0,1.09,.79,1.4,1.69,1.4l3.27-.7v16.37l-3.88,.79c-.59,.09-1.09,.79-1.09,1.4v5.75c0,1.09,.79,1.38,1.69,1.38l3.27-.68v14.77h2.77v-15.38l8.83-1.78v14h2.77v-14.59l3.77-.7c.6-.11,1.1-.79,1.1-1.39v-5.84c0-.99-.7-1.4-1.6-1.4l-3.27,.7v-16.37l3.77-.7m-15.38,3.07l8.83-1.78v16.37l-8.83,1.89v-16.48"/><path d="M2370.14,10.71c-9.32-10.12-17.56-10.71-22.71-10.71s-13.3,.59-22.63,10.71c-4.85,5.36-8.23,15.97-8.23,21.33,0,1.89,.4,3.18,1.4,3.18,2.77,0,1.38-8.54,9.72-16.97,7.33-7.33,17.16-7.44,19.55-7.44h.39c2.39,0,12.21,.11,19.55,7.44,8.34,8.43,6.94,16.97,9.72,16.97,.99,0,1.39-1.19,1.39-3.18,0-5.36-3.27-16.07-8.14-21.33m-29.56,18.94c0,3.78,3.07,6.85,6.85,6.85s6.84-3.07,6.84-6.85-3.07-6.84-6.84-6.84-6.85,3.07-6.85,6.84"/><path d="M650.52,199.68c.64-.57,1-.75,1.47-.75,.41,0,.73,.18,1.05,.64,.64,.87,.88,1.03,1.52,1.03,.92,0,1.61-.75,1.61-1.75,0-1.17-1.12-2.1-2.53-2.1s-2.47,.54-4.55,2.18c-1.25-.57-2.17-.77-3.45-.77-4.44,0-8.19,3.16-8.19,6.84,0,1.93,.75,3.24,2.47,4.16-1.83,.24-2.67,.52-3.59,1.31-.8,.64-1.31,1.72-1.31,2.69,0,1.36,.64,2.2,2.19,2.95-2.36,.54-5.11,1.54-5.11,4.44,0,4,5.28,4.49,8.2,4.49,3.95,0,6.23-.49,8.19-1.77,1.72-1.11,2.72-2.83,2.72-4.72,0-4.03-4.28-4.51-7.36-4.72-3.55-.18-3.83-.23-4.39-.36-1-.23-1.48-.72-1.48-1.39,0-.97,.95-1.61,2.41-1.61,.52,0,1.11,.05,1.64,.13,1.64,.23,1.88,.28,2.88,.28,2.23,0,4-.56,5.39-1.69,1.61-1.23,2.61-3.23,2.61-5.08s-.8-3.31-2.36-4.43m-4.61,0c2.09,0,3.41,1.25,3.41,3.2,0,2.87-1.31,6.52-4.72,6.52-2.16,0-3.52-1.36-3.52-3.6,0-3.59,1.95-6.12,4.83-6.12m-4.88,17.15c1.8,0,4.69,.41,5.59,.77,1,.44,1.48,1.12,1.48,2.12,0,2.36-2.52,3.64-7.11,3.64-3.89,0-5.69-.96-5.69-3.09s2.08-3.44,5.72-3.44m25.08-25.62c-1.08,0-1.95,.87-1.95,1.95s.88,1.95,1.95,1.95,1.97-.87,1.97-1.95-.89-1.95-1.97-1.95m8.08,0c-1.08,0-1.95,.87-1.95,1.95s.88,1.95,1.95,1.95,1.97-.87,1.97-1.95-.89-1.95-1.97-1.95m2.41,7.54h-3.48l-1.88,6.41c-1.64,5.56-5.33,10.11-8.16,10.11-.97,0-1.72-.75-1.72-1.72,0-.51,.11-1.15,.44-2.26l3.92-13.13-7.72,.59-.12,1.46h.95c1.64,0,2.25,.36,2.25,1.26,0,.41-.12,.97-.33,1.74l-1.59,5.39q-1.23,4-1.23,5.23c0,2.21,1.52,3.69,3.8,3.69,2.8,0,5.08-1.64,7.44-5.33-.41,1.41-.48,1.97-.48,2.72,0,1.56,1.08,2.64,2.56,2.64,2.44,0,4.39-1.64,7.23-6l-1.2-.72c-1.95,2.92-3.52,4.53-4.39,4.53-.36,0-.72-.45-.72-.96,0-.44,.16-1.21,.47-2.36l3.97-13.29"/><path d="M289.64,199.68c.64-.57,1-.75,1.47-.75,.41,0,.74,.18,1.05,.64,.64,.87,.88,1.03,1.52,1.03,.92,0,1.61-.75,1.61-1.75,0-1.17-1.12-2.1-2.53-2.1s-2.47,.54-4.55,2.18c-1.25-.57-2.17-.77-3.45-.77-4.44,0-8.19,3.16-8.19,6.84,0,1.93,.75,3.24,2.47,4.16-1.83,.24-2.67,.52-3.59,1.31-.8,.64-1.31,1.72-1.31,2.69,0,1.36,.64,2.2,2.19,2.95-2.36,.54-5.11,1.54-5.11,4.44,0,4,5.28,4.49,8.2,4.49,3.95,0,6.24-.49,8.19-1.77,1.72-1.11,2.72-2.83,2.72-4.72,0-4.03-4.28-4.51-7.36-4.72-3.55-.18-3.83-.23-4.39-.36-1-.23-1.49-.72-1.49-1.39,0-.97,.95-1.61,2.41-1.61,.52,0,1.11,.05,1.64,.13,1.64,.23,1.88,.28,2.88,.28,2.23,0,4-.56,5.39-1.69,1.61-1.23,2.61-3.23,2.61-5.08s-.8-3.31-2.36-4.43m-4.61,0c2.09,0,3.41,1.25,3.41,3.2,0,2.87-1.31,6.52-4.72,6.52-2.16,0-3.52-1.36-3.52-3.6,0-3.59,1.95-6.12,4.83-6.12m-4.88,17.15c1.8,0,4.69,.41,5.59,.77,1,.44,1.48,1.12,1.48,2.12,0,2.36-2.51,3.64-7.11,3.64-3.89,0-5.69-.96-5.69-3.09s2.08-3.44,5.72-3.44m25.08-25.62c-1.08,0-1.95,.87-1.95,1.95s.88,1.95,1.95,1.95,1.97-.87,1.97-1.95-.89-1.95-1.97-1.95m8.08,0c-1.08,0-1.95,.87-1.95,1.95s.88,1.95,1.95,1.95,1.97-.87,1.97-1.95-.89-1.95-1.97-1.95m2.41,7.54h-3.48l-1.88,6.41c-1.64,5.56-5.33,10.11-8.16,10.11-.97,0-1.72-.75-1.72-1.72,0-.51,.11-1.15,.44-2.26l3.92-13.13-7.72,.59-.12,1.46h.95c1.64,0,2.25,.36,2.25,1.26,0,.41-.12,.97-.33,1.74l-1.59,5.39q-1.23,4-1.23,5.23c0,2.21,1.52,3.69,3.8,3.69,2.8,0,5.08-1.64,7.44-5.33-.41,1.41-.48,1.97-.48,2.72,0,1.56,1.08,2.64,2.56,2.64,2.44,0,4.39-1.64,7.23-6l-1.2-.72c-1.95,2.92-3.52,4.53-4.39,4.53-.36,0-.72-.45-.72-.96,0-.44,.16-1.21,.47-2.36l3.97-13.29"/><path d="M592.46,210.65c-2.33,3.75-3.33,4.79-4.64,4.79-.64,0-1-.4-1-1.12,0-.52,.2-1.44,.59-2.85l7.12-23.98-7.95,.59-.17,1.44h1.25c1.64,0,2.28,.36,2.28,1.23,0,.41-.12,.93-.36,1.77l-2.64,8.88c-.72-2.08-2.28-3.24-4.61-3.24-5.75,0-11.11,6.16-11.11,12.8,0,3.92,2.52,6.59,6.28,6.59,2.72,0,4.72-1.11,6.47-3.72-.03,.33-.03,.72-.03,.89,0,1.83,.95,2.83,2.72,2.83,2.51,0,4.72-1.95,7-6.19l-1.2-.71m-10-10.69c1.95,0,3.39,1.51,3.39,3.61,0,3.62-2.55,12.11-7.19,12.11-2.16,0-3.56-1.72-3.56-4.32,0-3.79,2.72-11.4,7.36-11.4m22.51-8.75c-1.08,0-1.95,.87-1.95,1.95s.88,1.95,1.95,1.95,1.97-.87,1.97-1.95-.89-1.95-1.97-1.95m8.08,0c-1.08,0-1.95,.87-1.95,1.95s.88,1.95,1.95,1.95,1.97-.87,1.97-1.95-.89-1.95-1.97-1.95m2.41,7.54h-3.49l-1.88,6.41c-1.64,5.56-5.33,10.11-8.16,10.11-.97,0-1.72-.75-1.72-1.72,0-.51,.11-1.15,.44-2.26l3.92-13.13-7.72,.59-.12,1.46h.95c1.64,0,2.25,.36,2.25,1.26,0,.41-.12,.97-.33,1.74l-1.59,5.39q-1.23,4-1.23,5.23c0,2.21,1.51,3.69,3.8,3.69,2.8,0,5.08-1.64,7.44-5.33-.41,1.41-.48,1.97-.48,2.72,0,1.56,1.08,2.64,2.56,2.64,2.44,0,4.39-1.64,7.24-6l-1.2-.72c-1.95,2.92-3.51,4.53-4.39,4.53-.36,0-.72-.45-.72-.96,0-.44,.16-1.21,.47-2.36l3.97-13.29"/><path d="M351.87,210.65c-2.33,3.75-3.33,4.79-4.64,4.79-.64,0-1-.4-1-1.12,0-.52,.2-1.44,.59-2.85l7.12-23.98-7.95,.59-.17,1.44h1.25c1.64,0,2.28,.36,2.28,1.23,0,.41-.12,.93-.36,1.77l-2.64,8.88c-.72-2.08-2.28-3.24-4.61-3.24-5.75,0-11.11,6.16-11.11,12.8,0,3.92,2.52,6.59,6.28,6.59,2.72,0,4.72-1.11,6.47-3.72-.03,.33-.03,.72-.03,.89,0,1.83,.95,2.83,2.72,2.83,2.52,0,4.72-1.95,7-6.19l-1.2-.71m-10-10.69c1.95,0,3.39,1.51,3.39,3.61,0,3.62-2.55,12.11-7.19,12.11-2.16,0-3.56-1.72-3.56-4.32,0-3.79,2.72-11.4,7.36-11.4m22.52-8.75c-1.08,0-1.95,.87-1.95,1.95s.88,1.95,1.95,1.95,1.97-.87,1.97-1.95-.89-1.95-1.97-1.95m8.08,0c-1.08,0-1.95,.87-1.95,1.95s.88,1.95,1.95,1.95,1.97-.87,1.97-1.95-.89-1.95-1.97-1.95m2.41,7.54h-3.48l-1.88,6.41c-1.64,5.56-5.33,10.11-8.16,10.11-.97,0-1.72-.75-1.72-1.72,0-.51,.11-1.15,.44-2.26l3.92-13.13-7.72,.59-.12,1.46h.95c1.64,0,2.25,.36,2.25,1.26,0,.41-.12,.97-.33,1.74l-1.59,5.39q-1.23,4-1.23,5.23c0,2.21,1.52,3.69,3.8,3.69,2.8,0,5.08-1.64,7.44-5.33-.41,1.41-.48,1.97-.48,2.72,0,1.56,1.08,2.64,2.56,2.64,2.44,0,4.39-1.64,7.23-6l-1.2-.72c-1.95,2.92-3.52,4.53-4.39,4.53-.36,0-.72-.45-.72-.96,0-.44,.16-1.21,.47-2.36l3.97-13.29"/><path d="M231.57,210.65c-2.33,3.75-3.33,4.79-4.64,4.79-.64,0-1-.4-1-1.12,0-.52,.2-1.44,.59-2.85l7.12-23.98-7.95,.59-.17,1.44h1.25c1.64,0,2.28,.36,2.28,1.23,0,.41-.12,.93-.36,1.77l-2.64,8.88c-.72-2.08-2.28-3.24-4.61-3.24-5.75,0-11.11,6.16-11.11,12.8,0,3.92,2.52,6.59,6.28,6.59,2.72,0,4.72-1.11,6.47-3.72-.03,.33-.03,.72-.03,.89,0,1.83,.95,2.83,2.72,2.83,2.52,0,4.72-1.95,7-6.19l-1.2-.71m-10-10.69c1.95,0,3.39,1.51,3.39,3.61,0,3.62-2.55,12.11-7.19,12.11-2.16,0-3.56-1.72-3.56-4.32,0-3.79,2.72-11.4,7.36-11.4m22.52-8.75c-1.08,0-1.95,.87-1.95,1.95s.88,1.95,1.95,1.95,1.97-.87,1.97-1.95-.89-1.95-1.97-1.95m8.08,0c-1.08,0-1.95,.87-1.95,1.95s.88,1.95,1.95,1.95,1.97-.87,1.97-1.95-.89-1.95-1.97-1.95m2.41,7.54h-3.48l-1.88,6.41c-1.64,5.56-5.33,10.11-8.16,10.11-.97,0-1.72-.75-1.72-1.72,0-.51,.11-1.15,.44-2.26l3.92-13.13-7.72,.59-.12,1.46h.95c1.64,0,2.25,.36,2.25,1.26,0,.41-.12,.97-.33,1.74l-1.59,5.39q-1.23,4-1.23,5.23c0,2.21,1.52,3.69,3.8,3.69,2.8,0,5.08-1.64,7.44-5.33-.41,1.41-.48,1.97-.48,2.72,0,1.56,1.08,2.64,2.56,2.64,2.44,0,4.39-1.64,7.23-6l-1.2-.72c-1.95,2.92-3.52,4.53-4.39,4.53-.36,0-.72-.45-.72-.96,0-.44,.16-1.21,.47-2.36l3.97-13.29"/><path d="M530.23,199.68c.64-.57,1-.75,1.47-.75,.41,0,.73,.18,1.05,.64,.64,.87,.88,1.03,1.52,1.03,.92,0,1.61-.75,1.61-1.75,0-1.17-1.12-2.1-2.53-2.1s-2.47,.54-4.55,2.18c-1.25-.57-2.17-.77-3.45-.77-4.44,0-8.19,3.16-8.19,6.84,0,1.93,.75,3.24,2.47,4.16-1.83,.24-2.67,.52-3.59,1.31-.8,.64-1.31,1.72-1.31,2.69,0,1.36,.64,2.2,2.19,2.95-2.36,.54-5.11,1.54-5.11,4.44,0,4,5.28,4.49,8.2,4.49,3.95,0,6.23-.49,8.19-1.77,1.72-1.11,2.72-2.83,2.72-4.72,0-4.03-4.28-4.51-7.36-4.72-3.55-.18-3.83-.23-4.39-.36-1-.23-1.48-.72-1.48-1.39,0-.97,.95-1.61,2.41-1.61,.52,0,1.11,.05,1.64,.13,1.64,.23,1.88,.28,2.88,.28,2.23,0,4-.56,5.39-1.69,1.61-1.23,2.61-3.23,2.61-5.08s-.8-3.31-2.36-4.43m-4.61,0c2.09,0,3.41,1.25,3.41,3.2,0,2.87-1.31,6.52-4.72,6.52-2.16,0-3.52-1.36-3.52-3.6,0-3.59,1.95-6.12,4.83-6.12m-4.88,17.15c1.8,0,4.69,.41,5.59,.77,1,.44,1.48,1.12,1.48,2.12,0,2.36-2.52,3.64-7.11,3.64-3.89,0-5.69-.96-5.69-3.09s2.08-3.44,5.72-3.44m25.08-25.62c-1.08,0-1.95,.87-1.95,1.95s.88,1.95,1.95,1.95,1.97-.87,1.97-1.95-.89-1.95-1.97-1.95m8.08,0c-1.08,0-1.95,.87-1.95,1.95s.88,1.95,1.95,1.95,1.97-.87,1.97-1.95-.89-1.95-1.97-1.95m2.41,7.54h-3.48l-1.88,6.41c-1.64,5.56-5.33,10.11-8.16,10.11-.97,0-1.72-.75-1.72-1.72,0-.51,.11-1.15,.44-2.26l3.92-13.13-7.72,.59-.12,1.46h.95c1.64,0,2.25,.36,2.25,1.26,0,.41-.12,.97-.33,1.74l-1.59,5.39q-1.23,4-1.23,5.23c0,2.21,1.52,3.69,3.8,3.69,2.8,0,5.08-1.64,7.44-5.33-.41,1.41-.48,1.97-.48,2.72,0,1.56,1.08,2.64,2.56,2.64,2.44,0,4.39-1.64,7.23-6l-1.2-.72c-1.95,2.92-3.52,4.53-4.39,4.53-.36,0-.72-.45-.72-.96,0-.44,.16-1.21,.47-2.36l3.97-13.29"/><path d="M472.16,210.65c-2.33,3.75-3.33,4.79-4.64,4.79-.64,0-1-.4-1-1.12,0-.52,.2-1.44,.59-2.85l7.12-23.98-7.95,.59-.17,1.44h1.25c1.64,0,2.28,.36,2.28,1.23,0,.41-.12,.93-.36,1.77l-2.64,8.88c-.72-2.08-2.28-3.24-4.61-3.24-5.75,0-11.11,6.16-11.11,12.8,0,3.92,2.52,6.59,6.28,6.59,2.72,0,4.72-1.11,6.47-3.72-.03,.33-.03,.72-.03,.89,0,1.83,.95,2.83,2.72,2.83,2.52,0,4.72-1.95,7-6.19l-1.2-.71m-10-10.69c1.95,0,3.39,1.51,3.39,3.61,0,3.62-2.55,12.11-7.19,12.11-2.16,0-3.56-1.72-3.56-4.32,0-3.79,2.72-11.4,7.36-11.4m22.52-8.75c-1.08,0-1.95,.87-1.95,1.95s.88,1.95,1.95,1.95,1.97-.87,1.97-1.95-.89-1.95-1.97-1.95m8.08,0c-1.08,0-1.95,.87-1.95,1.95s.88,1.95,1.95,1.95,1.97-.87,1.97-1.95-.89-1.95-1.97-1.95m2.41,7.54h-3.48l-1.88,6.41c-1.64,5.56-5.33,10.11-8.16,10.11-.97,0-1.72-.75-1.72-1.72,0-.51,.11-1.15,.44-2.26l3.92-13.13-7.72,.59-.12,1.46h.95c1.64,0,2.25,.36,2.25,1.26,0,.41-.12,.97-.33,1.74l-1.59,5.39q-1.23,4-1.23,5.23c0,2.21,1.52,3.69,3.8,3.69,2.8,0,5.08-1.64,7.44-5.33-.41,1.41-.48,1.97-.48,2.72,0,1.56,1.08,2.64,2.56,2.64,2.44,0,4.39-1.64,7.23-6l-1.2-.72c-1.95,2.92-3.52,4.53-4.39,4.53-.36,0-.72-.45-.72-.96,0-.44,.16-1.21,.47-2.36l3.97-13.29"/><path d="M409.94,199.68c.64-.57,1-.75,1.47-.75,.41,0,.73,.18,1.05,.64,.64,.87,.88,1.03,1.51,1.03,.92,0,1.61-.75,1.61-1.75,0-1.17-1.12-2.1-2.53-2.1s-2.47,.54-4.55,2.18c-1.25-.57-2.17-.77-3.45-.77-4.44,0-8.19,3.16-8.19,6.84,0,1.93,.75,3.24,2.47,4.16-1.83,.24-2.67,.52-3.59,1.31-.8,.64-1.31,1.72-1.31,2.69,0,1.36,.64,2.2,2.19,2.95-2.36,.54-5.11,1.54-5.11,4.44,0,4,5.28,4.49,8.2,4.49,3.95,0,6.23-.49,8.19-1.77,1.72-1.11,2.72-2.83,2.72-4.72,0-4.03-4.28-4.51-7.36-4.72-3.55-.18-3.83-.23-4.39-.36-1-.23-1.48-.72-1.48-1.39,0-.97,.95-1.61,2.41-1.61,.52,0,1.11,.05,1.64,.13,1.64,.23,1.88,.28,2.88,.28,2.23,0,4-.56,5.39-1.69,1.61-1.23,2.61-3.23,2.61-5.08s-.8-3.31-2.36-4.43m-4.61,0c2.09,0,3.41,1.25,3.41,3.2,0,2.87-1.31,6.52-4.72,6.52-2.16,0-3.51-1.36-3.51-3.6,0-3.59,1.95-6.12,4.83-6.12m-4.88,17.15c1.8,0,4.69,.41,5.59,.77,1,.44,1.48,1.12,1.48,2.12,0,2.36-2.52,3.64-7.11,3.64-3.89,0-5.69-.96-5.69-3.09s2.08-3.44,5.72-3.44m25.08-25.62c-1.08,0-1.95,.87-1.95,1.95s.88,1.95,1.95,1.95,1.97-.87,1.97-1.95-.89-1.95-1.97-1.95m8.08,0c-1.08,0-1.95,.87-1.95,1.95s.88,1.95,1.95,1.95,1.97-.87,1.97-1.95-.89-1.95-1.97-1.95m2.41,7.54h-3.48l-1.88,6.41c-1.64,5.56-5.33,10.11-8.16,10.11-.97,0-1.72-.75-1.72-1.72,0-.51,.11-1.15,.44-2.26l3.92-13.13-7.72,.59-.12,1.46h.95c1.64,0,2.25,.36,2.25,1.26,0,.41-.12,.97-.33,1.74l-1.59,5.39q-1.24,4-1.24,5.23c0,2.21,1.52,3.69,3.8,3.69,2.8,0,5.08-1.64,7.44-5.33-.41,1.41-.49,1.97-.49,2.72,0,1.56,1.08,2.64,2.56,2.64,2.44,0,4.39-1.64,7.23-6l-1.2-.72c-1.95,2.92-3.51,4.53-4.39,4.53-.36,0-.72-.45-.72-.96,0-.44,.16-1.21,.47-2.36l3.97-13.29"/><path d="M748.14,198.16c-4.2,0-7.25,2.56-7.25,6.03,0,1.74,1,3.17,2.77,4.1,.64,.31,1.44,.67,3.12,1.36,2.27,.9,2.83,1.46,2.83,2.87,0,2.16-1.8,3.52-4.56,3.52-2.03,0-3.47-.57-3.47-1.36,0-.21,.11-.44,.28-.6,.75-.79,.83-1,.83-1.72,0-1.12-.88-2-2.03-2-1.33,0-2.33,1.11-2.33,2.68,0,2.79,2.48,4.51,6.53,4.51,4.59,0,7.75-2.51,7.75-6.15,0-1.6-.72-2.96-2-3.83-.88-.61-1.28-.77-3.47-1.57-2.61-.92-3.28-1.56-3.28-3.12,0-1.84,1.75-3.2,4.08-3.2,1.56,0,2.59,.43,2.59,1.07,0,.18-.08,.36-.2,.57-.56,.79-.64,1-.64,1.61,0,1.07,.84,1.82,2.08,1.82,1.36,0,2.28-1,2.28-2.43,0-2.44-2.44-4.16-5.91-4.16m16.75-9.76c-1.2,0-2.16,.96-2.16,2.17s.95,2.15,2.12,2.15c1.23,0,2.19-.97,2.19-2.15s-.95-2.17-2.16-2.17m.72,9.76l-7.67,.59-.16,1.46h.95c1.64,0,2.28,.36,2.28,1.23,0,.39-.08,.85-.36,1.77l-2.33,7.79c-.75,2.55-.88,3.11-.88,4.04,0,1.4,1.2,2.48,2.72,2.48,3.44,0,5.8-3.56,7.48-6.16l-1.25-.68c-2.08,3.15-3.75,4.84-4.83,4.84-.41,0-.69-.36-.69-.84,0-.39,.16-1.13,.48-2.24l4.23-14.28m12.97,0l-7.28,.59-.12,1.46h.97c1.59,0,2.23,.36,2.23,1.26,0,.36-.12,.97-.33,1.74l-4.08,13.75h3.48l1.64-5.64c1.8-6.13,5.44-10.75,8.44-10.75,1.05,0,1.69,.54,1.69,1.54,0,.82-.33,2.49-.81,4l-3.19,10.85h3.47l1.72-5.8c1-3.33,2-5.56,3.28-7.28,1.44-2,3.48-3.31,5-3.31,1,0,1.56,.51,1.56,1.47,0,.56-.2,1.43-.56,2.56l-1.84,5.69c-1.08,3.11-1.11,3.36-1.11,4.46,0,1.69,1.23,2.8,3.11,2.8,1.32,0,2.61-.64,3.96-1.9,.85-.82,1.4-1.54,3.04-3.93l-1.24-.84c-2.08,3.12-3.56,4.64-4.59,4.64-.44,0-.85-.44-.85-1,0-.36,.13-.8,.49-1.97l2.51-7.75c.29-.87,.49-2.12,.49-3,0-2.12-1.56-3.64-3.72-3.64-2.84,0-5.41,1.84-7.72,5.64,.16-.76,.24-1.44,.24-1.92,0-2.13-1.69-3.72-3.88-3.72-2.53,0-4.36,1.41-7.17,5.41l1.17-5.41m29.95,14.44c-1.36,0-2.47,1.12-2.47,2.48s1.11,2.47,2.44,2.47c1.44,0,2.52-1.08,2.52-2.47s-1.13-2.48-2.49-2.48"/><path d="M2072.09,42.7h182.92v12.4h-182.92v-12.4" fill-rule="evenodd"/><path d="M1017.76,48.9h182.92v12.4h-182.92v-12.4" fill-rule="evenodd"/><path d="M250.02,48.9h182.92v12.4H250.02v-12.4" fill-rule="evenodd"/><path d="M490.6,42.7h182.92v12.4h-182.92v-12.4" fill-rule="evenodd"/><path d="M1831.5,48.9h182.92v12.4h-182.92v-12.4" fill-rule="evenodd"/><path d="M777.18,36.5h182.92v12.4h-182.92v-12.4" fill-rule="evenodd"/><path d="M1304.34,42.7h182.92v12.4h-182.92v-12.4" fill-rule="evenodd"/><path d="M1544.93,67.5h182.92v12.4h-182.92v-12.4" fill-rule="evenodd"/></g></svg>