<?xml version="1.0" encoding="UTF-8"?><svg id="Ebene_2" xmlns="http://www.w3.org/2000/svg" viewBox="0 0 2815.2 862.79"><g id="Ebene_1-2"><line y1="35.91" x2="2815.2" y2="35.91" fill="none" stroke="#000" stroke-linejoin="bevel" stroke-width="2.73"/><line y1="60.71" x2="2815.2" y2="60.71" fill="none" stroke="#000" stroke-linejoin="bevel" stroke-width="2.73"/><line y1="85.51" x2="2815.2" y2="85.51" fill="none" stroke="#000" stroke-linejoin="bevel" stroke-width="2.73"/><line y1="110.31" x2="2815.2" y2="110.31" fill="none" stroke="#000" stroke-linejoin="bevel" stroke-width="2.73"/><line y1="135.11" x2="2815.2" y2="135.11" fill="none" stroke="#000" stroke-linejoin="bevel" stroke-width="2.73"/><line y1="379.11" x2="2815.2" y2="379.11" fill="none" stroke="#000" stroke-linejoin="bevel" stroke-width="2.73"/><line y1="403.91" x2="2815.2" y2="403.91" fill="none" stroke="#000" stroke-linejoin="bevel" stroke-width="2.73"/><line y1="428.71" x2="2815.2" y2="428.71" fill="none" stroke="#000" stroke-linejoin="bevel" stroke-width="2.73"/><line y1="453.51" x2="2815.2" y2="453.51" fill="none" stroke="#000" stroke-linejoin="bevel" stroke-width="2.73"/><line y1="478.31" x2="2815.2" y2="478.31" fill="none" stroke="#000" stroke-linejoin="bevel" stroke-width="2.73"/><line y1="722.31" x2="2815.2" y2="722.31" fill="none" stroke="#000" stroke-linejoin="bevel" stroke-width="2.73"/><line y1="747.11" x2="2815.2" y2="747.11" fill="none" stroke="#000" stroke-linejoin="bevel" stroke-width="2.73"/><line y1="771.91" x2="2815.2" y2="771.91" fill="none" stroke="#000" stroke-linejoin="bevel" stroke-width="2.73"/><line y1="796.71" x2="2815.2" y2="796.71" fill="none" stroke="#000" stroke-linejoin="bevel" stroke-width="2.73"/><line y1="821.51" x2="2815.2" y2="821.51" fill="none" stroke="#000" stroke-linejoin="bevel" stroke-width="2.73"/><line x1="2812.97" y1="377.75" x2="2812.97" y2="479.67" fill="none" stroke="#000" stroke-linejoin="bevel" stroke-width="4.46"/><line x1="2812.97" y1="34.55" x2="2812.97" y2="136.47" fill="none" stroke="#000" stroke-linejoin="bevel" stroke-width="4.46"/><line x1="1963.59" y1="34.55" x2="1963.59" y2="136.47" fill="none" stroke="#000" stroke-linejoin="bevel" stroke-width="4.46"/><line x1="1347.71" y1="720.95" x2="1347.71" y2="822.87" fill="none" stroke="#000" stroke-linejoin="bevel" stroke-width="4.46"/><line x1="2799.33" y1="720.95" x2="2799.33" y2="822.87" fill="none" stroke="#000" stroke-linejoin="bevel" stroke-width="4.46"/><line x1="2812.97" y1="720.95" x2="2812.97" y2="822.87" fill="none" stroke="#000" stroke-linejoin="bevel" stroke-width="4.46"/><line x1="1101.96" y1="377.75" x2="1101.96" y2="479.67" fill="none" stroke="#000" stroke-linejoin="bevel" stroke-width="4.46"/><line x1="2430.59" y1="720.95" x2="2430.59" y2="822.87" fill="none" stroke="#000" stroke-linejoin="bevel" stroke-width="4.46"/><line x1="1114.22" y1="34.55" x2="1114.22" y2="136.47" fill="none" stroke="#000" stroke-linejoin="bevel" stroke-width="4.46"/><line x1="1939.08" y1="377.75" x2="1939.08" y2="479.67" fill="none" stroke="#000" stroke-linejoin="bevel" stroke-width="4.46"/><line x1="2568.72" y1="503.11" x2="2617.32" y2="503.11" fill="none" stroke="#000" stroke-linejoin="bevel" stroke-width="3.97"/><line x1="2129.76" y1="503.11" x2="2178.36" y2="503.11" fill="none" stroke="#000" stroke-linejoin="bevel" stroke-width="3.97"/><line x1="2074.96" y1="503.11" x2="2123.56" y2="503.11" fill="none" stroke="#000" stroke-linejoin="bevel" stroke-width="3.97"/><line x1="2020.16" y1="503.11" x2="2068.76" y2="503.11" fill="none" stroke="#000" stroke-linejoin="bevel" stroke-width="3.97"/><line x1="1965.36" y1="503.11" x2="2013.96" y2="503.11" fill="none" stroke="#000" stroke-linejoin="bevel" stroke-width="3.97"/><line x1="2733.12" y1="503.11" x2="2781.72" y2="503.11" fill="none" stroke="#000" stroke-linejoin="bevel" stroke-width="3.97"/><line x1="2678.32" y1="503.11" x2="2726.92" y2="503.11" fill="none" stroke="#000" stroke-linejoin="bevel" stroke-width="3.97"/><line x1="2623.52" y1="503.11" x2="2672.12" y2="503.11" fill="none" stroke="#000" stroke-linejoin="bevel" stroke-width="3.97"/><line x1="1724.72" y1="106.34" x2="1724.72" y2="35.91" fill="none" stroke="#000" stroke-linejoin="bevel" stroke-width="2.48"/><line x1="330.31" y1="143.54" x2="330.31" y2="66.91" fill="none" stroke="#000" stroke-linejoin="bevel" stroke-width="2.48"/><line x1="379.85" y1="143.54" x2="379.85" y2="66.91" fill="none" stroke="#000" stroke-linejoin="bevel" stroke-width="2.48"/><line x1="429.4" y1="143.54" x2="429.4" y2="66.91" fill="none" stroke="#000" stroke-linejoin="bevel" stroke-width="2.48"/><line x1="478.95" y1="143.54" x2="478.95" y2="66.91" fill="none" stroke="#000" stroke-linejoin="bevel" stroke-width="2.48"/><line x1="528.5" y1="131.14" x2="528.5" y2="60.71" fill="none" stroke="#000" stroke-linejoin="bevel" stroke-width="2.48"/><line x1="578.05" y1="131.14" x2="578.05" y2="60.71" fill="none" stroke="#000" stroke-linejoin="bevel" stroke-width="2.48"/><line x1="627.6" y1="131.14" x2="627.6" y2="60.71" fill="none" stroke="#000" stroke-linejoin="bevel" stroke-width="2.48"/><line x1="677.15" y1="131.14" x2="677.15" y2="60.71" fill="none" stroke="#000" stroke-linejoin="bevel" stroke-width="2.48"/><line x1="726.7" y1="118.74" x2="726.7" y2="42.11" fill="none" stroke="#000" stroke-linejoin="bevel" stroke-width="2.48"/><line x1="776.25" y1="118.74" x2="776.25" y2="42.11" fill="none" stroke="#000" stroke-linejoin="bevel" stroke-width="2.48"/><line x1="825.8" y1="118.74" x2="825.8" y2="42.11" fill="none" stroke="#000" stroke-linejoin="bevel" stroke-width="2.48"/><line x1="875.35" y1="118.74" x2="875.35" y2="42.11" fill="none" stroke="#000" stroke-linejoin="bevel" stroke-width="2.48"/><line x1="924.9" y1="143.54" x2="924.9" y2="66.91" fill="none" stroke="#000" stroke-linejoin="bevel" stroke-width="2.48"/><line x1="974.44" y1="143.54" x2="974.44" y2="66.91" fill="none" stroke="#000" stroke-linejoin="bevel" stroke-width="2.48"/><line x1="1023.99" y1="143.54" x2="1023.99" y2="66.91" fill="none" stroke="#000" stroke-linejoin="bevel" stroke-width="2.48"/><line x1="1073.54" y1="143.54" x2="1073.54" y2="66.91" fill="none" stroke="#000" stroke-linejoin="bevel" stroke-width="2.48"/><line x1="1179.68" y1="131.14" x2="1179.68" y2="60.71" fill="none" stroke="#000" stroke-linejoin="bevel" stroke-width="2.48"/><line x1="1229.23" y1="131.14" x2="1229.23" y2="60.71" fill="none" stroke="#000" stroke-linejoin="bevel" stroke-width="2.48"/><line x1="1278.78" y1="131.14" x2="1278.78" y2="60.71" fill="none" stroke="#000" stroke-linejoin="bevel" stroke-width="2.48"/><line x1="1328.33" y1="131.14" x2="1328.33" y2="60.71" fill="none" stroke="#000" stroke-linejoin="bevel" stroke-width="2.48"/><line x1="1377.88" y1="118.74" x2="1377.88" y2="42.11" fill="none" stroke="#000" stroke-linejoin="bevel" stroke-width="2.48"/><line x1="1427.43" y1="118.74" x2="1427.43" y2="42.11" fill="none" stroke="#000" stroke-linejoin="bevel" stroke-width="2.48"/><line x1="1476.98" y1="118.74" x2="1476.98" y2="42.11" fill="none" stroke="#000" stroke-linejoin="bevel" stroke-width="2.48"/><line x1="1526.52" y1="118.74" x2="1526.52" y2="42.11" fill="none" stroke="#000" stroke-linejoin="bevel" stroke-width="2.48"/><line x1="1576.07" y1="106.34" x2="1576.07" y2="35.91" fill="none" stroke="#000" stroke-linejoin="bevel" stroke-width="2.48"/><line x1="1625.62" y1="106.34" x2="1625.62" y2="35.91" fill="none" stroke="#000" stroke-linejoin="bevel" stroke-width="2.48"/><line x1="1675.17" y1="106.34" x2="1675.17" y2="35.91" fill="none" stroke="#000" stroke-linejoin="bevel" stroke-width="2.48"/><line x1="1774.27" y1="131.14" x2="1774.27" y2="60.71" fill="none" stroke="#000" stroke-linejoin="bevel" stroke-width="2.48"/><line x1="1823.82" y1="131.14" x2="1823.82" y2="60.71" fill="none" stroke="#000" stroke-linejoin="bevel" stroke-width="2.48"/><line x1="1873.37" y1="131.14" x2="1873.37" y2="60.71" fill="none" stroke="#000" stroke-linejoin="bevel" stroke-width="2.48"/><line x1="1922.92" y1="131.14" x2="1922.92" y2="60.71" fill="none" stroke="#000" stroke-linejoin="bevel" stroke-width="2.48"/><line x1="2029.06" y1="118.74" x2="2029.06" y2="42.11" fill="none" stroke="#000" stroke-linejoin="bevel" stroke-width="2.48"/><line x1="2078.6" y1="118.74" x2="2078.6" y2="42.11" fill="none" stroke="#000" stroke-linejoin="bevel" stroke-width="2.48"/><line x1="2128.15" y1="118.74" x2="2128.15" y2="42.11" fill="none" stroke="#000" stroke-linejoin="bevel" stroke-width="2.48"/><line x1="2177.7" y1="118.74" x2="2177.7" y2="42.11" fill="none" stroke="#000" stroke-linejoin="bevel" stroke-width="2.48"/><line x1="2227.25" y1="106.34" x2="2227.25" y2="35.91" fill="none" stroke="#000" stroke-linejoin="bevel" stroke-width="2.48"/><line x1="2276.8" y1="106.34" x2="2276.8" y2="35.91" fill="none" stroke="#000" stroke-linejoin="bevel" stroke-width="2.48"/><line x1="2326.35" y1="106.34" x2="2326.35" y2="35.91" fill="none" stroke="#000" stroke-linejoin="bevel" stroke-width="2.48"/><line x1="2375.9" y1="106.34" x2="2375.9" y2="35.91" fill="none" stroke="#000" stroke-linejoin="bevel" stroke-width="2.48"/><line x1="2425.45" y1="93.94" x2="2425.45" y2="17.31" fill="none" stroke="#000" stroke-linejoin="bevel" stroke-width="2.48"/><line x1="2475" y1="93.94" x2="2475" y2="17.31" fill="none" stroke="#000" stroke-linejoin="bevel" stroke-width="2.48"/><line x1="2524.55" y1="93.94" x2="2524.55" y2="17.31" fill="none" stroke="#000" stroke-linejoin="bevel" stroke-width="2.48"/><line x1="2574.1" y1="93.94" x2="2574.1" y2="17.31" fill="none" stroke="#000" stroke-linejoin="bevel" stroke-width="2.48"/><line x1="2623.65" y1="118.74" x2="2623.65" y2="42.11" fill="none" stroke="#000" stroke-linejoin="bevel" stroke-width="2.48"/><line x1="2673.2" y1="118.74" x2="2673.2" y2="42.11" fill="none" stroke="#000" stroke-linejoin="bevel" stroke-width="2.48"/><line x1="2722.75" y1="118.74" x2="2722.75" y2="42.11" fill="none" stroke="#000" stroke-linejoin="bevel" stroke-width="2.48"/><line x1="2772.29" y1="118.74" x2="2772.29" y2="42.11" fill="none" stroke="#000" stroke-linejoin="bevel" stroke-width="2.48"/><line x1="330.31" y1="486.74" x2="330.31" y2="410.11" fill="none" stroke="#000" stroke-linejoin="bevel" stroke-width="2.48"/><line x1="379.04" y1="486.74" x2="379.04" y2="410.11" fill="none" stroke="#000" stroke-linejoin="bevel" stroke-width="2.48"/><line x1="427.77" y1="486.74" x2="427.77" y2="410.11" fill="none" stroke="#000" stroke-linejoin="bevel" stroke-width="2.48"/><line x1="476.5" y1="486.74" x2="476.5" y2="410.11" fill="none" stroke="#000" stroke-linejoin="bevel" stroke-width="2.48"/><line x1="525.23" y1="474.34" x2="525.23" y2="403.91" fill="none" stroke="#000" stroke-linejoin="bevel" stroke-width="2.48"/><line x1="573.97" y1="474.34" x2="573.97" y2="403.91" fill="none" stroke="#000" stroke-linejoin="bevel" stroke-width="2.48"/><line x1="622.7" y1="474.34" x2="622.7" y2="403.91" fill="none" stroke="#000" stroke-linejoin="bevel" stroke-width="2.48"/><line x1="671.43" y1="474.34" x2="671.43" y2="403.91" fill="none" stroke="#000" stroke-linejoin="bevel" stroke-width="2.48"/><line x1="720.16" y1="461.94" x2="720.16" y2="385.31" fill="none" stroke="#000" stroke-linejoin="bevel" stroke-width="2.48"/><line x1="768.89" y1="461.94" x2="768.89" y2="385.31" fill="none" stroke="#000" stroke-linejoin="bevel" stroke-width="2.48"/><line x1="817.62" y1="461.94" x2="817.62" y2="385.31" fill="none" stroke="#000" stroke-linejoin="bevel" stroke-width="2.48"/><line x1="866.36" y1="461.94" x2="866.36" y2="385.31" fill="none" stroke="#000" stroke-linejoin="bevel" stroke-width="2.48"/><line x1="915.09" y1="486.74" x2="915.09" y2="410.11" fill="none" stroke="#000" stroke-linejoin="bevel" stroke-width="2.48"/><line x1="963.82" y1="486.74" x2="963.82" y2="410.11" fill="none" stroke="#000" stroke-linejoin="bevel" stroke-width="2.48"/><line x1="1012.55" y1="486.74" x2="1012.55" y2="410.11" fill="none" stroke="#000" stroke-linejoin="bevel" stroke-width="2.48"/><line x1="1061.29" y1="486.74" x2="1061.29" y2="410.11" fill="none" stroke="#000" stroke-linejoin="bevel" stroke-width="2.48"/><line x1="1167.42" y1="474.34" x2="1167.42" y2="403.91" fill="none" stroke="#000" stroke-linejoin="bevel" stroke-width="2.48"/><line x1="1216.15" y1="474.34" x2="1216.15" y2="403.91" fill="none" stroke="#000" stroke-linejoin="bevel" stroke-width="2.48"/><line x1="1264.89" y1="474.34" x2="1264.89" y2="403.91" fill="none" stroke="#000" stroke-linejoin="bevel" stroke-width="2.48"/><line x1="1313.62" y1="474.34" x2="1313.62" y2="403.91" fill="none" stroke="#000" stroke-linejoin="bevel" stroke-width="2.48"/><line x1="1362.35" y1="461.94" x2="1362.35" y2="385.31" fill="none" stroke="#000" stroke-linejoin="bevel" stroke-width="2.48"/><line x1="1411.08" y1="461.94" x2="1411.08" y2="385.31" fill="none" stroke="#000" stroke-linejoin="bevel" stroke-width="2.48"/><line x1="1459.81" y1="461.94" x2="1459.81" y2="385.31" fill="none" stroke="#000" stroke-linejoin="bevel" stroke-width="2.48"/><line x1="1508.55" y1="461.94" x2="1508.55" y2="385.31" fill="none" stroke="#000" stroke-linejoin="bevel" stroke-width="2.48"/><line x1="1557.28" y1="449.54" x2="1557.28" y2="379.11" fill="none" stroke="#000" stroke-linejoin="bevel" stroke-width="2.48"/><line x1="1606.01" y1="449.54" x2="1606.01" y2="379.11" fill="none" stroke="#000" stroke-linejoin="bevel" stroke-width="2.48"/><line x1="1654.74" y1="449.54" x2="1654.74" y2="379.11" fill="none" stroke="#000" stroke-linejoin="bevel" stroke-width="2.48"/><line x1="1703.47" y1="449.54" x2="1703.47" y2="379.11" fill="none" stroke="#000" stroke-linejoin="bevel" stroke-width="2.48"/><line x1="1752.21" y1="474.34" x2="1752.21" y2="403.91" fill="none" stroke="#000" stroke-linejoin="bevel" stroke-width="2.48"/><line x1="1800.94" y1="474.34" x2="1800.94" y2="403.91" fill="none" stroke="#000" stroke-linejoin="bevel" stroke-width="2.48"/><line x1="1849.67" y1="474.34" x2="1849.67" y2="403.91" fill="none" stroke="#000" stroke-linejoin="bevel" stroke-width="2.48"/><line x1="1898.4" y1="474.34" x2="1898.4" y2="403.91" fill="none" stroke="#000" stroke-linejoin="bevel" stroke-width="2.48"/><line x1="2004.54" y1="499.14" x2="2004.54" y2="428.71" fill="none" stroke="#000" stroke-linejoin="bevel" stroke-width="2.48"/><line x1="2059.34" y1="499.14" x2="2059.34" y2="428.71" fill="none" stroke="#000" stroke-linejoin="bevel" stroke-width="2.48"/><line x1="2114.14" y1="499.14" x2="2114.14" y2="428.71" fill="none" stroke="#000" stroke-linejoin="bevel" stroke-width="2.48"/><line x1="2168.94" y1="499.14" x2="2168.94" y2="428.71" fill="none" stroke="#000" stroke-linejoin="bevel" stroke-width="2.48"/><line x1="2218.04" y1="486.74" x2="2218.04" y2="410.11" fill="none" stroke="#000" stroke-linejoin="bevel" stroke-width="2.48"/><line x1="2266.77" y1="486.74" x2="2266.77" y2="410.11" fill="none" stroke="#000" stroke-linejoin="bevel" stroke-width="2.48"/><line x1="2315.5" y1="486.74" x2="2315.5" y2="410.11" fill="none" stroke="#000" stroke-linejoin="bevel" stroke-width="2.48"/><line x1="2364.23" y1="486.74" x2="2364.23" y2="410.11" fill="none" stroke="#000" stroke-linejoin="bevel" stroke-width="2.48"/><line x1="2412.96" y1="474.34" x2="2412.96" y2="403.91" fill="none" stroke="#000" stroke-linejoin="bevel" stroke-width="2.48"/><line x1="2461.7" y1="474.34" x2="2461.7" y2="403.91" fill="none" stroke="#000" stroke-linejoin="bevel" stroke-width="2.48"/><line x1="2510.43" y1="474.34" x2="2510.43" y2="403.91" fill="none" stroke="#000" stroke-linejoin="bevel" stroke-width="2.48"/><line x1="2559.16" y1="474.34" x2="2559.16" y2="403.91" fill="none" stroke="#000" stroke-linejoin="bevel" stroke-width="2.48"/><line x1="2607.89" y1="499.14" x2="2607.89" y2="428.71" fill="none" stroke="#000" stroke-linejoin="bevel" stroke-width="2.48"/><line x1="2662.69" y1="499.14" x2="2662.69" y2="428.71" fill="none" stroke="#000" stroke-linejoin="bevel" stroke-width="2.48"/><line x1="2717.49" y1="499.14" x2="2717.49" y2="428.71" fill="none" stroke="#000" stroke-linejoin="bevel" stroke-width="2.48"/><line x1="2772.29" y1="499.14" x2="2772.29" y2="428.71" fill="none" stroke="#000" stroke-linejoin="bevel" stroke-width="2.48"/><line x1="330.31" y1="829.94" x2="330.31" y2="753.31" fill="none" stroke="#000" stroke-linejoin="bevel" stroke-width="2.48"/><line x1="395.42" y1="829.94" x2="395.42" y2="753.31" fill="none" stroke="#000" stroke-linejoin="bevel" stroke-width="2.48"/><line x1="460.54" y1="829.94" x2="460.54" y2="753.31" fill="none" stroke="#000" stroke-linejoin="bevel" stroke-width="2.48"/><line x1="525.65" y1="829.94" x2="525.65" y2="753.31" fill="none" stroke="#000" stroke-linejoin="bevel" stroke-width="2.48"/><line x1="590.77" y1="805.14" x2="590.77" y2="728.51" fill="none" stroke="#000" stroke-linejoin="bevel" stroke-width="2.48"/><line x1="655.88" y1="805.14" x2="655.88" y2="728.51" fill="none" stroke="#000" stroke-linejoin="bevel" stroke-width="2.48"/><line x1="721" y1="805.14" x2="721" y2="728.51" fill="none" stroke="#000" stroke-linejoin="bevel" stroke-width="2.48"/><line x1="786.12" y1="805.14" x2="786.12" y2="728.51" fill="none" stroke="#000" stroke-linejoin="bevel" stroke-width="2.48"/><line x1="851.23" y1="817.54" x2="851.23" y2="747.11" fill="none" stroke="#000" stroke-linejoin="bevel" stroke-width="2.48"/><line x1="916.35" y1="817.54" x2="916.35" y2="747.11" fill="none" stroke="#000" stroke-linejoin="bevel" stroke-width="2.48"/><line x1="981.46" y1="817.54" x2="981.46" y2="747.11" fill="none" stroke="#000" stroke-linejoin="bevel" stroke-width="2.48"/><line x1="1046.58" y1="817.54" x2="1046.58" y2="747.11" fill="none" stroke="#000" stroke-linejoin="bevel" stroke-width="2.48"/><line x1="1111.69" y1="829.94" x2="1111.69" y2="753.31" fill="none" stroke="#000" stroke-linejoin="bevel" stroke-width="2.48"/><line x1="1176.81" y1="829.94" x2="1176.81" y2="753.31" fill="none" stroke="#000" stroke-linejoin="bevel" stroke-width="2.48"/><line x1="1241.93" y1="829.94" x2="1241.93" y2="753.31" fill="none" stroke="#000" stroke-linejoin="bevel" stroke-width="2.48"/><line x1="1307.04" y1="829.94" x2="1307.04" y2="753.31" fill="none" stroke="#000" stroke-linejoin="bevel" stroke-width="2.48"/><line x1="1413.18" y1="817.54" x2="1413.18" y2="747.11" fill="none" stroke="#000" stroke-linejoin="bevel" stroke-width="2.48"/><line x1="1478.29" y1="817.54" x2="1478.29" y2="747.11" fill="none" stroke="#000" stroke-linejoin="bevel" stroke-width="2.48"/><line x1="1543.41" y1="817.54" x2="1543.41" y2="747.11" fill="none" stroke="#000" stroke-linejoin="bevel" stroke-width="2.48"/><line x1="1608.53" y1="817.54" x2="1608.53" y2="747.11" fill="none" stroke="#000" stroke-linejoin="bevel" stroke-width="2.48"/><line x1="1673.64" y1="792.74" x2="1673.64" y2="722.31" fill="none" stroke="#000" stroke-linejoin="bevel" stroke-width="2.48"/><line x1="1738.76" y1="792.74" x2="1738.76" y2="722.31" fill="none" stroke="#000" stroke-linejoin="bevel" stroke-width="2.48"/><line x1="1803.87" y1="792.74" x2="1803.87" y2="722.31" fill="none" stroke="#000" stroke-linejoin="bevel" stroke-width="2.48"/><line x1="1868.99" y1="792.74" x2="1868.99" y2="722.31" fill="none" stroke="#000" stroke-linejoin="bevel" stroke-width="2.48"/><line x1="1934.11" y1="805.14" x2="1934.11" y2="728.51" fill="none" stroke="#000" stroke-linejoin="bevel" stroke-width="2.48"/><line x1="1999.22" y1="805.14" x2="1999.22" y2="728.51" fill="none" stroke="#000" stroke-linejoin="bevel" stroke-width="2.48"/><line x1="2064.34" y1="805.14" x2="2064.34" y2="728.51" fill="none" stroke="#000" stroke-linejoin="bevel" stroke-width="2.48"/><line x1="2129.45" y1="805.14" x2="2129.45" y2="728.51" fill="none" stroke="#000" stroke-linejoin="bevel" stroke-width="2.48"/><line x1="2194.57" y1="817.54" x2="2194.57" y2="747.11" fill="none" stroke="#000" stroke-linejoin="bevel" stroke-width="2.48"/><line x1="2259.69" y1="817.54" x2="2259.69" y2="747.11" fill="none" stroke="#000" stroke-linejoin="bevel" stroke-width="2.48"/><line x1="2324.8" y1="817.54" x2="2324.8" y2="747.11" fill="none" stroke="#000" stroke-linejoin="bevel" stroke-width="2.48"/><line x1="2389.92" y1="817.54" x2="2389.92" y2="747.11" fill="none" stroke="#000" stroke-linejoin="bevel" stroke-width="2.48"/><path d="M497.51,139.28c0,4.26,3.07,9.02,11.11,9.02,10.31,0,21.13-8.43,21.13-17.16,0-5.86-4.96-9.13-11.11-9.13-9.63,0-21.13,8.14-21.13,17.27"/><path d="M429.54,838.08c0,4.26,3.07,9.02,11.11,9.02,10.31,0,21.13-8.43,21.13-17.16,0-5.86-4.96-9.13-11.11-9.13-9.63,0-21.13,8.14-21.13,17.27"/><path d="M1891.93,139.28c0,4.26,3.07,9.02,11.11,9.02,10.31,0,21.13-8.43,21.13-17.16,0-5.86-4.96-9.13-11.11-9.13-9.63,0-21.13,8.14-21.13,17.27"/><path d="M494.66,838.08c0,4.26,3.07,9.02,11.11,9.02,10.31,0,21.13-8.43,21.13-17.16,0-5.86-4.96-9.13-11.11-9.13-9.63,0-21.13,8.14-21.13,17.27"/><path d="M559.78,813.28c0,4.26,3.07,9.02,11.11,9.02,10.31,0,21.13-8.43,21.13-17.16,0-5.86-4.96-9.13-11.11-9.13-9.63,0-21.13,8.14-21.13,17.27"/><path d="M624.89,813.28c0,4.26,3.07,9.02,11.11,9.02,10.31,0,21.13-8.43,21.13-17.16,0-5.86-4.96-9.13-11.11-9.13-9.63,0-21.13,8.14-21.13,17.27"/><path d="M690.01,813.28c0,4.26,3.07,9.02,11.11,9.02,10.31,0,21.13-8.43,21.13-17.16,0-5.86-4.96-9.13-11.11-9.13-9.63,0-21.13,8.14-21.13,17.27"/><path d="M1998.06,126.88c0,4.26,3.07,9.02,11.11,9.02,10.31,0,21.13-8.43,21.13-17.16,0-5.86-4.96-9.13-11.11-9.13-9.63,0-21.13,8.14-21.13,17.27"/><path d="M755.13,813.28c0,4.26,3.07,9.02,11.11,9.02,10.31,0,21.13-8.43,21.13-17.16,0-5.86-4.96-9.13-11.11-9.13-9.63,0-21.13,8.14-21.13,17.27"/><path d="M820.24,825.68c0,4.26,3.07,9.02,11.11,9.02,10.31,0,21.13-8.43,21.13-17.16,0-5.86-4.96-9.13-11.11-9.13-9.63,0-21.13,8.14-21.13,17.27"/><path d="M885.35,825.68c0,4.26,3.07,9.02,11.11,9.02,10.31,0,21.13-8.43,21.13-17.16,0-5.86-4.96-9.13-11.11-9.13-9.63,0-21.13,8.14-21.13,17.27"/><path d="M2047.61,126.88c0,4.26,3.07,9.02,11.11,9.02,10.31,0,21.13-8.43,21.13-17.16,0-5.86-4.96-9.13-11.11-9.13-9.63,0-21.13,8.14-21.13,17.27"/><path d="M950.47,825.68c0,4.26,3.07,9.02,11.11,9.02,10.31,0,21.13-8.43,21.13-17.16,0-5.86-4.96-9.13-11.11-9.13-9.63,0-21.13,8.14-21.13,17.27"/><path d="M1015.59,825.68c0,4.26,3.07,9.02,11.11,9.02,10.31,0,21.13-8.43,21.13-17.16,0-5.86-4.96-9.13-11.11-9.13-9.63,0-21.13,8.14-21.13,17.27"/><path d="M2097.16,126.88c0,4.26,3.07,9.02,11.11,9.02,10.31,0,21.13-8.43,21.13-17.16,0-5.86-4.96-9.13-11.11-9.13-9.63,0-21.13,8.14-21.13,17.27"/><path d="M1080.7,838.08c0,4.26,3.07,9.02,11.11,9.02,10.31,0,21.13-8.43,21.13-17.16,0-5.86-4.96-9.13-11.11-9.13-9.63,0-21.13,8.14-21.13,17.27"/><path d="M547.06,139.28c0,4.26,3.07,9.02,11.11,9.02,10.31,0,21.13-8.43,21.13-17.16,0-5.86-4.96-9.13-11.11-9.13-9.63,0-21.13,8.14-21.13,17.27"/><path d="M1145.82,838.08c0,4.26,3.07,9.02,11.11,9.02,10.31,0,21.13-8.43,21.13-17.16,0-5.86-4.96-9.13-11.11-9.13-9.63,0-21.13,8.14-21.13,17.27"/><path d="M2146.71,126.88c0,4.26,3.07,9.02,11.11,9.02,10.31,0,21.13-8.43,21.13-17.16,0-5.86-4.96-9.13-11.11-9.13-9.63,0-21.13,8.14-21.13,17.27"/><path d="M1973.55,507.28c0,4.26,3.07,9.02,11.11,9.02,10.31,0,21.13-8.43,21.13-17.16,0-5.86-4.96-9.13-11.11-9.13-9.63,0-21.13,8.14-21.13,17.27"/><path d="M1210.93,838.08c0,4.26,3.07,9.02,11.11,9.02,10.31,0,21.13-8.43,21.13-17.16,0-5.86-4.96-9.13-11.11-9.13-9.63,0-21.13,8.14-21.13,17.27"/><path d="M1276.05,838.08c0,4.26,3.07,9.02,11.11,9.02,10.31,0,21.13-8.43,21.13-17.16,0-5.86-4.96-9.13-11.11-9.13-9.63,0-21.13,8.14-21.13,17.27"/><path d="M2196.26,114.48c0,4.26,3.07,9.02,11.11,9.02,10.31,0,21.13-8.43,21.13-17.16,0-5.86-4.96-9.13-11.11-9.13-9.63,0-21.13,8.14-21.13,17.27"/><path d="M1382.19,825.68c0,4.26,3.07,9.02,11.11,9.02,10.31,0,21.13-8.43,21.13-17.16,0-5.86-4.96-9.13-11.11-9.13-9.63,0-21.13,8.14-21.13,17.27"/><path d="M1447.3,825.68c0,4.26,3.07,9.02,11.11,9.02,10.31,0,21.13-8.43,21.13-17.16,0-5.86-4.96-9.13-11.11-9.13-9.63,0-21.13,8.14-21.13,17.27"/><path d="M1512.42,825.68c0,4.26,3.07,9.02,11.11,9.02,10.31,0,21.13-8.43,21.13-17.16,0-5.86-4.96-9.13-11.11-9.13-9.63,0-21.13,8.14-21.13,17.27"/><path d="M2245.81,114.48c0,4.26,3.07,9.02,11.11,9.02,10.31,0,21.13-8.43,21.13-17.16,0-5.86-4.96-9.13-11.11-9.13-9.63,0-21.13,8.14-21.13,17.27"/><path d="M1577.53,825.68c0,4.26,3.07,9.02,11.11,9.02,10.31,0,21.13-8.43,21.13-17.16,0-5.86-4.96-9.13-11.11-9.13-9.63,0-21.13,8.14-21.13,17.27"/><path d="M1642.65,800.88c0,4.26,3.07,9.02,11.11,9.02,10.31,0,21.13-8.43,21.13-17.16,0-5.86-4.96-9.13-11.11-9.13-9.63,0-21.13,8.14-21.13,17.27"/><path d="M2295.36,114.48c0,4.26,3.07,9.02,11.11,9.02,10.31,0,21.13-8.43,21.13-17.16,0-5.86-4.96-9.13-11.11-9.13-9.63,0-21.13,8.14-21.13,17.27"/><path d="M1707.77,800.88c0,4.26,3.07,9.02,11.11,9.02,10.31,0,21.13-8.43,21.13-17.16,0-5.86-4.96-9.13-11.11-9.13-9.63,0-21.13,8.14-21.13,17.27"/><path d="M1772.88,800.88c0,4.26,3.07,9.02,11.11,9.02,10.31,0,21.13-8.43,21.13-17.16,0-5.86-4.96-9.13-11.11-9.13-9.63,0-21.13,8.14-21.13,17.27"/><path d="M2344.91,114.48c0,4.26,3.07,9.02,11.11,9.02,10.31,0,21.13-8.43,21.13-17.16,0-5.86-4.96-9.13-11.11-9.13-9.63,0-21.13,8.14-21.13,17.27"/><path d="M1838,800.88c0,4.26,3.07,9.02,11.11,9.02,10.31,0,21.13-8.43,21.13-17.16,0-5.86-4.96-9.13-11.11-9.13-9.63,0-21.13,8.14-21.13,17.27"/><path d="M1903.11,813.28c0,4.26,3.07,9.02,11.11,9.02,10.31,0,21.13-8.43,21.13-17.16,0-5.86-4.96-9.13-11.11-9.13-9.63,0-21.13,8.14-21.13,17.27"/><path d="M2394.46,102.08c0,4.26,3.07,9.02,11.11,9.02,10.31,0,21.13-8.43,21.13-17.16,0-5.86-4.96-9.13-11.11-9.13-9.63,0-21.13,8.14-21.13,17.27"/><path d="M1968.23,813.28c0,4.26,3.07,9.02,11.11,9.02,10.31,0,21.13-8.43,21.13-17.16,0-5.86-4.96-9.13-11.11-9.13-9.63,0-21.13,8.14-21.13,17.27"/><path d="M2033.35,813.28c0,4.26,3.07,9.02,11.11,9.02,10.31,0,21.13-8.43,21.13-17.16,0-5.86-4.96-9.13-11.11-9.13-9.63,0-21.13,8.14-21.13,17.27"/><path d="M2543.1,102.08c0,4.26,3.07,9.02,11.11,9.02,10.31,0,21.13-8.43,21.13-17.16,0-5.86-4.96-9.13-11.11-9.13-9.63,0-21.13,8.14-21.13,17.27"/><path d="M695.71,126.88c0,4.26,3.07,9.02,11.11,9.02,10.31,0,21.13-8.43,21.13-17.16,0-5.86-4.96-9.13-11.11-9.13-9.63,0-21.13,8.14-21.13,17.27"/><path d="M2592.65,126.88c0,4.26,3.07,9.02,11.11,9.02,10.31,0,21.13-8.43,21.13-17.16,0-5.86-4.96-9.13-11.11-9.13-9.63,0-21.13,8.14-21.13,17.27"/><path d="M646.16,139.28c0,4.26,3.07,9.02,11.11,9.02,10.31,0,21.13-8.43,21.13-17.16,0-5.86-4.96-9.13-11.11-9.13-9.63,0-21.13,8.14-21.13,17.27"/><path d="M2098.46,813.28c0,4.26,3.07,9.02,11.11,9.02,10.31,0,21.13-8.43,21.13-17.16,0-5.86-4.96-9.13-11.11-9.13-9.63,0-21.13,8.14-21.13,17.27"/><path d="M2642.2,126.88c0,4.26,3.07,9.02,11.11,9.02,10.31,0,21.13-8.43,21.13-17.16,0-5.86-4.96-9.13-11.11-9.13-9.63,0-21.13,8.14-21.13,17.27"/><path d="M2444.01,102.08c0,4.26,3.07,9.02,11.11,9.02,10.31,0,21.13-8.43,21.13-17.16,0-5.86-4.96-9.13-11.11-9.13-9.63,0-21.13,8.14-21.13,17.27"/><path d="M2691.75,126.88c0,4.26,3.07,9.02,11.11,9.02,10.31,0,21.13-8.43,21.13-17.16,0-5.86-4.96-9.13-11.11-9.13-9.63,0-21.13,8.14-21.13,17.27"/><path d="M2163.58,825.68c0,4.26,3.07,9.02,11.11,9.02,10.31,0,21.13-8.43,21.13-17.16,0-5.86-4.96-9.13-11.11-9.13-9.63,0-21.13,8.14-21.13,17.27"/><path d="M2741.3,126.88c0,4.26,3.07,9.02,11.11,9.02,10.31,0,21.13-8.43,21.13-17.16,0-5.86-4.96-9.13-11.11-9.13-9.63,0-21.13,8.14-21.13,17.27"/><path d="M2228.69,825.68c0,4.26,3.07,9.02,11.11,9.02,10.31,0,21.13-8.43,21.13-17.16,0-5.86-4.96-9.13-11.11-9.13-9.63,0-21.13,8.14-21.13,17.27"/><path d="M2493.56,102.08c0,4.26,3.07,9.02,11.11,9.02,10.31,0,21.13-8.43,21.13-17.16,0-5.86-4.96-9.13-11.11-9.13-9.63,0-21.13,8.14-21.13,17.27"/><path d="M2293.81,825.68c0,4.26,3.07,9.02,11.11,9.02,10.31,0,21.13-8.43,21.13-17.16,0-5.86-4.96-9.13-11.11-9.13-9.63,0-21.13,8.14-21.13,17.27"/><path d="M745.26,126.88c0,4.26,3.07,9.02,11.11,9.02,10.31,0,21.13-8.43,21.13-17.16,0-5.86-4.96-9.13-11.11-9.13-9.63,0-21.13,8.14-21.13,17.27"/><path d="M299.31,494.88c0,4.26,3.07,9.02,11.11,9.02,10.31,0,21.13-8.43,21.13-17.16,0-5.86-4.96-9.13-11.11-9.13-9.63,0-21.13,8.14-21.13,17.27"/><path d="M2358.93,825.68c0,4.26,3.07,9.02,11.11,9.02,10.31,0,21.13-8.43,21.13-17.16,0-5.86-4.96-9.13-11.11-9.13-9.63,0-21.13,8.14-21.13,17.27"/><path d="M348.05,494.88c0,4.26,3.07,9.02,11.11,9.02,10.31,0,21.13-8.43,21.13-17.16,0-5.86-4.96-9.13-11.11-9.13-9.63,0-21.13,8.14-21.13,17.27"/><path d="M794.8,126.88c0,4.26,3.07,9.02,11.11,9.02,10.31,0,21.13-8.43,21.13-17.16,0-5.86-4.96-9.13-11.11-9.13-9.63,0-21.13,8.14-21.13,17.27"/><path d="M396.78,494.88c0,4.26,3.07,9.02,11.11,9.02,10.31,0,21.13-8.43,21.13-17.16,0-5.86-4.96-9.13-11.11-9.13-9.63,0-21.13,8.14-21.13,17.27"/><path d="M445.51,494.88c0,4.26,3.07,9.02,11.11,9.02,10.31,0,21.13-8.43,21.13-17.16,0-5.86-4.96-9.13-11.11-9.13-9.63,0-21.13,8.14-21.13,17.27"/><path d="M844.35,126.88c0,4.26,3.07,9.02,11.11,9.02,10.31,0,21.13-8.43,21.13-17.16,0-5.86-4.96-9.13-11.11-9.13-9.63,0-21.13,8.14-21.13,17.27"/><path d="M494.24,482.48c0,4.26,3.07,9.02,11.11,9.02,10.31,0,21.13-8.43,21.13-17.16,0-5.86-4.96-9.13-11.11-9.13-9.63,0-21.13,8.14-21.13,17.27"/><path d="M542.97,482.48c0,4.26,3.07,9.02,11.11,9.02,10.31,0,21.13-8.43,21.13-17.16,0-5.86-4.96-9.13-11.11-9.13-9.63,0-21.13,8.14-21.13,17.27"/><path d="M893.9,151.68c0,4.26,3.07,9.02,11.11,9.02,10.31,0,21.13-8.43,21.13-17.16,0-5.86-4.96-9.13-11.11-9.13-9.63,0-21.13,8.14-21.13,17.27"/><path d="M591.71,482.48c0,4.26,3.07,9.02,11.11,9.02,10.31,0,21.13-8.43,21.13-17.16,0-5.86-4.96-9.13-11.11-9.13-9.63,0-21.13,8.14-21.13,17.27"/><path d="M2483.62,820.43c-13.69,0-18.55,6.94-18.55,13.39s4.87,13.39,18.55,13.39,18.45-6.94,18.45-13.39-4.76-13.39-18.45-13.39m.79,23.61c-2.77,0-4.67-.79-5.95-3.27s-3.07-8.93-3.18-11.52c-.2-2.68,.79-4.26,3.18-5.05,1.19-.4,2.77-.6,4.37-.6,2.67,0,4.46,.6,5.84,3.29,1.39,2.57,3.29,9.02,3.29,11.5,0,4.87-3.58,5.66-7.55,5.66"/><path d="M640.44,482.48c0,4.26,3.07,9.02,11.11,9.02,10.31,0,21.13-8.43,21.13-17.16,0-5.86-4.96-9.13-11.11-9.13-9.63,0-21.13,8.14-21.13,17.27"/><path d="M689.17,470.08c0,4.26,3.07,9.02,11.11,9.02,10.31,0,21.13-8.43,21.13-17.16,0-5.86-4.96-9.13-11.11-9.13-9.63,0-21.13,8.14-21.13,17.27"/><path d="M943.45,151.68c0,4.26,3.07,9.02,11.11,9.02,10.31,0,21.13-8.43,21.13-17.16,0-5.86-4.96-9.13-11.11-9.13-9.63,0-21.13,8.14-21.13,17.27"/><path d="M737.9,470.08c0,4.26,3.07,9.02,11.11,9.02,10.31,0,21.13-8.43,21.13-17.16,0-5.86-4.96-9.13-11.11-9.13-9.63,0-21.13,8.14-21.13,17.27"/><path d="M786.63,470.08c0,4.26,3.07,9.02,11.11,9.02,10.31,0,21.13-8.43,21.13-17.16,0-5.86-4.96-9.13-11.11-9.13-9.63,0-21.13,8.14-21.13,17.27"/><path d="M993,151.68c0,4.26,3.07,9.02,11.11,9.02,10.31,0,21.13-8.43,21.13-17.16,0-5.86-4.96-9.13-11.11-9.13-9.63,0-21.13,8.14-21.13,17.27"/><path d="M835.36,470.08c0,4.26,3.07,9.02,11.11,9.02,10.31,0,21.13-8.43,21.13-17.16,0-5.86-4.96-9.13-11.11-9.13-9.63,0-21.13,8.14-21.13,17.27"/><path d="M884.1,494.88c0,4.26,3.07,9.02,11.11,9.02,10.31,0,21.13-8.43,21.13-17.16,0-5.86-4.96-9.13-11.11-9.13-9.63,0-21.13,8.14-21.13,17.27"/><path d="M1042.55,151.68c0,4.26,3.07,9.02,11.11,9.02,10.31,0,21.13-8.43,21.13-17.16,0-5.86-4.96-9.13-11.11-9.13-9.63,0-21.13,8.14-21.13,17.27"/><path d="M932.83,494.88c0,4.26,3.07,9.02,11.11,9.02,10.31,0,21.13-8.43,21.13-17.16,0-5.86-4.96-9.13-11.11-9.13-9.63,0-21.13,8.14-21.13,17.27"/><path d="M596.61,139.28c0,4.26,3.07,9.02,11.11,9.02,10.31,0,21.13-8.43,21.13-17.16,0-5.86-4.96-9.13-11.11-9.13-9.63,0-21.13,8.14-21.13,17.27"/><path d="M981.56,494.88c0,4.26,3.07,9.02,11.11,9.02,10.31,0,21.13-8.43,21.13-17.16,0-5.86-4.96-9.13-11.11-9.13-9.63,0-21.13,8.14-21.13,17.27"/><path d="M1030.29,494.88c0,4.26,3.07,9.02,11.11,9.02,10.31,0,21.13-8.43,21.13-17.16,0-5.86-4.96-9.13-11.11-9.13-9.63,0-21.13,8.14-21.13,17.27"/><path d="M1136.43,482.48c0,4.26,3.07,9.02,11.11,9.02,10.31,0,21.13-8.43,21.13-17.16,0-5.86-4.96-9.13-11.11-9.13-9.63,0-21.13,8.14-21.13,17.27"/><path d="M1148.69,139.28c0,4.26,3.07,9.02,11.11,9.02,10.31,0,21.13-8.43,21.13-17.16,0-5.86-4.96-9.13-11.11-9.13-9.63,0-21.13,8.14-21.13,17.27"/><path d="M1185.16,482.48c0,4.26,3.07,9.02,11.11,9.02,10.31,0,21.13-8.43,21.13-17.16,0-5.86-4.96-9.13-11.11-9.13-9.63,0-21.13,8.14-21.13,17.27"/><path d="M1233.89,482.48c0,4.26,3.07,9.02,11.11,9.02,10.31,0,21.13-8.43,21.13-17.16,0-5.86-4.96-9.13-11.11-9.13-9.63,0-21.13,8.14-21.13,17.27"/><path d="M299.31,151.68c0,4.26,3.07,9.02,11.11,9.02,10.31,0,21.13-8.43,21.13-17.16,0-5.86-4.96-9.13-11.11-9.13-9.63,0-21.13,8.14-21.13,17.27"/><path d="M1282.63,482.48c0,4.26,3.07,9.02,11.11,9.02,10.31,0,21.13-8.43,21.13-17.16,0-5.86-4.96-9.13-11.11-9.13-9.63,0-21.13,8.14-21.13,17.27"/><path d="M1198.24,139.28c0,4.26,3.07,9.02,11.11,9.02,10.31,0,21.13-8.43,21.13-17.16,0-5.86-4.96-9.13-11.11-9.13-9.63,0-21.13,8.14-21.13,17.27"/><path d="M1331.36,470.08c0,4.26,3.07,9.02,11.11,9.02,10.31,0,21.13-8.43,21.13-17.16,0-5.86-4.96-9.13-11.11-9.13-9.63,0-21.13,8.14-21.13,17.27"/><path d="M1380.09,470.08c0,4.26,3.07,9.02,11.11,9.02,10.31,0,21.13-8.43,21.13-17.16,0-5.86-4.96-9.13-11.11-9.13-9.63,0-21.13,8.14-21.13,17.27"/><path d="M1247.79,139.28c0,4.26,3.07,9.02,11.11,9.02,10.31,0,21.13-8.43,21.13-17.16,0-5.86-4.96-9.13-11.11-9.13-9.63,0-21.13,8.14-21.13,17.27"/><path d="M1428.82,470.08c0,4.26,3.07,9.02,11.11,9.02,10.31,0,21.13-8.43,21.13-17.16,0-5.86-4.96-9.13-11.11-9.13-9.63,0-21.13,8.14-21.13,17.27"/><path d="M1477.55,470.08c0,4.26,3.07,9.02,11.11,9.02,10.31,0,21.13-8.43,21.13-17.16,0-5.86-4.96-9.13-11.11-9.13-9.63,0-21.13,8.14-21.13,17.27"/><path d="M1297.33,139.28c0,4.26,3.07,9.02,11.11,9.02,10.31,0,21.13-8.43,21.13-17.16,0-5.86-4.96-9.13-11.11-9.13-9.63,0-21.13,8.14-21.13,17.27"/><path d="M1526.29,457.68c0,4.26,3.07,9.02,11.11,9.02,10.31,0,21.13-8.43,21.13-17.16,0-5.86-4.96-9.13-11.11-9.13-9.63,0-21.13,8.14-21.13,17.27"/><path d="M1575.02,457.68c0,4.26,3.07,9.02,11.11,9.02,10.31,0,21.13-8.43,21.13-17.16,0-5.86-4.96-9.13-11.11-9.13-9.63,0-21.13,8.14-21.13,17.27"/><path d="M1346.88,126.88c0,4.26,3.07,9.02,11.11,9.02,10.31,0,21.13-8.43,21.13-17.16,0-5.86-4.96-9.13-11.11-9.13-9.63,0-21.13,8.14-21.13,17.27"/><path d="M1623.75,457.68c0,4.26,3.07,9.02,11.11,9.02,10.31,0,21.13-8.43,21.13-17.16,0-5.86-4.96-9.13-11.11-9.13-9.63,0-21.13,8.14-21.13,17.27"/><path d="M1672.48,457.68c0,4.26,3.07,9.02,11.11,9.02,10.31,0,21.13-8.43,21.13-17.16,0-5.86-4.96-9.13-11.11-9.13-9.63,0-21.13,8.14-21.13,17.27"/><path d="M348.86,151.68c0,4.26,3.07,9.02,11.11,9.02,10.31,0,21.13-8.43,21.13-17.16,0-5.86-4.96-9.13-11.11-9.13-9.63,0-21.13,8.14-21.13,17.27"/><path d="M1721.21,482.48c0,4.26,3.07,9.02,11.11,9.02,10.31,0,21.13-8.43,21.13-17.16,0-5.86-4.96-9.13-11.11-9.13-9.63,0-21.13,8.14-21.13,17.27"/><path d="M1396.43,126.88c0,4.26,3.07,9.02,11.11,9.02,10.31,0,21.13-8.43,21.13-17.16,0-5.86-4.96-9.13-11.11-9.13-9.63,0-21.13,8.14-21.13,17.27"/><path d="M1769.95,482.48c0,4.26,3.07,9.02,11.11,9.02,10.31,0,21.13-8.43,21.13-17.16,0-5.86-4.96-9.13-11.11-9.13-9.63,0-21.13,8.14-21.13,17.27"/><path d="M1818.68,482.48c0,4.26,3.07,9.02,11.11,9.02,10.31,0,21.13-8.43,21.13-17.16,0-5.86-4.96-9.13-11.11-9.13-9.63,0-21.13,8.14-21.13,17.27"/><path d="M1445.98,126.88c0,4.26,3.07,9.02,11.11,9.02,10.31,0,21.13-8.43,21.13-17.16,0-5.86-4.96-9.13-11.11-9.13-9.63,0-21.13,8.14-21.13,17.27"/><path d="M1867.41,482.48c0,4.26,3.07,9.02,11.11,9.02,10.31,0,21.13-8.43,21.13-17.16,0-5.86-4.96-9.13-11.11-9.13-9.63,0-21.13,8.14-21.13,17.27"/><path d="M1495.53,126.88c0,4.26,3.07,9.02,11.11,9.02,10.31,0,21.13-8.43,21.13-17.16,0-5.86-4.96-9.13-11.11-9.13-9.63,0-21.13,8.14-21.13,17.27"/><path d="M2028.35,507.28c0,4.26,3.07,9.02,11.11,9.02,10.31,0,21.13-8.43,21.13-17.16,0-5.86-4.96-9.13-11.11-9.13-9.63,0-21.13,8.14-21.13,17.27"/><path d="M398.41,151.68c0,4.26,3.07,9.02,11.11,9.02,10.31,0,21.13-8.43,21.13-17.16,0-5.86-4.96-9.13-11.11-9.13-9.63,0-21.13,8.14-21.13,17.27"/><path d="M2083.15,507.28c0,4.26,3.07,9.02,11.11,9.02,10.31,0,21.13-8.43,21.13-17.16,0-5.86-4.96-9.13-11.11-9.13-9.63,0-21.13,8.14-21.13,17.27"/><path d="M1545.08,114.48c0,4.26,3.07,9.02,11.11,9.02,10.31,0,21.13-8.43,21.13-17.16,0-5.86-4.96-9.13-11.11-9.13-9.63,0-21.13,8.14-21.13,17.27"/><path d="M2137.95,507.28c0,4.26,3.07,9.02,11.11,9.02,10.31,0,21.13-8.43,21.13-17.16,0-5.86-4.96-9.13-11.11-9.13-9.63,0-21.13,8.14-21.13,17.27"/><path d="M2187.04,494.88c0,4.26,3.07,9.02,11.11,9.02,10.31,0,21.13-8.43,21.13-17.16,0-5.86-4.96-9.13-11.11-9.13-9.63,0-21.13,8.14-21.13,17.27"/><path d="M2235.78,494.88c0,4.26,3.07,9.02,11.11,9.02,10.31,0,21.13-8.43,21.13-17.16,0-5.86-4.96-9.13-11.11-9.13-9.63,0-21.13,8.14-21.13,17.27"/><path d="M1594.63,114.48c0,4.26,3.07,9.02,11.11,9.02,10.31,0,21.13-8.43,21.13-17.16,0-5.86-4.96-9.13-11.11-9.13-9.63,0-21.13,8.14-21.13,17.27"/><path d="M2284.51,494.88c0,4.26,3.07,9.02,11.11,9.02,10.31,0,21.13-8.43,21.13-17.16,0-5.86-4.96-9.13-11.11-9.13-9.63,0-21.13,8.14-21.13,17.27"/><path d="M2333.24,494.88c0,4.26,3.07,9.02,11.11,9.02,10.31,0,21.13-8.43,21.13-17.16,0-5.86-4.96-9.13-11.11-9.13-9.63,0-21.13,8.14-21.13,17.27"/><path d="M1644.18,114.48c0,4.26,3.07,9.02,11.11,9.02,10.31,0,21.13-8.43,21.13-17.16,0-5.86-4.96-9.13-11.11-9.13-9.63,0-21.13,8.14-21.13,17.27"/><path d="M2381.97,482.48c0,4.26,3.07,9.02,11.11,9.02,10.31,0,21.13-8.43,21.13-17.16,0-5.86-4.96-9.13-11.11-9.13-9.63,0-21.13,8.14-21.13,17.27"/><path d="M2430.7,482.48c0,4.26,3.07,9.02,11.11,9.02,10.31,0,21.13-8.43,21.13-17.16,0-5.86-4.96-9.13-11.11-9.13-9.63,0-21.13,8.14-21.13,17.27"/><path d="M1693.73,114.48c0,4.26,3.07,9.02,11.11,9.02,10.31,0,21.13-8.43,21.13-17.16,0-5.86-4.96-9.13-11.11-9.13-9.63,0-21.13,8.14-21.13,17.27"/><path d="M2479.44,482.48c0,4.26,3.07,9.02,11.11,9.02,10.31,0,21.13-8.43,21.13-17.16,0-5.86-4.96-9.13-11.11-9.13-9.63,0-21.13,8.14-21.13,17.27"/><path d="M447.96,151.68c0,4.26,3.07,9.02,11.11,9.02,10.31,0,21.13-8.43,21.13-17.16,0-5.86-4.96-9.13-11.11-9.13-9.63,0-21.13,8.14-21.13,17.27"/><path d="M2528.17,482.48c0,4.26,3.07,9.02,11.11,9.02,10.31,0,21.13-8.43,21.13-17.16,0-5.86-4.96-9.13-11.11-9.13-9.63,0-21.13,8.14-21.13,17.27"/><path d="M1743.28,139.28c0,4.26,3.07,9.02,11.11,9.02,10.31,0,21.13-8.43,21.13-17.16,0-5.86-4.96-9.13-11.11-9.13-9.63,0-21.13,8.14-21.13,17.27"/><path d="M2576.9,507.28c0,4.26,3.07,9.02,11.11,9.02,10.31,0,21.13-8.43,21.13-17.16,0-5.86-4.96-9.13-11.11-9.13-9.63,0-21.13,8.14-21.13,17.27"/><path d="M2631.7,507.28c0,4.26,3.07,9.02,11.11,9.02,10.31,0,21.13-8.43,21.13-17.16,0-5.86-4.96-9.13-11.11-9.13-9.63,0-21.13,8.14-21.13,17.27"/><path d="M2686.5,507.28c0,4.26,3.07,9.02,11.11,9.02,10.31,0,21.13-8.43,21.13-17.16,0-5.86-4.96-9.13-11.11-9.13-9.63,0-21.13,8.14-21.13,17.27"/><path d="M1792.83,139.28c0,4.26,3.07,9.02,11.11,9.02,10.31,0,21.13-8.43,21.13-17.16,0-5.86-4.96-9.13-11.11-9.13-9.63,0-21.13,8.14-21.13,17.27"/><path d="M2741.3,507.28c0,4.26,3.07,9.02,11.11,9.02,10.31,0,21.13-8.43,21.13-17.16,0-5.86-4.96-9.13-11.11-9.13-9.63,0-21.13,8.14-21.13,17.27"/><path d="M299.31,838.08c0,4.26,3.07,9.02,11.11,9.02,10.31,0,21.13-8.43,21.13-17.16,0-5.86-4.96-9.13-11.11-9.13-9.63,0-21.13,8.14-21.13,17.27"/><path d="M1842.38,139.28c0,4.26,3.07,9.02,11.11,9.02,10.31,0,21.13-8.43,21.13-17.16,0-5.86-4.96-9.13-11.11-9.13-9.63,0-21.13,8.14-21.13,17.27"/><path d="M364.43,838.08c0,4.26,3.07,9.02,11.11,9.02,10.31,0,21.13-8.43,21.13-17.16,0-5.86-4.96-9.13-11.11-9.13-9.63,0-21.13,8.14-21.13,17.27"/><path d="M30.8,161.2c0,6.56,4.96,15.19,18.35,15.19,4.67,0,8.74-1.19,12.31-3.38,5.36-3.77,6.74-10.32,6.74-16.57,0-3.86-.59-8.32-1.58-13.98-.29-1.98-.9-4.96-1.49-8.84,9.72-3.18,16.96-13.3,16.96-23.51,0-14.97-10.62-25.09-25.09-25.09-.99-5.95-1.98-11.81-2.77-17.36,10.42-11.02,17.65-23.42,17.65-39.18,0-9.04-2.77-16.37-4.37-19.95-2.37-5.05-5.25-8.53-7.04-8.53-.7,0-3.77,1.19-7.04,5.05-6.36,7.55-8.14,20.24-8.14,28.57,0,5.36,.5,10.23,2.19,21.34-.11,.09-5.27,5.35-7.35,7.04-9.04,8.34-21.53,20.43-21.53,40.28,0,18.54,16.17,33.12,34.63,33.12,2.87,0,5.55-.29,7.83-.7,1.89,9.53,3.08,16.48,3.08,21.73,0,10.32-5.36,15.78-15.38,15.78-2.39,0-4.46-.5-4.67-.5-.09-.11-.29-.2-.29-.29,0-.2,.2-.31,.5-.31,4.67-.79,9.32-4.76,9.32-11.1,0-5.36-4.06-11.02-11.5-11.02-6.94,0-11.31,5.66-11.31,12.2M51.54,28.77c.9-3.97,5.46-14.38,10.62-14.38,1.49,0,3.86,4.76,3.86,11.7,0,10.32-7.63,18.06-14.48,24.8-.59-3.97-1.08-7.83-1.08-12,0-3.67,.29-7.05,1.08-10.12m8.73,101.97c-1.98,.4-3.86,.6-5.75,.6-14.18,0-26.29-9.92-26.29-24.91,0-12.09,8.53-22.91,17.27-30.46,1.67-1.49,3.27-2.87,4.76-4.36,.88,5.35,1.58,10.01,2.28,14.09-9.04,2.68-15.17,12.2-15.17,21.53,0,6.94,5.46,16.46,13.39,16.46,.79,0,1.69-.4,1.69-1.29s-.99-1.39-2.19-2.19c-3.88-2.39-6.06-4.96-6.06-9.83,0-6.05,4.57-10.91,10.32-12.29l5.75,32.63m14.09-18.35c0,7.05-2.88,14.29-9.92,17.17-2.08-11.9-4.76-27.68-5.46-32.05,8.93,0,15.38,6.06,15.38,14.88"/><path d="M30.8,504.4c0,6.56,4.96,15.19,18.35,15.19,4.67,0,8.74-1.19,12.31-3.38,5.36-3.77,6.74-10.32,6.74-16.57,0-3.86-.59-8.32-1.58-13.98-.29-1.98-.9-4.96-1.49-8.84,9.72-3.18,16.96-13.3,16.96-23.51,0-14.97-10.62-25.09-25.09-25.09-.99-5.95-1.98-11.81-2.77-17.36,10.42-11.02,17.65-23.42,17.65-39.18,0-9.04-2.77-16.37-4.37-19.95-2.37-5.05-5.25-8.53-7.04-8.53-.7,0-3.77,1.19-7.04,5.05-6.36,7.55-8.14,20.24-8.14,28.57,0,5.36,.5,10.23,2.19,21.34-.11,.09-5.27,5.35-7.35,7.04-9.04,8.34-21.53,20.43-21.53,40.28,0,18.54,16.17,33.12,34.63,33.12,2.87,0,5.55-.29,7.83-.7,1.89,9.53,3.08,16.48,3.08,21.73,0,10.32-5.36,15.78-15.38,15.78-2.39,0-4.46-.5-4.67-.5-.09-.11-.29-.2-.29-.29,0-.2,.2-.31,.5-.31,4.67-.79,9.32-4.76,9.32-11.1,0-5.36-4.06-11.02-11.5-11.02-6.94,0-11.31,5.66-11.31,12.2m20.74-132.43c.9-3.97,5.46-14.38,10.62-14.38,1.49,0,3.86,4.76,3.86,11.7,0,10.32-7.63,18.06-14.48,24.8-.59-3.97-1.08-7.83-1.08-12,0-3.67,.29-7.05,1.08-10.12m8.73,101.97c-1.98,.4-3.86,.6-5.75,.6-14.18,0-26.29-9.92-26.29-24.91,0-12.09,8.53-22.91,17.27-30.46,1.67-1.49,3.27-2.87,4.76-4.36,.88,5.35,1.58,10.01,2.28,14.09-9.04,2.68-15.17,12.2-15.17,21.53,0,6.94,5.46,16.46,13.39,16.46,.79,0,1.69-.4,1.69-1.29s-.99-1.39-2.19-2.19c-3.88-2.39-6.06-4.96-6.06-9.83,0-6.05,4.57-10.91,10.32-12.29l5.75,32.63m14.09-18.35c0,7.05-2.88,14.29-9.92,17.17-2.08-11.9-4.76-27.68-5.46-32.05,8.93,0,15.38,6.06,15.38,14.88"/><path d="M30.8,847.6c0,6.56,4.96,15.19,18.35,15.19,4.67,0,8.74-1.19,12.31-3.38,5.36-3.77,6.74-10.32,6.74-16.57,0-3.86-.59-8.32-1.58-13.98-.29-1.98-.9-4.96-1.49-8.84,9.72-3.18,16.96-13.3,16.96-23.51,0-14.97-10.62-25.09-25.09-25.09-.99-5.95-1.98-11.81-2.77-17.36,10.42-11.02,17.65-23.42,17.65-39.18,0-9.04-2.77-16.37-4.37-19.95-2.37-5.05-5.25-8.53-7.04-8.53-.7,0-3.77,1.19-7.04,5.05-6.36,7.55-8.14,20.24-8.14,28.57,0,5.36,.5,10.23,2.19,21.34-.11,.09-5.27,5.35-7.35,7.04-9.04,8.34-21.53,20.43-21.53,40.28,0,18.54,16.17,33.12,34.63,33.12,2.87,0,5.55-.29,7.83-.7,1.89,9.53,3.08,16.48,3.08,21.73,0,10.32-5.36,15.78-15.38,15.78-2.39,0-4.46-.5-4.67-.5-.09-.11-.29-.2-.29-.29,0-.2,.2-.31,.5-.31,4.67-.79,9.32-4.76,9.32-11.1,0-5.36-4.06-11.02-11.5-11.02-6.94,0-11.31,5.66-11.31,12.2m20.74-132.43c.9-3.97,5.46-14.38,10.62-14.38,1.49,0,3.86,4.76,3.86,11.7,0,10.32-7.63,18.06-14.48,24.8-.59-3.97-1.08-7.83-1.08-12,0-3.67,.29-7.05,1.08-10.12m8.73,101.97c-1.98,.4-3.86,.6-5.75,.6-14.18,0-26.29-9.92-26.29-24.91,0-12.09,8.53-22.91,17.27-30.46,1.67-1.49,3.27-2.87,4.76-4.36,.88,5.35,1.58,10.01,2.28,14.09-9.04,2.68-15.17,12.2-15.17,21.53,0,6.94,5.46,16.46,13.39,16.46,.79,0,1.69-.4,1.69-1.29s-.99-1.39-2.19-2.19c-3.88-2.39-6.06-4.96-6.06-9.83,0-6.05,4.57-10.91,10.32-12.29l5.75,32.63m14.09-18.35c0,7.05-2.88,14.29-9.92,17.17-2.08-11.9-4.76-27.68-5.46-32.05,8.93,0,15.38,6.06,15.38,14.88"/><path d="M118.79,70.14c-4.96,0-7.84,3.07-8.34,3.67l.4-31.85c0-.79-.59-1.38-1.4-1.38h-1.18c-.81,0-1.4,.59-1.4,1.38l.5,59.63c0,.79,.59,1.38,1.4,1.38,.19,0,.59-.09,.79-.19,8.53-4.28,17.45-12.4,17.45-22.63,0-5.15-2.37-10.01-8.23-10.01m-8.63,27.98l.29-19.34c.2-.9,1.69-3.77,5.66-3.77,3.58,0,3.87,3.36,3.87,5.46,0,8.82-3.27,12.49-9.83,17.65"/><path d="M146.36,32.94c-4.96,0-7.84,3.07-8.34,3.67l.4-31.85c0-.79-.59-1.38-1.4-1.38h-1.18c-.81,0-1.4,.59-1.4,1.38l.5,59.63c0,.79,.59,1.38,1.4,1.38,.19,0,.59-.09,.79-.19,8.53-4.28,17.45-12.4,17.45-22.63,0-5.15-2.37-10.01-8.23-10.01m-8.63,27.98l.29-19.34c.2-.9,1.69-3.77,5.66-3.77,3.58,0,3.87,3.36,3.87,5.46,0,8.82-3.27,12.49-9.83,17.65"/><path d="M173.93,82.54c-4.96,0-7.84,3.07-8.34,3.67l.4-31.85c0-.79-.59-1.38-1.4-1.38h-1.18c-.81,0-1.4,.59-1.4,1.38l.5,59.63c0,.79,.59,1.38,1.4,1.38,.19,0,.59-.09,.79-.19,8.53-4.28,17.45-12.4,17.45-22.63,0-5.15-2.37-10.01-8.23-10.01m-8.63,27.98l.29-19.34c.2-.9,1.69-3.77,5.66-3.77,3.58,0,3.87,3.36,3.87,5.46,0,8.82-3.27,12.49-9.83,17.65"/><path d="M201.51,45.34c-4.96,0-7.84,3.07-8.34,3.67l.4-31.85c0-.79-.59-1.38-1.4-1.38h-1.18c-.81,0-1.4,.59-1.4,1.38l.5,59.63c0,.79,.59,1.38,1.4,1.38,.19,0,.59-.09,.79-.19,8.53-4.28,17.45-12.4,17.45-22.63,0-5.15-2.37-10.01-8.23-10.01m-8.63,27.98l.29-19.34c.2-.9,1.69-3.77,5.66-3.77,3.58,0,3.87,3.36,3.87,5.46,0,8.82-3.27,12.49-9.83,17.65"/><path d="M229.08,94.94c-4.96,0-7.84,3.07-8.34,3.67l.4-31.85c0-.79-.59-1.38-1.4-1.38h-1.18c-.81,0-1.4,.59-1.4,1.38l.5,59.63c0,.79,.59,1.38,1.4,1.38,.19,0,.59-.09,.79-.19,8.53-4.28,17.45-12.4,17.45-22.63,0-5.15-2.37-10.01-8.23-10.01m-8.63,27.98l.29-19.34c.2-.9,1.69-3.77,5.66-3.77,3.58,0,3.87,3.36,3.87,5.46,0,8.82-3.27,12.49-9.83,17.65"/><path d="M118.79,756.54c-4.96,0-7.84,3.07-8.34,3.67l.4-31.85c0-.79-.59-1.38-1.4-1.38h-1.18c-.81,0-1.4,.59-1.4,1.38l.5,59.63c0,.79,.59,1.38,1.4,1.38,.19,0,.59-.09,.79-.19,8.53-4.28,17.45-12.4,17.45-22.63,0-5.15-2.37-10.01-8.23-10.01m-8.63,27.98l.29-19.34c.2-.9,1.69-3.77,5.66-3.77,3.58,0,3.87,3.36,3.87,5.46,0,8.82-3.27,12.49-9.83,17.65"/><path d="M146.36,719.34c-4.96,0-7.84,3.07-8.34,3.67l.4-31.85c0-.79-.59-1.38-1.4-1.38h-1.18c-.81,0-1.4,.59-1.4,1.38l.5,59.63c0,.79,.59,1.38,1.4,1.38,.19,0,.59-.09,.79-.19,8.53-4.28,17.45-12.4,17.45-22.63,0-5.15-2.37-10.01-8.23-10.01m-8.63,27.98l.29-19.34c.2-.9,1.69-3.77,5.66-3.77,3.58,0,3.87,3.36,3.87,5.46,0,8.82-3.27,12.49-9.83,17.65"/><path d="M173.93,768.94c-4.96,0-7.84,3.07-8.34,3.67l.4-31.85c0-.79-.59-1.38-1.4-1.38h-1.18c-.81,0-1.4,.59-1.4,1.38l.5,59.63c0,.79,.59,1.38,1.4,1.38,.19,0,.59-.09,.79-.19,8.53-4.28,17.45-12.4,17.45-22.63,0-5.15-2.37-10.01-8.23-10.01m-8.63,27.98l.29-19.34c.2-.9,1.69-3.77,5.66-3.77,3.58,0,3.87,3.36,3.87,5.46,0,8.82-3.27,12.49-9.83,17.65"/><path d="M201.51,731.74c-4.96,0-7.84,3.07-8.34,3.67l.4-31.85c0-.79-.59-1.38-1.4-1.38h-1.18c-.81,0-1.4,.59-1.4,1.38l.5,59.63c0,.79,.59,1.38,1.4,1.38,.19,0,.59-.09,.79-.19,8.53-4.28,17.45-12.4,17.45-22.63,0-5.15-2.37-10.01-8.23-10.01m-8.63,27.98l.29-19.34c.2-.9,1.69-3.77,5.66-3.77,3.58,0,3.87,3.36,3.87,5.46,0,8.82-3.27,12.49-9.83,17.65"/><path d="M229.08,781.34c-4.96,0-7.84,3.07-8.34,3.67l.4-31.85c0-.79-.59-1.38-1.4-1.38h-1.18c-.81,0-1.4,.59-1.4,1.38l.5,59.63c0,.79,.59,1.38,1.4,1.38,.19,0,.59-.09,.79-.19,8.53-4.28,17.45-12.4,17.45-22.63,0-5.15-2.37-10.01-8.23-10.01m-8.63,27.98l.29-19.34c.2-.9,1.69-3.77,5.66-3.77,3.58,0,3.87,3.36,3.87,5.46,0,8.82-3.27,12.49-9.83,17.65"/><path d="M118.79,413.34c-4.96,0-7.84,3.07-8.34,3.67l.4-31.85c0-.79-.59-1.38-1.4-1.38h-1.18c-.81,0-1.4,.59-1.4,1.38l.5,59.63c0,.79,.59,1.38,1.4,1.38,.19,0,.59-.09,.79-.19,8.53-4.28,17.45-12.4,17.45-22.63,0-5.15-2.37-10.01-8.23-10.01m-8.63,27.98l.29-19.34c.2-.9,1.69-3.77,5.66-3.77,3.58,0,3.87,3.36,3.87,5.46,0,8.82-3.27,12.49-9.83,17.65"/><path d="M146.36,376.14c-4.96,0-7.84,3.07-8.34,3.67l.4-31.85c0-.79-.59-1.38-1.4-1.38h-1.18c-.81,0-1.4,.59-1.4,1.38l.5,59.63c0,.79,.59,1.38,1.4,1.38,.19,0,.59-.09,.79-.19,8.53-4.28,17.45-12.4,17.45-22.63,0-5.15-2.37-10.01-8.23-10.01m-8.63,27.98l.29-19.34c.2-.9,1.69-3.77,5.66-3.77,3.58,0,3.87,3.36,3.87,5.46,0,8.82-3.27,12.49-9.83,17.65"/><path d="M173.93,425.74c-4.96,0-7.84,3.07-8.34,3.67l.4-31.85c0-.79-.59-1.38-1.4-1.38h-1.18c-.81,0-1.4,.59-1.4,1.38l.5,59.63c0,.79,.59,1.38,1.4,1.38,.19,0,.59-.09,.79-.19,8.53-4.28,17.45-12.4,17.45-22.63,0-5.15-2.37-10.01-8.23-10.01m-8.63,27.98l.29-19.34c.2-.9,1.69-3.77,5.66-3.77,3.58,0,3.87,3.36,3.87,5.46,0,8.82-3.27,12.49-9.83,17.65"/><path d="M201.51,388.54c-4.96,0-7.84,3.07-8.34,3.67l.4-31.85c0-.79-.59-1.38-1.4-1.38h-1.18c-.81,0-1.4,.59-1.4,1.38l.5,59.63c0,.79,.59,1.38,1.4,1.38,.19,0,.59-.09,.79-.19,8.53-4.28,17.45-12.4,17.45-22.63,0-5.15-2.37-10.01-8.23-10.01m-8.63,27.98l.29-19.34c.2-.9,1.69-3.77,5.66-3.77,3.58,0,3.87,3.36,3.87,5.46,0,8.82-3.27,12.49-9.83,17.65"/><path d="M229.08,438.14c-4.96,0-7.84,3.07-8.34,3.67l.4-31.85c0-.79-.59-1.38-1.4-1.38h-1.18c-.81,0-1.4,.59-1.4,1.38l.5,59.63c0,.79,.59,1.38,1.4,1.38,.19,0,.59-.09,.79-.19,8.53-4.28,17.45-12.4,17.45-22.63,0-5.15-2.37-10.01-8.23-10.01m-8.63,27.98l.29-19.34c.2-.9,1.69-3.77,5.66-3.77,3.58,0,3.87,3.36,3.87,5.46,0,8.82-3.27,12.49-9.83,17.65"/><path d="M2506.29,684.12c-9.32-10.12-17.56-10.71-22.71-10.71s-13.3,.59-22.63,10.71c-4.85,5.36-8.23,15.97-8.23,21.33,0,1.89,.4,3.18,1.4,3.18,2.77,0,1.38-8.54,9.72-16.97,7.33-7.33,17.16-7.44,19.55-7.44h.39c2.39,0,12.21,.11,19.55,7.44,8.34,8.43,6.94,16.97,9.72,16.97,.99,0,1.39-1.19,1.39-3.18,0-5.36-3.27-16.07-8.14-21.33m-29.56,18.94c0,3.78,3.07,6.85,6.85,6.85s6.84-3.07,6.84-6.85-3.07-6.84-6.84-6.84-6.85,3.07-6.85,6.84"/><path d="M408.2,197c-2.03,3.3-2.91,4.2-4.06,4.2-.55,0-.88-.36-.88-.98,0-.46,.19-1.27,.53-2.49l6.23-21-6.97,.53-.14,1.25h1.08c1.44,0,2,.32,2,1.1,0,.34-.11,.8-.31,1.53l-2.31,7.78c-.62-1.83-2-2.84-4.02-2.84-5.05,0-9.73,5.39-9.73,11.2,0,3.44,2.2,5.78,5.48,5.78,2.39,0,4.14-.98,5.67-3.26-.03,.28-.03,.64-.03,.78,0,1.61,.84,2.48,2.38,2.48,2.22,0,4.14-1.72,6.12-5.44l-1.05-.62m-8.75-9.34c1.72,0,2.98,1.32,2.98,3.15,0,3.17-2.25,10.6-6.31,10.6-1.89,0-3.11-1.5-3.11-3.79,0-3.31,2.38-9.96,6.44-9.96m19.7-7.68c-.94,0-1.7,.78-1.7,1.72s.77,1.72,1.7,1.72,1.72-.76,1.72-1.72-.77-1.72-1.72-1.72m7.08,0c-.95,0-1.72,.78-1.72,1.72s.77,1.72,1.72,1.72,1.72-.76,1.72-1.72-.78-1.72-1.72-1.72m2.09,6.63h-3.05l-1.64,5.59c-1.44,4.88-4.66,8.86-7.14,8.86-.84,0-1.5-.67-1.5-1.5,0-.47,.09-1.01,.38-2l3.44-11.48-6.75,.53-.11,1.25h.84c1.42,0,1.95,.33,1.95,1.12,0,.35-.11,.85-.28,1.5l-1.39,4.74q-1.09,3.5-1.09,4.58c0,1.92,1.33,3.21,3.33,3.21,2.45,0,4.44-1.42,6.52-4.65-.36,1.23-.42,1.72-.42,2.39,0,1.36,.94,2.31,2.23,2.31,2.14,0,3.86-1.44,6.34-5.25l-1.06-.64c-1.7,2.56-3.08,3.95-3.84,3.95-.31,0-.62-.37-.62-.82,0-.39,.14-1.07,.41-2.08l3.47-11.61"/><path d="M696.35,186.08c-3.69,0-6.34,2.23-6.34,5.28,0,1.51,.88,2.76,2.42,3.58,.56,.28,1.25,.59,2.72,1.18,2,.82,2.5,1.3,2.5,2.52,0,1.89-1.58,3.08-4,3.08-1.78,0-3.05-.49-3.05-1.19,0-.17,.11-.37,.25-.52,.66-.7,.73-.87,.73-1.51,0-.97-.76-1.75-1.78-1.75-1.16,0-2.03,.98-2.03,2.34,0,2.46,2.17,3.97,5.7,3.97,4.03,0,6.8-2.22,6.8-5.39,0-1.41-.64-2.59-1.75-3.36-.78-.53-1.12-.67-3.05-1.37-2.28-.8-2.88-1.36-2.88-2.74,0-1.61,1.53-2.79,3.56-2.79,1.38,0,2.28,.39,2.28,.95,0,.14-.06,.31-.17,.48-.5,.71-.56,.88-.56,1.41,0,.94,.74,1.61,1.81,1.61,1.2,0,2-.88,2-2.14,0-2.14-2.12-3.64-5.17-3.64m14.91-8.55c-1.05,0-1.89,.84-1.89,1.89s.84,1.89,1.86,1.89c1.08,0,1.92-.83,1.92-1.89s-.84-1.89-1.89-1.89m.62,8.55l-6.72,.53-.14,1.25h.84c1.44,0,2,.33,2,1.09,0,.35-.08,.74-.31,1.53l-2.03,6.83c-.67,2.25-.78,2.74-.78,3.53,0,1.24,1.06,2.17,2.39,2.17,3,0,5.08-3.1,6.55-5.39l-1.09-.59c-1.81,2.77-3.28,4.23-4.23,4.23-.34,0-.59-.31-.59-.73,0-.34,.14-.97,.42-1.95l3.7-12.5m11.97,0l-6.36,.53-.11,1.25h.84c1.39,0,1.95,.33,1.95,1.12,0,.32-.11,.85-.28,1.5l-3.56,12.05h3.05l1.42-4.94c1.58-5.36,4.77-9.4,7.39-9.4,.91,0,1.47,.48,1.47,1.36,0,.7-.28,2.17-.7,3.5l-2.8,9.48h3.05l1.5-5.08c.88-2.9,1.75-4.86,2.88-6.37,1.27-1.75,3.05-2.89,4.38-2.89,.88,0,1.36,.45,1.36,1.28,0,.5-.17,1.26-.49,2.25l-1.61,4.97c-.94,2.73-.98,2.93-.98,3.92,0,1.47,1.09,2.45,2.73,2.45,1.16,0,2.28-.56,3.47-1.69,.73-.7,1.22-1.32,2.66-3.42l-1.08-.75c-1.83,2.74-3.12,4.06-4.03,4.06-.39,0-.74-.37-.74-.87,0-.31,.11-.69,.42-1.7l2.2-6.8c.25-.77,.42-1.86,.42-2.63,0-1.85-1.38-3.18-3.25-3.18-2.5,0-4.73,1.61-6.76,4.93,.14-.67,.22-1.26,.22-1.68,0-1.85-1.47-3.25-3.41-3.25-2.2,0-3.81,1.22-6.27,4.73l1.02-4.73m25.72,12.64c-1.19,0-2.17,.98-2.17,2.17s.98,2.17,2.14,2.17c1.25,0,2.2-.95,2.2-2.17s-.99-2.17-2.17-2.17"/><path d="M455.43,187.41c.56-.49,.88-.66,1.3-.66,.34,0,.62,.17,.91,.55,.56,.78,.77,.92,1.33,.92,.81,0,1.41-.67,1.41-1.55,0-1.01-.98-1.81-2.2-1.81s-2.17,.45-4,1.89c-1.08-.5-1.89-.67-3.02-.67-3.88,0-7.17,2.76-7.17,5.98,0,1.69,.67,2.85,2.17,3.64-1.61,.22-2.34,.46-3.16,1.16-.69,.56-1.14,1.5-1.14,2.34,0,1.19,.55,1.92,1.92,2.6-2.06,.45-4.48,1.32-4.48,3.89,0,3.5,4.62,3.92,7.17,3.92,3.47,0,5.47-.42,7.19-1.55,1.5-.98,2.38-2.48,2.38-4.12,0-3.55-3.75-3.97-6.44-4.14-3.12-.18-3.36-.21-3.86-.32-.88-.2-1.3-.62-1.3-1.22,0-.84,.84-1.4,2.11-1.4,.45,0,.97,.03,1.44,.11,1.42,.2,1.64,.23,2.52,.23,1.95,0,3.5-.48,4.72-1.47,1.41-1.07,2.28-2.82,2.28-4.43s-.7-2.91-2.06-3.89m-4.03,0c1.83,0,2.98,1.09,2.98,2.79,0,2.53-1.16,5.72-4.14,5.72-1.89,0-3.08-1.2-3.08-3.16,0-3.15,1.72-5.35,4.23-5.35m-4.27,15.01c1.58,0,4.09,.36,4.89,.67,.88,.38,1.3,.99,1.3,1.86,0,2.06-2.2,3.17-6.22,3.17-3.41,0-4.98-.82-4.98-2.68s1.83-3.02,5.02-3.02m22.56-22.44c-.94,0-1.7,.78-1.7,1.72s.77,1.72,1.7,1.72,1.72-.76,1.72-1.72-.77-1.72-1.72-1.72m7.08,0c-.95,0-1.72,.78-1.72,1.72s.77,1.72,1.72,1.72,1.72-.76,1.72-1.72-.78-1.72-1.72-1.72m2.09,6.63h-3.05l-1.64,5.59c-1.44,4.88-4.66,8.86-7.14,8.86-.84,0-1.5-.67-1.5-1.5,0-.47,.09-1.01,.38-2l3.44-11.48-6.75,.53-.11,1.25h.84c1.42,0,1.95,.33,1.95,1.12,0,.35-.11,.85-.28,1.5l-1.39,4.74q-1.09,3.5-1.09,4.58c0,1.92,1.33,3.21,3.33,3.21,2.45,0,4.44-1.42,6.52-4.65-.36,1.23-.42,1.72-.42,2.39,0,1.36,.94,2.31,2.23,2.31,2.14,0,3.86-1.44,6.34-5.25l-1.06-.64c-1.7,2.56-3.08,3.95-3.84,3.95-.31,0-.62-.37-.62-.82,0-.39,.14-1.07,.41-2.08l3.47-11.61"/><path d="M507.29,197c-2.03,3.3-2.91,4.2-4.06,4.2-.55,0-.88-.36-.88-.98,0-.46,.19-1.27,.53-2.49l6.23-21-6.97,.53-.14,1.25h1.08c1.44,0,2,.32,2,1.1,0,.34-.11,.8-.31,1.53l-2.31,7.78c-.62-1.83-2-2.84-4.02-2.84-5.05,0-9.73,5.39-9.73,11.2,0,3.44,2.2,5.78,5.48,5.78,2.39,0,4.14-.98,5.67-3.26-.03,.28-.03,.64-.03,.78,0,1.61,.84,2.48,2.38,2.48,2.22,0,4.14-1.72,6.12-5.44l-1.05-.62m-8.75-9.34c1.72,0,2.98,1.32,2.98,3.15,0,3.17-2.25,10.6-6.31,10.6-1.89,0-3.11-1.5-3.11-3.79,0-3.31,2.38-9.96,6.44-9.96m19.7-7.68c-.94,0-1.7,.78-1.7,1.72s.77,1.72,1.7,1.72,1.72-.76,1.72-1.72-.77-1.72-1.72-1.72m7.08,0c-.95,0-1.72,.78-1.72,1.72s.77,1.72,1.72,1.72,1.72-.76,1.72-1.72-.78-1.72-1.72-1.72m2.09,6.63h-3.05l-1.64,5.59c-1.44,4.88-4.66,8.86-7.14,8.86-.84,0-1.5-.67-1.5-1.5,0-.47,.09-1.01,.38-2l3.44-11.48-6.75,.53-.11,1.25h.84c1.42,0,1.95,.33,1.95,1.12,0,.35-.11,.85-.28,1.5l-1.39,4.74q-1.09,3.5-1.09,4.58c0,1.92,1.33,3.21,3.33,3.21,2.45,0,4.44-1.42,6.52-4.65-.36,1.23-.42,1.72-.42,2.39,0,1.36,.94,2.31,2.23,2.31,2.14,0,3.86-1.44,6.34-5.25l-1.06-.64c-1.7,2.56-3.08,3.95-3.84,3.95-.31,0-.62-.37-.62-.82,0-.39,.14-1.07,.41-2.08l3.47-11.61"/><path d="M356.33,187.41c.56-.49,.88-.66,1.3-.66,.34,0,.62,.17,.91,.55,.56,.78,.77,.92,1.33,.92,.81,0,1.41-.67,1.41-1.55,0-1.01-.98-1.81-2.2-1.81s-2.17,.45-4,1.89c-1.08-.5-1.89-.67-3.02-.67-3.88,0-7.17,2.76-7.17,5.98,0,1.69,.67,2.85,2.17,3.64-1.61,.22-2.34,.46-3.16,1.16-.69,.56-1.14,1.5-1.14,2.34,0,1.19,.55,1.92,1.92,2.6-2.06,.45-4.48,1.32-4.48,3.89,0,3.5,4.62,3.92,7.17,3.92,3.47,0,5.47-.42,7.19-1.55,1.5-.98,2.38-2.48,2.38-4.12,0-3.55-3.75-3.97-6.44-4.14-3.12-.18-3.36-.21-3.86-.32-.88-.2-1.3-.62-1.3-1.22,0-.84,.84-1.4,2.11-1.4,.45,0,.97,.03,1.44,.11,1.42,.2,1.64,.23,2.52,.23,1.95,0,3.5-.48,4.72-1.47,1.41-1.07,2.28-2.82,2.28-4.43s-.7-2.91-2.06-3.89m-4.03,0c1.83,0,2.98,1.09,2.98,2.79,0,2.53-1.16,5.72-4.14,5.72-1.89,0-3.08-1.2-3.08-3.16,0-3.15,1.72-5.35,4.23-5.35m-4.27,15.01c1.58,0,4.09,.36,4.89,.67,.88,.38,1.3,.99,1.3,1.86,0,2.06-2.2,3.17-6.22,3.17-3.41,0-4.98-.82-4.98-2.68s1.83-3.02,5.02-3.02m22.56-22.44c-.94,0-1.7,.78-1.7,1.72s.77,1.72,1.7,1.72,1.72-.76,1.72-1.72-.77-1.72-1.72-1.72m7.08,0c-.95,0-1.72,.78-1.72,1.72s.77,1.72,1.72,1.72,1.72-.76,1.72-1.72-.78-1.72-1.72-1.72m2.09,6.63h-3.05l-1.64,5.59c-1.44,4.88-4.66,8.86-7.14,8.86-.84,0-1.5-.67-1.5-1.5,0-.47,.09-1.01,.38-2l3.44-11.48-6.75,.53-.11,1.25h.84c1.42,0,1.95,.33,1.95,1.12,0,.35-.11,.85-.28,1.5l-1.39,4.74q-1.09,3.5-1.09,4.58c0,1.92,1.33,3.21,3.33,3.21,2.45,0,4.44-1.42,6.52-4.65-.36,1.23-.42,1.72-.42,2.39,0,1.36,.94,2.31,2.23,2.31,2.14,0,3.86-1.44,6.34-5.25l-1.06-.64c-1.7,2.56-3.08,3.95-3.84,3.95-.31,0-.62-.37-.62-.82,0-.39,.14-1.07,.41-2.08l3.47-11.61"/><path d="M653.63,187.41c.56-.49,.88-.66,1.3-.66,.34,0,.62,.17,.91,.55,.56,.78,.77,.92,1.33,.92,.81,0,1.41-.67,1.41-1.55,0-1.01-.98-1.81-2.2-1.81s-2.17,.45-4,1.89c-1.08-.5-1.89-.67-3.01-.67-3.88,0-7.17,2.76-7.17,5.98,0,1.69,.67,2.85,2.17,3.64-1.61,.22-2.34,.46-3.16,1.16-.69,.56-1.14,1.5-1.14,2.34,0,1.19,.55,1.92,1.92,2.6-2.06,.45-4.49,1.32-4.49,3.89,0,3.5,4.62,3.92,7.17,3.92,3.47,0,5.47-.42,7.19-1.55,1.5-.98,2.38-2.48,2.38-4.12,0-3.55-3.75-3.97-6.44-4.14-3.12-.18-3.36-.21-3.86-.32-.88-.2-1.3-.62-1.3-1.22,0-.84,.84-1.4,2.11-1.4,.45,0,.97,.03,1.44,.11,1.42,.2,1.64,.23,2.51,.23,1.95,0,3.5-.48,4.72-1.47,1.41-1.07,2.28-2.82,2.28-4.43s-.7-2.91-2.06-3.89m-4.03,0c1.83,0,2.98,1.09,2.98,2.79,0,2.53-1.16,5.72-4.14,5.72-1.89,0-3.08-1.2-3.08-3.16,0-3.15,1.72-5.35,4.24-5.35m-4.27,15.01c1.58,0,4.09,.36,4.89,.67,.88,.38,1.3,.99,1.3,1.86,0,2.06-2.2,3.17-6.22,3.17-3.41,0-4.99-.82-4.99-2.68s1.83-3.02,5.02-3.02m22.56-22.44c-.94,0-1.7,.78-1.7,1.72s.77,1.72,1.7,1.72,1.72-.76,1.72-1.72-.76-1.72-1.72-1.72m7.08,0c-.95,0-1.72,.78-1.72,1.72s.77,1.72,1.72,1.72,1.72-.76,1.72-1.72-.78-1.72-1.72-1.72m2.09,6.63h-3.05l-1.64,5.59c-1.44,4.88-4.66,8.86-7.14,8.86-.84,0-1.5-.67-1.5-1.5,0-.47,.09-1.01,.38-2l3.44-11.48-6.75,.53-.11,1.25h.84c1.42,0,1.95,.33,1.95,1.12,0,.35-.11,.85-.28,1.5l-1.39,4.74q-1.09,3.5-1.09,4.58c0,1.92,1.33,3.21,3.33,3.21,2.45,0,4.44-1.42,6.51-4.65-.36,1.23-.42,1.72-.42,2.39,0,1.36,.94,2.31,2.23,2.31,2.14,0,3.86-1.44,6.34-5.25l-1.06-.64c-1.7,2.56-3.08,3.95-3.84,3.95-.31,0-.62-.37-.62-.82,0-.39,.14-1.07,.41-2.08l3.47-11.61"/><path d="M309.1,197c-2.03,3.3-2.91,4.2-4.06,4.2-.55,0-.88-.36-.88-.98,0-.46,.19-1.27,.53-2.49l6.23-21-6.97,.53-.14,1.25h1.08c1.44,0,2,.32,2,1.1,0,.34-.11,.8-.31,1.53l-2.31,7.78c-.62-1.83-2-2.84-4.02-2.84-5.05,0-9.73,5.39-9.73,11.2,0,3.44,2.2,5.78,5.48,5.78,2.39,0,4.14-.98,5.67-3.26-.03,.28-.03,.64-.03,.78,0,1.61,.84,2.48,2.38,2.48,2.22,0,4.14-1.72,6.12-5.44l-1.05-.62m-8.75-9.34c1.72,0,2.98,1.32,2.98,3.15,0,3.17-2.25,10.6-6.31,10.6-1.89,0-3.11-1.5-3.11-3.79,0-3.31,2.38-9.96,6.44-9.96m19.7-7.68c-.94,0-1.7,.78-1.7,1.72s.77,1.72,1.7,1.72,1.72-.76,1.72-1.72-.77-1.72-1.72-1.72m7.08,0c-.95,0-1.72,.78-1.72,1.72s.77,1.72,1.72,1.72,1.72-.76,1.72-1.72-.78-1.72-1.72-1.72m2.09,6.63h-3.05l-1.64,5.59c-1.44,4.88-4.66,8.86-7.14,8.86-.84,0-1.5-.67-1.5-1.5,0-.47,.09-1.01,.38-2l3.44-11.48-6.75,.53-.11,1.25h.84c1.42,0,1.95,.33,1.95,1.12,0,.35-.11,.85-.28,1.5l-1.39,4.74q-1.09,3.5-1.09,4.58c0,1.92,1.33,3.21,3.33,3.21,2.45,0,4.44-1.42,6.52-4.65-.36,1.23-.42,1.72-.42,2.39,0,1.36,.94,2.31,2.23,2.31,2.14,0,3.86-1.44,6.34-5.25l-1.06-.64c-1.7,2.56-3.08,3.95-3.84,3.95-.31,0-.62-.37-.62-.82,0-.39,.14-1.07,.41-2.08l3.47-11.61"/><path d="M554.53,187.41c.56-.49,.88-.66,1.3-.66,.34,0,.62,.17,.91,.55,.56,.78,.77,.92,1.33,.92,.81,0,1.41-.67,1.41-1.55,0-1.01-.99-1.81-2.2-1.81s-2.17,.45-4,1.89c-1.08-.5-1.89-.67-3.02-.67-3.88,0-7.17,2.76-7.17,5.98,0,1.69,.67,2.85,2.17,3.64-1.61,.22-2.34,.46-3.16,1.16-.69,.56-1.14,1.5-1.14,2.34,0,1.19,.55,1.92,1.92,2.6-2.06,.45-4.48,1.32-4.48,3.89,0,3.5,4.62,3.92,7.17,3.92,3.47,0,5.47-.42,7.19-1.55,1.5-.98,2.38-2.48,2.38-4.12,0-3.55-3.75-3.97-6.44-4.14-3.12-.18-3.36-.21-3.86-.32-.88-.2-1.3-.62-1.3-1.22,0-.84,.84-1.4,2.11-1.4,.45,0,.97,.03,1.44,.11,1.42,.2,1.64,.23,2.52,.23,1.95,0,3.5-.48,4.72-1.47,1.41-1.07,2.28-2.82,2.28-4.43s-.7-2.91-2.06-3.89m-4.03,0c1.83,0,2.98,1.09,2.98,2.79,0,2.53-1.16,5.72-4.14,5.72-1.89,0-3.08-1.2-3.08-3.16,0-3.15,1.72-5.35,4.23-5.35m-4.27,15.01c1.58,0,4.09,.36,4.89,.67,.88,.38,1.3,.99,1.3,1.86,0,2.06-2.2,3.17-6.22,3.17-3.41,0-4.98-.82-4.98-2.68s1.83-3.02,5.01-3.02m22.56-22.44c-.94,0-1.7,.78-1.7,1.72s.76,1.72,1.7,1.72,1.72-.76,1.72-1.72-.77-1.72-1.72-1.72m7.08,0c-.95,0-1.72,.78-1.72,1.72s.77,1.72,1.72,1.72,1.72-.76,1.72-1.72-.78-1.72-1.72-1.72m2.09,6.63h-3.05l-1.64,5.59c-1.44,4.88-4.66,8.86-7.14,8.86-.84,0-1.5-.67-1.5-1.5,0-.47,.09-1.01,.38-2l3.44-11.48-6.75,.53-.11,1.25h.84c1.42,0,1.95,.33,1.95,1.12,0,.35-.11,.85-.28,1.5l-1.39,4.74q-1.09,3.5-1.09,4.58c0,1.92,1.33,3.21,3.33,3.21,2.45,0,4.44-1.42,6.52-4.65-.36,1.23-.42,1.72-.42,2.39,0,1.36,.94,2.31,2.23,2.31,2.14,0,3.86-1.44,6.34-5.25l-1.06-.64c-1.7,2.56-3.08,3.95-3.84,3.95-.31,0-.62-.37-.62-.82,0-.39,.14-1.07,.41-2.08l3.47-11.61"/><path d="M606.39,197c-2.03,3.3-2.91,4.2-4.06,4.2-.55,0-.88-.36-.88-.98,0-.46,.19-1.27,.53-2.49l6.23-21-6.97,.53-.14,1.25h1.08c1.44,0,2,.32,2,1.1,0,.34-.11,.8-.31,1.53l-2.31,7.78c-.62-1.83-2-2.84-4.02-2.84-5.05,0-9.73,5.39-9.73,11.2,0,3.44,2.2,5.78,5.48,5.78,2.39,0,4.14-.98,5.67-3.26-.03,.28-.03,.64-.03,.78,0,1.61,.84,2.48,2.38,2.48,2.22,0,4.14-1.72,6.12-5.44l-1.05-.62m-8.75-9.34c1.72,0,2.98,1.32,2.98,3.15,0,3.17-2.25,10.6-6.31,10.6-1.89,0-3.11-1.5-3.11-3.79,0-3.31,2.38-9.96,6.44-9.96m19.7-7.68c-.94,0-1.7,.78-1.7,1.72s.77,1.72,1.7,1.72,1.72-.76,1.72-1.72-.77-1.72-1.72-1.72m7.08,0c-.95,0-1.72,.78-1.72,1.72s.76,1.72,1.72,1.72,1.72-.76,1.72-1.72-.78-1.72-1.72-1.72m2.09,6.63h-3.05l-1.64,5.59c-1.44,4.88-4.66,8.86-7.14,8.86-.84,0-1.5-.67-1.5-1.5,0-.47,.09-1.01,.38-2l3.44-11.48-6.75,.53-.11,1.25h.84c1.42,0,1.95,.33,1.95,1.12,0,.35-.11,.85-.28,1.5l-1.39,4.74q-1.09,3.5-1.09,4.58c0,1.92,1.33,3.21,3.33,3.21,2.45,0,4.44-1.42,6.52-4.65-.36,1.23-.42,1.72-.42,2.39,0,1.36,.94,2.31,2.24,2.31,2.14,0,3.86-1.44,6.34-5.25l-1.06-.64c-1.7,2.56-3.08,3.95-3.84,3.95-.31,0-.62-.37-.62-.82,0-.39,.14-1.07,.41-2.08l3.47-11.61"/><path d="M2622.41,35.91h151.12v12.4h-151.12v-12.4" fill-rule="evenodd"/><path d="M2622.41,54.51h151.12v12.4h-151.12v-12.4" fill-rule="evenodd"/><path d="M725.46,35.91h151.13v12.4h-151.13v-12.4" fill-rule="evenodd"/><path d="M725.46,54.51h151.13v12.4h-151.13v-12.4" fill-rule="evenodd"/><path d="M329.07,403.91h148.68v12.4h-148.68v-12.4" fill-rule="evenodd"/><path d="M329.07,422.51h148.68v12.4h-148.68v-12.4" fill-rule="evenodd"/><path d="M523.99,397.71h148.68v12.4h-148.68v-12.4" fill-rule="evenodd"/><path d="M523.99,416.31h148.68v12.4h-148.68v-12.4" fill-rule="evenodd"/><path d="M923.66,60.71h151.12v12.4h-151.12v-12.4" fill-rule="evenodd"/><path d="M923.66,79.31h151.12v12.4h-151.12v-12.4" fill-rule="evenodd"/><path d="M718.92,379.11h148.68v12.4h-148.68v-12.4" fill-rule="evenodd"/><path d="M718.92,397.71h148.68v12.4h-148.68v-12.4" fill-rule="evenodd"/><path d="M913.85,403.91h148.68v12.4h-148.68v-12.4" fill-rule="evenodd"/><path d="M913.85,422.51h148.68v12.4h-148.68v-12.4" fill-rule="evenodd"/><path d="M329.07,60.71h151.13v12.4h-151.13v-12.4" fill-rule="evenodd"/><path d="M329.07,79.31h151.13v12.4h-151.13v-12.4" fill-rule="evenodd"/><path d="M1376.64,35.91h151.12v12.4h-151.12v-12.4" fill-rule="evenodd"/><path d="M1376.64,54.51h151.12v12.4h-151.12v-12.4" fill-rule="evenodd"/><path d="M1411.94,740.91h197.83v12.4h-197.83v-12.4" fill-rule="evenodd"/><path d="M1411.94,759.51h197.83v12.4h-197.83v-12.4" fill-rule="evenodd"/><path d="M2226.01,29.71h151.13v12.4h-151.13v-12.4" fill-rule="evenodd"/><path d="M2226.01,48.31h151.13v12.4h-151.13v-12.4" fill-rule="evenodd"/><path d="M1178.44,54.51h151.13v12.4h-151.13v-12.4" fill-rule="evenodd"/><path d="M1178.44,73.11h151.13v12.4h-151.13v-12.4" fill-rule="evenodd"/><path d="M1166.18,397.71h148.68v12.4h-148.68v-12.4" fill-rule="evenodd"/><path d="M1166.18,416.31h148.68v12.4h-148.68v-12.4" fill-rule="evenodd"/><path d="M1574.83,29.71h151.13v12.4h-151.13v-12.4" fill-rule="evenodd"/><path d="M1574.83,48.31h151.13v12.4h-151.13v-12.4" fill-rule="evenodd"/><path d="M1556.04,372.91h148.67v12.4h-148.67v-12.4" fill-rule="evenodd"/><path d="M1556.04,391.51h148.67v12.4h-148.67v-12.4" fill-rule="evenodd"/><path d="M2216.8,403.91h148.67v12.4h-148.67v-12.4" fill-rule="evenodd"/><path d="M2216.8,422.51h148.67v12.4h-148.67v-12.4" fill-rule="evenodd"/><path d="M589.53,722.31h197.83v12.4h-197.83v-12.4" fill-rule="evenodd"/><path d="M589.53,740.91h197.83v12.4h-197.83v-12.4" fill-rule="evenodd"/><path d="M1672.4,716.11h197.83v12.4h-197.83v-12.4" fill-rule="evenodd"/><path d="M1672.4,734.71h197.83v12.4h-197.83v-12.4" fill-rule="evenodd"/><path d="M2606.65,422.51h166.88v12.4h-166.88v-12.4" fill-rule="evenodd"/><path d="M2606.65,441.11h166.88v12.4h-166.88v-12.4" fill-rule="evenodd"/><path d="M1773.03,54.51h151.13v12.4h-151.13v-12.4" fill-rule="evenodd"/><path d="M1773.03,73.11h151.13v12.4h-151.13v-12.4" fill-rule="evenodd"/><path d="M527.26,54.51h151.13v12.4h-151.13v-12.4" fill-rule="evenodd"/><path d="M527.26,73.11h151.13v12.4h-151.13v-12.4" fill-rule="evenodd"/><path d="M1932.87,722.31h197.82v12.4h-197.82v-12.4" fill-rule="evenodd"/><path d="M1932.87,740.91h197.82v12.4h-197.82v-12.4" fill-rule="evenodd"/><path d="M2027.82,35.91h151.12v12.4h-151.12v-12.4" fill-rule="evenodd"/><path d="M2027.82,54.51h151.12v12.4h-151.12v-12.4" fill-rule="evenodd"/><path d="M2424.21,11.11h151.13v12.4h-151.13V11.11" fill-rule="evenodd"/><path d="M2424.21,29.71h151.13v12.4h-151.13v-12.4" fill-rule="evenodd"/><path d="M849.99,740.91h197.83v12.4h-197.83v-12.4" fill-rule="evenodd"/><path d="M849.99,759.51h197.83v12.4h-197.83v-12.4" fill-rule="evenodd"/><path d="M2193.33,740.91h197.83v12.4h-197.83v-12.4" fill-rule="evenodd"/><path d="M2193.33,759.51h197.83v12.4h-197.83v-12.4" fill-rule="evenodd"/><path d="M1750.97,397.71h148.67v12.4h-148.67v-12.4" fill-rule="evenodd"/><path d="M1750.97,416.31h148.67v12.4h-148.67v-12.4" fill-rule="evenodd"/><path d="M1361.11,379.11h148.68v12.4h-148.68v-12.4" fill-rule="evenodd"/><path d="M1361.11,397.71h148.68v12.4h-148.68v-12.4" fill-rule="evenodd"/><path d="M1110.45,747.11h197.83v12.4h-197.83v-12.4" fill-rule="evenodd"/><path d="M1110.45,765.71h197.83v12.4h-197.83v-12.4" fill-rule="evenodd"/><path d="M2411.72,397.71h148.68v12.4h-148.68v-12.4" fill-rule="evenodd"/><path d="M2411.72,416.31h148.68v12.4h-148.68v-12.4" fill-rule="evenodd"/><path d="M2003.3,422.51h166.88v12.4h-166.88v-12.4" fill-rule="evenodd"/><path d="M2003.3,441.11h166.88v12.4h-166.88v-12.4" fill-rule="evenodd"/><path d="M329.07,747.11h197.83v12.4h-197.83v-12.4" fill-rule="evenodd"/><path d="M329.07,765.71h197.83v12.4h-197.83v-12.4" fill-rule="evenodd"/></g></svg>