<?xml version="1.0" encoding="UTF-8"?><svg id="b" xmlns="http://www.w3.org/2000/svg" viewBox="0 0 2552.4 519.7"><g id="c"><line y1="45.54" x2="2552.4" y2="45.54" fill="none" stroke="#000" stroke-linejoin="bevel" stroke-width="2.73"/><line y1="70.34" x2="2552.4" y2="70.34" fill="none" stroke="#000" stroke-linejoin="bevel" stroke-width="2.73"/><line y1="95.14" x2="2552.4" y2="95.14" fill="none" stroke="#000" stroke-linejoin="bevel" stroke-width="2.73"/><line y1="119.94" x2="2552.4" y2="119.94" fill="none" stroke="#000" stroke-linejoin="bevel" stroke-width="2.73"/><line y1="144.74" x2="2552.4" y2="144.74" fill="none" stroke="#000" stroke-linejoin="bevel" stroke-width="2.73"/><line y1="379.22" x2="2552.4" y2="379.22" fill="none" stroke="#000" stroke-linejoin="bevel" stroke-width="2.73"/><line y1="404.02" x2="2552.4" y2="404.02" fill="none" stroke="#000" stroke-linejoin="bevel" stroke-width="2.73"/><line y1="428.82" x2="2552.4" y2="428.82" fill="none" stroke="#000" stroke-linejoin="bevel" stroke-width="2.73"/><line y1="453.62" x2="2552.4" y2="453.62" fill="none" stroke="#000" stroke-linejoin="bevel" stroke-width="2.73"/><line y1="478.42" x2="2552.4" y2="478.42" fill="none" stroke="#000" stroke-linejoin="bevel" stroke-width="2.73"/><line x1="2536.53" y1="377.86" x2="2536.53" y2="479.78" fill="none" stroke="#000" stroke-linejoin="bevel" stroke-width="4.46"/><line x1="2550.17" y1="377.86" x2="2550.17" y2="479.78" fill="none" stroke="#000" stroke-linejoin="bevel" stroke-width="4.46"/><line x1="1221.16" y1="377.86" x2="1221.16" y2="479.78" fill="none" stroke="#000" stroke-linejoin="bevel" stroke-width="4.46"/><line x1="1395.16" y1="44.18" x2="1395.16" y2="146.1" fill="none" stroke="#000" stroke-linejoin="bevel" stroke-width="4.46"/><line x1="2202.17" y1="377.86" x2="2202.17" y2="479.78" fill="none" stroke="#000" stroke-linejoin="bevel" stroke-width="4.46"/><line x1="2550.17" y1="44.18" x2="2550.17" y2="146.1" fill="none" stroke="#000" stroke-linejoin="bevel" stroke-width="4.46"/><line x1="480.59" y1="449.65" x2="480.59" y2="379.26" fill="none" stroke="#000" stroke-linejoin="bevel" stroke-width="2.48"/><line x1="538.91" y1="437.25" x2="538.91" y2="360.66" fill="none" stroke="#000" stroke-linejoin="bevel" stroke-width="2.48"/><line x1="597.24" y1="437.25" x2="597.24" y2="362.7" fill="none" stroke="#000" stroke-linejoin="bevel" stroke-width="2.48"/><line x1="655.56" y1="462.05" x2="655.56" y2="364.74" fill="none" stroke="#000" stroke-linejoin="bevel" stroke-width="2.48"/><line x1="713.89" y1="462.05" x2="713.89" y2="366.78" fill="none" stroke="#000" stroke-linejoin="bevel" stroke-width="2.48"/><line x1="772.21" y1="486.85" x2="772.21" y2="410.18" fill="none" stroke="#000" stroke-linejoin="bevel" stroke-width="2.48"/><line x1="830.54" y1="486.85" x2="830.54" y2="408.14" fill="none" stroke="#000" stroke-linejoin="bevel" stroke-width="2.48"/><line x1="888.86" y1="474.45" x2="888.86" y2="406.1" fill="none" stroke="#000" stroke-linejoin="bevel" stroke-width="2.48"/><line x1="947.19" y1="474.45" x2="947.19" y2="404.06" fill="none" stroke="#000" stroke-linejoin="bevel" stroke-width="2.48"/><line x1="1005.51" y1="462.05" x2="1005.51" y2="379.26" fill="none" stroke="#000" stroke-linejoin="bevel" stroke-width="2.48"/><line x1="1063.84" y1="462.05" x2="1063.84" y2="381.3" fill="none" stroke="#000" stroke-linejoin="bevel" stroke-width="2.48"/><line x1="1122.16" y1="486.85" x2="1122.16" y2="383.34" fill="none" stroke="#000" stroke-linejoin="bevel" stroke-width="2.48"/><line x1="1180.49" y1="486.85" x2="1180.49" y2="385.38" fill="none" stroke="#000" stroke-linejoin="bevel" stroke-width="2.48"/><line x1="1286.62" y1="474.45" x2="1286.62" y2="385.38" fill="none" stroke="#000" stroke-linejoin="bevel" stroke-width="2.48"/><line x1="1344.95" y1="474.45" x2="1344.95" y2="383.34" fill="none" stroke="#000" stroke-linejoin="bevel" stroke-width="2.48"/><line x1="1403.27" y1="449.65" x2="1403.27" y2="381.3" fill="none" stroke="#000" stroke-linejoin="bevel" stroke-width="2.48"/><line x1="1461.6" y1="449.65" x2="1461.6" y2="379.26" fill="none" stroke="#000" stroke-linejoin="bevel" stroke-width="2.48"/><line x1="1519.92" y1="462.05" x2="1519.92" y2="379.26" fill="none" stroke="#000" stroke-linejoin="bevel" stroke-width="2.48"/><line x1="1578.25" y1="462.05" x2="1578.25" y2="381.3" fill="none" stroke="#000" stroke-linejoin="bevel" stroke-width="2.48"/><line x1="1636.57" y1="474.45" x2="1636.57" y2="383.34" fill="none" stroke="#000" stroke-linejoin="bevel" stroke-width="2.48"/><line x1="1694.9" y1="474.45" x2="1694.9" y2="385.38" fill="none" stroke="#000" stroke-linejoin="bevel" stroke-width="2.48"/><line x1="1753.22" y1="462.05" x2="1753.22" y2="366.78" fill="none" stroke="#000" stroke-linejoin="bevel" stroke-width="2.48"/><line x1="1811.55" y1="462.05" x2="1811.55" y2="364.74" fill="none" stroke="#000" stroke-linejoin="bevel" stroke-width="2.48"/><line x1="1869.87" y1="437.25" x2="1869.87" y2="362.7" fill="none" stroke="#000" stroke-linejoin="bevel" stroke-width="2.48"/><line x1="1928.2" y1="437.25" x2="1928.2" y2="360.66" fill="none" stroke="#000" stroke-linejoin="bevel" stroke-width="2.48"/><line x1="1986.52" y1="449.65" x2="1986.52" y2="379.26" fill="none" stroke="#000" stroke-linejoin="bevel" stroke-width="2.48"/><line x1="2044.85" y1="449.65" x2="2044.85" y2="381.3" fill="none" stroke="#000" stroke-linejoin="bevel" stroke-width="2.48"/><line x1="2103.17" y1="462.05" x2="2103.17" y2="383.34" fill="none" stroke="#000" stroke-linejoin="bevel" stroke-width="2.48"/><line x1="2161.5" y1="462.05" x2="2161.5" y2="385.38" fill="none" stroke="#000" stroke-linejoin="bevel" stroke-width="2.48"/><line x1="305.61" y1="140.77" x2="305.61" y2="51.7" fill="none" stroke="#000" stroke-linejoin="bevel" stroke-width="2.48"/><line x1="375.51" y1="140.77" x2="375.51" y2="49.66" fill="none" stroke="#000" stroke-linejoin="bevel" stroke-width="2.48"/><line x1="445.4" y1="128.37" x2="445.4" y2="47.62" fill="none" stroke="#000" stroke-linejoin="bevel" stroke-width="2.48"/><line x1="515.3" y1="128.37" x2="515.3" y2="45.58" fill="none" stroke="#000" stroke-linejoin="bevel" stroke-width="2.48"/><line x1="585.19" y1="115.97" x2="585.19" y2="45.58" fill="none" stroke="#000" stroke-linejoin="bevel" stroke-width="2.48"/><line x1="655.08" y1="115.97" x2="655.08" y2="47.62" fill="none" stroke="#000" stroke-linejoin="bevel" stroke-width="2.48"/><line x1="724.98" y1="140.77" x2="724.98" y2="49.66" fill="none" stroke="#000" stroke-linejoin="bevel" stroke-width="2.48"/><line x1="794.87" y1="140.77" x2="794.87" y2="51.7" fill="none" stroke="#000" stroke-linejoin="bevel" stroke-width="2.48"/><line x1="864.76" y1="128.37" x2="864.76" y2="51.7" fill="none" stroke="#000" stroke-linejoin="bevel" stroke-width="2.48"/><line x1="934.66" y1="128.37" x2="934.66" y2="49.66" fill="none" stroke="#000" stroke-linejoin="bevel" stroke-width="2.48"/><line x1="1004.55" y1="115.97" x2="1004.55" y2="47.62" fill="none" stroke="#000" stroke-linejoin="bevel" stroke-width="2.48"/><line x1="1074.45" y1="115.97" x2="1074.45" y2="45.58" fill="none" stroke="#000" stroke-linejoin="bevel" stroke-width="2.48"/><line x1="1144.34" y1="103.57" x2="1144.34" y2="26.98" fill="none" stroke="#000" stroke-linejoin="bevel" stroke-width="2.48"/><line x1="1214.24" y1="103.57" x2="1214.24" y2="29.02" fill="none" stroke="#000" stroke-linejoin="bevel" stroke-width="2.48"/><line x1="1284.13" y1="128.37" x2="1284.13" y2="31.06" fill="none" stroke="#000" stroke-linejoin="bevel" stroke-width="2.48"/><line x1="1354.02" y1="128.37" x2="1354.02" y2="33.1" fill="none" stroke="#000" stroke-linejoin="bevel" stroke-width="2.48"/><line x1="1460.62" y1="115.97" x2="1460.62" y2="33.1" fill="none" stroke="#000" stroke-linejoin="bevel" stroke-width="2.48"/><line x1="1530.52" y1="115.97" x2="1530.52" y2="31.06" fill="none" stroke="#000" stroke-linejoin="bevel" stroke-width="2.48"/><line x1="1600.41" y1="103.57" x2="1600.41" y2="29.02" fill="none" stroke="#000" stroke-linejoin="bevel" stroke-width="2.48"/><line x1="1670.3" y1="103.57" x2="1670.3" y2="26.98" fill="none" stroke="#000" stroke-linejoin="bevel" stroke-width="2.48"/><line x1="1740.2" y1="91.17" x2="1740.2" y2="20.78" fill="none" stroke="#000" stroke-linejoin="bevel" stroke-width="2.48"/><line x1="1810.09" y1="91.17" x2="1810.09" y2="22.82" fill="none" stroke="#000" stroke-linejoin="bevel" stroke-width="2.48"/><line x1="1879.99" y1="115.97" x2="1879.99" y2="24.86" fill="none" stroke="#000" stroke-linejoin="bevel" stroke-width="2.48"/><line x1="1949.88" y1="115.97" x2="1949.88" y2="26.9" fill="none" stroke="#000" stroke-linejoin="bevel" stroke-width="2.48"/><line x1="2019.77" y1="140.77" x2="2019.77" y2="51.7" fill="none" stroke="#000" stroke-linejoin="bevel" stroke-width="2.48"/><line x1="2089.67" y1="140.77" x2="2089.67" y2="49.66" fill="none" stroke="#000" stroke-linejoin="bevel" stroke-width="2.48"/><line x1="2159.56" y1="128.37" x2="2159.56" y2="47.62" fill="none" stroke="#000" stroke-linejoin="bevel" stroke-width="2.48"/><line x1="2229.46" y1="128.37" x2="2229.46" y2="45.58" fill="none" stroke="#000" stroke-linejoin="bevel" stroke-width="2.48"/><line x1="2299.35" y1="115.97" x2="2299.35" y2="45.58" fill="none" stroke="#000" stroke-linejoin="bevel" stroke-width="2.48"/><line x1="2369.24" y1="115.97" x2="2369.24" y2="47.62" fill="none" stroke="#000" stroke-linejoin="bevel" stroke-width="2.48"/><line x1="2439.14" y1="140.77" x2="2439.14" y2="49.66" fill="none" stroke="#000" stroke-linejoin="bevel" stroke-width="2.48"/><line x1="2509.03" y1="140.77" x2="2509.03" y2="51.7" fill="none" stroke="#000" stroke-linejoin="bevel" stroke-width="2.48"/><line x1="305.61" y1="462.05" x2="305.61" y2="385.38" fill="none" stroke="#000" stroke-linejoin="bevel" stroke-width="2.48"/><line x1="363.94" y1="462.05" x2="363.94" y2="383.34" fill="none" stroke="#000" stroke-linejoin="bevel" stroke-width="2.48"/><line x1="422.26" y1="449.65" x2="422.26" y2="381.3" fill="none" stroke="#000" stroke-linejoin="bevel" stroke-width="2.48"/><path d="M2255.2,464.93c-13.69,0-18.55,6.94-18.55,13.39s4.87,13.39,18.55,13.39,18.45-6.94,18.45-13.39-4.76-13.39-18.45-13.39m.79,23.61c-2.77,0-4.67-.79-5.95-3.27s-3.07-8.93-3.18-11.52c-.2-2.68,.79-4.26,3.18-5.05,1.19-.4,2.77-.6,4.37-.6,2.67,0,4.46,.6,5.84,3.29,1.39,2.57,3.29,9.02,3.29,11.5,0,4.87-3.58,5.66-7.55,5.66"/><path d="M1722.23,470.19c0,4.26,3.07,9.02,11.11,9.02,10.31,0,21.13-8.43,21.13-17.16,0-5.86-4.96-9.13-11.11-9.13-9.63,0-21.13,8.14-21.13,17.27"/><path d="M274.62,148.91c0,4.26,3.07,9.02,11.11,9.02,10.31,0,21.13-8.43,21.13-17.16,0-5.86-4.96-9.13-11.11-9.13-9.63,0-21.13,8.14-21.13,17.27"/><path d="M344.52,148.91c0,4.26,3.07,9.02,11.11,9.02,10.31,0,21.13-8.43,21.13-17.16,0-5.86-4.96-9.13-11.11-9.13-9.63,0-21.13,8.14-21.13,17.27"/><path d="M414.41,136.51c0,4.26,3.07,9.02,11.11,9.02,10.31,0,21.13-8.43,21.13-17.16,0-5.86-4.96-9.13-11.11-9.13-9.63,0-21.13,8.14-21.13,17.27"/><path d="M484.3,136.51c0,4.26,3.07,9.02,11.11,9.02,10.31,0,21.13-8.43,21.13-17.16,0-5.86-4.96-9.13-11.11-9.13-9.63,0-21.13,8.14-21.13,17.27"/><path d="M554.2,124.11c0,4.26,3.07,9.02,11.11,9.02,10.31,0,21.13-8.43,21.13-17.16,0-5.86-4.96-9.13-11.11-9.13-9.63,0-21.13,8.14-21.13,17.27"/><path d="M624.09,124.11c0,4.26,3.07,9.02,11.11,9.02,10.31,0,21.13-8.43,21.13-17.16,0-5.86-4.96-9.13-11.11-9.13-9.63,0-21.13,8.14-21.13,17.27"/><path d="M693.99,148.91c0,4.26,3.07,9.02,11.11,9.02,10.31,0,21.13-8.43,21.13-17.16,0-5.86-4.96-9.13-11.11-9.13-9.63,0-21.13,8.14-21.13,17.27"/><path d="M763.88,148.91c0,4.26,3.07,9.02,11.11,9.02,10.31,0,21.13-8.43,21.13-17.16,0-5.86-4.96-9.13-11.11-9.13-9.63,0-21.13,8.14-21.13,17.27"/><path d="M833.77,136.51c0,4.26,3.07,9.02,11.11,9.02,10.31,0,21.13-8.43,21.13-17.16,0-5.86-4.96-9.13-11.11-9.13-9.63,0-21.13,8.14-21.13,17.27"/><path d="M1780.56,470.19c0,4.26,3.07,9.02,11.11,9.02,10.31,0,21.13-8.43,21.13-17.16,0-5.86-4.96-9.13-11.11-9.13-9.63,0-21.13,8.14-21.13,17.27"/><path d="M1838.88,445.39c0,4.26,3.07,9.02,11.11,9.02,10.31,0,21.13-8.43,21.13-17.16,0-5.86-4.96-9.13-11.11-9.13-9.63,0-21.13,8.14-21.13,17.27"/><path d="M903.67,136.51c0,4.26,3.07,9.02,11.11,9.02,10.31,0,21.13-8.43,21.13-17.16,0-5.86-4.96-9.13-11.11-9.13-9.63,0-21.13,8.14-21.13,17.27"/><path d="M973.56,124.11c0,4.26,3.07,9.02,11.11,9.02,10.31,0,21.13-8.43,21.13-17.16,0-5.86-4.96-9.13-11.11-9.13-9.63,0-21.13,8.14-21.13,17.27"/><path d="M1043.45,124.11c0,4.26,3.07,9.02,11.11,9.02,10.31,0,21.13-8.43,21.13-17.16,0-5.86-4.96-9.13-11.11-9.13-9.63,0-21.13,8.14-21.13,17.27"/><path d="M1113.35,111.71c0,4.26,3.07,9.02,11.11,9.02,10.31,0,21.13-8.43,21.13-17.16,0-5.86-4.96-9.13-11.11-9.13-9.63,0-21.13,8.14-21.13,17.27"/><path d="M1183.24,111.71c0,4.26,3.07,9.02,11.11,9.02,10.31,0,21.13-8.43,21.13-17.16,0-5.86-4.96-9.13-11.11-9.13-9.63,0-21.13,8.14-21.13,17.27"/><path d="M1253.14,136.51c0,4.26,3.07,9.02,11.11,9.02,10.31,0,21.13-8.43,21.13-17.16,0-5.86-4.96-9.13-11.11-9.13-9.63,0-21.13,8.14-21.13,17.27"/><path d="M1323.03,136.51c0,4.26,3.07,9.02,11.11,9.02,10.31,0,21.13-8.43,21.13-17.16,0-5.86-4.96-9.13-11.11-9.13-9.63,0-21.13,8.14-21.13,17.27"/><path d="M1429.63,124.11c0,4.26,3.07,9.02,11.11,9.02,10.31,0,21.13-8.43,21.13-17.16,0-5.86-4.96-9.13-11.11-9.13-9.63,0-21.13,8.14-21.13,17.27"/><path d="M1897.2,445.39c0,4.26,3.07,9.02,11.11,9.02,10.31,0,21.13-8.43,21.13-17.16,0-5.86-4.96-9.13-11.11-9.13-9.63,0-21.13,8.14-21.13,17.27"/><path d="M1499.52,124.11c0,4.26,3.07,9.02,11.11,9.02,10.31,0,21.13-8.43,21.13-17.16,0-5.86-4.96-9.13-11.11-9.13-9.63,0-21.13,8.14-21.13,17.27"/><path d="M1569.42,111.71c0,4.26,3.07,9.02,11.11,9.02,10.31,0,21.13-8.43,21.13-17.16,0-5.86-4.96-9.13-11.11-9.13-9.63,0-21.13,8.14-21.13,17.27"/><path d="M1639.31,111.71c0,4.26,3.07,9.02,11.11,9.02,10.31,0,21.13-8.43,21.13-17.16,0-5.86-4.96-9.13-11.11-9.13-9.63,0-21.13,8.14-21.13,17.27"/><path d="M1709.21,99.31c0,4.26,3.07,9.02,11.11,9.02,10.31,0,21.13-8.43,21.13-17.16,0-5.86-4.96-9.13-11.11-9.13-9.63,0-21.13,8.14-21.13,17.27"/><path d="M1955.53,457.79c0,4.26,3.07,9.02,11.11,9.02,10.31,0,21.13-8.43,21.13-17.16,0-5.86-4.96-9.13-11.11-9.13-9.63,0-21.13,8.14-21.13,17.27"/><path d="M1779.1,99.31c0,4.26,3.07,9.02,11.11,9.02,10.31,0,21.13-8.43,21.13-17.16,0-5.86-4.96-9.13-11.11-9.13-9.63,0-21.13,8.14-21.13,17.27"/><path d="M1848.99,124.11c0,4.26,3.07,9.02,11.11,9.02,10.31,0,21.13-8.43,21.13-17.16,0-5.86-4.96-9.13-11.11-9.13-9.63,0-21.13,8.14-21.13,17.27"/><path d="M1918.89,124.11c0,4.26,3.07,9.02,11.11,9.02,10.31,0,21.13-8.43,21.13-17.16,0-5.86-4.96-9.13-11.11-9.13-9.63,0-21.13,8.14-21.13,17.27"/><path d="M1988.78,148.91c0,4.26,3.07,9.02,11.11,9.02,10.31,0,21.13-8.43,21.13-17.16,0-5.86-4.96-9.13-11.11-9.13-9.63,0-21.13,8.14-21.13,17.27"/><path d="M2058.68,148.91c0,4.26,3.07,9.02,11.11,9.02,10.31,0,21.13-8.43,21.13-17.16,0-5.86-4.96-9.13-11.11-9.13-9.63,0-21.13,8.14-21.13,17.27"/><path d="M2128.57,136.51c0,4.26,3.07,9.02,11.11,9.02,10.31,0,21.13-8.43,21.13-17.16,0-5.86-4.96-9.13-11.11-9.13-9.63,0-21.13,8.14-21.13,17.27"/><path d="M2198.46,136.51c0,4.26,3.07,9.02,11.11,9.02,10.31,0,21.13-8.43,21.13-17.16,0-5.86-4.96-9.13-11.11-9.13-9.63,0-21.13,8.14-21.13,17.27"/><path d="M2268.36,124.11c0,4.26,3.07,9.02,11.11,9.02,10.31,0,21.13-8.43,21.13-17.16,0-5.86-4.96-9.13-11.11-9.13-9.63,0-21.13,8.14-21.13,17.27"/><path d="M2013.85,457.79c0,4.26,3.07,9.02,11.11,9.02,10.31,0,21.13-8.43,21.13-17.16,0-5.86-4.96-9.13-11.11-9.13-9.63,0-21.13,8.14-21.13,17.27"/><path d="M2338.25,124.11c0,4.26,3.07,9.02,11.11,9.02,10.31,0,21.13-8.43,21.13-17.16,0-5.86-4.96-9.13-11.11-9.13-9.63,0-21.13,8.14-21.13,17.27"/><path d="M2408.15,148.91c0,4.26,3.07,9.02,11.11,9.02,10.31,0,21.13-8.43,21.13-17.16,0-5.86-4.96-9.13-11.11-9.13-9.63,0-21.13,8.14-21.13,17.27"/><path d="M2478.04,148.91c0,4.26,3.07,9.02,11.11,9.02,10.31,0,21.13-8.43,21.13-17.16,0-5.86-4.96-9.13-11.11-9.13-9.63,0-21.13,8.14-21.13,17.27"/><path d="M274.62,470.19c0,4.26,3.07,9.02,11.11,9.02,10.31,0,21.13-8.43,21.13-17.16,0-5.86-4.96-9.13-11.11-9.13-9.63,0-21.13,8.14-21.13,17.27"/><path d="M332.95,470.19c0,4.26,3.07,9.02,11.11,9.02,10.31,0,21.13-8.43,21.13-17.16,0-5.86-4.96-9.13-11.11-9.13-9.63,0-21.13,8.14-21.13,17.27"/><path d="M391.27,457.79c0,4.26,3.07,9.02,11.11,9.02,10.31,0,21.13-8.43,21.13-17.16,0-5.86-4.96-9.13-11.11-9.13-9.63,0-21.13,8.14-21.13,17.27"/><path d="M449.6,457.79c0,4.26,3.07,9.02,11.11,9.02,10.31,0,21.13-8.43,21.13-17.16,0-5.86-4.96-9.13-11.11-9.13-9.63,0-21.13,8.14-21.13,17.27"/><path d="M507.92,445.39c0,4.26,3.07,9.02,11.11,9.02,10.31,0,21.13-8.43,21.13-17.16,0-5.86-4.96-9.13-11.11-9.13-9.63,0-21.13,8.14-21.13,17.27"/><path d="M566.25,445.39c0,4.26,3.07,9.02,11.11,9.02,10.31,0,21.13-8.43,21.13-17.16,0-5.86-4.96-9.13-11.11-9.13-9.63,0-21.13,8.14-21.13,17.27"/><path d="M624.57,470.19c0,4.26,3.07,9.02,11.11,9.02,10.31,0,21.13-8.43,21.13-17.16,0-5.86-4.96-9.13-11.11-9.13-9.63,0-21.13,8.14-21.13,17.27"/><path d="M682.9,470.19c0,4.26,3.07,9.02,11.11,9.02,10.31,0,21.13-8.43,21.13-17.16,0-5.86-4.96-9.13-11.11-9.13-9.63,0-21.13,8.14-21.13,17.27"/><path d="M741.22,494.99c0,4.26,3.07,9.02,11.11,9.02,10.31,0,21.13-8.43,21.13-17.16,0-5.86-4.96-9.13-11.11-9.13-9.63,0-21.13,8.14-21.13,17.27"/><path d="M799.54,494.99c0,4.26,3.07,9.02,11.11,9.02,10.31,0,21.13-8.43,21.13-17.16,0-5.86-4.96-9.13-11.11-9.13-9.63,0-21.13,8.14-21.13,17.27"/><path d="M857.87,482.59c0,4.26,3.07,9.02,11.11,9.02,10.31,0,21.13-8.43,21.13-17.16,0-5.86-4.96-9.13-11.11-9.13-9.63,0-21.13,8.14-21.13,17.27"/><path d="M916.19,482.59c0,4.26,3.07,9.02,11.11,9.02,10.31,0,21.13-8.43,21.13-17.16,0-5.86-4.96-9.13-11.11-9.13-9.63,0-21.13,8.14-21.13,17.27"/><path d="M974.52,470.19c0,4.26,3.07,9.02,11.11,9.02,10.31,0,21.13-8.43,21.13-17.16,0-5.86-4.96-9.13-11.11-9.13-9.63,0-21.13,8.14-21.13,17.27"/><path d="M1032.84,470.19c0,4.26,3.07,9.02,11.11,9.02,10.31,0,21.13-8.43,21.13-17.16,0-5.86-4.96-9.13-11.11-9.13-9.63,0-21.13,8.14-21.13,17.27"/><path d="M1091.17,494.99c0,4.26,3.07,9.02,11.11,9.02,10.31,0,21.13-8.43,21.13-17.16,0-5.86-4.96-9.13-11.11-9.13-9.63,0-21.13,8.14-21.13,17.27"/><path d="M1149.49,494.99c0,4.26,3.07,9.02,11.11,9.02,10.31,0,21.13-8.43,21.13-17.16,0-5.86-4.96-9.13-11.11-9.13-9.63,0-21.13,8.14-21.13,17.27"/><path d="M1255.63,482.59c0,4.26,3.07,9.02,11.11,9.02,10.31,0,21.13-8.43,21.13-17.16,0-5.86-4.96-9.13-11.11-9.13-9.63,0-21.13,8.14-21.13,17.27"/><path d="M1313.96,482.59c0,4.26,3.07,9.02,11.11,9.02,10.31,0,21.13-8.43,21.13-17.16,0-5.86-4.96-9.13-11.11-9.13-9.63,0-21.13,8.14-21.13,17.27"/><path d="M2130.5,470.19c0,4.26,3.07,9.02,11.11,9.02,10.31,0,21.13-8.43,21.13-17.16,0-5.86-4.96-9.13-11.11-9.13-9.63,0-21.13,8.14-21.13,17.27"/><path d="M2072.18,470.19c0,4.26,3.07,9.02,11.11,9.02,10.31,0,21.13-8.43,21.13-17.16,0-5.86-4.96-9.13-11.11-9.13-9.63,0-21.13,8.14-21.13,17.27"/><path d="M1663.91,482.59c0,4.26,3.07,9.02,11.11,9.02,10.31,0,21.13-8.43,21.13-17.16,0-5.86-4.96-9.13-11.11-9.13-9.63,0-21.13,8.14-21.13,17.27"/><path d="M1605.58,482.59c0,4.26,3.07,9.02,11.11,9.02,10.31,0,21.13-8.43,21.13-17.16,0-5.86-4.96-9.13-11.11-9.13-9.63,0-21.13,8.14-21.13,17.27"/><path d="M1547.26,470.19c0,4.26,3.07,9.02,11.11,9.02,10.31,0,21.13-8.43,21.13-17.16,0-5.86-4.96-9.13-11.11-9.13-9.63,0-21.13,8.14-21.13,17.27"/><path d="M1488.93,470.19c0,4.26,3.07,9.02,11.11,9.02,10.31,0,21.13-8.43,21.13-17.16,0-5.86-4.96-9.13-11.11-9.13-9.63,0-21.13,8.14-21.13,17.27"/><path d="M1430.61,457.79c0,4.26,3.07,9.02,11.11,9.02,10.31,0,21.13-8.43,21.13-17.16,0-5.86-4.96-9.13-11.11-9.13-9.63,0-21.13,8.14-21.13,17.27"/><path d="M1372.28,457.79c0,4.26,3.07,9.02,11.11,9.02,10.31,0,21.13-8.43,21.13-17.16,0-5.86-4.96-9.13-11.11-9.13-9.63,0-21.13,8.14-21.13,17.27"/><path d="M30.8,170.83c0,6.56,4.96,15.19,18.35,15.19,4.67,0,8.74-1.19,12.31-3.38,5.36-3.77,6.74-10.32,6.74-16.57,0-3.86-.59-8.32-1.58-13.98-.29-1.98-.9-4.96-1.49-8.84,9.72-3.18,16.96-13.3,16.96-23.51,0-14.97-10.62-25.09-25.09-25.09-.99-5.95-1.98-11.81-2.77-17.36,10.42-11.02,17.65-23.42,17.65-39.18,0-9.04-2.77-16.37-4.37-19.95-2.37-5.05-5.25-8.53-7.04-8.53-.7,0-3.77,1.19-7.04,5.05-6.36,7.55-8.14,20.24-8.14,28.57,0,5.36,.5,10.23,2.19,21.34-.11,.09-5.27,5.35-7.35,7.04-9.04,8.34-21.53,20.43-21.53,40.28,0,18.54,16.17,33.12,34.63,33.12,2.87,0,5.55-.29,7.83-.7,1.89,9.53,3.08,16.48,3.08,21.73,0,10.32-5.36,15.78-15.38,15.78-2.39,0-4.46-.5-4.67-.5-.09-.11-.29-.2-.29-.29,0-.2,.2-.31,.5-.31,4.67-.79,9.32-4.76,9.32-11.1,0-5.36-4.06-11.02-11.5-11.02-6.94,0-11.31,5.66-11.31,12.2M51.54,38.39c.9-3.97,5.46-14.38,10.62-14.38,1.49,0,3.86,4.76,3.86,11.7,0,10.32-7.63,18.06-14.48,24.8-.59-3.97-1.08-7.83-1.08-12,0-3.67,.29-7.05,1.08-10.12m8.73,101.97c-1.98,.4-3.86,.6-5.75,.6-14.18,0-26.29-9.92-26.29-24.91,0-12.09,8.53-22.91,17.27-30.46,1.67-1.49,3.27-2.87,4.76-4.36,.88,5.35,1.58,10.01,2.28,14.09-9.04,2.68-15.17,12.2-15.17,21.53,0,6.94,5.46,16.46,13.39,16.46,.79,0,1.69-.4,1.69-1.29s-.99-1.39-2.19-2.19c-3.88-2.39-6.06-4.96-6.06-9.83,0-6.05,4.57-10.91,10.32-12.29l5.75,32.63m14.09-18.35c0,7.05-2.88,14.29-9.92,17.17-2.08-11.9-4.76-27.68-5.46-32.05,8.93,0,15.38,6.06,15.38,14.88"/><path d="M30.8,504.51c0,6.56,4.96,15.19,18.35,15.19,4.67,0,8.74-1.19,12.31-3.38,5.36-3.77,6.74-10.32,6.74-16.57,0-3.86-.59-8.32-1.58-13.98-.29-1.98-.9-4.96-1.49-8.84,9.72-3.18,16.96-13.3,16.96-23.51,0-14.97-10.62-25.09-25.09-25.09-.99-5.95-1.98-11.81-2.77-17.36,10.42-11.02,17.65-23.42,17.65-39.18,0-9.04-2.77-16.37-4.37-19.95-2.37-5.05-5.25-8.53-7.04-8.53-.7,0-3.77,1.19-7.04,5.05-6.36,7.55-8.14,20.24-8.14,28.57,0,5.36,.5,10.23,2.19,21.34-.11,.09-5.27,5.35-7.35,7.04-9.04,8.34-21.53,20.43-21.53,40.28,0,18.54,16.17,33.12,34.63,33.12,2.87,0,5.55-.29,7.83-.7,1.89,9.53,3.08,16.48,3.08,21.73,0,10.32-5.36,15.78-15.38,15.78-2.39,0-4.46-.5-4.67-.5-.09-.11-.29-.2-.29-.29,0-.2,.2-.31,.5-.31,4.67-.79,9.32-4.76,9.32-11.1,0-5.36-4.06-11.02-11.5-11.02-6.94,0-11.31,5.66-11.31,12.2m20.74-132.43c.9-3.97,5.46-14.38,10.62-14.38,1.49,0,3.86,4.76,3.86,11.7,0,10.32-7.63,18.06-14.48,24.8-.59-3.97-1.08-7.83-1.08-12,0-3.67,.29-7.05,1.08-10.12m8.73,101.97c-1.98,.4-3.86,.6-5.75,.6-14.18,0-26.29-9.92-26.29-24.91,0-12.09,8.53-22.91,17.27-30.46,1.67-1.49,3.27-2.87,4.76-4.36,.88,5.35,1.58,10.01,2.28,14.09-9.04,2.68-15.17,12.2-15.17,21.53,0,6.94,5.46,16.46,13.39,16.46,.79,0,1.69-.4,1.69-1.29s-.99-1.39-2.19-2.19c-3.88-2.39-6.06-4.96-6.06-9.83,0-6.05,4.57-10.91,10.32-12.29l5.75,32.63m14.09-18.35c0,7.05-2.88,14.29-9.92,17.17-2.08-11.9-4.76-27.68-5.46-32.05,8.93,0,15.38,6.06,15.38,14.88"/><path d="M129.99,35.12c.6-.09,1.1-.79,1.1-1.4v-5.84c0-.99-.7-1.39-1.6-1.39l-3.27,.7V12.4h-2.77v15.38l-8.83,1.8V15.58h-2.77v14.59l-3.88,.79c-.59,.11-1.09,.79-1.09,1.39v5.75c0,1.09,.79,1.4,1.69,1.4l3.27-.7v16.37l-3.88,.79c-.59,.09-1.09,.79-1.09,1.4v5.75c0,1.09,.79,1.38,1.69,1.38l3.27-.68v14.77h2.77v-15.38l8.83-1.78v14h2.77v-14.59l3.77-.7c.6-.11,1.1-.79,1.1-1.39v-5.84c0-.99-.7-1.4-1.6-1.4l-3.27,.7v-16.37l3.77-.7m-15.38,3.07l8.83-1.78v16.37l-8.83,1.89v-16.48"/><path d="M157.16,72.32c.6-.09,1.1-.79,1.1-1.4v-5.84c0-.99-.7-1.39-1.6-1.39l-3.27,.7v-14.79h-2.77v15.38l-8.83,1.8v-14h-2.77v14.59l-3.88,.79c-.59,.11-1.09,.79-1.09,1.39v5.75c0,1.09,.79,1.4,1.69,1.4l3.27-.7v16.37l-3.88,.79c-.59,.09-1.09,.79-1.09,1.4v5.75c0,1.09,.79,1.38,1.69,1.38l3.27-.68v14.77h2.77v-15.38l8.83-1.78v14h2.77v-14.59l3.77-.7c.6-.11,1.1-.79,1.1-1.39v-5.84c0-.99-.7-1.4-1.6-1.4l-3.27,.7v-16.37l3.77-.7m-15.38,3.07l8.83-1.78v16.37l-8.83,1.89v-16.48"/><path d="M184.33,22.72c.6-.09,1.1-.79,1.1-1.4v-5.84c0-.99-.7-1.39-1.6-1.39l-3.27,.7V0h-2.77V15.38l-8.83,1.8V3.18h-2.77v14.59l-3.88,.79c-.59,.11-1.09,.79-1.09,1.39v5.75c0,1.09,.79,1.4,1.69,1.4l3.27-.7v16.37l-3.88,.79c-.59,.09-1.09,.79-1.09,1.4v5.75c0,1.09,.79,1.38,1.69,1.38l3.27-.68v14.77h2.77v-15.38l8.83-1.78v14h2.77v-14.59l3.77-.7c.6-.11,1.1-.79,1.1-1.39v-5.84c0-.99-.7-1.4-1.6-1.4l-3.27,.7V23.42l3.77-.7m-15.38,3.07l8.83-1.78v16.37l-8.83,1.89V25.79"/><path d="M211.52,59.92c.6-.09,1.1-.79,1.1-1.4v-5.84c0-.99-.7-1.39-1.6-1.39l-3.27,.7v-14.79h-2.77v15.38l-8.83,1.8v-14h-2.77v14.59l-3.88,.79c-.59,.11-1.09,.79-1.09,1.39v5.75c0,1.09,.79,1.4,1.69,1.4l3.27-.7v16.37l-3.88,.79c-.59,.09-1.09,.79-1.09,1.4v5.75c0,1.09,.79,1.38,1.69,1.38l3.27-.68v14.77h2.77v-15.38l8.83-1.78v14h2.77v-14.59l3.77-.7c.6-.11,1.1-.79,1.1-1.39v-5.84c0-.99-.7-1.4-1.6-1.4l-3.27,.7v-16.37l3.77-.7m-15.38,3.07l8.83-1.78v16.37l-8.83,1.89v-16.48"/><path d="M129.99,368.8c.6-.09,1.1-.79,1.1-1.4v-5.84c0-.99-.7-1.39-1.6-1.39l-3.27,.7v-14.79h-2.77v15.38l-8.83,1.8v-14h-2.77v14.59l-3.88,.79c-.59,.11-1.09,.79-1.09,1.39v5.75c0,1.09,.79,1.4,1.69,1.4l3.27-.7v16.37l-3.88,.79c-.59,.09-1.09,.79-1.09,1.4v5.75c0,1.09,.79,1.38,1.69,1.38l3.27-.68v14.77h2.77v-15.38l8.83-1.78v14h2.77v-14.59l3.77-.7c.6-.11,1.1-.79,1.1-1.39v-5.84c0-.99-.7-1.4-1.6-1.4l-3.27,.7v-16.37l3.77-.7m-15.38,3.07l8.83-1.78v16.37l-8.83,1.89v-16.48"/><path d="M157.16,406c.6-.09,1.1-.79,1.1-1.4v-5.84c0-.99-.7-1.39-1.6-1.39l-3.27,.7v-14.79h-2.77v15.38l-8.83,1.8v-14h-2.77v14.59l-3.88,.79c-.59,.11-1.09,.79-1.09,1.39v5.75c0,1.09,.79,1.4,1.69,1.4l3.27-.7v16.37l-3.88,.79c-.59,.09-1.09,.79-1.09,1.4v5.75c0,1.09,.79,1.38,1.69,1.38l3.27-.68v14.77h2.77v-15.38l8.83-1.78v14h2.77v-14.59l3.77-.7c.6-.11,1.1-.79,1.1-1.39v-5.84c0-.99-.7-1.4-1.6-1.4l-3.27,.7v-16.37l3.77-.7m-15.38,3.07l8.83-1.78v16.37l-8.83,1.89v-16.48"/><path d="M184.33,356.4c.6-.09,1.1-.79,1.1-1.4v-5.84c0-.99-.7-1.39-1.6-1.39l-3.27,.7v-14.79h-2.77v15.38l-8.83,1.8v-14h-2.77v14.59l-3.88,.79c-.59,.11-1.09,.79-1.09,1.39v5.75c0,1.09,.79,1.4,1.69,1.4l3.27-.7v16.37l-3.88,.79c-.59,.09-1.09,.79-1.09,1.4v5.75c0,1.09,.79,1.38,1.69,1.38l3.27-.68v14.77h2.77v-15.38l8.83-1.78v14h2.77v-14.59l3.77-.7c.6-.11,1.1-.79,1.1-1.39v-5.84c0-.99-.7-1.4-1.6-1.4l-3.27,.7v-16.37l3.77-.7m-15.38,3.07l8.83-1.78v16.37l-8.83,1.89v-16.48"/><path d="M211.52,393.6c.6-.09,1.1-.79,1.1-1.4v-5.84c0-.99-.7-1.39-1.6-1.39l-3.27,.7v-14.79h-2.77v15.38l-8.83,1.8v-14h-2.77v14.59l-3.88,.79c-.59,.11-1.09,.79-1.09,1.39v5.75c0,1.09,.79,1.4,1.69,1.4l3.27-.7v16.37l-3.88,.79c-.59,.09-1.09,.79-1.09,1.4v5.75c0,1.09,.79,1.38,1.69,1.38l3.27-.68v14.77h2.77v-15.38l8.83-1.78v14h2.77v-14.59l3.77-.7c.6-.11,1.1-.79,1.1-1.39v-5.84c0-.99-.7-1.4-1.6-1.4l-3.27,.7v-16.37l3.77-.7m-15.38,3.07l8.83-1.78v16.37l-8.83,1.89v-16.48"/><path d="M2277.87,341.03c-9.32-10.12-17.56-10.71-22.71-10.71s-13.3,.59-22.63,10.71c-4.85,5.36-8.23,15.97-8.23,21.33,0,1.89,.4,3.18,1.4,3.18,2.77,0,1.38-8.54,9.72-16.97,7.33-7.33,17.16-7.44,19.55-7.44h.39c2.39,0,12.21,.11,19.55,7.44,8.34,8.43,6.94,16.97,9.72,16.97,.99,0,1.39-1.19,1.39-3.18,0-5.36-3.27-16.07-8.14-21.33m-29.56,18.94c0,3.78,3.07,6.85,6.85,6.85s6.84-3.07,6.84-6.85-3.07-6.84-6.84-6.84-6.85,3.07-6.85,6.84"/><path d="M837.1,180.19c-4.2,0-7.25,2.56-7.25,6.03,0,1.74,1,3.17,2.76,4.1,.64,.31,1.44,.67,3.13,1.36,2.26,.9,2.83,1.46,2.83,2.87,0,2.16-1.8,3.52-4.57,3.52-2.03,0-3.46-.57-3.46-1.36,0-.21,.11-.44,.28-.6,.75-.79,.83-1,.83-1.72,0-1.12-.88-2-2.04-2-1.32,0-2.32,1.11-2.32,2.68,0,2.79,2.48,4.51,6.53,4.51,4.59,0,7.75-2.51,7.75-6.15,0-1.6-.72-2.96-2-3.83-.88-.61-1.28-.77-3.47-1.57-2.61-.92-3.28-1.56-3.28-3.12,0-1.84,1.75-3.2,4.08-3.2,1.56,0,2.59,.43,2.59,1.07,0,.18-.08,.36-.2,.57-.57,.79-.64,1-.64,1.61,0,1.07,.84,1.82,2.07,1.82,1.36,0,2.28-1,2.28-2.43,0-2.44-2.43-4.16-5.9-4.16m16.75-9.76c-1.2,0-2.16,.96-2.16,2.17s.96,2.15,2.13,2.15c1.23,0,2.18-.97,2.18-2.15s-.95-2.17-2.15-2.17m.72,9.76l-7.67,.59-.16,1.46h.95c1.64,0,2.28,.36,2.28,1.23,0,.39-.07,.85-.36,1.77l-2.32,7.79c-.75,2.55-.88,3.11-.88,4.04,0,1.4,1.2,2.48,2.72,2.48,3.44,0,5.8-3.56,7.48-6.16l-1.25-.68c-2.07,3.15-3.75,4.84-4.82,4.84-.41,0-.69-.36-.69-.84,0-.39,.15-1.13,.48-2.24l4.24-14.28m12.97,0l-7.29,.59-.12,1.46h.97c1.59,0,2.23,.36,2.23,1.26,0,.36-.12,.97-.33,1.74l-4.07,13.75h3.48l1.64-5.64c1.8-6.13,5.44-10.75,8.44-10.75,1.05,0,1.69,.54,1.69,1.54,0,.82-.33,2.49-.82,4l-3.18,10.85h3.47l1.71-5.8c1-3.33,2-5.56,3.29-7.28,1.43-2,3.48-3.31,5-3.31,1,0,1.56,.51,1.56,1.47,0,.56-.21,1.43-.56,2.56l-1.85,5.69c-1.08,3.11-1.11,3.36-1.11,4.46,0,1.69,1.24,2.8,3.11,2.8,1.33,0,2.61-.64,3.97-1.9,.84-.82,1.39-1.54,3.03-3.93l-1.23-.84c-2.08,3.12-3.57,4.64-4.6,4.64-.43,0-.84-.44-.84-1,0-.36,.12-.8,.48-1.97l2.52-7.75c.28-.87,.48-2.12,.48-3,0-2.12-1.56-3.64-3.71-3.64-2.85,0-5.41,1.84-7.72,5.64,.15-.76,.23-1.44,.23-1.92,0-2.13-1.69-3.72-3.87-3.72-2.54,0-4.36,1.41-7.18,5.41l1.18-5.41m29.95,14.44c-1.36,0-2.47,1.12-2.47,2.48s1.11,2.47,2.44,2.47c1.44,0,2.51-1.08,2.51-2.47s-1.12-2.48-2.48-2.48"/><path d="M775.72,181.71c.64-.57,1-.75,1.47-.75,.41,0,.73,.18,1.05,.64,.64,.87,.88,1.03,1.52,1.03,.92,0,1.61-.75,1.61-1.75,0-1.17-1.12-2.1-2.53-2.1s-2.47,.54-4.55,2.18c-1.25-.57-2.17-.77-3.45-.77-4.44,0-8.19,3.16-8.19,6.84,0,1.93,.75,3.24,2.47,4.16-1.83,.24-2.67,.52-3.59,1.31-.8,.64-1.31,1.72-1.31,2.69,0,1.36,.64,2.2,2.19,2.95-2.36,.54-5.11,1.54-5.11,4.44,0,4,5.28,4.49,8.2,4.49,3.95,0,6.23-.49,8.19-1.77,1.72-1.11,2.72-2.83,2.72-4.72,0-4.03-4.28-4.51-7.36-4.72-3.55-.18-3.83-.23-4.39-.36-1-.23-1.48-.72-1.48-1.39,0-.97,.95-1.61,2.41-1.61,.52,0,1.11,.05,1.64,.13,1.64,.23,1.88,.28,2.88,.28,2.23,0,4-.56,5.39-1.69,1.61-1.23,2.61-3.23,2.61-5.08s-.8-3.31-2.36-4.43m-4.61,0c2.09,0,3.41,1.25,3.41,3.2,0,2.87-1.31,6.52-4.72,6.52-2.16,0-3.52-1.36-3.52-3.6,0-3.59,1.95-6.12,4.83-6.12m-4.88,17.15c1.8,0,4.69,.41,5.59,.77,1,.44,1.48,1.12,1.48,2.12,0,2.36-2.52,3.64-7.11,3.64-3.89,0-5.69-.96-5.69-3.09s2.08-3.44,5.72-3.44m35.57-18.08h-3.49l-1.87,6.41c-1.64,5.56-5.33,10.11-8.16,10.11-.97,0-1.72-.75-1.72-1.72,0-.51,.11-1.15,.44-2.26l3.92-13.13-7.72,.59-.12,1.46h.95c1.64,0,2.25,.36,2.25,1.26,0,.41-.12,.97-.33,1.74l-1.59,5.39q-1.23,4-1.23,5.23c0,2.21,1.52,3.69,3.8,3.69,2.8,0,5.08-1.64,7.44-5.33-.41,1.41-.48,1.97-.48,2.72,0,1.56,1.07,2.64,2.56,2.64,2.44,0,4.39-1.64,7.23-6l-1.2-.72c-1.95,2.92-3.52,4.53-4.39,4.53-.36,0-.72-.45-.72-.96,0-.44,.16-1.21,.47-2.36l3.97-13.29"/><path d="M707.91,192.68c-2.33,3.75-3.33,4.79-4.64,4.79-.64,0-1-.4-1-1.12,0-.52,.2-1.44,.59-2.85l7.12-23.98-7.95,.59-.17,1.44h1.25c1.64,0,2.28,.36,2.28,1.23,0,.41-.12,.93-.36,1.77l-2.64,8.88c-.72-2.08-2.28-3.24-4.61-3.24-5.75,0-11.11,6.16-11.11,12.8,0,3.92,2.52,6.59,6.28,6.59,2.72,0,4.72-1.11,6.47-3.72-.03,.33-.03,.72-.03,.89,0,1.83,.95,2.83,2.72,2.83,2.52,0,4.72-1.95,7-6.19l-1.2-.71m-10-10.69c1.95,0,3.39,1.51,3.39,3.61,0,3.62-2.55,12.11-7.19,12.11-2.16,0-3.56-1.72-3.56-4.32,0-3.79,2.72-11.4,7.36-11.4m33-1.21h-3.49l-1.88,6.41c-1.64,5.56-5.33,10.11-8.16,10.11-.97,0-1.72-.75-1.72-1.72,0-.51,.11-1.15,.44-2.26l3.92-13.13-7.72,.59-.12,1.46h.95c1.64,0,2.25,.36,2.25,1.26,0,.41-.12,.97-.33,1.74l-1.59,5.39q-1.23,4-1.23,5.23c0,2.21,1.52,3.69,3.8,3.69,2.8,0,5.08-1.64,7.44-5.33-.41,1.41-.48,1.97-.48,2.72,0,1.56,1.08,2.64,2.56,2.64,2.44,0,4.39-1.64,7.24-6l-1.2-.72c-1.95,2.92-3.52,4.53-4.39,4.53-.36,0-.72-.45-.72-.96,0-.44,.16-1.21,.47-2.36l3.97-13.29"/><path d="M635.93,181.71c.64-.57,1-.75,1.47-.75,.41,0,.73,.18,1.05,.64,.64,.87,.88,1.03,1.52,1.03,.92,0,1.61-.75,1.61-1.75,0-1.17-1.12-2.1-2.53-2.1s-2.47,.54-4.55,2.18c-1.25-.57-2.17-.77-3.45-.77-4.44,0-8.19,3.16-8.19,6.84,0,1.93,.75,3.24,2.47,4.16-1.83,.24-2.67,.52-3.59,1.31-.8,.64-1.31,1.72-1.31,2.69,0,1.36,.64,2.2,2.19,2.95-2.36,.54-5.11,1.54-5.11,4.44,0,4,5.28,4.49,8.2,4.49,3.95,0,6.23-.49,8.19-1.77,1.72-1.11,2.72-2.83,2.72-4.72,0-4.03-4.28-4.51-7.36-4.72-3.55-.18-3.83-.23-4.39-.36-1-.23-1.48-.72-1.48-1.39,0-.97,.95-1.61,2.41-1.61,.52,0,1.11,.05,1.64,.13,1.64,.23,1.88,.28,2.88,.28,2.23,0,4-.56,5.39-1.69,1.61-1.23,2.61-3.23,2.61-5.08s-.8-3.31-2.36-4.43m-4.61,0c2.09,0,3.41,1.25,3.41,3.2,0,2.87-1.31,6.52-4.72,6.52-2.16,0-3.52-1.36-3.52-3.6,0-3.59,1.95-6.12,4.83-6.12m-4.88,17.15c1.8,0,4.69,.41,5.59,.77,1,.44,1.48,1.12,1.48,2.12,0,2.36-2.52,3.64-7.11,3.64-3.89,0-5.69-.96-5.69-3.09s2.08-3.44,5.72-3.44m35.56-18.08h-3.48l-1.88,6.41c-1.64,5.56-5.33,10.11-8.16,10.11-.97,0-1.72-.75-1.72-1.72,0-.51,.11-1.15,.44-2.26l3.92-13.13-7.72,.59-.12,1.46h.95c1.64,0,2.25,.36,2.25,1.26,0,.41-.12,.97-.33,1.74l-1.59,5.39q-1.23,4-1.23,5.23c0,2.21,1.52,3.69,3.8,3.69,2.8,0,5.08-1.64,7.44-5.33-.41,1.41-.48,1.97-.48,2.72,0,1.56,1.08,2.64,2.56,2.64,2.44,0,4.39-1.64,7.23-6l-1.2-.72c-1.95,2.92-3.52,4.53-4.39,4.53-.36,0-.72-.45-.72-.96,0-.44,.16-1.21,.47-2.36l3.97-13.29"/><path d="M568.12,192.68c-2.33,3.75-3.33,4.79-4.64,4.79-.64,0-1-.4-1-1.12,0-.52,.2-1.44,.59-2.85l7.12-23.98-7.95,.59-.17,1.44h1.25c1.64,0,2.28,.36,2.28,1.23,0,.41-.12,.93-.36,1.77l-2.64,8.88c-.72-2.08-2.28-3.24-4.61-3.24-5.75,0-11.11,6.16-11.11,12.8,0,3.92,2.52,6.59,6.28,6.59,2.72,0,4.72-1.11,6.47-3.72-.03,.33-.03,.72-.03,.89,0,1.83,.95,2.83,2.72,2.83,2.52,0,4.72-1.95,7-6.19l-1.2-.71m-10-10.69c1.95,0,3.39,1.51,3.39,3.61,0,3.62-2.55,12.11-7.19,12.11-2.16,0-3.56-1.72-3.56-4.32,0-3.79,2.72-11.4,7.36-11.4m33-1.21h-3.48l-1.88,6.41c-1.64,5.56-5.33,10.11-8.16,10.11-.97,0-1.72-.75-1.72-1.72,0-.51,.11-1.15,.44-2.26l3.92-13.13-7.72,.59-.12,1.46h.95c1.64,0,2.25,.36,2.25,1.26,0,.41-.12,.97-.33,1.74l-1.59,5.39q-1.23,4-1.23,5.23c0,2.21,1.52,3.69,3.8,3.69,2.8,0,5.08-1.64,7.44-5.33-.41,1.41-.48,1.97-.48,2.72,0,1.56,1.08,2.64,2.56,2.64,2.44,0,4.39-1.64,7.23-6l-1.2-.72c-1.95,2.92-3.52,4.53-4.39,4.53-.36,0-.72-.45-.72-.96,0-.44,.16-1.21,.47-2.36l3.97-13.29"/><path d="M496.14,181.71c.64-.57,1-.75,1.47-.75,.41,0,.74,.18,1.05,.64,.64,.87,.88,1.03,1.52,1.03,.92,0,1.61-.75,1.61-1.75,0-1.17-1.12-2.1-2.53-2.1s-2.47,.54-4.55,2.18c-1.25-.57-2.17-.77-3.45-.77-4.44,0-8.19,3.16-8.19,6.84,0,1.93,.75,3.24,2.47,4.16-1.83,.24-2.67,.52-3.59,1.31-.8,.64-1.31,1.72-1.31,2.69,0,1.36,.64,2.2,2.19,2.95-2.36,.54-5.11,1.54-5.11,4.44,0,4,5.28,4.49,8.2,4.49,3.95,0,6.23-.49,8.19-1.77,1.72-1.11,2.72-2.83,2.72-4.72,0-4.03-4.28-4.51-7.36-4.72-3.55-.18-3.83-.23-4.39-.36-1-.23-1.48-.72-1.48-1.39,0-.97,.95-1.61,2.41-1.61,.52,0,1.11,.05,1.64,.13,1.64,.23,1.88,.28,2.88,.28,2.23,0,4-.56,5.39-1.69,1.61-1.23,2.61-3.23,2.61-5.08s-.8-3.31-2.36-4.43m-4.61,0c2.09,0,3.41,1.25,3.41,3.2,0,2.87-1.31,6.52-4.72,6.52-2.16,0-3.52-1.36-3.52-3.6,0-3.59,1.95-6.12,4.83-6.12m-4.88,17.15c1.8,0,4.69,.41,5.59,.77,1,.44,1.48,1.12,1.48,2.12,0,2.36-2.51,3.64-7.11,3.64-3.89,0-5.69-.96-5.69-3.09s2.08-3.44,5.72-3.44m35.56-18.08h-3.49l-1.88,6.41c-1.64,5.56-5.33,10.11-8.16,10.11-.97,0-1.72-.75-1.72-1.72,0-.51,.11-1.15,.44-2.26l3.92-13.13-7.72,.59-.12,1.46h.95c1.64,0,2.25,.36,2.25,1.26,0,.41-.12,.97-.33,1.74l-1.59,5.39q-1.23,4-1.23,5.23c0,2.21,1.51,3.69,3.8,3.69,2.8,0,5.08-1.64,7.44-5.33-.41,1.41-.48,1.97-.48,2.72,0,1.56,1.08,2.64,2.56,2.64,2.44,0,4.39-1.64,7.24-6l-1.2-.72c-1.95,2.92-3.51,4.53-4.39,4.53-.36,0-.72-.45-.72-.96,0-.44,.16-1.21,.47-2.36l3.97-13.29"/><path d="M428.33,192.68c-2.33,3.75-3.33,4.79-4.64,4.79-.64,0-1-.4-1-1.12,0-.52,.2-1.44,.59-2.85l7.12-23.98-7.95,.59-.17,1.44h1.25c1.64,0,2.28,.36,2.28,1.23,0,.41-.12,.93-.36,1.77l-2.64,8.88c-.72-2.08-2.28-3.24-4.61-3.24-5.75,0-11.11,6.16-11.11,12.8,0,3.92,2.52,6.59,6.28,6.59,2.72,0,4.72-1.11,6.47-3.72-.03,.33-.03,.72-.03,.89,0,1.83,.95,2.83,2.72,2.83,2.52,0,4.72-1.95,7-6.19l-1.2-.71m-10-10.69c1.95,0,3.39,1.51,3.39,3.61,0,3.62-2.55,12.11-7.19,12.11-2.16,0-3.56-1.72-3.56-4.32,0-3.79,2.72-11.4,7.36-11.4m33-1.21h-3.48l-1.88,6.41c-1.64,5.56-5.33,10.11-8.16,10.11-.97,0-1.72-.75-1.72-1.72,0-.51,.11-1.15,.44-2.26l3.92-13.13-7.72,.59-.12,1.46h.95c1.64,0,2.25,.36,2.25,1.26,0,.41-.12,.97-.33,1.74l-1.59,5.39q-1.23,4-1.23,5.23c0,2.21,1.52,3.69,3.8,3.69,2.8,0,5.08-1.64,7.44-5.33-.41,1.41-.48,1.97-.48,2.72,0,1.56,1.08,2.64,2.56,2.64,2.44,0,4.39-1.64,7.23-6l-1.2-.72c-1.95,2.92-3.52,4.53-4.39,4.53-.36,0-.72-.45-.72-.96,0-.44,.16-1.21,.47-2.36l3.97-13.29"/><path d="M356.36,181.71c.64-.57,1-.75,1.47-.75,.41,0,.73,.18,1.05,.64,.64,.87,.88,1.03,1.52,1.03,.92,0,1.61-.75,1.61-1.75,0-1.17-1.12-2.1-2.53-2.1s-2.47,.54-4.55,2.18c-1.25-.57-2.17-.77-3.45-.77-4.44,0-8.19,3.16-8.19,6.84,0,1.93,.75,3.24,2.47,4.16-1.83,.24-2.67,.52-3.59,1.31-.8,.64-1.31,1.72-1.31,2.69,0,1.36,.64,2.2,2.19,2.95-2.36,.54-5.11,1.54-5.11,4.44,0,4,5.28,4.49,8.2,4.49,3.95,0,6.23-.49,8.19-1.77,1.72-1.11,2.72-2.83,2.72-4.72,0-4.03-4.28-4.51-7.36-4.72-3.55-.18-3.83-.23-4.39-.36-1-.23-1.48-.72-1.48-1.39,0-.97,.95-1.61,2.41-1.61,.52,0,1.11,.05,1.64,.13,1.64,.23,1.88,.28,2.88,.28,2.23,0,4-.56,5.39-1.69,1.61-1.23,2.61-3.23,2.61-5.08s-.8-3.31-2.36-4.43m-4.61,0c2.09,0,3.41,1.25,3.41,3.2,0,2.87-1.31,6.52-4.72,6.52-2.16,0-3.52-1.36-3.52-3.6,0-3.59,1.95-6.12,4.83-6.12m-4.88,17.15c1.8,0,4.69,.41,5.59,.77,1,.44,1.48,1.12,1.48,2.12,0,2.36-2.52,3.64-7.11,3.64-3.89,0-5.69-.96-5.69-3.09s2.08-3.44,5.72-3.44m35.56-18.08h-3.48l-1.88,6.41c-1.64,5.56-5.33,10.11-8.16,10.11-.97,0-1.72-.75-1.72-1.72,0-.51,.11-1.15,.44-2.26l3.92-13.13-7.72,.59-.12,1.46h.95c1.64,0,2.25,.36,2.25,1.26,0,.41-.12,.97-.33,1.74l-1.59,5.39q-1.23,4-1.23,5.23c0,2.21,1.52,3.69,3.8,3.69,2.8,0,5.08-1.64,7.44-5.33-.41,1.41-.48,1.97-.48,2.72,0,1.56,1.08,2.64,2.56,2.64,2.44,0,4.39-1.64,7.23-6l-1.2-.72c-1.95,2.92-3.52,4.53-4.39,4.53-.36,0-.72-.45-.72-.96,0-.44,.16-1.21,.47-2.36l3.97-13.29"/><path d="M288.54,192.68c-2.33,3.75-3.33,4.79-4.64,4.79-.64,0-1-.4-1-1.12,0-.52,.2-1.44,.59-2.85l7.12-23.98-7.95,.59-.17,1.44h1.25c1.64,0,2.28,.36,2.28,1.23,0,.41-.12,.93-.36,1.77l-2.64,8.88c-.72-2.08-2.28-3.24-4.61-3.24-5.75,0-11.11,6.16-11.11,12.8,0,3.92,2.52,6.59,6.28,6.59,2.72,0,4.72-1.11,6.47-3.72-.03,.33-.03,.72-.03,.89,0,1.83,.95,2.83,2.72,2.83,2.52,0,4.72-1.95,7-6.19l-1.2-.71m-10-10.69c1.95,0,3.39,1.51,3.39,3.61,0,3.62-2.55,12.11-7.19,12.11-2.16,0-3.56-1.72-3.56-4.32,0-3.79,2.72-11.4,7.36-11.4m33-1.21h-3.48l-1.88,6.41c-1.64,5.56-5.33,10.11-8.16,10.11-.97,0-1.72-.75-1.72-1.72,0-.51,.11-1.15,.44-2.26l3.92-13.13-7.72,.59-.12,1.46h.95c1.64,0,2.25,.36,2.25,1.26,0,.41-.12,.97-.33,1.74l-1.59,5.39q-1.23,4-1.23,5.23c0,2.21,1.52,3.69,3.8,3.69,2.8,0,5.08-1.64,7.44-5.33-.41,1.41-.49,1.97-.49,2.72,0,1.56,1.08,2.64,2.56,2.64,2.44,0,4.39-1.64,7.23-6l-1.2-.72c-1.95,2.92-3.51,4.53-4.39,4.53-.36,0-.72-.45-.72-.96,0-.44,.16-1.21,.47-2.36l3.97-13.29"/><path d="M304.37,379.22l177.46-6.2v12.4l-177.46,6.2v-12.4" fill-rule="evenodd"/><path d="M304.37,397.82l177.46-6.2v12.4l-177.46,6.2v-12.4" fill-rule="evenodd"/><path d="M2298.11,39.34l212.16,6.2v12.4l-212.16-6.2v-12.4" fill-rule="evenodd"/><path d="M2298.11,57.94l212.16,6.2v12.4l-212.16-6.2v-12.4" fill-rule="evenodd"/><path d="M1985.28,373.02l177.46,6.2v12.4l-177.46-6.2v-12.4" fill-rule="evenodd"/><path d="M1985.28,391.62l177.46,6.2v12.4l-177.46-6.2v-12.4" fill-rule="evenodd"/><path d="M2018.53,45.54l212.17-6.2v12.4l-212.17,6.2v-12.4" fill-rule="evenodd"/><path d="M2018.53,64.14l212.17-6.2v12.4l-212.17,6.2v-12.4" fill-rule="evenodd"/><path d="M1738.96,14.54l212.16,6.2v12.4l-212.16-6.2V14.54" fill-rule="evenodd"/><path d="M1738.96,33.14l212.16,6.2v12.4l-212.16-6.2v-12.4" fill-rule="evenodd"/><path d="M1143.1,20.74l212.16,6.2v12.4l-212.16-6.2v-12.4" fill-rule="evenodd"/><path d="M1143.1,39.34l212.16,6.2v12.4l-212.16-6.2v-12.4" fill-rule="evenodd"/><path d="M863.52,45.54l212.17-6.2v12.4l-212.17,6.2v-12.4" fill-rule="evenodd"/><path d="M863.52,64.14l212.17-6.2v12.4l-212.17,6.2v-12.4" fill-rule="evenodd"/><path d="M1459.38,26.94l212.16-6.2v12.4l-212.16,6.2v-12.4" fill-rule="evenodd"/><path d="M1459.38,45.54l212.16-6.2v12.4l-212.16,6.2v-12.4" fill-rule="evenodd"/><path d="M1751.98,360.62l177.46-6.2v12.4l-177.46,6.2v-12.4" fill-rule="evenodd"/><path d="M1751.98,379.22l177.46-6.2v12.4l-177.46,6.2v-12.4" fill-rule="evenodd"/><path d="M1518.68,373.02l177.46,6.2v12.4l-177.46-6.2v-12.4" fill-rule="evenodd"/><path d="M1518.68,391.62l177.46,6.2v12.4l-177.46-6.2v-12.4" fill-rule="evenodd"/><path d="M583.95,39.34l212.16,6.2v12.4l-212.16-6.2v-12.4" fill-rule="evenodd"/><path d="M583.95,57.94l212.16,6.2v12.4l-212.16-6.2v-12.4" fill-rule="evenodd"/><path d="M304.37,45.54l212.16-6.2v12.4l-212.16,6.2v-12.4" fill-rule="evenodd"/><path d="M304.37,64.14l212.16-6.2v12.4l-212.16,6.2v-12.4" fill-rule="evenodd"/><path d="M1285.38,379.22l177.46-6.2v12.4l-177.46,6.2v-12.4" fill-rule="evenodd"/><path d="M1285.38,397.82l177.46-6.2v12.4l-177.46,6.2v-12.4" fill-rule="evenodd"/><path d="M1004.27,373.02l177.46,6.2v12.4l-177.46-6.2v-12.4" fill-rule="evenodd"/><path d="M1004.27,391.62l177.46,6.2v12.4l-177.46-6.2v-12.4" fill-rule="evenodd"/><path d="M770.97,404.02l177.46-6.2v12.4l-177.46,6.2v-12.4" fill-rule="evenodd"/><path d="M770.97,422.62l177.46-6.2v12.4l-177.46,6.2v-12.4" fill-rule="evenodd"/><path d="M537.67,354.42l177.46,6.2v12.4l-177.46-6.2v-12.4" fill-rule="evenodd"/><path d="M537.67,373.02l177.46,6.2v12.4l-177.46-6.2v-12.4" fill-rule="evenodd"/></g></svg>