<?xml version="1.0" encoding="UTF-8"?><svg id="Ebene_2" xmlns="http://www.w3.org/2000/svg" viewBox="0 0 2815.2 843.75"><g id="Ebene_1-2"><line y1="35.91" x2="2815.2" y2="35.91" fill="none" stroke="#000" stroke-linejoin="bevel" stroke-width="2.73"/><line y1="60.71" x2="2815.2" y2="60.71" fill="none" stroke="#000" stroke-linejoin="bevel" stroke-width="2.73"/><line y1="85.51" x2="2815.2" y2="85.51" fill="none" stroke="#000" stroke-linejoin="bevel" stroke-width="2.73"/><line y1="110.31" x2="2815.2" y2="110.31" fill="none" stroke="#000" stroke-linejoin="bevel" stroke-width="2.73"/><line y1="135.11" x2="2815.2" y2="135.11" fill="none" stroke="#000" stroke-linejoin="bevel" stroke-width="2.73"/><line y1="369.59" x2="2815.2" y2="369.59" fill="none" stroke="#000" stroke-linejoin="bevel" stroke-width="2.73"/><line y1="394.39" x2="2815.2" y2="394.39" fill="none" stroke="#000" stroke-linejoin="bevel" stroke-width="2.73"/><line y1="419.19" x2="2815.2" y2="419.19" fill="none" stroke="#000" stroke-linejoin="bevel" stroke-width="2.73"/><line y1="443.99" x2="2815.2" y2="443.99" fill="none" stroke="#000" stroke-linejoin="bevel" stroke-width="2.73"/><line y1="468.79" x2="2815.2" y2="468.79" fill="none" stroke="#000" stroke-linejoin="bevel" stroke-width="2.73"/><line y1="703.27" x2="2815.2" y2="703.27" fill="none" stroke="#000" stroke-linejoin="bevel" stroke-width="2.73"/><line y1="728.07" x2="2815.2" y2="728.07" fill="none" stroke="#000" stroke-linejoin="bevel" stroke-width="2.73"/><line y1="752.87" x2="2815.2" y2="752.87" fill="none" stroke="#000" stroke-linejoin="bevel" stroke-width="2.73"/><line y1="777.67" x2="2815.2" y2="777.67" fill="none" stroke="#000" stroke-linejoin="bevel" stroke-width="2.73"/><line y1="802.47" x2="2815.2" y2="802.47" fill="none" stroke="#000" stroke-linejoin="bevel" stroke-width="2.73"/><line x1="1945.21" y1="368.23" x2="1945.21" y2="470.15" fill="none" stroke="#000" stroke-linejoin="bevel" stroke-width="4.46"/><line x1="2812.97" y1="34.55" x2="2812.97" y2="136.47" fill="none" stroke="#000" stroke-linejoin="bevel" stroke-width="4.46"/><line x1="2799.33" y1="701.91" x2="2799.33" y2="803.83" fill="none" stroke="#000" stroke-linejoin="bevel" stroke-width="4.46"/><line x1="2812.97" y1="701.91" x2="2812.97" y2="803.83" fill="none" stroke="#000" stroke-linejoin="bevel" stroke-width="4.46"/><line x1="2812.97" y1="368.23" x2="2812.97" y2="470.15" fill="none" stroke="#000" stroke-linejoin="bevel" stroke-width="4.46"/><line x1="1316.16" y1="701.91" x2="1316.16" y2="803.83" fill="none" stroke="#000" stroke-linejoin="bevel" stroke-width="4.46"/><line x1="1077.45" y1="368.23" x2="1077.45" y2="470.15" fill="none" stroke="#000" stroke-linejoin="bevel" stroke-width="4.46"/><line x1="1076.58" y1="34.55" x2="1076.58" y2="136.47" fill="none" stroke="#000" stroke-linejoin="bevel" stroke-width="4.46"/><line x1="2422.63" y1="701.91" x2="2422.63" y2="803.83" fill="none" stroke="#000" stroke-linejoin="bevel" stroke-width="4.46"/><line x1="1943.48" y1="34.55" x2="1943.48" y2="136.47" fill="none" stroke="#000" stroke-linejoin="bevel" stroke-width="4.46"/><line x1="1750.65" y1="118.74" x2="1750.65" y2="42.11" fill="none" stroke="#000" stroke-linejoin="bevel" stroke-width="2.48"/><line x1="1801.37" y1="118.74" x2="1801.37" y2="42.11" fill="none" stroke="#000" stroke-linejoin="bevel" stroke-width="2.48"/><line x1="1852.09" y1="118.74" x2="1852.09" y2="42.11" fill="none" stroke="#000" stroke-linejoin="bevel" stroke-width="2.48"/><line x1="1902.81" y1="118.74" x2="1902.81" y2="42.11" fill="none" stroke="#000" stroke-linejoin="bevel" stroke-width="2.48"/><line x1="2008.94" y1="106.34" x2="2008.94" y2="35.91" fill="none" stroke="#000" stroke-linejoin="bevel" stroke-width="2.48"/><line x1="2059.66" y1="106.34" x2="2059.66" y2="35.91" fill="none" stroke="#000" stroke-linejoin="bevel" stroke-width="2.48"/><line x1="2110.38" y1="106.34" x2="2110.38" y2="35.91" fill="none" stroke="#000" stroke-linejoin="bevel" stroke-width="2.48"/><line x1="2161.09" y1="106.34" x2="2161.09" y2="35.91" fill="none" stroke="#000" stroke-linejoin="bevel" stroke-width="2.48"/><line x1="2211.81" y1="93.94" x2="2211.81" y2="17.31" fill="none" stroke="#000" stroke-linejoin="bevel" stroke-width="2.48"/><line x1="2262.53" y1="93.94" x2="2262.53" y2="17.31" fill="none" stroke="#000" stroke-linejoin="bevel" stroke-width="2.48"/><line x1="2313.24" y1="93.94" x2="2313.24" y2="17.31" fill="none" stroke="#000" stroke-linejoin="bevel" stroke-width="2.48"/><line x1="2363.96" y1="93.94" x2="2363.96" y2="17.31" fill="none" stroke="#000" stroke-linejoin="bevel" stroke-width="2.48"/><line x1="2387.52" y1="89.68" x2="2387.52" y2="159.91" fill="none" stroke="#000" stroke-linejoin="bevel" stroke-width="2.48"/><line x1="2438.24" y1="89.68" x2="2438.24" y2="159.91" fill="none" stroke="#000" stroke-linejoin="bevel" stroke-width="2.48"/><line x1="2488.96" y1="89.68" x2="2488.96" y2="159.91" fill="none" stroke="#000" stroke-linejoin="bevel" stroke-width="2.48"/><line x1="2539.67" y1="89.68" x2="2539.67" y2="159.91" fill="none" stroke="#000" stroke-linejoin="bevel" stroke-width="2.48"/><line x1="2620.14" y1="106.34" x2="2620.14" y2="35.91" fill="none" stroke="#000" stroke-linejoin="bevel" stroke-width="2.48"/><line x1="2670.86" y1="106.34" x2="2670.86" y2="35.91" fill="none" stroke="#000" stroke-linejoin="bevel" stroke-width="2.48"/><line x1="2721.58" y1="106.34" x2="2721.58" y2="35.91" fill="none" stroke="#000" stroke-linejoin="bevel" stroke-width="2.48"/><line x1="2772.29" y1="106.34" x2="2772.29" y2="35.91" fill="none" stroke="#000" stroke-linejoin="bevel" stroke-width="2.48"/><line x1="275.16" y1="464.82" x2="275.16" y2="394.39" fill="none" stroke="#000" stroke-linejoin="bevel" stroke-width="2.48"/><line x1="325.93" y1="464.82" x2="325.93" y2="394.39" fill="none" stroke="#000" stroke-linejoin="bevel" stroke-width="2.48"/><line x1="376.71" y1="464.82" x2="376.71" y2="394.39" fill="none" stroke="#000" stroke-linejoin="bevel" stroke-width="2.48"/><line x1="427.48" y1="464.82" x2="427.48" y2="394.39" fill="none" stroke="#000" stroke-linejoin="bevel" stroke-width="2.48"/><line x1="478.26" y1="452.42" x2="478.26" y2="375.79" fill="none" stroke="#000" stroke-linejoin="bevel" stroke-width="2.48"/><line x1="529.03" y1="452.42" x2="529.03" y2="375.79" fill="none" stroke="#000" stroke-linejoin="bevel" stroke-width="2.48"/><line x1="579.81" y1="452.42" x2="579.81" y2="375.79" fill="none" stroke="#000" stroke-linejoin="bevel" stroke-width="2.48"/><line x1="630.58" y1="452.42" x2="630.58" y2="375.79" fill="none" stroke="#000" stroke-linejoin="bevel" stroke-width="2.48"/><line x1="681.35" y1="440.02" x2="681.35" y2="369.59" fill="none" stroke="#000" stroke-linejoin="bevel" stroke-width="2.48"/><line x1="732.13" y1="440.02" x2="732.13" y2="369.59" fill="none" stroke="#000" stroke-linejoin="bevel" stroke-width="2.48"/><line x1="782.9" y1="440.02" x2="782.9" y2="369.59" fill="none" stroke="#000" stroke-linejoin="bevel" stroke-width="2.48"/><line x1="833.68" y1="440.02" x2="833.68" y2="369.59" fill="none" stroke="#000" stroke-linejoin="bevel" stroke-width="2.48"/><line x1="884.45" y1="464.82" x2="884.45" y2="394.39" fill="none" stroke="#000" stroke-linejoin="bevel" stroke-width="2.48"/><line x1="1381.62" y1="786.1" x2="1381.62" y2="709.47" fill="none" stroke="#000" stroke-linejoin="bevel" stroke-width="2.48"/><line x1="986" y1="464.82" x2="986" y2="394.39" fill="none" stroke="#000" stroke-linejoin="bevel" stroke-width="2.48"/><line x1="1036.78" y1="464.82" x2="1036.78" y2="394.39" fill="none" stroke="#000" stroke-linejoin="bevel" stroke-width="2.48"/><line x1="1142.91" y1="452.42" x2="1142.91" y2="375.79" fill="none" stroke="#000" stroke-linejoin="bevel" stroke-width="2.48"/><line x1="1193.69" y1="452.42" x2="1193.69" y2="375.79" fill="none" stroke="#000" stroke-linejoin="bevel" stroke-width="2.48"/><line x1="1244.46" y1="452.42" x2="1244.46" y2="375.79" fill="none" stroke="#000" stroke-linejoin="bevel" stroke-width="2.48"/><line x1="1295.24" y1="452.42" x2="1295.24" y2="375.79" fill="none" stroke="#000" stroke-linejoin="bevel" stroke-width="2.48"/><line x1="1346.01" y1="440.02" x2="1346.01" y2="369.59" fill="none" stroke="#000" stroke-linejoin="bevel" stroke-width="2.48"/><line x1="1396.79" y1="440.02" x2="1396.79" y2="369.59" fill="none" stroke="#000" stroke-linejoin="bevel" stroke-width="2.48"/><line x1="1447.56" y1="440.02" x2="1447.56" y2="369.59" fill="none" stroke="#000" stroke-linejoin="bevel" stroke-width="2.48"/><line x1="1498.34" y1="440.02" x2="1498.34" y2="369.59" fill="none" stroke="#000" stroke-linejoin="bevel" stroke-width="2.48"/><line x1="1549.11" y1="427.62" x2="1549.11" y2="350.99" fill="none" stroke="#000" stroke-linejoin="bevel" stroke-width="2.48"/><line x1="1599.89" y1="427.62" x2="1599.89" y2="350.99" fill="none" stroke="#000" stroke-linejoin="bevel" stroke-width="2.48"/><line x1="1650.66" y1="427.62" x2="1650.66" y2="350.99" fill="none" stroke="#000" stroke-linejoin="bevel" stroke-width="2.48"/><line x1="1701.44" y1="427.62" x2="1701.44" y2="350.99" fill="none" stroke="#000" stroke-linejoin="bevel" stroke-width="2.48"/><line x1="1752.21" y1="452.42" x2="1752.21" y2="375.79" fill="none" stroke="#000" stroke-linejoin="bevel" stroke-width="2.48"/><line x1="1802.99" y1="452.42" x2="1802.99" y2="375.79" fill="none" stroke="#000" stroke-linejoin="bevel" stroke-width="2.48"/><line x1="1853.76" y1="452.42" x2="1853.76" y2="375.79" fill="none" stroke="#000" stroke-linejoin="bevel" stroke-width="2.48"/><line x1="1904.54" y1="452.42" x2="1904.54" y2="375.79" fill="none" stroke="#000" stroke-linejoin="bevel" stroke-width="2.48"/><line x1="2010.67" y1="477.22" x2="2010.67" y2="400.59" fill="none" stroke="#000" stroke-linejoin="bevel" stroke-width="2.48"/><line x1="2061.45" y1="477.22" x2="2061.45" y2="400.59" fill="none" stroke="#000" stroke-linejoin="bevel" stroke-width="2.48"/><line x1="2112.22" y1="477.22" x2="2112.22" y2="400.59" fill="none" stroke="#000" stroke-linejoin="bevel" stroke-width="2.48"/><line x1="2163" y1="477.22" x2="2163" y2="400.59" fill="none" stroke="#000" stroke-linejoin="bevel" stroke-width="2.48"/><line x1="2213.77" y1="464.82" x2="2213.77" y2="394.39" fill="none" stroke="#000" stroke-linejoin="bevel" stroke-width="2.48"/><line x1="2264.55" y1="464.82" x2="2264.55" y2="394.39" fill="none" stroke="#000" stroke-linejoin="bevel" stroke-width="2.48"/><line x1="2315.32" y1="464.82" x2="2315.32" y2="394.39" fill="none" stroke="#000" stroke-linejoin="bevel" stroke-width="2.48"/><line x1="2366.1" y1="464.82" x2="2366.1" y2="394.39" fill="none" stroke="#000" stroke-linejoin="bevel" stroke-width="2.48"/><line x1="2416.87" y1="452.42" x2="2416.87" y2="375.79" fill="none" stroke="#000" stroke-linejoin="bevel" stroke-width="2.48"/><line x1="2467.65" y1="452.42" x2="2467.65" y2="375.79" fill="none" stroke="#000" stroke-linejoin="bevel" stroke-width="2.48"/><line x1="2518.42" y1="452.42" x2="2518.42" y2="375.79" fill="none" stroke="#000" stroke-linejoin="bevel" stroke-width="2.48"/><line x1="2569.2" y1="452.42" x2="2569.2" y2="375.79" fill="none" stroke="#000" stroke-linejoin="bevel" stroke-width="2.48"/><line x1="2619.97" y1="477.22" x2="2619.97" y2="400.59" fill="none" stroke="#000" stroke-linejoin="bevel" stroke-width="2.48"/><line x1="2670.74" y1="477.22" x2="2670.74" y2="400.59" fill="none" stroke="#000" stroke-linejoin="bevel" stroke-width="2.48"/><line x1="2721.52" y1="477.22" x2="2721.52" y2="400.59" fill="none" stroke="#000" stroke-linejoin="bevel" stroke-width="2.48"/><line x1="2772.29" y1="477.22" x2="2772.29" y2="400.59" fill="none" stroke="#000" stroke-linejoin="bevel" stroke-width="2.48"/><line x1="275.16" y1="798.5" x2="275.16" y2="728.07" fill="none" stroke="#000" stroke-linejoin="bevel" stroke-width="2.48"/><line x1="341.85" y1="798.5" x2="341.85" y2="728.07" fill="none" stroke="#000" stroke-linejoin="bevel" stroke-width="2.48"/><line x1="408.53" y1="798.5" x2="408.53" y2="728.07" fill="none" stroke="#000" stroke-linejoin="bevel" stroke-width="2.48"/><line x1="475.22" y1="798.5" x2="475.22" y2="728.07" fill="none" stroke="#000" stroke-linejoin="bevel" stroke-width="2.48"/><line x1="541.91" y1="773.7" x2="541.91" y2="703.27" fill="none" stroke="#000" stroke-linejoin="bevel" stroke-width="2.48"/><line x1="608.6" y1="773.7" x2="608.6" y2="703.27" fill="none" stroke="#000" stroke-linejoin="bevel" stroke-width="2.48"/><line x1="675.29" y1="773.7" x2="675.29" y2="703.27" fill="none" stroke="#000" stroke-linejoin="bevel" stroke-width="2.48"/><line x1="741.98" y1="773.7" x2="741.98" y2="703.27" fill="none" stroke="#000" stroke-linejoin="bevel" stroke-width="2.48"/><line x1="808.67" y1="786.1" x2="808.67" y2="709.47" fill="none" stroke="#000" stroke-linejoin="bevel" stroke-width="2.48"/><line x1="875.35" y1="786.1" x2="875.35" y2="709.47" fill="none" stroke="#000" stroke-linejoin="bevel" stroke-width="2.48"/><line x1="942.04" y1="786.1" x2="942.04" y2="709.47" fill="none" stroke="#000" stroke-linejoin="bevel" stroke-width="2.48"/><line x1="1008.73" y1="786.1" x2="1008.73" y2="709.47" fill="none" stroke="#000" stroke-linejoin="bevel" stroke-width="2.48"/><line x1="1075.42" y1="798.5" x2="1075.42" y2="728.07" fill="none" stroke="#000" stroke-linejoin="bevel" stroke-width="2.48"/><line x1="1142.11" y1="798.5" x2="1142.11" y2="728.07" fill="none" stroke="#000" stroke-linejoin="bevel" stroke-width="2.48"/><line x1="1208.8" y1="798.5" x2="1208.8" y2="728.07" fill="none" stroke="#000" stroke-linejoin="bevel" stroke-width="2.48"/><line x1="1275.49" y1="798.5" x2="1275.49" y2="728.07" fill="none" stroke="#000" stroke-linejoin="bevel" stroke-width="2.48"/><line x1="1448.31" y1="786.1" x2="1448.31" y2="709.47" fill="none" stroke="#000" stroke-linejoin="bevel" stroke-width="2.48"/><line x1="1515" y1="786.1" x2="1515" y2="709.47" fill="none" stroke="#000" stroke-linejoin="bevel" stroke-width="2.48"/><line x1="1581.69" y1="786.1" x2="1581.69" y2="709.47" fill="none" stroke="#000" stroke-linejoin="bevel" stroke-width="2.48"/><line x1="1648.38" y1="761.3" x2="1648.38" y2="684.67" fill="none" stroke="#000" stroke-linejoin="bevel" stroke-width="2.48"/><line x1="1715.07" y1="761.3" x2="1715.07" y2="684.67" fill="none" stroke="#000" stroke-linejoin="bevel" stroke-width="2.48"/><line x1="1781.76" y1="761.3" x2="1781.76" y2="684.67" fill="none" stroke="#000" stroke-linejoin="bevel" stroke-width="2.48"/><line x1="1848.44" y1="761.3" x2="1848.44" y2="684.67" fill="none" stroke="#000" stroke-linejoin="bevel" stroke-width="2.48"/><line x1="1915.13" y1="773.7" x2="1915.13" y2="703.27" fill="none" stroke="#000" stroke-linejoin="bevel" stroke-width="2.48"/><line x1="1981.82" y1="773.7" x2="1981.82" y2="703.27" fill="none" stroke="#000" stroke-linejoin="bevel" stroke-width="2.48"/><line x1="2048.51" y1="773.7" x2="2048.51" y2="703.27" fill="none" stroke="#000" stroke-linejoin="bevel" stroke-width="2.48"/><line x1="2115.2" y1="773.7" x2="2115.2" y2="703.27" fill="none" stroke="#000" stroke-linejoin="bevel" stroke-width="2.48"/><line x1="2181.89" y1="786.1" x2="2181.89" y2="709.47" fill="none" stroke="#000" stroke-linejoin="bevel" stroke-width="2.48"/><line x1="2248.58" y1="786.1" x2="2248.58" y2="709.47" fill="none" stroke="#000" stroke-linejoin="bevel" stroke-width="2.48"/><line x1="2315.27" y1="786.1" x2="2315.27" y2="709.47" fill="none" stroke="#000" stroke-linejoin="bevel" stroke-width="2.48"/><line x1="2381.96" y1="786.1" x2="2381.96" y2="709.47" fill="none" stroke="#000" stroke-linejoin="bevel" stroke-width="2.48"/><line x1="275.16" y1="131.14" x2="275.16" y2="60.71" fill="none" stroke="#000" stroke-linejoin="bevel" stroke-width="2.48"/><line x1="325.87" y1="131.14" x2="325.87" y2="60.71" fill="none" stroke="#000" stroke-linejoin="bevel" stroke-width="2.48"/><line x1="376.59" y1="131.14" x2="376.59" y2="60.71" fill="none" stroke="#000" stroke-linejoin="bevel" stroke-width="2.48"/><line x1="427.31" y1="131.14" x2="427.31" y2="60.71" fill="none" stroke="#000" stroke-linejoin="bevel" stroke-width="2.48"/><line x1="478.02" y1="118.74" x2="478.02" y2="42.11" fill="none" stroke="#000" stroke-linejoin="bevel" stroke-width="2.48"/><line x1="528.74" y1="118.74" x2="528.74" y2="42.11" fill="none" stroke="#000" stroke-linejoin="bevel" stroke-width="2.48"/><line x1="579.46" y1="118.74" x2="579.46" y2="42.11" fill="none" stroke="#000" stroke-linejoin="bevel" stroke-width="2.48"/><line x1="630.18" y1="118.74" x2="630.18" y2="42.11" fill="none" stroke="#000" stroke-linejoin="bevel" stroke-width="2.48"/><line x1="680.89" y1="106.34" x2="680.89" y2="35.91" fill="none" stroke="#000" stroke-linejoin="bevel" stroke-width="2.48"/><line x1="731.61" y1="106.34" x2="731.61" y2="35.91" fill="none" stroke="#000" stroke-linejoin="bevel" stroke-width="2.48"/><line x1="935.23" y1="464.82" x2="935.23" y2="394.39" fill="none" stroke="#000" stroke-linejoin="bevel" stroke-width="2.48"/><line x1="782.33" y1="106.34" x2="782.33" y2="35.91" fill="none" stroke="#000" stroke-linejoin="bevel" stroke-width="2.48"/><line x1="833.04" y1="106.34" x2="833.04" y2="35.91" fill="none" stroke="#000" stroke-linejoin="bevel" stroke-width="2.48"/><line x1="883.76" y1="131.14" x2="883.76" y2="60.71" fill="none" stroke="#000" stroke-linejoin="bevel" stroke-width="2.48"/><line x1="934.48" y1="131.14" x2="934.48" y2="60.71" fill="none" stroke="#000" stroke-linejoin="bevel" stroke-width="2.48"/><line x1="985.19" y1="131.14" x2="985.19" y2="60.71" fill="none" stroke="#000" stroke-linejoin="bevel" stroke-width="2.48"/><line x1="1035.91" y1="131.14" x2="1035.91" y2="60.71" fill="none" stroke="#000" stroke-linejoin="bevel" stroke-width="2.48"/><line x1="1142.05" y1="118.74" x2="1142.05" y2="42.11" fill="none" stroke="#000" stroke-linejoin="bevel" stroke-width="2.48"/><line x1="1192.77" y1="118.74" x2="1192.77" y2="42.11" fill="none" stroke="#000" stroke-linejoin="bevel" stroke-width="2.48"/><line x1="1243.48" y1="118.74" x2="1243.48" y2="42.11" fill="none" stroke="#000" stroke-linejoin="bevel" stroke-width="2.48"/><line x1="1294.2" y1="118.74" x2="1294.2" y2="42.11" fill="none" stroke="#000" stroke-linejoin="bevel" stroke-width="2.48"/><line x1="1344.92" y1="106.34" x2="1344.92" y2="35.91" fill="none" stroke="#000" stroke-linejoin="bevel" stroke-width="2.48"/><line x1="1395.63" y1="106.34" x2="1395.63" y2="35.91" fill="none" stroke="#000" stroke-linejoin="bevel" stroke-width="2.48"/><line x1="1446.35" y1="106.34" x2="1446.35" y2="35.91" fill="none" stroke="#000" stroke-linejoin="bevel" stroke-width="2.48"/><line x1="1497.07" y1="106.34" x2="1497.07" y2="35.91" fill="none" stroke="#000" stroke-linejoin="bevel" stroke-width="2.48"/><line x1="1547.79" y1="93.94" x2="1547.79" y2="17.31" fill="none" stroke="#000" stroke-linejoin="bevel" stroke-width="2.48"/><line x1="1598.5" y1="93.94" x2="1598.5" y2="17.31" fill="none" stroke="#000" stroke-linejoin="bevel" stroke-width="2.48"/><line x1="1649.22" y1="93.94" x2="1649.22" y2="17.31" fill="none" stroke="#000" stroke-linejoin="bevel" stroke-width="2.48"/><line x1="1699.94" y1="93.94" x2="1699.94" y2="17.31" fill="none" stroke="#000" stroke-linejoin="bevel" stroke-width="2.48"/><path d="M1365.8,448.16c0,4.26,3.07,9.02,11.11,9.02,10.31,0,21.13-8.43,21.13-17.16,0-5.86-4.96-9.13-11.11-9.13-9.63,0-21.13,8.14-21.13,17.27"/><path d="M1350.63,794.24c0,4.26,3.07,9.02,11.11,9.02,10.31,0,21.13-8.43,21.13-17.16,0-5.86-4.96-9.13-11.11-9.13-9.63,0-21.13,8.14-21.13,17.27"/><path d="M700.62,114.48c0,4.26,3.07,9.02,11.11,9.02,10.31,0,21.13-8.43,21.13-17.16,0-5.86-4.96-9.13-11.11-9.13-9.63,0-21.13,8.14-21.13,17.27"/><path d="M599.59,460.56c0,4.26,3.07,9.02,11.11,9.02,10.31,0,21.13-8.43,21.13-17.16,0-5.86-4.96-9.13-11.11-9.13-9.63,0-21.13,8.14-21.13,17.27"/><path d="M650.36,448.16c0,4.26,3.07,9.02,11.11,9.02,10.31,0,21.13-8.43,21.13-17.16,0-5.86-4.96-9.13-11.11-9.13-9.63,0-21.13,8.14-21.13,17.27"/><path d="M1244.49,806.64c0,4.26,3.07,9.02,11.11,9.02,10.31,0,21.13-8.43,21.13-17.16,0-5.86-4.96-9.13-11.11-9.13-9.63,0-21.13,8.14-21.13,17.27"/><path d="M2030.45,485.36c0,4.26,3.07,9.02,11.11,9.02,10.31,0,21.13-8.43,21.13-17.16,0-5.86-4.96-9.13-11.11-9.13-9.63,0-21.13,8.14-21.13,17.27"/><path d="M1177.81,806.64c0,4.26,3.07,9.02,11.11,9.02,10.31,0,21.13-8.43,21.13-17.16,0-5.86-4.96-9.13-11.11-9.13-9.63,0-21.13,8.14-21.13,17.27"/><path d="M955.01,472.96c0,4.26,3.07,9.02,11.11,9.02,10.31,0,21.13-8.43,21.13-17.16,0-5.86-4.96-9.13-11.11-9.13-9.63,0-21.13,8.14-21.13,17.27"/><path d="M1111.12,806.64c0,4.26,3.07,9.02,11.11,9.02,10.31,0,21.13-8.43,21.13-17.16,0-5.86-4.96-9.13-11.11-9.13-9.63,0-21.13,8.14-21.13,17.27"/><path d="M447.26,460.56c0,4.26,3.07,9.02,11.11,9.02,10.31,0,21.13-8.43,21.13-17.16,0-5.86-4.96-9.13-11.11-9.13-9.63,0-21.13,8.14-21.13,17.27"/><path d="M294.94,472.96c0,4.26,3.07,9.02,11.11,9.02,10.31,0,21.13-8.43,21.13-17.16,0-5.86-4.96-9.13-11.11-9.13-9.63,0-21.13,8.14-21.13,17.27"/><path d="M2741.3,114.48c0,4.26,3.07,9.02,11.11,9.02,10.31,0,21.13-8.43,21.13-17.16,0-5.86-4.96-9.13-11.11-9.13-9.63,0-21.13,8.14-21.13,17.27"/><path d="M1044.43,806.64c0,4.26,3.07,9.02,11.11,9.02,10.31,0,21.13-8.43,21.13-17.16,0-5.86-4.96-9.13-11.11-9.13-9.63,0-21.13,8.14-21.13,17.27"/><path d="M977.74,794.24c0,4.26,3.07,9.02,11.11,9.02,10.31,0,21.13-8.43,21.13-17.16,0-5.86-4.96-9.13-11.11-9.13-9.63,0-21.13,8.14-21.13,17.27"/><path d="M911.05,794.24c0,4.26,3.07,9.02,11.11,9.02,10.31,0,21.13-8.43,21.13-17.16,0-5.86-4.96-9.13-11.11-9.13-9.63,0-21.13,8.14-21.13,17.27"/><path d="M751.91,448.16c0,4.26,3.07,9.02,11.11,9.02,10.31,0,21.13-8.43,21.13-17.16,0-5.86-4.96-9.13-11.11-9.13-9.63,0-21.13,8.14-21.13,17.27"/><path d="M844.36,794.24c0,4.26,3.07,9.02,11.11,9.02,10.31,0,21.13-8.43,21.13-17.16,0-5.86-4.96-9.13-11.11-9.13-9.63,0-21.13,8.14-21.13,17.27"/><path d="M802.69,448.16c0,4.26,3.07,9.02,11.11,9.02,10.31,0,21.13-8.43,21.13-17.16,0-5.86-4.96-9.13-11.11-9.13-9.63,0-21.13,8.14-21.13,17.27"/><path d="M777.68,794.24c0,4.26,3.07,9.02,11.11,9.02,10.31,0,21.13-8.43,21.13-17.16,0-5.86-4.96-9.13-11.11-9.13-9.63,0-21.13,8.14-21.13,17.27"/><path d="M1873.54,460.56c0,4.26,3.07,9.02,11.11,9.02,10.31,0,21.13-8.43,21.13-17.16,0-5.86-4.96-9.13-11.11-9.13-9.63,0-21.13,8.14-21.13,17.27"/><path d="M710.99,781.84c0,4.26,3.07,9.02,11.11,9.02,10.31,0,21.13-8.43,21.13-17.16,0-5.86-4.96-9.13-11.11-9.13-9.63,0-21.13,8.14-21.13,17.27"/><path d="M1315.02,448.16c0,4.26,3.07,9.02,11.11,9.02,10.31,0,21.13-8.43,21.13-17.16,0-5.86-4.96-9.13-11.11-9.13-9.63,0-21.13,8.14-21.13,17.27"/><path d="M701.14,448.16c0,4.26,3.07,9.02,11.11,9.02,10.31,0,21.13-8.43,21.13-17.16,0-5.86-4.96-9.13-11.11-9.13-9.63,0-21.13,8.14-21.13,17.27"/><path d="M644.3,781.84c0,4.26,3.07,9.02,11.11,9.02,10.31,0,21.13-8.43,21.13-17.16,0-5.86-4.96-9.13-11.11-9.13-9.63,0-21.13,8.14-21.13,17.27"/><path d="M1822.77,460.56c0,4.26,3.07,9.02,11.11,9.02,10.31,0,21.13-8.43,21.13-17.16,0-5.86-4.96-9.13-11.11-9.13-9.63,0-21.13,8.14-21.13,17.27"/><path d="M244.16,139.28c0,4.26,3.07,9.02,11.11,9.02,10.31,0,21.13-8.43,21.13-17.16,0-5.86-4.96-9.13-11.11-9.13-9.63,0-21.13,8.14-21.13,17.27"/><path d="M577.61,781.84c0,4.26,3.07,9.02,11.11,9.02,10.31,0,21.13-8.43,21.13-17.16,0-5.86-4.96-9.13-11.11-9.13-9.63,0-21.13,8.14-21.13,17.27"/><path d="M294.88,139.28c0,4.26,3.07,9.02,11.11,9.02,10.31,0,21.13-8.43,21.13-17.16,0-5.86-4.96-9.13-11.11-9.13-9.63,0-21.13,8.14-21.13,17.27"/><path d="M244.16,472.96c0,4.26,3.07,9.02,11.11,9.02,10.31,0,21.13-8.43,21.13-17.16,0-5.86-4.96-9.13-11.11-9.13-9.63,0-21.13,8.14-21.13,17.27"/><path d="M345.6,139.28c0,4.26,3.07,9.02,11.11,9.02,10.31,0,21.13-8.43,21.13-17.16,0-5.86-4.96-9.13-11.11-9.13-9.63,0-21.13,8.14-21.13,17.27"/><path d="M396.32,139.28c0,4.26,3.07,9.02,11.11,9.02,10.31,0,21.13-8.43,21.13-17.16,0-5.86-4.96-9.13-11.11-9.13-9.63,0-21.13,8.14-21.13,17.27"/><path d="M853.46,472.96c0,4.26,3.07,9.02,11.11,9.02,10.31,0,21.13-8.43,21.13-17.16,0-5.86-4.96-9.13-11.11-9.13-9.63,0-21.13,8.14-21.13,17.27"/><path d="M447.03,126.88c0,4.26,3.07,9.02,11.11,9.02,10.31,0,21.13-8.43,21.13-17.16,0-5.86-4.96-9.13-11.11-9.13-9.63,0-21.13,8.14-21.13,17.27"/><path d="M497.75,126.88c0,4.26,3.07,9.02,11.11,9.02,10.31,0,21.13-8.43,21.13-17.16,0-5.86-4.96-9.13-11.11-9.13-9.63,0-21.13,8.14-21.13,17.27"/><path d="M510.92,781.84c0,4.26,3.07,9.02,11.11,9.02,10.31,0,21.13-8.43,21.13-17.16,0-5.86-4.96-9.13-11.11-9.13-9.63,0-21.13,8.14-21.13,17.27"/><path d="M548.47,126.88c0,4.26,3.07,9.02,11.11,9.02,10.31,0,21.13-8.43,21.13-17.16,0-5.86-4.96-9.13-11.11-9.13-9.63,0-21.13,8.14-21.13,17.27"/><path d="M599.18,126.88c0,4.26,3.07,9.02,11.11,9.02,10.31,0,21.13-8.43,21.13-17.16,0-5.86-4.96-9.13-11.11-9.13-9.63,0-21.13,8.14-21.13,17.27"/><path d="M1771.99,460.56c0,4.26,3.07,9.02,11.11,9.02,10.31,0,21.13-8.43,21.13-17.16,0-5.86-4.96-9.13-11.11-9.13-9.63,0-21.13,8.14-21.13,17.27"/><path d="M649.9,114.48c0,4.26,3.07,9.02,11.11,9.02,10.31,0,21.13-8.43,21.13-17.16,0-5.86-4.96-9.13-11.11-9.13-9.63,0-21.13,8.14-21.13,17.27"/><path d="M1979.68,485.36c0,4.26,3.07,9.02,11.11,9.02,10.31,0,21.13-8.43,21.13-17.16,0-5.86-4.96-9.13-11.11-9.13-9.63,0-21.13,8.14-21.13,17.27"/><path d="M444.23,806.64c0,4.26,3.07,9.02,11.11,9.02,10.31,0,21.13-8.43,21.13-17.16,0-5.86-4.96-9.13-11.11-9.13-9.63,0-21.13,8.14-21.13,17.27"/><path d="M751.34,114.48c0,4.26,3.07,9.02,11.11,9.02,10.31,0,21.13-8.43,21.13-17.16,0-5.86-4.96-9.13-11.11-9.13-9.63,0-21.13,8.14-21.13,17.27"/><path d="M802.05,114.48c0,4.26,3.07,9.02,11.11,9.02,10.31,0,21.13-8.43,21.13-17.16,0-5.86-4.96-9.13-11.11-9.13-9.63,0-21.13,8.14-21.13,17.27"/><path d="M852.77,139.28c0,4.26,3.07,9.02,11.11,9.02,10.31,0,21.13-8.43,21.13-17.16,0-5.86-4.96-9.13-11.11-9.13-9.63,0-21.13,8.14-21.13,17.27"/><path d="M1264.25,460.56c0,4.26,3.07,9.02,11.11,9.02,10.31,0,21.13-8.43,21.13-17.16,0-5.86-4.96-9.13-11.11-9.13-9.63,0-21.13,8.14-21.13,17.27"/><path d="M903.49,139.28c0,4.26,3.07,9.02,11.11,9.02,10.31,0,21.13-8.43,21.13-17.16,0-5.86-4.96-9.13-11.11-9.13-9.63,0-21.13,8.14-21.13,17.27"/><path d="M954.2,139.28c0,4.26,3.07,9.02,11.11,9.02,10.31,0,21.13-8.43,21.13-17.16,0-5.86-4.96-9.13-11.11-9.13-9.63,0-21.13,8.14-21.13,17.27"/><path d="M1004.92,139.28c0,4.26,3.07,9.02,11.11,9.02,10.31,0,21.13-8.43,21.13-17.16,0-5.86-4.96-9.13-11.11-9.13-9.63,0-21.13,8.14-21.13,17.27"/><path d="M1111.06,126.88c0,4.26,3.07,9.02,11.11,9.02,10.31,0,21.13-8.43,21.13-17.16,0-5.86-4.96-9.13-11.11-9.13-9.63,0-21.13,8.14-21.13,17.27"/><path d="M1161.77,126.88c0,4.26,3.07,9.02,11.11,9.02,10.31,0,21.13-8.43,21.13-17.16,0-5.86-4.96-9.13-11.11-9.13-9.63,0-21.13,8.14-21.13,17.27"/><path d="M1212.49,126.88c0,4.26,3.07,9.02,11.11,9.02,10.31,0,21.13-8.43,21.13-17.16,0-5.86-4.96-9.13-11.11-9.13-9.63,0-21.13,8.14-21.13,17.27"/><path d="M1263.21,126.88c0,4.26,3.07,9.02,11.11,9.02,10.31,0,21.13-8.43,21.13-17.16,0-5.86-4.96-9.13-11.11-9.13-9.63,0-21.13,8.14-21.13,17.27"/><path d="M1313.92,114.48c0,4.26,3.07,9.02,11.11,9.02,10.31,0,21.13-8.43,21.13-17.16,0-5.86-4.96-9.13-11.11-9.13-9.63,0-21.13,8.14-21.13,17.27"/><path d="M377.54,806.64c0,4.26,3.07,9.02,11.11,9.02,10.31,0,21.13-8.43,21.13-17.16,0-5.86-4.96-9.13-11.11-9.13-9.63,0-21.13,8.14-21.13,17.27"/><path d="M1364.64,114.48c0,4.26,3.07,9.02,11.11,9.02,10.31,0,21.13-8.43,21.13-17.16,0-5.86-4.96-9.13-11.11-9.13-9.63,0-21.13,8.14-21.13,17.27"/><path d="M1415.36,114.48c0,4.26,3.07,9.02,11.11,9.02,10.31,0,21.13-8.43,21.13-17.16,0-5.86-4.96-9.13-11.11-9.13-9.63,0-21.13,8.14-21.13,17.27"/><path d="M1466.08,114.48c0,4.26,3.07,9.02,11.11,9.02,10.31,0,21.13-8.43,21.13-17.16,0-5.86-4.96-9.13-11.11-9.13-9.63,0-21.13,8.14-21.13,17.27"/><path d="M1516.79,102.08c0,4.26,3.07,9.02,11.11,9.02,10.31,0,21.13-8.43,21.13-17.16,0-5.86-4.96-9.13-11.11-9.13-9.63,0-21.13,8.14-21.13,17.27"/><path d="M1567.51,102.08c0,4.26,3.07,9.02,11.11,9.02,10.31,0,21.13-8.43,21.13-17.16,0-5.86-4.96-9.13-11.11-9.13-9.63,0-21.13,8.14-21.13,17.27"/><path d="M1618.23,102.08c0,4.26,3.07,9.02,11.11,9.02,10.31,0,21.13-8.43,21.13-17.16,0-5.86-4.96-9.13-11.11-9.13-9.63,0-21.13,8.14-21.13,17.27"/><path d="M1668.94,102.08c0,4.26,3.07,9.02,11.11,9.02,10.31,0,21.13-8.43,21.13-17.16,0-5.86-4.96-9.13-11.11-9.13-9.63,0-21.13,8.14-21.13,17.27"/><path d="M1719.66,126.88c0,4.26,3.07,9.02,11.11,9.02,10.31,0,21.13-8.43,21.13-17.16,0-5.86-4.96-9.13-11.11-9.13-9.63,0-21.13,8.14-21.13,17.27"/><path d="M1770.38,126.88c0,4.26,3.07,9.02,11.11,9.02,10.31,0,21.13-8.43,21.13-17.16,0-5.86-4.96-9.13-11.11-9.13-9.63,0-21.13,8.14-21.13,17.27"/><path d="M1821.1,126.88c0,4.26,3.07,9.02,11.11,9.02,10.31,0,21.13-8.43,21.13-17.16,0-5.86-4.96-9.13-11.11-9.13-9.63,0-21.13,8.14-21.13,17.27"/><path d="M1871.81,126.88c0,4.26,3.07,9.02,11.11,9.02,10.31,0,21.13-8.43,21.13-17.16,0-5.86-4.96-9.13-11.11-9.13-9.63,0-21.13,8.14-21.13,17.27"/><path d="M1977.95,114.48c0,4.26,3.07,9.02,11.11,9.02,10.31,0,21.13-8.43,21.13-17.16,0-5.86-4.96-9.13-11.11-9.13-9.63,0-21.13,8.14-21.13,17.27"/><path d="M310.85,806.64c0,4.26,3.07,9.02,11.11,9.02,10.31,0,21.13-8.43,21.13-17.16,0-5.86-4.96-9.13-11.11-9.13-9.63,0-21.13,8.14-21.13,17.27"/><path d="M2028.67,114.48c0,4.26,3.07,9.02,11.11,9.02,10.31,0,21.13-8.43,21.13-17.16,0-5.86-4.96-9.13-11.11-9.13-9.63,0-21.13,8.14-21.13,17.27"/><path d="M2079.38,114.48c0,4.26,3.07,9.02,11.11,9.02,10.31,0,21.13-8.43,21.13-17.16,0-5.86-4.96-9.13-11.11-9.13-9.63,0-21.13,8.14-21.13,17.27"/><path d="M2130.1,114.48c0,4.26,3.07,9.02,11.11,9.02,10.31,0,21.13-8.43,21.13-17.16,0-5.86-4.96-9.13-11.11-9.13-9.63,0-21.13,8.14-21.13,17.27"/><path d="M2180.82,102.08c0,4.26,3.07,9.02,11.11,9.02,10.31,0,21.13-8.43,21.13-17.16,0-5.86-4.96-9.13-11.11-9.13-9.63,0-21.13,8.14-21.13,17.27"/><path d="M2231.54,102.08c0,4.26,3.07,9.02,11.11,9.02,10.31,0,21.13-8.43,21.13-17.16,0-5.86-4.96-9.13-11.11-9.13-9.63,0-21.13,8.14-21.13,17.27"/><path d="M1721.22,460.56c0,4.26,3.07,9.02,11.11,9.02,10.31,0,21.13-8.43,21.13-17.16,0-5.86-4.96-9.13-11.11-9.13-9.63,0-21.13,8.14-21.13,17.27"/><path d="M2538.2,460.56c0,4.26,3.07,9.02,11.11,9.02,10.31,0,21.13-8.43,21.13-17.16,0-5.86-4.96-9.13-11.11-9.13-9.63,0-21.13,8.14-21.13,17.27"/><path d="M1005.78,472.96c0,4.26,3.07,9.02,11.11,9.02,10.31,0,21.13-8.43,21.13-17.16,0-5.86-4.96-9.13-11.11-9.13-9.63,0-21.13,8.14-21.13,17.27"/><path d="M2588.98,485.36c0,4.26,3.07,9.02,11.11,9.02,10.31,0,21.13-8.43,21.13-17.16,0-5.86-4.96-9.13-11.11-9.13-9.63,0-21.13,8.14-21.13,17.27"/><path d="M244.16,806.64c0,4.26,3.07,9.02,11.11,9.02,10.31,0,21.13-8.43,21.13-17.16,0-5.86-4.96-9.13-11.11-9.13-9.63,0-21.13,8.14-21.13,17.27"/><path d="M1619.67,435.76c0,4.26,3.07,9.02,11.11,9.02,10.31,0,21.13-8.43,21.13-17.16,0-5.86-4.96-9.13-11.11-9.13-9.63,0-21.13,8.14-21.13,17.27"/><path d="M2639.75,485.36c0,4.26,3.07,9.02,11.11,9.02,10.31,0,21.13-8.43,21.13-17.16,0-5.86-4.96-9.13-11.11-9.13-9.63,0-21.13,8.14-21.13,17.27"/><path d="M1213.47,460.56c0,4.26,3.07,9.02,11.11,9.02,10.31,0,21.13-8.43,21.13-17.16,0-5.86-4.96-9.13-11.11-9.13-9.63,0-21.13,8.14-21.13,17.27"/><path d="M2690.53,485.36c0,4.26,3.07,9.02,11.11,9.02,10.31,0,21.13-8.43,21.13-17.16,0-5.86-4.96-9.13-11.11-9.13-9.63,0-21.13,8.14-21.13,17.27"/><path d="M1670.44,435.76c0,4.26,3.07,9.02,11.11,9.02,10.31,0,21.13-8.43,21.13-17.16,0-5.86-4.96-9.13-11.11-9.13-9.63,0-21.13,8.14-21.13,17.27"/><path d="M2741.3,485.36c0,4.26,3.07,9.02,11.11,9.02,10.31,0,21.13-8.43,21.13-17.16,0-5.86-4.96-9.13-11.11-9.13-9.63,0-21.13,8.14-21.13,17.27"/><path d="M1417.32,794.24c0,4.26,3.07,9.02,11.11,9.02,10.31,0,21.13-8.43,21.13-17.16,0-5.86-4.96-9.13-11.11-9.13-9.63,0-21.13,8.14-21.13,17.27"/><path d="M2081.23,485.36c0,4.26,3.07,9.02,11.11,9.02,10.31,0,21.13-8.43,21.13-17.16,0-5.86-4.96-9.13-11.11-9.13-9.63,0-21.13,8.14-21.13,17.27"/><path d="M1484.01,794.24c0,4.26,3.07,9.02,11.11,9.02,10.31,0,21.13-8.43,21.13-17.16,0-5.86-4.96-9.13-11.11-9.13-9.63,0-21.13,8.14-21.13,17.27"/><path d="M2690.58,114.48c0,4.26,3.07,9.02,11.11,9.02,10.31,0,21.13-8.43,21.13-17.16,0-5.86-4.96-9.13-11.11-9.13-9.63,0-21.13,8.14-21.13,17.27"/><path d="M2639.87,114.48c0,4.26,3.07,9.02,11.11,9.02,10.31,0,21.13-8.43,21.13-17.16,0-5.86-4.96-9.13-11.11-9.13-9.63,0-21.13,8.14-21.13,17.27"/><path d="M1111.92,460.56c0,4.26,3.07,9.02,11.11,9.02,10.31,0,21.13-8.43,21.13-17.16,0-5.86-4.96-9.13-11.11-9.13-9.63,0-21.13,8.14-21.13,17.27"/><path d="M1550.7,794.24c0,4.26,3.07,9.02,11.11,9.02,10.31,0,21.13-8.43,21.13-17.16,0-5.86-4.96-9.13-11.11-9.13-9.63,0-21.13,8.14-21.13,17.27"/><path d="M2132,485.36c0,4.26,3.07,9.02,11.11,9.02,10.31,0,21.13-8.43,21.13-17.16,0-5.86-4.96-9.13-11.11-9.13-9.63,0-21.13,8.14-21.13,17.27"/><path d="M1617.39,769.44c0,4.26,3.07,9.02,11.11,9.02,10.31,0,21.13-8.43,21.13-17.16,0-5.86-4.96-9.13-11.11-9.13-9.63,0-21.13,8.14-21.13,17.27"/><path d="M1416.57,448.16c0,4.26,3.07,9.02,11.11,9.02,10.31,0,21.13-8.43,21.13-17.16,0-5.86-4.96-9.13-11.11-9.13-9.63,0-21.13,8.14-21.13,17.27"/><path d="M1684.07,769.44c0,4.26,3.07,9.02,11.11,9.02,10.31,0,21.13-8.43,21.13-17.16,0-5.86-4.96-9.13-11.11-9.13-9.63,0-21.13,8.14-21.13,17.27"/><path d="M2182.78,472.96c0,4.26,3.07,9.02,11.11,9.02,10.31,0,21.13-8.43,21.13-17.16,0-5.86-4.96-9.13-11.11-9.13-9.63,0-21.13,8.14-21.13,17.27"/><path d="M1750.76,769.44c0,4.26,3.07,9.02,11.11,9.02,10.31,0,21.13-8.43,21.13-17.16,0-5.86-4.96-9.13-11.11-9.13-9.63,0-21.13,8.14-21.13,17.27"/><path d="M1817.45,769.44c0,4.26,3.07,9.02,11.11,9.02,10.31,0,21.13-8.43,21.13-17.16,0-5.86-4.96-9.13-11.11-9.13-9.63,0-21.13,8.14-21.13,17.27"/><path d="M1884.14,781.84c0,4.26,3.07,9.02,11.11,9.02,10.31,0,21.13-8.43,21.13-17.16,0-5.86-4.96-9.13-11.11-9.13-9.63,0-21.13,8.14-21.13,17.27"/><path d="M2233.55,472.96c0,4.26,3.07,9.02,11.11,9.02,10.31,0,21.13-8.43,21.13-17.16,0-5.86-4.96-9.13-11.11-9.13-9.63,0-21.13,8.14-21.13,17.27"/><path d="M2589.15,114.48c0,4.26,3.07,9.02,11.11,9.02,10.31,0,21.13-8.43,21.13-17.16,0-5.86-4.96-9.13-11.11-9.13-9.63,0-21.13,8.14-21.13,17.27"/><path d="M1950.83,781.84c0,4.26,3.07,9.02,11.11,9.02,10.31,0,21.13-8.43,21.13-17.16,0-5.86-4.96-9.13-11.11-9.13-9.63,0-21.13,8.14-21.13,17.27"/><path d="M1467.34,448.16c0,4.26,3.07,9.02,11.11,9.02,10.31,0,21.13-8.43,21.13-17.16,0-5.86-4.96-9.13-11.11-9.13-9.63,0-21.13,8.14-21.13,17.27"/><path d="M2017.52,781.84c0,4.26,3.07,9.02,11.11,9.02,10.31,0,21.13-8.43,21.13-17.16,0-5.86-4.96-9.13-11.11-9.13-9.63,0-21.13,8.14-21.13,17.27"/><path d="M2284.33,472.96c0,4.26,3.07,9.02,11.11,9.02,10.31,0,21.13-8.43,21.13-17.16,0-5.86-4.96-9.13-11.11-9.13-9.63,0-21.13,8.14-21.13,17.27"/><path d="M2084.21,781.84c0,4.26,3.07,9.02,11.11,9.02,10.31,0,21.13-8.43,21.13-17.16,0-5.86-4.96-9.13-11.11-9.13-9.63,0-21.13,8.14-21.13,17.27"/><path d="M904.24,472.96c0,4.26,3.07,9.02,11.11,9.02,10.31,0,21.13-8.43,21.13-17.16,0-5.86-4.96-9.13-11.11-9.13-9.63,0-21.13,8.14-21.13,17.27"/><path d="M2150.9,794.24c0,4.26,3.07,9.02,11.11,9.02,10.31,0,21.13-8.43,21.13-17.16,0-5.86-4.96-9.13-11.11-9.13-9.63,0-21.13,8.14-21.13,17.27"/><path d="M2335.1,472.96c0,4.26,3.07,9.02,11.11,9.02,10.31,0,21.13-8.43,21.13-17.16,0-5.86-4.96-9.13-11.11-9.13-9.63,0-21.13,8.14-21.13,17.27"/><path d="M2217.59,794.24c0,4.26,3.07,9.02,11.11,9.02,10.31,0,21.13-8.43,21.13-17.16,0-5.86-4.96-9.13-11.11-9.13-9.63,0-21.13,8.14-21.13,17.27"/><path d="M1518.12,435.76c0,4.26,3.07,9.02,11.11,9.02,10.31,0,21.13-8.43,21.13-17.16,0-5.86-4.96-9.13-11.11-9.13-9.63,0-21.13,8.14-21.13,17.27"/><path d="M2284.27,794.24c0,4.26,3.07,9.02,11.11,9.02,10.31,0,21.13-8.43,21.13-17.16,0-5.86-4.96-9.13-11.11-9.13-9.63,0-21.13,8.14-21.13,17.27"/><path d="M2385.88,460.56c0,4.26,3.07,9.02,11.11,9.02,10.31,0,21.13-8.43,21.13-17.16,0-5.86-4.96-9.13-11.11-9.13-9.63,0-21.13,8.14-21.13,17.27"/><path d="M2350.96,794.24c0,4.26,3.07,9.02,11.11,9.02,10.31,0,21.13-8.43,21.13-17.16,0-5.86-4.96-9.13-11.11-9.13-9.63,0-21.13,8.14-21.13,17.27"/><path d="M548.81,460.56c0,4.26,3.07,9.02,11.11,9.02,10.31,0,21.13-8.43,21.13-17.16,0-5.86-4.96-9.13-11.11-9.13-9.63,0-21.13,8.14-21.13,17.27"/><path d="M2538.43,89.68c0,4.26,3.07,9.02,11.11,9.02,10.31,0,21.13-8.43,21.13-17.16,0-5.86-4.96-9.13-11.11-9.13-9.63,0-21.13,8.14-21.13,17.27"/><path d="M2487.72,89.68c0,4.26,3.07,9.02,11.11,9.02,10.31,0,21.13-8.43,21.13-17.16,0-5.86-4.96-9.13-11.11-9.13-9.63,0-21.13,8.14-21.13,17.27"/><path d="M498.04,460.56c0,4.26,3.07,9.02,11.11,9.02,10.31,0,21.13-8.43,21.13-17.16,0-5.86-4.96-9.13-11.11-9.13-9.63,0-21.13,8.14-21.13,17.27"/><path d="M2475.66,788.99c-13.69,0-18.55,6.94-18.55,13.39s4.87,13.39,18.55,13.39,18.45-6.94,18.45-13.39-4.76-13.39-18.45-13.39m.79,23.61c-2.77,0-4.67-.79-5.95-3.27s-3.07-8.93-3.18-11.52c-.2-2.68,.79-4.26,3.18-5.05,1.19-.4,2.77-.6,4.37-.6,2.67,0,4.46,.6,5.84,3.29,1.39,2.57,3.29,9.02,3.29,11.5,0,4.87-3.58,5.66-7.55,5.66"/><path d="M396.49,472.96c0,4.26,3.07,9.02,11.11,9.02,10.31,0,21.13-8.43,21.13-17.16,0-5.86-4.96-9.13-11.11-9.13-9.63,0-21.13,8.14-21.13,17.27"/><path d="M345.71,472.96c0,4.26,3.07,9.02,11.11,9.02,10.31,0,21.13-8.43,21.13-17.16,0-5.86-4.96-9.13-11.11-9.13-9.63,0-21.13,8.14-21.13,17.27"/><path d="M2437,89.68c0,4.26,3.07,9.02,11.11,9.02,10.31,0,21.13-8.43,21.13-17.16,0-5.86-4.96-9.13-11.11-9.13-9.63,0-21.13,8.14-21.13,17.27"/><path d="M2436.65,460.56c0,4.26,3.07,9.02,11.11,9.02,10.31,0,21.13-8.43,21.13-17.16,0-5.86-4.96-9.13-11.11-9.13-9.63,0-21.13,8.14-21.13,17.27"/><path d="M1162.7,460.56c0,4.26,3.07,9.02,11.11,9.02,10.31,0,21.13-8.43,21.13-17.16,0-5.86-4.96-9.13-11.11-9.13-9.63,0-21.13,8.14-21.13,17.27"/><path d="M2487.43,460.56c0,4.26,3.07,9.02,11.11,9.02,10.31,0,21.13-8.43,21.13-17.16,0-5.86-4.96-9.13-11.11-9.13-9.63,0-21.13,8.14-21.13,17.27"/><path d="M1568.89,435.76c0,4.26,3.07,9.02,11.11,9.02,10.31,0,21.13-8.43,21.13-17.16,0-5.86-4.96-9.13-11.11-9.13-9.63,0-21.13,8.14-21.13,17.27"/><path d="M2386.28,89.68c0,4.26,3.07,9.02,11.11,9.02,10.31,0,21.13-8.43,21.13-17.16,0-5.86-4.96-9.13-11.11-9.13-9.63,0-21.13,8.14-21.13,17.27"/><path d="M2332.97,102.08c0,4.26,3.07,9.02,11.11,9.02,10.31,0,21.13-8.43,21.13-17.16,0-5.86-4.96-9.13-11.11-9.13-9.63,0-21.13,8.14-21.13,17.27"/><path d="M2282.25,102.08c0,4.26,3.07,9.02,11.11,9.02,10.31,0,21.13-8.43,21.13-17.16,0-5.86-4.96-9.13-11.11-9.13-9.63,0-21.13,8.14-21.13,17.27"/><path d="M30.8,828.56c0,6.56,4.96,15.19,18.35,15.19,4.67,0,8.74-1.19,12.31-3.38,5.36-3.77,6.74-10.32,6.74-16.57,0-3.86-.59-8.32-1.58-13.98-.29-1.98-.9-4.96-1.49-8.84,9.72-3.18,16.96-13.3,16.96-23.51,0-14.97-10.62-25.09-25.09-25.09-.99-5.95-1.98-11.81-2.77-17.36,10.42-11.02,17.65-23.42,17.65-39.18,0-9.04-2.77-16.37-4.37-19.95-2.37-5.05-5.25-8.53-7.04-8.53-.7,0-3.77,1.19-7.04,5.05-6.36,7.55-8.14,20.24-8.14,28.57,0,5.36,.5,10.23,2.19,21.34-.11,.09-5.27,5.35-7.35,7.04-9.04,8.34-21.53,20.43-21.53,40.28,0,18.54,16.17,33.12,34.63,33.12,2.87,0,5.55-.29,7.83-.7,1.89,9.53,3.08,16.48,3.08,21.73,0,10.32-5.36,15.78-15.38,15.78-2.39,0-4.46-.5-4.67-.5-.09-.11-.29-.2-.29-.29,0-.2,.2-.31,.5-.31,4.67-.79,9.32-4.76,9.32-11.1,0-5.36-4.06-11.02-11.5-11.02-6.94,0-11.31,5.66-11.31,12.2m20.74-132.43c.9-3.97,5.46-14.38,10.62-14.38,1.49,0,3.86,4.76,3.86,11.7,0,10.32-7.63,18.06-14.48,24.8-.59-3.97-1.08-7.83-1.08-12,0-3.67,.29-7.05,1.08-10.12m8.73,101.97c-1.98,.4-3.86,.6-5.75,.6-14.18,0-26.29-9.92-26.29-24.91,0-12.09,8.53-22.91,17.27-30.46,1.67-1.49,3.27-2.87,4.76-4.36,.88,5.35,1.58,10.01,2.28,14.09-9.04,2.68-15.17,12.2-15.17,21.53,0,6.94,5.46,16.46,13.39,16.46,.79,0,1.69-.4,1.69-1.29s-.99-1.39-2.19-2.19c-3.88-2.39-6.06-4.96-6.06-9.83,0-6.05,4.57-10.91,10.32-12.29l5.75,32.63m14.09-18.35c0,7.05-2.88,14.29-9.92,17.17-2.08-11.9-4.76-27.68-5.46-32.05,8.93,0,15.38,6.06,15.38,14.88"/><path d="M30.8,494.88c0,6.56,4.96,15.19,18.35,15.19,4.67,0,8.74-1.19,12.31-3.38,5.36-3.77,6.74-10.32,6.74-16.57,0-3.86-.59-8.32-1.58-13.98-.29-1.98-.9-4.96-1.49-8.84,9.72-3.18,16.96-13.3,16.96-23.51,0-14.97-10.62-25.09-25.09-25.09-.99-5.95-1.98-11.81-2.77-17.36,10.42-11.02,17.65-23.42,17.65-39.18,0-9.04-2.77-16.37-4.37-19.95-2.37-5.05-5.25-8.53-7.04-8.53-.7,0-3.77,1.19-7.04,5.05-6.36,7.55-8.14,20.24-8.14,28.57,0,5.36,.5,10.23,2.19,21.34-.11,.09-5.27,5.35-7.35,7.04-9.04,8.34-21.53,20.43-21.53,40.28,0,18.54,16.17,33.12,34.63,33.12,2.87,0,5.55-.29,7.83-.7,1.89,9.53,3.08,16.48,3.08,21.73,0,10.32-5.36,15.78-15.38,15.78-2.39,0-4.46-.5-4.67-.5-.09-.11-.29-.2-.29-.29,0-.2,.2-.31,.5-.31,4.67-.79,9.32-4.76,9.32-11.1,0-5.36-4.06-11.02-11.5-11.02-6.94,0-11.31,5.66-11.31,12.2m20.74-132.43c.9-3.97,5.46-14.38,10.62-14.38,1.49,0,3.86,4.76,3.86,11.7,0,10.32-7.63,18.06-14.48,24.8-.59-3.97-1.08-7.83-1.08-12,0-3.67,.29-7.05,1.08-10.12m8.73,101.97c-1.98,.4-3.86,.6-5.75,.6-14.18,0-26.29-9.92-26.29-24.91,0-12.09,8.53-22.91,17.27-30.46,1.67-1.49,3.27-2.87,4.76-4.36,.88,5.35,1.58,10.01,2.28,14.09-9.04,2.68-15.17,12.2-15.17,21.53,0,6.94,5.46,16.46,13.39,16.46,.79,0,1.69-.4,1.69-1.29s-.99-1.39-2.19-2.19c-3.88-2.39-6.06-4.96-6.06-9.83,0-6.05,4.57-10.91,10.32-12.29l5.75,32.63m14.09-18.35c0,7.05-2.88,14.29-9.92,17.17-2.08-11.9-4.76-27.68-5.46-32.05,8.93,0,15.38,6.06,15.38,14.88"/><path d="M30.8,161.2c0,6.56,4.96,15.19,18.35,15.19,4.67,0,8.74-1.19,12.31-3.38,5.36-3.77,6.74-10.32,6.74-16.57,0-3.86-.59-8.32-1.58-13.98-.29-1.98-.9-4.96-1.49-8.84,9.72-3.18,16.96-13.3,16.96-23.51,0-14.97-10.62-25.09-25.09-25.09-.99-5.95-1.98-11.81-2.77-17.36,10.42-11.02,17.65-23.42,17.65-39.18,0-9.04-2.77-16.37-4.37-19.95-2.37-5.05-5.25-8.53-7.04-8.53-.7,0-3.77,1.19-7.04,5.05-6.36,7.55-8.14,20.24-8.14,28.57,0,5.36,.5,10.23,2.19,21.34-.11,.09-5.27,5.35-7.35,7.04-9.04,8.34-21.53,20.43-21.53,40.28,0,18.54,16.17,33.12,34.63,33.12,2.87,0,5.55-.29,7.83-.7,1.89,9.53,3.08,16.48,3.08,21.73,0,10.32-5.36,15.78-15.38,15.78-2.39,0-4.46-.5-4.67-.5-.09-.11-.29-.2-.29-.29,0-.2,.2-.31,.5-.31,4.67-.79,9.32-4.76,9.32-11.1,0-5.36-4.06-11.02-11.5-11.02-6.94,0-11.31,5.66-11.31,12.2M51.54,28.77c.9-3.97,5.46-14.38,10.62-14.38,1.49,0,3.86,4.76,3.86,11.7,0,10.32-7.63,18.06-14.48,24.8-.59-3.97-1.08-7.83-1.08-12,0-3.67,.29-7.05,1.08-10.12m8.73,101.97c-1.98,.4-3.86,.6-5.75,.6-14.18,0-26.29-9.92-26.29-24.91,0-12.09,8.53-22.91,17.27-30.46,1.67-1.49,3.27-2.87,4.76-4.36,.88,5.35,1.58,10.01,2.28,14.09-9.04,2.68-15.17,12.2-15.17,21.53,0,6.94,5.46,16.46,13.39,16.46,.79,0,1.69-.4,1.69-1.29s-.99-1.39-2.19-2.19c-3.88-2.39-6.06-4.96-6.06-9.83,0-6.05,4.57-10.91,10.32-12.29l5.75,32.63m14.09-18.35c0,7.05-2.88,14.29-9.92,17.17-2.08-11.9-4.76-27.68-5.46-32.05,8.93,0,15.38,6.06,15.38,14.88"/><path d="M118.79,403.82c-4.96,0-7.84,3.07-8.34,3.67l.4-31.85c0-.79-.59-1.38-1.4-1.38h-1.18c-.81,0-1.4,.59-1.4,1.38l.5,59.63c0,.79,.59,1.38,1.4,1.38,.19,0,.59-.09,.79-.19,8.53-4.28,17.45-12.4,17.45-22.63,0-5.15-2.37-10.01-8.23-10.01m-8.63,27.98l.29-19.34c.2-.9,1.69-3.77,5.66-3.77,3.58,0,3.87,3.36,3.87,5.46,0,8.82-3.27,12.49-9.83,17.65"/><path d="M146.36,366.62c-4.96,0-7.84,3.07-8.34,3.67l.4-31.85c0-.79-.59-1.38-1.4-1.38h-1.18c-.81,0-1.4,.59-1.4,1.38l.5,59.63c0,.79,.59,1.38,1.4,1.38,.19,0,.59-.09,.79-.19,8.53-4.28,17.45-12.4,17.45-22.63,0-5.15-2.37-10.01-8.23-10.01m-8.63,27.98l.29-19.34c.2-.9,1.69-3.77,5.66-3.77,3.58,0,3.87,3.36,3.87,5.46,0,8.82-3.27,12.49-9.83,17.65"/><path d="M173.93,416.22c-4.96,0-7.84,3.07-8.34,3.67l.4-31.85c0-.79-.59-1.38-1.4-1.38h-1.18c-.81,0-1.4,.59-1.4,1.38l.5,59.63c0,.79,.59,1.38,1.4,1.38,.19,0,.59-.09,.79-.19,8.53-4.28,17.45-12.4,17.45-22.63,0-5.15-2.37-10.01-8.23-10.01m-8.63,27.98l.29-19.34c.2-.9,1.69-3.77,5.66-3.77,3.58,0,3.87,3.36,3.87,5.46,0,8.82-3.27,12.49-9.83,17.65"/><path d="M118.79,70.14c-4.96,0-7.84,3.07-8.34,3.67l.4-31.85c0-.79-.59-1.38-1.4-1.38h-1.18c-.81,0-1.4,.59-1.4,1.38l.5,59.63c0,.79,.59,1.38,1.4,1.38,.19,0,.59-.09,.79-.19,8.53-4.28,17.45-12.4,17.45-22.63,0-5.15-2.37-10.01-8.23-10.01m-8.63,27.98l.29-19.34c.2-.9,1.69-3.77,5.66-3.77,3.58,0,3.87,3.36,3.87,5.46,0,8.82-3.27,12.49-9.83,17.65"/><path d="M146.36,32.94c-4.96,0-7.84,3.07-8.34,3.67l.4-31.85c0-.79-.59-1.38-1.4-1.38h-1.18c-.81,0-1.4,.59-1.4,1.38l.5,59.63c0,.79,.59,1.38,1.4,1.38,.19,0,.59-.09,.79-.19,8.53-4.28,17.45-12.4,17.45-22.63,0-5.15-2.37-10.01-8.23-10.01m-8.63,27.98l.29-19.34c.2-.9,1.69-3.77,5.66-3.77,3.58,0,3.87,3.36,3.87,5.46,0,8.82-3.27,12.49-9.83,17.65"/><path d="M173.93,82.54c-4.96,0-7.84,3.07-8.34,3.67l.4-31.85c0-.79-.59-1.38-1.4-1.38h-1.18c-.81,0-1.4,.59-1.4,1.38l.5,59.63c0,.79,.59,1.38,1.4,1.38,.19,0,.59-.09,.79-.19,8.53-4.28,17.45-12.4,17.45-22.63,0-5.15-2.37-10.01-8.23-10.01m-8.63,27.98l.29-19.34c.2-.9,1.69-3.77,5.66-3.77,3.58,0,3.87,3.36,3.87,5.46,0,8.82-3.27,12.49-9.83,17.65"/><path d="M118.79,737.5c-4.96,0-7.84,3.07-8.34,3.67l.4-31.85c0-.79-.59-1.38-1.4-1.38h-1.18c-.81,0-1.4,.59-1.4,1.38l.5,59.63c0,.79,.59,1.38,1.4,1.38,.19,0,.59-.09,.79-.19,8.53-4.28,17.45-12.4,17.45-22.63,0-5.15-2.37-10.01-8.23-10.01m-8.63,27.98l.29-19.34c.2-.9,1.69-3.77,5.66-3.77,3.58,0,3.87,3.36,3.87,5.46,0,8.82-3.27,12.49-9.83,17.65"/><path d="M146.36,700.3c-4.96,0-7.84,3.07-8.34,3.67l.4-31.85c0-.79-.59-1.38-1.4-1.38h-1.18c-.81,0-1.4,.59-1.4,1.38l.5,59.63c0,.79,.59,1.38,1.4,1.38,.19,0,.59-.09,.79-.19,8.53-4.28,17.45-12.4,17.45-22.63,0-5.15-2.37-10.01-8.23-10.01m-8.63,27.98l.29-19.34c.2-.9,1.69-3.77,5.66-3.77,3.58,0,3.87,3.36,3.87,5.46,0,8.82-3.27,12.49-9.83,17.65"/><path d="M173.93,749.9c-4.96,0-7.84,3.07-8.34,3.67l.4-31.85c0-.79-.59-1.38-1.4-1.38h-1.18c-.81,0-1.4,.59-1.4,1.38l.5,59.63c0,.79,.59,1.38,1.4,1.38,.19,0,.59-.09,.79-.19,8.53-4.28,17.45-12.4,17.45-22.63,0-5.15-2.37-10.01-8.23-10.01m-8.63,27.98l.29-19.34c.2-.9,1.69-3.77,5.66-3.77,3.58,0,3.87,3.36,3.87,5.46,0,8.82-3.27,12.49-9.83,17.65"/><path d="M2498.32,665.08c-9.32-10.12-17.56-10.71-22.71-10.71s-13.3,.59-22.63,10.71c-4.85,5.36-8.23,15.97-8.23,21.33,0,1.89,.4,3.18,1.4,3.18,2.77,0,1.38-8.54,9.72-16.97,7.33-7.33,17.16-7.44,19.55-7.44h.39c2.39,0,12.21,.11,19.55,7.44,8.34,8.43,6.94,16.97,9.72,16.97,.99,0,1.39-1.19,1.39-3.18,0-5.36-3.27-16.07-8.14-21.33m-29.56,18.94c0,3.78,3.07,6.85,6.85,6.85s6.84-3.07,6.84-6.85-3.07-6.84-6.84-6.84-6.85,3.07-6.85,6.84"/><path d="M355.38,185.29c-2.03,3.3-2.91,4.2-4.06,4.2-.55,0-.88-.36-.88-.98,0-.45,.19-1.27,.53-2.49l6.24-21-6.97,.54-.14,1.25h1.08c1.44,0,2,.31,2,1.09,0,.34-.11,.8-.31,1.53l-2.31,7.78c-.62-1.83-2-2.84-4.02-2.84-5.05,0-9.73,5.39-9.73,11.2,0,3.44,2.2,5.78,5.48,5.78,2.39,0,4.14-.98,5.67-3.26-.03,.28-.03,.64-.03,.78,0,1.61,.84,2.48,2.38,2.48,2.22,0,4.14-1.72,6.12-5.43l-1.05-.63m-8.75-9.34c1.72,0,2.98,1.32,2.98,3.15,0,3.17-2.25,10.6-6.31,10.6-1.89,0-3.11-1.5-3.11-3.78,0-3.32,2.38-9.97,6.44-9.97m19.7-7.68c-.94,0-1.7,.79-1.7,1.72s.76,1.72,1.7,1.72,1.72-.76,1.72-1.72-.77-1.72-1.72-1.72m7.08,0c-.95,0-1.72,.79-1.72,1.72s.77,1.72,1.72,1.72,1.72-.76,1.72-1.72-.78-1.72-1.72-1.72m2.09,6.63h-3.05l-1.64,5.59c-1.44,4.88-4.66,8.86-7.14,8.86-.84,0-1.5-.67-1.5-1.5,0-.47,.09-1.01,.38-2l3.44-11.48-6.75,.53-.11,1.25h.84c1.42,0,1.95,.33,1.95,1.12,0,.35-.11,.85-.28,1.5l-1.39,4.74q-1.09,3.5-1.09,4.58c0,1.92,1.33,3.22,3.33,3.22,2.45,0,4.44-1.43,6.52-4.66-.36,1.23-.42,1.72-.42,2.39,0,1.36,.94,2.31,2.23,2.31,2.14,0,3.86-1.43,6.34-5.25l-1.06-.64c-1.7,2.56-3.08,3.96-3.84,3.96-.31,0-.62-.38-.62-.83,0-.39,.14-1.07,.41-2.08l3.47-11.61"/><path d="M302.35,175.7c.56-.49,.88-.66,1.3-.66,.34,0,.62,.17,.91,.55,.56,.78,.77,.92,1.33,.92,.81,0,1.41-.67,1.41-1.55,0-1.01-.98-1.81-2.2-1.81s-2.17,.45-4,1.89c-1.08-.5-1.89-.67-3.01-.67-3.88,0-7.17,2.76-7.17,5.98,0,1.69,.67,2.85,2.17,3.64-1.61,.22-2.34,.46-3.16,1.16-.69,.56-1.14,1.5-1.14,2.34,0,1.19,.55,1.93,1.92,2.6-2.06,.45-4.49,1.33-4.49,3.89,0,3.5,4.62,3.92,7.17,3.92,3.47,0,5.47-.42,7.19-1.55,1.5-.98,2.38-2.48,2.38-4.12,0-3.55-3.75-3.97-6.44-4.14-3.12-.17-3.36-.21-3.86-.32-.88-.2-1.3-.62-1.3-1.21,0-.85,.84-1.41,2.11-1.41,.45,0,.97,.03,1.44,.11,1.42,.2,1.64,.23,2.52,.23,1.95,0,3.5-.48,4.72-1.47,1.41-1.07,2.28-2.82,2.28-4.43s-.7-2.91-2.06-3.89m-4.03,0c1.83,0,2.98,1.09,2.98,2.79,0,2.53-1.16,5.72-4.14,5.72-1.89,0-3.08-1.2-3.08-3.15,0-3.16,1.72-5.36,4.24-5.36m-4.27,15.01c1.58,0,4.09,.36,4.89,.67,.87,.38,1.3,.99,1.3,1.86,0,2.07-2.2,3.18-6.22,3.18-3.41,0-4.98-.83-4.98-2.69s1.83-3.02,5.01-3.02m22.56-22.44c-.94,0-1.7,.79-1.7,1.72s.77,1.72,1.7,1.72,1.72-.76,1.72-1.72-.77-1.72-1.72-1.72m7.08,0c-.95,0-1.72,.79-1.72,1.72s.77,1.72,1.72,1.72,1.72-.76,1.72-1.72-.78-1.72-1.72-1.72m2.09,6.63h-3.05l-1.64,5.59c-1.44,4.88-4.66,8.86-7.14,8.86-.84,0-1.5-.67-1.5-1.5,0-.47,.09-1.01,.38-2l3.44-11.48-6.75,.53-.11,1.25h.84c1.42,0,1.95,.33,1.95,1.12,0,.35-.11,.85-.28,1.5l-1.39,4.74q-1.09,3.5-1.09,4.58c0,1.92,1.33,3.22,3.33,3.22,2.45,0,4.44-1.43,6.52-4.66-.36,1.23-.42,1.72-.42,2.39,0,1.36,.94,2.31,2.23,2.31,2.14,0,3.86-1.43,6.34-5.25l-1.06-.64c-1.7,2.56-3.08,3.96-3.84,3.96-.31,0-.62-.38-.62-.83,0-.39,.14-1.07,.41-2.08l3.47-11.61"/><path d="M253.95,185.29c-2.03,3.3-2.91,4.2-4.06,4.2-.55,0-.88-.36-.88-.98,0-.45,.19-1.27,.53-2.49l6.23-21-6.97,.54-.14,1.25h1.08c1.44,0,2,.31,2,1.09,0,.34-.11,.8-.31,1.53l-2.31,7.78c-.62-1.83-2-2.84-4.01-2.84-5.05,0-9.74,5.39-9.74,11.2,0,3.44,2.2,5.78,5.49,5.78,2.39,0,4.14-.98,5.67-3.26-.03,.28-.03,.64-.03,.78,0,1.61,.84,2.48,2.38,2.48,2.22,0,4.14-1.72,6.12-5.43l-1.05-.63m-8.75-9.34c1.72,0,2.99,1.32,2.99,3.15,0,3.17-2.25,10.6-6.31,10.6-1.89,0-3.11-1.5-3.11-3.78,0-3.32,2.38-9.97,6.44-9.97m19.7-7.68c-.94,0-1.7,.79-1.7,1.72s.77,1.72,1.7,1.72,1.72-.76,1.72-1.72-.76-1.72-1.72-1.72m7.08,0c-.95,0-1.72,.79-1.72,1.72s.76,1.72,1.72,1.72,1.72-.76,1.72-1.72-.78-1.72-1.72-1.72m2.09,6.63h-3.05l-1.64,5.59c-1.44,4.88-4.66,8.86-7.14,8.86-.84,0-1.5-.67-1.5-1.5,0-.47,.09-1.01,.38-2l3.44-11.48-6.75,.53-.11,1.25h.84c1.42,0,1.95,.33,1.95,1.12,0,.35-.11,.85-.28,1.5l-1.39,4.74q-1.09,3.5-1.09,4.58c0,1.92,1.33,3.22,3.33,3.22,2.45,0,4.44-1.43,6.51-4.66-.36,1.23-.42,1.72-.42,2.39,0,1.36,.94,2.31,2.24,2.31,2.14,0,3.86-1.43,6.34-5.25l-1.06-.64c-1.7,2.56-3.08,3.96-3.84,3.96-.31,0-.62-.38-.62-.83,0-.39,.14-1.07,.41-2.08l3.47-11.61"/><path d="M558.25,185.29c-2.03,3.3-2.91,4.2-4.06,4.2-.55,0-.88-.36-.88-.98,0-.45,.19-1.27,.53-2.49l6.23-21-6.97,.54-.14,1.25h1.08c1.44,0,2,.31,2,1.09,0,.34-.11,.8-.31,1.53l-2.31,7.78c-.62-1.83-2-2.84-4.02-2.84-5.05,0-9.73,5.39-9.73,11.2,0,3.44,2.2,5.78,5.48,5.78,2.39,0,4.14-.98,5.67-3.26-.03,.28-.03,.64-.03,.78,0,1.61,.84,2.48,2.38,2.48,2.22,0,4.14-1.72,6.12-5.43l-1.05-.63m-8.75-9.34c1.72,0,2.98,1.32,2.98,3.15,0,3.17-2.25,10.6-6.31,10.6-1.89,0-3.11-1.5-3.11-3.78,0-3.32,2.38-9.97,6.44-9.97m19.7-7.68c-.94,0-1.7,.79-1.7,1.72s.77,1.72,1.7,1.72,1.72-.76,1.72-1.72-.77-1.72-1.72-1.72m7.08,0c-.95,0-1.72,.79-1.72,1.72s.77,1.72,1.72,1.72,1.72-.76,1.72-1.72-.78-1.72-1.72-1.72m2.09,6.63h-3.05l-1.64,5.59c-1.44,4.88-4.66,8.86-7.14,8.86-.84,0-1.5-.67-1.5-1.5,0-.47,.09-1.01,.38-2l3.44-11.48-6.75,.53-.11,1.25h.84c1.42,0,1.95,.33,1.95,1.12,0,.35-.11,.85-.28,1.5l-1.39,4.74q-1.09,3.5-1.09,4.58c0,1.92,1.33,3.22,3.33,3.22,2.45,0,4.44-1.43,6.52-4.66-.36,1.23-.42,1.72-.42,2.39,0,1.36,.94,2.31,2.23,2.31,2.14,0,3.86-1.43,6.34-5.25l-1.06-.64c-1.7,2.56-3.08,3.96-3.84,3.96-.31,0-.62-.38-.62-.83,0-.39,.14-1.07,.41-2.08l3.47-11.61"/><path d="M650.54,174.37c-3.69,0-6.34,2.23-6.34,5.28,0,1.52,.88,2.77,2.42,3.58,.56,.28,1.25,.59,2.72,1.19,2,.81,2.5,1.29,2.5,2.51,0,1.89-1.58,3.08-4,3.08-1.78,0-3.05-.49-3.05-1.19,0-.17,.11-.37,.25-.51,.66-.71,.73-.88,.73-1.52,0-.97-.77-1.75-1.78-1.75-1.16,0-2.03,.98-2.03,2.34,0,2.46,2.17,3.97,5.7,3.97,4.03,0,6.8-2.22,6.8-5.39,0-1.4-.64-2.59-1.75-3.36-.78-.53-1.12-.67-3.05-1.37-2.28-.8-2.88-1.36-2.88-2.74,0-1.61,1.53-2.79,3.56-2.79,1.38,0,2.28,.39,2.28,.95,0,.14-.06,.31-.17,.48-.5,.71-.56,.88-.56,1.41,0,.94,.73,1.61,1.81,1.61,1.2,0,2-.88,2-2.14,0-2.14-2.12-3.64-5.17-3.64m14.91-8.55c-1.05,0-1.89,.85-1.89,1.89s.84,1.89,1.86,1.89c1.08,0,1.92-.83,1.92-1.89s-.84-1.89-1.89-1.89m.62,8.55l-6.72,.53-.14,1.25h.84c1.44,0,2,.33,2,1.09,0,.35-.08,.74-.31,1.53l-2.03,6.83c-.67,2.25-.78,2.74-.78,3.53,0,1.24,1.06,2.18,2.39,2.18,3,0,5.08-3.11,6.55-5.39l-1.09-.6c-1.81,2.77-3.28,4.24-4.23,4.24-.34,0-.59-.32-.59-.74,0-.34,.14-.97,.42-1.95l3.7-12.5m11.97,0l-6.36,.53-.11,1.25h.84c1.39,0,1.95,.33,1.95,1.12,0,.32-.11,.85-.28,1.5l-3.56,12.05h3.05l1.42-4.94c1.58-5.36,4.77-9.4,7.39-9.4,.91,0,1.47,.48,1.47,1.36,0,.7-.28,2.17-.7,3.5l-2.8,9.48h3.05l1.5-5.08c.88-2.9,1.75-4.86,2.88-6.37,1.27-1.75,3.05-2.89,4.38-2.89,.88,0,1.36,.45,1.36,1.28,0,.5-.17,1.26-.48,2.25l-1.61,4.97c-.94,2.73-.98,2.94-.98,3.92,0,1.47,1.09,2.45,2.73,2.45,1.16,0,2.28-.56,3.47-1.68,.73-.71,1.22-1.33,2.66-3.43l-1.08-.75c-1.83,2.74-3.12,4.07-4.03,4.07-.39,0-.73-.38-.73-.88,0-.31,.11-.69,.42-1.7l2.2-6.8c.25-.76,.42-1.86,.42-2.62,0-1.86-1.38-3.19-3.25-3.19-2.5,0-4.73,1.61-6.77,4.94,.14-.68,.22-1.27,.22-1.69,0-1.85-1.47-3.25-3.41-3.25-2.2,0-3.81,1.22-6.27,4.73l1.02-4.73m25.72,12.64c-1.19,0-2.17,.98-2.17,2.17s.98,2.17,2.14,2.17c1.25,0,2.2-.95,2.2-2.17s-.98-2.17-2.17-2.17"/><path d="M606.66,175.7c.56-.49,.88-.66,1.3-.66,.34,0,.62,.17,.91,.55,.56,.78,.77,.92,1.33,.92,.81,0,1.41-.67,1.41-1.55,0-1.01-.98-1.81-2.2-1.81s-2.17,.45-4,1.89c-1.08-.5-1.89-.67-3.01-.67-3.88,0-7.17,2.76-7.17,5.98,0,1.69,.67,2.85,2.17,3.64-1.61,.22-2.34,.46-3.16,1.16-.69,.56-1.14,1.5-1.14,2.34,0,1.19,.55,1.93,1.92,2.6-2.06,.45-4.49,1.33-4.49,3.89,0,3.5,4.62,3.92,7.17,3.92,3.47,0,5.47-.42,7.19-1.55,1.5-.98,2.38-2.48,2.38-4.12,0-3.55-3.75-3.97-6.44-4.14-3.12-.17-3.36-.21-3.86-.32-.88-.2-1.3-.62-1.3-1.21,0-.85,.84-1.41,2.11-1.41,.45,0,.97,.03,1.44,.11,1.42,.2,1.64,.23,2.51,.23,1.95,0,3.5-.48,4.72-1.47,1.41-1.07,2.28-2.82,2.28-4.43s-.7-2.91-2.06-3.89m-4.03,0c1.83,0,2.98,1.09,2.98,2.79,0,2.53-1.16,5.72-4.14,5.72-1.89,0-3.08-1.2-3.08-3.15,0-3.16,1.72-5.36,4.24-5.36m-4.27,15.01c1.58,0,4.09,.36,4.89,.67,.88,.38,1.3,.99,1.3,1.86,0,2.07-2.2,3.18-6.22,3.18-3.41,0-4.99-.83-4.99-2.69s1.83-3.02,5.02-3.02m22.56-22.44c-.94,0-1.7,.79-1.7,1.72s.77,1.72,1.7,1.72,1.72-.76,1.72-1.72-.76-1.72-1.72-1.72m7.08,0c-.95,0-1.72,.79-1.72,1.72s.77,1.72,1.72,1.72,1.72-.76,1.72-1.72-.78-1.72-1.72-1.72m2.09,6.63h-3.05l-1.64,5.59c-1.44,4.88-4.66,8.86-7.14,8.86-.84,0-1.5-.67-1.5-1.5,0-.47,.09-1.01,.38-2l3.44-11.48-6.75,.53-.11,1.25h.84c1.42,0,1.95,.33,1.95,1.12,0,.35-.11,.85-.28,1.5l-1.39,4.74q-1.09,3.5-1.09,4.58c0,1.92,1.33,3.22,3.33,3.22,2.45,0,4.44-1.43,6.51-4.66-.36,1.23-.42,1.72-.42,2.39,0,1.36,.94,2.31,2.23,2.31,2.14,0,3.86-1.43,6.34-5.25l-1.06-.64c-1.7,2.56-3.08,3.96-3.84,3.96-.31,0-.62-.38-.62-.83,0-.39,.14-1.07,.41-2.08l3.47-11.61"/><path d="M505.22,175.7c.56-.49,.88-.66,1.3-.66,.34,0,.62,.17,.91,.55,.56,.78,.77,.92,1.33,.92,.81,0,1.41-.67,1.41-1.55,0-1.01-.98-1.81-2.2-1.81s-2.17,.45-4,1.89c-1.08-.5-1.89-.67-3.02-.67-3.88,0-7.17,2.76-7.17,5.98,0,1.69,.67,2.85,2.17,3.64-1.61,.22-2.34,.46-3.16,1.16-.69,.56-1.14,1.5-1.14,2.34,0,1.19,.55,1.93,1.92,2.6-2.06,.45-4.48,1.33-4.48,3.89,0,3.5,4.62,3.92,7.17,3.92,3.47,0,5.47-.42,7.19-1.55,1.5-.98,2.38-2.48,2.38-4.12,0-3.55-3.75-3.97-6.44-4.14-3.12-.17-3.36-.21-3.86-.32-.88-.2-1.3-.62-1.3-1.21,0-.85,.84-1.41,2.11-1.41,.45,0,.97,.03,1.44,.11,1.42,.2,1.64,.23,2.52,.23,1.95,0,3.5-.48,4.72-1.47,1.41-1.07,2.28-2.82,2.28-4.43s-.7-2.91-2.06-3.89m-4.03,0c1.83,0,2.98,1.09,2.98,2.79,0,2.53-1.16,5.72-4.14,5.72-1.89,0-3.08-1.2-3.08-3.15,0-3.16,1.72-5.36,4.23-5.36m-4.27,15.01c1.58,0,4.09,.36,4.89,.67,.88,.38,1.3,.99,1.3,1.86,0,2.07-2.2,3.18-6.22,3.18-3.41,0-4.98-.83-4.98-2.69s1.83-3.02,5.02-3.02m22.56-22.44c-.94,0-1.7,.79-1.7,1.72s.77,1.72,1.7,1.72,1.72-.76,1.72-1.72-.77-1.72-1.72-1.72m7.08,0c-.95,0-1.72,.79-1.72,1.72s.77,1.72,1.72,1.72,1.72-.76,1.72-1.72-.78-1.72-1.72-1.72m2.09,6.63h-3.05l-1.64,5.59c-1.44,4.88-4.66,8.86-7.14,8.86-.84,0-1.5-.67-1.5-1.5,0-.47,.09-1.01,.38-2l3.44-11.48-6.75,.53-.11,1.25h.84c1.42,0,1.95,.33,1.95,1.12,0,.35-.11,.85-.28,1.5l-1.39,4.74q-1.09,3.5-1.09,4.58c0,1.92,1.33,3.22,3.33,3.22,2.45,0,4.44-1.43,6.52-4.66-.36,1.23-.42,1.72-.42,2.39,0,1.36,.94,2.31,2.23,2.31,2.14,0,3.86-1.43,6.34-5.25l-1.06-.64c-1.7,2.56-3.08,3.96-3.84,3.96-.31,0-.62-.38-.62-.83,0-.39,.14-1.07,.41-2.08l3.47-11.61"/><path d="M456.82,185.29c-2.03,3.3-2.91,4.2-4.06,4.2-.55,0-.88-.36-.88-.98,0-.45,.19-1.27,.53-2.49l6.23-21-6.97,.54-.14,1.25h1.08c1.44,0,2,.31,2,1.09,0,.34-.11,.8-.31,1.53l-2.31,7.78c-.62-1.83-2-2.84-4.02-2.84-5.05,0-9.73,5.39-9.73,11.2,0,3.44,2.2,5.78,5.48,5.78,2.39,0,4.14-.98,5.67-3.26-.03,.28-.03,.64-.03,.78,0,1.61,.84,2.48,2.38,2.48,2.22,0,4.14-1.72,6.12-5.43l-1.05-.63m-8.75-9.34c1.72,0,2.98,1.32,2.98,3.15,0,3.17-2.25,10.6-6.31,10.6-1.89,0-3.11-1.5-3.11-3.78,0-3.32,2.38-9.97,6.44-9.97m19.7-7.68c-.94,0-1.7,.79-1.7,1.72s.77,1.72,1.7,1.72,1.72-.76,1.72-1.72-.77-1.72-1.72-1.72m7.08,0c-.95,0-1.72,.79-1.72,1.72s.77,1.72,1.72,1.72,1.72-.76,1.72-1.72-.78-1.72-1.72-1.72m2.09,6.63h-3.05l-1.64,5.59c-1.44,4.88-4.66,8.86-7.14,8.86-.84,0-1.5-.67-1.5-1.5,0-.47,.09-1.01,.38-2l3.44-11.48-6.75,.53-.11,1.25h.84c1.42,0,1.95,.33,1.95,1.12,0,.35-.11,.85-.28,1.5l-1.39,4.74q-1.09,3.5-1.09,4.58c0,1.92,1.33,3.22,3.33,3.22,2.45,0,4.44-1.43,6.52-4.66-.36,1.23-.42,1.72-.42,2.39,0,1.36,.94,2.31,2.23,2.31,2.14,0,3.86-1.43,6.34-5.25l-1.06-.64c-1.7,2.56-3.08,3.96-3.84,3.96-.31,0-.62-.38-.62-.83,0-.39,.14-1.07,.41-2.08l3.47-11.61"/><path d="M403.79,175.7c.56-.49,.88-.66,1.3-.66,.34,0,.62,.17,.91,.55,.56,.78,.77,.92,1.33,.92,.81,0,1.41-.67,1.41-1.55,0-1.01-.98-1.81-2.2-1.81s-2.17,.45-4,1.89c-1.08-.5-1.89-.67-3.02-.67-3.88,0-7.17,2.76-7.17,5.98,0,1.69,.67,2.85,2.17,3.64-1.61,.22-2.34,.46-3.16,1.16-.69,.56-1.14,1.5-1.14,2.34,0,1.19,.55,1.93,1.92,2.6-2.06,.45-4.48,1.33-4.48,3.89,0,3.5,4.62,3.92,7.17,3.92,3.47,0,5.47-.42,7.19-1.55,1.5-.98,2.38-2.48,2.38-4.12,0-3.55-3.75-3.97-6.44-4.14-3.12-.17-3.36-.21-3.86-.32-.88-.2-1.3-.62-1.3-1.21,0-.85,.84-1.41,2.11-1.41,.45,0,.97,.03,1.44,.11,1.42,.2,1.64,.23,2.52,.23,1.95,0,3.5-.48,4.72-1.47,1.41-1.07,2.28-2.82,2.28-4.43s-.7-2.91-2.06-3.89m-4.03,0c1.83,0,2.98,1.09,2.98,2.79,0,2.53-1.16,5.72-4.14,5.72-1.89,0-3.08-1.2-3.08-3.15,0-3.16,1.72-5.36,4.23-5.36m-4.27,15.01c1.58,0,4.09,.36,4.89,.67,.88,.38,1.3,.99,1.3,1.86,0,2.07-2.2,3.18-6.22,3.18-3.41,0-4.98-.83-4.98-2.69s1.83-3.02,5.02-3.02m22.56-22.44c-.94,0-1.7,.79-1.7,1.72s.77,1.72,1.7,1.72,1.72-.76,1.72-1.72-.77-1.72-1.72-1.72m7.08,0c-.95,0-1.72,.79-1.72,1.72s.77,1.72,1.72,1.72,1.72-.76,1.72-1.72-.78-1.72-1.72-1.72m2.09,6.63h-3.05l-1.64,5.59c-1.44,4.88-4.66,8.86-7.14,8.86-.84,0-1.5-.67-1.5-1.5,0-.47,.09-1.01,.38-2l3.44-11.48-6.75,.53-.11,1.25h.84c1.42,0,1.95,.33,1.95,1.12,0,.35-.11,.85-.28,1.5l-1.39,4.74q-1.09,3.5-1.09,4.58c0,1.92,1.33,3.22,3.33,3.22,2.45,0,4.44-1.43,6.52-4.66-.36,1.23-.42,1.72-.42,2.39,0,1.36,.94,2.31,2.23,2.31,2.14,0,3.86-1.43,6.34-5.25l-1.06-.64c-1.7,2.56-3.08,3.96-3.84,3.96-.31,0-.62-.38-.62-.83,0-.39,.14-1.07,.41-2.08l3.47-11.61"/><path d="M807.43,703.27h202.54v12.4h-202.54v-12.4" fill-rule="evenodd"/><path d="M807.43,721.87h202.54v12.4h-202.54v-12.4" fill-rule="evenodd"/><path d="M2180.65,703.27h202.55v12.4h-202.55v-12.4" fill-rule="evenodd"/><path d="M2180.65,721.87h202.55v12.4h-202.55v-12.4" fill-rule="evenodd"/><path d="M1344.77,363.39h154.81v12.4h-154.81v-12.4" fill-rule="evenodd"/><path d="M1344.77,381.99h154.81v12.4h-154.81v-12.4" fill-rule="evenodd"/><path d="M273.92,388.19h154.8v12.4h-154.8v-12.4" fill-rule="evenodd"/><path d="M273.92,406.79h154.8v12.4h-154.8v-12.4" fill-rule="evenodd"/><path d="M680.12,363.39h154.81v12.4h-154.81v-12.4" fill-rule="evenodd"/><path d="M680.12,381.99h154.81v12.4h-154.81v-12.4" fill-rule="evenodd"/><path d="M1074.18,721.87h202.55v12.4h-202.55v-12.4" fill-rule="evenodd"/><path d="M1074.18,740.47h202.55v12.4h-202.55v-12.4" fill-rule="evenodd"/><path d="M1913.89,697.07h202.55v12.4h-202.55v-12.4" fill-rule="evenodd"/><path d="M1913.89,715.67h202.55v12.4h-202.55v-12.4" fill-rule="evenodd"/><path d="M2009.43,394.39h154.81v12.4h-154.81v-12.4" fill-rule="evenodd"/><path d="M2009.43,412.99h154.81v12.4h-154.81v-12.4" fill-rule="evenodd"/><path d="M679.65,29.71h154.63v12.4h-154.63v-12.4" fill-rule="evenodd"/><path d="M679.65,48.31h154.63v12.4h-154.63v-12.4" fill-rule="evenodd"/><path d="M1343.68,29.71h154.63v12.4h-154.63v-12.4" fill-rule="evenodd"/><path d="M1343.68,48.31h154.63v12.4h-154.63v-12.4" fill-rule="evenodd"/><path d="M1140.81,35.91h154.63v12.4h-154.63v-12.4" fill-rule="evenodd"/><path d="M1140.81,54.51h154.63v12.4h-154.63v-12.4" fill-rule="evenodd"/><path d="M882.52,54.51h154.63v12.4h-154.63v-12.4" fill-rule="evenodd"/><path d="M882.52,73.11h154.63v12.4h-154.63v-12.4" fill-rule="evenodd"/><path d="M2415.63,369.59h154.81v12.4h-154.81v-12.4" fill-rule="evenodd"/><path d="M2415.63,388.19h154.81v12.4h-154.81v-12.4" fill-rule="evenodd"/><path d="M2212.53,388.19h154.81v12.4h-154.81v-12.4" fill-rule="evenodd"/><path d="M2212.53,406.79h154.81v12.4h-154.81v-12.4" fill-rule="evenodd"/><path d="M2386.28,153.71h154.63v12.4h-154.63v-12.4" fill-rule="evenodd"/><path d="M2386.28,135.11h154.63v12.4h-154.63v-12.4" fill-rule="evenodd"/><path d="M540.67,697.07h202.55v12.4h-202.55v-12.4" fill-rule="evenodd"/><path d="M540.67,715.67h202.55v12.4h-202.55v-12.4" fill-rule="evenodd"/><path d="M476.78,35.91h154.63v12.4h-154.63v-12.4" fill-rule="evenodd"/><path d="M476.78,54.51h154.63v12.4h-154.63v-12.4" fill-rule="evenodd"/><path d="M1141.67,369.59h154.81v12.4h-154.81v-12.4" fill-rule="evenodd"/><path d="M1141.67,388.19h154.81v12.4h-154.81v-12.4" fill-rule="evenodd"/><path d="M1547.87,344.79h154.81v12.4h-154.81v-12.4" fill-rule="evenodd"/><path d="M1547.87,363.39h154.81v12.4h-154.81v-12.4" fill-rule="evenodd"/><path d="M1380.38,703.27h202.55v12.4h-202.55v-12.4" fill-rule="evenodd"/><path d="M1380.38,721.87h202.55v12.4h-202.55v-12.4" fill-rule="evenodd"/><path d="M273.92,54.51h154.63v12.4h-154.63v-12.4" fill-rule="evenodd"/><path d="M273.92,73.11h154.63v12.4h-154.63v-12.4" fill-rule="evenodd"/><path d="M2618.9,29.71h154.63v12.4h-154.63v-12.4" fill-rule="evenodd"/><path d="M2618.9,48.31h154.63v12.4h-154.63v-12.4" fill-rule="evenodd"/><path d="M2618.73,394.39h154.8v12.4h-154.8v-12.4" fill-rule="evenodd"/><path d="M2618.73,412.99h154.8v12.4h-154.8v-12.4" fill-rule="evenodd"/><path d="M883.21,388.19h154.81v12.4h-154.81v-12.4" fill-rule="evenodd"/><path d="M883.21,406.79h154.81v12.4h-154.81v-12.4" fill-rule="evenodd"/><path d="M477.02,369.59h154.8v12.4h-154.8v-12.4" fill-rule="evenodd"/><path d="M477.02,388.19h154.8v12.4h-154.8v-12.4" fill-rule="evenodd"/><path d="M273.92,721.87h202.55v12.4h-202.55v-12.4" fill-rule="evenodd"/><path d="M273.92,740.47h202.55v12.4h-202.55v-12.4" fill-rule="evenodd"/><path d="M2210.57,11.11h154.63v12.4h-154.63V11.11" fill-rule="evenodd"/><path d="M2210.57,29.71h154.63v12.4h-154.63v-12.4" fill-rule="evenodd"/><path d="M2007.7,29.71h154.63v12.4h-154.63v-12.4" fill-rule="evenodd"/><path d="M2007.7,48.31h154.63v12.4h-154.63v-12.4" fill-rule="evenodd"/><path d="M1749.41,35.91h154.64v12.4h-154.64v-12.4" fill-rule="evenodd"/><path d="M1749.41,54.51h154.64v12.4h-154.64v-12.4" fill-rule="evenodd"/><path d="M1750.97,369.59h154.81v12.4h-154.81v-12.4" fill-rule="evenodd"/><path d="M1750.97,388.19h154.81v12.4h-154.81v-12.4" fill-rule="evenodd"/><path d="M1647.14,678.47h202.54v12.4h-202.54v-12.4" fill-rule="evenodd"/><path d="M1647.14,697.07h202.54v12.4h-202.54v-12.4" fill-rule="evenodd"/><path d="M1546.55,11.11h154.63v12.4h-154.63V11.11" fill-rule="evenodd"/><path d="M1546.55,29.71h154.63v12.4h-154.63v-12.4" fill-rule="evenodd"/></g></svg>