<?xml version="1.0" encoding="UTF-8"?><svg id="Ebene_2" xmlns="http://www.w3.org/2000/svg" viewBox="0 0 2552.4 200.01"><g id="Ebene_1-2"><line y1="51.26" x2="2552.4" y2="51.26" fill="none" stroke="#000" stroke-linejoin="bevel" stroke-width="2.73"/><line y1="76.06" x2="2552.4" y2="76.06" fill="none" stroke="#000" stroke-linejoin="bevel" stroke-width="2.73"/><line y1="100.86" x2="2552.4" y2="100.86" fill="none" stroke="#000" stroke-linejoin="bevel" stroke-width="2.73"/><line y1="125.66" x2="2552.4" y2="125.66" fill="none" stroke="#000" stroke-linejoin="bevel" stroke-width="2.73"/><line y1="150.46" x2="2552.4" y2="150.46" fill="none" stroke="#000" stroke-linejoin="bevel" stroke-width="2.73"/><line x1="2536.53" y1="49.89" x2="2536.53" y2="151.82" fill="none" stroke="#000" stroke-linejoin="bevel" stroke-width="4.46"/><line x1="2550.17" y1="49.89" x2="2550.17" y2="151.82" fill="none" stroke="#000" stroke-linejoin="bevel" stroke-width="4.46"/><line x1="2291.08" y1="49.89" x2="2291.08" y2="151.82" fill="none" stroke="#000" stroke-linejoin="bevel" stroke-width="4.46"/><line x1="1222.81" y1="49.89" x2="1222.81" y2="151.82" fill="none" stroke="#000" stroke-linejoin="bevel" stroke-width="4.46"/><line x1="1756.95" y1="49.89" x2="1756.95" y2="151.82" fill="none" stroke="#000" stroke-linejoin="bevel" stroke-width="4.46"/><line x1="688.68" y1="49.89" x2="688.68" y2="151.82" fill="none" stroke="#000" stroke-linejoin="bevel" stroke-width="4.46"/><line x1="785.53" y1="105.02" x2="785.53" y2="181.46" fill="none" stroke="#000" stroke-linejoin="bevel" stroke-width="2.48"/><line x1="846.67" y1="92.62" x2="846.67" y2="181.46" fill="none" stroke="#000" stroke-linejoin="bevel" stroke-width="2.48"/><line x1="907.82" y1="117.42" x2="907.82" y2="181.46" fill="none" stroke="#000" stroke-linejoin="bevel" stroke-width="2.48"/><line x1="998.71" y1="134.09" x2="998.71" y2="45.06" fill="none" stroke="#000" stroke-linejoin="bevel" stroke-width="2.48"/><line x1="1059.85" y1="121.69" x2="1059.85" y2="45.06" fill="none" stroke="#000" stroke-linejoin="bevel" stroke-width="2.48"/><line x1="1121" y1="109.29" x2="1121" y2="45.06" fill="none" stroke="#000" stroke-linejoin="bevel" stroke-width="2.48"/><line x1="525.72" y1="109.29" x2="525.72" y2="32.66" fill="none" stroke="#000" stroke-linejoin="bevel" stroke-width="2.48"/><line x1="1182.14" y1="134.09" x2="1182.14" y2="45.06" fill="none" stroke="#000" stroke-linejoin="bevel" stroke-width="2.48"/><line x1="1288.28" y1="121.69" x2="1288.28" y2="32.66" fill="none" stroke="#000" stroke-linejoin="bevel" stroke-width="2.48"/><line x1="1349.42" y1="109.29" x2="1349.42" y2="32.66" fill="none" stroke="#000" stroke-linejoin="bevel" stroke-width="2.48"/><line x1="1410.56" y1="96.89" x2="1410.56" y2="32.66" fill="none" stroke="#000" stroke-linejoin="bevel" stroke-width="2.48"/><line x1="1471.7" y1="121.69" x2="1471.7" y2="32.66" fill="none" stroke="#000" stroke-linejoin="bevel" stroke-width="2.48"/><line x1="1532.85" y1="146.49" x2="1532.85" y2="51.26" fill="none" stroke="#000" stroke-linejoin="bevel" stroke-width="2.48"/><line x1="1593.99" y1="134.09" x2="1593.99" y2="51.26" fill="none" stroke="#000" stroke-linejoin="bevel" stroke-width="2.48"/><line x1="1655.13" y1="121.69" x2="1655.13" y2="51.26" fill="none" stroke="#000" stroke-linejoin="bevel" stroke-width="2.48"/><line x1="1716.28" y1="146.49" x2="1716.28" y2="51.26" fill="none" stroke="#000" stroke-linejoin="bevel" stroke-width="2.48"/><line x1="1822.41" y1="134.09" x2="1822.41" y2="45.06" fill="none" stroke="#000" stroke-linejoin="bevel" stroke-width="2.48"/><line x1="1883.55" y1="109.29" x2="1883.55" y2="45.06" fill="none" stroke="#000" stroke-linejoin="bevel" stroke-width="2.48"/><line x1="1944.7" y1="121.69" x2="1944.7" y2="45.06" fill="none" stroke="#000" stroke-linejoin="bevel" stroke-width="2.48"/><line x1="2005.84" y1="134.09" x2="2005.84" y2="45.06" fill="none" stroke="#000" stroke-linejoin="bevel" stroke-width="2.48"/><line x1="2066.98" y1="121.69" x2="2066.98" y2="32.66" fill="none" stroke="#000" stroke-linejoin="bevel" stroke-width="2.48"/><line x1="2128.13" y1="96.89" x2="2128.13" y2="32.66" fill="none" stroke="#000" stroke-linejoin="bevel" stroke-width="2.48"/><line x1="2189.27" y1="109.29" x2="2189.27" y2="32.66" fill="none" stroke="#000" stroke-linejoin="bevel" stroke-width="2.48"/><line x1="2250.41" y1="121.69" x2="2250.41" y2="32.66" fill="none" stroke="#000" stroke-linejoin="bevel" stroke-width="2.48"/><line x1="220.01" y1="134.09" x2="220.01" y2="45.06" fill="none" stroke="#000" stroke-linejoin="bevel" stroke-width="2.48"/><line x1="281.15" y1="121.69" x2="281.15" y2="45.06" fill="none" stroke="#000" stroke-linejoin="bevel" stroke-width="2.48"/><line x1="342.29" y1="109.29" x2="342.29" y2="45.06" fill="none" stroke="#000" stroke-linejoin="bevel" stroke-width="2.48"/><line x1="403.44" y1="134.09" x2="403.44" y2="45.06" fill="none" stroke="#000" stroke-linejoin="bevel" stroke-width="2.48"/><line x1="464.58" y1="121.69" x2="464.58" y2="32.66" fill="none" stroke="#000" stroke-linejoin="bevel" stroke-width="2.48"/><line x1="586.86" y1="96.89" x2="586.86" y2="32.66" fill="none" stroke="#000" stroke-linejoin="bevel" stroke-width="2.48"/><line x1="648.01" y1="121.69" x2="648.01" y2="32.66" fill="none" stroke="#000" stroke-linejoin="bevel" stroke-width="2.48"/><line x1="724.39" y1="117.42" x2="724.39" y2="181.46" fill="none" stroke="#000" stroke-linejoin="bevel" stroke-width="2.48"/><path d="M1379.57,105.03c0,4.26,3.07,9.02,11.11,9.02,10.31,0,21.13-8.43,21.13-17.16,0-5.86-4.96-9.13-11.11-9.13-9.63,0-21.13,8.14-21.13,17.27"/><path d="M189.01,142.23c0,4.26,3.07,9.02,11.11,9.02,10.31,0,21.13-8.43,21.13-17.16,0-5.86-4.96-9.13-11.11-9.13-9.63,0-21.13,8.14-21.13,17.27"/><path d="M250.16,129.83c0,4.26,3.07,9.02,11.11,9.02,10.31,0,21.13-8.43,21.13-17.16,0-5.86-4.96-9.13-11.11-9.13-9.63,0-21.13,8.14-21.13,17.27"/><path d="M311.3,117.43c0,4.26,3.07,9.02,11.11,9.02,10.31,0,21.13-8.43,21.13-17.16,0-5.86-4.96-9.13-11.11-9.13-9.63,0-21.13,8.14-21.13,17.27"/><path d="M372.44,142.23c0,4.26,3.07,9.02,11.11,9.02,10.31,0,21.13-8.43,21.13-17.16,0-5.86-4.96-9.13-11.11-9.13-9.63,0-21.13,8.14-21.13,17.27"/><path d="M433.59,129.83c0,4.26,3.07,9.02,11.11,9.02,10.31,0,21.13-8.43,21.13-17.16,0-5.86-4.96-9.13-11.11-9.13-9.63,0-21.13,8.14-21.13,17.27"/><path d="M494.73,117.43c0,4.26,3.07,9.02,11.11,9.02,10.31,0,21.13-8.43,21.13-17.16,0-5.86-4.96-9.13-11.11-9.13-9.63,0-21.13,8.14-21.13,17.27"/><path d="M555.87,105.03c0,4.26,3.07,9.02,11.11,9.02,10.31,0,21.13-8.43,21.13-17.16,0-5.86-4.96-9.13-11.11-9.13-9.63,0-21.13,8.14-21.13,17.27"/><path d="M617.01,129.83c0,4.26,3.07,9.02,11.11,9.02,10.31,0,21.13-8.43,21.13-17.16,0-5.86-4.96-9.13-11.11-9.13-9.63,0-21.13,8.14-21.13,17.27"/><path d="M723.15,117.43c0,4.26,3.07,9.02,11.11,9.02,10.31,0,21.13-8.43,21.13-17.16,0-5.86-4.96-9.13-11.11-9.13-9.63,0-21.13,8.14-21.13,17.27"/><path d="M784.29,105.03c0,4.26,3.07,9.02,11.11,9.02,10.31,0,21.13-8.43,21.13-17.16,0-5.86-4.96-9.13-11.11-9.13-9.63,0-21.13,8.14-21.13,17.27"/><path d="M845.43,92.63c0,4.26,3.07,9.02,11.11,9.02,10.31,0,21.13-8.43,21.13-17.16,0-5.86-4.96-9.13-11.11-9.13-9.63,0-21.13,8.14-21.13,17.27"/><path d="M906.58,117.43c0,4.26,3.07,9.02,11.11,9.02,10.31,0,21.13-8.43,21.13-17.16,0-5.86-4.96-9.13-11.11-9.13-9.63,0-21.13,8.14-21.13,17.27"/><path d="M967.72,142.23c0,4.26,3.07,9.02,11.11,9.02,10.31,0,21.13-8.43,21.13-17.16,0-5.86-4.96-9.13-11.11-9.13-9.63,0-21.13,8.14-21.13,17.27"/><path d="M1028.86,129.83c0,4.26,3.07,9.02,11.11,9.02,10.31,0,21.13-8.43,21.13-17.16,0-5.86-4.96-9.13-11.11-9.13-9.63,0-21.13,8.14-21.13,17.27"/><path d="M1090,117.43c0,4.26,3.07,9.02,11.11,9.02,10.31,0,21.13-8.43,21.13-17.16,0-5.86-4.96-9.13-11.11-9.13-9.63,0-21.13,8.14-21.13,17.27"/><path d="M1151.15,142.23c0,4.26,3.07,9.02,11.11,9.02,10.31,0,21.13-8.43,21.13-17.16,0-5.86-4.96-9.13-11.11-9.13-9.63,0-21.13,8.14-21.13,17.27"/><path d="M1257.28,129.83c0,4.26,3.07,9.02,11.11,9.02,10.31,0,21.13-8.43,21.13-17.16,0-5.86-4.96-9.13-11.11-9.13-9.63,0-21.13,8.14-21.13,17.27"/><path d="M1318.43,117.43c0,4.26,3.07,9.02,11.11,9.02,10.31,0,21.13-8.43,21.13-17.16,0-5.86-4.96-9.13-11.11-9.13-9.63,0-21.13,8.14-21.13,17.27"/><path d="M1440.71,129.83c0,4.26,3.07,9.02,11.11,9.02,10.31,0,21.13-8.43,21.13-17.16,0-5.86-4.96-9.13-11.11-9.13-9.63,0-21.13,8.14-21.13,17.27"/><path d="M1501.85,154.63c0,4.26,3.07,9.02,11.11,9.02,10.31,0,21.13-8.43,21.13-17.16,0-5.86-4.96-9.13-11.11-9.13-9.63,0-21.13,8.14-21.13,17.27"/><path d="M1563,142.23c0,4.26,3.07,9.02,11.11,9.02,10.31,0,21.13-8.43,21.13-17.16,0-5.86-4.96-9.13-11.11-9.13-9.63,0-21.13,8.14-21.13,17.27"/><path d="M1624.14,129.83c0,4.26,3.07,9.02,11.11,9.02,10.31,0,21.13-8.43,21.13-17.16,0-5.86-4.96-9.13-11.11-9.13-9.63,0-21.13,8.14-21.13,17.27"/><path d="M1685.28,154.63c0,4.26,3.07,9.02,11.11,9.02,10.31,0,21.13-8.43,21.13-17.16,0-5.86-4.96-9.13-11.11-9.13-9.63,0-21.13,8.14-21.13,17.27"/><path d="M1791.42,142.23c0,4.26,3.07,9.02,11.11,9.02,10.31,0,21.13-8.43,21.13-17.16,0-5.86-4.96-9.13-11.11-9.13-9.63,0-21.13,8.14-21.13,17.27"/><path d="M1852.56,117.43c0,4.26,3.07,9.02,11.11,9.02,10.31,0,21.13-8.43,21.13-17.16,0-5.86-4.96-9.13-11.11-9.13-9.63,0-21.13,8.14-21.13,17.27"/><path d="M1913.7,129.83c0,4.26,3.07,9.02,11.11,9.02,10.31,0,21.13-8.43,21.13-17.16,0-5.86-4.96-9.13-11.11-9.13-9.63,0-21.13,8.14-21.13,17.27"/><path d="M1974.85,142.23c0,4.26,3.07,9.02,11.11,9.02,10.31,0,21.13-8.43,21.13-17.16,0-5.86-4.96-9.13-11.11-9.13-9.63,0-21.13,8.14-21.13,17.27"/><path d="M2035.99,129.83c0,4.26,3.07,9.02,11.11,9.02,10.31,0,21.13-8.43,21.13-17.16,0-5.86-4.96-9.13-11.11-9.13-9.63,0-21.13,8.14-21.13,17.27"/><path d="M2097.13,105.03c0,4.26,3.07,9.02,11.11,9.02,10.31,0,21.13-8.43,21.13-17.16,0-5.86-4.96-9.13-11.11-9.13-9.63,0-21.13,8.14-21.13,17.27"/><path d="M2158.28,117.43c0,4.26,3.07,9.02,11.11,9.02,10.31,0,21.13-8.43,21.13-17.16,0-5.86-4.96-9.13-11.11-9.13-9.63,0-21.13,8.14-21.13,17.27"/><path d="M2219.42,129.83c0,4.26,3.07,9.02,11.11,9.02,10.31,0,21.13-8.43,21.13-17.16,0-5.86-4.96-9.13-11.11-9.13-9.63,0-21.13,8.14-21.13,17.27"/><path d="M2344.11,124.57c-13.69,0-18.55,6.94-18.55,13.39s4.87,13.39,18.55,13.39,18.45-6.94,18.45-13.39-4.76-13.39-18.45-13.39m.79,23.61c-2.77,0-4.67-.79-5.95-3.27s-3.07-8.93-3.18-11.52c-.2-2.68,.79-4.26,3.18-5.05,1.19-.4,2.77-.6,4.37-.6,2.67,0,4.46,.6,5.84,3.29,1.39,2.57,3.29,9.02,3.29,11.5,0,4.87-3.58,5.66-7.55,5.66"/><path d="M30.8,176.54c0,6.56,4.96,15.19,18.35,15.19,4.67,0,8.74-1.19,12.31-3.38,5.36-3.77,6.74-10.32,6.74-16.57,0-3.86-.59-8.32-1.58-13.98-.29-1.98-.9-4.96-1.49-8.84,9.72-3.18,16.96-13.3,16.96-23.51,0-14.97-10.62-25.09-25.09-25.09-.99-5.95-1.98-11.81-2.77-17.36,10.42-11.02,17.65-23.42,17.65-39.18,0-9.04-2.77-16.37-4.37-19.95-2.37-5.05-5.25-8.53-7.04-8.53-.7,0-3.77,1.19-7.04,5.05-6.36,7.55-8.14,20.24-8.14,28.57,0,5.36,.5,10.23,2.19,21.34-.11,.09-5.27,5.35-7.35,7.04-9.04,8.34-21.53,20.43-21.53,40.28,0,18.54,16.17,33.12,34.63,33.12,2.87,0,5.55-.29,7.83-.7,1.89,9.53,3.08,16.48,3.08,21.73,0,10.32-5.36,15.78-15.38,15.78-2.39,0-4.46-.5-4.67-.5-.09-.11-.29-.2-.29-.29,0-.2,.2-.31,.5-.31,4.67-.79,9.32-4.76,9.32-11.1,0-5.36-4.06-11.02-11.5-11.02-6.94,0-11.31,5.66-11.31,12.2M51.54,44.11c.9-3.97,5.46-14.38,10.62-14.38,1.49,0,3.86,4.76,3.86,11.7,0,10.32-7.63,18.06-14.48,24.8-.59-3.97-1.08-7.83-1.08-12,0-3.67,.29-7.05,1.08-10.12m8.73,101.97c-1.98,.4-3.86,.6-5.75,.6-14.18,0-26.29-9.92-26.29-24.91,0-12.09,8.53-22.91,17.27-30.46,1.67-1.49,3.27-2.87,4.76-4.36,.88,5.35,1.58,10.01,2.28,14.09-9.04,2.68-15.17,12.2-15.17,21.53,0,6.94,5.46,16.46,13.39,16.46,.79,0,1.69-.4,1.69-1.29s-.99-1.39-2.19-2.19c-3.88-2.39-6.06-4.96-6.06-9.83,0-6.05,4.57-10.91,10.32-12.29l5.75,32.63m14.09-18.35c0,7.05-2.88,14.29-9.92,17.17-2.08-11.9-4.76-27.68-5.46-32.05,8.93,0,15.38,6.06,15.38,14.88"/><path d="M118.79,85.48c-4.96,0-7.84,3.07-8.34,3.67l.4-31.85c0-.79-.59-1.38-1.4-1.38h-1.18c-.81,0-1.4,.59-1.4,1.38l.5,59.63c0,.79,.59,1.38,1.4,1.38,.19,0,.59-.09,.79-.19,8.53-4.28,17.45-12.4,17.45-22.63,0-5.15-2.37-10.01-8.23-10.01m-8.63,27.98l.29-19.34c.2-.9,1.69-3.77,5.66-3.77,3.58,0,3.87,3.36,3.87,5.46,0,8.82-3.27,12.49-9.83,17.65"/><path d="M2366.78,13.06c-9.32-10.12-17.56-10.71-22.71-10.71s-13.3,.59-22.63,10.71c-4.85,5.36-8.23,15.97-8.23,21.33,0,1.89,.4,3.18,1.4,3.18,2.77,0,1.38-8.54,9.72-16.97,7.33-7.33,17.16-7.44,19.55-7.44h.39c2.39,0,12.21,.11,19.55,7.44,8.34,8.43,6.94,16.97,9.72,16.97,.99,0,1.39-1.19,1.39-3.18,0-5.36-3.27-16.07-8.14-21.33m-29.56,18.94c0,3.78,3.07,6.85,6.85,6.85s6.84-3.07,6.84-6.85-3.07-6.84-6.84-6.84-6.85,3.07-6.85,6.84"/><path d="M624.94,174.65c.64-.56,1-.75,1.47-.75,.41,0,.73,.19,1.05,.64,.64,.88,.88,1.03,1.52,1.03,.92,0,1.61-.75,1.61-1.75,0-1.17-1.12-2.09-2.53-2.09s-2.47,.53-4.55,2.17c-1.25-.56-2.17-.77-3.45-.77-4.44,0-8.19,3.16-8.19,6.84,0,1.92,.75,3.23,2.47,4.16-1.83,.23-2.67,.52-3.59,1.31-.8,.64-1.31,1.72-1.31,2.69,0,1.36,.64,2.2,2.19,2.95-2.36,.53-5.11,1.53-5.11,4.44,0,4,5.28,4.48,8.2,4.48,3.95,0,6.23-.48,8.19-1.77,1.72-1.11,2.72-2.83,2.72-4.72,0-4.03-4.28-4.52-7.36-4.72-3.55-.19-3.83-.23-4.39-.36-1-.23-1.48-.72-1.48-1.39,0-.97,.95-1.61,2.41-1.61,.52,0,1.11,.05,1.64,.12,1.64,.23,1.88,.28,2.88,.28,2.23,0,4-.56,5.39-1.69,1.61-1.23,2.61-3.23,2.61-5.08s-.8-3.31-2.36-4.44m-4.61,0c2.09,0,3.41,1.25,3.41,3.2,0,2.88-1.31,6.52-4.72,6.52-2.16,0-3.52-1.36-3.52-3.59,0-3.59,1.95-6.12,4.83-6.12m-4.88,17.16c1.8,0,4.69,.41,5.59,.77,1,.44,1.48,1.12,1.48,2.12,0,2.36-2.52,3.64-7.11,3.64-3.89,0-5.69-.97-5.69-3.09s2.08-3.44,5.72-3.44m25.08-25.62c-1.08,0-1.95,.88-1.95,1.95s.88,1.95,1.95,1.95,1.97-.88,1.97-1.95-.89-1.95-1.97-1.95m8.08,0c-1.08,0-1.95,.88-1.95,1.95s.88,1.95,1.95,1.95,1.97-.88,1.97-1.95-.89-1.95-1.97-1.95m2.41,7.55h-3.48l-1.88,6.41c-1.64,5.56-5.33,10.11-8.16,10.11-.97,0-1.72-.75-1.72-1.72,0-.52,.11-1.16,.44-2.27l3.92-13.12-7.72,.59-.12,1.45h.95c1.64,0,2.25,.36,2.25,1.27,0,.41-.12,.97-.33,1.73l-1.59,5.39q-1.23,4-1.23,5.23c0,2.2,1.52,3.69,3.8,3.69,2.8,0,5.08-1.64,7.44-5.33-.41,1.41-.48,1.97-.48,2.72,0,1.56,1.08,2.64,2.56,2.64,2.44,0,4.39-1.64,7.23-6l-1.2-.72c-1.95,2.92-3.52,4.53-4.39,4.53-.36,0-.72-.45-.72-.97,0-.44,.16-1.2,.47-2.36l3.97-13.28"/><path d="M723.87,9.77c-4.2,0-7.25,2.56-7.25,6.03,0,1.73,1,3.17,2.77,4.09,.64,.31,1.44,.67,3.12,1.36,2.27,.91,2.83,1.47,2.83,2.88,0,2.16-1.8,3.52-4.56,3.52-2.03,0-3.47-.56-3.47-1.36,0-.2,.11-.44,.28-.59,.75-.8,.83-1,.83-1.72,0-1.12-.88-2-2.03-2-1.33,0-2.33,1.11-2.33,2.67,0,2.8,2.48,4.52,6.53,4.52,4.59,0,7.75-2.52,7.75-6.16,0-1.59-.72-2.95-2-3.83-.88-.61-1.28-.77-3.47-1.56-2.61-.92-3.28-1.56-3.28-3.12,0-1.84,1.75-3.2,4.08-3.2,1.56,0,2.59,.44,2.59,1.08,0,.17-.08,.36-.2,.56-.56,.8-.64,1-.64,1.61,0,1.08,.84,1.83,2.08,1.83,1.36,0,2.28-1,2.28-2.44,0-2.44-2.44-4.16-5.91-4.16m16.75-9.77c-1.2,0-2.16,.97-2.16,2.17s.95,2.16,2.12,2.16c1.23,0,2.19-.97,2.19-2.16s-.95-2.17-2.16-2.17m.72,9.77l-7.67,.59-.16,1.45h.95c1.64,0,2.28,.36,2.28,1.23,0,.39-.08,.84-.36,1.77l-2.33,7.8c-.75,2.55-.88,3.11-.88,4.03,0,1.41,1.2,2.48,2.72,2.48,3.44,0,5.8-3.56,7.48-6.16l-1.25-.69c-2.08,3.16-3.75,4.84-4.83,4.84-.41,0-.69-.36-.69-.84,0-.39,.16-1.12,.48-2.23l4.23-14.28m12.97,0l-7.28,.59-.12,1.45h.97c1.59,0,2.23,.36,2.23,1.27,0,.36-.12,.97-.33,1.73l-4.08,13.75h3.48l1.64-5.64c1.8-6.12,5.44-10.75,8.44-10.75,1.05,0,1.69,.55,1.69,1.55,0,.81-.33,2.48-.81,4l-3.19,10.84h3.47l1.72-5.8c1-3.33,2-5.56,3.28-7.28,1.44-2,3.48-3.31,5-3.31,1,0,1.56,.52,1.56,1.47,0,.56-.2,1.44-.56,2.56l-1.84,5.69c-1.08,3.11-1.11,3.36-1.11,4.47,0,1.69,1.23,2.8,3.11,2.8,1.33,0,2.61-.64,3.97-1.91,.84-.81,1.39-1.53,3.03-3.92l-1.23-.84c-2.08,3.12-3.56,4.64-4.59,4.64-.44,0-.84-.44-.84-1,0-.36,.12-.8,.48-1.97l2.52-7.75c.28-.88,.48-2.12,.48-3,0-2.12-1.56-3.64-3.72-3.64-2.84,0-5.41,1.84-7.72,5.64,.16-.77,.23-1.44,.23-1.92,0-2.12-1.69-3.72-3.88-3.72-2.53,0-4.36,1.41-7.17,5.41l1.17-5.41m29.95,14.44c-1.36,0-2.47,1.12-2.47,2.48s1.11,2.47,2.44,2.47c1.44,0,2.52-1.08,2.52-2.47s-1.12-2.48-2.48-2.48"/><path d="M565.88,185.62c-2.33,3.75-3.33,4.8-4.64,4.8-.64,0-1-.41-1-1.12,0-.52,.2-1.44,.59-2.84l7.12-23.98-7.95,.59-.17,1.44h1.25c1.64,0,2.28,.36,2.28,1.23,0,.41-.12,.92-.36,1.77l-2.64,8.88c-.72-2.08-2.28-3.23-4.61-3.23-5.75,0-11.11,6.16-11.11,12.8,0,3.92,2.52,6.59,6.28,6.59,2.72,0,4.72-1.11,6.47-3.72-.03,.33-.03,.72-.03,.89,0,1.83,.95,2.83,2.72,2.83,2.52,0,4.72-1.95,7-6.19l-1.2-.72m-10-10.69c1.95,0,3.39,1.52,3.39,3.61,0,3.62-2.55,12.11-7.19,12.11-2.16,0-3.56-1.72-3.56-4.31,0-3.8,2.72-11.41,7.36-11.41m22.52-8.75c-1.08,0-1.95,.88-1.95,1.95s.88,1.95,1.95,1.95,1.97-.88,1.97-1.95-.89-1.95-1.97-1.95m8.08,0c-1.08,0-1.95,.88-1.95,1.95s.88,1.95,1.95,1.95,1.97-.88,1.97-1.95-.89-1.95-1.97-1.95m2.41,7.55h-3.48l-1.88,6.41c-1.64,5.56-5.33,10.11-8.16,10.11-.97,0-1.72-.75-1.72-1.72,0-.52,.11-1.16,.44-2.27l3.92-13.12-7.72,.59-.12,1.45h.95c1.64,0,2.25,.36,2.25,1.27,0,.41-.12,.97-.33,1.73l-1.59,5.39q-1.23,4-1.23,5.23c0,2.2,1.52,3.69,3.8,3.69,2.8,0,5.08-1.64,7.44-5.33-.41,1.41-.48,1.97-.48,2.72,0,1.56,1.08,2.64,2.56,2.64,2.44,0,4.39-1.64,7.23-6l-1.2-.72c-1.95,2.92-3.52,4.53-4.39,4.53-.36,0-.72-.45-.72-.97,0-.44,.16-1.2,.47-2.36l3.97-13.28"/><path d="M502.66,174.65c.64-.56,1-.75,1.47-.75,.41,0,.74,.19,1.05,.64,.64,.88,.88,1.03,1.52,1.03,.92,0,1.61-.75,1.61-1.75,0-1.17-1.12-2.09-2.53-2.09s-2.47,.53-4.55,2.17c-1.25-.56-2.17-.77-3.45-.77-4.44,0-8.19,3.16-8.19,6.84,0,1.92,.75,3.23,2.47,4.16-1.83,.23-2.67,.52-3.59,1.31-.8,.64-1.31,1.72-1.31,2.69,0,1.36,.64,2.2,2.19,2.95-2.36,.53-5.11,1.53-5.11,4.44,0,4,5.28,4.48,8.2,4.48,3.95,0,6.23-.48,8.19-1.77,1.72-1.11,2.72-2.83,2.72-4.72,0-4.03-4.28-4.52-7.36-4.72-3.55-.19-3.83-.23-4.39-.36-1-.23-1.48-.72-1.48-1.39,0-.97,.95-1.61,2.41-1.61,.52,0,1.11,.05,1.64,.12,1.64,.23,1.88,.28,2.88,.28,2.23,0,4-.56,5.39-1.69,1.61-1.23,2.61-3.23,2.61-5.08s-.8-3.31-2.36-4.44m-4.61,0c2.09,0,3.41,1.25,3.41,3.2,0,2.88-1.31,6.52-4.72,6.52-2.16,0-3.52-1.36-3.52-3.59,0-3.59,1.95-6.12,4.83-6.12m-4.88,17.16c1.8,0,4.69,.41,5.59,.77,1,.44,1.48,1.12,1.48,2.12,0,2.36-2.51,3.64-7.11,3.64-3.89,0-5.69-.97-5.69-3.09s2.08-3.44,5.72-3.44m25.08-25.62c-1.08,0-1.95,.88-1.95,1.95s.88,1.95,1.95,1.95,1.97-.88,1.97-1.95-.89-1.95-1.97-1.95m8.08,0c-1.08,0-1.95,.88-1.95,1.95s.88,1.95,1.95,1.95,1.97-.88,1.97-1.95-.89-1.95-1.97-1.95m2.41,7.55h-3.49l-1.88,6.41c-1.64,5.56-5.33,10.11-8.16,10.11-.97,0-1.72-.75-1.72-1.72,0-.52,.11-1.16,.44-2.27l3.92-13.12-7.72,.59-.12,1.45h.95c1.64,0,2.25,.36,2.25,1.27,0,.41-.12,.97-.33,1.73l-1.59,5.39q-1.23,4-1.23,5.23c0,2.2,1.51,3.69,3.8,3.69,2.8,0,5.08-1.64,7.44-5.33-.41,1.41-.48,1.97-.48,2.72,0,1.56,1.08,2.64,2.56,2.64,2.44,0,4.39-1.64,7.24-6l-1.2-.72c-1.95,2.92-3.51,4.53-4.39,4.53-.36,0-.72-.45-.72-.97,0-.44,.16-1.2,.47-2.36l3.97-13.28"/><path d="M443.59,185.62c-2.33,3.75-3.33,4.8-4.64,4.8-.64,0-1-.41-1-1.12,0-.52,.2-1.44,.59-2.84l7.12-23.98-7.95,.59-.17,1.44h1.25c1.64,0,2.28,.36,2.28,1.23,0,.41-.12,.92-.36,1.77l-2.64,8.88c-.72-2.08-2.28-3.23-4.61-3.23-5.75,0-11.11,6.16-11.11,12.8,0,3.92,2.52,6.59,6.28,6.59,2.72,0,4.72-1.11,6.47-3.72-.03,.33-.03,.72-.03,.89,0,1.83,.95,2.83,2.72,2.83,2.52,0,4.72-1.95,7-6.19l-1.2-.72m-10-10.69c1.95,0,3.39,1.52,3.39,3.61,0,3.62-2.55,12.11-7.19,12.11-2.16,0-3.56-1.72-3.56-4.31,0-3.8,2.72-11.41,7.36-11.41m22.52-8.75c-1.08,0-1.95,.88-1.95,1.95s.88,1.95,1.95,1.95,1.97-.88,1.97-1.95-.89-1.95-1.97-1.95m8.08,0c-1.08,0-1.95,.88-1.95,1.95s.88,1.95,1.95,1.95,1.97-.88,1.97-1.95-.89-1.95-1.97-1.95m2.41,7.55h-3.48l-1.88,6.41c-1.64,5.56-5.33,10.11-8.16,10.11-.97,0-1.72-.75-1.72-1.72,0-.52,.11-1.16,.44-2.27l3.92-13.12-7.72,.59-.12,1.45h.95c1.64,0,2.25,.36,2.25,1.27,0,.41-.12,.97-.33,1.73l-1.59,5.39q-1.23,4-1.23,5.23c0,2.2,1.52,3.69,3.8,3.69,2.8,0,5.08-1.64,7.44-5.33-.41,1.41-.48,1.97-.48,2.72,0,1.56,1.08,2.64,2.56,2.64,2.44,0,4.39-1.64,7.23-6l-1.2-.72c-1.95,2.92-3.52,4.53-4.39,4.53-.36,0-.72-.45-.72-.97,0-.44,.16-1.2,.47-2.36l3.97-13.28"/><path d="M380.37,174.65c.64-.56,1-.75,1.47-.75,.41,0,.73,.19,1.05,.64,.64,.88,.88,1.03,1.52,1.03,.92,0,1.61-.75,1.61-1.75,0-1.17-1.12-2.09-2.53-2.09s-2.47,.53-4.55,2.17c-1.25-.56-2.17-.77-3.45-.77-4.44,0-8.19,3.16-8.19,6.84,0,1.92,.75,3.23,2.47,4.16-1.83,.23-2.67,.52-3.59,1.31-.8,.64-1.31,1.72-1.31,2.69,0,1.36,.64,2.2,2.19,2.95-2.36,.53-5.11,1.53-5.11,4.44,0,4,5.28,4.48,8.2,4.48,3.95,0,6.23-.48,8.19-1.77,1.72-1.11,2.72-2.83,2.72-4.72,0-4.03-4.28-4.52-7.36-4.72-3.55-.19-3.83-.23-4.39-.36-1-.23-1.48-.72-1.48-1.39,0-.97,.95-1.61,2.41-1.61,.52,0,1.11,.05,1.64,.12,1.64,.23,1.88,.28,2.88,.28,2.23,0,4-.56,5.39-1.69,1.61-1.23,2.61-3.23,2.61-5.08s-.8-3.31-2.36-4.44m-4.61,0c2.09,0,3.41,1.25,3.41,3.2,0,2.88-1.31,6.52-4.72,6.52-2.16,0-3.52-1.36-3.52-3.59,0-3.59,1.95-6.12,4.83-6.12m-4.88,17.16c1.8,0,4.69,.41,5.59,.77,1,.44,1.48,1.12,1.48,2.12,0,2.36-2.52,3.64-7.11,3.64-3.89,0-5.69-.97-5.69-3.09s2.08-3.44,5.72-3.44m25.08-25.62c-1.08,0-1.95,.88-1.95,1.95s.88,1.95,1.95,1.95,1.97-.88,1.97-1.95-.89-1.95-1.97-1.95m8.08,0c-1.08,0-1.95,.88-1.95,1.95s.88,1.95,1.95,1.95,1.97-.88,1.97-1.95-.89-1.95-1.97-1.95m2.41,7.55h-3.48l-1.88,6.41c-1.64,5.56-5.33,10.11-8.16,10.11-.97,0-1.72-.75-1.72-1.72,0-.52,.11-1.16,.44-2.27l3.92-13.12-7.72,.59-.12,1.45h.95c1.64,0,2.25,.36,2.25,1.27,0,.41-.12,.97-.33,1.73l-1.59,5.39q-1.23,4-1.23,5.23c0,2.2,1.52,3.69,3.8,3.69,2.8,0,5.08-1.64,7.44-5.33-.41,1.41-.48,1.97-.48,2.72,0,1.56,1.08,2.64,2.56,2.64,2.44,0,4.39-1.64,7.23-6l-1.2-.72c-1.95,2.92-3.52,4.53-4.39,4.53-.36,0-.72-.45-.72-.97,0-.44,.16-1.2,.47-2.36l3.97-13.28"/><path d="M321.31,185.62c-2.33,3.75-3.33,4.8-4.64,4.8-.64,0-1-.41-1-1.12,0-.52,.2-1.44,.59-2.84l7.12-23.98-7.95,.59-.17,1.44h1.25c1.64,0,2.28,.36,2.28,1.23,0,.41-.12,.92-.36,1.77l-2.64,8.88c-.72-2.08-2.28-3.23-4.61-3.23-5.75,0-11.11,6.16-11.11,12.8,0,3.92,2.52,6.59,6.28,6.59,2.72,0,4.72-1.11,6.47-3.72-.03,.33-.03,.72-.03,.89,0,1.83,.95,2.83,2.72,2.83,2.52,0,4.72-1.95,7-6.19l-1.2-.72m-10-10.69c1.95,0,3.39,1.52,3.39,3.61,0,3.62-2.55,12.11-7.19,12.11-2.16,0-3.56-1.72-3.56-4.31,0-3.8,2.72-11.41,7.36-11.41m22.52-8.75c-1.08,0-1.95,.88-1.95,1.95s.88,1.95,1.95,1.95,1.97-.88,1.97-1.95-.89-1.95-1.97-1.95m8.08,0c-1.08,0-1.95,.88-1.95,1.95s.88,1.95,1.95,1.95,1.97-.88,1.97-1.95-.89-1.95-1.97-1.95m2.41,7.55h-3.48l-1.88,6.41c-1.64,5.56-5.33,10.11-8.16,10.11-.97,0-1.72-.75-1.72-1.72,0-.52,.11-1.16,.44-2.27l3.92-13.12-7.72,.59-.12,1.45h.95c1.64,0,2.25,.36,2.25,1.27,0,.41-.12,.97-.33,1.73l-1.59,5.39q-1.23,4-1.23,5.23c0,2.2,1.52,3.69,3.8,3.69,2.8,0,5.08-1.64,7.44-5.33-.41,1.41-.48,1.97-.48,2.72,0,1.56,1.08,2.64,2.56,2.64,2.44,0,4.39-1.64,7.23-6l-1.2-.72c-1.95,2.92-3.52,4.53-4.39,4.53-.36,0-.72-.45-.72-.97,0-.44,.16-1.2,.47-2.36l3.97-13.28"/><path d="M258.09,174.65c.64-.56,1-.75,1.47-.75,.41,0,.74,.19,1.05,.64,.64,.88,.88,1.03,1.52,1.03,.92,0,1.61-.75,1.61-1.75,0-1.17-1.12-2.09-2.53-2.09s-2.47,.53-4.55,2.17c-1.25-.56-2.17-.77-3.45-.77-4.44,0-8.19,3.16-8.19,6.84,0,1.92,.75,3.23,2.47,4.16-1.83,.23-2.67,.52-3.59,1.31-.8,.64-1.31,1.72-1.31,2.69,0,1.36,.64,2.2,2.19,2.95-2.36,.53-5.11,1.53-5.11,4.44,0,4,5.28,4.48,8.2,4.48,3.95,0,6.24-.48,8.19-1.77,1.72-1.11,2.72-2.83,2.72-4.72,0-4.03-4.28-4.52-7.36-4.72-3.55-.19-3.83-.23-4.39-.36-1-.23-1.49-.72-1.49-1.39,0-.97,.95-1.61,2.41-1.61,.52,0,1.11,.05,1.64,.12,1.64,.23,1.88,.28,2.88,.28,2.23,0,4-.56,5.39-1.69,1.61-1.23,2.61-3.23,2.61-5.08s-.8-3.31-2.36-4.44m-4.61,0c2.09,0,3.41,1.25,3.41,3.2,0,2.88-1.31,6.52-4.72,6.52-2.16,0-3.52-1.36-3.52-3.59,0-3.59,1.95-6.12,4.83-6.12m-4.88,17.16c1.8,0,4.69,.41,5.59,.77,1,.44,1.48,1.12,1.48,2.12,0,2.36-2.51,3.64-7.11,3.64-3.89,0-5.69-.97-5.69-3.09s2.08-3.44,5.72-3.44m25.08-25.62c-1.08,0-1.95,.88-1.95,1.95s.88,1.95,1.95,1.95,1.97-.88,1.97-1.95-.89-1.95-1.97-1.95m8.08,0c-1.08,0-1.95,.88-1.95,1.95s.88,1.95,1.95,1.95,1.97-.88,1.97-1.95-.89-1.95-1.97-1.95m2.41,7.55h-3.49l-1.88,6.41c-1.64,5.56-5.33,10.11-8.16,10.11-.97,0-1.72-.75-1.72-1.72,0-.52,.11-1.16,.44-2.27l3.92-13.12-7.72,.59-.12,1.45h.95c1.64,0,2.25,.36,2.25,1.27,0,.41-.12,.97-.33,1.73l-1.59,5.39q-1.23,4-1.23,5.23c0,2.2,1.52,3.69,3.8,3.69,2.8,0,5.08-1.64,7.44-5.33-.41,1.41-.48,1.97-.48,2.72,0,1.56,1.08,2.64,2.56,2.64,2.44,0,4.39-1.64,7.24-6l-1.2-.72c-1.95,2.92-3.52,4.53-4.39,4.53-.36,0-.72-.45-.72-.97,0-.44,.16-1.2,.47-2.36l3.97-13.28"/><path d="M199.02,185.62c-2.33,3.75-3.33,4.8-4.64,4.8-.64,0-1-.41-1-1.12,0-.52,.2-1.44,.59-2.84l7.12-23.98-7.95,.59-.17,1.44h1.25c1.64,0,2.28,.36,2.28,1.23,0,.41-.12,.92-.36,1.77l-2.64,8.88c-.72-2.08-2.28-3.23-4.61-3.23-5.75,0-11.11,6.16-11.11,12.8,0,3.92,2.52,6.59,6.28,6.59,2.72,0,4.72-1.11,6.47-3.72-.03,.33-.03,.72-.03,.89,0,1.83,.95,2.83,2.72,2.83,2.52,0,4.72-1.95,7-6.19l-1.2-.72m-10-10.69c1.95,0,3.39,1.52,3.39,3.61,0,3.62-2.55,12.11-7.19,12.11-2.16,0-3.56-1.72-3.56-4.31,0-3.8,2.72-11.41,7.36-11.41m22.52-8.75c-1.08,0-1.95,.88-1.95,1.95s.88,1.95,1.95,1.95,1.97-.88,1.97-1.95-.89-1.95-1.97-1.95m8.08,0c-1.08,0-1.95,.88-1.95,1.95s.88,1.95,1.95,1.95,1.97-.88,1.97-1.95-.89-1.95-1.97-1.95m2.41,7.55h-3.48l-1.88,6.41c-1.64,5.56-5.33,10.11-8.16,10.11-.97,0-1.72-.75-1.72-1.72,0-.52,.11-1.16,.44-2.27l3.92-13.12-7.72,.59-.12,1.45h.95c1.64,0,2.25,.36,2.25,1.27,0,.41-.12,.97-.33,1.73l-1.59,5.39q-1.23,4-1.23,5.23c0,2.2,1.52,3.69,3.8,3.69,2.8,0,5.08-1.64,7.44-5.33-.41,1.41-.48,1.97-.48,2.72,0,1.56,1.08,2.64,2.56,2.64,2.44,0,4.39-1.64,7.23-6l-1.2-.72c-1.95,2.92-3.52,4.53-4.39,4.53-.36,0-.72-.45-.72-.97,0-.44,.16-1.2,.47-2.36l3.97-13.28"/><path d="M463.34,26.46h185.91v12.4h-185.91v-12.4" fill-rule="evenodd"/><path d="M723.15,175.26h185.91v12.4h-185.91v-12.4" fill-rule="evenodd"/><path d="M218.77,38.86h185.91v12.4H218.77v-12.4" fill-rule="evenodd"/><path d="M2065.74,26.46h185.91v12.4h-185.91v-12.4" fill-rule="evenodd"/><path d="M1821.17,38.86h185.91v12.4h-185.91v-12.4" fill-rule="evenodd"/><path d="M1531.61,45.06h185.91v12.4h-185.91v-12.4" fill-rule="evenodd"/><path d="M1287.04,26.46h185.9v12.4h-185.9v-12.4" fill-rule="evenodd"/><path d="M997.47,38.86h185.91v12.4h-185.91v-12.4" fill-rule="evenodd"/></g></svg>