<?xml version="1.0" encoding="UTF-8"?><svg id="Ebene_2" xmlns="http://www.w3.org/2000/svg" viewBox="0 0 2552.4 203.14"><g id="Ebene_1-2"><line y1="54.39" x2="2552.4" y2="54.39" fill="none" stroke="#000" stroke-linejoin="bevel" stroke-width="2.73"/><line y1="79.19" x2="2552.4" y2="79.19" fill="none" stroke="#000" stroke-linejoin="bevel" stroke-width="2.73"/><line y1="103.99" x2="2552.4" y2="103.99" fill="none" stroke="#000" stroke-linejoin="bevel" stroke-width="2.73"/><line y1="128.79" x2="2552.4" y2="128.79" fill="none" stroke="#000" stroke-linejoin="bevel" stroke-width="2.73"/><line y1="153.59" x2="2552.4" y2="153.59" fill="none" stroke="#000" stroke-linejoin="bevel" stroke-width="2.73"/><line x1="691.84" y1="53.03" x2="691.84" y2="154.95" fill="none" stroke="#000" stroke-linejoin="bevel" stroke-width="4.46"/><line x1="2291.52" y1="53.03" x2="2291.52" y2="154.95" fill="none" stroke="#000" stroke-linejoin="bevel" stroke-width="4.46"/><line x1="2536.53" y1="53.03" x2="2536.53" y2="154.95" fill="none" stroke="#000" stroke-linejoin="bevel" stroke-width="4.46"/><line x1="2550.17" y1="53.03" x2="2550.17" y2="154.95" fill="none" stroke="#000" stroke-linejoin="bevel" stroke-width="4.46"/><line x1="1758.29" y1="53.03" x2="1758.29" y2="154.95" fill="none" stroke="#000" stroke-linejoin="bevel" stroke-width="4.46"/><line x1="1225.07" y1="53.03" x2="1225.07" y2="154.95" fill="none" stroke="#000" stroke-linejoin="bevel" stroke-width="4.46"/><line x1="1062.37" y1="112.42" x2="1062.37" y2="35.79" fill="none" stroke="#000" stroke-linejoin="bevel" stroke-width="2.48"/><line x1="1321.79" y1="108.16" x2="1321.79" y2="184.59" fill="none" stroke="#000" stroke-linejoin="bevel" stroke-width="2.48"/><line x1="1184.39" y1="124.82" x2="1184.39" y2="35.79" fill="none" stroke="#000" stroke-linejoin="bevel" stroke-width="2.48"/><line x1="727.55" y1="108.16" x2="727.55" y2="172.19" fill="none" stroke="#000" stroke-linejoin="bevel" stroke-width="2.48"/><line x1="1001.35" y1="124.82" x2="1001.35" y2="35.79" fill="none" stroke="#000" stroke-linejoin="bevel" stroke-width="2.48"/><line x1="2221.1" y1="120.56" x2="2221.1" y2="184.59" fill="none" stroke="#000" stroke-linejoin="bevel" stroke-width="2.48"/><line x1="2160.08" y1="108.16" x2="2160.08" y2="184.59" fill="none" stroke="#000" stroke-linejoin="bevel" stroke-width="2.48"/><line x1="2099.07" y1="95.76" x2="2099.07" y2="184.59" fill="none" stroke="#000" stroke-linejoin="bevel" stroke-width="2.48"/><line x1="2038.06" y1="120.56" x2="2038.06" y2="184.59" fill="none" stroke="#000" stroke-linejoin="bevel" stroke-width="2.48"/><line x1="2006.8" y1="124.82" x2="2006.8" y2="35.79" fill="none" stroke="#000" stroke-linejoin="bevel" stroke-width="2.48"/><line x1="1945.78" y1="112.42" x2="1945.78" y2="35.79" fill="none" stroke="#000" stroke-linejoin="bevel" stroke-width="2.48"/><line x1="1884.77" y1="100.02" x2="1884.77" y2="35.79" fill="none" stroke="#000" stroke-linejoin="bevel" stroke-width="2.48"/><line x1="224.08" y1="124.82" x2="224.08" y2="35.79" fill="none" stroke="#000" stroke-linejoin="bevel" stroke-width="2.48"/><line x1="1260.78" y1="120.56" x2="1260.78" y2="184.59" fill="none" stroke="#000" stroke-linejoin="bevel" stroke-width="2.48"/><line x1="1823.76" y1="124.82" x2="1823.76" y2="35.79" fill="none" stroke="#000" stroke-linejoin="bevel" stroke-width="2.48"/><line x1="285.09" y1="112.42" x2="285.09" y2="35.79" fill="none" stroke="#000" stroke-linejoin="bevel" stroke-width="2.48"/><line x1="910.59" y1="108.16" x2="910.59" y2="172.19" fill="none" stroke="#000" stroke-linejoin="bevel" stroke-width="2.48"/><line x1="346.1" y1="100.02" x2="346.1" y2="35.79" fill="none" stroke="#000" stroke-linejoin="bevel" stroke-width="2.48"/><line x1="788.56" y1="95.76" x2="788.56" y2="172.19" fill="none" stroke="#000" stroke-linejoin="bevel" stroke-width="2.48"/><line x1="1717.62" y1="137.22" x2="1717.62" y2="48.19" fill="none" stroke="#000" stroke-linejoin="bevel" stroke-width="2.48"/><line x1="407.12" y1="124.82" x2="407.12" y2="35.79" fill="none" stroke="#000" stroke-linejoin="bevel" stroke-width="2.48"/><line x1="1123.38" y1="100.02" x2="1123.38" y2="35.79" fill="none" stroke="#000" stroke-linejoin="bevel" stroke-width="2.48"/><line x1="1656.61" y1="112.42" x2="1656.61" y2="48.19" fill="none" stroke="#000" stroke-linejoin="bevel" stroke-width="2.48"/><line x1="438.38" y1="120.56" x2="438.38" y2="184.59" fill="none" stroke="#000" stroke-linejoin="bevel" stroke-width="2.48"/><line x1="849.58" y1="83.36" x2="849.58" y2="172.19" fill="none" stroke="#000" stroke-linejoin="bevel" stroke-width="2.48"/><line x1="1595.59" y1="124.82" x2="1595.59" y2="48.19" fill="none" stroke="#000" stroke-linejoin="bevel" stroke-width="2.48"/><line x1="1534.58" y1="137.22" x2="1534.58" y2="48.19" fill="none" stroke="#000" stroke-linejoin="bevel" stroke-width="2.48"/><line x1="499.39" y1="108.16" x2="499.39" y2="184.59" fill="none" stroke="#000" stroke-linejoin="bevel" stroke-width="2.48"/><line x1="1443.82" y1="120.56" x2="1443.82" y2="184.59" fill="none" stroke="#000" stroke-linejoin="bevel" stroke-width="2.48"/><line x1="560.4" y1="95.76" x2="560.4" y2="184.59" fill="none" stroke="#000" stroke-linejoin="bevel" stroke-width="2.48"/><line x1="1382.8" y1="95.76" x2="1382.8" y2="184.59" fill="none" stroke="#000" stroke-linejoin="bevel" stroke-width="2.48"/><line x1="621.41" y1="120.56" x2="621.41" y2="184.59" fill="none" stroke="#000" stroke-linejoin="bevel" stroke-width="2.48"/><path d="M193.08,132.96c0,4.26,3.07,9.02,11.11,9.02,10.31,0,21.13-8.43,21.13-17.16,0-5.86-4.96-9.13-11.11-9.13-9.63,0-21.13,8.14-21.13,17.27"/><path d="M254.1,120.56c0,4.26,3.07,9.02,11.11,9.02,10.31,0,21.13-8.43,21.13-17.16,0-5.86-4.96-9.13-11.11-9.13-9.63,0-21.13,8.14-21.13,17.27"/><path d="M315.11,108.16c0,4.26,3.07,9.02,11.11,9.02,10.31,0,21.13-8.43,21.13-17.16,0-5.86-4.96-9.13-11.11-9.13-9.63,0-21.13,8.14-21.13,17.27"/><path d="M376.12,132.96c0,4.26,3.07,9.02,11.11,9.02,10.31,0,21.13-8.43,21.13-17.16,0-5.86-4.96-9.13-11.11-9.13-9.63,0-21.13,8.14-21.13,17.27"/><path d="M437.14,120.56c0,4.26,3.07,9.02,11.11,9.02,10.31,0,21.13-8.43,21.13-17.16,0-5.86-4.96-9.13-11.11-9.13-9.63,0-21.13,8.14-21.13,17.27"/><path d="M498.15,108.16c0,4.26,3.07,9.02,11.11,9.02,10.31,0,21.13-8.43,21.13-17.16,0-5.86-4.96-9.13-11.11-9.13-9.63,0-21.13,8.14-21.13,17.27"/><path d="M559.16,95.76c0,4.26,3.07,9.02,11.11,9.02,10.31,0,21.13-8.43,21.13-17.16,0-5.86-4.96-9.13-11.11-9.13-9.63,0-21.13,8.14-21.13,17.27"/><path d="M620.18,120.56c0,4.26,3.07,9.02,11.11,9.02,10.31,0,21.13-8.43,21.13-17.16,0-5.86-4.96-9.13-11.11-9.13-9.63,0-21.13,8.14-21.13,17.27"/><path d="M726.31,108.16c0,4.26,3.07,9.02,11.11,9.02,10.31,0,21.13-8.43,21.13-17.16,0-5.86-4.96-9.13-11.11-9.13-9.63,0-21.13,8.14-21.13,17.27"/><path d="M787.32,95.76c0,4.26,3.07,9.02,11.11,9.02,10.31,0,21.13-8.43,21.13-17.16,0-5.86-4.96-9.13-11.11-9.13-9.63,0-21.13,8.14-21.13,17.27"/><path d="M848.34,83.36c0,4.26,3.07,9.02,11.11,9.02,10.31,0,21.13-8.43,21.13-17.16,0-5.86-4.96-9.13-11.11-9.13-9.63,0-21.13,8.14-21.13,17.27"/><path d="M909.35,108.16c0,4.26,3.07,9.02,11.11,9.02,10.31,0,21.13-8.43,21.13-17.16,0-5.86-4.96-9.13-11.11-9.13-9.63,0-21.13,8.14-21.13,17.27"/><path d="M970.36,132.96c0,4.26,3.07,9.02,11.11,9.02,10.31,0,21.13-8.43,21.13-17.16,0-5.86-4.96-9.13-11.11-9.13-9.63,0-21.13,8.14-21.13,17.27"/><path d="M1031.37,120.56c0,4.26,3.07,9.02,11.11,9.02,10.31,0,21.13-8.43,21.13-17.16,0-5.86-4.96-9.13-11.11-9.13-9.63,0-21.13,8.14-21.13,17.27"/><path d="M1092.39,108.16c0,4.26,3.07,9.02,11.11,9.02,10.31,0,21.13-8.43,21.13-17.16,0-5.86-4.96-9.13-11.11-9.13-9.63,0-21.13,8.14-21.13,17.27"/><path d="M1153.4,132.96c0,4.26,3.07,9.02,11.11,9.02,10.31,0,21.13-8.43,21.13-17.16,0-5.86-4.96-9.13-11.11-9.13-9.63,0-21.13,8.14-21.13,17.27"/><path d="M1259.54,120.56c0,4.26,3.07,9.02,11.11,9.02,10.31,0,21.13-8.43,21.13-17.16,0-5.86-4.96-9.13-11.11-9.13-9.63,0-21.13,8.14-21.13,17.27"/><path d="M1320.55,108.16c0,4.26,3.07,9.02,11.11,9.02,10.31,0,21.13-8.43,21.13-17.16,0-5.86-4.96-9.13-11.11-9.13-9.63,0-21.13,8.14-21.13,17.27"/><path d="M1381.56,95.76c0,4.26,3.07,9.02,11.11,9.02,10.31,0,21.13-8.43,21.13-17.16,0-5.86-4.96-9.13-11.11-9.13-9.63,0-21.13,8.14-21.13,17.27"/><path d="M1442.58,120.56c0,4.26,3.07,9.02,11.11,9.02,10.31,0,21.13-8.43,21.13-17.16,0-5.86-4.96-9.13-11.11-9.13-9.63,0-21.13,8.14-21.13,17.27"/><path d="M1503.59,145.36c0,4.26,3.07,9.02,11.11,9.02,10.31,0,21.13-8.43,21.13-17.16,0-5.86-4.96-9.13-11.11-9.13-9.63,0-21.13,8.14-21.13,17.27"/><path d="M1564.6,132.96c0,4.26,3.07,9.02,11.11,9.02,10.31,0,21.13-8.43,21.13-17.16,0-5.86-4.96-9.13-11.11-9.13-9.63,0-21.13,8.14-21.13,17.27"/><path d="M1625.62,120.56c0,4.26,3.07,9.02,11.11,9.02,10.31,0,21.13-8.43,21.13-17.16,0-5.86-4.96-9.13-11.11-9.13-9.63,0-21.13,8.14-21.13,17.27"/><path d="M1686.63,145.36c0,4.26,3.07,9.02,11.11,9.02,10.31,0,21.13-8.43,21.13-17.16,0-5.86-4.96-9.13-11.11-9.13-9.63,0-21.13,8.14-21.13,17.27"/><path d="M1792.76,132.96c0,4.26,3.07,9.02,11.11,9.02,10.31,0,21.13-8.43,21.13-17.16,0-5.86-4.96-9.13-11.11-9.13-9.63,0-21.13,8.14-21.13,17.27"/><path d="M1853.78,108.16c0,4.26,3.07,9.02,11.11,9.02,10.31,0,21.13-8.43,21.13-17.16,0-5.86-4.96-9.13-11.11-9.13-9.63,0-21.13,8.14-21.13,17.27"/><path d="M1914.79,120.56c0,4.26,3.07,9.02,11.11,9.02,10.31,0,21.13-8.43,21.13-17.16,0-5.86-4.96-9.13-11.11-9.13-9.63,0-21.13,8.14-21.13,17.27"/><path d="M1975.8,132.96c0,4.26,3.07,9.02,11.11,9.02,10.31,0,21.13-8.43,21.13-17.16,0-5.86-4.96-9.13-11.11-9.13-9.63,0-21.13,8.14-21.13,17.27"/><path d="M2036.82,120.56c0,4.26,3.07,9.02,11.11,9.02,10.31,0,21.13-8.43,21.13-17.16,0-5.86-4.96-9.13-11.11-9.13-9.63,0-21.13,8.14-21.13,17.27"/><path d="M2097.83,95.76c0,4.26,3.07,9.02,11.11,9.02,10.31,0,21.13-8.43,21.13-17.16,0-5.86-4.96-9.13-11.11-9.13-9.63,0-21.13,8.14-21.13,17.27"/><path d="M2158.84,108.16c0,4.26,3.07,9.02,11.11,9.02,10.31,0,21.13-8.43,21.13-17.16,0-5.86-4.96-9.13-11.11-9.13-9.63,0-21.13,8.14-21.13,17.27"/><path d="M2219.86,120.56c0,4.26,3.07,9.02,11.11,9.02,10.31,0,21.13-8.43,21.13-17.16,0-5.86-4.96-9.13-11.11-9.13-9.63,0-21.13,8.14-21.13,17.27"/><path d="M2344.55,115.3c-13.69,0-18.55,6.94-18.55,13.39s4.87,13.39,18.55,13.39,18.45-6.94,18.45-13.39-4.76-13.39-18.45-13.39m.79,23.61c-2.77,0-4.67-.79-5.95-3.27s-3.07-8.93-3.18-11.52c-.2-2.68,.79-4.26,3.18-5.05,1.19-.4,2.77-.6,4.37-.6,2.67,0,4.46,.6,5.84,3.29,1.39,2.57,3.29,9.02,3.29,11.5,0,4.87-3.58,5.66-7.55,5.66"/><path d="M30.8,179.68c0,6.56,4.96,15.19,18.35,15.19,4.67,0,8.74-1.19,12.31-3.38,5.36-3.77,6.74-10.32,6.74-16.57,0-3.86-.59-8.32-1.58-13.98-.29-1.98-.9-4.96-1.49-8.84,9.72-3.18,16.96-13.3,16.96-23.51,0-14.97-10.62-25.09-25.09-25.09-.99-5.95-1.98-11.81-2.77-17.36,10.42-11.02,17.65-23.42,17.65-39.18,0-9.04-2.77-16.37-4.37-19.95-2.37-5.05-5.25-8.53-7.04-8.53-.7,0-3.77,1.19-7.04,5.05-6.36,7.55-8.14,20.24-8.14,28.57,0,5.36,.5,10.23,2.19,21.34-.11,.09-5.27,5.35-7.35,7.04-9.04,8.34-21.53,20.43-21.53,40.28,0,18.54,16.17,33.12,34.63,33.12,2.87,0,5.55-.29,7.83-.7,1.89,9.53,3.08,16.48,3.08,21.73,0,10.32-5.36,15.78-15.38,15.78-2.39,0-4.46-.5-4.67-.5-.09-.11-.29-.2-.29-.29,0-.2,.2-.31,.5-.31,4.67-.79,9.32-4.76,9.32-11.1,0-5.36-4.06-11.02-11.5-11.02-6.94,0-11.31,5.66-11.31,12.2M51.54,47.24c.9-3.97,5.46-14.38,10.62-14.38,1.49,0,3.86,4.76,3.86,11.7,0,10.32-7.63,18.06-14.48,24.8-.59-3.97-1.08-7.83-1.08-12,0-3.67,.29-7.05,1.08-10.12m8.73,101.97c-1.98,.4-3.86,.6-5.75,.6-14.18,0-26.29-9.92-26.29-24.91,0-12.09,8.53-22.91,17.27-30.46,1.67-1.49,3.27-2.87,4.76-4.36,.88,5.35,1.58,10.01,2.28,14.09-9.04,2.68-15.17,12.2-15.17,21.53,0,6.94,5.46,16.46,13.39,16.46,.79,0,1.69-.4,1.69-1.29s-.99-1.39-2.19-2.19c-3.88-2.39-6.06-4.96-6.06-9.83,0-6.05,4.57-10.91,10.32-12.29l5.75,32.63m14.09-18.35c0,7.05-2.88,14.29-9.92,17.17-2.08-11.9-4.76-27.68-5.46-32.05,8.93,0,15.38,6.06,15.38,14.88"/><path d="M129.99,43.97c.6-.09,1.1-.79,1.1-1.4v-5.84c0-.99-.7-1.39-1.6-1.39l-3.27,.7v-14.79h-2.77v15.38l-8.83,1.8v-14h-2.77v14.59l-3.88,.79c-.59,.11-1.09,.79-1.09,1.39v5.75c0,1.09,.79,1.4,1.69,1.4l3.27-.7v16.37l-3.88,.79c-.59,.09-1.09,.79-1.09,1.4v5.75c0,1.09,.79,1.38,1.69,1.38l3.27-.68v14.77h2.77v-15.38l8.83-1.78v14h2.77v-14.59l3.77-.7c.6-.11,1.1-.79,1.1-1.39v-5.84c0-.99-.7-1.4-1.6-1.4l-3.27,.7v-16.37l3.77-.7m-15.38,3.07l8.83-1.78v16.37l-8.83,1.89v-16.48"/><path d="M2367.22,16.2c-9.32-10.12-17.56-10.71-22.71-10.71s-13.3,.59-22.63,10.71c-4.85,5.36-8.23,15.97-8.23,21.33,0,1.89,.4,3.18,1.4,3.18,2.77,0,1.38-8.54,9.72-16.97,7.33-7.33,17.16-7.44,19.55-7.44h.39c2.39,0,12.21,.11,19.55,7.44,8.34,8.43,6.94,16.97,9.72,16.97,.99,0,1.39-1.19,1.39-3.18,0-5.36-3.27-16.07-8.14-21.33m-29.56,18.94c0,3.78,3.07,6.85,6.85,6.85s6.84-3.07,6.84-6.85-3.07-6.84-6.84-6.84-6.85,3.07-6.85,6.84"/><path d="M638.54,12.19c.64-.56,1-.75,1.47-.75,.41,0,.73,.19,1.05,.64,.64,.88,.88,1.03,1.51,1.03,.92,0,1.61-.75,1.61-1.75,0-1.17-1.12-2.09-2.53-2.09s-2.47,.53-4.55,2.17c-1.25-.56-2.17-.76-3.45-.76-4.44,0-8.19,3.15-8.19,6.84,0,1.92,.75,3.23,2.47,4.16-1.83,.23-2.67,.51-3.59,1.31-.8,.64-1.31,1.72-1.31,2.69,0,1.36,.64,2.2,2.19,2.95-2.36,.53-5.11,1.53-5.11,4.44,0,4,5.28,4.48,8.2,4.48,3.95,0,6.23-.48,8.19-1.76,1.72-1.11,2.72-2.83,2.72-4.72,0-4.03-4.28-4.52-7.36-4.72-3.55-.19-3.83-.24-4.39-.36-1-.24-1.49-.72-1.49-1.39,0-.97,.95-1.61,2.41-1.61,.51,0,1.11,.05,1.64,.12,1.64,.24,1.88,.29,2.88,.29,2.24,0,4-.57,5.39-1.69,1.61-1.24,2.61-3.24,2.61-5.08s-.8-3.31-2.36-4.44m-4.61,0c2.09,0,3.41,1.25,3.41,3.21,0,2.87-1.31,6.51-4.72,6.51-2.16,0-3.52-1.36-3.52-3.59,0-3.6,1.95-6.13,4.83-6.13m-4.88,17.16c1.8,0,4.69,.4,5.59,.76,1,.44,1.49,1.13,1.49,2.13,0,2.36-2.52,3.64-7.11,3.64-3.89,0-5.69-.97-5.69-3.09s2.08-3.44,5.72-3.44m25.08-25.63c-1.08,0-1.95,.88-1.95,1.96s.88,1.95,1.95,1.95,1.97-.88,1.97-1.95-.89-1.96-1.97-1.96m8.08,0c-1.08,0-1.95,.88-1.95,1.96s.88,1.95,1.95,1.95,1.97-.88,1.97-1.95-.89-1.96-1.97-1.96m2.41,7.55h-3.48l-1.88,6.41c-1.64,5.56-5.33,10.11-8.16,10.11-.97,0-1.72-.75-1.72-1.72,0-.52,.11-1.16,.44-2.27l3.92-13.12-7.72,.59-.12,1.45h.95c1.64,0,2.25,.36,2.25,1.27,0,.41-.12,.97-.33,1.73l-1.59,5.39q-1.24,4-1.24,5.24c0,2.2,1.52,3.69,3.8,3.69,2.8,0,5.08-1.64,7.44-5.33-.41,1.4-.49,1.97-.49,2.72,0,1.56,1.08,2.64,2.56,2.64,2.44,0,4.39-1.64,7.23-6l-1.2-.72c-1.95,2.92-3.52,4.53-4.39,4.53-.36,0-.72-.45-.72-.97,0-.44,.16-1.2,.47-2.36l3.97-13.28"/><path d="M384.05,177.78c.64-.56,1-.75,1.47-.75,.41,0,.73,.19,1.05,.65,.64,.87,.88,1.03,1.52,1.03,.92,0,1.61-.75,1.61-1.75,0-1.18-1.12-2.1-2.53-2.1s-2.47,.53-4.55,2.17c-1.25-.56-2.17-.76-3.45-.76-4.44,0-8.19,3.16-8.19,6.84,0,1.92,.75,3.24,2.47,4.16-1.83,.23-2.67,.51-3.59,1.31-.8,.64-1.31,1.72-1.31,2.69,0,1.36,.64,2.2,2.19,2.95-2.36,.53-5.11,1.53-5.11,4.44,0,4,5.28,4.48,8.2,4.48,3.95,0,6.23-.48,8.19-1.76,1.72-1.11,2.72-2.83,2.72-4.72,0-4.03-4.28-4.52-7.36-4.72-3.55-.19-3.83-.23-4.39-.36-1-.23-1.48-.72-1.48-1.39,0-.97,.95-1.61,2.41-1.61,.52,0,1.11,.05,1.64,.13,1.64,.23,1.88,.28,2.88,.28,2.23,0,4-.56,5.39-1.69,1.61-1.23,2.61-3.23,2.61-5.08s-.8-3.31-2.36-4.44m-4.61,0c2.09,0,3.41,1.25,3.41,3.21,0,2.87-1.31,6.51-4.72,6.51-2.16,0-3.52-1.36-3.52-3.59,0-3.59,1.95-6.13,4.83-6.13m-4.88,17.16c1.8,0,4.69,.41,5.59,.77,1,.43,1.48,1.12,1.48,2.12,0,2.36-2.52,3.64-7.11,3.64-3.89,0-5.69-.97-5.69-3.09s2.08-3.44,5.72-3.44m25.08-25.62c-1.08,0-1.95,.87-1.95,1.95s.88,1.95,1.95,1.95,1.97-.87,1.97-1.95-.89-1.95-1.97-1.95m8.08,0c-1.08,0-1.95,.87-1.95,1.95s.88,1.95,1.95,1.95,1.97-.87,1.97-1.95-.89-1.95-1.97-1.95m2.41,7.54h-3.48l-1.88,6.41c-1.64,5.56-5.33,10.11-8.16,10.11-.97,0-1.72-.75-1.72-1.72,0-.52,.11-1.16,.44-2.27l3.92-13.12-7.72,.59-.12,1.46h.95c1.64,0,2.25,.36,2.25,1.26,0,.41-.12,.97-.33,1.74l-1.59,5.39q-1.23,4-1.23,5.23c0,2.2,1.52,3.69,3.8,3.69,2.8,0,5.08-1.64,7.44-5.33-.41,1.41-.48,1.97-.48,2.72,0,1.56,1.08,2.64,2.56,2.64,2.44,0,4.39-1.64,7.23-6l-1.2-.72c-1.95,2.92-3.52,4.53-4.39,4.53-.36,0-.72-.45-.72-.97,0-.43,.16-1.2,.47-2.36l3.97-13.28"/><path d="M727.03,12.9c-4.2,0-7.25,2.56-7.25,6.03,0,1.74,1,3.17,2.77,4.09,.64,.32,1.44,.68,3.12,1.36,2.27,.91,2.83,1.47,2.83,2.88,0,2.16-1.8,3.51-4.56,3.51-2.03,0-3.47-.56-3.47-1.35,0-.21,.11-.44,.28-.6,.75-.8,.83-1,.83-1.72,0-1.12-.88-2-2.03-2-1.33,0-2.33,1.11-2.33,2.67,0,2.8,2.48,4.52,6.53,4.52,4.59,0,7.75-2.52,7.75-6.16,0-1.59-.72-2.95-2-3.82-.88-.61-1.28-.77-3.47-1.57-2.61-.92-3.28-1.56-3.28-3.12,0-1.85,1.75-3.2,4.08-3.2,1.56,0,2.59,.43,2.59,1.07,0,.18-.08,.36-.2,.57-.56,.79-.64,1-.64,1.61,0,1.07,.84,1.82,2.08,1.82,1.36,0,2.28-1,2.28-2.43,0-2.44-2.44-4.16-5.91-4.16m16.75-9.77c-1.2,0-2.16,.97-2.16,2.18s.95,2.15,2.12,2.15c1.23,0,2.19-.97,2.19-2.15s-.95-2.18-2.16-2.18m.72,9.77l-7.67,.59-.16,1.46h.95c1.64,0,2.28,.36,2.28,1.23,0,.39-.08,.84-.36,1.77l-2.33,7.79c-.75,2.55-.88,3.11-.88,4.03,0,1.41,1.2,2.49,2.72,2.49,3.44,0,5.8-3.56,7.48-6.16l-1.25-.68c-2.08,3.15-3.75,4.84-4.83,4.84-.41,0-.69-.36-.69-.84,0-.4,.16-1.13,.48-2.24l4.23-14.28m12.97,0l-7.28,.59-.12,1.46h.97c1.59,0,2.23,.36,2.23,1.26,0,.36-.12,.97-.33,1.74l-4.08,13.75h3.48l1.64-5.64c1.8-6.13,5.44-10.75,8.44-10.75,1.05,0,1.69,.54,1.69,1.54,0,.82-.33,2.49-.81,4l-3.19,10.85h3.47l1.72-5.8c1-3.33,2-5.56,3.28-7.28,1.44-2,3.48-3.31,5-3.31,1,0,1.56,.51,1.56,1.46,0,.57-.2,1.44-.56,2.57l-1.84,5.68c-1.08,3.11-1.11,3.36-1.11,4.47,0,1.69,1.23,2.8,3.11,2.8,1.33,0,2.61-.64,3.97-1.91,.84-.81,1.39-1.53,3.03-3.92l-1.23-.84c-2.08,3.12-3.56,4.64-4.59,4.64-.44,0-.84-.44-.84-1,0-.36,.12-.8,.48-1.97l2.52-7.75c.28-.87,.48-2.12,.48-3,0-2.12-1.56-3.64-3.72-3.64-2.84,0-5.41,1.84-7.72,5.64,.16-.77,.23-1.44,.23-1.92,0-2.13-1.69-3.72-3.88-3.72-2.53,0-4.36,1.41-7.17,5.41l1.17-5.41m29.96,14.44c-1.36,0-2.47,1.12-2.47,2.48s1.11,2.47,2.44,2.47c1.43,0,2.51-1.08,2.51-2.47s-1.12-2.48-2.48-2.48"/><path d="M325.12,188.75c-2.33,3.75-3.33,4.8-4.64,4.8-.64,0-1-.41-1-1.12,0-.52,.2-1.44,.59-2.85l7.12-23.98-7.95,.59-.17,1.44h1.25c1.64,0,2.28,.36,2.28,1.23,0,.41-.12,.92-.36,1.77l-2.64,8.87c-.72-2.07-2.28-3.23-4.61-3.23-5.75,0-11.11,6.16-11.11,12.8,0,3.92,2.52,6.59,6.28,6.59,2.72,0,4.72-1.11,6.47-3.72-.03,.33-.03,.72-.03,.89,0,1.83,.95,2.83,2.72,2.83,2.52,0,4.72-1.95,7-6.19l-1.2-.72m-10-10.68c1.95,0,3.39,1.51,3.39,3.61,0,3.62-2.55,12.1-7.19,12.1-2.16,0-3.56-1.71-3.56-4.31,0-3.79,2.72-11.4,7.36-11.4m22.52-8.75c-1.08,0-1.95,.87-1.95,1.95s.88,1.95,1.95,1.95,1.97-.87,1.97-1.95-.89-1.95-1.97-1.95m8.08,0c-1.08,0-1.95,.87-1.95,1.95s.88,1.95,1.95,1.95,1.97-.87,1.97-1.95-.89-1.95-1.97-1.95m2.41,7.54h-3.48l-1.88,6.41c-1.64,5.56-5.33,10.11-8.16,10.11-.97,0-1.72-.75-1.72-1.72,0-.52,.11-1.16,.44-2.27l3.92-13.12-7.72,.59-.12,1.46h.95c1.64,0,2.25,.36,2.25,1.26,0,.41-.12,.97-.33,1.74l-1.59,5.39q-1.23,4-1.23,5.23c0,2.2,1.52,3.69,3.8,3.69,2.8,0,5.08-1.64,7.44-5.33-.41,1.41-.48,1.97-.48,2.72,0,1.56,1.08,2.64,2.56,2.64,2.44,0,4.39-1.64,7.23-6l-1.2-.72c-1.95,2.92-3.52,4.53-4.39,4.53-.36,0-.72-.45-.72-.97,0-.43,.16-1.2,.47-2.36l3.97-13.28"/><path d="M579.6,23.16c-2.33,3.75-3.33,4.8-4.64,4.8-.64,0-1-.41-1-1.13,0-.51,.2-1.43,.59-2.84l7.12-23.99-7.95,.6-.17,1.44h1.25c1.64,0,2.28,.36,2.28,1.23,0,.41-.12,.92-.36,1.77l-2.64,8.87c-.72-2.08-2.28-3.23-4.61-3.23-5.75,0-11.11,6.15-11.11,12.79,0,3.93,2.51,6.6,6.28,6.6,2.72,0,4.72-1.11,6.47-3.72-.03,.33-.03,.72-.03,.89,0,1.83,.95,2.83,2.72,2.83,2.52,0,4.72-1.96,7-6.19l-1.2-.72m-10-10.69c1.95,0,3.39,1.52,3.39,3.61,0,3.63-2.55,12.11-7.19,12.11-2.16,0-3.56-1.72-3.56-4.31,0-3.8,2.72-11.41,7.36-11.41m22.52-8.75c-1.08,0-1.95,.88-1.95,1.96s.88,1.95,1.95,1.95,1.97-.88,1.97-1.95-.89-1.96-1.97-1.96m8.08,0c-1.08,0-1.95,.88-1.95,1.96s.88,1.95,1.95,1.95,1.97-.88,1.97-1.95-.89-1.96-1.97-1.96m2.41,7.55h-3.48l-1.88,6.41c-1.64,5.56-5.33,10.11-8.16,10.11-.97,0-1.72-.75-1.72-1.72,0-.52,.11-1.16,.44-2.27l3.92-13.12-7.72,.59-.12,1.45h.95c1.64,0,2.25,.36,2.25,1.27,0,.41-.12,.97-.33,1.73l-1.59,5.39q-1.24,4-1.24,5.24c0,2.2,1.52,3.69,3.8,3.69,2.8,0,5.08-1.64,7.44-5.33-.41,1.4-.49,1.97-.49,2.72,0,1.56,1.08,2.64,2.56,2.64,2.44,0,4.39-1.64,7.23-6l-1.2-.72c-1.95,2.92-3.52,4.53-4.39,4.53-.36,0-.72-.45-.72-.97,0-.44,.16-1.2,.47-2.36l3.97-13.28"/><path d="M262.03,177.78c.64-.56,1-.75,1.47-.75,.41,0,.74,.19,1.05,.65,.64,.87,.88,1.03,1.52,1.03,.92,0,1.61-.75,1.61-1.75,0-1.18-1.12-2.1-2.53-2.1s-2.47,.53-4.55,2.17c-1.25-.56-2.17-.76-3.45-.76-4.44,0-8.19,3.16-8.19,6.84,0,1.92,.75,3.24,2.47,4.16-1.83,.23-2.67,.51-3.59,1.31-.8,.64-1.31,1.72-1.31,2.69,0,1.36,.64,2.2,2.19,2.95-2.36,.53-5.11,1.53-5.11,4.44,0,4,5.28,4.48,8.2,4.48,3.95,0,6.23-.48,8.19-1.76,1.72-1.11,2.72-2.83,2.72-4.72,0-4.03-4.28-4.52-7.36-4.72-3.55-.19-3.83-.23-4.39-.36-1-.23-1.48-.72-1.48-1.39,0-.97,.95-1.61,2.41-1.61,.52,0,1.11,.05,1.64,.13,1.64,.23,1.88,.28,2.88,.28,2.23,0,4-.56,5.39-1.69,1.61-1.23,2.61-3.23,2.61-5.08s-.8-3.31-2.36-4.44m-4.61,0c2.09,0,3.41,1.25,3.41,3.21,0,2.87-1.31,6.51-4.72,6.51-2.16,0-3.52-1.36-3.52-3.59,0-3.59,1.95-6.13,4.83-6.13m-4.88,17.16c1.8,0,4.69,.41,5.59,.77,1,.43,1.48,1.12,1.48,2.12,0,2.36-2.51,3.64-7.11,3.64-3.89,0-5.69-.97-5.69-3.09s2.08-3.44,5.72-3.44m25.08-25.62c-1.08,0-1.95,.87-1.95,1.95s.88,1.95,1.95,1.95,1.97-.87,1.97-1.95-.89-1.95-1.97-1.95m8.08,0c-1.08,0-1.95,.87-1.95,1.95s.88,1.95,1.95,1.95,1.97-.87,1.97-1.95-.89-1.95-1.97-1.95m2.41,7.54h-3.49l-1.88,6.41c-1.64,5.56-5.33,10.11-8.16,10.11-.97,0-1.72-.75-1.72-1.72,0-.52,.11-1.16,.44-2.27l3.92-13.12-7.72,.59-.12,1.46h.95c1.64,0,2.25,.36,2.25,1.26,0,.41-.12,.97-.33,1.74l-1.59,5.39q-1.23,4-1.23,5.23c0,2.2,1.52,3.69,3.8,3.69,2.8,0,5.08-1.64,7.44-5.33-.41,1.41-.48,1.97-.48,2.72,0,1.56,1.08,2.64,2.56,2.64,2.44,0,4.39-1.64,7.24-6l-1.2-.72c-1.95,2.92-3.52,4.53-4.39,4.53-.36,0-.72-.45-.72-.97,0-.43,.16-1.2,.47-2.36l3.97-13.28"/><path d="M203.09,188.75c-2.33,3.75-3.33,4.8-4.64,4.8-.64,0-1-.41-1-1.12,0-.52,.2-1.44,.59-2.85l7.12-23.98-7.95,.59-.17,1.44h1.25c1.64,0,2.28,.36,2.28,1.23,0,.41-.12,.92-.36,1.77l-2.64,8.87c-.72-2.07-2.28-3.23-4.61-3.23-5.75,0-11.11,6.16-11.11,12.8,0,3.92,2.52,6.59,6.28,6.59,2.72,0,4.72-1.11,6.47-3.72-.03,.33-.03,.72-.03,.89,0,1.83,.95,2.83,2.72,2.83,2.52,0,4.72-1.95,7-6.19l-1.2-.72m-10-10.68c1.95,0,3.39,1.51,3.39,3.61,0,3.62-2.55,12.1-7.19,12.1-2.16,0-3.56-1.71-3.56-4.31,0-3.79,2.72-11.4,7.36-11.4m22.51-8.75c-1.08,0-1.95,.87-1.95,1.95s.88,1.95,1.95,1.95,1.97-.87,1.97-1.95-.89-1.95-1.97-1.95m8.08,0c-1.08,0-1.95,.87-1.95,1.95s.88,1.95,1.95,1.95,1.97-.87,1.97-1.95-.89-1.95-1.97-1.95m2.41,7.54h-3.49l-1.88,6.41c-1.64,5.56-5.33,10.11-8.16,10.11-.97,0-1.72-.75-1.72-1.72,0-.52,.11-1.16,.44-2.27l3.92-13.12-7.72,.59-.12,1.46h.95c1.64,0,2.25,.36,2.25,1.26,0,.41-.12,.97-.33,1.74l-1.59,5.39q-1.23,4-1.23,5.23c0,2.2,1.52,3.69,3.8,3.69,2.8,0,5.08-1.64,7.44-5.33-.41,1.41-.48,1.97-.48,2.72,0,1.56,1.08,2.64,2.56,2.64,2.44,0,4.39-1.64,7.24-6l-1.2-.72c-1.95,2.92-3.52,4.53-4.39,4.53-.36,0-.72-.45-.72-.97,0-.43,.16-1.2,.47-2.36l3.97-13.28"/><path d="M516.51,12.19c.64-.56,1-.75,1.47-.75,.41,0,.73,.19,1.05,.64,.64,.88,.88,1.03,1.52,1.03,.92,0,1.61-.75,1.61-1.75,0-1.17-1.12-2.09-2.53-2.09s-2.47,.53-4.55,2.17c-1.25-.56-2.17-.76-3.45-.76-4.44,0-8.19,3.15-8.19,6.84,0,1.92,.75,3.23,2.47,4.16-1.83,.23-2.67,.51-3.59,1.31-.8,.64-1.31,1.72-1.31,2.69,0,1.36,.64,2.2,2.19,2.95-2.36,.53-5.11,1.53-5.11,4.44,0,4,5.28,4.48,8.2,4.48,3.95,0,6.23-.48,8.19-1.76,1.72-1.11,2.72-2.83,2.72-4.72,0-4.03-4.28-4.52-7.36-4.72-3.55-.19-3.83-.24-4.39-.36-1-.24-1.49-.72-1.49-1.39,0-.97,.95-1.61,2.41-1.61,.51,0,1.11,.05,1.64,.12,1.64,.24,1.88,.29,2.88,.29,2.24,0,4-.57,5.39-1.69,1.61-1.24,2.61-3.24,2.61-5.08s-.8-3.31-2.36-4.44m-4.61,0c2.09,0,3.41,1.25,3.41,3.21,0,2.87-1.31,6.51-4.72,6.51-2.16,0-3.52-1.36-3.52-3.59,0-3.6,1.95-6.13,4.83-6.13m-4.88,17.16c1.8,0,4.69,.4,5.59,.76,1,.44,1.49,1.13,1.49,2.13,0,2.36-2.52,3.64-7.11,3.64-3.89,0-5.69-.97-5.69-3.09s2.08-3.44,5.72-3.44m25.08-25.63c-1.08,0-1.95,.88-1.95,1.96s.88,1.95,1.95,1.95,1.97-.88,1.97-1.95-.89-1.96-1.97-1.96m8.08,0c-1.08,0-1.95,.88-1.95,1.96s.88,1.95,1.95,1.95,1.97-.88,1.97-1.95-.89-1.96-1.97-1.96m2.41,7.55h-3.48l-1.88,6.41c-1.64,5.56-5.33,10.11-8.16,10.11-.97,0-1.72-.75-1.72-1.72,0-.52,.11-1.16,.44-2.27l3.92-13.12-7.72,.59-.12,1.45h.95c1.64,0,2.25,.36,2.25,1.27,0,.41-.12,.97-.33,1.73l-1.59,5.39q-1.23,4-1.23,5.24c0,2.2,1.52,3.69,3.8,3.69,2.8,0,5.08-1.64,7.44-5.33-.41,1.4-.48,1.97-.48,2.72,0,1.56,1.08,2.64,2.56,2.64,2.44,0,4.39-1.64,7.23-6l-1.2-.72c-1.95,2.92-3.52,4.53-4.39,4.53-.36,0-.72-.45-.72-.97,0-.44,.16-1.2,.47-2.36l3.97-13.28"/><path d="M457.57,23.16c-2.33,3.75-3.33,4.8-4.64,4.8-.64,0-1-.41-1-1.13,0-.51,.2-1.43,.59-2.84l7.12-23.99-7.95,.6-.17,1.44h1.25c1.64,0,2.28,.36,2.28,1.23,0,.41-.12,.92-.36,1.77l-2.64,8.87c-.72-2.08-2.28-3.23-4.61-3.23-5.75,0-11.11,6.15-11.11,12.79,0,3.93,2.51,6.6,6.28,6.6,2.72,0,4.72-1.11,6.47-3.72-.03,.33-.03,.72-.03,.89,0,1.83,.95,2.83,2.72,2.83,2.52,0,4.72-1.96,7-6.19l-1.2-.72m-10-10.69c1.95,0,3.39,1.52,3.39,3.61,0,3.63-2.55,12.11-7.19,12.11-2.16,0-3.56-1.72-3.56-4.31,0-3.8,2.72-11.41,7.36-11.41m22.52-8.75c-1.08,0-1.95,.88-1.95,1.96s.88,1.95,1.95,1.95,1.97-.88,1.97-1.95-.89-1.96-1.97-1.96m8.08,0c-1.08,0-1.95,.88-1.95,1.96s.88,1.95,1.95,1.95,1.97-.88,1.97-1.95-.89-1.96-1.97-1.96m2.41,7.55h-3.48l-1.88,6.41c-1.64,5.56-5.33,10.11-8.16,10.11-.97,0-1.72-.75-1.72-1.72,0-.52,.11-1.16,.44-2.27l3.92-13.12-7.72,.59-.12,1.45h.95c1.64,0,2.25,.36,2.25,1.27,0,.41-.12,.97-.33,1.73l-1.59,5.39q-1.23,4-1.23,5.24c0,2.2,1.52,3.69,3.8,3.69,2.8,0,5.08-1.64,7.44-5.33-.41,1.4-.48,1.97-.48,2.72,0,1.56,1.08,2.64,2.56,2.64,2.44,0,4.39-1.64,7.23-6l-1.2-.72c-1.95,2.92-3.52,4.53-4.39,4.53-.36,0-.72-.45-.72-.97,0-.44,.16-1.2,.47-2.36l3.97-13.28"/><path d="M1822.52,29.59h185.52v12.4h-185.52v-12.4" fill-rule="evenodd"/><path d="M1000.11,29.59h185.52v12.4h-185.52v-12.4" fill-rule="evenodd"/><path d="M1259.54,178.39h185.52v12.4h-185.52v-12.4" fill-rule="evenodd"/><path d="M222.84,29.59h185.52v12.4H222.84v-12.4" fill-rule="evenodd"/><path d="M2036.82,178.39h185.52v12.4h-185.52v-12.4" fill-rule="evenodd"/><path d="M1533.34,41.99h185.52v12.4h-185.52v-12.4" fill-rule="evenodd"/><path d="M437.14,178.39h185.52v12.4h-185.52v-12.4" fill-rule="evenodd"/><path d="M726.31,165.99h185.52v12.4h-185.52v-12.4" fill-rule="evenodd"/></g></svg>