<?xml version="1.0" encoding="UTF-8"?><svg id="Ebene_2" xmlns="http://www.w3.org/2000/svg" viewBox="0 0 2815.2 860.43"><g id="Ebene_1-2"><line y1="52.59" x2="2815.2" y2="52.59" fill="none" stroke="#000" stroke-linejoin="bevel" stroke-width="2.73"/><line y1="77.39" x2="2815.2" y2="77.39" fill="none" stroke="#000" stroke-linejoin="bevel" stroke-width="2.73"/><line y1="102.19" x2="2815.2" y2="102.19" fill="none" stroke="#000" stroke-linejoin="bevel" stroke-width="2.73"/><line y1="126.99" x2="2815.2" y2="126.99" fill="none" stroke="#000" stroke-linejoin="bevel" stroke-width="2.73"/><line y1="151.79" x2="2815.2" y2="151.79" fill="none" stroke="#000" stroke-linejoin="bevel" stroke-width="2.73"/><line y1="386.27" x2="2815.2" y2="386.27" fill="none" stroke="#000" stroke-linejoin="bevel" stroke-width="2.73"/><line y1="411.07" x2="2815.2" y2="411.07" fill="none" stroke="#000" stroke-linejoin="bevel" stroke-width="2.73"/><line y1="435.87" x2="2815.2" y2="435.87" fill="none" stroke="#000" stroke-linejoin="bevel" stroke-width="2.73"/><line y1="460.67" x2="2815.2" y2="460.67" fill="none" stroke="#000" stroke-linejoin="bevel" stroke-width="2.73"/><line y1="485.47" x2="2815.2" y2="485.47" fill="none" stroke="#000" stroke-linejoin="bevel" stroke-width="2.73"/><line y1="719.95" x2="2815.2" y2="719.95" fill="none" stroke="#000" stroke-linejoin="bevel" stroke-width="2.73"/><line y1="744.75" x2="2815.2" y2="744.75" fill="none" stroke="#000" stroke-linejoin="bevel" stroke-width="2.73"/><line y1="769.55" x2="2815.2" y2="769.55" fill="none" stroke="#000" stroke-linejoin="bevel" stroke-width="2.73"/><line y1="794.35" x2="2815.2" y2="794.35" fill="none" stroke="#000" stroke-linejoin="bevel" stroke-width="2.73"/><line y1="819.15" x2="2815.2" y2="819.15" fill="none" stroke="#000" stroke-linejoin="bevel" stroke-width="2.73"/><line x1="2799.33" y1="718.59" x2="2799.33" y2="820.51" fill="none" stroke="#000" stroke-linejoin="bevel" stroke-width="4.46"/><line x1="2812.97" y1="718.59" x2="2812.97" y2="820.51" fill="none" stroke="#000" stroke-linejoin="bevel" stroke-width="4.46"/><line x1="1929.16" y1="384.91" x2="1929.16" y2="486.83" fill="none" stroke="#000" stroke-linejoin="bevel" stroke-width="4.46"/><line x1="1929.16" y1="51.23" x2="1929.16" y2="153.15" fill="none" stroke="#000" stroke-linejoin="bevel" stroke-width="4.46"/><line x1="1043.88" y1="384.91" x2="1043.88" y2="486.83" fill="none" stroke="#000" stroke-linejoin="bevel" stroke-width="4.46"/><line x1="2812.97" y1="51.23" x2="2812.97" y2="153.15" fill="none" stroke="#000" stroke-linejoin="bevel" stroke-width="4.46"/><line x1="2415.25" y1="718.59" x2="2415.25" y2="820.51" fill="none" stroke="#000" stroke-linejoin="bevel" stroke-width="4.46"/><line x1="1043.88" y1="51.23" x2="1043.88" y2="153.15" fill="none" stroke="#000" stroke-linejoin="bevel" stroke-width="4.46"/><line x1="2812.97" y1="384.91" x2="2812.97" y2="486.83" fill="none" stroke="#000" stroke-linejoin="bevel" stroke-width="4.46"/><line x1="1286.93" y1="718.59" x2="1286.93" y2="820.51" fill="none" stroke="#000" stroke-linejoin="bevel" stroke-width="4.46"/><line x1="662.39" y1="106.36" x2="662.39" y2="176.59" fill="none" stroke="#000" stroke-linejoin="bevel" stroke-width="2.48"/><line x1="714.24" y1="106.36" x2="714.24" y2="176.59" fill="none" stroke="#000" stroke-linejoin="bevel" stroke-width="2.48"/><line x1="2238.29" y1="777.98" x2="2238.29" y2="701.35" fill="none" stroke="#000" stroke-linejoin="bevel" stroke-width="2.48"/><line x1="766.08" y1="106.36" x2="766.08" y2="176.59" fill="none" stroke="#000" stroke-linejoin="bevel" stroke-width="2.48"/><line x1="847.68" y1="123.02" x2="847.68" y2="52.59" fill="none" stroke="#000" stroke-linejoin="bevel" stroke-width="2.48"/><line x1="2306.43" y1="777.98" x2="2306.43" y2="701.35" fill="none" stroke="#000" stroke-linejoin="bevel" stroke-width="2.48"/><line x1="899.52" y1="123.02" x2="899.52" y2="52.59" fill="none" stroke="#000" stroke-linejoin="bevel" stroke-width="2.48"/><line x1="951.37" y1="123.02" x2="951.37" y2="52.59" fill="none" stroke="#000" stroke-linejoin="bevel" stroke-width="2.48"/><line x1="2374.58" y1="777.98" x2="2374.58" y2="701.35" fill="none" stroke="#000" stroke-linejoin="bevel" stroke-width="2.48"/><line x1="1003.21" y1="123.02" x2="1003.21" y2="52.59" fill="none" stroke="#000" stroke-linejoin="bevel" stroke-width="2.48"/><line x1="1109.35" y1="110.62" x2="1109.35" y2="33.99" fill="none" stroke="#000" stroke-linejoin="bevel" stroke-width="2.48"/><line x1="1161.19" y1="110.62" x2="1161.19" y2="33.99" fill="none" stroke="#000" stroke-linejoin="bevel" stroke-width="2.48"/><line x1="1264.88" y1="110.62" x2="1264.88" y2="33.99" fill="none" stroke="#000" stroke-linejoin="bevel" stroke-width="2.48"/><line x1="1288.44" y1="106.36" x2="1288.44" y2="176.59" fill="none" stroke="#000" stroke-linejoin="bevel" stroke-width="2.48"/><line x1="1340.29" y1="106.36" x2="1340.29" y2="176.59" fill="none" stroke="#000" stroke-linejoin="bevel" stroke-width="2.48"/><line x1="1392.13" y1="106.36" x2="1392.13" y2="176.59" fill="none" stroke="#000" stroke-linejoin="bevel" stroke-width="2.48"/><line x1="1443.98" y1="106.36" x2="1443.98" y2="176.59" fill="none" stroke="#000" stroke-linejoin="bevel" stroke-width="2.48"/><line x1="1495.82" y1="93.96" x2="1495.82" y2="170.39" fill="none" stroke="#000" stroke-linejoin="bevel" stroke-width="2.48"/><line x1="1547.67" y1="93.96" x2="1547.67" y2="170.39" fill="none" stroke="#000" stroke-linejoin="bevel" stroke-width="2.48"/><line x1="1599.51" y1="93.96" x2="1599.51" y2="170.39" fill="none" stroke="#000" stroke-linejoin="bevel" stroke-width="2.48"/><line x1="1651.36" y1="93.96" x2="1651.36" y2="170.39" fill="none" stroke="#000" stroke-linejoin="bevel" stroke-width="2.48"/><line x1="1732.95" y1="110.62" x2="1732.95" y2="33.99" fill="none" stroke="#000" stroke-linejoin="bevel" stroke-width="2.48"/><line x1="1784.8" y1="110.62" x2="1784.8" y2="33.99" fill="none" stroke="#000" stroke-linejoin="bevel" stroke-width="2.48"/><line x1="1836.64" y1="110.62" x2="1836.64" y2="33.99" fill="none" stroke="#000" stroke-linejoin="bevel" stroke-width="2.48"/><line x1="1888.49" y1="110.62" x2="1888.49" y2="33.99" fill="none" stroke="#000" stroke-linejoin="bevel" stroke-width="2.48"/><line x1="1964.87" y1="106.36" x2="1964.87" y2="176.59" fill="none" stroke="#000" stroke-linejoin="bevel" stroke-width="2.48"/><line x1="2016.72" y1="106.36" x2="2016.72" y2="176.59" fill="none" stroke="#000" stroke-linejoin="bevel" stroke-width="2.48"/><line x1="2068.56" y1="106.36" x2="2068.56" y2="176.59" fill="none" stroke="#000" stroke-linejoin="bevel" stroke-width="2.48"/><line x1="2120.41" y1="106.36" x2="2120.41" y2="176.59" fill="none" stroke="#000" stroke-linejoin="bevel" stroke-width="2.48"/><line x1="2172.25" y1="93.96" x2="2172.25" y2="170.39" fill="none" stroke="#000" stroke-linejoin="bevel" stroke-width="2.48"/><line x1="2224.09" y1="93.96" x2="2224.09" y2="170.39" fill="none" stroke="#000" stroke-linejoin="bevel" stroke-width="2.48"/><line x1="2275.94" y1="93.96" x2="2275.94" y2="170.39" fill="none" stroke="#000" stroke-linejoin="bevel" stroke-width="2.48"/><line x1="2327.78" y1="93.96" x2="2327.78" y2="170.39" fill="none" stroke="#000" stroke-linejoin="bevel" stroke-width="2.48"/><line x1="2379.63" y1="81.56" x2="2379.63" y2="151.79" fill="none" stroke="#000" stroke-linejoin="bevel" stroke-width="2.48"/><line x1="2431.47" y1="81.56" x2="2431.47" y2="151.79" fill="none" stroke="#000" stroke-linejoin="bevel" stroke-width="2.48"/><line x1="2483.32" y1="81.56" x2="2483.32" y2="151.79" fill="none" stroke="#000" stroke-linejoin="bevel" stroke-width="2.48"/><line x1="2535.16" y1="81.56" x2="2535.16" y2="151.79" fill="none" stroke="#000" stroke-linejoin="bevel" stroke-width="2.48"/><line x1="2587.01" y1="106.36" x2="2587.01" y2="176.59" fill="none" stroke="#000" stroke-linejoin="bevel" stroke-width="2.48"/><line x1="2638.85" y1="106.36" x2="2638.85" y2="176.59" fill="none" stroke="#000" stroke-linejoin="bevel" stroke-width="2.48"/><line x1="2690.7" y1="106.36" x2="2690.7" y2="176.59" fill="none" stroke="#000" stroke-linejoin="bevel" stroke-width="2.48"/><line x1="2742.54" y1="106.36" x2="2742.54" y2="176.59" fill="none" stroke="#000" stroke-linejoin="bevel" stroke-width="2.48"/><line x1="224.08" y1="456.7" x2="224.08" y2="386.27" fill="none" stroke="#000" stroke-linejoin="bevel" stroke-width="2.48"/><line x1="275.92" y1="456.7" x2="275.92" y2="386.27" fill="none" stroke="#000" stroke-linejoin="bevel" stroke-width="2.48"/><line x1="327.77" y1="456.7" x2="327.77" y2="386.27" fill="none" stroke="#000" stroke-linejoin="bevel" stroke-width="2.48"/><line x1="379.61" y1="456.7" x2="379.61" y2="386.27" fill="none" stroke="#000" stroke-linejoin="bevel" stroke-width="2.48"/><line x1="431.45" y1="444.3" x2="431.45" y2="367.67" fill="none" stroke="#000" stroke-linejoin="bevel" stroke-width="2.48"/><line x1="483.3" y1="444.3" x2="483.3" y2="367.67" fill="none" stroke="#000" stroke-linejoin="bevel" stroke-width="2.48"/><line x1="535.14" y1="444.3" x2="535.14" y2="367.67" fill="none" stroke="#000" stroke-linejoin="bevel" stroke-width="2.48"/><line x1="586.99" y1="444.3" x2="586.99" y2="367.67" fill="none" stroke="#000" stroke-linejoin="bevel" stroke-width="2.48"/><line x1="610.55" y1="440.04" x2="610.55" y2="510.27" fill="none" stroke="#000" stroke-linejoin="bevel" stroke-width="2.48"/><line x1="662.39" y1="440.04" x2="662.39" y2="510.27" fill="none" stroke="#000" stroke-linejoin="bevel" stroke-width="2.48"/><line x1="714.24" y1="440.04" x2="714.24" y2="510.27" fill="none" stroke="#000" stroke-linejoin="bevel" stroke-width="2.48"/><line x1="766.08" y1="440.04" x2="766.08" y2="510.27" fill="none" stroke="#000" stroke-linejoin="bevel" stroke-width="2.48"/><line x1="847.68" y1="456.7" x2="847.68" y2="386.27" fill="none" stroke="#000" stroke-linejoin="bevel" stroke-width="2.48"/><line x1="899.52" y1="456.7" x2="899.52" y2="386.27" fill="none" stroke="#000" stroke-linejoin="bevel" stroke-width="2.48"/><line x1="951.37" y1="456.7" x2="951.37" y2="386.27" fill="none" stroke="#000" stroke-linejoin="bevel" stroke-width="2.48"/><line x1="1003.21" y1="456.7" x2="1003.21" y2="386.27" fill="none" stroke="#000" stroke-linejoin="bevel" stroke-width="2.48"/><line x1="1109.35" y1="444.3" x2="1109.35" y2="367.67" fill="none" stroke="#000" stroke-linejoin="bevel" stroke-width="2.48"/><line x1="1161.19" y1="444.3" x2="1161.19" y2="367.67" fill="none" stroke="#000" stroke-linejoin="bevel" stroke-width="2.48"/><line x1="1213.04" y1="444.3" x2="1213.04" y2="367.67" fill="none" stroke="#000" stroke-linejoin="bevel" stroke-width="2.48"/><line x1="1264.88" y1="444.3" x2="1264.88" y2="367.67" fill="none" stroke="#000" stroke-linejoin="bevel" stroke-width="2.48"/><line x1="1288.44" y1="440.04" x2="1288.44" y2="510.27" fill="none" stroke="#000" stroke-linejoin="bevel" stroke-width="2.48"/><line x1="1340.29" y1="440.04" x2="1340.29" y2="510.27" fill="none" stroke="#000" stroke-linejoin="bevel" stroke-width="2.48"/><line x1="1392.13" y1="440.04" x2="1392.13" y2="510.27" fill="none" stroke="#000" stroke-linejoin="bevel" stroke-width="2.48"/><line x1="1443.98" y1="440.04" x2="1443.98" y2="510.27" fill="none" stroke="#000" stroke-linejoin="bevel" stroke-width="2.48"/><line x1="1495.82" y1="427.64" x2="1495.82" y2="504.07" fill="none" stroke="#000" stroke-linejoin="bevel" stroke-width="2.48"/><line x1="1547.67" y1="427.64" x2="1547.67" y2="504.07" fill="none" stroke="#000" stroke-linejoin="bevel" stroke-width="2.48"/><line x1="1599.51" y1="427.64" x2="1599.51" y2="504.07" fill="none" stroke="#000" stroke-linejoin="bevel" stroke-width="2.48"/><line x1="1651.36" y1="427.64" x2="1651.36" y2="504.07" fill="none" stroke="#000" stroke-linejoin="bevel" stroke-width="2.48"/><line x1="1732.95" y1="444.3" x2="1732.95" y2="367.67" fill="none" stroke="#000" stroke-linejoin="bevel" stroke-width="2.48"/><line x1="1784.8" y1="444.3" x2="1784.8" y2="367.67" fill="none" stroke="#000" stroke-linejoin="bevel" stroke-width="2.48"/><line x1="1836.64" y1="444.3" x2="1836.64" y2="367.67" fill="none" stroke="#000" stroke-linejoin="bevel" stroke-width="2.48"/><line x1="1888.49" y1="444.3" x2="1888.49" y2="367.67" fill="none" stroke="#000" stroke-linejoin="bevel" stroke-width="2.48"/><line x1="1994.62" y1="469.1" x2="1994.62" y2="392.47" fill="none" stroke="#000" stroke-linejoin="bevel" stroke-width="2.48"/><line x1="2046.47" y1="469.1" x2="2046.47" y2="392.47" fill="none" stroke="#000" stroke-linejoin="bevel" stroke-width="2.48"/><line x1="2098.31" y1="469.1" x2="2098.31" y2="392.47" fill="none" stroke="#000" stroke-linejoin="bevel" stroke-width="2.48"/><line x1="2150.16" y1="469.1" x2="2150.16" y2="392.47" fill="none" stroke="#000" stroke-linejoin="bevel" stroke-width="2.48"/><line x1="2202" y1="456.7" x2="2202" y2="386.27" fill="none" stroke="#000" stroke-linejoin="bevel" stroke-width="2.48"/><line x1="2253.85" y1="456.7" x2="2253.85" y2="386.27" fill="none" stroke="#000" stroke-linejoin="bevel" stroke-width="2.48"/><line x1="2305.69" y1="456.7" x2="2305.69" y2="386.27" fill="none" stroke="#000" stroke-linejoin="bevel" stroke-width="2.48"/><line x1="2357.54" y1="456.7" x2="2357.54" y2="386.27" fill="none" stroke="#000" stroke-linejoin="bevel" stroke-width="2.48"/><line x1="1213.04" y1="110.62" x2="1213.04" y2="33.99" fill="none" stroke="#000" stroke-linejoin="bevel" stroke-width="2.48"/><line x1="2409.38" y1="444.3" x2="2409.38" y2="367.67" fill="none" stroke="#000" stroke-linejoin="bevel" stroke-width="2.48"/><line x1="2461.23" y1="444.3" x2="2461.23" y2="367.67" fill="none" stroke="#000" stroke-linejoin="bevel" stroke-width="2.48"/><line x1="2513.07" y1="444.3" x2="2513.07" y2="367.67" fill="none" stroke="#000" stroke-linejoin="bevel" stroke-width="2.48"/><line x1="2564.92" y1="444.3" x2="2564.92" y2="367.67" fill="none" stroke="#000" stroke-linejoin="bevel" stroke-width="2.48"/><line x1="2616.76" y1="469.1" x2="2616.76" y2="392.47" fill="none" stroke="#000" stroke-linejoin="bevel" stroke-width="2.48"/><line x1="2668.6" y1="469.1" x2="2668.6" y2="392.47" fill="none" stroke="#000" stroke-linejoin="bevel" stroke-width="2.48"/><line x1="2720.45" y1="469.1" x2="2720.45" y2="392.47" fill="none" stroke="#000" stroke-linejoin="bevel" stroke-width="2.48"/><line x1="2772.29" y1="469.1" x2="2772.29" y2="392.47" fill="none" stroke="#000" stroke-linejoin="bevel" stroke-width="2.48"/><line x1="224.08" y1="790.38" x2="224.08" y2="719.95" fill="none" stroke="#000" stroke-linejoin="bevel" stroke-width="2.48"/><line x1="292.22" y1="790.38" x2="292.22" y2="719.95" fill="none" stroke="#000" stroke-linejoin="bevel" stroke-width="2.48"/><line x1="360.37" y1="790.38" x2="360.37" y2="719.95" fill="none" stroke="#000" stroke-linejoin="bevel" stroke-width="2.48"/><line x1="428.51" y1="790.38" x2="428.51" y2="719.95" fill="none" stroke="#000" stroke-linejoin="bevel" stroke-width="2.48"/><line x1="466.91" y1="773.72" x2="466.91" y2="843.95" fill="none" stroke="#000" stroke-linejoin="bevel" stroke-width="2.48"/><line x1="535.05" y1="773.72" x2="535.05" y2="843.95" fill="none" stroke="#000" stroke-linejoin="bevel" stroke-width="2.48"/><line x1="603.2" y1="773.72" x2="603.2" y2="843.95" fill="none" stroke="#000" stroke-linejoin="bevel" stroke-width="2.48"/><line x1="224.08" y1="123.02" x2="224.08" y2="52.59" fill="none" stroke="#000" stroke-linejoin="bevel" stroke-width="2.48"/><line x1="671.34" y1="773.72" x2="671.34" y2="843.95" fill="none" stroke="#000" stroke-linejoin="bevel" stroke-width="2.48"/><line x1="769.24" y1="777.98" x2="769.24" y2="701.35" fill="none" stroke="#000" stroke-linejoin="bevel" stroke-width="2.48"/><line x1="837.39" y1="777.98" x2="837.39" y2="701.35" fill="none" stroke="#000" stroke-linejoin="bevel" stroke-width="2.48"/><line x1="905.53" y1="777.98" x2="905.53" y2="701.35" fill="none" stroke="#000" stroke-linejoin="bevel" stroke-width="2.48"/><line x1="973.68" y1="777.98" x2="973.68" y2="701.35" fill="none" stroke="#000" stroke-linejoin="bevel" stroke-width="2.48"/><line x1="1041.82" y1="790.38" x2="1041.82" y2="719.95" fill="none" stroke="#000" stroke-linejoin="bevel" stroke-width="2.48"/><line x1="1109.97" y1="790.38" x2="1109.97" y2="719.95" fill="none" stroke="#000" stroke-linejoin="bevel" stroke-width="2.48"/><line x1="1178.11" y1="790.38" x2="1178.11" y2="719.95" fill="none" stroke="#000" stroke-linejoin="bevel" stroke-width="2.48"/><line x1="1246.26" y1="790.38" x2="1246.26" y2="719.95" fill="none" stroke="#000" stroke-linejoin="bevel" stroke-width="2.48"/><line x1="275.92" y1="123.02" x2="275.92" y2="52.59" fill="none" stroke="#000" stroke-linejoin="bevel" stroke-width="2.48"/><line x1="1352.4" y1="777.98" x2="1352.4" y2="701.35" fill="none" stroke="#000" stroke-linejoin="bevel" stroke-width="2.48"/><line x1="1420.54" y1="777.98" x2="1420.54" y2="701.35" fill="none" stroke="#000" stroke-linejoin="bevel" stroke-width="2.48"/><line x1="1488.69" y1="777.98" x2="1488.69" y2="701.35" fill="none" stroke="#000" stroke-linejoin="bevel" stroke-width="2.48"/><line x1="1556.83" y1="777.98" x2="1556.83" y2="701.35" fill="none" stroke="#000" stroke-linejoin="bevel" stroke-width="2.48"/><line x1="1595.23" y1="761.32" x2="1595.23" y2="837.75" fill="none" stroke="#000" stroke-linejoin="bevel" stroke-width="2.48"/><line x1="1935.95" y1="773.72" x2="1935.95" y2="843.95" fill="none" stroke="#000" stroke-linejoin="bevel" stroke-width="2.48"/><line x1="1663.37" y1="761.32" x2="1663.37" y2="837.75" fill="none" stroke="#000" stroke-linejoin="bevel" stroke-width="2.48"/><line x1="1731.52" y1="761.32" x2="1731.52" y2="837.75" fill="none" stroke="#000" stroke-linejoin="bevel" stroke-width="2.48"/><line x1="1799.66" y1="761.32" x2="1799.66" y2="837.75" fill="none" stroke="#000" stroke-linejoin="bevel" stroke-width="2.48"/><line x1="1867.81" y1="773.72" x2="1867.81" y2="843.95" fill="none" stroke="#000" stroke-linejoin="bevel" stroke-width="2.48"/><line x1="327.77" y1="123.02" x2="327.77" y2="52.59" fill="none" stroke="#000" stroke-linejoin="bevel" stroke-width="2.48"/><line x1="379.61" y1="123.02" x2="379.61" y2="52.59" fill="none" stroke="#000" stroke-linejoin="bevel" stroke-width="2.48"/><line x1="2004.1" y1="773.72" x2="2004.1" y2="843.95" fill="none" stroke="#000" stroke-linejoin="bevel" stroke-width="2.48"/><line x1="431.45" y1="110.62" x2="431.45" y2="33.99" fill="none" stroke="#000" stroke-linejoin="bevel" stroke-width="2.48"/><line x1="483.3" y1="110.62" x2="483.3" y2="33.99" fill="none" stroke="#000" stroke-linejoin="bevel" stroke-width="2.48"/><line x1="2072.25" y1="773.72" x2="2072.25" y2="843.95" fill="none" stroke="#000" stroke-linejoin="bevel" stroke-width="2.48"/><line x1="535.14" y1="110.62" x2="535.14" y2="33.99" fill="none" stroke="#000" stroke-linejoin="bevel" stroke-width="2.48"/><line x1="586.99" y1="110.62" x2="586.99" y2="33.99" fill="none" stroke="#000" stroke-linejoin="bevel" stroke-width="2.48"/><line x1="2170.14" y1="777.98" x2="2170.14" y2="701.35" fill="none" stroke="#000" stroke-linejoin="bevel" stroke-width="2.48"/><line x1="610.55" y1="106.36" x2="610.55" y2="176.59" fill="none" stroke="#000" stroke-linejoin="bevel" stroke-width="2.48"/><path d="M2741.3,106.36c0,4.26,3.07,9.02,11.11,9.02,10.31,0,21.13-8.43,21.13-17.16,0-5.86-4.96-9.13-11.11-9.13-9.63,0-21.13,8.14-21.13,17.27"/><path d="M193.08,131.16c0,4.26,3.07,9.02,11.11,9.02,10.31,0,21.13-8.43,21.13-17.16,0-5.86-4.96-9.13-11.11-9.13-9.63,0-21.13,8.14-21.13,17.27"/><path d="M244.93,131.16c0,4.26,3.07,9.02,11.11,9.02,10.31,0,21.13-8.43,21.13-17.16,0-5.86-4.96-9.13-11.11-9.13-9.63,0-21.13,8.14-21.13,17.27"/><path d="M296.77,131.16c0,4.26,3.07,9.02,11.11,9.02,10.31,0,21.13-8.43,21.13-17.16,0-5.86-4.96-9.13-11.11-9.13-9.63,0-21.13,8.14-21.13,17.27"/><path d="M348.62,131.16c0,4.26,3.07,9.02,11.11,9.02,10.31,0,21.13-8.43,21.13-17.16,0-5.86-4.96-9.13-11.11-9.13-9.63,0-21.13,8.14-21.13,17.27"/><path d="M400.46,118.76c0,4.26,3.07,9.02,11.11,9.02,10.31,0,21.13-8.43,21.13-17.16,0-5.86-4.96-9.13-11.11-9.13-9.63,0-21.13,8.14-21.13,17.27"/><path d="M452.31,118.76c0,4.26,3.07,9.02,11.11,9.02,10.31,0,21.13-8.43,21.13-17.16,0-5.86-4.96-9.13-11.11-9.13-9.63,0-21.13,8.14-21.13,17.27"/><path d="M504.15,118.76c0,4.26,3.07,9.02,11.11,9.02,10.31,0,21.13-8.43,21.13-17.16,0-5.86-4.96-9.13-11.11-9.13-9.63,0-21.13,8.14-21.13,17.27"/><path d="M556,118.76c0,4.26,3.07,9.02,11.11,9.02,10.31,0,21.13-8.43,21.13-17.16,0-5.86-4.96-9.13-11.11-9.13-9.63,0-21.13,8.14-21.13,17.27"/><path d="M609.31,106.36c0,4.26,3.07,9.02,11.11,9.02,10.31,0,21.13-8.43,21.13-17.16,0-5.86-4.96-9.13-11.11-9.13-9.63,0-21.13,8.14-21.13,17.27"/><path d="M661.15,106.36c0,4.26,3.07,9.02,11.11,9.02,10.31,0,21.13-8.43,21.13-17.16,0-5.86-4.96-9.13-11.11-9.13-9.63,0-21.13,8.14-21.13,17.27"/><path d="M713,106.36c0,4.26,3.07,9.02,11.11,9.02,10.31,0,21.13-8.43,21.13-17.16,0-5.86-4.96-9.13-11.11-9.13-9.63,0-21.13,8.14-21.13,17.27"/><path d="M764.84,106.36c0,4.26,3.07,9.02,11.11,9.02,10.31,0,21.13-8.43,21.13-17.16,0-5.86-4.96-9.13-11.11-9.13-9.63,0-21.13,8.14-21.13,17.27"/><path d="M816.69,131.16c0,4.26,3.07,9.02,11.11,9.02,10.31,0,21.13-8.43,21.13-17.16,0-5.86-4.96-9.13-11.11-9.13-9.63,0-21.13,8.14-21.13,17.27"/><path d="M868.53,131.16c0,4.26,3.07,9.02,11.11,9.02,10.31,0,21.13-8.43,21.13-17.16,0-5.86-4.96-9.13-11.11-9.13-9.63,0-21.13,8.14-21.13,17.27"/><path d="M920.38,131.16c0,4.26,3.07,9.02,11.11,9.02,10.31,0,21.13-8.43,21.13-17.16,0-5.86-4.96-9.13-11.11-9.13-9.63,0-21.13,8.14-21.13,17.27"/><path d="M972.22,131.16c0,4.26,3.07,9.02,11.11,9.02,10.31,0,21.13-8.43,21.13-17.16,0-5.86-4.96-9.13-11.11-9.13-9.63,0-21.13,8.14-21.13,17.27"/><path d="M1078.36,118.76c0,4.26,3.07,9.02,11.11,9.02,10.31,0,21.13-8.43,21.13-17.16,0-5.86-4.96-9.13-11.11-9.13-9.63,0-21.13,8.14-21.13,17.27"/><path d="M1130.2,118.76c0,4.26,3.07,9.02,11.11,9.02,10.31,0,21.13-8.43,21.13-17.16,0-5.86-4.96-9.13-11.11-9.13-9.63,0-21.13,8.14-21.13,17.27"/><path d="M1182.05,118.76c0,4.26,3.07,9.02,11.11,9.02,10.31,0,21.13-8.43,21.13-17.16,0-5.86-4.96-9.13-11.11-9.13-9.63,0-21.13,8.14-21.13,17.27"/><path d="M1233.89,118.76c0,4.26,3.07,9.02,11.11,9.02,10.31,0,21.13-8.43,21.13-17.16,0-5.86-4.96-9.13-11.11-9.13-9.63,0-21.13,8.14-21.13,17.27"/><path d="M1287.2,106.36c0,4.26,3.07,9.02,11.11,9.02,10.31,0,21.13-8.43,21.13-17.16,0-5.86-4.96-9.13-11.11-9.13-9.63,0-21.13,8.14-21.13,17.27"/><path d="M1339.05,106.36c0,4.26,3.07,9.02,11.11,9.02,10.31,0,21.13-8.43,21.13-17.16,0-5.86-4.96-9.13-11.11-9.13-9.63,0-21.13,8.14-21.13,17.27"/><path d="M1390.89,106.36c0,4.26,3.07,9.02,11.11,9.02,10.31,0,21.13-8.43,21.13-17.16,0-5.86-4.96-9.13-11.11-9.13-9.63,0-21.13,8.14-21.13,17.27"/><path d="M1442.74,106.36c0,4.26,3.07,9.02,11.11,9.02,10.31,0,21.13-8.43,21.13-17.16,0-5.86-4.96-9.13-11.11-9.13-9.63,0-21.13,8.14-21.13,17.27"/><path d="M1494.58,93.96c0,4.26,3.07,9.02,11.11,9.02,10.31,0,21.13-8.43,21.13-17.16,0-5.86-4.96-9.13-11.11-9.13-9.63,0-21.13,8.14-21.13,17.27"/><path d="M1546.43,93.96c0,4.26,3.07,9.02,11.11,9.02,10.31,0,21.13-8.43,21.13-17.16,0-5.86-4.96-9.13-11.11-9.13-9.63,0-21.13,8.14-21.13,17.27"/><path d="M1598.27,93.96c0,4.26,3.07,9.02,11.11,9.02,10.31,0,21.13-8.43,21.13-17.16,0-5.86-4.96-9.13-11.11-9.13-9.63,0-21.13,8.14-21.13,17.27"/><path d="M1650.12,93.96c0,4.26,3.07,9.02,11.11,9.02,10.31,0,21.13-8.43,21.13-17.16,0-5.86-4.96-9.13-11.11-9.13-9.63,0-21.13,8.14-21.13,17.27"/><path d="M1701.96,118.76c0,4.26,3.07,9.02,11.11,9.02,10.31,0,21.13-8.43,21.13-17.16,0-5.86-4.96-9.13-11.11-9.13-9.63,0-21.13,8.14-21.13,17.27"/><path d="M1753.81,118.76c0,4.26,3.07,9.02,11.11,9.02,10.31,0,21.13-8.43,21.13-17.16,0-5.86-4.96-9.13-11.11-9.13-9.63,0-21.13,8.14-21.13,17.27"/><path d="M1805.65,118.76c0,4.26,3.07,9.02,11.11,9.02,10.31,0,21.13-8.43,21.13-17.16,0-5.86-4.96-9.13-11.11-9.13-9.63,0-21.13,8.14-21.13,17.27"/><path d="M1857.49,118.76c0,4.26,3.07,9.02,11.11,9.02,10.31,0,21.13-8.43,21.13-17.16,0-5.86-4.96-9.13-11.11-9.13-9.63,0-21.13,8.14-21.13,17.27"/><path d="M1963.63,106.36c0,4.26,3.07,9.02,11.11,9.02,10.31,0,21.13-8.43,21.13-17.16,0-5.86-4.96-9.13-11.11-9.13-9.63,0-21.13,8.14-21.13,17.27"/><path d="M2015.48,106.36c0,4.26,3.07,9.02,11.11,9.02,10.31,0,21.13-8.43,21.13-17.16,0-5.86-4.96-9.13-11.11-9.13-9.63,0-21.13,8.14-21.13,17.27"/><path d="M2067.32,106.36c0,4.26,3.07,9.02,11.11,9.02,10.31,0,21.13-8.43,21.13-17.16,0-5.86-4.96-9.13-11.11-9.13-9.63,0-21.13,8.14-21.13,17.27"/><path d="M2119.17,106.36c0,4.26,3.07,9.02,11.11,9.02,10.31,0,21.13-8.43,21.13-17.16,0-5.86-4.96-9.13-11.11-9.13-9.63,0-21.13,8.14-21.13,17.27"/><path d="M2171.01,93.96c0,4.26,3.07,9.02,11.11,9.02,10.31,0,21.13-8.43,21.13-17.16,0-5.86-4.96-9.13-11.11-9.13-9.63,0-21.13,8.14-21.13,17.27"/><path d="M2222.85,93.96c0,4.26,3.07,9.02,11.11,9.02,10.31,0,21.13-8.43,21.13-17.16,0-5.86-4.96-9.13-11.11-9.13-9.63,0-21.13,8.14-21.13,17.27"/><path d="M2274.7,93.96c0,4.26,3.07,9.02,11.11,9.02,10.31,0,21.13-8.43,21.13-17.16,0-5.86-4.96-9.13-11.11-9.13-9.63,0-21.13,8.14-21.13,17.27"/><path d="M2326.54,93.96c0,4.26,3.07,9.02,11.11,9.02,10.31,0,21.13-8.43,21.13-17.16,0-5.86-4.96-9.13-11.11-9.13-9.63,0-21.13,8.14-21.13,17.27"/><path d="M2378.39,81.56c0,4.26,3.07,9.02,11.11,9.02,10.31,0,21.13-8.43,21.13-17.16,0-5.86-4.96-9.13-11.11-9.13-9.63,0-21.13,8.14-21.13,17.27"/><path d="M2430.23,81.56c0,4.26,3.07,9.02,11.11,9.02,10.31,0,21.13-8.43,21.13-17.16,0-5.86-4.96-9.13-11.11-9.13-9.63,0-21.13,8.14-21.13,17.27"/><path d="M2482.08,81.56c0,4.26,3.07,9.02,11.11,9.02,10.31,0,21.13-8.43,21.13-17.16,0-5.86-4.96-9.13-11.11-9.13-9.63,0-21.13,8.14-21.13,17.27"/><path d="M2533.92,81.56c0,4.26,3.07,9.02,11.11,9.02,10.31,0,21.13-8.43,21.13-17.16,0-5.86-4.96-9.13-11.11-9.13-9.63,0-21.13,8.14-21.13,17.27"/><path d="M2585.77,106.36c0,4.26,3.07,9.02,11.11,9.02,10.31,0,21.13-8.43,21.13-17.16,0-5.86-4.96-9.13-11.11-9.13-9.63,0-21.13,8.14-21.13,17.27"/><path d="M2637.61,106.36c0,4.26,3.07,9.02,11.11,9.02,10.31,0,21.13-8.43,21.13-17.16,0-5.86-4.96-9.13-11.11-9.13-9.63,0-21.13,8.14-21.13,17.27"/><path d="M2689.46,106.36c0,4.26,3.07,9.02,11.11,9.02,10.31,0,21.13-8.43,21.13-17.16,0-5.86-4.96-9.13-11.11-9.13-9.63,0-21.13,8.14-21.13,17.27"/><path d="M193.08,464.84c0,4.26,3.07,9.02,11.11,9.02,10.31,0,21.13-8.43,21.13-17.16,0-5.86-4.96-9.13-11.11-9.13-9.63,0-21.13,8.14-21.13,17.27"/><path d="M244.93,464.84c0,4.26,3.07,9.02,11.11,9.02,10.31,0,21.13-8.43,21.13-17.16,0-5.86-4.96-9.13-11.11-9.13-9.63,0-21.13,8.14-21.13,17.27"/><path d="M296.77,464.84c0,4.26,3.07,9.02,11.11,9.02,10.31,0,21.13-8.43,21.13-17.16,0-5.86-4.96-9.13-11.11-9.13-9.63,0-21.13,8.14-21.13,17.27"/><path d="M348.62,464.84c0,4.26,3.07,9.02,11.11,9.02,10.31,0,21.13-8.43,21.13-17.16,0-5.86-4.96-9.13-11.11-9.13-9.63,0-21.13,8.14-21.13,17.27"/><path d="M400.46,452.44c0,4.26,3.07,9.02,11.11,9.02,10.31,0,21.13-8.43,21.13-17.16,0-5.86-4.96-9.13-11.11-9.13-9.63,0-21.13,8.14-21.13,17.27"/><path d="M452.31,452.44c0,4.26,3.07,9.02,11.11,9.02,10.31,0,21.13-8.43,21.13-17.16,0-5.86-4.96-9.13-11.11-9.13-9.63,0-21.13,8.14-21.13,17.27"/><path d="M504.15,452.44c0,4.26,3.07,9.02,11.11,9.02,10.31,0,21.13-8.43,21.13-17.16,0-5.86-4.96-9.13-11.11-9.13-9.63,0-21.13,8.14-21.13,17.27"/><path d="M556,452.44c0,4.26,3.07,9.02,11.11,9.02,10.31,0,21.13-8.43,21.13-17.16,0-5.86-4.96-9.13-11.11-9.13-9.63,0-21.13,8.14-21.13,17.27"/><path d="M609.31,440.04c0,4.26,3.07,9.02,11.11,9.02,10.31,0,21.13-8.43,21.13-17.16,0-5.86-4.96-9.13-11.11-9.13-9.63,0-21.13,8.14-21.13,17.27"/><path d="M661.15,440.04c0,4.26,3.07,9.02,11.11,9.02,10.31,0,21.13-8.43,21.13-17.16,0-5.86-4.96-9.13-11.11-9.13-9.63,0-21.13,8.14-21.13,17.27"/><path d="M713,440.04c0,4.26,3.07,9.02,11.11,9.02,10.31,0,21.13-8.43,21.13-17.16,0-5.86-4.96-9.13-11.11-9.13-9.63,0-21.13,8.14-21.13,17.27"/><path d="M764.84,440.04c0,4.26,3.07,9.02,11.11,9.02,10.31,0,21.13-8.43,21.13-17.16,0-5.86-4.96-9.13-11.11-9.13-9.63,0-21.13,8.14-21.13,17.27"/><path d="M816.69,464.84c0,4.26,3.07,9.02,11.11,9.02,10.31,0,21.13-8.43,21.13-17.16,0-5.86-4.96-9.13-11.11-9.13-9.63,0-21.13,8.14-21.13,17.27"/><path d="M868.53,464.84c0,4.26,3.07,9.02,11.11,9.02,10.31,0,21.13-8.43,21.13-17.16,0-5.86-4.96-9.13-11.11-9.13-9.63,0-21.13,8.14-21.13,17.27"/><path d="M920.38,464.84c0,4.26,3.07,9.02,11.11,9.02,10.31,0,21.13-8.43,21.13-17.16,0-5.86-4.96-9.13-11.11-9.13-9.63,0-21.13,8.14-21.13,17.27"/><path d="M972.22,464.84c0,4.26,3.07,9.02,11.11,9.02,10.31,0,21.13-8.43,21.13-17.16,0-5.86-4.96-9.13-11.11-9.13-9.63,0-21.13,8.14-21.13,17.27"/><path d="M1078.36,452.44c0,4.26,3.07,9.02,11.11,9.02,10.31,0,21.13-8.43,21.13-17.16,0-5.86-4.96-9.13-11.11-9.13-9.63,0-21.13,8.14-21.13,17.27"/><path d="M1130.2,452.44c0,4.26,3.07,9.02,11.11,9.02,10.31,0,21.13-8.43,21.13-17.16,0-5.86-4.96-9.13-11.11-9.13-9.63,0-21.13,8.14-21.13,17.27"/><path d="M1182.05,452.44c0,4.26,3.07,9.02,11.11,9.02,10.31,0,21.13-8.43,21.13-17.16,0-5.86-4.96-9.13-11.11-9.13-9.63,0-21.13,8.14-21.13,17.27"/><path d="M1233.89,452.44c0,4.26,3.07,9.02,11.11,9.02,10.31,0,21.13-8.43,21.13-17.16,0-5.86-4.96-9.13-11.11-9.13-9.63,0-21.13,8.14-21.13,17.27"/><path d="M1287.2,440.04c0,4.26,3.07,9.02,11.11,9.02,10.31,0,21.13-8.43,21.13-17.16,0-5.86-4.96-9.13-11.11-9.13-9.63,0-21.13,8.14-21.13,17.27"/><path d="M1339.05,440.04c0,4.26,3.07,9.02,11.11,9.02,10.31,0,21.13-8.43,21.13-17.16,0-5.86-4.96-9.13-11.11-9.13-9.63,0-21.13,8.14-21.13,17.27"/><path d="M1390.89,440.04c0,4.26,3.07,9.02,11.11,9.02,10.31,0,21.13-8.43,21.13-17.16,0-5.86-4.96-9.13-11.11-9.13-9.63,0-21.13,8.14-21.13,17.27"/><path d="M1442.74,440.04c0,4.26,3.07,9.02,11.11,9.02,10.31,0,21.13-8.43,21.13-17.16,0-5.86-4.96-9.13-11.11-9.13-9.63,0-21.13,8.14-21.13,17.27"/><path d="M1494.58,427.64c0,4.26,3.07,9.02,11.11,9.02,10.31,0,21.13-8.43,21.13-17.16,0-5.86-4.96-9.13-11.11-9.13-9.63,0-21.13,8.14-21.13,17.27"/><path d="M1546.43,427.64c0,4.26,3.07,9.02,11.11,9.02,10.31,0,21.13-8.43,21.13-17.16,0-5.86-4.96-9.13-11.11-9.13-9.63,0-21.13,8.14-21.13,17.27"/><path d="M1598.27,427.64c0,4.26,3.07,9.02,11.11,9.02,10.31,0,21.13-8.43,21.13-17.16,0-5.86-4.96-9.13-11.11-9.13-9.63,0-21.13,8.14-21.13,17.27"/><path d="M1650.12,427.64c0,4.26,3.07,9.02,11.11,9.02,10.31,0,21.13-8.43,21.13-17.16,0-5.86-4.96-9.13-11.11-9.13-9.63,0-21.13,8.14-21.13,17.27"/><path d="M1701.96,452.44c0,4.26,3.07,9.02,11.11,9.02,10.31,0,21.13-8.43,21.13-17.16,0-5.86-4.96-9.13-11.11-9.13-9.63,0-21.13,8.14-21.13,17.27"/><path d="M1753.81,452.44c0,4.26,3.07,9.02,11.11,9.02,10.31,0,21.13-8.43,21.13-17.16,0-5.86-4.96-9.13-11.11-9.13-9.63,0-21.13,8.14-21.13,17.27"/><path d="M1805.65,452.44c0,4.26,3.07,9.02,11.11,9.02,10.31,0,21.13-8.43,21.13-17.16,0-5.86-4.96-9.13-11.11-9.13-9.63,0-21.13,8.14-21.13,17.27"/><path d="M1857.49,452.44c0,4.26,3.07,9.02,11.11,9.02,10.31,0,21.13-8.43,21.13-17.16,0-5.86-4.96-9.13-11.11-9.13-9.63,0-21.13,8.14-21.13,17.27"/><path d="M1963.63,477.24c0,4.26,3.07,9.02,11.11,9.02,10.31,0,21.13-8.43,21.13-17.16,0-5.86-4.96-9.13-11.11-9.13-9.63,0-21.13,8.14-21.13,17.27"/><path d="M2015.48,477.24c0,4.26,3.07,9.02,11.11,9.02,10.31,0,21.13-8.43,21.13-17.16,0-5.86-4.96-9.13-11.11-9.13-9.63,0-21.13,8.14-21.13,17.27"/><path d="M2067.32,477.24c0,4.26,3.07,9.02,11.11,9.02,10.31,0,21.13-8.43,21.13-17.16,0-5.86-4.96-9.13-11.11-9.13-9.63,0-21.13,8.14-21.13,17.27"/><path d="M2119.17,477.24c0,4.26,3.07,9.02,11.11,9.02,10.31,0,21.13-8.43,21.13-17.16,0-5.86-4.96-9.13-11.11-9.13-9.63,0-21.13,8.14-21.13,17.27"/><path d="M2171.01,464.84c0,4.26,3.07,9.02,11.11,9.02,10.31,0,21.13-8.43,21.13-17.16,0-5.86-4.96-9.13-11.11-9.13-9.63,0-21.13,8.14-21.13,17.27"/><path d="M2222.85,464.84c0,4.26,3.07,9.02,11.11,9.02,10.31,0,21.13-8.43,21.13-17.16,0-5.86-4.96-9.13-11.11-9.13-9.63,0-21.13,8.14-21.13,17.27"/><path d="M2274.7,464.84c0,4.26,3.07,9.02,11.11,9.02,10.31,0,21.13-8.43,21.13-17.16,0-5.86-4.96-9.13-11.11-9.13-9.63,0-21.13,8.14-21.13,17.27"/><path d="M2326.54,464.84c0,4.26,3.07,9.02,11.11,9.02,10.31,0,21.13-8.43,21.13-17.16,0-5.86-4.96-9.13-11.11-9.13-9.63,0-21.13,8.14-21.13,17.27"/><path d="M2378.39,452.44c0,4.26,3.07,9.02,11.11,9.02,10.31,0,21.13-8.43,21.13-17.16,0-5.86-4.96-9.13-11.11-9.13-9.63,0-21.13,8.14-21.13,17.27"/><path d="M2430.23,452.44c0,4.26,3.07,9.02,11.11,9.02,10.31,0,21.13-8.43,21.13-17.16,0-5.86-4.96-9.13-11.11-9.13-9.63,0-21.13,8.14-21.13,17.27"/><path d="M2482.08,452.44c0,4.26,3.07,9.02,11.11,9.02,10.31,0,21.13-8.43,21.13-17.16,0-5.86-4.96-9.13-11.11-9.13-9.63,0-21.13,8.14-21.13,17.27"/><path d="M2533.92,452.44c0,4.26,3.07,9.02,11.11,9.02,10.31,0,21.13-8.43,21.13-17.16,0-5.86-4.96-9.13-11.11-9.13-9.63,0-21.13,8.14-21.13,17.27"/><path d="M2585.77,477.24c0,4.26,3.07,9.02,11.11,9.02,10.31,0,21.13-8.43,21.13-17.16,0-5.86-4.96-9.13-11.11-9.13-9.63,0-21.13,8.14-21.13,17.27"/><path d="M2637.61,477.24c0,4.26,3.07,9.02,11.11,9.02,10.31,0,21.13-8.43,21.13-17.16,0-5.86-4.96-9.13-11.11-9.13-9.63,0-21.13,8.14-21.13,17.27"/><path d="M2689.46,477.24c0,4.26,3.07,9.02,11.11,9.02,10.31,0,21.13-8.43,21.13-17.16,0-5.86-4.96-9.13-11.11-9.13-9.63,0-21.13,8.14-21.13,17.27"/><path d="M2741.3,477.24c0,4.26,3.07,9.02,11.11,9.02,10.31,0,21.13-8.43,21.13-17.16,0-5.86-4.96-9.13-11.11-9.13-9.63,0-21.13,8.14-21.13,17.27"/><path d="M193.08,798.52c0,4.26,3.07,9.02,11.11,9.02,10.31,0,21.13-8.43,21.13-17.16,0-5.86-4.96-9.13-11.11-9.13-9.63,0-21.13,8.14-21.13,17.27"/><path d="M261.23,798.52c0,4.26,3.07,9.02,11.11,9.02,10.31,0,21.13-8.43,21.13-17.16,0-5.86-4.96-9.13-11.11-9.13-9.63,0-21.13,8.14-21.13,17.27"/><path d="M329.38,798.52c0,4.26,3.07,9.02,11.11,9.02,10.31,0,21.13-8.43,21.13-17.16,0-5.86-4.96-9.13-11.11-9.13-9.63,0-21.13,8.14-21.13,17.27"/><path d="M397.52,798.52c0,4.26,3.07,9.02,11.11,9.02,10.31,0,21.13-8.43,21.13-17.16,0-5.86-4.96-9.13-11.11-9.13-9.63,0-21.13,8.14-21.13,17.27"/><path d="M465.67,773.72c0,4.26,3.07,9.02,11.11,9.02,10.31,0,21.13-8.43,21.13-17.16,0-5.86-4.96-9.13-11.11-9.13-9.63,0-21.13,8.14-21.13,17.27"/><path d="M533.81,773.72c0,4.26,3.07,9.02,11.11,9.02,10.31,0,21.13-8.43,21.13-17.16,0-5.86-4.96-9.13-11.11-9.13-9.63,0-21.13,8.14-21.13,17.27"/><path d="M601.96,773.72c0,4.26,3.07,9.02,11.11,9.02,10.31,0,21.13-8.43,21.13-17.16,0-5.86-4.96-9.13-11.11-9.13-9.63,0-21.13,8.14-21.13,17.27"/><path d="M670.1,773.72c0,4.26,3.07,9.02,11.11,9.02,10.31,0,21.13-8.43,21.13-17.16,0-5.86-4.96-9.13-11.11-9.13-9.63,0-21.13,8.14-21.13,17.27"/><path d="M738.25,786.12c0,4.26,3.07,9.02,11.11,9.02,10.31,0,21.13-8.43,21.13-17.16,0-5.86-4.96-9.13-11.11-9.13-9.63,0-21.13,8.14-21.13,17.27"/><path d="M806.39,786.12c0,4.26,3.07,9.02,11.11,9.02,10.31,0,21.13-8.43,21.13-17.16,0-5.86-4.96-9.13-11.11-9.13-9.63,0-21.13,8.14-21.13,17.27"/><path d="M874.54,786.12c0,4.26,3.07,9.02,11.11,9.02,10.31,0,21.13-8.43,21.13-17.16,0-5.86-4.96-9.13-11.11-9.13-9.63,0-21.13,8.14-21.13,17.27"/><path d="M942.68,786.12c0,4.26,3.07,9.02,11.11,9.02,10.31,0,21.13-8.43,21.13-17.16,0-5.86-4.96-9.13-11.11-9.13-9.63,0-21.13,8.14-21.13,17.27"/><path d="M1010.83,798.52c0,4.26,3.07,9.02,11.11,9.02,10.31,0,21.13-8.43,21.13-17.16,0-5.86-4.96-9.13-11.11-9.13-9.63,0-21.13,8.14-21.13,17.27"/><path d="M1078.98,798.52c0,4.26,3.07,9.02,11.11,9.02,10.31,0,21.13-8.43,21.13-17.16,0-5.86-4.96-9.13-11.11-9.13-9.63,0-21.13,8.14-21.13,17.27"/><path d="M1147.12,798.52c0,4.26,3.07,9.02,11.11,9.02,10.31,0,21.13-8.43,21.13-17.16,0-5.86-4.96-9.13-11.11-9.13-9.63,0-21.13,8.14-21.13,17.27"/><path d="M1215.27,798.52c0,4.26,3.07,9.02,11.11,9.02,10.31,0,21.13-8.43,21.13-17.16,0-5.86-4.96-9.13-11.11-9.13-9.63,0-21.13,8.14-21.13,17.27"/><path d="M1321.4,786.12c0,4.26,3.07,9.02,11.11,9.02,10.31,0,21.13-8.43,21.13-17.16,0-5.86-4.96-9.13-11.11-9.13-9.63,0-21.13,8.14-21.13,17.27"/><path d="M1389.55,786.12c0,4.26,3.07,9.02,11.11,9.02,10.31,0,21.13-8.43,21.13-17.16,0-5.86-4.96-9.13-11.11-9.13-9.63,0-21.13,8.14-21.13,17.27"/><path d="M1457.69,786.12c0,4.26,3.07,9.02,11.11,9.02,10.31,0,21.13-8.43,21.13-17.16,0-5.86-4.96-9.13-11.11-9.13-9.63,0-21.13,8.14-21.13,17.27"/><path d="M1525.84,786.12c0,4.26,3.07,9.02,11.11,9.02,10.31,0,21.13-8.43,21.13-17.16,0-5.86-4.96-9.13-11.11-9.13-9.63,0-21.13,8.14-21.13,17.27"/><path d="M1593.99,761.32c0,4.26,3.07,9.02,11.11,9.02,10.31,0,21.13-8.43,21.13-17.16,0-5.86-4.96-9.13-11.11-9.13-9.63,0-21.13,8.14-21.13,17.27"/><path d="M1662.13,761.32c0,4.26,3.07,9.02,11.11,9.02,10.31,0,21.13-8.43,21.13-17.16,0-5.86-4.96-9.13-11.11-9.13-9.63,0-21.13,8.14-21.13,17.27"/><path d="M1730.28,761.32c0,4.26,3.07,9.02,11.11,9.02,10.31,0,21.13-8.43,21.13-17.16,0-5.86-4.96-9.13-11.11-9.13-9.63,0-21.13,8.14-21.13,17.27"/><path d="M1798.42,761.32c0,4.26,3.07,9.02,11.11,9.02,10.31,0,21.13-8.43,21.13-17.16,0-5.86-4.96-9.13-11.11-9.13-9.63,0-21.13,8.14-21.13,17.27"/><path d="M1866.57,773.72c0,4.26,3.07,9.02,11.11,9.02,10.31,0,21.13-8.43,21.13-17.16,0-5.86-4.96-9.13-11.11-9.13-9.63,0-21.13,8.14-21.13,17.27"/><path d="M1934.71,773.72c0,4.26,3.07,9.02,11.11,9.02,10.31,0,21.13-8.43,21.13-17.16,0-5.86-4.96-9.13-11.11-9.13-9.63,0-21.13,8.14-21.13,17.27"/><path d="M2002.86,773.72c0,4.26,3.07,9.02,11.11,9.02,10.31,0,21.13-8.43,21.13-17.16,0-5.86-4.96-9.13-11.11-9.13-9.63,0-21.13,8.14-21.13,17.27"/><path d="M2071.01,773.72c0,4.26,3.07,9.02,11.11,9.02,10.31,0,21.13-8.43,21.13-17.16,0-5.86-4.96-9.13-11.11-9.13-9.63,0-21.13,8.14-21.13,17.27"/><path d="M2139.15,786.12c0,4.26,3.07,9.02,11.11,9.02,10.31,0,21.13-8.43,21.13-17.16,0-5.86-4.96-9.13-11.11-9.13-9.63,0-21.13,8.14-21.13,17.27"/><path d="M2207.3,786.12c0,4.26,3.07,9.02,11.11,9.02,10.31,0,21.13-8.43,21.13-17.16,0-5.86-4.96-9.13-11.11-9.13-9.63,0-21.13,8.14-21.13,17.27"/><path d="M2275.44,786.12c0,4.26,3.07,9.02,11.11,9.02,10.31,0,21.13-8.43,21.13-17.16,0-5.86-4.96-9.13-11.11-9.13-9.63,0-21.13,8.14-21.13,17.27"/><path d="M2343.59,786.12c0,4.26,3.07,9.02,11.11,9.02,10.31,0,21.13-8.43,21.13-17.16,0-5.86-4.96-9.13-11.11-9.13-9.63,0-21.13,8.14-21.13,17.27"/><path d="M2468.28,780.87c-13.69,0-18.55,6.94-18.55,13.39s4.87,13.39,18.55,13.39,18.45-6.94,18.45-13.39-4.76-13.39-18.45-13.39m.79,23.61c-2.77,0-4.67-.79-5.95-3.27s-3.07-8.93-3.18-11.52c-.2-2.68,.79-4.26,3.18-5.05,1.19-.4,2.77-.6,4.37-.6,2.67,0,4.46,.6,5.84,3.29,1.39,2.57,3.29,9.02,3.29,11.5,0,4.87-3.58,5.66-7.55,5.66"/><path d="M30.8,177.88c0,6.56,4.96,15.19,18.35,15.19,4.67,0,8.74-1.19,12.31-3.38,5.36-3.77,6.74-10.32,6.74-16.57,0-3.86-.59-8.32-1.58-13.98-.29-1.98-.9-4.96-1.49-8.84,9.72-3.18,16.96-13.3,16.96-23.51,0-14.97-10.62-25.09-25.09-25.09-.99-5.95-1.98-11.81-2.77-17.36,10.42-11.02,17.65-23.42,17.65-39.18,0-9.04-2.77-16.37-4.37-19.95-2.37-5.05-5.25-8.53-7.04-8.53-.7,0-3.77,1.19-7.04,5.05-6.36,7.55-8.14,20.24-8.14,28.57,0,5.36,.5,10.23,2.19,21.34-.11,.09-5.27,5.35-7.35,7.04-9.04,8.34-21.53,20.43-21.53,40.28,0,18.54,16.17,33.12,34.63,33.12,2.87,0,5.55-.29,7.83-.7,1.89,9.53,3.08,16.48,3.08,21.73,0,10.32-5.36,15.78-15.38,15.78-2.39,0-4.46-.5-4.67-.5-.09-.11-.29-.2-.29-.29,0-.2,.2-.31,.5-.31,4.67-.79,9.32-4.76,9.32-11.1,0-5.36-4.06-11.02-11.5-11.02-6.94,0-11.31,5.66-11.31,12.2M51.54,45.44c.9-3.97,5.46-14.38,10.62-14.38,1.49,0,3.86,4.76,3.86,11.7,0,10.32-7.63,18.06-14.48,24.8-.59-3.97-1.08-7.83-1.08-12,0-3.67,.29-7.05,1.08-10.12m8.73,101.97c-1.98,.4-3.86,.6-5.75,.6-14.18,0-26.29-9.92-26.29-24.91,0-12.09,8.53-22.91,17.27-30.46,1.67-1.49,3.27-2.87,4.76-4.36,.88,5.35,1.58,10.01,2.28,14.09-9.04,2.68-15.17,12.2-15.17,21.53,0,6.94,5.46,16.46,13.39,16.46,.79,0,1.69-.4,1.69-1.29s-.99-1.39-2.19-2.19c-3.88-2.39-6.06-4.96-6.06-9.83,0-6.05,4.57-10.91,10.32-12.29l5.75,32.63m14.09-18.35c0,7.05-2.88,14.29-9.92,17.17-2.08-11.9-4.76-27.68-5.46-32.05,8.93,0,15.38,6.06,15.38,14.88"/><path d="M30.8,511.56c0,6.56,4.96,15.19,18.35,15.19,4.67,0,8.74-1.19,12.31-3.38,5.36-3.77,6.74-10.32,6.74-16.57,0-3.86-.59-8.32-1.58-13.98-.29-1.98-.9-4.96-1.49-8.84,9.72-3.18,16.96-13.3,16.96-23.51,0-14.97-10.62-25.09-25.09-25.09-.99-5.95-1.98-11.81-2.77-17.36,10.42-11.02,17.65-23.42,17.65-39.18,0-9.04-2.77-16.37-4.37-19.95-2.37-5.05-5.25-8.53-7.04-8.53-.7,0-3.77,1.19-7.04,5.05-6.36,7.55-8.14,20.24-8.14,28.57,0,5.36,.5,10.23,2.19,21.34-.11,.09-5.27,5.35-7.35,7.04-9.04,8.34-21.53,20.43-21.53,40.28,0,18.54,16.17,33.12,34.63,33.12,2.87,0,5.55-.29,7.83-.7,1.89,9.53,3.08,16.48,3.08,21.73,0,10.32-5.36,15.78-15.38,15.78-2.39,0-4.46-.5-4.67-.5-.09-.11-.29-.2-.29-.29,0-.2,.2-.31,.5-.31,4.67-.79,9.32-4.76,9.32-11.1,0-5.36-4.06-11.02-11.5-11.02-6.94,0-11.31,5.66-11.31,12.2m20.74-132.43c.9-3.97,5.46-14.38,10.62-14.38,1.49,0,3.86,4.76,3.86,11.7,0,10.32-7.63,18.06-14.48,24.8-.59-3.97-1.08-7.83-1.08-12,0-3.67,.29-7.05,1.08-10.12m8.73,101.97c-1.98,.4-3.86,.6-5.75,.6-14.18,0-26.29-9.92-26.29-24.91,0-12.09,8.53-22.91,17.27-30.46,1.67-1.49,3.27-2.87,4.76-4.36,.88,5.35,1.58,10.01,2.28,14.09-9.04,2.68-15.17,12.2-15.17,21.53,0,6.94,5.46,16.46,13.39,16.46,.79,0,1.69-.4,1.69-1.29s-.99-1.39-2.19-2.19c-3.88-2.39-6.06-4.96-6.06-9.83,0-6.05,4.57-10.91,10.32-12.29l5.75,32.63m14.09-18.35c0,7.05-2.88,14.29-9.92,17.17-2.08-11.9-4.76-27.68-5.46-32.05,8.93,0,15.38,6.06,15.38,14.88"/><path d="M30.8,845.24c0,6.56,4.96,15.19,18.35,15.19,4.67,0,8.74-1.19,12.31-3.38,5.36-3.77,6.74-10.32,6.74-16.57,0-3.86-.59-8.32-1.58-13.98-.29-1.98-.9-4.96-1.49-8.84,9.72-3.18,16.96-13.3,16.96-23.51,0-14.97-10.62-25.09-25.09-25.09-.99-5.95-1.98-11.81-2.77-17.36,10.42-11.02,17.65-23.42,17.65-39.18,0-9.04-2.77-16.37-4.37-19.95-2.37-5.05-5.25-8.53-7.04-8.53-.7,0-3.77,1.19-7.04,5.05-6.36,7.55-8.14,20.24-8.14,28.57,0,5.36,.5,10.23,2.19,21.34-.11,.09-5.27,5.35-7.35,7.04-9.04,8.34-21.53,20.43-21.53,40.28,0,18.54,16.17,33.12,34.63,33.12,2.87,0,5.55-.29,7.83-.7,1.89,9.53,3.08,16.48,3.08,21.73,0,10.32-5.36,15.78-15.38,15.78-2.39,0-4.46-.5-4.67-.5-.09-.11-.29-.2-.29-.29,0-.2,.2-.31,.5-.31,4.67-.79,9.32-4.76,9.32-11.1,0-5.36-4.06-11.02-11.5-11.02-6.94,0-11.31,5.66-11.31,12.2m20.74-132.43c.9-3.97,5.46-14.38,10.62-14.38,1.49,0,3.86,4.76,3.86,11.7,0,10.32-7.63,18.06-14.48,24.8-.59-3.97-1.08-7.83-1.08-12,0-3.67,.29-7.05,1.08-10.12m8.73,101.97c-1.98,.4-3.86,.6-5.75,.6-14.18,0-26.29-9.92-26.29-24.91,0-12.09,8.53-22.91,17.27-30.46,1.67-1.49,3.27-2.87,4.76-4.36,.88,5.35,1.58,10.01,2.28,14.09-9.04,2.68-15.17,12.2-15.17,21.53,0,6.94,5.46,16.46,13.39,16.46,.79,0,1.69-.4,1.69-1.29s-.99-1.39-2.19-2.19c-3.88-2.39-6.06-4.96-6.06-9.83,0-6.05,4.57-10.91,10.32-12.29l5.75,32.63m14.09-18.35c0,7.05-2.88,14.29-9.92,17.17-2.08-11.9-4.76-27.68-5.46-32.05,8.93,0,15.38,6.06,15.38,14.88"/><path d="M129.99,42.17c.6-.09,1.1-.79,1.1-1.4v-5.84c0-.99-.7-1.39-1.6-1.39l-3.27,.7v-14.79h-2.77v15.38l-8.83,1.8v-14h-2.77v14.59l-3.88,.79c-.59,.11-1.09,.79-1.09,1.39v5.75c0,1.09,.79,1.4,1.69,1.4l3.27-.7v16.37l-3.88,.79c-.59,.09-1.09,.79-1.09,1.4v5.75c0,1.09,.79,1.38,1.69,1.38l3.27-.68v14.77h2.77v-15.38l8.83-1.78v14h2.77v-14.59l3.77-.7c.6-.11,1.1-.79,1.1-1.39v-5.84c0-.99-.7-1.4-1.6-1.4l-3.27,.7v-16.37l3.77-.7m-15.38,3.07l8.83-1.78v16.37l-8.83,1.89v-16.48"/><path d="M129.99,375.85c.6-.09,1.1-.79,1.1-1.4v-5.84c0-.99-.7-1.39-1.6-1.39l-3.27,.7v-14.79h-2.77v15.38l-8.83,1.8v-14h-2.77v14.59l-3.88,.79c-.59,.11-1.09,.79-1.09,1.39v5.75c0,1.09,.79,1.4,1.69,1.4l3.27-.7v16.37l-3.88,.79c-.59,.09-1.09,.79-1.09,1.4v5.75c0,1.09,.79,1.38,1.69,1.38l3.27-.68v14.77h2.77v-15.38l8.83-1.78v14h2.77v-14.59l3.77-.7c.6-.11,1.1-.79,1.1-1.39v-5.84c0-.99-.7-1.4-1.6-1.4l-3.27,.7v-16.37l3.77-.7m-15.38,3.07l8.83-1.78v16.37l-8.83,1.89v-16.48"/><path d="M129.99,709.54c.6-.09,1.1-.79,1.1-1.4v-5.84c0-.99-.7-1.39-1.6-1.39l-3.27,.7v-14.79h-2.77v15.38l-8.83,1.8v-14h-2.77v14.59l-3.88,.79c-.59,.11-1.09,.79-1.09,1.39v5.75c0,1.09,.79,1.4,1.69,1.4l3.27-.7v16.37l-3.88,.79c-.59,.09-1.09,.79-1.09,1.4v5.75c0,1.09,.79,1.38,1.69,1.38l3.27-.68v14.77h2.77v-15.38l8.83-1.78v14h2.77v-14.59l3.77-.7c.6-.11,1.1-.79,1.1-1.39v-5.84c0-.99-.7-1.4-1.6-1.4l-3.27,.7v-16.37l3.77-.7m-15.38,3.07l8.83-1.78v16.37l-8.83,1.89v-16.48"/><path d="M2490.95,681.76c-9.32-10.12-17.56-10.71-22.71-10.71s-13.3,.59-22.63,10.71c-4.85,5.36-8.23,15.97-8.23,21.33,0,1.89,.4,3.18,1.4,3.18,2.77,0,1.38-8.54,9.72-16.97,7.33-7.33,17.16-7.44,19.55-7.44h.39c2.39,0,12.21,.11,19.55,7.44,8.34,8.43,6.94,16.97,9.72,16.97,.99,0,1.39-1.19,1.39-3.18,0-5.36-3.27-16.07-8.14-21.33m-29.56,18.94c0,3.78,3.07,6.85,6.85,6.85s6.84-3.07,6.84-6.85-3.07-6.84-6.84-6.84-6.85,3.07-6.85,6.84"/><path d="M616.31,8.55c-3.69,0-6.34,2.23-6.34,5.28,0,1.52,.88,2.77,2.42,3.58,.56,.28,1.25,.59,2.72,1.19,2,.81,2.5,1.3,2.5,2.51,0,1.89-1.58,3.08-4,3.08-1.78,0-3.05-.48-3.05-1.19,0-.17,.11-.38,.25-.52,.66-.7,.74-.88,.74-1.51,0-.97-.77-1.75-1.78-1.75-1.16,0-2.03,.98-2.03,2.34,0,2.45,2.17,3.97,5.7,3.97,4.03,0,6.8-2.22,6.8-5.39,0-1.41-.64-2.59-1.75-3.36-.78-.53-1.12-.67-3.05-1.38-2.28-.8-2.88-1.36-2.88-2.73,0-1.61,1.53-2.8,3.56-2.8,1.38,0,2.28,.39,2.28,.95,0,.14-.06,.31-.17,.48-.5,.7-.56,.88-.56,1.41,0,.94,.73,1.61,1.81,1.61,1.2,0,2-.88,2-2.14,0-2.14-2.12-3.64-5.17-3.64m14.91-8.55c-1.05,0-1.89,.84-1.89,1.89s.84,1.89,1.86,1.89c1.08,0,1.92-.83,1.92-1.89s-.84-1.89-1.89-1.89m.62,8.55l-6.72,.53-.14,1.25h.84c1.44,0,2,.33,2,1.09,0,.34-.08,.73-.31,1.53l-2.03,6.83c-.67,2.25-.78,2.73-.78,3.53,0,1.23,1.06,2.17,2.39,2.17,3,0,5.08-3.11,6.55-5.39l-1.09-.59c-1.81,2.77-3.28,4.23-4.24,4.23-.34,0-.59-.31-.59-.73,0-.34,.14-.97,.42-1.95l3.7-12.5m11.97,0l-6.36,.53-.11,1.25h.84c1.39,0,1.95,.33,1.95,1.12,0,.31-.11,.84-.28,1.5l-3.56,12.05h3.05l1.42-4.94c1.58-5.36,4.77-9.41,7.39-9.41,.91,0,1.47,.48,1.47,1.36,0,.7-.28,2.17-.7,3.5l-2.8,9.48h3.05l1.5-5.08c.88-2.91,1.75-4.86,2.88-6.38,1.26-1.75,3.05-2.89,4.38-2.89,.88,0,1.36,.45,1.36,1.28,0,.5-.17,1.27-.48,2.25l-1.61,4.97c-.94,2.73-.98,2.94-.98,3.92,0,1.47,1.09,2.45,2.73,2.45,1.16,0,2.28-.56,3.47-1.69,.73-.7,1.22-1.33,2.66-3.42l-1.08-.75c-1.83,2.73-3.12,4.06-4.03,4.06-.39,0-.73-.38-.73-.88,0-.31,.11-.69,.42-1.7l2.2-6.8c.25-.76,.42-1.86,.42-2.62,0-1.86-1.38-3.19-3.25-3.19-2.5,0-4.73,1.61-6.77,4.94,.14-.67,.22-1.26,.22-1.69,0-1.84-1.47-3.25-3.41-3.25-2.2,0-3.81,1.22-6.26,4.73l1.01-4.73m25.72,12.64c-1.19,0-2.17,.98-2.17,2.17s.99,2.17,2.14,2.17c1.25,0,2.2-.95,2.2-2.17s-.98-2.17-2.17-2.17"/><path d="M512.47,194.65c-2.03,3.3-2.91,4.2-4.06,4.2-.55,0-.88-.36-.88-.99,0-.45,.19-1.26,.53-2.48l6.23-21-6.97,.53-.14,1.25h1.08c1.44,0,2,.31,2,1.09,0,.34-.11,.8-.31,1.53l-2.31,7.78c-.62-1.83-2-2.84-4.02-2.84-5.05,0-9.73,5.39-9.73,11.2,0,3.44,2.2,5.78,5.48,5.78,2.39,0,4.14-.98,5.67-3.27-.03,.28-.03,.64-.03,.78,0,1.61,.84,2.48,2.38,2.48,2.22,0,4.14-1.72,6.12-5.44l-1.05-.62m-8.75-9.34c1.72,0,2.98,1.33,2.98,3.16,0,3.17-2.25,10.59-6.31,10.59-1.89,0-3.11-1.5-3.11-3.78,0-3.31,2.38-9.97,6.44-9.97m19.7-7.67c-.94,0-1.7,.78-1.7,1.72s.77,1.72,1.7,1.72,1.72-.76,1.72-1.72-.77-1.72-1.72-1.72m7.08,0c-.95,0-1.72,.78-1.72,1.72s.77,1.72,1.72,1.72,1.72-.76,1.72-1.72-.78-1.72-1.72-1.72m2.09,6.62h-3.05l-1.64,5.59c-1.44,4.88-4.66,8.86-7.14,8.86-.84,0-1.5-.67-1.5-1.5,0-.47,.09-1.02,.38-2l3.44-11.48-6.75,.53-.11,1.25h.84c1.42,0,1.95,.33,1.95,1.12,0,.34-.11,.84-.28,1.5l-1.39,4.73q-1.09,3.5-1.09,4.58c0,1.92,1.33,3.22,3.33,3.22,2.45,0,4.44-1.42,6.52-4.66-.36,1.23-.42,1.72-.42,2.39,0,1.36,.94,2.31,2.23,2.31,2.14,0,3.86-1.44,6.34-5.25l-1.06-.64c-1.7,2.56-3.08,3.95-3.84,3.95-.31,0-.62-.38-.62-.83,0-.39,.14-1.06,.41-2.08l3.47-11.61"/><path d="M458.32,185.06c.56-.49,.88-.66,1.3-.66,.34,0,.62,.17,.91,.55,.56,.78,.77,.92,1.33,.92,.81,0,1.41-.67,1.41-1.55,0-1.01-.98-1.81-2.2-1.81s-2.17,.45-4,1.89c-1.08-.5-1.89-.67-3.02-.67-3.88,0-7.17,2.76-7.17,5.98,0,1.69,.67,2.84,2.17,3.64-1.61,.22-2.34,.45-3.16,1.16-.69,.56-1.14,1.5-1.14,2.34,0,1.19,.55,1.92,1.92,2.59-2.06,.45-4.48,1.33-4.48,3.89,0,3.5,4.62,3.92,7.17,3.92,3.47,0,5.47-.42,7.19-1.55,1.5-.98,2.38-2.48,2.38-4.12,0-3.55-3.75-3.97-6.44-4.14-3.12-.17-3.36-.2-3.86-.31-.88-.2-1.3-.62-1.3-1.22,0-.84,.84-1.41,2.11-1.41,.45,0,.97,.03,1.44,.11,1.42,.2,1.64,.24,2.52,.24,1.95,0,3.5-.49,4.72-1.47,1.41-1.08,2.28-2.83,2.28-4.44s-.7-2.91-2.06-3.89m-4.03,0c1.83,0,2.98,1.09,2.98,2.8,0,2.53-1.16,5.72-4.14,5.72-1.89,0-3.08-1.2-3.08-3.16,0-3.16,1.72-5.36,4.23-5.36m-4.27,15.01c1.58,0,4.09,.36,4.89,.67,.88,.38,1.3,.99,1.3,1.86,0,2.06-2.2,3.17-6.22,3.17-3.41,0-4.98-.83-4.98-2.69s1.83-3.02,5.02-3.02m22.56-22.44c-.94,0-1.7,.78-1.7,1.72s.77,1.72,1.7,1.72,1.72-.76,1.72-1.72-.77-1.72-1.72-1.72m7.08,0c-.95,0-1.72,.78-1.72,1.72s.77,1.72,1.72,1.72,1.72-.76,1.72-1.72-.78-1.72-1.72-1.72m2.09,6.62h-3.05l-1.64,5.59c-1.44,4.88-4.66,8.86-7.14,8.86-.84,0-1.5-.67-1.5-1.5,0-.47,.09-1.02,.38-2l3.44-11.48-6.75,.53-.11,1.25h.84c1.42,0,1.95,.33,1.95,1.12,0,.34-.11,.84-.28,1.5l-1.39,4.73q-1.09,3.5-1.09,4.58c0,1.92,1.33,3.22,3.33,3.22,2.45,0,4.44-1.42,6.52-4.66-.36,1.23-.42,1.72-.42,2.39,0,1.36,.94,2.31,2.23,2.31,2.14,0,3.86-1.44,6.34-5.25l-1.06-.64c-1.7,2.56-3.08,3.95-3.84,3.95-.31,0-.62-.38-.62-.83,0-.39,.14-1.06,.41-2.08l3.47-11.61"/><path d="M408.78,194.65c-2.03,3.3-2.91,4.2-4.06,4.2-.55,0-.88-.36-.88-.99,0-.45,.19-1.26,.53-2.48l6.23-21-6.97,.53-.14,1.25h1.08c1.44,0,2,.31,2,1.09,0,.34-.11,.8-.31,1.53l-2.31,7.78c-.62-1.83-2-2.84-4.01-2.84-5.05,0-9.74,5.39-9.74,11.2,0,3.44,2.2,5.78,5.49,5.78,2.39,0,4.14-.98,5.67-3.27-.03,.28-.03,.64-.03,.78,0,1.61,.84,2.48,2.38,2.48,2.22,0,4.14-1.72,6.12-5.44l-1.05-.62m-8.75-9.34c1.72,0,2.99,1.33,2.99,3.16,0,3.17-2.25,10.59-6.31,10.59-1.89,0-3.11-1.5-3.11-3.78,0-3.31,2.38-9.97,6.44-9.97m19.7-7.67c-.94,0-1.7,.78-1.7,1.72s.77,1.72,1.7,1.72,1.72-.76,1.72-1.72-.76-1.72-1.72-1.72m7.08,0c-.95,0-1.72,.78-1.72,1.72s.77,1.72,1.72,1.72,1.72-.76,1.72-1.72-.78-1.72-1.72-1.72m2.09,6.62h-3.05l-1.64,5.59c-1.44,4.88-4.66,8.86-7.14,8.86-.84,0-1.5-.67-1.5-1.5,0-.47,.09-1.02,.38-2l3.44-11.48-6.75,.53-.11,1.25h.84c1.42,0,1.95,.33,1.95,1.12,0,.34-.11,.84-.28,1.5l-1.39,4.73q-1.09,3.5-1.09,4.58c0,1.92,1.33,3.22,3.33,3.22,2.45,0,4.44-1.42,6.51-4.66-.36,1.23-.42,1.72-.42,2.39,0,1.36,.94,2.31,2.23,2.31,2.14,0,3.86-1.44,6.34-5.25l-1.06-.64c-1.7,2.56-3.08,3.95-3.84,3.95-.31,0-.62-.38-.62-.83,0-.39,.14-1.06,.41-2.08l3.47-11.61"/><path d="M354.63,185.06c.56-.49,.88-.66,1.3-.66,.34,0,.62,.17,.91,.55,.56,.78,.77,.92,1.33,.92,.81,0,1.41-.67,1.41-1.55,0-1.01-.98-1.81-2.2-1.81s-2.17,.45-4,1.89c-1.08-.5-1.89-.67-3.02-.67-3.88,0-7.17,2.76-7.17,5.98,0,1.69,.67,2.84,2.17,3.64-1.61,.22-2.34,.45-3.16,1.16-.69,.56-1.14,1.5-1.14,2.34,0,1.19,.55,1.92,1.92,2.59-2.06,.45-4.48,1.33-4.48,3.89,0,3.5,4.62,3.92,7.17,3.92,3.47,0,5.47-.42,7.19-1.55,1.5-.98,2.38-2.48,2.38-4.12,0-3.55-3.75-3.97-6.44-4.14-3.12-.17-3.36-.2-3.86-.31-.88-.2-1.3-.62-1.3-1.22,0-.84,.84-1.41,2.11-1.41,.45,0,.97,.03,1.44,.11,1.42,.2,1.64,.24,2.52,.24,1.95,0,3.5-.49,4.72-1.47,1.41-1.08,2.28-2.83,2.28-4.44s-.7-2.91-2.06-3.89m-4.03,0c1.83,0,2.98,1.09,2.98,2.8,0,2.53-1.16,5.72-4.14,5.72-1.89,0-3.08-1.2-3.08-3.16,0-3.16,1.72-5.36,4.23-5.36m-4.27,15.01c1.58,0,4.09,.36,4.89,.67,.88,.38,1.3,.99,1.3,1.86,0,2.06-2.2,3.17-6.22,3.17-3.41,0-4.98-.83-4.98-2.69s1.83-3.02,5.02-3.02m22.56-22.44c-.94,0-1.7,.78-1.7,1.72s.77,1.72,1.7,1.72,1.72-.76,1.72-1.72-.77-1.72-1.72-1.72m7.08,0c-.95,0-1.72,.78-1.72,1.72s.77,1.72,1.72,1.72,1.72-.76,1.72-1.72-.78-1.72-1.72-1.72m2.09,6.62h-3.05l-1.64,5.59c-1.44,4.88-4.66,8.86-7.14,8.86-.84,0-1.5-.67-1.5-1.5,0-.47,.09-1.02,.38-2l3.44-11.48-6.75,.53-.11,1.25h.84c1.42,0,1.95,.33,1.95,1.12,0,.34-.11,.84-.28,1.5l-1.39,4.73q-1.09,3.5-1.09,4.58c0,1.92,1.33,3.22,3.33,3.22,2.45,0,4.44-1.42,6.52-4.66-.36,1.23-.42,1.72-.42,2.39,0,1.36,.94,2.31,2.23,2.31,2.14,0,3.86-1.44,6.34-5.25l-1.06-.64c-1.7,2.56-3.08,3.95-3.84,3.95-.31,0-.62-.38-.62-.83,0-.39,.14-1.06,.41-2.08l3.47-11.61"/><path d="M305.09,194.65c-2.03,3.3-2.91,4.2-4.06,4.2-.55,0-.88-.36-.88-.99,0-.45,.19-1.26,.53-2.48l6.23-21-6.97,.53-.14,1.25h1.08c1.44,0,2,.31,2,1.09,0,.34-.11,.8-.31,1.53l-2.31,7.78c-.62-1.83-2-2.84-4.02-2.84-5.05,0-9.73,5.39-9.73,11.2,0,3.44,2.2,5.78,5.48,5.78,2.39,0,4.14-.98,5.67-3.27-.03,.28-.03,.64-.03,.78,0,1.61,.84,2.48,2.38,2.48,2.22,0,4.14-1.72,6.12-5.44l-1.05-.62m-8.75-9.34c1.72,0,2.98,1.33,2.98,3.16,0,3.17-2.25,10.59-6.31,10.59-1.89,0-3.11-1.5-3.11-3.78,0-3.31,2.38-9.97,6.44-9.97m19.7-7.67c-.94,0-1.7,.78-1.7,1.72s.77,1.72,1.7,1.72,1.72-.76,1.72-1.72-.77-1.72-1.72-1.72m7.08,0c-.95,0-1.72,.78-1.72,1.72s.77,1.72,1.72,1.72,1.72-.76,1.72-1.72-.78-1.72-1.72-1.72m2.09,6.62h-3.05l-1.64,5.59c-1.44,4.88-4.66,8.86-7.14,8.86-.84,0-1.5-.67-1.5-1.5,0-.47,.09-1.02,.38-2l3.44-11.48-6.75,.53-.11,1.25h.84c1.42,0,1.95,.33,1.95,1.12,0,.34-.11,.84-.28,1.5l-1.39,4.73q-1.09,3.5-1.09,4.58c0,1.92,1.33,3.22,3.33,3.22,2.45,0,4.44-1.42,6.52-4.66-.36,1.23-.42,1.72-.42,2.39,0,1.36,.94,2.31,2.23,2.31,2.14,0,3.86-1.44,6.34-5.25l-1.06-.64c-1.7,2.56-3.08,3.95-3.84,3.95-.31,0-.62-.38-.62-.83,0-.39,.14-1.06,.41-2.08l3.47-11.61"/><path d="M250.94,185.06c.56-.49,.88-.66,1.3-.66,.34,0,.62,.17,.91,.55,.56,.78,.76,.92,1.33,.92,.81,0,1.41-.67,1.41-1.55,0-1.01-.98-1.81-2.2-1.81s-2.17,.45-4,1.89c-1.08-.5-1.89-.67-3.02-.67-3.88,0-7.17,2.76-7.17,5.98,0,1.69,.67,2.84,2.17,3.64-1.61,.22-2.34,.45-3.16,1.16-.69,.56-1.14,1.5-1.14,2.34,0,1.19,.55,1.92,1.92,2.59-2.06,.45-4.48,1.33-4.48,3.89,0,3.5,4.62,3.92,7.17,3.92,3.47,0,5.47-.42,7.19-1.55,1.5-.98,2.38-2.48,2.38-4.12,0-3.55-3.75-3.97-6.44-4.14-3.12-.17-3.36-.2-3.86-.31-.88-.2-1.3-.62-1.3-1.22,0-.84,.84-1.41,2.11-1.41,.45,0,.97,.03,1.44,.11,1.42,.2,1.64,.24,2.51,.24,1.95,0,3.5-.49,4.72-1.47,1.41-1.08,2.28-2.83,2.28-4.44s-.7-2.91-2.06-3.89m-4.03,0c1.83,0,2.99,1.09,2.99,2.8,0,2.53-1.16,5.72-4.14,5.72-1.89,0-3.08-1.2-3.08-3.16,0-3.16,1.72-5.36,4.23-5.36m-4.26,15.01c1.58,0,4.09,.36,4.89,.67,.88,.38,1.3,.99,1.3,1.86,0,2.06-2.2,3.17-6.22,3.17-3.41,0-4.99-.83-4.99-2.69s1.83-3.02,5.02-3.02m22.56-22.44c-.94,0-1.7,.78-1.7,1.72s.77,1.72,1.7,1.72,1.72-.76,1.72-1.72-.77-1.72-1.72-1.72m7.08,0c-.95,0-1.72,.78-1.72,1.72s.76,1.72,1.72,1.72,1.72-.76,1.72-1.72-.78-1.72-1.72-1.72m2.09,6.62h-3.05l-1.64,5.59c-1.44,4.88-4.66,8.86-7.14,8.86-.84,0-1.5-.67-1.5-1.5,0-.47,.09-1.02,.38-2l3.44-11.48-6.75,.53-.11,1.25h.84c1.42,0,1.95,.33,1.95,1.12,0,.34-.11,.84-.28,1.5l-1.39,4.73q-1.09,3.5-1.09,4.58c0,1.92,1.33,3.22,3.33,3.22,2.45,0,4.44-1.42,6.51-4.66-.36,1.23-.42,1.72-.42,2.39,0,1.36,.94,2.31,2.24,2.31,2.14,0,3.86-1.44,6.34-5.25l-1.06-.64c-1.7,2.56-3.08,3.95-3.84,3.95-.31,0-.62-.38-.62-.83,0-.39,.14-1.06,.41-2.08l3.47-11.61"/><path d="M201.4,194.65c-2.03,3.3-2.91,4.2-4.06,4.2-.55,0-.88-.36-.88-.99,0-.45,.19-1.26,.53-2.48l6.23-21-6.97,.53-.14,1.25h1.08c1.44,0,2,.31,2,1.09,0,.34-.11,.8-.31,1.53l-2.31,7.78c-.62-1.83-2-2.84-4.02-2.84-5.05,0-9.73,5.39-9.73,11.2,0,3.44,2.2,5.78,5.48,5.78,2.39,0,4.14-.98,5.67-3.27-.03,.28-.03,.64-.03,.78,0,1.61,.84,2.48,2.38,2.48,2.22,0,4.14-1.72,6.12-5.44l-1.05-.62m-8.75-9.34c1.72,0,2.98,1.33,2.98,3.16,0,3.17-2.25,10.59-6.31,10.59-1.89,0-3.11-1.5-3.11-3.78,0-3.31,2.38-9.97,6.44-9.97m19.7-7.67c-.94,0-1.7,.78-1.7,1.72s.77,1.72,1.7,1.72,1.72-.76,1.72-1.72-.77-1.72-1.72-1.72m7.08,0c-.95,0-1.72,.78-1.72,1.72s.77,1.72,1.72,1.72,1.72-.76,1.72-1.72-.78-1.72-1.72-1.72m2.09,6.62h-3.05l-1.64,5.59c-1.44,4.88-4.66,8.86-7.14,8.86-.84,0-1.5-.67-1.5-1.5,0-.47,.09-1.02,.38-2l3.44-11.48-6.75,.53-.11,1.25h.84c1.42,0,1.95,.33,1.95,1.12,0,.34-.11,.84-.28,1.5l-1.39,4.73q-1.09,3.5-1.09,4.58c0,1.92,1.33,3.22,3.33,3.22,2.45,0,4.44-1.42,6.52-4.66-.36,1.23-.42,1.72-.42,2.39,0,1.36,.94,2.31,2.23,2.31,2.14,0,3.86-1.44,6.34-5.25l-1.06-.64c-1.7,2.56-3.08,3.95-3.84,3.95-.31,0-.62-.38-.62-.83,0-.39,.14-1.06,.41-2.08l3.47-11.61"/><path d="M562.01,185.06c.56-.49,.88-.66,1.3-.66,.34,0,.62,.17,.91,.55,.56,.78,.77,.92,1.33,.92,.81,0,1.41-.67,1.41-1.55,0-1.01-.98-1.81-2.2-1.81s-2.17,.45-4,1.89c-1.08-.5-1.89-.67-3.01-.67-3.88,0-7.17,2.76-7.17,5.98,0,1.69,.67,2.84,2.17,3.64-1.61,.22-2.34,.45-3.16,1.16-.69,.56-1.14,1.5-1.14,2.34,0,1.19,.55,1.92,1.92,2.59-2.06,.45-4.49,1.33-4.49,3.89,0,3.5,4.62,3.92,7.17,3.92,3.47,0,5.47-.42,7.19-1.55,1.5-.98,2.38-2.48,2.38-4.12,0-3.55-3.75-3.97-6.44-4.14-3.12-.17-3.36-.2-3.86-.31-.88-.2-1.3-.62-1.3-1.22,0-.84,.84-1.41,2.11-1.41,.45,0,.97,.03,1.44,.11,1.42,.2,1.64,.24,2.51,.24,1.95,0,3.5-.49,4.72-1.47,1.41-1.08,2.28-2.83,2.28-4.44s-.7-2.91-2.06-3.89m-4.03,0c1.83,0,2.98,1.09,2.98,2.8,0,2.53-1.16,5.72-4.14,5.72-1.89,0-3.08-1.2-3.08-3.16,0-3.16,1.72-5.36,4.24-5.36m-4.27,15.01c1.58,0,4.09,.36,4.89,.67,.88,.38,1.3,.99,1.3,1.86,0,2.06-2.2,3.17-6.22,3.17-3.41,0-4.99-.83-4.99-2.69s1.83-3.02,5.02-3.02m22.56-22.44c-.94,0-1.7,.78-1.7,1.72s.77,1.72,1.7,1.72,1.72-.76,1.72-1.72-.76-1.72-1.72-1.72m7.08,0c-.95,0-1.72,.78-1.72,1.72s.77,1.72,1.72,1.72,1.72-.76,1.72-1.72-.78-1.72-1.72-1.72m2.09,6.62h-3.05l-1.64,5.59c-1.44,4.88-4.66,8.86-7.14,8.86-.84,0-1.5-.67-1.5-1.5,0-.47,.09-1.02,.38-2l3.44-11.48-6.75,.53-.11,1.25h.84c1.42,0,1.95,.33,1.95,1.12,0,.34-.11,.84-.28,1.5l-1.39,4.73q-1.09,3.5-1.09,4.58c0,1.92,1.33,3.22,3.33,3.22,2.45,0,4.44-1.42,6.51-4.66-.36,1.23-.42,1.72-.42,2.39,0,1.36,.94,2.31,2.23,2.31,2.14,0,3.86-1.44,6.34-5.25l-1.06-.64c-1.7,2.56-3.08,3.95-3.84,3.95-.31,0-.62-.38-.62-.83,0-.39,.14-1.06,.41-2.08l3.47-11.61"/><path d="M1866.57,837.75h206.92v12.4h-206.92v-12.4" fill-rule="evenodd"/><path d="M1866.57,819.15h206.92v12.4h-206.92v-12.4" fill-rule="evenodd"/><path d="M1593.99,831.55h206.91v12.4h-206.91v-12.4" fill-rule="evenodd"/><path d="M1593.99,812.95h206.91v12.4h-206.91v-12.4" fill-rule="evenodd"/><path d="M1351.16,695.15h206.91v12.4h-206.91v-12.4" fill-rule="evenodd"/><path d="M1351.16,713.75h206.91v12.4h-206.91v-12.4" fill-rule="evenodd"/><path d="M1040.58,713.75h206.92v12.4h-206.92v-12.4" fill-rule="evenodd"/><path d="M1040.58,732.35h206.92v12.4h-206.92v-12.4" fill-rule="evenodd"/><path d="M768,695.15h206.92v12.4h-206.92v-12.4" fill-rule="evenodd"/><path d="M768,713.75h206.92v12.4h-206.92v-12.4" fill-rule="evenodd"/><path d="M465.67,837.75h206.92v12.4h-206.92v-12.4" fill-rule="evenodd"/><path d="M465.67,819.15h206.92v12.4h-206.92v-12.4" fill-rule="evenodd"/><path d="M222.84,713.75h206.92v12.4H222.84v-12.4" fill-rule="evenodd"/><path d="M222.84,732.35h206.92v12.4H222.84v-12.4" fill-rule="evenodd"/><path d="M2615.52,386.27h158.01v12.4h-158.01v-12.4" fill-rule="evenodd"/><path d="M2615.52,404.87h158.01v12.4h-158.01v-12.4" fill-rule="evenodd"/><path d="M2408.14,361.47h158.02v12.4h-158.02v-12.4" fill-rule="evenodd"/><path d="M2408.14,380.07h158.02v12.4h-158.02v-12.4" fill-rule="evenodd"/><path d="M2200.76,380.07h158.02v12.4h-158.02v-12.4" fill-rule="evenodd"/><path d="M2200.76,398.67h158.02v12.4h-158.02v-12.4" fill-rule="evenodd"/><path d="M1993.38,386.27h158.02v12.4h-158.02v-12.4" fill-rule="evenodd"/><path d="M1993.38,404.87h158.02v12.4h-158.02v-12.4" fill-rule="evenodd"/><path d="M1731.71,361.47h158.02v12.4h-158.02v-12.4" fill-rule="evenodd"/><path d="M1731.71,380.07h158.02v12.4h-158.02v-12.4" fill-rule="evenodd"/><path d="M1494.58,497.87h158.02v12.4h-158.02v-12.4" fill-rule="evenodd"/><path d="M1494.58,479.27h158.02v12.4h-158.02v-12.4" fill-rule="evenodd"/><path d="M1287.2,504.07h158.02v12.4h-158.02v-12.4" fill-rule="evenodd"/><path d="M1287.2,485.47h158.02v12.4h-158.02v-12.4" fill-rule="evenodd"/><path d="M1108.11,361.47h158.01v12.4h-158.01v-12.4" fill-rule="evenodd"/><path d="M1108.11,380.07h158.01v12.4h-158.01v-12.4" fill-rule="evenodd"/><path d="M846.44,380.07h158.01v12.4h-158.01v-12.4" fill-rule="evenodd"/><path d="M846.44,398.67h158.01v12.4h-158.01v-12.4" fill-rule="evenodd"/><path d="M609.31,170.39h158.02v12.4h-158.02v-12.4" fill-rule="evenodd"/><path d="M609.31,151.79h158.02v12.4h-158.02v-12.4" fill-rule="evenodd"/><path d="M2168.9,695.15h206.92v12.4h-206.92v-12.4" fill-rule="evenodd"/><path d="M2168.9,713.75h206.92v12.4h-206.92v-12.4" fill-rule="evenodd"/><path d="M1494.58,164.19h158.02v12.4h-158.02v-12.4" fill-rule="evenodd"/><path d="M1494.58,145.59h158.02v12.4h-158.02v-12.4" fill-rule="evenodd"/><path d="M2171.01,164.19h158.01v12.4h-158.01v-12.4" fill-rule="evenodd"/><path d="M2171.01,145.59h158.01v12.4h-158.01v-12.4" fill-rule="evenodd"/><path d="M430.21,27.79h158.01v12.4h-158.01v-12.4" fill-rule="evenodd"/><path d="M430.21,46.39h158.01v12.4h-158.01v-12.4" fill-rule="evenodd"/><path d="M2378.39,145.59h158.01v12.4h-158.01v-12.4" fill-rule="evenodd"/><path d="M2378.39,126.99h158.01v12.4h-158.01v-12.4" fill-rule="evenodd"/><path d="M1287.2,170.39h158.02v12.4h-158.02v-12.4" fill-rule="evenodd"/><path d="M1287.2,151.79h158.02v12.4h-158.02v-12.4" fill-rule="evenodd"/><path d="M2585.77,170.39h158.01v12.4h-158.01v-12.4" fill-rule="evenodd"/><path d="M2585.77,151.79h158.01v12.4h-158.01v-12.4" fill-rule="evenodd"/><path d="M1731.71,27.79h158.02v12.4h-158.02v-12.4" fill-rule="evenodd"/><path d="M1731.71,46.39h158.02v12.4h-158.02v-12.4" fill-rule="evenodd"/><path d="M1108.11,27.79h158.01v12.4h-158.01v-12.4" fill-rule="evenodd"/><path d="M1108.11,46.39h158.01v12.4h-158.01v-12.4" fill-rule="evenodd"/><path d="M222.84,380.07h158.01v12.4H222.84v-12.4" fill-rule="evenodd"/><path d="M222.84,398.67h158.01v12.4H222.84v-12.4" fill-rule="evenodd"/><path d="M846.44,46.39h158.01v12.4h-158.01v-12.4" fill-rule="evenodd"/><path d="M846.44,64.99h158.01v12.4h-158.01v-12.4" fill-rule="evenodd"/><path d="M222.84,46.39h158.01v12.4H222.84v-12.4" fill-rule="evenodd"/><path d="M222.84,64.99h158.01v12.4H222.84v-12.4" fill-rule="evenodd"/><path d="M430.21,361.47h158.01v12.4h-158.01v-12.4" fill-rule="evenodd"/><path d="M430.21,380.07h158.01v12.4h-158.01v-12.4" fill-rule="evenodd"/><path d="M1963.63,170.39h158.02v12.4h-158.02v-12.4" fill-rule="evenodd"/><path d="M1963.63,151.79h158.02v12.4h-158.02v-12.4" fill-rule="evenodd"/><path d="M609.31,504.07h158.02v12.4h-158.02v-12.4" fill-rule="evenodd"/><path d="M609.31,485.47h158.02v12.4h-158.02v-12.4" fill-rule="evenodd"/></g></svg>