<?xml version="1.0" encoding="UTF-8"?><svg id="b" xmlns="http://www.w3.org/2000/svg" viewBox="0 0 2275.2 340.66"><g id="c"><line y1="119.82" x2="2275.2" y2="119.82" fill="none" stroke="#000" stroke-linejoin="bevel" stroke-width="2.73"/><line y1="144.62" x2="2275.2" y2="144.62" fill="none" stroke="#000" stroke-linejoin="bevel" stroke-width="2.73"/><line y1="169.42" x2="2275.2" y2="169.42" fill="none" stroke="#000" stroke-linejoin="bevel" stroke-width="2.73"/><line y1="194.22" x2="2275.2" y2="194.22" fill="none" stroke="#000" stroke-linejoin="bevel" stroke-width="2.73"/><line y1="219.02" x2="2275.2" y2="219.02" fill="none" stroke="#000" stroke-linejoin="bevel" stroke-width="2.73"/><path d="M160.2,204.14c211.82,120.71,1318.68,175.43,1549.52,86.8-231.28,96.55-1338.14,41.83-1549.52-86.8" fill-rule="evenodd" stroke="#000" stroke-linecap="round" stroke-linejoin="round" stroke-width="1.24"/><line x1="1857.92" y1="118.46" x2="1857.92" y2="220.38" fill="none" stroke="#000" stroke-linejoin="bevel" stroke-width="4.46"/><line x1="1010.78" y1="118.46" x2="1010.78" y2="220.38" fill="none" stroke="#000" stroke-linejoin="bevel" stroke-width="4.46"/><line x1="2259.33" y1="118.46" x2="2259.33" y2="220.38" fill="none" stroke="#000" stroke-linejoin="bevel" stroke-width="4.46"/><line x1="2272.97" y1="118.46" x2="2272.97" y2="220.38" fill="none" stroke="#000" stroke-linejoin="bevel" stroke-width="4.46"/><path d="M1146.02,146.6c.6-.09,1.1-.79,1.1-1.4v-5.84c0-.99-.7-1.39-1.6-1.39l-3.27,.7v-14.79h-2.77v15.38l-8.83,1.8v-14h-2.77v14.59l-3.88,.79c-.59,.11-1.09,.79-1.09,1.39v5.75c0,1.09,.79,1.4,1.69,1.4l3.27-.7v16.37l-3.88,.79c-.59,.09-1.09,.79-1.09,1.4v5.75c0,1.09,.79,1.38,1.69,1.38l3.27-.68v14.77h2.77v-15.38l8.83-1.78v14h2.77v-14.59l3.77-.7c.6-.11,1.1-.79,1.1-1.39v-5.84c0-.99-.7-1.4-1.6-1.4l-3.27,.7v-16.37l3.77-.7m-15.38,3.07l8.83-1.78v16.37l-8.83,1.89v-16.48"/><path d="M460.96,146.6c.6-.09,1.1-.79,1.1-1.4v-5.84c0-.99-.7-1.39-1.6-1.39l-3.27,.7v-14.79h-2.77v15.38l-8.83,1.8v-14h-2.77v14.59l-3.88,.79c-.59,.11-1.09,.79-1.09,1.39v5.75c0,1.09,.79,1.4,1.69,1.4l3.27-.7v16.37l-3.88,.79c-.59,.09-1.09,.79-1.09,1.4v5.75c0,1.09,.79,1.38,1.69,1.38l3.27-.68v14.77h2.77v-15.38l8.83-1.78v14h2.77v-14.59l3.77-.7c.6-.11,1.1-.79,1.1-1.39v-5.84c0-.99-.7-1.4-1.6-1.4l-3.27,.7v-16.37l3.77-.7m-15.38,3.07l8.83-1.78v16.37l-8.83,1.89v-16.48"/><line x1="784.25" y1="243.82" x2="832.85" y2="243.82" fill="none" stroke="#000" stroke-linejoin="bevel" stroke-width="3.97"/><line x1="784.25" y1="268.62" x2="832.85" y2="268.62" fill="none" stroke="#000" stroke-linejoin="bevel" stroke-width="3.97"/><line x1="1685.42" y1="243.82" x2="1734.02" y2="243.82" fill="none" stroke="#000" stroke-linejoin="bevel" stroke-width="3.97"/><line x1="1685.42" y1="268.62" x2="1734.02" y2="268.62" fill="none" stroke="#000" stroke-linejoin="bevel" stroke-width="3.97"/><line x1="1370.67" y1="161.19" x2="1370.67" y2="237.67" fill="none" stroke="#000" stroke-linejoin="bevel" stroke-width="2.48"/><line x1="1262.61" y1="136.39" x2="1262.61" y2="241.77" fill="none" stroke="#000" stroke-linejoin="bevel" stroke-width="2.48"/><line x1="499.25" y1="153.05" x2="499.25" y2="88.87" fill="none" stroke="#000" stroke-linejoin="bevel" stroke-width="2.48"/><line x1="1154.55" y1="161.19" x2="1154.55" y2="245.87" fill="none" stroke="#000" stroke-linejoin="bevel" stroke-width="2.48"/><line x1="607.31" y1="177.85" x2="607.31" y2="113.67" fill="none" stroke="#000" stroke-linejoin="bevel" stroke-width="2.48"/><line x1="1046.49" y1="185.99" x2="1046.49" y2="249.97" fill="none" stroke="#000" stroke-linejoin="bevel" stroke-width="2.48"/><line x1="1616.54" y1="215.05" x2="1616.54" y2="125.88" fill="none" stroke="#000" stroke-linejoin="bevel" stroke-width="2.48"/><line x1="931.48" y1="215.05" x2="931.48" y2="125.97" fill="none" stroke="#000" stroke-linejoin="bevel" stroke-width="2.48"/><line x1="1508.48" y1="177.85" x2="1508.48" y2="113.76" fill="none" stroke="#000" stroke-linejoin="bevel" stroke-width="2.48"/><line x1="715.37" y1="215.05" x2="715.37" y2="117.77" fill="none" stroke="#000" stroke-linejoin="bevel" stroke-width="2.48"/><line x1="175.07" y1="177.85" x2="175.07" y2="101.17" fill="none" stroke="#000" stroke-linejoin="bevel" stroke-width="2.48"/><line x1="1724.6" y1="264.65" x2="1724.6" y2="169.42" fill="none" stroke="#000" stroke-linejoin="bevel" stroke-width="2.48"/><line x1="283.13" y1="215.05" x2="283.13" y2="97.07" fill="none" stroke="#000" stroke-linejoin="bevel" stroke-width="2.48"/><line x1="391.19" y1="177.85" x2="391.19" y2="92.97" fill="none" stroke="#000" stroke-linejoin="bevel" stroke-width="2.48"/><line x1="823.42" y1="264.65" x2="823.42" y2="121.87" fill="none" stroke="#000" stroke-linejoin="bevel" stroke-width="2.48"/><path d="M1693.6,272.79c0,4.26,3.07,9.02,11.11,9.02,10.31,0,21.13-8.43,21.13-17.16,0-5.86-4.96-9.13-11.11-9.13-9.63,0-21.13,8.14-21.13,17.27"/><path d="M144.08,185.99c0,4.26,3.07,9.02,11.11,9.02,10.31,0,21.13-8.43,21.13-17.16,0-5.86-4.96-9.13-11.11-9.13-9.63,0-21.13,8.14-21.13,17.27"/><path d="M252.14,223.19c0,4.26,3.07,9.02,11.11,9.02,10.31,0,21.13-8.43,21.13-17.16,0-5.86-4.96-9.13-11.11-9.13-9.63,0-21.13,8.14-21.13,17.27"/><path d="M360.2,185.99c0,4.26,3.07,9.02,11.11,9.02,10.31,0,21.13-8.43,21.13-17.16,0-5.86-4.96-9.13-11.11-9.13-9.63,0-21.13,8.14-21.13,17.27"/><path d="M468.26,161.19c0,4.26,3.07,9.02,11.11,9.02,10.31,0,21.13-8.43,21.13-17.16,0-5.86-4.96-9.13-11.11-9.13-9.63,0-21.13,8.14-21.13,17.27"/><path d="M576.32,185.99c0,4.26,3.07,9.02,11.11,9.02,10.31,0,21.13-8.43,21.13-17.16,0-5.86-4.96-9.13-11.11-9.13-9.63,0-21.13,8.14-21.13,17.27"/><path d="M684.37,223.19c0,4.26,3.07,9.02,11.11,9.02,10.31,0,21.13-8.43,21.13-17.16,0-5.86-4.96-9.13-11.11-9.13-9.63,0-21.13,8.14-21.13,17.27"/><path d="M792.43,272.79c0,4.26,3.07,9.02,11.11,9.02,10.31,0,21.13-8.43,21.13-17.16,0-5.86-4.96-9.13-11.11-9.13-9.63,0-21.13,8.14-21.13,17.27"/><path d="M900.49,223.19c0,4.26,3.07,9.02,11.11,9.02,10.31,0,21.13-8.43,21.13-17.16,0-5.86-4.96-9.13-11.11-9.13-9.63,0-21.13,8.14-21.13,17.27"/><path d="M1045.25,185.99c0,4.26,3.07,9.02,11.11,9.02,10.31,0,21.13-8.43,21.13-17.16,0-5.86-4.96-9.13-11.11-9.13-9.63,0-21.13,8.14-21.13,17.27"/><path d="M1153.31,161.19c0,4.26,3.07,9.02,11.11,9.02,10.31,0,21.13-8.43,21.13-17.16,0-5.86-4.96-9.13-11.11-9.13-9.63,0-21.13,8.14-21.13,17.27"/><path d="M1261.37,136.39c0,4.26,3.07,9.02,11.11,9.02,10.31,0,21.13-8.43,21.13-17.16,0-5.86-4.96-9.13-11.11-9.13-9.63,0-21.13,8.14-21.13,17.27"/><path d="M1369.43,161.19c0,4.26,3.07,9.02,11.11,9.02,10.31,0,21.13-8.43,21.13-17.16,0-5.86-4.96-9.13-11.11-9.13-9.63,0-21.13,8.14-21.13,17.27"/><path d="M1477.49,185.99c0,4.26,3.07,9.02,11.11,9.02,10.31,0,21.13-8.43,21.13-17.16,0-5.86-4.96-9.13-11.11-9.13-9.63,0-21.13,8.14-21.13,17.27"/><path d="M1585.55,223.19c0,4.26,3.07,9.02,11.11,9.02,10.31,0,21.13-8.43,21.13-17.16,0-5.86-4.96-9.13-11.11-9.13-9.63,0-21.13,8.14-21.13,17.27"/><path d="M30.8,245.11c0,6.56,4.96,15.19,18.35,15.19,4.67,0,8.74-1.19,12.31-3.38,5.36-3.77,6.74-10.32,6.74-16.57,0-3.86-.59-8.32-1.58-13.98-.29-1.98-.9-4.96-1.49-8.84,9.72-3.18,16.96-13.3,16.96-23.51,0-14.97-10.62-25.09-25.09-25.09-.99-5.95-1.98-11.81-2.77-17.36,10.42-11.02,17.65-23.42,17.65-39.18,0-9.04-2.77-16.37-4.37-19.95-2.37-5.05-5.25-8.53-7.04-8.53-.7,0-3.77,1.19-7.04,5.05-6.36,7.55-8.14,20.24-8.14,28.57,0,5.36,.5,10.23,2.19,21.34-.11,.09-5.27,5.35-7.35,7.04-9.04,8.34-21.53,20.43-21.53,40.28,0,18.54,16.17,33.12,34.63,33.12,2.87,0,5.55-.29,7.83-.7,1.89,9.53,3.08,16.48,3.08,21.73,0,10.32-5.36,15.78-15.38,15.78-2.39,0-4.46-.5-4.67-.5-.09-.11-.29-.2-.29-.29,0-.2,.2-.31,.5-.31,4.67-.79,9.32-4.76,9.32-11.1,0-5.36-4.06-11.02-11.5-11.02-6.94,0-11.31,5.66-11.31,12.2M51.54,112.67c.9-3.97,5.46-14.38,10.62-14.38,1.49,0,3.86,4.76,3.86,11.7,0,10.32-7.63,18.06-14.48,24.8-.59-3.97-1.08-7.83-1.08-12,0-3.67,.29-7.05,1.08-10.12m8.73,101.97c-1.98,.4-3.86,.6-5.75,.6-14.18,0-26.29-9.92-26.29-24.91,0-12.09,8.53-22.91,17.27-30.46,1.67-1.49,3.27-2.87,4.76-4.36,.88,5.35,1.58,10.01,2.28,14.09-9.04,2.68-15.17,12.2-15.17,21.53,0,6.94,5.46,16.46,13.39,16.46,.79,0,1.69-.4,1.69-1.29s-.99-1.39-2.19-2.19c-3.88-2.39-6.06-4.96-6.06-9.83,0-6.05,4.57-10.91,10.32-12.29l5.75,32.63m14.09-18.35c0,7.05-2.88,14.29-9.92,17.17-2.08-11.9-4.76-27.68-5.46-32.05,8.93,0,15.38,6.06,15.38,14.88"/><path d="M2043.91,144.12c-.81,0-1.4,.59-1.4,1.4v10.71c0,.79,.59,1.38,1.4,1.38h29.47c.79,0,1.38-.59,1.38-1.38v-10.71c0-.81-.59-1.4-1.38-1.4h-29.47"/><path d="M1516.33,71.67c-9.32-10.12-17.56-10.71-22.71-10.71s-13.3,.59-22.63,10.71c-4.85,5.36-8.23,15.97-8.23,21.33,0,1.89,.4,3.18,1.4,3.18,2.77,0,1.38-8.54,9.72-16.97,7.33-7.33,17.16-7.44,19.55-7.44h.39c2.39,0,12.21,.11,19.55,7.44,8.34,8.43,6.94,16.97,9.72,16.97,.99,0,1.39-1.19,1.39-3.18,0-5.36-3.27-16.07-8.14-21.33m-29.56,18.94c0,3.78,3.07,6.85,6.85,6.85s6.84-3.07,6.84-6.85-3.07-6.84-6.84-6.84-6.85,3.07-6.85,6.84"/><path d="M615.16,71.71c-9.32-10.12-17.56-10.71-22.71-10.71s-13.3,.59-22.63,10.71c-4.85,5.36-8.23,15.97-8.23,21.33,0,1.89,.4,3.18,1.4,3.18,2.77,0,1.38-8.54,9.72-16.97,7.33-7.33,17.16-7.44,19.55-7.44h.39c2.39,0,12.21,.11,19.55,7.44,8.34,8.43,6.94,16.97,9.72,16.97,.99,0,1.39-1.19,1.39-3.18,0-5.36-3.27-16.07-8.14-21.33m-29.56,18.94c0,3.78,3.07,6.85,6.85,6.85s6.84-3.07,6.84-6.85-3.07-6.84-6.84-6.84-6.85,3.07-6.85,6.84"/><path d="M1732.45,81.63c-9.32-10.12-17.56-10.71-22.71-10.71s-13.3,.59-22.63,10.71c-4.85,5.36-8.23,15.97-8.23,21.33,0,1.89,.4,3.18,1.4,3.18,2.77,0,1.38-8.54,9.72-16.97,7.33-7.33,17.16-7.44,19.55-7.44h.39c2.39,0,12.21,.11,19.55,7.44,8.34,8.43,6.94,16.97,9.72,16.97,.99,0,1.39-1.19,1.39-3.18,0-5.36-3.27-16.07-8.14-21.33m-29.56,18.94c0,3.78,3.07,6.85,6.85,6.85s6.84-3.07,6.84-6.85-3.07-6.84-6.84-6.84-6.85,3.07-6.85,6.84"/><path d="M182.92,58.42c-9.32-10.12-17.56-10.71-22.71-10.71s-13.3,.59-22.63,10.71c-4.85,5.36-8.23,15.97-8.23,21.33,0,1.89,.4,3.18,1.4,3.18,2.77,0,1.38-8.54,9.72-16.97,7.33-7.33,17.16-7.44,19.55-7.44h.39c2.39,0,12.21,.11,19.55,7.44,8.34,8.43,6.94,16.97,9.72,16.97,.99,0,1.39-1.19,1.39-3.18,0-5.36-3.27-16.07-8.14-21.33m-29.56,18.94c0,3.78,3.07,6.85,6.85,6.85s6.84-3.07,6.84-6.85-3.07-6.84-6.84-6.84-6.85,3.07-6.85,6.84"/><path d="M173.83,95.02l326.66-12.4v12.4l-326.66,12.4v-12.4" fill-rule="evenodd"/><path d="M1507.24,107.38l110.54,12.4v12.48l-110.54-12.4v-12.48" fill-rule="evenodd"/><path d="M1045.25,243.82l326.66-12.4v12.4l-326.66,12.4v-12.4" fill-rule="evenodd"/><path d="M606.07,107.42l326.65,12.4v12.4l-326.65-12.4v-12.4" fill-rule="evenodd"/><path d="M155.18,0c-1.69,2.05-6.3,3.6-10.89,3.71v2.14h4.39c2.91,.06,3.2,.36,3.11,3.15V29.05c0,2.56,0,2.66-.3,3.11-.41,.5-1.36,.7-4.16,.7h-3.25v2.35h19.8v-2.35h-2.75c-2.8,0-3.75-.2-4.14-.7-.36-.45-.36-.5-.36-3.11V8.41c0-2.81,.11-5.16,.36-8.41h-1.81m37.16,24.41h-2.2l-.5,2.55c-.64,3.25-1.05,3.54-4.14,3.54h-11.2c3.45-3.59,4.59-4.64,7.8-7.14,4.55-3.5,6.5-5.25,7.66-6.75,1.59-2.2,2.39-4.4,2.39-6.86,0-5.7-4.7-9.75-11.25-9.75s-11.2,4.05-11.2,9.41c0,3.14,1.61,5.3,3.95,5.3,1.86,0,3.11-1.25,3.11-3.05,0-1.25-.7-2.41-1.75-2.86-1.86-.75-1.95-.84-1.95-1.5,0-.75,.5-1.89,1.2-2.75,1.25-1.55,3.3-2.39,5.64-2.39,4.16,0,6.61,2.55,6.61,6.75,0,3.7-1.75,7.05-5.91,11.45-3.7,3.89-6,6.35-6.84,7.3-1.81,2.09-2.7,3.25-4.91,6.14v1.41h22.55l.95-10.8"/></g></svg>