<?xml version="1.0" encoding="UTF-8"?><svg id="b" xmlns="http://www.w3.org/2000/svg" viewBox="0 0 2455.2 333.21"><g id="c"><line y1="120.31" x2="2455.2" y2="120.31" fill="none" stroke="#000" stroke-linejoin="bevel" stroke-width="2.73"/><line y1="145.11" x2="2455.2" y2="145.11" fill="none" stroke="#000" stroke-linejoin="bevel" stroke-width="2.73"/><line y1="169.91" x2="2455.2" y2="169.91" fill="none" stroke="#000" stroke-linejoin="bevel" stroke-width="2.73"/><line y1="194.71" x2="2455.2" y2="194.71" fill="none" stroke="#000" stroke-linejoin="bevel" stroke-width="2.73"/><line y1="219.51" x2="2455.2" y2="219.51" fill="none" stroke="#000" stroke-linejoin="bevel" stroke-width="2.73"/><path d="M160.2,243.37c220.58,80.75,1782.37,107.7,2064.1,60.97-282.06,54.65-1843.86,27.71-2064.1-60.97" fill-rule="evenodd" stroke="#000" stroke-linecap="round" stroke-linejoin="round" stroke-width="1.24"/><line x1="1329.84" y1="118.95" x2="1329.84" y2="220.87" fill="none" stroke="#000" stroke-linejoin="bevel" stroke-width="4.46"/><line x1="2439.33" y1="118.95" x2="2439.33" y2="220.87" fill="none" stroke="#000" stroke-linejoin="bevel" stroke-width="4.46"/><line x1="2452.97" y1="118.95" x2="2452.97" y2="220.87" fill="none" stroke="#000" stroke-linejoin="bevel" stroke-width="4.46"/><line x1="719.72" y1="118.95" x2="719.72" y2="220.87" fill="none" stroke="#000" stroke-linejoin="bevel" stroke-width="4.46"/><line x1="1953.35" y1="118.95" x2="1953.35" y2="220.87" fill="none" stroke="#000" stroke-linejoin="bevel" stroke-width="4.46"/><path d="M561.15,233.89c.6-.09,1.1-.79,1.1-1.4v-5.84c0-.99-.7-1.39-1.6-1.39l-3.27,.7v-14.79h-2.77v15.38l-8.83,1.8v-14h-2.77v14.59l-3.88,.79c-.59,.11-1.09,.79-1.09,1.39v5.75c0,1.09,.79,1.4,1.69,1.4l3.27-.7v16.37l-3.88,.79c-.59,.09-1.09,.79-1.09,1.4v5.75c0,1.09,.79,1.38,1.69,1.38l3.27-.68v14.77h2.77v-15.38l8.83-1.78v14h2.77v-14.59l3.77-.7c.6-.11,1.1-.79,1.1-1.39v-5.84c0-.99-.7-1.4-1.6-1.4l-3.27,.7v-16.37l3.77-.7m-15.38,3.07l8.83-1.78v16.37l-8.83,1.89v-16.48"/><path d="M818.22,147.09c.6-.09,1.1-.79,1.1-1.4v-5.84c0-.99-.7-1.39-1.6-1.39l-3.27,.7v-14.79h-2.77v15.38l-8.83,1.8v-14h-2.77v14.59l-3.88,.79c-.59,.11-1.09,.79-1.09,1.39v5.75c0,1.09,.79,1.4,1.69,1.4l3.27-.7v16.37l-3.88,.79c-.59,.09-1.09,.79-1.09,1.4v5.75c0,1.09,.79,1.38,1.69,1.38l3.27-.68v14.77h2.77v-15.38l8.83-1.78v14h2.77v-14.59l3.77-.7c.6-.11,1.1-.79,1.1-1.39v-5.84c0-.99-.7-1.4-1.6-1.4l-3.27,.7v-16.37l3.77-.7m-15.38,3.07l8.83-1.78v16.37l-8.83,1.89v-16.48"/><path d="M1591.66,147.09c.6-.09,1.1-.79,1.1-1.4v-5.84c0-.99-.7-1.39-1.6-1.39l-3.27,.7v-14.79h-2.77v15.38l-8.83,1.8v-14h-2.77v14.59l-3.88,.79c-.59,.11-1.09,.79-1.09,1.39v5.75c0,1.09,.79,1.4,1.69,1.4l3.27-.7v16.37l-3.88,.79c-.59,.09-1.09,.79-1.09,1.4v5.75c0,1.09,.79,1.38,1.69,1.38l3.27-.68v14.77h2.77v-15.38l8.83-1.78v14h2.77v-14.59l3.77-.7c.6-.11,1.1-.79,1.1-1.39v-5.84c0-.99-.7-1.4-1.6-1.4l-3.27,.7v-16.37l3.77-.7m-15.38,3.07l8.83-1.78v16.37l-8.83,1.89v-16.48"/><path d="M1171.26,233.89c.6-.09,1.1-.79,1.1-1.4v-5.84c0-.99-.7-1.39-1.6-1.39l-3.27,.7v-14.79h-2.77v15.38l-8.83,1.8v-14h-2.77v14.59l-3.88,.79c-.59,.11-1.09,.79-1.09,1.39v5.75c0,1.09,.79,1.4,1.69,1.4l3.27-.7v16.37l-3.88,.79c-.59,.09-1.09,.79-1.09,1.4v5.75c0,1.09,.79,1.38,1.69,1.38l3.27-.68v14.77h2.77v-15.38l8.83-1.78v14h2.77v-14.59l3.77-.7c.6-.11,1.1-.79,1.1-1.39v-5.84c0-.99-.7-1.4-1.6-1.4l-3.27,.7v-16.37l3.77-.7m-15.38,3.07l8.83-1.78v16.37l-8.83,1.89v-16.48"/><path d="M348.97,147.09c.6-.09,1.1-.79,1.1-1.4v-5.84c0-.99-.7-1.39-1.6-1.39l-3.27,.7v-14.79h-2.77v15.38l-8.83,1.8v-14h-2.77v14.59l-3.88,.79c-.59,.11-1.09,.79-1.09,1.39v5.75c0,1.09,.79,1.4,1.69,1.4l3.27-.7v16.37l-3.88,.79c-.59,.09-1.09,.79-1.09,1.4v5.75c0,1.09,.79,1.38,1.69,1.38l3.27-.68v14.77h2.77v-15.38l8.83-1.78v14h2.77v-14.59l3.77-.7c.6-.11,1.1-.79,1.1-1.39v-5.84c0-.99-.7-1.4-1.6-1.4l-3.27,.7v-16.37l3.77-.7m-15.38,3.07l8.83-1.78v16.37l-8.83,1.89v-16.48"/><path d="M1371.3,233.89c.6-.09,1.1-.79,1.1-1.4v-5.84c0-.99-.7-1.39-1.6-1.39l-3.27,.7v-14.79h-2.77v15.38l-8.83,1.8v-14h-2.77v14.59l-3.88,.79c-.59,.11-1.09,.79-1.09,1.39v5.75c0,1.09,.79,1.4,1.69,1.4l3.27-.7v16.37l-3.88,.79c-.59,.09-1.09,.79-1.09,1.4v5.75c0,1.09,.79,1.38,1.69,1.38l3.27-.68v14.77h2.77v-15.38l8.83-1.78v14h2.77v-14.59l3.77-.7c.6-.11,1.1-.79,1.1-1.39v-5.84c0-.99-.7-1.4-1.6-1.4l-3.27,.7v-16.37l3.77-.7m-15.38,3.07l8.83-1.78v16.37l-8.83,1.89v-16.48"/><path d="M2122.28,233.89c.6-.09,1.1-.79,1.1-1.4v-5.84c0-.99-.7-1.39-1.6-1.39l-3.27,.7v-14.79h-2.77v15.38l-8.83,1.8v-14h-2.77v14.59l-3.88,.79c-.59,.11-1.09,.79-1.09,1.39v5.75c0,1.09,.79,1.4,1.69,1.4l3.27-.7v16.37l-3.88,.79c-.59,.09-1.09,.79-1.09,1.4v5.75c0,1.09,.79,1.38,1.69,1.38l3.27-.68v14.77h2.77v-15.38l8.83-1.78v14h2.77v-14.59l3.77-.7c.6-.11,1.1-.79,1.1-1.39v-5.84c0-.99-.7-1.4-1.6-1.4l-3.27,.7v-16.37l3.77-.7m-15.38,3.07l8.83-1.78v16.37l-8.83,1.89v-16.48"/><line x1="2200" y1="244.31" x2="2248.6" y2="244.31" fill="none" stroke="#000" stroke-linejoin="bevel" stroke-width="3.97"/><line x1="1248.99" y1="269.11" x2="1297.59" y2="269.11" fill="none" stroke="#000" stroke-linejoin="bevel" stroke-width="3.97"/><line x1="2129.57" y1="244.31" x2="2178.17" y2="244.31" fill="none" stroke="#000" stroke-linejoin="bevel" stroke-width="3.97"/><line x1="1248.99" y1="244.31" x2="1297.59" y2="244.31" fill="none" stroke="#000" stroke-linejoin="bevel" stroke-width="3.97"/><line x1="1378.59" y1="244.31" x2="1427.19" y2="244.31" fill="none" stroke="#000" stroke-linejoin="bevel" stroke-width="3.97"/><line x1="1178.56" y1="244.31" x2="1227.16" y2="244.31" fill="none" stroke="#000" stroke-linejoin="bevel" stroke-width="3.97"/><line x1="568.44" y1="244.31" x2="617.04" y2="244.31" fill="none" stroke="#000" stroke-linejoin="bevel" stroke-width="3.97"/><line x1="2200" y1="269.11" x2="2248.6" y2="269.11" fill="none" stroke="#000" stroke-linejoin="bevel" stroke-width="3.97"/><line x1="1488.2" y1="215.54" x2="1488.2" y2="101.7" fill="none" stroke="#000" stroke-linejoin="bevel" stroke-width="2.48"/><line x1="175.07" y1="178.34" x2="175.07" y2="101.64" fill="none" stroke="#000" stroke-linejoin="bevel" stroke-width="2.48"/><line x1="245.51" y1="215.54" x2="245.51" y2="97.57" fill="none" stroke="#000" stroke-linejoin="bevel" stroke-width="2.48"/><line x1="315.94" y1="178.34" x2="315.94" y2="93.5" fill="none" stroke="#000" stroke-linejoin="bevel" stroke-width="2.48"/><line x1="387.25" y1="153.54" x2="387.25" y2="89.38" fill="none" stroke="#000" stroke-linejoin="bevel" stroke-width="2.48"/><line x1="457.69" y1="178.34" x2="457.69" y2="114.18" fill="none" stroke="#000" stroke-linejoin="bevel" stroke-width="2.48"/><line x1="528.12" y1="215.54" x2="528.12" y2="118.1" fill="none" stroke="#000" stroke-linejoin="bevel" stroke-width="2.48"/><line x1="607.62" y1="240.34" x2="607.62" y2="122.52" fill="none" stroke="#000" stroke-linejoin="bevel" stroke-width="2.48"/><line x1="678.05" y1="215.54" x2="678.05" y2="126.44" fill="none" stroke="#000" stroke-linejoin="bevel" stroke-width="2.48"/><line x1="755.44" y1="186.48" x2="755.44" y2="250.44" fill="none" stroke="#000" stroke-linejoin="bevel" stroke-width="2.48"/><line x1="826.75" y1="161.68" x2="826.75" y2="246.32" fill="none" stroke="#000" stroke-linejoin="bevel" stroke-width="2.48"/><line x1="897.18" y1="136.88" x2="897.18" y2="242.25" fill="none" stroke="#000" stroke-linejoin="bevel" stroke-width="2.48"/><line x1="967.61" y1="161.68" x2="967.61" y2="238.18" fill="none" stroke="#000" stroke-linejoin="bevel" stroke-width="2.48"/><line x1="1067.8" y1="178.34" x2="1067.8" y2="114.18" fill="none" stroke="#000" stroke-linejoin="bevel" stroke-width="2.48"/><line x1="1138.23" y1="215.54" x2="1138.23" y2="118.1" fill="none" stroke="#000" stroke-linejoin="bevel" stroke-width="2.48"/><line x1="1217.73" y1="240.34" x2="1217.73" y2="122.52" fill="none" stroke="#000" stroke-linejoin="bevel" stroke-width="2.48"/><line x1="1288.16" y1="265.14" x2="1288.16" y2="126.44" fill="none" stroke="#000" stroke-linejoin="bevel" stroke-width="2.48"/><line x1="1417.77" y1="240.34" x2="1417.77" y2="107.8" fill="none" stroke="#000" stroke-linejoin="bevel" stroke-width="2.48"/><line x1="1558.63" y1="178.34" x2="1558.63" y2="95.6" fill="none" stroke="#000" stroke-linejoin="bevel" stroke-width="2.48"/><line x1="1629.95" y1="153.54" x2="1629.95" y2="89.42" fill="none" stroke="#000" stroke-linejoin="bevel" stroke-width="2.48"/><line x1="1670.63" y1="136.88" x2="1670.63" y2="213.38" fill="none" stroke="#000" stroke-linejoin="bevel" stroke-width="2.48"/><line x1="1741.06" y1="112.08" x2="1741.06" y2="217.47" fill="none" stroke="#000" stroke-linejoin="bevel" stroke-width="2.48"/><line x1="1811.49" y1="136.88" x2="1811.49" y2="221.55" fill="none" stroke="#000" stroke-linejoin="bevel" stroke-width="2.48"/><line x1="1881.93" y1="161.68" x2="1881.93" y2="225.64" fill="none" stroke="#000" stroke-linejoin="bevel" stroke-width="2.48"/><line x1="2018.82" y1="178.34" x2="2018.82" y2="114.21" fill="none" stroke="#000" stroke-linejoin="bevel" stroke-width="2.48"/><line x1="2089.25" y1="215.54" x2="2089.25" y2="119.94" fill="none" stroke="#000" stroke-linejoin="bevel" stroke-width="2.48"/><line x1="2168.75" y1="240.34" x2="2168.75" y2="126.41" fill="none" stroke="#000" stroke-linejoin="bevel" stroke-width="2.48"/><line x1="2239.18" y1="265.14" x2="2239.18" y2="169.91" fill="none" stroke="#000" stroke-linejoin="bevel" stroke-width="2.48"/><path d="M426.69,186.48c0,4.26,3.07,9.02,11.11,9.02,10.31,0,21.13-8.43,21.13-17.16,0-5.86-4.96-9.13-11.11-9.13-9.63,0-21.13,8.14-21.13,17.27"/><path d="M1987.82,186.48c0,4.26,3.07,9.02,11.11,9.02,10.31,0,21.13-8.43,21.13-17.16,0-5.86-4.96-9.13-11.11-9.13-9.63,0-21.13,8.14-21.13,17.27"/><path d="M895.94,136.88c0,4.26,3.07,9.02,11.11,9.02,10.31,0,21.13-8.43,21.13-17.16,0-5.86-4.96-9.13-11.11-9.13-9.63,0-21.13,8.14-21.13,17.27"/><path d="M647.06,223.68c0,4.26,3.07,9.02,11.11,9.02,10.31,0,21.13-8.43,21.13-17.16,0-5.86-4.96-9.13-11.11-9.13-9.63,0-21.13,8.14-21.13,17.27"/><path d="M754.2,186.48c0,4.26,3.07,9.02,11.11,9.02,10.31,0,21.13-8.43,21.13-17.16,0-5.86-4.96-9.13-11.11-9.13-9.63,0-21.13,8.14-21.13,17.27"/><path d="M1527.64,186.48c0,4.26,3.07,9.02,11.11,9.02,10.31,0,21.13-8.43,21.13-17.16,0-5.86-4.96-9.13-11.11-9.13-9.63,0-21.13,8.14-21.13,17.27"/><path d="M356.26,161.68c0,4.26,3.07,9.02,11.11,9.02,10.31,0,21.13-8.43,21.13-17.16,0-5.86-4.96-9.13-11.11-9.13-9.63,0-21.13,8.14-21.13,17.27"/><path d="M1810.25,136.88c0,4.26,3.07,9.02,11.11,9.02,10.31,0,21.13-8.43,21.13-17.16,0-5.86-4.96-9.13-11.11-9.13-9.63,0-21.13,8.14-21.13,17.27"/><path d="M284.95,186.48c0,4.26,3.07,9.02,11.11,9.02,10.31,0,21.13-8.43,21.13-17.16,0-5.86-4.96-9.13-11.11-9.13-9.63,0-21.13,8.14-21.13,17.27"/><path d="M1257.17,273.28c0,4.26,3.07,9.02,11.11,9.02,10.31,0,21.13-8.43,21.13-17.16,0-5.86-4.96-9.13-11.11-9.13-9.63,0-21.13,8.14-21.13,17.27"/><path d="M214.51,223.68c0,4.26,3.07,9.02,11.11,9.02,10.31,0,21.13-8.43,21.13-17.16,0-5.86-4.96-9.13-11.11-9.13-9.63,0-21.13,8.14-21.13,17.27"/><path d="M2137.76,248.48c0,4.26,3.07,9.02,11.11,9.02,10.31,0,21.13-8.43,21.13-17.16,0-5.86-4.96-9.13-11.11-9.13-9.63,0-21.13,8.14-21.13,17.27"/><path d="M1457.21,223.68c0,4.26,3.07,9.02,11.11,9.02,10.31,0,21.13-8.43,21.13-17.16,0-5.86-4.96-9.13-11.11-9.13-9.63,0-21.13,8.14-21.13,17.27"/><path d="M1386.78,248.48c0,4.26,3.07,9.02,11.11,9.02,10.31,0,21.13-8.43,21.13-17.16,0-5.86-4.96-9.13-11.11-9.13-9.63,0-21.13,8.14-21.13,17.27"/><path d="M1186.74,248.48c0,4.26,3.07,9.02,11.11,9.02,10.31,0,21.13-8.43,21.13-17.16,0-5.86-4.96-9.13-11.11-9.13-9.63,0-21.13,8.14-21.13,17.27"/><path d="M144.08,186.48c0,4.26,3.07,9.02,11.11,9.02,10.31,0,21.13-8.43,21.13-17.16,0-5.86-4.96-9.13-11.11-9.13-9.63,0-21.13,8.14-21.13,17.27"/><path d="M1107.24,223.68c0,4.26,3.07,9.02,11.11,9.02,10.31,0,21.13-8.43,21.13-17.16,0-5.86-4.96-9.13-11.11-9.13-9.63,0-21.13,8.14-21.13,17.27"/><path d="M2229.32,256.01c-9.63,0-21.13,8.04-21.13,17.27,0,4.26,3.07,9.02,11.11,9.02,10.31,0,21.13-8.43,21.13-17.16,0-5.86-4.96-9.13-11.11-9.13m-13.69,21.62c-3.27,0-3.97-2.67-3.97-3.57,0-4.87,16.66-13.39,21.33-13.39,2.39,0,3.97,1.4,3.97,3.57,0,4.96-16.77,13.39-21.33,13.39"/><path d="M825.51,161.68c0,4.26,3.07,9.02,11.11,9.02,10.31,0,21.13-8.43,21.13-17.16,0-5.86-4.96-9.13-11.11-9.13-9.63,0-21.13,8.14-21.13,17.27"/><path d="M1036.81,186.48c0,4.26,3.07,9.02,11.11,9.02,10.31,0,21.13-8.43,21.13-17.16,0-5.86-4.96-9.13-11.11-9.13-9.63,0-21.13,8.14-21.13,17.27"/><path d="M1880.69,161.68c0,4.26,3.07,9.02,11.11,9.02,10.31,0,21.13-8.43,21.13-17.16,0-5.86-4.96-9.13-11.11-9.13-9.63,0-21.13,8.14-21.13,17.27"/><path d="M1739.82,112.08c0,4.26,3.07,9.02,11.11,9.02,10.31,0,21.13-8.43,21.13-17.16,0-5.86-4.96-9.13-11.11-9.13-9.63,0-21.13,8.14-21.13,17.27"/><path d="M966.37,161.68c0,4.26,3.07,9.02,11.11,9.02,10.31,0,21.13-8.43,21.13-17.16,0-5.86-4.96-9.13-11.11-9.13-9.63,0-21.13,8.14-21.13,17.27"/><path d="M1598.96,161.68c0,4.26,3.07,9.02,11.11,9.02,10.31,0,21.13-8.43,21.13-17.16,0-5.86-4.96-9.13-11.11-9.13-9.63,0-21.13,8.14-21.13,17.27"/><path d="M1669.39,136.88c0,4.26,3.07,9.02,11.11,9.02,10.31,0,21.13-8.43,21.13-17.16,0-5.86-4.96-9.13-11.11-9.13-9.63,0-21.13,8.14-21.13,17.27"/><path d="M2058.26,223.68c0,4.26,3.07,9.02,11.11,9.02,10.31,0,21.13-8.43,21.13-17.16,0-5.86-4.96-9.13-11.11-9.13-9.63,0-21.13,8.14-21.13,17.27"/><path d="M576.63,248.48c0,4.26,3.07,9.02,11.11,9.02,10.31,0,21.13-8.43,21.13-17.16,0-5.86-4.96-9.13-11.11-9.13-9.63,0-21.13,8.14-21.13,17.27"/><path d="M497.13,223.68c0,4.26,3.07,9.02,11.11,9.02,10.31,0,21.13-8.43,21.13-17.16,0-5.86-4.96-9.13-11.11-9.13-9.63,0-21.13,8.14-21.13,17.27"/><path d="M30.8,245.6c0,6.56,4.96,15.19,18.35,15.19,4.67,0,8.74-1.19,12.31-3.38,5.36-3.77,6.74-10.32,6.74-16.57,0-3.86-.59-8.32-1.58-13.98-.29-1.98-.9-4.96-1.49-8.84,9.72-3.18,16.96-13.3,16.96-23.51,0-14.97-10.62-25.09-25.09-25.09-.99-5.95-1.98-11.81-2.77-17.36,10.42-11.02,17.65-23.42,17.65-39.18,0-9.04-2.77-16.37-4.37-19.95-2.37-5.05-5.25-8.53-7.04-8.53-.7,0-3.77,1.19-7.04,5.05-6.36,7.55-8.14,20.24-8.14,28.57,0,5.36,.5,10.23,2.19,21.34-.11,.09-5.27,5.35-7.35,7.04-9.04,8.34-21.53,20.43-21.53,40.28,0,18.54,16.17,33.12,34.63,33.12,2.87,0,5.55-.29,7.83-.7,1.89,9.53,3.08,16.48,3.08,21.73,0,10.32-5.36,15.78-15.38,15.78-2.39,0-4.46-.5-4.67-.5-.09-.11-.29-.2-.29-.29,0-.2,.2-.31,.5-.31,4.67-.79,9.32-4.76,9.32-11.1,0-5.36-4.06-11.02-11.5-11.02-6.94,0-11.31,5.66-11.31,12.2M51.54,113.16c.9-3.97,5.46-14.38,10.62-14.38,1.49,0,3.86,4.76,3.86,11.7,0,10.32-7.63,18.06-14.48,24.8-.59-3.97-1.08-7.83-1.08-12,0-3.67,.29-7.05,1.08-10.12m8.73,101.97c-1.98,.4-3.86,.6-5.75,.6-14.18,0-26.29-9.92-26.29-24.91,0-12.09,8.53-22.91,17.27-30.46,1.67-1.49,3.27-2.87,4.76-4.36,.88,5.35,1.58,10.01,2.28,14.09-9.04,2.68-15.17,12.2-15.17,21.53,0,6.94,5.46,16.46,13.39,16.46,.79,0,1.69-.4,1.69-1.29s-.99-1.39-2.19-2.19c-3.88-2.39-6.06-4.96-6.06-9.83,0-6.05,4.57-10.91,10.32-12.29l5.75,32.63m14.09-18.35c0,7.05-2.88,14.29-9.92,17.17-2.08-11.9-4.76-27.68-5.46-32.05,8.93,0,15.38,6.06,15.38,14.88"/><path d="M2393.15,149.78c-.09,0-.29-.11-.4-.11-.59,0-1.09,.31-1.29,.81-2.28,4.56-7.04,10.71-12.4,11.7,1.09-1.29,1.78-2.88,1.78-4.76,0-3.87-3.18-7.05-7.04-7.05s-7.15,3.18-7.15,7.05c0,5.35,5.25,7.83,9.92,7.83,5.25,0,8.73-2.48,12.11-6.15l-11.31,35.32,2.68,.79,13.89-43.74c.11-.11,.11-.31,.11-.5,0-.5-.31-.9-.9-1.19"/><path d="M465.53,72.19c-9.32-10.12-17.56-10.71-22.71-10.71s-13.3,.59-22.63,10.71c-4.85,5.36-8.23,15.97-8.23,21.33,0,1.89,.4,3.18,1.4,3.18,2.77,0,1.38-8.54,9.72-16.97,7.33-7.33,17.16-7.44,19.55-7.44h.39c2.39,0,12.21,.11,19.55,7.44,8.34,8.43,6.94,16.97,9.72,16.97,.99,0,1.39-1.19,1.39-3.18,0-5.36-3.27-16.07-8.14-21.33m-29.56,18.94c0,3.78,3.07,6.85,6.85,6.85s6.84-3.07,6.84-6.85-3.07-6.84-6.84-6.84-6.85,3.07-6.85,6.84"/><path d="M2026.66,72.18c-9.32-10.12-17.56-10.71-22.71-10.71s-13.3,.59-22.63,10.71c-4.85,5.36-8.23,15.97-8.23,21.33,0,1.89,.4,3.18,1.4,3.18,2.77,0,1.38-8.54,9.72-16.97,7.33-7.33,17.16-7.44,19.55-7.44h.39c2.39,0,12.21,.11,19.55,7.44,8.34,8.43,6.94,16.97,9.72,16.97,.99,0,1.39-1.19,1.39-3.18,0-5.36-3.27-16.07-8.14-21.33m-29.56,18.94c0,3.78,3.07,6.85,6.85,6.85s6.84-3.07,6.84-6.85-3.07-6.84-6.84-6.84-6.85,3.07-6.85,6.84"/><path d="M182.92,58.41c-9.32-10.12-17.56-10.71-22.71-10.71s-13.3,.59-22.63,10.71c-4.85,5.36-8.23,15.97-8.23,21.33,0,1.89,.4,3.18,1.4,3.18,2.77,0,1.38-8.54,9.72-16.97,7.33-7.33,17.16-7.44,19.55-7.44h.39c2.39,0,12.21,.11,19.55,7.44,8.34,8.43,6.94,16.97,9.72,16.97,.99,0,1.39-1.19,1.39-3.18,0-5.36-3.27-16.07-8.14-21.33m-29.56,18.94c0,3.78,3.07,6.85,6.85,6.85s6.84-3.07,6.84-6.85-3.07-6.84-6.84-6.84-6.85,3.07-6.85,6.84"/><path d="M1075.65,72.19c-9.32-10.12-17.56-10.71-22.71-10.71s-13.3,.59-22.63,10.71c-4.85,5.36-8.23,15.97-8.23,21.33,0,1.89,.4,3.18,1.4,3.18,2.77,0,1.38-8.54,9.72-16.97,7.33-7.33,17.16-7.44,19.55-7.44h.39c2.39,0,12.21,.11,19.55,7.44,8.34,8.43,6.94,16.97,9.72,16.97,.99,0,1.39-1.19,1.39-3.18,0-5.36-3.27-16.07-8.14-21.33m-29.56,18.94c0,3.78,3.07,6.85,6.85,6.85s6.84-3.07,6.84-6.85-3.07-6.84-6.84-6.84-6.85,3.07-6.85,6.84"/><path d="M1416.53,101.69l214.66-18.6v12.44l-214.66,18.6v-12.44" fill-rule="evenodd"/><path d="M754.2,244.3l214.66-12.4v12.42l-214.66,12.4v-12.42" fill-rule="evenodd"/><path d="M173.83,95.5l214.66-12.4v12.42l-214.66,12.4v-12.42" fill-rule="evenodd"/><path d="M1669.39,207.1l213.78,12.4v12.42l-213.78-12.4v-12.42" fill-rule="evenodd"/><path d="M1066.56,107.9l222.84,12.4v12.42l-222.84-12.4v-12.42" fill-rule="evenodd"/><path d="M456.45,107.9l222.84,12.4v12.42l-222.84-12.4v-12.42" fill-rule="evenodd"/><path d="M2017.58,107.89l152.41,12.4v12.44l-152.41-12.4v-12.44" fill-rule="evenodd"/><path d="M1397.87,48.95c-1.69,2.05-6.3,3.59-10.89,3.7v2.14h4.39c2.91,.07,3.2,.36,3.11,3.16v20.05c0,2.56,0,2.65-.3,3.11-.4,.5-1.36,.7-4.15,.7h-3.25v2.34h19.79v-2.34h-2.75c-2.79,0-3.75-.2-4.14-.7-.36-.46-.36-.5-.36-3.11v-20.64c0-2.82,.11-5.16,.36-8.41h-1.81m37.16,24.41h-2.21l-.5,2.54c-.64,3.25-1.04,3.55-4.14,3.55h-11.2c3.45-3.59,4.59-4.64,7.8-7.14,4.54-3.5,6.5-5.25,7.65-6.75,1.6-2.2,2.39-4.41,2.39-6.86,0-5.7-4.7-9.75-11.25-9.75s-11.2,4.05-11.2,9.41c0,3.14,1.61,5.29,3.95,5.29,1.86,0,3.11-1.25,3.11-3.04,0-1.25-.7-2.41-1.75-2.86-1.86-.75-1.95-.85-1.95-1.5,0-.75,.5-1.89,1.2-2.75,1.25-1.55,3.3-2.39,5.64-2.39,4.16,0,6.61,2.54,6.61,6.75,0,3.7-1.75,7.04-5.9,11.45-3.71,3.89-6,6.34-6.85,7.3-1.81,2.09-2.7,3.25-4.9,6.14v1.4h22.54l.96-10.79m20.04-7.61c4.55-1.64,6.66-4.19,6.66-8.21,0-5.25-4-8.59-10.2-8.59-5.85,0-10.3,3.45-10.3,8,0,2.05,1.34,3.5,3.3,3.5,1.75,0,2.95-1.2,2.95-3,0-1.09-.41-1.75-1.55-2.55-.5-.36-.65-.54-.65-.9,0-1.39,2.9-2.89,5.75-2.89,3.59,0,5.5,2.25,5.5,6.5,0,4.64-1.91,7.09-5.46,7.09-.45,0-1.29-.05-2.04-.09-.41-.05-.8-.05-1.1-.05-1.06,0-1.61,.44-1.61,1.34,0,.85,.5,1.25,1.61,1.25,.3,0,.69,0,1.14-.04,1-.05,1.8-.05,2.36-.05,3.69,0,5.69,2.64,5.69,7.59,0,5.21-2.5,8.1-7,8.1-3.14,0-6.55-1.69-6.55-3.25,0-.44,.11-.55,1.05-1.1,1.41-.84,1.95-1.7,1.95-2.95,0-1.8-1.34-3.14-3.14-3.14-2.15,0-3.56,1.75-3.56,4.39,0,4.86,4.45,8.2,10.86,8.2,7.25,0,11.95-4,11.95-10.15,0-4.69-2.4-7.55-7.61-9"/><path d="M587.72,60.31c-1.69,2.04-6.3,3.59-10.89,3.7v2.14h4.39c2.91,.06,3.2,.36,3.11,3.16v20.04c0,2.57,0,2.66-.3,3.11-.41,.5-1.36,.71-4.16,.71h-3.25v2.34h19.8v-2.34h-2.75c-2.8,0-3.75-.21-4.14-.71-.36-.45-.36-.5-.36-3.11v-20.64c0-2.81,.11-5.15,.36-8.4h-1.81m37.16,24.4h-2.2l-.5,2.55c-.64,3.25-1.05,3.55-4.14,3.55h-11.2c3.45-3.6,4.59-4.64,7.8-7.14,4.55-3.5,6.5-5.25,7.66-6.75,1.59-2.21,2.39-4.41,2.39-6.86,0-5.71-4.7-9.75-11.25-9.75s-11.2,4.04-11.2,9.4c0,3.14,1.61,5.3,3.95,5.3,1.86,0,3.11-1.25,3.11-3.05,0-1.25-.7-2.4-1.75-2.86-1.86-.75-1.95-.84-1.95-1.5,0-.75,.5-1.89,1.2-2.75,1.25-1.54,3.3-2.39,5.64-2.39,4.16,0,6.61,2.55,6.61,6.75,0,3.71-1.75,7.05-5.91,11.46-3.7,3.89-6,6.34-6.84,7.29-1.81,2.1-2.7,3.25-4.91,6.14v1.41h22.55l.95-10.8m20.05-7.61c4.55-1.64,6.66-4.18,6.66-8.2,0-5.25-4-8.59-10.2-8.59-5.84,0-10.3,3.45-10.3,8,0,2.04,1.34,3.5,3.3,3.5,1.75,0,2.95-1.21,2.95-3,0-1.1-.41-1.75-1.55-2.55-.5-.36-.66-.55-.66-.91,0-1.39,2.91-2.89,5.75-2.89,3.59,0,5.5,2.25,5.5,6.5,0,4.64-1.91,7.1-5.45,7.1-.45,0-1.3-.05-2.05-.1-.41-.04-.8-.04-1.09-.04-1.06,0-1.61,.43-1.61,1.34,0,.84,.5,1.25,1.61,1.25,.3,0,.69,0,1.14-.05,1-.04,1.8-.04,2.36-.04,3.69,0,5.69,2.64,5.69,7.59,0,5.2-2.5,8.09-7,8.09-3.14,0-6.55-1.68-6.55-3.25,0-.43,.11-.54,1.05-1.09,1.41-.84,1.95-1.7,1.95-2.95,0-1.8-1.34-3.14-3.14-3.14-2.16,0-3.56,1.75-3.56,4.39,0,4.86,4.45,8.2,10.86,8.2,7.25,0,11.95-4,11.95-10.16,0-4.68-2.41-7.54-7.61-9"/><path d="M2148.85,60.31c-1.69,2.04-6.3,3.59-10.89,3.7v2.14h4.39c2.91,.06,3.2,.36,3.11,3.16v20.04c0,2.57,0,2.66-.3,3.11-.4,.5-1.36,.71-4.15,.71h-3.25v2.34h19.79v-2.34h-2.75c-2.79,0-3.75-.21-4.14-.71-.36-.45-.36-.5-.36-3.11v-20.64c0-2.81,.11-5.15,.36-8.4h-1.81m37.16,24.4h-2.21l-.5,2.55c-.64,3.25-1.04,3.55-4.14,3.55h-11.2c3.45-3.6,4.59-4.64,7.8-7.14,4.54-3.5,6.5-5.25,7.65-6.75,1.6-2.21,2.39-4.41,2.39-6.86,0-5.71-4.7-9.75-11.25-9.75s-11.2,4.04-11.2,9.4c0,3.14,1.61,5.3,3.95,5.3,1.86,0,3.11-1.25,3.11-3.05,0-1.25-.7-2.4-1.75-2.86-1.86-.75-1.95-.84-1.95-1.5,0-.75,.5-1.89,1.2-2.75,1.25-1.54,3.3-2.39,5.64-2.39,4.16,0,6.61,2.55,6.61,6.75,0,3.71-1.75,7.05-5.9,11.46-3.71,3.89-6,6.34-6.85,7.29-1.81,2.1-2.7,3.25-4.9,6.14v1.41h22.54l.96-10.8m20.04-7.61c4.55-1.64,6.66-4.18,6.66-8.2,0-5.25-4-8.59-10.2-8.59-5.85,0-10.3,3.45-10.3,8,0,2.04,1.34,3.5,3.3,3.5,1.75,0,2.95-1.21,2.95-3,0-1.1-.41-1.75-1.55-2.55-.5-.36-.65-.55-.65-.91,0-1.39,2.9-2.89,5.75-2.89,3.59,0,5.5,2.25,5.5,6.5,0,4.64-1.91,7.1-5.46,7.1-.45,0-1.29-.05-2.04-.1-.41-.04-.8-.04-1.1-.04-1.06,0-1.61,.43-1.61,1.34,0,.84,.5,1.25,1.61,1.25,.3,0,.69,0,1.14-.05,1-.04,1.8-.04,2.36-.04,3.69,0,5.69,2.64,5.69,7.59,0,5.2-2.5,8.09-7,8.09-3.14,0-6.55-1.68-6.55-3.25,0-.43,.11-.54,1.05-1.09,1.41-.84,1.95-1.7,1.95-2.95,0-1.8-1.34-3.14-3.14-3.14-2.15,0-3.56,1.75-3.56,4.39,0,4.86,4.45,8.2,10.86,8.2,7.25,0,11.95-4,11.95-10.16,0-4.68-2.4-7.54-7.61-9"/><path d="M155.18,0c-1.69,2.04-6.3,3.59-10.89,3.7v2.14h4.39c2.91,.06,3.2,.36,3.11,3.16V29.04c0,2.56,0,2.66-.3,3.11-.41,.5-1.36,.7-4.16,.7h-3.25v2.35h19.8v-2.35h-2.75c-2.8,0-3.75-.2-4.14-.7-.36-.45-.36-.5-.36-3.11V8.4c0-2.81,.11-5.15,.36-8.4h-1.81m37.16,24.4h-2.2l-.5,2.55c-.64,3.25-1.05,3.55-4.14,3.55h-11.2c3.45-3.6,4.59-4.65,7.8-7.15,4.55-3.5,6.5-5.25,7.66-6.75,1.59-2.2,2.39-4.4,2.39-6.85,0-5.71-4.7-9.75-11.25-9.75s-11.2,4.04-11.2,9.4c0,3.14,1.61,5.3,3.95,5.3,1.86,0,3.11-1.25,3.11-3.05,0-1.25-.7-2.4-1.75-2.86-1.86-.75-1.95-.84-1.95-1.5,0-.75,.5-1.89,1.2-2.75,1.25-1.54,3.3-2.39,5.64-2.39,4.16,0,6.61,2.55,6.61,6.75,0,3.7-1.75,7.05-5.91,11.45-3.7,3.9-6,6.35-6.84,7.3-1.81,2.1-2.7,3.25-4.91,6.14v1.41h22.55l.95-10.8"/><path d="M1197.83,60.31c-1.68,2.04-6.29,3.59-10.89,3.7v2.14h4.39c2.91,.06,3.21,.36,3.11,3.16v20.04c0,2.57,0,2.66-.29,3.11-.41,.5-1.36,.71-4.16,.71h-3.25v2.34h19.8v-2.34h-2.75c-2.8,0-3.75-.21-4.14-.71-.36-.45-.36-.5-.36-3.11v-20.64c0-2.81,.11-5.15,.36-8.4h-1.82m37.16,24.4h-2.2l-.5,2.55c-.64,3.25-1.05,3.55-4.14,3.55h-11.21c3.46-3.6,4.6-4.64,7.8-7.14,4.55-3.5,6.5-5.25,7.66-6.75,1.59-2.21,2.39-4.41,2.39-6.86,0-5.71-4.71-9.75-11.25-9.75s-11.21,4.04-11.21,9.4c0,3.14,1.61,5.3,3.96,5.3,1.86,0,3.11-1.25,3.11-3.05,0-1.25-.71-2.4-1.75-2.86-1.86-.75-1.96-.84-1.96-1.5,0-.75,.5-1.89,1.21-2.75,1.25-1.54,3.29-2.39,5.64-2.39,4.15,0,6.61,2.55,6.61,6.75,0,3.71-1.75,7.05-5.91,11.46-3.7,3.89-6,6.34-6.84,7.29-1.82,2.1-2.71,3.25-4.91,6.14v1.41h22.55l.95-10.8m20.05-7.61c4.54-1.64,6.65-4.18,6.65-8.2,0-5.25-4-8.59-10.2-8.59-5.84,0-10.3,3.45-10.3,8,0,2.04,1.35,3.5,3.3,3.5,1.75,0,2.95-1.21,2.95-3,0-1.1-.4-1.75-1.54-2.55-.5-.36-.66-.55-.66-.91,0-1.39,2.91-2.89,5.75-2.89,3.59,0,5.5,2.25,5.5,6.5,0,4.64-1.91,7.1-5.45,7.1-.46,0-1.3-.05-2.05-.1-.41-.04-.8-.04-1.09-.04-1.07,0-1.61,.43-1.61,1.34,0,.84,.5,1.25,1.61,1.25,.29,0,.68,0,1.14-.05,1-.04,1.79-.04,2.36-.04,3.68,0,5.68,2.64,5.68,7.59,0,5.2-2.5,8.09-7,8.09-3.14,0-6.54-1.68-6.54-3.25,0-.43,.11-.54,1.04-1.09,1.41-.84,1.96-1.7,1.96-2.95,0-1.8-1.35-3.14-3.14-3.14-2.16,0-3.57,1.75-3.57,4.39,0,4.86,4.46,8.2,10.86,8.2,7.25,0,11.96-4,11.96-10.16,0-4.68-2.41-7.54-7.61-9"/></g></svg>