<?xml version="1.0" encoding="UTF-8"?><svg id="b" xmlns="http://www.w3.org/2000/svg" viewBox="0 0 2455.2 314.23"><g id="c"><line y1="126.51" x2="2455.2" y2="126.51" fill="none" stroke="#000" stroke-linejoin="bevel" stroke-width="2.73"/><line y1="151.31" x2="2455.2" y2="151.31" fill="none" stroke="#000" stroke-linejoin="bevel" stroke-width="2.73"/><line y1="176.11" x2="2455.2" y2="176.11" fill="none" stroke="#000" stroke-linejoin="bevel" stroke-width="2.73"/><line y1="200.91" x2="2455.2" y2="200.91" fill="none" stroke="#000" stroke-linejoin="bevel" stroke-width="2.73"/><line y1="225.71" x2="2455.2" y2="225.71" fill="none" stroke="#000" stroke-linejoin="bevel" stroke-width="2.73"/><path d="M161.73,219.5c241.09,63.88,1770.92,112.57,2060.74,78.62-290.12,41.88-1819.95-6.81-2060.74-78.62" fill-rule="evenodd" stroke="#000" stroke-linecap="round" stroke-linejoin="round" stroke-width="1.24"/><line x1="2439.33" y1="125.15" x2="2439.33" y2="227.07" fill="none" stroke="#000" stroke-linejoin="bevel" stroke-width="4.46"/><line x1="2452.97" y1="125.15" x2="2452.97" y2="227.07" fill="none" stroke="#000" stroke-linejoin="bevel" stroke-width="4.46"/><line x1="715.82" y1="125.15" x2="715.82" y2="227.07" fill="none" stroke="#000" stroke-linejoin="bevel" stroke-width="4.46"/><line x1="1335.14" y1="125.15" x2="1335.14" y2="227.07" fill="none" stroke="#000" stroke-linejoin="bevel" stroke-width="4.46"/><line x1="1944.25" y1="125.15" x2="1944.25" y2="227.07" fill="none" stroke="#000" stroke-linejoin="bevel" stroke-width="4.46"/><path d="M746.07,160.73c-4.96,0-7.84,3.07-8.34,3.67l.4-31.85c0-.79-.59-1.38-1.4-1.38h-1.18c-.81,0-1.4,.59-1.4,1.38l.5,59.63c0,.79,.59,1.38,1.4,1.38,.19,0,.59-.09,.79-.19,8.53-4.28,17.45-12.4,17.45-22.63,0-5.15-2.37-10.01-8.23-10.01m-8.63,27.98l.29-19.34c.2-.9,1.69-3.77,5.66-3.77,3.58,0,3.87,3.36,3.87,5.46,0,8.82-3.27,12.49-9.83,17.65"/><path d="M1239.3,247.53c-4.96,0-7.84,3.07-8.34,3.67l.4-31.85c0-.79-.59-1.38-1.4-1.38h-1.18c-.81,0-1.4,.59-1.4,1.38l.5,59.63c0,.79,.59,1.38,1.4,1.38,.19,0,.59-.09,.79-.19,8.53-4.28,17.45-12.4,17.45-22.63,0-5.15-2.37-10.01-8.23-10.01m-8.63,27.98l.29-19.34c.2-.9,1.69-3.77,5.66-3.77,3.58,0,3.87,3.36,3.87,5.46,0,8.82-3.27,12.49-9.83,17.65"/><path d="M1497.18,160.73c-4.96,0-7.84,3.07-8.34,3.67l.4-31.85c0-.79-.59-1.38-1.4-1.38h-1.18c-.81,0-1.4,.59-1.4,1.38l.5,59.63c0,.79,.59,1.38,1.4,1.38,.19,0,.59-.09,.79-.19,8.53-4.28,17.45-12.4,17.45-22.63,0-5.15-2.37-10.01-8.23-10.01m-8.63,27.98l.29-19.34c.2-.9,1.69-3.77,5.66-3.77,3.58,0,3.87,3.36,3.87,5.46,0,8.82-3.27,12.49-9.83,17.65"/><path d="M1706.42,86.33c-4.96,0-7.84,3.07-8.34,3.67l.4-31.85c0-.79-.59-1.38-1.4-1.38h-1.18c-.81,0-1.4,.59-1.4,1.38l.5,59.63c0,.79,.59,1.38,1.4,1.38,.19,0,.59-.09,.79-.19,8.53-4.28,17.45-12.4,17.45-22.63,0-5.15-2.37-10.01-8.23-10.01m-8.63,27.98l.29-19.34c.2-.9,1.69-3.77,5.66-3.77,3.58,0,3.87,3.36,3.87,5.46,0,8.82-3.27,12.49-9.83,17.65"/><path d="M1974.51,160.73c-4.96,0-7.84,3.07-8.34,3.67l.4-31.85c0-.79-.59-1.38-1.4-1.38h-1.18c-.81,0-1.4,.59-1.4,1.38l.5,59.63c0,.79,.59,1.38,1.4,1.38,.19,0,.59-.09,.79-.19,8.53-4.28,17.45-12.4,17.45-22.63,0-5.15-2.37-10.01-8.23-10.01m-8.63,27.98l.29-19.34c.2-.9,1.69-3.77,5.66-3.77,3.58,0,3.87,3.36,3.87,5.46,0,8.82-3.27,12.49-9.83,17.65"/><path d="M2183.75,247.53c-4.96,0-7.84,3.07-8.34,3.67l.4-31.85c0-.79-.59-1.38-1.4-1.38h-1.18c-.81,0-1.4,.59-1.4,1.38l.5,59.63c0,.79,.59,1.38,1.4,1.38,.19,0,.59-.09,.79-.19,8.53-4.28,17.45-12.4,17.45-22.63,0-5.15-2.37-10.01-8.23-10.01m-8.63,27.98l.29-19.34c.2-.9,1.69-3.77,5.66-3.77,3.58,0,3.87,3.36,3.87,5.46,0,8.82-3.27,12.49-9.83,17.65"/><path d="M131.19,160.73c-4.96,0-7.84,3.07-8.34,3.67l.4-31.85c0-.79-.59-1.38-1.4-1.38h-1.18c-.81,0-1.4,.59-1.4,1.38l.5,59.63c0,.79,.59,1.38,1.4,1.38,.19,0,.59-.09,.79-.19,8.53-4.28,17.45-12.4,17.45-22.63,0-5.15-2.37-10.01-8.23-10.01m-8.63,27.98l.29-19.34c.2-.9,1.69-3.77,5.66-3.77,3.58,0,3.87,3.36,3.87,5.46,0,8.82-3.27,12.49-9.83,17.65"/><line x1="1253.73" y1="250.51" x2="1302.33" y2="250.51" fill="none" stroke="#000" stroke-linejoin="bevel" stroke-width="3.97"/><line x1="2198.17" y1="250.51" x2="2246.77" y2="250.51" fill="none" stroke="#000" stroke-linejoin="bevel" stroke-width="3.97"/><line x1="1720.84" y1="101.71" x2="1769.44" y2="101.71" fill="none" stroke="#000" stroke-linejoin="bevel" stroke-width="3.97"/><line x1="176.61" y1="172.14" x2="176.61" y2="101.64" fill="none" stroke="#000" stroke-linejoin="bevel" stroke-width="2.48"/><line x1="247.6" y1="209.34" x2="247.6" y2="97.55" fill="none" stroke="#000" stroke-linejoin="bevel" stroke-width="2.48"/><line x1="318.6" y1="172.14" x2="318.6" y2="93.47" fill="none" stroke="#000" stroke-linejoin="bevel" stroke-width="2.48"/><line x1="389.6" y1="147.34" x2="389.6" y2="89.38" fill="none" stroke="#000" stroke-linejoin="bevel" stroke-width="2.48"/><line x1="460.59" y1="172.14" x2="460.59" y2="108.02" fill="none" stroke="#000" stroke-linejoin="bevel" stroke-width="2.48"/><line x1="531.59" y1="209.34" x2="531.59" y2="114.15" fill="none" stroke="#000" stroke-linejoin="bevel" stroke-width="2.48"/><line x1="602.58" y1="234.14" x2="602.58" y2="120.27" fill="none" stroke="#000" stroke-linejoin="bevel" stroke-width="2.48"/><line x1="673.58" y1="209.34" x2="673.58" y2="126.4" fill="none" stroke="#000" stroke-linejoin="bevel" stroke-width="2.48"/><line x1="761.74" y1="180.28" x2="761.74" y2="244.27" fill="none" stroke="#000" stroke-linejoin="bevel" stroke-width="2.48"/><line x1="832.74" y1="155.48" x2="832.74" y2="242.23" fill="none" stroke="#000" stroke-linejoin="bevel" stroke-width="2.48"/><line x1="903.73" y1="130.68" x2="903.73" y2="240.19" fill="none" stroke="#000" stroke-linejoin="bevel" stroke-width="2.48"/><line x1="974.73" y1="155.48" x2="974.73" y2="238.15" fill="none" stroke="#000" stroke-linejoin="bevel" stroke-width="2.48"/><line x1="1075.48" y1="172.14" x2="1075.48" y2="108.05" fill="none" stroke="#000" stroke-linejoin="bevel" stroke-width="2.48"/><line x1="1146.48" y1="209.34" x2="1146.48" y2="116.06" fill="none" stroke="#000" stroke-linejoin="bevel" stroke-width="2.48"/><line x1="1217.47" y1="234.14" x2="1217.47" y2="124.06" fill="none" stroke="#000" stroke-linejoin="bevel" stroke-width="2.48"/><line x1="1292.9" y1="258.94" x2="1292.9" y2="132.57" fill="none" stroke="#000" stroke-linejoin="bevel" stroke-width="2.48"/><line x1="1400.6" y1="234.14" x2="1400.6" y2="113.97" fill="none" stroke="#000" stroke-linejoin="bevel" stroke-width="2.48"/><line x1="1471.6" y1="209.34" x2="1471.6" y2="105.8" fill="none" stroke="#000" stroke-linejoin="bevel" stroke-width="2.48"/><line x1="1542.59" y1="172.14" x2="1542.59" y2="97.62" fill="none" stroke="#000" stroke-linejoin="bevel" stroke-width="2.48"/><line x1="1613.59" y1="147.34" x2="1613.59" y2="89.45" fill="none" stroke="#000" stroke-linejoin="bevel" stroke-width="2.48"/><line x1="1654.84" y1="130.68" x2="1654.84" y2="219.54" fill="none" stroke="#000" stroke-linejoin="bevel" stroke-width="2.48"/><line x1="1730.27" y1="105.88" x2="1730.27" y2="221.67" fill="none" stroke="#000" stroke-linejoin="bevel" stroke-width="2.48"/><line x1="1801.26" y1="130.68" x2="1801.26" y2="223.67" fill="none" stroke="#000" stroke-linejoin="bevel" stroke-width="2.48"/><line x1="1872.26" y1="155.48" x2="1872.26" y2="225.67" fill="none" stroke="#000" stroke-linejoin="bevel" stroke-width="2.48"/><line x1="2019.93" y1="172.14" x2="2019.93" y2="108.07" fill="none" stroke="#000" stroke-linejoin="bevel" stroke-width="2.48"/><line x1="2090.92" y1="209.34" x2="2090.92" y2="117.21" fill="none" stroke="#000" stroke-linejoin="bevel" stroke-width="2.48"/><line x1="2161.92" y1="234.14" x2="2161.92" y2="126.35" fill="none" stroke="#000" stroke-linejoin="bevel" stroke-width="2.48"/><line x1="2237.35" y1="258.94" x2="2237.35" y2="176.11" fill="none" stroke="#000" stroke-linejoin="bevel" stroke-width="2.48"/><path d="M642.59,217.48c0,4.26,3.07,9.02,11.11,9.02,10.31,0,21.13-8.43,21.13-17.16,0-5.86-4.96-9.13-11.11-9.13-9.63,0-21.13,8.14-21.13,17.27"/><path d="M1440.61,217.48c0,4.26,3.07,9.02,11.11,9.02,10.31,0,21.13-8.43,21.13-17.16,0-5.86-4.96-9.13-11.11-9.13-9.63,0-21.13,8.14-21.13,17.27"/><path d="M760.5,180.28c0,4.26,3.07,9.02,11.11,9.02,10.31,0,21.13-8.43,21.13-17.16,0-5.86-4.96-9.13-11.11-9.13-9.63,0-21.13,8.14-21.13,17.27"/><path d="M831.5,155.48c0,4.26,3.07,9.02,11.11,9.02,10.31,0,21.13-8.43,21.13-17.16,0-5.86-4.96-9.13-11.11-9.13-9.63,0-21.13,8.14-21.13,17.27"/><path d="M902.49,130.68c0,4.26,3.07,9.02,11.11,9.02,10.31,0,21.13-8.43,21.13-17.16,0-5.86-4.96-9.13-11.11-9.13-9.63,0-21.13,8.14-21.13,17.27"/><path d="M973.49,155.48c0,4.26,3.07,9.02,11.11,9.02,10.31,0,21.13-8.43,21.13-17.16,0-5.86-4.96-9.13-11.11-9.13-9.63,0-21.13,8.14-21.13,17.27"/><path d="M1044.49,180.28c0,4.26,3.07,9.02,11.11,9.02,10.31,0,21.13-8.43,21.13-17.16,0-5.86-4.96-9.13-11.11-9.13-9.63,0-21.13,8.14-21.13,17.27"/><path d="M1115.48,217.48c0,4.26,3.07,9.02,11.11,9.02,10.31,0,21.13-8.43,21.13-17.16,0-5.86-4.96-9.13-11.11-9.13-9.63,0-21.13,8.14-21.13,17.27"/><path d="M1186.48,242.28c0,4.26,3.07,9.02,11.11,9.02,10.31,0,21.13-8.43,21.13-17.16,0-5.86-4.96-9.13-11.11-9.13-9.63,0-21.13,8.14-21.13,17.27"/><path d="M2227.49,249.81c-9.63,0-21.13,8.04-21.13,17.27,0,4.26,3.07,9.02,11.11,9.02,10.31,0,21.13-8.43,21.13-17.16,0-5.86-4.96-9.13-11.11-9.13m-13.69,21.62c-3.27,0-3.97-2.67-3.97-3.57,0-4.87,16.66-13.39,21.33-13.39,2.39,0,3.97,1.4,3.97,3.57,0,4.96-16.77,13.39-21.33,13.39"/><path d="M1582.6,155.48c0,4.26,3.07,9.02,11.11,9.02,10.31,0,21.13-8.43,21.13-17.16,0-5.86-4.96-9.13-11.11-9.13-9.63,0-21.13,8.14-21.13,17.27"/><path d="M2130.93,242.28c0,4.26,3.07,9.02,11.11,9.02,10.31,0,21.13-8.43,21.13-17.16,0-5.86-4.96-9.13-11.11-9.13-9.63,0-21.13,8.14-21.13,17.27"/><path d="M2059.93,217.48c0,4.26,3.07,9.02,11.11,9.02,10.31,0,21.13-8.43,21.13-17.16,0-5.86-4.96-9.13-11.11-9.13-9.63,0-21.13,8.14-21.13,17.27"/><path d="M1988.93,180.28c0,4.26,3.07,9.02,11.11,9.02,10.31,0,21.13-8.43,21.13-17.16,0-5.86-4.96-9.13-11.11-9.13-9.63,0-21.13,8.14-21.13,17.27"/><path d="M1871.02,155.48c0,4.26,3.07,9.02,11.11,9.02,10.31,0,21.13-8.43,21.13-17.16,0-5.86-4.96-9.13-11.11-9.13-9.63,0-21.13,8.14-21.13,17.27"/><path d="M1511.6,180.28c0,4.26,3.07,9.02,11.11,9.02,10.31,0,21.13-8.43,21.13-17.16,0-5.86-4.96-9.13-11.11-9.13-9.63,0-21.13,8.14-21.13,17.27"/><path d="M1261.91,267.08c0,4.26,3.07,9.02,11.11,9.02,10.31,0,21.13-8.43,21.13-17.16,0-5.86-4.96-9.13-11.11-9.13-9.63,0-21.13,8.14-21.13,17.27"/><path d="M1800.02,130.68c0,4.26,3.07,9.02,11.11,9.02,10.31,0,21.13-8.43,21.13-17.16,0-5.86-4.96-9.13-11.11-9.13-9.63,0-21.13,8.14-21.13,17.27"/><path d="M1369.61,242.28c0,4.26,3.07,9.02,11.11,9.02,10.31,0,21.13-8.43,21.13-17.16,0-5.86-4.96-9.13-11.11-9.13-9.63,0-21.13,8.14-21.13,17.27"/><path d="M1653.6,130.68c0,4.26,3.07,9.02,11.11,9.02,10.31,0,21.13-8.43,21.13-17.16,0-5.86-4.96-9.13-11.11-9.13-9.63,0-21.13,8.14-21.13,17.27"/><path d="M571.59,242.28c0,4.26,3.07,9.02,11.11,9.02,10.31,0,21.13-8.43,21.13-17.16,0-5.86-4.96-9.13-11.11-9.13-9.63,0-21.13,8.14-21.13,17.27"/><path d="M500.6,217.48c0,4.26,3.07,9.02,11.11,9.02,10.31,0,21.13-8.43,21.13-17.16,0-5.86-4.96-9.13-11.11-9.13-9.63,0-21.13,8.14-21.13,17.27"/><path d="M429.6,180.28c0,4.26,3.07,9.02,11.11,9.02,10.31,0,21.13-8.43,21.13-17.16,0-5.86-4.96-9.13-11.11-9.13-9.63,0-21.13,8.14-21.13,17.27"/><path d="M358.6,155.48c0,4.26,3.07,9.02,11.11,9.02,10.31,0,21.13-8.43,21.13-17.16,0-5.86-4.96-9.13-11.11-9.13-9.63,0-21.13,8.14-21.13,17.27"/><path d="M287.61,180.28c0,4.26,3.07,9.02,11.11,9.02,10.31,0,21.13-8.43,21.13-17.16,0-5.86-4.96-9.13-11.11-9.13-9.63,0-21.13,8.14-21.13,17.27"/><path d="M216.61,217.48c0,4.26,3.07,9.02,11.11,9.02,10.31,0,21.13-8.43,21.13-17.16,0-5.86-4.96-9.13-11.11-9.13-9.63,0-21.13,8.14-21.13,17.27"/><path d="M145.62,180.28c0,4.26,3.07,9.02,11.11,9.02,10.31,0,21.13-8.43,21.13-17.16,0-5.86-4.96-9.13-11.11-9.13-9.63,0-21.13,8.14-21.13,17.27"/><path d="M1729.03,105.88c0,4.26,3.07,9.02,11.11,9.02,10.31,0,21.13-8.43,21.13-17.16,0-5.86-4.96-9.13-11.11-9.13-9.63,0-21.13,8.14-21.13,17.27"/><path d="M30.8,251.8c0,6.56,4.96,15.19,18.35,15.19,4.67,0,8.74-1.19,12.31-3.38,5.36-3.77,6.74-10.32,6.74-16.57,0-3.86-.59-8.32-1.58-13.98-.29-1.98-.9-4.96-1.49-8.84,9.72-3.18,16.96-13.3,16.96-23.51,0-14.97-10.62-25.09-25.09-25.09-.99-5.95-1.98-11.81-2.77-17.36,10.42-11.02,17.65-23.42,17.65-39.18,0-9.04-2.77-16.37-4.37-19.95-2.37-5.05-5.25-8.53-7.04-8.53-.7,0-3.77,1.19-7.04,5.05-6.36,7.55-8.14,20.24-8.14,28.57,0,5.36,.5,10.23,2.19,21.34-.11,.09-5.27,5.35-7.35,7.04-9.04,8.34-21.53,20.43-21.53,40.28,0,18.54,16.17,33.12,34.63,33.12,2.87,0,5.55-.29,7.83-.7,1.89,9.53,3.08,16.48,3.08,21.73,0,10.32-5.36,15.78-15.38,15.78-2.39,0-4.46-.5-4.67-.5-.09-.11-.29-.2-.29-.29,0-.2,.2-.31,.5-.31,4.67-.79,9.32-4.76,9.32-11.1,0-5.36-4.06-11.02-11.5-11.02-6.94,0-11.31,5.66-11.31,12.2M51.54,119.36c.9-3.97,5.46-14.38,10.62-14.38,1.49,0,3.86,4.76,3.86,11.7,0,10.32-7.63,18.06-14.48,24.8-.59-3.97-1.08-7.83-1.08-12,0-3.67,.29-7.05,1.08-10.12m8.73,101.97c-1.98,.4-3.86,.6-5.75,.6-14.18,0-26.29-9.92-26.29-24.91,0-12.09,8.53-22.91,17.27-30.46,1.67-1.49,3.27-2.87,4.76-4.36,.88,5.35,1.58,10.01,2.28,14.09-9.04,2.68-15.17,12.2-15.17,21.53,0,6.94,5.46,16.46,13.39,16.46,.79,0,1.69-.4,1.69-1.29s-.99-1.39-2.19-2.19c-3.88-2.39-6.06-4.96-6.06-9.83,0-6.05,4.57-10.91,10.32-12.29l5.75,32.63m14.09-18.35c0,7.05-2.88,14.29-9.92,17.17-2.08-11.9-4.76-27.68-5.46-32.05,8.93,0,15.38,6.06,15.38,14.88"/><path d="M2392.59,155.98c-.09,0-.29-.11-.4-.11-.59,0-1.09,.31-1.29,.81-2.28,4.56-7.04,10.71-12.4,11.7,1.09-1.29,1.78-2.88,1.78-4.76,0-3.87-3.18-7.05-7.04-7.05s-7.15,3.18-7.15,7.05c0,5.35,5.25,7.83,9.92,7.83,5.25,0,8.73-2.48,12.11-6.15l-11.31,35.32,2.68,.79,13.89-43.74c.11-.11,.11-.31,.11-.5,0-.5-.31-.9-.9-1.19"/><path d="M468.44,65.98c-9.32-10.12-17.56-10.71-22.71-10.71s-13.3,.59-22.63,10.71c-4.85,5.36-8.23,15.97-8.23,21.33,0,1.89,.4,3.18,1.4,3.18,2.77,0,1.38-8.54,9.72-16.97,7.33-7.33,17.16-7.44,19.55-7.44h.39c2.39,0,12.21,.11,19.55,7.44,8.34,8.43,6.94,16.97,9.72,16.97,.99,0,1.39-1.19,1.39-3.18,0-5.36-3.27-16.07-8.14-21.33m-29.56,18.94c0,3.78,3.07,6.85,6.85,6.85s6.84-3.07,6.84-6.85-3.07-6.84-6.84-6.84-6.85,3.07-6.85,6.84"/><path d="M1083.33,65.96c-9.32-10.12-17.56-10.71-22.71-10.71s-13.3,.59-22.63,10.71c-4.85,5.36-8.23,15.97-8.23,21.33,0,1.89,.4,3.18,1.4,3.18,2.77,0,1.38-8.54,9.72-16.97,7.33-7.33,17.16-7.44,19.55-7.44h.39c2.39,0,12.21,.11,19.55,7.44,8.34,8.43,6.94,16.97,9.72,16.97,.99,0,1.39-1.19,1.39-3.18,0-5.36-3.27-16.07-8.14-21.33m-29.56,18.94c0,3.78,3.07,6.85,6.85,6.85s6.84-3.07,6.84-6.85-3.07-6.84-6.84-6.84-6.85,3.07-6.85,6.84"/><path d="M184.45,58.41c-9.32-10.12-17.56-10.71-22.71-10.71s-13.3,.59-22.63,10.71c-4.85,5.36-8.23,15.97-8.23,21.33,0,1.89,.4,3.18,1.4,3.18,2.77,0,1.38-8.54,9.72-16.97,7.33-7.33,17.16-7.44,19.55-7.44h.39c2.39,0,12.21,.11,19.55,7.44,8.34,8.43,6.94,16.97,9.72,16.97,.99,0,1.39-1.19,1.39-3.18,0-5.36-3.27-16.07-8.14-21.33m-29.56,18.94c0,3.78,3.07,6.85,6.85,6.85s6.84-3.07,6.84-6.85-3.07-6.84-6.84-6.84-6.85,3.07-6.85,6.84"/><path d="M2027.77,65.95c-9.32-10.12-17.56-10.71-22.71-10.71s-13.3,.59-22.63,10.71c-4.85,5.36-8.23,15.97-8.23,21.33,0,1.89,.4,3.18,1.4,3.18,2.77,0,1.38-8.54,9.72-16.97,7.33-7.33,17.16-7.44,19.55-7.44h.39c2.39,0,12.21,.11,19.55,7.44,8.34,8.43,6.94,16.97,9.72,16.97,.99,0,1.39-1.19,1.39-3.18,0-5.36-3.27-16.07-8.14-21.33m-29.56,18.94c0,3.78,3.07,6.85,6.85,6.85s6.84-3.07,6.84-6.85-3.07-6.84-6.84-6.84-6.85,3.07-6.85,6.84"/><path d="M1399.36,107.87l215.47-24.8v12.48l-215.47,24.8v-12.48" fill-rule="evenodd"/><path d="M1074.24,101.67l219.9,24.8v12.48l-219.9-24.8v-12.48" fill-rule="evenodd"/><path d="M459.35,101.69l215.47,18.6v12.44l-215.47-18.6v-12.44" fill-rule="evenodd"/><path d="M2018.69,101.66l144.47,18.6v12.5l-144.47-18.6v-12.5" fill-rule="evenodd"/><path d="M175.37,95.5l215.47-12.4v12.42l-215.47,12.4v-12.42" fill-rule="evenodd"/><path d="M760.5,238.11l215.47-6.2v12.4l-215.47,6.2v-12.4" fill-rule="evenodd"/><path d="M1653.6,213.31l219.9,6.2v12.4l-219.9-6.2v-12.4" fill-rule="evenodd"/><path d="M2142.02,65.46c-1.69,2.04-6.3,3.59-10.89,3.7v2.14h4.39c2.91,.06,3.2,.36,3.11,3.16v20.04c0,2.56,0,2.66-.3,3.11-.4,.5-1.36,.7-4.15,.7h-3.25v2.35h19.79v-2.35h-2.75c-2.79,0-3.75-.2-4.14-.7-.36-.45-.36-.5-.36-3.11v-20.64c0-2.81,.11-5.15,.36-8.4h-1.81m29.2,16.79c4.55-1.64,6.66-4.19,6.66-8.2,0-5.25-4-8.59-10.2-8.59-5.85,0-10.3,3.45-10.3,8,0,2.04,1.34,3.5,3.3,3.5,1.75,0,2.95-1.21,2.95-3,0-1.1-.41-1.75-1.55-2.55-.5-.36-.65-.55-.65-.91,0-1.39,2.9-2.89,5.75-2.89,3.59,0,5.5,2.25,5.5,6.5,0,4.64-1.91,7.1-5.46,7.1-.45,0-1.29-.05-2.04-.1-.41-.05-.8-.05-1.1-.05-1.06,0-1.61,.44-1.61,1.35,0,.84,.5,1.25,1.61,1.25,.3,0,.69,0,1.14-.05,1-.05,1.8-.05,2.36-.05,3.69,0,5.69,2.65,5.69,7.6,0,5.2-2.5,8.09-7,8.09-3.14,0-6.55-1.69-6.55-3.25,0-.44,.11-.54,1.05-1.09,1.41-.85,1.95-1.7,1.95-2.95,0-1.8-1.34-3.15-3.14-3.15-2.15,0-3.56,1.75-3.56,4.4,0,4.85,4.45,8.2,10.86,8.2,7.25,0,11.95-4,11.95-10.16,0-4.69-2.4-7.54-7.61-9"/><path d="M1197.57,64.09c-1.68,2.05-6.29,3.59-10.89,3.7v2.14h4.39c2.91,.07,3.21,.36,3.11,3.16v20.05c0,2.56,0,2.65-.29,3.11-.41,.5-1.36,.7-4.16,.7h-3.25v2.34h19.8v-2.34h-2.75c-2.8,0-3.75-.2-4.14-.7-.36-.46-.36-.5-.36-3.11v-20.64c0-2.82,.11-5.16,.36-8.41h-1.82m29.21,16.8c4.54-1.64,6.65-4.19,6.65-8.21,0-5.25-4-8.59-10.2-8.59-5.84,0-10.3,3.45-10.3,8,0,2.05,1.35,3.5,3.3,3.5,1.75,0,2.95-1.2,2.95-3,0-1.09-.4-1.75-1.54-2.55-.5-.36-.66-.54-.66-.9,0-1.39,2.91-2.89,5.75-2.89,3.59,0,5.5,2.25,5.5,6.5,0,4.64-1.91,7.09-5.45,7.09-.46,0-1.3-.05-2.05-.09-.41-.05-.8-.05-1.09-.05-1.07,0-1.61,.44-1.61,1.34,0,.85,.5,1.25,1.61,1.25,.29,0,.68,0,1.14-.04,1-.05,1.79-.05,2.36-.05,3.68,0,5.68,2.64,5.68,7.59,0,5.21-2.5,8.1-7,8.1-3.14,0-6.54-1.69-6.54-3.25,0-.44,.11-.55,1.04-1.1,1.41-.84,1.96-1.7,1.96-2.95,0-1.8-1.35-3.14-3.14-3.14-2.16,0-3.57,1.75-3.57,4.39,0,4.86,4.46,8.2,10.86,8.2,7.25,0,11.96-4,11.96-10.15,0-4.69-2.41-7.55-7.61-9"/><path d="M156.71,0c-1.69,2.04-6.3,3.59-10.89,3.7v2.14h4.39c2.91,.06,3.2,.36,3.11,3.16V29.04c0,2.56,0,2.66-.3,3.11-.41,.5-1.36,.7-4.16,.7h-3.25v2.35h19.8v-2.35h-2.75c-2.8,0-3.75-.2-4.14-.7-.36-.45-.36-.5-.36-3.11V8.4c0-2.81,.11-5.15,.36-8.4h-1.81"/><path d="M1380.7,56.51c-1.68,2.05-6.29,3.59-10.89,3.7v2.14h4.39c2.91,.07,3.21,.36,3.11,3.16v20.05c0,2.56,0,2.65-.29,3.11-.41,.5-1.36,.7-4.16,.7h-3.25v2.34h19.8v-2.34h-2.75c-2.8,0-3.75-.2-4.14-.7-.36-.46-.36-.5-.36-3.11v-20.64c0-2.82,.11-5.16,.36-8.41h-1.82m29.21,16.8c4.54-1.64,6.65-4.19,6.65-8.21,0-5.25-4-8.59-10.2-8.59-5.84,0-10.3,3.45-10.3,8,0,2.05,1.35,3.5,3.3,3.5,1.75,0,2.95-1.2,2.95-3,0-1.09-.4-1.75-1.54-2.55-.5-.36-.66-.54-.66-.9,0-1.39,2.91-2.89,5.75-2.89,3.59,0,5.5,2.25,5.5,6.5,0,4.64-1.91,7.09-5.45,7.09-.46,0-1.3-.05-2.05-.09-.41-.05-.8-.05-1.09-.05-1.07,0-1.61,.44-1.61,1.34,0,.85,.5,1.25,1.61,1.25,.29,0,.68,0,1.14-.04,1-.05,1.79-.05,2.36-.05,3.68,0,5.68,2.64,5.68,7.59,0,5.21-2.5,8.1-7,8.1-3.14,0-6.54-1.69-6.54-3.25,0-.44,.11-.55,1.04-1.1,1.41-.84,1.96-1.7,1.96-2.95,0-1.8-1.35-3.14-3.14-3.14-2.16,0-3.57,1.75-3.57,4.39,0,4.86,4.46,8.2,10.86,8.2,7.25,0,11.96-4,11.96-10.15,0-4.69-2.41-7.55-7.61-9"/><path d="M582.69,61.35c-1.69,2.05-6.3,3.59-10.89,3.7v2.14h4.39c2.91,.07,3.2,.36,3.11,3.16v20.05c0,2.56,0,2.65-.3,3.11-.41,.5-1.36,.7-4.16,.7h-3.25v2.34h19.8v-2.34h-2.75c-2.8,0-3.75-.2-4.14-.7-.36-.46-.36-.5-.36-3.11v-20.64c0-2.82,.11-5.16,.36-8.41h-1.81m29.2,16.8c4.55-1.64,6.66-4.19,6.66-8.21,0-5.25-4-8.59-10.2-8.59-5.84,0-10.3,3.45-10.3,8,0,2.05,1.34,3.5,3.3,3.5,1.75,0,2.95-1.2,2.95-3,0-1.09-.41-1.75-1.55-2.55-.5-.36-.66-.54-.66-.9,0-1.39,2.91-2.89,5.75-2.89,3.59,0,5.5,2.25,5.5,6.5,0,4.64-1.91,7.09-5.45,7.09-.45,0-1.3-.05-2.05-.09-.41-.05-.8-.05-1.09-.05-1.06,0-1.61,.44-1.61,1.34,0,.85,.5,1.25,1.61,1.25,.3,0,.69,0,1.14-.04,1-.05,1.8-.05,2.36-.05,3.69,0,5.69,2.64,5.69,7.59,0,5.21-2.5,8.1-7,8.1-3.14,0-6.55-1.69-6.55-3.25,0-.44,.11-.55,1.05-1.1,1.41-.84,1.95-1.7,1.95-2.95,0-1.8-1.34-3.14-3.14-3.14-2.16,0-3.56,1.75-3.56,4.39,0,4.86,4.45,8.2,10.86,8.2,7.25,0,11.95-4,11.95-10.15,0-4.69-2.41-7.55-7.61-9"/></g></svg>