<?xml version="1.0" encoding="UTF-8"?><svg id="b" xmlns="http://www.w3.org/2000/svg" viewBox="0 0 2455.2 330.09"><g id="c"><line y1="114.42" x2="2455.2" y2="114.42" fill="none" stroke="#000" stroke-linejoin="bevel" stroke-width="2.73"/><line y1="139.22" x2="2455.2" y2="139.22" fill="none" stroke="#000" stroke-linejoin="bevel" stroke-width="2.73"/><line y1="164.02" x2="2455.2" y2="164.02" fill="none" stroke="#000" stroke-linejoin="bevel" stroke-width="2.73"/><line y1="188.82" x2="2455.2" y2="188.82" fill="none" stroke="#000" stroke-linejoin="bevel" stroke-width="2.73"/><line y1="213.62" x2="2455.2" y2="213.62" fill="none" stroke="#000" stroke-linejoin="bevel" stroke-width="2.73"/><path d="M161.73,245.17c241.79,62.74,1775.7,101.81,2066.24,65.69-290.84,44.05-1824.75,4.98-2066.24-65.69" fill-rule="evenodd" stroke="#000" stroke-linecap="round" stroke-linejoin="round" stroke-width="1.24"/><line x1="2439.33" y1="113.06" x2="2439.33" y2="214.98" fill="none" stroke="#000" stroke-linejoin="bevel" stroke-width="4.46"/><line x1="2452.97" y1="113.06" x2="2452.97" y2="214.98" fill="none" stroke="#000" stroke-linejoin="bevel" stroke-width="4.46"/><line x1="708.54" y1="113.06" x2="708.54" y2="214.98" fill="none" stroke="#000" stroke-linejoin="bevel" stroke-width="4.46"/><line x1="1941.3" y1="113.06" x2="1941.3" y2="214.98" fill="none" stroke="#000" stroke-linejoin="bevel" stroke-width="4.46"/><line x1="1327.98" y1="113.06" x2="1327.98" y2="214.98" fill="none" stroke="#000" stroke-linejoin="bevel" stroke-width="4.46"/><path d="M1233.71,260.24c-4.96,0-7.84,3.07-8.34,3.67l.4-31.85c0-.79-.59-1.38-1.4-1.38h-1.18c-.81,0-1.4,.59-1.4,1.38l.5,59.63c0,.79,.59,1.38,1.4,1.38,.19,0,.59-.09,.79-.19,8.53-4.28,17.45-12.4,17.45-22.63,0-5.15-2.37-10.01-8.23-10.01m-8.63,27.98l.29-19.34c.2-.9,1.69-3.77,5.66-3.77,3.58,0,3.87,3.36,3.87,5.46,0,8.82-3.27,12.49-9.83,17.65"/><path d="M1152.57,235.44c-4.96,0-7.84,3.07-8.34,3.67l.4-31.85c0-.79-.59-1.38-1.4-1.38h-1.18c-.81,0-1.4,.59-1.4,1.38l.5,59.63c0,.79,.59,1.38,1.4,1.38,.19,0,.59-.09,.79-.19,8.53-4.28,17.45-12.4,17.45-22.63,0-5.15-2.37-10.01-8.23-10.01m-8.63,27.98l.29-19.34c.2-.9,1.69-3.77,5.66-3.77,3.58,0,3.87,3.36,3.87,5.46,0,8.82-3.27,12.49-9.83,17.65"/><path d="M1085.33,210.64c-4.96,0-7.84,3.07-8.34,3.67l.4-31.85c0-.79-.59-1.38-1.4-1.38h-1.18c-.81,0-1.4,.59-1.4,1.38l.5,59.63c0,.79,.59,1.38,1.4,1.38,.19,0,.59-.09,.79-.19,8.53-4.28,17.45-12.4,17.45-22.63,0-5.15-2.37-10.01-8.23-10.01m-8.63,27.98l.29-19.34c.2-.9,1.69-3.77,5.66-3.77,3.58,0,3.87,3.36,3.87,5.46,0,8.82-3.27,12.49-9.83,17.65"/><path d="M877.41,123.84c-4.96,0-7.84,3.07-8.34,3.67l.4-31.85c0-.79-.59-1.38-1.4-1.38h-1.18c-.81,0-1.4,.59-1.4,1.38l.5,59.63c0,.79,.59,1.38,1.4,1.38,.19,0,.59-.09,.79-.19,8.53-4.28,17.45-12.4,17.45-22.63,0-5.15-2.37-10.01-8.23-10.01m-8.63,27.98l.29-19.34c.2-.9,1.69-3.77,5.66-3.77,3.58,0,3.87,3.36,3.87,5.46,0,8.82-3.27,12.49-9.83,17.65"/><path d="M808.11,148.64c-4.96,0-7.84,3.07-8.34,3.67l.4-31.85c0-.79-.59-1.38-1.4-1.38h-1.18c-.81,0-1.4,.59-1.4,1.38l.5,59.63c0,.79,.59,1.38,1.4,1.38,.19,0,.59-.09,.79-.19,8.53-4.28,17.45-12.4,17.45-22.63,0-5.15-2.37-10.01-8.23-10.01m-8.63,27.98l.29-19.34c.2-.9,1.69-3.77,5.66-3.77,3.58,0,3.87,3.36,3.87,5.46,0,8.82-3.27,12.49-9.83,17.65"/><path d="M544.96,235.44c-4.96,0-7.84,3.07-8.34,3.67l.4-31.85c0-.79-.59-1.38-1.4-1.38h-1.18c-.81,0-1.4,.59-1.4,1.38l.5,59.63c0,.79,.59,1.38,1.4,1.38,.19,0,.59-.09,.79-.19,8.53-4.28,17.45-12.4,17.45-22.63,0-5.15-2.37-10.01-8.23-10.01m-8.63,27.98l.29-19.34c.2-.9,1.69-3.77,5.66-3.77,3.58,0,3.87,3.36,3.87,5.46,0,8.82-3.27,12.49-9.83,17.65"/><path d="M200.49,210.64c-4.96,0-7.84,3.07-8.34,3.67l.4-31.85c0-.79-.59-1.38-1.4-1.38h-1.18c-.81,0-1.4,.59-1.4,1.38l.5,59.63c0,.79,.59,1.38,1.4,1.38,.19,0,.59-.09,.79-.19,8.53-4.28,17.45-12.4,17.45-22.63,0-5.15-2.37-10.01-8.23-10.01m-8.63,27.98l.29-19.34c.2-.9,1.69-3.77,5.66-3.77,3.58,0,3.87,3.36,3.87,5.46,0,8.82-3.27,12.49-9.83,17.65"/><path d="M131.19,173.44c-4.96,0-7.84,3.07-8.34,3.67l.4-31.85c0-.79-.59-1.38-1.4-1.38h-1.18c-.81,0-1.4,.59-1.4,1.38l.5,59.63c0,.79,.59,1.38,1.4,1.38,.19,0,.59-.09,.79-.19,8.53-4.28,17.45-12.4,17.45-22.63,0-5.15-2.37-10.01-8.23-10.01m-8.63,27.98l.29-19.34c.2-.9,1.69-3.77,5.66-3.77,3.58,0,3.87,3.36,3.87,5.46,0,8.82-3.27,12.49-9.83,17.65"/><path d="M339.1,148.64c-4.96,0-7.84,3.07-8.34,3.67l.4-31.85c0-.79-.59-1.38-1.4-1.38h-1.18c-.81,0-1.4,.59-1.4,1.38l.5,59.63c0,.79,.59,1.38,1.4,1.38,.19,0,.59-.09,.79-.19,8.53-4.28,17.45-12.4,17.45-22.63,0-5.15-2.37-10.01-8.23-10.01m-8.63,27.98l.29-19.34c.2-.9,1.69-3.77,5.66-3.77,3.58,0,3.87,3.36,3.87,5.46,0,8.82-3.27,12.49-9.83,17.65"/><path d="M738.8,173.44c-4.96,0-7.84,3.07-8.34,3.67l.4-31.85c0-.79-.59-1.38-1.4-1.38h-1.18c-.81,0-1.4,.59-1.4,1.38l.5,59.63c0,.79,.59,1.38,1.4,1.38,.19,0,.59-.09,.79-.19,8.53-4.28,17.45-12.4,17.45-22.63,0-5.15-2.37-10.01-8.23-10.01m-8.63,27.98l.29-19.34c.2-.9,1.69-3.77,5.66-3.77,3.58,0,3.87,3.36,3.87,5.46,0,8.82-3.27,12.49-9.83,17.65"/><path d="M2108.11,235.44c-4.96,0-7.84,3.07-8.34,3.67l.4-31.85c0-.79-.59-1.38-1.4-1.38h-1.18c-.81,0-1.4,.59-1.4,1.38l.5,59.63c0,.79,.59,1.38,1.4,1.38,.19,0,.59-.09,.79-.19,8.53-4.28,17.45-12.4,17.45-22.63,0-5.15-2.37-10.01-8.23-10.01m-8.63,27.98l.29-19.34c.2-.9,1.69-3.77,5.66-3.77,3.58,0,3.87,3.36,3.87,5.46,0,8.82-3.27,12.49-9.83,17.65"/><path d="M2040.86,210.64c-4.96,0-7.84,3.07-8.34,3.67l.4-31.85c0-.79-.59-1.38-1.4-1.38h-1.18c-.81,0-1.4,.59-1.4,1.38l.5,59.63c0,.79,.59,1.38,1.4,1.38,.19,0,.59-.09,.79-.19,8.53-4.28,17.45-12.4,17.45-22.63,0-5.15-2.37-10.01-8.23-10.01m-8.63,27.98l.29-19.34c.2-.9,1.69-3.77,5.66-3.77,3.58,0,3.87,3.36,3.87,5.46,0,8.82-3.27,12.49-9.83,17.65"/><path d="M1971.56,173.44c-4.96,0-7.84,3.07-8.34,3.67l.4-31.85c0-.79-.59-1.38-1.4-1.38h-1.18c-.81,0-1.4,.59-1.4,1.38l.5,59.63c0,.79,.59,1.38,1.4,1.38,.19,0,.59-.09,.79-.19,8.53-4.28,17.45-12.4,17.45-22.63,0-5.15-2.37-10.01-8.23-10.01m-8.63,27.98l.29-19.34c.2-.9,1.69-3.77,5.66-3.77,3.58,0,3.87,3.36,3.87,5.46,0,8.82-3.27,12.49-9.83,17.65"/><path d="M1647.29,123.84c-4.96,0-7.84,3.07-8.34,3.67l.4-31.85c0-.79-.59-1.38-1.4-1.38h-1.18c-.81,0-1.4,.59-1.4,1.38l.5,59.63c0,.79,.59,1.38,1.4,1.38,.19,0,.59-.09,.79-.19,8.53-4.28,17.45-12.4,17.45-22.63,0-5.15-2.37-10.01-8.23-10.01m-8.63,27.98l.29-19.34c.2-.9,1.69-3.77,5.66-3.77,3.58,0,3.87,3.36,3.87,5.46,0,8.82-3.27,12.49-9.83,17.65"/><path d="M1577.99,148.64c-4.96,0-7.84,3.07-8.34,3.67l.4-31.85c0-.79-.59-1.38-1.4-1.38h-1.18c-.81,0-1.4,.59-1.4,1.38l.5,59.63c0,.79,.59,1.38,1.4,1.38,.19,0,.59-.09,.79-.19,8.53-4.28,17.45-12.4,17.45-22.63,0-5.15-2.37-10.01-8.23-10.01m-8.63,27.98l.29-19.34c.2-.9,1.69-3.77,5.66-3.77,3.58,0,3.87,3.36,3.87,5.46,0,8.82-3.27,12.49-9.83,17.65"/><path d="M1508.68,173.44c-4.96,0-7.84,3.07-8.34,3.67l.4-31.85c0-.79-.59-1.38-1.4-1.38h-1.18c-.81,0-1.4,.59-1.4,1.38l.5,59.63c0,.79,.59,1.38,1.4,1.38,.19,0,.59-.09,.79-.19,8.53-4.28,17.45-12.4,17.45-22.63,0-5.15-2.37-10.01-8.23-10.01m-8.63,27.98l.29-19.34c.2-.9,1.69-3.77,5.66-3.77,3.58,0,3.87,3.36,3.87,5.46,0,8.82-3.27,12.49-9.83,17.65"/><path d="M1439.38,210.64c-4.96,0-7.84,3.07-8.34,3.67l.4-31.85c0-.79-.59-1.38-1.4-1.38h-1.18c-.81,0-1.4,.59-1.4,1.38l.5,59.63c0,.79,.59,1.38,1.4,1.38,.19,0,.59-.09,.79-.19,8.53-4.28,17.45-12.4,17.45-22.63,0-5.15-2.37-10.01-8.23-10.01m-8.63,27.98l.29-19.34c.2-.9,1.69-3.77,5.66-3.77,3.58,0,3.87,3.36,3.87,5.46,0,8.82-3.27,12.49-9.83,17.65"/><path d="M1358.24,235.44c-4.96,0-7.84,3.07-8.34,3.67l.4-31.85c0-.79-.59-1.38-1.4-1.38h-1.18c-.81,0-1.4,.59-1.4,1.38l.5,59.63c0,.79,.59,1.38,1.4,1.38,.19,0,.59-.09,.79-.19,8.53-4.28,17.45-12.4,17.45-22.63,0-5.15-2.37-10.01-8.23-10.01m-8.63,27.98l.29-19.34c.2-.9,1.69-3.77,5.66-3.77,3.58,0,3.87,3.36,3.87,5.46,0,8.82-3.27,12.49-9.83,17.65"/><path d="M2189.24,260.24c-4.96,0-7.84,3.07-8.34,3.67l.4-31.85c0-.79-.59-1.38-1.4-1.38h-1.18c-.81,0-1.4,.59-1.4,1.38l.5,59.63c0,.79,.59,1.38,1.4,1.38,.19,0,.59-.09,.79-.19,8.53-4.28,17.45-12.4,17.45-22.63,0-5.15-2.37-10.01-8.23-10.01m-8.63,27.98l.29-19.34c.2-.9,1.69-3.77,5.66-3.77,3.58,0,3.87,3.36,3.87,5.46,0,8.82-3.27,12.49-9.83,17.65"/><line x1="1167" y1="238.42" x2="1215.6" y2="238.42" fill="none" stroke="#000" stroke-linejoin="bevel" stroke-width="3.97"/><line x1="1248.13" y1="263.22" x2="1296.73" y2="263.22" fill="none" stroke="#000" stroke-linejoin="bevel" stroke-width="3.97"/><line x1="1248.13" y1="238.42" x2="1296.73" y2="238.42" fill="none" stroke="#000" stroke-linejoin="bevel" stroke-width="3.97"/><line x1="559.39" y1="238.42" x2="607.99" y2="238.42" fill="none" stroke="#000" stroke-linejoin="bevel" stroke-width="3.97"/><line x1="1372.67" y1="238.42" x2="1421.27" y2="238.42" fill="none" stroke="#000" stroke-linejoin="bevel" stroke-width="3.97"/><line x1="2122.53" y1="238.42" x2="2171.13" y2="238.42" fill="none" stroke="#000" stroke-linejoin="bevel" stroke-width="3.97"/><line x1="2203.67" y1="263.22" x2="2252.27" y2="263.22" fill="none" stroke="#000" stroke-linejoin="bevel" stroke-width="3.97"/><line x1="2203.67" y1="238.42" x2="2252.27" y2="238.42" fill="none" stroke="#000" stroke-linejoin="bevel" stroke-width="3.97"/><line x1="176.61" y1="184.85" x2="176.61" y2="101.98" fill="none" stroke="#000" stroke-linejoin="bevel" stroke-width="2.48"/><line x1="245.91" y1="222.05" x2="245.91" y2="99.94" fill="none" stroke="#000" stroke-linejoin="bevel" stroke-width="2.48"/><line x1="315.22" y1="184.85" x2="315.22" y2="97.9" fill="none" stroke="#000" stroke-linejoin="bevel" stroke-width="2.48"/><line x1="384.52" y1="160.05" x2="384.52" y2="95.86" fill="none" stroke="#000" stroke-linejoin="bevel" stroke-width="2.48"/><line x1="453.83" y1="184.85" x2="453.83" y2="114.46" fill="none" stroke="#000" stroke-linejoin="bevel" stroke-width="2.48"/><line x1="523.13" y1="222.05" x2="523.13" y2="116.44" fill="none" stroke="#000" stroke-linejoin="bevel" stroke-width="2.48"/><line x1="598.56" y1="246.85" x2="598.56" y2="118.6" fill="none" stroke="#000" stroke-linejoin="bevel" stroke-width="2.48"/><line x1="667.87" y1="222.05" x2="667.87" y2="120.59" fill="none" stroke="#000" stroke-linejoin="bevel" stroke-width="2.48"/><line x1="754.47" y1="192.99" x2="754.47" y2="250.75" fill="none" stroke="#000" stroke-linejoin="bevel" stroke-width="2.48"/><line x1="823.77" y1="168.19" x2="823.77" y2="246.66" fill="none" stroke="#000" stroke-linejoin="bevel" stroke-width="2.48"/><line x1="893.08" y1="143.39" x2="893.08" y2="242.58" fill="none" stroke="#000" stroke-linejoin="bevel" stroke-width="2.48"/><line x1="962.38" y1="168.19" x2="962.38" y2="238.49" fill="none" stroke="#000" stroke-linejoin="bevel" stroke-width="2.48"/><line x1="1061.44" y1="184.85" x2="1061.44" y2="114.56" fill="none" stroke="#000" stroke-linejoin="bevel" stroke-width="2.48"/><line x1="1130.74" y1="222.05" x2="1130.74" y2="122.08" fill="none" stroke="#000" stroke-linejoin="bevel" stroke-width="2.48"/><line x1="1206.17" y1="246.85" x2="1206.17" y2="130.27" fill="none" stroke="#000" stroke-linejoin="bevel" stroke-width="2.48"/><line x1="1287.31" y1="271.65" x2="1287.31" y2="139.09" fill="none" stroke="#000" stroke-linejoin="bevel" stroke-width="2.48"/><line x1="1411.84" y1="246.85" x2="1411.84" y2="120.48" fill="none" stroke="#000" stroke-linejoin="bevel" stroke-width="2.48"/><line x1="1484.79" y1="222.05" x2="1484.79" y2="112.02" fill="none" stroke="#000" stroke-linejoin="bevel" stroke-width="2.48"/><line x1="1554.1" y1="184.85" x2="1554.1" y2="103.99" fill="none" stroke="#000" stroke-linejoin="bevel" stroke-width="2.48"/><line x1="1623.4" y1="160.05" x2="1623.4" y2="95.96" fill="none" stroke="#000" stroke-linejoin="bevel" stroke-width="2.48"/><line x1="1662.96" y1="143.39" x2="1662.96" y2="226.06" fill="none" stroke="#000" stroke-linejoin="bevel" stroke-width="2.48"/><line x1="1732.26" y1="130.99" x2="1732.26" y2="228.1" fill="none" stroke="#000" stroke-linejoin="bevel" stroke-width="2.48"/><line x1="1801.57" y1="143.39" x2="1801.57" y2="230.14" fill="none" stroke="#000" stroke-linejoin="bevel" stroke-width="2.48"/><line x1="1870.87" y1="168.19" x2="1870.87" y2="232.18" fill="none" stroke="#000" stroke-linejoin="bevel" stroke-width="2.48"/><line x1="2016.97" y1="184.85" x2="2016.97" y2="114.47" fill="none" stroke="#000" stroke-linejoin="bevel" stroke-width="2.48"/><line x1="2086.28" y1="222.05" x2="2086.28" y2="117.39" fill="none" stroke="#000" stroke-linejoin="bevel" stroke-width="2.48"/><line x1="2161.71" y1="246.85" x2="2161.71" y2="120.57" fill="none" stroke="#000" stroke-linejoin="bevel" stroke-width="2.48"/><line x1="2242.85" y1="271.65" x2="2242.85" y2="164.02" fill="none" stroke="#000" stroke-linejoin="bevel" stroke-width="2.48"/><path d="M2055.29,230.19c0,4.26,3.07,9.02,11.11,9.02,10.31,0,21.13-8.43,21.13-17.16,0-5.86-4.96-9.13-11.11-9.13-9.63,0-21.13,8.14-21.13,17.27"/><path d="M2130.72,254.99c0,4.26,3.07,9.02,11.11,9.02,10.31,0,21.13-8.43,21.13-17.16,0-5.86-4.96-9.13-11.11-9.13-9.63,0-21.13,8.14-21.13,17.27"/><path d="M492.14,230.19c0,4.26,3.07,9.02,11.11,9.02,10.31,0,21.13-8.43,21.13-17.16,0-5.86-4.96-9.13-11.11-9.13-9.63,0-21.13,8.14-21.13,17.27"/><path d="M422.83,192.99c0,4.26,3.07,9.02,11.11,9.02,10.31,0,21.13-8.43,21.13-17.16,0-5.86-4.96-9.13-11.11-9.13-9.63,0-21.13,8.14-21.13,17.27"/><path d="M353.53,168.19c0,4.26,3.07,9.02,11.11,9.02,10.31,0,21.13-8.43,21.13-17.16,0-5.86-4.96-9.13-11.11-9.13-9.63,0-21.13,8.14-21.13,17.27"/><path d="M284.22,192.99c0,4.26,3.07,9.02,11.11,9.02,10.31,0,21.13-8.43,21.13-17.16,0-5.86-4.96-9.13-11.11-9.13-9.63,0-21.13,8.14-21.13,17.27"/><path d="M214.92,230.19c0,4.26,3.07,9.02,11.11,9.02,10.31,0,21.13-8.43,21.13-17.16,0-5.86-4.96-9.13-11.11-9.13-9.63,0-21.13,8.14-21.13,17.27"/><path d="M145.62,192.99c0,4.26,3.07,9.02,11.11,9.02,10.31,0,21.13-8.43,21.13-17.16,0-5.86-4.96-9.13-11.11-9.13-9.63,0-21.13,8.14-21.13,17.27"/><path d="M2232.98,262.52c-9.63,0-21.13,8.04-21.13,17.27,0,4.26,3.07,9.02,11.11,9.02,10.31,0,21.13-8.43,21.13-17.16,0-5.86-4.96-9.13-11.11-9.13m-13.69,21.62c-3.27,0-3.97-2.67-3.97-3.57,0-4.87,16.66-13.39,21.33-13.39,2.39,0,3.97,1.4,3.97,3.57,0,4.96-16.77,13.39-21.33,13.39"/><path d="M567.57,254.99c0,4.26,3.07,9.02,11.11,9.02,10.31,0,21.13-8.43,21.13-17.16,0-5.86-4.96-9.13-11.11-9.13-9.63,0-21.13,8.14-21.13,17.27"/><path d="M636.88,230.19c0,4.26,3.07,9.02,11.11,9.02,10.31,0,21.13-8.43,21.13-17.16,0-5.86-4.96-9.13-11.11-9.13-9.63,0-21.13,8.14-21.13,17.27"/><path d="M753.23,192.99c0,4.26,3.07,9.02,11.11,9.02,10.31,0,21.13-8.43,21.13-17.16,0-5.86-4.96-9.13-11.11-9.13-9.63,0-21.13,8.14-21.13,17.27"/><path d="M822.53,168.19c0,4.26,3.07,9.02,11.11,9.02,10.31,0,21.13-8.43,21.13-17.16,0-5.86-4.96-9.13-11.11-9.13-9.63,0-21.13,8.14-21.13,17.27"/><path d="M891.84,143.39c0,4.26,3.07,9.02,11.11,9.02,10.31,0,21.13-8.43,21.13-17.16,0-5.86-4.96-9.13-11.11-9.13-9.63,0-21.13,8.14-21.13,17.27"/><path d="M961.14,168.19c0,4.26,3.07,9.02,11.11,9.02,10.31,0,21.13-8.43,21.13-17.16,0-5.86-4.96-9.13-11.11-9.13-9.63,0-21.13,8.14-21.13,17.27"/><path d="M1030.45,192.99c0,4.26,3.07,9.02,11.11,9.02,10.31,0,21.13-8.43,21.13-17.16,0-5.86-4.96-9.13-11.11-9.13-9.63,0-21.13,8.14-21.13,17.27"/><path d="M1099.75,230.19c0,4.26,3.07,9.02,11.11,9.02,10.31,0,21.13-8.43,21.13-17.16,0-5.86-4.96-9.13-11.11-9.13-9.63,0-21.13,8.14-21.13,17.27"/><path d="M1175.18,254.99c0,4.26,3.07,9.02,11.11,9.02,10.31,0,21.13-8.43,21.13-17.16,0-5.86-4.96-9.13-11.11-9.13-9.63,0-21.13,8.14-21.13,17.27"/><path d="M1256.32,279.79c0,4.26,3.07,9.02,11.11,9.02,10.31,0,21.13-8.43,21.13-17.16,0-5.86-4.96-9.13-11.11-9.13-9.63,0-21.13,8.14-21.13,17.27"/><path d="M1380.85,254.99c0,4.26,3.07,9.02,11.11,9.02,10.31,0,21.13-8.43,21.13-17.16,0-5.86-4.96-9.13-11.11-9.13-9.63,0-21.13,8.14-21.13,17.27"/><path d="M1453.8,230.19c0,4.26,3.07,9.02,11.11,9.02,10.31,0,21.13-8.43,21.13-17.16,0-5.86-4.96-9.13-11.11-9.13-9.63,0-21.13,8.14-21.13,17.27"/><path d="M1523.11,192.99c0,4.26,3.07,9.02,11.11,9.02,10.31,0,21.13-8.43,21.13-17.16,0-5.86-4.96-9.13-11.11-9.13-9.63,0-21.13,8.14-21.13,17.27"/><path d="M1592.41,168.19c0,4.26,3.07,9.02,11.11,9.02,10.31,0,21.13-8.43,21.13-17.16,0-5.86-4.96-9.13-11.11-9.13-9.63,0-21.13,8.14-21.13,17.27"/><path d="M1661.72,143.39c0,4.26,3.07,9.02,11.11,9.02,10.31,0,21.13-8.43,21.13-17.16,0-5.86-4.96-9.13-11.11-9.13-9.63,0-21.13,8.14-21.13,17.27"/><path d="M1731.02,130.99c0,4.26,3.07,9.02,11.11,9.02,10.31,0,21.13-8.43,21.13-17.16,0-5.86-4.96-9.13-11.11-9.13-9.63,0-21.13,8.14-21.13,17.27"/><path d="M1800.33,143.39c0,4.26,3.07,9.02,11.11,9.02,10.31,0,21.13-8.43,21.13-17.16,0-5.86-4.96-9.13-11.11-9.13-9.63,0-21.13,8.14-21.13,17.27"/><path d="M1869.63,168.19c0,4.26,3.07,9.02,11.11,9.02,10.31,0,21.13-8.43,21.13-17.16,0-5.86-4.96-9.13-11.11-9.13-9.63,0-21.13,8.14-21.13,17.27"/><path d="M1985.98,192.99c0,4.26,3.07,9.02,11.11,9.02,10.31,0,21.13-8.43,21.13-17.16,0-5.86-4.96-9.13-11.11-9.13-9.63,0-21.13,8.14-21.13,17.27"/><path d="M30.8,239.71c0,6.56,4.96,15.19,18.35,15.19,4.67,0,8.74-1.19,12.31-3.38,5.36-3.77,6.74-10.32,6.74-16.57,0-3.86-.59-8.32-1.58-13.98-.29-1.98-.9-4.96-1.49-8.84,9.72-3.18,16.96-13.3,16.96-23.51,0-14.97-10.62-25.09-25.09-25.09-.99-5.95-1.98-11.81-2.77-17.36,10.42-11.02,17.65-23.42,17.65-39.18,0-9.04-2.77-16.37-4.37-19.95-2.37-5.05-5.25-8.53-7.04-8.53-.7,0-3.77,1.19-7.04,5.05-6.36,7.55-8.14,20.24-8.14,28.57,0,5.36,.5,10.23,2.19,21.34-.11,.09-5.27,5.35-7.35,7.04-9.04,8.34-21.53,20.43-21.53,40.28,0,18.54,16.17,33.12,34.63,33.12,2.87,0,5.55-.29,7.83-.7,1.89,9.53,3.08,16.48,3.08,21.73,0,10.32-5.36,15.78-15.38,15.78-2.39,0-4.46-.5-4.67-.5-.09-.11-.29-.2-.29-.29,0-.2,.2-.31,.5-.31,4.67-.79,9.32-4.76,9.32-11.1,0-5.36-4.06-11.02-11.5-11.02-6.94,0-11.31,5.66-11.31,12.2M51.54,107.27c.9-3.97,5.46-14.38,10.62-14.38,1.49,0,3.86,4.76,3.86,11.7,0,10.32-7.63,18.06-14.48,24.8-.59-3.97-1.08-7.83-1.08-12,0-3.67,.29-7.05,1.08-10.12m8.73,101.97c-1.98,.4-3.86,.6-5.75,.6-14.18,0-26.29-9.92-26.29-24.91,0-12.09,8.53-22.91,17.27-30.46,1.67-1.49,3.27-2.87,4.76-4.36,.88,5.35,1.58,10.01,2.28,14.09-9.04,2.68-15.17,12.2-15.17,21.53,0,6.94,5.46,16.46,13.39,16.46,.79,0,1.69-.4,1.69-1.29s-.99-1.39-2.19-2.19c-3.88-2.39-6.06-4.96-6.06-9.83,0-6.05,4.57-10.91,10.32-12.29l5.75,32.63m14.09-18.35c0,7.05-2.88,14.29-9.92,17.17-2.08-11.9-4.76-27.68-5.46-32.05,8.93,0,15.38,6.06,15.38,14.88"/><path d="M2394.28,143.89c-.09,0-.29-.11-.4-.11-.59,0-1.09,.31-1.29,.81-2.28,4.56-7.04,10.71-12.4,11.7,1.09-1.29,1.78-2.88,1.78-4.76,0-3.87-3.18-7.05-7.04-7.05s-7.15,3.18-7.15,7.05c0,5.35,5.25,7.83,9.92,7.83,5.25,0,8.73-2.48,12.11-6.15l-11.31,35.32,2.68,.79,13.89-43.74c.11-.11,.11-.31,.11-.5,0-.5-.31-.9-.9-1.19"/><path d="M1069.29,72.47c-9.32-10.12-17.56-10.71-22.71-10.71s-13.3,.59-22.63,10.71c-4.85,5.36-8.23,15.97-8.23,21.33,0,1.89,.4,3.18,1.4,3.18,2.77,0,1.38-8.54,9.72-16.97,7.33-7.33,17.16-7.44,19.55-7.44h.39c2.39,0,12.21,.11,19.55,7.44,8.34,8.43,6.94,16.97,9.72,16.97,.99,0,1.39-1.19,1.39-3.18,0-5.36-3.27-16.07-8.14-21.33m-29.56,18.94c0,3.78,3.07,6.85,6.85,6.85s6.84-3.07,6.84-6.85-3.07-6.84-6.84-6.84-6.85,3.07-6.85,6.84"/><path d="M2024.82,72.51c-9.32-10.12-17.56-10.71-22.71-10.71s-13.3,.59-22.63,10.71c-4.85,5.36-8.23,15.97-8.23,21.33,0,1.89,.4,3.18,1.4,3.18,2.77,0,1.38-8.54,9.72-16.97,7.33-7.33,17.16-7.44,19.55-7.44h.39c2.39,0,12.21,.11,19.55,7.44,8.34,8.43,6.94,16.97,9.72,16.97,.99,0,1.39-1.19,1.39-3.18,0-5.36-3.27-16.07-8.14-21.33m-29.56,18.94c0,3.78,3.07,6.85,6.85,6.85s6.84-3.07,6.84-6.85-3.07-6.84-6.84-6.84-6.85,3.07-6.85,6.84"/><path d="M184.45,59.42c-9.32-10.12-17.56-10.71-22.71-10.71s-13.3,.59-22.63,10.71c-4.85,5.36-8.23,15.97-8.23,21.33,0,1.89,.4,3.18,1.4,3.18,2.77,0,1.38-8.54,9.72-16.97,7.33-7.33,17.16-7.44,19.55-7.44h.39c2.39,0,12.21,.11,19.55,7.44,8.34,8.43,6.94,16.97,9.72,16.97,.99,0,1.39-1.19,1.39-3.18,0-5.36-3.27-16.07-8.14-21.33m-29.56,18.94c0,3.78,3.07,6.85,6.85,6.85s6.84-3.07,6.84-6.85-3.07-6.84-6.84-6.84-6.85,3.07-6.85,6.84"/><path d="M461.67,72.51c-9.32-10.12-17.56-10.71-22.71-10.71s-13.3,.59-22.63,10.71c-4.85,5.36-8.23,15.97-8.23,21.33,0,1.89,.4,3.18,1.4,3.18,2.77,0,1.38-8.54,9.72-16.97,7.33-7.33,17.16-7.44,19.55-7.44h.39c2.39,0,12.21,.11,19.55,7.44,8.34,8.43,6.94,16.97,9.72,16.97,.99,0,1.39-1.19,1.39-3.18,0-5.36-3.27-16.07-8.14-21.33m-29.56,18.94c0,3.78,3.07,6.85,6.85,6.85s6.84-3.07,6.84-6.85-3.07-6.84-6.84-6.84-6.85,3.07-6.85,6.84"/><path d="M753.23,244.61l210.39-12.4v12.42l-210.39,12.4v-12.42" fill-rule="evenodd"/><path d="M1661.72,219.82l210.39,6.2v12.4l-210.39-6.2v-12.4" fill-rule="evenodd"/><path d="M1060.2,108.18l228.35,24.8v12.48l-228.35-24.8v-12.48" fill-rule="evenodd"/><path d="M1410.6,114.38l214.04-24.8v12.48l-214.04,24.8v-12.48" fill-rule="evenodd"/><path d="M175.37,95.82l210.4-6.2v12.4l-210.4,6.2v-12.4" fill-rule="evenodd"/><path d="M2015.73,108.22l147.22,6.2v12.41l-147.22-6.2v-12.41" fill-rule="evenodd"/><path d="M452.59,108.22l216.52,6.2v12.4l-216.52-6.2v-12.4" fill-rule="evenodd"/><path d="M578.66,54.42c-1.69,2.04-6.3,3.59-10.89,3.7v2.14h4.39c2.91,.06,3.2,.36,3.11,3.16v20.04c0,2.57,0,2.66-.3,3.11-.41,.5-1.36,.71-4.16,.71h-3.25v2.34h19.8v-2.34h-2.75c-2.8,0-3.75-.21-4.14-.71-.36-.45-.36-.5-.36-3.11v-20.64c0-2.81,.11-5.15,.36-8.4h-1.81"/><path d="M156.71,0c-1.69,2.05-6.3,3.6-10.89,3.71v2.14h4.39c2.91,.06,3.2,.36,3.11,3.15V29.05c0,2.56,0,2.66-.3,3.11-.41,.5-1.36,.7-4.16,.7h-3.25v2.35h19.8v-2.35h-2.75c-2.8,0-3.75-.2-4.14-.7-.36-.45-.36-.5-.36-3.11V8.41c0-2.81,.11-5.16,.36-8.41h-1.81m37.16,24.41h-2.2l-.5,2.55c-.64,3.25-1.05,3.54-4.14,3.54h-11.2c3.45-3.59,4.59-4.64,7.8-7.14,4.55-3.5,6.5-5.25,7.66-6.75,1.59-2.2,2.39-4.4,2.39-6.86,0-5.7-4.7-9.75-11.25-9.75s-11.2,4.05-11.2,9.41c0,3.14,1.61,5.3,3.95,5.3,1.86,0,3.11-1.25,3.11-3.05,0-1.25-.7-2.41-1.75-2.86-1.86-.75-1.95-.84-1.95-1.5,0-.75,.5-1.89,1.2-2.75,1.25-1.55,3.3-2.39,5.64-2.39,4.16,0,6.61,2.55,6.61,6.75,0,3.7-1.75,7.05-5.91,11.45-3.7,3.89-6,6.35-6.84,7.3-1.81,2.09-2.7,3.25-4.91,6.14v1.41h22.55l.95-10.8m20.05-7.61c4.55-1.64,6.66-4.19,6.66-8.2,0-5.25-4-8.6-10.2-8.6-5.84,0-10.3,3.46-10.3,8,0,2.05,1.34,3.5,3.3,3.5,1.75,0,2.95-1.2,2.95-3,0-1.09-.41-1.75-1.55-2.54-.5-.36-.66-.55-.66-.91,0-1.39,2.91-2.89,5.75-2.89,3.59,0,5.5,2.25,5.5,6.5,0,4.64-1.91,7.09-5.45,7.09-.45,0-1.3-.04-2.05-.09-.41-.05-.8-.05-1.09-.05-1.06,0-1.61,.44-1.61,1.35,0,.84,.5,1.25,1.61,1.25,.3,0,.69,0,1.14-.05,1-.05,1.8-.05,2.36-.05,3.69,0,5.69,2.64,5.69,7.6s-2.5,8.09-7,8.09c-3.14,0-6.55-1.69-6.55-3.25,0-.44,.11-.55,1.05-1.09,1.41-.85,1.95-1.71,1.95-2.96,0-1.79-1.34-3.14-3.14-3.14-2.16,0-3.56,1.75-3.56,4.39,0,4.86,4.45,8.21,10.86,8.21,7.25,0,11.95-4,11.95-10.16,0-4.69-2.41-7.55-7.61-9"/><path d="M1186.27,54.42c-1.68,2.04-6.29,3.59-10.89,3.7v2.14h4.39c2.91,.06,3.21,.36,3.11,3.16v20.04c0,2.57,0,2.66-.29,3.11-.41,.5-1.36,.71-4.16,.71h-3.25v2.34h19.8v-2.34h-2.75c-2.8,0-3.75-.21-4.14-.71-.36-.45-.36-.5-.36-3.11v-20.64c0-2.81,.11-5.15,.36-8.4h-1.82"/><path d="M2141.81,54.42c-1.69,2.04-6.29,3.59-10.89,3.7v2.14h4.39c2.91,.06,3.21,.36,3.11,3.16v20.04c0,2.57,0,2.66-.3,3.11-.4,.5-1.35,.71-4.15,.71h-3.25v2.34h19.8v-2.34h-2.75c-2.8,0-3.75-.21-4.15-.71-.35-.45-.35-.5-.35-3.11v-20.64c0-2.81,.1-5.15,.35-8.4h-1.81"/><path d="M1391.94,54.42c-1.68,2.04-6.29,3.59-10.89,3.7v2.14h4.39c2.91,.06,3.21,.36,3.11,3.16v20.04c0,2.57,0,2.66-.29,3.11-.41,.5-1.36,.71-4.16,.71h-3.25v2.34h19.8v-2.34h-2.75c-2.8,0-3.75-.21-4.14-.71-.36-.45-.36-.5-.36-3.11v-20.64c0-2.81,.11-5.15,.36-8.4h-1.82"/></g></svg>