<?xml version="1.0" encoding="UTF-8"?><svg id="b" xmlns="http://www.w3.org/2000/svg" viewBox="0 0 2552 519.7"><g id="c"><line y1="45.54" x2="2552" y2="45.54" fill="none" stroke="#000" stroke-linejoin="bevel" stroke-width="2.73"/><line y1="70.34" x2="2552" y2="70.34" fill="none" stroke="#000" stroke-linejoin="bevel" stroke-width="2.73"/><line y1="95.14" x2="2552" y2="95.14" fill="none" stroke="#000" stroke-linejoin="bevel" stroke-width="2.73"/><line y1="119.94" x2="2552" y2="119.94" fill="none" stroke="#000" stroke-linejoin="bevel" stroke-width="2.73"/><line y1="144.74" x2="2552" y2="144.74" fill="none" stroke="#000" stroke-linejoin="bevel" stroke-width="2.73"/><line y1="379.22" x2="2552" y2="379.22" fill="none" stroke="#000" stroke-linejoin="bevel" stroke-width="2.73"/><line y1="404.02" x2="2552" y2="404.02" fill="none" stroke="#000" stroke-linejoin="bevel" stroke-width="2.73"/><line y1="428.82" x2="2552" y2="428.82" fill="none" stroke="#000" stroke-linejoin="bevel" stroke-width="2.73"/><line y1="453.62" x2="2552" y2="453.62" fill="none" stroke="#000" stroke-linejoin="bevel" stroke-width="2.73"/><line y1="478.42" x2="2552" y2="478.42" fill="none" stroke="#000" stroke-linejoin="bevel" stroke-width="2.73"/><line x1="1450.3" y1="377.86" x2="1450.3" y2="479.78" fill="none" stroke="#000" stroke-linejoin="bevel" stroke-width="4.46"/><line x1="2536.13" y1="377.86" x2="2536.13" y2="479.78" fill="none" stroke="#000" stroke-linejoin="bevel" stroke-width="4.46"/><line x1="2549.77" y1="377.86" x2="2549.77" y2="479.78" fill="none" stroke="#000" stroke-linejoin="bevel" stroke-width="4.46"/><line x1="2055.38" y1="377.86" x2="2055.38" y2="479.78" fill="none" stroke="#000" stroke-linejoin="bevel" stroke-width="4.46"/><line x1="2549.77" y1="44.18" x2="2549.77" y2="146.1" fill="none" stroke="#000" stroke-linejoin="bevel" stroke-width="4.46"/><line x1="2066.2" y1="44.18" x2="2066.2" y2="146.1" fill="none" stroke="#000" stroke-linejoin="bevel" stroke-width="4.46"/><line x1="1457.52" y1="44.18" x2="1457.52" y2="146.1" fill="none" stroke="#000" stroke-linejoin="bevel" stroke-width="4.46"/><line x1="845.23" y1="377.86" x2="845.23" y2="479.78" fill="none" stroke="#000" stroke-linejoin="bevel" stroke-width="4.46"/><line x1="848.83" y1="44.18" x2="848.83" y2="146.1" fill="none" stroke="#000" stroke-linejoin="bevel" stroke-width="4.46"/><line x1="305.62" y1="140.77" x2="305.62" y2="45.54" fill="none" stroke="#000" stroke-linejoin="bevel" stroke-width="2.48"/><line x1="377.11" y1="128.37" x2="377.11" y2="45.54" fill="none" stroke="#000" stroke-linejoin="bevel" stroke-width="2.48"/><line x1="448.61" y1="115.97" x2="448.61" y2="45.54" fill="none" stroke="#000" stroke-linejoin="bevel" stroke-width="2.48"/><line x1="520.11" y1="140.77" x2="520.11" y2="45.54" fill="none" stroke="#000" stroke-linejoin="bevel" stroke-width="2.48"/><line x1="591.61" y1="128.37" x2="591.61" y2="39.34" fill="none" stroke="#000" stroke-linejoin="bevel" stroke-width="2.48"/><line x1="663.1" y1="115.97" x2="663.1" y2="39.34" fill="none" stroke="#000" stroke-linejoin="bevel" stroke-width="2.48"/><line x1="734.6" y1="103.57" x2="734.6" y2="39.34" fill="none" stroke="#000" stroke-linejoin="bevel" stroke-width="2.48"/><line x1="806.1" y1="128.37" x2="806.1" y2="39.34" fill="none" stroke="#000" stroke-linejoin="bevel" stroke-width="2.48"/><line x1="914.3" y1="115.97" x2="914.3" y2="26.94" fill="none" stroke="#000" stroke-linejoin="bevel" stroke-width="2.48"/><line x1="985.8" y1="103.57" x2="985.8" y2="26.94" fill="none" stroke="#000" stroke-linejoin="bevel" stroke-width="2.48"/><line x1="1057.3" y1="91.17" x2="1057.3" y2="26.94" fill="none" stroke="#000" stroke-linejoin="bevel" stroke-width="2.48"/><line x1="1128.79" y1="115.97" x2="1128.79" y2="26.94" fill="none" stroke="#000" stroke-linejoin="bevel" stroke-width="2.48"/><line x1="1170.54" y1="111.71" x2="1170.54" y2="175.74" fill="none" stroke="#000" stroke-linejoin="bevel" stroke-width="2.48"/><line x1="1242.03" y1="99.31" x2="1242.03" y2="175.74" fill="none" stroke="#000" stroke-linejoin="bevel" stroke-width="2.48"/><line x1="1313.53" y1="86.91" x2="1313.53" y2="175.74" fill="none" stroke="#000" stroke-linejoin="bevel" stroke-width="2.48"/><line x1="1385.03" y1="111.71" x2="1385.03" y2="175.74" fill="none" stroke="#000" stroke-linejoin="bevel" stroke-width="2.48"/><line x1="1493.23" y1="99.31" x2="1493.23" y2="163.34" fill="none" stroke="#000" stroke-linejoin="bevel" stroke-width="2.48"/><line x1="1564.73" y1="86.91" x2="1564.73" y2="163.34" fill="none" stroke="#000" stroke-linejoin="bevel" stroke-width="2.48"/><line x1="1636.23" y1="74.51" x2="1636.23" y2="163.34" fill="none" stroke="#000" stroke-linejoin="bevel" stroke-width="2.48"/><line x1="1707.73" y1="99.31" x2="1707.73" y2="163.34" fill="none" stroke="#000" stroke-linejoin="bevel" stroke-width="2.48"/><line x1="1779.22" y1="86.91" x2="1779.22" y2="150.94" fill="none" stroke="#000" stroke-linejoin="bevel" stroke-width="2.48"/><line x1="1850.72" y1="74.51" x2="1850.72" y2="150.94" fill="none" stroke="#000" stroke-linejoin="bevel" stroke-width="2.48"/><line x1="1922.22" y1="62.11" x2="1922.22" y2="150.94" fill="none" stroke="#000" stroke-linejoin="bevel" stroke-width="2.48"/><line x1="1993.71" y1="86.91" x2="1993.71" y2="150.94" fill="none" stroke="#000" stroke-linejoin="bevel" stroke-width="2.48"/><line x1="2101.92" y1="74.51" x2="2101.92" y2="144.74" fill="none" stroke="#000" stroke-linejoin="bevel" stroke-width="2.48"/><line x1="2173.42" y1="62.11" x2="2173.42" y2="144.74" fill="none" stroke="#000" stroke-linejoin="bevel" stroke-width="2.48"/><line x1="2244.91" y1="49.71" x2="2244.91" y2="144.74" fill="none" stroke="#000" stroke-linejoin="bevel" stroke-width="2.48"/><line x1="2316.41" y1="74.51" x2="2316.41" y2="144.74" fill="none" stroke="#000" stroke-linejoin="bevel" stroke-width="2.48"/><line x1="2387.91" y1="62.11" x2="2387.91" y2="144.74" fill="none" stroke="#000" stroke-linejoin="bevel" stroke-width="2.48"/><line x1="275.87" y1="395.79" x2="275.87" y2="484.62" fill="none" stroke="#000" stroke-linejoin="bevel" stroke-width="2.48"/><line x1="346.91" y1="408.19" x2="346.91" y2="484.62" fill="none" stroke="#000" stroke-linejoin="bevel" stroke-width="2.48"/><line x1="417.96" y1="420.59" x2="417.96" y2="484.62" fill="none" stroke="#000" stroke-linejoin="bevel" stroke-width="2.48"/><line x1="489.01" y1="395.79" x2="489.01" y2="484.62" fill="none" stroke="#000" stroke-linejoin="bevel" stroke-width="2.48"/><line x1="560.05" y1="408.19" x2="560.05" y2="497.02" fill="none" stroke="#000" stroke-linejoin="bevel" stroke-width="2.48"/><line x1="631.1" y1="420.59" x2="631.1" y2="497.02" fill="none" stroke="#000" stroke-linejoin="bevel" stroke-width="2.48"/><line x1="702.14" y1="432.99" x2="702.14" y2="497.02" fill="none" stroke="#000" stroke-linejoin="bevel" stroke-width="2.48"/><line x1="773.19" y1="408.19" x2="773.19" y2="497.02" fill="none" stroke="#000" stroke-linejoin="bevel" stroke-width="2.48"/><line x1="880.94" y1="420.59" x2="880.94" y2="509.42" fill="none" stroke="#000" stroke-linejoin="bevel" stroke-width="2.48"/><line x1="951.99" y1="432.99" x2="951.99" y2="509.42" fill="none" stroke="#000" stroke-linejoin="bevel" stroke-width="2.48"/><line x1="1023.04" y1="445.39" x2="1023.04" y2="509.42" fill="none" stroke="#000" stroke-linejoin="bevel" stroke-width="2.48"/><line x1="1094.08" y1="420.59" x2="1094.08" y2="509.42" fill="none" stroke="#000" stroke-linejoin="bevel" stroke-width="2.48"/><line x1="1194.88" y1="424.85" x2="1194.88" y2="360.62" fill="none" stroke="#000" stroke-linejoin="bevel" stroke-width="2.48"/><line x1="1265.93" y1="437.25" x2="1265.93" y2="360.62" fill="none" stroke="#000" stroke-linejoin="bevel" stroke-width="2.48"/><line x1="1336.97" y1="449.65" x2="1336.97" y2="360.62" fill="none" stroke="#000" stroke-linejoin="bevel" stroke-width="2.48"/><line x1="1408.02" y1="424.85" x2="1408.02" y2="360.62" fill="none" stroke="#000" stroke-linejoin="bevel" stroke-width="2.48"/><line x1="1515.77" y1="437.25" x2="1515.77" y2="373.02" fill="none" stroke="#000" stroke-linejoin="bevel" stroke-width="2.48"/><line x1="1586.82" y1="449.65" x2="1586.82" y2="373.02" fill="none" stroke="#000" stroke-linejoin="bevel" stroke-width="2.48"/><line x1="1657.87" y1="462.05" x2="1657.87" y2="373.02" fill="none" stroke="#000" stroke-linejoin="bevel" stroke-width="2.48"/><line x1="1728.91" y1="437.25" x2="1728.91" y2="373.02" fill="none" stroke="#000" stroke-linejoin="bevel" stroke-width="2.48"/><line x1="1799.96" y1="449.65" x2="1799.96" y2="379.22" fill="none" stroke="#000" stroke-linejoin="bevel" stroke-width="2.48"/><line x1="1871" y1="462.05" x2="1871" y2="379.22" fill="none" stroke="#000" stroke-linejoin="bevel" stroke-width="2.48"/><line x1="1942.05" y1="474.45" x2="1942.05" y2="379.22" fill="none" stroke="#000" stroke-linejoin="bevel" stroke-width="2.48"/><line x1="2013.1" y1="449.65" x2="2013.1" y2="379.22" fill="none" stroke="#000" stroke-linejoin="bevel" stroke-width="2.48"/><line x1="2120.85" y1="462.05" x2="2120.85" y2="385.42" fill="none" stroke="#000" stroke-linejoin="bevel" stroke-width="2.48"/><line x1="2191.9" y1="474.45" x2="2191.9" y2="385.42" fill="none" stroke="#000" stroke-linejoin="bevel" stroke-width="2.48"/><line x1="2262.94" y1="486.85" x2="2262.94" y2="385.42" fill="none" stroke="#000" stroke-linejoin="bevel" stroke-width="2.48"/><line x1="2333.99" y1="462.05" x2="2333.99" y2="385.42" fill="none" stroke="#000" stroke-linejoin="bevel" stroke-width="2.48"/><line x1="2405.04" y1="474.45" x2="2405.04" y2="391.62" fill="none" stroke="#000" stroke-linejoin="bevel" stroke-width="2.48"/><path d="M1697.92,445.39c0,4.26,3.07,9.02,11.11,9.02,10.31,0,21.13-8.43,21.13-17.16,0-5.86-4.96-9.13-11.11-9.13-9.63,0-21.13,8.14-21.13,17.27"/><path d="M1026.3,99.31c0,4.26,3.07,9.02,11.11,9.02,10.31,0,21.13-8.43,21.13-17.16,0-5.86-4.96-9.13-11.11-9.13-9.63,0-21.13,8.14-21.13,17.27"/><path d="M954.81,111.71c0,4.26,3.07,9.02,11.11,9.02,10.31,0,21.13-8.43,21.13-17.16,0-5.86-4.96-9.13-11.11-9.13-9.63,0-21.13,8.14-21.13,17.27"/><path d="M274.62,148.91c0,4.26,3.07,9.02,11.11,9.02,10.31,0,21.13-8.43,21.13-17.16,0-5.86-4.96-9.13-11.11-9.13-9.63,0-21.13,8.14-21.13,17.27"/><path d="M346.12,136.51c0,4.26,3.07,9.02,11.11,9.02,10.31,0,21.13-8.43,21.13-17.16,0-5.86-4.96-9.13-11.11-9.13-9.63,0-21.13,8.14-21.13,17.27"/><path d="M417.62,124.11c0,4.26,3.07,9.02,11.11,9.02,10.31,0,21.13-8.43,21.13-17.16,0-5.86-4.96-9.13-11.11-9.13-9.63,0-21.13,8.14-21.13,17.27"/><path d="M489.12,148.91c0,4.26,3.07,9.02,11.11,9.02,10.31,0,21.13-8.43,21.13-17.16,0-5.86-4.96-9.13-11.11-9.13-9.63,0-21.13,8.14-21.13,17.27"/><path d="M560.61,136.51c0,4.26,3.07,9.02,11.11,9.02,10.31,0,21.13-8.43,21.13-17.16,0-5.86-4.96-9.13-11.11-9.13-9.63,0-21.13,8.14-21.13,17.27"/><path d="M632.11,124.11c0,4.26,3.07,9.02,11.11,9.02,10.31,0,21.13-8.43,21.13-17.16,0-5.86-4.96-9.13-11.11-9.13-9.63,0-21.13,8.14-21.13,17.27"/><path d="M703.61,111.71c0,4.26,3.07,9.02,11.11,9.02,10.31,0,21.13-8.43,21.13-17.16,0-5.86-4.96-9.13-11.11-9.13-9.63,0-21.13,8.14-21.13,17.27"/><path d="M775.1,136.51c0,4.26,3.07,9.02,11.11,9.02,10.31,0,21.13-8.43,21.13-17.16,0-5.86-4.96-9.13-11.11-9.13-9.63,0-21.13,8.14-21.13,17.27"/><path d="M883.31,124.11c0,4.26,3.07,9.02,11.11,9.02,10.31,0,21.13-8.43,21.13-17.16,0-5.86-4.96-9.13-11.11-9.13-9.63,0-21.13,8.14-21.13,17.27"/><path d="M1377.03,432.99c0,4.26,3.07,9.02,11.11,9.02,10.31,0,21.13-8.43,21.13-17.16,0-5.86-4.96-9.13-11.11-9.13-9.63,0-21.13,8.14-21.13,17.27"/><path d="M1305.98,457.79c0,4.26,3.07,9.02,11.11,9.02,10.31,0,21.13-8.43,21.13-17.16,0-5.86-4.96-9.13-11.11-9.13-9.63,0-21.13,8.14-21.13,17.27"/><path d="M1234.93,445.39c0,4.26,3.07,9.02,11.11,9.02,10.31,0,21.13-8.43,21.13-17.16,0-5.86-4.96-9.13-11.11-9.13-9.63,0-21.13,8.14-21.13,17.27"/><path d="M274.63,395.79c0,4.26,3.07,9.02,11.11,9.02,10.31,0,21.13-8.43,21.13-17.16,0-5.86-4.96-9.13-11.11-9.13-9.63,0-21.13,8.14-21.13,17.27"/><path d="M2407.8,44.84c-9.63,0-21.13,8.04-21.13,17.27,0,4.26,3.07,9.02,11.11,9.02,10.31,0,21.13-8.43,21.13-17.16,0-5.86-4.96-9.13-11.11-9.13m-13.69,21.62c-3.27,0-3.97-2.67-3.97-3.56,0-4.87,16.66-13.39,21.33-13.39,2.39,0,3.97,1.39,3.97,3.56,0,4.96-16.77,13.39-21.33,13.39"/><path d="M2089.86,470.19c0,4.26,3.07,9.02,11.11,9.02,10.31,0,21.13-8.43,21.13-17.16,0-5.86-4.96-9.13-11.11-9.13-9.63,0-21.13,8.14-21.13,17.27"/><path d="M2315.17,74.51c0,4.26,3.07,9.02,11.11,9.02,10.31,0,21.13-8.43,21.13-17.16,0-5.86-4.96-9.13-11.11-9.13-9.63,0-21.13,8.14-21.13,17.27"/><path d="M2243.67,49.71c0,4.26,3.07,9.02,11.11,9.02,10.31,0,21.13-8.43,21.13-17.16,0-5.86-4.96-9.13-11.11-9.13-9.63,0-21.13,8.14-21.13,17.27"/><path d="M2172.18,62.11c0,4.26,3.07,9.02,11.11,9.02,10.31,0,21.13-8.43,21.13-17.16,0-5.86-4.96-9.13-11.11-9.13-9.63,0-21.13,8.14-21.13,17.27"/><path d="M2100.68,74.51c0,4.26,3.07,9.02,11.11,9.02,10.31,0,21.13-8.43,21.13-17.16,0-5.86-4.96-9.13-11.11-9.13-9.63,0-21.13,8.14-21.13,17.27"/><path d="M1992.47,86.91c0,4.26,3.07,9.02,11.11,9.02,10.31,0,21.13-8.43,21.13-17.16,0-5.86-4.96-9.13-11.11-9.13-9.63,0-21.13,8.14-21.13,17.27"/><path d="M1982.1,457.79c0,4.26,3.07,9.02,11.11,9.02,10.31,0,21.13-8.43,21.13-17.16,0-5.86-4.96-9.13-11.11-9.13-9.63,0-21.13,8.14-21.13,17.27"/><path d="M1163.89,432.99c0,4.26,3.07,9.02,11.11,9.02,10.31,0,21.13-8.43,21.13-17.16,0-5.86-4.96-9.13-11.11-9.13-9.63,0-21.13,8.14-21.13,17.27"/><path d="M700.9,432.99c0,4.26,3.07,9.02,11.11,9.02,10.31,0,21.13-8.43,21.13-17.16,0-5.86-4.96-9.13-11.11-9.13-9.63,0-21.13,8.14-21.13,17.27"/><path d="M629.86,420.59c0,4.26,3.07,9.02,11.11,9.02,10.31,0,21.13-8.43,21.13-17.16,0-5.86-4.96-9.13-11.11-9.13-9.63,0-21.13,8.14-21.13,17.27"/><path d="M1768.97,457.79c0,4.26,3.07,9.02,11.11,9.02,10.31,0,21.13-8.43,21.13-17.16,0-5.86-4.96-9.13-11.11-9.13-9.63,0-21.13,8.14-21.13,17.27"/><path d="M2160.9,482.59c0,4.26,3.07,9.02,11.11,9.02,10.31,0,21.13-8.43,21.13-17.16,0-5.86-4.96-9.13-11.11-9.13-9.63,0-21.13,8.14-21.13,17.27"/><path d="M1920.98,62.11c0,4.26,3.07,9.02,11.11,9.02,10.31,0,21.13-8.43,21.13-17.16,0-5.86-4.96-9.13-11.11-9.13-9.63,0-21.13,8.14-21.13,17.27"/><path d="M1849.48,74.51c0,4.26,3.07,9.02,11.11,9.02,10.31,0,21.13-8.43,21.13-17.16,0-5.86-4.96-9.13-11.11-9.13-9.63,0-21.13,8.14-21.13,17.27"/><path d="M2231.95,494.99c0,4.26,3.07,9.02,11.11,9.02,10.31,0,21.13-8.43,21.13-17.16,0-5.86-4.96-9.13-11.11-9.13-9.63,0-21.13,8.14-21.13,17.27"/><path d="M1626.87,470.19c0,4.26,3.07,9.02,11.11,9.02,10.31,0,21.13-8.43,21.13-17.16,0-5.86-4.96-9.13-11.11-9.13-9.63,0-21.13,8.14-21.13,17.27"/><path d="M558.81,408.19c0,4.26,3.07,9.02,11.11,9.02,10.31,0,21.13-8.43,21.13-17.16,0-5.86-4.96-9.13-11.11-9.13-9.63,0-21.13,8.14-21.13,17.27"/><path d="M1777.98,86.91c0,4.26,3.07,9.02,11.11,9.02,10.31,0,21.13-8.43,21.13-17.16,0-5.86-4.96-9.13-11.11-9.13-9.63,0-21.13,8.14-21.13,17.27"/><path d="M1706.49,99.31c0,4.26,3.07,9.02,11.11,9.02,10.31,0,21.13-8.43,21.13-17.16,0-5.86-4.96-9.13-11.11-9.13-9.63,0-21.13,8.14-21.13,17.27"/><path d="M2303,470.19c0,4.26,3.07,9.02,11.11,9.02,10.31,0,21.13-8.43,21.13-17.16,0-5.86-4.96-9.13-11.11-9.13-9.63,0-21.13,8.14-21.13,17.27"/><path d="M1840.01,470.19c0,4.26,3.07,9.02,11.11,9.02,10.31,0,21.13-8.43,21.13-17.16,0-5.86-4.96-9.13-11.11-9.13-9.63,0-21.13,8.14-21.13,17.27"/><path d="M2395.17,465.32c-9.63,0-21.13,8.04-21.13,17.27,0,4.26,3.07,9.02,11.11,9.02,10.31,0,21.13-8.43,21.13-17.16,0-5.86-4.96-9.13-11.11-9.13m-13.69,21.62c-3.27,0-3.97-2.67-3.97-3.56,0-4.87,16.66-13.39,21.33-13.39,2.39,0,3.97,1.39,3.97,3.56,0,4.96-16.77,13.39-21.33,13.39"/><path d="M1634.99,74.51c0,4.26,3.07,9.02,11.11,9.02,10.31,0,21.13-8.43,21.13-17.16,0-5.86-4.96-9.13-11.11-9.13-9.63,0-21.13,8.14-21.13,17.27"/><path d="M1563.49,86.91c0,4.26,3.07,9.02,11.11,9.02,10.31,0,21.13-8.43,21.13-17.16,0-5.86-4.96-9.13-11.11-9.13-9.63,0-21.13,8.14-21.13,17.27"/><path d="M1092.84,420.59c0,4.26,3.07,9.02,11.11,9.02,10.31,0,21.13-8.43,21.13-17.16,0-5.86-4.96-9.13-11.11-9.13-9.63,0-21.13,8.14-21.13,17.27"/><path d="M1021.8,445.39c0,4.26,3.07,9.02,11.11,9.02,10.31,0,21.13-8.43,21.13-17.16,0-5.86-4.96-9.13-11.11-9.13-9.63,0-21.13,8.14-21.13,17.27"/><path d="M1484.78,445.39c0,4.26,3.07,9.02,11.11,9.02,10.31,0,21.13-8.43,21.13-17.16,0-5.86-4.96-9.13-11.11-9.13-9.63,0-21.13,8.14-21.13,17.27"/><path d="M1491.99,99.31c0,4.26,3.07,9.02,11.11,9.02,10.31,0,21.13-8.43,21.13-17.16,0-5.86-4.96-9.13-11.11-9.13-9.63,0-21.13,8.14-21.13,17.27"/><path d="M1383.79,111.71c0,4.26,3.07,9.02,11.11,9.02,10.31,0,21.13-8.43,21.13-17.16,0-5.86-4.96-9.13-11.11-9.13-9.63,0-21.13,8.14-21.13,17.27"/><path d="M950.75,432.99c0,4.26,3.07,9.02,11.11,9.02,10.31,0,21.13-8.43,21.13-17.16,0-5.86-4.96-9.13-11.11-9.13-9.63,0-21.13,8.14-21.13,17.27"/><path d="M487.77,395.79c0,4.26,3.07,9.02,11.11,9.02,10.31,0,21.13-8.43,21.13-17.16,0-5.86-4.96-9.13-11.11-9.13-9.63,0-21.13,8.14-21.13,17.27"/><path d="M416.72,420.59c0,4.26,3.07,9.02,11.11,9.02,10.31,0,21.13-8.43,21.13-17.16,0-5.86-4.96-9.13-11.11-9.13-9.63,0-21.13,8.14-21.13,17.27"/><path d="M345.67,408.19c0,4.26,3.07,9.02,11.11,9.02,10.31,0,21.13-8.43,21.13-17.16,0-5.86-4.96-9.13-11.11-9.13-9.63,0-21.13,8.14-21.13,17.27"/><path d="M1312.29,86.91c0,4.26,3.07,9.02,11.11,9.02,10.31,0,21.13-8.43,21.13-17.16,0-5.86-4.96-9.13-11.11-9.13-9.63,0-21.13,8.14-21.13,17.27"/><path d="M1240.79,99.31c0,4.26,3.07,9.02,11.11,9.02,10.31,0,21.13-8.43,21.13-17.16,0-5.86-4.96-9.13-11.11-9.13-9.63,0-21.13,8.14-21.13,17.27"/><path d="M1555.83,457.79c0,4.26,3.07,9.02,11.11,9.02,10.31,0,21.13-8.43,21.13-17.16,0-5.86-4.96-9.13-11.11-9.13-9.63,0-21.13,8.14-21.13,17.27"/><path d="M1911.06,482.59c0,4.26,3.07,9.02,11.11,9.02,10.31,0,21.13-8.43,21.13-17.16,0-5.86-4.96-9.13-11.11-9.13-9.63,0-21.13,8.14-21.13,17.27"/><path d="M1169.3,111.71c0,4.26,3.07,9.02,11.11,9.02,10.31,0,21.13-8.43,21.13-17.16,0-5.86-4.96-9.13-11.11-9.13-9.63,0-21.13,8.14-21.13,17.27"/><path d="M1097.8,124.11c0,4.26,3.07,9.02,11.11,9.02,10.31,0,21.13-8.43,21.13-17.16,0-5.86-4.96-9.13-11.11-9.13-9.63,0-21.13,8.14-21.13,17.27"/><path d="M879.7,420.59c0,4.26,3.07,9.02,11.11,9.02,10.31,0,21.13-8.43,21.13-17.16,0-5.86-4.96-9.13-11.11-9.13-9.63,0-21.13,8.14-21.13,17.27"/><path d="M771.95,408.19c0,4.26,3.07,9.02,11.11,9.02,10.31,0,21.13-8.43,21.13-17.16,0-5.86-4.96-9.13-11.11-9.13-9.63,0-21.13,8.14-21.13,17.27"/><path d="M30.8,504.51c0,6.56,4.96,15.19,18.35,15.19,4.67,0,8.74-1.19,12.31-3.38,5.36-3.77,6.74-10.32,6.74-16.57,0-3.86-.59-8.32-1.58-13.98-.29-1.98-.9-4.96-1.49-8.84,9.72-3.18,16.96-13.3,16.96-23.51,0-14.97-10.62-25.09-25.09-25.09-.99-5.95-1.98-11.81-2.77-17.36,10.42-11.02,17.65-23.42,17.65-39.18,0-9.04-2.77-16.37-4.37-19.95-2.37-5.05-5.25-8.53-7.04-8.53-.7,0-3.77,1.19-7.04,5.05-6.36,7.55-8.14,20.24-8.14,28.57,0,5.36,.5,10.23,2.19,21.34-.11,.09-5.27,5.35-7.35,7.04-9.04,8.34-21.53,20.43-21.53,40.28,0,18.54,16.17,33.12,34.63,33.12,2.87,0,5.55-.29,7.83-.7,1.89,9.53,3.08,16.48,3.08,21.73,0,10.32-5.36,15.78-15.38,15.78-2.39,0-4.46-.5-4.67-.5-.09-.11-.29-.2-.29-.29,0-.2,.2-.31,.5-.31,4.67-.79,9.32-4.76,9.32-11.1,0-5.36-4.06-11.02-11.5-11.02-6.94,0-11.31,5.66-11.31,12.2m20.74-132.43c.9-3.97,5.46-14.38,10.62-14.38,1.49,0,3.86,4.76,3.86,11.7,0,10.32-7.63,18.06-14.48,24.8-.59-3.97-1.08-7.83-1.08-12,0-3.67,.29-7.05,1.08-10.12m8.73,101.97c-1.98,.4-3.86,.6-5.75,.6-14.18,0-26.29-9.92-26.29-24.91,0-12.09,8.53-22.91,17.27-30.46,1.67-1.49,3.27-2.87,4.76-4.36,.88,5.35,1.58,10.01,2.28,14.09-9.04,2.68-15.17,12.2-15.17,21.53,0,6.94,5.46,16.46,13.39,16.46,.79,0,1.69-.4,1.69-1.29s-.99-1.39-2.19-2.19c-3.88-2.39-6.06-4.96-6.06-9.83,0-6.04,4.57-10.91,10.32-12.29l5.75,32.63m14.09-18.35c0,7.05-2.88,14.29-9.92,17.17-2.08-11.9-4.76-27.68-5.46-32.05,8.93,0,15.38,6.06,15.38,14.88"/><path d="M30.8,170.83c0,6.56,4.96,15.19,18.35,15.19,4.67,0,8.74-1.19,12.31-3.38,5.36-3.77,6.74-10.32,6.74-16.57,0-3.86-.59-8.32-1.58-13.98-.29-1.98-.9-4.96-1.49-8.84,9.72-3.18,16.96-13.3,16.96-23.51,0-14.97-10.62-25.09-25.09-25.09-.99-5.95-1.98-11.81-2.77-17.36,10.42-11.02,17.65-23.42,17.65-39.18,0-9.04-2.77-16.37-4.37-19.95-2.37-5.05-5.25-8.53-7.04-8.53-.7,0-3.77,1.19-7.04,5.05-6.36,7.55-8.14,20.24-8.14,28.57,0,5.36,.5,10.23,2.19,21.34-.11,.09-5.27,5.35-7.35,7.04-9.04,8.34-21.53,20.43-21.53,40.28,0,18.54,16.17,33.12,34.63,33.12,2.87,0,5.55-.29,7.83-.7,1.89,9.53,3.08,16.48,3.08,21.73,0,10.32-5.36,15.78-15.38,15.78-2.39,0-4.46-.5-4.67-.5-.09-.11-.29-.2-.29-.29,0-.2,.2-.31,.5-.31,4.67-.79,9.32-4.76,9.32-11.1,0-5.36-4.06-11.02-11.5-11.02-6.94,0-11.31,5.66-11.31,12.2M51.54,38.39c.9-3.97,5.46-14.38,10.62-14.38,1.49,0,3.86,4.76,3.86,11.7,0,10.32-7.63,18.06-14.48,24.8-.59-3.97-1.08-7.83-1.08-12,0-3.67,.29-7.05,1.08-10.12m8.73,101.97c-1.98,.4-3.86,.6-5.75,.6-14.18,0-26.29-9.92-26.29-24.91,0-12.09,8.53-22.91,17.27-30.46,1.67-1.49,3.27-2.87,4.76-4.36,.88,5.35,1.58,10.01,2.28,14.09-9.04,2.68-15.17,12.2-15.17,21.53,0,6.94,5.46,16.46,13.39,16.46,.79,0,1.69-.4,1.69-1.29s-.99-1.39-2.19-2.19c-3.88-2.39-6.06-4.96-6.06-9.83,0-6.04,4.57-10.91,10.32-12.29l5.75,32.63m14.09-18.35c0,7.05-2.88,14.29-9.92,17.17-2.08-11.9-4.76-27.68-5.46-32.05,8.93,0,15.38,6.06,15.38,14.88"/><path d="M129.99,35.12c.6-.09,1.1-.79,1.1-1.4v-5.84c0-.99-.7-1.39-1.6-1.39l-3.27,.7V12.4h-2.77v15.38l-8.83,1.8V15.58h-2.77v14.59l-3.87,.79c-.59,.11-1.08,.79-1.08,1.39v5.75c0,1.08,.79,1.39,1.69,1.39l3.27-.7v16.37l-3.87,.79c-.59,.09-1.08,.79-1.08,1.4v5.75c0,1.09,.79,1.38,1.69,1.38l3.27-.68v14.77h2.77v-15.38l8.83-1.78v14h2.77v-14.59l3.77-.7c.6-.11,1.1-.79,1.1-1.39v-5.84c0-.99-.7-1.39-1.6-1.39l-3.27,.7v-16.37l3.77-.7m-15.38,3.07l8.83-1.78v16.37l-8.83,1.89v-16.48"/><path d="M157.17,72.32c.6-.09,1.1-.79,1.1-1.4v-5.84c0-.99-.7-1.39-1.6-1.39l-3.27,.7v-14.79h-2.77v15.38l-8.83,1.8v-14h-2.77v14.59l-3.87,.79c-.59,.11-1.08,.79-1.08,1.39v5.75c0,1.08,.79,1.39,1.69,1.39l3.27-.7v16.37l-3.87,.79c-.59,.09-1.08,.79-1.08,1.4v5.75c0,1.09,.79,1.38,1.69,1.38l3.27-.68v14.77h2.77v-15.38l8.83-1.78v14h2.77v-14.59l3.77-.7c.6-.11,1.1-.79,1.1-1.39v-5.84c0-.99-.7-1.39-1.6-1.39l-3.27,.7v-16.37l3.77-.7m-15.38,3.07l8.83-1.78v16.37l-8.83,1.89v-16.48"/><path d="M184.34,22.72c.6-.09,1.1-.79,1.1-1.4v-5.84c0-.99-.7-1.39-1.6-1.39l-3.27,.7V0h-2.77V15.38l-8.83,1.8V3.18h-2.77v14.59l-3.87,.79c-.59,.11-1.08,.79-1.08,1.39v5.75c0,1.08,.79,1.39,1.69,1.39l3.27-.7v16.37l-3.87,.79c-.59,.09-1.08,.79-1.08,1.4v5.75c0,1.09,.79,1.38,1.69,1.38l3.27-.68v14.77h2.77v-15.38l8.83-1.78v14h2.77v-14.59l3.77-.7c.6-.11,1.1-.79,1.1-1.39v-5.84c0-.99-.7-1.39-1.6-1.39l-3.27,.7V23.42l3.77-.7m-15.38,3.07l8.83-1.78v16.37l-8.83,1.89V25.79"/><path d="M211.52,59.92c.6-.09,1.1-.79,1.1-1.4v-5.84c0-.99-.7-1.39-1.6-1.39l-3.27,.7v-14.79h-2.77v15.38l-8.83,1.8v-14h-2.77v14.59l-3.87,.79c-.59,.11-1.08,.79-1.08,1.39v5.75c0,1.08,.79,1.39,1.69,1.39l3.27-.7v16.37l-3.87,.79c-.59,.09-1.08,.79-1.08,1.4v5.75c0,1.09,.79,1.38,1.69,1.38l3.27-.68v14.77h2.77v-15.38l8.83-1.78v14h2.77v-14.59l3.77-.7c.6-.11,1.1-.79,1.1-1.39v-5.84c0-.99-.7-1.39-1.6-1.39l-3.27,.7v-16.37l3.77-.7m-15.38,3.07l8.83-1.78v16.37l-8.83,1.89v-16.48"/><path d="M130,368.8c.6-.09,1.1-.79,1.1-1.4v-5.84c0-.99-.7-1.39-1.6-1.39l-3.27,.7v-14.79h-2.77v15.38l-8.83,1.8v-14h-2.77v14.59l-3.87,.79c-.59,.11-1.08,.79-1.08,1.39v5.75c0,1.08,.79,1.39,1.69,1.39l3.27-.7v16.37l-3.87,.79c-.59,.09-1.08,.79-1.08,1.4v5.75c0,1.09,.79,1.38,1.69,1.38l3.27-.68v14.77h2.77v-15.38l8.83-1.78v14h2.77v-14.59l3.77-.7c.6-.11,1.1-.79,1.1-1.39v-5.84c0-.99-.7-1.39-1.6-1.39l-3.27,.7v-16.37l3.77-.7m-15.38,3.07l8.83-1.78v16.37l-8.83,1.89v-16.48"/><path d="M157.17,406c.6-.09,1.1-.79,1.1-1.4v-5.84c0-.99-.7-1.39-1.6-1.39l-3.27,.7v-14.79h-2.77v15.38l-8.83,1.8v-14h-2.77v14.59l-3.87,.79c-.59,.11-1.08,.79-1.08,1.39v5.75c0,1.08,.79,1.39,1.69,1.39l3.27-.7v16.37l-3.87,.79c-.59,.09-1.08,.79-1.08,1.4v5.75c0,1.09,.79,1.38,1.69,1.38l3.27-.68v14.77h2.77v-15.38l8.83-1.78v14h2.77v-14.59l3.77-.7c.6-.11,1.1-.79,1.1-1.39v-5.84c0-.99-.7-1.39-1.6-1.39l-3.27,.7v-16.37l3.77-.7m-15.38,3.07l8.83-1.78v16.37l-8.83,1.89v-16.48"/><path d="M184.34,356.4c.6-.09,1.1-.79,1.1-1.4v-5.84c0-.99-.7-1.39-1.6-1.39l-3.27,.7v-14.79h-2.77v15.38l-8.83,1.8v-14h-2.77v14.59l-3.87,.79c-.59,.11-1.08,.79-1.08,1.39v5.75c0,1.08,.79,1.39,1.69,1.39l3.27-.7v16.37l-3.87,.79c-.59,.09-1.08,.79-1.08,1.4v5.75c0,1.09,.79,1.38,1.69,1.38l3.27-.68v14.77h2.77v-15.38l8.83-1.78v14h2.77v-14.59l3.77-.7c.6-.11,1.1-.79,1.1-1.39v-5.84c0-.99-.7-1.39-1.6-1.39l-3.27,.7v-16.37l3.77-.7m-15.38,3.07l8.83-1.78v16.37l-8.83,1.89v-16.48"/><path d="M211.53,393.6c.6-.09,1.1-.79,1.1-1.4v-5.84c0-.99-.7-1.39-1.6-1.39l-3.27,.7v-14.79h-2.77v15.38l-8.83,1.8v-14h-2.77v14.59l-3.87,.79c-.59,.11-1.08,.79-1.08,1.39v5.75c0,1.08,.79,1.39,1.69,1.39l3.27-.7v16.37l-3.87,.79c-.59,.09-1.08,.79-1.08,1.4v5.75c0,1.09,.79,1.38,1.69,1.38l3.27-.68v14.77h2.77v-15.38l8.83-1.78v14h2.77v-14.59l3.77-.7c.6-.11,1.1-.79,1.1-1.39v-5.84c0-.99-.7-1.39-1.6-1.39l-3.27,.7v-16.37l3.77-.7m-15.38,3.07l8.83-1.78v16.37l-8.83,1.89v-16.48"/><path d="M2509.45,33.14c9.13-6.35,13.28-12.6,13.28-19.75,0-7.53-4.36-12.11-11.01-12.11-4.76,0-7.94,3.38-7.94,7.35,0,4.26,3.67,7.55,7.94,7.55,2.88,0,4.26-.7,4.56-.81,.31-.09,.5-.19,.81-.19,.09,0,.29,0,.39,.09,.2,.09,.29,.4,.29,.99,0,4.26-3.86,9.13-10.71,13.89l2.39,2.98"/><path d="M2412.88,341.03c-9.32-10.12-17.56-10.71-22.71-10.71s-13.3,.59-22.63,10.71c-4.85,5.36-8.23,15.96-8.23,21.33,0,1.89,.4,3.18,1.39,3.18,2.77,0,1.38-8.54,9.72-16.97,7.33-7.33,17.16-7.44,19.55-7.44h.39c2.39,0,12.21,.11,19.55,7.44,8.34,8.43,6.94,16.97,9.72,16.97,.99,0,1.39-1.19,1.39-3.18,0-5.36-3.27-16.07-8.14-21.33m-29.56,18.94c0,3.78,3.07,6.85,6.85,6.85s6.84-3.07,6.84-6.85-3.07-6.84-6.84-6.84-6.85,3.07-6.85,6.84"/><path d="M2119.61,379.22h215.62v12.4h-215.62v-12.4" fill-rule="evenodd"/><path d="M1798.72,373.02h215.62v12.4h-215.62v-12.4" fill-rule="evenodd"/><path d="M1514.53,366.82h215.62v12.4h-215.62v-12.4" fill-rule="evenodd"/><path d="M1193.64,354.42h215.62v12.4h-215.62v-12.4" fill-rule="evenodd"/><path d="M879.7,503.22h215.62v12.4h-215.62v-12.4" fill-rule="evenodd"/><path d="M558.81,490.82h215.62v12.4h-215.62v-12.4" fill-rule="evenodd"/><path d="M274.63,478.42h215.62v12.4h-215.62v-12.4" fill-rule="evenodd"/><path d="M2100.68,138.54h216.97v12.4h-216.97v-12.4" fill-rule="evenodd"/><path d="M1777.98,144.74h216.97v12.4h-216.97v-12.4" fill-rule="evenodd"/><path d="M1491.99,157.14h216.98v12.4h-216.98v-12.4" fill-rule="evenodd"/><path d="M1169.3,169.54h216.97v12.4h-216.97v-12.4" fill-rule="evenodd"/><path d="M913.06,20.74h216.97v12.4h-216.97v-12.4" fill-rule="evenodd"/><path d="M590.37,33.14h216.98v12.4h-216.98v-12.4" fill-rule="evenodd"/><path d="M304.38,39.34h216.97v12.4h-216.97v-12.4" fill-rule="evenodd"/></g></svg>