<?xml version="1.0" encoding="UTF-8"?><svg id="b" xmlns="http://www.w3.org/2000/svg" viewBox="0 0 2552 518.41"><g id="c"><line y1="44.25" x2="2552" y2="44.25" fill="none" stroke="#000" stroke-linejoin="bevel" stroke-width="2.73"/><line y1="69.05" x2="2552" y2="69.05" fill="none" stroke="#000" stroke-linejoin="bevel" stroke-width="2.73"/><line y1="93.85" x2="2552" y2="93.85" fill="none" stroke="#000" stroke-linejoin="bevel" stroke-width="2.73"/><line y1="118.65" x2="2552" y2="118.65" fill="none" stroke="#000" stroke-linejoin="bevel" stroke-width="2.73"/><line y1="143.45" x2="2552" y2="143.45" fill="none" stroke="#000" stroke-linejoin="bevel" stroke-width="2.73"/><line y1="377.93" x2="2552" y2="377.93" fill="none" stroke="#000" stroke-linejoin="bevel" stroke-width="2.73"/><line y1="402.73" x2="2552" y2="402.73" fill="none" stroke="#000" stroke-linejoin="bevel" stroke-width="2.73"/><line y1="427.53" x2="2552" y2="427.53" fill="none" stroke="#000" stroke-linejoin="bevel" stroke-width="2.73"/><line y1="452.33" x2="2552" y2="452.33" fill="none" stroke="#000" stroke-linejoin="bevel" stroke-width="2.73"/><line y1="477.13" x2="2552" y2="477.13" fill="none" stroke="#000" stroke-linejoin="bevel" stroke-width="2.73"/><line x1="1658.75" y1="42.89" x2="1658.75" y2="144.81" fill="none" stroke="#000" stroke-linejoin="bevel" stroke-width="4.46"/><line x1="1157.35" y1="42.89" x2="1157.35" y2="144.81" fill="none" stroke="#000" stroke-linejoin="bevel" stroke-width="4.46"/><line x1="2549.77" y1="42.89" x2="2549.77" y2="144.81" fill="none" stroke="#000" stroke-linejoin="bevel" stroke-width="4.46"/><line x1="1007.96" y1="376.57" x2="1007.96" y2="478.49" fill="none" stroke="#000" stroke-linejoin="bevel" stroke-width="4.46"/><line x1="1861.37" y1="376.57" x2="1861.37" y2="478.49" fill="none" stroke="#000" stroke-linejoin="bevel" stroke-width="4.46"/><line x1="2536.13" y1="376.57" x2="2536.13" y2="478.49" fill="none" stroke="#000" stroke-linejoin="bevel" stroke-width="4.46"/><line x1="2549.77" y1="376.57" x2="2549.77" y2="478.49" fill="none" stroke="#000" stroke-linejoin="bevel" stroke-width="4.46"/><line x1="2048.37" y1="42.89" x2="2048.37" y2="144.81" fill="none" stroke="#000" stroke-linejoin="bevel" stroke-width="4.46"/><line x1="655.95" y1="42.89" x2="655.95" y2="144.81" fill="none" stroke="#000" stroke-linejoin="bevel" stroke-width="4.46"/><line x1="1854.44" y1="19.45" x2="1903.04" y2="19.45" fill="none" stroke="#000" stroke-linejoin="bevel" stroke-width="3.97"/><line x1="2253.48" y1="85.62" x2="2253.48" y2="149.56" fill="none" stroke="#000" stroke-linejoin="bevel" stroke-width="2.48"/><line x1="748.13" y1="98.02" x2="748.13" y2="170.29" fill="none" stroke="#000" stroke-linejoin="bevel" stroke-width="2.48"/><line x1="2197.01" y1="73.22" x2="2197.01" y2="145.49" fill="none" stroke="#000" stroke-linejoin="bevel" stroke-width="2.48"/><line x1="2479.34" y1="98.02" x2="2479.34" y2="161.92" fill="none" stroke="#000" stroke-linejoin="bevel" stroke-width="2.48"/><line x1="2140.55" y1="60.82" x2="2140.55" y2="141.41" fill="none" stroke="#000" stroke-linejoin="bevel" stroke-width="2.48"/><line x1="2084.08" y1="48.42" x2="2084.08" y2="137.34" fill="none" stroke="#000" stroke-linejoin="bevel" stroke-width="2.48"/><line x1="691.66" y1="110.42" x2="691.66" y2="174.36" fill="none" stroke="#000" stroke-linejoin="bevel" stroke-width="2.48"/><line x1="389.41" y1="89.88" x2="389.41" y2="25.78" fill="none" stroke="#000" stroke-linejoin="bevel" stroke-width="2.48"/><line x1="1920.33" y1="48.42" x2="1920.33" y2="131.05" fill="none" stroke="#000" stroke-linejoin="bevel" stroke-width="2.48"/><line x1="1863.86" y1="23.62" x2="1863.86" y2="112.54" fill="none" stroke="#000" stroke-linejoin="bevel" stroke-width="2.48"/><line x1="1807.4" y1="36.02" x2="1807.4" y2="116.61" fill="none" stroke="#000" stroke-linejoin="bevel" stroke-width="2.48"/><line x1="1750.93" y1="48.42" x2="1750.93" y2="120.69" fill="none" stroke="#000" stroke-linejoin="bevel" stroke-width="2.48"/><line x1="1694.47" y1="60.82" x2="1694.47" y2="124.76" fill="none" stroke="#000" stroke-linejoin="bevel" stroke-width="2.48"/><line x1="615.27" y1="77.48" x2="615.27" y2="13.34" fill="none" stroke="#000" stroke-linejoin="bevel" stroke-width="2.48"/><line x1="332.94" y1="102.28" x2="332.94" y2="31.9" fill="none" stroke="#000" stroke-linejoin="bevel" stroke-width="2.48"/><line x1="558.8" y1="89.88" x2="558.8" y2="17.41" fill="none" stroke="#000" stroke-linejoin="bevel" stroke-width="2.48"/><line x1="1588.32" y1="36.02" x2="1588.32" y2="137.3" fill="none" stroke="#000" stroke-linejoin="bevel" stroke-width="2.48"/><line x1="1531.86" y1="48.42" x2="1531.86" y2="139.33" fill="none" stroke="#000" stroke-linejoin="bevel" stroke-width="2.48"/><line x1="1475.39" y1="60.82" x2="1475.39" y2="141.37" fill="none" stroke="#000" stroke-linejoin="bevel" stroke-width="2.48"/><line x1="276.48" y1="114.68" x2="276.48" y2="38.01" fill="none" stroke="#000" stroke-linejoin="bevel" stroke-width="2.48"/><line x1="973.99" y1="85.62" x2="973.99" y2="155.81" fill="none" stroke="#000" stroke-linejoin="bevel" stroke-width="2.48"/><line x1="1193.06" y1="85.62" x2="1193.06" y2="149.56" fill="none" stroke="#000" stroke-linejoin="bevel" stroke-width="2.48"/><line x1="2422.88" y1="85.62" x2="2422.88" y2="155.81" fill="none" stroke="#000" stroke-linejoin="bevel" stroke-width="2.48"/><line x1="917.52" y1="98.02" x2="917.52" y2="161.92" fill="none" stroke="#000" stroke-linejoin="bevel" stroke-width="2.48"/><line x1="445.87" y1="114.68" x2="445.87" y2="25.56" fill="none" stroke="#000" stroke-linejoin="bevel" stroke-width="2.48"/><line x1="220.01" y1="127.08" x2="220.01" y2="44.12" fill="none" stroke="#000" stroke-linejoin="bevel" stroke-width="2.48"/><line x1="861.06" y1="73.22" x2="861.06" y2="162.14" fill="none" stroke="#000" stroke-linejoin="bevel" stroke-width="2.48"/><line x1="2366.41" y1="73.22" x2="2366.41" y2="149.7" fill="none" stroke="#000" stroke-linejoin="bevel" stroke-width="2.48"/><line x1="1362.46" y1="48.42" x2="1362.46" y2="137.34" fill="none" stroke="#000" stroke-linejoin="bevel" stroke-width="2.48"/><line x1="190.26" y1="406.9" x2="190.26" y2="495.78" fill="none" stroke="#000" stroke-linejoin="bevel" stroke-width="2.48"/><line x1="292.35" y1="419.3" x2="292.35" y2="499.88" fill="none" stroke="#000" stroke-linejoin="bevel" stroke-width="2.48"/><line x1="394.44" y1="431.7" x2="394.44" y2="503.98" fill="none" stroke="#000" stroke-linejoin="bevel" stroke-width="2.48"/><line x1="496.52" y1="444.1" x2="496.52" y2="508.08" fill="none" stroke="#000" stroke-linejoin="bevel" stroke-width="2.48"/><line x1="628.37" y1="411.16" x2="628.37" y2="346.98" fill="none" stroke="#000" stroke-linejoin="bevel" stroke-width="2.48"/><line x1="730.45" y1="423.56" x2="730.45" y2="351.08" fill="none" stroke="#000" stroke-linejoin="bevel" stroke-width="2.48"/><line x1="832.54" y1="435.96" x2="832.54" y2="355.18" fill="none" stroke="#000" stroke-linejoin="bevel" stroke-width="2.48"/><line x1="934.63" y1="448.36" x2="934.63" y2="359.28" fill="none" stroke="#000" stroke-linejoin="bevel" stroke-width="2.48"/><line x1="804.59" y1="85.62" x2="804.59" y2="166.21" fill="none" stroke="#000" stroke-linejoin="bevel" stroke-width="2.48"/><line x1="1073.42" y1="423.56" x2="1073.42" y2="359.41" fill="none" stroke="#000" stroke-linejoin="bevel" stroke-width="2.48"/><line x1="1175.51" y1="435.96" x2="1175.51" y2="365.56" fill="none" stroke="#000" stroke-linejoin="bevel" stroke-width="2.48"/><line x1="1277.6" y1="448.36" x2="1277.6" y2="371.71" fill="none" stroke="#000" stroke-linejoin="bevel" stroke-width="2.48"/><line x1="1379.69" y1="460.76" x2="1379.69" y2="377.86" fill="none" stroke="#000" stroke-linejoin="bevel" stroke-width="2.48"/><line x1="1481.78" y1="435.96" x2="1481.78" y2="371.78" fill="none" stroke="#000" stroke-linejoin="bevel" stroke-width="2.48"/><line x1="1583.87" y1="448.36" x2="1583.87" y2="375.88" fill="none" stroke="#000" stroke-linejoin="bevel" stroke-width="2.48"/><line x1="1685.95" y1="460.76" x2="1685.95" y2="379.98" fill="none" stroke="#000" stroke-linejoin="bevel" stroke-width="2.48"/><line x1="1788.04" y1="473.16" x2="1788.04" y2="384.08" fill="none" stroke="#000" stroke-linejoin="bevel" stroke-width="2.48"/><line x1="1305.99" y1="60.82" x2="1305.99" y2="141.41" fill="none" stroke="#000" stroke-linejoin="bevel" stroke-width="2.48"/><line x1="1926.84" y1="448.36" x2="1926.84" y2="377.96" fill="none" stroke="#000" stroke-linejoin="bevel" stroke-width="2.48"/><line x1="2028.93" y1="460.76" x2="2028.93" y2="380.01" fill="none" stroke="#000" stroke-linejoin="bevel" stroke-width="2.48"/><line x1="2131.01" y1="473.16" x2="2131.01" y2="382.06" fill="none" stroke="#000" stroke-linejoin="bevel" stroke-width="2.48"/><line x1="2233.1" y1="485.56" x2="2233.1" y2="384.11" fill="none" stroke="#000" stroke-linejoin="bevel" stroke-width="2.48"/><line x1="2335.19" y1="460.76" x2="2335.19" y2="377.93" fill="none" stroke="#000" stroke-linejoin="bevel" stroke-width="2.48"/><line x1="1086.92" y1="60.82" x2="1086.92" y2="143.58" fill="none" stroke="#000" stroke-linejoin="bevel" stroke-width="2.48"/><line x1="1418.92" y1="73.22" x2="1418.92" y2="143.41" fill="none" stroke="#000" stroke-linejoin="bevel" stroke-width="2.48"/><line x1="1249.53" y1="73.22" x2="1249.53" y2="145.49" fill="none" stroke="#000" stroke-linejoin="bevel" stroke-width="2.48"/><line x1="2309.94" y1="60.82" x2="2309.94" y2="143.58" fill="none" stroke="#000" stroke-linejoin="bevel" stroke-width="2.48"/><line x1="1030.45" y1="73.22" x2="1030.45" y2="149.7" fill="none" stroke="#000" stroke-linejoin="bevel" stroke-width="2.48"/><line x1="502.34" y1="102.28" x2="502.34" y2="21.49" fill="none" stroke="#000" stroke-linejoin="bevel" stroke-width="2.48"/><path d="M189.02,135.22c0,4.26,3.07,9.02,11.11,9.02,10.31,0,21.13-8.43,21.13-17.16,0-5.86-4.96-9.13-11.11-9.13-9.63,0-21.13,8.14-21.13,17.27"/><path d="M245.48,122.82c0,4.26,3.07,9.02,11.11,9.02,10.31,0,21.13-8.43,21.13-17.16,0-5.86-4.96-9.13-11.11-9.13-9.63,0-21.13,8.14-21.13,17.27"/><path d="M301.95,110.42c0,4.26,3.07,9.02,11.11,9.02,10.31,0,21.13-8.43,21.13-17.16,0-5.86-4.96-9.13-11.11-9.13-9.63,0-21.13,8.14-21.13,17.27"/><path d="M358.41,98.02c0,4.26,3.07,9.02,11.11,9.02,10.31,0,21.13-8.43,21.13-17.16,0-5.86-4.96-9.13-11.11-9.13-9.63,0-21.13,8.14-21.13,17.27"/><path d="M414.88,122.82c0,4.26,3.07,9.02,11.11,9.02,10.31,0,21.13-8.43,21.13-17.16,0-5.86-4.96-9.13-11.11-9.13-9.63,0-21.13,8.14-21.13,17.27"/><path d="M471.34,110.42c0,4.26,3.07,9.02,11.11,9.02,10.31,0,21.13-8.43,21.13-17.16,0-5.86-4.96-9.13-11.11-9.13-9.63,0-21.13,8.14-21.13,17.27"/><path d="M527.81,98.02c0,4.26,3.07,9.02,11.11,9.02,10.31,0,21.13-8.43,21.13-17.16,0-5.86-4.96-9.13-11.11-9.13-9.63,0-21.13,8.14-21.13,17.27"/><path d="M584.28,85.62c0,4.26,3.07,9.02,11.11,9.02,10.31,0,21.13-8.43,21.13-17.16,0-5.86-4.96-9.13-11.11-9.13-9.63,0-21.13,8.14-21.13,17.27"/><path d="M690.42,110.42c0,4.26,3.07,9.02,11.11,9.02,10.31,0,21.13-8.43,21.13-17.16,0-5.86-4.96-9.13-11.11-9.13-9.63,0-21.13,8.14-21.13,17.27"/><path d="M746.89,98.02c0,4.26,3.07,9.02,11.11,9.02,10.31,0,21.13-8.43,21.13-17.16,0-5.86-4.96-9.13-11.11-9.13-9.63,0-21.13,8.14-21.13,17.27"/><path d="M803.35,85.62c0,4.26,3.07,9.02,11.11,9.02,10.31,0,21.13-8.43,21.13-17.16,0-5.86-4.96-9.13-11.11-9.13-9.63,0-21.13,8.14-21.13,17.27"/><path d="M859.82,73.22c0,4.26,3.07,9.02,11.11,9.02,10.31,0,21.13-8.43,21.13-17.16,0-5.86-4.96-9.13-11.11-9.13-9.63,0-21.13,8.14-21.13,17.27"/><path d="M916.28,98.02c0,4.26,3.07,9.02,11.11,9.02,10.31,0,21.13-8.43,21.13-17.16,0-5.86-4.96-9.13-11.11-9.13-9.63,0-21.13,8.14-21.13,17.27"/><path d="M972.75,85.62c0,4.26,3.07,9.02,11.11,9.02,10.31,0,21.13-8.43,21.13-17.16,0-5.86-4.96-9.13-11.11-9.13-9.63,0-21.13,8.14-21.13,17.27"/><path d="M1029.21,73.22c0,4.26,3.07,9.02,11.11,9.02,10.31,0,21.13-8.43,21.13-17.16,0-5.86-4.96-9.13-11.11-9.13-9.63,0-21.13,8.14-21.13,17.27"/><path d="M1085.68,60.82c0,4.26,3.07,9.02,11.11,9.02,10.31,0,21.13-8.43,21.13-17.16,0-5.86-4.96-9.13-11.11-9.13-9.63,0-21.13,8.14-21.13,17.27"/><path d="M1191.82,85.62c0,4.26,3.07,9.02,11.11,9.02,10.31,0,21.13-8.43,21.13-17.16,0-5.86-4.96-9.13-11.11-9.13-9.63,0-21.13,8.14-21.13,17.27"/><path d="M1248.29,73.22c0,4.26,3.07,9.02,11.11,9.02,10.31,0,21.13-8.43,21.13-17.16,0-5.86-4.96-9.13-11.11-9.13-9.63,0-21.13,8.14-21.13,17.27"/><path d="M1304.75,60.82c0,4.26,3.07,9.02,11.11,9.02,10.31,0,21.13-8.43,21.13-17.16,0-5.86-4.96-9.13-11.11-9.13-9.63,0-21.13,8.14-21.13,17.27"/><path d="M1361.22,48.42c0,4.26,3.07,9.02,11.11,9.02,10.31,0,21.13-8.43,21.13-17.16,0-5.86-4.96-9.13-11.11-9.13-9.63,0-21.13,8.14-21.13,17.27"/><path d="M1417.68,73.22c0,4.26,3.07,9.02,11.11,9.02,10.31,0,21.13-8.43,21.13-17.16,0-5.86-4.96-9.13-11.11-9.13-9.63,0-21.13,8.14-21.13,17.27"/><path d="M1474.15,60.82c0,4.26,3.07,9.02,11.11,9.02,10.31,0,21.13-8.43,21.13-17.16,0-5.86-4.96-9.13-11.11-9.13-9.63,0-21.13,8.14-21.13,17.27"/><path d="M1530.62,48.42c0,4.26,3.07,9.02,11.11,9.02,10.31,0,21.13-8.43,21.13-17.16,0-5.86-4.96-9.13-11.11-9.13-9.63,0-21.13,8.14-21.13,17.27"/><path d="M1587.08,36.02c0,4.26,3.07,9.02,11.11,9.02,10.31,0,21.13-8.43,21.13-17.16,0-5.86-4.96-9.13-11.11-9.13-9.63,0-21.13,8.14-21.13,17.27"/><path d="M1693.23,60.82c0,4.26,3.07,9.02,11.11,9.02,10.31,0,21.13-8.43,21.13-17.16,0-5.86-4.96-9.13-11.11-9.13-9.63,0-21.13,8.14-21.13,17.27"/><path d="M1749.69,48.42c0,4.26,3.07,9.02,11.11,9.02,10.31,0,21.13-8.43,21.13-17.16,0-5.86-4.96-9.13-11.11-9.13-9.63,0-21.13,8.14-21.13,17.27"/><path d="M1806.16,36.02c0,4.26,3.07,9.02,11.11,9.02,10.31,0,21.13-8.43,21.13-17.16,0-5.86-4.96-9.13-11.11-9.13-9.63,0-21.13,8.14-21.13,17.27"/><path d="M1862.62,23.62c0,4.26,3.07,9.02,11.11,9.02,10.31,0,21.13-8.43,21.13-17.16,0-5.86-4.96-9.13-11.11-9.13-9.63,0-21.13,8.14-21.13,17.27"/><path d="M1940.22,31.16c-9.63,0-21.13,8.04-21.13,17.27,0,4.26,3.07,9.02,11.11,9.02,10.31,0,21.13-8.43,21.13-17.16,0-5.86-4.96-9.13-11.11-9.13m-13.69,21.62c-3.27,0-3.97-2.67-3.97-3.56,0-4.87,16.66-13.39,21.33-13.39,2.39,0,3.97,1.39,3.97,3.56,0,4.96-16.77,13.39-21.33,13.39"/><path d="M2082.84,48.42c0,4.26,3.07,9.02,11.11,9.02,10.31,0,21.13-8.43,21.13-17.16,0-5.86-4.96-9.13-11.11-9.13-9.63,0-21.13,8.14-21.13,17.27"/><path d="M2139.31,60.82c0,4.26,3.07,9.02,11.11,9.02,10.31,0,21.13-8.43,21.13-17.16,0-5.86-4.96-9.13-11.11-9.13-9.63,0-21.13,8.14-21.13,17.27"/><path d="M2195.77,73.22c0,4.26,3.07,9.02,11.11,9.02,10.31,0,21.13-8.43,21.13-17.16,0-5.86-4.96-9.13-11.11-9.13-9.63,0-21.13,8.14-21.13,17.27"/><path d="M2252.24,85.62c0,4.26,3.07,9.02,11.11,9.02,10.31,0,21.13-8.43,21.13-17.16,0-5.86-4.96-9.13-11.11-9.13-9.63,0-21.13,8.14-21.13,17.27"/><path d="M2308.7,60.82c0,4.26,3.07,9.02,11.11,9.02,10.31,0,21.13-8.43,21.13-17.16,0-5.86-4.96-9.13-11.11-9.13-9.63,0-21.13,8.14-21.13,17.27"/><path d="M2365.17,73.22c0,4.26,3.07,9.02,11.11,9.02,10.31,0,21.13-8.43,21.13-17.16,0-5.86-4.96-9.13-11.11-9.13-9.63,0-21.13,8.14-21.13,17.27"/><path d="M2421.64,85.62c0,4.26,3.07,9.02,11.11,9.02,10.31,0,21.13-8.43,21.13-17.16,0-5.86-4.96-9.13-11.11-9.13-9.63,0-21.13,8.14-21.13,17.27"/><path d="M2478.1,98.02c0,4.26,3.07,9.02,11.11,9.02,10.31,0,21.13-8.43,21.13-17.16,0-5.86-4.96-9.13-11.11-9.13-9.63,0-21.13,8.14-21.13,17.27"/><path d="M189.02,406.9c0,4.26,3.07,9.02,11.11,9.02,10.31,0,21.13-8.43,21.13-17.16,0-5.86-4.96-9.13-11.11-9.13-9.63,0-21.13,8.14-21.13,17.27"/><path d="M291.11,419.3c0,4.26,3.07,9.02,11.11,9.02,10.31,0,21.13-8.43,21.13-17.16,0-5.86-4.96-9.13-11.11-9.13-9.63,0-21.13,8.14-21.13,17.27"/><path d="M393.2,431.7c0,4.26,3.07,9.02,11.11,9.02,10.31,0,21.13-8.43,21.13-17.16,0-5.86-4.96-9.13-11.11-9.13-9.63,0-21.13,8.14-21.13,17.27"/><path d="M495.28,444.1c0,4.26,3.07,9.02,11.11,9.02,10.31,0,21.13-8.43,21.13-17.16,0-5.86-4.96-9.13-11.11-9.13-9.63,0-21.13,8.14-21.13,17.27"/><path d="M597.37,419.3c0,4.26,3.07,9.02,11.11,9.02,10.31,0,21.13-8.43,21.13-17.16,0-5.86-4.96-9.13-11.11-9.13-9.63,0-21.13,8.14-21.13,17.27"/><path d="M699.46,431.7c0,4.26,3.07,9.02,11.11,9.02,10.31,0,21.13-8.43,21.13-17.16,0-5.86-4.96-9.13-11.11-9.13-9.63,0-21.13,8.14-21.13,17.27"/><path d="M801.55,444.1c0,4.26,3.07,9.02,11.11,9.02,10.31,0,21.13-8.43,21.13-17.16,0-5.86-4.96-9.13-11.11-9.13-9.63,0-21.13,8.14-21.13,17.27"/><path d="M903.64,456.5c0,4.26,3.07,9.02,11.11,9.02,10.31,0,21.13-8.43,21.13-17.16,0-5.86-4.96-9.13-11.11-9.13-9.63,0-21.13,8.14-21.13,17.27"/><path d="M1042.43,431.7c0,4.26,3.07,9.02,11.11,9.02,10.31,0,21.13-8.43,21.13-17.16,0-5.86-4.96-9.13-11.11-9.13-9.63,0-21.13,8.14-21.13,17.27"/><path d="M1144.52,444.1c0,4.26,3.07,9.02,11.11,9.02,10.31,0,21.13-8.43,21.13-17.16,0-5.86-4.96-9.13-11.11-9.13-9.63,0-21.13,8.14-21.13,17.27"/><path d="M1246.61,456.5c0,4.26,3.07,9.02,11.11,9.02,10.31,0,21.13-8.43,21.13-17.16,0-5.86-4.96-9.13-11.11-9.13-9.63,0-21.13,8.14-21.13,17.27"/><path d="M1348.7,468.9c0,4.26,3.07,9.02,11.11,9.02,10.31,0,21.13-8.43,21.13-17.16,0-5.86-4.96-9.13-11.11-9.13-9.63,0-21.13,8.14-21.13,17.27"/><path d="M1450.79,444.1c0,4.26,3.07,9.02,11.11,9.02,10.31,0,21.13-8.43,21.13-17.16,0-5.86-4.96-9.13-11.11-9.13-9.63,0-21.13,8.14-21.13,17.27"/><path d="M1552.87,456.5c0,4.26,3.07,9.02,11.11,9.02,10.31,0,21.13-8.43,21.13-17.16,0-5.86-4.96-9.13-11.11-9.13-9.63,0-21.13,8.14-21.13,17.27"/><path d="M1654.96,468.9c0,4.26,3.07,9.02,11.11,9.02,10.31,0,21.13-8.43,21.13-17.16,0-5.86-4.96-9.13-11.11-9.13-9.63,0-21.13,8.14-21.13,17.27"/><path d="M1757.05,481.3c0,4.26,3.07,9.02,11.11,9.02,10.31,0,21.13-8.43,21.13-17.16,0-5.86-4.96-9.13-11.11-9.13-9.63,0-21.13,8.14-21.13,17.27"/><path d="M1895.85,456.5c0,4.26,3.07,9.02,11.11,9.02,10.31,0,21.13-8.43,21.13-17.16,0-5.86-4.96-9.13-11.11-9.13-9.63,0-21.13,8.14-21.13,17.27"/><path d="M1997.93,468.9c0,4.26,3.07,9.02,11.11,9.02,10.31,0,21.13-8.43,21.13-17.16,0-5.86-4.96-9.13-11.11-9.13-9.63,0-21.13,8.14-21.13,17.27"/><path d="M2100.02,481.3c0,4.26,3.07,9.02,11.11,9.02,10.31,0,21.13-8.43,21.13-17.16,0-5.86-4.96-9.13-11.11-9.13-9.63,0-21.13,8.14-21.13,17.27"/><path d="M2202.11,493.7c0,4.26,3.07,9.02,11.11,9.02,10.31,0,21.13-8.43,21.13-17.16,0-5.86-4.96-9.13-11.11-9.13-9.63,0-21.13,8.14-21.13,17.27"/><path d="M2325.33,451.64c-9.63,0-21.13,8.04-21.13,17.27,0,4.26,3.07,9.02,11.11,9.02,10.31,0,21.13-8.43,21.13-17.16,0-5.86-4.96-9.13-11.11-9.13m-13.69,21.62c-3.27,0-3.97-2.67-3.97-3.56,0-4.87,16.66-13.39,21.33-13.39,2.39,0,3.97,1.39,3.97,3.56,0,4.96-16.77,13.39-21.33,13.39"/><path d="M30.8,503.22c0,6.56,4.96,15.19,18.35,15.19,4.67,0,8.74-1.19,12.31-3.38,5.36-3.77,6.74-10.32,6.74-16.57,0-3.86-.59-8.32-1.58-13.98-.29-1.98-.9-4.96-1.49-8.84,9.72-3.18,16.96-13.3,16.96-23.51,0-14.97-10.62-25.09-25.09-25.09-.99-5.95-1.98-11.81-2.77-17.36,10.42-11.02,17.65-23.42,17.65-39.18,0-9.04-2.77-16.37-4.37-19.95-2.37-5.05-5.25-8.53-7.04-8.53-.7,0-3.77,1.19-7.04,5.05-6.36,7.55-8.14,20.24-8.14,28.57,0,5.36,.5,10.23,2.19,21.34-.11,.09-5.27,5.35-7.35,7.04-9.04,8.34-21.53,20.43-21.53,40.28,0,18.54,16.17,33.12,34.63,33.12,2.87,0,5.55-.29,7.83-.7,1.89,9.53,3.08,16.48,3.08,21.73,0,10.32-5.36,15.78-15.38,15.78-2.39,0-4.46-.5-4.67-.5-.09-.11-.29-.2-.29-.29,0-.2,.2-.31,.5-.31,4.67-.79,9.32-4.76,9.32-11.1,0-5.36-4.06-11.02-11.5-11.02-6.94,0-11.31,5.66-11.31,12.2m20.74-132.43c.9-3.97,5.46-14.38,10.62-14.38,1.49,0,3.86,4.76,3.86,11.7,0,10.32-7.63,18.06-14.48,24.8-.59-3.97-1.08-7.83-1.08-12,0-3.67,.29-7.05,1.08-10.12m8.73,101.97c-1.98,.4-3.86,.6-5.75,.6-14.18,0-26.29-9.92-26.29-24.91,0-12.09,8.53-22.91,17.27-30.46,1.67-1.49,3.27-2.87,4.76-4.36,.88,5.35,1.58,10.01,2.28,14.09-9.04,2.68-15.17,12.2-15.17,21.53,0,6.94,5.46,16.46,13.39,16.46,.79,0,1.69-.4,1.69-1.29s-.99-1.39-2.19-2.19c-3.88-2.39-6.06-4.96-6.06-9.83,0-6.04,4.57-10.91,10.32-12.29l5.75,32.63m14.09-18.35c0,7.05-2.88,14.29-9.92,17.17-2.08-11.9-4.76-27.68-5.46-32.05,8.93,0,15.38,6.06,15.38,14.88"/><path d="M30.8,169.54c0,6.56,4.96,15.19,18.35,15.19,4.67,0,8.74-1.19,12.31-3.38,5.36-3.77,6.74-10.32,6.74-16.57,0-3.86-.59-8.32-1.58-13.98-.29-1.98-.9-4.96-1.49-8.84,9.72-3.18,16.96-13.3,16.96-23.51,0-14.97-10.62-25.09-25.09-25.09-.99-5.95-1.98-11.81-2.77-17.36,10.42-11.02,17.65-23.42,17.65-39.18,0-9.04-2.77-16.37-4.37-19.95-2.37-5.05-5.25-8.53-7.04-8.53-.7,0-3.77,1.19-7.04,5.05-6.36,7.55-8.14,20.24-8.14,28.57,0,5.36,.5,10.23,2.19,21.34-.11,.09-5.27,5.35-7.35,7.04-9.04,8.34-21.53,20.43-21.53,40.28,0,18.54,16.17,33.12,34.63,33.12,2.87,0,5.55-.29,7.83-.7,1.89,9.53,3.08,16.48,3.08,21.73,0,10.32-5.36,15.78-15.38,15.78-2.39,0-4.46-.5-4.67-.5-.09-.11-.29-.2-.29-.29,0-.2,.2-.31,.5-.31,4.67-.79,9.32-4.76,9.32-11.1,0-5.36-4.06-11.02-11.5-11.02-6.94,0-11.31,5.66-11.31,12.2M51.54,37.11c.9-3.97,5.46-14.38,10.62-14.38,1.49,0,3.86,4.76,3.86,11.7,0,10.32-7.63,18.06-14.48,24.8-.59-3.97-1.08-7.83-1.08-12,0-3.67,.29-7.05,1.08-10.12m8.73,101.97c-1.98,.4-3.86,.6-5.75,.6-14.18,0-26.29-9.92-26.29-24.91,0-12.09,8.53-22.91,17.27-30.46,1.67-1.49,3.27-2.87,4.76-4.36,.88,5.35,1.58,10.01,2.28,14.09-9.04,2.68-15.17,12.2-15.17,21.53,0,6.94,5.46,16.46,13.39,16.46,.79,0,1.69-.4,1.69-1.29s-.99-1.39-2.19-2.19c-3.88-2.39-6.06-4.96-6.06-9.83,0-6.04,4.57-10.91,10.32-12.29l5.75,32.63m14.09-18.35c0,7.05-2.88,14.29-9.92,17.17-2.08-11.9-4.76-27.68-5.46-32.05,8.93,0,15.38,6.06,15.38,14.88"/><path d="M118.79,78.48c-4.96,0-7.84,3.07-8.34,3.67l.4-31.85c0-.79-.59-1.38-1.39-1.38h-1.18c-.81,0-1.39,.59-1.39,1.38l.5,59.63c0,.79,.59,1.38,1.39,1.38,.19,0,.59-.09,.79-.19,8.53-4.28,17.45-12.4,17.45-22.63,0-5.15-2.37-10.01-8.23-10.01m-8.63,27.98l.29-19.34c.2-.9,1.69-3.77,5.66-3.77,3.58,0,3.87,3.36,3.87,5.46,0,8.82-3.27,12.49-9.83,17.65"/><path d="M118.79,412.16c-4.96,0-7.84,3.07-8.34,3.67l.4-31.85c0-.79-.59-1.38-1.39-1.38h-1.18c-.81,0-1.39,.59-1.39,1.38l.5,59.63c0,.79,.59,1.38,1.39,1.38,.19,0,.59-.09,.79-.19,8.53-4.28,17.45-12.4,17.45-22.63,0-5.15-2.37-10.01-8.23-10.01m-8.63,27.98l.29-19.34c.2-.9,1.69-3.77,5.66-3.77,3.58,0,3.87,3.36,3.87,5.46,0,8.82-3.27,12.49-9.83,17.65"/><path d="M2008.05,31.85c9.13-6.35,13.28-12.6,13.28-19.75,0-7.53-4.36-12.11-11.01-12.11-4.76,0-7.94,3.38-7.94,7.35,0,4.26,3.67,7.55,7.94,7.55,2.88,0,4.26-.7,4.56-.81,.31-.09,.5-.19,.81-.19,.09,0,.29,0,.39,.09,.2,.09,.29,.4,.29,.99,0,4.26-3.86,9.13-10.71,13.89l2.39,2.98"/><path d="M2343.04,339.74c-9.32-10.12-17.56-10.71-22.71-10.71s-13.3,.59-22.63,10.71c-4.85,5.36-8.23,15.96-8.23,21.33,0,1.89,.4,3.18,1.39,3.18,2.77,0,1.38-8.54,9.72-16.97,7.33-7.33,17.16-7.44,19.55-7.44h.39c2.39,0,12.21,.11,19.55,7.44,8.34,8.43,6.94,16.97,9.72,16.97,.99,0,1.39-1.19,1.39-3.18,0-5.36-3.27-16.07-8.14-21.33m-29.56,18.94c0,3.78,3.07,6.85,6.85,6.85s6.84-3.07,6.84-6.85-3.07-6.84-6.84-6.84-6.85,3.07-6.85,6.84"/><path d="M1693.23,118.63l171.87-12.4v12.44l-171.87,12.4v-12.44" fill-rule="evenodd"/><path d="M1925.6,371.73l308.74,6.2v12.4l-308.74-6.2v-12.4" fill-rule="evenodd"/><path d="M690.42,168.23l171.88-12.4v12.44l-171.88,12.4v-12.44" fill-rule="evenodd"/><path d="M2082.84,131.03l171.88,12.4v12.44l-171.88-12.4v-12.44" fill-rule="evenodd"/><path d="M218.77,38.01l171.88-18.6v12.48l-171.88,18.6v-12.48" fill-rule="evenodd"/><path d="M189.02,489.53l308.74,12.4v12.41l-308.74-12.4v-12.41" fill-rule="evenodd"/><path d="M2308.7,137.21l171.88,18.6v12.48l-171.88-18.6v-12.48" fill-rule="evenodd"/><path d="M1191.82,143.43l171.88-12.4v12.44l-171.88,12.4v-12.44" fill-rule="evenodd"/><path d="M627.13,340.73l308.75,12.4v12.41l-308.75-12.4v-12.41" fill-rule="evenodd"/><path d="M916.28,155.81l171.88-18.6v12.48l-171.88,18.6v-12.48" fill-rule="evenodd"/><path d="M444.63,19.43l171.88-12.4v12.44l-171.88,12.4v-12.44" fill-rule="evenodd"/><path d="M1417.68,137.25l171.88-6.2v12.4l-171.88,6.2v-12.4" fill-rule="evenodd"/><path d="M1072.18,353.12l308.75,18.6v12.42l-308.75-18.6v-12.42" fill-rule="evenodd"/><path d="M1480.54,365.53l308.74,12.4v12.41l-308.74-12.4v-12.41" fill-rule="evenodd"/></g></svg>