<?xml version="1.0" encoding="UTF-8"?><svg id="b" xmlns="http://www.w3.org/2000/svg" viewBox="0 0 2552 843.75"><g id="c"><line y1="35.91" x2="2552" y2="35.91" fill="none" stroke="#000" stroke-linejoin="bevel" stroke-width="2.73"/><line y1="60.71" x2="2552" y2="60.71" fill="none" stroke="#000" stroke-linejoin="bevel" stroke-width="2.73"/><line y1="85.51" x2="2552" y2="85.51" fill="none" stroke="#000" stroke-linejoin="bevel" stroke-width="2.73"/><line y1="110.31" x2="2552" y2="110.31" fill="none" stroke="#000" stroke-linejoin="bevel" stroke-width="2.73"/><line y1="135.11" x2="2552" y2="135.11" fill="none" stroke="#000" stroke-linejoin="bevel" stroke-width="2.73"/><line y1="369.59" x2="2552" y2="369.59" fill="none" stroke="#000" stroke-linejoin="bevel" stroke-width="2.73"/><line y1="394.39" x2="2552" y2="394.39" fill="none" stroke="#000" stroke-linejoin="bevel" stroke-width="2.73"/><line y1="419.19" x2="2552" y2="419.19" fill="none" stroke="#000" stroke-linejoin="bevel" stroke-width="2.73"/><line y1="443.99" x2="2552" y2="443.99" fill="none" stroke="#000" stroke-linejoin="bevel" stroke-width="2.73"/><line y1="468.79" x2="2552" y2="468.79" fill="none" stroke="#000" stroke-linejoin="bevel" stroke-width="2.73"/><line y1="703.27" x2="2552" y2="703.27" fill="none" stroke="#000" stroke-linejoin="bevel" stroke-width="2.73"/><line y1="728.07" x2="2552" y2="728.07" fill="none" stroke="#000" stroke-linejoin="bevel" stroke-width="2.73"/><line y1="752.87" x2="2552" y2="752.87" fill="none" stroke="#000" stroke-linejoin="bevel" stroke-width="2.73"/><line y1="777.67" x2="2552" y2="777.67" fill="none" stroke="#000" stroke-linejoin="bevel" stroke-width="2.73"/><line y1="802.47" x2="2552" y2="802.47" fill="none" stroke="#000" stroke-linejoin="bevel" stroke-width="2.73"/><line x1="1499.23" y1="368.23" x2="1499.23" y2="470.16" fill="none" stroke="#000" stroke-linejoin="bevel" stroke-width="4.46"/><line x1="2536.13" y1="701.91" x2="2536.13" y2="803.83" fill="none" stroke="#000" stroke-linejoin="bevel" stroke-width="4.46"/><line x1="2549.77" y1="701.91" x2="2549.77" y2="803.83" fill="none" stroke="#000" stroke-linejoin="bevel" stroke-width="4.46"/><line x1="2151.24" y1="34.55" x2="2151.24" y2="136.48" fill="none" stroke="#000" stroke-linejoin="bevel" stroke-width="4.46"/><line x1="557.14" y1="34.55" x2="557.14" y2="136.48" fill="none" stroke="#000" stroke-linejoin="bevel" stroke-width="4.46"/><line x1="1203.12" y1="701.91" x2="1203.12" y2="803.83" fill="none" stroke="#000" stroke-linejoin="bevel" stroke-width="4.46"/><line x1="2024.5" y1="368.23" x2="2024.5" y2="470.16" fill="none" stroke="#000" stroke-linejoin="bevel" stroke-width="4.46"/><line x1="2549.77" y1="34.55" x2="2549.77" y2="136.48" fill="none" stroke="#000" stroke-linejoin="bevel" stroke-width="4.46"/><line x1="955.66" y1="34.55" x2="955.66" y2="136.48" fill="none" stroke="#000" stroke-linejoin="bevel" stroke-width="4.46"/><line x1="1725.37" y1="701.91" x2="1725.37" y2="803.83" fill="none" stroke="#000" stroke-linejoin="bevel" stroke-width="4.46"/><line x1="1354.19" y1="34.55" x2="1354.19" y2="136.48" fill="none" stroke="#000" stroke-linejoin="bevel" stroke-width="4.46"/><line x1="2549.77" y1="368.23" x2="2549.77" y2="470.16" fill="none" stroke="#000" stroke-linejoin="bevel" stroke-width="4.46"/><line x1="683.88" y1="368.23" x2="683.88" y2="470.16" fill="none" stroke="#000" stroke-linejoin="bevel" stroke-width="4.46"/><line x1="2247.62" y1="701.91" x2="2247.62" y2="803.83" fill="none" stroke="#000" stroke-linejoin="bevel" stroke-width="4.46"/><line x1="973.95" y1="368.23" x2="973.95" y2="470.16" fill="none" stroke="#000" stroke-linejoin="bevel" stroke-width="4.46"/><line x1="680.87" y1="701.91" x2="680.87" y2="803.83" fill="none" stroke="#000" stroke-linejoin="bevel" stroke-width="4.46"/><line x1="1752.72" y1="34.55" x2="1752.72" y2="136.48" fill="none" stroke="#000" stroke-linejoin="bevel" stroke-width="4.46"/><line x1="1266.73" y1="344.79" x2="1315.33" y2="344.79" fill="none" stroke="#000" stroke-linejoin="bevel" stroke-width="3.97"/><line x1="1057.16" y1="77.28" x2="1057.16" y2="153.83" fill="none" stroke="#000" stroke-linejoin="bevel" stroke-width="2.48"/><line x1="1152.7" y1="81.55" x2="1152.7" y2="11.23" fill="none" stroke="#000" stroke-linejoin="bevel" stroke-width="2.48"/><line x1="1218.49" y1="93.95" x2="1218.49" y2="17.2" fill="none" stroke="#000" stroke-linejoin="bevel" stroke-width="2.48"/><line x1="1254.52" y1="89.68" x2="1254.52" y2="159.91" fill="none" stroke="#000" stroke-linejoin="bevel" stroke-width="2.48"/><line x1="1389.9" y1="77.28" x2="1389.9" y2="141.2" fill="none" stroke="#000" stroke-linejoin="bevel" stroke-width="2.48"/><line x1="1455.69" y1="64.88" x2="1455.69" y2="135.23" fill="none" stroke="#000" stroke-linejoin="bevel" stroke-width="2.48"/><line x1="1521.47" y1="77.28" x2="1521.47" y2="153.83" fill="none" stroke="#000" stroke-linejoin="bevel" stroke-width="2.48"/><line x1="1587.26" y1="89.68" x2="1587.26" y2="159.8" fill="none" stroke="#000" stroke-linejoin="bevel" stroke-width="2.48"/><line x1="1653.05" y1="77.28" x2="1653.05" y2="153.71" fill="none" stroke="#000" stroke-linejoin="bevel" stroke-width="2.48"/><line x1="1788.43" y1="64.88" x2="1788.43" y2="135" fill="none" stroke="#000" stroke-linejoin="bevel" stroke-width="2.48"/><line x1="1854.21" y1="52.48" x2="1854.21" y2="129.03" fill="none" stroke="#000" stroke-linejoin="bevel" stroke-width="2.48"/><line x1="1920" y1="64.88" x2="1920" y2="135.23" fill="none" stroke="#000" stroke-linejoin="bevel" stroke-width="2.48"/><line x1="1985.79" y1="77.28" x2="1985.79" y2="141.2" fill="none" stroke="#000" stroke-linejoin="bevel" stroke-width="2.48"/><line x1="2051.57" y1="64.88" x2="2051.57" y2="147.51" fill="none" stroke="#000" stroke-linejoin="bevel" stroke-width="2.48"/><line x1="2186.96" y1="52.48" x2="2186.96" y2="116.4" fill="none" stroke="#000" stroke-linejoin="bevel" stroke-width="2.48"/><line x1="2252.74" y1="40.08" x2="2252.74" y2="110.43" fill="none" stroke="#000" stroke-linejoin="bevel" stroke-width="2.48"/><line x1="2318.53" y1="52.48" x2="2318.53" y2="129.03" fill="none" stroke="#000" stroke-linejoin="bevel" stroke-width="2.48"/><line x1="2384.31" y1="64.88" x2="2384.31" y2="135" fill="none" stroke="#000" stroke-linejoin="bevel" stroke-width="2.48"/><line x1="2450.1" y1="52.48" x2="2450.1" y2="135.11" fill="none" stroke="#000" stroke-linejoin="bevel" stroke-width="2.48"/><line x1="194.32" y1="373.76" x2="194.32" y2="443.91" fill="none" stroke="#000" stroke-linejoin="bevel" stroke-width="2.48"/><line x1="283.15" y1="361.36" x2="283.15" y2="437.88" fill="none" stroke="#000" stroke-linejoin="bevel" stroke-width="2.48"/><line x1="371.99" y1="373.76" x2="371.99" y2="444.08" fill="none" stroke="#000" stroke-linejoin="bevel" stroke-width="2.48"/><line x1="460.82" y1="386.16" x2="460.82" y2="450.11" fill="none" stroke="#000" stroke-linejoin="bevel" stroke-width="2.48"/><line x1="549.65" y1="373.76" x2="549.65" y2="456.39" fill="none" stroke="#000" stroke-linejoin="bevel" stroke-width="2.48"/><line x1="719.6" y1="361.36" x2="719.6" y2="443.99" fill="none" stroke="#000" stroke-linejoin="bevel" stroke-width="2.48"/><line x1="1009.67" y1="361.36" x2="1009.67" y2="437.88" fill="none" stroke="#000" stroke-linejoin="bevel" stroke-width="2.48"/><line x1="1098.5" y1="373.76" x2="1098.5" y2="443.91" fill="none" stroke="#000" stroke-linejoin="bevel" stroke-width="2.48"/><line x1="1187.33" y1="361.36" x2="1187.33" y2="425.31" fill="none" stroke="#000" stroke-linejoin="bevel" stroke-width="2.48"/><line x1="1276.16" y1="348.96" x2="1276.16" y2="419.28" fill="none" stroke="#000" stroke-linejoin="bevel" stroke-width="2.48"/><line x1="1364.99" y1="361.36" x2="1364.99" y2="443.99" fill="none" stroke="#000" stroke-linejoin="bevel" stroke-width="2.48"/><line x1="1534.94" y1="373.76" x2="1534.94" y2="444.08" fill="none" stroke="#000" stroke-linejoin="bevel" stroke-width="2.48"/><line x1="1623.77" y1="386.16" x2="1623.77" y2="450.11" fill="none" stroke="#000" stroke-linejoin="bevel" stroke-width="2.48"/><line x1="1712.6" y1="373.76" x2="1712.6" y2="443.91" fill="none" stroke="#000" stroke-linejoin="bevel" stroke-width="2.48"/><line x1="1801.43" y1="361.36" x2="1801.43" y2="437.88" fill="none" stroke="#000" stroke-linejoin="bevel" stroke-width="2.48"/><line x1="1890.26" y1="373.76" x2="1890.26" y2="456.39" fill="none" stroke="#000" stroke-linejoin="bevel" stroke-width="2.48"/><line x1="2060.21" y1="386.16" x2="2060.21" y2="462.68" fill="none" stroke="#000" stroke-linejoin="bevel" stroke-width="2.48"/><line x1="2149.04" y1="398.56" x2="2149.04" y2="468.71" fill="none" stroke="#000" stroke-linejoin="bevel" stroke-width="2.48"/><line x1="2237.87" y1="386.16" x2="2237.87" y2="450.11" fill="none" stroke="#000" stroke-linejoin="bevel" stroke-width="2.48"/><line x1="2326.7" y1="373.76" x2="2326.7" y2="444.08" fill="none" stroke="#000" stroke-linejoin="bevel" stroke-width="2.48"/><line x1="2415.53" y1="386.16" x2="2415.53" y2="468.79" fill="none" stroke="#000" stroke-linejoin="bevel" stroke-width="2.48"/><line x1="893.14" y1="744.64" x2="893.14" y2="808.58" fill="none" stroke="#000" stroke-linejoin="bevel" stroke-width="2.48"/><line x1="194.32" y1="732.24" x2="194.32" y2="802.55" fill="none" stroke="#000" stroke-linejoin="bevel" stroke-width="2.48"/><line x1="224.08" y1="106.35" x2="224.08" y2="35.8" fill="none" stroke="#000" stroke-linejoin="bevel" stroke-width="2.48"/><line x1="282.61" y1="744.64" x2="282.61" y2="808.58" fill="none" stroke="#000" stroke-linejoin="bevel" stroke-width="2.48"/><line x1="370.89" y1="732.24" x2="370.89" y2="802.38" fill="none" stroke="#000" stroke-linejoin="bevel" stroke-width="2.48"/><line x1="459.17" y1="719.84" x2="459.17" y2="796.35" fill="none" stroke="#000" stroke-linejoin="bevel" stroke-width="2.48"/><line x1="547.45" y1="732.24" x2="547.45" y2="814.87" fill="none" stroke="#000" stroke-linejoin="bevel" stroke-width="2.48"/><line x1="716.58" y1="744.64" x2="716.58" y2="821.15" fill="none" stroke="#000" stroke-linejoin="bevel" stroke-width="2.48"/><line x1="804.86" y1="757.04" x2="804.86" y2="827.18" fill="none" stroke="#000" stroke-linejoin="bevel" stroke-width="2.48"/><line x1="289.86" y1="93.95" x2="289.86" y2="29.83" fill="none" stroke="#000" stroke-linejoin="bevel" stroke-width="2.48"/><line x1="981.42" y1="732.24" x2="981.42" y2="802.55" fill="none" stroke="#000" stroke-linejoin="bevel" stroke-width="2.48"/><line x1="1069.7" y1="744.64" x2="1069.7" y2="821.07" fill="none" stroke="#000" stroke-linejoin="bevel" stroke-width="2.48"/><line x1="1268.58" y1="748.9" x2="1268.58" y2="678.55" fill="none" stroke="#000" stroke-linejoin="bevel" stroke-width="2.48"/><line x1="1356.86" y1="761.3" x2="1356.86" y2="684.58" fill="none" stroke="#000" stroke-linejoin="bevel" stroke-width="2.48"/><line x1="1415.39" y1="757.04" x2="1415.39" y2="827.18" fill="none" stroke="#000" stroke-linejoin="bevel" stroke-width="2.48"/><line x1="355.65" y1="106.35" x2="355.65" y2="36.03" fill="none" stroke="#000" stroke-linejoin="bevel" stroke-width="2.48"/><line x1="1503.67" y1="744.64" x2="1503.67" y2="821.15" fill="none" stroke="#000" stroke-linejoin="bevel" stroke-width="2.48"/><line x1="1591.96" y1="757.04" x2="1591.96" y2="827.27" fill="none" stroke="#000" stroke-linejoin="bevel" stroke-width="2.48"/><line x1="1790.83" y1="761.3" x2="1790.83" y2="697.15" fill="none" stroke="#000" stroke-linejoin="bevel" stroke-width="2.48"/><line x1="1879.12" y1="773.7" x2="1879.12" y2="703.18" fill="none" stroke="#000" stroke-linejoin="bevel" stroke-width="2.48"/><line x1="1967.4" y1="761.3" x2="1967.4" y2="684.58" fill="none" stroke="#000" stroke-linejoin="bevel" stroke-width="2.48"/><line x1="2055.68" y1="748.9" x2="2055.68" y2="678.55" fill="none" stroke="#000" stroke-linejoin="bevel" stroke-width="2.48"/><line x1="2143.96" y1="761.3" x2="2143.96" y2="684.67" fill="none" stroke="#000" stroke-linejoin="bevel" stroke-width="2.48"/><line x1="2313.09" y1="773.7" x2="2313.09" y2="690.87" fill="none" stroke="#000" stroke-linejoin="bevel" stroke-width="2.48"/><line x1="421.43" y1="118.75" x2="421.43" y2="42" fill="none" stroke="#000" stroke-linejoin="bevel" stroke-width="2.48"/><line x1="487.22" y1="106.35" x2="487.22" y2="23.51" fill="none" stroke="#000" stroke-linejoin="bevel" stroke-width="2.48"/><line x1="622.6" y1="93.95" x2="622.6" y2="17.2" fill="none" stroke="#000" stroke-linejoin="bevel" stroke-width="2.48"/><line x1="688.39" y1="81.55" x2="688.39" y2="11.23" fill="none" stroke="#000" stroke-linejoin="bevel" stroke-width="2.48"/><line x1="754.18" y1="93.95" x2="754.18" y2="29.83" fill="none" stroke="#000" stroke-linejoin="bevel" stroke-width="2.48"/><line x1="819.96" y1="106.35" x2="819.96" y2="35.8" fill="none" stroke="#000" stroke-linejoin="bevel" stroke-width="2.48"/><line x1="885.74" y1="93.95" x2="885.74" y2="17.31" fill="none" stroke="#000" stroke-linejoin="bevel" stroke-width="2.48"/><line x1="991.38" y1="89.68" x2="991.38" y2="159.8" fill="none" stroke="#000" stroke-linejoin="bevel" stroke-width="2.48"/><path d="M1936.41,769.44c0,4.26,3.07,9.02,11.11,9.02,10.31,0,21.13-8.43,21.13-17.16,0-5.86-4.96-9.13-11.11-9.13-9.63,0-21.13,8.14-21.13,17.27"/><path d="M2024.69,757.04c0,4.26,3.07,9.02,11.11,9.02,10.31,0,21.13-8.43,21.13-17.16,0-5.86-4.96-9.13-11.11-9.13-9.63,0-21.13,8.14-21.13,17.27"/><path d="M2112.97,769.44c0,4.26,3.07,9.02,11.11,9.02,10.31,0,21.13-8.43,21.13-17.16,0-5.86-4.96-9.13-11.11-9.13-9.63,0-21.13,8.14-21.13,17.27"/><path d="M2303.23,764.58c-9.63,0-21.13,8.04-21.13,17.27,0,4.26,3.07,9.02,11.11,9.02,10.31,0,21.13-8.43,21.13-17.16,0-5.86-4.96-9.13-11.11-9.13m-13.69,21.62c-3.27,0-3.97-2.67-3.97-3.57,0-4.87,16.66-13.39,21.33-13.39,2.39,0,3.97,1.4,3.97,3.57,0,4.96-16.77,13.39-21.33,13.39"/><path d="M193.08,114.48c0,4.26,3.07,9.02,11.11,9.02,10.31,0,21.13-8.43,21.13-17.16,0-5.86-4.96-9.13-11.11-9.13-9.63,0-21.13,8.14-21.13,17.27"/><path d="M258.87,102.08c0,4.26,3.07,9.02,11.11,9.02,10.31,0,21.13-8.43,21.13-17.16,0-5.86-4.96-9.13-11.11-9.13-9.63,0-21.13,8.14-21.13,17.27"/><path d="M324.66,114.48c0,4.26,3.07,9.02,11.11,9.02,10.31,0,21.13-8.43,21.13-17.16,0-5.86-4.96-9.13-11.11-9.13-9.63,0-21.13,8.14-21.13,17.27"/><path d="M390.44,126.88c0,4.26,3.07,9.02,11.11,9.02,10.31,0,21.13-8.43,21.13-17.16,0-5.86-4.96-9.13-11.11-9.13-9.63,0-21.13,8.14-21.13,17.27"/><path d="M456.23,114.48c0,4.26,3.07,9.02,11.11,9.02,10.31,0,21.13-8.43,21.13-17.16,0-5.86-4.96-9.13-11.11-9.13-9.63,0-21.13,8.14-21.13,17.27"/><path d="M591.61,102.08c0,4.26,3.07,9.02,11.11,9.02,10.31,0,21.13-8.43,21.13-17.16,0-5.86-4.96-9.13-11.11-9.13-9.63,0-21.13,8.14-21.13,17.27"/><path d="M657.4,89.68c0,4.26,3.07,9.02,11.11,9.02,10.31,0,21.13-8.43,21.13-17.16,0-5.86-4.96-9.13-11.11-9.13-9.63,0-21.13,8.14-21.13,17.27"/><path d="M723.18,102.08c0,4.26,3.07,9.02,11.11,9.02,10.31,0,21.13-8.43,21.13-17.16,0-5.86-4.96-9.13-11.11-9.13-9.63,0-21.13,8.14-21.13,17.27"/><path d="M788.97,114.48c0,4.26,3.07,9.02,11.11,9.02,10.31,0,21.13-8.43,21.13-17.16,0-5.86-4.96-9.13-11.11-9.13-9.63,0-21.13,8.14-21.13,17.27"/><path d="M854.75,102.08c0,4.26,3.07,9.02,11.11,9.02,10.31,0,21.13-8.43,21.13-17.16,0-5.86-4.96-9.13-11.11-9.13-9.63,0-21.13,8.14-21.13,17.27"/><path d="M990.14,89.68c0,4.26,3.07,9.02,11.11,9.02,10.31,0,21.13-8.43,21.13-17.16,0-5.86-4.96-9.13-11.11-9.13-9.63,0-21.13,8.14-21.13,17.27"/><path d="M1055.92,77.28c0,4.26,3.07,9.02,11.11,9.02,10.31,0,21.13-8.43,21.13-17.16,0-5.86-4.96-9.13-11.11-9.13-9.63,0-21.13,8.14-21.13,17.27"/><path d="M1121.71,89.68c0,4.26,3.07,9.02,11.11,9.02,10.31,0,21.13-8.43,21.13-17.16,0-5.86-4.96-9.13-11.11-9.13-9.63,0-21.13,8.14-21.13,17.27"/><path d="M1187.49,102.08c0,4.26,3.07,9.02,11.11,9.02,10.31,0,21.13-8.43,21.13-17.16,0-5.86-4.96-9.13-11.11-9.13-9.63,0-21.13,8.14-21.13,17.27"/><path d="M1253.28,89.68c0,4.26,3.07,9.02,11.11,9.02,10.31,0,21.13-8.43,21.13-17.16,0-5.86-4.96-9.13-11.11-9.13-9.63,0-21.13,8.14-21.13,17.27"/><path d="M1388.66,77.28c0,4.26,3.07,9.02,11.11,9.02,10.31,0,21.13-8.43,21.13-17.16,0-5.86-4.96-9.13-11.11-9.13-9.63,0-21.13,8.14-21.13,17.27"/><path d="M1454.45,64.88c0,4.26,3.07,9.02,11.11,9.02,10.31,0,21.13-8.43,21.13-17.16,0-5.86-4.96-9.13-11.11-9.13-9.63,0-21.13,8.14-21.13,17.27"/><path d="M1520.23,77.28c0,4.26,3.07,9.02,11.11,9.02,10.31,0,21.13-8.43,21.13-17.16,0-5.86-4.96-9.13-11.11-9.13-9.63,0-21.13,8.14-21.13,17.27"/><path d="M1586.02,89.68c0,4.26,3.07,9.02,11.11,9.02,10.31,0,21.13-8.43,21.13-17.16,0-5.86-4.96-9.13-11.11-9.13-9.63,0-21.13,8.14-21.13,17.27"/><path d="M1651.81,77.28c0,4.26,3.07,9.02,11.11,9.02,10.31,0,21.13-8.43,21.13-17.16,0-5.86-4.96-9.13-11.11-9.13-9.63,0-21.13,8.14-21.13,17.27"/><path d="M1787.19,64.88c0,4.26,3.07,9.02,11.11,9.02,10.31,0,21.13-8.43,21.13-17.16,0-5.86-4.96-9.13-11.11-9.13-9.63,0-21.13,8.14-21.13,17.27"/><path d="M1852.97,52.48c0,4.26,3.07,9.02,11.11,9.02,10.31,0,21.13-8.43,21.13-17.16,0-5.86-4.96-9.13-11.11-9.13-9.63,0-21.13,8.14-21.13,17.27"/><path d="M1918.76,64.88c0,4.26,3.07,9.02,11.11,9.02,10.31,0,21.13-8.43,21.13-17.16,0-5.86-4.96-9.13-11.11-9.13-9.63,0-21.13,8.14-21.13,17.27"/><path d="M1984.55,77.28c0,4.26,3.07,9.02,11.11,9.02,10.31,0,21.13-8.43,21.13-17.16,0-5.86-4.96-9.13-11.11-9.13-9.63,0-21.13,8.14-21.13,17.27"/><path d="M2050.33,64.88c0,4.26,3.07,9.02,11.11,9.02,10.31,0,21.13-8.43,21.13-17.16,0-5.86-4.96-9.13-11.11-9.13-9.63,0-21.13,8.14-21.13,17.27"/><path d="M2185.72,52.48c0,4.26,3.07,9.02,11.11,9.02,10.31,0,21.13-8.43,21.13-17.16,0-5.86-4.96-9.13-11.11-9.13-9.63,0-21.13,8.14-21.13,17.27"/><path d="M2251.5,40.08c0,4.26,3.07,9.02,11.11,9.02,10.31,0,21.13-8.43,21.13-17.16,0-5.86-4.96-9.13-11.11-9.13-9.63,0-21.13,8.14-21.13,17.27"/><path d="M2317.29,52.48c0,4.26,3.07,9.02,11.11,9.02,10.31,0,21.13-8.43,21.13-17.16,0-5.86-4.96-9.13-11.11-9.13-9.63,0-21.13,8.14-21.13,17.27"/><path d="M2383.07,64.88c0,4.26,3.07,9.02,11.11,9.02,10.31,0,21.13-8.43,21.13-17.16,0-5.86-4.96-9.13-11.11-9.13-9.63,0-21.13,8.14-21.13,17.27"/><path d="M2448.86,52.48c0,4.26,3.07,9.02,11.11,9.02,10.31,0,21.13-8.43,21.13-17.16,0-5.86-4.96-9.13-11.11-9.13-9.63,0-21.13,8.14-21.13,17.27"/><path d="M193.08,373.76c0,4.26,3.07,9.02,11.11,9.02,10.31,0,21.13-8.43,21.13-17.16,0-5.86-4.96-9.13-11.11-9.13-9.63,0-21.13,8.14-21.13,17.27"/><path d="M281.91,361.36c0,4.26,3.07,9.02,11.11,9.02,10.31,0,21.13-8.43,21.13-17.16,0-5.86-4.96-9.13-11.11-9.13-9.63,0-21.13,8.14-21.13,17.27"/><path d="M370.75,373.76c0,4.26,3.07,9.02,11.11,9.02,10.31,0,21.13-8.43,21.13-17.16,0-5.86-4.96-9.13-11.11-9.13-9.63,0-21.13,8.14-21.13,17.27"/><path d="M459.58,386.16c0,4.26,3.07,9.02,11.11,9.02,10.31,0,21.13-8.43,21.13-17.16,0-5.86-4.96-9.13-11.11-9.13-9.63,0-21.13,8.14-21.13,17.27"/><path d="M548.41,373.76c0,4.26,3.07,9.02,11.11,9.02,10.31,0,21.13-8.43,21.13-17.16,0-5.86-4.96-9.13-11.11-9.13-9.63,0-21.13,8.14-21.13,17.27"/><path d="M739.48,344.1c-9.63,0-21.13,8.04-21.13,17.27,0,4.26,3.07,9.02,11.11,9.02,10.31,0,21.13-8.43,21.13-17.16,0-5.86-4.96-9.13-11.11-9.13m-13.69,21.62c-3.27,0-3.97-2.67-3.97-3.57,0-4.87,16.66-13.39,21.33-13.39,2.39,0,3.97,1.4,3.97,3.57,0,4.96-16.77,13.39-21.33,13.39"/><path d="M1008.43,361.36c0,4.26,3.07,9.02,11.11,9.02,10.31,0,21.13-8.43,21.13-17.16,0-5.86-4.96-9.13-11.11-9.13-9.63,0-21.13,8.14-21.13,17.27"/><path d="M1097.26,373.76c0,4.26,3.07,9.02,11.11,9.02,10.31,0,21.13-8.43,21.13-17.16,0-5.86-4.96-9.13-11.11-9.13-9.63,0-21.13,8.14-21.13,17.27"/><path d="M1186.09,361.36c0,4.26,3.07,9.02,11.11,9.02,10.31,0,21.13-8.43,21.13-17.16,0-5.86-4.96-9.13-11.11-9.13-9.63,0-21.13,8.14-21.13,17.27"/><path d="M1274.92,348.96c0,4.26,3.07,9.02,11.11,9.02,10.31,0,21.13-8.43,21.13-17.16,0-5.86-4.96-9.13-11.11-9.13-9.63,0-21.13,8.14-21.13,17.27"/><path d="M1363.75,361.36c0,4.26,3.07,9.02,11.11,9.02,10.31,0,21.13-8.43,21.13-17.16,0-5.86-4.96-9.13-11.11-9.13-9.63,0-21.13,8.14-21.13,17.27"/><path d="M1533.7,373.76c0,4.26,3.07,9.02,11.11,9.02,10.31,0,21.13-8.43,21.13-17.16,0-5.86-4.96-9.13-11.11-9.13-9.63,0-21.13,8.14-21.13,17.27"/><path d="M1622.53,386.16c0,4.26,3.07,9.02,11.11,9.02,10.31,0,21.13-8.43,21.13-17.16,0-5.86-4.96-9.13-11.11-9.13-9.63,0-21.13,8.14-21.13,17.27"/><path d="M1711.36,373.76c0,4.26,3.07,9.02,11.11,9.02,10.31,0,21.13-8.43,21.13-17.16,0-5.86-4.96-9.13-11.11-9.13-9.63,0-21.13,8.14-21.13,17.27"/><path d="M1800.19,361.36c0,4.26,3.07,9.02,11.11,9.02,10.31,0,21.13-8.43,21.13-17.16,0-5.86-4.96-9.13-11.11-9.13-9.63,0-21.13,8.14-21.13,17.27"/><path d="M1889.02,373.76c0,4.26,3.07,9.02,11.11,9.02,10.31,0,21.13-8.43,21.13-17.16,0-5.86-4.96-9.13-11.11-9.13-9.63,0-21.13,8.14-21.13,17.27"/><path d="M2058.97,386.16c0,4.26,3.07,9.02,11.11,9.02,10.31,0,21.13-8.43,21.13-17.16,0-5.86-4.96-9.13-11.11-9.13-9.63,0-21.13,8.14-21.13,17.27"/><path d="M2147.8,398.56c0,4.26,3.07,9.02,11.11,9.02,10.31,0,21.13-8.43,21.13-17.16,0-5.86-4.96-9.13-11.11-9.13-9.63,0-21.13,8.14-21.13,17.27"/><path d="M2236.63,386.16c0,4.26,3.07,9.02,11.11,9.02,10.31,0,21.13-8.43,21.13-17.16,0-5.86-4.96-9.13-11.11-9.13-9.63,0-21.13,8.14-21.13,17.27"/><path d="M2325.46,373.76c0,4.26,3.07,9.02,11.11,9.02,10.31,0,21.13-8.43,21.13-17.16,0-5.86-4.96-9.13-11.11-9.13-9.63,0-21.13,8.14-21.13,17.27"/><path d="M2414.29,386.16c0,4.26,3.07,9.02,11.11,9.02,10.31,0,21.13-8.43,21.13-17.16,0-5.86-4.96-9.13-11.11-9.13-9.63,0-21.13,8.14-21.13,17.27"/><path d="M193.08,732.24c0,4.26,3.07,9.02,11.11,9.02,10.31,0,21.13-8.43,21.13-17.16,0-5.86-4.96-9.13-11.11-9.13-9.63,0-21.13,8.14-21.13,17.27"/><path d="M281.37,744.64c0,4.26,3.07,9.02,11.11,9.02,10.31,0,21.13-8.43,21.13-17.16,0-5.86-4.96-9.13-11.11-9.13-9.63,0-21.13,8.14-21.13,17.27"/><path d="M369.65,732.24c0,4.26,3.07,9.02,11.11,9.02,10.31,0,21.13-8.43,21.13-17.16,0-5.86-4.96-9.13-11.11-9.13-9.63,0-21.13,8.14-21.13,17.27"/><path d="M457.93,719.84c0,4.26,3.07,9.02,11.11,9.02,10.31,0,21.13-8.43,21.13-17.16,0-5.86-4.96-9.13-11.11-9.13-9.63,0-21.13,8.14-21.13,17.27"/><path d="M546.21,732.24c0,4.26,3.07,9.02,11.11,9.02,10.31,0,21.13-8.43,21.13-17.16,0-5.86-4.96-9.13-11.11-9.13-9.63,0-21.13,8.14-21.13,17.27"/><path d="M715.34,744.64c0,4.26,3.07,9.02,11.11,9.02,10.31,0,21.13-8.43,21.13-17.16,0-5.86-4.96-9.13-11.11-9.13-9.63,0-21.13,8.14-21.13,17.27"/><path d="M803.62,757.04c0,4.26,3.07,9.02,11.11,9.02,10.31,0,21.13-8.43,21.13-17.16,0-5.86-4.96-9.13-11.11-9.13-9.63,0-21.13,8.14-21.13,17.27"/><path d="M891.9,744.64c0,4.26,3.07,9.02,11.11,9.02,10.31,0,21.13-8.43,21.13-17.16,0-5.86-4.96-9.13-11.11-9.13-9.63,0-21.13,8.14-21.13,17.27"/><path d="M980.18,732.24c0,4.26,3.07,9.02,11.11,9.02,10.31,0,21.13-8.43,21.13-17.16,0-5.86-4.96-9.13-11.11-9.13-9.63,0-21.13,8.14-21.13,17.27"/><path d="M1068.46,744.64c0,4.26,3.07,9.02,11.11,9.02,10.31,0,21.13-8.43,21.13-17.16,0-5.86-4.96-9.13-11.11-9.13-9.63,0-21.13,8.14-21.13,17.27"/><path d="M1237.59,757.04c0,4.26,3.07,9.02,11.11,9.02,10.31,0,21.13-8.43,21.13-17.16,0-5.86-4.96-9.13-11.11-9.13-9.63,0-21.13,8.14-21.13,17.27"/><path d="M1325.87,769.44c0,4.26,3.07,9.02,11.11,9.02,10.31,0,21.13-8.43,21.13-17.16,0-5.86-4.96-9.13-11.11-9.13-9.63,0-21.13,8.14-21.13,17.27"/><path d="M1414.15,757.04c0,4.26,3.07,9.02,11.11,9.02,10.31,0,21.13-8.43,21.13-17.16,0-5.86-4.96-9.13-11.11-9.13-9.63,0-21.13,8.14-21.13,17.27"/><path d="M1502.43,744.64c0,4.26,3.07,9.02,11.11,9.02,10.31,0,21.13-8.43,21.13-17.16,0-5.86-4.96-9.13-11.11-9.13-9.63,0-21.13,8.14-21.13,17.27"/><path d="M1590.72,757.04c0,4.26,3.07,9.02,11.11,9.02,10.31,0,21.13-8.43,21.13-17.16,0-5.86-4.96-9.13-11.11-9.13-9.63,0-21.13,8.14-21.13,17.27"/><path d="M1759.84,769.44c0,4.26,3.07,9.02,11.11,9.02,10.31,0,21.13-8.43,21.13-17.16,0-5.86-4.96-9.13-11.11-9.13-9.63,0-21.13,8.14-21.13,17.27"/><path d="M1848.12,781.84c0,4.26,3.07,9.02,11.11,9.02,10.31,0,21.13-8.43,21.13-17.16,0-5.86-4.96-9.13-11.11-9.13-9.63,0-21.13,8.14-21.13,17.27"/><path d="M30.8,494.88c0,6.56,4.96,15.19,18.35,15.19,4.67,0,8.74-1.19,12.31-3.38,5.36-3.77,6.74-10.32,6.74-16.57,0-3.86-.59-8.32-1.58-13.98-.29-1.98-.9-4.96-1.49-8.84,9.72-3.18,16.96-13.3,16.96-23.51,0-14.97-10.62-25.09-25.09-25.09-.99-5.95-1.98-11.81-2.77-17.36,10.42-11.02,17.65-23.42,17.65-39.18,0-9.04-2.77-16.37-4.37-19.95-2.37-5.05-5.25-8.53-7.04-8.53-.7,0-3.77,1.19-7.04,5.05-6.36,7.55-8.14,20.24-8.14,28.57,0,5.36,.5,10.23,2.19,21.34-.11,.09-5.27,5.35-7.35,7.04-9.04,8.34-21.53,20.43-21.53,40.28,0,18.54,16.17,33.12,34.63,33.12,2.87,0,5.55-.29,7.83-.7,1.89,9.53,3.08,16.48,3.08,21.73,0,10.32-5.36,15.78-15.38,15.78-2.39,0-4.46-.5-4.67-.5-.09-.11-.29-.2-.29-.29,0-.2,.2-.31,.5-.31,4.67-.79,9.32-4.76,9.32-11.1,0-5.36-4.06-11.02-11.5-11.02-6.94,0-11.31,5.66-11.31,12.2m20.74-132.43c.9-3.97,5.46-14.38,10.62-14.38,1.49,0,3.86,4.76,3.86,11.7,0,10.32-7.63,18.06-14.48,24.8-.59-3.97-1.08-7.83-1.08-12,0-3.67,.29-7.05,1.08-10.12m8.73,101.97c-1.98,.4-3.86,.6-5.75,.6-14.18,0-26.29-9.92-26.29-24.91,0-12.09,8.53-22.91,17.27-30.46,1.67-1.49,3.27-2.87,4.76-4.36,.88,5.35,1.58,10.01,2.28,14.09-9.04,2.68-15.17,12.2-15.17,21.53,0,6.94,5.46,16.46,13.39,16.46,.79,0,1.69-.4,1.69-1.29s-.99-1.39-2.19-2.19c-3.88-2.39-6.06-4.96-6.06-9.83,0-6.05,4.57-10.91,10.32-12.29l5.75,32.63m14.09-18.35c0,7.05-2.88,14.29-9.92,17.17-2.08-11.9-4.76-27.68-5.46-32.05,8.93,0,15.38,6.06,15.38,14.88"/><path d="M30.8,161.2c0,6.56,4.96,15.19,18.35,15.19,4.67,0,8.74-1.19,12.31-3.38,5.36-3.77,6.74-10.32,6.74-16.57,0-3.86-.59-8.32-1.58-13.98-.29-1.98-.9-4.96-1.49-8.84,9.72-3.18,16.96-13.3,16.96-23.51,0-14.97-10.62-25.09-25.09-25.09-.99-5.95-1.98-11.81-2.77-17.36,10.42-11.02,17.65-23.42,17.65-39.18,0-9.04-2.77-16.37-4.37-19.95-2.37-5.05-5.25-8.53-7.04-8.53-.7,0-3.77,1.19-7.04,5.05-6.36,7.55-8.14,20.24-8.14,28.57,0,5.36,.5,10.23,2.19,21.34-.11,.09-5.27,5.35-7.35,7.04-9.04,8.34-21.53,20.43-21.53,40.28,0,18.54,16.17,33.12,34.63,33.12,2.87,0,5.55-.29,7.83-.7,1.89,9.53,3.08,16.48,3.08,21.73,0,10.32-5.36,15.78-15.38,15.78-2.39,0-4.46-.5-4.67-.5-.09-.11-.29-.2-.29-.29,0-.2,.2-.31,.5-.31,4.67-.79,9.32-4.76,9.32-11.1,0-5.36-4.06-11.02-11.5-11.02-6.94,0-11.31,5.66-11.31,12.2M51.54,28.77c.9-3.97,5.46-14.38,10.62-14.38,1.49,0,3.86,4.76,3.86,11.7,0,10.32-7.63,18.06-14.48,24.8-.59-3.97-1.08-7.83-1.08-12,0-3.67,.29-7.05,1.08-10.12m8.73,101.97c-1.98,.4-3.86,.6-5.75,.6-14.18,0-26.29-9.92-26.29-24.91,0-12.09,8.53-22.91,17.27-30.46,1.67-1.49,3.27-2.87,4.76-4.36,.88,5.35,1.58,10.01,2.28,14.09-9.04,2.68-15.17,12.2-15.17,21.53,0,6.94,5.46,16.46,13.39,16.46,.79,0,1.69-.4,1.69-1.29s-.99-1.39-2.19-2.19c-3.88-2.39-6.06-4.96-6.06-9.83,0-6.05,4.57-10.91,10.32-12.29l5.75,32.63m14.09-18.35c0,7.05-2.88,14.29-9.92,17.17-2.08-11.9-4.76-27.68-5.46-32.05,8.93,0,15.38,6.06,15.38,14.88"/><path d="M30.8,828.56c0,6.56,4.96,15.19,18.35,15.19,4.67,0,8.74-1.19,12.31-3.38,5.36-3.77,6.74-10.32,6.74-16.57,0-3.86-.59-8.32-1.58-13.98-.29-1.98-.9-4.96-1.49-8.84,9.72-3.18,16.96-13.3,16.96-23.51,0-14.97-10.62-25.09-25.09-25.09-.99-5.95-1.98-11.81-2.77-17.36,10.42-11.02,17.65-23.42,17.65-39.18,0-9.04-2.77-16.37-4.37-19.95-2.37-5.05-5.25-8.53-7.04-8.53-.7,0-3.77,1.19-7.04,5.05-6.36,7.55-8.14,20.24-8.14,28.57,0,5.36,.5,10.23,2.19,21.34-.11,.09-5.27,5.35-7.35,7.04-9.04,8.34-21.53,20.43-21.53,40.28,0,18.54,16.17,33.12,34.63,33.12,2.87,0,5.55-.29,7.83-.7,1.89,9.53,3.08,16.48,3.08,21.73,0,10.32-5.36,15.78-15.38,15.78-2.39,0-4.46-.5-4.67-.5-.09-.11-.29-.2-.29-.29,0-.2,.2-.31,.5-.31,4.67-.79,9.32-4.76,9.32-11.1,0-5.36-4.06-11.02-11.5-11.02-6.94,0-11.31,5.66-11.31,12.2m20.74-132.43c.9-3.97,5.46-14.38,10.62-14.38,1.49,0,3.86,4.76,3.86,11.7,0,10.32-7.63,18.06-14.48,24.8-.59-3.97-1.08-7.83-1.08-12,0-3.67,.29-7.05,1.08-10.12m8.73,101.97c-1.98,.4-3.86,.6-5.75,.6-14.18,0-26.29-9.92-26.29-24.91,0-12.09,8.53-22.91,17.27-30.46,1.67-1.49,3.27-2.87,4.76-4.36,.88,5.35,1.58,10.01,2.28,14.09-9.04,2.68-15.17,12.2-15.17,21.53,0,6.94,5.46,16.46,13.39,16.46,.79,0,1.69-.4,1.69-1.29s-.99-1.39-2.19-2.19c-3.88-2.39-6.06-4.96-6.06-9.83,0-6.05,4.57-10.91,10.32-12.29l5.75,32.63m14.09-18.35c0,7.05-2.88,14.29-9.92,17.17-2.08-11.9-4.76-27.68-5.46-32.05,8.93,0,15.38,6.06,15.38,14.88"/><path d="M129.99,25.5c.6-.09,1.1-.79,1.1-1.4v-5.84c0-.99-.7-1.39-1.6-1.39l-3.27,.7V2.77h-2.77v15.38l-8.83,1.8V5.95h-2.77v14.59l-3.88,.79c-.59,.11-1.09,.79-1.09,1.39v5.75c0,1.09,.79,1.4,1.69,1.4l3.27-.7v16.37l-3.88,.79c-.59,.09-1.09,.79-1.09,1.4v5.75c0,1.09,.79,1.38,1.69,1.38l3.27-.68v14.77h2.77v-15.38l8.83-1.78v14h2.77v-14.59l3.77-.7c.6-.11,1.1-.79,1.1-1.39v-5.84c0-.99-.7-1.4-1.6-1.4l-3.27,.7V26.19l3.77-.7m-15.38,3.07l8.83-1.78v16.37l-8.83,1.89V28.57"/><path d="M129.99,359.18c.6-.09,1.1-.79,1.1-1.4v-5.84c0-.99-.7-1.39-1.6-1.39l-3.27,.7v-14.79h-2.77v15.38l-8.83,1.8v-14h-2.77v14.59l-3.88,.79c-.59,.11-1.09,.79-1.09,1.39v5.75c0,1.09,.79,1.4,1.69,1.4l3.27-.7v16.37l-3.88,.79c-.59,.09-1.09,.79-1.09,1.4v5.75c0,1.09,.79,1.38,1.69,1.38l3.27-.68v14.77h2.77v-15.38l8.83-1.78v14h2.77v-14.59l3.77-.7c.6-.11,1.1-.79,1.1-1.39v-5.84c0-.99-.7-1.4-1.6-1.4l-3.27,.7v-16.37l3.77-.7m-15.38,3.07l8.83-1.78v16.37l-8.83,1.89v-16.48"/><path d="M129.99,692.86c.6-.09,1.1-.79,1.1-1.4v-5.84c0-.99-.7-1.39-1.6-1.39l-3.27,.7v-14.79h-2.77v15.38l-8.83,1.8v-14h-2.77v14.59l-3.88,.79c-.59,.11-1.09,.79-1.09,1.39v5.75c0,1.09,.79,1.4,1.69,1.4l3.27-.7v16.37l-3.88,.79c-.59,.09-1.09,.79-1.09,1.4v5.75c0,1.09,.79,1.38,1.69,1.38l3.27-.68v14.77h2.77v-15.38l8.83-1.78v14h2.77v-14.59l3.77-.7c.6-.11,1.1-.79,1.1-1.39v-5.84c0-.99-.7-1.4-1.6-1.4l-3.27,.7v-16.37l3.77-.7m-15.38,3.07l8.83-1.78v16.37l-8.83,1.89v-16.48"/><path d="M933.64,357.19c9.13-6.36,13.28-12.6,13.28-19.75,0-7.53-4.36-12.11-11.01-12.11-4.76,0-7.94,3.38-7.94,7.35,0,4.26,3.67,7.55,7.94,7.55,2.88,0,4.26-.7,4.56-.81,.31-.09,.5-.19,.81-.19,.09,0,.29,0,.39,.09,.2,.09,.29,.4,.29,.99,0,4.26-3.86,9.13-10.71,13.89l2.39,2.98"/><path d="M2320.94,655.16c-9.32-10.12-17.56-10.71-22.71-10.71s-13.3,.59-22.63,10.71c-4.85,5.36-8.23,15.97-8.23,21.33,0,1.89,.4,3.18,1.4,3.18,2.77,0,1.38-8.54,9.72-16.97,7.33-7.33,17.16-7.44,19.55-7.44h.39c2.39,0,12.21,.11,19.55,7.44,8.34,8.43,6.94,16.97,9.72,16.97,.99,0,1.39-1.19,1.39-3.18,0-5.36-3.27-16.07-8.14-21.33m-29.56,18.94c0,3.78,3.07,6.85,6.85,6.85s6.84-3.07,6.84-6.85-3.07-6.84-6.84-6.84-6.85,3.07-6.85,6.84"/><path d="M1414.15,821.05l90.76-6.2v12.43l-90.76,6.2v-12.43" fill-rule="evenodd"/><path d="M1267.34,672.25l90.76,6.2v12.43l-90.76-6.2v-12.43" fill-rule="evenodd"/><path d="M891.9,802.45l90.76-6.2v12.43l-90.76,6.2v-12.43" fill-rule="evenodd"/><path d="M715.34,814.85l90.76,6.2v12.43l-90.76-6.2v-12.43" fill-rule="evenodd"/><path d="M369.65,796.25l90.76-6.2v12.43l-90.76,6.2v-12.43" fill-rule="evenodd"/><path d="M193.08,796.25l90.76,6.2v12.43l-90.76-6.2v-12.43" fill-rule="evenodd"/><path d="M2236.63,443.98l91.31-6.2v12.43l-91.31,6.2v-12.43" fill-rule="evenodd"/><path d="M2058.97,456.38l91.31,6.2v12.43l-91.31-6.2v-12.43" fill-rule="evenodd"/><path d="M1711.36,437.78l91.31-6.2v12.43l-91.31,6.2v-12.43" fill-rule="evenodd"/><path d="M1533.7,437.78l91.31,6.2v12.43l-91.31-6.2v-12.43" fill-rule="evenodd"/><path d="M1186.09,419.18l91.31-6.2v12.43l-91.31,6.2v-12.43" fill-rule="evenodd"/><path d="M1008.43,431.58l91.31,6.2v12.43l-91.31-6.2v-12.43" fill-rule="evenodd"/><path d="M370.75,437.78l91.31,6.2v12.43l-91.31-6.2v-12.43" fill-rule="evenodd"/><path d="M193.08,437.78l91.31-6.2v12.43l-91.31,6.2v-12.43" fill-rule="evenodd"/><path d="M2317.29,122.69l68.26,6.2v12.45l-68.26-6.2v-12.45" fill-rule="evenodd"/><path d="M2185.72,110.29l68.26-6.2v12.45l-68.26,6.2v-12.45" fill-rule="evenodd"/><path d="M1918.76,128.89l68.27,6.2v12.45l-68.27-6.2v-12.45" fill-rule="evenodd"/><path d="M1787.19,128.89l68.26-6.2v12.45l-68.26,6.2v-12.45" fill-rule="evenodd"/><path d="M1520.23,147.49l68.27,6.2v12.45l-68.27-6.2v-12.45" fill-rule="evenodd"/><path d="M1388.66,135.09l68.27-6.2v12.45l-68.27,6.2v-12.45" fill-rule="evenodd"/><path d="M1151.46,4.89l68.27,6.2v12.45l-68.27-6.2V4.89" fill-rule="evenodd"/><path d="M990.14,153.69l68.26-6.2v12.45l-68.26,6.2v-12.45" fill-rule="evenodd"/><path d="M752.94,23.49l68.27,6.2v12.45l-68.27-6.2v-12.45" fill-rule="evenodd"/><path d="M621.36,11.09l68.27-6.2v12.45l-68.27,6.2V11.09" fill-rule="evenodd"/><path d="M354.41,29.69l68.27,6.2v12.45l-68.27-6.2v-12.45" fill-rule="evenodd"/><path d="M222.84,29.69l68.27-6.2v12.45l-68.27,6.2v-12.45" fill-rule="evenodd"/><path d="M1966.16,678.45l90.76-6.2v12.43l-90.76,6.2v-12.43" fill-rule="evenodd"/><path d="M1789.59,690.85l90.77,6.2v12.43l-90.77-6.2v-12.43" fill-rule="evenodd"/><path d="M762.99,357.19c0,2.77,2.19,4.96,4.96,4.96s4.96-2.19,4.96-4.96-2.19-4.96-4.96-4.96-4.96,2.19-4.96,4.96"/><path d="M2326.73,765.27c0,2.77,2.19,4.96,4.96,4.96s4.96-2.19,4.96-4.96-2.19-4.96-4.96-4.96-4.96,2.19-4.96,4.96"/></g></svg>