<?xml version="1.0" encoding="UTF-8"?><svg id="Ebene_2" xmlns="http://www.w3.org/2000/svg" viewBox="0 0 2647.55 491.76"><g id="Ebene_1-2"><line x1="1.9" y1="44.25" x2="2641.61" y2="44.25" fill="none" stroke="#000" stroke-linejoin="bevel" stroke-width="2.73"/><line x1="1.9" y1="69.05" x2="2641.61" y2="69.05" fill="none" stroke="#000" stroke-linejoin="bevel" stroke-width="2.73"/><line x1="1.9" y1="93.85" x2="2641.61" y2="93.85" fill="none" stroke="#000" stroke-linejoin="bevel" stroke-width="2.73"/><line x1="1.9" y1="118.65" x2="2641.61" y2="118.65" fill="none" stroke="#000" stroke-linejoin="bevel" stroke-width="2.73"/><line x1="1.9" y1="143.45" x2="2641.61" y2="143.45" fill="none" stroke="#000" stroke-linejoin="bevel" stroke-width="2.73"/><line y1="353.63" x2="2358.38" y2="353.63" fill="none" stroke="#000" stroke-linejoin="bevel" stroke-width="2.73"/><line y1="378.43" x2="2358.38" y2="378.43" fill="none" stroke="#000" stroke-linejoin="bevel" stroke-width="2.73"/><line y1="403.23" x2="2358.38" y2="403.23" fill="none" stroke="#000" stroke-linejoin="bevel" stroke-width="2.73"/><line y1="428.03" x2="2358.38" y2="428.03" fill="none" stroke="#000" stroke-linejoin="bevel" stroke-width="2.73"/><line y1="452.83" x2="2358.38" y2="452.83" fill="none" stroke="#000" stroke-linejoin="bevel" stroke-width="2.73"/><line x1="2342.34" y1="353.87" x2="2636.91" y2="353.87" fill="none" stroke="#000" stroke-linejoin="bevel" stroke-width="2.73"/><line x1="2342.34" y1="378.67" x2="2636.91" y2="378.67" fill="none" stroke="#000" stroke-linejoin="bevel" stroke-width="2.73"/><line x1="2342.34" y1="403.47" x2="2636.91" y2="403.47" fill="none" stroke="#000" stroke-linejoin="bevel" stroke-width="2.73"/><line x1="2342.34" y1="428.27" x2="2636.91" y2="428.27" fill="none" stroke="#000" stroke-linejoin="bevel" stroke-width="2.73"/><line x1="2342.34" y1="453.07" x2="2636.91" y2="453.07" fill="none" stroke="#000" stroke-linejoin="bevel" stroke-width="2.73"/><line x1="430.4" y1="42.89" x2="430.4" y2="144.82" fill="none" stroke="#000" stroke-linejoin="bevel" stroke-width="4.46"/><line x1="1552.18" y1="352.26" x2="1552.18" y2="454.19" fill="none" stroke="#000" stroke-linejoin="bevel" stroke-width="4.46"/><line x1="1823.83" y1="42.89" x2="1823.83" y2="144.82" fill="none" stroke="#000" stroke-linejoin="bevel" stroke-width="4.46"/><line x1="955.49" y1="352.26" x2="955.49" y2="454.19" fill="none" stroke="#000" stroke-linejoin="bevel" stroke-width="4.46"/><line x1="2087.86" y1="42.89" x2="2087.86" y2="144.82" fill="none" stroke="#000" stroke-linejoin="bevel" stroke-width="4.46"/><line x1="2020.43" y1="352.26" x2="2020.43" y2="454.19" fill="none" stroke="#000" stroke-linejoin="bevel" stroke-width="4.46"/><line x1="770.2" y1="42.89" x2="770.2" y2="144.82" fill="none" stroke="#000" stroke-linejoin="bevel" stroke-width="4.46"/><line x1="1604.04" y1="42.89" x2="1604.04" y2="144.82" fill="none" stroke="#000" stroke-linejoin="bevel" stroke-width="4.46"/><line x1="2617.15" y1="352.5" x2="2617.15" y2="454.43" fill="none" stroke="#000" stroke-linejoin="bevel" stroke-width="4.46"/><line x1="2635.38" y1="352.5" x2="2635.38" y2="454.43" fill="none" stroke="#000" stroke-linejoin="bevel" stroke-width="13.64"/><line x1="2356.15" y1="352.26" x2="2356.15" y2="454.19" fill="none" stroke="#000" stroke-linejoin="bevel" stroke-width="4.46"/><line x1="1759.46" y1="352.26" x2="1759.46" y2="454.19" fill="none" stroke="#000" stroke-linejoin="bevel" stroke-width="4.46"/><line x1="2427.67" y1="42.89" x2="2427.67" y2="144.82" fill="none" stroke="#000" stroke-linejoin="bevel" stroke-width="4.46"/><line x1="392.07" y1="352.26" x2="392.07" y2="454.19" fill="none" stroke="#000" stroke-linejoin="bevel" stroke-width="4.46"/><line x1="979.78" y1="42.89" x2="979.78" y2="144.82" fill="none" stroke="#000" stroke-linejoin="bevel" stroke-width="4.46"/><line x1="738" y1="352.26" x2="738" y2="454.19" fill="none" stroke="#000" stroke-linejoin="bevel" stroke-width="4.46"/><line x1="1254.02" y1="42.89" x2="1254.02" y2="144.82" fill="none" stroke="#000" stroke-linejoin="bevel" stroke-width="4.46"/><line x1="1216.46" y1="352.26" x2="1216.46" y2="454.19" fill="none" stroke="#000" stroke-linejoin="bevel" stroke-width="4.46"/><line x1="2645.32" y1="42.9" x2="2645.32" y2="144.83" fill="none" stroke="#000" stroke-linejoin="bevel" stroke-width="4.46"/><path d="M422.33,387.85c-4.96,0-7.84,3.07-8.34,3.67l.4-31.85c0-.79-.59-1.38-1.39-1.38h-1.18c-.81,0-1.39,.59-1.39,1.38l.5,59.63c0,.79,.59,1.38,1.39,1.38,.19,0,.59-.09,.79-.19,8.53-4.28,17.45-12.4,17.45-22.63,0-5.15-2.37-10.01-8.23-10.01m-8.63,27.98l.29-19.34c.2-.9,1.69-3.77,5.66-3.77,3.58,0,3.87,3.36,3.87,5.46,0,8.82-3.27,12.49-9.83,17.65"/><path d="M1010.04,90.88c-4.96,0-7.84,3.07-8.34,3.67l.4-31.85c0-.79-.59-1.38-1.39-1.38h-1.18c-.81,0-1.39,.59-1.39,1.38l.5,59.63c0,.79,.59,1.38,1.39,1.38,.19,0,.59-.09,.79-.19,8.53-4.28,17.45-12.4,17.45-22.63,0-5.15-2.37-10.01-8.23-10.01m-8.63,27.98l.29-19.34c.2-.9,1.69-3.77,5.66-3.77,3.58,0,3.87,3.36,3.87,5.46,0,8.82-3.27,12.49-9.83,17.65"/><path d="M1634.3,90.88c-4.96,0-7.84,3.07-8.34,3.67l.4-31.85c0-.79-.59-1.38-1.39-1.38h-1.18c-.81,0-1.39,.59-1.39,1.38l.5,59.63c0,.79,.59,1.38,1.39,1.38,.19,0,.59-.09,.79-.19,8.53-4.28,17.45-12.4,17.45-22.63,0-5.15-2.37-10.01-8.23-10.01m-8.63,27.98l.29-19.34c.2-.9,1.69-3.77,5.66-3.77,3.58,0,3.87,3.36,3.87,5.46,0,8.82-3.27,12.49-9.83,17.65"/><path d="M1284.29,90.88c-4.96,0-7.84,3.07-8.34,3.67l.4-31.85c0-.79-.59-1.38-1.39-1.38h-1.18c-.81,0-1.39,.59-1.39,1.38l.5,59.63c0,.79,.59,1.38,1.39,1.38,.19,0,.59-.09,.79-.19,8.53-4.28,17.45-12.4,17.45-22.63,0-5.15-2.37-10.01-8.23-10.01m-8.63,27.98l.29-19.34c.2-.9,1.69-3.77,5.66-3.77,3.58,0,3.87,3.36,3.87,5.46,0,8.82-3.27,12.49-9.83,17.65"/><path d="M151.15,387.85c-4.96,0-7.84,3.07-8.34,3.67l.4-31.85c0-.79-.59-1.38-1.39-1.38h-1.18c-.81,0-1.39,.59-1.39,1.38l.5,59.63c0,.79,.59,1.38,1.39,1.38,.19,0,.59-.09,.79-.19,8.53-4.28,17.45-12.4,17.45-22.63,0-5.15-2.37-10.01-8.23-10.01m-8.63,27.98l.29-19.34c.2-.9,1.69-3.77,5.66-3.77,3.58,0,3.87,3.36,3.87,5.46,0,8.82-3.27,12.49-9.83,17.65"/><path d="M768.26,387.85c-4.96,0-7.84,3.07-8.34,3.67l.4-31.85c0-.79-.59-1.38-1.39-1.38h-1.18c-.81,0-1.39,.59-1.39,1.38l.5,59.63c0,.79,.59,1.38,1.39,1.38,.19,0,.59-.09,.79-.19,8.53-4.28,17.45-12.4,17.45-22.63,0-5.15-2.37-10.01-8.23-10.01m-8.63,27.98l.29-19.34c.2-.9,1.69-3.77,5.66-3.77,3.58,0,3.87,3.36,3.87,5.46,0,8.82-3.27,12.49-9.83,17.65"/><line x1="231.83" y1="114.68" x2="231.83" y2="31.85" fill="none" stroke="#000" stroke-linejoin="bevel" stroke-width="2.48"/><line x1="345.49" y1="114.68" x2="345.49" y2="31.85" fill="none" stroke="#000" stroke-linejoin="bevel" stroke-width="2.48"/><line x1="1252.18" y1="407.39" x2="1252.18" y2="477.63" fill="none" stroke="#000" stroke-linejoin="bevel" stroke-width="2.48"/><line x1="571.64" y1="114.68" x2="571.64" y2="31.85" fill="none" stroke="#000" stroke-linejoin="bevel" stroke-width="2.48"/><line x1="2153.33" y1="102.28" x2="2153.33" y2="25.65" fill="none" stroke="#000" stroke-linejoin="bevel" stroke-width="2.48"/><line x1="647.41" y1="114.68" x2="647.41" y2="31.85" fill="none" stroke="#000" stroke-linejoin="bevel" stroke-width="2.48"/><line x1="1326.93" y1="407.39" x2="1326.93" y2="477.63" fill="none" stroke="#000" stroke-linejoin="bevel" stroke-width="2.48"/><line x1="723.18" y1="114.68" x2="723.18" y2="31.85" fill="none" stroke="#000" stroke-linejoin="bevel" stroke-width="2.48"/><line x1="1329.7" y1="102.28" x2="1329.7" y2="25.65" fill="none" stroke="#000" stroke-linejoin="bevel" stroke-width="2.48"/><line x1="587.5" y1="407.39" x2="587.5" y2="477.63" fill="none" stroke="#000" stroke-linejoin="bevel" stroke-width="2.48"/><line x1="1557.02" y1="102.28" x2="1557.02" y2="25.65" fill="none" stroke="#000" stroke-linejoin="bevel" stroke-width="2.48"/><line x1="166.82" y1="407.39" x2="166.82" y2="477.63" fill="none" stroke="#000" stroke-linejoin="bevel" stroke-width="2.48"/><line x1="1169.12" y1="102.28" x2="1169.12" y2="25.65" fill="none" stroke="#000" stroke-linejoin="bevel" stroke-width="2.48"/><line x1="2380.66" y1="102.28" x2="2380.66" y2="25.65" fill="none" stroke="#000" stroke-linejoin="bevel" stroke-width="2.48"/><line x1="512.75" y1="407.39" x2="512.75" y2="477.63" fill="none" stroke="#000" stroke-linejoin="bevel" stroke-width="2.48"/><line x1="495.86" y1="114.68" x2="495.86" y2="31.85" fill="none" stroke="#000" stroke-linejoin="bevel" stroke-width="2.48"/><line x1="1476.43" y1="407.39" x2="1476.43" y2="477.63" fill="none" stroke="#000" stroke-linejoin="bevel" stroke-width="2.48"/><line x1="438" y1="407.39" x2="438" y2="477.63" fill="none" stroke="#000" stroke-linejoin="bevel" stroke-width="2.48"/><line x1="1889.3" y1="102.28" x2="1889.3" y2="25.65" fill="none" stroke="#000" stroke-linejoin="bevel" stroke-width="2.48"/><line x1="1055.46" y1="102.28" x2="1055.46" y2="25.65" fill="none" stroke="#000" stroke-linejoin="bevel" stroke-width="2.48"/><line x1="1405.48" y1="102.28" x2="1405.48" y2="25.65" fill="none" stroke="#000" stroke-linejoin="bevel" stroke-width="2.48"/><line x1="2002.96" y1="102.28" x2="2002.96" y2="25.65" fill="none" stroke="#000" stroke-linejoin="bevel" stroke-width="2.48"/><line x1="991.21" y1="407.39" x2="991.21" y2="477.63" fill="none" stroke="#000" stroke-linejoin="bevel" stroke-width="2.48"/><line x1="1103.34" y1="407.39" x2="1103.34" y2="477.63" fill="none" stroke="#000" stroke-linejoin="bevel" stroke-width="2.48"/><line x1="2304.88" y1="102.28" x2="2304.88" y2="25.65" fill="none" stroke="#000" stroke-linejoin="bevel" stroke-width="2.48"/><line x1="1401.68" y1="407.39" x2="1401.68" y2="477.63" fill="none" stroke="#000" stroke-linejoin="bevel" stroke-width="2.48"/><line x1="1907.31" y1="394.99" x2="1907.31" y2="471.43" fill="none" stroke="#000" stroke-linejoin="bevel" stroke-width="2.48"/><line x1="662.25" y1="407.39" x2="662.25" y2="477.63" fill="none" stroke="#000" stroke-linejoin="bevel" stroke-width="2.48"/><line x1="2056.15" y1="394.99" x2="2056.15" y2="471.43" fill="none" stroke="#000" stroke-linejoin="bevel" stroke-width="2.48"/><line x1="2130.9" y1="394.99" x2="2130.9" y2="471.43" fill="none" stroke="#000" stroke-linejoin="bevel" stroke-width="2.48"/><line x1="2205.65" y1="394.99" x2="2205.65" y2="471.43" fill="none" stroke="#000" stroke-linejoin="bevel" stroke-width="2.48"/><line x1="2280.4" y1="394.99" x2="2280.4" y2="471.43" fill="none" stroke="#000" stroke-linejoin="bevel" stroke-width="2.48"/><line x1="2229.11" y1="102.28" x2="2229.11" y2="25.65" fill="none" stroke="#000" stroke-linejoin="bevel" stroke-width="2.48"/><line x1="1481.25" y1="102.28" x2="1481.25" y2="25.65" fill="none" stroke="#000" stroke-linejoin="bevel" stroke-width="2.48"/><line x1="278.95" y1="407.39" x2="278.95" y2="477.63" fill="none" stroke="#000" stroke-linejoin="bevel" stroke-width="2.48"/><line x1="1795.18" y1="394.99" x2="1795.18" y2="471.43" fill="none" stroke="#000" stroke-linejoin="bevel" stroke-width="2.48"/><path d="M1879.44,93.16c-9.63,0-21.13,8.04-21.13,17.27,0,4.26,3.07,9.02,11.11,9.02,10.31,0,21.13-8.43,21.13-17.16,0-5.86-4.96-9.13-11.11-9.13m-13.69,21.62c-3.27,0-3.97-2.67-3.97-3.56,0-4.87,16.66-13.39,21.33-13.39,2.39,0,3.97,1.39,3.97,3.56,0,4.96-16.77,13.39-21.33,13.39"/><path d="M1993.1,93.16c-9.63,0-21.13,8.04-21.13,17.27,0,4.26,3.07,9.02,11.11,9.02,10.31,0,21.13-8.43,21.13-17.16,0-5.86-4.96-9.13-11.11-9.13m-13.69,21.62c-3.27,0-3.97-2.67-3.97-3.56,0-4.87,16.66-13.39,21.33-13.39,2.39,0,3.97,1.39,3.97,3.56,0,4.96-16.77,13.39-21.33,13.39"/><path d="M2122.34,110.42c0,4.26,3.07,9.02,11.11,9.02,10.31,0,21.13-8.43,21.13-17.16,0-5.86-4.96-9.13-11.11-9.13-9.63,0-21.13,8.14-21.13,17.27"/><path d="M2198.12,110.42c0,4.26,3.07,9.02,11.11,9.02,10.31,0,21.13-8.43,21.13-17.16,0-5.86-4.96-9.13-11.11-9.13-9.63,0-21.13,8.14-21.13,17.27"/><path d="M2273.89,110.42c0,4.26,3.07,9.02,11.11,9.02,10.31,0,21.13-8.43,21.13-17.16,0-5.86-4.96-9.13-11.11-9.13-9.63,0-21.13,8.14-21.13,17.27"/><path d="M2349.66,110.42c0,4.26,3.07,9.02,11.11,9.02,10.31,0,21.13-8.43,21.13-17.16,0-5.86-4.96-9.13-11.11-9.13-9.63,0-21.13,8.14-21.13,17.27"/><path d="M2498.03,94.48c-13.69,0-18.55,6.94-18.55,13.39s4.87,13.39,18.55,13.39,18.45-6.94,18.45-13.39-4.76-13.39-18.45-13.39m.79,23.61c-2.77,0-4.67-.79-5.95-3.27s-3.07-8.93-3.18-11.52c-.2-2.68,.79-4.26,3.18-5.05,1.19-.4,2.77-.6,4.37-.6,2.67,0,4.46,.6,5.84,3.29,1.39,2.57,3.29,9.02,3.29,11.5,0,4.87-3.58,5.66-7.55,5.66"/><path d="M1298.71,110.42c0,4.26,3.07,9.02,11.11,9.02,10.31,0,21.13-8.43,21.13-17.16,0-5.86-4.96-9.13-11.11-9.13-9.63,0-21.13,8.14-21.13,17.27"/><path d="M186.7,390.13c-9.63,0-21.13,8.04-21.13,17.27,0,4.26,3.07,9.02,11.11,9.02,10.31,0,21.13-8.43,21.13-17.16,0-5.86-4.96-9.13-11.11-9.13m-13.69,21.62c-3.27,0-3.97-2.67-3.97-3.56,0-4.87,16.66-13.39,21.33-13.39,2.39,0,3.97,1.39,3.97,3.56,0,4.96-16.77,13.39-21.33,13.39"/><path d="M298.83,390.13c-9.63,0-21.13,8.04-21.13,17.27,0,4.26,3.07,9.02,11.11,9.02,10.31,0,21.13-8.43,21.13-17.16,0-5.86-4.96-9.13-11.11-9.13m-13.69,21.62c-3.27,0-3.97-2.67-3.97-3.56,0-4.87,16.66-13.39,21.33-13.39,2.39,0,3.97,1.39,3.97,3.56,0,4.96-16.77,13.39-21.33,13.39"/><path d="M436.76,407.4c0,4.26,3.07,9.02,11.11,9.02,10.31,0,21.13-8.43,21.13-17.16,0-5.86-4.96-9.13-11.11-9.13-9.63,0-21.13,8.14-21.13,17.27"/><path d="M511.51,407.4c0,4.26,3.07,9.02,11.11,9.02,10.31,0,21.13-8.43,21.13-17.16,0-5.86-4.96-9.13-11.11-9.13-9.63,0-21.13,8.14-21.13,17.27"/><path d="M661.01,407.4c0,4.26,3.07,9.02,11.11,9.02,10.31,0,21.13-8.43,21.13-17.16,0-5.86-4.96-9.13-11.11-9.13-9.63,0-21.13,8.14-21.13,17.27"/><path d="M801.25,389.74c-13.69,0-18.55,6.94-18.55,13.39s4.87,13.39,18.55,13.39,18.45-6.94,18.45-13.39-4.76-13.39-18.45-13.39m.79,23.61c-2.77,0-4.67-.79-5.95-3.27s-3.07-8.93-3.18-11.52c-.2-2.68,.79-4.26,3.18-5.05,1.19-.4,2.77-.6,4.37-.6,2.67,0,4.46,.6,5.84,3.29,1.39,2.57,3.29,9.02,3.29,11.5,0,4.87-3.58,5.66-7.55,5.66"/><path d="M1011.1,390.13c-9.63,0-21.13,8.04-21.13,17.27,0,4.26,3.07,9.02,11.11,9.02,10.31,0,21.13-8.43,21.13-17.16,0-5.86-4.96-9.13-11.11-9.13m-13.69,21.62c-3.27,0-3.97-2.67-3.97-3.56,0-4.87,16.66-13.39,21.33-13.39,2.39,0,3.97,1.39,3.97,3.56,0,4.96-16.77,13.39-21.33,13.39"/><path d="M1123.23,390.13c-9.63,0-21.13,8.04-21.13,17.27,0,4.26,3.07,9.02,11.11,9.02,10.31,0,21.13-8.43,21.13-17.16,0-5.86-4.96-9.13-11.11-9.13m-13.69,21.62c-3.27,0-3.97-2.67-3.97-3.56,0-4.87,16.66-13.39,21.33-13.39,2.39,0,3.97,1.39,3.97,3.56,0,4.96-16.77,13.39-21.33,13.39"/><path d="M1250.94,407.4c0,4.26,3.07,9.02,11.11,9.02,10.31,0,21.13-8.43,21.13-17.16,0-5.86-4.96-9.13-11.11-9.13-9.63,0-21.13,8.14-21.13,17.27"/><path d="M1325.69,407.4c0,4.26,3.07,9.02,11.11,9.02,10.31,0,21.13-8.43,21.13-17.16,0-5.86-4.96-9.13-11.11-9.13-9.63,0-21.13,8.14-21.13,17.27"/><path d="M1400.44,407.4c0,4.26,3.07,9.02,11.11,9.02,10.31,0,21.13-8.43,21.13-17.16,0-5.86-4.96-9.13-11.11-9.13-9.63,0-21.13,8.14-21.13,17.27"/><path d="M1475.19,407.4c0,4.26,3.07,9.02,11.11,9.02,10.31,0,21.13-8.43,21.13-17.16,0-5.86-4.96-9.13-11.11-9.13-9.63,0-21.13,8.14-21.13,17.27"/><path d="M1605.22,389.74c-13.69,0-18.55,6.94-18.55,13.39s4.87,13.39,18.55,13.39,18.45-6.94,18.45-13.39-4.76-13.39-18.45-13.39m.79,23.61c-2.77,0-4.67-.79-5.95-3.27s-3.07-8.93-3.18-11.52c-.2-2.68,.79-4.26,3.18-5.05,1.19-.4,2.77-.6,4.37-.6,2.67,0,4.46,.6,5.84,3.29,1.39,2.57,3.29,9.02,3.29,11.5,0,4.87-3.58,5.66-7.55,5.66"/><path d="M221.97,105.56c-9.63,0-21.13,8.04-21.13,17.27,0,4.26,3.07,9.02,11.11,9.02,10.31,0,21.13-8.43,21.13-17.16,0-5.86-4.96-9.13-11.11-9.13m-13.69,21.62c-3.27,0-3.97-2.67-3.97-3.56,0-4.87,16.66-13.39,21.33-13.39,2.39,0,3.97,1.39,3.97,3.56,0,4.96-16.77,13.39-21.33,13.39"/><path d="M335.63,105.56c-9.63,0-21.13,8.04-21.13,17.27,0,4.26,3.07,9.02,11.11,9.02,10.31,0,21.13-8.43,21.13-17.16,0-5.86-4.96-9.13-11.11-9.13m-13.69,21.62c-3.27,0-3.97-2.67-3.97-3.56,0-4.87,16.66-13.39,21.33-13.39,2.39,0,3.97,1.39,3.97,3.56,0,4.96-16.77,13.39-21.33,13.39"/><path d="M464.87,122.82c0,4.26,3.07,9.02,11.11,9.02,10.31,0,21.13-8.43,21.13-17.16,0-5.86-4.96-9.13-11.11-9.13-9.63,0-21.13,8.14-21.13,17.27"/><path d="M1815.07,377.73c-9.63,0-21.13,8.04-21.13,17.27,0,4.26,3.07,9.02,11.11,9.02,10.31,0,21.13-8.43,21.13-17.16,0-5.86-4.96-9.13-11.11-9.13m-13.69,21.62c-3.27,0-3.97-2.67-3.97-3.56,0-4.87,16.66-13.39,21.33-13.39,2.39,0,3.97,1.39,3.97,3.56,0,4.96-16.77,13.39-21.33,13.39"/><path d="M540.65,122.82c0,4.26,3.07,9.02,11.11,9.02,10.31,0,21.13-8.43,21.13-17.16,0-5.86-4.96-9.13-11.11-9.13-9.63,0-21.13,8.14-21.13,17.27"/><path d="M1927.2,377.73c-9.63,0-21.13,8.04-21.13,17.27,0,4.26,3.07,9.02,11.11,9.02,10.31,0,21.13-8.43,21.13-17.16,0-5.86-4.96-9.13-11.11-9.13m-13.69,21.62c-3.27,0-3.97-2.67-3.97-3.56,0-4.87,16.66-13.39,21.33-13.39,2.39,0,3.97,1.39,3.97,3.56,0,4.96-16.77,13.39-21.33,13.39"/><path d="M586.26,407.4c0,4.26,3.07,9.02,11.11,9.02,10.31,0,21.13-8.43,21.13-17.16,0-5.86-4.96-9.13-11.11-9.13-9.63,0-21.13,8.14-21.13,17.27"/><path d="M616.42,122.82c0,4.26,3.07,9.02,11.11,9.02,10.31,0,21.13-8.43,21.13-17.16,0-5.86-4.96-9.13-11.11-9.13-9.63,0-21.13,8.14-21.13,17.27"/><path d="M692.19,122.82c0,4.26,3.07,9.02,11.11,9.02,10.31,0,21.13-8.43,21.13-17.16,0-5.86-4.96-9.13-11.11-9.13-9.63,0-21.13,8.14-21.13,17.27"/><path d="M2054.91,395c0,4.26,3.07,9.02,11.11,9.02,10.31,0,21.13-8.43,21.13-17.16,0-5.86-4.96-9.13-11.11-9.13-9.63,0-21.13,8.14-21.13,17.27"/><path d="M823.23,105.17c-13.69,0-18.55,6.94-18.55,13.39s4.87,13.39,18.55,13.39,18.45-6.94,18.45-13.39-4.76-13.39-18.45-13.39m.79,23.61c-2.77,0-4.67-.79-5.95-3.27s-3.07-8.93-3.18-11.52c-.2-2.68,.79-4.26,3.18-5.05,1.19-.4,2.77-.6,4.37-.6,2.67,0,4.46,.6,5.84,3.29,1.39,2.57,3.29,9.02,3.29,11.5,0,4.87-3.58,5.66-7.55,5.66"/><path d="M2129.66,395c0,4.26,3.07,9.02,11.11,9.02,10.31,0,21.13-8.43,21.13-17.16,0-5.86-4.96-9.13-11.11-9.13-9.63,0-21.13,8.14-21.13,17.27"/><path d="M1045.6,93.16c-9.63,0-21.13,8.04-21.13,17.27,0,4.26,3.07,9.02,11.11,9.02,10.31,0,21.13-8.43,21.13-17.16,0-5.86-4.96-9.13-11.11-9.13m-13.69,21.62c-3.27,0-3.97-2.67-3.97-3.56,0-4.87,16.66-13.39,21.33-13.39,2.39,0,3.97,1.39,3.97,3.56,0,4.96-16.77,13.39-21.33,13.39"/><path d="M2204.41,395c0,4.26,3.07,9.02,11.11,9.02,10.31,0,21.13-8.43,21.13-17.16,0-5.86-4.96-9.13-11.11-9.13-9.63,0-21.13,8.14-21.13,17.27"/><path d="M1159.26,93.16c-9.63,0-21.13,8.04-21.13,17.27,0,4.26,3.07,9.02,11.11,9.02,10.31,0,21.13-8.43,21.13-17.16,0-5.86-4.96-9.13-11.11-9.13m-13.69,21.62c-3.27,0-3.97-2.67-3.97-3.56,0-4.87,16.66-13.39,21.33-13.39,2.39,0,3.97,1.39,3.97,3.56,0,4.96-16.77,13.39-21.33,13.39"/><path d="M2279.16,395c0,4.26,3.07,9.02,11.11,9.02,10.31,0,21.13-8.43,21.13-17.16,0-5.86-4.96-9.13-11.11-9.13-9.63,0-21.13,8.14-21.13,17.27"/><path d="M1374.48,110.42c0,4.26,3.07,9.02,11.11,9.02,10.31,0,21.13-8.43,21.13-17.16,0-5.86-4.96-9.13-11.11-9.13-9.63,0-21.13,8.14-21.13,17.27"/><path d="M1450.26,110.42c0,4.26,3.07,9.02,11.11,9.02,10.31,0,21.13-8.43,21.13-17.16,0-5.86-4.96-9.13-11.11-9.13-9.63,0-21.13,8.14-21.13,17.27"/><path d="M1526.03,110.42c0,4.26,3.07,9.02,11.11,9.02,10.31,0,21.13-8.43,21.13-17.16,0-5.86-4.96-9.13-11.11-9.13-9.63,0-21.13,8.14-21.13,17.27"/><path d="M2438.59,377.59c-13.69,0-18.55,6.94-18.55,13.39s4.87,13.39,18.55,13.39,18.45-6.94,18.45-13.39-4.76-13.39-18.45-13.39m.79,23.61c-2.77,0-4.67-.79-5.95-3.27s-3.07-8.93-3.18-11.52c-.2-2.68,.79-4.26,3.18-5.05,1.19-.4,2.77-.6,4.37-.6,2.67,0,4.46,.6,5.84,3.29,1.39,2.57,3.29,9.02,3.29,11.5,0,4.87-3.58,5.66-7.55,5.66"/><path d="M1667.29,92.77c-13.69,0-18.55,6.94-18.55,13.39s4.87,13.39,18.55,13.39,18.45-6.94,18.45-13.39-4.76-13.39-18.45-13.39m.79,23.61c-2.77,0-4.67-.79-5.95-3.27s-3.07-8.93-3.18-11.52c-.2-2.68,.79-4.26,3.18-5.05,1.19-.4,2.77-.6,4.37-.6,2.67,0,4.46,.6,5.84,3.29,1.39,2.57,3.29,9.02,3.29,11.5,0,4.87-3.58,5.66-7.55,5.66"/><path d="M32.7,169.54c0,6.56,4.96,15.19,18.35,15.19,4.67,0,8.74-1.19,12.31-3.38,5.36-3.77,6.74-10.32,6.74-16.57,0-3.86-.59-8.32-1.58-13.98-.29-1.98-.9-4.96-1.49-8.84,9.72-3.18,16.96-13.3,16.96-23.51,0-14.97-10.62-25.09-25.09-25.09-.99-5.95-1.98-11.81-2.77-17.36,10.42-11.02,17.65-23.42,17.65-39.18,0-9.04-2.77-16.37-4.37-19.95-2.37-5.05-5.25-8.53-7.04-8.53-.7,0-3.77,1.19-7.04,5.05-6.36,7.55-8.14,20.24-8.14,28.57,0,5.36,.5,10.23,2.19,21.34-.11,.09-5.27,5.35-7.35,7.04-9.04,8.34-21.53,20.43-21.53,40.28,0,18.54,16.17,33.12,34.63,33.12,2.87,0,5.55-.29,7.83-.7,1.89,9.53,3.08,16.48,3.08,21.73,0,10.32-5.36,15.78-15.38,15.78-2.39,0-4.46-.5-4.67-.5-.09-.11-.29-.2-.29-.29,0-.2,.2-.31,.5-.31,4.67-.79,9.32-4.76,9.32-11.1,0-5.36-4.06-11.02-11.5-11.02-6.94,0-11.31,5.66-11.31,12.2M53.44,37.11c.9-3.97,5.46-14.38,10.62-14.38,1.49,0,3.86,4.76,3.86,11.7,0,10.32-7.63,18.06-14.48,24.8-.59-3.97-1.08-7.83-1.08-12,0-3.67,.29-7.05,1.08-10.12m8.73,101.97c-1.98,.4-3.86,.6-5.75,.6-14.18,0-26.29-9.92-26.29-24.91,0-12.09,8.53-22.91,17.27-30.46,1.67-1.49,3.27-2.87,4.76-4.36,.88,5.35,1.58,10.01,2.28,14.09-9.04,2.68-15.17,12.2-15.17,21.53,0,6.94,5.46,16.46,13.39,16.46,.79,0,1.69-.4,1.69-1.29s-.99-1.39-2.19-2.19c-3.88-2.39-6.06-4.96-6.06-9.83,0-6.04,4.57-10.91,10.32-12.29l5.75,32.63m14.09-18.35c0,7.05-2.88,14.29-9.92,17.17-2.08-11.9-4.76-27.68-5.46-32.05,8.93,0,15.38,6.06,15.38,14.88"/><path d="M32.53,476.57c0,6.56,4.96,15.19,18.35,15.19,4.67,0,8.74-1.19,12.31-3.38,5.36-3.77,6.74-10.32,6.74-16.57,0-3.86-.59-8.32-1.58-13.98-.29-1.98-.9-4.96-1.49-8.84,9.72-3.18,16.96-13.3,16.96-23.51,0-14.97-10.62-25.09-25.09-25.09-.99-5.95-1.98-11.81-2.77-17.36,10.42-11.02,17.65-23.42,17.65-39.18,0-9.04-2.77-16.37-4.37-19.95-2.37-5.05-5.25-8.53-7.04-8.53-.7,0-3.77,1.19-7.04,5.05-6.36,7.55-8.14,20.24-8.14,28.57,0,5.36,.5,10.23,2.19,21.34-.11,.09-5.27,5.35-7.35,7.04-9.04,8.34-21.53,20.43-21.53,40.28,0,18.54,16.17,33.12,34.63,33.12,2.87,0,5.55-.29,7.83-.7,1.89,9.53,3.08,16.48,3.08,21.73,0,10.32-5.36,15.78-15.38,15.78-2.39,0-4.46-.5-4.67-.5-.09-.11-.29-.2-.29-.29,0-.2,.2-.31,.5-.31,4.67-.79,9.32-4.76,9.32-11.1,0-5.36-4.06-11.02-11.5-11.02-6.94,0-11.31,5.66-11.31,12.2m20.74-132.43c.9-3.97,5.46-14.38,10.62-14.38,1.49,0,3.86,4.76,3.86,11.7,0,10.32-7.63,18.06-14.48,24.8-.59-3.97-1.08-7.83-1.08-12,0-3.67,.29-7.05,1.08-10.12m8.73,101.97c-1.98,.4-3.86,.6-5.75,.6-14.18,0-26.29-9.92-26.29-24.91,0-12.09,8.53-22.91,17.27-30.46,1.67-1.49,3.27-2.87,4.76-4.36,.88,5.35,1.58,10.01,2.28,14.09-9.04,2.68-15.17,12.2-15.17,21.53,0,6.94,5.46,16.46,13.39,16.46,.79,0,1.69-.4,1.69-1.29s-.99-1.39-2.19-2.19c-3.88-2.39-6.06-4.96-6.06-9.83,0-6.04,4.57-10.91,10.32-12.29l5.75,32.63m14.09-18.35c0,7.05-2.88,14.29-9.92,17.17-2.08-11.9-4.76-27.68-5.46-32.05,8.93,0,15.38,6.06,15.38,14.88"/><path d="M128.03,81.65v7.33h-8.23c-.7,0-1.39,.6-1.39,1.39v1.89c0,.79,.7,1.38,1.39,1.38h30.05c.81,0,1.39-.59,1.39-1.38v-1.89c0-.79-.59-1.39-1.39-1.39h-8.82v-7.33h8.82c.81,0,1.39-.7,1.39-1.49v-1.89c0-.7-.59-1.38-1.39-1.38h-8.82v-15.78c0-.59-.29-1.08-.79-1.29l-1.19-.6c-.2-.09-.5-.19-.7-.19-.29,.09-.7,.19-.9,.39l-9.02,8.23c-.29,.31-.4,.7-.4,1.1v8.14h-11.41s11.02-11.9,22.72-27.59c.4-.5,.5-.99,.5-1.38,0-.5-.2-.9-.29-.99l-2.19-2.19c-.2-.2-.59-.4-.99-.4h-14.68c-.81,0-1.3,.6-1.4,1.19,0,0-.5,7.35-3.07,15.38-2.59,8.04-5.56,13-8.14,16.66,0,0-.29,.5-.29,1.1,0,.2,0,.39,.09,.59,.4,.7,.99,1.78,.99,1.78,0,0,.2,.6,1.08,.6h17.07"/><path d="M128.03,131.25v7.33h-8.23c-.7,0-1.39,.6-1.39,1.39v1.89c0,.79,.7,1.38,1.39,1.38h30.05c.81,0,1.39-.59,1.39-1.38v-1.89c0-.79-.59-1.39-1.39-1.39h-8.82v-7.33h8.82c.81,0,1.39-.7,1.39-1.49v-1.89c0-.7-.59-1.38-1.39-1.38h-8.82v-15.78c0-.59-.29-1.08-.79-1.29l-1.19-.6c-.2-.09-.5-.19-.7-.19-.29,.09-.7,.19-.9,.39l-9.02,8.23c-.29,.31-.4,.7-.4,1.1v8.14h-11.41s11.02-11.9,22.72-27.59c.4-.5,.5-.99,.5-1.38,0-.5-.2-.9-.29-.99l-2.19-2.19c-.2-.2-.59-.4-.99-.4h-14.68c-.81,0-1.3,.6-1.4,1.19,0,0-.5,7.35-3.07,15.38-2.59,8.04-5.56,13-8.14,16.66,0,0-.29,.5-.29,1.1,0,.2,0,.39,.09,.59,.4,.7,.99,1.78,.99,1.78,0,0,.2,.6,1.08,.6h17.07"/><path d="M1783.52,31.85c9.13-6.35,13.28-12.6,13.28-19.75,0-7.53-4.36-12.11-11.01-12.11-4.76,0-7.94,3.38-7.94,7.35,0,4.26,3.67,7.55,7.94,7.55,2.88,0,4.26-.7,4.56-.81,.31-.09,.5-.19,.81-.19,.09,0,.29,0,.39,.09,.2,.09,.29,.4,.29,.99,0,4.26-3.86,9.13-10.71,13.89l2.39,2.98"/><path d="M2605.01,31.86c9.13-6.35,13.28-12.6,13.28-19.75,0-7.53-4.36-12.11-11.01-12.11-4.76,0-7.94,3.38-7.94,7.35,0,4.26,3.67,7.55,7.94,7.55,2.88,0,4.26-.7,4.56-.81,.31-.09,.5-.19,.81-.19,.09,0,.29,0,.39,.09,.2,.09,.29,.4,.29,.99,0,4.26-3.86,9.13-10.71,13.89l2.39,2.98"/><path d="M915.18,341.23c9.13-6.35,13.28-12.6,13.28-19.75,0-7.53-4.36-12.11-11.01-12.11-4.76,0-7.94,3.38-7.94,7.35,0,4.26,3.67,7.55,7.94,7.55,2.88,0,4.26-.7,4.56-.81,.31-.09,.5-.19,.81-.19,.09,0,.29,0,.39,.09,.2,.09,.29,.4,.29,.99,0,4.26-3.86,9.13-10.71,13.89l2.39,2.98"/><path d="M1719.15,341.23c9.13-6.35,13.28-12.6,13.28-19.75,0-7.53-4.36-12.11-11.01-12.11-4.76,0-7.94,3.38-7.94,7.35,0,4.26,3.67,7.55,7.94,7.55,2.88,0,4.26-.7,4.56-.81,.31-.09,.5-.19,.81-.19,.09,0,.29,0,.39,.09,.2,.09,.29,.4,.29,.99,0,4.26-3.86,9.13-10.71,13.89l2.39,2.98"/><path d="M939.46,31.85c9.13-6.35,13.28-12.6,13.28-19.75,0-7.53-4.36-12.11-11.01-12.11-4.76,0-7.94,3.38-7.94,7.35,0,4.26,3.67,7.55,7.94,7.55,2.88,0,4.26-.7,4.56-.81,.31-.09,.5-.19,.81-.19,.09,0,.29,0,.39,.09,.2,.09,.29,.4,.29,.99,0,4.26-3.86,9.13-10.71,13.89l2.39,2.98"/><path d="M1103.94,363.75c-.81,0-1.39,.59-1.39,1.38v1.78c0,.81,.59,1.39,1.39,1.39h28.57c.79,0,1.4-.59,1.4-1.39v-1.78c0-.79-.6-1.38-1.4-1.38h-28.57"/><path d="M2199.96,128.77c-.81,0-1.39,.59-1.39,1.39v1.78c0,.79,.59,1.38,1.39,1.38h28.57c.79,0,1.4-.59,1.4-1.38v-1.78c0-.81-.6-1.39-1.4-1.39h-28.57"/><path d="M618.26,153.57c-.81,0-1.39,.59-1.39,1.39v1.78c0,.79,.59,1.38,1.39,1.38h28.57c.79,0,1.4-.59,1.4-1.38v-1.78c0-.81-.6-1.39-1.4-1.39h-28.57"/><path d="M542.49,153.57c-.81,0-1.39,.59-1.39,1.39v1.78c0,.79,.59,1.38,1.39,1.38h28.57c.79,0,1.4-.59,1.4-1.38v-1.78c0-.81-.6-1.39-1.4-1.39h-28.57"/><path d="M1252.78,363.75c-.81,0-1.39,.59-1.39,1.38v1.78c0,.81,.59,1.39,1.39,1.39h28.57c.79,0,1.4-.59,1.4-1.39v-1.78c0-.79-.6-1.38-1.4-1.38h-28.57"/><path d="M466.71,153.57c-.81,0-1.39,.59-1.39,1.39v1.78c0,.79,.59,1.38,1.39,1.38h28.57c.79,0,1.4-.59,1.4-1.38v-1.78c0-.81-.6-1.39-1.4-1.39h-28.57"/><path d="M1327.53,363.75c-.81,0-1.39,.59-1.39,1.38v1.78c0,.81,.59,1.39,1.39,1.39h28.57c.79,0,1.4-.59,1.4-1.39v-1.78c0-.79-.6-1.38-1.4-1.38h-28.57"/><path d="M316.34,153.57c-.81,0-1.39,.59-1.39,1.39v1.78c0,.79,.59,1.38,1.39,1.38h28.57c.79,0,1.4-.59,1.4-1.38v-1.78c0-.81-.6-1.39-1.4-1.39h-28.57"/><path d="M2124.19,128.77c-.81,0-1.39,.59-1.39,1.39v1.78c0,.79,.59,1.38,1.39,1.38h28.57c.79,0,1.4-.59,1.4-1.38v-1.78c0-.81-.6-1.39-1.4-1.39h-28.57"/><path d="M1402.29,363.75c-.81,0-1.39,.59-1.39,1.38v1.78c0,.81,.59,1.39,1.39,1.39h28.57c.79,0,1.4-.59,1.4-1.39v-1.78c0-.79-.6-1.38-1.4-1.38h-28.57"/><path d="M202.68,153.57c-.81,0-1.39,.59-1.39,1.39v1.78c0,.79,.59,1.38,1.39,1.38h28.57c.79,0,1.4-.59,1.4-1.38v-1.78c0-.81-.6-1.39-1.4-1.39h-28.57"/><path d="M1973.82,128.77c-.81,0-1.39,.59-1.39,1.39v1.78c0,.79,.59,1.38,1.39,1.38h28.57c.79,0,1.4-.59,1.4-1.38v-1.78c0-.81-.6-1.39-1.4-1.39h-28.57"/><path d="M1477.04,363.75c-.81,0-1.39,.59-1.39,1.38v1.78c0,.81,.59,1.39,1.39,1.39h28.57c.79,0,1.4-.59,1.4-1.39v-1.78c0-.79-.6-1.38-1.4-1.38h-28.57"/><path d="M438.6,363.75c-.81,0-1.39,.59-1.39,1.38v1.78c0,.81,.59,1.39,1.39,1.39h28.57c.79,0,1.4-.59,1.4-1.39v-1.78c0-.79-.6-1.38-1.4-1.38h-28.57"/><path d="M167.42,363.75c-.81,0-1.39,.59-1.39,1.38v1.78c0,.81,.59,1.39,1.39,1.39h28.57c.79,0,1.4-.59,1.4-1.39v-1.78c0-.79-.6-1.38-1.4-1.38h-28.57"/><path d="M1795.79,363.75c-.81,0-1.39,.59-1.39,1.38v1.78c0,.81,.59,1.39,1.39,1.39h28.57c.79,0,1.4-.59,1.4-1.39v-1.78c0-.79-.6-1.38-1.4-1.38h-28.57"/><path d="M1860.16,128.77c-.81,0-1.39,.59-1.39,1.39v1.78c0,.79,.59,1.38,1.39,1.38h28.57c.79,0,1.4-.59,1.4-1.38v-1.78c0-.81-.6-1.39-1.4-1.39h-28.57"/><path d="M1907.92,363.75c-.81,0-1.39,.59-1.39,1.38v1.78c0,.81,.59,1.39,1.39,1.39h28.57c.79,0,1.4-.59,1.4-1.39v-1.78c0-.79-.6-1.38-1.4-1.38h-28.57"/><path d="M2351.51,128.77c-.81,0-1.39,.59-1.39,1.39v1.78c0,.79,.59,1.38,1.39,1.38h28.57c.79,0,1.4-.59,1.4-1.38v-1.78c0-.81-.6-1.39-1.4-1.39h-28.57"/><path d="M588.1,363.75c-.81,0-1.39,.59-1.39,1.38v1.78c0,.81,.59,1.39,1.39,1.39h28.57c.79,0,1.4-.59,1.4-1.39v-1.78c0-.79-.6-1.38-1.4-1.38h-28.57"/><path d="M1527.88,128.77c-.81,0-1.39,.59-1.39,1.39v1.78c0,.79,.59,1.38,1.39,1.38h28.57c.79,0,1.4-.59,1.4-1.38v-1.78c0-.81-.6-1.39-1.4-1.39h-28.57"/><path d="M513.35,363.75c-.81,0-1.39,.59-1.39,1.38v1.78c0,.81,.59,1.39,1.39,1.39h28.57c.79,0,1.4-.59,1.4-1.39v-1.78c0-.79-.6-1.38-1.4-1.38h-28.57"/><path d="M2056.75,363.75c-.81,0-1.39,.59-1.39,1.38v1.78c0,.81,.59,1.39,1.39,1.39h28.57c.79,0,1.4-.59,1.4-1.39v-1.78c0-.79-.6-1.38-1.4-1.38h-28.57"/><path d="M662.86,363.75c-.81,0-1.39,.59-1.39,1.38v1.78c0,.81,.59,1.39,1.39,1.39h28.57c.79,0,1.4-.59,1.4-1.39v-1.78c0-.79-.6-1.38-1.4-1.38h-28.57"/><path d="M1452.1,128.77c-.81,0-1.39,.59-1.39,1.39v1.78c0,.79,.59,1.38,1.39,1.38h28.57c.79,0,1.4-.59,1.4-1.38v-1.78c0-.81-.6-1.39-1.4-1.39h-28.57"/><path d="M2131.51,363.75c-.81,0-1.39,.59-1.39,1.38v1.78c0,.81,.59,1.39,1.39,1.39h28.57c.79,0,1.4-.59,1.4-1.39v-1.78c0-.79-.6-1.38-1.4-1.38h-28.57"/><path d="M1376.33,128.77c-.81,0-1.39,.59-1.39,1.39v1.78c0,.79,.59,1.38,1.39,1.38h28.57c.79,0,1.4-.59,1.4-1.38v-1.78c0-.81-.6-1.39-1.4-1.39h-28.57"/><path d="M2206.26,363.75c-.81,0-1.39,.59-1.39,1.38v1.78c0,.81,.59,1.39,1.39,1.39h28.57c.79,0,1.4-.59,1.4-1.39v-1.78c0-.79-.6-1.38-1.4-1.38h-28.57"/><path d="M694.03,153.57c-.81,0-1.39,.59-1.39,1.39v1.78c0,.79,.59,1.38,1.39,1.38h28.57c.79,0,1.4-.59,1.4-1.38v-1.78c0-.81-.6-1.39-1.4-1.39h-28.57"/><path d="M2275.73,128.77c-.81,0-1.39,.59-1.39,1.39v1.78c0,.79,.59,1.38,1.39,1.38h28.57c.79,0,1.4-.59,1.4-1.38v-1.78c0-.81-.6-1.39-1.4-1.39h-28.57"/><path d="M2281.01,363.75c-.81,0-1.39,.59-1.39,1.38v1.78c0,.81,.59,1.39,1.39,1.39h28.57c.79,0,1.4-.59,1.4-1.39v-1.78c0-.79-.6-1.38-1.4-1.38h-28.57"/><path d="M1300.56,128.77c-.81,0-1.39,.59-1.39,1.39v1.78c0,.79,.59,1.38,1.39,1.38h28.57c.79,0,1.4-.59,1.4-1.38v-1.78c0-.81-.6-1.39-1.4-1.39h-28.57"/><path d="M1139.97,128.77c-.81,0-1.39,.59-1.39,1.39v1.78c0,.79,.59,1.38,1.39,1.38h28.57c.79,0,1.4-.59,1.4-1.38v-1.78c0-.81-.6-1.39-1.4-1.39h-28.57"/><path d="M1026.31,128.77c-.81,0-1.39,.59-1.39,1.39v1.78c0,.79,.59,1.38,1.39,1.38h28.57c.79,0,1.4-.59,1.4-1.38v-1.78c0-.81-.6-1.39-1.4-1.39h-28.57"/><path d="M991.82,363.75c-.81,0-1.39,.59-1.39,1.38v1.78c0,.81,.59,1.39,1.39,1.39h28.57c.79,0,1.4-.59,1.4-1.39v-1.78c0-.79-.6-1.38-1.4-1.38h-28.57"/><path d="M279.55,363.75c-.81,0-1.39,.59-1.39,1.38v1.78c0,.81,.59,1.39,1.39,1.39h28.57c.79,0,1.4-.59,1.4-1.39v-1.78c0-.79-.6-1.38-1.4-1.38h-28.57"/></g></svg>