<?xml version="1.0" encoding="UTF-8"?><svg id="b" xmlns="http://www.w3.org/2000/svg" viewBox="0 0 2455.2 326.84"><g id="c"><line y1="114.42" x2="2455.2" y2="114.42" fill="none" stroke="#000" stroke-linejoin="bevel" stroke-width="2.73"/><line y1="139.22" x2="2455.2" y2="139.22" fill="none" stroke="#000" stroke-linejoin="bevel" stroke-width="2.73"/><line y1="164.02" x2="2455.2" y2="164.02" fill="none" stroke="#000" stroke-linejoin="bevel" stroke-width="2.73"/><line y1="188.82" x2="2455.2" y2="188.82" fill="none" stroke="#000" stroke-linejoin="bevel" stroke-width="2.73"/><line y1="213.62" x2="2455.2" y2="213.62" fill="none" stroke="#000" stroke-linejoin="bevel" stroke-width="2.73"/><path d="M160.2,232.2c240.8,63.72,1768.95,112.42,2058.49,78.62-289.83,41.73-1817.98-6.97-2058.49-78.62" fill-rule="evenodd" stroke="#000" stroke-linecap="round" stroke-linejoin="round" stroke-width="1.24"/><line x1="723.61" y1="113.06" x2="723.61" y2="214.98" fill="none" stroke="#000" stroke-linejoin="bevel" stroke-width="4.46"/><line x1="2439.33" y1="113.06" x2="2439.33" y2="214.98" fill="none" stroke="#000" stroke-linejoin="bevel" stroke-width="4.46"/><line x1="2452.97" y1="113.06" x2="2452.97" y2="214.98" fill="none" stroke="#000" stroke-linejoin="bevel" stroke-width="4.46"/><line x1="1951.61" y1="113.06" x2="1951.61" y2="214.98" fill="none" stroke="#000" stroke-linejoin="bevel" stroke-width="4.46"/><line x1="1337.61" y1="113.06" x2="1337.61" y2="214.98" fill="none" stroke="#000" stroke-linejoin="bevel" stroke-width="4.46"/><line x1="1255.03" y1="238.42" x2="1303.63" y2="238.42" fill="none" stroke="#000" stroke-linejoin="bevel" stroke-width="3.97"/><line x1="1255.03" y1="263.22" x2="1303.63" y2="263.22" fill="none" stroke="#000" stroke-linejoin="bevel" stroke-width="3.97"/><line x1="1182.87" y1="238.42" x2="1231.47" y2="238.42" fill="none" stroke="#000" stroke-linejoin="bevel" stroke-width="3.97"/><line x1="1363.9" y1="238.42" x2="1412.5" y2="238.42" fill="none" stroke="#000" stroke-linejoin="bevel" stroke-width="3.97"/><line x1="2122.22" y1="238.42" x2="2170.82" y2="238.42" fill="none" stroke="#000" stroke-linejoin="bevel" stroke-width="3.97"/><line x1="2194.38" y1="263.22" x2="2242.98" y2="263.22" fill="none" stroke="#000" stroke-linejoin="bevel" stroke-width="3.97"/><line x1="2194.38" y1="238.42" x2="2242.98" y2="238.42" fill="none" stroke="#000" stroke-linejoin="bevel" stroke-width="3.97"/><line x1="568.87" y1="238.42" x2="617.47" y2="238.42" fill="none" stroke="#000" stroke-linejoin="bevel" stroke-width="3.97"/><line x1="175.07" y1="184.85" x2="175.07" y2="101.99" fill="none" stroke="#000" stroke-linejoin="bevel" stroke-width="2.48"/><line x1="247.24" y1="222.05" x2="247.24" y2="99.94" fill="none" stroke="#000" stroke-linejoin="bevel" stroke-width="2.48"/><line x1="319.4" y1="184.85" x2="319.4" y2="97.9" fill="none" stroke="#000" stroke-linejoin="bevel" stroke-width="2.48"/><line x1="391.56" y1="160.05" x2="391.56" y2="95.86" fill="none" stroke="#000" stroke-linejoin="bevel" stroke-width="2.48"/><line x1="463.72" y1="184.85" x2="463.72" y2="114.46" fill="none" stroke="#000" stroke-linejoin="bevel" stroke-width="2.48"/><line x1="535.88" y1="222.05" x2="535.88" y2="116.5" fill="none" stroke="#000" stroke-linejoin="bevel" stroke-width="2.48"/><line x1="608.05" y1="246.85" x2="608.05" y2="118.54" fill="none" stroke="#000" stroke-linejoin="bevel" stroke-width="2.48"/><line x1="680.21" y1="222.05" x2="680.21" y2="120.59" fill="none" stroke="#000" stroke-linejoin="bevel" stroke-width="2.48"/><line x1="759.32" y1="192.99" x2="759.32" y2="250.75" fill="none" stroke="#000" stroke-linejoin="bevel" stroke-width="2.48"/><line x1="831.48" y1="168.19" x2="831.48" y2="246.66" fill="none" stroke="#000" stroke-linejoin="bevel" stroke-width="2.48"/><line x1="903.64" y1="143.39" x2="903.64" y2="242.58" fill="none" stroke="#000" stroke-linejoin="bevel" stroke-width="2.48"/><line x1="975.81" y1="168.19" x2="975.81" y2="238.49" fill="none" stroke="#000" stroke-linejoin="bevel" stroke-width="2.48"/><line x1="1077.72" y1="184.85" x2="1077.72" y2="114.56" fill="none" stroke="#000" stroke-linejoin="bevel" stroke-width="2.48"/><line x1="1149.88" y1="222.05" x2="1149.88" y2="122.73" fill="none" stroke="#000" stroke-linejoin="bevel" stroke-width="2.48"/><line x1="1222.04" y1="246.85" x2="1222.04" y2="130.91" fill="none" stroke="#000" stroke-linejoin="bevel" stroke-width="2.48"/><line x1="1294.21" y1="271.65" x2="1294.21" y2="139.08" fill="none" stroke="#000" stroke-linejoin="bevel" stroke-width="2.48"/><line x1="1403.07" y1="246.85" x2="1403.07" y2="120.48" fill="none" stroke="#000" stroke-linejoin="bevel" stroke-width="2.48"/><line x1="1475.23" y1="222.05" x2="1475.23" y2="112.31" fill="none" stroke="#000" stroke-linejoin="bevel" stroke-width="2.48"/><line x1="1547.4" y1="184.85" x2="1547.4" y2="104.13" fill="none" stroke="#000" stroke-linejoin="bevel" stroke-width="2.48"/><line x1="1619.56" y1="160.05" x2="1619.56" y2="95.96" fill="none" stroke="#000" stroke-linejoin="bevel" stroke-width="2.48"/><line x1="1661.97" y1="143.39" x2="1661.97" y2="226.06" fill="none" stroke="#000" stroke-linejoin="bevel" stroke-width="2.48"/><line x1="1734.13" y1="118.59" x2="1734.13" y2="228.1" fill="none" stroke="#000" stroke-linejoin="bevel" stroke-width="2.48"/><line x1="1806.29" y1="143.39" x2="1806.29" y2="230.14" fill="none" stroke="#000" stroke-linejoin="bevel" stroke-width="2.48"/><line x1="1878.46" y1="168.19" x2="1878.46" y2="232.19" fill="none" stroke="#000" stroke-linejoin="bevel" stroke-width="2.48"/><line x1="2017.07" y1="184.85" x2="2017.07" y2="114.47" fill="none" stroke="#000" stroke-linejoin="bevel" stroke-width="2.48"/><line x1="2089.24" y1="222.05" x2="2089.24" y2="117.52" fill="none" stroke="#000" stroke-linejoin="bevel" stroke-width="2.48"/><line x1="2161.4" y1="246.85" x2="2161.4" y2="120.57" fill="none" stroke="#000" stroke-linejoin="bevel" stroke-width="2.48"/><line x1="2233.56" y1="271.65" x2="2233.56" y2="164.02" fill="none" stroke="#000" stroke-linejoin="bevel" stroke-width="2.48"/><path d="M758.08,192.99c0,4.26,3.07,9.02,11.11,9.02,10.31,0,21.13-8.43,21.13-17.16,0-5.86-4.96-9.13-11.11-9.13-9.63,0-21.13,8.14-21.13,17.27"/><path d="M830.24,168.19c0,4.26,3.07,9.02,11.11,9.02,10.31,0,21.13-8.43,21.13-17.16,0-5.86-4.96-9.13-11.11-9.13-9.63,0-21.13,8.14-21.13,17.27"/><path d="M902.4,143.39c0,4.26,3.07,9.02,11.11,9.02,10.31,0,21.13-8.43,21.13-17.16,0-5.86-4.96-9.13-11.11-9.13-9.63,0-21.13,8.14-21.13,17.27"/><path d="M2223.7,262.52c-9.63,0-21.13,8.04-21.13,17.27,0,4.26,3.07,9.02,11.11,9.02,10.31,0,21.13-8.43,21.13-17.16,0-5.86-4.96-9.13-11.11-9.13m-13.69,21.62c-3.27,0-3.97-2.67-3.97-3.57,0-4.87,16.66-13.39,21.33-13.39,2.39,0,3.97,1.4,3.97,3.57,0,4.96-16.77,13.39-21.33,13.39"/><path d="M2130.41,254.99c0,4.26,3.07,9.02,11.11,9.02,10.31,0,21.13-8.43,21.13-17.16,0-5.86-4.96-9.13-11.11-9.13-9.63,0-21.13,8.14-21.13,17.27"/><path d="M974.57,168.19c0,4.26,3.07,9.02,11.11,9.02,10.31,0,21.13-8.43,21.13-17.16,0-5.86-4.96-9.13-11.11-9.13-9.63,0-21.13,8.14-21.13,17.27"/><path d="M2058.24,230.19c0,4.26,3.07,9.02,11.11,9.02,10.31,0,21.13-8.43,21.13-17.16,0-5.86-4.96-9.13-11.11-9.13-9.63,0-21.13,8.14-21.13,17.27"/><path d="M1986.08,192.99c0,4.26,3.07,9.02,11.11,9.02,10.31,0,21.13-8.43,21.13-17.16,0-5.86-4.96-9.13-11.11-9.13-9.63,0-21.13,8.14-21.13,17.27"/><path d="M1877.22,168.19c0,4.26,3.07,9.02,11.11,9.02,10.31,0,21.13-8.43,21.13-17.16,0-5.86-4.96-9.13-11.11-9.13-9.63,0-21.13,8.14-21.13,17.27"/><path d="M1805.05,143.39c0,4.26,3.07,9.02,11.11,9.02,10.31,0,21.13-8.43,21.13-17.16,0-5.86-4.96-9.13-11.11-9.13-9.63,0-21.13,8.14-21.13,17.27"/><path d="M1732.89,118.59c0,4.26,3.07,9.02,11.11,9.02,10.31,0,21.13-8.43,21.13-17.16,0-5.86-4.96-9.13-11.11-9.13-9.63,0-21.13,8.14-21.13,17.27"/><path d="M1191.05,254.99c0,4.26,3.07,9.02,11.11,9.02,10.31,0,21.13-8.43,21.13-17.16,0-5.86-4.96-9.13-11.11-9.13-9.63,0-21.13,8.14-21.13,17.27"/><path d="M1660.73,143.39c0,4.26,3.07,9.02,11.11,9.02,10.31,0,21.13-8.43,21.13-17.16,0-5.86-4.96-9.13-11.11-9.13-9.63,0-21.13,8.14-21.13,17.27"/><path d="M1588.57,168.19c0,4.26,3.07,9.02,11.11,9.02,10.31,0,21.13-8.43,21.13-17.16,0-5.86-4.96-9.13-11.11-9.13-9.63,0-21.13,8.14-21.13,17.27"/><path d="M144.08,192.99c0,4.26,3.07,9.02,11.11,9.02,10.31,0,21.13-8.43,21.13-17.16,0-5.86-4.96-9.13-11.11-9.13-9.63,0-21.13,8.14-21.13,17.27"/><path d="M1516.4,192.99c0,4.26,3.07,9.02,11.11,9.02,10.31,0,21.13-8.43,21.13-17.16,0-5.86-4.96-9.13-11.11-9.13-9.63,0-21.13,8.14-21.13,17.27"/><path d="M216.24,230.19c0,4.26,3.07,9.02,11.11,9.02,10.31,0,21.13-8.43,21.13-17.16,0-5.86-4.96-9.13-11.11-9.13-9.63,0-21.13,8.14-21.13,17.27"/><path d="M288.4,192.99c0,4.26,3.07,9.02,11.11,9.02,10.31,0,21.13-8.43,21.13-17.16,0-5.86-4.96-9.13-11.11-9.13-9.63,0-21.13,8.14-21.13,17.27"/><path d="M360.57,168.19c0,4.26,3.07,9.02,11.11,9.02,10.31,0,21.13-8.43,21.13-17.16,0-5.86-4.96-9.13-11.11-9.13-9.63,0-21.13,8.14-21.13,17.27"/><path d="M1444.24,230.19c0,4.26,3.07,9.02,11.11,9.02,10.31,0,21.13-8.43,21.13-17.16,0-5.86-4.96-9.13-11.11-9.13-9.63,0-21.13,8.14-21.13,17.27"/><path d="M432.73,192.99c0,4.26,3.07,9.02,11.11,9.02,10.31,0,21.13-8.43,21.13-17.16,0-5.86-4.96-9.13-11.11-9.13-9.63,0-21.13,8.14-21.13,17.27"/><path d="M1372.08,254.99c0,4.26,3.07,9.02,11.11,9.02,10.31,0,21.13-8.43,21.13-17.16,0-5.86-4.96-9.13-11.11-9.13-9.63,0-21.13,8.14-21.13,17.27"/><path d="M504.89,230.19c0,4.26,3.07,9.02,11.11,9.02,10.31,0,21.13-8.43,21.13-17.16,0-5.86-4.96-9.13-11.11-9.13-9.63,0-21.13,8.14-21.13,17.27"/><path d="M1118.89,230.19c0,4.26,3.07,9.02,11.11,9.02,10.31,0,21.13-8.43,21.13-17.16,0-5.86-4.96-9.13-11.11-9.13-9.63,0-21.13,8.14-21.13,17.27"/><path d="M577.05,254.99c0,4.26,3.07,9.02,11.11,9.02,10.31,0,21.13-8.43,21.13-17.16,0-5.86-4.96-9.13-11.11-9.13-9.63,0-21.13,8.14-21.13,17.27"/><path d="M649.21,230.19c0,4.26,3.07,9.02,11.11,9.02,10.31,0,21.13-8.43,21.13-17.16,0-5.86-4.96-9.13-11.11-9.13-9.63,0-21.13,8.14-21.13,17.27"/><path d="M1263.21,279.79c0,4.26,3.07,9.02,11.11,9.02,10.31,0,21.13-8.43,21.13-17.16,0-5.86-4.96-9.13-11.11-9.13-9.63,0-21.13,8.14-21.13,17.27"/><path d="M1046.73,192.99c0,4.26,3.07,9.02,11.11,9.02,10.31,0,21.13-8.43,21.13-17.16,0-5.86-4.96-9.13-11.11-9.13-9.63,0-21.13,8.14-21.13,17.27"/><path d="M30.8,239.71c0,6.56,4.96,15.19,18.35,15.19,4.67,0,8.74-1.19,12.31-3.38,5.36-3.77,6.74-10.32,6.74-16.57,0-3.86-.59-8.32-1.58-13.98-.29-1.98-.9-4.96-1.49-8.84,9.72-3.18,16.96-13.3,16.96-23.51,0-14.97-10.62-25.09-25.09-25.09-.99-5.95-1.98-11.81-2.77-17.36,10.42-11.02,17.65-23.42,17.65-39.18,0-9.04-2.77-16.37-4.37-19.95-2.37-5.05-5.25-8.53-7.04-8.53-.7,0-3.77,1.19-7.04,5.05-6.36,7.55-8.14,20.24-8.14,28.57,0,5.36,.5,10.23,2.19,21.34-.11,.09-5.27,5.35-7.35,7.04-9.04,8.34-21.53,20.43-21.53,40.28,0,18.54,16.17,33.12,34.63,33.12,2.87,0,5.55-.29,7.83-.7,1.89,9.53,3.08,16.48,3.08,21.73,0,10.32-5.36,15.78-15.38,15.78-2.39,0-4.46-.5-4.67-.5-.09-.11-.29-.2-.29-.29,0-.2,.2-.31,.5-.31,4.67-.79,9.32-4.76,9.32-11.1,0-5.36-4.06-11.02-11.5-11.02-6.94,0-11.31,5.66-11.31,12.2M51.54,107.27c.9-3.97,5.46-14.38,10.62-14.38,1.49,0,3.86,4.76,3.86,11.7,0,10.32-7.63,18.06-14.48,24.8-.59-3.97-1.08-7.83-1.08-12,0-3.67,.29-7.05,1.08-10.12m8.73,101.97c-1.98,.4-3.86,.6-5.75,.6-14.18,0-26.29-9.92-26.29-24.91,0-12.09,8.53-22.91,17.27-30.46,1.67-1.49,3.27-2.87,4.76-4.36,.88,5.35,1.58,10.01,2.28,14.09-9.04,2.68-15.17,12.2-15.17,21.53,0,6.94,5.46,16.46,13.39,16.46,.79,0,1.69-.4,1.69-1.29s-.99-1.39-2.19-2.19c-3.88-2.39-6.06-4.96-6.06-9.83,0-6.05,4.57-10.91,10.32-12.29l5.75,32.63m14.09-18.35c0,7.05-2.88,14.29-9.92,17.17-2.08-11.9-4.76-27.68-5.46-32.05,8.93,0,15.38,6.06,15.38,14.88"/><path d="M2391.42,143.89c-.09,0-.29-.11-.4-.11-.59,0-1.09,.31-1.29,.81-2.28,4.56-7.04,10.71-12.4,11.7,1.09-1.29,1.78-2.88,1.78-4.76,0-3.87-3.18-7.05-7.04-7.05s-7.15,3.18-7.15,7.05c0,5.35,5.25,7.83,9.92,7.83,5.25,0,8.73-2.48,12.11-6.15l-11.31,35.32,2.68,.79,13.89-43.74c.11-.11,.11-.31,.11-.5,0-.5-.31-.9-.9-1.19"/><path d="M2024.92,72.5c-9.32-10.12-17.56-10.71-22.71-10.71s-13.3,.59-22.63,10.71c-4.85,5.36-8.23,15.97-8.23,21.33,0,1.89,.4,3.18,1.4,3.18,2.77,0,1.38-8.54,9.72-16.97,7.33-7.33,17.16-7.44,19.55-7.44h.39c2.39,0,12.21,.11,19.55,7.44,8.34,8.43,6.94,16.97,9.72,16.97,.99,0,1.39-1.19,1.39-3.18,0-5.36-3.27-16.07-8.14-21.33m-29.56,18.94c0,3.78,3.07,6.85,6.85,6.85s6.84-3.07,6.84-6.85-3.07-6.84-6.84-6.84-6.85,3.07-6.85,6.84"/><path d="M182.92,59.42c-9.32-10.12-17.56-10.71-22.71-10.71s-13.3,.59-22.63,10.71c-4.85,5.36-8.23,15.97-8.23,21.33,0,1.89,.4,3.18,1.4,3.18,2.77,0,1.38-8.54,9.72-16.97,7.33-7.33,17.16-7.44,19.55-7.44h.39c2.39,0,12.21,.11,19.55,7.44,8.34,8.43,6.94,16.97,9.72,16.97,.99,0,1.39-1.19,1.39-3.18,0-5.36-3.27-16.07-8.14-21.33m-29.56,18.94c0,3.78,3.07,6.85,6.85,6.85s6.84-3.07,6.84-6.85-3.07-6.84-6.84-6.84-6.85,3.07-6.85,6.84"/><path d="M471.57,72.51c-9.32-10.12-17.56-10.71-22.71-10.71s-13.3,.59-22.63,10.71c-4.85,5.36-8.23,15.97-8.23,21.33,0,1.89,.4,3.18,1.4,3.18,2.77,0,1.38-8.54,9.72-16.97,7.33-7.33,17.16-7.44,19.55-7.44h.39c2.39,0,12.21,.11,19.55,7.44,8.34,8.43,6.94,16.97,9.72,16.97,.99,0,1.39-1.19,1.39-3.18,0-5.36-3.27-16.07-8.14-21.33m-29.56,18.94c0,3.78,3.07,6.85,6.85,6.85s6.84-3.07,6.84-6.85-3.07-6.84-6.84-6.84-6.85,3.07-6.85,6.84"/><path d="M1085.57,72.47c-9.32-10.12-17.56-10.71-22.71-10.71s-13.3,.59-22.63,10.71c-4.85,5.36-8.23,15.97-8.23,21.33,0,1.89,.4,3.18,1.4,3.18,2.77,0,1.38-8.54,9.72-16.97,7.33-7.33,17.16-7.44,19.55-7.44h.39c2.39,0,12.21,.11,19.55,7.44,8.34,8.43,6.94,16.97,9.72,16.97,.99,0,1.39-1.19,1.39-3.18,0-5.36-3.27-16.07-8.14-21.33m-29.56,18.94c0,3.78,3.07,6.85,6.85,6.85s6.84-3.07,6.84-6.85-3.07-6.84-6.84-6.84-6.85,3.07-6.85,6.84"/><path d="M462.48,108.22l218.97,6.2v12.4l-218.97-6.2v-12.4" fill-rule="evenodd"/><path d="M1401.83,114.38l218.97-24.8v12.48l-218.97,24.8v-12.48" fill-rule="evenodd"/><path d="M1076.48,108.18l218.97,24.8v12.48l-218.97-24.8v-12.48" fill-rule="evenodd"/><path d="M173.83,95.82l218.97-6.2v12.4l-218.97,6.2v-12.4" fill-rule="evenodd"/><path d="M1660.73,219.82l218.97,6.2v12.4l-218.97-6.2v-12.4" fill-rule="evenodd"/><path d="M2015.83,108.21l146.81,6.2v12.42l-146.81-6.2v-12.42" fill-rule="evenodd"/><path d="M758.08,244.61l218.97-12.4v12.42l-218.97,12.4v-12.42" fill-rule="evenodd"/><path d="M601.3,78.82h-2.2l-.5,2.55c-.64,3.25-1.05,3.55-4.14,3.55h-11.2c3.45-3.6,4.59-4.64,7.8-7.14,4.55-3.5,6.5-5.25,7.66-6.75,1.59-2.21,2.39-4.41,2.39-6.86,0-5.71-4.7-9.75-11.25-9.75s-11.2,4.04-11.2,9.4c0,3.14,1.61,5.3,3.95,5.3,1.86,0,3.11-1.25,3.11-3.05,0-1.25-.7-2.4-1.75-2.86-1.86-.75-1.95-.84-1.95-1.5,0-.75,.5-1.89,1.2-2.75,1.25-1.54,3.3-2.39,5.64-2.39,4.16,0,6.61,2.55,6.61,6.75,0,3.71-1.75,7.05-5.91,11.46-3.7,3.89-6,6.34-6.84,7.29-1.81,2.1-2.7,3.25-4.91,6.14v1.41h22.55l.95-10.8"/><path d="M1396.33,78.82h-2.2l-.5,2.55c-.64,3.25-1.05,3.55-4.14,3.55h-11.21c3.46-3.6,4.6-4.64,7.8-7.14,4.55-3.5,6.5-5.25,7.66-6.75,1.59-2.21,2.39-4.41,2.39-6.86,0-5.71-4.71-9.75-11.25-9.75s-11.21,4.04-11.21,9.4c0,3.14,1.61,5.3,3.96,5.3,1.86,0,3.11-1.25,3.11-3.05,0-1.25-.71-2.4-1.75-2.86-1.86-.75-1.96-.84-1.96-1.5,0-.75,.5-1.89,1.21-2.75,1.25-1.54,3.29-2.39,5.64-2.39,4.15,0,6.61,2.55,6.61,6.75,0,3.71-1.75,7.05-5.91,11.46-3.7,3.89-6,6.34-6.84,7.29-1.82,2.1-2.71,3.25-4.91,6.14v1.41h22.55l.95-10.8"/><path d="M155.18,0c-1.69,2.05-6.3,3.6-10.89,3.71v2.14h4.39c2.91,.06,3.2,.36,3.11,3.15V29.05c0,2.56,0,2.66-.3,3.11-.41,.5-1.36,.7-4.16,.7h-3.25v2.35h19.8v-2.35h-2.75c-2.8,0-3.75-.2-4.14-.7-.36-.45-.36-.5-.36-3.11V8.41c0-2.81,.11-5.16,.36-8.41h-1.81m29.2,16.8c4.55-1.64,6.66-4.19,6.66-8.2,0-5.25-4-8.6-10.2-8.6-5.84,0-10.3,3.46-10.3,8,0,2.05,1.34,3.5,3.3,3.5,1.75,0,2.95-1.2,2.95-3,0-1.09-.41-1.75-1.55-2.54-.5-.36-.66-.55-.66-.91,0-1.39,2.91-2.89,5.75-2.89,3.59,0,5.5,2.25,5.5,6.5,0,4.64-1.91,7.09-5.45,7.09-.45,0-1.3-.04-2.05-.09-.41-.05-.8-.05-1.09-.05-1.06,0-1.61,.44-1.61,1.35,0,.84,.5,1.25,1.61,1.25,.3,0,.69,0,1.14-.05,1-.05,1.8-.05,2.36-.05,3.69,0,5.69,2.64,5.69,7.6s-2.5,8.09-7,8.09c-3.14,0-6.55-1.69-6.55-3.25,0-.44,.11-.55,1.05-1.09,1.41-.85,1.95-1.71,1.95-2.96,0-1.79-1.34-3.14-3.14-3.14-2.16,0-3.56,1.75-3.56,4.39,0,4.86,4.45,8.21,10.86,8.21,7.25,0,11.95-4,11.95-10.16,0-4.69-2.41-7.55-7.61-9"/><path d="M1215.3,78.82h-2.2l-.5,2.55c-.64,3.25-1.05,3.55-4.14,3.55h-11.2c3.45-3.6,4.59-4.64,7.79-7.14,4.55-3.5,6.5-5.25,7.66-6.75,1.59-2.21,2.39-4.41,2.39-6.86,0-5.71-4.7-9.75-11.25-9.75s-11.2,4.04-11.2,9.4c0,3.14,1.61,5.3,3.95,5.3,1.86,0,3.11-1.25,3.11-3.05,0-1.25-.7-2.4-1.75-2.86-1.86-.75-1.95-.84-1.95-1.5,0-.75,.5-1.89,1.2-2.75,1.25-1.54,3.3-2.39,5.64-2.39,4.16,0,6.61,2.55,6.61,6.75,0,3.71-1.75,7.05-5.91,11.46-3.7,3.89-6,6.34-6.84,7.29-1.81,2.1-2.7,3.25-4.91,6.14v1.41h22.55l.95-10.8"/><path d="M2154.66,78.82h-2.21l-.5,2.55c-.64,3.25-1.04,3.55-4.14,3.55h-11.2c3.45-3.6,4.59-4.64,7.8-7.14,4.54-3.5,6.5-5.25,7.65-6.75,1.6-2.21,2.39-4.41,2.39-6.86,0-5.71-4.7-9.75-11.25-9.75s-11.2,4.04-11.2,9.4c0,3.14,1.61,5.3,3.95,5.3,1.86,0,3.11-1.25,3.11-3.05,0-1.25-.7-2.4-1.75-2.86-1.86-.75-1.95-.84-1.95-1.5,0-.75,.5-1.89,1.2-2.75,1.25-1.54,3.3-2.39,5.64-2.39,4.16,0,6.61,2.55,6.61,6.75,0,3.71-1.75,7.05-5.9,11.46-3.71,3.89-6,6.34-6.85,7.29-1.81,2.1-2.7,3.25-4.9,6.14v1.41h22.54l.96-10.8"/></g></svg>