<?xml version="1.0" encoding="UTF-8"?><svg id="b" xmlns="http://www.w3.org/2000/svg" viewBox="0 0 2095.2 548.59"><g id="c"><line y1="43.4" x2="2095.2" y2="43.4" fill="none" stroke="#000" stroke-linejoin="bevel" stroke-width="2.73"/><line y1="68.2" x2="2095.2" y2="68.2" fill="none" stroke="#000" stroke-linejoin="bevel" stroke-width="2.73"/><line y1="93" x2="2095.2" y2="93" fill="none" stroke="#000" stroke-linejoin="bevel" stroke-width="2.73"/><line y1="117.8" x2="2095.2" y2="117.8" fill="none" stroke="#000" stroke-linejoin="bevel" stroke-width="2.73"/><line y1="142.6" x2="2095.2" y2="142.6" fill="none" stroke="#000" stroke-linejoin="bevel" stroke-width="2.73"/><line y1="386.6" x2="2095.2" y2="386.6" fill="none" stroke="#000" stroke-linejoin="bevel" stroke-width="2.73"/><line y1="411.4" x2="2095.2" y2="411.4" fill="none" stroke="#000" stroke-linejoin="bevel" stroke-width="2.73"/><line y1="436.2" x2="2095.2" y2="436.2" fill="none" stroke="#000" stroke-linejoin="bevel" stroke-width="2.73"/><line y1="461" x2="2095.2" y2="461" fill="none" stroke="#000" stroke-linejoin="bevel" stroke-width="2.73"/><line y1="485.8" x2="2095.2" y2="485.8" fill="none" stroke="#000" stroke-linejoin="bevel" stroke-width="2.73"/><line x1="1651.14" y1="385.24" x2="1651.14" y2="487.17" fill="none" stroke="#000" stroke-linejoin="bevel" stroke-width="4.46"/><line x1="1572.95" y1="42.04" x2="1572.95" y2="143.96" fill="none" stroke="#000" stroke-linejoin="bevel" stroke-width="4.46"/><line x1="918.46" y1="385.24" x2="918.46" y2="487.17" fill="none" stroke="#000" stroke-linejoin="bevel" stroke-width="4.46"/><line x1="1052.93" y1="42.04" x2="1052.93" y2="143.96" fill="none" stroke="#000" stroke-linejoin="bevel" stroke-width="4.46"/><line x1="2092.97" y1="42.04" x2="2092.97" y2="143.96" fill="none" stroke="#000" stroke-linejoin="bevel" stroke-width="4.46"/><line x1="532.91" y1="42.04" x2="532.91" y2="143.96" fill="none" stroke="#000" stroke-linejoin="bevel" stroke-width="4.46"/><line x1="2079.33" y1="385.24" x2="2079.33" y2="487.17" fill="none" stroke="#000" stroke-linejoin="bevel" stroke-width="4.46"/><line x1="2092.97" y1="385.24" x2="2092.97" y2="487.17" fill="none" stroke="#000" stroke-linejoin="bevel" stroke-width="4.46"/><line x1="1379.73" y1="535.4" x2="1428.33" y2="535.4" fill="none" stroke="#000" stroke-linejoin="bevel" stroke-width="3.97"/><line x1="1205.74" y1="510.6" x2="1254.34" y2="510.6" fill="none" stroke="#000" stroke-linejoin="bevel" stroke-width="3.97"/><line x1="1205.74" y1="535.4" x2="1254.34" y2="535.4" fill="none" stroke="#000" stroke-linejoin="bevel" stroke-width="3.97"/><line x1="1031.75" y1="510.6" x2="1080.35" y2="510.6" fill="none" stroke="#000" stroke-linejoin="bevel" stroke-width="3.97"/><line x1="1031.75" y1="535.4" x2="1080.35" y2="535.4" fill="none" stroke="#000" stroke-linejoin="bevel" stroke-width="3.97"/><line x1="821.05" y1="510.6" x2="869.65" y2="510.6" fill="none" stroke="#000" stroke-linejoin="bevel" stroke-width="3.97"/><line x1="821.05" y1="535.4" x2="869.65" y2="535.4" fill="none" stroke="#000" stroke-linejoin="bevel" stroke-width="3.97"/><line x1="734.06" y1="510.6" x2="782.66" y2="510.6" fill="none" stroke="#000" stroke-linejoin="bevel" stroke-width="3.97"/><line x1="647.06" y1="510.6" x2="695.66" y2="510.6" fill="none" stroke="#000" stroke-linejoin="bevel" stroke-width="3.97"/><line x1="473.07" y1="510.6" x2="521.67" y2="510.6" fill="none" stroke="#000" stroke-linejoin="bevel" stroke-width="3.97"/><line x1="473.07" y1="535.4" x2="521.67" y2="535.4" fill="none" stroke="#000" stroke-linejoin="bevel" stroke-width="3.97"/><line x1="299.08" y1="510.6" x2="347.68" y2="510.6" fill="none" stroke="#000" stroke-linejoin="bevel" stroke-width="3.97"/><line x1="299.08" y1="535.4" x2="347.68" y2="535.4" fill="none" stroke="#000" stroke-linejoin="bevel" stroke-width="3.97"/><line x1="2013.12" y1="167.4" x2="2061.72" y2="167.4" fill="none" stroke="#000" stroke-linejoin="bevel" stroke-width="3.97"/><line x1="2013.12" y1="192.2" x2="2061.72" y2="192.2" fill="none" stroke="#000" stroke-linejoin="bevel" stroke-width="3.97"/><line x1="647.06" y1="535.4" x2="695.66" y2="535.4" fill="none" stroke="#000" stroke-linejoin="bevel" stroke-width="3.97"/><line x1="1894.87" y1="167.4" x2="1943.47" y2="167.4" fill="none" stroke="#000" stroke-linejoin="bevel" stroke-width="3.97"/><line x1="1894.87" y1="192.2" x2="1943.47" y2="192.2" fill="none" stroke="#000" stroke-linejoin="bevel" stroke-width="3.97"/><line x1="1776.61" y1="167.4" x2="1825.21" y2="167.4" fill="none" stroke="#000" stroke-linejoin="bevel" stroke-width="3.97"/><line x1="1776.61" y1="192.2" x2="1825.21" y2="192.2" fill="none" stroke="#000" stroke-linejoin="bevel" stroke-width="3.97"/><line x1="1658.36" y1="167.4" x2="1706.96" y2="167.4" fill="none" stroke="#000" stroke-linejoin="bevel" stroke-width="3.97"/><line x1="1658.36" y1="192.2" x2="1706.96" y2="192.2" fill="none" stroke="#000" stroke-linejoin="bevel" stroke-width="3.97"/><line x1="1493.1" y1="167.4" x2="1541.7" y2="167.4" fill="none" stroke="#000" stroke-linejoin="bevel" stroke-width="3.97"/><line x1="1493.1" y1="192.2" x2="1541.7" y2="192.2" fill="none" stroke="#000" stroke-linejoin="bevel" stroke-width="3.97"/><line x1="1374.85" y1="167.4" x2="1423.45" y2="167.4" fill="none" stroke="#000" stroke-linejoin="bevel" stroke-width="3.97"/><line x1="1374.85" y1="192.2" x2="1423.45" y2="192.2" fill="none" stroke="#000" stroke-linejoin="bevel" stroke-width="3.97"/><line x1="1256.59" y1="167.4" x2="1305.19" y2="167.4" fill="none" stroke="#000" stroke-linejoin="bevel" stroke-width="3.97"/><line x1="1256.59" y1="192.2" x2="1305.19" y2="192.2" fill="none" stroke="#000" stroke-linejoin="bevel" stroke-width="3.97"/><line x1="1138.34" y1="167.4" x2="1186.94" y2="167.4" fill="none" stroke="#000" stroke-linejoin="bevel" stroke-width="3.97"/><line x1="1138.34" y1="192.2" x2="1186.94" y2="192.2" fill="none" stroke="#000" stroke-linejoin="bevel" stroke-width="3.97"/><line x1="973.08" y1="167.4" x2="1021.68" y2="167.4" fill="none" stroke="#000" stroke-linejoin="bevel" stroke-width="3.97"/><line x1="973.08" y1="192.2" x2="1021.68" y2="192.2" fill="none" stroke="#000" stroke-linejoin="bevel" stroke-width="3.97"/><line x1="854.83" y1="167.4" x2="903.43" y2="167.4" fill="none" stroke="#000" stroke-linejoin="bevel" stroke-width="3.97"/><line x1="854.83" y1="192.2" x2="903.43" y2="192.2" fill="none" stroke="#000" stroke-linejoin="bevel" stroke-width="3.97"/><line x1="736.57" y1="167.4" x2="785.18" y2="167.4" fill="none" stroke="#000" stroke-linejoin="bevel" stroke-width="3.97"/><line x1="736.57" y1="192.2" x2="785.18" y2="192.2" fill="none" stroke="#000" stroke-linejoin="bevel" stroke-width="3.97"/><line x1="618.32" y1="167.4" x2="666.92" y2="167.4" fill="none" stroke="#000" stroke-linejoin="bevel" stroke-width="3.97"/><line x1="618.32" y1="192.2" x2="666.92" y2="192.2" fill="none" stroke="#000" stroke-linejoin="bevel" stroke-width="3.97"/><line x1="433.8" y1="167.4" x2="482.4" y2="167.4" fill="none" stroke="#000" stroke-linejoin="bevel" stroke-width="3.97"/><line x1="433.8" y1="192.2" x2="482.4" y2="192.2" fill="none" stroke="#000" stroke-linejoin="bevel" stroke-width="3.97"/><line x1="1553.73" y1="510.6" x2="1602.33" y2="510.6" fill="none" stroke="#000" stroke-linejoin="bevel" stroke-width="3.97"/><line x1="1553.73" y1="535.4" x2="1602.33" y2="535.4" fill="none" stroke="#000" stroke-linejoin="bevel" stroke-width="3.97"/><line x1="1379.73" y1="510.6" x2="1428.33" y2="510.6" fill="none" stroke="#000" stroke-linejoin="bevel" stroke-width="3.97"/><line x1="983.93" y1="494.23" x2="983.93" y2="392.8" fill="none" stroke="#000" stroke-linejoin="bevel" stroke-width="2.48"/><line x1="1070.92" y1="531.43" x2="1070.92" y2="392.8" fill="none" stroke="#000" stroke-linejoin="bevel" stroke-width="2.48"/><line x1="1157.92" y1="469.43" x2="1157.92" y2="392.8" fill="none" stroke="#000" stroke-linejoin="bevel" stroke-width="2.48"/><line x1="1244.92" y1="531.43" x2="1244.92" y2="392.8" fill="none" stroke="#000" stroke-linejoin="bevel" stroke-width="2.48"/><line x1="1331.91" y1="444.63" x2="1331.91" y2="380.55" fill="none" stroke="#000" stroke-linejoin="bevel" stroke-width="2.48"/><line x1="1418.91" y1="531.43" x2="1418.91" y2="390.78" fill="none" stroke="#000" stroke-linejoin="bevel" stroke-width="2.48"/><line x1="1505.91" y1="469.43" x2="1505.91" y2="401.02" fill="none" stroke="#000" stroke-linejoin="bevel" stroke-width="2.48"/><line x1="1592.9" y1="531.43" x2="1592.9" y2="411.26" fill="none" stroke="#000" stroke-linejoin="bevel" stroke-width="2.48"/><line x1="1716.6" y1="494.23" x2="1716.6" y2="411.4" fill="none" stroke="#000" stroke-linejoin="bevel" stroke-width="2.48"/><line x1="472.98" y1="188.23" x2="472.98" y2="93" fill="none" stroke="#000" stroke-linejoin="bevel" stroke-width="2.48"/><line x1="598.37" y1="151.03" x2="598.37" y2="68.2" fill="none" stroke="#000" stroke-linejoin="bevel" stroke-width="2.48"/><line x1="657.5" y1="188.23" x2="657.5" y2="68.2" fill="none" stroke="#000" stroke-linejoin="bevel" stroke-width="2.48"/><line x1="716.63" y1="138.63" x2="716.63" y2="68.2" fill="none" stroke="#000" stroke-linejoin="bevel" stroke-width="2.48"/><line x1="775.75" y1="188.23" x2="775.75" y2="68.2" fill="none" stroke="#000" stroke-linejoin="bevel" stroke-width="2.48"/><line x1="834.88" y1="126.23" x2="834.88" y2="43.4" fill="none" stroke="#000" stroke-linejoin="bevel" stroke-width="2.48"/><line x1="894" y1="188.23" x2="894" y2="43.4" fill="none" stroke="#000" stroke-linejoin="bevel" stroke-width="2.48"/><line x1="953.13" y1="113.83" x2="953.13" y2="43.4" fill="none" stroke="#000" stroke-linejoin="bevel" stroke-width="2.48"/><line x1="1012.25" y1="188.23" x2="1012.25" y2="43.4" fill="none" stroke="#000" stroke-linejoin="bevel" stroke-width="2.48"/><line x1="1118.39" y1="101.43" x2="1118.39" y2="24.8" fill="none" stroke="#000" stroke-linejoin="bevel" stroke-width="2.48"/><line x1="1177.52" y1="188.23" x2="1177.52" y2="24.8" fill="none" stroke="#000" stroke-linejoin="bevel" stroke-width="2.48"/><line x1="1236.64" y1="89.03" x2="1236.64" y2="24.8" fill="none" stroke="#000" stroke-linejoin="bevel" stroke-width="2.48"/><line x1="1295.77" y1="188.23" x2="1295.77" y2="24.8" fill="none" stroke="#000" stroke-linejoin="bevel" stroke-width="2.48"/><line x1="1354.9" y1="76.63" x2="1354.9" y2="6.2" fill="none" stroke="#000" stroke-linejoin="bevel" stroke-width="2.48"/><line x1="1414.02" y1="188.23" x2="1414.02" y2="6.2" fill="none" stroke="#000" stroke-linejoin="bevel" stroke-width="2.48"/><line x1="1473.15" y1="64.23" x2="1473.15" y2="6.2" fill="none" stroke="#000" stroke-linejoin="bevel" stroke-width="2.48"/><line x1="1532.27" y1="188.23" x2="1532.27" y2="6.2" fill="none" stroke="#000" stroke-linejoin="bevel" stroke-width="2.48"/><line x1="1638.41" y1="76.63" x2="1638.41" y2="12.53" fill="none" stroke="#000" stroke-linejoin="bevel" stroke-width="2.48"/><line x1="1697.54" y1="188.23" x2="1697.54" y2="18.64" fill="none" stroke="#000" stroke-linejoin="bevel" stroke-width="2.48"/><line x1="1756.66" y1="89.03" x2="1756.66" y2="24.76" fill="none" stroke="#000" stroke-linejoin="bevel" stroke-width="2.48"/><line x1="1815.79" y1="188.23" x2="1815.79" y2="30.87" fill="none" stroke="#000" stroke-linejoin="bevel" stroke-width="2.48"/><line x1="1874.92" y1="101.43" x2="1874.92" y2="37.29" fill="none" stroke="#000" stroke-linejoin="bevel" stroke-width="2.48"/><line x1="1934.04" y1="188.23" x2="1934.04" y2="41.36" fill="none" stroke="#000" stroke-linejoin="bevel" stroke-width="2.48"/><line x1="1993.17" y1="113.83" x2="1993.17" y2="45.44" fill="none" stroke="#000" stroke-linejoin="bevel" stroke-width="2.48"/><line x1="2052.29" y1="188.23" x2="2052.29" y2="49.52" fill="none" stroke="#000" stroke-linejoin="bevel" stroke-width="2.48"/><line x1="251.26" y1="469.43" x2="251.26" y2="405.35" fill="none" stroke="#000" stroke-linejoin="bevel" stroke-width="2.48"/><line x1="338.25" y1="531.43" x2="338.25" y2="415.58" fill="none" stroke="#000" stroke-linejoin="bevel" stroke-width="2.48"/><line x1="425.25" y1="481.83" x2="425.25" y2="425.82" fill="none" stroke="#000" stroke-linejoin="bevel" stroke-width="2.48"/><line x1="512.25" y1="531.43" x2="512.25" y2="436.06" fill="none" stroke="#000" stroke-linejoin="bevel" stroke-width="2.48"/><line x1="599.24" y1="494.23" x2="599.24" y2="430.06" fill="none" stroke="#000" stroke-linejoin="bevel" stroke-width="2.48"/><line x1="686.24" y1="531.43" x2="686.24" y2="434.15" fill="none" stroke="#000" stroke-linejoin="bevel" stroke-width="2.48"/><line x1="773.23" y1="506.63" x2="773.23" y2="438.25" fill="none" stroke="#000" stroke-linejoin="bevel" stroke-width="2.48"/><line x1="860.23" y1="531.43" x2="860.23" y2="442.34" fill="none" stroke="#000" stroke-linejoin="bevel" stroke-width="2.48"/><path d="M307.26,539.57c0,4.26,3.07,9.02,11.11,9.02,10.31,0,21.13-8.43,21.13-17.16,0-5.86-4.96-9.13-11.11-9.13-9.63,0-21.13,8.14-21.13,17.27"/><path d="M394.26,489.97c0,4.26,3.07,9.02,11.11,9.02,10.31,0,21.13-8.43,21.13-17.16,0-5.86-4.96-9.13-11.11-9.13-9.63,0-21.13,8.14-21.13,17.27"/><path d="M481.25,539.57c0,4.26,3.07,9.02,11.11,9.02,10.31,0,21.13-8.43,21.13-17.16,0-5.86-4.96-9.13-11.11-9.13-9.63,0-21.13,8.14-21.13,17.27"/><path d="M568.25,502.37c0,4.26,3.07,9.02,11.11,9.02,10.31,0,21.13-8.43,21.13-17.16,0-5.86-4.96-9.13-11.11-9.13-9.63,0-21.13,8.14-21.13,17.27"/><path d="M655.25,539.57c0,4.26,3.07,9.02,11.11,9.02,10.31,0,21.13-8.43,21.13-17.16,0-5.86-4.96-9.13-11.11-9.13-9.63,0-21.13,8.14-21.13,17.27"/><path d="M742.24,514.77c0,4.26,3.07,9.02,11.11,9.02,10.31,0,21.13-8.43,21.13-17.16,0-5.86-4.96-9.13-11.11-9.13-9.63,0-21.13,8.14-21.13,17.27"/><path d="M2021.3,196.37c0,4.26,3.07,9.02,11.11,9.02,10.31,0,21.13-8.43,21.13-17.16,0-5.86-4.96-9.13-11.11-9.13-9.63,0-21.13,8.14-21.13,17.27"/><path d="M829.24,539.57c0,4.26,3.07,9.02,11.11,9.02,10.31,0,21.13-8.43,21.13-17.16,0-5.86-4.96-9.13-11.11-9.13-9.63,0-21.13,8.14-21.13,17.27"/><path d="M952.94,502.37c0,4.26,3.07,9.02,11.11,9.02,10.31,0,21.13-8.43,21.13-17.16,0-5.86-4.96-9.13-11.11-9.13-9.63,0-21.13,8.14-21.13,17.27"/><path d="M1039.93,539.57c0,4.26,3.07,9.02,11.11,9.02,10.31,0,21.13-8.43,21.13-17.16,0-5.86-4.96-9.13-11.11-9.13-9.63,0-21.13,8.14-21.13,17.27"/><path d="M1126.93,477.57c0,4.26,3.07,9.02,11.11,9.02,10.31,0,21.13-8.43,21.13-17.16,0-5.86-4.96-9.13-11.11-9.13-9.63,0-21.13,8.14-21.13,17.27"/><path d="M1213.93,539.57c0,4.26,3.07,9.02,11.11,9.02,10.31,0,21.13-8.43,21.13-17.16,0-5.86-4.96-9.13-11.11-9.13-9.63,0-21.13,8.14-21.13,17.27"/><path d="M441.99,196.37c0,4.26,3.07,9.02,11.11,9.02,10.31,0,21.13-8.43,21.13-17.16,0-5.86-4.96-9.13-11.11-9.13-9.63,0-21.13,8.14-21.13,17.27"/><path d="M1300.92,452.77c0,4.26,3.07,9.02,11.11,9.02,10.31,0,21.13-8.43,21.13-17.16,0-5.86-4.96-9.13-11.11-9.13-9.63,0-21.13,8.14-21.13,17.27"/><path d="M567.38,159.17c0,4.26,3.07,9.02,11.11,9.02,10.31,0,21.13-8.43,21.13-17.16,0-5.86-4.96-9.13-11.11-9.13-9.63,0-21.13,8.14-21.13,17.27"/><path d="M1387.92,539.57c0,4.26,3.07,9.02,11.11,9.02,10.31,0,21.13-8.43,21.13-17.16,0-5.86-4.96-9.13-11.11-9.13-9.63,0-21.13,8.14-21.13,17.27"/><path d="M1474.91,477.57c0,4.26,3.07,9.02,11.11,9.02,10.31,0,21.13-8.43,21.13-17.16,0-5.86-4.96-9.13-11.11-9.13-9.63,0-21.13,8.14-21.13,17.27"/><path d="M626.51,196.37c0,4.26,3.07,9.02,11.11,9.02,10.31,0,21.13-8.43,21.13-17.16,0-5.86-4.96-9.13-11.11-9.13-9.63,0-21.13,8.14-21.13,17.27"/><path d="M685.63,146.77c0,4.26,3.07,9.02,11.11,9.02,10.31,0,21.13-8.43,21.13-17.16,0-5.86-4.96-9.13-11.11-9.13-9.63,0-21.13,8.14-21.13,17.27"/><path d="M744.76,196.37c0,4.26,3.07,9.02,11.11,9.02,10.31,0,21.13-8.43,21.13-17.16,0-5.86-4.96-9.13-11.11-9.13-9.63,0-21.13,8.14-21.13,17.27"/><path d="M803.88,134.37c0,4.26,3.07,9.02,11.11,9.02,10.31,0,21.13-8.43,21.13-17.16,0-5.86-4.96-9.13-11.11-9.13-9.63,0-21.13,8.14-21.13,17.27"/><path d="M863.01,196.37c0,4.26,3.07,9.02,11.11,9.02,10.31,0,21.13-8.43,21.13-17.16,0-5.86-4.96-9.13-11.11-9.13-9.63,0-21.13,8.14-21.13,17.27"/><path d="M922.14,121.97c0,4.26,3.07,9.02,11.11,9.02,10.31,0,21.13-8.43,21.13-17.16,0-5.86-4.96-9.13-11.11-9.13-9.63,0-21.13,8.14-21.13,17.27"/><path d="M981.26,196.37c0,4.26,3.07,9.02,11.11,9.02,10.31,0,21.13-8.43,21.13-17.16,0-5.86-4.96-9.13-11.11-9.13-9.63,0-21.13,8.14-21.13,17.27"/><path d="M1087.4,109.57c0,4.26,3.07,9.02,11.11,9.02,10.31,0,21.13-8.43,21.13-17.16,0-5.86-4.96-9.13-11.11-9.13-9.63,0-21.13,8.14-21.13,17.27"/><path d="M1561.91,539.57c0,4.26,3.07,9.02,11.11,9.02,10.31,0,21.13-8.43,21.13-17.16,0-5.86-4.96-9.13-11.11-9.13-9.63,0-21.13,8.14-21.13,17.27"/><path d="M1146.52,196.37c0,4.26,3.07,9.02,11.11,9.02,10.31,0,21.13-8.43,21.13-17.16,0-5.86-4.96-9.13-11.11-9.13-9.63,0-21.13,8.14-21.13,17.27"/><path d="M1205.65,97.17c0,4.26,3.07,9.02,11.11,9.02,10.31,0,21.13-8.43,21.13-17.16,0-5.86-4.96-9.13-11.11-9.13-9.63,0-21.13,8.14-21.13,17.27"/><path d="M1264.78,196.37c0,4.26,3.07,9.02,11.11,9.02,10.31,0,21.13-8.43,21.13-17.16,0-5.86-4.96-9.13-11.11-9.13-9.63,0-21.13,8.14-21.13,17.27"/><path d="M1323.9,84.77c0,4.26,3.07,9.02,11.11,9.02,10.31,0,21.13-8.43,21.13-17.16,0-5.86-4.96-9.13-11.11-9.13-9.63,0-21.13,8.14-21.13,17.27"/><path d="M1706.74,485.1c-9.63,0-21.13,8.04-21.13,17.27,0,4.26,3.07,9.02,11.11,9.02,10.31,0,21.13-8.43,21.13-17.16,0-5.86-4.96-9.13-11.11-9.13m-13.69,21.62c-3.27,0-3.97-2.67-3.97-3.57,0-4.87,16.66-13.39,21.33-13.39,2.39,0,3.97,1.4,3.97,3.57,0,4.96-16.77,13.39-21.33,13.39"/><path d="M1383.03,196.37c0,4.26,3.07,9.02,11.11,9.02,10.31,0,21.13-8.43,21.13-17.16,0-5.86-4.96-9.13-11.11-9.13-9.63,0-21.13,8.14-21.13,17.27"/><path d="M1442.16,72.37c0,4.26,3.07,9.02,11.11,9.02,10.31,0,21.13-8.43,21.13-17.16,0-5.86-4.96-9.13-11.11-9.13-9.63,0-21.13,8.14-21.13,17.27"/><path d="M1501.28,196.37c0,4.26,3.07,9.02,11.11,9.02,10.31,0,21.13-8.43,21.13-17.16,0-5.86-4.96-9.13-11.11-9.13-9.63,0-21.13,8.14-21.13,17.27"/><path d="M1607.42,84.77c0,4.26,3.07,9.02,11.11,9.02,10.31,0,21.13-8.43,21.13-17.16,0-5.86-4.96-9.13-11.11-9.13-9.63,0-21.13,8.14-21.13,17.27"/><path d="M1666.54,196.37c0,4.26,3.07,9.02,11.11,9.02,10.31,0,21.13-8.43,21.13-17.16,0-5.86-4.96-9.13-11.11-9.13-9.63,0-21.13,8.14-21.13,17.27"/><path d="M1725.67,97.17c0,4.26,3.07,9.02,11.11,9.02,10.31,0,21.13-8.43,21.13-17.16,0-5.86-4.96-9.13-11.11-9.13-9.63,0-21.13,8.14-21.13,17.27"/><path d="M1784.8,196.37c0,4.26,3.07,9.02,11.11,9.02,10.31,0,21.13-8.43,21.13-17.16,0-5.86-4.96-9.13-11.11-9.13-9.63,0-21.13,8.14-21.13,17.27"/><path d="M1843.92,109.57c0,4.26,3.07,9.02,11.11,9.02,10.31,0,21.13-8.43,21.13-17.16,0-5.86-4.96-9.13-11.11-9.13-9.63,0-21.13,8.14-21.13,17.27"/><path d="M1903.05,196.37c0,4.26,3.07,9.02,11.11,9.02,10.31,0,21.13-8.43,21.13-17.16,0-5.86-4.96-9.13-11.11-9.13-9.63,0-21.13,8.14-21.13,17.27"/><path d="M1962.18,121.97c0,4.26,3.07,9.02,11.11,9.02,10.31,0,21.13-8.43,21.13-17.16,0-5.86-4.96-9.13-11.11-9.13-9.63,0-21.13,8.14-21.13,17.27"/><path d="M220.26,477.57c0,4.26,3.07,9.02,11.11,9.02,10.31,0,21.13-8.43,21.13-17.16,0-5.86-4.96-9.13-11.11-9.13-9.63,0-21.13,8.14-21.13,17.27"/><path d="M30.8,511.89c0,6.56,4.96,15.19,18.35,15.19,4.67,0,8.74-1.19,12.31-3.38,5.36-3.77,6.74-10.32,6.74-16.57,0-3.86-.59-8.32-1.58-13.98-.29-1.98-.9-4.96-1.49-8.84,9.72-3.18,16.96-13.3,16.96-23.51,0-14.97-10.62-25.09-25.09-25.09-.99-5.95-1.98-11.81-2.77-17.36,10.42-11.02,17.65-23.42,17.65-39.18,0-9.04-2.77-16.37-4.37-19.95-2.37-5.05-5.25-8.53-7.04-8.53-.7,0-3.77,1.19-7.04,5.05-6.36,7.55-8.14,20.24-8.14,28.57,0,5.36,.5,10.23,2.19,21.34-.11,.09-5.27,5.35-7.35,7.04-9.04,8.34-21.53,20.43-21.53,40.28,0,18.54,16.17,33.12,34.63,33.12,2.87,0,5.55-.29,7.83-.7,1.89,9.53,3.08,16.48,3.08,21.73,0,10.32-5.36,15.78-15.38,15.78-2.39,0-4.46-.5-4.67-.5-.09-.11-.29-.2-.29-.29,0-.2,.2-.31,.5-.31,4.67-.79,9.32-4.76,9.32-11.1,0-5.36-4.06-11.02-11.5-11.02-6.94,0-11.31,5.66-11.31,12.2m20.74-132.43c.9-3.97,5.46-14.38,10.62-14.38,1.49,0,3.86,4.76,3.86,11.7,0,10.32-7.63,18.06-14.48,24.8-.59-3.97-1.08-7.83-1.08-12,0-3.67,.29-7.05,1.08-10.12m8.73,101.97c-1.98,.4-3.86,.6-5.75,.6-14.18,0-26.29-9.92-26.29-24.91,0-12.09,8.53-22.91,17.27-30.46,1.67-1.49,3.27-2.87,4.76-4.36,.88,5.35,1.58,10.01,2.28,14.09-9.04,2.68-15.17,12.2-15.17,21.53,0,6.94,5.46,16.46,13.39,16.46,.79,0,1.69-.4,1.69-1.29s-.99-1.39-2.19-2.19c-3.88-2.39-6.06-4.96-6.06-9.83,0-6.05,4.57-10.91,10.32-12.29l5.75,32.63m14.09-18.35c0,7.05-2.88,14.29-9.92,17.17-2.08-11.9-4.76-27.68-5.46-32.05,8.93,0,15.38,6.06,15.38,14.88"/><path d="M30.8,168.69c0,6.56,4.96,15.19,18.35,15.19,4.67,0,8.74-1.19,12.31-3.38,5.36-3.77,6.74-10.32,6.74-16.57,0-3.86-.59-8.32-1.58-13.98-.29-1.98-.9-4.96-1.49-8.84,9.72-3.18,16.96-13.3,16.96-23.51,0-14.97-10.62-25.09-25.09-25.09-.99-5.95-1.98-11.81-2.77-17.36,10.42-11.02,17.65-23.42,17.65-39.18,0-9.04-2.77-16.37-4.37-19.95-2.37-5.05-5.25-8.53-7.04-8.53-.7,0-3.77,1.19-7.04,5.05-6.36,7.55-8.14,20.24-8.14,28.57,0,5.36,.5,10.23,2.19,21.34-.11,.09-5.27,5.35-7.35,7.04-9.04,8.34-21.53,20.43-21.53,40.28,0,18.54,16.17,33.12,34.63,33.12,2.87,0,5.55-.29,7.83-.7,1.89,9.53,3.08,16.48,3.08,21.73,0,10.32-5.36,15.78-15.38,15.78-2.39,0-4.46-.5-4.67-.5-.09-.11-.29-.2-.29-.29,0-.2,.2-.31,.5-.31,4.67-.79,9.32-4.76,9.32-11.1,0-5.36-4.06-11.02-11.5-11.02-6.94,0-11.31,5.66-11.31,12.2M51.54,36.25c.9-3.97,5.46-14.38,10.62-14.38,1.49,0,3.86,4.76,3.86,11.7,0,10.32-7.63,18.06-14.48,24.8-.59-3.97-1.08-7.83-1.08-12,0-3.67,.29-7.05,1.08-10.12m8.73,101.97c-1.98,.4-3.86,.6-5.75,.6-14.18,0-26.29-9.92-26.29-24.91,0-12.09,8.53-22.91,17.27-30.46,1.67-1.49,3.27-2.87,4.76-4.36,.88,5.35,1.58,10.01,2.28,14.09-9.04,2.68-15.17,12.2-15.17,21.53,0,6.94,5.46,16.46,13.39,16.46,.79,0,1.69-.4,1.69-1.29s-.99-1.39-2.19-2.19c-3.88-2.39-6.06-4.96-6.06-9.83,0-6.05,4.57-10.91,10.32-12.29l5.75,32.63m14.09-18.35c0,7.05-2.88,14.29-9.92,17.17-2.08-11.9-4.76-27.68-5.46-32.05,8.93,0,15.38,6.06,15.38,14.88"/><path d="M129.99,32.98c.6-.09,1.1-.79,1.1-1.4v-5.84c0-.99-.7-1.39-1.6-1.39l-3.27,.7V10.26h-2.77v15.38l-8.83,1.8V13.44h-2.77v14.59l-3.88,.79c-.59,.11-1.09,.79-1.09,1.39v5.75c0,1.09,.79,1.4,1.69,1.4l3.27-.7v16.37l-3.88,.79c-.59,.09-1.09,.79-1.09,1.4v5.75c0,1.09,.79,1.38,1.69,1.38l3.27-.68v14.77h2.77v-15.38l8.83-1.78v14h2.77v-14.59l3.77-.7c.6-.11,1.1-.79,1.1-1.39v-5.84c0-.99-.7-1.4-1.6-1.4l-3.27,.7v-16.37l3.77-.7m-15.38,3.07l8.83-1.78v16.37l-8.83,1.89v-16.48"/><path d="M157.16,70.18c.6-.09,1.1-.79,1.1-1.4v-5.84c0-.99-.7-1.39-1.6-1.39l-3.27,.7v-14.79h-2.77v15.38l-8.83,1.8v-14h-2.77v14.59l-3.88,.79c-.59,.11-1.09,.79-1.09,1.39v5.75c0,1.09,.79,1.4,1.69,1.4l3.27-.7v16.37l-3.88,.79c-.59,.09-1.09,.79-1.09,1.4v5.75c0,1.09,.79,1.38,1.69,1.38l3.27-.68v14.77h2.77v-15.38l8.83-1.78v14h2.77v-14.59l3.77-.7c.6-.11,1.1-.79,1.1-1.39v-5.84c0-.99-.7-1.4-1.6-1.4l-3.27,.7v-16.37l3.77-.7m-15.38,3.07l8.83-1.78v16.37l-8.83,1.89v-16.48"/><path d="M129.99,376.18c.6-.09,1.1-.79,1.1-1.4v-5.84c0-.99-.7-1.39-1.6-1.39l-3.27,.7v-14.79h-2.77v15.38l-8.83,1.8v-14h-2.77v14.59l-3.88,.79c-.59,.11-1.09,.79-1.09,1.39v5.75c0,1.09,.79,1.4,1.69,1.4l3.27-.7v16.37l-3.88,.79c-.59,.09-1.09,.79-1.09,1.4v5.75c0,1.09,.79,1.38,1.69,1.38l3.27-.68v14.77h2.77v-15.38l8.83-1.78v14h2.77v-14.59l3.77-.7c.6-.11,1.1-.79,1.1-1.39v-5.84c0-.99-.7-1.4-1.6-1.4l-3.27,.7v-16.37l3.77-.7m-15.38,3.07l8.83-1.78v16.37l-8.83,1.89v-16.48"/><path d="M157.16,413.38c.6-.09,1.1-.79,1.1-1.4v-5.84c0-.99-.7-1.39-1.6-1.39l-3.27,.7v-14.79h-2.77v15.38l-8.83,1.8v-14h-2.77v14.59l-3.88,.79c-.59,.11-1.09,.79-1.09,1.39v5.75c0,1.09,.79,1.4,1.69,1.4l3.27-.7v16.37l-3.88,.79c-.59,.09-1.09,.79-1.09,1.4v5.75c0,1.09,.79,1.38,1.69,1.38l3.27-.68v14.77h2.77v-15.38l8.83-1.78v14h2.77v-14.59l3.77-.7c.6-.11,1.1-.79,1.1-1.39v-5.84c0-.99-.7-1.4-1.6-1.4l-3.27,.7v-16.37l3.77-.7m-15.38,3.07l8.83-1.78v16.37l-8.83,1.89v-16.48"/><path d="M220.26,92.01q0,1.4,1.4,1.4h29.47q1.38,0,1.38-1.4v-10.71q0-1.39-1.38-1.39h-29.47q-1.4,0-1.4,1.39v10.71"/><path d="M376.11,109.46c-.09-.09-.29-.29-.59-.68l-11.41-14.09c-.11-.11-.2-.4-.2-.6,0-.29,.09-.68,.2-.88l10.11-15.28c.11-.2,.2-.5,.2-.7v-.88c0-.29-.09-.6-.29-.79l-16.07-21.73s-.39-.6-.99-.6c-.29,0-.5,0-.79,.31-.4,.29-.5,.68-.5,.99,0,.59,.29,1.09,.29,1.09l7.55,10.32c.19,.29,.29,.68,.29,1.18,0,.4-.11,.9-.29,1.19l-10.03,15.28c-.09,.2-.2,.59-.2,.79v.9c0,.29,.11,.59,.31,.79l11.1,13.8c-.39-.11-1.29-.31-2.48-.31-5.05,0-9.02,4.17-9.02,9.24,0,1.38,.29,2.77,1.09,3.86,2.09,3.18,9.53,12.6,9.53,12.6,0,0,.5,.6,1.19,.6,.19,0,.39,0,.59-.2,.5-.4,.7-.79,.7-1.19s-.2-.7-.29-.9c-.31-.5-3.47-6.25-3.47-6.25,0,0-.7-1.39-.7-3.18,0-3.18,2.37-5.75,5.55-5.75,1.29,0,2.39,.4,3.18,.9l3.88,2.48s.39,.19,.79,.19,.7-.09,.99-.5c.2-.29,.29-.59,.29-.88s-.09-.5-.29-.79l-.2-.31"/><path d="M1881.35,435.21q0,1.4,1.4,1.4h29.47q1.38,0,1.38-1.4v-10.71q0-1.39-1.38-1.39h-29.47q-1.4,0-1.4,1.39v10.71"/><path d="M1724.45,348.41c-9.32-10.12-17.56-10.71-22.71-10.71s-13.3,.59-22.63,10.71c-4.85,5.36-8.23,15.97-8.23,21.33,0,1.89,.4,3.18,1.4,3.18,2.77,0,1.38-8.54,9.72-16.97,7.33-7.33,17.16-7.44,19.55-7.44h.39c2.39,0,12.21,.11,19.55,7.44,8.34,8.43,6.94,16.97,9.72,16.97,.99,0,1.39-1.19,1.39-3.18,0-5.36-3.27-16.07-8.14-21.33m-29.56,18.94c0,3.78,3.07,6.85,6.85,6.85s6.84-3.07,6.84-6.85-3.07-6.84-6.84-6.84-6.85,3.07-6.85,6.84"/><path d="M1353.66,0h179.85V12.4h-179.85V0" fill-rule="evenodd"/><path d="M1637.17,6.17l179.86,18.6v12.46l-179.86-18.6V6.17" fill-rule="evenodd"/><path d="M1873.68,30.99l179.85,12.4v12.43l-179.85-12.4v-12.43" fill-rule="evenodd"/><path d="M1330.67,374.16l263.47,31v12.48l-263.47-31v-12.48" fill-rule="evenodd"/><path d="M982.69,386.6h263.47v12.4h-263.47v-12.4" fill-rule="evenodd"/><path d="M598,423.79l263.47,12.4v12.42l-263.47-12.4v-12.42" fill-rule="evenodd"/><path d="M1117.15,18.6h179.86v12.4h-179.86v-12.4" fill-rule="evenodd"/><path d="M250.02,398.96l263.47,31v12.48l-263.47-31v-12.48" fill-rule="evenodd"/><path d="M597.13,62h179.86v12.4h-179.86v-12.4" fill-rule="evenodd"/><path d="M833.64,37.2h179.85v12.4h-179.85v-12.4" fill-rule="evenodd"/></g></svg>