<?xml version="1.0" encoding="UTF-8"?><svg id="b" xmlns="http://www.w3.org/2000/svg" viewBox="0 0 2095.2 548.59"><g id="c"><line y1="43.4" x2="2095.2" y2="43.4" fill="none" stroke="#000" stroke-linejoin="bevel" stroke-width="2.73"/><line y1="68.2" x2="2095.2" y2="68.2" fill="none" stroke="#000" stroke-linejoin="bevel" stroke-width="2.73"/><line y1="93" x2="2095.2" y2="93" fill="none" stroke="#000" stroke-linejoin="bevel" stroke-width="2.73"/><line y1="117.8" x2="2095.2" y2="117.8" fill="none" stroke="#000" stroke-linejoin="bevel" stroke-width="2.73"/><line y1="142.6" x2="2095.2" y2="142.6" fill="none" stroke="#000" stroke-linejoin="bevel" stroke-width="2.73"/><line y1="386.6" x2="2095.2" y2="386.6" fill="none" stroke="#000" stroke-linejoin="bevel" stroke-width="2.73"/><line y1="411.4" x2="2095.2" y2="411.4" fill="none" stroke="#000" stroke-linejoin="bevel" stroke-width="2.73"/><line y1="436.2" x2="2095.2" y2="436.2" fill="none" stroke="#000" stroke-linejoin="bevel" stroke-width="2.73"/><line y1="461" x2="2095.2" y2="461" fill="none" stroke="#000" stroke-linejoin="bevel" stroke-width="2.73"/><line y1="485.8" x2="2095.2" y2="485.8" fill="none" stroke="#000" stroke-linejoin="bevel" stroke-width="2.73"/><line x1="1594.03" y1="42.04" x2="1594.03" y2="143.96" fill="none" stroke="#000" stroke-linejoin="bevel" stroke-width="4.46"/><line x1="596.15" y1="42.04" x2="596.15" y2="143.96" fill="none" stroke="#000" stroke-linejoin="bevel" stroke-width="4.46"/><line x1="1095.09" y1="42.04" x2="1095.09" y2="143.96" fill="none" stroke="#000" stroke-linejoin="bevel" stroke-width="4.46"/><line x1="2092.97" y1="42.04" x2="2092.97" y2="143.96" fill="none" stroke="#000" stroke-linejoin="bevel" stroke-width="4.46"/><line x1="966.67" y1="385.24" x2="966.67" y2="487.16" fill="none" stroke="#000" stroke-linejoin="bevel" stroke-width="4.46"/><line x1="2079.33" y1="385.24" x2="2079.33" y2="487.16" fill="none" stroke="#000" stroke-linejoin="bevel" stroke-width="4.46"/><line x1="2092.97" y1="385.24" x2="2092.97" y2="487.16" fill="none" stroke="#000" stroke-linejoin="bevel" stroke-width="4.46"/><line x1="1668.49" y1="385.24" x2="1668.49" y2="487.16" fill="none" stroke="#000" stroke-linejoin="bevel" stroke-width="4.46"/><line x1="1242.37" y1="535.4" x2="1290.97" y2="535.4" fill="none" stroke="#000" stroke-linejoin="bevel" stroke-width="3.97"/><line x1="1514.18" y1="192.2" x2="1562.78" y2="192.2" fill="none" stroke="#000" stroke-linejoin="bevel" stroke-width="3.97"/><line x1="1076.09" y1="510.6" x2="1124.69" y2="510.6" fill="none" stroke="#000" stroke-linejoin="bevel" stroke-width="3.97"/><line x1="1076.09" y1="535.4" x2="1124.69" y2="535.4" fill="none" stroke="#000" stroke-linejoin="bevel" stroke-width="3.97"/><line x1="1514.18" y1="167.4" x2="1562.78" y2="167.4" fill="none" stroke="#000" stroke-linejoin="bevel" stroke-width="3.97"/><line x1="903.01" y1="192.2" x2="951.61" y2="192.2" fill="none" stroke="#000" stroke-linejoin="bevel" stroke-width="3.97"/><line x1="903.01" y1="167.4" x2="951.61" y2="167.4" fill="none" stroke="#000" stroke-linejoin="bevel" stroke-width="3.97"/><line x1="1015.24" y1="192.2" x2="1063.84" y2="192.2" fill="none" stroke="#000" stroke-linejoin="bevel" stroke-width="3.97"/><line x1="1015.24" y1="167.4" x2="1063.84" y2="167.4" fill="none" stroke="#000" stroke-linejoin="bevel" stroke-width="3.97"/><line x1="873.11" y1="510.6" x2="921.71" y2="510.6" fill="none" stroke="#000" stroke-linejoin="bevel" stroke-width="3.97"/><line x1="501.56" y1="167.4" x2="550.16" y2="167.4" fill="none" stroke="#000" stroke-linejoin="bevel" stroke-width="3.97"/><line x1="1574.94" y1="510.6" x2="1623.54" y2="510.6" fill="none" stroke="#000" stroke-linejoin="bevel" stroke-width="3.97"/><line x1="873.11" y1="535.4" x2="921.71" y2="535.4" fill="none" stroke="#000" stroke-linejoin="bevel" stroke-width="3.97"/><line x1="1676.43" y1="167.4" x2="1725.03" y2="167.4" fill="none" stroke="#000" stroke-linejoin="bevel" stroke-width="3.97"/><line x1="1574.94" y1="535.4" x2="1623.54" y2="535.4" fill="none" stroke="#000" stroke-linejoin="bevel" stroke-width="3.97"/><line x1="789.97" y1="510.6" x2="838.57" y2="510.6" fill="none" stroke="#000" stroke-linejoin="bevel" stroke-width="3.97"/><line x1="1408.65" y1="510.6" x2="1457.25" y2="510.6" fill="none" stroke="#000" stroke-linejoin="bevel" stroke-width="3.97"/><line x1="1788.66" y1="192.2" x2="1837.26" y2="192.2" fill="none" stroke="#000" stroke-linejoin="bevel" stroke-width="3.97"/><line x1="1788.66" y1="167.4" x2="1837.26" y2="167.4" fill="none" stroke="#000" stroke-linejoin="bevel" stroke-width="3.97"/><line x1="1177.49" y1="192.2" x2="1226.09" y2="192.2" fill="none" stroke="#000" stroke-linejoin="bevel" stroke-width="3.97"/><line x1="1177.49" y1="167.4" x2="1226.09" y2="167.4" fill="none" stroke="#000" stroke-linejoin="bevel" stroke-width="3.97"/><line x1="706.83" y1="510.6" x2="755.43" y2="510.6" fill="none" stroke="#000" stroke-linejoin="bevel" stroke-width="3.97"/><line x1="2013.12" y1="167.4" x2="2061.72" y2="167.4" fill="none" stroke="#000" stroke-linejoin="bevel" stroke-width="3.97"/><line x1="706.83" y1="535.4" x2="755.43" y2="535.4" fill="none" stroke="#000" stroke-linejoin="bevel" stroke-width="3.97"/><line x1="2013.12" y1="192.2" x2="2061.72" y2="192.2" fill="none" stroke="#000" stroke-linejoin="bevel" stroke-width="3.97"/><line x1="678.55" y1="192.2" x2="727.15" y2="192.2" fill="none" stroke="#000" stroke-linejoin="bevel" stroke-width="3.97"/><line x1="678.55" y1="167.4" x2="727.15" y2="167.4" fill="none" stroke="#000" stroke-linejoin="bevel" stroke-width="3.97"/><line x1="1289.72" y1="192.2" x2="1338.32" y2="192.2" fill="none" stroke="#000" stroke-linejoin="bevel" stroke-width="3.97"/><line x1="1289.72" y1="167.4" x2="1338.32" y2="167.4" fill="none" stroke="#000" stroke-linejoin="bevel" stroke-width="3.97"/><line x1="540.55" y1="510.6" x2="589.15" y2="510.6" fill="none" stroke="#000" stroke-linejoin="bevel" stroke-width="3.97"/><line x1="1900.89" y1="192.2" x2="1949.49" y2="192.2" fill="none" stroke="#000" stroke-linejoin="bevel" stroke-width="3.97"/><line x1="540.55" y1="535.4" x2="589.15" y2="535.4" fill="none" stroke="#000" stroke-linejoin="bevel" stroke-width="3.97"/><line x1="374.27" y1="510.6" x2="422.87" y2="510.6" fill="none" stroke="#000" stroke-linejoin="bevel" stroke-width="3.97"/><line x1="1676.43" y1="192.2" x2="1725.03" y2="192.2" fill="none" stroke="#000" stroke-linejoin="bevel" stroke-width="3.97"/><line x1="1401.95" y1="192.2" x2="1450.55" y2="192.2" fill="none" stroke="#000" stroke-linejoin="bevel" stroke-width="3.97"/><line x1="1408.65" y1="535.4" x2="1457.25" y2="535.4" fill="none" stroke="#000" stroke-linejoin="bevel" stroke-width="3.97"/><line x1="1401.95" y1="167.4" x2="1450.55" y2="167.4" fill="none" stroke="#000" stroke-linejoin="bevel" stroke-width="3.97"/><line x1="1242.37" y1="510.6" x2="1290.97" y2="510.6" fill="none" stroke="#000" stroke-linejoin="bevel" stroke-width="3.97"/><line x1="1900.89" y1="167.4" x2="1949.49" y2="167.4" fill="none" stroke="#000" stroke-linejoin="bevel" stroke-width="3.97"/><line x1="790.78" y1="192.2" x2="839.38" y2="192.2" fill="none" stroke="#000" stroke-linejoin="bevel" stroke-width="3.97"/><line x1="790.78" y1="167.4" x2="839.38" y2="167.4" fill="none" stroke="#000" stroke-linejoin="bevel" stroke-width="3.97"/><line x1="374.27" y1="535.4" x2="422.87" y2="535.4" fill="none" stroke="#000" stroke-linejoin="bevel" stroke-width="3.97"/><line x1="501.56" y1="192.2" x2="550.16" y2="192.2" fill="none" stroke="#000" stroke-linejoin="bevel" stroke-width="3.97"/><line x1="540.74" y1="188.23" x2="540.74" y2="93" fill="none" stroke="#000" stroke-linejoin="bevel" stroke-width="2.48"/><line x1="661.61" y1="151.03" x2="661.61" y2="68.2" fill="none" stroke="#000" stroke-linejoin="bevel" stroke-width="2.48"/><line x1="773.84" y1="138.63" x2="773.84" y2="68.2" fill="none" stroke="#000" stroke-linejoin="bevel" stroke-width="2.48"/><line x1="829.95" y1="188.23" x2="829.95" y2="68.2" fill="none" stroke="#000" stroke-linejoin="bevel" stroke-width="2.48"/><line x1="886.07" y1="126.23" x2="886.07" y2="43.4" fill="none" stroke="#000" stroke-linejoin="bevel" stroke-width="2.48"/><line x1="942.18" y1="188.23" x2="942.18" y2="43.4" fill="none" stroke="#000" stroke-linejoin="bevel" stroke-width="2.48"/><line x1="998.3" y1="113.83" x2="998.3" y2="43.4" fill="none" stroke="#000" stroke-linejoin="bevel" stroke-width="2.48"/><line x1="1054.41" y1="188.23" x2="1054.41" y2="43.4" fill="none" stroke="#000" stroke-linejoin="bevel" stroke-width="2.48"/><line x1="1160.55" y1="101.43" x2="1160.55" y2="24.8" fill="none" stroke="#000" stroke-linejoin="bevel" stroke-width="2.48"/><line x1="1216.67" y1="188.23" x2="1216.67" y2="24.8" fill="none" stroke="#000" stroke-linejoin="bevel" stroke-width="2.48"/><line x1="1272.78" y1="89.03" x2="1272.78" y2="24.8" fill="none" stroke="#000" stroke-linejoin="bevel" stroke-width="2.48"/><line x1="1328.9" y1="188.23" x2="1328.9" y2="24.8" fill="none" stroke="#000" stroke-linejoin="bevel" stroke-width="2.48"/><line x1="1385.01" y1="76.63" x2="1385.01" y2="6.2" fill="none" stroke="#000" stroke-linejoin="bevel" stroke-width="2.48"/><line x1="1441.12" y1="188.23" x2="1441.12" y2="6.2" fill="none" stroke="#000" stroke-linejoin="bevel" stroke-width="2.48"/><line x1="1497.24" y1="64.23" x2="1497.24" y2="6.2" fill="none" stroke="#000" stroke-linejoin="bevel" stroke-width="2.48"/><line x1="1553.35" y1="188.23" x2="1553.35" y2="6.2" fill="none" stroke="#000" stroke-linejoin="bevel" stroke-width="2.48"/><line x1="1659.49" y1="76.63" x2="1659.49" y2="12.53" fill="none" stroke="#000" stroke-linejoin="bevel" stroke-width="2.48"/><line x1="1715.61" y1="188.23" x2="1715.61" y2="18.64" fill="none" stroke="#000" stroke-linejoin="bevel" stroke-width="2.48"/><line x1="1771.72" y1="89.03" x2="1771.72" y2="24.75" fill="none" stroke="#000" stroke-linejoin="bevel" stroke-width="2.48"/><line x1="1827.84" y1="188.23" x2="1827.84" y2="30.86" fill="none" stroke="#000" stroke-linejoin="bevel" stroke-width="2.48"/><line x1="717.73" y1="188.23" x2="717.73" y2="68.2" fill="none" stroke="#000" stroke-linejoin="bevel" stroke-width="2.48"/><line x1="1883.95" y1="101.43" x2="1883.95" y2="37.29" fill="none" stroke="#000" stroke-linejoin="bevel" stroke-width="2.48"/><line x1="1940.06" y1="188.23" x2="1940.06" y2="41.36" fill="none" stroke="#000" stroke-linejoin="bevel" stroke-width="2.48"/><line x1="1996.18" y1="113.83" x2="1996.18" y2="45.44" fill="none" stroke="#000" stroke-linejoin="bevel" stroke-width="2.48"/><line x1="2052.29" y1="188.23" x2="2052.29" y2="49.51" fill="none" stroke="#000" stroke-linejoin="bevel" stroke-width="2.48"/><line x1="330.31" y1="469.43" x2="330.31" y2="405.26" fill="none" stroke="#000" stroke-linejoin="bevel" stroke-width="2.48"/><line x1="413.45" y1="531.43" x2="413.45" y2="409.35" fill="none" stroke="#000" stroke-linejoin="bevel" stroke-width="2.48"/><line x1="496.59" y1="481.83" x2="496.59" y2="413.45" fill="none" stroke="#000" stroke-linejoin="bevel" stroke-width="2.48"/><line x1="579.73" y1="531.43" x2="579.73" y2="417.54" fill="none" stroke="#000" stroke-linejoin="bevel" stroke-width="2.48"/><line x1="662.87" y1="494.23" x2="662.87" y2="430.06" fill="none" stroke="#000" stroke-linejoin="bevel" stroke-width="2.48"/><line x1="746.01" y1="531.43" x2="746.01" y2="434.15" fill="none" stroke="#000" stroke-linejoin="bevel" stroke-width="2.48"/><line x1="829.15" y1="506.63" x2="829.15" y2="438.25" fill="none" stroke="#000" stroke-linejoin="bevel" stroke-width="2.48"/><line x1="912.29" y1="531.43" x2="912.29" y2="442.34" fill="none" stroke="#000" stroke-linejoin="bevel" stroke-width="2.48"/><line x1="1032.13" y1="494.23" x2="1032.13" y2="392.8" fill="none" stroke="#000" stroke-linejoin="bevel" stroke-width="2.48"/><line x1="1115.27" y1="531.43" x2="1115.27" y2="392.8" fill="none" stroke="#000" stroke-linejoin="bevel" stroke-width="2.48"/><line x1="1198.41" y1="469.43" x2="1198.41" y2="392.8" fill="none" stroke="#000" stroke-linejoin="bevel" stroke-width="2.48"/><line x1="1281.55" y1="531.43" x2="1281.55" y2="392.8" fill="none" stroke="#000" stroke-linejoin="bevel" stroke-width="2.48"/><line x1="1364.69" y1="444.63" x2="1364.69" y2="380.46" fill="none" stroke="#000" stroke-linejoin="bevel" stroke-width="2.48"/><line x1="1447.83" y1="531.43" x2="1447.83" y2="384.55" fill="none" stroke="#000" stroke-linejoin="bevel" stroke-width="2.48"/><line x1="1530.97" y1="469.43" x2="1530.97" y2="388.65" fill="none" stroke="#000" stroke-linejoin="bevel" stroke-width="2.48"/><line x1="1614.11" y1="531.43" x2="1614.11" y2="392.74" fill="none" stroke="#000" stroke-linejoin="bevel" stroke-width="2.48"/><line x1="1733.96" y1="494.23" x2="1733.96" y2="411.4" fill="none" stroke="#000" stroke-linejoin="bevel" stroke-width="2.48"/><path d="M1001.14,502.37c0,4.26,3.07,9.02,11.11,9.02,10.31,0,21.13-8.43,21.13-17.16,0-5.86-4.96-9.13-11.11-9.13-9.63,0-21.13,8.14-21.13,17.27"/><path d="M2021.3,196.37c0,4.26,3.07,9.02,11.11,9.02,10.31,0,21.13-8.43,21.13-17.16,0-5.86-4.96-9.13-11.11-9.13-9.63,0-21.13,8.14-21.13,17.27"/><path d="M686.74,196.37c0,4.26,3.07,9.02,11.11,9.02,10.31,0,21.13-8.43,21.13-17.16,0-5.86-4.96-9.13-11.11-9.13-9.63,0-21.13,8.14-21.13,17.27"/><path d="M1416.84,539.57c0,4.26,3.07,9.02,11.11,9.02,10.31,0,21.13-8.43,21.13-17.16,0-5.86-4.96-9.13-11.11-9.13-9.63,0-21.13,8.14-21.13,17.27"/><path d="M1796.84,196.37c0,4.26,3.07,9.02,11.11,9.02,10.31,0,21.13-8.43,21.13-17.16,0-5.86-4.96-9.13-11.11-9.13-9.63,0-21.13,8.14-21.13,17.27"/><path d="M1499.98,477.57c0,4.26,3.07,9.02,11.11,9.02,10.31,0,21.13-8.43,21.13-17.16,0-5.86-4.96-9.13-11.11-9.13-9.63,0-21.13,8.14-21.13,17.27"/><path d="M299.31,477.57c0,4.26,3.07,9.02,11.11,9.02,10.31,0,21.13-8.43,21.13-17.16,0-5.86-4.96-9.13-11.11-9.13-9.63,0-21.13,8.14-21.13,17.27"/><path d="M630.62,159.17c0,4.26,3.07,9.02,11.11,9.02,10.31,0,21.13-8.43,21.13-17.16,0-5.86-4.96-9.13-11.11-9.13-9.63,0-21.13,8.14-21.13,17.27"/><path d="M509.74,196.37c0,4.26,3.07,9.02,11.11,9.02,10.31,0,21.13-8.43,21.13-17.16,0-5.86-4.96-9.13-11.11-9.13-9.63,0-21.13,8.14-21.13,17.27"/><path d="M1583.12,539.57c0,4.26,3.07,9.02,11.11,9.02,10.31,0,21.13-8.43,21.13-17.16,0-5.86-4.96-9.13-11.11-9.13-9.63,0-21.13,8.14-21.13,17.27"/><path d="M855.08,134.37c0,4.26,3.07,9.02,11.11,9.02,10.31,0,21.13-8.43,21.13-17.16,0-5.86-4.96-9.13-11.11-9.13-9.63,0-21.13,8.14-21.13,17.27"/><path d="M1724.09,485.1c-9.63,0-21.13,8.04-21.13,17.27,0,4.26,3.07,9.02,11.11,9.02,10.31,0,21.13-8.43,21.13-17.16,0-5.86-4.96-9.13-11.11-9.13m-13.69,21.62c-3.27,0-3.97-2.67-3.97-3.57,0-4.87,16.66-13.39,21.33-13.39,2.39,0,3.97,1.4,3.97,3.57,0,4.96-16.77,13.39-21.33,13.39"/><path d="M1084.28,539.57c0,4.26,3.07,9.02,11.11,9.02,10.31,0,21.13-8.43,21.13-17.16,0-5.86-4.96-9.13-11.11-9.13-9.63,0-21.13,8.14-21.13,17.27"/><path d="M1522.36,196.37c0,4.26,3.07,9.02,11.11,9.02,10.31,0,21.13-8.43,21.13-17.16,0-5.86-4.96-9.13-11.11-9.13-9.63,0-21.13,8.14-21.13,17.27"/><path d="M1167.42,477.57c0,4.26,3.07,9.02,11.11,9.02,10.31,0,21.13-8.43,21.13-17.16,0-5.86-4.96-9.13-11.11-9.13-9.63,0-21.13,8.14-21.13,17.27"/><path d="M1466.25,72.37c0,4.26,3.07,9.02,11.11,9.02,10.31,0,21.13-8.43,21.13-17.16,0-5.86-4.96-9.13-11.11-9.13-9.63,0-21.13,8.14-21.13,17.27"/><path d="M798.96,196.37c0,4.26,3.07,9.02,11.11,9.02,10.31,0,21.13-8.43,21.13-17.16,0-5.86-4.96-9.13-11.11-9.13-9.63,0-21.13,8.14-21.13,17.27"/><path d="M1740.73,97.17c0,4.26,3.07,9.02,11.11,9.02,10.31,0,21.13-8.43,21.13-17.16,0-5.86-4.96-9.13-11.11-9.13-9.63,0-21.13,8.14-21.13,17.27"/><path d="M742.85,146.77c0,4.26,3.07,9.02,11.11,9.02,10.31,0,21.13-8.43,21.13-17.16,0-5.86-4.96-9.13-11.11-9.13-9.63,0-21.13,8.14-21.13,17.27"/><path d="M1410.13,196.37c0,4.26,3.07,9.02,11.11,9.02,10.31,0,21.13-8.43,21.13-17.16,0-5.86-4.96-9.13-11.11-9.13-9.63,0-21.13,8.14-21.13,17.27"/><path d="M382.45,539.57c0,4.26,3.07,9.02,11.11,9.02,10.31,0,21.13-8.43,21.13-17.16,0-5.86-4.96-9.13-11.11-9.13-9.63,0-21.13,8.14-21.13,17.27"/><path d="M1684.61,196.37c0,4.26,3.07,9.02,11.11,9.02,10.31,0,21.13-8.43,21.13-17.16,0-5.86-4.96-9.13-11.11-9.13-9.63,0-21.13,8.14-21.13,17.27"/><path d="M465.59,489.97c0,4.26,3.07,9.02,11.11,9.02,10.31,0,21.13-8.43,21.13-17.16,0-5.86-4.96-9.13-11.11-9.13-9.63,0-21.13,8.14-21.13,17.27"/><path d="M1333.7,452.77c0,4.26,3.07,9.02,11.11,9.02,10.31,0,21.13-8.43,21.13-17.16,0-5.86-4.96-9.13-11.11-9.13-9.63,0-21.13,8.14-21.13,17.27"/><path d="M1909.07,196.37c0,4.26,3.07,9.02,11.11,9.02,10.31,0,21.13-8.43,21.13-17.16,0-5.86-4.96-9.13-11.11-9.13-9.63,0-21.13,8.14-21.13,17.27"/><path d="M1354.02,84.77c0,4.26,3.07,9.02,11.11,9.02,10.31,0,21.13-8.43,21.13-17.16,0-5.86-4.96-9.13-11.11-9.13-9.63,0-21.13,8.14-21.13,17.27"/><path d="M1297.9,196.37c0,4.26,3.07,9.02,11.11,9.02,10.31,0,21.13-8.43,21.13-17.16,0-5.86-4.96-9.13-11.11-9.13-9.63,0-21.13,8.14-21.13,17.27"/><path d="M548.73,539.57c0,4.26,3.07,9.02,11.11,9.02,10.31,0,21.13-8.43,21.13-17.16,0-5.86-4.96-9.13-11.11-9.13-9.63,0-21.13,8.14-21.13,17.27"/><path d="M1852.96,109.57c0,4.26,3.07,9.02,11.11,9.02,10.31,0,21.13-8.43,21.13-17.16,0-5.86-4.96-9.13-11.11-9.13-9.63,0-21.13,8.14-21.13,17.27"/><path d="M631.87,502.37c0,4.26,3.07,9.02,11.11,9.02,10.31,0,21.13-8.43,21.13-17.16,0-5.86-4.96-9.13-11.11-9.13-9.63,0-21.13,8.14-21.13,17.27"/><path d="M1965.19,121.97c0,4.26,3.07,9.02,11.11,9.02,10.31,0,21.13-8.43,21.13-17.16,0-5.86-4.96-9.13-11.11-9.13-9.63,0-21.13,8.14-21.13,17.27"/><path d="M1241.79,97.17c0,4.26,3.07,9.02,11.11,9.02,10.31,0,21.13-8.43,21.13-17.16,0-5.86-4.96-9.13-11.11-9.13-9.63,0-21.13,8.14-21.13,17.27"/><path d="M1185.67,196.37c0,4.26,3.07,9.02,11.11,9.02,10.31,0,21.13-8.43,21.13-17.16,0-5.86-4.96-9.13-11.11-9.13-9.63,0-21.13,8.14-21.13,17.27"/><path d="M715.01,539.57c0,4.26,3.07,9.02,11.11,9.02,10.31,0,21.13-8.43,21.13-17.16,0-5.86-4.96-9.13-11.11-9.13-9.63,0-21.13,8.14-21.13,17.27"/><path d="M1250.56,539.57c0,4.26,3.07,9.02,11.11,9.02,10.31,0,21.13-8.43,21.13-17.16,0-5.86-4.96-9.13-11.11-9.13-9.63,0-21.13,8.14-21.13,17.27"/><path d="M798.15,514.77c0,4.26,3.07,9.02,11.11,9.02,10.31,0,21.13-8.43,21.13-17.16,0-5.86-4.96-9.13-11.11-9.13-9.63,0-21.13,8.14-21.13,17.27"/><path d="M1129.56,109.57c0,4.26,3.07,9.02,11.11,9.02,10.31,0,21.13-8.43,21.13-17.16,0-5.86-4.96-9.13-11.11-9.13-9.63,0-21.13,8.14-21.13,17.27"/><path d="M1023.42,196.37c0,4.26,3.07,9.02,11.11,9.02,10.31,0,21.13-8.43,21.13-17.16,0-5.86-4.96-9.13-11.11-9.13-9.63,0-21.13,8.14-21.13,17.27"/><path d="M881.29,539.57c0,4.26,3.07,9.02,11.11,9.02,10.31,0,21.13-8.43,21.13-17.16,0-5.86-4.96-9.13-11.11-9.13-9.63,0-21.13,8.14-21.13,17.27"/><path d="M967.31,121.97c0,4.26,3.07,9.02,11.11,9.02,10.31,0,21.13-8.43,21.13-17.16,0-5.86-4.96-9.13-11.11-9.13-9.63,0-21.13,8.14-21.13,17.27"/><path d="M911.19,196.37c0,4.26,3.07,9.02,11.11,9.02,10.31,0,21.13-8.43,21.13-17.16,0-5.86-4.96-9.13-11.11-9.13-9.63,0-21.13,8.14-21.13,17.27"/><path d="M1628.5,84.77c0,4.26,3.07,9.02,11.11,9.02,10.31,0,21.13-8.43,21.13-17.16,0-5.86-4.96-9.13-11.11-9.13-9.63,0-21.13,8.14-21.13,17.27"/><path d="M30.8,168.69c0,6.56,4.96,15.19,18.35,15.19,4.67,0,8.74-1.19,12.31-3.38,5.36-3.77,6.74-10.32,6.74-16.57,0-3.86-.59-8.32-1.58-13.98-.29-1.98-.9-4.96-1.49-8.84,9.72-3.18,16.96-13.3,16.96-23.51,0-14.97-10.62-25.09-25.09-25.09-.99-5.95-1.98-11.81-2.77-17.36,10.42-11.02,17.65-23.42,17.65-39.18,0-9.04-2.77-16.37-4.37-19.95-2.37-5.05-5.25-8.53-7.04-8.53-.7,0-3.77,1.19-7.04,5.05-6.36,7.55-8.14,20.24-8.14,28.57,0,5.36,.5,10.23,2.19,21.34-.11,.09-5.27,5.35-7.35,7.04-9.04,8.34-21.53,20.43-21.53,40.28,0,18.54,16.17,33.12,34.63,33.12,2.87,0,5.55-.29,7.83-.7,1.89,9.53,3.08,16.48,3.08,21.73,0,10.32-5.36,15.78-15.38,15.78-2.39,0-4.46-.5-4.67-.5-.09-.11-.29-.2-.29-.29,0-.2,.2-.31,.5-.31,4.67-.79,9.32-4.76,9.32-11.1,0-5.36-4.06-11.02-11.5-11.02-6.94,0-11.31,5.66-11.31,12.2M51.54,36.25c.9-3.97,5.46-14.38,10.62-14.38,1.49,0,3.86,4.76,3.86,11.7,0,10.32-7.63,18.06-14.48,24.8-.59-3.97-1.08-7.83-1.08-12,0-3.67,.29-7.05,1.08-10.12m8.73,101.97c-1.98,.4-3.86,.6-5.75,.6-14.18,0-26.29-9.92-26.29-24.91,0-12.09,8.53-22.91,17.27-30.46,1.67-1.49,3.27-2.87,4.76-4.36,.88,5.35,1.58,10.01,2.28,14.09-9.04,2.68-15.17,12.2-15.17,21.53,0,6.94,5.46,16.46,13.39,16.46,.79,0,1.69-.4,1.69-1.29s-.99-1.39-2.19-2.19c-3.88-2.39-6.06-4.96-6.06-9.83,0-6.05,4.57-10.91,10.32-12.29l5.75,32.63m14.09-18.35c0,7.05-2.88,14.29-9.92,17.17-2.08-11.9-4.76-27.68-5.46-32.05,8.93,0,15.38,6.06,15.38,14.88"/><path d="M30.8,511.89c0,6.56,4.96,15.19,18.35,15.19,4.67,0,8.74-1.19,12.31-3.38,5.36-3.77,6.74-10.32,6.74-16.57,0-3.86-.59-8.32-1.58-13.98-.29-1.98-.9-4.96-1.49-8.84,9.72-3.18,16.96-13.3,16.96-23.51,0-14.97-10.62-25.09-25.09-25.09-.99-5.95-1.98-11.81-2.77-17.36,10.42-11.02,17.65-23.42,17.65-39.18,0-9.04-2.77-16.37-4.37-19.95-2.37-5.05-5.25-8.53-7.04-8.53-.7,0-3.77,1.19-7.04,5.05-6.36,7.55-8.14,20.24-8.14,28.57,0,5.36,.5,10.23,2.19,21.34-.11,.09-5.27,5.35-7.35,7.04-9.04,8.34-21.53,20.43-21.53,40.28,0,18.54,16.17,33.12,34.63,33.12,2.87,0,5.55-.29,7.83-.7,1.89,9.53,3.08,16.48,3.08,21.73,0,10.32-5.36,15.78-15.38,15.78-2.39,0-4.46-.5-4.67-.5-.09-.11-.29-.2-.29-.29,0-.2,.2-.31,.5-.31,4.67-.79,9.32-4.76,9.32-11.1,0-5.36-4.06-11.02-11.5-11.02-6.94,0-11.31,5.66-11.31,12.2m20.74-132.43c.9-3.97,5.46-14.38,10.62-14.38,1.49,0,3.86,4.76,3.86,11.7,0,10.32-7.63,18.06-14.48,24.8-.59-3.97-1.08-7.83-1.08-12,0-3.67,.29-7.05,1.08-10.12m8.73,101.97c-1.98,.4-3.86,.6-5.75,.6-14.18,0-26.29-9.92-26.29-24.91,0-12.09,8.53-22.91,17.27-30.46,1.67-1.49,3.27-2.87,4.76-4.36,.88,5.35,1.58,10.01,2.28,14.09-9.04,2.68-15.17,12.2-15.17,21.53,0,6.94,5.46,16.46,13.39,16.46,.79,0,1.69-.4,1.69-1.29s-.99-1.39-2.19-2.19c-3.88-2.39-6.06-4.96-6.06-9.83,0-6.05,4.57-10.91,10.32-12.29l5.75,32.63m14.09-18.35c0,7.05-2.88,14.29-9.92,17.17-2.08-11.9-4.76-27.68-5.46-32.05,8.93,0,15.38,6.06,15.38,14.88"/><path d="M118.79,420.82c-4.96,0-7.84,3.07-8.34,3.67l.4-31.85c0-.79-.59-1.38-1.4-1.38h-1.18c-.81,0-1.4,.59-1.4,1.38l.5,59.63c0,.79,.59,1.38,1.4,1.38,.19,0,.59-.09,.79-.19,8.53-4.28,17.45-12.4,17.45-22.63,0-5.15-2.37-10.01-8.23-10.01m-8.63,27.98l.29-19.34c.2-.9,1.69-3.77,5.66-3.77,3.58,0,3.87,3.36,3.87,5.46,0,8.82-3.27,12.49-9.83,17.65"/><path d="M146.36,383.62c-4.96,0-7.84,3.07-8.34,3.67l.4-31.85c0-.79-.59-1.38-1.4-1.38h-1.18c-.81,0-1.4,.59-1.4,1.38l.5,59.63c0,.79,.59,1.38,1.4,1.38,.19,0,.59-.09,.79-.19,8.53-4.28,17.45-12.4,17.45-22.63,0-5.15-2.37-10.01-8.23-10.01m-8.63,27.98l.29-19.34c.2-.9,1.69-3.77,5.66-3.77,3.58,0,3.87,3.36,3.87,5.46,0,8.82-3.27,12.49-9.83,17.65"/><path d="M173.93,433.22c-4.96,0-7.84,3.07-8.34,3.67l.4-31.85c0-.79-.59-1.38-1.4-1.38h-1.18c-.81,0-1.4,.59-1.4,1.38l.5,59.63c0,.79,.59,1.38,1.4,1.38,.19,0,.59-.09,.79-.19,8.53-4.28,17.45-12.4,17.45-22.63,0-5.15-2.37-10.01-8.23-10.01m-8.63,27.98l.29-19.34c.2-.9,1.69-3.77,5.66-3.77,3.58,0,3.87,3.36,3.87,5.46,0,8.82-3.27,12.49-9.83,17.65"/><path d="M201.51,396.02c-4.96,0-7.84,3.07-8.34,3.67l.4-31.85c0-.79-.59-1.38-1.4-1.38h-1.18c-.81,0-1.4,.59-1.4,1.38l.5,59.63c0,.79,.59,1.38,1.4,1.38,.19,0,.59-.09,.79-.19,8.53-4.28,17.45-12.4,17.45-22.63,0-5.15-2.37-10.01-8.23-10.01m-8.63,27.98l.29-19.34c.2-.9,1.69-3.77,5.66-3.77,3.58,0,3.87,3.36,3.87,5.46,0,8.82-3.27,12.49-9.83,17.65"/><path d="M229.08,445.62c-4.96,0-7.84,3.07-8.34,3.67l.4-31.85c0-.79-.59-1.38-1.4-1.38h-1.18c-.81,0-1.4,.59-1.4,1.38l.5,59.63c0,.79,.59,1.38,1.4,1.38,.19,0,.59-.09,.79-.19,8.53-4.28,17.45-12.4,17.45-22.63,0-5.15-2.37-10.01-8.23-10.01m-8.63,27.98l.29-19.34c.2-.9,1.69-3.77,5.66-3.77,3.58,0,3.87,3.36,3.87,5.46,0,8.82-3.27,12.49-9.83,17.65"/><path d="M118.79,77.62c-4.96,0-7.84,3.07-8.34,3.67l.4-31.85c0-.79-.59-1.38-1.4-1.38h-1.18c-.81,0-1.4,.59-1.4,1.38l.5,59.63c0,.79,.59,1.38,1.4,1.38,.19,0,.59-.09,.79-.19,8.53-4.28,17.45-12.4,17.45-22.63,0-5.15-2.37-10.01-8.23-10.01m-8.63,27.98l.29-19.34c.2-.9,1.69-3.77,5.66-3.77,3.58,0,3.87,3.36,3.87,5.46,0,8.82-3.27,12.49-9.83,17.65"/><path d="M146.36,40.42c-4.96,0-7.84,3.07-8.34,3.67l.4-31.85c0-.79-.59-1.38-1.4-1.38h-1.18c-.81,0-1.4,.59-1.4,1.38l.5,59.63c0,.79,.59,1.38,1.4,1.38,.19,0,.59-.09,.79-.19,8.53-4.28,17.45-12.4,17.45-22.63,0-5.15-2.37-10.01-8.23-10.01m-8.63,27.98l.29-19.34c.2-.9,1.69-3.77,5.66-3.77,3.58,0,3.87,3.36,3.87,5.46,0,8.82-3.27,12.49-9.83,17.65"/><path d="M173.93,90.02c-4.96,0-7.84,3.07-8.34,3.67l.4-31.85c0-.79-.59-1.38-1.4-1.38h-1.18c-.81,0-1.4,.59-1.4,1.38l.5,59.63c0,.79,.59,1.38,1.4,1.38,.19,0,.59-.09,.79-.19,8.53-4.28,17.45-12.4,17.45-22.63,0-5.15-2.37-10.01-8.23-10.01m-8.63,27.98l.29-19.34c.2-.9,1.69-3.77,5.66-3.77,3.58,0,3.87,3.36,3.87,5.46,0,8.82-3.27,12.49-9.83,17.65"/><path d="M201.51,52.82c-4.96,0-7.84,3.07-8.34,3.67l.4-31.85c0-.79-.59-1.38-1.4-1.38h-1.18c-.81,0-1.4,.59-1.4,1.38l.5,59.63c0,.79,.59,1.38,1.4,1.38,.19,0,.59-.09,.79-.19,8.53-4.28,17.45-12.4,17.45-22.63,0-5.15-2.37-10.01-8.23-10.01m-8.63,27.98l.29-19.34c.2-.9,1.69-3.77,5.66-3.77,3.58,0,3.87,3.36,3.87,5.46,0,8.82-3.27,12.49-9.83,17.65"/><path d="M229.08,102.42c-4.96,0-7.84,3.07-8.34,3.67l.4-31.85c0-.79-.59-1.38-1.4-1.38h-1.18c-.81,0-1.4,.59-1.4,1.38l.5,59.63c0,.79,.59,1.38,1.4,1.38,.19,0,.59-.09,.79-.19,8.53-4.28,17.45-12.4,17.45-22.63,0-5.15-2.37-10.01-8.23-10.01m-8.63,27.98l.29-19.34c.2-.9,1.69-3.77,5.66-3.77,3.58,0,3.87,3.36,3.87,5.46,0,8.82-3.27,12.49-9.83,17.65"/><path d="M299.31,92.01q0,1.4,1.4,1.4h29.47q1.38,0,1.38-1.4v-10.71q0-1.39-1.38-1.39h-29.47q-1.4,0-1.4,1.39v10.71"/><path d="M448.39,109.46c-.09-.09-.29-.29-.59-.68l-11.41-14.09c-.11-.11-.2-.4-.2-.6,0-.29,.09-.68,.2-.88l10.11-15.28c.11-.2,.2-.5,.2-.7v-.88c0-.29-.09-.6-.29-.79l-16.07-21.73s-.39-.6-.99-.6c-.29,0-.5,0-.79,.31-.4,.29-.5,.68-.5,.99,0,.59,.29,1.09,.29,1.09l7.55,10.32c.19,.29,.29,.68,.29,1.18,0,.4-.11,.9-.29,1.19l-10.03,15.28c-.09,.2-.2,.59-.2,.79v.9c0,.29,.11,.59,.31,.79l11.1,13.8c-.39-.11-1.29-.31-2.48-.31-5.05,0-9.02,4.17-9.02,9.24,0,1.38,.29,2.77,1.09,3.86,2.09,3.18,9.53,12.6,9.53,12.6,0,0,.5,.6,1.19,.6,.19,0,.39,0,.59-.2,.5-.4,.7-.79,.7-1.19s-.2-.7-.29-.9c-.31-.5-3.47-6.25-3.47-6.25,0,0-.7-1.39-.7-3.18,0-3.18,2.37-5.75,5.55-5.75,1.29,0,2.39,.4,3.18,.9l3.88,2.48s.39,.19,.79,.19,.7-.09,.99-.5c.2-.29,.29-.59,.29-.88s-.09-.5-.29-.79l-.2-.31"/><path d="M1890.03,435.21q0,1.4,1.4,1.4h29.47q1.38,0,1.38-1.4v-10.71q0-1.39-1.38-1.39h-29.47q-1.4,0-1.4,1.39v10.71"/><path d="M1741.8,348.41c-9.32-10.12-17.56-10.71-22.71-10.71s-13.3,.59-22.63,10.71c-4.85,5.36-8.23,15.97-8.23,21.33,0,1.89,.4,3.18,1.4,3.18,2.77,0,1.38-8.54,9.72-16.97,7.33-7.33,17.16-7.44,19.55-7.44h.39c2.39,0,12.21,.11,19.55,7.44,8.34,8.43,6.94,16.97,9.72,16.97,.99,0,1.39-1.19,1.39-3.18,0-5.36-3.27-16.07-8.14-21.33m-29.56,18.94c0,3.78,3.07,6.85,6.85,6.85s6.84-3.07,6.84-6.85-3.07-6.84-6.84-6.84-6.85,3.07-6.85,6.84"/><path d="M661.63,423.79l251.91,12.4v12.42l-251.91-12.4v-12.42" fill-rule="evenodd"/><path d="M1882.71,30.98l170.82,12.4v12.44l-170.82-12.4v-12.44" fill-rule="evenodd"/><path d="M1030.89,386.6h251.9v12.4h-251.9v-12.4" fill-rule="evenodd"/><path d="M1658.25,6.16l170.83,18.6v12.48l-170.83-18.6V6.16" fill-rule="evenodd"/><path d="M660.37,62h170.82v12.4h-170.82v-12.4" fill-rule="evenodd"/><path d="M329.07,398.99l251.9,12.4v12.42l-251.9-12.4v-12.42" fill-rule="evenodd"/><path d="M884.83,37.2h170.82v12.4h-170.82v-12.4" fill-rule="evenodd"/><path d="M1363.45,374.19l251.9,12.4v12.42l-251.9-12.4v-12.42" fill-rule="evenodd"/><path d="M1159.31,18.6h170.83v12.4h-170.83v-12.4" fill-rule="evenodd"/><path d="M1383.77,0h170.82V12.4h-170.82V0" fill-rule="evenodd"/></g></svg>