<?xml version="1.0" encoding="UTF-8"?><svg id="b" xmlns="http://www.w3.org/2000/svg" viewBox="0 0 2552 270.77"><g id="c"><line y1="130.29" x2="2552" y2="130.29" fill="none" stroke="#000" stroke-linejoin="bevel" stroke-width="2.73"/><line y1="155.09" x2="2552" y2="155.09" fill="none" stroke="#000" stroke-linejoin="bevel" stroke-width="2.73"/><line y1="179.89" x2="2552" y2="179.89" fill="none" stroke="#000" stroke-linejoin="bevel" stroke-width="2.73"/><line y1="204.69" x2="2552" y2="204.69" fill="none" stroke="#000" stroke-linejoin="bevel" stroke-width="2.73"/><line y1="229.49" x2="2552" y2="229.49" fill="none" stroke="#000" stroke-linejoin="bevel" stroke-width="2.73"/><path d="M165.8,95.93c270.05-131.37,1645.66-122.6,1926.37-.36-280.66-114.3-1656.27-123.07-1926.37,.36" fill-rule="evenodd" stroke="#000" stroke-linecap="round" stroke-linejoin="round" stroke-width="1.24"/><line x1="2536.13" y1="128.92" x2="2536.13" y2="230.85" fill="none" stroke="#000" stroke-linejoin="bevel" stroke-width="4.46"/><line x1="2549.77" y1="128.92" x2="2549.77" y2="230.85" fill="none" stroke="#000" stroke-linejoin="bevel" stroke-width="4.46"/><line x1="1647.91" y1="128.92" x2="1647.91" y2="230.85" fill="none" stroke="#000" stroke-linejoin="bevel" stroke-width="4.46"/><path d="M2163.12,167.49c0-2.88-2.29-5.25-5.16-5.25s-5.16,2.37-5.16,5.25,2.28,5.25,5.16,5.25,5.16-2.37,5.16-5.25"/><path d="M2163.12,192.29c0-2.88-2.29-5.25-5.16-5.25s-5.16,2.37-5.16,5.25,2.28,5.25,5.16,5.25,5.16-2.37,5.16-5.25"/><line x1="2174.52" y1="128.92" x2="2174.52" y2="230.85" fill="none" stroke="#000" stroke-linejoin="bevel" stroke-width="4.46"/><line x1="2192.75" y1="128.92" x2="2192.75" y2="230.85" fill="none" stroke="#000" stroke-linejoin="bevel" stroke-width="13.64"/><line x1="1127.98" y1="128.92" x2="1127.98" y2="230.85" fill="none" stroke="#000" stroke-linejoin="bevel" stroke-width="4.46"/><line x1="620.86" y1="128.92" x2="620.86" y2="230.85" fill="none" stroke="#000" stroke-linejoin="bevel" stroke-width="4.46"/><path d="M142.39,119.87c.6-.09,1.1-.79,1.1-1.4v-5.84c0-.99-.7-1.39-1.6-1.39l-3.27,.7v-14.79h-2.77v15.38l-8.83,1.8v-14h-2.77v14.59l-3.87,.79c-.59,.11-1.08,.79-1.08,1.39v5.75c0,1.08,.79,1.39,1.69,1.39l3.27-.7v16.37l-3.87,.79c-.59,.09-1.08,.79-1.08,1.4v5.75c0,1.09,.79,1.38,1.69,1.38l3.27-.68v14.77h2.77v-15.38l8.83-1.78v14h2.77v-14.59l3.77-.7c.6-.11,1.1-.79,1.1-1.39v-5.84c0-.99-.7-1.39-1.6-1.39l-3.27,.7v-16.37l3.77-.7m-15.38,3.07l8.83-1.78v16.37l-8.83,1.89v-16.48"/><path d="M295.89,107.47c.6-.09,1.1-.79,1.1-1.4v-5.84c0-.99-.7-1.39-1.6-1.39l-3.27,.7v-14.79h-2.77v15.38l-8.83,1.8v-14h-2.77v14.59l-3.87,.79c-.59,.11-1.08,.79-1.08,1.39v5.75c0,1.08,.79,1.39,1.69,1.39l3.27-.7v16.37l-3.87,.79c-.59,.09-1.08,.79-1.08,1.4v5.75c0,1.09,.79,1.38,1.69,1.38l3.27-.68v14.77h2.77v-15.38l8.83-1.78v14h2.77v-14.59l3.77-.7c.6-.11,1.1-.79,1.1-1.39v-5.84c0-.99-.7-1.39-1.6-1.39l-3.27,.7v-16.37l3.77-.7m-15.38,3.07l8.83-1.78v16.37l-8.83,1.89v-16.48"/><path d="M449.65,95.07c.6-.09,1.1-.79,1.1-1.4v-5.84c0-.99-.7-1.39-1.6-1.39l-3.27,.7v-14.79h-2.77v15.38l-8.83,1.8v-14h-2.77v14.59l-3.87,.79c-.59,.11-1.08,.79-1.08,1.39v5.75c0,1.08,.79,1.39,1.69,1.39l3.27-.7v16.37l-3.87,.79c-.59,.09-1.08,.79-1.08,1.4v5.75c0,1.09,.79,1.38,1.69,1.38l3.27-.68v14.77h2.77v-15.38l8.83-1.78v14h2.77v-14.59l3.77-.7c.6-.11,1.1-.79,1.1-1.39v-5.84c0-.99-.7-1.39-1.6-1.39l-3.27,.7v-16.37l3.77-.7m-15.38,3.07l8.83-1.78v16.37l-8.83,1.89v-16.48"/><path d="M801.8,95.07c.6-.09,1.1-.79,1.1-1.4v-5.84c0-.99-.7-1.39-1.6-1.39l-3.27,.7v-14.79h-2.77v15.38l-8.83,1.8v-14h-2.77v14.59l-3.87,.79c-.59,.11-1.08,.79-1.08,1.39v5.75c0,1.08,.79,1.39,1.69,1.39l3.27-.7v16.37l-3.87,.79c-.59,.09-1.08,.79-1.08,1.4v5.75c0,1.09,.79,1.38,1.69,1.38l3.27-.68v14.77h2.77v-15.38l8.83-1.78v14h2.77v-14.59l3.77-.7c.6-.11,1.1-.79,1.1-1.39v-5.84c0-.99-.7-1.39-1.6-1.39l-3.27,.7v-16.37l3.77-.7m-15.38,3.07l8.83-1.78v16.37l-8.83,1.89v-16.48"/><path d="M880.35,87.34c-.19-.2-.5-.29-.88-.29l-.2,.09h-.09l-12.51,3.47v-17.36h-2.77v49.1c0,1.09,.9,1.29,1.78,1.29l12.51-3.47v17.36h2.67v-49.1c0-.39-.19-.88-.5-1.09m-13.69,27.78v-16.28l11.52-3.27v16.37l-11.52,3.18"/><path d="M964.96,107.47c.6-.09,1.1-.79,1.1-1.4v-5.84c0-.99-.7-1.39-1.6-1.39l-3.27,.7v-14.79h-2.77v15.38l-8.83,1.8v-14h-2.77v14.59l-3.87,.79c-.59,.11-1.08,.79-1.08,1.39v5.75c0,1.08,.79,1.39,1.69,1.39l3.27-.7v16.37l-3.87,.79c-.59,.09-1.08,.79-1.08,1.4v5.75c0,1.09,.79,1.38,1.69,1.38l3.27-.68v14.77h2.77v-15.38l8.83-1.78v14h2.77v-14.59l3.77-.7c.6-.11,1.1-.79,1.1-1.39v-5.84c0-.99-.7-1.39-1.6-1.39l-3.27,.7v-16.37l3.77-.7m-15.38,3.07l8.83-1.78v16.37l-8.83,1.89v-16.48"/><path d="M1042.3,99.74c-.19-.2-.5-.29-.88-.29l-.2,.09h-.09l-12.51,3.47v-17.36h-2.77v49.1c0,1.09,.9,1.29,1.78,1.29l12.51-3.47v17.36h2.67v-49.1c0-.39-.19-.88-.5-1.09m-13.69,27.78v-16.28l11.52-3.27v16.37l-11.52,3.18"/><path d="M1169.44,119.87c.6-.09,1.1-.79,1.1-1.4v-5.84c0-.99-.7-1.39-1.6-1.39l-3.27,.7v-14.79h-2.77v15.38l-8.83,1.8v-14h-2.77v14.59l-3.87,.79c-.59,.11-1.08,.79-1.08,1.39v5.75c0,1.08,.79,1.39,1.69,1.39l3.27-.7v16.37l-3.87,.79c-.59,.09-1.08,.79-1.08,1.4v5.75c0,1.09,.79,1.38,1.69,1.38l3.27-.68v14.77h2.77v-15.38l8.83-1.78v14h2.77v-14.59l3.77-.7c.6-.11,1.1-.79,1.1-1.39v-5.84c0-.99-.7-1.39-1.6-1.39l-3.27,.7v-16.37l3.77-.7m-15.38,3.07l8.83-1.78v16.37l-8.83,1.89v-16.48"/><path d="M1322.94,107.47c.6-.09,1.1-.79,1.1-1.4v-5.84c0-.99-.7-1.39-1.6-1.39l-3.27,.7v-14.79h-2.77v15.38l-8.83,1.8v-14h-2.77v14.59l-3.87,.79c-.59,.11-1.08,.79-1.08,1.39v5.75c0,1.08,.79,1.39,1.69,1.39l3.27-.7v16.37l-3.87,.79c-.59,.09-1.08,.79-1.08,1.4v5.75c0,1.09,.79,1.38,1.69,1.38l3.27-.68v14.77h2.77v-15.38l8.83-1.78v14h2.77v-14.59l3.77-.7c.6-.11,1.1-.79,1.1-1.39v-5.84c0-.99-.7-1.39-1.6-1.39l-3.27,.7v-16.37l3.77-.7m-15.38,3.07l8.83-1.78v16.37l-8.83,1.89v-16.48"/><path d="M1476.7,95.07c.6-.09,1.1-.79,1.1-1.4v-5.84c0-.99-.7-1.39-1.6-1.39l-3.27,.7v-14.79h-2.77v15.38l-8.83,1.8v-14h-2.77v14.59l-3.87,.79c-.59,.11-1.08,.79-1.08,1.39v5.75c0,1.08,.79,1.39,1.69,1.39l3.27-.7v16.37l-3.87,.79c-.59,.09-1.08,.79-1.08,1.4v5.75c0,1.09,.79,1.38,1.69,1.38l3.27-.68v14.77h2.77v-15.38l8.83-1.78v14h2.77v-14.59l3.77-.7c.6-.11,1.1-.79,1.1-1.39v-5.84c0-.99-.7-1.39-1.6-1.39l-3.27,.7v-16.37l3.77-.7m-15.38,3.07l8.83-1.78v16.37l-8.83,1.89v-16.48"/><path d="M1828.85,95.07c.6-.09,1.1-.79,1.1-1.4v-5.84c0-.99-.7-1.39-1.6-1.39l-3.27,.7v-14.79h-2.77v15.38l-8.83,1.8v-14h-2.77v14.59l-3.87,.79c-.59,.11-1.08,.79-1.08,1.39v5.75c0,1.08,.79,1.39,1.69,1.39l3.27-.7v16.37l-3.87,.79c-.59,.09-1.08,.79-1.08,1.4v5.75c0,1.09,.79,1.38,1.69,1.38l3.27-.68v14.77h2.77v-15.38l8.83-1.78v14h2.77v-14.59l3.77-.7c.6-.11,1.1-.79,1.1-1.39v-5.84c0-.99-.7-1.39-1.6-1.39l-3.27,.7v-16.37l3.77-.7m-15.38,3.07l8.83-1.78v16.37l-8.83,1.89v-16.48"/><path d="M1907.41,87.34c-.19-.2-.5-.29-.88-.29l-.2,.09h-.09l-12.51,3.47v-17.36h-2.77v49.1c0,1.09,.9,1.29,1.78,1.29l12.51-3.47v17.36h2.67v-49.1c0-.39-.19-.88-.5-1.09m-13.69,27.78v-16.28l11.52-3.27v16.37l-11.52,3.18"/><path d="M1992.01,107.47c.6-.09,1.1-.79,1.1-1.4v-5.84c0-.99-.7-1.39-1.6-1.39l-3.27,.7v-14.79h-2.77v15.38l-8.83,1.8v-14h-2.77v14.59l-3.87,.79c-.59,.11-1.08,.79-1.08,1.39v5.75c0,1.08,.79,1.39,1.69,1.39l3.27-.7v16.37l-3.87,.79c-.59,.09-1.08,.79-1.08,1.4v5.75c0,1.09,.79,1.38,1.69,1.38l3.27-.68v14.77h2.77v-15.38l8.83-1.78v14h2.77v-14.59l3.77-.7c.6-.11,1.1-.79,1.1-1.39v-5.84c0-.99-.7-1.39-1.6-1.39l-3.27,.7v-16.37l3.77-.7m-15.38,3.07l8.83-1.78v16.37l-8.83,1.89v-16.48"/><path d="M2069.36,99.74c-.19-.2-.5-.29-.88-.29l-.2,.09h-.09l-12.51,3.47v-17.36h-2.77v49.1c0,1.09,.9,1.29,1.78,1.29l12.51-3.47v17.36h2.67v-49.1c0-.39-.19-.88-.5-1.09m-13.69,27.78v-16.28l11.52-3.27v16.37l-11.52,3.18"/><path d="M2238.8,119.87c.6-.09,1.1-.79,1.1-1.4v-5.84c0-.99-.7-1.39-1.6-1.39l-3.27,.7v-14.79h-2.77v15.38l-8.83,1.8v-14h-2.77v14.59l-3.87,.79c-.59,.11-1.08,.79-1.08,1.39v5.75c0,1.08,.79,1.39,1.69,1.39l3.27-.7v16.37l-3.87,.79c-.59,.09-1.08,.79-1.08,1.4v5.75c0,1.09,.79,1.38,1.69,1.38l3.27-.68v14.77h2.77v-15.38l8.83-1.78v14h2.77v-14.59l3.77-.7c.6-.11,1.1-.79,1.1-1.39v-5.84c0-.99-.7-1.39-1.6-1.39l-3.27,.7v-16.37l3.77-.7m-15.38,3.07l8.83-1.78v16.37l-8.83,1.89v-16.48"/><line x1="371.74" y1="105.49" x2="420.34" y2="105.49" fill="none" stroke="#000" stroke-linejoin="bevel" stroke-width="3.97"/><line x1="456.95" y1="105.49" x2="505.54" y2="105.49" fill="none" stroke="#000" stroke-linejoin="bevel" stroke-width="3.97"/><line x1="533.69" y1="105.49" x2="582.29" y2="105.49" fill="none" stroke="#000" stroke-linejoin="bevel" stroke-width="3.97"/><line x1="647.14" y1="105.49" x2="695.74" y2="105.49" fill="none" stroke="#000" stroke-linejoin="bevel" stroke-width="3.97"/><line x1="647.14" y1="80.69" x2="695.74" y2="80.69" fill="none" stroke="#000" stroke-linejoin="bevel" stroke-width="3.97"/><line x1="723.89" y1="105.49" x2="772.49" y2="105.49" fill="none" stroke="#000" stroke-linejoin="bevel" stroke-width="3.97"/><line x1="809.09" y1="105.49" x2="857.69" y2="105.49" fill="none" stroke="#000" stroke-linejoin="bevel" stroke-width="3.97"/><line x1="887.05" y1="105.49" x2="935.65" y2="105.49" fill="none" stroke="#000" stroke-linejoin="bevel" stroke-width="3.97"/><line x1="1674.19" y1="80.69" x2="1722.8" y2="80.69" fill="none" stroke="#000" stroke-linejoin="bevel" stroke-width="3.97"/><line x1="1398.79" y1="105.49" x2="1447.39" y2="105.49" fill="none" stroke="#000" stroke-linejoin="bevel" stroke-width="3.97"/><line x1="1484" y1="105.49" x2="1532.6" y2="105.49" fill="none" stroke="#000" stroke-linejoin="bevel" stroke-width="3.97"/><line x1="1560.74" y1="105.49" x2="1609.34" y2="105.49" fill="none" stroke="#000" stroke-linejoin="bevel" stroke-width="3.97"/><line x1="1674.19" y1="105.49" x2="1722.8" y2="105.49" fill="none" stroke="#000" stroke-linejoin="bevel" stroke-width="3.97"/><line x1="1750.94" y1="105.49" x2="1799.54" y2="105.49" fill="none" stroke="#000" stroke-linejoin="bevel" stroke-width="3.97"/><line x1="1836.15" y1="105.49" x2="1884.75" y2="105.49" fill="none" stroke="#000" stroke-linejoin="bevel" stroke-width="3.97"/><line x1="1914.1" y1="105.49" x2="1962.7" y2="105.49" fill="none" stroke="#000" stroke-linejoin="bevel" stroke-width="3.97"/><line x1="150.92" y1="134.45" x2="150.92" y2="204.67" fill="none" stroke="#000" stroke-linejoin="bevel" stroke-width="2.48"/><line x1="227.67" y1="122.05" x2="227.67" y2="203.46" fill="none" stroke="#000" stroke-linejoin="bevel" stroke-width="2.48"/><line x1="304.42" y1="122.05" x2="304.42" y2="202.25" fill="none" stroke="#000" stroke-linejoin="bevel" stroke-width="2.48"/><line x1="381.17" y1="109.65" x2="381.17" y2="201.05" fill="none" stroke="#000" stroke-linejoin="bevel" stroke-width="2.48"/><line x1="466.37" y1="109.65" x2="466.37" y2="199.71" fill="none" stroke="#000" stroke-linejoin="bevel" stroke-width="2.48"/><line x1="543.12" y1="97.25" x2="543.12" y2="198.5" fill="none" stroke="#000" stroke-linejoin="bevel" stroke-width="2.48"/><line x1="656.57" y1="84.85" x2="656.57" y2="198.5" fill="none" stroke="#000" stroke-linejoin="bevel" stroke-width="2.48"/><line x1="733.32" y1="97.25" x2="733.32" y2="199.71" fill="none" stroke="#000" stroke-linejoin="bevel" stroke-width="2.48"/><line x1="818.52" y1="109.65" x2="818.52" y2="201.04" fill="none" stroke="#000" stroke-linejoin="bevel" stroke-width="2.48"/><line x1="896.47" y1="109.65" x2="896.47" y2="202.26" fill="none" stroke="#000" stroke-linejoin="bevel" stroke-width="2.48"/><line x1="973.49" y1="122.05" x2="973.49" y2="203.46" fill="none" stroke="#000" stroke-linejoin="bevel" stroke-width="2.48"/><line x1="1050.24" y1="122.05" x2="1050.24" y2="204.67" fill="none" stroke="#000" stroke-linejoin="bevel" stroke-width="2.48"/><line x1="1177.98" y1="134.45" x2="1177.98" y2="204.67" fill="none" stroke="#000" stroke-linejoin="bevel" stroke-width="2.48"/><line x1="1254.72" y1="122.05" x2="1254.72" y2="203.46" fill="none" stroke="#000" stroke-linejoin="bevel" stroke-width="2.48"/><line x1="1331.47" y1="122.05" x2="1331.47" y2="202.25" fill="none" stroke="#000" stroke-linejoin="bevel" stroke-width="2.48"/><line x1="1408.22" y1="109.65" x2="1408.22" y2="201.05" fill="none" stroke="#000" stroke-linejoin="bevel" stroke-width="2.48"/><line x1="1493.42" y1="109.65" x2="1493.42" y2="199.71" fill="none" stroke="#000" stroke-linejoin="bevel" stroke-width="2.48"/><line x1="1570.17" y1="97.25" x2="1570.17" y2="198.5" fill="none" stroke="#000" stroke-linejoin="bevel" stroke-width="2.48"/><line x1="1683.62" y1="84.85" x2="1683.62" y2="198.5" fill="none" stroke="#000" stroke-linejoin="bevel" stroke-width="2.48"/><line x1="1760.37" y1="97.25" x2="1760.37" y2="199.71" fill="none" stroke="#000" stroke-linejoin="bevel" stroke-width="2.48"/><line x1="1845.57" y1="109.65" x2="1845.57" y2="201.04" fill="none" stroke="#000" stroke-linejoin="bevel" stroke-width="2.48"/><line x1="1923.53" y1="109.65" x2="1923.53" y2="202.26" fill="none" stroke="#000" stroke-linejoin="bevel" stroke-width="2.48"/><line x1="2000.55" y1="122.05" x2="2000.55" y2="203.46" fill="none" stroke="#000" stroke-linejoin="bevel" stroke-width="2.48"/><line x1="2077.29" y1="122.05" x2="2077.29" y2="204.67" fill="none" stroke="#000" stroke-linejoin="bevel" stroke-width="2.48"/><line x1="2247.34" y1="134.45" x2="2247.34" y2="217.09" fill="none" stroke="#000" stroke-linejoin="bevel" stroke-width="2.48"/><path d="M2076.05,122.06c0,4.26,3.07,9.02,11.11,9.02,10.31,0,21.13-8.43,21.13-17.16,0-5.86-4.96-9.13-11.11-9.13-9.63,0-21.13,8.14-21.13,17.27"/><path d="M226.43,122.06c0,4.26,3.07,9.02,11.11,9.02,10.31,0,21.13-8.43,21.13-17.16,0-5.86-4.96-9.13-11.11-9.13-9.63,0-21.13,8.14-21.13,17.27"/><path d="M303.18,122.06c0,4.26,3.07,9.02,11.11,9.02,10.31,0,21.13-8.43,21.13-17.16,0-5.86-4.96-9.13-11.11-9.13-9.63,0-21.13,8.14-21.13,17.27"/><path d="M379.93,109.66c0,4.26,3.07,9.02,11.11,9.02,10.31,0,21.13-8.43,21.13-17.16,0-5.86-4.96-9.13-11.11-9.13-9.63,0-21.13,8.14-21.13,17.27"/><path d="M465.13,109.66c0,4.26,3.07,9.02,11.11,9.02,10.31,0,21.13-8.43,21.13-17.16,0-5.86-4.96-9.13-11.11-9.13-9.63,0-21.13,8.14-21.13,17.27"/><path d="M541.88,97.26c0,4.26,3.07,9.02,11.11,9.02,10.31,0,21.13-8.43,21.13-17.16,0-5.86-4.96-9.13-11.11-9.13-9.63,0-21.13,8.14-21.13,17.27"/><path d="M655.33,84.86c0,4.26,3.07,9.02,11.11,9.02,10.31,0,21.13-8.43,21.13-17.16,0-5.86-4.96-9.13-11.11-9.13-9.63,0-21.13,8.14-21.13,17.27"/><path d="M732.07,97.26c0,4.26,3.07,9.02,11.11,9.02,10.31,0,21.13-8.43,21.13-17.16,0-5.86-4.96-9.13-11.11-9.13-9.63,0-21.13,8.14-21.13,17.27"/><path d="M149.68,134.46c0,4.26,3.07,9.02,11.11,9.02,10.31,0,21.13-8.43,21.13-17.16,0-5.86-4.96-9.13-11.11-9.13-9.63,0-21.13,8.14-21.13,17.27"/><path d="M817.28,109.66c0,4.26,3.07,9.02,11.11,9.02,10.31,0,21.13-8.43,21.13-17.16,0-5.86-4.96-9.13-11.11-9.13-9.63,0-21.13,8.14-21.13,17.27"/><path d="M895.23,109.66c0,4.26,3.07,9.02,11.11,9.02,10.31,0,21.13-8.43,21.13-17.16,0-5.86-4.96-9.13-11.11-9.13-9.63,0-21.13,8.14-21.13,17.27"/><path d="M972.25,122.06c0,4.26,3.07,9.02,11.11,9.02,10.31,0,21.13-8.43,21.13-17.16,0-5.86-4.96-9.13-11.11-9.13-9.63,0-21.13,8.14-21.13,17.27"/><path d="M1049,122.06c0,4.26,3.07,9.02,11.11,9.02,10.31,0,21.13-8.43,21.13-17.16,0-5.86-4.96-9.13-11.11-9.13-9.63,0-21.13,8.14-21.13,17.27"/><path d="M1176.74,134.46c0,4.26,3.07,9.02,11.11,9.02,10.31,0,21.13-8.43,21.13-17.16,0-5.86-4.96-9.13-11.11-9.13-9.63,0-21.13,8.14-21.13,17.27"/><path d="M1253.48,122.06c0,4.26,3.07,9.02,11.11,9.02,10.31,0,21.13-8.43,21.13-17.16,0-5.86-4.96-9.13-11.11-9.13-9.63,0-21.13,8.14-21.13,17.27"/><path d="M1330.23,122.06c0,4.26,3.07,9.02,11.11,9.02,10.31,0,21.13-8.43,21.13-17.16,0-5.86-4.96-9.13-11.11-9.13-9.63,0-21.13,8.14-21.13,17.27"/><path d="M1406.98,109.66c0,4.26,3.07,9.02,11.11,9.02,10.31,0,21.13-8.43,21.13-17.16,0-5.86-4.96-9.13-11.11-9.13-9.63,0-21.13,8.14-21.13,17.27"/><path d="M1492.18,109.66c0,4.26,3.07,9.02,11.11,9.02,10.31,0,21.13-8.43,21.13-17.16,0-5.86-4.96-9.13-11.11-9.13-9.63,0-21.13,8.14-21.13,17.27"/><path d="M1568.93,97.26c0,4.26,3.07,9.02,11.11,9.02,10.31,0,21.13-8.43,21.13-17.16,0-5.86-4.96-9.13-11.11-9.13-9.63,0-21.13,8.14-21.13,17.27"/><path d="M1682.38,84.86c0,4.26,3.07,9.02,11.11,9.02,10.31,0,21.13-8.43,21.13-17.16,0-5.86-4.96-9.13-11.11-9.13-9.63,0-21.13,8.14-21.13,17.27"/><path d="M1759.13,97.26c0,4.26,3.07,9.02,11.11,9.02,10.31,0,21.13-8.43,21.13-17.16,0-5.86-4.96-9.13-11.11-9.13-9.63,0-21.13,8.14-21.13,17.27"/><path d="M1844.33,109.66c0,4.26,3.07,9.02,11.11,9.02,10.31,0,21.13-8.43,21.13-17.16,0-5.86-4.96-9.13-11.11-9.13-9.63,0-21.13,8.14-21.13,17.27"/><path d="M1922.29,109.66c0,4.26,3.07,9.02,11.11,9.02,10.31,0,21.13-8.43,21.13-17.16,0-5.86-4.96-9.13-11.11-9.13-9.63,0-21.13,8.14-21.13,17.27"/><path d="M1999.31,122.06c0,4.26,3.07,9.02,11.11,9.02,10.31,0,21.13-8.43,21.13-17.16,0-5.86-4.96-9.13-11.11-9.13-9.63,0-21.13,8.14-21.13,17.27"/><path d="M2267.23,117.19c-9.63,0-21.13,8.04-21.13,17.27,0,4.26,3.07,9.02,11.11,9.02,10.31,0,21.13-8.43,21.13-17.16,0-5.86-4.96-9.13-11.11-9.13m-13.69,21.62c-3.27,0-3.97-2.67-3.97-3.56,0-4.87,16.66-13.39,21.33-13.39,2.39,0,3.97,1.39,3.97,3.56,0,4.96-16.77,13.39-21.33,13.39"/><path d="M30.8,255.58c0,6.56,4.96,15.19,18.35,15.19,4.67,0,8.74-1.19,12.31-3.38,5.36-3.77,6.74-10.32,6.74-16.57,0-3.86-.59-8.32-1.58-13.98-.29-1.98-.9-4.96-1.49-8.84,9.72-3.18,16.96-13.3,16.96-23.51,0-14.97-10.62-25.09-25.09-25.09-.99-5.95-1.98-11.81-2.77-17.36,10.42-11.02,17.65-23.42,17.65-39.18,0-9.04-2.77-16.37-4.37-19.95-2.37-5.05-5.25-8.53-7.04-8.53-.7,0-3.77,1.19-7.04,5.05-6.36,7.55-8.14,20.24-8.14,28.57,0,5.36,.5,10.23,2.19,21.34-.11,.09-5.27,5.35-7.35,7.04-9.04,8.34-21.53,20.43-21.53,40.28,0,18.54,16.17,33.12,34.63,33.12,2.87,0,5.55-.29,7.83-.7,1.89,9.53,3.08,16.48,3.08,21.73,0,10.32-5.36,15.78-15.38,15.78-2.39,0-4.46-.5-4.67-.5-.09-.11-.29-.2-.29-.29,0-.2,.2-.31,.5-.31,4.67-.79,9.32-4.76,9.32-11.1,0-5.36-4.06-11.02-11.5-11.02-6.94,0-11.31,5.66-11.31,12.2M51.54,123.14c.9-3.97,5.46-14.38,10.62-14.38,1.49,0,3.86,4.76,3.86,11.7,0,10.32-7.63,18.06-14.48,24.8-.59-3.97-1.08-7.83-1.08-12,0-3.67,.29-7.05,1.08-10.12m8.73,101.97c-1.98,.4-3.86,.6-5.75,.6-14.18,0-26.29-9.92-26.29-24.91,0-12.09,8.53-22.91,17.27-30.46,1.67-1.49,3.27-2.87,4.76-4.36,.88,5.35,1.58,10.01,2.28,14.09-9.04,2.68-15.17,12.2-15.17,21.53,0,6.94,5.46,16.46,13.39,16.46,.79,0,1.69-.4,1.69-1.29s-.99-1.39-2.19-2.19c-3.88-2.39-6.06-4.96-6.06-9.83,0-6.04,4.57-10.91,10.32-12.29l5.75,32.63m14.09-18.35c0,7.05-2.88,14.29-9.92,17.17-2.08-11.9-4.76-27.68-5.46-32.05,8.93,0,15.38,6.06,15.38,14.88"/><path d="M2441.6,196.35c-.09-.09-.29-.29-.59-.68l-11.41-14.09c-.11-.11-.2-.4-.2-.6,0-.29,.09-.68,.2-.88l10.11-15.28c.11-.2,.2-.5,.2-.7v-.88c0-.29-.09-.6-.29-.79l-16.07-21.73s-.39-.6-.99-.6c-.29,0-.5,0-.79,.31-.4,.29-.5,.68-.5,.99,0,.59,.29,1.09,.29,1.09l7.55,10.32c.19,.29,.29,.68,.29,1.18,0,.4-.11,.9-.29,1.19l-10.03,15.28c-.09,.2-.2,.59-.2,.79v.9c0,.29,.11,.59,.31,.79l11.1,13.79c-.39-.11-1.29-.31-2.48-.31-5.05,0-9.02,4.17-9.02,9.24,0,1.38,.29,2.77,1.08,3.86,2.09,3.18,9.53,12.6,9.53,12.6,0,0,.5,.6,1.19,.6,.19,0,.39,0,.59-.2,.5-.4,.7-.79,.7-1.19s-.2-.7-.29-.9c-.31-.5-3.47-6.25-3.47-6.25,0,0-.7-1.39-.7-3.18,0-3.18,2.37-5.75,5.55-5.75,1.29,0,2.39,.4,3.18,.9l3.88,2.48s.39,.19,.79,.19,.7-.09,.99-.5c.2-.29,.29-.59,.29-.88s-.09-.5-.29-.79l-.2-.31"/><path d="M2284.94,61.65c-9.32-10.12-17.56-10.71-22.71-10.71s-13.3,.59-22.63,10.71c-4.85,5.36-8.23,15.96-8.23,21.33,0,1.89,.4,3.18,1.39,3.18,2.77,0,1.38-8.54,9.72-16.97,7.33-7.33,17.16-7.44,19.55-7.44h.39c2.39,0,12.21,.11,19.55,7.44,8.34,8.43,6.94,16.97,9.72,16.97,.99,0,1.39-1.19,1.39-3.18,0-5.36-3.27-16.07-8.14-21.33m-29.56,18.94c0,3.78,3.07,6.85,6.85,6.85s6.84-3.07,6.84-6.85-3.07-6.84-6.84-6.84-6.85,3.07-6.85,6.84"/><path d="M149.68,198.48l394.67-6.2v12.41l-394.67,6.2v-12.41" fill-rule="evenodd"/><path d="M1682.38,192.28l396.15,6.2v12.41l-396.15-6.2v-12.41" fill-rule="evenodd"/><path d="M655.33,192.28l396.15,6.2v12.41l-396.15-6.2v-12.41" fill-rule="evenodd"/><path d="M1176.74,198.48l394.67-6.2v12.41l-394.67,6.2v-12.41" fill-rule="evenodd"/></g></svg>