<?xml version="1.0" encoding="UTF-8"?><svg id="b" xmlns="http://www.w3.org/2000/svg" viewBox="0 0 2095.2 592.54"><g id="c"><line y1="68.87" x2="2095.2" y2="68.87" fill="none" stroke="#000" stroke-linejoin="bevel" stroke-width="2.73"/><line y1="93.67" x2="2095.2" y2="93.67" fill="none" stroke="#000" stroke-linejoin="bevel" stroke-width="2.73"/><line y1="118.47" x2="2095.2" y2="118.47" fill="none" stroke="#000" stroke-linejoin="bevel" stroke-width="2.73"/><line y1="143.27" x2="2095.2" y2="143.27" fill="none" stroke="#000" stroke-linejoin="bevel" stroke-width="2.73"/><line y1="168.07" x2="2095.2" y2="168.07" fill="none" stroke="#000" stroke-linejoin="bevel" stroke-width="2.73"/><line y1="412.07" x2="2095.2" y2="412.07" fill="none" stroke="#000" stroke-linejoin="bevel" stroke-width="2.73"/><line y1="436.87" x2="2095.2" y2="436.87" fill="none" stroke="#000" stroke-linejoin="bevel" stroke-width="2.73"/><line y1="461.67" x2="2095.2" y2="461.67" fill="none" stroke="#000" stroke-linejoin="bevel" stroke-width="2.73"/><line y1="486.47" x2="2095.2" y2="486.47" fill="none" stroke="#000" stroke-linejoin="bevel" stroke-width="2.73"/><line y1="511.27" x2="2095.2" y2="511.27" fill="none" stroke="#000" stroke-linejoin="bevel" stroke-width="2.73"/><line x1="1176.21" y1="410.71" x2="1176.21" y2="512.64" fill="none" stroke="#000" stroke-linejoin="bevel" stroke-width="4.46"/><line x1="2092.97" y1="67.51" x2="2092.97" y2="169.43" fill="none" stroke="#000" stroke-linejoin="bevel" stroke-width="4.46"/><line x1="1183.36" y1="67.51" x2="1183.36" y2="169.43" fill="none" stroke="#000" stroke-linejoin="bevel" stroke-width="4.46"/><line x1="2079.33" y1="410.71" x2="2079.33" y2="512.64" fill="none" stroke="#000" stroke-linejoin="bevel" stroke-width="4.46"/><line x1="2092.97" y1="410.71" x2="2092.97" y2="512.64" fill="none" stroke="#000" stroke-linejoin="bevel" stroke-width="4.46"/><line x1="1758.83" y1="536.07" x2="1807.43" y2="536.07" fill="none" stroke="#000" stroke-linejoin="bevel" stroke-width="3.97"/><line x1="1838.31" y1="536.07" x2="1886.91" y2="536.07" fill="none" stroke="#000" stroke-linejoin="bevel" stroke-width="3.97"/><line x1="1859.64" y1="85.44" x2="1859.64" y2="161.97" fill="none" stroke="#000" stroke-linejoin="bevel" stroke-width="2.48"/><line x1="1779.57" y1="85.44" x2="1779.57" y2="168.07" fill="none" stroke="#000" stroke-linejoin="bevel" stroke-width="2.48"/><line x1="1699.5" y1="110.24" x2="1699.5" y2="174.18" fill="none" stroke="#000" stroke-linejoin="bevel" stroke-width="2.48"/><line x1="1619.43" y1="97.84" x2="1619.43" y2="180.52" fill="none" stroke="#000" stroke-linejoin="bevel" stroke-width="2.48"/><line x1="1539.36" y1="97.84" x2="1539.36" y2="183.57" fill="none" stroke="#000" stroke-linejoin="bevel" stroke-width="2.48"/><line x1="1459.29" y1="122.64" x2="1459.29" y2="186.62" fill="none" stroke="#000" stroke-linejoin="bevel" stroke-width="2.48"/><line x1="1379.21" y1="110.24" x2="1379.21" y2="186.77" fill="none" stroke="#000" stroke-linejoin="bevel" stroke-width="2.48"/><line x1="1299.14" y1="110.24" x2="1299.14" y2="192.87" fill="none" stroke="#000" stroke-linejoin="bevel" stroke-width="2.48"/><line x1="1219.07" y1="135.04" x2="1219.07" y2="198.98" fill="none" stroke="#000" stroke-linejoin="bevel" stroke-width="2.48"/><line x1="1132.05" y1="114.5" x2="1132.05" y2="50.32" fill="none" stroke="#000" stroke-linejoin="bevel" stroke-width="2.48"/><line x1="1051.97" y1="114.5" x2="1051.97" y2="53.37" fill="none" stroke="#000" stroke-linejoin="bevel" stroke-width="2.48"/><line x1="728.11" y1="457.7" x2="728.11" y2="393.52" fill="none" stroke="#000" stroke-linejoin="bevel" stroke-width="2.48"/><line x1="971.9" y1="139.3" x2="971.9" y2="56.42" fill="none" stroke="#000" stroke-linejoin="bevel" stroke-width="2.48"/><line x1="1125.49" y1="494.9" x2="1125.49" y2="418.18" fill="none" stroke="#000" stroke-linejoin="bevel" stroke-width="2.48"/><line x1="891.83" y1="126.9" x2="891.83" y2="62.72" fill="none" stroke="#000" stroke-linejoin="bevel" stroke-width="2.48"/><line x1="811.76" y1="126.9" x2="811.76" y2="65.77" fill="none" stroke="#000" stroke-linejoin="bevel" stroke-width="2.48"/><line x1="731.69" y1="151.7" x2="731.69" y2="68.82" fill="none" stroke="#000" stroke-linejoin="bevel" stroke-width="2.48"/><line x1="651.62" y1="139.3" x2="651.62" y2="68.92" fill="none" stroke="#000" stroke-linejoin="bevel" stroke-width="2.48"/><line x1="571.54" y1="139.3" x2="571.54" y2="71.97" fill="none" stroke="#000" stroke-linejoin="bevel" stroke-width="2.48"/><line x1="491.47" y1="164.1" x2="491.47" y2="75.02" fill="none" stroke="#000" stroke-linejoin="bevel" stroke-width="2.48"/><line x1="1046.02" y1="494.9" x2="1046.02" y2="412.07" fill="none" stroke="#000" stroke-linejoin="bevel" stroke-width="2.48"/><line x1="411.4" y1="151.7" x2="411.4" y2="68.92" fill="none" stroke="#000" stroke-linejoin="bevel" stroke-width="2.48"/><line x1="966.54" y1="470.1" x2="966.54" y2="405.97" fill="none" stroke="#000" stroke-linejoin="bevel" stroke-width="2.48"/><line x1="331.33" y1="151.7" x2="331.33" y2="71.97" fill="none" stroke="#000" stroke-linejoin="bevel" stroke-width="2.48"/><line x1="251.26" y1="176.5" x2="251.26" y2="75.02" fill="none" stroke="#000" stroke-linejoin="bevel" stroke-width="2.48"/><line x1="887.06" y1="482.5" x2="887.06" y2="399.62" fill="none" stroke="#000" stroke-linejoin="bevel" stroke-width="2.48"/><line x1="807.59" y1="482.5" x2="807.59" y2="396.57" fill="none" stroke="#000" stroke-linejoin="bevel" stroke-width="2.48"/><line x1="618.88" y1="478.24" x2="618.88" y2="542.22" fill="none" stroke="#000" stroke-linejoin="bevel" stroke-width="2.48"/><line x1="539.41" y1="478.24" x2="539.41" y2="539.17" fill="none" stroke="#000" stroke-linejoin="bevel" stroke-width="2.48"/><line x1="459.93" y1="453.44" x2="459.93" y2="536.12" fill="none" stroke="#000" stroke-linejoin="bevel" stroke-width="2.48"/><line x1="380.46" y1="465.84" x2="380.46" y2="529.82" fill="none" stroke="#000" stroke-linejoin="bevel" stroke-width="2.48"/><line x1="300.98" y1="465.84" x2="300.98" y2="526.77" fill="none" stroke="#000" stroke-linejoin="bevel" stroke-width="2.48"/><line x1="221.5" y1="441.04" x2="221.5" y2="523.72" fill="none" stroke="#000" stroke-linejoin="bevel" stroke-width="2.48"/><line x1="1241.67" y1="482.5" x2="1241.67" y2="412.12" fill="none" stroke="#000" stroke-linejoin="bevel" stroke-width="2.48"/><line x1="1321.15" y1="507.3" x2="1321.15" y2="415.17" fill="none" stroke="#000" stroke-linejoin="bevel" stroke-width="2.48"/><line x1="1400.63" y1="507.3" x2="1400.63" y2="418.22" fill="none" stroke="#000" stroke-linejoin="bevel" stroke-width="2.48"/><line x1="1480.1" y1="494.9" x2="1480.1" y2="430.77" fill="none" stroke="#000" stroke-linejoin="bevel" stroke-width="2.48"/><line x1="1559.58" y1="519.7" x2="1559.58" y2="436.87" fill="none" stroke="#000" stroke-linejoin="bevel" stroke-width="2.48"/><line x1="1639.06" y1="519.7" x2="1639.06" y2="442.98" fill="none" stroke="#000" stroke-linejoin="bevel" stroke-width="2.48"/><line x1="1718.53" y1="507.3" x2="1718.53" y2="436.92" fill="none" stroke="#000" stroke-linejoin="bevel" stroke-width="2.48"/><line x1="1798.01" y1="532.1" x2="1798.01" y2="439.97" fill="none" stroke="#000" stroke-linejoin="bevel" stroke-width="2.48"/><line x1="1877.49" y1="532.1" x2="1877.49" y2="443.02" fill="none" stroke="#000" stroke-linejoin="bevel" stroke-width="2.48"/><line x1="1939.72" y1="97.84" x2="1939.72" y2="180.47" fill="none" stroke="#000" stroke-linejoin="bevel" stroke-width="2.48"/><line x1="1956.96" y1="519.7" x2="1956.96" y2="436.87" fill="none" stroke="#000" stroke-linejoin="bevel" stroke-width="2.48"/><path d="M220.26,184.64c0,4.26,3.07,9.02,11.11,9.02,10.31,0,21.13-8.43,21.13-17.16,0-5.86-4.96-9.13-11.11-9.13-9.63,0-21.13,8.14-21.13,17.27"/><path d="M300.33,159.84c0,4.26,3.07,9.02,11.11,9.02,10.31,0,21.13-8.43,21.13-17.16,0-5.86-4.96-9.13-11.11-9.13-9.63,0-21.13,8.14-21.13,17.27"/><path d="M380.41,159.84c0,4.26,3.07,9.02,11.11,9.02,10.31,0,21.13-8.43,21.13-17.16,0-5.86-4.96-9.13-11.11-9.13-9.63,0-21.13,8.14-21.13,17.27"/><path d="M460.48,172.24c0,4.26,3.07,9.02,11.11,9.02,10.31,0,21.13-8.43,21.13-17.16,0-5.86-4.96-9.13-11.11-9.13-9.63,0-21.13,8.14-21.13,17.27"/><path d="M540.55,147.44c0,4.26,3.07,9.02,11.11,9.02,10.31,0,21.13-8.43,21.13-17.16,0-5.86-4.96-9.13-11.11-9.13-9.63,0-21.13,8.14-21.13,17.27"/><path d="M620.62,147.44c0,4.26,3.07,9.02,11.11,9.02,10.31,0,21.13-8.43,21.13-17.16,0-5.86-4.96-9.13-11.11-9.13-9.63,0-21.13,8.14-21.13,17.27"/><path d="M700.7,159.84c0,4.26,3.07,9.02,11.11,9.02,10.31,0,21.13-8.43,21.13-17.16,0-5.86-4.96-9.13-11.11-9.13-9.63,0-21.13,8.14-21.13,17.27"/><path d="M780.77,135.04c0,4.26,3.07,9.02,11.11,9.02,10.31,0,21.13-8.43,21.13-17.16,0-5.86-4.96-9.13-11.11-9.13-9.63,0-21.13,8.14-21.13,17.27"/><path d="M860.84,135.04c0,4.26,3.07,9.02,11.11,9.02,10.31,0,21.13-8.43,21.13-17.16,0-5.86-4.96-9.13-11.11-9.13-9.63,0-21.13,8.14-21.13,17.27"/><path d="M1020.98,122.64c0,4.26,3.07,9.02,11.11,9.02,10.31,0,21.13-8.43,21.13-17.16,0-5.86-4.96-9.13-11.11-9.13-9.63,0-21.13,8.14-21.13,17.27"/><path d="M1101.05,122.64c0,4.26,3.07,9.02,11.11,9.02,10.31,0,21.13-8.43,21.13-17.16,0-5.86-4.96-9.13-11.11-9.13-9.63,0-21.13,8.14-21.13,17.27"/><path d="M1217.83,135.04c0,4.26,3.07,9.02,11.11,9.02,10.31,0,21.13-8.43,21.13-17.16,0-5.86-4.96-9.13-11.11-9.13-9.63,0-21.13,8.14-21.13,17.27"/><path d="M1297.9,110.24c0,4.26,3.07,9.02,11.11,9.02,10.31,0,21.13-8.43,21.13-17.16,0-5.86-4.96-9.13-11.11-9.13-9.63,0-21.13,8.14-21.13,17.27"/><path d="M1377.97,110.24c0,4.26,3.07,9.02,11.11,9.02,10.31,0,21.13-8.43,21.13-17.16,0-5.86-4.96-9.13-11.11-9.13-9.63,0-21.13,8.14-21.13,17.27"/><path d="M1458.05,122.64c0,4.26,3.07,9.02,11.11,9.02,10.31,0,21.13-8.43,21.13-17.16,0-5.86-4.96-9.13-11.11-9.13-9.63,0-21.13,8.14-21.13,17.27"/><path d="M1538.12,97.84c0,4.26,3.07,9.02,11.11,9.02,10.31,0,21.13-8.43,21.13-17.16,0-5.86-4.96-9.13-11.11-9.13-9.63,0-21.13,8.14-21.13,17.27"/><path d="M1618.19,97.84c0,4.26,3.07,9.02,11.11,9.02,10.31,0,21.13-8.43,21.13-17.16,0-5.86-4.96-9.13-11.11-9.13-9.63,0-21.13,8.14-21.13,17.27"/><path d="M1698.26,110.24c0,4.26,3.07,9.02,11.11,9.02,10.31,0,21.13-8.43,21.13-17.16,0-5.86-4.96-9.13-11.11-9.13-9.63,0-21.13,8.14-21.13,17.27"/><path d="M1778.33,85.44c0,4.26,3.07,9.02,11.11,9.02,10.31,0,21.13-8.43,21.13-17.16,0-5.86-4.96-9.13-11.11-9.13-9.63,0-21.13,8.14-21.13,17.27"/><path d="M1858.4,85.44c0,4.26,3.07,9.02,11.11,9.02,10.31,0,21.13-8.43,21.13-17.16,0-5.86-4.96-9.13-11.11-9.13-9.63,0-21.13,8.14-21.13,17.27"/><path d="M1938.48,97.84c0,4.26,3.07,9.02,11.11,9.02,10.31,0,21.13-8.43,21.13-17.16,0-5.86-4.96-9.13-11.11-9.13-9.63,0-21.13,8.14-21.13,17.27"/><path d="M220.26,441.04c0,4.26,3.07,9.02,11.11,9.02,10.31,0,21.13-8.43,21.13-17.16,0-5.86-4.96-9.13-11.11-9.13-9.63,0-21.13,8.14-21.13,17.27"/><path d="M299.74,465.84c0,4.26,3.07,9.02,11.11,9.02,10.31,0,21.13-8.43,21.13-17.16,0-5.86-4.96-9.13-11.11-9.13-9.63,0-21.13,8.14-21.13,17.27"/><path d="M379.22,465.84c0,4.26,3.07,9.02,11.11,9.02,10.31,0,21.13-8.43,21.13-17.16,0-5.86-4.96-9.13-11.11-9.13-9.63,0-21.13,8.14-21.13,17.27"/><path d="M458.69,453.44c0,4.26,3.07,9.02,11.11,9.02,10.31,0,21.13-8.43,21.13-17.16,0-5.86-4.96-9.13-11.11-9.13-9.63,0-21.13,8.14-21.13,17.27"/><path d="M538.17,478.24c0,4.26,3.07,9.02,11.11,9.02,10.31,0,21.13-8.43,21.13-17.16,0-5.86-4.96-9.13-11.11-9.13-9.63,0-21.13,8.14-21.13,17.27"/><path d="M617.64,478.24c0,4.26,3.07,9.02,11.11,9.02,10.31,0,21.13-8.43,21.13-17.16,0-5.86-4.96-9.13-11.11-9.13-9.63,0-21.13,8.14-21.13,17.27"/><path d="M940.91,147.44c0,4.26,3.07,9.02,11.11,9.02,10.31,0,21.13-8.43,21.13-17.16,0-5.86-4.96-9.13-11.11-9.13-9.63,0-21.13,8.14-21.13,17.27"/><path d="M697.12,465.84c0,4.26,3.07,9.02,11.11,9.02,10.31,0,21.13-8.43,21.13-17.16,0-5.86-4.96-9.13-11.11-9.13-9.63,0-21.13,8.14-21.13,17.27"/><path d="M776.6,490.64c0,4.26,3.07,9.02,11.11,9.02,10.31,0,21.13-8.43,21.13-17.16,0-5.86-4.96-9.13-11.11-9.13-9.63,0-21.13,8.14-21.13,17.27"/><path d="M856.07,490.64c0,4.26,3.07,9.02,11.11,9.02,10.31,0,21.13-8.43,21.13-17.16,0-5.86-4.96-9.13-11.11-9.13-9.63,0-21.13,8.14-21.13,17.27"/><path d="M935.55,478.24c0,4.26,3.07,9.02,11.11,9.02,10.31,0,21.13-8.43,21.13-17.16,0-5.86-4.96-9.13-11.11-9.13-9.63,0-21.13,8.14-21.13,17.27"/><path d="M1015.03,503.04c0,4.26,3.07,9.02,11.11,9.02,10.31,0,21.13-8.43,21.13-17.16,0-5.86-4.96-9.13-11.11-9.13-9.63,0-21.13,8.14-21.13,17.27"/><path d="M1094.5,503.04c0,4.26,3.07,9.02,11.11,9.02,10.31,0,21.13-8.43,21.13-17.16,0-5.86-4.96-9.13-11.11-9.13-9.63,0-21.13,8.14-21.13,17.27"/><path d="M1210.68,490.64c0,4.26,3.07,9.02,11.11,9.02,10.31,0,21.13-8.43,21.13-17.16,0-5.86-4.96-9.13-11.11-9.13-9.63,0-21.13,8.14-21.13,17.27"/><path d="M1290.16,515.44c0,4.26,3.07,9.02,11.11,9.02,10.31,0,21.13-8.43,21.13-17.16,0-5.86-4.96-9.13-11.11-9.13-9.63,0-21.13,8.14-21.13,17.27"/><path d="M1369.63,515.44c0,4.26,3.07,9.02,11.11,9.02,10.31,0,21.13-8.43,21.13-17.16,0-5.86-4.96-9.13-11.11-9.13-9.63,0-21.13,8.14-21.13,17.27"/><path d="M1449.11,503.04c0,4.26,3.07,9.02,11.11,9.02,10.31,0,21.13-8.43,21.13-17.16,0-5.86-4.96-9.13-11.11-9.13-9.63,0-21.13,8.14-21.13,17.27"/><path d="M1528.59,527.84c0,4.26,3.07,9.02,11.11,9.02,10.31,0,21.13-8.43,21.13-17.16,0-5.86-4.96-9.13-11.11-9.13-9.63,0-21.13,8.14-21.13,17.27"/><path d="M1608.06,527.84c0,4.26,3.07,9.02,11.11,9.02,10.31,0,21.13-8.43,21.13-17.16,0-5.86-4.96-9.13-11.11-9.13-9.63,0-21.13,8.14-21.13,17.27"/><path d="M1687.54,515.44c0,4.26,3.07,9.02,11.11,9.02,10.31,0,21.13-8.43,21.13-17.16,0-5.86-4.96-9.13-11.11-9.13-9.63,0-21.13,8.14-21.13,17.27"/><path d="M1767.02,540.24c0,4.26,3.07,9.02,11.11,9.02,10.31,0,21.13-8.43,21.13-17.16,0-5.86-4.96-9.13-11.11-9.13-9.63,0-21.13,8.14-21.13,17.27"/><path d="M1846.49,540.24c0,4.26,3.07,9.02,11.11,9.02,10.31,0,21.13-8.43,21.13-17.16,0-5.86-4.96-9.13-11.11-9.13-9.63,0-21.13,8.14-21.13,17.27"/><path d="M1925.97,527.84c0,4.26,3.07,9.02,11.11,9.02,10.31,0,21.13-8.43,21.13-17.16,0-5.86-4.96-9.13-11.11-9.13-9.63,0-21.13,8.14-21.13,17.27"/><path d="M30.8,537.36c0,6.56,4.96,15.19,18.35,15.19,4.67,0,8.74-1.19,12.31-3.38,5.36-3.77,6.74-10.32,6.74-16.57,0-3.86-.59-8.32-1.58-13.98-.29-1.98-.9-4.96-1.49-8.84,9.72-3.18,16.96-13.3,16.96-23.51,0-14.97-10.62-25.09-25.09-25.09-.99-5.95-1.98-11.81-2.77-17.36,10.42-11.02,17.65-23.42,17.65-39.18,0-9.04-2.77-16.37-4.37-19.95-2.37-5.05-5.25-8.53-7.04-8.53-.7,0-3.77,1.19-7.04,5.05-6.36,7.55-8.14,20.24-8.14,28.57,0,5.36,.5,10.23,2.19,21.34-.11,.09-5.27,5.35-7.35,7.04-9.04,8.34-21.53,20.43-21.53,40.28,0,18.54,16.17,33.12,34.63,33.12,2.87,0,5.55-.29,7.83-.7,1.89,9.53,3.08,16.48,3.08,21.73,0,10.32-5.36,15.78-15.38,15.78-2.39,0-4.46-.5-4.67-.5-.09-.11-.29-.2-.29-.29,0-.2,.2-.31,.5-.31,4.67-.79,9.32-4.76,9.32-11.1,0-5.36-4.06-11.02-11.5-11.02-6.94,0-11.31,5.66-11.31,12.2m20.74-132.43c.9-3.97,5.46-14.38,10.62-14.38,1.49,0,3.86,4.76,3.86,11.7,0,10.32-7.63,18.06-14.48,24.8-.59-3.97-1.08-7.83-1.08-12,0-3.67,.29-7.05,1.08-10.12m8.73,101.97c-1.98,.4-3.86,.6-5.75,.6-14.18,0-26.29-9.92-26.29-24.91,0-12.09,8.53-22.91,17.27-30.46,1.67-1.49,3.27-2.87,4.76-4.36,.88,5.35,1.58,10.01,2.28,14.09-9.04,2.68-15.17,12.2-15.17,21.53,0,6.94,5.46,16.46,13.39,16.46,.79,0,1.69-.4,1.69-1.29s-.99-1.39-2.19-2.19c-3.88-2.39-6.06-4.96-6.06-9.83,0-6.05,4.57-10.91,10.32-12.29l5.75,32.63m14.09-18.35c0,7.05-2.88,14.29-9.92,17.17-2.08-11.9-4.76-27.68-5.46-32.05,8.93,0,15.38,6.06,15.38,14.88"/><path d="M30.8,194.16c0,6.56,4.96,15.19,18.35,15.19,4.67,0,8.74-1.19,12.31-3.38,5.36-3.77,6.74-10.32,6.74-16.57,0-3.86-.59-8.32-1.58-13.98-.29-1.98-.9-4.96-1.49-8.84,9.72-3.18,16.96-13.3,16.96-23.51,0-14.97-10.62-25.09-25.09-25.09-.99-5.95-1.98-11.81-2.77-17.36,10.42-11.02,17.65-23.42,17.65-39.18,0-9.04-2.77-16.37-4.37-19.95-2.37-5.05-5.25-8.53-7.04-8.53-.7,0-3.77,1.19-7.04,5.05-6.36,7.55-8.14,20.24-8.14,28.57,0,5.36,.5,10.23,2.19,21.34-.11,.09-5.27,5.35-7.35,7.04-9.04,8.34-21.53,20.43-21.53,40.28,0,18.54,16.17,33.12,34.63,33.12,2.87,0,5.55-.29,7.83-.7,1.89,9.53,3.08,16.48,3.08,21.73,0,10.32-5.36,15.78-15.38,15.78-2.39,0-4.46-.5-4.67-.5-.09-.11-.29-.2-.29-.29,0-.2,.2-.31,.5-.31,4.67-.79,9.32-4.76,9.32-11.1,0-5.36-4.06-11.02-11.5-11.02-6.94,0-11.31,5.66-11.31,12.2M51.54,61.72c.9-3.97,5.46-14.38,10.62-14.38,1.49,0,3.86,4.76,3.86,11.7,0,10.32-7.63,18.06-14.48,24.8-.59-3.97-1.08-7.83-1.08-12,0-3.67,.29-7.05,1.08-10.12m8.73,101.97c-1.98,.4-3.86,.6-5.75,.6-14.18,0-26.29-9.92-26.29-24.91,0-12.09,8.53-22.91,17.27-30.46,1.67-1.49,3.27-2.87,4.76-4.36,.88,5.35,1.58,10.01,2.28,14.09-9.04,2.68-15.17,12.2-15.17,21.53,0,6.94,5.46,16.46,13.39,16.46,.79,0,1.69-.4,1.69-1.29s-.99-1.39-2.19-2.19c-3.88-2.39-6.06-4.96-6.06-9.83,0-6.05,4.57-10.91,10.32-12.29l5.75,32.63m14.09-18.35c0,7.05-2.88,14.29-9.92,17.17-2.08-11.9-4.76-27.68-5.46-32.05,8.93,0,15.38,6.06,15.38,14.88"/><path d="M129.99,58.45c.6-.09,1.1-.79,1.1-1.4v-5.84c0-.99-.7-1.39-1.6-1.39l-3.27,.7v-14.79h-2.77v15.38l-8.83,1.8v-14h-2.77v14.59l-3.88,.79c-.59,.11-1.09,.79-1.09,1.39v5.75c0,1.09,.79,1.4,1.69,1.4l3.27-.7v16.37l-3.88,.79c-.59,.09-1.09,.79-1.09,1.4v5.75c0,1.09,.79,1.38,1.69,1.38l3.27-.68v14.77h2.77v-15.38l8.83-1.78v14h2.77v-14.59l3.77-.7c.6-.11,1.1-.79,1.1-1.39v-5.84c0-.99-.7-1.4-1.6-1.4l-3.27,.7v-16.37l3.77-.7m-15.38,3.07l8.83-1.78v16.37l-8.83,1.89v-16.48"/><path d="M157.16,95.65c.6-.09,1.1-.79,1.1-1.4v-5.84c0-.99-.7-1.39-1.6-1.39l-3.27,.7v-14.79h-2.77v15.38l-8.83,1.8v-14h-2.77v14.59l-3.88,.79c-.59,.11-1.09,.79-1.09,1.39v5.75c0,1.09,.79,1.4,1.69,1.4l3.27-.7v16.37l-3.88,.79c-.59,.09-1.09,.79-1.09,1.4v5.75c0,1.09,.79,1.38,1.69,1.38l3.27-.68v14.77h2.77v-15.38l8.83-1.78v14h2.77v-14.59l3.77-.7c.6-.11,1.1-.79,1.1-1.39v-5.84c0-.99-.7-1.4-1.6-1.4l-3.27,.7v-16.37l3.77-.7m-15.38,3.07l8.83-1.78v16.37l-8.83,1.89v-16.48"/><path d="M129.99,401.65c.6-.09,1.1-.79,1.1-1.4v-5.84c0-.99-.7-1.39-1.6-1.39l-3.27,.7v-14.79h-2.77v15.38l-8.83,1.8v-14h-2.77v14.59l-3.88,.79c-.59,.11-1.09,.79-1.09,1.39v5.75c0,1.09,.79,1.4,1.69,1.4l3.27-.7v16.37l-3.88,.79c-.59,.09-1.09,.79-1.09,1.4v5.75c0,1.09,.79,1.38,1.69,1.38l3.27-.68v14.77h2.77v-15.38l8.83-1.78v14h2.77v-14.59l3.77-.7c.6-.11,1.1-.79,1.1-1.39v-5.84c0-.99-.7-1.4-1.6-1.4l-3.27,.7v-16.37l3.77-.7m-15.38,3.07l8.83-1.78v16.37l-8.83,1.89v-16.48"/><path d="M157.16,438.85c.6-.09,1.1-.79,1.1-1.4v-5.84c0-.99-.7-1.39-1.6-1.39l-3.27,.7v-14.79h-2.77v15.38l-8.83,1.8v-14h-2.77v14.59l-3.88,.79c-.59,.11-1.09,.79-1.09,1.39v5.75c0,1.09,.79,1.4,1.69,1.4l3.27-.7v16.37l-3.88,.79c-.59,.09-1.09,.79-1.09,1.4v5.75c0,1.09,.79,1.38,1.69,1.38l3.27-.68v14.77h2.77v-15.38l8.83-1.78v14h2.77v-14.59l3.77-.7c.6-.11,1.1-.79,1.1-1.39v-5.84c0-.99-.7-1.4-1.6-1.4l-3.27,.7v-16.37l3.77-.7m-15.38,3.07l8.83-1.78v16.37l-8.83,1.89v-16.48"/><path d="M1964.81,373.88c-9.32-10.12-17.56-10.71-22.71-10.71s-13.3,.59-22.63,10.71c-4.85,5.36-8.23,15.97-8.23,21.33,0,1.89,.4,3.18,1.4,3.18,2.77,0,1.38-8.54,9.72-16.97,7.33-7.33,17.16-7.44,19.55-7.44h.39c2.39,0,12.21,.11,19.55,7.44,8.34,8.43,6.94,16.97,9.72,16.97,.99,0,1.39-1.19,1.39-3.18,0-5.36-3.27-16.07-8.14-21.33m-29.56,18.94c0,3.78,3.07,6.85,6.85,6.85s6.84-3.07,6.84-6.85-3.07-6.84-6.84-6.84-6.85,3.07-6.85,6.84"/><path d="M232.2,247.71c-2.33,3.75-3.33,4.79-4.64,4.79-.64,0-1-.4-1-1.12,0-.52,.2-1.44,.59-2.85l7.12-23.98-7.95,.59-.17,1.44h1.25c1.64,0,2.28,.36,2.28,1.24,0,.4-.12,.92-.36,1.76l-2.64,8.88c-.72-2.08-2.28-3.24-4.61-3.24-5.75,0-11.11,6.16-11.11,12.8,0,3.92,2.51,6.59,6.28,6.59,2.72,0,4.72-1.11,6.47-3.72-.03,.33-.03,.72-.03,.89,0,1.83,.95,2.83,2.72,2.83,2.52,0,4.72-1.95,7-6.19l-1.2-.71m-10-10.69c1.95,0,3.39,1.51,3.39,3.61,0,3.62-2.55,12.11-7.19,12.11-2.16,0-3.56-1.72-3.56-4.32,0-3.79,2.72-11.4,7.36-11.4m33-1.2h-3.48l-1.88,6.4c-1.64,5.56-5.33,10.11-8.16,10.11-.97,0-1.72-.75-1.72-1.72,0-.51,.11-1.15,.44-2.26l3.92-13.13-7.72,.6-.12,1.45h.95c1.64,0,2.25,.36,2.25,1.26,0,.41-.12,.97-.33,1.74l-1.59,5.39q-1.23,4-1.23,5.23c0,2.21,1.52,3.69,3.8,3.69,2.8,0,5.08-1.64,7.44-5.33-.41,1.41-.48,1.97-.48,2.72,0,1.56,1.08,2.64,2.56,2.64,2.44,0,4.39-1.64,7.23-6l-1.2-.72c-1.95,2.93-3.52,4.53-4.39,4.53-.36,0-.72-.45-.72-.96,0-.44,.16-1.21,.47-2.36l3.97-13.28"/><path d="M702.04,235.22c-4.2,0-7.25,2.56-7.25,6.03,0,1.74,1,3.17,2.77,4.1,.64,.31,1.44,.67,3.12,1.36,2.27,.9,2.83,1.46,2.83,2.87,0,2.16-1.8,3.52-4.56,3.52-2.03,0-3.47-.57-3.47-1.36,0-.21,.11-.44,.28-.6,.75-.79,.83-1,.83-1.72,0-1.12-.88-2-2.03-2-1.33,0-2.33,1.11-2.33,2.68,0,2.79,2.48,4.51,6.53,4.51,4.59,0,7.75-2.51,7.75-6.15,0-1.6-.72-2.96-2-3.83-.88-.61-1.28-.77-3.47-1.56-2.61-.93-3.28-1.57-3.28-3.13,0-1.84,1.75-3.2,4.08-3.2,1.56,0,2.59,.43,2.59,1.08,0,.17-.08,.35-.2,.56-.56,.79-.64,1-.64,1.61,0,1.08,.84,1.83,2.08,1.83,1.36,0,2.28-1,2.28-2.44,0-2.44-2.44-4.16-5.91-4.16m16.75-9.76c-1.2,0-2.16,.96-2.16,2.17s.95,2.15,2.12,2.15c1.23,0,2.19-.96,2.19-2.15s-.95-2.17-2.16-2.17m.72,9.76l-7.67,.6-.16,1.45h.95c1.64,0,2.28,.36,2.28,1.23,0,.39-.08,.85-.36,1.77l-2.33,7.8c-.75,2.54-.88,3.1-.88,4.03,0,1.4,1.2,2.48,2.72,2.48,3.44,0,5.8-3.56,7.48-6.16l-1.25-.68c-2.08,3.15-3.75,4.84-4.83,4.84-.41,0-.69-.36-.69-.84,0-.39,.16-1.13,.48-2.24l4.23-14.28m12.97,0l-7.28,.6-.12,1.45h.97c1.59,0,2.23,.36,2.23,1.26,0,.36-.12,.97-.33,1.74l-4.08,13.75h3.48l1.64-5.64c1.8-6.13,5.44-10.75,8.44-10.75,1.05,0,1.69,.54,1.69,1.54,0,.82-.33,2.49-.81,4l-3.19,10.85h3.47l1.72-5.8c1-3.33,2-5.56,3.28-7.28,1.44-2,3.48-3.31,5-3.31,1,0,1.56,.51,1.56,1.47,0,.56-.2,1.43-.56,2.56l-1.84,5.69c-1.08,3.11-1.11,3.36-1.11,4.47,0,1.68,1.23,2.79,3.11,2.79,1.33,0,2.61-.64,3.97-1.9,.84-.82,1.39-1.54,3.03-3.93l-1.23-.84c-2.08,3.13-3.56,4.64-4.59,4.64-.44,0-.84-.44-.84-1,0-.36,.12-.8,.48-1.97l2.52-7.75c.28-.87,.48-2.12,.48-3,0-2.12-1.56-3.64-3.72-3.64-2.84,0-5.41,1.85-7.72,5.64,.16-.76,.23-1.44,.23-1.92,0-2.12-1.69-3.72-3.88-3.72-2.53,0-4.36,1.41-7.17,5.41l1.17-5.41m29.95,14.44c-1.36,0-2.47,1.12-2.47,2.48s1.11,2.47,2.44,2.47c1.44,0,2.52-1.08,2.52-2.47s-1.12-2.48-2.48-2.48"/><path d="M310.2,236.74c.64-.57,1-.75,1.47-.75,.41,0,.73,.18,1.05,.64,.64,.87,.88,1.03,1.51,1.03,.92,0,1.61-.75,1.61-1.75,0-1.17-1.12-2.09-2.53-2.09s-2.47,.53-4.55,2.17c-1.25-.57-2.17-.77-3.45-.77-4.44,0-8.19,3.16-8.19,6.85,0,1.92,.75,3.23,2.47,4.15-1.83,.24-2.67,.52-3.59,1.31-.8,.64-1.31,1.72-1.31,2.69,0,1.36,.64,2.2,2.19,2.95-2.36,.54-5.11,1.54-5.11,4.44,0,4,5.28,4.49,8.2,4.49,3.95,0,6.23-.49,8.19-1.77,1.72-1.11,2.72-2.83,2.72-4.72,0-4.03-4.28-4.51-7.36-4.72-3.55-.18-3.83-.23-4.39-.36-1-.23-1.48-.71-1.48-1.39,0-.97,.95-1.61,2.41-1.61,.51,0,1.11,.05,1.64,.13,1.64,.23,1.88,.28,2.88,.28,2.24,0,4-.56,5.39-1.69,1.61-1.23,2.61-3.23,2.61-5.08s-.8-3.31-2.36-4.43m-4.61,0c2.09,0,3.41,1.25,3.41,3.2,0,2.88-1.31,6.52-4.72,6.52-2.16,0-3.51-1.36-3.51-3.6,0-3.59,1.95-6.12,4.83-6.12m-4.88,17.15c1.8,0,4.69,.41,5.59,.77,1,.44,1.49,1.12,1.49,2.12,0,2.36-2.52,3.64-7.11,3.64-3.89,0-5.69-.96-5.69-3.09s2.08-3.44,5.72-3.44m35.56-18.07h-3.48l-1.88,6.4c-1.64,5.56-5.33,10.11-8.16,10.11-.97,0-1.72-.75-1.72-1.72,0-.51,.11-1.15,.44-2.26l3.92-13.13-7.72,.6-.12,1.45h.95c1.64,0,2.25,.36,2.25,1.26,0,.41-.12,.97-.33,1.74l-1.59,5.39q-1.24,4-1.24,5.23c0,2.21,1.52,3.69,3.8,3.69,2.8,0,5.08-1.64,7.44-5.33-.41,1.41-.49,1.97-.49,2.72,0,1.56,1.08,2.64,2.56,2.64,2.44,0,4.39-1.64,7.23-6l-1.2-.72c-1.95,2.93-3.52,4.53-4.39,4.53-.36,0-.72-.45-.72-.96,0-.44,.16-1.21,.47-2.36l3.97-13.28"/><path d="M392.34,247.71c-2.33,3.75-3.33,4.79-4.64,4.79-.64,0-1-.4-1-1.12,0-.52,.2-1.44,.59-2.85l7.12-23.98-7.95,.59-.17,1.44h1.25c1.64,0,2.28,.36,2.28,1.24,0,.4-.12,.92-.36,1.76l-2.64,8.88c-.72-2.08-2.28-3.24-4.61-3.24-5.75,0-11.11,6.16-11.11,12.8,0,3.92,2.52,6.59,6.28,6.59,2.72,0,4.72-1.11,6.47-3.72-.03,.33-.03,.72-.03,.89,0,1.83,.95,2.83,2.72,2.83,2.52,0,4.72-1.95,7-6.19l-1.2-.71m-10-10.69c1.95,0,3.39,1.51,3.39,3.61,0,3.62-2.55,12.11-7.19,12.11-2.16,0-3.56-1.72-3.56-4.32,0-3.79,2.72-11.4,7.36-11.4m33-1.2h-3.48l-1.88,6.4c-1.64,5.56-5.33,10.11-8.16,10.11-.97,0-1.72-.75-1.72-1.72,0-.51,.11-1.15,.44-2.26l3.92-13.13-7.72,.6-.12,1.45h.95c1.64,0,2.25,.36,2.25,1.26,0,.41-.12,.97-.33,1.74l-1.59,5.39q-1.23,4-1.23,5.23c0,2.21,1.52,3.69,3.8,3.69,2.8,0,5.08-1.64,7.44-5.33-.41,1.41-.48,1.97-.48,2.72,0,1.56,1.08,2.64,2.56,2.64,2.44,0,4.39-1.64,7.23-6l-1.2-.72c-1.95,2.93-3.52,4.53-4.39,4.53-.36,0-.72-.45-.72-.96,0-.44,.16-1.21,.47-2.36l3.97-13.28"/><path d="M472.42,247.71c-2.33,3.75-3.33,4.79-4.64,4.79-.64,0-1-.4-1-1.12,0-.52,.2-1.44,.59-2.85l7.12-23.98-7.95,.59-.17,1.44h1.25c1.64,0,2.28,.36,2.28,1.24,0,.4-.12,.92-.36,1.76l-2.64,8.88c-.72-2.08-2.28-3.24-4.61-3.24-5.75,0-11.11,6.16-11.11,12.8,0,3.92,2.52,6.59,6.28,6.59,2.72,0,4.72-1.11,6.47-3.72-.03,.33-.03,.72-.03,.89,0,1.83,.95,2.83,2.72,2.83,2.52,0,4.72-1.95,7-6.19l-1.2-.71m-10-10.69c1.95,0,3.39,1.51,3.39,3.61,0,3.62-2.55,12.11-7.19,12.11-2.16,0-3.56-1.72-3.56-4.32,0-3.79,2.72-11.4,7.36-11.4m33-1.2h-3.48l-1.88,6.4c-1.64,5.56-5.33,10.11-8.16,10.11-.97,0-1.72-.75-1.72-1.72,0-.51,.11-1.15,.44-2.26l3.92-13.13-7.72,.6-.12,1.45h.95c1.64,0,2.25,.36,2.25,1.26,0,.41-.12,.97-.33,1.74l-1.59,5.39q-1.23,4-1.23,5.23c0,2.21,1.52,3.69,3.8,3.69,2.8,0,5.08-1.64,7.44-5.33-.41,1.41-.48,1.97-.48,2.72,0,1.56,1.08,2.64,2.56,2.64,2.44,0,4.39-1.64,7.23-6l-1.2-.72c-1.95,2.93-3.52,4.53-4.39,4.53-.36,0-.72-.45-.72-.96,0-.44,.16-1.21,.47-2.36l3.97-13.28"/><path d="M632.56,247.71c-2.33,3.75-3.33,4.79-4.64,4.79-.64,0-1-.4-1-1.12,0-.52,.2-1.44,.59-2.85l7.12-23.98-7.95,.59-.17,1.44h1.25c1.64,0,2.28,.36,2.28,1.24,0,.4-.12,.92-.36,1.76l-2.64,8.88c-.72-2.08-2.28-3.24-4.61-3.24-5.75,0-11.11,6.16-11.11,12.8,0,3.92,2.52,6.59,6.28,6.59,2.72,0,4.72-1.11,6.47-3.72-.03,.33-.03,.72-.03,.89,0,1.83,.95,2.83,2.72,2.83,2.52,0,4.72-1.95,7-6.19l-1.2-.71m-10-10.69c1.95,0,3.39,1.51,3.39,3.61,0,3.62-2.55,12.11-7.19,12.11-2.16,0-3.56-1.72-3.56-4.32,0-3.79,2.72-11.4,7.36-11.4m33-1.2h-3.48l-1.88,6.4c-1.64,5.56-5.33,10.11-8.16,10.11-.97,0-1.72-.75-1.72-1.72,0-.51,.11-1.15,.44-2.26l3.92-13.13-7.72,.6-.12,1.45h.95c1.64,0,2.25,.36,2.25,1.26,0,.41-.12,.97-.33,1.74l-1.59,5.39q-1.23,4-1.23,5.23c0,2.21,1.52,3.69,3.8,3.69,2.8,0,5.08-1.64,7.44-5.33-.41,1.41-.48,1.97-.48,2.72,0,1.56,1.08,2.64,2.56,2.64,2.44,0,4.39-1.64,7.23-6l-1.2-.72c-1.95,2.93-3.52,4.53-4.39,4.53-.36,0-.72-.45-.72-.96,0-.44,.16-1.21,.47-2.36l3.97-13.28"/><path d="M550.41,236.74c.64-.57,1-.75,1.47-.75,.41,0,.73,.18,1.05,.64,.64,.87,.88,1.03,1.51,1.03,.92,0,1.61-.75,1.61-1.75,0-1.17-1.12-2.09-2.53-2.09s-2.47,.53-4.55,2.17c-1.25-.57-2.17-.77-3.45-.77-4.44,0-8.19,3.16-8.19,6.85,0,1.92,.75,3.23,2.47,4.15-1.83,.24-2.67,.52-3.59,1.31-.8,.64-1.31,1.72-1.31,2.69,0,1.36,.64,2.2,2.19,2.95-2.36,.54-5.11,1.54-5.11,4.44,0,4,5.28,4.49,8.2,4.49,3.95,0,6.23-.49,8.19-1.77,1.72-1.11,2.72-2.83,2.72-4.72,0-4.03-4.28-4.51-7.36-4.72-3.55-.18-3.83-.23-4.39-.36-1-.23-1.49-.71-1.49-1.39,0-.97,.95-1.61,2.41-1.61,.51,0,1.11,.05,1.64,.13,1.64,.23,1.88,.28,2.88,.28,2.24,0,4-.56,5.39-1.69,1.61-1.23,2.61-3.23,2.61-5.08s-.8-3.31-2.36-4.43m-4.61,0c2.09,0,3.41,1.25,3.41,3.2,0,2.88-1.31,6.52-4.72,6.52-2.16,0-3.52-1.36-3.52-3.6,0-3.59,1.95-6.12,4.83-6.12m-4.88,17.15c1.8,0,4.69,.41,5.59,.77,1,.44,1.49,1.12,1.49,2.12,0,2.36-2.52,3.64-7.11,3.64-3.89,0-5.69-.96-5.69-3.09s2.08-3.44,5.72-3.44m35.56-18.07h-3.48l-1.88,6.4c-1.64,5.56-5.33,10.11-8.16,10.11-.97,0-1.72-.75-1.72-1.72,0-.51,.11-1.15,.44-2.26l3.92-13.13-7.72,.6-.12,1.45h.95c1.64,0,2.25,.36,2.25,1.26,0,.41-.12,.97-.33,1.74l-1.59,5.39q-1.24,4-1.24,5.23c0,2.21,1.52,3.69,3.8,3.69,2.8,0,5.08-1.64,7.44-5.33-.41,1.41-.49,1.97-.49,2.72,0,1.56,1.08,2.64,2.56,2.64,2.44,0,4.39-1.64,7.23-6l-1.2-.72c-1.95,2.93-3.52,4.53-4.39,4.53-.36,0-.72-.45-.72-.96,0-.44,.16-1.21,.47-2.36l3.97-13.28"/><path d="M458.69,529.87l161.43,6.2v12.41l-161.43-6.2v-12.41" fill-rule="evenodd"/><path d="M1458.05,180.47l162.62-6.2v12.41l-162.62,6.2v-12.41" fill-rule="evenodd"/><path d="M726.87,387.27l161.43,6.2v12.41l-161.43-6.2v-12.41" fill-rule="evenodd"/><path d="M220.26,517.47l161.43,6.2v12.41l-161.43-6.2v-12.41" fill-rule="evenodd"/><path d="M965.3,399.65l161.43,12.4v12.44l-161.43-12.4v-12.44" fill-rule="evenodd"/><path d="M1240.43,405.87l161.44,6.2v12.41l-161.44-6.2v-12.41" fill-rule="evenodd"/><path d="M730.45,62.67l162.62-6.2v12.41l-162.62,6.2v-12.41" fill-rule="evenodd"/><path d="M1478.86,424.45l161.44,12.4v12.44l-161.44-12.4v-12.44" fill-rule="evenodd"/><path d="M970.66,50.27l162.63-6.2v12.41l-162.63,6.2v-12.41" fill-rule="evenodd"/><path d="M1717.29,430.67l161.44,6.2v12.41l-161.44-6.2v-12.41" fill-rule="evenodd"/><path d="M1698.26,168.05l162.62-12.4v12.44l-162.62,12.4v-12.44" fill-rule="evenodd"/><path d="M1217.83,192.85l162.62-12.4v12.44l-162.62,12.4v-12.44" fill-rule="evenodd"/><path d="M490.23,68.87l162.62-6.2v12.41l-162.62,6.2v-12.41" fill-rule="evenodd"/><path d="M250.02,68.87l162.62-6.2v12.41l-162.62,6.2v-12.41" fill-rule="evenodd"/><path d="M1049.07,373.42c2.13-.67,2.97-1.05,4.05-1.77,2.13-1.39,3.42-3.85,3.42-6.39,0-4.26-3.42-7.14-8.45-7.14s-9.05,3.05-9.05,6.75c0,1.85,1.13,3.1,2.83,3.1,1.49,0,2.58-1.08,2.58-2.57,0-.76-.24-1.29-.95-2.01-.46-.41-.63-.74-.63-1.05,0-1.08,2.25-2.2,4.36-2.2,3.02,0,4.81,1.67,4.81,4.45,0,4.02-2.83,7.78-5.84,7.78-.14,0-.55-.03-1.03-.07q-1.31-.1-1.58-.1c-1,0-1.53,.45-1.53,1.27,0,.72,.5,1.15,1.3,1.15,.23,0,.54-.03,.9-.07,.63-.15,1.31-.19,1.7-.19,2.13,0,3.57,1.89,3.57,4.69,0,4.85-2.39,9.53-7.83,9.53-2.52,0-4.69-1.25-4.69-2.71,0-.48,.19-.67,.91-.98,1.29-.58,1.84-1.39,1.84-2.61,0-1.58-1.26-2.78-2.87-2.78-1.94,0-3.21,1.51-3.21,3.86,0,4.37,3.33,7.11,8.74,7.11,6.79,0,11.97-4.55,11.97-10.58,0-3.5-2.16-5.49-5.32-6.47"/><path d="M1302.2,229.77c2.12-.67,2.97-1.05,4.04-1.76,2.13-1.4,3.43-3.86,3.43-6.4,0-4.26-3.43-7.14-8.46-7.14s-9.04,3.05-9.04,6.75c0,1.85,1.12,3.1,2.82,3.1,1.49,0,2.58-1.08,2.58-2.56,0-.77-.23-1.3-.95-2.02-.45-.41-.63-.73-.63-1.05,0-1.08,2.25-2.2,4.36-2.2,3.02,0,4.82,1.67,4.82,4.45,0,4.02-2.83,7.78-5.85,7.78-.14,0-.54-.03-1.03-.07q-1.31-.1-1.58-.1c-1,0-1.53,.46-1.53,1.27,0,.72,.5,1.15,1.3,1.15,.23,0,.55-.03,.91-.07,.62-.14,1.31-.19,1.7-.19,2.12,0,3.56,1.89,3.56,4.69,0,4.86-2.39,9.53-7.83,9.53-2.51,0-4.68-1.25-4.68-2.71,0-.48,.18-.67,.9-.98,1.3-.58,1.85-1.39,1.85-2.61,0-1.58-1.27-2.78-2.88-2.78-1.94,0-3.2,1.51-3.2,3.86,0,4.37,3.33,7.11,8.73,7.11,6.8,0,11.97-4.55,11.97-10.58,0-3.5-2.16-5.48-5.31-6.47"/><path d="M1542.41,219.9c2.13-.68,2.97-1.05,4.05-1.77,2.13-1.39,3.42-3.86,3.42-6.39,0-4.27-3.42-7.14-8.45-7.14s-9.05,3.05-9.05,6.75c0,1.84,1.13,3.09,2.83,3.09,1.49,0,2.58-1.08,2.58-2.56,0-.77-.24-1.3-.95-2.02-.46-.4-.63-.73-.63-1.04,0-1.08,2.25-2.21,4.36-2.21,3.02,0,4.81,1.68,4.81,4.46,0,4.01-2.83,7.78-5.84,7.78-.14,0-.55-.03-1.03-.08q-1.31-.09-1.58-.09c-1,0-1.53,.45-1.53,1.26,0,.72,.5,1.16,1.3,1.16,.23,0,.54-.03,.9-.08,.63-.14,1.31-.19,1.7-.19,2.13,0,3.57,1.89,3.57,4.69,0,4.86-2.39,9.53-7.83,9.53-2.52,0-4.69-1.25-4.69-2.7,0-.49,.19-.67,.91-.99,1.29-.57,1.84-1.39,1.84-2.6,0-1.58-1.26-2.79-2.87-2.79-1.94,0-3.21,1.52-3.21,3.86,0,4.38,3.33,7.11,8.74,7.11,6.79,0,11.97-4.54,11.97-10.58,0-3.5-2.16-5.48-5.32-6.46"/><path d="M1782.63,204.97c2.12-.67,2.97-1.05,4.05-1.76,2.12-1.4,3.42-3.86,3.42-6.4,0-4.26-3.42-7.14-8.45-7.14s-9.05,3.05-9.05,6.75c0,1.85,1.12,3.1,2.83,3.1,1.48,0,2.57-1.08,2.57-2.56,0-.77-.23-1.3-.95-2.02-.45-.41-.62-.73-.62-1.05,0-1.08,2.25-2.2,4.36-2.2,3.01,0,4.81,1.67,4.81,4.45,0,4.02-2.83,7.78-5.85,7.78-.14,0-.54-.03-1.03-.07q-1.31-.1-1.57-.1c-1,0-1.54,.46-1.54,1.27,0,.72,.5,1.15,1.3,1.15,.24,0,.55-.03,.91-.07,.62-.14,1.31-.19,1.7-.19,2.13,0,3.56,1.89,3.56,4.69,0,4.86-2.39,9.53-7.83,9.53-2.51,0-4.68-1.25-4.68-2.71,0-.48,.18-.67,.9-.98,1.3-.58,1.85-1.39,1.85-2.61,0-1.58-1.27-2.78-2.88-2.78-1.94,0-3.2,1.51-3.2,3.86,0,4.37,3.33,7.11,8.73,7.11,6.8,0,11.97-4.55,11.97-10.58,0-3.5-2.15-5.48-5.31-6.47"/><path d="M1562.64,380.2c2.12-.68,2.97-1.05,4.04-1.77,2.13-1.39,3.43-3.86,3.43-6.39,0-4.27-3.43-7.14-8.46-7.14s-9.04,3.05-9.04,6.75c0,1.84,1.12,3.09,2.82,3.09,1.49,0,2.58-1.08,2.58-2.56,0-.77-.23-1.3-.95-2.02-.45-.4-.63-.73-.63-1.04,0-1.08,2.25-2.21,4.36-2.21,3.02,0,4.82,1.68,4.82,4.46,0,4.01-2.83,7.78-5.85,7.78-.14,0-.55-.03-1.03-.08q-1.31-.09-1.58-.09c-1,0-1.53,.45-1.53,1.26,0,.72,.5,1.16,1.3,1.16,.23,0,.54-.03,.9-.08,.63-.14,1.32-.19,1.71-.19,2.12,0,3.56,1.89,3.56,4.69,0,4.86-2.39,9.53-7.83,9.53-2.51,0-4.69-1.25-4.69-2.7,0-.49,.19-.67,.91-.99,1.3-.57,1.84-1.39,1.84-2.6,0-1.58-1.26-2.79-2.87-2.79-1.94,0-3.2,1.52-3.2,3.86,0,4.38,3.32,7.11,8.73,7.11,6.8,0,11.97-4.54,11.97-10.58,0-3.5-2.16-5.48-5.31-6.46"/><path d="M304.04,563.1c2.12-.68,2.97-1.05,4.05-1.77,2.12-1.39,3.42-3.86,3.42-6.39,0-4.27-3.42-7.14-8.45-7.14s-9.05,3.05-9.05,6.75c0,1.84,1.12,3.09,2.83,3.09,1.48,0,2.58-1.08,2.58-2.56,0-.77-.24-1.3-.95-2.02-.45-.4-.62-.73-.62-1.04,0-1.08,2.25-2.21,4.36-2.21,3.02,0,4.81,1.68,4.81,4.46,0,4.01-2.83,7.78-5.84,7.78-.14,0-.55-.03-1.03-.08q-1.31-.09-1.58-.09c-1,0-1.53,.45-1.53,1.26,0,.72,.5,1.16,1.3,1.16,.23,0,.55-.03,.91-.08,.63-.14,1.31-.19,1.7-.19,2.12,0,3.56,1.89,3.56,4.69,0,4.86-2.39,9.53-7.83,9.53-2.52,0-4.69-1.25-4.69-2.7,0-.49,.19-.67,.91-.99,1.3-.57,1.84-1.39,1.84-2.6,0-1.58-1.26-2.79-2.88-2.79-1.94,0-3.2,1.52-3.2,3.86,0,4.38,3.33,7.11,8.73,7.11,6.8,0,11.97-4.54,11.97-10.58,0-3.5-2.16-5.48-5.31-6.46"/><path d="M334.38,33.9c2.12-.68,2.97-1.05,4.05-1.77,2.12-1.39,3.42-3.86,3.42-6.39,0-4.27-3.42-7.14-8.45-7.14s-9.05,3.05-9.05,6.75c0,1.84,1.12,3.09,2.83,3.09,1.48,0,2.58-1.08,2.58-2.56,0-.77-.23-1.3-.95-2.02-.45-.4-.62-.73-.62-1.04,0-1.08,2.25-2.21,4.36-2.21,3.02,0,4.81,1.68,4.81,4.46,0,4.01-2.83,7.78-5.84,7.78-.14,0-.55-.03-1.03-.08q-1.31-.09-1.58-.09c-1,0-1.53,.45-1.53,1.26,0,.72,.5,1.16,1.3,1.16,.23,0,.55-.03,.91-.08,.62-.14,1.31-.19,1.7-.19,2.12,0,3.56,1.89,3.56,4.69,0,4.86-2.39,9.53-7.83,9.53-2.52,0-4.69-1.25-4.69-2.7,0-.49,.19-.67,.91-.99,1.3-.57,1.84-1.39,1.84-2.6,0-1.58-1.27-2.79-2.88-2.79-1.94,0-3.2,1.52-3.2,3.86,0,4.38,3.33,7.11,8.73,7.11,6.8,0,11.97-4.54,11.97-10.58,0-3.5-2.16-5.48-5.31-6.46"/><path d="M1801.07,380.2c2.12-.68,2.96-1.05,4.04-1.77,2.13-1.39,3.42-3.86,3.42-6.39,0-4.27-3.42-7.14-8.45-7.14s-9.05,3.05-9.05,6.75c0,1.84,1.13,3.09,2.83,3.09,1.49,0,2.58-1.08,2.58-2.56,0-.77-.23-1.3-.95-2.02-.46-.4-.63-.73-.63-1.04,0-1.08,2.25-2.21,4.36-2.21,3.02,0,4.81,1.68,4.81,4.46,0,4.01-2.82,7.78-5.84,7.78-.14,0-.55-.03-1.03-.08q-1.31-.09-1.58-.09c-1,0-1.53,.45-1.53,1.26,0,.72,.5,1.16,1.3,1.16,.23,0,.54-.03,.9-.08,.63-.14,1.32-.19,1.71-.19,2.12,0,3.56,1.89,3.56,4.69,0,4.86-2.39,9.53-7.83,9.53-2.51,0-4.69-1.25-4.69-2.7,0-.49,.19-.67,.91-.99,1.3-.57,1.84-1.39,1.84-2.6,0-1.58-1.26-2.79-2.87-2.79-1.94,0-3.2,1.52-3.2,3.86,0,4.38,3.32,7.11,8.73,7.11,6.8,0,11.97-4.54,11.97-10.58,0-3.5-2.16-5.48-5.31-6.46"/><path d="M1324.21,377.1c2.12-.68,2.97-1.05,4.04-1.77,2.13-1.39,3.43-3.86,3.43-6.39,0-4.27-3.43-7.14-8.46-7.14s-9.04,3.05-9.04,6.75c0,1.84,1.12,3.09,2.82,3.09,1.49,0,2.58-1.08,2.58-2.56,0-.77-.23-1.3-.95-2.02-.45-.4-.63-.73-.63-1.04,0-1.08,2.25-2.21,4.36-2.21,3.02,0,4.82,1.68,4.82,4.46,0,4.01-2.83,7.78-5.85,7.78-.14,0-.54-.03-1.03-.08q-1.31-.09-1.58-.09c-1,0-1.53,.45-1.53,1.26,0,.72,.5,1.16,1.3,1.16,.23,0,.55-.03,.91-.08,.62-.14,1.31-.19,1.7-.19,2.12,0,3.56,1.89,3.56,4.69,0,4.86-2.39,9.53-7.83,9.53-2.51,0-4.68-1.25-4.68-2.7,0-.49,.18-.67,.9-.99,1.3-.57,1.85-1.39,1.85-2.6,0-1.58-1.27-2.79-2.88-2.79-1.94,0-3.2,1.52-3.2,3.86,0,4.38,3.33,7.11,8.73,7.11,6.8,0,11.97-4.54,11.97-10.58,0-3.5-2.16-5.48-5.31-6.46"/><path d="M542.47,575.5c2.12-.68,2.97-1.05,4.05-1.77,2.12-1.39,3.42-3.86,3.42-6.39,0-4.27-3.42-7.14-8.45-7.14s-9.05,3.05-9.05,6.75c0,1.84,1.12,3.09,2.83,3.09,1.48,0,2.58-1.08,2.58-2.56,0-.77-.24-1.3-.95-2.02-.45-.4-.62-.73-.62-1.04,0-1.08,2.25-2.21,4.36-2.21,3.02,0,4.81,1.68,4.81,4.46,0,4.01-2.83,7.78-5.84,7.78-.14,0-.55-.03-1.03-.08q-1.31-.09-1.58-.09c-1,0-1.53,.45-1.53,1.26,0,.72,.5,1.16,1.3,1.16,.23,0,.55-.03,.91-.08,.62-.14,1.31-.19,1.7-.19,2.12,0,3.56,1.89,3.56,4.69,0,4.86-2.39,9.53-7.83,9.53-2.52,0-4.69-1.25-4.69-2.7,0-.49,.19-.67,.91-.99,1.3-.57,1.84-1.39,1.84-2.6,0-1.58-1.26-2.79-2.88-2.79-1.94,0-3.2,1.52-3.2,3.86,0,4.38,3.33,7.11,8.74,7.11,6.8,0,11.97-4.54,11.97-10.58,0-3.5-2.16-5.48-5.31-6.46"/><path d="M574.6,33.9c2.12-.68,2.97-1.05,4.05-1.77,2.12-1.39,3.42-3.86,3.42-6.39,0-4.27-3.42-7.14-8.45-7.14s-9.05,3.05-9.05,6.75c0,1.84,1.12,3.09,2.83,3.09,1.48,0,2.58-1.08,2.58-2.56,0-.77-.23-1.3-.95-2.02-.45-.4-.62-.73-.62-1.04,0-1.08,2.25-2.21,4.36-2.21,3.02,0,4.81,1.68,4.81,4.46,0,4.01-2.83,7.78-5.84,7.78-.14,0-.55-.03-1.03-.08q-1.31-.09-1.58-.09c-1,0-1.53,.45-1.53,1.26,0,.72,.5,1.16,1.3,1.16,.23,0,.55-.03,.91-.08,.62-.14,1.31-.19,1.7-.19,2.12,0,3.56,1.89,3.56,4.69,0,4.86-2.39,9.53-7.83,9.53-2.52,0-4.69-1.25-4.69-2.7,0-.49,.19-.67,.91-.99,1.3-.57,1.84-1.39,1.84-2.6,0-1.58-1.27-2.79-2.88-2.79-1.94,0-3.2,1.52-3.2,3.86,0,4.38,3.33,7.11,8.73,7.11,6.8,0,11.97-4.54,11.97-10.58,0-3.5-2.16-5.48-5.31-6.46"/><path d="M814.81,27.7c2.13-.68,2.97-1.05,4.05-1.77,2.13-1.39,3.42-3.86,3.42-6.39,0-4.27-3.42-7.14-8.45-7.14s-9.05,3.05-9.05,6.75c0,1.84,1.13,3.09,2.83,3.09,1.49,0,2.58-1.08,2.58-2.56,0-.77-.24-1.3-.95-2.02-.46-.4-.63-.73-.63-1.04,0-1.08,2.25-2.21,4.36-2.21,3.02,0,4.81,1.68,4.81,4.46,0,4.01-2.83,7.78-5.84,7.78-.14,0-.55-.03-1.03-.08q-1.31-.09-1.58-.09c-1,0-1.53,.45-1.53,1.26,0,.72,.5,1.16,1.3,1.16,.23,0,.54-.03,.9-.08,.63-.14,1.31-.19,1.7-.19,2.13,0,3.57,1.89,3.57,4.69,0,4.86-2.39,9.53-7.83,9.53-2.52,0-4.69-1.25-4.69-2.7,0-.49,.19-.67,.91-.99,1.29-.57,1.84-1.39,1.84-2.6,0-1.58-1.26-2.79-2.87-2.79-1.94,0-3.21,1.52-3.21,3.86,0,4.38,3.33,7.11,8.74,7.11,6.79,0,11.97-4.54,11.97-10.58,0-3.5-2.16-5.48-5.32-6.46"/><path d="M810.65,358.5c2.12-.68,2.96-1.05,4.04-1.77,2.13-1.39,3.42-3.86,3.42-6.39,0-4.27-3.42-7.14-8.45-7.14s-9.05,3.05-9.05,6.75c0,1.84,1.13,3.09,2.83,3.09,1.49,0,2.58-1.08,2.58-2.56,0-.77-.23-1.3-.95-2.02-.46-.4-.63-.73-.63-1.04,0-1.08,2.25-2.21,4.36-2.21,3.02,0,4.81,1.68,4.81,4.46,0,4.01-2.82,7.78-5.84,7.78-.14,0-.55-.03-1.03-.08q-1.31-.09-1.58-.09c-1,0-1.53,.45-1.53,1.26,0,.72,.5,1.16,1.3,1.16,.23,0,.54-.03,.9-.08,.63-.14,1.32-.19,1.71-.19,2.12,0,3.56,1.89,3.56,4.69,0,4.86-2.39,9.53-7.83,9.53-2.52,0-4.69-1.25-4.69-2.7,0-.49,.19-.67,.91-.99,1.3-.57,1.84-1.39,1.84-2.6,0-1.58-1.26-2.79-2.87-2.79-1.94,0-3.21,1.52-3.21,3.86,0,4.38,3.33,7.11,8.74,7.11,6.8,0,11.97-4.54,11.97-10.58,0-3.5-2.16-5.48-5.31-6.46"/><path d="M1055.03,15.3c2.13-.68,2.97-1.05,4.05-1.77,2.12-1.39,3.42-3.86,3.42-6.39,0-4.27-3.42-7.14-8.45-7.14s-9.05,3.05-9.05,6.75c0,1.84,1.12,3.09,2.83,3.09,1.48,0,2.58-1.08,2.58-2.56,0-.77-.24-1.3-.96-2.02-.45-.4-.62-.73-.62-1.04,0-1.08,2.25-2.21,4.36-2.21,3.01,0,4.81,1.68,4.81,4.46,0,4.01-2.83,7.78-5.84,7.78-.15,0-.55-.03-1.04-.08q-1.31-.09-1.57-.09c-1,0-1.54,.45-1.54,1.26,0,.72,.5,1.16,1.3,1.16,.24,0,.55-.03,.91-.08,.62-.14,1.31-.19,1.7-.19,2.13,0,3.56,1.89,3.56,4.69,0,4.86-2.39,9.53-7.82,9.53-2.52,0-4.69-1.25-4.69-2.7,0-.49,.19-.67,.9-.99,1.3-.57,1.85-1.39,1.85-2.6,0-1.58-1.27-2.79-2.88-2.79-1.93,0-3.2,1.52-3.2,3.86,0,4.38,3.33,7.11,8.73,7.11,6.8,0,11.97-4.54,11.97-10.58,0-3.5-2.15-5.48-5.31-6.46"/></g></svg>