<?xml version="1.0" encoding="UTF-8"?><svg id="b" xmlns="http://www.w3.org/2000/svg" viewBox="0 0 2779.2 530.06"><g id="c"><line y1="53.73" x2="2779.2" y2="53.73" fill="none" stroke="#000" stroke-linejoin="bevel" stroke-width="2.73"/><line y1="78.53" x2="2779.2" y2="78.53" fill="none" stroke="#000" stroke-linejoin="bevel" stroke-width="2.73"/><line y1="103.33" x2="2779.2" y2="103.33" fill="none" stroke="#000" stroke-linejoin="bevel" stroke-width="2.73"/><line y1="128.13" x2="2779.2" y2="128.13" fill="none" stroke="#000" stroke-linejoin="bevel" stroke-width="2.73"/><line y1="152.93" x2="2779.2" y2="152.93" fill="none" stroke="#000" stroke-linejoin="bevel" stroke-width="2.73"/><line y1="387.41" x2="2779.2" y2="387.41" fill="none" stroke="#000" stroke-linejoin="bevel" stroke-width="2.73"/><line y1="412.21" x2="2779.2" y2="412.21" fill="none" stroke="#000" stroke-linejoin="bevel" stroke-width="2.73"/><line y1="437.01" x2="2779.2" y2="437.01" fill="none" stroke="#000" stroke-linejoin="bevel" stroke-width="2.73"/><line y1="461.81" x2="2779.2" y2="461.81" fill="none" stroke="#000" stroke-linejoin="bevel" stroke-width="2.73"/><line y1="486.61" x2="2779.2" y2="486.61" fill="none" stroke="#000" stroke-linejoin="bevel" stroke-width="2.73"/><path d="M263.56,88.32C324.95,7.29,597.65-7.43,670.22,63.52,598.14,.49,325.43,15.21,263.56,88.32" fill-rule="evenodd" stroke="#000" stroke-linecap="round" stroke-linejoin="round" stroke-width="1.24"/><path d="M1931.85,406.51c58.93-75.87,373.9-110.58,449.96-40.34-75.19-62.36-390.16-27.64-449.96,40.34" fill-rule="evenodd" stroke="#000" stroke-linecap="round" stroke-linejoin="round" stroke-width="1.24"/><path d="M1375.75,406.51c64.37-60.46,379.34-77.82,449.96-24.8-70.18-45.1-385.15-27.74-449.96,24.8" fill-rule="evenodd" stroke="#000" stroke-linecap="round" stroke-linejoin="round" stroke-width="1.24"/><path d="M819.65,406.51c64.37-60.46,379.35-77.82,449.97-24.8-70.19-45.1-385.16-27.74-449.97,24.8" fill-rule="evenodd" stroke="#000" stroke-linecap="round" stroke-linejoin="round" stroke-width="1.24"/><path d="M263.56,421.46c57.23-74.88,384.85-92.93,449.96-24.8-64.67-60.21-392.3-42.15-449.96,24.8" fill-rule="evenodd" stroke="#000" stroke-linecap="round" stroke-linejoin="round" stroke-width="1.24"/><path d="M2314.76,88.32c61.38-81.03,334.09-95.75,406.66-24.8-72.09-63.03-344.8-48.31-406.66,24.8" fill-rule="evenodd" stroke="#000" stroke-linecap="round" stroke-linejoin="round" stroke-width="1.24"/><path d="M1801.96,85.74c54.95-89.76,328.18-114.46,406.66-45.39-77.6-61.18-350.83-36.48-406.66,45.39" fill-rule="evenodd" stroke="#000" stroke-linecap="round" stroke-linejoin="round" stroke-width="1.24"/><path d="M1289.16,85.74c54.95-89.76,328.18-114.46,406.66-45.39-77.6-61.18-350.83-36.48-406.66,45.39" fill-rule="evenodd" stroke="#000" stroke-linecap="round" stroke-linejoin="round" stroke-width="1.24"/><path d="M776.36,88.32c61.38-81.03,334.09-95.75,406.66-24.8C1110.93,.49,838.23,15.21,776.36,88.32" fill-rule="evenodd" stroke="#000" stroke-linecap="round" stroke-linejoin="round" stroke-width="1.24"/><line x1="769.07" y1="386.05" x2="769.07" y2="487.97" fill="none" stroke="#000" stroke-linejoin="bevel" stroke-width="4.46"/><line x1="1325.16" y1="386.05" x2="1325.16" y2="487.97" fill="none" stroke="#000" stroke-linejoin="bevel" stroke-width="4.46"/><line x1="2437.36" y1="386.05" x2="2437.36" y2="487.97" fill="none" stroke="#000" stroke-linejoin="bevel" stroke-width="4.46"/><line x1="2763.33" y1="386.05" x2="2763.33" y2="487.97" fill="none" stroke="#000" stroke-linejoin="bevel" stroke-width="4.46"/><line x1="2776.97" y1="386.05" x2="2776.97" y2="487.97" fill="none" stroke="#000" stroke-linejoin="bevel" stroke-width="4.46"/><line x1="725.77" y1="52.37" x2="725.77" y2="154.29" fill="none" stroke="#000" stroke-linejoin="bevel" stroke-width="4.46"/><line x1="1238.57" y1="52.37" x2="1238.57" y2="154.29" fill="none" stroke="#000" stroke-linejoin="bevel" stroke-width="4.46"/><line x1="1751.37" y1="52.37" x2="1751.37" y2="154.29" fill="none" stroke="#000" stroke-linejoin="bevel" stroke-width="4.46"/><line x1="2264.17" y1="52.37" x2="2264.17" y2="154.29" fill="none" stroke="#000" stroke-linejoin="bevel" stroke-width="4.46"/><line x1="1881.26" y1="386.05" x2="1881.26" y2="487.97" fill="none" stroke="#000" stroke-linejoin="bevel" stroke-width="4.46"/><line x1="2776.97" y1="52.37" x2="2776.97" y2="154.29" fill="none" stroke="#000" stroke-linejoin="bevel" stroke-width="4.46"/><line x1="2164.67" y1="362.61" x2="2213.27" y2="362.61" fill="none" stroke="#000" stroke-linejoin="bevel" stroke-width="3.97"/><line x1="248.68" y1="119.9" x2="248.68" y2="183.84" fill="none" stroke="#000" stroke-linejoin="bevel" stroke-width="2.48"/><line x1="306.78" y1="95.1" x2="306.78" y2="179.77" fill="none" stroke="#000" stroke-linejoin="bevel" stroke-width="2.48"/><line x1="364.87" y1="70.3" x2="364.87" y2="175.69" fill="none" stroke="#000" stroke-linejoin="bevel" stroke-width="2.48"/><line x1="422.97" y1="95.1" x2="422.97" y2="171.62" fill="none" stroke="#000" stroke-linejoin="bevel" stroke-width="2.48"/><line x1="481.06" y1="119.9" x2="481.06" y2="183.84" fill="none" stroke="#000" stroke-linejoin="bevel" stroke-width="2.48"/><line x1="539.16" y1="95.1" x2="539.16" y2="179.77" fill="none" stroke="#000" stroke-linejoin="bevel" stroke-width="2.48"/><line x1="597.25" y1="70.3" x2="597.25" y2="175.69" fill="none" stroke="#000" stroke-linejoin="bevel" stroke-width="2.48"/><line x1="655.35" y1="95.1" x2="655.35" y2="171.62" fill="none" stroke="#000" stroke-linejoin="bevel" stroke-width="2.48"/><line x1="761.48" y1="119.9" x2="761.48" y2="183.84" fill="none" stroke="#000" stroke-linejoin="bevel" stroke-width="2.48"/><line x1="819.57" y1="95.1" x2="819.57" y2="179.77" fill="none" stroke="#000" stroke-linejoin="bevel" stroke-width="2.48"/><line x1="877.67" y1="70.3" x2="877.67" y2="175.69" fill="none" stroke="#000" stroke-linejoin="bevel" stroke-width="2.48"/><line x1="935.76" y1="95.1" x2="935.76" y2="171.62" fill="none" stroke="#000" stroke-linejoin="bevel" stroke-width="2.48"/><line x1="993.86" y1="119.9" x2="993.86" y2="183.84" fill="none" stroke="#000" stroke-linejoin="bevel" stroke-width="2.48"/><line x1="1051.95" y1="95.1" x2="1051.95" y2="179.77" fill="none" stroke="#000" stroke-linejoin="bevel" stroke-width="2.48"/><line x1="1110.05" y1="70.3" x2="1110.05" y2="175.69" fill="none" stroke="#000" stroke-linejoin="bevel" stroke-width="2.48"/><line x1="1168.14" y1="95.1" x2="1168.14" y2="171.62" fill="none" stroke="#000" stroke-linejoin="bevel" stroke-width="2.48"/><line x1="1274.28" y1="119.9" x2="1274.28" y2="183.8" fill="none" stroke="#000" stroke-linejoin="bevel" stroke-width="2.48"/><line x1="1332.37" y1="82.7" x2="1332.37" y2="177.69" fill="none" stroke="#000" stroke-linejoin="bevel" stroke-width="2.48"/><line x1="1390.47" y1="57.9" x2="1390.47" y2="171.57" fill="none" stroke="#000" stroke-linejoin="bevel" stroke-width="2.48"/><line x1="1448.56" y1="82.7" x2="1448.56" y2="165.46" fill="none" stroke="#000" stroke-linejoin="bevel" stroke-width="2.48"/><line x1="1506.66" y1="119.9" x2="1506.66" y2="183.8" fill="none" stroke="#000" stroke-linejoin="bevel" stroke-width="2.48"/><line x1="1564.75" y1="82.7" x2="1564.75" y2="177.69" fill="none" stroke="#000" stroke-linejoin="bevel" stroke-width="2.48"/><line x1="933.34" y1="403.98" x2="933.34" y2="501.09" fill="none" stroke="#000" stroke-linejoin="bevel" stroke-width="2.48"/><line x1="1680.94" y1="82.7" x2="1680.94" y2="165.46" fill="none" stroke="#000" stroke-linejoin="bevel" stroke-width="2.48"/><line x1="1787.08" y1="119.9" x2="1787.08" y2="183.8" fill="none" stroke="#000" stroke-linejoin="bevel" stroke-width="2.48"/><line x1="1845.17" y1="82.7" x2="1845.17" y2="177.69" fill="none" stroke="#000" stroke-linejoin="bevel" stroke-width="2.48"/><line x1="1903.27" y1="57.9" x2="1903.27" y2="171.57" fill="none" stroke="#000" stroke-linejoin="bevel" stroke-width="2.48"/><line x1="1961.36" y1="82.7" x2="1961.36" y2="165.46" fill="none" stroke="#000" stroke-linejoin="bevel" stroke-width="2.48"/><line x1="2019.46" y1="119.9" x2="2019.46" y2="183.8" fill="none" stroke="#000" stroke-linejoin="bevel" stroke-width="2.48"/><line x1="2077.55" y1="82.7" x2="2077.55" y2="177.69" fill="none" stroke="#000" stroke-linejoin="bevel" stroke-width="2.48"/><line x1="2135.65" y1="57.9" x2="2135.65" y2="171.57" fill="none" stroke="#000" stroke-linejoin="bevel" stroke-width="2.48"/><line x1="2193.74" y1="82.7" x2="2193.74" y2="165.46" fill="none" stroke="#000" stroke-linejoin="bevel" stroke-width="2.48"/><line x1="2299.88" y1="119.9" x2="2299.88" y2="183.84" fill="none" stroke="#000" stroke-linejoin="bevel" stroke-width="2.48"/><line x1="2357.97" y1="95.1" x2="2357.97" y2="179.77" fill="none" stroke="#000" stroke-linejoin="bevel" stroke-width="2.48"/><line x1="2416.07" y1="70.3" x2="2416.07" y2="175.69" fill="none" stroke="#000" stroke-linejoin="bevel" stroke-width="2.48"/><line x1="2474.16" y1="95.1" x2="2474.16" y2="171.62" fill="none" stroke="#000" stroke-linejoin="bevel" stroke-width="2.48"/><line x1="2532.26" y1="119.9" x2="2532.26" y2="183.84" fill="none" stroke="#000" stroke-linejoin="bevel" stroke-width="2.48"/><line x1="2590.35" y1="95.1" x2="2590.35" y2="179.77" fill="none" stroke="#000" stroke-linejoin="bevel" stroke-width="2.48"/><line x1="2648.45" y1="70.3" x2="2648.45" y2="175.69" fill="none" stroke="#000" stroke-linejoin="bevel" stroke-width="2.48"/><line x1="2706.54" y1="95.1" x2="2706.54" y2="171.62" fill="none" stroke="#000" stroke-linejoin="bevel" stroke-width="2.48"/><line x1="248.68" y1="453.58" x2="248.68" y2="517.53" fill="none" stroke="#000" stroke-linejoin="bevel" stroke-width="2.48"/><line x1="312.96" y1="428.78" x2="312.96" y2="513.45" fill="none" stroke="#000" stroke-linejoin="bevel" stroke-width="2.48"/><line x1="377.24" y1="403.98" x2="377.24" y2="509.37" fill="none" stroke="#000" stroke-linejoin="bevel" stroke-width="2.48"/><line x1="441.52" y1="428.78" x2="441.52" y2="505.29" fill="none" stroke="#000" stroke-linejoin="bevel" stroke-width="2.48"/><line x1="505.8" y1="453.58" x2="505.8" y2="517.53" fill="none" stroke="#000" stroke-linejoin="bevel" stroke-width="2.48"/><line x1="570.08" y1="428.78" x2="570.08" y2="513.45" fill="none" stroke="#000" stroke-linejoin="bevel" stroke-width="2.48"/><line x1="634.36" y1="403.98" x2="634.36" y2="509.37" fill="none" stroke="#000" stroke-linejoin="bevel" stroke-width="2.48"/><line x1="698.64" y1="428.78" x2="698.64" y2="505.29" fill="none" stroke="#000" stroke-linejoin="bevel" stroke-width="2.48"/><line x1="1622.85" y1="57.9" x2="1622.85" y2="171.57" fill="none" stroke="#000" stroke-linejoin="bevel" stroke-width="2.48"/><line x1="869.06" y1="416.38" x2="869.06" y2="503.13" fill="none" stroke="#000" stroke-linejoin="bevel" stroke-width="2.48"/><line x1="997.62" y1="416.38" x2="997.62" y2="499.05" fill="none" stroke="#000" stroke-linejoin="bevel" stroke-width="2.48"/><line x1="1061.9" y1="465.98" x2="1061.9" y2="523.65" fill="none" stroke="#000" stroke-linejoin="bevel" stroke-width="2.48"/><line x1="1126.18" y1="416.38" x2="1126.18" y2="515.49" fill="none" stroke="#000" stroke-linejoin="bevel" stroke-width="2.48"/><line x1="1190.46" y1="403.98" x2="1190.46" y2="507.33" fill="none" stroke="#000" stroke-linejoin="bevel" stroke-width="2.48"/><line x1="1254.74" y1="416.38" x2="1254.74" y2="499.17" fill="none" stroke="#000" stroke-linejoin="bevel" stroke-width="2.48"/><line x1="1360.88" y1="441.18" x2="1360.88" y2="505.17" fill="none" stroke="#000" stroke-linejoin="bevel" stroke-width="2.48"/><line x1="1425.16" y1="416.38" x2="1425.16" y2="503.13" fill="none" stroke="#000" stroke-linejoin="bevel" stroke-width="2.48"/><line x1="1489.44" y1="403.98" x2="1489.44" y2="501.09" fill="none" stroke="#000" stroke-linejoin="bevel" stroke-width="2.48"/><line x1="1553.72" y1="416.38" x2="1553.72" y2="499.05" fill="none" stroke="#000" stroke-linejoin="bevel" stroke-width="2.48"/><line x1="1618" y1="465.98" x2="1618" y2="523.65" fill="none" stroke="#000" stroke-linejoin="bevel" stroke-width="2.48"/><line x1="1682.28" y1="416.38" x2="1682.28" y2="515.49" fill="none" stroke="#000" stroke-linejoin="bevel" stroke-width="2.48"/><line x1="1746.56" y1="403.98" x2="1746.56" y2="507.33" fill="none" stroke="#000" stroke-linejoin="bevel" stroke-width="2.48"/><line x1="1810.84" y1="416.38" x2="1810.84" y2="499.17" fill="none" stroke="#000" stroke-linejoin="bevel" stroke-width="2.48"/><line x1="1916.98" y1="453.58" x2="1916.98" y2="517.49" fill="none" stroke="#000" stroke-linejoin="bevel" stroke-width="2.48"/><line x1="1981.26" y1="441.18" x2="1981.26" y2="511.37" fill="none" stroke="#000" stroke-linejoin="bevel" stroke-width="2.48"/><line x1="2045.54" y1="428.78" x2="2045.54" y2="505.25" fill="none" stroke="#000" stroke-linejoin="bevel" stroke-width="2.48"/><line x1="2109.82" y1="403.98" x2="2109.82" y2="499.13" fill="none" stroke="#000" stroke-linejoin="bevel" stroke-width="2.48"/><line x1="2174.1" y1="366.78" x2="2174.1" y2="492.81" fill="none" stroke="#000" stroke-linejoin="bevel" stroke-width="2.48"/><line x1="2238.38" y1="403.98" x2="2238.38" y2="492.81" fill="none" stroke="#000" stroke-linejoin="bevel" stroke-width="2.48"/><line x1="2302.66" y1="428.78" x2="2302.66" y2="492.81" fill="none" stroke="#000" stroke-linejoin="bevel" stroke-width="2.48"/><line x1="2366.94" y1="403.98" x2="2366.94" y2="492.81" fill="none" stroke="#000" stroke-linejoin="bevel" stroke-width="2.48"/><line x1="2502.83" y1="445.44" x2="2502.83" y2="368.81" fill="none" stroke="#000" stroke-linejoin="bevel" stroke-width="2.48"/><line x1="804.78" y1="441.18" x2="804.78" y2="505.17" fill="none" stroke="#000" stroke-linejoin="bevel" stroke-width="2.48"/><path d="M247.44,119.9c0,4.26,3.07,9.02,11.11,9.02,10.31,0,21.13-8.43,21.13-17.16,0-5.86-4.96-9.13-11.11-9.13-9.63,0-21.13,8.14-21.13,17.27"/><path d="M305.54,95.1c0,4.26,3.07,9.02,11.11,9.02,10.31,0,21.13-8.43,21.13-17.16,0-5.86-4.96-9.13-11.11-9.13-9.63,0-21.13,8.14-21.13,17.27"/><path d="M363.63,70.3c0,4.26,3.07,9.02,11.11,9.02,10.31,0,21.13-8.43,21.13-17.16,0-5.86-4.96-9.13-11.11-9.13-9.63,0-21.13,8.14-21.13,17.27"/><path d="M421.73,95.1c0,4.26,3.07,9.02,11.11,9.02,10.31,0,21.13-8.43,21.13-17.16,0-5.86-4.96-9.13-11.11-9.13-9.63,0-21.13,8.14-21.13,17.27"/><path d="M479.82,119.9c0,4.26,3.07,9.02,11.11,9.02,10.31,0,21.13-8.43,21.13-17.16,0-5.86-4.96-9.13-11.11-9.13-9.63,0-21.13,8.14-21.13,17.27"/><path d="M537.92,95.1c0,4.26,3.07,9.02,11.11,9.02,10.31,0,21.13-8.43,21.13-17.16,0-5.86-4.96-9.13-11.11-9.13-9.63,0-21.13,8.14-21.13,17.27"/><path d="M596.01,70.3c0,4.26,3.07,9.02,11.11,9.02,10.31,0,21.13-8.43,21.13-17.16,0-5.86-4.96-9.13-11.11-9.13-9.63,0-21.13,8.14-21.13,17.27"/><path d="M654.11,95.1c0,4.26,3.07,9.02,11.11,9.02,10.31,0,21.13-8.43,21.13-17.16,0-5.86-4.96-9.13-11.11-9.13-9.63,0-21.13,8.14-21.13,17.27"/><path d="M760.24,119.9c0,4.26,3.07,9.02,11.11,9.02,10.31,0,21.13-8.43,21.13-17.16,0-5.86-4.96-9.13-11.11-9.13-9.63,0-21.13,8.14-21.13,17.27"/><path d="M818.33,95.1c0,4.26,3.07,9.02,11.11,9.02,10.31,0,21.13-8.43,21.13-17.16,0-5.86-4.96-9.13-11.11-9.13-9.63,0-21.13,8.14-21.13,17.27"/><path d="M876.43,70.3c0,4.26,3.07,9.02,11.11,9.02,10.31,0,21.13-8.43,21.13-17.16,0-5.86-4.96-9.13-11.11-9.13-9.63,0-21.13,8.14-21.13,17.27"/><path d="M934.52,95.1c0,4.26,3.07,9.02,11.11,9.02,10.31,0,21.13-8.43,21.13-17.16,0-5.86-4.96-9.13-11.11-9.13-9.63,0-21.13,8.14-21.13,17.27"/><path d="M992.62,119.9c0,4.26,3.07,9.02,11.11,9.02,10.31,0,21.13-8.43,21.13-17.16,0-5.86-4.96-9.13-11.11-9.13-9.63,0-21.13,8.14-21.13,17.27"/><path d="M1050.71,95.1c0,4.26,3.07,9.02,11.11,9.02,10.31,0,21.13-8.43,21.13-17.16,0-5.86-4.96-9.13-11.11-9.13-9.63,0-21.13,8.14-21.13,17.27"/><path d="M1108.81,70.3c0,4.26,3.07,9.02,11.11,9.02,10.31,0,21.13-8.43,21.13-17.16,0-5.86-4.96-9.13-11.11-9.13-9.63,0-21.13,8.14-21.13,17.27"/><path d="M1166.9,95.1c0,4.26,3.07,9.02,11.11,9.02,10.31,0,21.13-8.43,21.13-17.16,0-5.86-4.96-9.13-11.11-9.13-9.63,0-21.13,8.14-21.13,17.27"/><path d="M1273.04,119.9c0,4.26,3.07,9.02,11.11,9.02,10.31,0,21.13-8.43,21.13-17.16,0-5.86-4.96-9.13-11.11-9.13-9.63,0-21.13,8.14-21.13,17.27"/><path d="M1331.13,82.7c0,4.26,3.07,9.02,11.11,9.02,10.31,0,21.13-8.43,21.13-17.16,0-5.86-4.96-9.13-11.11-9.13-9.63,0-21.13,8.14-21.13,17.27"/><path d="M1389.23,57.9c0,4.26,3.07,9.02,11.11,9.02,10.31,0,21.13-8.43,21.13-17.16,0-5.86-4.96-9.13-11.11-9.13-9.63,0-21.13,8.14-21.13,17.27"/><path d="M1447.32,82.7c0,4.26,3.07,9.02,11.11,9.02,10.31,0,21.13-8.43,21.13-17.16,0-5.86-4.96-9.13-11.11-9.13-9.63,0-21.13,8.14-21.13,17.27"/><path d="M1505.42,119.9c0,4.26,3.07,9.02,11.11,9.02,10.31,0,21.13-8.43,21.13-17.16,0-5.86-4.96-9.13-11.11-9.13-9.63,0-21.13,8.14-21.13,17.27"/><path d="M1621.61,57.9c0,4.26,3.07,9.02,11.11,9.02,10.31,0,21.13-8.43,21.13-17.16,0-5.86-4.96-9.13-11.11-9.13-9.63,0-21.13,8.14-21.13,17.27"/><path d="M1679.7,82.7c0,4.26,3.07,9.02,11.11,9.02,10.31,0,21.13-8.43,21.13-17.16,0-5.86-4.96-9.13-11.11-9.13-9.63,0-21.13,8.14-21.13,17.27"/><path d="M1785.84,119.9c0,4.26,3.07,9.02,11.11,9.02,10.31,0,21.13-8.43,21.13-17.16,0-5.86-4.96-9.13-11.11-9.13-9.63,0-21.13,8.14-21.13,17.27"/><path d="M1843.93,82.7c0,4.26,3.07,9.02,11.11,9.02,10.31,0,21.13-8.43,21.13-17.16,0-5.86-4.96-9.13-11.11-9.13-9.63,0-21.13,8.14-21.13,17.27"/><path d="M1902.03,57.9c0,4.26,3.07,9.02,11.11,9.02,10.31,0,21.13-8.43,21.13-17.16,0-5.86-4.96-9.13-11.11-9.13-9.63,0-21.13,8.14-21.13,17.27"/><path d="M1960.12,82.7c0,4.26,3.07,9.02,11.11,9.02,10.31,0,21.13-8.43,21.13-17.16,0-5.86-4.96-9.13-11.11-9.13-9.63,0-21.13,8.14-21.13,17.27"/><path d="M2018.22,119.9c0,4.26,3.07,9.02,11.11,9.02,10.31,0,21.13-8.43,21.13-17.16,0-5.86-4.96-9.13-11.11-9.13-9.63,0-21.13,8.14-21.13,17.27"/><path d="M2076.31,82.7c0,4.26,3.07,9.02,11.11,9.02,10.31,0,21.13-8.43,21.13-17.16,0-5.86-4.96-9.13-11.11-9.13-9.63,0-21.13,8.14-21.13,17.27"/><path d="M2134.41,57.9c0,4.26,3.07,9.02,11.11,9.02,10.31,0,21.13-8.43,21.13-17.16,0-5.86-4.96-9.13-11.11-9.13-9.63,0-21.13,8.14-21.13,17.27"/><path d="M2192.5,82.7c0,4.26,3.07,9.02,11.11,9.02,10.31,0,21.13-8.43,21.13-17.16,0-5.86-4.96-9.13-11.11-9.13-9.63,0-21.13,8.14-21.13,17.27"/><path d="M2298.64,119.9c0,4.26,3.07,9.02,11.11,9.02,10.31,0,21.13-8.43,21.13-17.16,0-5.86-4.96-9.13-11.11-9.13-9.63,0-21.13,8.14-21.13,17.27"/><path d="M2356.73,95.1c0,4.26,3.07,9.02,11.11,9.02,10.31,0,21.13-8.43,21.13-17.16,0-5.86-4.96-9.13-11.11-9.13-9.63,0-21.13,8.14-21.13,17.27"/><path d="M2414.83,70.3c0,4.26,3.07,9.02,11.11,9.02,10.31,0,21.13-8.43,21.13-17.16,0-5.86-4.96-9.13-11.11-9.13-9.63,0-21.13,8.14-21.13,17.27"/><path d="M2472.92,95.1c0,4.26,3.07,9.02,11.11,9.02,10.31,0,21.13-8.43,21.13-17.16,0-5.86-4.96-9.13-11.11-9.13-9.63,0-21.13,8.14-21.13,17.27"/><path d="M2531.02,119.9c0,4.26,3.07,9.02,11.11,9.02,10.31,0,21.13-8.43,21.13-17.16,0-5.86-4.96-9.13-11.11-9.13-9.63,0-21.13,8.14-21.13,17.27"/><path d="M2589.11,95.1c0,4.26,3.07,9.02,11.11,9.02,10.31,0,21.13-8.43,21.13-17.16,0-5.86-4.96-9.13-11.11-9.13-9.63,0-21.13,8.14-21.13,17.27"/><path d="M2647.21,70.3c0,4.26,3.07,9.02,11.11,9.02,10.31,0,21.13-8.43,21.13-17.16,0-5.86-4.96-9.13-11.11-9.13-9.63,0-21.13,8.14-21.13,17.27"/><path d="M2705.3,95.1c0,4.26,3.07,9.02,11.11,9.02,10.31,0,21.13-8.43,21.13-17.16,0-5.86-4.96-9.13-11.11-9.13-9.63,0-21.13,8.14-21.13,17.27"/><path d="M247.44,453.58c0,4.26,3.07,9.02,11.11,9.02,10.31,0,21.13-8.43,21.13-17.16,0-5.86-4.96-9.13-11.11-9.13-9.63,0-21.13,8.14-21.13,17.27"/><path d="M311.72,428.78c0,4.26,3.07,9.02,11.11,9.02,10.31,0,21.13-8.43,21.13-17.16,0-5.86-4.96-9.13-11.11-9.13-9.63,0-21.13,8.14-21.13,17.27"/><path d="M376,403.98c0,4.26,3.07,9.02,11.11,9.02,10.31,0,21.13-8.43,21.13-17.16,0-5.86-4.96-9.13-11.11-9.13-9.63,0-21.13,8.14-21.13,17.27"/><path d="M440.28,428.78c0,4.26,3.07,9.02,11.11,9.02,10.31,0,21.13-8.43,21.13-17.16,0-5.86-4.96-9.13-11.11-9.13-9.63,0-21.13,8.14-21.13,17.27"/><path d="M504.56,453.58c0,4.26,3.07,9.02,11.11,9.02,10.31,0,21.13-8.43,21.13-17.16,0-5.86-4.96-9.13-11.11-9.13-9.63,0-21.13,8.14-21.13,17.27"/><path d="M568.84,428.78c0,4.26,3.07,9.02,11.11,9.02,10.31,0,21.13-8.43,21.13-17.16,0-5.86-4.96-9.13-11.11-9.13-9.63,0-21.13,8.14-21.13,17.27"/><path d="M633.12,403.98c0,4.26,3.07,9.02,11.11,9.02,10.31,0,21.13-8.43,21.13-17.16,0-5.86-4.96-9.13-11.11-9.13-9.63,0-21.13,8.14-21.13,17.27"/><path d="M697.4,428.78c0,4.26,3.07,9.02,11.11,9.02,10.31,0,21.13-8.43,21.13-17.16,0-5.86-4.96-9.13-11.11-9.13-9.63,0-21.13,8.14-21.13,17.27"/><path d="M803.54,441.18c0,4.26,3.07,9.02,11.11,9.02,10.31,0,21.13-8.43,21.13-17.16,0-5.86-4.96-9.13-11.11-9.13-9.63,0-21.13,8.14-21.13,17.27"/><path d="M867.82,416.38c0,4.26,3.07,9.02,11.11,9.02,10.31,0,21.13-8.43,21.13-17.16,0-5.86-4.96-9.13-11.11-9.13-9.63,0-21.13,8.14-21.13,17.27"/><path d="M1563.51,82.7c0,4.26,3.07,9.02,11.11,9.02,10.31,0,21.13-8.43,21.13-17.16,0-5.86-4.96-9.13-11.11-9.13-9.63,0-21.13,8.14-21.13,17.27"/><path d="M932.1,403.98c0,4.26,3.07,9.02,11.11,9.02,10.31,0,21.13-8.43,21.13-17.16,0-5.86-4.96-9.13-11.11-9.13-9.63,0-21.13,8.14-21.13,17.27"/><path d="M996.38,416.38c0,4.26,3.07,9.02,11.11,9.02,10.31,0,21.13-8.43,21.13-17.16,0-5.86-4.96-9.13-11.11-9.13-9.63,0-21.13,8.14-21.13,17.27"/><path d="M1060.66,465.98c0,4.26,3.07,9.02,11.11,9.02,10.31,0,21.13-8.43,21.13-17.16,0-5.86-4.96-9.13-11.11-9.13-9.63,0-21.13,8.14-21.13,17.27"/><path d="M1124.94,416.38c0,4.26,3.07,9.02,11.11,9.02,10.31,0,21.13-8.43,21.13-17.16,0-5.86-4.96-9.13-11.11-9.13-9.63,0-21.13,8.14-21.13,17.27"/><path d="M1189.22,403.98c0,4.26,3.07,9.02,11.11,9.02,10.31,0,21.13-8.43,21.13-17.16,0-5.86-4.96-9.13-11.11-9.13-9.63,0-21.13,8.14-21.13,17.27"/><path d="M1253.5,416.38c0,4.26,3.07,9.02,11.11,9.02,10.31,0,21.13-8.43,21.13-17.16,0-5.86-4.96-9.13-11.11-9.13-9.63,0-21.13,8.14-21.13,17.27"/><path d="M1359.64,441.18c0,4.26,3.07,9.02,11.11,9.02,10.31,0,21.13-8.43,21.13-17.16,0-5.86-4.96-9.13-11.11-9.13-9.63,0-21.13,8.14-21.13,17.27"/><path d="M1423.92,416.38c0,4.26,3.07,9.02,11.11,9.02,10.31,0,21.13-8.43,21.13-17.16,0-5.86-4.96-9.13-11.11-9.13-9.63,0-21.13,8.14-21.13,17.27"/><path d="M1488.2,403.98c0,4.26,3.07,9.02,11.11,9.02,10.31,0,21.13-8.43,21.13-17.16,0-5.86-4.96-9.13-11.11-9.13-9.63,0-21.13,8.14-21.13,17.27"/><path d="M1552.48,416.38c0,4.26,3.07,9.02,11.11,9.02,10.31,0,21.13-8.43,21.13-17.16,0-5.86-4.96-9.13-11.11-9.13-9.63,0-21.13,8.14-21.13,17.27"/><path d="M1616.76,465.98c0,4.26,3.07,9.02,11.11,9.02,10.31,0,21.13-8.43,21.13-17.16,0-5.86-4.96-9.13-11.11-9.13-9.63,0-21.13,8.14-21.13,17.27"/><path d="M1681.04,416.38c0,4.26,3.07,9.02,11.11,9.02,10.31,0,21.13-8.43,21.13-17.16,0-5.86-4.96-9.13-11.11-9.13-9.63,0-21.13,8.14-21.13,17.27"/><path d="M1745.32,403.98c0,4.26,3.07,9.02,11.11,9.02,10.31,0,21.13-8.43,21.13-17.16,0-5.86-4.96-9.13-11.11-9.13-9.63,0-21.13,8.14-21.13,17.27"/><path d="M1809.6,416.38c0,4.26,3.07,9.02,11.11,9.02,10.31,0,21.13-8.43,21.13-17.16,0-5.86-4.96-9.13-11.11-9.13-9.63,0-21.13,8.14-21.13,17.27"/><path d="M1915.74,453.58c0,4.26,3.07,9.02,11.11,9.02,10.31,0,21.13-8.43,21.13-17.16,0-5.86-4.96-9.13-11.11-9.13-9.63,0-21.13,8.14-21.13,17.27"/><path d="M1980.02,441.18c0,4.26,3.07,9.02,11.11,9.02,10.31,0,21.13-8.43,21.13-17.16,0-5.86-4.96-9.13-11.11-9.13-9.63,0-21.13,8.14-21.13,17.27"/><path d="M2044.3,428.78c0,4.26,3.07,9.02,11.11,9.02,10.31,0,21.13-8.43,21.13-17.16,0-5.86-4.96-9.13-11.11-9.13-9.63,0-21.13,8.14-21.13,17.27"/><path d="M2108.58,403.98c0,4.26,3.07,9.02,11.11,9.02,10.31,0,21.13-8.43,21.13-17.16,0-5.86-4.96-9.13-11.11-9.13-9.63,0-21.13,8.14-21.13,17.27"/><path d="M2172.86,366.78c0,4.26,3.07,9.02,11.11,9.02,10.31,0,21.13-8.43,21.13-17.16,0-5.86-4.96-9.13-11.11-9.13-9.63,0-21.13,8.14-21.13,17.27"/><path d="M2237.14,403.98c0,4.26,3.07,9.02,11.11,9.02,10.31,0,21.13-8.43,21.13-17.16,0-5.86-4.96-9.13-11.11-9.13-9.63,0-21.13,8.14-21.13,17.27"/><path d="M2301.42,428.78c0,4.26,3.07,9.02,11.11,9.02,10.31,0,21.13-8.43,21.13-17.16,0-5.86-4.96-9.13-11.11-9.13-9.63,0-21.13,8.14-21.13,17.27"/><path d="M2365.7,403.98c0,4.26,3.07,9.02,11.11,9.02,10.31,0,21.13-8.43,21.13-17.16,0-5.86-4.96-9.13-11.11-9.13-9.63,0-21.13,8.14-21.13,17.27"/><path d="M2492.96,436.31c-9.63,0-21.13,8.04-21.13,17.27,0,4.26,3.07,9.02,11.11,9.02,10.31,0,21.13-8.43,21.13-17.16,0-5.86-4.96-9.13-11.11-9.13m-13.69,21.62c-3.27,0-3.97-2.67-3.97-3.57,0-4.87,16.66-13.39,21.33-13.39,2.39,0,3.97,1.4,3.97,3.57,0,4.96-16.77,13.39-21.33,13.39"/><path d="M30.8,179.02c0,6.56,4.96,15.19,18.35,15.19,4.67,0,8.74-1.19,12.31-3.38,5.36-3.77,6.74-10.32,6.74-16.57,0-3.86-.59-8.32-1.58-13.98-.29-1.98-.9-4.96-1.49-8.84,9.72-3.18,16.96-13.3,16.96-23.51,0-14.97-10.62-25.09-25.09-25.09-.99-5.95-1.98-11.81-2.77-17.36,10.42-11.02,17.65-23.42,17.65-39.18,0-9.04-2.77-16.37-4.37-19.95-2.37-5.05-5.25-8.53-7.04-8.53-.7,0-3.77,1.19-7.04,5.05-6.36,7.55-8.14,20.24-8.14,28.57,0,5.36,.5,10.23,2.19,21.34-.11,.09-5.27,5.35-7.35,7.04-9.04,8.34-21.53,20.43-21.53,40.28,0,18.54,16.17,33.12,34.63,33.12,2.87,0,5.55-.29,7.83-.7,1.89,9.53,3.08,16.48,3.08,21.73,0,10.32-5.36,15.78-15.38,15.78-2.39,0-4.46-.5-4.67-.5-.09-.11-.29-.2-.29-.29,0-.2,.2-.31,.5-.31,4.67-.79,9.32-4.76,9.32-11.1,0-5.36-4.06-11.02-11.5-11.02-6.94,0-11.31,5.66-11.31,12.2M51.54,46.58c.9-3.97,5.46-14.38,10.62-14.38,1.49,0,3.86,4.76,3.86,11.7,0,10.32-7.63,18.06-14.48,24.8-.59-3.97-1.08-7.83-1.08-12,0-3.67,.29-7.05,1.08-10.12m8.73,101.97c-1.98,.4-3.86,.6-5.75,.6-14.18,0-26.29-9.92-26.29-24.91,0-12.09,8.53-22.91,17.27-30.46,1.67-1.49,3.27-2.87,4.76-4.36,.88,5.35,1.58,10.01,2.28,14.09-9.04,2.68-15.17,12.2-15.17,21.53,0,6.94,5.46,16.46,13.39,16.46,.79,0,1.69-.4,1.69-1.29s-.99-1.39-2.19-2.19c-3.88-2.39-6.06-4.96-6.06-9.83,0-6.05,4.57-10.91,10.32-12.29l5.75,32.63m14.09-18.35c0,7.05-2.88,14.29-9.92,17.17-2.08-11.9-4.76-27.68-5.46-32.05,8.93,0,15.38,6.06,15.38,14.88"/><path d="M30.8,512.7c0,6.56,4.96,15.19,18.35,15.19,4.67,0,8.74-1.19,12.31-3.38,5.36-3.77,6.74-10.32,6.74-16.57,0-3.86-.59-8.32-1.58-13.98-.29-1.98-.9-4.96-1.49-8.84,9.72-3.18,16.96-13.3,16.96-23.51,0-14.97-10.62-25.09-25.09-25.09-.99-5.95-1.98-11.81-2.77-17.36,10.42-11.02,17.65-23.42,17.65-39.18,0-9.04-2.77-16.37-4.37-19.95-2.37-5.05-5.25-8.53-7.04-8.53-.7,0-3.77,1.19-7.04,5.05-6.36,7.55-8.14,20.24-8.14,28.57,0,5.36,.5,10.23,2.19,21.34-.11,.09-5.27,5.35-7.35,7.04-9.04,8.34-21.53,20.43-21.53,40.28,0,18.54,16.17,33.12,34.63,33.12,2.87,0,5.55-.29,7.83-.7,1.89,9.53,3.08,16.48,3.08,21.73,0,10.32-5.36,15.78-15.38,15.78-2.39,0-4.46-.5-4.67-.5-.09-.11-.29-.2-.29-.29,0-.2,.2-.31,.5-.31,4.67-.79,9.32-4.76,9.32-11.1,0-5.36-4.06-11.02-11.5-11.02-6.94,0-11.31,5.66-11.31,12.2m20.74-132.43c.9-3.97,5.46-14.38,10.62-14.38,1.49,0,3.86,4.76,3.86,11.7,0,10.32-7.63,18.06-14.48,24.8-.59-3.97-1.08-7.83-1.08-12,0-3.67,.29-7.05,1.08-10.12m8.73,101.97c-1.98,.4-3.86,.6-5.75,.6-14.18,0-26.29-9.92-26.29-24.91,0-12.09,8.53-22.91,17.27-30.46,1.67-1.49,3.27-2.87,4.76-4.36,.88,5.35,1.58,10.01,2.28,14.09-9.04,2.68-15.17,12.2-15.17,21.53,0,6.94,5.46,16.46,13.39,16.46,.79,0,1.69-.4,1.69-1.29s-.99-1.39-2.19-2.19c-3.88-2.39-6.06-4.96-6.06-9.83,0-6.05,4.57-10.91,10.32-12.29l5.75,32.63m14.09-18.35c0,7.05-2.88,14.29-9.92,17.17-2.08-11.9-4.76-27.68-5.46-32.05,8.93,0,15.38,6.06,15.38,14.88"/><path d="M129.99,43.31c.6-.09,1.1-.79,1.1-1.4v-5.84c0-.99-.7-1.39-1.6-1.39l-3.27,.7v-14.79h-2.77v15.38l-8.83,1.8v-14h-2.77v14.59l-3.88,.79c-.59,.11-1.09,.79-1.09,1.39v5.75c0,1.09,.79,1.4,1.69,1.4l3.27-.7v16.37l-3.88,.79c-.59,.09-1.09,.79-1.09,1.4v5.75c0,1.09,.79,1.38,1.69,1.38l3.27-.68v14.77h2.77v-15.38l8.83-1.78v14h2.77v-14.59l3.77-.7c.6-.11,1.1-.79,1.1-1.39v-5.84c0-.99-.7-1.4-1.6-1.4l-3.27,.7v-16.37l3.77-.7m-15.38,3.07l8.83-1.78v16.37l-8.83,1.89v-16.48"/><path d="M157.16,80.51c.6-.09,1.1-.79,1.1-1.4v-5.84c0-.99-.7-1.39-1.6-1.39l-3.27,.7v-14.79h-2.77v15.38l-8.83,1.8v-14h-2.77v14.59l-3.88,.79c-.59,.11-1.09,.79-1.09,1.39v5.75c0,1.09,.79,1.4,1.69,1.4l3.27-.7v16.37l-3.88,.79c-.59,.09-1.09,.79-1.09,1.4v5.75c0,1.09,.79,1.38,1.69,1.38l3.27-.68v14.77h2.77v-15.38l8.83-1.78v14h2.77v-14.59l3.77-.7c.6-.11,1.1-.79,1.1-1.39v-5.84c0-.99-.7-1.4-1.6-1.4l-3.27,.7v-16.37l3.77-.7m-15.38,3.07l8.83-1.78v16.37l-8.83,1.89v-16.48"/><path d="M184.33,30.91c.6-.09,1.1-.79,1.1-1.4v-5.84c0-.99-.7-1.39-1.6-1.39l-3.27,.7V8.19h-2.77v15.38l-8.83,1.8V11.37h-2.77v14.59l-3.88,.79c-.59,.11-1.09,.79-1.09,1.39v5.75c0,1.09,.79,1.4,1.69,1.4l3.27-.7v16.37l-3.88,.79c-.59,.09-1.09,.79-1.09,1.4v5.75c0,1.09,.79,1.38,1.69,1.38l3.27-.68v14.77h2.77v-15.38l8.83-1.78v14h2.77v-14.59l3.77-.7c.6-.11,1.1-.79,1.1-1.39v-5.84c0-.99-.7-1.4-1.6-1.4l-3.27,.7V31.61l3.77-.7m-15.38,3.07l8.83-1.78v16.37l-8.83,1.89v-16.48"/><path d="M129.99,376.99c.6-.09,1.1-.79,1.1-1.4v-5.84c0-.99-.7-1.39-1.6-1.39l-3.27,.7v-14.79h-2.77v15.38l-8.83,1.8v-14h-2.77v14.59l-3.88,.79c-.59,.11-1.09,.79-1.09,1.39v5.75c0,1.09,.79,1.4,1.69,1.4l3.27-.7v16.37l-3.88,.79c-.59,.09-1.09,.79-1.09,1.4v5.75c0,1.09,.79,1.38,1.69,1.38l3.27-.68v14.77h2.77v-15.38l8.83-1.78v14h2.77v-14.59l3.77-.7c.6-.11,1.1-.79,1.1-1.39v-5.84c0-.99-.7-1.4-1.6-1.4l-3.27,.7v-16.37l3.77-.7m-15.38,3.07l8.83-1.78v16.37l-8.83,1.89v-16.48"/><path d="M157.16,414.19c.6-.09,1.1-.79,1.1-1.4v-5.84c0-.99-.7-1.39-1.6-1.39l-3.27,.7v-14.79h-2.77v15.38l-8.83,1.8v-14h-2.77v14.59l-3.88,.79c-.59,.11-1.09,.79-1.09,1.39v5.75c0,1.09,.79,1.4,1.69,1.4l3.27-.7v16.37l-3.88,.79c-.59,.09-1.09,.79-1.09,1.4v5.75c0,1.09,.79,1.38,1.69,1.38l3.27-.68v14.77h2.77v-15.38l8.83-1.78v14h2.77v-14.59l3.77-.7c.6-.11,1.1-.79,1.1-1.39v-5.84c0-.99-.7-1.4-1.6-1.4l-3.27,.7v-16.37l3.77-.7m-15.38,3.07l8.83-1.78v16.37l-8.83,1.89v-16.48"/><path d="M184.33,364.59c.6-.09,1.1-.79,1.1-1.4v-5.84c0-.99-.7-1.39-1.6-1.39l-3.27,.7v-14.79h-2.77v15.38l-8.83,1.8v-14h-2.77v14.59l-3.88,.79c-.59,.11-1.09,.79-1.09,1.39v5.75c0,1.09,.79,1.4,1.69,1.4l3.27-.7v16.37l-3.88,.79c-.59,.09-1.09,.79-1.09,1.4v5.75c0,1.09,.79,1.38,1.69,1.38l3.27-.68v14.77h2.77v-15.38l8.83-1.78v14h2.77v-14.59l3.77-.7c.6-.11,1.1-.79,1.1-1.39v-5.84c0-.99-.7-1.4-1.6-1.4l-3.27,.7v-16.37l3.77-.7m-15.38,3.07l8.83-1.78v16.37l-8.83,1.89v-16.48"/><path d="M2616.46,436.02q0,1.4,1.4,1.4h29.47q1.38,0,1.38-1.4v-10.71q0-1.39-1.38-1.39h-29.47q-1.4,0-1.4,1.39v10.71"/><path d="M2510.67,333.1c-9.32-10.12-17.56-10.71-22.71-10.71s-13.3,.59-22.63,10.71c-4.85,5.36-8.23,15.97-8.23,21.33,0,1.89,.4,3.18,1.4,3.18,2.77,0,1.38-8.54,9.72-16.97,7.33-7.33,17.16-7.44,19.55-7.44h.39c2.39,0,12.21,.11,19.55,7.44,8.34,8.43,6.94,16.97,9.72,16.97,.99,0,1.39-1.19,1.39-3.18,0-5.36-3.27-16.07-8.14-21.33m-29.56,18.94c0,3.78,3.07,6.85,6.85,6.85s6.84-3.07,6.84-6.85-3.07-6.84-6.84-6.84-6.85,3.07-6.85,6.84"/><path d="M1505.42,177.7l176.76-18.6v12.46l-176.76,18.6v-12.46" fill-rule="evenodd"/><path d="M1060.66,517.56l195.32-24.8v12.5l-195.32,24.8v-12.5" fill-rule="evenodd"/><path d="M1785.84,177.7l176.76-18.6v12.46l-176.76,18.6v-12.46" fill-rule="evenodd"/><path d="M1359.64,499.01l195.32-6.2v12.4l-195.32,6.2v-12.4" fill-rule="evenodd"/><path d="M2018.22,177.7l176.76-18.6v12.46l-176.76,18.6v-12.46" fill-rule="evenodd"/><path d="M1616.76,517.56l195.32-24.8v12.5l-195.32,24.8v-12.5" fill-rule="evenodd"/><path d="M247.44,177.72l176.76-12.4v12.43l-176.76,12.4v-12.43" fill-rule="evenodd"/><path d="M2298.64,177.72l176.76-12.4v12.43l-176.76,12.4v-12.43" fill-rule="evenodd"/><path d="M1915.74,511.38l195.32-18.6v12.46l-195.32,18.6v-12.46" fill-rule="evenodd"/><path d="M479.82,177.72l176.76-12.4v12.43l-176.76,12.4v-12.43" fill-rule="evenodd"/><path d="M2531.02,177.72l176.76-12.4v12.43l-176.76,12.4v-12.43" fill-rule="evenodd"/><path d="M2172.86,486.61h195.32v12.4h-195.32v-12.4" fill-rule="evenodd"/><path d="M760.24,177.72l176.76-12.4v12.43l-176.76,12.4v-12.43" fill-rule="evenodd"/><path d="M504.56,511.4l195.32-12.4v12.42l-195.32,12.4v-12.42" fill-rule="evenodd"/><path d="M1273.04,177.7l176.76-18.6v12.46l-176.76,18.6v-12.46" fill-rule="evenodd"/><path d="M247.44,511.4l195.32-12.4v12.42l-195.32,12.4v-12.42" fill-rule="evenodd"/><path d="M803.54,499.01l195.32-6.2v12.4l-195.32,6.2v-12.4" fill-rule="evenodd"/><path d="M992.62,177.72l176.76-12.4v12.43l-176.76,12.4v-12.43" fill-rule="evenodd"/></g></svg>