<?xml version="1.0" encoding="UTF-8"?><svg id="b" xmlns="http://www.w3.org/2000/svg" viewBox="0 0 2275.2 572.7"><g id="c"><line y1="44.56" x2="2275.2" y2="44.56" fill="none" stroke="#000" stroke-linejoin="bevel" stroke-width="2.73"/><line y1="69.36" x2="2275.2" y2="69.36" fill="none" stroke="#000" stroke-linejoin="bevel" stroke-width="2.73"/><line y1="94.16" x2="2275.2" y2="94.16" fill="none" stroke="#000" stroke-linejoin="bevel" stroke-width="2.73"/><line y1="118.96" x2="2275.2" y2="118.96" fill="none" stroke="#000" stroke-linejoin="bevel" stroke-width="2.73"/><line y1="143.76" x2="2275.2" y2="143.76" fill="none" stroke="#000" stroke-linejoin="bevel" stroke-width="2.73"/><line y1="378.24" x2="2275.2" y2="378.24" fill="none" stroke="#000" stroke-linejoin="bevel" stroke-width="2.73"/><line y1="403.04" x2="2275.2" y2="403.04" fill="none" stroke="#000" stroke-linejoin="bevel" stroke-width="2.73"/><line y1="427.84" x2="2275.2" y2="427.84" fill="none" stroke="#000" stroke-linejoin="bevel" stroke-width="2.73"/><line y1="452.64" x2="2275.2" y2="452.64" fill="none" stroke="#000" stroke-linejoin="bevel" stroke-width="2.73"/><line y1="477.44" x2="2275.2" y2="477.44" fill="none" stroke="#000" stroke-linejoin="bevel" stroke-width="2.73"/><path d="M2047.29,34.64c29.16-18.05,69.09-3.54,79.86,29.02-13.48-25.1-53.41-39.6-79.86-29.02" fill-rule="evenodd" stroke="#000" stroke-linecap="round" stroke-linejoin="round" stroke-width="1.24"/><path d="M260.28,166.08c23.74,13.98,63.66,5.67,79.85-16.62-14.57,30.05-54.5,38.36-79.85,16.62" fill-rule="evenodd" stroke="#000" stroke-linecap="round" stroke-linejoin="round" stroke-width="1.24"/><path d="M499.84,124.66c14.39,24.15,54.31,36.55,79.85,24.8-27.89,19.33-67.82,6.93-79.85-24.8" fill-rule="evenodd" stroke="#000" stroke-linecap="round" stroke-linejoin="round" stroke-width="1.24"/><path d="M776.1,88.46c12.03-31.73,51.96-44.13,79.85-24.8-25.54-11.75-65.47,.65-79.85,24.8" fill-rule="evenodd" stroke="#000" stroke-linecap="round" stroke-linejoin="round" stroke-width="1.24"/><path d="M1015.65,34.64c29.16-18.05,69.09-3.54,79.86,29.02-13.48-25.1-53.41-39.6-79.86-29.02" fill-rule="evenodd" stroke="#000" stroke-linecap="round" stroke-linejoin="round" stroke-width="1.24"/><path d="M1291.92,63.66c10.77-32.55,50.69-47.06,79.85-29.02-26.45-10.59-66.37,3.92-79.85,29.02" fill-rule="evenodd" stroke="#000" stroke-linecap="round" stroke-linejoin="round" stroke-width="1.24"/><path d="M1531.47,9.84c27.9-19.33,67.82-6.93,79.86,24.8-14.39-24.15-54.32-36.55-79.86-24.8" fill-rule="evenodd" stroke="#000" stroke-linecap="round" stroke-linejoin="round" stroke-width="1.24"/><path d="M1807.74,88.46c12.03-31.73,51.95-44.13,79.85-24.8-25.54-11.75-65.47,.65-79.85,24.8" fill-rule="evenodd" stroke="#000" stroke-linecap="round" stroke-linejoin="round" stroke-width="1.24"/><path d="M260.28,499.76c26.4,15.54,72.03,7.23,91.25-16.62-17.81,31.65-63.43,39.96-91.25,16.62" fill-rule="evenodd" stroke="#000" stroke-linecap="round" stroke-linejoin="round" stroke-width="1.24"/><path d="M534.04,458.34c17.5,25.74,63.13,38.14,91.25,24.8-30.2,20.99-75.83,8.59-91.25-24.8" fill-rule="evenodd" stroke="#000" stroke-linecap="round" stroke-linejoin="round" stroke-width="1.24"/><path d="M844.5,536.96c30.64,9.91,76.27-8.69,91.25-37.2-11.98,35.86-57.61,54.46-91.25,37.2" fill-rule="evenodd" stroke="#000" stroke-linecap="round" stroke-linejoin="round" stroke-width="1.24"/><path d="M1118.25,483.14c19.23,23.84,64.86,32.15,91.26,16.62-27.82,23.34-73.45,15.03-91.26-16.62" fill-rule="evenodd" stroke="#000" stroke-linecap="round" stroke-linejoin="round" stroke-width="1.24"/><path d="M1428.72,561.76c28.12,13.34,73.74,.94,91.25-24.8-15.42,33.4-61.05,45.79-91.25,24.8" fill-rule="evenodd" stroke="#000" stroke-linecap="round" stroke-linejoin="round" stroke-width="1.24"/><path d="M1702.47,499.76c26.4,15.54,72.03,7.23,91.26-16.62-17.81,31.65-63.44,39.96-91.26,16.62" fill-rule="evenodd" stroke="#000" stroke-linecap="round" stroke-linejoin="round" stroke-width="1.24"/><line x1="793.91" y1="376.88" x2="793.91" y2="478.8" fill="none" stroke="#000" stroke-linejoin="bevel" stroke-width="4.46"/><line x1="725.51" y1="43.2" x2="725.51" y2="145.12" fill="none" stroke="#000" stroke-linejoin="bevel" stroke-width="4.46"/><line x1="1378.13" y1="376.88" x2="1378.13" y2="478.8" fill="none" stroke="#000" stroke-linejoin="bevel" stroke-width="4.46"/><line x1="1241.33" y1="43.2" x2="1241.33" y2="145.12" fill="none" stroke="#000" stroke-linejoin="bevel" stroke-width="4.46"/><line x1="1962.35" y1="376.88" x2="1962.35" y2="478.8" fill="none" stroke="#000" stroke-linejoin="bevel" stroke-width="4.46"/><line x1="2259.33" y1="376.88" x2="2259.33" y2="478.8" fill="none" stroke="#000" stroke-linejoin="bevel" stroke-width="4.46"/><line x1="2272.97" y1="376.88" x2="2272.97" y2="478.8" fill="none" stroke="#000" stroke-linejoin="bevel" stroke-width="4.46"/><line x1="1757.15" y1="43.2" x2="1757.15" y2="145.12" fill="none" stroke="#000" stroke-linejoin="bevel" stroke-width="4.46"/><line x1="2272.97" y1="43.2" x2="2272.97" y2="145.12" fill="none" stroke="#000" stroke-linejoin="bevel" stroke-width="4.46"/><line x1="1495.67" y1="502.24" x2="1544.27" y2="502.24" fill="none" stroke="#000" stroke-linejoin="bevel" stroke-width="3.97"/><line x1="1404.42" y1="527.04" x2="1453.02" y2="527.04" fill="none" stroke="#000" stroke-linejoin="bevel" stroke-width="3.97"/><line x1="820.2" y1="502.24" x2="868.8" y2="502.24" fill="none" stroke="#000" stroke-linejoin="bevel" stroke-width="3.97"/><line x1="1276.46" y1="502.24" x2="1325.06" y2="502.24" fill="none" stroke="#000" stroke-linejoin="bevel" stroke-width="3.97"/><line x1="1404.42" y1="502.24" x2="1453.02" y2="502.24" fill="none" stroke="#000" stroke-linejoin="bevel" stroke-width="3.97"/><line x1="761.22" y1="123.13" x2="761.22" y2="180.82" fill="none" stroke="#000" stroke-linejoin="bevel" stroke-width="2.48"/><line x1="841.07" y1="98.33" x2="841.07" y2="171.66" fill="none" stroke="#000" stroke-linejoin="bevel" stroke-width="2.48"/><line x1="920.93" y1="61.13" x2="920.93" y2="162.5" fill="none" stroke="#000" stroke-linejoin="bevel" stroke-width="2.48"/><line x1="1000.78" y1="61.13" x2="1000.78" y2="162.5" fill="none" stroke="#000" stroke-linejoin="bevel" stroke-width="2.48"/><line x1="1080.63" y1="98.33" x2="1080.63" y2="171.66" fill="none" stroke="#000" stroke-linejoin="bevel" stroke-width="2.48"/><line x1="1160.48" y1="123.13" x2="1160.48" y2="180.82" fill="none" stroke="#000" stroke-linejoin="bevel" stroke-width="2.48"/><line x1="1277.04" y1="98.33" x2="1277.04" y2="162.22" fill="none" stroke="#000" stroke-linejoin="bevel" stroke-width="2.48"/><line x1="1356.89" y1="61.13" x2="1356.89" y2="153.06" fill="none" stroke="#000" stroke-linejoin="bevel" stroke-width="2.48"/><line x1="1436.75" y1="36.33" x2="1436.75" y2="143.9" fill="none" stroke="#000" stroke-linejoin="bevel" stroke-width="2.48"/><line x1="1516.6" y1="36.33" x2="1516.6" y2="143.9" fill="none" stroke="#000" stroke-linejoin="bevel" stroke-width="2.48"/><line x1="1596.45" y1="61.13" x2="1596.45" y2="153.06" fill="none" stroke="#000" stroke-linejoin="bevel" stroke-width="2.48"/><line x1="1676.3" y1="98.33" x2="1676.3" y2="162.22" fill="none" stroke="#000" stroke-linejoin="bevel" stroke-width="2.48"/><line x1="1792.86" y1="123.13" x2="1792.86" y2="180.82" fill="none" stroke="#000" stroke-linejoin="bevel" stroke-width="2.48"/><line x1="1872.71" y1="98.33" x2="1872.71" y2="171.66" fill="none" stroke="#000" stroke-linejoin="bevel" stroke-width="2.48"/><line x1="1952.56" y1="61.13" x2="1952.56" y2="162.5" fill="none" stroke="#000" stroke-linejoin="bevel" stroke-width="2.48"/><line x1="2032.42" y1="61.13" x2="2032.42" y2="162.5" fill="none" stroke="#000" stroke-linejoin="bevel" stroke-width="2.48"/><line x1="2112.27" y1="98.33" x2="2112.27" y2="171.66" fill="none" stroke="#000" stroke-linejoin="bevel" stroke-width="2.48"/><line x1="2192.12" y1="123.13" x2="2192.12" y2="180.82" fill="none" stroke="#000" stroke-linejoin="bevel" stroke-width="2.48"/><line x1="275.16" y1="473.47" x2="275.16" y2="378.12" fill="none" stroke="#000" stroke-linejoin="bevel" stroke-width="2.48"/><line x1="366.41" y1="448.67" x2="366.41" y2="368.94" fill="none" stroke="#000" stroke-linejoin="bevel" stroke-width="2.48"/><line x1="457.66" y1="423.87" x2="457.66" y2="359.76" fill="none" stroke="#000" stroke-linejoin="bevel" stroke-width="2.48"/><line x1="548.91" y1="423.87" x2="548.91" y2="359.76" fill="none" stroke="#000" stroke-linejoin="bevel" stroke-width="2.48"/><line x1="640.17" y1="448.67" x2="640.17" y2="368.94" fill="none" stroke="#000" stroke-linejoin="bevel" stroke-width="2.48"/><line x1="731.42" y1="473.47" x2="731.42" y2="378.12" fill="none" stroke="#000" stroke-linejoin="bevel" stroke-width="2.48"/><line x1="859.37" y1="510.67" x2="859.37" y2="384.4" fill="none" stroke="#000" stroke-linejoin="bevel" stroke-width="2.48"/><line x1="950.63" y1="473.47" x2="950.63" y2="381.34" fill="none" stroke="#000" stroke-linejoin="bevel" stroke-width="2.48"/><line x1="1041.88" y1="448.67" x2="1041.88" y2="378.28" fill="none" stroke="#000" stroke-linejoin="bevel" stroke-width="2.48"/><line x1="1133.13" y1="448.67" x2="1133.13" y2="378.28" fill="none" stroke="#000" stroke-linejoin="bevel" stroke-width="2.48"/><line x1="1224.38" y1="473.47" x2="1224.38" y2="381.34" fill="none" stroke="#000" stroke-linejoin="bevel" stroke-width="2.48"/><line x1="1315.64" y1="510.67" x2="1315.64" y2="384.4" fill="none" stroke="#000" stroke-linejoin="bevel" stroke-width="2.48"/><line x1="1443.59" y1="535.47" x2="1443.59" y2="409.2" fill="none" stroke="#000" stroke-linejoin="bevel" stroke-width="2.48"/><line x1="1534.84" y1="510.67" x2="1534.84" y2="406.14" fill="none" stroke="#000" stroke-linejoin="bevel" stroke-width="2.48"/><line x1="1626.1" y1="473.47" x2="1626.1" y2="403.08" fill="none" stroke="#000" stroke-linejoin="bevel" stroke-width="2.48"/><line x1="1717.35" y1="473.47" x2="1717.35" y2="378.12" fill="none" stroke="#000" stroke-linejoin="bevel" stroke-width="2.48"/><line x1="1808.6" y1="448.67" x2="1808.6" y2="368.94" fill="none" stroke="#000" stroke-linejoin="bevel" stroke-width="2.48"/><line x1="1899.85" y1="423.87" x2="1899.85" y2="359.76" fill="none" stroke="#000" stroke-linejoin="bevel" stroke-width="2.48"/><line x1="275.16" y1="139.79" x2="275.16" y2="44.42" fill="none" stroke="#000" stroke-linejoin="bevel" stroke-width="2.48"/><line x1="1998.06" y1="394.81" x2="1998.06" y2="477.44" fill="none" stroke="#000" stroke-linejoin="bevel" stroke-width="2.48"/><line x1="355.01" y1="114.99" x2="355.01" y2="35.26" fill="none" stroke="#000" stroke-linejoin="bevel" stroke-width="2.48"/><line x1="434.86" y1="90.19" x2="434.86" y2="26.1" fill="none" stroke="#000" stroke-linejoin="bevel" stroke-width="2.48"/><line x1="514.71" y1="90.19" x2="514.71" y2="26.1" fill="none" stroke="#000" stroke-linejoin="bevel" stroke-width="2.48"/><line x1="594.57" y1="114.99" x2="594.57" y2="35.26" fill="none" stroke="#000" stroke-linejoin="bevel" stroke-width="2.48"/><line x1="674.42" y1="139.79" x2="674.42" y2="44.42" fill="none" stroke="#000" stroke-linejoin="bevel" stroke-width="2.48"/><path d="M244.16,147.93c0,4.26,3.07,9.02,11.11,9.02,10.31,0,21.13-8.43,21.13-17.16,0-5.86-4.96-9.13-11.11-9.13-9.63,0-21.13,8.14-21.13,17.27"/><path d="M324.02,123.13c0,4.26,3.07,9.02,11.11,9.02,10.31,0,21.13-8.43,21.13-17.16,0-5.86-4.96-9.13-11.11-9.13-9.63,0-21.13,8.14-21.13,17.27"/><path d="M403.87,98.33c0,4.26,3.07,9.02,11.11,9.02,10.31,0,21.13-8.43,21.13-17.16,0-5.86-4.96-9.13-11.11-9.13-9.63,0-21.13,8.14-21.13,17.27"/><path d="M483.72,98.33c0,4.26,3.07,9.02,11.11,9.02,10.31,0,21.13-8.43,21.13-17.16,0-5.86-4.96-9.13-11.11-9.13-9.63,0-21.13,8.14-21.13,17.27"/><path d="M563.57,123.13c0,4.26,3.07,9.02,11.11,9.02,10.31,0,21.13-8.43,21.13-17.16,0-5.86-4.96-9.13-11.11-9.13-9.63,0-21.13,8.14-21.13,17.27"/><path d="M643.43,147.93c0,4.26,3.07,9.02,11.11,9.02,10.31,0,21.13-8.43,21.13-17.16,0-5.86-4.96-9.13-11.11-9.13-9.63,0-21.13,8.14-21.13,17.27"/><path d="M759.98,123.13c0,4.26,3.07,9.02,11.11,9.02,10.31,0,21.13-8.43,21.13-17.16,0-5.86-4.96-9.13-11.11-9.13-9.63,0-21.13,8.14-21.13,17.27"/><path d="M839.83,98.33c0,4.26,3.07,9.02,11.11,9.02,10.31,0,21.13-8.43,21.13-17.16,0-5.86-4.96-9.13-11.11-9.13-9.63,0-21.13,8.14-21.13,17.27"/><path d="M919.69,61.13c0,4.26,3.07,9.02,11.11,9.02,10.31,0,21.13-8.43,21.13-17.16,0-5.86-4.96-9.13-11.11-9.13-9.63,0-21.13,8.14-21.13,17.27"/><path d="M999.54,61.13c0,4.26,3.07,9.02,11.11,9.02,10.31,0,21.13-8.43,21.13-17.16,0-5.86-4.96-9.13-11.11-9.13-9.63,0-21.13,8.14-21.13,17.27"/><path d="M1079.39,98.33c0,4.26,3.07,9.02,11.11,9.02,10.31,0,21.13-8.43,21.13-17.16,0-5.86-4.96-9.13-11.11-9.13-9.63,0-21.13,8.14-21.13,17.27"/><path d="M1159.24,123.13c0,4.26,3.07,9.02,11.11,9.02,10.31,0,21.13-8.43,21.13-17.16,0-5.86-4.96-9.13-11.11-9.13-9.63,0-21.13,8.14-21.13,17.27"/><path d="M1275.8,98.33c0,4.26,3.07,9.02,11.11,9.02,10.31,0,21.13-8.43,21.13-17.16,0-5.86-4.96-9.13-11.11-9.13-9.63,0-21.13,8.14-21.13,17.27"/><path d="M1355.65,61.13c0,4.26,3.07,9.02,11.11,9.02,10.31,0,21.13-8.43,21.13-17.16,0-5.86-4.96-9.13-11.11-9.13-9.63,0-21.13,8.14-21.13,17.27"/><path d="M1435.51,36.33c0,4.26,3.07,9.02,11.11,9.02,10.31,0,21.13-8.43,21.13-17.16,0-5.86-4.96-9.13-11.11-9.13-9.63,0-21.13,8.14-21.13,17.27"/><path d="M1515.36,36.33c0,4.26,3.07,9.02,11.11,9.02,10.31,0,21.13-8.43,21.13-17.16,0-5.86-4.96-9.13-11.11-9.13-9.63,0-21.13,8.14-21.13,17.27"/><path d="M1595.21,61.13c0,4.26,3.07,9.02,11.11,9.02,10.31,0,21.13-8.43,21.13-17.16,0-5.86-4.96-9.13-11.11-9.13-9.63,0-21.13,8.14-21.13,17.27"/><path d="M1675.06,98.33c0,4.26,3.07,9.02,11.11,9.02,10.31,0,21.13-8.43,21.13-17.16,0-5.86-4.96-9.13-11.11-9.13-9.63,0-21.13,8.14-21.13,17.27"/><path d="M1791.62,123.13c0,4.26,3.07,9.02,11.11,9.02,10.31,0,21.13-8.43,21.13-17.16,0-5.86-4.96-9.13-11.11-9.13-9.63,0-21.13,8.14-21.13,17.27"/><path d="M1871.47,98.33c0,4.26,3.07,9.02,11.11,9.02,10.31,0,21.13-8.43,21.13-17.16,0-5.86-4.96-9.13-11.11-9.13-9.63,0-21.13,8.14-21.13,17.27"/><path d="M1951.32,61.13c0,4.26,3.07,9.02,11.11,9.02,10.31,0,21.13-8.43,21.13-17.16,0-5.86-4.96-9.13-11.11-9.13-9.63,0-21.13,8.14-21.13,17.27"/><path d="M2031.18,61.13c0,4.26,3.07,9.02,11.11,9.02,10.31,0,21.13-8.43,21.13-17.16,0-5.86-4.96-9.13-11.11-9.13-9.63,0-21.13,8.14-21.13,17.27"/><path d="M2111.03,98.33c0,4.26,3.07,9.02,11.11,9.02,10.31,0,21.13-8.43,21.13-17.16,0-5.86-4.96-9.13-11.11-9.13-9.63,0-21.13,8.14-21.13,17.27"/><path d="M2190.88,123.13c0,4.26,3.07,9.02,11.11,9.02,10.31,0,21.13-8.43,21.13-17.16,0-5.86-4.96-9.13-11.11-9.13-9.63,0-21.13,8.14-21.13,17.27"/><path d="M244.16,481.61c0,4.26,3.07,9.02,11.11,9.02,10.31,0,21.13-8.43,21.13-17.16,0-5.86-4.96-9.13-11.11-9.13-9.63,0-21.13,8.14-21.13,17.27"/><path d="M335.42,456.81c0,4.26,3.07,9.02,11.11,9.02,10.31,0,21.13-8.43,21.13-17.16,0-5.86-4.96-9.13-11.11-9.13-9.63,0-21.13,8.14-21.13,17.27"/><path d="M426.67,432.01c0,4.26,3.07,9.02,11.11,9.02,10.31,0,21.13-8.43,21.13-17.16,0-5.86-4.96-9.13-11.11-9.13-9.63,0-21.13,8.14-21.13,17.27"/><path d="M517.92,432.01c0,4.26,3.07,9.02,11.11,9.02,10.31,0,21.13-8.43,21.13-17.16,0-5.86-4.96-9.13-11.11-9.13-9.63,0-21.13,8.14-21.13,17.27"/><path d="M609.17,456.81c0,4.26,3.07,9.02,11.11,9.02,10.31,0,21.13-8.43,21.13-17.16,0-5.86-4.96-9.13-11.11-9.13-9.63,0-21.13,8.14-21.13,17.27"/><path d="M700.43,481.61c0,4.26,3.07,9.02,11.11,9.02,10.31,0,21.13-8.43,21.13-17.16,0-5.86-4.96-9.13-11.11-9.13-9.63,0-21.13,8.14-21.13,17.27"/><path d="M828.38,518.81c0,4.26,3.07,9.02,11.11,9.02,10.31,0,21.13-8.43,21.13-17.16,0-5.86-4.96-9.13-11.11-9.13-9.63,0-21.13,8.14-21.13,17.27"/><path d="M919.63,481.61c0,4.26,3.07,9.02,11.11,9.02,10.31,0,21.13-8.43,21.13-17.16,0-5.86-4.96-9.13-11.11-9.13-9.63,0-21.13,8.14-21.13,17.27"/><path d="M1010.89,456.81c0,4.26,3.07,9.02,11.11,9.02,10.31,0,21.13-8.43,21.13-17.16,0-5.86-4.96-9.13-11.11-9.13-9.63,0-21.13,8.14-21.13,17.27"/><path d="M1102.14,456.81c0,4.26,3.07,9.02,11.11,9.02,10.31,0,21.13-8.43,21.13-17.16,0-5.86-4.96-9.13-11.11-9.13-9.63,0-21.13,8.14-21.13,17.27"/><path d="M1193.39,481.61c0,4.26,3.07,9.02,11.11,9.02,10.31,0,21.13-8.43,21.13-17.16,0-5.86-4.96-9.13-11.11-9.13-9.63,0-21.13,8.14-21.13,17.27"/><path d="M1284.64,518.81c0,4.26,3.07,9.02,11.11,9.02,10.31,0,21.13-8.43,21.13-17.16,0-5.86-4.96-9.13-11.11-9.13-9.63,0-21.13,8.14-21.13,17.27"/><path d="M1412.6,543.61c0,4.26,3.07,9.02,11.11,9.02,10.31,0,21.13-8.43,21.13-17.16,0-5.86-4.96-9.13-11.11-9.13-9.63,0-21.13,8.14-21.13,17.27"/><path d="M1503.85,518.81c0,4.26,3.07,9.02,11.11,9.02,10.31,0,21.13-8.43,21.13-17.16,0-5.86-4.96-9.13-11.11-9.13-9.63,0-21.13,8.14-21.13,17.27"/><path d="M1595.1,481.61c0,4.26,3.07,9.02,11.11,9.02,10.31,0,21.13-8.43,21.13-17.16,0-5.86-4.96-9.13-11.11-9.13-9.63,0-21.13,8.14-21.13,17.27"/><path d="M1686.36,481.61c0,4.26,3.07,9.02,11.11,9.02,10.31,0,21.13-8.43,21.13-17.16,0-5.86-4.96-9.13-11.11-9.13-9.63,0-21.13,8.14-21.13,17.27"/><path d="M1777.61,456.81c0,4.26,3.07,9.02,11.11,9.02,10.31,0,21.13-8.43,21.13-17.16,0-5.86-4.96-9.13-11.11-9.13-9.63,0-21.13,8.14-21.13,17.27"/><path d="M1868.86,432.01c0,4.26,3.07,9.02,11.11,9.02,10.31,0,21.13-8.43,21.13-17.16,0-5.86-4.96-9.13-11.11-9.13-9.63,0-21.13,8.14-21.13,17.27"/><path d="M2017.95,377.54c-9.63,0-21.13,8.04-21.13,17.27,0,4.26,3.07,9.02,11.11,9.02,10.31,0,21.13-8.43,21.13-17.16,0-5.86-4.96-9.13-11.11-9.13m-13.69,21.62c-3.27,0-3.97-2.67-3.97-3.56,0-4.87,16.66-13.39,21.33-13.39,2.39,0,3.97,1.39,3.97,3.56,0,4.96-16.77,13.39-21.33,13.39"/><path d="M30.8,503.53c0,6.56,4.96,15.19,18.35,15.19,4.67,0,8.74-1.19,12.31-3.38,5.36-3.77,6.74-10.32,6.74-16.57,0-3.86-.59-8.32-1.58-13.98-.29-1.98-.9-4.96-1.49-8.84,9.72-3.18,16.96-13.3,16.96-23.51,0-14.97-10.62-25.09-25.09-25.09-.99-5.95-1.98-11.81-2.77-17.36,10.42-11.02,17.65-23.42,17.65-39.18,0-9.04-2.77-16.37-4.37-19.95-2.37-5.05-5.25-8.53-7.04-8.53-.7,0-3.77,1.19-7.04,5.05-6.36,7.55-8.14,20.24-8.14,28.57,0,5.36,.5,10.23,2.19,21.34-.11,.09-5.27,5.35-7.35,7.04-9.04,8.34-21.53,20.43-21.53,40.28,0,18.54,16.17,33.12,34.63,33.12,2.87,0,5.55-.29,7.83-.7,1.89,9.53,3.08,16.48,3.08,21.73,0,10.32-5.36,15.78-15.38,15.78-2.39,0-4.46-.5-4.67-.5-.09-.11-.29-.2-.29-.29,0-.2,.2-.31,.5-.31,4.67-.79,9.32-4.76,9.32-11.1,0-5.36-4.06-11.02-11.5-11.02-6.94,0-11.31,5.66-11.31,12.2m20.74-132.43c.9-3.97,5.46-14.38,10.62-14.38,1.49,0,3.86,4.76,3.86,11.7,0,10.32-7.63,18.06-14.48,24.8-.59-3.97-1.08-7.83-1.08-12,0-3.67,.29-7.05,1.08-10.12m8.73,101.97c-1.98,.4-3.86,.6-5.75,.6-14.18,0-26.29-9.92-26.29-24.91,0-12.09,8.53-22.91,17.27-30.46,1.67-1.49,3.27-2.87,4.76-4.36,.88,5.35,1.58,10.01,2.28,14.09-9.04,2.68-15.17,12.2-15.17,21.53,0,6.94,5.46,16.46,13.39,16.46,.79,0,1.69-.4,1.69-1.29s-.99-1.39-2.19-2.19c-3.88-2.39-6.06-4.96-6.06-9.83,0-6.04,4.57-10.91,10.32-12.29l5.75,32.63m14.09-18.35c0,7.05-2.88,14.29-9.92,17.17-2.08-11.9-4.76-27.68-5.46-32.05,8.93,0,15.38,6.06,15.38,14.88"/><path d="M30.8,169.85c0,6.56,4.96,15.19,18.35,15.19,4.67,0,8.74-1.19,12.31-3.38,5.36-3.77,6.74-10.32,6.74-16.57,0-3.86-.59-8.32-1.58-13.98-.29-1.98-.9-4.96-1.49-8.84,9.72-3.18,16.96-13.3,16.96-23.51,0-14.97-10.62-25.09-25.09-25.09-.99-5.95-1.98-11.81-2.77-17.36,10.42-11.02,17.65-23.42,17.65-39.18,0-9.04-2.77-16.37-4.37-19.95-2.37-5.05-5.25-8.53-7.04-8.53-.7,0-3.77,1.19-7.04,5.05-6.36,7.55-8.14,20.24-8.14,28.57,0,5.36,.5,10.23,2.19,21.34-.11,.09-5.27,5.35-7.35,7.04-9.04,8.34-21.53,20.43-21.53,40.28,0,18.54,16.17,33.12,34.63,33.12,2.87,0,5.55-.29,7.83-.7,1.89,9.53,3.08,16.48,3.08,21.73,0,10.32-5.36,15.78-15.38,15.78-2.39,0-4.46-.5-4.67-.5-.09-.11-.29-.2-.29-.29,0-.2,.2-.31,.5-.31,4.67-.79,9.32-4.76,9.32-11.1,0-5.36-4.06-11.02-11.5-11.02-6.94,0-11.31,5.66-11.31,12.2M51.54,37.41c.9-3.97,5.46-14.38,10.62-14.38,1.49,0,3.86,4.76,3.86,11.7,0,10.32-7.63,18.06-14.48,24.8-.59-3.97-1.08-7.83-1.08-12,0-3.67,.29-7.05,1.08-10.12m8.73,101.97c-1.98,.4-3.86,.6-5.75,.6-14.18,0-26.29-9.92-26.29-24.91,0-12.09,8.53-22.91,17.27-30.46,1.67-1.49,3.27-2.87,4.76-4.36,.88,5.35,1.58,10.01,2.28,14.09-9.04,2.68-15.17,12.2-15.17,21.53,0,6.94,5.46,16.46,13.39,16.46,.79,0,1.69-.4,1.69-1.29s-.99-1.39-2.19-2.19c-3.88-2.39-6.06-4.96-6.06-9.83,0-6.04,4.57-10.91,10.32-12.29l5.75,32.63m14.09-18.35c0,7.05-2.88,14.29-9.92,17.17-2.08-11.9-4.76-27.68-5.46-32.05,8.93,0,15.38,6.06,15.38,14.88"/><path d="M118.78,78.78c-4.96,0-7.84,3.07-8.34,3.67l.4-31.85c0-.79-.59-1.38-1.39-1.38h-1.18c-.81,0-1.39,.59-1.39,1.38l.5,59.63c0,.79,.59,1.38,1.39,1.38,.19,0,.59-.09,.79-.19,8.53-4.28,17.45-12.4,17.45-22.63,0-5.15-2.37-10.01-8.23-10.01m-8.63,27.98l.29-19.34c.2-.9,1.69-3.77,5.66-3.77,3.58,0,3.87,3.36,3.87,5.46,0,8.82-3.27,12.49-9.83,17.65"/><path d="M146.36,41.58c-4.96,0-7.84,3.07-8.34,3.67l.4-31.85c0-.79-.59-1.38-1.39-1.38h-1.18c-.81,0-1.39,.59-1.39,1.38l.5,59.63c0,.79,.59,1.38,1.39,1.38,.19,0,.59-.09,.79-.19,8.53-4.28,17.45-12.4,17.45-22.63,0-5.15-2.37-10.01-8.23-10.01m-8.63,27.98l.29-19.34c.2-.9,1.69-3.77,5.66-3.77,3.58,0,3.87,3.36,3.87,5.46,0,8.82-3.27,12.49-9.83,17.65"/><path d="M173.93,91.18c-4.96,0-7.84,3.07-8.34,3.67l.4-31.85c0-.79-.59-1.38-1.39-1.38h-1.18c-.81,0-1.39,.59-1.39,1.38l.5,59.63c0,.79,.59,1.38,1.39,1.38,.19,0,.59-.09,.79-.19,8.53-4.28,17.45-12.4,17.45-22.63,0-5.15-2.37-10.01-8.23-10.01m-8.63,27.98l.29-19.34c.2-.9,1.69-3.77,5.66-3.77,3.58,0,3.87,3.36,3.87,5.46,0,8.82-3.27,12.49-9.83,17.65"/><path d="M118.78,412.46c-4.96,0-7.84,3.07-8.34,3.67l.4-31.85c0-.79-.59-1.38-1.39-1.38h-1.18c-.81,0-1.39,.59-1.39,1.38l.5,59.63c0,.79,.59,1.38,1.39,1.38,.19,0,.59-.09,.79-.19,8.53-4.28,17.45-12.4,17.45-22.63,0-5.15-2.37-10.01-8.23-10.01m-8.63,27.98l.29-19.34c.2-.9,1.69-3.77,5.66-3.77,3.58,0,3.87,3.36,3.87,5.46,0,8.82-3.27,12.49-9.83,17.65"/><path d="M146.36,375.26c-4.96,0-7.84,3.07-8.34,3.67l.4-31.85c0-.79-.59-1.38-1.39-1.38h-1.18c-.81,0-1.39,.59-1.39,1.38l.5,59.63c0,.79,.59,1.38,1.39,1.38,.19,0,.59-.09,.79-.19,8.53-4.28,17.45-12.4,17.45-22.63,0-5.15-2.37-10.01-8.23-10.01m-8.63,27.98l.29-19.34c.2-.9,1.69-3.77,5.66-3.77,3.58,0,3.87,3.36,3.87,5.46,0,8.82-3.27,12.49-9.83,17.65"/><path d="M173.93,424.86c-4.96,0-7.84,3.07-8.34,3.67l.4-31.85c0-.79-.59-1.38-1.39-1.38h-1.18c-.81,0-1.39,.59-1.39,1.38l.5,59.63c0,.79,.59,1.38,1.39,1.38,.19,0,.59-.09,.79-.19,8.53-4.28,17.45-12.4,17.45-22.63,0-5.15-2.37-10.01-8.23-10.01m-8.63,27.98l.29-19.34c.2-.9,1.69-3.77,5.66-3.77,3.58,0,3.87,3.36,3.87,5.46,0,8.82-3.27,12.49-9.83,17.65"/><path d="M2035.66,340.05c-9.32-10.12-17.56-10.71-22.71-10.71s-13.3,.59-22.63,10.71c-4.85,5.36-8.23,15.96-8.23,21.33,0,1.89,.4,3.18,1.39,3.18,2.77,0,1.38-8.54,9.72-16.97,7.33-7.33,17.16-7.44,19.55-7.44h.39c2.39,0,12.21,.11,19.55,7.44,8.34,8.43,6.94,16.97,9.72,16.97,.99,0,1.39-1.19,1.39-3.18,0-5.36-3.27-16.07-8.14-21.33m-29.56,18.94c0,3.78,3.07,6.85,6.85,6.85s6.84-3.07,6.84-6.85-3.07-6.84-6.84-6.84-6.85,3.07-6.85,6.84"/><path d="M1716.11,372.01l184.98-18.6v12.46l-184.98,18.6v-12.46" fill-rule="evenodd"/><path d="M1442.35,403.04l184.99-6.2v12.41l-184.99,6.2v-12.41" fill-rule="evenodd"/><path d="M273.92,372.01l184.99-18.6v12.46l-184.99,18.6v-12.46" fill-rule="evenodd"/><path d="M1131.89,372.04l184.99,6.2v12.41l-184.99-6.2v-12.41" fill-rule="evenodd"/><path d="M858.13,378.24l184.99-6.2v12.41l-184.99,6.2v-12.41" fill-rule="evenodd"/><path d="M547.67,353.41l184.99,18.6v12.46l-184.99-18.6v-12.46" fill-rule="evenodd"/><path d="M2031.18,156.12l162.18,18.6v12.48l-162.18-18.6v-12.48" fill-rule="evenodd"/><path d="M1791.62,174.72l162.18-18.6v12.48l-162.18,18.6v-12.48" fill-rule="evenodd"/><path d="M1515.36,137.52l162.18,18.6v12.48l-162.18-18.6v-12.48" fill-rule="evenodd"/><path d="M1275.8,156.12l162.19-18.6v12.48l-162.19,18.6v-12.48" fill-rule="evenodd"/><path d="M999.54,156.12l162.18,18.6v12.48l-162.18-18.6v-12.48" fill-rule="evenodd"/><path d="M759.98,174.72l162.19-18.6v12.48l-162.19,18.6v-12.48" fill-rule="evenodd"/><path d="M513.47,19.72l162.18,18.6v12.48l-162.18-18.6v-12.48" fill-rule="evenodd"/><path d="M273.92,38.32l162.18-18.6v12.48l-162.18,18.6v-12.48" fill-rule="evenodd"/><path d="M2041.45,390.64c0,2.77,2.19,4.96,4.96,4.96s4.96-2.19,4.96-4.96-2.19-4.96-4.96-4.96-4.96,2.19-4.96,4.96"/></g></svg>