<?xml version="1.0" encoding="UTF-8"?><svg id="b" xmlns="http://www.w3.org/2000/svg" viewBox="0 0 2275.2 561.27"><g id="c"><line y1="45.54" x2="2275.2" y2="45.54" fill="none" stroke="#000" stroke-linejoin="bevel" stroke-width="2.73"/><line y1="70.34" x2="2275.2" y2="70.34" fill="none" stroke="#000" stroke-linejoin="bevel" stroke-width="2.73"/><line y1="95.14" x2="2275.2" y2="95.14" fill="none" stroke="#000" stroke-linejoin="bevel" stroke-width="2.73"/><line y1="119.94" x2="2275.2" y2="119.94" fill="none" stroke="#000" stroke-linejoin="bevel" stroke-width="2.73"/><line y1="144.74" x2="2275.2" y2="144.74" fill="none" stroke="#000" stroke-linejoin="bevel" stroke-width="2.73"/><line y1="379.22" x2="2275.2" y2="379.22" fill="none" stroke="#000" stroke-linejoin="bevel" stroke-width="2.73"/><line y1="404.02" x2="2275.2" y2="404.02" fill="none" stroke="#000" stroke-linejoin="bevel" stroke-width="2.73"/><line y1="428.82" x2="2275.2" y2="428.82" fill="none" stroke="#000" stroke-linejoin="bevel" stroke-width="2.73"/><line y1="453.62" x2="2275.2" y2="453.62" fill="none" stroke="#000" stroke-linejoin="bevel" stroke-width="2.73"/><line y1="478.42" x2="2275.2" y2="478.42" fill="none" stroke="#000" stroke-linejoin="bevel" stroke-width="2.73"/><path d="M1808.56,85.22c11.99-31.71,51.84-44.11,79.71-24.8-25.51-11.74-65.37,.66-79.71,24.8" fill-rule="evenodd" stroke="#000" stroke-linecap="round" stroke-linejoin="round" stroke-width="1.24"/><path d="M263.56,500.74c30.61,9.89,76.16-8.71,91.1-37.2-11.94,35.84-57.48,54.44-91.1,37.2" fill-rule="evenodd" stroke="#000" stroke-linecap="round" stroke-linejoin="round" stroke-width="1.24"/><path d="M2047.7,35.62c27.87-19.31,67.73-6.91,79.72,24.8-14.35-24.14-54.21-36.54-79.72-24.8" fill-rule="evenodd" stroke="#000" stroke-linecap="round" stroke-linejoin="round" stroke-width="1.24"/><path d="M536.84,438.74c17.46,25.72,63.01,38.12,91.1,24.8-30.17,20.97-75.72,8.57-91.1-24.8" fill-rule="evenodd" stroke="#000" stroke-linecap="round" stroke-linejoin="round" stroke-width="1.24"/><path d="M778.56,191.86c25.5,11.73,65.36-.67,79.71-24.8-11.99,31.71-51.85,44.11-79.71,24.8" fill-rule="evenodd" stroke="#000" stroke-linecap="round" stroke-linejoin="round" stroke-width="1.24"/><path d="M502.71,167.06c14.35,24.13,54.21,36.53,79.72,24.8-27.87,19.31-67.72,6.91-79.72-24.8" fill-rule="evenodd" stroke="#000" stroke-linecap="round" stroke-linejoin="round" stroke-width="1.24"/><path d="M1703.39,500.74c17.46,25.72,63.01,38.12,91.1,24.8-30.17,20.97-75.72,8.57-91.1-24.8" fill-rule="evenodd" stroke="#000" stroke-linecap="round" stroke-linejoin="round" stroke-width="1.24"/><path d="M1017.7,129.86c11.73,26.87,51.59,45.47,79.72,37.2-31.48,15.46-71.34-3.14-79.72-37.2" fill-rule="evenodd" stroke="#000" stroke-linecap="round" stroke-linejoin="round" stroke-width="1.24"/><path d="M263.56,216.66c25.51,11.73,65.37-.67,79.71-24.8-11.99,31.71-51.85,44.11-79.71,24.8" fill-rule="evenodd" stroke="#000" stroke-linecap="round" stroke-linejoin="round" stroke-width="1.24"/><path d="M1430.11,550.34c28.08,13.32,73.63,.92,91.09-24.8-15.37,33.37-60.92,45.77-91.09,24.8" fill-rule="evenodd" stroke="#000" stroke-linecap="round" stroke-linejoin="round" stroke-width="1.24"/><path d="M1120.12,463.54c14.93,28.49,60.48,47.09,91.09,37.2-33.61,17.24-79.16-1.36-91.09-37.2" fill-rule="evenodd" stroke="#000" stroke-linecap="round" stroke-linejoin="round" stroke-width="1.24"/><path d="M1293.56,167.06c28.12,8.27,67.98-10.33,79.71-37.2-8.37,34.06-48.23,52.66-79.71,37.2" fill-rule="evenodd" stroke="#000" stroke-linecap="round" stroke-linejoin="round" stroke-width="1.24"/><path d="M846.83,525.54c28.09,13.32,73.64,.92,91.1-24.8-15.38,33.37-60.93,45.77-91.1,24.8" fill-rule="evenodd" stroke="#000" stroke-linecap="round" stroke-linejoin="round" stroke-width="1.24"/><path d="M1532.7,105.06c14.35,24.13,54.21,36.53,79.72,24.8-27.87,19.31-67.72,6.91-79.72-24.8" fill-rule="evenodd" stroke="#000" stroke-linecap="round" stroke-linejoin="round" stroke-width="1.24"/><line x1="727.97" y1="44.18" x2="727.97" y2="146.1" fill="none" stroke="#000" stroke-linejoin="bevel" stroke-width="4.46"/><line x1="2259.33" y1="377.86" x2="2259.33" y2="479.78" fill="none" stroke="#000" stroke-linejoin="bevel" stroke-width="4.46"/><line x1="2272.97" y1="377.86" x2="2272.97" y2="479.78" fill="none" stroke="#000" stroke-linejoin="bevel" stroke-width="4.46"/><line x1="796.24" y1="377.86" x2="796.24" y2="479.78" fill="none" stroke="#000" stroke-linejoin="bevel" stroke-width="4.46"/><line x1="1962.79" y1="377.86" x2="1962.79" y2="479.78" fill="none" stroke="#000" stroke-linejoin="bevel" stroke-width="4.46"/><line x1="1757.97" y1="44.18" x2="1757.97" y2="146.1" fill="none" stroke="#000" stroke-linejoin="bevel" stroke-width="4.46"/><line x1="1379.52" y1="377.86" x2="1379.52" y2="479.78" fill="none" stroke="#000" stroke-linejoin="bevel" stroke-width="4.46"/><line x1="1242.97" y1="44.18" x2="1242.97" y2="146.1" fill="none" stroke="#000" stroke-linejoin="bevel" stroke-width="4.46"/><line x1="2272.97" y1="44.18" x2="2272.97" y2="146.1" fill="none" stroke="#000" stroke-linejoin="bevel" stroke-width="4.46"/><line x1="558.12" y1="169.54" x2="606.72" y2="169.54" fill="none" stroke="#000" stroke-linejoin="bevel" stroke-width="3.97"/><line x1="1278.01" y1="503.22" x2="1326.61" y2="503.22" fill="none" stroke="#000" stroke-linejoin="bevel" stroke-width="3.97"/><line x1="318.97" y1="169.54" x2="367.57" y2="169.54" fill="none" stroke="#000" stroke-linejoin="bevel" stroke-width="3.97"/><line x1="1405.81" y1="528.02" x2="1454.41" y2="528.02" fill="none" stroke="#000" stroke-linejoin="bevel" stroke-width="3.97"/><line x1="637.84" y1="169.54" x2="686.44" y2="169.54" fill="none" stroke="#000" stroke-linejoin="bevel" stroke-width="3.97"/><line x1="637.84" y1="194.34" x2="686.44" y2="194.34" fill="none" stroke="#000" stroke-linejoin="bevel" stroke-width="3.97"/><line x1="239.26" y1="169.54" x2="287.86" y2="169.54" fill="none" stroke="#000" stroke-linejoin="bevel" stroke-width="3.97"/><line x1="1405.81" y1="503.22" x2="1454.41" y2="503.22" fill="none" stroke="#000" stroke-linejoin="bevel" stroke-width="3.97"/><line x1="1152.84" y1="169.54" x2="1201.44" y2="169.54" fill="none" stroke="#000" stroke-linejoin="bevel" stroke-width="3.97"/><line x1="822.53" y1="503.22" x2="871.13" y2="503.22" fill="none" stroke="#000" stroke-linejoin="bevel" stroke-width="3.97"/><line x1="1496.9" y1="503.22" x2="1545.5" y2="503.22" fill="none" stroke="#000" stroke-linejoin="bevel" stroke-width="3.97"/><line x1="1770.19" y1="503.22" x2="1818.79" y2="503.22" fill="none" stroke="#000" stroke-linejoin="bevel" stroke-width="3.97"/><line x1="1861.28" y1="528.02" x2="1909.88" y2="528.02" fill="none" stroke="#000" stroke-linejoin="bevel" stroke-width="3.97"/><line x1="1861.28" y1="503.22" x2="1909.88" y2="503.22" fill="none" stroke="#000" stroke-linejoin="bevel" stroke-width="3.97"/><line x1="239.26" y1="194.34" x2="287.86" y2="194.34" fill="none" stroke="#000" stroke-linejoin="bevel" stroke-width="3.97"/><line x1="754.26" y1="169.54" x2="802.86" y2="169.54" fill="none" stroke="#000" stroke-linejoin="bevel" stroke-width="3.97"/><line x1="1547.58" y1="78.77" x2="1547.58" y2="14.68" fill="none" stroke="#000" stroke-linejoin="bevel" stroke-width="2.48"/><line x1="1627.3" y1="103.57" x2="1627.3" y2="23.84" fill="none" stroke="#000" stroke-linejoin="bevel" stroke-width="2.48"/><line x1="1707.01" y1="140.77" x2="1707.01" y2="33" fill="none" stroke="#000" stroke-linejoin="bevel" stroke-width="2.48"/><line x1="1793.68" y1="111.71" x2="1793.68" y2="175.6" fill="none" stroke="#000" stroke-linejoin="bevel" stroke-width="2.48"/><line x1="1873.39" y1="86.91" x2="1873.39" y2="166.44" fill="none" stroke="#000" stroke-linejoin="bevel" stroke-width="2.48"/><line x1="1953.11" y1="62.11" x2="1953.11" y2="157.28" fill="none" stroke="#000" stroke-linejoin="bevel" stroke-width="2.48"/><line x1="2032.83" y1="62.11" x2="2032.83" y2="157.28" fill="none" stroke="#000" stroke-linejoin="bevel" stroke-width="2.48"/><line x1="2112.54" y1="86.91" x2="2112.54" y2="166.44" fill="none" stroke="#000" stroke-linejoin="bevel" stroke-width="2.48"/><line x1="2192.26" y1="111.71" x2="2192.26" y2="175.6" fill="none" stroke="#000" stroke-linejoin="bevel" stroke-width="2.48"/><line x1="278.43" y1="474.45" x2="278.43" y2="366.69" fill="none" stroke="#000" stroke-linejoin="bevel" stroke-width="2.48"/><line x1="369.53" y1="437.25" x2="369.53" y2="357.52" fill="none" stroke="#000" stroke-linejoin="bevel" stroke-width="2.48"/><line x1="460.63" y1="412.45" x2="460.63" y2="348.34" fill="none" stroke="#000" stroke-linejoin="bevel" stroke-width="2.48"/><line x1="551.72" y1="412.45" x2="551.72" y2="348.34" fill="none" stroke="#000" stroke-linejoin="bevel" stroke-width="2.48"/><line x1="642.82" y1="437.25" x2="642.82" y2="357.52" fill="none" stroke="#000" stroke-linejoin="bevel" stroke-width="2.48"/><line x1="733.91" y1="474.45" x2="733.91" y2="366.69" fill="none" stroke="#000" stroke-linejoin="bevel" stroke-width="2.48"/><line x1="861.71" y1="499.25" x2="861.71" y2="385.34" fill="none" stroke="#000" stroke-linejoin="bevel" stroke-width="2.48"/><line x1="1043.9" y1="437.25" x2="1043.9" y2="373.1" fill="none" stroke="#000" stroke-linejoin="bevel" stroke-width="2.48"/><line x1="1134.99" y1="437.25" x2="1134.99" y2="373.1" fill="none" stroke="#000" stroke-linejoin="bevel" stroke-width="2.48"/><line x1="1226.09" y1="474.45" x2="1226.09" y2="379.22" fill="none" stroke="#000" stroke-linejoin="bevel" stroke-width="2.48"/><line x1="1317.18" y1="499.25" x2="1317.18" y2="385.34" fill="none" stroke="#000" stroke-linejoin="bevel" stroke-width="2.48"/><line x1="1444.98" y1="524.05" x2="1444.98" y2="410.18" fill="none" stroke="#000" stroke-linejoin="bevel" stroke-width="2.48"/><line x1="1536.08" y1="499.25" x2="1536.08" y2="407.12" fill="none" stroke="#000" stroke-linejoin="bevel" stroke-width="2.48"/><line x1="1627.17" y1="474.45" x2="1627.17" y2="404.06" fill="none" stroke="#000" stroke-linejoin="bevel" stroke-width="2.48"/><line x1="1718.27" y1="474.45" x2="1718.27" y2="404.06" fill="none" stroke="#000" stroke-linejoin="bevel" stroke-width="2.48"/><line x1="1809.36" y1="499.25" x2="1809.36" y2="407.12" fill="none" stroke="#000" stroke-linejoin="bevel" stroke-width="2.48"/><line x1="1900.46" y1="524.05" x2="1900.46" y2="410.18" fill="none" stroke="#000" stroke-linejoin="bevel" stroke-width="2.48"/><line x1="2028.26" y1="437.25" x2="2028.26" y2="360.62" fill="none" stroke="#000" stroke-linejoin="bevel" stroke-width="2.48"/><line x1="952.8" y1="474.45" x2="952.8" y2="379.22" fill="none" stroke="#000" stroke-linejoin="bevel" stroke-width="2.48"/><line x1="278.43" y1="190.37" x2="278.43" y2="76.49" fill="none" stroke="#000" stroke-linejoin="bevel" stroke-width="2.48"/><line x1="358.15" y1="165.57" x2="358.15" y2="73.44" fill="none" stroke="#000" stroke-linejoin="bevel" stroke-width="2.48"/><line x1="437.87" y1="140.77" x2="437.87" y2="70.39" fill="none" stroke="#000" stroke-linejoin="bevel" stroke-width="2.48"/><line x1="517.58" y1="140.77" x2="517.58" y2="70.39" fill="none" stroke="#000" stroke-linejoin="bevel" stroke-width="2.48"/><line x1="597.3" y1="165.57" x2="597.3" y2="73.44" fill="none" stroke="#000" stroke-linejoin="bevel" stroke-width="2.48"/><line x1="677.01" y1="190.37" x2="677.01" y2="76.49" fill="none" stroke="#000" stroke-linejoin="bevel" stroke-width="2.48"/><line x1="793.43" y1="165.57" x2="793.43" y2="51.64" fill="none" stroke="#000" stroke-linejoin="bevel" stroke-width="2.48"/><line x1="873.15" y1="140.77" x2="873.15" y2="45.54" fill="none" stroke="#000" stroke-linejoin="bevel" stroke-width="2.48"/><line x1="952.86" y1="103.57" x2="952.86" y2="39.43" fill="none" stroke="#000" stroke-linejoin="bevel" stroke-width="2.48"/><line x1="1032.58" y1="103.57" x2="1032.58" y2="39.43" fill="none" stroke="#000" stroke-linejoin="bevel" stroke-width="2.48"/><line x1="1112.3" y1="140.77" x2="1112.3" y2="45.54" fill="none" stroke="#000" stroke-linejoin="bevel" stroke-width="2.48"/><line x1="1192.01" y1="165.57" x2="1192.01" y2="51.64" fill="none" stroke="#000" stroke-linejoin="bevel" stroke-width="2.48"/><line x1="1308.43" y1="140.77" x2="1308.43" y2="33" fill="none" stroke="#000" stroke-linejoin="bevel" stroke-width="2.48"/><line x1="1388.15" y1="103.57" x2="1388.15" y2="23.84" fill="none" stroke="#000" stroke-linejoin="bevel" stroke-width="2.48"/><line x1="1467.86" y1="78.77" x2="1467.86" y2="14.68" fill="none" stroke="#000" stroke-linejoin="bevel" stroke-width="2.48"/><path d="M1516.59,86.91c0,4.26,3.07,9.02,11.11,9.02,10.31,0,21.13-8.43,21.13-17.16,0-5.86-4.96-9.13-11.11-9.13-9.63,0-21.13,8.14-21.13,17.27"/><path d="M1413.99,532.19c0,4.26,3.07,9.02,11.11,9.02,10.31,0,21.13-8.43,21.13-17.16,0-5.86-4.96-9.13-11.11-9.13-9.63,0-21.13,8.14-21.13,17.27"/><path d="M1505.09,507.39c0,4.26,3.07,9.02,11.11,9.02,10.31,0,21.13-8.43,21.13-17.16,0-5.86-4.96-9.13-11.11-9.13-9.63,0-21.13,8.14-21.13,17.27"/><path d="M2111.3,86.91c0,4.26,3.07,9.02,11.11,9.02,10.31,0,21.13-8.43,21.13-17.16,0-5.86-4.96-9.13-11.11-9.13-9.63,0-21.13,8.14-21.13,17.27"/><path d="M921.87,111.71c0,4.26,3.07,9.02,11.11,9.02,10.31,0,21.13-8.43,21.13-17.16,0-5.86-4.96-9.13-11.11-9.13-9.63,0-21.13,8.14-21.13,17.27"/><path d="M1596.18,482.59c0,4.26,3.07,9.02,11.11,9.02,10.31,0,21.13-8.43,21.13-17.16,0-5.86-4.96-9.13-11.11-9.13-9.63,0-21.13,8.14-21.13,17.27"/><path d="M1596.3,111.71c0,4.26,3.07,9.02,11.11,9.02,10.31,0,21.13-8.43,21.13-17.16,0-5.86-4.96-9.13-11.11-9.13-9.63,0-21.13,8.14-21.13,17.27"/><path d="M1001.59,111.71c0,4.26,3.07,9.02,11.11,9.02,10.31,0,21.13-8.43,21.13-17.16,0-5.86-4.96-9.13-11.11-9.13-9.63,0-21.13,8.14-21.13,17.27"/><path d="M1792.44,111.71c0,4.26,3.07,9.02,11.11,9.02,10.31,0,21.13-8.43,21.13-17.16,0-5.86-4.96-9.13-11.11-9.13-9.63,0-21.13,8.14-21.13,17.27"/><path d="M646.02,198.51c0,4.26,3.07,9.02,11.11,9.02,10.31,0,21.13-8.43,21.13-17.16,0-5.86-4.96-9.13-11.11-9.13-9.63,0-21.13,8.14-21.13,17.27"/><path d="M1778.37,507.39c0,4.26,3.07,9.02,11.11,9.02,10.31,0,21.13-8.43,21.13-17.16,0-5.86-4.96-9.13-11.11-9.13-9.63,0-21.13,8.14-21.13,17.27"/><path d="M1872.15,86.91c0,4.26,3.07,9.02,11.11,9.02,10.31,0,21.13-8.43,21.13-17.16,0-5.86-4.96-9.13-11.11-9.13-9.63,0-21.13,8.14-21.13,17.27"/><path d="M486.59,148.91c0,4.26,3.07,9.02,11.11,9.02,10.31,0,21.13-8.43,21.13-17.16,0-5.86-4.96-9.13-11.11-9.13-9.63,0-21.13,8.14-21.13,17.27"/><path d="M1951.87,62.11c0,4.26,3.07,9.02,11.11,9.02,10.31,0,21.13-8.43,21.13-17.16,0-5.86-4.96-9.13-11.11-9.13-9.63,0-21.13,8.14-21.13,17.27"/><path d="M1081.3,148.91c0,4.26,3.07,9.02,11.11,9.02,10.31,0,21.13-8.43,21.13-17.16,0-5.86-4.96-9.13-11.11-9.13-9.63,0-21.13,8.14-21.13,17.27"/><path d="M2031.59,62.11c0,4.26,3.07,9.02,11.11,9.02,10.31,0,21.13-8.43,21.13-17.16,0-5.86-4.96-9.13-11.11-9.13-9.63,0-21.13,8.14-21.13,17.27"/><path d="M1676.02,148.91c0,4.26,3.07,9.02,11.11,9.02,10.31,0,21.13-8.43,21.13-17.16,0-5.86-4.96-9.13-11.11-9.13-9.63,0-21.13,8.14-21.13,17.27"/><path d="M762.44,173.71c0,4.26,3.07,9.02,11.11,9.02,10.31,0,21.13-8.43,21.13-17.16,0-5.86-4.96-9.13-11.11-9.13-9.63,0-21.13,8.14-21.13,17.27"/><path d="M406.87,148.91c0,4.26,3.07,9.02,11.11,9.02,10.31,0,21.13-8.43,21.13-17.16,0-5.86-4.96-9.13-11.11-9.13-9.63,0-21.13,8.14-21.13,17.27"/><path d="M2191.02,111.71c0,4.26,3.07,9.02,11.11,9.02,10.31,0,21.13-8.43,21.13-17.16,0-5.86-4.96-9.13-11.11-9.13-9.63,0-21.13,8.14-21.13,17.27"/><path d="M1869.47,532.19c0,4.26,3.07,9.02,11.11,9.02,10.31,0,21.13-8.43,21.13-17.16,0-5.86-4.96-9.13-11.11-9.13-9.63,0-21.13,8.14-21.13,17.27"/><path d="M247.44,198.51c0,4.26,3.07,9.02,11.11,9.02,10.31,0,21.13-8.43,21.13-17.16,0-5.86-4.96-9.13-11.11-9.13-9.63,0-21.13,8.14-21.13,17.27"/><path d="M2018.4,428.12c-9.63,0-21.13,8.04-21.13,17.27,0,4.26,3.07,9.02,11.11,9.02,10.31,0,21.13-8.43,21.13-17.16,0-5.86-4.96-9.13-11.11-9.13m-13.69,21.62c-3.27,0-3.97-2.67-3.97-3.56,0-4.87,16.66-13.39,21.33-13.39,2.39,0,3.97,1.39,3.97,3.56,0,4.96-16.77,13.39-21.33,13.39"/><path d="M1161.02,173.71c0,4.26,3.07,9.02,11.11,9.02,10.31,0,21.13-8.43,21.13-17.16,0-5.86-4.96-9.13-11.11-9.13-9.63,0-21.13,8.14-21.13,17.27"/><path d="M247.44,482.59c0,4.26,3.07,9.02,11.11,9.02,10.31,0,21.13-8.43,21.13-17.16,0-5.86-4.96-9.13-11.11-9.13-9.63,0-21.13,8.14-21.13,17.27"/><path d="M327.16,173.71c0,4.26,3.07,9.02,11.11,9.02,10.31,0,21.13-8.43,21.13-17.16,0-5.86-4.96-9.13-11.11-9.13-9.63,0-21.13,8.14-21.13,17.27"/><path d="M338.54,445.39c0,4.26,3.07,9.02,11.11,9.02,10.31,0,21.13-8.43,21.13-17.16,0-5.86-4.96-9.13-11.11-9.13-9.63,0-21.13,8.14-21.13,17.27"/><path d="M1104,445.39c0,4.26,3.07,9.02,11.11,9.02,10.31,0,21.13-8.43,21.13-17.16,0-5.86-4.96-9.13-11.11-9.13-9.63,0-21.13,8.14-21.13,17.27"/><path d="M429.63,420.59c0,4.26,3.07,9.02,11.11,9.02,10.31,0,21.13-8.43,21.13-17.16,0-5.86-4.96-9.13-11.11-9.13-9.63,0-21.13,8.14-21.13,17.27"/><path d="M520.73,420.59c0,4.26,3.07,9.02,11.11,9.02,10.31,0,21.13-8.43,21.13-17.16,0-5.86-4.96-9.13-11.11-9.13-9.63,0-21.13,8.14-21.13,17.27"/><path d="M1277.44,148.91c0,4.26,3.07,9.02,11.11,9.02,10.31,0,21.13-8.43,21.13-17.16,0-5.86-4.96-9.13-11.11-9.13-9.63,0-21.13,8.14-21.13,17.27"/><path d="M611.82,445.39c0,4.26,3.07,9.02,11.11,9.02,10.31,0,21.13-8.43,21.13-17.16,0-5.86-4.96-9.13-11.11-9.13-9.63,0-21.13,8.14-21.13,17.27"/><path d="M702.92,482.59c0,4.26,3.07,9.02,11.11,9.02,10.31,0,21.13-8.43,21.13-17.16,0-5.86-4.96-9.13-11.11-9.13-9.63,0-21.13,8.14-21.13,17.27"/><path d="M566.31,173.71c0,4.26,3.07,9.02,11.11,9.02,10.31,0,21.13-8.43,21.13-17.16,0-5.86-4.96-9.13-11.11-9.13-9.63,0-21.13,8.14-21.13,17.27"/><path d="M830.72,507.39c0,4.26,3.07,9.02,11.11,9.02,10.31,0,21.13-8.43,21.13-17.16,0-5.86-4.96-9.13-11.11-9.13-9.63,0-21.13,8.14-21.13,17.27"/><path d="M921.81,482.59c0,4.26,3.07,9.02,11.11,9.02,10.31,0,21.13-8.43,21.13-17.16,0-5.86-4.96-9.13-11.11-9.13-9.63,0-21.13,8.14-21.13,17.27"/><path d="M1357.16,111.71c0,4.26,3.07,9.02,11.11,9.02,10.31,0,21.13-8.43,21.13-17.16,0-5.86-4.96-9.13-11.11-9.13-9.63,0-21.13,8.14-21.13,17.27"/><path d="M1012.91,445.39c0,4.26,3.07,9.02,11.11,9.02,10.31,0,21.13-8.43,21.13-17.16,0-5.86-4.96-9.13-11.11-9.13-9.63,0-21.13,8.14-21.13,17.27"/><path d="M842.16,148.91c0,4.26,3.07,9.02,11.11,9.02,10.31,0,21.13-8.43,21.13-17.16,0-5.86-4.96-9.13-11.11-9.13-9.63,0-21.13,8.14-21.13,17.27"/><path d="M1687.28,482.59c0,4.26,3.07,9.02,11.11,9.02,10.31,0,21.13-8.43,21.13-17.16,0-5.86-4.96-9.13-11.11-9.13-9.63,0-21.13,8.14-21.13,17.27"/><path d="M1436.87,86.91c0,4.26,3.07,9.02,11.11,9.02,10.31,0,21.13-8.43,21.13-17.16,0-5.86-4.96-9.13-11.11-9.13-9.63,0-21.13,8.14-21.13,17.27"/><path d="M1195.1,482.59c0,4.26,3.07,9.02,11.11,9.02,10.31,0,21.13-8.43,21.13-17.16,0-5.86-4.96-9.13-11.11-9.13-9.63,0-21.13,8.14-21.13,17.27"/><path d="M1286.19,507.39c0,4.26,3.07,9.02,11.11,9.02,10.31,0,21.13-8.43,21.13-17.16,0-5.86-4.96-9.13-11.11-9.13-9.63,0-21.13,8.14-21.13,17.27"/><path d="M30.8,504.51c0,6.56,4.96,15.19,18.35,15.19,4.67,0,8.74-1.19,12.31-3.38,5.36-3.77,6.74-10.32,6.74-16.57,0-3.86-.59-8.32-1.58-13.98-.29-1.98-.9-4.96-1.49-8.84,9.72-3.18,16.96-13.3,16.96-23.51,0-14.97-10.62-25.09-25.09-25.09-.99-5.95-1.98-11.81-2.77-17.36,10.42-11.02,17.65-23.42,17.65-39.18,0-9.04-2.77-16.37-4.37-19.95-2.37-5.05-5.25-8.53-7.04-8.53-.7,0-3.77,1.19-7.04,5.05-6.36,7.55-8.14,20.24-8.14,28.57,0,5.36,.5,10.23,2.19,21.34-.11,.09-5.27,5.35-7.35,7.04-9.04,8.34-21.53,20.43-21.53,40.28,0,18.54,16.17,33.12,34.63,33.12,2.87,0,5.55-.29,7.83-.7,1.89,9.53,3.08,16.48,3.08,21.73,0,10.32-5.36,15.78-15.38,15.78-2.39,0-4.46-.5-4.67-.5-.09-.11-.29-.2-.29-.29,0-.2,.2-.31,.5-.31,4.67-.79,9.32-4.76,9.32-11.1,0-5.36-4.06-11.02-11.5-11.02-6.94,0-11.31,5.66-11.31,12.2m20.74-132.43c.9-3.97,5.46-14.38,10.62-14.38,1.49,0,3.86,4.76,3.86,11.7,0,10.32-7.63,18.06-14.48,24.8-.59-3.97-1.08-7.83-1.08-12,0-3.67,.29-7.05,1.08-10.12m8.73,101.97c-1.98,.4-3.86,.6-5.75,.6-14.18,0-26.29-9.92-26.29-24.91,0-12.09,8.53-22.91,17.27-30.46,1.67-1.49,3.27-2.87,4.76-4.36,.88,5.35,1.58,10.01,2.28,14.09-9.04,2.68-15.17,12.2-15.17,21.53,0,6.94,5.46,16.46,13.39,16.46,.79,0,1.69-.4,1.69-1.29s-.99-1.39-2.19-2.19c-3.88-2.39-6.06-4.96-6.06-9.83,0-6.04,4.57-10.91,10.32-12.29l5.75,32.63m14.09-18.35c0,7.05-2.88,14.29-9.92,17.17-2.08-11.9-4.76-27.68-5.46-32.05,8.93,0,15.38,6.06,15.38,14.88"/><path d="M30.8,170.83c0,6.56,4.96,15.19,18.35,15.19,4.67,0,8.74-1.19,12.31-3.38,5.36-3.77,6.74-10.32,6.74-16.57,0-3.86-.59-8.32-1.58-13.98-.29-1.98-.9-4.96-1.49-8.84,9.72-3.18,16.96-13.3,16.96-23.51,0-14.97-10.62-25.09-25.09-25.09-.99-5.95-1.98-11.81-2.77-17.36,10.42-11.02,17.65-23.42,17.65-39.18,0-9.04-2.77-16.37-4.37-19.95-2.37-5.05-5.25-8.53-7.04-8.53-.7,0-3.77,1.19-7.04,5.05-6.36,7.55-8.14,20.24-8.14,28.57,0,5.36,.5,10.23,2.19,21.34-.11,.09-5.27,5.35-7.35,7.04-9.04,8.34-21.53,20.43-21.53,40.28,0,18.54,16.17,33.12,34.63,33.12,2.87,0,5.55-.29,7.83-.7,1.89,9.53,3.08,16.48,3.08,21.73,0,10.32-5.36,15.78-15.38,15.78-2.39,0-4.46-.5-4.67-.5-.09-.11-.29-.2-.29-.29,0-.2,.2-.31,.5-.31,4.67-.79,9.32-4.76,9.32-11.1,0-5.36-4.06-11.02-11.5-11.02-6.94,0-11.31,5.66-11.31,12.2M51.54,38.39c.9-3.97,5.46-14.38,10.62-14.38,1.49,0,3.86,4.76,3.86,11.7,0,10.32-7.63,18.06-14.48,24.8-.59-3.97-1.08-7.83-1.08-12,0-3.67,.29-7.05,1.08-10.12m8.73,101.97c-1.98,.4-3.86,.6-5.75,.6-14.18,0-26.29-9.92-26.29-24.91,0-12.09,8.53-22.91,17.27-30.46,1.67-1.49,3.27-2.87,4.76-4.36,.88,5.35,1.58,10.01,2.28,14.09-9.04,2.68-15.17,12.2-15.17,21.53,0,6.94,5.46,16.46,13.39,16.46,.79,0,1.69-.4,1.69-1.29s-.99-1.39-2.19-2.19c-3.88-2.39-6.06-4.96-6.06-9.83,0-6.04,4.57-10.91,10.32-12.29l5.75,32.63m14.09-18.35c0,7.05-2.88,14.29-9.92,17.17-2.08-11.9-4.76-27.68-5.46-32.05,8.93,0,15.38,6.06,15.38,14.88"/><path d="M129.99,35.12c.6-.09,1.1-.79,1.1-1.4v-5.84c0-.99-.7-1.39-1.6-1.39l-3.27,.7V12.4h-2.77v15.38l-8.83,1.8V15.58h-2.77v14.59l-3.87,.79c-.59,.11-1.08,.79-1.08,1.39v5.75c0,1.08,.79,1.39,1.69,1.39l3.27-.7v16.37l-3.87,.79c-.59,.09-1.08,.79-1.08,1.4v5.75c0,1.09,.79,1.38,1.69,1.38l3.27-.68v14.77h2.77v-15.38l8.83-1.78v14h2.77v-14.59l3.77-.7c.6-.11,1.1-.79,1.1-1.39v-5.84c0-.99-.7-1.39-1.6-1.39l-3.27,.7v-16.37l3.77-.7m-15.38,3.07l8.83-1.78v16.37l-8.83,1.89v-16.48"/><path d="M157.16,72.32c.6-.09,1.1-.79,1.1-1.4v-5.84c0-.99-.7-1.39-1.6-1.39l-3.27,.7v-14.79h-2.77v15.38l-8.83,1.8v-14h-2.77v14.59l-3.87,.79c-.59,.11-1.08,.79-1.08,1.39v5.75c0,1.08,.79,1.39,1.69,1.39l3.27-.7v16.37l-3.87,.79c-.59,.09-1.08,.79-1.08,1.4v5.75c0,1.09,.79,1.38,1.69,1.38l3.27-.68v14.77h2.77v-15.38l8.83-1.78v14h2.77v-14.59l3.77-.7c.6-.11,1.1-.79,1.1-1.39v-5.84c0-.99-.7-1.39-1.6-1.39l-3.27,.7v-16.37l3.77-.7m-15.38,3.07l8.83-1.78v16.37l-8.83,1.89v-16.48"/><path d="M184.33,22.72c.6-.09,1.1-.79,1.1-1.4v-5.84c0-.99-.7-1.39-1.6-1.39l-3.27,.7V0h-2.77V15.38l-8.83,1.8V3.18h-2.77v14.59l-3.87,.79c-.59,.11-1.08,.79-1.08,1.39v5.75c0,1.08,.79,1.39,1.69,1.39l3.27-.7v16.37l-3.87,.79c-.59,.09-1.08,.79-1.08,1.4v5.75c0,1.09,.79,1.38,1.69,1.38l3.27-.68v14.77h2.77v-15.38l8.83-1.78v14h2.77v-14.59l3.77-.7c.6-.11,1.1-.79,1.1-1.39v-5.84c0-.99-.7-1.39-1.6-1.39l-3.27,.7V23.42l3.77-.7m-15.38,3.07l8.83-1.78v16.37l-8.83,1.89V25.79"/><path d="M129.99,368.8c.6-.09,1.1-.79,1.1-1.4v-5.84c0-.99-.7-1.39-1.6-1.39l-3.27,.7v-14.79h-2.77v15.38l-8.83,1.8v-14h-2.77v14.59l-3.87,.79c-.59,.11-1.08,.79-1.08,1.39v5.75c0,1.08,.79,1.39,1.69,1.39l3.27-.7v16.37l-3.87,.79c-.59,.09-1.08,.79-1.08,1.4v5.75c0,1.09,.79,1.38,1.69,1.38l3.27-.68v14.77h2.77v-15.38l8.83-1.78v14h2.77v-14.59l3.77-.7c.6-.11,1.1-.79,1.1-1.39v-5.84c0-.99-.7-1.39-1.6-1.39l-3.27,.7v-16.37l3.77-.7m-15.38,3.07l8.83-1.78v16.37l-8.83,1.89v-16.48"/><path d="M157.16,406c.6-.09,1.1-.79,1.1-1.4v-5.84c0-.99-.7-1.39-1.6-1.39l-3.27,.7v-14.79h-2.77v15.38l-8.83,1.8v-14h-2.77v14.59l-3.87,.79c-.59,.11-1.08,.79-1.08,1.39v5.75c0,1.08,.79,1.39,1.69,1.39l3.27-.7v16.37l-3.87,.79c-.59,.09-1.08,.79-1.08,1.4v5.75c0,1.09,.79,1.38,1.69,1.38l3.27-.68v14.77h2.77v-15.38l8.83-1.78v14h2.77v-14.59l3.77-.7c.6-.11,1.1-.79,1.1-1.39v-5.84c0-.99-.7-1.39-1.6-1.39l-3.27,.7v-16.37l3.77-.7m-15.38,3.07l8.83-1.78v16.37l-8.83,1.89v-16.48"/><path d="M184.33,356.4c.6-.09,1.1-.79,1.1-1.4v-5.84c0-.99-.7-1.39-1.6-1.39l-3.27,.7v-14.79h-2.77v15.38l-8.83,1.8v-14h-2.77v14.59l-3.87,.79c-.59,.11-1.08,.79-1.08,1.39v5.75c0,1.08,.79,1.39,1.69,1.39l3.27-.7v16.37l-3.87,.79c-.59,.09-1.08,.79-1.08,1.4v5.75c0,1.09,.79,1.38,1.69,1.38l3.27-.68v14.77h2.77v-15.38l8.83-1.78v14h2.77v-14.59l3.77-.7c.6-.11,1.1-.79,1.1-1.39v-5.84c0-.99-.7-1.39-1.6-1.39l-3.27,.7v-16.37l3.77-.7m-15.38,3.07l8.83-1.78v16.37l-8.83,1.89v-16.48"/><path d="M2036.11,324.91c-9.32-10.12-17.56-10.71-22.71-10.71s-13.3,.59-22.63,10.71c-4.85,5.36-8.23,15.96-8.23,21.33,0,1.89,.4,3.18,1.39,3.18,2.77,0,1.38-8.54,9.72-16.97,7.33-7.33,17.16-7.44,19.55-7.44h.39c2.39,0,12.21,.11,19.55,7.44,8.34,8.43,6.94,16.97,9.72,16.97,.99,0,1.39-1.19,1.39-3.18,0-5.36-3.27-16.07-8.14-21.33m-29.56,18.94c0,3.78,3.07,6.85,6.85,6.85s6.84-3.07,6.84-6.85-3.07-6.84-6.84-6.84-6.85,3.07-6.85,6.84"/><path d="M516.34,64.13l161.91,6.2v12.41l-161.91-6.2v-12.41" fill-rule="evenodd"/><path d="M1443.74,404.02l184.67-6.2v12.4l-184.67,6.2v-12.4" fill-rule="evenodd"/><path d="M1546.34,8.3l161.91,18.6v12.48l-161.91-18.6V8.3" fill-rule="evenodd"/><path d="M277.19,70.33l161.91-6.2v12.41l-161.91,6.2v-12.41" fill-rule="evenodd"/><path d="M1717.03,397.82l184.67,6.2v12.4l-184.67-6.2v-12.4" fill-rule="evenodd"/><path d="M1133.75,366.81l184.67,12.4v12.42l-184.67-12.4v-12.42" fill-rule="evenodd"/><path d="M1792.44,169.5l161.91-18.6v12.48l-161.91,18.6v-12.48" fill-rule="evenodd"/><path d="M1031.34,33.12l161.91,12.4v12.44l-161.91-12.4v-12.44" fill-rule="evenodd"/><path d="M2031.59,150.9l161.91,18.6v12.48l-161.91-18.6v-12.48" fill-rule="evenodd"/><path d="M277.19,360.59l184.67-18.6v12.46l-184.67,18.6v-12.46" fill-rule="evenodd"/><path d="M792.19,45.52l161.91-12.4v12.44l-161.91,12.4v-12.44" fill-rule="evenodd"/><path d="M550.48,341.99l184.67,18.6v12.46l-184.67-18.6v-12.46" fill-rule="evenodd"/><path d="M1307.19,26.9l161.91-18.6v12.48l-161.91,18.6v-12.48" fill-rule="evenodd"/><path d="M860.47,379.21l184.67-12.4v12.42l-184.67,12.4v-12.42" fill-rule="evenodd"/><path d="M2041.9,441.22c0,2.77,2.19,4.96,4.96,4.96s4.96-2.19,4.96-4.96-2.19-4.96-4.96-4.96-4.96,2.19-4.96,4.96"/></g></svg>