<?xml version="1.0" encoding="UTF-8"?><svg id="b" xmlns="http://www.w3.org/2000/svg" viewBox="0 0 2779.2 529.53"><g id="c"><line y1="53.2" x2="2779.2" y2="53.2" fill="none" stroke="#000" stroke-linejoin="bevel" stroke-width="2.73"/><line y1="78" x2="2779.2" y2="78" fill="none" stroke="#000" stroke-linejoin="bevel" stroke-width="2.73"/><line y1="102.8" x2="2779.2" y2="102.8" fill="none" stroke="#000" stroke-linejoin="bevel" stroke-width="2.73"/><line y1="127.6" x2="2779.2" y2="127.6" fill="none" stroke="#000" stroke-linejoin="bevel" stroke-width="2.73"/><line y1="152.4" x2="2779.2" y2="152.4" fill="none" stroke="#000" stroke-linejoin="bevel" stroke-width="2.73"/><line y1="386.88" x2="2779.2" y2="386.88" fill="none" stroke="#000" stroke-linejoin="bevel" stroke-width="2.73"/><line y1="411.68" x2="2779.2" y2="411.68" fill="none" stroke="#000" stroke-linejoin="bevel" stroke-width="2.73"/><line y1="436.48" x2="2779.2" y2="436.48" fill="none" stroke="#000" stroke-linejoin="bevel" stroke-width="2.73"/><line y1="461.28" x2="2779.2" y2="461.28" fill="none" stroke="#000" stroke-linejoin="bevel" stroke-width="2.73"/><line y1="486.08" x2="2779.2" y2="486.08" fill="none" stroke="#000" stroke-linejoin="bevel" stroke-width="2.73"/><path d="M287.85,420.99c72.13-81.06,363.98-95.51,444.73-22.01-80.3-65.57-372.16-51.13-444.73,22.01" fill-rule="evenodd" stroke="#000" stroke-linecap="round" stroke-linejoin="round" stroke-width="1.24"/><path d="M1940.45,405.98c58.1-77.98,369.41-112.69,444.73-43-74.44-61.81-385.75-27.09-444.73,43" fill-rule="evenodd" stroke="#000" stroke-linecap="round" stroke-linejoin="round" stroke-width="1.24"/><path d="M838.72,405.98c85.8-61.4,352.63-76.28,444.73-24.8-91.65-43.55-358.49-28.67-444.73,24.8" fill-rule="evenodd" stroke="#000" stroke-linecap="round" stroke-linejoin="round" stroke-width="1.24"/><path d="M2319.61,85.33c60.58-80.05,330.03-93.1,401.81-22.28-71.29-62.9-340.74-49.84-401.81,22.28" fill-rule="evenodd" stroke="#000" stroke-linecap="round" stroke-linejoin="round" stroke-width="1.24"/><path d="M1389.58,405.98c85.8-61.4,352.64-76.28,444.73-24.8-91.65-43.55-358.49-28.67-444.73,24.8" fill-rule="evenodd" stroke="#000" stroke-linecap="round" stroke-linejoin="round" stroke-width="1.24"/><path d="M795.79,85.33c60.58-80.05,330.03-93.1,401.81-22.28C1126.31,.15,856.86,13.21,795.79,85.33" fill-rule="evenodd" stroke="#000" stroke-linecap="round" stroke-linejoin="round" stroke-width="1.24"/><path d="M1303.73,85.3c54.16-89.11,324.13-113.88,401.81-45.39-76.79-60.6-346.76-35.84-401.81,45.39" fill-rule="evenodd" stroke="#000" stroke-linecap="round" stroke-linejoin="round" stroke-width="1.24"/><path d="M1811.67,85.3c54.16-89.11,324.13-113.88,401.81-45.39-76.79-60.6-346.76-35.84-401.81,45.39" fill-rule="evenodd" stroke="#000" stroke-linecap="round" stroke-linejoin="round" stroke-width="1.24"/><path d="M287.85,85.33C348.43,5.28,617.88-7.77,689.66,63.05,618.37,.15,348.92,13.21,287.85,85.33" fill-rule="evenodd" stroke="#000" stroke-linecap="round" stroke-linejoin="round" stroke-width="1.24"/><line x1="2763.33" y1="385.52" x2="2763.33" y2="487.44" fill="none" stroke="#000" stroke-linejoin="bevel" stroke-width="4.46"/><line x1="2776.97" y1="385.52" x2="2776.97" y2="487.44" fill="none" stroke="#000" stroke-linejoin="bevel" stroke-width="4.46"/><line x1="2440.73" y1="385.52" x2="2440.73" y2="487.44" fill="none" stroke="#000" stroke-linejoin="bevel" stroke-width="4.46"/><line x1="745.21" y1="51.84" x2="745.21" y2="153.76" fill="none" stroke="#000" stroke-linejoin="bevel" stroke-width="4.46"/><line x1="788.13" y1="385.52" x2="788.13" y2="487.44" fill="none" stroke="#000" stroke-linejoin="bevel" stroke-width="4.46"/><line x1="1889.86" y1="385.52" x2="1889.86" y2="487.44" fill="none" stroke="#000" stroke-linejoin="bevel" stroke-width="4.46"/><line x1="2269.03" y1="51.84" x2="2269.03" y2="153.76" fill="none" stroke="#000" stroke-linejoin="bevel" stroke-width="4.46"/><line x1="1253.15" y1="51.84" x2="1253.15" y2="153.76" fill="none" stroke="#000" stroke-linejoin="bevel" stroke-width="4.46"/><line x1="1339" y1="385.52" x2="1339" y2="487.44" fill="none" stroke="#000" stroke-linejoin="bevel" stroke-width="4.46"/><line x1="2776.97" y1="51.84" x2="2776.97" y2="153.76" fill="none" stroke="#000" stroke-linejoin="bevel" stroke-width="4.46"/><line x1="1761.09" y1="51.84" x2="1761.09" y2="153.76" fill="none" stroke="#000" stroke-linejoin="bevel" stroke-width="4.46"/><line x1="2170.28" y1="362.08" x2="2218.88" y2="362.08" fill="none" stroke="#000" stroke-linejoin="bevel" stroke-width="3.97"/><line x1="617.38" y1="69.77" x2="617.38" y2="175.16" fill="none" stroke="#000" stroke-linejoin="bevel" stroke-width="2.48"/><line x1="1969" y1="82.17" x2="1969" y2="164.93" fill="none" stroke="#000" stroke-linejoin="bevel" stroke-width="2.48"/><line x1="674.78" y1="94.57" x2="674.78" y2="171.09" fill="none" stroke="#000" stroke-linejoin="bevel" stroke-width="2.48"/><line x1="2243.24" y1="403.45" x2="2243.24" y2="492.28" fill="none" stroke="#000" stroke-linejoin="bevel" stroke-width="2.48"/><line x1="2706.54" y1="94.57" x2="2706.54" y2="171.09" fill="none" stroke="#000" stroke-linejoin="bevel" stroke-width="2.48"/><line x1="780.92" y1="119.37" x2="780.92" y2="183.31" fill="none" stroke="#000" stroke-linejoin="bevel" stroke-width="2.48"/><line x1="2026.4" y1="119.37" x2="2026.4" y2="183.27" fill="none" stroke="#000" stroke-linejoin="bevel" stroke-width="2.48"/><line x1="838.32" y1="94.57" x2="838.32" y2="179.24" fill="none" stroke="#000" stroke-linejoin="bevel" stroke-width="2.48"/><line x1="2534.34" y1="119.37" x2="2534.34" y2="183.31" fill="none" stroke="#000" stroke-linejoin="bevel" stroke-width="2.48"/><line x1="895.72" y1="69.77" x2="895.72" y2="175.16" fill="none" stroke="#000" stroke-linejoin="bevel" stroke-width="2.48"/><line x1="1819.44" y1="415.85" x2="1819.44" y2="498.64" fill="none" stroke="#000" stroke-linejoin="bevel" stroke-width="2.48"/><line x1="953.12" y1="94.57" x2="953.12" y2="171.09" fill="none" stroke="#000" stroke-linejoin="bevel" stroke-width="2.48"/><line x1="2083.8" y1="82.17" x2="2083.8" y2="177.16" fill="none" stroke="#000" stroke-linejoin="bevel" stroke-width="2.48"/><line x1="1755.9" y1="403.45" x2="1755.9" y2="506.8" fill="none" stroke="#000" stroke-linejoin="bevel" stroke-width="2.48"/><line x1="1692.37" y1="415.85" x2="1692.37" y2="514.96" fill="none" stroke="#000" stroke-linejoin="bevel" stroke-width="2.48"/><line x1="1010.52" y1="119.37" x2="1010.52" y2="183.31" fill="none" stroke="#000" stroke-linejoin="bevel" stroke-width="2.48"/><line x1="1628.84" y1="465.45" x2="1628.84" y2="523.12" fill="none" stroke="#000" stroke-linejoin="bevel" stroke-width="2.48"/><line x1="463.58" y1="428.25" x2="463.58" y2="504.76" fill="none" stroke="#000" stroke-linejoin="bevel" stroke-width="2.48"/><line x1="1067.92" y1="94.57" x2="1067.92" y2="179.24" fill="none" stroke="#000" stroke-linejoin="bevel" stroke-width="2.48"/><line x1="2141.2" y1="57.37" x2="2141.2" y2="171.04" fill="none" stroke="#000" stroke-linejoin="bevel" stroke-width="2.48"/><line x1="1565.31" y1="415.85" x2="1565.31" y2="498.52" fill="none" stroke="#000" stroke-linejoin="bevel" stroke-width="2.48"/><line x1="1125.32" y1="69.77" x2="1125.32" y2="175.16" fill="none" stroke="#000" stroke-linejoin="bevel" stroke-width="2.48"/><line x1="1182.72" y1="94.57" x2="1182.72" y2="171.09" fill="none" stroke="#000" stroke-linejoin="bevel" stroke-width="2.48"/><line x1="2198.6" y1="82.17" x2="2198.6" y2="164.93" fill="none" stroke="#000" stroke-linejoin="bevel" stroke-width="2.48"/><line x1="1501.77" y1="403.45" x2="1501.77" y2="500.56" fill="none" stroke="#000" stroke-linejoin="bevel" stroke-width="2.48"/><line x1="1288.86" y1="119.37" x2="1288.86" y2="183.27" fill="none" stroke="#000" stroke-linejoin="bevel" stroke-width="2.48"/><line x1="2591.74" y1="94.57" x2="2591.74" y2="179.24" fill="none" stroke="#000" stroke-linejoin="bevel" stroke-width="2.48"/><line x1="1438.24" y1="415.85" x2="1438.24" y2="502.6" fill="none" stroke="#000" stroke-linejoin="bevel" stroke-width="2.48"/><line x1="400.04" y1="403.45" x2="400.04" y2="508.84" fill="none" stroke="#000" stroke-linejoin="bevel" stroke-width="2.48"/><line x1="1346.26" y1="82.17" x2="1346.26" y2="177.16" fill="none" stroke="#000" stroke-linejoin="bevel" stroke-width="2.48"/><line x1="1374.71" y1="440.65" x2="1374.71" y2="504.64" fill="none" stroke="#000" stroke-linejoin="bevel" stroke-width="2.48"/><line x1="1403.66" y1="57.37" x2="1403.66" y2="171.04" fill="none" stroke="#000" stroke-linejoin="bevel" stroke-width="2.48"/><line x1="1461.06" y1="82.17" x2="1461.06" y2="164.93" fill="none" stroke="#000" stroke-linejoin="bevel" stroke-width="2.48"/><line x1="2304.74" y1="119.37" x2="2304.74" y2="183.31" fill="none" stroke="#000" stroke-linejoin="bevel" stroke-width="2.48"/><line x1="2506.19" y1="444.91" x2="2506.19" y2="368.28" fill="none" stroke="#000" stroke-linejoin="bevel" stroke-width="2.48"/><line x1="1518.46" y1="119.37" x2="1518.46" y2="183.27" fill="none" stroke="#000" stroke-linejoin="bevel" stroke-width="2.48"/><line x1="2370.3" y1="403.45" x2="2370.3" y2="492.28" fill="none" stroke="#000" stroke-linejoin="bevel" stroke-width="2.48"/><line x1="336.51" y1="428.25" x2="336.51" y2="512.92" fill="none" stroke="#000" stroke-linejoin="bevel" stroke-width="2.48"/><line x1="2306.77" y1="428.25" x2="2306.77" y2="492.28" fill="none" stroke="#000" stroke-linejoin="bevel" stroke-width="2.48"/><line x1="1575.86" y1="82.17" x2="1575.86" y2="177.16" fill="none" stroke="#000" stroke-linejoin="bevel" stroke-width="2.48"/><line x1="1268.57" y1="415.85" x2="1268.57" y2="498.64" fill="none" stroke="#000" stroke-linejoin="bevel" stroke-width="2.48"/><line x1="1633.26" y1="57.37" x2="1633.26" y2="171.04" fill="none" stroke="#000" stroke-linejoin="bevel" stroke-width="2.48"/><line x1="2362.14" y1="94.57" x2="2362.14" y2="179.24" fill="none" stroke="#000" stroke-linejoin="bevel" stroke-width="2.48"/><line x1="1690.66" y1="82.17" x2="1690.66" y2="164.93" fill="none" stroke="#000" stroke-linejoin="bevel" stroke-width="2.48"/><line x1="1205.04" y1="403.45" x2="1205.04" y2="506.8" fill="none" stroke="#000" stroke-linejoin="bevel" stroke-width="2.48"/><line x1="2649.14" y1="69.77" x2="2649.14" y2="175.16" fill="none" stroke="#000" stroke-linejoin="bevel" stroke-width="2.48"/><line x1="950.91" y1="403.45" x2="950.91" y2="500.56" fill="none" stroke="#000" stroke-linejoin="bevel" stroke-width="2.48"/><line x1="1141.51" y1="415.85" x2="1141.51" y2="514.96" fill="none" stroke="#000" stroke-linejoin="bevel" stroke-width="2.48"/><line x1="887.37" y1="415.85" x2="887.37" y2="502.6" fill="none" stroke="#000" stroke-linejoin="bevel" stroke-width="2.48"/><line x1="1796.8" y1="119.37" x2="1796.8" y2="183.27" fill="none" stroke="#000" stroke-linejoin="bevel" stroke-width="2.48"/><line x1="1077.97" y1="465.45" x2="1077.97" y2="523.12" fill="none" stroke="#000" stroke-linejoin="bevel" stroke-width="2.48"/><line x1="1014.44" y1="415.85" x2="1014.44" y2="498.52" fill="none" stroke="#000" stroke-linejoin="bevel" stroke-width="2.48"/><line x1="823.84" y1="440.65" x2="823.84" y2="504.64" fill="none" stroke="#000" stroke-linejoin="bevel" stroke-width="2.48"/><line x1="2179.7" y1="366.25" x2="2179.7" y2="492.28" fill="none" stroke="#000" stroke-linejoin="bevel" stroke-width="2.48"/><line x1="717.71" y1="428.25" x2="717.71" y2="504.76" fill="none" stroke="#000" stroke-linejoin="bevel" stroke-width="2.48"/><line x1="654.18" y1="403.45" x2="654.18" y2="508.84" fill="none" stroke="#000" stroke-linejoin="bevel" stroke-width="2.48"/><line x1="272.98" y1="119.37" x2="272.98" y2="183.31" fill="none" stroke="#000" stroke-linejoin="bevel" stroke-width="2.48"/><line x1="2419.54" y1="69.77" x2="2419.54" y2="175.16" fill="none" stroke="#000" stroke-linejoin="bevel" stroke-width="2.48"/><line x1="2116.17" y1="403.45" x2="2116.17" y2="498.6" fill="none" stroke="#000" stroke-linejoin="bevel" stroke-width="2.48"/><line x1="590.64" y1="428.25" x2="590.64" y2="512.92" fill="none" stroke="#000" stroke-linejoin="bevel" stroke-width="2.48"/><line x1="330.38" y1="94.57" x2="330.38" y2="179.24" fill="none" stroke="#000" stroke-linejoin="bevel" stroke-width="2.48"/><line x1="272.98" y1="453.05" x2="272.98" y2="517" fill="none" stroke="#000" stroke-linejoin="bevel" stroke-width="2.48"/><line x1="387.78" y1="69.77" x2="387.78" y2="175.16" fill="none" stroke="#000" stroke-linejoin="bevel" stroke-width="2.48"/><line x1="2052.64" y1="428.25" x2="2052.64" y2="504.72" fill="none" stroke="#000" stroke-linejoin="bevel" stroke-width="2.48"/><line x1="1854.2" y1="82.17" x2="1854.2" y2="177.16" fill="none" stroke="#000" stroke-linejoin="bevel" stroke-width="2.48"/><line x1="445.18" y1="94.57" x2="445.18" y2="171.09" fill="none" stroke="#000" stroke-linejoin="bevel" stroke-width="2.48"/><line x1="502.58" y1="119.37" x2="502.58" y2="183.31" fill="none" stroke="#000" stroke-linejoin="bevel" stroke-width="2.48"/><line x1="1989.1" y1="440.65" x2="1989.1" y2="510.84" fill="none" stroke="#000" stroke-linejoin="bevel" stroke-width="2.48"/><line x1="1911.6" y1="57.37" x2="1911.6" y2="171.04" fill="none" stroke="#000" stroke-linejoin="bevel" stroke-width="2.48"/><line x1="527.11" y1="453.05" x2="527.11" y2="517" fill="none" stroke="#000" stroke-linejoin="bevel" stroke-width="2.48"/><line x1="559.98" y1="94.57" x2="559.98" y2="179.24" fill="none" stroke="#000" stroke-linejoin="bevel" stroke-width="2.48"/><line x1="2476.94" y1="94.57" x2="2476.94" y2="171.09" fill="none" stroke="#000" stroke-linejoin="bevel" stroke-width="2.48"/><line x1="1925.57" y1="453.05" x2="1925.57" y2="516.96" fill="none" stroke="#000" stroke-linejoin="bevel" stroke-width="2.48"/><path d="M271.74,453.05c0,4.26,3.07,9.02,11.11,9.02,10.31,0,21.13-8.43,21.13-17.16,0-5.86-4.96-9.13-11.11-9.13-9.63,0-21.13,8.14-21.13,17.27"/><path d="M335.27,428.25c0,4.26,3.07,9.02,11.11,9.02,10.31,0,21.13-8.43,21.13-17.16,0-5.86-4.96-9.13-11.11-9.13-9.63,0-21.13,8.14-21.13,17.27"/><path d="M398.8,403.45c0,4.26,3.07,9.02,11.11,9.02,10.31,0,21.13-8.43,21.13-17.16,0-5.86-4.96-9.13-11.11-9.13-9.63,0-21.13,8.14-21.13,17.27"/><path d="M462.34,428.25c0,4.26,3.07,9.02,11.11,9.02,10.31,0,21.13-8.43,21.13-17.16,0-5.86-4.96-9.13-11.11-9.13-9.63,0-21.13,8.14-21.13,17.27"/><path d="M525.87,453.05c0,4.26,3.07,9.02,11.11,9.02,10.31,0,21.13-8.43,21.13-17.16,0-5.86-4.96-9.13-11.11-9.13-9.63,0-21.13,8.14-21.13,17.27"/><path d="M589.4,428.25c0,4.26,3.07,9.02,11.11,9.02,10.31,0,21.13-8.43,21.13-17.16,0-5.86-4.96-9.13-11.11-9.13-9.63,0-21.13,8.14-21.13,17.27"/><path d="M652.94,403.45c0,4.26,3.07,9.02,11.11,9.02,10.31,0,21.13-8.43,21.13-17.16,0-5.86-4.96-9.13-11.11-9.13-9.63,0-21.13,8.14-21.13,17.27"/><path d="M716.47,428.25c0,4.26,3.07,9.02,11.11,9.02,10.31,0,21.13-8.43,21.13-17.16,0-5.86-4.96-9.13-11.11-9.13-9.63,0-21.13,8.14-21.13,17.27"/><path d="M822.6,440.65c0,4.26,3.07,9.02,11.11,9.02,10.31,0,21.13-8.43,21.13-17.16,0-5.86-4.96-9.13-11.11-9.13-9.63,0-21.13,8.14-21.13,17.27"/><path d="M886.13,415.85c0,4.26,3.07,9.02,11.11,9.02,10.31,0,21.13-8.43,21.13-17.16,0-5.86-4.96-9.13-11.11-9.13-9.63,0-21.13,8.14-21.13,17.27"/><path d="M949.67,403.45c0,4.26,3.07,9.02,11.11,9.02,10.31,0,21.13-8.43,21.13-17.16,0-5.86-4.96-9.13-11.11-9.13-9.63,0-21.13,8.14-21.13,17.27"/><path d="M1013.2,415.85c0,4.26,3.07,9.02,11.11,9.02,10.31,0,21.13-8.43,21.13-17.16,0-5.86-4.96-9.13-11.11-9.13-9.63,0-21.13,8.14-21.13,17.27"/><path d="M1076.73,465.45c0,4.26,3.07,9.02,11.11,9.02,10.31,0,21.13-8.43,21.13-17.16,0-5.86-4.96-9.13-11.11-9.13-9.63,0-21.13,8.14-21.13,17.27"/><path d="M1140.27,415.85c0,4.26,3.07,9.02,11.11,9.02,10.31,0,21.13-8.43,21.13-17.16,0-5.86-4.96-9.13-11.11-9.13-9.63,0-21.13,8.14-21.13,17.27"/><path d="M1203.8,403.45c0,4.26,3.07,9.02,11.11,9.02,10.31,0,21.13-8.43,21.13-17.16,0-5.86-4.96-9.13-11.11-9.13-9.63,0-21.13,8.14-21.13,17.27"/><path d="M1267.33,415.85c0,4.26,3.07,9.02,11.11,9.02,10.31,0,21.13-8.43,21.13-17.16,0-5.86-4.96-9.13-11.11-9.13-9.63,0-21.13,8.14-21.13,17.27"/><path d="M1373.47,440.65c0,4.26,3.07,9.02,11.11,9.02,10.31,0,21.13-8.43,21.13-17.16,0-5.86-4.96-9.13-11.11-9.13-9.63,0-21.13,8.14-21.13,17.27"/><path d="M1437,415.85c0,4.26,3.07,9.02,11.11,9.02,10.31,0,21.13-8.43,21.13-17.16,0-5.86-4.96-9.13-11.11-9.13-9.63,0-21.13,8.14-21.13,17.27"/><path d="M1500.53,403.45c0,4.26,3.07,9.02,11.11,9.02,10.31,0,21.13-8.43,21.13-17.16,0-5.86-4.96-9.13-11.11-9.13-9.63,0-21.13,8.14-21.13,17.27"/><path d="M1564.07,415.85c0,4.26,3.07,9.02,11.11,9.02,10.31,0,21.13-8.43,21.13-17.16,0-5.86-4.96-9.13-11.11-9.13-9.63,0-21.13,8.14-21.13,17.27"/><path d="M1627.6,465.45c0,4.26,3.07,9.02,11.11,9.02,10.31,0,21.13-8.43,21.13-17.16,0-5.86-4.96-9.13-11.11-9.13-9.63,0-21.13,8.14-21.13,17.27"/><path d="M1691.13,415.85c0,4.26,3.07,9.02,11.11,9.02,10.31,0,21.13-8.43,21.13-17.16,0-5.86-4.96-9.13-11.11-9.13-9.63,0-21.13,8.14-21.13,17.27"/><path d="M1754.66,403.45c0,4.26,3.07,9.02,11.11,9.02,10.31,0,21.13-8.43,21.13-17.16,0-5.86-4.96-9.13-11.11-9.13-9.63,0-21.13,8.14-21.13,17.27"/><path d="M1818.2,415.85c0,4.26,3.07,9.02,11.11,9.02,10.31,0,21.13-8.43,21.13-17.16,0-5.86-4.96-9.13-11.11-9.13-9.63,0-21.13,8.14-21.13,17.27"/><path d="M1924.33,453.05c0,4.26,3.07,9.02,11.11,9.02,10.31,0,21.13-8.43,21.13-17.16,0-5.86-4.96-9.13-11.11-9.13-9.63,0-21.13,8.14-21.13,17.27"/><path d="M1987.86,440.65c0,4.26,3.07,9.02,11.11,9.02,10.31,0,21.13-8.43,21.13-17.16,0-5.86-4.96-9.13-11.11-9.13-9.63,0-21.13,8.14-21.13,17.27"/><path d="M2051.4,428.25c0,4.26,3.07,9.02,11.11,9.02,10.31,0,21.13-8.43,21.13-17.16,0-5.86-4.96-9.13-11.11-9.13-9.63,0-21.13,8.14-21.13,17.27"/><path d="M2114.93,403.45c0,4.26,3.07,9.02,11.11,9.02,10.31,0,21.13-8.43,21.13-17.16,0-5.86-4.96-9.13-11.11-9.13-9.63,0-21.13,8.14-21.13,17.27"/><path d="M2178.46,366.25c0,4.26,3.07,9.02,11.11,9.02,10.31,0,21.13-8.43,21.13-17.16,0-5.86-4.96-9.13-11.11-9.13-9.63,0-21.13,8.14-21.13,17.27"/><path d="M2242,403.45c0,4.26,3.07,9.02,11.11,9.02,10.31,0,21.13-8.43,21.13-17.16,0-5.86-4.96-9.13-11.11-9.13-9.63,0-21.13,8.14-21.13,17.27"/><path d="M2305.53,428.25c0,4.26,3.07,9.02,11.11,9.02,10.31,0,21.13-8.43,21.13-17.16,0-5.86-4.96-9.13-11.11-9.13-9.63,0-21.13,8.14-21.13,17.27"/><path d="M2369.06,403.45c0,4.26,3.07,9.02,11.11,9.02,10.31,0,21.13-8.43,21.13-17.16,0-5.86-4.96-9.13-11.11-9.13-9.63,0-21.13,8.14-21.13,17.27"/><path d="M2496.33,435.79c-9.63,0-21.13,8.04-21.13,17.27,0,4.26,3.07,9.02,11.11,9.02,10.31,0,21.13-8.43,21.13-17.16,0-5.86-4.96-9.13-11.11-9.13m-13.69,21.62c-3.27,0-3.97-2.67-3.97-3.57,0-4.87,16.66-13.39,21.33-13.39,2.39,0,3.97,1.4,3.97,3.57,0,4.96-16.77,13.39-21.33,13.39"/><path d="M271.74,119.37c0,4.26,3.07,9.02,11.11,9.02,10.31,0,21.13-8.43,21.13-17.16,0-5.86-4.96-9.13-11.11-9.13-9.63,0-21.13,8.14-21.13,17.27"/><path d="M329.14,94.57c0,4.26,3.07,9.02,11.11,9.02,10.31,0,21.13-8.43,21.13-17.16,0-5.86-4.96-9.13-11.11-9.13-9.63,0-21.13,8.14-21.13,17.27"/><path d="M386.54,69.77c0,4.26,3.07,9.02,11.11,9.02,10.31,0,21.13-8.43,21.13-17.16,0-5.86-4.96-9.13-11.11-9.13-9.63,0-21.13,8.14-21.13,17.27"/><path d="M443.94,94.57c0,4.26,3.07,9.02,11.11,9.02,10.31,0,21.13-8.43,21.13-17.16,0-5.86-4.96-9.13-11.11-9.13-9.63,0-21.13,8.14-21.13,17.27"/><path d="M501.34,119.37c0,4.26,3.07,9.02,11.11,9.02,10.31,0,21.13-8.43,21.13-17.16,0-5.86-4.96-9.13-11.11-9.13-9.63,0-21.13,8.14-21.13,17.27"/><path d="M558.74,94.57c0,4.26,3.07,9.02,11.11,9.02,10.31,0,21.13-8.43,21.13-17.16,0-5.86-4.96-9.13-11.11-9.13-9.63,0-21.13,8.14-21.13,17.27"/><path d="M616.14,69.77c0,4.26,3.07,9.02,11.11,9.02,10.31,0,21.13-8.43,21.13-17.16,0-5.86-4.96-9.13-11.11-9.13-9.63,0-21.13,8.14-21.13,17.27"/><path d="M673.54,94.57c0,4.26,3.07,9.02,11.11,9.02,10.31,0,21.13-8.43,21.13-17.16,0-5.86-4.96-9.13-11.11-9.13-9.63,0-21.13,8.14-21.13,17.27"/><path d="M779.68,119.37c0,4.26,3.07,9.02,11.11,9.02,10.31,0,21.13-8.43,21.13-17.16,0-5.86-4.96-9.13-11.11-9.13-9.63,0-21.13,8.14-21.13,17.27"/><path d="M837.08,94.57c0,4.26,3.07,9.02,11.11,9.02,10.31,0,21.13-8.43,21.13-17.16,0-5.86-4.96-9.13-11.11-9.13-9.63,0-21.13,8.14-21.13,17.27"/><path d="M894.48,69.77c0,4.26,3.07,9.02,11.11,9.02,10.31,0,21.13-8.43,21.13-17.16,0-5.86-4.96-9.13-11.11-9.13-9.63,0-21.13,8.14-21.13,17.27"/><path d="M951.88,94.57c0,4.26,3.07,9.02,11.11,9.02,10.31,0,21.13-8.43,21.13-17.16,0-5.86-4.96-9.13-11.11-9.13-9.63,0-21.13,8.14-21.13,17.27"/><path d="M1009.28,119.37c0,4.26,3.07,9.02,11.11,9.02,10.31,0,21.13-8.43,21.13-17.16,0-5.86-4.96-9.13-11.11-9.13-9.63,0-21.13,8.14-21.13,17.27"/><path d="M1066.68,94.57c0,4.26,3.07,9.02,11.11,9.02,10.31,0,21.13-8.43,21.13-17.16,0-5.86-4.96-9.13-11.11-9.13-9.63,0-21.13,8.14-21.13,17.27"/><path d="M1124.08,69.77c0,4.26,3.07,9.02,11.11,9.02,10.31,0,21.13-8.43,21.13-17.16,0-5.86-4.96-9.13-11.11-9.13-9.63,0-21.13,8.14-21.13,17.27"/><path d="M1181.48,94.57c0,4.26,3.07,9.02,11.11,9.02,10.31,0,21.13-8.43,21.13-17.16,0-5.86-4.96-9.13-11.11-9.13-9.63,0-21.13,8.14-21.13,17.27"/><path d="M1287.62,119.37c0,4.26,3.07,9.02,11.11,9.02,10.31,0,21.13-8.43,21.13-17.16,0-5.86-4.96-9.13-11.11-9.13-9.63,0-21.13,8.14-21.13,17.27"/><path d="M1345.02,82.17c0,4.26,3.07,9.02,11.11,9.02,10.31,0,21.13-8.43,21.13-17.16,0-5.86-4.96-9.13-11.11-9.13-9.63,0-21.13,8.14-21.13,17.27"/><path d="M1402.42,57.37c0,4.26,3.07,9.02,11.11,9.02,10.31,0,21.13-8.43,21.13-17.16,0-5.86-4.96-9.13-11.11-9.13-9.63,0-21.13,8.14-21.13,17.27"/><path d="M1459.82,82.17c0,4.26,3.07,9.02,11.11,9.02,10.31,0,21.13-8.43,21.13-17.16,0-5.86-4.96-9.13-11.11-9.13-9.63,0-21.13,8.14-21.13,17.27"/><path d="M1517.22,119.37c0,4.26,3.07,9.02,11.11,9.02,10.31,0,21.13-8.43,21.13-17.16,0-5.86-4.96-9.13-11.11-9.13-9.63,0-21.13,8.14-21.13,17.27"/><path d="M1574.62,82.17c0,4.26,3.07,9.02,11.11,9.02,10.31,0,21.13-8.43,21.13-17.16,0-5.86-4.96-9.13-11.11-9.13-9.63,0-21.13,8.14-21.13,17.27"/><path d="M1632.02,57.37c0,4.26,3.07,9.02,11.11,9.02,10.31,0,21.13-8.43,21.13-17.16,0-5.86-4.96-9.13-11.11-9.13-9.63,0-21.13,8.14-21.13,17.27"/><path d="M1689.42,82.17c0,4.26,3.07,9.02,11.11,9.02,10.31,0,21.13-8.43,21.13-17.16,0-5.86-4.96-9.13-11.11-9.13-9.63,0-21.13,8.14-21.13,17.27"/><path d="M1795.56,119.37c0,4.26,3.07,9.02,11.11,9.02,10.31,0,21.13-8.43,21.13-17.16,0-5.86-4.96-9.13-11.11-9.13-9.63,0-21.13,8.14-21.13,17.27"/><path d="M1852.96,82.17c0,4.26,3.07,9.02,11.11,9.02,10.31,0,21.13-8.43,21.13-17.16,0-5.86-4.96-9.13-11.11-9.13-9.63,0-21.13,8.14-21.13,17.27"/><path d="M1910.36,57.37c0,4.26,3.07,9.02,11.11,9.02,10.31,0,21.13-8.43,21.13-17.16,0-5.86-4.96-9.13-11.11-9.13-9.63,0-21.13,8.14-21.13,17.27"/><path d="M1967.76,82.17c0,4.26,3.07,9.02,11.11,9.02,10.31,0,21.13-8.43,21.13-17.16,0-5.86-4.96-9.13-11.11-9.13-9.63,0-21.13,8.14-21.13,17.27"/><path d="M2025.16,119.37c0,4.26,3.07,9.02,11.11,9.02,10.31,0,21.13-8.43,21.13-17.16,0-5.86-4.96-9.13-11.11-9.13-9.63,0-21.13,8.14-21.13,17.27"/><path d="M2082.56,82.17c0,4.26,3.07,9.02,11.11,9.02,10.31,0,21.13-8.43,21.13-17.16,0-5.86-4.96-9.13-11.11-9.13-9.63,0-21.13,8.14-21.13,17.27"/><path d="M2139.96,57.37c0,4.26,3.07,9.02,11.11,9.02,10.31,0,21.13-8.43,21.13-17.16,0-5.86-4.96-9.13-11.11-9.13-9.63,0-21.13,8.14-21.13,17.27"/><path d="M2197.36,82.17c0,4.26,3.07,9.02,11.11,9.02,10.31,0,21.13-8.43,21.13-17.16,0-5.86-4.96-9.13-11.11-9.13-9.63,0-21.13,8.14-21.13,17.27"/><path d="M2303.5,119.37c0,4.26,3.07,9.02,11.11,9.02,10.31,0,21.13-8.43,21.13-17.16,0-5.86-4.96-9.13-11.11-9.13-9.63,0-21.13,8.14-21.13,17.27"/><path d="M2360.9,94.57c0,4.26,3.07,9.02,11.11,9.02,10.31,0,21.13-8.43,21.13-17.16,0-5.86-4.96-9.13-11.11-9.13-9.63,0-21.13,8.14-21.13,17.27"/><path d="M2418.3,69.77c0,4.26,3.07,9.02,11.11,9.02,10.31,0,21.13-8.43,21.13-17.16,0-5.86-4.96-9.13-11.11-9.13-9.63,0-21.13,8.14-21.13,17.27"/><path d="M2475.7,94.57c0,4.26,3.07,9.02,11.11,9.02,10.31,0,21.13-8.43,21.13-17.16,0-5.86-4.96-9.13-11.11-9.13-9.63,0-21.13,8.14-21.13,17.27"/><path d="M2533.1,119.37c0,4.26,3.07,9.02,11.11,9.02,10.31,0,21.13-8.43,21.13-17.16,0-5.86-4.96-9.13-11.11-9.13-9.63,0-21.13,8.14-21.13,17.27"/><path d="M2590.5,94.57c0,4.26,3.07,9.02,11.11,9.02,10.31,0,21.13-8.43,21.13-17.16,0-5.86-4.96-9.13-11.11-9.13-9.63,0-21.13,8.14-21.13,17.27"/><path d="M2647.9,69.77c0,4.26,3.07,9.02,11.11,9.02,10.31,0,21.13-8.43,21.13-17.16,0-5.86-4.96-9.13-11.11-9.13-9.63,0-21.13,8.14-21.13,17.27"/><path d="M2705.3,94.57c0,4.26,3.07,9.02,11.11,9.02,10.31,0,21.13-8.43,21.13-17.16,0-5.86-4.96-9.13-11.11-9.13-9.63,0-21.13,8.14-21.13,17.27"/><path d="M30.8,178.49c0,6.56,4.96,15.19,18.35,15.19,4.67,0,8.74-1.19,12.31-3.38,5.36-3.77,6.74-10.32,6.74-16.57,0-3.86-.59-8.32-1.58-13.98-.29-1.98-.9-4.96-1.49-8.84,9.72-3.18,16.96-13.3,16.96-23.51,0-14.97-10.62-25.09-25.09-25.09-.99-5.95-1.98-11.81-2.77-17.36,10.42-11.02,17.65-23.42,17.65-39.18,0-9.04-2.77-16.37-4.37-19.95-2.37-5.05-5.25-8.53-7.04-8.53-.7,0-3.77,1.19-7.04,5.05-6.36,7.55-8.14,20.24-8.14,28.57,0,5.36,.5,10.23,2.19,21.34-.11,.09-5.27,5.35-7.35,7.04-9.04,8.34-21.53,20.43-21.53,40.28,0,18.54,16.17,33.12,34.63,33.12,2.87,0,5.55-.29,7.83-.7,1.89,9.53,3.08,16.48,3.08,21.73,0,10.32-5.36,15.78-15.38,15.78-2.39,0-4.46-.5-4.67-.5-.09-.11-.29-.2-.29-.29,0-.2,.2-.31,.5-.31,4.67-.79,9.32-4.76,9.32-11.1,0-5.36-4.06-11.02-11.5-11.02-6.94,0-11.31,5.66-11.31,12.2M51.54,46.06c.9-3.97,5.46-14.38,10.62-14.38,1.49,0,3.86,4.76,3.86,11.7,0,10.32-7.63,18.06-14.48,24.8-.59-3.97-1.08-7.83-1.08-12,0-3.67,.29-7.05,1.08-10.12m8.73,101.97c-1.98,.4-3.86,.6-5.75,.6-14.18,0-26.29-9.92-26.29-24.91,0-12.09,8.53-22.91,17.27-30.46,1.67-1.49,3.27-2.87,4.76-4.36,.88,5.35,1.58,10.01,2.28,14.09-9.04,2.68-15.17,12.2-15.17,21.53,0,6.94,5.46,16.46,13.39,16.46,.79,0,1.69-.4,1.69-1.29s-.99-1.39-2.19-2.19c-3.88-2.39-6.06-4.96-6.06-9.83,0-6.05,4.57-10.91,10.32-12.29l5.75,32.63m14.09-18.35c0,7.05-2.88,14.29-9.92,17.17-2.08-11.9-4.76-27.68-5.46-32.05,8.93,0,15.38,6.06,15.38,14.88"/><path d="M30.8,512.17c0,6.56,4.96,15.19,18.35,15.19,4.67,0,8.74-1.19,12.31-3.38,5.36-3.77,6.74-10.32,6.74-16.57,0-3.86-.59-8.32-1.58-13.98-.29-1.98-.9-4.96-1.49-8.84,9.72-3.18,16.96-13.3,16.96-23.51,0-14.97-10.62-25.09-25.09-25.09-.99-5.95-1.98-11.81-2.77-17.36,10.42-11.02,17.65-23.42,17.65-39.18,0-9.04-2.77-16.37-4.37-19.95-2.37-5.05-5.25-8.53-7.04-8.53-.7,0-3.77,1.19-7.04,5.05-6.36,7.55-8.14,20.24-8.14,28.57,0,5.36,.5,10.23,2.19,21.34-.11,.09-5.27,5.35-7.35,7.04-9.04,8.34-21.53,20.43-21.53,40.28,0,18.54,16.17,33.12,34.63,33.12,2.87,0,5.55-.29,7.83-.7,1.89,9.53,3.08,16.48,3.08,21.73,0,10.32-5.36,15.78-15.38,15.78-2.39,0-4.46-.5-4.67-.5-.09-.11-.29-.2-.29-.29,0-.2,.2-.31,.5-.31,4.67-.79,9.32-4.76,9.32-11.1,0-5.36-4.06-11.02-11.5-11.02-6.94,0-11.31,5.66-11.31,12.2m20.74-132.43c.9-3.97,5.46-14.38,10.62-14.38,1.49,0,3.86,4.76,3.86,11.7,0,10.32-7.63,18.06-14.48,24.8-.59-3.97-1.08-7.83-1.08-12,0-3.67,.29-7.05,1.08-10.12m8.73,101.97c-1.98,.4-3.86,.6-5.75,.6-14.18,0-26.29-9.92-26.29-24.91,0-12.09,8.53-22.91,17.27-30.46,1.67-1.49,3.27-2.87,4.76-4.36,.88,5.35,1.58,10.01,2.28,14.09-9.04,2.68-15.17,12.2-15.17,21.53,0,6.94,5.46,16.46,13.39,16.46,.79,0,1.69-.4,1.69-1.29s-.99-1.39-2.19-2.19c-3.88-2.39-6.06-4.96-6.06-9.83,0-6.05,4.57-10.91,10.32-12.29l5.75,32.63m14.09-18.35c0,7.05-2.88,14.29-9.92,17.17-2.08-11.9-4.76-27.68-5.46-32.05,8.93,0,15.38,6.06,15.38,14.88"/><path d="M118.79,87.43c-4.96,0-7.84,3.07-8.34,3.67l.4-31.85c0-.79-.59-1.38-1.4-1.38h-1.18c-.81,0-1.4,.59-1.4,1.38l.5,59.63c0,.79,.59,1.38,1.4,1.38,.19,0,.59-.09,.79-.19,8.53-4.28,17.45-12.4,17.45-22.63,0-5.15-2.37-10.01-8.23-10.01m-8.63,27.98l.29-19.34c.2-.9,1.69-3.77,5.66-3.77,3.58,0,3.87,3.36,3.87,5.46,0,8.82-3.27,12.49-9.83,17.65"/><path d="M146.36,50.23c-4.96,0-7.84,3.07-8.34,3.67l.4-31.85c0-.79-.59-1.38-1.4-1.38h-1.18c-.81,0-1.4,.59-1.4,1.38l.5,59.63c0,.79,.59,1.38,1.4,1.38,.19,0,.59-.09,.79-.19,8.53-4.28,17.45-12.4,17.45-22.63,0-5.15-2.37-10.01-8.23-10.01m-8.63,27.98l.29-19.34c.2-.9,1.69-3.77,5.66-3.77,3.58,0,3.87,3.36,3.87,5.46,0,8.82-3.27,12.49-9.83,17.65"/><path d="M173.93,99.83c-4.96,0-7.84,3.07-8.34,3.67l.4-31.85c0-.79-.59-1.38-1.4-1.38h-1.18c-.81,0-1.4,.59-1.4,1.38l.5,59.63c0,.79,.59,1.38,1.4,1.38,.19,0,.59-.09,.79-.19,8.53-4.28,17.45-12.4,17.45-22.63,0-5.15-2.37-10.01-8.23-10.01m-8.63,27.98l.29-19.34c.2-.9,1.69-3.77,5.66-3.77,3.58,0,3.87,3.36,3.87,5.46,0,8.82-3.27,12.49-9.83,17.65"/><path d="M201.51,62.63c-4.96,0-7.84,3.07-8.34,3.67l.4-31.85c0-.79-.59-1.38-1.4-1.38h-1.18c-.81,0-1.4,.59-1.4,1.38l.5,59.63c0,.79,.59,1.38,1.4,1.38,.19,0,.59-.09,.79-.19,8.53-4.28,17.45-12.4,17.45-22.63,0-5.15-2.37-10.01-8.23-10.01m-8.63,27.98l.29-19.34c.2-.9,1.69-3.77,5.66-3.77,3.58,0,3.87,3.36,3.87,5.46,0,8.82-3.27,12.49-9.83,17.65"/><path d="M118.79,421.11c-4.96,0-7.84,3.07-8.34,3.67l.4-31.85c0-.79-.59-1.38-1.4-1.38h-1.18c-.81,0-1.4,.59-1.4,1.38l.5,59.63c0,.79,.59,1.38,1.4,1.38,.19,0,.59-.09,.79-.19,8.53-4.28,17.45-12.4,17.45-22.63,0-5.15-2.37-10.01-8.23-10.01m-8.63,27.98l.29-19.34c.2-.9,1.69-3.77,5.66-3.77,3.58,0,3.87,3.36,3.87,5.46,0,8.82-3.27,12.49-9.83,17.65"/><path d="M146.36,383.91c-4.96,0-7.84,3.07-8.34,3.67l.4-31.85c0-.79-.59-1.38-1.4-1.38h-1.18c-.81,0-1.4,.59-1.4,1.38l.5,59.63c0,.79,.59,1.38,1.4,1.38,.19,0,.59-.09,.79-.19,8.53-4.28,17.45-12.4,17.45-22.63,0-5.15-2.37-10.01-8.23-10.01m-8.63,27.98l.29-19.34c.2-.9,1.69-3.77,5.66-3.77,3.58,0,3.87,3.36,3.87,5.46,0,8.82-3.27,12.49-9.83,17.65"/><path d="M173.93,433.51c-4.96,0-7.84,3.07-8.34,3.67l.4-31.85c0-.79-.59-1.38-1.4-1.38h-1.18c-.81,0-1.4,.59-1.4,1.38l.5,59.63c0,.79,.59,1.38,1.4,1.38,.19,0,.59-.09,.79-.19,8.53-4.28,17.45-12.4,17.45-22.63,0-5.15-2.37-10.01-8.23-10.01m-8.63,27.98l.29-19.34c.2-.9,1.69-3.77,5.66-3.77,3.58,0,3.87,3.36,3.87,5.46,0,8.82-3.27,12.49-9.83,17.65"/><path d="M201.51,396.31c-4.96,0-7.84,3.07-8.34,3.67l.4-31.85c0-.79-.59-1.38-1.4-1.38h-1.18c-.81,0-1.4,.59-1.4,1.38l.5,59.63c0,.79,.59,1.38,1.4,1.38,.19,0,.59-.09,.79-.19,8.53-4.28,17.45-12.4,17.45-22.63,0-5.15-2.37-10.01-8.23-10.01m-8.63,27.98l.29-19.34c.2-.9,1.69-3.77,5.66-3.77,3.58,0,3.87,3.36,3.87,5.46,0,8.82-3.27,12.49-9.83,17.65"/><path d="M2618.15,435.49q0,1.4,1.4,1.4h29.47q1.38,0,1.38-1.4v-10.71q0-1.39-1.38-1.39h-29.47q-1.4,0-1.4,1.39v10.71"/><path d="M2514.04,332.57c-9.32-10.12-17.56-10.71-22.71-10.71s-13.3,.59-22.63,10.71c-4.85,5.36-8.23,15.97-8.23,21.33,0,1.89,.4,3.18,1.4,3.18,2.77,0,1.38-8.54,9.72-16.97,7.33-7.33,17.16-7.44,19.55-7.44h.39c2.39,0,12.21,.11,19.55,7.44,8.34,8.43,6.94,16.97,9.72,16.97,.99,0,1.39-1.19,1.39-3.18,0-5.36-3.27-16.07-8.14-21.33m-29.56,18.94c0,3.78,3.07,6.85,6.85,6.85s6.84-3.07,6.84-6.85-3.07-6.84-6.84-6.84-6.85,3.07-6.85,6.84"/><path d="M1287.62,177.16l174.68-18.6v12.47l-174.68,18.6v-12.47" fill-rule="evenodd"/><path d="M2178.46,486.08h193.08v12.4h-193.08v-12.4" fill-rule="evenodd"/><path d="M2025.16,177.16l174.68-18.6v12.47l-174.68,18.6v-12.47" fill-rule="evenodd"/><path d="M1009.28,177.18l174.68-12.4v12.44l-174.68,12.4v-12.44" fill-rule="evenodd"/><path d="M1076.73,517.03l193.08-24.8v12.5l-193.08,24.8v-12.5" fill-rule="evenodd"/><path d="M501.34,177.18l174.68-12.4v12.44l-174.68,12.4v-12.44" fill-rule="evenodd"/><path d="M525.87,510.87l193.08-12.4v12.42l-193.08,12.4v-12.42" fill-rule="evenodd"/><path d="M1373.47,498.48l193.08-6.2v12.4l-193.08,6.2v-12.4" fill-rule="evenodd"/><path d="M271.74,177.18l174.68-12.4v12.44l-174.68,12.4v-12.44" fill-rule="evenodd"/><path d="M1795.56,177.16l174.68-18.6v12.47l-174.68,18.6v-12.47" fill-rule="evenodd"/><path d="M2533.1,177.18l174.68-12.4v12.44l-174.68,12.4v-12.44" fill-rule="evenodd"/><path d="M1627.6,517.03l193.08-24.8v12.5l-193.08,24.8v-12.5" fill-rule="evenodd"/><path d="M271.74,510.87l193.08-12.4v12.42l-193.08,12.4v-12.42" fill-rule="evenodd"/><path d="M1517.22,177.16l174.68-18.6v12.47l-174.68,18.6v-12.47" fill-rule="evenodd"/><path d="M822.6,498.48l193.08-6.2v12.4l-193.08,6.2v-12.4" fill-rule="evenodd"/><path d="M1924.33,510.85l193.08-18.6v12.46l-193.08,18.6v-12.46" fill-rule="evenodd"/><path d="M779.68,177.18l174.68-12.4v12.44l-174.68,12.4v-12.44" fill-rule="evenodd"/><path d="M2303.5,177.18l174.68-12.4v12.44l-174.68,12.4v-12.44" fill-rule="evenodd"/></g></svg>