<?xml version="1.0" encoding="UTF-8"?><svg id="b" xmlns="http://www.w3.org/2000/svg" viewBox="0 0 2779.2 537.26"><g id="c"><line y1="63.11" x2="2779.2" y2="63.11" fill="none" stroke="#000" stroke-linejoin="bevel" stroke-width="2.73"/><line y1="87.91" x2="2779.2" y2="87.91" fill="none" stroke="#000" stroke-linejoin="bevel" stroke-width="2.73"/><line y1="112.71" x2="2779.2" y2="112.71" fill="none" stroke="#000" stroke-linejoin="bevel" stroke-width="2.73"/><line y1="137.51" x2="2779.2" y2="137.51" fill="none" stroke="#000" stroke-linejoin="bevel" stroke-width="2.73"/><line y1="162.31" x2="2779.2" y2="162.31" fill="none" stroke="#000" stroke-linejoin="bevel" stroke-width="2.73"/><line y1="396.79" x2="2779.2" y2="396.79" fill="none" stroke="#000" stroke-linejoin="bevel" stroke-width="2.73"/><line y1="421.59" x2="2779.2" y2="421.59" fill="none" stroke="#000" stroke-linejoin="bevel" stroke-width="2.73"/><line y1="446.39" x2="2779.2" y2="446.39" fill="none" stroke="#000" stroke-linejoin="bevel" stroke-width="2.73"/><line y1="471.19" x2="2779.2" y2="471.19" fill="none" stroke="#000" stroke-linejoin="bevel" stroke-width="2.73"/><line y1="495.99" x2="2779.2" y2="495.99" fill="none" stroke="#000" stroke-linejoin="bevel" stroke-width="2.73"/><path d="M1270.64,74.44c57.49-85.6,340.29-99.86,412.84-26.43-71.99-65.51-354.8-51.26-412.84,26.43" fill-rule="evenodd" stroke="#000" stroke-linecap="round" stroke-linejoin="round" stroke-width="1.24"/><path d="M751.68,79.62C820.48,7.66,1085.71-4.7,1164.51,57.4c-78.32-54.18-343.56-41.82-412.84,22.21" fill-rule="evenodd" stroke="#000" stroke-linecap="round" stroke-linejoin="round" stroke-width="1.24"/><path d="M232.71,415.88c60.64-69.18,386.81-84.75,456.61-24.8-69.37-52.02-395.53-36.46-456.61,24.8" fill-rule="evenodd" stroke="#000" stroke-linecap="round" stroke-linejoin="round" stroke-width="1.24"/><path d="M795.45,411.67c60.87-64.9,387.03-80.47,456.6-24.8-69.14-47.74-395.3-32.17-456.6,24.8" fill-rule="evenodd" stroke="#000" stroke-linecap="round" stroke-linejoin="round" stroke-width="1.24"/><path d="M232.71,79.62C301.51,7.66,566.74-4.7,645.54,57.4,567.22,3.22,301.99,15.59,232.71,79.62" fill-rule="evenodd" stroke="#000" stroke-linecap="round" stroke-linejoin="round" stroke-width="1.24"/><path d="M1789.61,74.44c57.49-85.6,340.29-99.86,412.84-26.43-71.99-65.51-354.8-51.26-412.84,26.43" fill-rule="evenodd" stroke="#000" stroke-linecap="round" stroke-linejoin="round" stroke-width="1.24"/><path d="M2308.58,79.62c68.81-71.95,334.04-84.32,412.84-22.21-78.32-54.18-343.56-41.82-412.84,22.21" fill-rule="evenodd" stroke="#000" stroke-linecap="round" stroke-linejoin="round" stroke-width="1.24"/><path d="M1358.19,411.67c60.88-64.9,387.04-80.47,456.61-24.8-69.14-47.74-395.3-32.17-456.61,24.8" fill-rule="evenodd" stroke="#000" stroke-linecap="round" stroke-linejoin="round" stroke-width="1.24"/><path d="M1920.93,404.42c61.77-80.38,381.39-109.37,456.61-41.42-74.5-60.05-394.13-31.07-456.61,41.42" fill-rule="evenodd" stroke="#000" stroke-linecap="round" stroke-linejoin="round" stroke-width="1.24"/><line x1="1870.35" y1="395.42" x2="1870.35" y2="497.35" fill="none" stroke="#000" stroke-linejoin="bevel" stroke-width="4.46"/><line x1="701.09" y1="61.74" x2="701.09" y2="163.67" fill="none" stroke="#000" stroke-linejoin="bevel" stroke-width="4.46"/><line x1="1220.06" y1="61.74" x2="1220.06" y2="163.67" fill="none" stroke="#000" stroke-linejoin="bevel" stroke-width="4.46"/><line x1="2776.97" y1="61.74" x2="2776.97" y2="163.67" fill="none" stroke="#000" stroke-linejoin="bevel" stroke-width="4.46"/><line x1="1307.6" y1="395.42" x2="1307.6" y2="497.35" fill="none" stroke="#000" stroke-linejoin="bevel" stroke-width="4.46"/><line x1="2763.33" y1="395.42" x2="2763.33" y2="497.35" fill="none" stroke="#000" stroke-linejoin="bevel" stroke-width="4.46"/><line x1="2776.97" y1="395.42" x2="2776.97" y2="497.35" fill="none" stroke="#000" stroke-linejoin="bevel" stroke-width="4.46"/><line x1="2433.09" y1="395.42" x2="2433.09" y2="497.35" fill="none" stroke="#000" stroke-linejoin="bevel" stroke-width="4.46"/><line x1="744.86" y1="395.42" x2="744.86" y2="497.35" fill="none" stroke="#000" stroke-linejoin="bevel" stroke-width="4.46"/><line x1="1739.03" y1="61.74" x2="1739.03" y2="163.67" fill="none" stroke="#000" stroke-linejoin="bevel" stroke-width="4.46"/><line x1="2258" y1="61.74" x2="2258" y2="163.67" fill="none" stroke="#000" stroke-linejoin="bevel" stroke-width="4.46"/><line x1="2157.55" y1="371.99" x2="2206.15" y2="371.99" fill="none" stroke="#000" stroke-linejoin="bevel" stroke-width="3.97"/><line x1="2297.44" y1="425.75" x2="2297.44" y2="495.99" fill="none" stroke="#000" stroke-linejoin="bevel" stroke-width="2.48"/><line x1="2069.62" y1="79.67" x2="2069.62" y2="174.66" fill="none" stroke="#000" stroke-linejoin="bevel" stroke-width="2.48"/><line x1="217.83" y1="116.87" x2="217.83" y2="180.86" fill="none" stroke="#000" stroke-linejoin="bevel" stroke-width="2.48"/><line x1="2128.6" y1="54.87" x2="2128.6" y2="168.55" fill="none" stroke="#000" stroke-linejoin="bevel" stroke-width="2.48"/><line x1="2362.66" y1="400.95" x2="2362.66" y2="495.99" fill="none" stroke="#000" stroke-linejoin="bevel" stroke-width="2.48"/><line x1="2187.57" y1="79.67" x2="2187.57" y2="162.43" fill="none" stroke="#000" stroke-linejoin="bevel" stroke-width="2.48"/><line x1="1343.31" y1="438.15" x2="1343.31" y2="502.11" fill="none" stroke="#000" stroke-linejoin="bevel" stroke-width="2.48"/><line x1="276.81" y1="92.07" x2="276.81" y2="178.82" fill="none" stroke="#000" stroke-linejoin="bevel" stroke-width="2.48"/><line x1="335.78" y1="67.27" x2="335.78" y2="176.79" fill="none" stroke="#000" stroke-linejoin="bevel" stroke-width="2.48"/><line x1="2293.71" y1="116.87" x2="2293.71" y2="180.86" fill="none" stroke="#000" stroke-linejoin="bevel" stroke-width="2.48"/><line x1="394.76" y1="92.07" x2="394.76" y2="174.75" fill="none" stroke="#000" stroke-linejoin="bevel" stroke-width="2.48"/><line x1="1408.54" y1="413.35" x2="1408.54" y2="498.03" fill="none" stroke="#000" stroke-linejoin="bevel" stroke-width="2.48"/><line x1="2352.68" y1="92.07" x2="2352.68" y2="178.82" fill="none" stroke="#000" stroke-linejoin="bevel" stroke-width="2.48"/><line x1="453.74" y1="116.87" x2="453.74" y2="180.86" fill="none" stroke="#000" stroke-linejoin="bevel" stroke-width="2.48"/><line x1="2411.66" y1="67.27" x2="2411.66" y2="176.79" fill="none" stroke="#000" stroke-linejoin="bevel" stroke-width="2.48"/><line x1="2468.8" y1="450.55" x2="2468.8" y2="520.79" fill="none" stroke="#000" stroke-linejoin="bevel" stroke-width="2.48"/><line x1="2470.64" y1="92.07" x2="2470.64" y2="174.75" fill="none" stroke="#000" stroke-linejoin="bevel" stroke-width="2.48"/><line x1="1550.65" y1="79.67" x2="1550.65" y2="174.66" fill="none" stroke="#000" stroke-linejoin="bevel" stroke-width="2.48"/><line x1="2529.61" y1="116.87" x2="2529.61" y2="180.86" fill="none" stroke="#000" stroke-linejoin="bevel" stroke-width="2.48"/><line x1="1473.77" y1="400.95" x2="1473.77" y2="493.94" fill="none" stroke="#000" stroke-linejoin="bevel" stroke-width="2.48"/><line x1="512.71" y1="92.07" x2="512.71" y2="178.82" fill="none" stroke="#000" stroke-linejoin="bevel" stroke-width="2.48"/><line x1="2588.59" y1="92.07" x2="2588.59" y2="178.82" fill="none" stroke="#000" stroke-linejoin="bevel" stroke-width="2.48"/><line x1="571.69" y1="67.27" x2="571.69" y2="176.79" fill="none" stroke="#000" stroke-linejoin="bevel" stroke-width="2.48"/><line x1="2647.57" y1="67.27" x2="2647.57" y2="176.79" fill="none" stroke="#000" stroke-linejoin="bevel" stroke-width="2.48"/><line x1="630.66" y1="92.07" x2="630.66" y2="174.75" fill="none" stroke="#000" stroke-linejoin="bevel" stroke-width="2.48"/><line x1="2706.54" y1="92.07" x2="2706.54" y2="174.75" fill="none" stroke="#000" stroke-linejoin="bevel" stroke-width="2.48"/><line x1="736.8" y1="116.87" x2="736.8" y2="180.86" fill="none" stroke="#000" stroke-linejoin="bevel" stroke-width="2.48"/><line x1="1604.23" y1="462.95" x2="1604.23" y2="526.87" fill="none" stroke="#000" stroke-linejoin="bevel" stroke-width="2.48"/><line x1="795.77" y1="92.07" x2="795.77" y2="178.82" fill="none" stroke="#000" stroke-linejoin="bevel" stroke-width="2.48"/><line x1="854.75" y1="67.27" x2="854.75" y2="176.79" fill="none" stroke="#000" stroke-linejoin="bevel" stroke-width="2.48"/><line x1="1669.46" y1="413.35" x2="1669.46" y2="520.75" fill="none" stroke="#000" stroke-linejoin="bevel" stroke-width="2.48"/><line x1="913.73" y1="92.07" x2="913.73" y2="174.75" fill="none" stroke="#000" stroke-linejoin="bevel" stroke-width="2.48"/><line x1="972.7" y1="116.87" x2="972.7" y2="180.86" fill="none" stroke="#000" stroke-linejoin="bevel" stroke-width="2.48"/><line x1="1734.69" y1="400.95" x2="1734.69" y2="514.62" fill="none" stroke="#000" stroke-linejoin="bevel" stroke-width="2.48"/><line x1="1031.68" y1="92.07" x2="1031.68" y2="178.82" fill="none" stroke="#000" stroke-linejoin="bevel" stroke-width="2.48"/><line x1="1799.92" y1="413.35" x2="1799.92" y2="508.5" fill="none" stroke="#000" stroke-linejoin="bevel" stroke-width="2.48"/><line x1="1090.66" y1="67.27" x2="1090.66" y2="176.79" fill="none" stroke="#000" stroke-linejoin="bevel" stroke-width="2.48"/><line x1="1149.63" y1="92.07" x2="1149.63" y2="174.75" fill="none" stroke="#000" stroke-linejoin="bevel" stroke-width="2.48"/><line x1="1255.77" y1="116.87" x2="1255.77" y2="180.78" fill="none" stroke="#000" stroke-linejoin="bevel" stroke-width="2.48"/><line x1="283.06" y1="425.75" x2="283.06" y2="512.51" fill="none" stroke="#000" stroke-linejoin="bevel" stroke-width="2.48"/><line x1="1906.06" y1="450.55" x2="1906.06" y2="514.43" fill="none" stroke="#000" stroke-linejoin="bevel" stroke-width="2.48"/><line x1="348.29" y1="400.95" x2="348.29" y2="510.47" fill="none" stroke="#000" stroke-linejoin="bevel" stroke-width="2.48"/><line x1="1314.74" y1="79.67" x2="1314.74" y2="174.66" fill="none" stroke="#000" stroke-linejoin="bevel" stroke-width="2.48"/><line x1="413.52" y1="425.75" x2="413.52" y2="508.42" fill="none" stroke="#000" stroke-linejoin="bevel" stroke-width="2.48"/><line x1="1373.72" y1="54.87" x2="1373.72" y2="168.55" fill="none" stroke="#000" stroke-linejoin="bevel" stroke-width="2.48"/><line x1="478.75" y1="450.55" x2="478.75" y2="514.55" fill="none" stroke="#000" stroke-linejoin="bevel" stroke-width="2.48"/><line x1="1432.7" y1="79.67" x2="1432.7" y2="162.43" fill="none" stroke="#000" stroke-linejoin="bevel" stroke-width="2.48"/><line x1="1971.29" y1="438.15" x2="1971.29" y2="506.27" fill="none" stroke="#000" stroke-linejoin="bevel" stroke-width="2.48"/><line x1="543.98" y1="425.75" x2="543.98" y2="512.51" fill="none" stroke="#000" stroke-linejoin="bevel" stroke-width="2.48"/><line x1="1491.67" y1="116.87" x2="1491.67" y2="180.78" fill="none" stroke="#000" stroke-linejoin="bevel" stroke-width="2.48"/><line x1="609.21" y1="400.95" x2="609.21" y2="510.47" fill="none" stroke="#000" stroke-linejoin="bevel" stroke-width="2.48"/><line x1="2036.52" y1="425.75" x2="2036.52" y2="498.1" fill="none" stroke="#000" stroke-linejoin="bevel" stroke-width="2.48"/><line x1="674.44" y1="425.75" x2="674.44" y2="508.42" fill="none" stroke="#000" stroke-linejoin="bevel" stroke-width="2.48"/><line x1="1609.63" y1="54.87" x2="1609.63" y2="168.55" fill="none" stroke="#000" stroke-linejoin="bevel" stroke-width="2.48"/><line x1="217.83" y1="450.55" x2="217.83" y2="514.55" fill="none" stroke="#000" stroke-linejoin="bevel" stroke-width="2.48"/><line x1="2101.75" y1="400.95" x2="2101.75" y2="489.94" fill="none" stroke="#000" stroke-linejoin="bevel" stroke-width="2.48"/><line x1="780.57" y1="438.15" x2="780.57" y2="502.11" fill="none" stroke="#000" stroke-linejoin="bevel" stroke-width="2.48"/><line x1="1668.6" y1="79.67" x2="1668.6" y2="162.43" fill="none" stroke="#000" stroke-linejoin="bevel" stroke-width="2.48"/><line x1="1774.74" y1="116.87" x2="1774.74" y2="180.78" fill="none" stroke="#000" stroke-linejoin="bevel" stroke-width="2.48"/><line x1="845.8" y1="413.35" x2="845.8" y2="498.03" fill="none" stroke="#000" stroke-linejoin="bevel" stroke-width="2.48"/><line x1="2166.98" y1="363.75" x2="2166.98" y2="495.99" fill="none" stroke="#000" stroke-linejoin="bevel" stroke-width="2.48"/><line x1="911.03" y1="400.95" x2="911.03" y2="493.94" fill="none" stroke="#000" stroke-linejoin="bevel" stroke-width="2.48"/><line x1="1833.71" y1="79.67" x2="1833.71" y2="174.66" fill="none" stroke="#000" stroke-linejoin="bevel" stroke-width="2.48"/><line x1="976.26" y1="413.35" x2="976.26" y2="489.86" fill="none" stroke="#000" stroke-linejoin="bevel" stroke-width="2.48"/><line x1="1892.69" y1="54.87" x2="1892.69" y2="168.55" fill="none" stroke="#000" stroke-linejoin="bevel" stroke-width="2.48"/><line x1="1041.49" y1="462.95" x2="1041.49" y2="526.87" fill="none" stroke="#000" stroke-linejoin="bevel" stroke-width="2.48"/><line x1="1951.67" y1="79.67" x2="1951.67" y2="162.43" fill="none" stroke="#000" stroke-linejoin="bevel" stroke-width="2.48"/><line x1="2232.21" y1="400.95" x2="2232.21" y2="495.99" fill="none" stroke="#000" stroke-linejoin="bevel" stroke-width="2.48"/><line x1="1106.72" y1="413.35" x2="1106.72" y2="520.75" fill="none" stroke="#000" stroke-linejoin="bevel" stroke-width="2.48"/><line x1="2010.64" y1="116.87" x2="2010.64" y2="180.78" fill="none" stroke="#000" stroke-linejoin="bevel" stroke-width="2.48"/><line x1="1171.95" y1="400.95" x2="1171.95" y2="514.62" fill="none" stroke="#000" stroke-linejoin="bevel" stroke-width="2.48"/><line x1="1539" y1="413.35" x2="1539" y2="489.86" fill="none" stroke="#000" stroke-linejoin="bevel" stroke-width="2.48"/><line x1="1237.18" y1="413.35" x2="1237.18" y2="508.5" fill="none" stroke="#000" stroke-linejoin="bevel" stroke-width="2.48"/><path d="M281.82,425.76c0,4.26,3.07,9.02,11.11,9.02,10.31,0,21.13-8.43,21.13-17.16,0-5.86-4.96-9.13-11.11-9.13-9.63,0-21.13,8.14-21.13,17.27"/><path d="M216.59,450.56c0,4.26,3.07,9.02,11.11,9.02,10.31,0,21.13-8.43,21.13-17.16,0-5.86-4.96-9.13-11.11-9.13-9.63,0-21.13,8.14-21.13,17.27"/><path d="M216.59,116.88c0,4.26,3.07,9.02,11.11,9.02,10.31,0,21.13-8.43,21.13-17.16,0-5.86-4.96-9.13-11.11-9.13-9.63,0-21.13,8.14-21.13,17.27"/><path d="M909.79,400.96c0,4.26,3.07,9.02,11.11,9.02,10.31,0,21.13-8.43,21.13-17.16,0-5.86-4.96-9.13-11.11-9.13-9.63,0-21.13,8.14-21.13,17.27"/><path d="M275.57,92.08c0,4.26,3.07,9.02,11.11,9.02,10.31,0,21.13-8.43,21.13-17.16,0-5.86-4.96-9.13-11.11-9.13-9.63,0-21.13,8.14-21.13,17.27"/><path d="M334.54,67.28c0,4.26,3.07,9.02,11.11,9.02,10.31,0,21.13-8.43,21.13-17.16,0-5.86-4.96-9.13-11.11-9.13-9.63,0-21.13,8.14-21.13,17.27"/><path d="M393.52,92.08c0,4.26,3.07,9.02,11.11,9.02,10.31,0,21.13-8.43,21.13-17.16,0-5.86-4.96-9.13-11.11-9.13-9.63,0-21.13,8.14-21.13,17.27"/><path d="M452.5,116.88c0,4.26,3.07,9.02,11.11,9.02,10.31,0,21.13-8.43,21.13-17.16,0-5.86-4.96-9.13-11.11-9.13-9.63,0-21.13,8.14-21.13,17.27"/><path d="M2361.42,400.96c0,4.26,3.07,9.02,11.11,9.02,10.31,0,21.13-8.43,21.13-17.16,0-5.86-4.96-9.13-11.11-9.13-9.63,0-21.13,8.14-21.13,17.27"/><path d="M511.47,92.08c0,4.26,3.07,9.02,11.11,9.02,10.31,0,21.13-8.43,21.13-17.16,0-5.86-4.96-9.13-11.11-9.13-9.63,0-21.13,8.14-21.13,17.27"/><path d="M570.45,67.28c0,4.26,3.07,9.02,11.11,9.02,10.31,0,21.13-8.43,21.13-17.16,0-5.86-4.96-9.13-11.11-9.13-9.63,0-21.13,8.14-21.13,17.27"/><path d="M629.42,92.08c0,4.26,3.07,9.02,11.11,9.02,10.31,0,21.13-8.43,21.13-17.16,0-5.86-4.96-9.13-11.11-9.13-9.63,0-21.13,8.14-21.13,17.27"/><path d="M735.56,116.88c0,4.26,3.07,9.02,11.11,9.02,10.31,0,21.13-8.43,21.13-17.16,0-5.86-4.96-9.13-11.11-9.13-9.63,0-21.13,8.14-21.13,17.27"/><path d="M347.05,400.96c0,4.26,3.07,9.02,11.11,9.02,10.31,0,21.13-8.43,21.13-17.16,0-5.86-4.96-9.13-11.11-9.13-9.63,0-21.13,8.14-21.13,17.27"/><path d="M794.53,92.08c0,4.26,3.07,9.02,11.11,9.02,10.31,0,21.13-8.43,21.13-17.16,0-5.86-4.96-9.13-11.11-9.13-9.63,0-21.13,8.14-21.13,17.27"/><path d="M853.51,67.28c0,4.26,3.07,9.02,11.11,9.02,10.31,0,21.13-8.43,21.13-17.16,0-5.86-4.96-9.13-11.11-9.13-9.63,0-21.13,8.14-21.13,17.27"/><path d="M912.49,92.08c0,4.26,3.07,9.02,11.11,9.02,10.31,0,21.13-8.43,21.13-17.16,0-5.86-4.96-9.13-11.11-9.13-9.63,0-21.13,8.14-21.13,17.27"/><path d="M971.46,116.88c0,4.26,3.07,9.02,11.11,9.02,10.31,0,21.13-8.43,21.13-17.16,0-5.86-4.96-9.13-11.11-9.13-9.63,0-21.13,8.14-21.13,17.27"/><path d="M1950.43,79.68c0,4.26,3.07,9.02,11.11,9.02,10.31,0,21.13-8.43,21.13-17.16,0-5.86-4.96-9.13-11.11-9.13-9.63,0-21.13,8.14-21.13,17.27"/><path d="M1030.44,92.08c0,4.26,3.07,9.02,11.11,9.02,10.31,0,21.13-8.43,21.13-17.16,0-5.86-4.96-9.13-11.11-9.13-9.63,0-21.13,8.14-21.13,17.27"/><path d="M1089.42,67.28c0,4.26,3.07,9.02,11.11,9.02,10.31,0,21.13-8.43,21.13-17.16,0-5.86-4.96-9.13-11.11-9.13-9.63,0-21.13,8.14-21.13,17.27"/><path d="M1148.39,92.08c0,4.26,3.07,9.02,11.11,9.02,10.31,0,21.13-8.43,21.13-17.16,0-5.86-4.96-9.13-11.11-9.13-9.63,0-21.13,8.14-21.13,17.27"/><path d="M1254.53,116.88c0,4.26,3.07,9.02,11.11,9.02,10.31,0,21.13-8.43,21.13-17.16,0-5.86-4.96-9.13-11.11-9.13-9.63,0-21.13,8.14-21.13,17.27"/><path d="M412.28,425.76c0,4.26,3.07,9.02,11.11,9.02,10.31,0,21.13-8.43,21.13-17.16,0-5.86-4.96-9.13-11.11-9.13-9.63,0-21.13,8.14-21.13,17.27"/><path d="M1313.5,79.68c0,4.26,3.07,9.02,11.11,9.02,10.31,0,21.13-8.43,21.13-17.16,0-5.86-4.96-9.13-11.11-9.13-9.63,0-21.13,8.14-21.13,17.27"/><path d="M1372.48,54.88c0,4.26,3.07,9.02,11.11,9.02,10.31,0,21.13-8.43,21.13-17.16,0-5.86-4.96-9.13-11.11-9.13-9.63,0-21.13,8.14-21.13,17.27"/><path d="M1431.46,79.68c0,4.26,3.07,9.02,11.11,9.02,10.31,0,21.13-8.43,21.13-17.16,0-5.86-4.96-9.13-11.11-9.13-9.63,0-21.13,8.14-21.13,17.27"/><path d="M1490.43,116.88c0,4.26,3.07,9.02,11.11,9.02,10.31,0,21.13-8.43,21.13-17.16,0-5.86-4.96-9.13-11.11-9.13-9.63,0-21.13,8.14-21.13,17.27"/><path d="M477.51,450.56c0,4.26,3.07,9.02,11.11,9.02,10.31,0,21.13-8.43,21.13-17.16,0-5.86-4.96-9.13-11.11-9.13-9.63,0-21.13,8.14-21.13,17.27"/><path d="M1549.41,79.68c0,4.26,3.07,9.02,11.11,9.02,10.31,0,21.13-8.43,21.13-17.16,0-5.86-4.96-9.13-11.11-9.13-9.63,0-21.13,8.14-21.13,17.27"/><path d="M1608.39,54.88c0,4.26,3.07,9.02,11.11,9.02,10.31,0,21.13-8.43,21.13-17.16,0-5.86-4.96-9.13-11.11-9.13-9.63,0-21.13,8.14-21.13,17.27"/><path d="M1667.36,79.68c0,4.26,3.07,9.02,11.11,9.02,10.31,0,21.13-8.43,21.13-17.16,0-5.86-4.96-9.13-11.11-9.13-9.63,0-21.13,8.14-21.13,17.27"/><path d="M1773.5,116.88c0,4.26,3.07,9.02,11.11,9.02,10.31,0,21.13-8.43,21.13-17.16,0-5.86-4.96-9.13-11.11-9.13-9.63,0-21.13,8.14-21.13,17.27"/><path d="M975.02,413.36c0,4.26,3.07,9.02,11.11,9.02,10.31,0,21.13-8.43,21.13-17.16,0-5.86-4.96-9.13-11.11-9.13-9.63,0-21.13,8.14-21.13,17.27"/><path d="M1832.47,79.68c0,4.26,3.07,9.02,11.11,9.02,10.31,0,21.13-8.43,21.13-17.16,0-5.86-4.96-9.13-11.11-9.13-9.63,0-21.13,8.14-21.13,17.27"/><path d="M1891.45,54.88c0,4.26,3.07,9.02,11.11,9.02,10.31,0,21.13-8.43,21.13-17.16,0-5.86-4.96-9.13-11.11-9.13-9.63,0-21.13,8.14-21.13,17.27"/><path d="M542.74,425.76c0,4.26,3.07,9.02,11.11,9.02,10.31,0,21.13-8.43,21.13-17.16,0-5.86-4.96-9.13-11.11-9.13-9.63,0-21.13,8.14-21.13,17.27"/><path d="M2009.4,116.88c0,4.26,3.07,9.02,11.11,9.02,10.31,0,21.13-8.43,21.13-17.16,0-5.86-4.96-9.13-11.11-9.13-9.63,0-21.13,8.14-21.13,17.27"/><path d="M607.97,400.96c0,4.26,3.07,9.02,11.11,9.02,10.31,0,21.13-8.43,21.13-17.16,0-5.86-4.96-9.13-11.11-9.13-9.63,0-21.13,8.14-21.13,17.27"/><path d="M2068.38,79.68c0,4.26,3.07,9.02,11.11,9.02,10.31,0,21.13-8.43,21.13-17.16,0-5.86-4.96-9.13-11.11-9.13-9.63,0-21.13,8.14-21.13,17.27"/><path d="M2127.36,54.88c0,4.26,3.07,9.02,11.11,9.02,10.31,0,21.13-8.43,21.13-17.16,0-5.86-4.96-9.13-11.11-9.13-9.63,0-21.13,8.14-21.13,17.27"/><path d="M2186.33,79.68c0,4.26,3.07,9.02,11.11,9.02,10.31,0,21.13-8.43,21.13-17.16,0-5.86-4.96-9.13-11.11-9.13-9.63,0-21.13,8.14-21.13,17.27"/><path d="M2292.47,116.88c0,4.26,3.07,9.02,11.11,9.02,10.31,0,21.13-8.43,21.13-17.16,0-5.86-4.96-9.13-11.11-9.13-9.63,0-21.13,8.14-21.13,17.27"/><path d="M673.2,425.76c0,4.26,3.07,9.02,11.11,9.02,10.31,0,21.13-8.43,21.13-17.16,0-5.86-4.96-9.13-11.11-9.13-9.63,0-21.13,8.14-21.13,17.27"/><path d="M2351.44,92.08c0,4.26,3.07,9.02,11.11,9.02,10.31,0,21.13-8.43,21.13-17.16,0-5.86-4.96-9.13-11.11-9.13-9.63,0-21.13,8.14-21.13,17.27"/><path d="M2410.42,67.28c0,4.26,3.07,9.02,11.11,9.02,10.31,0,21.13-8.43,21.13-17.16,0-5.86-4.96-9.13-11.11-9.13-9.63,0-21.13,8.14-21.13,17.27"/><path d="M2469.4,92.08c0,4.26,3.07,9.02,11.11,9.02,10.31,0,21.13-8.43,21.13-17.16,0-5.86-4.96-9.13-11.11-9.13-9.63,0-21.13,8.14-21.13,17.27"/><path d="M2528.37,116.88c0,4.26,3.07,9.02,11.11,9.02,10.31,0,21.13-8.43,21.13-17.16,0-5.86-4.96-9.13-11.11-9.13-9.63,0-21.13,8.14-21.13,17.27"/><path d="M779.33,438.16c0,4.26,3.07,9.02,11.11,9.02,10.31,0,21.13-8.43,21.13-17.16,0-5.86-4.96-9.13-11.11-9.13-9.63,0-21.13,8.14-21.13,17.27"/><path d="M2587.35,92.08c0,4.26,3.07,9.02,11.11,9.02,10.31,0,21.13-8.43,21.13-17.16,0-5.86-4.96-9.13-11.11-9.13-9.63,0-21.13,8.14-21.13,17.27"/><path d="M2646.33,67.28c0,4.26,3.07,9.02,11.11,9.02,10.31,0,21.13-8.43,21.13-17.16,0-5.86-4.96-9.13-11.11-9.13-9.63,0-21.13,8.14-21.13,17.27"/><path d="M2705.3,92.08c0,4.26,3.07,9.02,11.11,9.02,10.31,0,21.13-8.43,21.13-17.16,0-5.86-4.96-9.13-11.11-9.13-9.63,0-21.13,8.14-21.13,17.27"/><path d="M1040.25,462.96c0,4.26,3.07,9.02,11.11,9.02,10.31,0,21.13-8.43,21.13-17.16,0-5.86-4.96-9.13-11.11-9.13-9.63,0-21.13,8.14-21.13,17.27"/><path d="M844.56,413.36c0,4.26,3.07,9.02,11.11,9.02,10.31,0,21.13-8.43,21.13-17.16,0-5.86-4.96-9.13-11.11-9.13-9.63,0-21.13,8.14-21.13,17.27"/><path d="M2488.69,433.29c-9.63,0-21.13,8.04-21.13,17.27,0,4.26,3.07,9.02,11.11,9.02,10.31,0,21.13-8.43,21.13-17.16,0-5.86-4.96-9.13-11.11-9.13m-13.69,21.62c-3.27,0-3.97-2.67-3.97-3.57,0-4.87,16.66-13.39,21.33-13.39,2.39,0,3.97,1.4,3.97,3.57,0,4.96-16.77,13.39-21.33,13.39"/><path d="M1105.48,413.36c0,4.26,3.07,9.02,11.11,9.02,10.31,0,21.13-8.43,21.13-17.16,0-5.86-4.96-9.13-11.11-9.13-9.63,0-21.13,8.14-21.13,17.27"/><path d="M2296.2,425.76c0,4.26,3.07,9.02,11.11,9.02,10.31,0,21.13-8.43,21.13-17.16,0-5.86-4.96-9.13-11.11-9.13-9.63,0-21.13,8.14-21.13,17.27"/><path d="M2230.97,400.96c0,4.26,3.07,9.02,11.11,9.02,10.31,0,21.13-8.43,21.13-17.16,0-5.86-4.96-9.13-11.11-9.13-9.63,0-21.13,8.14-21.13,17.27"/><path d="M2165.74,363.76c0,4.26,3.07,9.02,11.11,9.02,10.31,0,21.13-8.43,21.13-17.16,0-5.86-4.96-9.13-11.11-9.13-9.63,0-21.13,8.14-21.13,17.27"/><path d="M2100.51,400.96c0,4.26,3.07,9.02,11.11,9.02,10.31,0,21.13-8.43,21.13-17.16,0-5.86-4.96-9.13-11.11-9.13-9.63,0-21.13,8.14-21.13,17.27"/><path d="M2035.28,425.76c0,4.26,3.07,9.02,11.11,9.02,10.31,0,21.13-8.43,21.13-17.16,0-5.86-4.96-9.13-11.11-9.13-9.63,0-21.13,8.14-21.13,17.27"/><path d="M1970.05,438.16c0,4.26,3.07,9.02,11.11,9.02,10.31,0,21.13-8.43,21.13-17.16,0-5.86-4.96-9.13-11.11-9.13-9.63,0-21.13,8.14-21.13,17.27"/><path d="M1904.82,450.56c0,4.26,3.07,9.02,11.11,9.02,10.31,0,21.13-8.43,21.13-17.16,0-5.86-4.96-9.13-11.11-9.13-9.63,0-21.13,8.14-21.13,17.27"/><path d="M1798.68,413.36c0,4.26,3.07,9.02,11.11,9.02,10.31,0,21.13-8.43,21.13-17.16,0-5.86-4.96-9.13-11.11-9.13-9.63,0-21.13,8.14-21.13,17.27"/><path d="M1733.45,400.96c0,4.26,3.07,9.02,11.11,9.02,10.31,0,21.13-8.43,21.13-17.16,0-5.86-4.96-9.13-11.11-9.13-9.63,0-21.13,8.14-21.13,17.27"/><path d="M1668.22,413.36c0,4.26,3.07,9.02,11.11,9.02,10.31,0,21.13-8.43,21.13-17.16,0-5.86-4.96-9.13-11.11-9.13-9.63,0-21.13,8.14-21.13,17.27"/><path d="M1602.99,462.96c0,4.26,3.07,9.02,11.11,9.02,10.31,0,21.13-8.43,21.13-17.16,0-5.86-4.96-9.13-11.11-9.13-9.63,0-21.13,8.14-21.13,17.27"/><path d="M1537.76,413.36c0,4.26,3.07,9.02,11.11,9.02,10.31,0,21.13-8.43,21.13-17.16,0-5.86-4.96-9.13-11.11-9.13-9.63,0-21.13,8.14-21.13,17.27"/><path d="M1472.53,400.96c0,4.26,3.07,9.02,11.11,9.02,10.31,0,21.13-8.43,21.13-17.16,0-5.86-4.96-9.13-11.11-9.13-9.63,0-21.13,8.14-21.13,17.27"/><path d="M1407.3,413.36c0,4.26,3.07,9.02,11.11,9.02,10.31,0,21.13-8.43,21.13-17.16,0-5.86-4.96-9.13-11.11-9.13-9.63,0-21.13,8.14-21.13,17.27"/><path d="M1342.07,438.16c0,4.26,3.07,9.02,11.11,9.02,10.31,0,21.13-8.43,21.13-17.16,0-5.86-4.96-9.13-11.11-9.13-9.63,0-21.13,8.14-21.13,17.27"/><path d="M1235.94,413.36c0,4.26,3.07,9.02,11.11,9.02,10.31,0,21.13-8.43,21.13-17.16,0-5.86-4.96-9.13-11.11-9.13-9.63,0-21.13,8.14-21.13,17.27"/><path d="M1170.71,400.96c0,4.26,3.07,9.02,11.11,9.02,10.31,0,21.13-8.43,21.13-17.16,0-5.86-4.96-9.13-11.11-9.13-9.63,0-21.13,8.14-21.13,17.27"/><path d="M30.8,522.07c0,6.56,4.96,15.19,18.35,15.19,4.67,0,8.74-1.19,12.31-3.38,5.36-3.77,6.74-10.32,6.74-16.57,0-3.86-.59-8.32-1.58-13.98-.29-1.98-.9-4.96-1.49-8.84,9.72-3.18,16.96-13.3,16.96-23.51,0-14.97-10.62-25.09-25.09-25.09-.99-5.95-1.98-11.81-2.77-17.36,10.42-11.02,17.65-23.42,17.65-39.18,0-9.04-2.77-16.37-4.37-19.95-2.37-5.05-5.25-8.53-7.04-8.53-.7,0-3.77,1.19-7.04,5.05-6.36,7.55-8.14,20.24-8.14,28.57,0,5.36,.5,10.23,2.19,21.34-.11,.09-5.27,5.35-7.35,7.04-9.04,8.34-21.53,20.43-21.53,40.28,0,18.54,16.17,33.12,34.63,33.12,2.87,0,5.55-.29,7.83-.7,1.89,9.53,3.08,16.48,3.08,21.73,0,10.32-5.36,15.78-15.38,15.78-2.39,0-4.46-.5-4.67-.5-.09-.11-.29-.2-.29-.29,0-.2,.2-.31,.5-.31,4.67-.79,9.32-4.76,9.32-11.1,0-5.36-4.06-11.02-11.5-11.02-6.94,0-11.31,5.66-11.31,12.2m20.74-132.43c.9-3.97,5.46-14.38,10.62-14.38,1.49,0,3.86,4.76,3.86,11.7,0,10.32-7.63,18.06-14.48,24.8-.59-3.97-1.08-7.83-1.08-12,0-3.67,.29-7.05,1.08-10.12m8.73,101.97c-1.98,.4-3.86,.6-5.75,.6-14.18,0-26.29-9.92-26.29-24.91,0-12.09,8.53-22.91,17.27-30.46,1.67-1.49,3.27-2.87,4.76-4.36,.88,5.35,1.58,10.01,2.28,14.09-9.04,2.68-15.17,12.2-15.17,21.53,0,6.94,5.46,16.46,13.39,16.46,.79,0,1.69-.4,1.69-1.29s-.99-1.39-2.19-2.19c-3.88-2.39-6.06-4.96-6.06-9.83,0-6.05,4.57-10.91,10.32-12.29l5.75,32.63m14.09-18.35c0,7.05-2.88,14.29-9.92,17.17-2.08-11.9-4.76-27.68-5.46-32.05,8.93,0,15.38,6.06,15.38,14.88"/><path d="M30.8,188.39c0,6.56,4.96,15.19,18.35,15.19,4.67,0,8.74-1.19,12.31-3.38,5.36-3.77,6.74-10.32,6.74-16.57,0-3.86-.59-8.32-1.58-13.98-.29-1.98-.9-4.96-1.49-8.84,9.72-3.18,16.96-13.3,16.96-23.51,0-14.97-10.62-25.09-25.09-25.09-.99-5.95-1.98-11.81-2.77-17.36,10.42-11.02,17.65-23.42,17.65-39.18,0-9.04-2.77-16.37-4.37-19.95-2.37-5.05-5.25-8.53-7.04-8.53-.7,0-3.77,1.19-7.04,5.05-6.36,7.55-8.14,20.24-8.14,28.57,0,5.36,.5,10.23,2.19,21.34-.11,.09-5.27,5.35-7.35,7.04-9.04,8.34-21.53,20.43-21.53,40.28,0,18.54,16.17,33.12,34.63,33.12,2.87,0,5.55-.29,7.83-.7,1.89,9.53,3.08,16.48,3.08,21.73,0,10.32-5.36,15.78-15.38,15.78-2.39,0-4.46-.5-4.67-.5-.09-.11-.29-.2-.29-.29,0-.2,.2-.31,.5-.31,4.67-.79,9.32-4.76,9.32-11.1,0-5.36-4.06-11.02-11.5-11.02-6.94,0-11.31,5.66-11.31,12.2M51.54,55.96c.9-3.97,5.46-14.38,10.62-14.38,1.49,0,3.86,4.76,3.86,11.7,0,10.32-7.63,18.06-14.48,24.8-.59-3.97-1.08-7.83-1.08-12,0-3.67,.29-7.05,1.08-10.12m8.73,101.97c-1.98,.4-3.86,.6-5.75,.6-14.18,0-26.29-9.92-26.29-24.91,0-12.09,8.53-22.91,17.27-30.46,1.67-1.49,3.27-2.87,4.76-4.36,.88,5.35,1.58,10.01,2.28,14.09-9.04,2.68-15.17,12.2-15.17,21.53,0,6.94,5.46,16.46,13.39,16.46,.79,0,1.69-.4,1.69-1.29s-.99-1.39-2.19-2.19c-3.88-2.39-6.06-4.96-6.06-9.83,0-6.05,4.57-10.91,10.32-12.29l5.75,32.63m14.09-18.35c0,7.05-2.88,14.29-9.92,17.17-2.08-11.9-4.76-27.68-5.46-32.05,8.93,0,15.38,6.06,15.38,14.88"/><path d="M118.79,97.33c-4.96,0-7.84,3.07-8.34,3.67l.4-31.85c0-.79-.59-1.38-1.4-1.38h-1.18c-.81,0-1.4,.59-1.4,1.38l.5,59.63c0,.79,.59,1.38,1.4,1.38,.19,0,.59-.09,.79-.19,8.53-4.28,17.45-12.4,17.45-22.63,0-5.15-2.37-10.01-8.23-10.01m-8.63,27.98l.29-19.34c.2-.9,1.69-3.77,5.66-3.77,3.58,0,3.87,3.36,3.87,5.46,0,8.82-3.27,12.49-9.83,17.65"/><path d="M146.36,60.13c-4.96,0-7.84,3.07-8.34,3.67l.4-31.85c0-.79-.59-1.38-1.4-1.38h-1.18c-.81,0-1.4,.59-1.4,1.38l.5,59.63c0,.79,.59,1.38,1.4,1.38,.19,0,.59-.09,.79-.19,8.53-4.28,17.45-12.4,17.45-22.63,0-5.15-2.37-10.01-8.23-10.01m-8.63,27.98l.29-19.34c.2-.9,1.69-3.77,5.66-3.77,3.58,0,3.87,3.36,3.87,5.46,0,8.82-3.27,12.49-9.83,17.65"/><path d="M118.79,431.01c-4.96,0-7.84,3.07-8.34,3.67l.4-31.85c0-.79-.59-1.38-1.4-1.38h-1.18c-.81,0-1.4,.59-1.4,1.38l.5,59.63c0,.79,.59,1.38,1.4,1.38,.19,0,.59-.09,.79-.19,8.53-4.28,17.45-12.4,17.45-22.63,0-5.15-2.37-10.01-8.23-10.01m-8.63,27.98l.29-19.34c.2-.9,1.69-3.77,5.66-3.77,3.58,0,3.87,3.36,3.87,5.46,0,8.82-3.27,12.49-9.83,17.65"/><path d="M146.36,393.81c-4.96,0-7.84,3.07-8.34,3.67l.4-31.85c0-.79-.59-1.38-1.4-1.38h-1.18c-.81,0-1.4,.59-1.4,1.38l.5,59.63c0,.79,.59,1.38,1.4,1.38,.19,0,.59-.09,.79-.19,8.53-4.28,17.45-12.4,17.45-22.63,0-5.15-2.37-10.01-8.23-10.01m-8.63,27.98l.29-19.34c.2-.9,1.69-3.77,5.66-3.77,3.58,0,3.87,3.36,3.87,5.46,0,8.82-3.27,12.49-9.83,17.65"/><path d="M2614.33,445.39q0,1.4,1.4,1.4h29.47q1.38,0,1.38-1.4v-10.71q0-1.39-1.38-1.39h-29.47q-1.4,0-1.4,1.39v10.71"/><path d="M2506.4,358.59c-9.32-10.12-17.56-10.71-22.71-10.71s-13.3,.59-22.63,10.71c-4.85,5.36-8.23,15.97-8.23,21.33,0,1.89,.4,3.18,1.4,3.18,2.77,0,1.38-8.54,9.72-16.97,7.33-7.33,17.16-7.44,19.55-7.44h.39c2.39,0,12.21,.11,19.55,7.44,8.34,8.43,6.94,16.97,9.72,16.97,.99,0,1.39-1.19,1.39-3.18,0-5.36-3.27-16.07-8.14-21.33m-29.56,18.94c0,3.78,3.07,6.85,6.85,6.85s6.84-3.07,6.84-6.85-3.07-6.84-6.84-6.84-6.85,3.07-6.85,6.84"/><path d="M2165.74,489.79h198.16v12.4h-198.16v-12.4" fill-rule="evenodd"/><path d="M1040.25,520.76l198.17-18.6v12.45l-198.17,18.6v-12.45" fill-rule="evenodd"/><path d="M2528.37,174.7l179.41-6.2v12.41l-179.41,6.2v-12.41" fill-rule="evenodd"/><path d="M216.59,508.38l198.17-6.2v12.41l-198.17,6.2v-12.41" fill-rule="evenodd"/><path d="M452.5,174.7l179.41-6.2v12.41l-179.41,6.2v-12.41" fill-rule="evenodd"/><path d="M2009.4,174.67l179.41-18.6v12.47l-179.41,18.6v-12.47" fill-rule="evenodd"/><path d="M971.46,174.7l179.41-6.2v12.41l-179.41,6.2v-12.41" fill-rule="evenodd"/><path d="M1904.82,508.34l198.17-24.8v12.5l-198.17,24.8v-12.5" fill-rule="evenodd"/><path d="M1602.99,520.76l198.17-18.6v12.45l-198.17,18.6v-12.45" fill-rule="evenodd"/><path d="M1773.5,174.67l179.41-18.6v12.47l-179.41,18.6v-12.47" fill-rule="evenodd"/><path d="M735.56,174.7l179.41-6.2v12.41l-179.41,6.2v-12.41" fill-rule="evenodd"/><path d="M2292.47,174.7l179.41-6.2v12.41l-179.41,6.2v-12.41" fill-rule="evenodd"/><path d="M1254.53,174.67l179.41-18.6v12.47l-179.41,18.6v-12.47" fill-rule="evenodd"/><path d="M1490.43,174.67l179.41-18.6v12.47l-179.41,18.6v-12.47" fill-rule="evenodd"/><path d="M1342.07,495.97l198.17-12.4v12.42l-198.17,12.4v-12.42" fill-rule="evenodd"/><path d="M477.51,508.38l198.17-6.2v12.41l-198.17,6.2v-12.41" fill-rule="evenodd"/><path d="M216.59,174.7l179.41-6.2v12.41l-179.41,6.2v-12.41" fill-rule="evenodd"/><path d="M779.33,495.97l198.17-12.4v12.42l-198.17,12.4v-12.42" fill-rule="evenodd"/></g></svg>