<?xml version="1.0" encoding="UTF-8"?><svg id="b" xmlns="http://www.w3.org/2000/svg" viewBox="0 0 2779.2 527.97"><g id="c"><line y1="37.2" x2="2779.2" y2="37.2" fill="none" stroke="#000" stroke-linejoin="bevel" stroke-width="2.73"/><line y1="62" x2="2779.2" y2="62" fill="none" stroke="#000" stroke-linejoin="bevel" stroke-width="2.73"/><line y1="86.8" x2="2779.2" y2="86.8" fill="none" stroke="#000" stroke-linejoin="bevel" stroke-width="2.73"/><line y1="111.6" x2="2779.2" y2="111.6" fill="none" stroke="#000" stroke-linejoin="bevel" stroke-width="2.73"/><line y1="136.4" x2="2779.2" y2="136.4" fill="none" stroke="#000" stroke-linejoin="bevel" stroke-width="2.73"/><line y1="370.88" x2="2779.2" y2="370.88" fill="none" stroke="#000" stroke-linejoin="bevel" stroke-width="2.73"/><line y1="395.68" x2="2779.2" y2="395.68" fill="none" stroke="#000" stroke-linejoin="bevel" stroke-width="2.73"/><line y1="420.48" x2="2779.2" y2="420.48" fill="none" stroke="#000" stroke-linejoin="bevel" stroke-width="2.73"/><line y1="445.28" x2="2779.2" y2="445.28" fill="none" stroke="#000" stroke-linejoin="bevel" stroke-width="2.73"/><line y1="470.08" x2="2779.2" y2="470.08" fill="none" stroke="#000" stroke-linejoin="bevel" stroke-width="2.73"/><path d="M260.28,158.72c83.35,42.94,327.74,32.97,407.32-16.62-79.25,57.52-323.64,67.49-407.32,16.62" fill-rule="evenodd" stroke="#000" stroke-linecap="round" stroke-linejoin="round" stroke-width="1.24"/><path d="M1800.64,158.72c85.69,38.76,330.08,16.44,407.32-37.2-76.52,61.54-320.91,83.86-407.32,37.2" fill-rule="evenodd" stroke="#000" stroke-linecap="round" stroke-linejoin="round" stroke-width="1.24"/><path d="M260.28,492.4c69.4,46.38,384.87,34.75,450.67-16.62-65.51,59.3-380.97,70.93-450.67,16.62" fill-rule="evenodd" stroke="#000" stroke-linecap="round" stroke-linejoin="round" stroke-width="1.24"/><path d="M817.08,482.82c70.76,53.59,386.22,36.23,450.67-24.8-64.01,68.95-379.48,86.31-450.67,24.8" fill-rule="evenodd" stroke="#000" stroke-linecap="round" stroke-linejoin="round" stroke-width="1.24"/><path d="M1373.89,482.82c70.75,53.59,386.22,36.23,450.66-24.8-64.01,68.95-379.47,86.31-450.66,24.8" fill-rule="evenodd" stroke="#000" stroke-linecap="round" stroke-linejoin="round" stroke-width="1.24"/><path d="M1949.29,361.8c90.37-55.09,349.62-38.18,432.07,28.18-82.97-58.44-342.21-75.35-432.07-28.18" fill-rule="evenodd" stroke="#000" stroke-linecap="round" stroke-linejoin="round" stroke-width="1.24"/><path d="M2314.1,158.72c83.35,42.94,327.74,32.97,407.32-16.62-79.25,57.52-323.65,67.49-407.32,16.62" fill-rule="evenodd" stroke="#000" stroke-linecap="round" stroke-linejoin="round" stroke-width="1.24"/><path d="M773.74,158.72c83.35,42.94,327.75,32.97,407.32-16.62-79.25,57.52-323.64,67.49-407.32,16.62" fill-rule="evenodd" stroke="#000" stroke-linecap="round" stroke-linejoin="round" stroke-width="1.24"/><path d="M1287.19,158.72c85.68,38.76,330.07,16.44,407.32-37.2-76.53,61.54-320.92,83.86-407.32,37.2" fill-rule="evenodd" stroke="#000" stroke-linecap="round" stroke-linejoin="round" stroke-width="1.24"/><line x1="1236.6" y1="35.84" x2="1236.6" y2="137.76" fill="none" stroke="#000" stroke-linejoin="bevel" stroke-width="4.46"/><line x1="766.5" y1="369.52" x2="766.5" y2="471.44" fill="none" stroke="#000" stroke-linejoin="bevel" stroke-width="4.46"/><line x1="1750.06" y1="35.84" x2="1750.06" y2="137.76" fill="none" stroke="#000" stroke-linejoin="bevel" stroke-width="4.46"/><line x1="723.15" y1="35.84" x2="723.15" y2="137.76" fill="none" stroke="#000" stroke-linejoin="bevel" stroke-width="4.46"/><line x1="1323.3" y1="369.52" x2="1323.3" y2="471.44" fill="none" stroke="#000" stroke-linejoin="bevel" stroke-width="4.46"/><line x1="2436.91" y1="369.52" x2="2436.91" y2="471.44" fill="none" stroke="#000" stroke-linejoin="bevel" stroke-width="4.46"/><line x1="2776.97" y1="35.84" x2="2776.97" y2="137.76" fill="none" stroke="#000" stroke-linejoin="bevel" stroke-width="4.46"/><line x1="1880.1" y1="369.52" x2="1880.1" y2="471.44" fill="none" stroke="#000" stroke-linejoin="bevel" stroke-width="4.46"/><line x1="2763.33" y1="369.52" x2="2763.33" y2="471.44" fill="none" stroke="#000" stroke-linejoin="bevel" stroke-width="4.46"/><line x1="2776.97" y1="369.52" x2="2776.97" y2="471.44" fill="none" stroke="#000" stroke-linejoin="bevel" stroke-width="4.46"/><line x1="2263.51" y1="35.84" x2="2263.51" y2="137.76" fill="none" stroke="#000" stroke-linejoin="bevel" stroke-width="4.46"/><line x1="275.16" y1="132.43" x2="275.16" y2="18.6" fill="none" stroke="#000" stroke-linejoin="bevel" stroke-width="2.48"/><line x1="333.34" y1="107.63" x2="333.34" y2="18.6" fill="none" stroke="#000" stroke-linejoin="bevel" stroke-width="2.48"/><line x1="391.53" y1="82.83" x2="391.53" y2="18.6" fill="none" stroke="#000" stroke-linejoin="bevel" stroke-width="2.48"/><line x1="449.72" y1="107.63" x2="449.72" y2="18.6" fill="none" stroke="#000" stroke-linejoin="bevel" stroke-width="2.48"/><line x1="507.91" y1="132.43" x2="507.91" y2="18.6" fill="none" stroke="#000" stroke-linejoin="bevel" stroke-width="2.48"/><line x1="566.1" y1="107.63" x2="566.1" y2="18.6" fill="none" stroke="#000" stroke-linejoin="bevel" stroke-width="2.48"/><line x1="624.29" y1="82.83" x2="624.29" y2="18.6" fill="none" stroke="#000" stroke-linejoin="bevel" stroke-width="2.48"/><line x1="682.48" y1="107.63" x2="682.48" y2="18.6" fill="none" stroke="#000" stroke-linejoin="bevel" stroke-width="2.48"/><line x1="788.61" y1="132.43" x2="788.61" y2="18.6" fill="none" stroke="#000" stroke-linejoin="bevel" stroke-width="2.48"/><line x1="846.8" y1="107.63" x2="846.8" y2="18.6" fill="none" stroke="#000" stroke-linejoin="bevel" stroke-width="2.48"/><line x1="904.99" y1="82.83" x2="904.99" y2="18.6" fill="none" stroke="#000" stroke-linejoin="bevel" stroke-width="2.48"/><line x1="963.18" y1="107.63" x2="963.18" y2="18.6" fill="none" stroke="#000" stroke-linejoin="bevel" stroke-width="2.48"/><line x1="1021.36" y1="132.43" x2="1021.36" y2="18.6" fill="none" stroke="#000" stroke-linejoin="bevel" stroke-width="2.48"/><line x1="1079.55" y1="107.63" x2="1079.55" y2="18.6" fill="none" stroke="#000" stroke-linejoin="bevel" stroke-width="2.48"/><line x1="1137.74" y1="82.83" x2="1137.74" y2="18.6" fill="none" stroke="#000" stroke-linejoin="bevel" stroke-width="2.48"/><line x1="1195.93" y1="107.63" x2="1195.93" y2="18.6" fill="none" stroke="#000" stroke-linejoin="bevel" stroke-width="2.48"/><line x1="1302.07" y1="132.43" x2="1302.07" y2="6.2" fill="none" stroke="#000" stroke-linejoin="bevel" stroke-width="2.48"/><line x1="1360.25" y1="95.23" x2="1360.25" y2="6.2" fill="none" stroke="#000" stroke-linejoin="bevel" stroke-width="2.48"/><line x1="1418.44" y1="70.43" x2="1418.44" y2="6.2" fill="none" stroke="#000" stroke-linejoin="bevel" stroke-width="2.48"/><line x1="1476.63" y1="95.23" x2="1476.63" y2="6.2" fill="none" stroke="#000" stroke-linejoin="bevel" stroke-width="2.48"/><line x1="1534.82" y1="132.43" x2="1534.82" y2="6.2" fill="none" stroke="#000" stroke-linejoin="bevel" stroke-width="2.48"/><line x1="1593.01" y1="95.23" x2="1593.01" y2="6.2" fill="none" stroke="#000" stroke-linejoin="bevel" stroke-width="2.48"/><line x1="1651.2" y1="70.43" x2="1651.2" y2="6.2" fill="none" stroke="#000" stroke-linejoin="bevel" stroke-width="2.48"/><line x1="1709.38" y1="95.23" x2="1709.38" y2="6.2" fill="none" stroke="#000" stroke-linejoin="bevel" stroke-width="2.48"/><line x1="1815.52" y1="132.43" x2="1815.52" y2="6.2" fill="none" stroke="#000" stroke-linejoin="bevel" stroke-width="2.48"/><line x1="1873.71" y1="95.23" x2="1873.71" y2="6.2" fill="none" stroke="#000" stroke-linejoin="bevel" stroke-width="2.48"/><line x1="1931.9" y1="70.43" x2="1931.9" y2="6.2" fill="none" stroke="#000" stroke-linejoin="bevel" stroke-width="2.48"/><line x1="1990.09" y1="95.23" x2="1990.09" y2="6.2" fill="none" stroke="#000" stroke-linejoin="bevel" stroke-width="2.48"/><line x1="2048.27" y1="132.43" x2="2048.27" y2="6.2" fill="none" stroke="#000" stroke-linejoin="bevel" stroke-width="2.48"/><line x1="2106.46" y1="95.23" x2="2106.46" y2="6.2" fill="none" stroke="#000" stroke-linejoin="bevel" stroke-width="2.48"/><line x1="2164.65" y1="70.43" x2="2164.65" y2="6.2" fill="none" stroke="#000" stroke-linejoin="bevel" stroke-width="2.48"/><line x1="2222.84" y1="95.23" x2="2222.84" y2="6.2" fill="none" stroke="#000" stroke-linejoin="bevel" stroke-width="2.48"/><line x1="2328.98" y1="132.43" x2="2328.98" y2="18.6" fill="none" stroke="#000" stroke-linejoin="bevel" stroke-width="2.48"/><line x1="2387.16" y1="107.63" x2="2387.16" y2="18.6" fill="none" stroke="#000" stroke-linejoin="bevel" stroke-width="2.48"/><line x1="2445.35" y1="82.83" x2="2445.35" y2="18.6" fill="none" stroke="#000" stroke-linejoin="bevel" stroke-width="2.48"/><line x1="2503.54" y1="107.63" x2="2503.54" y2="18.6" fill="none" stroke="#000" stroke-linejoin="bevel" stroke-width="2.48"/><line x1="2561.73" y1="132.43" x2="2561.73" y2="18.6" fill="none" stroke="#000" stroke-linejoin="bevel" stroke-width="2.48"/><line x1="2619.92" y1="107.63" x2="2619.92" y2="18.6" fill="none" stroke="#000" stroke-linejoin="bevel" stroke-width="2.48"/><line x1="2678.11" y1="82.83" x2="2678.11" y2="18.6" fill="none" stroke="#000" stroke-linejoin="bevel" stroke-width="2.48"/><line x1="2736.29" y1="107.63" x2="2736.29" y2="18.6" fill="none" stroke="#000" stroke-linejoin="bevel" stroke-width="2.48"/><line x1="275.16" y1="466.11" x2="275.16" y2="352.28" fill="none" stroke="#000" stroke-linejoin="bevel" stroke-width="2.48"/><line x1="339.54" y1="441.31" x2="339.54" y2="352.28" fill="none" stroke="#000" stroke-linejoin="bevel" stroke-width="2.48"/><line x1="403.92" y1="416.51" x2="403.92" y2="352.28" fill="none" stroke="#000" stroke-linejoin="bevel" stroke-width="2.48"/><line x1="468.3" y1="441.31" x2="468.3" y2="352.28" fill="none" stroke="#000" stroke-linejoin="bevel" stroke-width="2.48"/><line x1="532.68" y1="466.11" x2="532.68" y2="352.28" fill="none" stroke="#000" stroke-linejoin="bevel" stroke-width="2.48"/><line x1="597.06" y1="441.31" x2="597.06" y2="352.28" fill="none" stroke="#000" stroke-linejoin="bevel" stroke-width="2.48"/><line x1="661.44" y1="416.51" x2="661.44" y2="352.28" fill="none" stroke="#000" stroke-linejoin="bevel" stroke-width="2.48"/><line x1="725.82" y1="441.31" x2="725.82" y2="352.28" fill="none" stroke="#000" stroke-linejoin="bevel" stroke-width="2.48"/><line x1="831.96" y1="453.71" x2="831.96" y2="352.28" fill="none" stroke="#000" stroke-linejoin="bevel" stroke-width="2.48"/><line x1="896.34" y1="428.91" x2="896.34" y2="352.28" fill="none" stroke="#000" stroke-linejoin="bevel" stroke-width="2.48"/><line x1="960.72" y1="416.51" x2="960.72" y2="352.28" fill="none" stroke="#000" stroke-linejoin="bevel" stroke-width="2.48"/><line x1="1025.1" y1="428.91" x2="1025.1" y2="352.28" fill="none" stroke="#000" stroke-linejoin="bevel" stroke-width="2.48"/><line x1="1089.48" y1="478.51" x2="1089.48" y2="352.28" fill="none" stroke="#000" stroke-linejoin="bevel" stroke-width="2.48"/><line x1="1153.86" y1="428.91" x2="1153.86" y2="352.28" fill="none" stroke="#000" stroke-linejoin="bevel" stroke-width="2.48"/><line x1="1218.25" y1="416.51" x2="1218.25" y2="352.28" fill="none" stroke="#000" stroke-linejoin="bevel" stroke-width="2.48"/><line x1="1282.63" y1="428.91" x2="1282.63" y2="352.28" fill="none" stroke="#000" stroke-linejoin="bevel" stroke-width="2.48"/><line x1="1388.76" y1="453.71" x2="1388.76" y2="352.28" fill="none" stroke="#000" stroke-linejoin="bevel" stroke-width="2.48"/><line x1="1453.14" y1="428.91" x2="1453.14" y2="352.28" fill="none" stroke="#000" stroke-linejoin="bevel" stroke-width="2.48"/><line x1="1517.53" y1="416.51" x2="1517.53" y2="352.28" fill="none" stroke="#000" stroke-linejoin="bevel" stroke-width="2.48"/><line x1="1581.91" y1="428.91" x2="1581.91" y2="352.28" fill="none" stroke="#000" stroke-linejoin="bevel" stroke-width="2.48"/><line x1="1646.29" y1="478.51" x2="1646.29" y2="352.28" fill="none" stroke="#000" stroke-linejoin="bevel" stroke-width="2.48"/><line x1="1710.67" y1="428.91" x2="1710.67" y2="352.28" fill="none" stroke="#000" stroke-linejoin="bevel" stroke-width="2.48"/><line x1="1775.05" y1="416.51" x2="1775.05" y2="352.28" fill="none" stroke="#000" stroke-linejoin="bevel" stroke-width="2.48"/><line x1="1839.43" y1="428.91" x2="1839.43" y2="352.28" fill="none" stroke="#000" stroke-linejoin="bevel" stroke-width="2.48"/><line x1="1945.57" y1="466.11" x2="1945.57" y2="376.92" fill="none" stroke="#000" stroke-linejoin="bevel" stroke-width="2.48"/><line x1="2009.95" y1="453.71" x2="2009.95" y2="368.76" fill="none" stroke="#000" stroke-linejoin="bevel" stroke-width="2.48"/><line x1="2074.33" y1="441.31" x2="2074.33" y2="360.6" fill="none" stroke="#000" stroke-linejoin="bevel" stroke-width="2.48"/><line x1="2138.71" y1="416.51" x2="2138.71" y2="352.44" fill="none" stroke="#000" stroke-linejoin="bevel" stroke-width="2.48"/><line x1="2173.34" y1="387.45" x2="2173.34" y2="507.28" fill="none" stroke="#000" stroke-linejoin="bevel" stroke-width="2.48"/><line x1="2237.72" y1="424.65" x2="2237.72" y2="507.28" fill="none" stroke="#000" stroke-linejoin="bevel" stroke-width="2.48"/><line x1="2302.1" y1="449.45" x2="2302.1" y2="507.28" fill="none" stroke="#000" stroke-linejoin="bevel" stroke-width="2.48"/><line x1="2366.48" y1="424.65" x2="2366.48" y2="507.28" fill="none" stroke="#000" stroke-linejoin="bevel" stroke-width="2.48"/><line x1="2502.37" y1="466.11" x2="2502.37" y2="383.28" fill="none" stroke="#000" stroke-linejoin="bevel" stroke-width="2.48"/><path d="M2705.3,115.77c0,4.26,3.07,9.02,11.11,9.02,10.31,0,21.13-8.43,21.13-17.16,0-5.86-4.96-9.13-11.11-9.13-9.63,0-21.13,8.14-21.13,17.27"/><path d="M244.16,140.57c0,4.26,3.07,9.02,11.11,9.02,10.31,0,21.13-8.43,21.13-17.16,0-5.86-4.96-9.13-11.11-9.13-9.63,0-21.13,8.14-21.13,17.27"/><path d="M302.35,115.77c0,4.26,3.07,9.02,11.11,9.02,10.31,0,21.13-8.43,21.13-17.16,0-5.86-4.96-9.13-11.11-9.13-9.63,0-21.13,8.14-21.13,17.27"/><path d="M360.54,90.97c0,4.26,3.07,9.02,11.11,9.02,10.31,0,21.13-8.43,21.13-17.16,0-5.86-4.96-9.13-11.11-9.13-9.63,0-21.13,8.14-21.13,17.27"/><path d="M418.73,115.77c0,4.26,3.07,9.02,11.11,9.02,10.31,0,21.13-8.43,21.13-17.16,0-5.86-4.96-9.13-11.11-9.13-9.63,0-21.13,8.14-21.13,17.27"/><path d="M476.92,140.57c0,4.26,3.07,9.02,11.11,9.02,10.31,0,21.13-8.43,21.13-17.16,0-5.86-4.96-9.13-11.11-9.13-9.63,0-21.13,8.14-21.13,17.27"/><path d="M535.11,115.77c0,4.26,3.07,9.02,11.11,9.02,10.31,0,21.13-8.43,21.13-17.16,0-5.86-4.96-9.13-11.11-9.13-9.63,0-21.13,8.14-21.13,17.27"/><path d="M593.29,90.97c0,4.26,3.07,9.02,11.11,9.02,10.31,0,21.13-8.43,21.13-17.16,0-5.86-4.96-9.13-11.11-9.13-9.63,0-21.13,8.14-21.13,17.27"/><path d="M651.48,115.77c0,4.26,3.07,9.02,11.11,9.02,10.31,0,21.13-8.43,21.13-17.16,0-5.86-4.96-9.13-11.11-9.13-9.63,0-21.13,8.14-21.13,17.27"/><path d="M757.62,140.57c0,4.26,3.07,9.02,11.11,9.02,10.31,0,21.13-8.43,21.13-17.16,0-5.86-4.96-9.13-11.11-9.13-9.63,0-21.13,8.14-21.13,17.27"/><path d="M815.81,115.77c0,4.26,3.07,9.02,11.11,9.02,10.31,0,21.13-8.43,21.13-17.16,0-5.86-4.96-9.13-11.11-9.13-9.63,0-21.13,8.14-21.13,17.27"/><path d="M873.99,90.97c0,4.26,3.07,9.02,11.11,9.02,10.31,0,21.13-8.43,21.13-17.16,0-5.86-4.96-9.13-11.11-9.13-9.63,0-21.13,8.14-21.13,17.27"/><path d="M932.18,115.77c0,4.26,3.07,9.02,11.11,9.02,10.31,0,21.13-8.43,21.13-17.16,0-5.86-4.96-9.13-11.11-9.13-9.63,0-21.13,8.14-21.13,17.27"/><path d="M990.37,140.57c0,4.26,3.07,9.02,11.11,9.02,10.31,0,21.13-8.43,21.13-17.16,0-5.86-4.96-9.13-11.11-9.13-9.63,0-21.13,8.14-21.13,17.27"/><path d="M1048.56,115.77c0,4.26,3.07,9.02,11.11,9.02,10.31,0,21.13-8.43,21.13-17.16,0-5.86-4.96-9.13-11.11-9.13-9.63,0-21.13,8.14-21.13,17.27"/><path d="M1106.75,90.97c0,4.26,3.07,9.02,11.11,9.02,10.31,0,21.13-8.43,21.13-17.16,0-5.86-4.96-9.13-11.11-9.13-9.63,0-21.13,8.14-21.13,17.27"/><path d="M1164.94,115.77c0,4.26,3.07,9.02,11.11,9.02,10.31,0,21.13-8.43,21.13-17.16,0-5.86-4.96-9.13-11.11-9.13-9.63,0-21.13,8.14-21.13,17.27"/><path d="M1271.07,140.57c0,4.26,3.07,9.02,11.11,9.02,10.31,0,21.13-8.43,21.13-17.16,0-5.86-4.96-9.13-11.11-9.13-9.63,0-21.13,8.14-21.13,17.27"/><path d="M1329.26,103.37c0,4.26,3.07,9.02,11.11,9.02,10.31,0,21.13-8.43,21.13-17.16,0-5.86-4.96-9.13-11.11-9.13-9.63,0-21.13,8.14-21.13,17.27"/><path d="M1387.45,78.57c0,4.26,3.07,9.02,11.11,9.02,10.31,0,21.13-8.43,21.13-17.16,0-5.86-4.96-9.13-11.11-9.13-9.63,0-21.13,8.14-21.13,17.27"/><path d="M1445.64,103.37c0,4.26,3.07,9.02,11.11,9.02,10.31,0,21.13-8.43,21.13-17.16,0-5.86-4.96-9.13-11.11-9.13-9.63,0-21.13,8.14-21.13,17.27"/><path d="M1503.83,140.57c0,4.26,3.07,9.02,11.11,9.02,10.31,0,21.13-8.43,21.13-17.16,0-5.86-4.96-9.13-11.11-9.13-9.63,0-21.13,8.14-21.13,17.27"/><path d="M1562.01,103.37c0,4.26,3.07,9.02,11.11,9.02,10.31,0,21.13-8.43,21.13-17.16,0-5.86-4.96-9.13-11.11-9.13-9.63,0-21.13,8.14-21.13,17.27"/><path d="M1620.2,78.57c0,4.26,3.07,9.02,11.11,9.02,10.31,0,21.13-8.43,21.13-17.16,0-5.86-4.96-9.13-11.11-9.13-9.63,0-21.13,8.14-21.13,17.27"/><path d="M1678.39,103.37c0,4.26,3.07,9.02,11.11,9.02,10.31,0,21.13-8.43,21.13-17.16,0-5.86-4.96-9.13-11.11-9.13-9.63,0-21.13,8.14-21.13,17.27"/><path d="M1784.53,140.57c0,4.26,3.07,9.02,11.11,9.02,10.31,0,21.13-8.43,21.13-17.16,0-5.86-4.96-9.13-11.11-9.13-9.63,0-21.13,8.14-21.13,17.27"/><path d="M1842.72,103.37c0,4.26,3.07,9.02,11.11,9.02,10.31,0,21.13-8.43,21.13-17.16,0-5.86-4.96-9.13-11.11-9.13-9.63,0-21.13,8.14-21.13,17.27"/><path d="M1900.9,78.57c0,4.26,3.07,9.02,11.11,9.02,10.31,0,21.13-8.43,21.13-17.16,0-5.86-4.96-9.13-11.11-9.13-9.63,0-21.13,8.14-21.13,17.27"/><path d="M1959.09,103.37c0,4.26,3.07,9.02,11.11,9.02,10.31,0,21.13-8.43,21.13-17.16,0-5.86-4.96-9.13-11.11-9.13-9.63,0-21.13,8.14-21.13,17.27"/><path d="M2017.28,140.57c0,4.26,3.07,9.02,11.11,9.02,10.31,0,21.13-8.43,21.13-17.16,0-5.86-4.96-9.13-11.11-9.13-9.63,0-21.13,8.14-21.13,17.27"/><path d="M2075.47,103.37c0,4.26,3.07,9.02,11.11,9.02,10.31,0,21.13-8.43,21.13-17.16,0-5.86-4.96-9.13-11.11-9.13-9.63,0-21.13,8.14-21.13,17.27"/><path d="M2133.66,78.57c0,4.26,3.07,9.02,11.11,9.02,10.31,0,21.13-8.43,21.13-17.16,0-5.86-4.96-9.13-11.11-9.13-9.63,0-21.13,8.14-21.13,17.27"/><path d="M2191.85,103.37c0,4.26,3.07,9.02,11.11,9.02,10.31,0,21.13-8.43,21.13-17.16,0-5.86-4.96-9.13-11.11-9.13-9.63,0-21.13,8.14-21.13,17.27"/><path d="M2297.98,140.57c0,4.26,3.07,9.02,11.11,9.02,10.31,0,21.13-8.43,21.13-17.16,0-5.86-4.96-9.13-11.11-9.13-9.63,0-21.13,8.14-21.13,17.27"/><path d="M2356.17,115.77c0,4.26,3.07,9.02,11.11,9.02,10.31,0,21.13-8.43,21.13-17.16,0-5.86-4.96-9.13-11.11-9.13-9.63,0-21.13,8.14-21.13,17.27"/><path d="M2414.36,90.97c0,4.26,3.07,9.02,11.11,9.02,10.31,0,21.13-8.43,21.13-17.16,0-5.86-4.96-9.13-11.11-9.13-9.63,0-21.13,8.14-21.13,17.27"/><path d="M2472.55,115.77c0,4.26,3.07,9.02,11.11,9.02,10.31,0,21.13-8.43,21.13-17.16,0-5.86-4.96-9.13-11.11-9.13-9.63,0-21.13,8.14-21.13,17.27"/><path d="M2530.74,140.57c0,4.26,3.07,9.02,11.11,9.02,10.31,0,21.13-8.43,21.13-17.16,0-5.86-4.96-9.13-11.11-9.13-9.63,0-21.13,8.14-21.13,17.27"/><path d="M2588.93,115.77c0,4.26,3.07,9.02,11.11,9.02,10.31,0,21.13-8.43,21.13-17.16,0-5.86-4.96-9.13-11.11-9.13-9.63,0-21.13,8.14-21.13,17.27"/><path d="M2647.11,90.97c0,4.26,3.07,9.02,11.11,9.02,10.31,0,21.13-8.43,21.13-17.16,0-5.86-4.96-9.13-11.11-9.13-9.63,0-21.13,8.14-21.13,17.27"/><path d="M244.16,474.25c0,4.26,3.07,9.02,11.11,9.02,10.31,0,21.13-8.43,21.13-17.16,0-5.86-4.96-9.13-11.11-9.13-9.63,0-21.13,8.14-21.13,17.27"/><path d="M308.55,449.45c0,4.26,3.07,9.02,11.11,9.02,10.31,0,21.13-8.43,21.13-17.16,0-5.86-4.96-9.13-11.11-9.13-9.63,0-21.13,8.14-21.13,17.27"/><path d="M372.93,424.65c0,4.26,3.07,9.02,11.11,9.02,10.31,0,21.13-8.43,21.13-17.16,0-5.86-4.96-9.13-11.11-9.13-9.63,0-21.13,8.14-21.13,17.27"/><path d="M437.31,449.45c0,4.26,3.07,9.02,11.11,9.02,10.31,0,21.13-8.43,21.13-17.16,0-5.86-4.96-9.13-11.11-9.13-9.63,0-21.13,8.14-21.13,17.27"/><path d="M501.69,474.25c0,4.26,3.07,9.02,11.11,9.02,10.31,0,21.13-8.43,21.13-17.16,0-5.86-4.96-9.13-11.11-9.13-9.63,0-21.13,8.14-21.13,17.27"/><path d="M566.07,449.45c0,4.26,3.07,9.02,11.11,9.02,10.31,0,21.13-8.43,21.13-17.16,0-5.86-4.96-9.13-11.11-9.13-9.63,0-21.13,8.14-21.13,17.27"/><path d="M630.45,424.65c0,4.26,3.07,9.02,11.11,9.02,10.31,0,21.13-8.43,21.13-17.16,0-5.86-4.96-9.13-11.11-9.13-9.63,0-21.13,8.14-21.13,17.27"/><path d="M694.83,449.45c0,4.26,3.07,9.02,11.11,9.02,10.31,0,21.13-8.43,21.13-17.16,0-5.86-4.96-9.13-11.11-9.13-9.63,0-21.13,8.14-21.13,17.27"/><path d="M800.97,461.85c0,4.26,3.07,9.02,11.11,9.02,10.31,0,21.13-8.43,21.13-17.16,0-5.86-4.96-9.13-11.11-9.13-9.63,0-21.13,8.14-21.13,17.27"/><path d="M865.35,437.05c0,4.26,3.07,9.02,11.11,9.02,10.31,0,21.13-8.43,21.13-17.16,0-5.86-4.96-9.13-11.11-9.13-9.63,0-21.13,8.14-21.13,17.27"/><path d="M929.73,424.65c0,4.26,3.07,9.02,11.11,9.02,10.31,0,21.13-8.43,21.13-17.16,0-5.86-4.96-9.13-11.11-9.13-9.63,0-21.13,8.14-21.13,17.27"/><path d="M994.11,437.05c0,4.26,3.07,9.02,11.11,9.02,10.31,0,21.13-8.43,21.13-17.16,0-5.86-4.96-9.13-11.11-9.13-9.63,0-21.13,8.14-21.13,17.27"/><path d="M1058.49,486.65c0,4.26,3.07,9.02,11.11,9.02,10.31,0,21.13-8.43,21.13-17.16,0-5.86-4.96-9.13-11.11-9.13-9.63,0-21.13,8.14-21.13,17.27"/><path d="M1122.87,437.05c0,4.26,3.07,9.02,11.11,9.02,10.31,0,21.13-8.43,21.13-17.16,0-5.86-4.96-9.13-11.11-9.13-9.63,0-21.13,8.14-21.13,17.27"/><path d="M1187.25,424.65c0,4.26,3.07,9.02,11.11,9.02,10.31,0,21.13-8.43,21.13-17.16,0-5.86-4.96-9.13-11.11-9.13-9.63,0-21.13,8.14-21.13,17.27"/><path d="M1251.63,437.05c0,4.26,3.07,9.02,11.11,9.02,10.31,0,21.13-8.43,21.13-17.16,0-5.86-4.96-9.13-11.11-9.13-9.63,0-21.13,8.14-21.13,17.27"/><path d="M1357.77,461.85c0,4.26,3.07,9.02,11.11,9.02,10.31,0,21.13-8.43,21.13-17.16,0-5.86-4.96-9.13-11.11-9.13-9.63,0-21.13,8.14-21.13,17.27"/><path d="M1422.15,437.05c0,4.26,3.07,9.02,11.11,9.02,10.31,0,21.13-8.43,21.13-17.16,0-5.86-4.96-9.13-11.11-9.13-9.63,0-21.13,8.14-21.13,17.27"/><path d="M1486.53,424.65c0,4.26,3.07,9.02,11.11,9.02,10.31,0,21.13-8.43,21.13-17.16,0-5.86-4.96-9.13-11.11-9.13-9.63,0-21.13,8.14-21.13,17.27"/><path d="M1550.91,437.05c0,4.26,3.07,9.02,11.11,9.02,10.31,0,21.13-8.43,21.13-17.16,0-5.86-4.96-9.13-11.11-9.13-9.63,0-21.13,8.14-21.13,17.27"/><path d="M1615.3,486.65c0,4.26,3.07,9.02,11.11,9.02,10.31,0,21.13-8.43,21.13-17.16,0-5.86-4.96-9.13-11.11-9.13-9.63,0-21.13,8.14-21.13,17.27"/><path d="M1679.68,437.05c0,4.26,3.07,9.02,11.11,9.02,10.31,0,21.13-8.43,21.13-17.16,0-5.86-4.96-9.13-11.11-9.13-9.63,0-21.13,8.14-21.13,17.27"/><path d="M1744.06,424.65c0,4.26,3.07,9.02,11.11,9.02,10.31,0,21.13-8.43,21.13-17.16,0-5.86-4.96-9.13-11.11-9.13-9.63,0-21.13,8.14-21.13,17.27"/><path d="M1808.44,437.05c0,4.26,3.07,9.02,11.11,9.02,10.31,0,21.13-8.43,21.13-17.16,0-5.86-4.96-9.13-11.11-9.13-9.63,0-21.13,8.14-21.13,17.27"/><path d="M1914.58,474.25c0,4.26,3.07,9.02,11.11,9.02,10.31,0,21.13-8.43,21.13-17.16,0-5.86-4.96-9.13-11.11-9.13-9.63,0-21.13,8.14-21.13,17.27"/><path d="M1978.96,461.85c0,4.26,3.07,9.02,11.11,9.02,10.31,0,21.13-8.43,21.13-17.16,0-5.86-4.96-9.13-11.11-9.13-9.63,0-21.13,8.14-21.13,17.27"/><path d="M2043.34,449.45c0,4.26,3.07,9.02,11.11,9.02,10.31,0,21.13-8.43,21.13-17.16,0-5.86-4.96-9.13-11.11-9.13-9.63,0-21.13,8.14-21.13,17.27"/><path d="M2107.72,424.65c0,4.26,3.07,9.02,11.11,9.02,10.31,0,21.13-8.43,21.13-17.16,0-5.86-4.96-9.13-11.11-9.13-9.63,0-21.13,8.14-21.13,17.27"/><path d="M2172.1,387.45c0,4.26,3.07,9.02,11.11,9.02,10.31,0,21.13-8.43,21.13-17.16,0-5.86-4.96-9.13-11.11-9.13-9.63,0-21.13,8.14-21.13,17.27"/><path d="M2236.48,424.65c0,4.26,3.07,9.02,11.11,9.02,10.31,0,21.13-8.43,21.13-17.16,0-5.86-4.96-9.13-11.11-9.13-9.63,0-21.13,8.14-21.13,17.27"/><path d="M2300.86,449.45c0,4.26,3.07,9.02,11.11,9.02,10.31,0,21.13-8.43,21.13-17.16,0-5.86-4.96-9.13-11.11-9.13-9.63,0-21.13,8.14-21.13,17.27"/><path d="M2365.24,424.65c0,4.26,3.07,9.02,11.11,9.02,10.31,0,21.13-8.43,21.13-17.16,0-5.86-4.96-9.13-11.11-9.13-9.63,0-21.13,8.14-21.13,17.27"/><path d="M2492.51,456.98c-9.63,0-21.13,8.04-21.13,17.27,0,4.26,3.07,9.02,11.11,9.02,10.31,0,21.13-8.43,21.13-17.16,0-5.86-4.96-9.13-11.11-9.13m-13.69,21.62c-3.27,0-3.97-2.67-3.97-3.57,0-4.87,16.66-13.39,21.33-13.39,2.39,0,3.97,1.4,3.97,3.57,0,4.96-16.77,13.39-21.33,13.39"/><path d="M30.8,162.49c0,6.56,4.96,15.19,18.35,15.19,4.67,0,8.74-1.19,12.31-3.38,5.36-3.77,6.74-10.32,6.74-16.57,0-3.86-.59-8.32-1.58-13.98-.29-1.98-.9-4.96-1.49-8.84,9.72-3.18,16.96-13.3,16.96-23.51,0-14.97-10.62-25.09-25.09-25.09-.99-5.95-1.98-11.81-2.77-17.36,10.42-11.02,17.65-23.42,17.65-39.18,0-9.04-2.77-16.37-4.37-19.95-2.37-5.05-5.25-8.53-7.04-8.53-.7,0-3.77,1.19-7.04,5.05-6.36,7.55-8.14,20.24-8.14,28.57,0,5.36,.5,10.23,2.19,21.34-.11,.09-5.27,5.35-7.35,7.04-9.04,8.34-21.53,20.43-21.53,40.28,0,18.54,16.17,33.12,34.63,33.12,2.87,0,5.55-.29,7.83-.7,1.89,9.53,3.08,16.48,3.08,21.73,0,10.32-5.36,15.78-15.38,15.78-2.39,0-4.46-.5-4.67-.5-.09-.11-.29-.2-.29-.29,0-.2,.2-.31,.5-.31,4.67-.79,9.32-4.76,9.32-11.1,0-5.36-4.06-11.02-11.5-11.02-6.94,0-11.31,5.66-11.31,12.2M51.54,30.05c.9-3.97,5.46-14.38,10.62-14.38,1.49,0,3.86,4.76,3.86,11.7,0,10.32-7.63,18.06-14.48,24.8-.59-3.97-1.08-7.83-1.08-12,0-3.67,.29-7.05,1.08-10.12m8.73,101.97c-1.98,.4-3.86,.6-5.75,.6-14.18,0-26.29-9.92-26.29-24.91,0-12.09,8.53-22.91,17.27-30.46,1.67-1.49,3.27-2.87,4.76-4.36,.88,5.35,1.58,10.01,2.28,14.09-9.04,2.68-15.17,12.2-15.17,21.53,0,6.94,5.46,16.46,13.39,16.46,.79,0,1.69-.4,1.69-1.29s-.99-1.39-2.19-2.19c-3.88-2.39-6.06-4.96-6.06-9.83,0-6.05,4.57-10.91,10.32-12.29l5.75,32.63m14.09-18.35c0,7.05-2.88,14.29-9.92,17.17-2.08-11.9-4.76-27.68-5.46-32.05,8.93,0,15.38,6.06,15.38,14.88"/><path d="M30.8,496.17c0,6.56,4.96,15.19,18.35,15.19,4.67,0,8.74-1.19,12.31-3.38,5.36-3.77,6.74-10.32,6.74-16.57,0-3.86-.59-8.32-1.58-13.98-.29-1.98-.9-4.96-1.49-8.84,9.72-3.18,16.96-13.3,16.96-23.51,0-14.97-10.62-25.09-25.09-25.09-.99-5.95-1.98-11.81-2.77-17.36,10.42-11.02,17.65-23.42,17.65-39.18,0-9.04-2.77-16.37-4.37-19.95-2.37-5.05-5.25-8.53-7.04-8.53-.7,0-3.77,1.19-7.04,5.05-6.36,7.55-8.14,20.24-8.14,28.57,0,5.36,.5,10.23,2.19,21.34-.11,.09-5.27,5.35-7.35,7.04-9.04,8.34-21.53,20.43-21.53,40.28,0,18.54,16.17,33.12,34.63,33.12,2.87,0,5.55-.29,7.83-.7,1.89,9.53,3.08,16.48,3.08,21.73,0,10.32-5.36,15.78-15.38,15.78-2.39,0-4.46-.5-4.67-.5-.09-.11-.29-.2-.29-.29,0-.2,.2-.31,.5-.31,4.67-.79,9.32-4.76,9.32-11.1,0-5.36-4.06-11.02-11.5-11.02-6.94,0-11.31,5.66-11.31,12.2m20.74-132.43c.9-3.97,5.46-14.38,10.62-14.38,1.49,0,3.86,4.76,3.86,11.7,0,10.32-7.63,18.06-14.48,24.8-.59-3.97-1.08-7.83-1.08-12,0-3.67,.29-7.05,1.08-10.12m8.73,101.97c-1.98,.4-3.86,.6-5.75,.6-14.18,0-26.29-9.92-26.29-24.91,0-12.09,8.53-22.91,17.27-30.46,1.67-1.49,3.27-2.87,4.76-4.36,.88,5.35,1.58,10.01,2.28,14.09-9.04,2.68-15.17,12.2-15.17,21.53,0,6.94,5.46,16.46,13.39,16.46,.79,0,1.69-.4,1.69-1.29s-.99-1.39-2.19-2.19c-3.88-2.39-6.06-4.96-6.06-9.83,0-6.05,4.57-10.91,10.32-12.29l5.75,32.63m14.09-18.35c0,7.05-2.88,14.29-9.92,17.17-2.08-11.9-4.76-27.68-5.46-32.05,8.93,0,15.38,6.06,15.38,14.88"/><path d="M118.79,71.42c-4.96,0-7.84,3.07-8.34,3.67l.4-31.85c0-.79-.59-1.38-1.4-1.38h-1.18c-.81,0-1.4,.59-1.4,1.38l.5,59.63c0,.79,.59,1.38,1.4,1.38,.19,0,.59-.09,.79-.19,8.53-4.28,17.45-12.4,17.45-22.63,0-5.15-2.37-10.01-8.23-10.01m-8.63,27.98l.29-19.34c.2-.9,1.69-3.77,5.66-3.77,3.58,0,3.87,3.36,3.87,5.46,0,8.82-3.27,12.49-9.83,17.65"/><path d="M146.36,34.22c-4.96,0-7.84,3.07-8.34,3.67l.4-31.85c0-.79-.59-1.38-1.4-1.38h-1.18c-.81,0-1.4,.59-1.4,1.38l.5,59.63c0,.79,.59,1.38,1.4,1.38,.19,0,.59-.09,.79-.19,8.53-4.28,17.45-12.4,17.45-22.63,0-5.15-2.37-10.01-8.23-10.01m-8.63,27.98l.29-19.34c.2-.9,1.69-3.77,5.66-3.77,3.58,0,3.87,3.36,3.87,5.46,0,8.82-3.27,12.49-9.83,17.65"/><path d="M173.93,83.82c-4.96,0-7.84,3.07-8.34,3.67l.4-31.85c0-.79-.59-1.38-1.4-1.38h-1.18c-.81,0-1.4,.59-1.4,1.38l.5,59.63c0,.79,.59,1.38,1.4,1.38,.19,0,.59-.09,.79-.19,8.53-4.28,17.45-12.4,17.45-22.63,0-5.15-2.37-10.01-8.23-10.01m-8.63,27.98l.29-19.34c.2-.9,1.69-3.77,5.66-3.77,3.58,0,3.87,3.36,3.87,5.46,0,8.82-3.27,12.49-9.83,17.65"/><path d="M118.79,405.1c-4.96,0-7.84,3.07-8.34,3.67l.4-31.85c0-.79-.59-1.38-1.4-1.38h-1.18c-.81,0-1.4,.59-1.4,1.38l.5,59.63c0,.79,.59,1.38,1.4,1.38,.19,0,.59-.09,.79-.19,8.53-4.28,17.45-12.4,17.45-22.63,0-5.15-2.37-10.01-8.23-10.01m-8.63,27.98l.29-19.34c.2-.9,1.69-3.77,5.66-3.77,3.58,0,3.87,3.36,3.87,5.46,0,8.82-3.27,12.49-9.83,17.65"/><path d="M146.36,367.9c-4.96,0-7.84,3.07-8.34,3.67l.4-31.85c0-.79-.59-1.38-1.4-1.38h-1.18c-.81,0-1.4,.59-1.4,1.38l.5,59.63c0,.79,.59,1.38,1.4,1.38,.19,0,.59-.09,.79-.19,8.53-4.28,17.45-12.4,17.45-22.63,0-5.15-2.37-10.01-8.23-10.01m-8.63,27.98l.29-19.34c.2-.9,1.69-3.77,5.66-3.77,3.58,0,3.87,3.36,3.87,5.46,0,8.82-3.27,12.49-9.83,17.65"/><path d="M173.93,417.5c-4.96,0-7.84,3.07-8.34,3.67l.4-31.85c0-.79-.59-1.38-1.4-1.38h-1.18c-.81,0-1.4,.59-1.4,1.38l.5,59.63c0,.79,.59,1.38,1.4,1.38,.19,0,.59-.09,.79-.19,8.53-4.28,17.45-12.4,17.45-22.63,0-5.15-2.37-10.01-8.23-10.01m-8.63,27.98l.29-19.34c.2-.9,1.69-3.77,5.66-3.77,3.58,0,3.87,3.36,3.87,5.46,0,8.82-3.27,12.49-9.83,17.65"/><path d="M2616.24,419.49q0,1.4,1.4,1.4h29.47q1.38,0,1.38-1.4v-10.71q0-1.39-1.38-1.39h-29.47q-1.4,0-1.4,1.39v10.71"/><path d="M2510.22,332.69c-9.32-10.12-17.56-10.71-22.71-10.71s-13.3,.59-22.63,10.71c-4.85,5.36-8.23,15.97-8.23,21.33,0,1.89,.4,3.18,1.4,3.18,2.77,0,1.38-8.54,9.72-16.97,7.33-7.33,17.16-7.44,19.55-7.44h.39c2.39,0,12.21,.11,19.55,7.44,8.34,8.43,6.94,16.97,9.72,16.97,.99,0,1.39-1.19,1.39-3.18,0-5.36-3.27-16.07-8.14-21.33m-29.56,18.94c0,3.78,3.07,6.85,6.85,6.85s6.84-3.07,6.84-6.85-3.07-6.84-6.84-6.84-6.85,3.07-6.85,6.84"/><path d="M531.44,346.08h195.62v12.4h-195.62v-12.4" fill-rule="evenodd"/><path d="M273.92,346.08h195.62v12.4h-195.62v-12.4" fill-rule="evenodd"/><path d="M2560.49,12.4h177.04v12.4h-177.04V12.4" fill-rule="evenodd"/><path d="M2327.74,12.4h177.04v12.4h-177.04V12.4" fill-rule="evenodd"/><path d="M2047.03,0h177.05V12.4h-177.05V0" fill-rule="evenodd"/><path d="M1814.28,0h177.05V12.4h-177.05V0" fill-rule="evenodd"/><path d="M1533.58,0h177.04V12.4h-177.04V0" fill-rule="evenodd"/><path d="M1300.83,0h177.04V12.4h-177.04V0" fill-rule="evenodd"/><path d="M1020.12,12.4h177.05v12.4h-177.05V12.4" fill-rule="evenodd"/><path d="M787.37,12.4h177.05v12.4h-177.05V12.4" fill-rule="evenodd"/><path d="M506.67,12.4h177.05v12.4h-177.05V12.4" fill-rule="evenodd"/><path d="M273.92,12.4h177.04v12.4h-177.04V12.4" fill-rule="evenodd"/><path d="M2172.1,501.08h195.62v12.4h-195.62v-12.4" fill-rule="evenodd"/><path d="M1944.33,370.83l195.62-24.8v12.5l-195.62,24.8v-12.5" fill-rule="evenodd"/><path d="M830.72,346.08h195.62v12.4h-195.62v-12.4" fill-rule="evenodd"/><path d="M1645.05,346.08h195.62v12.4h-195.62v-12.4" fill-rule="evenodd"/><path d="M1387.52,346.08h195.63v12.4h-195.63v-12.4" fill-rule="evenodd"/><path d="M1088.24,346.08h195.63v12.4h-195.63v-12.4" fill-rule="evenodd"/></g></svg>