<?xml version="1.0" encoding="UTF-8"?><svg id="b" xmlns="http://www.w3.org/2000/svg" viewBox="0 0 2275.2 573.14"><g id="c"><line y1="69.57" x2="2275.2" y2="69.57" fill="none" stroke="#000" stroke-linejoin="bevel" stroke-width="2.73"/><line y1="94.37" x2="2275.2" y2="94.37" fill="none" stroke="#000" stroke-linejoin="bevel" stroke-width="2.73"/><line y1="119.17" x2="2275.2" y2="119.17" fill="none" stroke="#000" stroke-linejoin="bevel" stroke-width="2.73"/><line y1="143.97" x2="2275.2" y2="143.97" fill="none" stroke="#000" stroke-linejoin="bevel" stroke-width="2.73"/><line y1="168.77" x2="2275.2" y2="168.77" fill="none" stroke="#000" stroke-linejoin="bevel" stroke-width="2.73"/><line y1="403.25" x2="2275.2" y2="403.25" fill="none" stroke="#000" stroke-linejoin="bevel" stroke-width="2.73"/><line y1="428.05" x2="2275.2" y2="428.05" fill="none" stroke="#000" stroke-linejoin="bevel" stroke-width="2.73"/><line y1="452.85" x2="2275.2" y2="452.85" fill="none" stroke="#000" stroke-linejoin="bevel" stroke-width="2.73"/><line y1="477.65" x2="2275.2" y2="477.65" fill="none" stroke="#000" stroke-linejoin="bevel" stroke-width="2.73"/><line y1="502.45" x2="2275.2" y2="502.45" fill="none" stroke="#000" stroke-linejoin="bevel" stroke-width="2.73"/><path d="M1688.14,447.15c16.14-33.74,62.99-46.14,93.7-24.8-28.68-13.67-75.53-1.27-93.7,24.8" fill-rule="evenodd" stroke="#000" stroke-linecap="round" stroke-linejoin="round" stroke-width="1.24"/><path d="M209.2,113.47c12.67-32.06,53.66-44.46,81.98-24.8-26.02-12.06-67.01,.34-81.98,24.8" fill-rule="evenodd" stroke="#000" stroke-linecap="round" stroke-linejoin="round" stroke-width="1.24"/><path d="M2040.91,34.85c29.56-18.38,70.56-3.87,81.98,29.02-14.07-25.4-55.06-39.91-81.98-29.02" fill-rule="evenodd" stroke="#000" stroke-linecap="round" stroke-linejoin="round" stroke-width="1.24"/><path d="M1794.97,88.67c12.67-32.05,53.66-44.45,81.98-24.8-26.02-12.06-67.01,.34-81.98,24.8" fill-rule="evenodd" stroke="#000" stroke-linecap="round" stroke-linejoin="round" stroke-width="1.24"/><path d="M1512.32,10.05c28.32-19.66,69.31-7.26,81.98,24.8-14.97-24.46-55.96-36.86-81.98-24.8" fill-rule="evenodd" stroke="#000" stroke-linecap="round" stroke-linejoin="round" stroke-width="1.24"/><path d="M1266.38,63.87c11.42-32.88,52.41-47.39,81.98-29.02-26.92-10.9-67.91,3.61-81.98,29.02" fill-rule="evenodd" stroke="#000" stroke-linecap="round" stroke-linejoin="round" stroke-width="1.24"/><path d="M983.73,34.85c29.57-18.38,70.56-3.87,81.98,29.02-14.07-25.4-55.06-39.91-81.98-29.02" fill-rule="evenodd" stroke="#000" stroke-linecap="round" stroke-linejoin="round" stroke-width="1.24"/><path d="M209.2,447.15c16.14-33.74,62.99-46.14,93.7-24.8-28.68-13.67-75.53-1.27-93.7,24.8" fill-rule="evenodd" stroke="#000" stroke-linecap="round" stroke-linejoin="round" stroke-width="1.24"/><path d="M490.31,397.55c30.71-21.34,77.56-8.94,93.7,24.8-18.17-26.07-65.02-38.47-93.7-24.8" fill-rule="evenodd" stroke="#000" stroke-linecap="round" stroke-linejoin="round" stroke-width="1.24"/><path d="M808.11,537.17c29.55,12.51,76.4-2,93.71-29.02-14.96,34.6-61.81,49.11-93.71,29.02" fill-rule="evenodd" stroke="#000" stroke-linecap="round" stroke-linejoin="round" stroke-width="1.24"/><path d="M1089.22,483.35c18.17,26.07,65.02,38.47,93.7,24.8-30.71,21.34-77.56,8.94-93.7-24.8" fill-rule="evenodd" stroke="#000" stroke-linecap="round" stroke-linejoin="round" stroke-width="1.24"/><path d="M1407.03,561.97c28.68,13.66,75.53,1.26,93.7-24.8-16.13,33.73-62.99,46.13-93.7,24.8" fill-rule="evenodd" stroke="#000" stroke-linecap="round" stroke-linejoin="round" stroke-width="1.24"/><path d="M737.79,88.67c12.67-32.05,53.66-44.45,81.98-24.8-26.02-12.06-67.01,.34-81.98,24.8" fill-rule="evenodd" stroke="#000" stroke-linecap="round" stroke-linejoin="round" stroke-width="1.24"/><path d="M455.14,63.87c28.32-19.65,69.31-7.26,81.98,24.8-14.97-24.46-55.96-36.86-81.98-24.8" fill-rule="evenodd" stroke="#000" stroke-linecap="round" stroke-linejoin="round" stroke-width="1.24"/><line x1="1356.44" y1="401.89" x2="1356.44" y2="503.81" fill="none" stroke="#000" stroke-linejoin="bevel" stroke-width="4.46"/><line x1="2259.33" y1="401.89" x2="2259.33" y2="503.81" fill="none" stroke="#000" stroke-linejoin="bevel" stroke-width="4.46"/><line x1="2272.97" y1="401.89" x2="2272.97" y2="503.81" fill="none" stroke="#000" stroke-linejoin="bevel" stroke-width="4.46"/><line x1="687.2" y1="68.21" x2="687.2" y2="170.14" fill="none" stroke="#000" stroke-linejoin="bevel" stroke-width="4.46"/><line x1="1215.79" y1="68.21" x2="1215.79" y2="170.14" fill="none" stroke="#000" stroke-linejoin="bevel" stroke-width="4.46"/><line x1="1744.38" y1="68.21" x2="1744.38" y2="170.14" fill="none" stroke="#000" stroke-linejoin="bevel" stroke-width="4.46"/><line x1="1955.36" y1="401.89" x2="1955.36" y2="503.81" fill="none" stroke="#000" stroke-linejoin="bevel" stroke-width="4.46"/><line x1="2272.97" y1="68.21" x2="2272.97" y2="170.14" fill="none" stroke="#000" stroke-linejoin="bevel" stroke-width="4.46"/><line x1="757.53" y1="401.89" x2="757.53" y2="503.81" fill="none" stroke="#000" stroke-linejoin="bevel" stroke-width="4.46"/><line x1="1488.02" y1="44.77" x2="1536.62" y2="44.77" fill="none" stroke="#000" stroke-linejoin="bevel" stroke-width="3.97"/><line x1="1406.04" y1="44.77" x2="1454.64" y2="44.77" fill="none" stroke="#000" stroke-linejoin="bevel" stroke-width="3.97"/><line x1="1382.73" y1="527.25" x2="1431.33" y2="527.25" fill="none" stroke="#000" stroke-linejoin="bevel" stroke-width="3.97"/><line x1="194.32" y1="148.14" x2="194.32" y2="205.83" fill="none" stroke="#000" stroke-linejoin="bevel" stroke-width="2.48"/><line x1="276.31" y1="123.34" x2="276.31" y2="196.67" fill="none" stroke="#000" stroke-linejoin="bevel" stroke-width="2.48"/><line x1="358.29" y1="98.54" x2="358.29" y2="187.51" fill="none" stroke="#000" stroke-linejoin="bevel" stroke-width="2.48"/><line x1="440.27" y1="98.54" x2="440.27" y2="187.51" fill="none" stroke="#000" stroke-linejoin="bevel" stroke-width="2.48"/><line x1="522.25" y1="123.34" x2="522.25" y2="196.67" fill="none" stroke="#000" stroke-linejoin="bevel" stroke-width="2.48"/><line x1="604.23" y1="148.14" x2="604.23" y2="205.83" fill="none" stroke="#000" stroke-linejoin="bevel" stroke-width="2.48"/><line x1="722.91" y1="123.34" x2="722.91" y2="187.23" fill="none" stroke="#000" stroke-linejoin="bevel" stroke-width="2.48"/><line x1="804.89" y1="98.54" x2="804.89" y2="178.07" fill="none" stroke="#000" stroke-linejoin="bevel" stroke-width="2.48"/><line x1="886.87" y1="61.34" x2="886.87" y2="168.91" fill="none" stroke="#000" stroke-linejoin="bevel" stroke-width="2.48"/><line x1="968.85" y1="61.34" x2="968.85" y2="168.91" fill="none" stroke="#000" stroke-linejoin="bevel" stroke-width="2.48"/><line x1="1050.83" y1="98.54" x2="1050.83" y2="178.07" fill="none" stroke="#000" stroke-linejoin="bevel" stroke-width="2.48"/><line x1="1132.82" y1="123.34" x2="1132.82" y2="187.23" fill="none" stroke="#000" stroke-linejoin="bevel" stroke-width="2.48"/><line x1="1251.5" y1="98.54" x2="1251.5" y2="168.73" fill="none" stroke="#000" stroke-linejoin="bevel" stroke-width="2.48"/><line x1="1333.48" y1="61.34" x2="1333.48" y2="165.67" fill="none" stroke="#000" stroke-linejoin="bevel" stroke-width="2.48"/><line x1="1415.46" y1="36.54" x2="1415.46" y2="162.62" fill="none" stroke="#000" stroke-linejoin="bevel" stroke-width="2.48"/><line x1="1497.44" y1="36.54" x2="1497.44" y2="162.62" fill="none" stroke="#000" stroke-linejoin="bevel" stroke-width="2.48"/><line x1="1579.42" y1="61.34" x2="1579.42" y2="165.67" fill="none" stroke="#000" stroke-linejoin="bevel" stroke-width="2.48"/><line x1="1661.4" y1="98.54" x2="1661.4" y2="168.73" fill="none" stroke="#000" stroke-linejoin="bevel" stroke-width="2.48"/><line x1="1780.09" y1="123.34" x2="1780.09" y2="187.23" fill="none" stroke="#000" stroke-linejoin="bevel" stroke-width="2.48"/><line x1="1862.07" y1="98.54" x2="1862.07" y2="178.07" fill="none" stroke="#000" stroke-linejoin="bevel" stroke-width="2.48"/><line x1="1944.05" y1="61.34" x2="1944.05" y2="168.91" fill="none" stroke="#000" stroke-linejoin="bevel" stroke-width="2.48"/><line x1="2026.03" y1="61.34" x2="2026.03" y2="168.91" fill="none" stroke="#000" stroke-linejoin="bevel" stroke-width="2.48"/><line x1="2108.01" y1="98.54" x2="2108.01" y2="178.07" fill="none" stroke="#000" stroke-linejoin="bevel" stroke-width="2.48"/><line x1="2189.99" y1="123.34" x2="2189.99" y2="187.23" fill="none" stroke="#000" stroke-linejoin="bevel" stroke-width="2.48"/><line x1="194.32" y1="481.82" x2="194.32" y2="539.53" fill="none" stroke="#000" stroke-linejoin="bevel" stroke-width="2.48"/><line x1="288.03" y1="457.02" x2="288.03" y2="530.35" fill="none" stroke="#000" stroke-linejoin="bevel" stroke-width="2.48"/><line x1="381.73" y1="432.22" x2="381.73" y2="521.17" fill="none" stroke="#000" stroke-linejoin="bevel" stroke-width="2.48"/><line x1="475.43" y1="432.22" x2="475.43" y2="521.17" fill="none" stroke="#000" stroke-linejoin="bevel" stroke-width="2.48"/><line x1="569.13" y1="457.02" x2="569.13" y2="530.35" fill="none" stroke="#000" stroke-linejoin="bevel" stroke-width="2.48"/><line x1="662.83" y1="481.82" x2="662.83" y2="539.53" fill="none" stroke="#000" stroke-linejoin="bevel" stroke-width="2.48"/><line x1="822.99" y1="510.88" x2="822.99" y2="403.13" fill="none" stroke="#000" stroke-linejoin="bevel" stroke-width="2.48"/><line x1="916.69" y1="473.68" x2="916.69" y2="393.95" fill="none" stroke="#000" stroke-linejoin="bevel" stroke-width="2.48"/><line x1="1010.39" y1="448.88" x2="1010.39" y2="384.77" fill="none" stroke="#000" stroke-linejoin="bevel" stroke-width="2.48"/><line x1="1104.1" y1="448.88" x2="1104.1" y2="384.77" fill="none" stroke="#000" stroke-linejoin="bevel" stroke-width="2.48"/><line x1="1197.8" y1="473.68" x2="1197.8" y2="393.95" fill="none" stroke="#000" stroke-linejoin="bevel" stroke-width="2.48"/><line x1="1291.5" y1="510.88" x2="1291.5" y2="403.13" fill="none" stroke="#000" stroke-linejoin="bevel" stroke-width="2.48"/><line x1="1421.91" y1="535.68" x2="1421.91" y2="409.41" fill="none" stroke="#000" stroke-linejoin="bevel" stroke-width="2.48"/><line x1="1515.61" y1="510.88" x2="1515.61" y2="406.35" fill="none" stroke="#000" stroke-linejoin="bevel" stroke-width="2.48"/><line x1="1609.31" y1="473.68" x2="1609.31" y2="403.29" fill="none" stroke="#000" stroke-linejoin="bevel" stroke-width="2.48"/><line x1="1673.26" y1="481.82" x2="1673.26" y2="539.53" fill="none" stroke="#000" stroke-linejoin="bevel" stroke-width="2.48"/><line x1="1766.96" y1="457.02" x2="1766.96" y2="530.35" fill="none" stroke="#000" stroke-linejoin="bevel" stroke-width="2.48"/><line x1="1860.67" y1="432.22" x2="1860.67" y2="521.17" fill="none" stroke="#000" stroke-linejoin="bevel" stroke-width="2.48"/><line x1="1991.07" y1="395.02" x2="1991.07" y2="477.65" fill="none" stroke="#000" stroke-linejoin="bevel" stroke-width="2.48"/><path d="M1049.59,98.54c0,4.26,3.07,9.02,11.11,9.02,10.31,0,21.13-8.43,21.13-17.16,0-5.86-4.96-9.13-11.11-9.13-9.63,0-21.13,8.14-21.13,17.27"/><path d="M193.08,148.14c0,4.26,3.07,9.02,11.11,9.02,10.31,0,21.13-8.43,21.13-17.16,0-5.86-4.96-9.13-11.11-9.13-9.63,0-21.13,8.14-21.13,17.27"/><path d="M275.06,123.34c0,4.26,3.07,9.02,11.11,9.02,10.31,0,21.13-8.43,21.13-17.16,0-5.86-4.96-9.13-11.11-9.13-9.63,0-21.13,8.14-21.13,17.27"/><path d="M357.05,98.54c0,4.26,3.07,9.02,11.11,9.02,10.31,0,21.13-8.43,21.13-17.16,0-5.86-4.96-9.13-11.11-9.13-9.63,0-21.13,8.14-21.13,17.27"/><path d="M439.03,98.54c0,4.26,3.07,9.02,11.11,9.02,10.31,0,21.13-8.43,21.13-17.16,0-5.86-4.96-9.13-11.11-9.13-9.63,0-21.13,8.14-21.13,17.27"/><path d="M521.01,123.34c0,4.26,3.07,9.02,11.11,9.02,10.31,0,21.13-8.43,21.13-17.16,0-5.86-4.96-9.13-11.11-9.13-9.63,0-21.13,8.14-21.13,17.27"/><path d="M602.99,148.14c0,4.26,3.07,9.02,11.11,9.02,10.31,0,21.13-8.43,21.13-17.16,0-5.86-4.96-9.13-11.11-9.13-9.63,0-21.13,8.14-21.13,17.27"/><path d="M721.67,123.34c0,4.26,3.07,9.02,11.11,9.02,10.31,0,21.13-8.43,21.13-17.16,0-5.86-4.96-9.13-11.11-9.13-9.63,0-21.13,8.14-21.13,17.27"/><path d="M803.65,98.54c0,4.26,3.07,9.02,11.11,9.02,10.31,0,21.13-8.43,21.13-17.16,0-5.86-4.96-9.13-11.11-9.13-9.63,0-21.13,8.14-21.13,17.27"/><path d="M885.63,61.34c0,4.26,3.07,9.02,11.11,9.02,10.31,0,21.13-8.43,21.13-17.16,0-5.86-4.96-9.13-11.11-9.13-9.63,0-21.13,8.14-21.13,17.27"/><path d="M967.61,61.34c0,4.26,3.07,9.02,11.11,9.02,10.31,0,21.13-8.43,21.13-17.16,0-5.86-4.96-9.13-11.11-9.13-9.63,0-21.13,8.14-21.13,17.27"/><path d="M193.08,481.82c0,4.26,3.07,9.02,11.11,9.02,10.31,0,21.13-8.43,21.13-17.16,0-5.86-4.96-9.13-11.11-9.13-9.63,0-21.13,8.14-21.13,17.27"/><path d="M1131.58,123.34c0,4.26,3.07,9.02,11.11,9.02,10.31,0,21.13-8.43,21.13-17.16,0-5.86-4.96-9.13-11.11-9.13-9.63,0-21.13,8.14-21.13,17.27"/><path d="M1250.26,98.54c0,4.26,3.07,9.02,11.11,9.02,10.31,0,21.13-8.43,21.13-17.16,0-5.86-4.96-9.13-11.11-9.13-9.63,0-21.13,8.14-21.13,17.27"/><path d="M1332.24,61.34c0,4.26,3.07,9.02,11.11,9.02,10.31,0,21.13-8.43,21.13-17.16,0-5.86-4.96-9.13-11.11-9.13-9.63,0-21.13,8.14-21.13,17.27"/><path d="M1414.22,36.54c0,4.26,3.07,9.02,11.11,9.02,10.31,0,21.13-8.43,21.13-17.16,0-5.86-4.96-9.13-11.11-9.13-9.63,0-21.13,8.14-21.13,17.27"/><path d="M1496.2,36.54c0,4.26,3.07,9.02,11.11,9.02,10.31,0,21.13-8.43,21.13-17.16,0-5.86-4.96-9.13-11.11-9.13-9.63,0-21.13,8.14-21.13,17.27"/><path d="M1578.18,61.34c0,4.26,3.07,9.02,11.11,9.02,10.31,0,21.13-8.43,21.13-17.16,0-5.86-4.96-9.13-11.11-9.13-9.63,0-21.13,8.14-21.13,17.27"/><path d="M1660.16,98.54c0,4.26,3.07,9.02,11.11,9.02,10.31,0,21.13-8.43,21.13-17.16,0-5.86-4.96-9.13-11.11-9.13-9.63,0-21.13,8.14-21.13,17.27"/><path d="M1778.85,123.34c0,4.26,3.07,9.02,11.11,9.02,10.31,0,21.13-8.43,21.13-17.16,0-5.86-4.96-9.13-11.11-9.13-9.63,0-21.13,8.14-21.13,17.27"/><path d="M1860.83,98.54c0,4.26,3.07,9.02,11.11,9.02,10.31,0,21.13-8.43,21.13-17.16,0-5.86-4.96-9.13-11.11-9.13-9.63,0-21.13,8.14-21.13,17.27"/><path d="M1942.81,61.34c0,4.26,3.07,9.02,11.11,9.02,10.31,0,21.13-8.43,21.13-17.16,0-5.86-4.96-9.13-11.11-9.13-9.63,0-21.13,8.14-21.13,17.27"/><path d="M2024.79,61.34c0,4.26,3.07,9.02,11.11,9.02,10.31,0,21.13-8.43,21.13-17.16,0-5.86-4.96-9.13-11.11-9.13-9.63,0-21.13,8.14-21.13,17.27"/><path d="M2106.77,98.54c0,4.26,3.07,9.02,11.11,9.02,10.31,0,21.13-8.43,21.13-17.16,0-5.86-4.96-9.13-11.11-9.13-9.63,0-21.13,8.14-21.13,17.27"/><path d="M2188.75,123.34c0,4.26,3.07,9.02,11.11,9.02,10.31,0,21.13-8.43,21.13-17.16,0-5.86-4.96-9.13-11.11-9.13-9.63,0-21.13,8.14-21.13,17.27"/><path d="M1390.92,543.82c0,4.26,3.07,9.02,11.11,9.02,10.31,0,21.13-8.43,21.13-17.16,0-5.86-4.96-9.13-11.11-9.13-9.63,0-21.13,8.14-21.13,17.27"/><path d="M1260.51,519.02c0,4.26,3.07,9.02,11.11,9.02,10.31,0,21.13-8.43,21.13-17.16,0-5.86-4.96-9.13-11.11-9.13-9.63,0-21.13,8.14-21.13,17.27"/><path d="M286.79,457.02c0,4.26,3.07,9.02,11.11,9.02,10.31,0,21.13-8.43,21.13-17.16,0-5.86-4.96-9.13-11.11-9.13-9.63,0-21.13,8.14-21.13,17.27"/><path d="M380.49,432.22c0,4.26,3.07,9.02,11.11,9.02,10.31,0,21.13-8.43,21.13-17.16,0-5.86-4.96-9.13-11.11-9.13-9.63,0-21.13,8.14-21.13,17.27"/><path d="M474.19,432.22c0,4.26,3.07,9.02,11.11,9.02,10.31,0,21.13-8.43,21.13-17.16,0-5.86-4.96-9.13-11.11-9.13-9.63,0-21.13,8.14-21.13,17.27"/><path d="M1166.81,481.82c0,4.26,3.07,9.02,11.11,9.02,10.31,0,21.13-8.43,21.13-17.16,0-5.86-4.96-9.13-11.11-9.13-9.63,0-21.13,8.14-21.13,17.27"/><path d="M1073.1,457.02c0,4.26,3.07,9.02,11.11,9.02,10.31,0,21.13-8.43,21.13-17.16,0-5.86-4.96-9.13-11.11-9.13-9.63,0-21.13,8.14-21.13,17.27"/><path d="M979.4,457.02c0,4.26,3.07,9.02,11.11,9.02,10.31,0,21.13-8.43,21.13-17.16,0-5.86-4.96-9.13-11.11-9.13-9.63,0-21.13,8.14-21.13,17.27"/><path d="M885.7,481.82c0,4.26,3.07,9.02,11.11,9.02,10.31,0,21.13-8.43,21.13-17.16,0-5.86-4.96-9.13-11.11-9.13-9.63,0-21.13,8.14-21.13,17.27"/><path d="M792,519.02c0,4.26,3.07,9.02,11.11,9.02,10.31,0,21.13-8.43,21.13-17.16,0-5.86-4.96-9.13-11.11-9.13-9.63,0-21.13,8.14-21.13,17.27"/><path d="M661.59,481.82c0,4.26,3.07,9.02,11.11,9.02,10.31,0,21.13-8.43,21.13-17.16,0-5.86-4.96-9.13-11.11-9.13-9.63,0-21.13,8.14-21.13,17.27"/><path d="M567.89,457.02c0,4.26,3.07,9.02,11.11,9.02,10.31,0,21.13-8.43,21.13-17.16,0-5.86-4.96-9.13-11.11-9.13-9.63,0-21.13,8.14-21.13,17.27"/><path d="M1484.62,519.02c0,4.26,3.07,9.02,11.11,9.02,10.31,0,21.13-8.43,21.13-17.16,0-5.86-4.96-9.13-11.11-9.13-9.63,0-21.13,8.14-21.13,17.27"/><path d="M2010.96,377.76c-9.63,0-21.13,8.04-21.13,17.27,0,4.26,3.07,9.02,11.11,9.02,10.31,0,21.13-8.43,21.13-17.16,0-5.86-4.96-9.13-11.11-9.13m-13.69,21.62c-3.27,0-3.97-2.67-3.97-3.56,0-4.87,16.66-13.39,21.33-13.39,2.39,0,3.97,1.39,3.97,3.56,0,4.96-16.77,13.39-21.33,13.39"/><path d="M1859.43,432.22c0,4.26,3.07,9.02,11.11,9.02,10.31,0,21.13-8.43,21.13-17.16,0-5.86-4.96-9.13-11.11-9.13-9.63,0-21.13,8.14-21.13,17.27"/><path d="M1765.72,457.02c0,4.26,3.07,9.02,11.11,9.02,10.31,0,21.13-8.43,21.13-17.16,0-5.86-4.96-9.13-11.11-9.13-9.63,0-21.13,8.14-21.13,17.27"/><path d="M1672.02,481.82c0,4.26,3.07,9.02,11.11,9.02,10.31,0,21.13-8.43,21.13-17.16,0-5.86-4.96-9.13-11.11-9.13-9.63,0-21.13,8.14-21.13,17.27"/><path d="M1578.32,481.82c0,4.26,3.07,9.02,11.11,9.02,10.31,0,21.13-8.43,21.13-17.16,0-5.86-4.96-9.13-11.11-9.13-9.63,0-21.13,8.14-21.13,17.27"/><path d="M30.8,194.86c0,6.56,4.96,15.19,18.35,15.19,4.67,0,8.74-1.19,12.31-3.38,5.36-3.77,6.74-10.32,6.74-16.57,0-3.86-.59-8.32-1.58-13.98-.29-1.98-.9-4.96-1.49-8.84,9.72-3.18,16.96-13.3,16.96-23.51,0-14.97-10.62-25.09-25.09-25.09-.99-5.95-1.98-11.81-2.77-17.36,10.42-11.02,17.65-23.42,17.65-39.18,0-9.04-2.77-16.37-4.37-19.95-2.37-5.05-5.25-8.53-7.04-8.53-.7,0-3.77,1.19-7.04,5.05-6.36,7.55-8.14,20.24-8.14,28.57,0,5.36,.5,10.23,2.19,21.34-.11,.09-5.27,5.35-7.35,7.04-9.04,8.34-21.53,20.43-21.53,40.28,0,18.54,16.17,33.12,34.63,33.12,2.87,0,5.55-.29,7.83-.7,1.89,9.53,3.08,16.48,3.08,21.73,0,10.32-5.36,15.78-15.38,15.78-2.39,0-4.46-.5-4.67-.5-.09-.11-.29-.2-.29-.29,0-.2,.2-.31,.5-.31,4.67-.79,9.32-4.76,9.32-11.1,0-5.36-4.06-11.02-11.5-11.02-6.94,0-11.31,5.66-11.31,12.2M51.54,62.43c.9-3.97,5.46-14.38,10.62-14.38,1.49,0,3.86,4.76,3.86,11.7,0,10.32-7.63,18.06-14.48,24.8-.59-3.97-1.08-7.83-1.08-12,0-3.67,.29-7.05,1.08-10.12m8.73,101.97c-1.98,.4-3.86,.6-5.75,.6-14.18,0-26.29-9.92-26.29-24.91,0-12.09,8.53-22.91,17.27-30.46,1.67-1.49,3.27-2.87,4.76-4.36,.88,5.35,1.58,10.01,2.28,14.09-9.04,2.68-15.17,12.2-15.17,21.53,0,6.94,5.46,16.46,13.39,16.46,.79,0,1.69-.4,1.69-1.29s-.99-1.39-2.19-2.19c-3.88-2.39-6.06-4.96-6.06-9.83,0-6.04,4.57-10.91,10.32-12.29l5.75,32.63m14.09-18.35c0,7.05-2.88,14.29-9.92,17.17-2.08-11.9-4.76-27.68-5.46-32.05,8.93,0,15.38,6.06,15.38,14.88"/><path d="M30.8,528.54c0,6.56,4.96,15.19,18.35,15.19,4.67,0,8.74-1.19,12.31-3.38,5.36-3.77,6.74-10.32,6.74-16.57,0-3.86-.59-8.32-1.58-13.98-.29-1.98-.9-4.96-1.49-8.84,9.72-3.18,16.96-13.3,16.96-23.51,0-14.97-10.62-25.09-25.09-25.09-.99-5.95-1.98-11.81-2.77-17.36,10.42-11.02,17.65-23.42,17.65-39.18,0-9.04-2.77-16.37-4.37-19.95-2.37-5.05-5.25-8.53-7.04-8.53-.7,0-3.77,1.19-7.04,5.05-6.36,7.55-8.14,20.24-8.14,28.57,0,5.36,.5,10.23,2.19,21.34-.11,.09-5.27,5.35-7.35,7.04-9.04,8.34-21.53,20.43-21.53,40.28,0,18.54,16.17,33.12,34.63,33.12,2.87,0,5.55-.29,7.83-.7,1.89,9.53,3.08,16.48,3.08,21.73,0,10.32-5.36,15.78-15.38,15.78-2.39,0-4.46-.5-4.67-.5-.09-.11-.29-.2-.29-.29,0-.2,.2-.31,.5-.31,4.67-.79,9.32-4.76,9.32-11.1,0-5.36-4.06-11.02-11.5-11.02-6.94,0-11.31,5.66-11.31,12.2m20.74-132.43c.9-3.97,5.46-14.38,10.62-14.38,1.49,0,3.86,4.76,3.86,11.7,0,10.32-7.63,18.06-14.48,24.8-.59-3.97-1.08-7.83-1.08-12,0-3.67,.29-7.05,1.08-10.12m8.73,101.97c-1.98,.4-3.86,.6-5.75,.6-14.18,0-26.29-9.92-26.29-24.91,0-12.09,8.53-22.91,17.27-30.46,1.67-1.49,3.27-2.87,4.76-4.36,.88,5.35,1.58,10.01,2.28,14.09-9.04,2.68-15.17,12.2-15.17,21.53,0,6.94,5.46,16.46,13.39,16.46,.79,0,1.69-.4,1.69-1.29s-.99-1.39-2.19-2.19c-3.88-2.39-6.06-4.96-6.06-9.83,0-6.04,4.57-10.91,10.32-12.29l5.75,32.63m14.09-18.35c0,7.05-2.88,14.29-9.92,17.17-2.08-11.9-4.76-27.68-5.46-32.05,8.93,0,15.38,6.06,15.38,14.88"/><path d="M129.99,392.84c.6-.09,1.1-.79,1.1-1.4v-5.84c0-.99-.7-1.39-1.6-1.39l-3.27,.7v-14.79h-2.77v15.38l-8.83,1.8v-14h-2.77v14.59l-3.87,.79c-.59,.11-1.08,.79-1.08,1.39v5.75c0,1.08,.79,1.39,1.69,1.39l3.27-.7v16.37l-3.87,.79c-.59,.09-1.08,.79-1.08,1.4v5.75c0,1.09,.79,1.38,1.69,1.38l3.27-.68v14.77h2.77v-15.38l8.83-1.78v14h2.77v-14.59l3.77-.7c.6-.11,1.1-.79,1.1-1.39v-5.84c0-.99-.7-1.39-1.6-1.39l-3.27,.7v-16.37l3.77-.7m-15.38,3.07l8.83-1.78v16.37l-8.83,1.89v-16.48"/><path d="M129.99,59.16c.6-.09,1.1-.79,1.1-1.4v-5.84c0-.99-.7-1.39-1.6-1.39l-3.27,.7v-14.79h-2.77v15.38l-8.83,1.8v-14h-2.77v14.59l-3.87,.79c-.59,.11-1.08,.79-1.08,1.39v5.75c0,1.08,.79,1.39,1.69,1.39l3.27-.7v16.37l-3.87,.79c-.59,.09-1.08,.79-1.08,1.4v5.75c0,1.09,.79,1.38,1.69,1.38l3.27-.68v14.77h2.77v-15.38l8.83-1.78v14h2.77v-14.59l3.77-.7c.6-.11,1.1-.79,1.1-1.39v-5.84c0-.99-.7-1.39-1.6-1.39l-3.27,.7v-16.37l3.77-.7m-15.38,3.07l8.83-1.78v16.37l-8.83,1.89v-16.48"/><path d="M2028.67,342.05c-9.32-10.12-17.56-10.71-22.71-10.71s-13.3,.59-22.63,10.71c-4.85,5.36-8.23,15.96-8.23,21.33,0,1.89,.4,3.18,1.39,3.18,2.77,0,1.38-8.54,9.72-16.97,7.33-7.33,17.16-7.44,19.55-7.44h.39c2.39,0,12.21,.11,19.55,7.44,8.34,8.43,6.94,16.97,9.72,16.97,.99,0,1.39-1.19,1.39-3.18,0-5.36-3.27-16.07-8.14-21.33m-29.56,18.94c0,3.78,3.07,6.85,6.85,6.85s6.84-3.07,6.84-6.85-3.07-6.84-6.84-6.84-6.85,3.07-6.85,6.84"/><path d="M1672.02,533.42l189.89-18.6v12.46l-189.89,18.6v-12.46" fill-rule="evenodd"/><path d="M193.08,199.73l166.44-18.6v12.48l-166.44,18.6v-12.48" fill-rule="evenodd"/><path d="M1420.67,403.25l189.88-6.2v12.4l-189.88,6.2v-12.4" fill-rule="evenodd"/><path d="M439.03,181.13l166.44,18.6v12.48l-166.44-18.6v-12.48" fill-rule="evenodd"/><path d="M721.67,181.13l166.44-18.6v12.48l-166.44,18.6v-12.48" fill-rule="evenodd"/><path d="M967.61,162.53l166.45,18.6v12.48l-166.45-18.6v-12.48" fill-rule="evenodd"/><path d="M1250.26,162.57l166.44-6.2v12.41l-166.44,6.2v-12.41" fill-rule="evenodd"/><path d="M1102.86,378.42l189.88,18.6v12.46l-189.88-18.6v-12.46" fill-rule="evenodd"/><path d="M1496.2,156.37l166.44,6.2v12.41l-166.44-6.2v-12.41" fill-rule="evenodd"/><path d="M1778.85,181.13l166.44-18.6v12.48l-166.44,18.6v-12.48" fill-rule="evenodd"/><path d="M2024.79,162.53l166.44,18.6v12.48l-166.44-18.6v-12.48" fill-rule="evenodd"/><path d="M821.75,397.02l189.88-18.6v12.46l-189.88,18.6v-12.46" fill-rule="evenodd"/><path d="M193.08,533.42l189.88-18.6v12.46l-189.88,18.6v-12.46" fill-rule="evenodd"/><path d="M474.19,514.82l189.88,18.6v12.46l-189.88-18.6v-12.46" fill-rule="evenodd"/><path d="M2034.46,390.85c0,2.77,2.19,4.96,4.96,4.96s4.96-2.19,4.96-4.96-2.19-4.96-4.96-4.96-4.96,2.19-4.96,4.96"/></g></svg>