<?xml version="1.0" encoding="UTF-8"?><svg id="b" xmlns="http://www.w3.org/2000/svg" viewBox="0 0 2275.2 552.86"><g id="c"><line y1="37.24" x2="2275.2" y2="37.24" fill="none" stroke="#000" stroke-linejoin="bevel" stroke-width="2.73"/><line y1="62.04" x2="2275.2" y2="62.04" fill="none" stroke="#000" stroke-linejoin="bevel" stroke-width="2.73"/><line y1="86.84" x2="2275.2" y2="86.84" fill="none" stroke="#000" stroke-linejoin="bevel" stroke-width="2.73"/><line y1="111.64" x2="2275.2" y2="111.64" fill="none" stroke="#000" stroke-linejoin="bevel" stroke-width="2.73"/><line y1="136.44" x2="2275.2" y2="136.44" fill="none" stroke="#000" stroke-linejoin="bevel" stroke-width="2.73"/><line y1="370.92" x2="2275.2" y2="370.92" fill="none" stroke="#000" stroke-linejoin="bevel" stroke-width="2.73"/><line y1="395.72" x2="2275.2" y2="395.72" fill="none" stroke="#000" stroke-linejoin="bevel" stroke-width="2.73"/><line y1="420.52" x2="2275.2" y2="420.52" fill="none" stroke="#000" stroke-linejoin="bevel" stroke-width="2.73"/><line y1="445.32" x2="2275.2" y2="445.32" fill="none" stroke="#000" stroke-linejoin="bevel" stroke-width="2.73"/><line y1="470.12" x2="2275.2" y2="470.12" fill="none" stroke="#000" stroke-linejoin="bevel" stroke-width="2.73"/><path d="M1440.42,542.04c27.82,13.16,72.79,.76,89.93-24.8-15.03,33.21-60,45.61-89.93,24.8" fill-rule="evenodd" stroke="#000" stroke-linecap="round" stroke-linejoin="round" stroke-width="1.24"/><path d="M1814.63,76.92c11.68-31.56,51.04-43.96,78.7-24.8-25.28-11.59-64.63,.81-78.7,24.8" fill-rule="evenodd" stroke="#000" stroke-linecap="round" stroke-linejoin="round" stroke-width="1.24"/><path d="M1710.21,492.44c17.15,25.56,62.11,37.96,89.93,24.8-29.93,20.81-74.89,8.41-89.93-24.8" fill-rule="evenodd" stroke="#000" stroke-linecap="round" stroke-linejoin="round" stroke-width="1.24"/><path d="M796.78,183.56c25.28,11.59,64.63-.81,78.7-24.8-11.68,31.56-51.04,43.96-78.7,24.8" fill-rule="evenodd" stroke="#000" stroke-linecap="round" stroke-linejoin="round" stroke-width="1.24"/><path d="M1541.81,96.76c14.07,23.99,53.43,36.39,78.71,24.8-27.67,19.16-67.02,6.76-78.71-24.8" fill-rule="evenodd" stroke="#000" stroke-linecap="round" stroke-linejoin="round" stroke-width="1.24"/><path d="M2050.74,27.32c27.67-19.16,67.02-6.76,78.7,24.8-14.07-23.99-53.42-36.39-78.7-24.8" fill-rule="evenodd" stroke="#000" stroke-linecap="round" stroke-linejoin="round" stroke-width="1.24"/><path d="M1305.7,158.76c27.91,8.12,67.26-10.48,78.71-37.2-8.06,33.89-47.41,52.49-78.71,37.2" fill-rule="evenodd" stroke="#000" stroke-linecap="round" stroke-linejoin="round" stroke-width="1.24"/><path d="M523.97,158.76c14.07,23.99,53.42,36.39,78.7,24.8-27.67,19.16-67.02,6.76-78.7-24.8" fill-rule="evenodd" stroke="#000" stroke-linecap="round" stroke-linejoin="round" stroke-width="1.24"/><path d="M287.85,492.44c30.35,9.73,75.32-8.87,89.93-37.2-11.58,35.67-56.54,54.27-89.93,37.2" fill-rule="evenodd" stroke="#000" stroke-linecap="round" stroke-linejoin="round" stroke-width="1.24"/><path d="M557.64,430.44c17.14,25.56,62.11,37.96,89.93,24.8-29.93,20.81-74.9,8.41-89.93-24.8" fill-rule="evenodd" stroke="#000" stroke-linecap="round" stroke-linejoin="round" stroke-width="1.24"/><path d="M864.14,517.24c27.82,13.16,72.78,.76,89.93-24.8-15.04,33.21-60,45.61-89.93,24.8" fill-rule="evenodd" stroke="#000" stroke-linecap="round" stroke-linejoin="round" stroke-width="1.24"/><path d="M1032.89,121.56c11.44,26.72,50.79,45.32,78.7,37.2-31.3,15.29-70.65-3.31-78.7-37.2" fill-rule="evenodd" stroke="#000" stroke-linecap="round" stroke-linejoin="round" stroke-width="1.24"/><path d="M287.85,208.36c25.28,11.59,64.63-.81,78.7-24.8-11.68,31.56-51.04,43.96-78.7,24.8" fill-rule="evenodd" stroke="#000" stroke-linecap="round" stroke-linejoin="round" stroke-width="1.24"/><path d="M1133.93,455.24c14.61,28.33,59.57,46.93,89.93,37.2-33.39,17.07-78.36-1.53-89.93-37.2" fill-rule="evenodd" stroke="#000" stroke-linecap="round" stroke-linejoin="round" stroke-width="1.24"/><line x1="2259.33" y1="369.56" x2="2259.33" y2="471.48" fill="none" stroke="#000" stroke-linejoin="bevel" stroke-width="4.46"/><line x1="2272.97" y1="369.56" x2="2272.97" y2="471.48" fill="none" stroke="#000" stroke-linejoin="bevel" stroke-width="4.46"/><line x1="2272.97" y1="35.88" x2="2272.97" y2="137.8" fill="none" stroke="#000" stroke-linejoin="bevel" stroke-width="4.46"/><line x1="1764.04" y1="35.88" x2="1764.04" y2="137.8" fill="none" stroke="#000" stroke-linejoin="bevel" stroke-width="4.46"/><line x1="1966.12" y1="369.56" x2="1966.12" y2="471.48" fill="none" stroke="#000" stroke-linejoin="bevel" stroke-width="4.46"/><line x1="1389.83" y1="369.56" x2="1389.83" y2="471.48" fill="none" stroke="#000" stroke-linejoin="bevel" stroke-width="4.46"/><line x1="746.19" y1="35.88" x2="746.19" y2="137.8" fill="none" stroke="#000" stroke-linejoin="bevel" stroke-width="4.46"/><line x1="1255.12" y1="35.88" x2="1255.12" y2="137.8" fill="none" stroke="#000" stroke-linejoin="bevel" stroke-width="4.46"/><line x1="813.55" y1="369.56" x2="813.55" y2="471.48" fill="none" stroke="#000" stroke-linejoin="bevel" stroke-width="4.46"/><line x1="1865.77" y1="519.72" x2="1914.37" y2="519.72" fill="none" stroke="#000" stroke-linejoin="bevel" stroke-width="3.97"/><line x1="1775.84" y1="494.92" x2="1824.44" y2="494.92" fill="none" stroke="#000" stroke-linejoin="bevel" stroke-width="3.97"/><line x1="342.26" y1="161.24" x2="390.86" y2="161.24" fill="none" stroke="#000" stroke-linejoin="bevel" stroke-width="3.97"/><line x1="1416.12" y1="519.72" x2="1464.72" y2="519.72" fill="none" stroke="#000" stroke-linejoin="bevel" stroke-width="3.97"/><line x1="263.56" y1="161.24" x2="312.15" y2="161.24" fill="none" stroke="#000" stroke-linejoin="bevel" stroke-width="3.97"/><line x1="263.56" y1="186.04" x2="312.15" y2="186.04" fill="none" stroke="#000" stroke-linejoin="bevel" stroke-width="3.97"/><line x1="839.84" y1="494.92" x2="888.44" y2="494.92" fill="none" stroke="#000" stroke-linejoin="bevel" stroke-width="3.97"/><line x1="1166" y1="161.24" x2="1214.6" y2="161.24" fill="none" stroke="#000" stroke-linejoin="bevel" stroke-width="3.97"/><line x1="657.07" y1="161.24" x2="705.67" y2="161.24" fill="none" stroke="#000" stroke-linejoin="bevel" stroke-width="3.97"/><line x1="1506.05" y1="494.92" x2="1554.65" y2="494.92" fill="none" stroke="#000" stroke-linejoin="bevel" stroke-width="3.97"/><line x1="1865.77" y1="494.92" x2="1914.37" y2="494.92" fill="none" stroke="#000" stroke-linejoin="bevel" stroke-width="3.97"/><line x1="772.48" y1="161.24" x2="821.08" y2="161.24" fill="none" stroke="#000" stroke-linejoin="bevel" stroke-width="3.97"/><line x1="578.37" y1="161.24" x2="626.97" y2="161.24" fill="none" stroke="#000" stroke-linejoin="bevel" stroke-width="3.97"/><line x1="1289.49" y1="494.92" x2="1338.09" y2="494.92" fill="none" stroke="#000" stroke-linejoin="bevel" stroke-width="3.97"/><line x1="1416.12" y1="494.92" x2="1464.72" y2="494.92" fill="none" stroke="#000" stroke-linejoin="bevel" stroke-width="3.97"/><line x1="657.07" y1="186.04" x2="705.67" y2="186.04" fill="none" stroke="#000" stroke-linejoin="bevel" stroke-width="3.97"/><line x1="1725.09" y1="466.15" x2="1725.09" y2="395.76" fill="none" stroke="#000" stroke-linejoin="bevel" stroke-width="2.48"/><line x1="1815.02" y1="490.95" x2="1815.02" y2="398.82" fill="none" stroke="#000" stroke-linejoin="bevel" stroke-width="2.48"/><line x1="1904.95" y1="515.75" x2="1904.95" y2="401.88" fill="none" stroke="#000" stroke-linejoin="bevel" stroke-width="2.48"/><line x1="2031.58" y1="428.95" x2="2031.58" y2="352.32" fill="none" stroke="#000" stroke-linejoin="bevel" stroke-width="2.48"/><line x1="302.73" y1="182.07" x2="302.73" y2="68.19" fill="none" stroke="#000" stroke-linejoin="bevel" stroke-width="2.48"/><line x1="381.43" y1="157.27" x2="381.43" y2="65.14" fill="none" stroke="#000" stroke-linejoin="bevel" stroke-width="2.48"/><line x1="460.14" y1="132.47" x2="460.14" y2="62.09" fill="none" stroke="#000" stroke-linejoin="bevel" stroke-width="2.48"/><line x1="538.84" y1="132.47" x2="538.84" y2="62.09" fill="none" stroke="#000" stroke-linejoin="bevel" stroke-width="2.48"/><line x1="617.54" y1="157.27" x2="617.54" y2="65.14" fill="none" stroke="#000" stroke-linejoin="bevel" stroke-width="2.48"/><line x1="696.25" y1="182.07" x2="696.25" y2="68.19" fill="none" stroke="#000" stroke-linejoin="bevel" stroke-width="2.48"/><line x1="811.65" y1="157.27" x2="811.65" y2="43.34" fill="none" stroke="#000" stroke-linejoin="bevel" stroke-width="2.48"/><line x1="890.36" y1="132.47" x2="890.36" y2="37.24" fill="none" stroke="#000" stroke-linejoin="bevel" stroke-width="2.48"/><line x1="969.06" y1="95.27" x2="969.06" y2="31.14" fill="none" stroke="#000" stroke-linejoin="bevel" stroke-width="2.48"/><line x1="1047.77" y1="95.27" x2="1047.77" y2="31.14" fill="none" stroke="#000" stroke-linejoin="bevel" stroke-width="2.48"/><line x1="1126.47" y1="132.47" x2="1126.47" y2="37.24" fill="none" stroke="#000" stroke-linejoin="bevel" stroke-width="2.48"/><line x1="1205.17" y1="157.27" x2="1205.17" y2="43.34" fill="none" stroke="#000" stroke-linejoin="bevel" stroke-width="2.48"/><line x1="1320.58" y1="132.47" x2="1320.58" y2="24.7" fill="none" stroke="#000" stroke-linejoin="bevel" stroke-width="2.48"/><line x1="1399.28" y1="95.27" x2="1399.28" y2="15.54" fill="none" stroke="#000" stroke-linejoin="bevel" stroke-width="2.48"/><line x1="1477.99" y1="70.47" x2="1477.99" y2="6.38" fill="none" stroke="#000" stroke-linejoin="bevel" stroke-width="2.48"/><line x1="1556.69" y1="70.47" x2="1556.69" y2="6.38" fill="none" stroke="#000" stroke-linejoin="bevel" stroke-width="2.48"/><line x1="1635.39" y1="95.27" x2="1635.39" y2="15.54" fill="none" stroke="#000" stroke-linejoin="bevel" stroke-width="2.48"/><line x1="1714.1" y1="132.47" x2="1714.1" y2="24.7" fill="none" stroke="#000" stroke-linejoin="bevel" stroke-width="2.48"/><line x1="1799.75" y1="103.41" x2="1799.75" y2="167.3" fill="none" stroke="#000" stroke-linejoin="bevel" stroke-width="2.48"/><line x1="1878.46" y1="78.61" x2="1878.46" y2="158.14" fill="none" stroke="#000" stroke-linejoin="bevel" stroke-width="2.48"/><line x1="1957.16" y1="53.81" x2="1957.16" y2="148.98" fill="none" stroke="#000" stroke-linejoin="bevel" stroke-width="2.48"/><line x1="2035.86" y1="53.81" x2="2035.86" y2="148.98" fill="none" stroke="#000" stroke-linejoin="bevel" stroke-width="2.48"/><line x1="2114.57" y1="78.61" x2="2114.57" y2="158.14" fill="none" stroke="#000" stroke-linejoin="bevel" stroke-width="2.48"/><line x1="2193.27" y1="103.41" x2="2193.27" y2="167.3" fill="none" stroke="#000" stroke-linejoin="bevel" stroke-width="2.48"/><line x1="302.73" y1="466.15" x2="302.73" y2="358.39" fill="none" stroke="#000" stroke-linejoin="bevel" stroke-width="2.48"/><line x1="392.66" y1="428.95" x2="392.66" y2="349.22" fill="none" stroke="#000" stroke-linejoin="bevel" stroke-width="2.48"/><line x1="482.59" y1="404.15" x2="482.59" y2="340.05" fill="none" stroke="#000" stroke-linejoin="bevel" stroke-width="2.48"/><line x1="572.52" y1="404.15" x2="572.52" y2="340.05" fill="none" stroke="#000" stroke-linejoin="bevel" stroke-width="2.48"/><line x1="662.45" y1="428.95" x2="662.45" y2="349.22" fill="none" stroke="#000" stroke-linejoin="bevel" stroke-width="2.48"/><line x1="752.38" y1="466.15" x2="752.38" y2="358.39" fill="none" stroke="#000" stroke-linejoin="bevel" stroke-width="2.48"/><line x1="879.01" y1="490.95" x2="879.01" y2="377.04" fill="none" stroke="#000" stroke-linejoin="bevel" stroke-width="2.48"/><line x1="968.94" y1="466.15" x2="968.94" y2="370.92" fill="none" stroke="#000" stroke-linejoin="bevel" stroke-width="2.48"/><line x1="1058.87" y1="428.95" x2="1058.87" y2="364.8" fill="none" stroke="#000" stroke-linejoin="bevel" stroke-width="2.48"/><line x1="1148.8" y1="428.95" x2="1148.8" y2="364.8" fill="none" stroke="#000" stroke-linejoin="bevel" stroke-width="2.48"/><line x1="1238.73" y1="466.15" x2="1238.73" y2="370.92" fill="none" stroke="#000" stroke-linejoin="bevel" stroke-width="2.48"/><line x1="1328.66" y1="490.95" x2="1328.66" y2="377.04" fill="none" stroke="#000" stroke-linejoin="bevel" stroke-width="2.48"/><line x1="1455.3" y1="515.75" x2="1455.3" y2="401.88" fill="none" stroke="#000" stroke-linejoin="bevel" stroke-width="2.48"/><line x1="1545.23" y1="490.95" x2="1545.23" y2="398.82" fill="none" stroke="#000" stroke-linejoin="bevel" stroke-width="2.48"/><line x1="1635.16" y1="466.15" x2="1635.16" y2="395.76" fill="none" stroke="#000" stroke-linejoin="bevel" stroke-width="2.48"/><path d="M1873.96,523.89c0,4.26,3.07,9.02,11.11,9.02,10.31,0,21.13-8.43,21.13-17.16,0-5.86-4.96-9.13-11.11-9.13-9.63,0-21.13,8.14-21.13,17.27"/><path d="M665.26,190.21c0,4.26,3.07,9.02,11.11,9.02,10.31,0,21.13-8.43,21.13-17.16,0-5.86-4.96-9.13-11.11-9.13-9.63,0-21.13,8.14-21.13,17.27"/><path d="M361.67,437.09c0,4.26,3.07,9.02,11.11,9.02,10.31,0,21.13-8.43,21.13-17.16,0-5.86-4.96-9.13-11.11-9.13-9.63,0-21.13,8.14-21.13,17.27"/><path d="M1027.88,437.09c0,4.26,3.07,9.02,11.11,9.02,10.31,0,21.13-8.43,21.13-17.16,0-5.86-4.96-9.13-11.11-9.13-9.63,0-21.13,8.14-21.13,17.27"/><path d="M1368.29,103.41c0,4.26,3.07,9.02,11.11,9.02,10.31,0,21.13-8.43,21.13-17.16,0-5.86-4.96-9.13-11.11-9.13-9.63,0-21.13,8.14-21.13,17.27"/><path d="M1117.81,437.09c0,4.26,3.07,9.02,11.11,9.02,10.31,0,21.13-8.43,21.13-17.16,0-5.86-4.96-9.13-11.11-9.13-9.63,0-21.13,8.14-21.13,17.27"/><path d="M2021.72,419.82c-9.63,0-21.13,8.04-21.13,17.27,0,4.26,3.07,9.02,11.11,9.02,10.31,0,21.13-8.43,21.13-17.16,0-5.86-4.96-9.13-11.11-9.13m-13.69,21.62c-3.27,0-3.97-2.67-3.97-3.56,0-4.87,16.66-13.39,21.33-13.39,2.39,0,3.97,1.39,3.97,3.56,0,4.96-16.77,13.39-21.33,13.39"/><path d="M1289.59,140.61c0,4.26,3.07,9.02,11.11,9.02,10.31,0,21.13-8.43,21.13-17.16,0-5.86-4.96-9.13-11.11-9.13-9.63,0-21.13,8.14-21.13,17.27"/><path d="M1174.18,165.41c0,4.26,3.07,9.02,11.11,9.02,10.31,0,21.13-8.43,21.13-17.16,0-5.86-4.96-9.13-11.11-9.13-9.63,0-21.13,8.14-21.13,17.27"/><path d="M1095.48,140.61c0,4.26,3.07,9.02,11.11,9.02,10.31,0,21.13-8.43,21.13-17.16,0-5.86-4.96-9.13-11.11-9.13-9.63,0-21.13,8.14-21.13,17.27"/><path d="M1016.77,103.41c0,4.26,3.07,9.02,11.11,9.02,10.31,0,21.13-8.43,21.13-17.16,0-5.86-4.96-9.13-11.11-9.13-9.63,0-21.13,8.14-21.13,17.27"/><path d="M938.07,103.41c0,4.26,3.07,9.02,11.11,9.02,10.31,0,21.13-8.43,21.13-17.16,0-5.86-4.96-9.13-11.11-9.13-9.63,0-21.13,8.14-21.13,17.27"/><path d="M1297.67,499.09c0,4.26,3.07,9.02,11.11,9.02,10.31,0,21.13-8.43,21.13-17.16,0-5.86-4.96-9.13-11.11-9.13-9.63,0-21.13,8.14-21.13,17.27"/><path d="M859.37,140.61c0,4.26,3.07,9.02,11.11,9.02,10.31,0,21.13-8.43,21.13-17.16,0-5.86-4.96-9.13-11.11-9.13-9.63,0-21.13,8.14-21.13,17.27"/><path d="M1207.74,474.29c0,4.26,3.07,9.02,11.11,9.02,10.31,0,21.13-8.43,21.13-17.16,0-5.86-4.96-9.13-11.11-9.13-9.63,0-21.13,8.14-21.13,17.27"/><path d="M350.44,165.41c0,4.26,3.07,9.02,11.11,9.02,10.31,0,21.13-8.43,21.13-17.16,0-5.86-4.96-9.13-11.11-9.13-9.63,0-21.13,8.14-21.13,17.27"/><path d="M780.66,165.41c0,4.26,3.07,9.02,11.11,9.02,10.31,0,21.13-8.43,21.13-17.16,0-5.86-4.96-9.13-11.11-9.13-9.63,0-21.13,8.14-21.13,17.27"/><path d="M2034.62,53.81c0,4.26,3.07,9.02,11.11,9.02,10.31,0,21.13-8.43,21.13-17.16,0-5.86-4.96-9.13-11.11-9.13-9.63,0-21.13,8.14-21.13,17.27"/><path d="M586.55,165.41c0,4.26,3.07,9.02,11.11,9.02,10.31,0,21.13-8.43,21.13-17.16,0-5.86-4.96-9.13-11.11-9.13-9.63,0-21.13,8.14-21.13,17.27"/><path d="M1877.22,78.61c0,4.26,3.07,9.02,11.11,9.02,10.31,0,21.13-8.43,21.13-17.16,0-5.86-4.96-9.13-11.11-9.13-9.63,0-21.13,8.14-21.13,17.27"/><path d="M451.6,412.29c0,4.26,3.07,9.02,11.11,9.02,10.31,0,21.13-8.43,21.13-17.16,0-5.86-4.96-9.13-11.11-9.13-9.63,0-21.13,8.14-21.13,17.27"/><path d="M1955.92,53.81c0,4.26,3.07,9.02,11.11,9.02,10.31,0,21.13-8.43,21.13-17.16,0-5.86-4.96-9.13-11.11-9.13-9.63,0-21.13,8.14-21.13,17.27"/><path d="M848.02,499.09c0,4.26,3.07,9.02,11.11,9.02,10.31,0,21.13-8.43,21.13-17.16,0-5.86-4.96-9.13-11.11-9.13-9.63,0-21.13,8.14-21.13,17.27"/><path d="M2113.33,78.61c0,4.26,3.07,9.02,11.11,9.02,10.31,0,21.13-8.43,21.13-17.16,0-5.86-4.96-9.13-11.11-9.13-9.63,0-21.13,8.14-21.13,17.27"/><path d="M507.85,140.61c0,4.26,3.07,9.02,11.11,9.02,10.31,0,21.13-8.43,21.13-17.16,0-5.86-4.96-9.13-11.11-9.13-9.63,0-21.13,8.14-21.13,17.27"/><path d="M429.15,140.61c0,4.26,3.07,9.02,11.11,9.02,10.31,0,21.13-8.43,21.13-17.16,0-5.86-4.96-9.13-11.11-9.13-9.63,0-21.13,8.14-21.13,17.27"/><path d="M937.95,474.29c0,4.26,3.07,9.02,11.11,9.02,10.31,0,21.13-8.43,21.13-17.16,0-5.86-4.96-9.13-11.11-9.13-9.63,0-21.13,8.14-21.13,17.27"/><path d="M271.74,190.21c0,4.26,3.07,9.02,11.11,9.02,10.31,0,21.13-8.43,21.13-17.16,0-5.86-4.96-9.13-11.11-9.13-9.63,0-21.13,8.14-21.13,17.27"/><path d="M1798.51,103.41c0,4.26,3.07,9.02,11.11,9.02,10.31,0,21.13-8.43,21.13-17.16,0-5.86-4.96-9.13-11.11-9.13-9.63,0-21.13,8.14-21.13,17.27"/><path d="M541.53,412.29c0,4.26,3.07,9.02,11.11,9.02,10.31,0,21.13-8.43,21.13-17.16,0-5.86-4.96-9.13-11.11-9.13-9.63,0-21.13,8.14-21.13,17.27"/><path d="M1683.11,140.61c0,4.26,3.07,9.02,11.11,9.02,10.31,0,21.13-8.43,21.13-17.16,0-5.86-4.96-9.13-11.11-9.13-9.63,0-21.13,8.14-21.13,17.27"/><path d="M1424.31,523.89c0,4.26,3.07,9.02,11.11,9.02,10.31,0,21.13-8.43,21.13-17.16,0-5.86-4.96-9.13-11.11-9.13-9.63,0-21.13,8.14-21.13,17.27"/><path d="M1604.4,103.41c0,4.26,3.07,9.02,11.11,9.02,10.31,0,21.13-8.43,21.13-17.16,0-5.86-4.96-9.13-11.11-9.13-9.63,0-21.13,8.14-21.13,17.27"/><path d="M1514.24,499.09c0,4.26,3.07,9.02,11.11,9.02,10.31,0,21.13-8.43,21.13-17.16,0-5.86-4.96-9.13-11.11-9.13-9.63,0-21.13,8.14-21.13,17.27"/><path d="M2192.03,103.41c0,4.26,3.07,9.02,11.11,9.02,10.31,0,21.13-8.43,21.13-17.16,0-5.86-4.96-9.13-11.11-9.13-9.63,0-21.13,8.14-21.13,17.27"/><path d="M1604.17,474.29c0,4.26,3.07,9.02,11.11,9.02,10.31,0,21.13-8.43,21.13-17.16,0-5.86-4.96-9.13-11.11-9.13-9.63,0-21.13,8.14-21.13,17.27"/><path d="M631.46,437.09c0,4.26,3.07,9.02,11.11,9.02,10.31,0,21.13-8.43,21.13-17.16,0-5.86-4.96-9.13-11.11-9.13-9.63,0-21.13,8.14-21.13,17.27"/><path d="M1694.1,474.29c0,4.26,3.07,9.02,11.11,9.02,10.31,0,21.13-8.43,21.13-17.16,0-5.86-4.96-9.13-11.11-9.13-9.63,0-21.13,8.14-21.13,17.27"/><path d="M271.74,474.29c0,4.26,3.07,9.02,11.11,9.02,10.31,0,21.13-8.43,21.13-17.16,0-5.86-4.96-9.13-11.11-9.13-9.63,0-21.13,8.14-21.13,17.27"/><path d="M1784.03,499.09c0,4.26,3.07,9.02,11.11,9.02,10.31,0,21.13-8.43,21.13-17.16,0-5.86-4.96-9.13-11.11-9.13-9.63,0-21.13,8.14-21.13,17.27"/><path d="M721.39,474.29c0,4.26,3.07,9.02,11.11,9.02,10.31,0,21.13-8.43,21.13-17.16,0-5.86-4.96-9.13-11.11-9.13-9.63,0-21.13,8.14-21.13,17.27"/><path d="M1525.7,78.61c0,4.26,3.07,9.02,11.11,9.02,10.31,0,21.13-8.43,21.13-17.16,0-5.86-4.96-9.13-11.11-9.13-9.63,0-21.13,8.14-21.13,17.27"/><path d="M1446.99,78.61c0,4.26,3.07,9.02,11.11,9.02,10.31,0,21.13-8.43,21.13-17.16,0-5.86-4.96-9.13-11.11-9.13-9.63,0-21.13,8.14-21.13,17.27"/><path d="M30.8,162.53c0,6.56,4.96,15.19,18.35,15.19,4.67,0,8.74-1.19,12.31-3.38,5.36-3.77,6.74-10.32,6.74-16.57,0-3.86-.59-8.32-1.58-13.98-.29-1.98-.9-4.96-1.49-8.84,9.72-3.18,16.96-13.3,16.96-23.51,0-14.97-10.62-25.09-25.09-25.09-.99-5.95-1.98-11.81-2.77-17.36,10.42-11.02,17.65-23.42,17.65-39.18,0-9.04-2.77-16.37-4.37-19.95-2.37-5.05-5.25-8.53-7.04-8.53-.7,0-3.77,1.19-7.04,5.05-6.36,7.55-8.14,20.24-8.14,28.57,0,5.36,.5,10.23,2.19,21.34-.11,.09-5.27,5.35-7.35,7.04-9.04,8.34-21.53,20.43-21.53,40.28,0,18.54,16.17,33.12,34.63,33.12,2.87,0,5.55-.29,7.83-.7,1.89,9.53,3.08,16.48,3.08,21.73,0,10.32-5.36,15.78-15.38,15.78-2.39,0-4.46-.5-4.67-.5-.09-.11-.29-.2-.29-.29,0-.2,.2-.31,.5-.31,4.67-.79,9.32-4.76,9.32-11.1,0-5.36-4.06-11.02-11.5-11.02-6.94,0-11.31,5.66-11.31,12.2M51.54,30.09c.9-3.97,5.46-14.38,10.62-14.38,1.49,0,3.86,4.76,3.86,11.7,0,10.32-7.63,18.06-14.48,24.8-.59-3.97-1.08-7.83-1.08-12,0-3.67,.29-7.05,1.08-10.12m8.73,101.97c-1.98,.4-3.86,.6-5.75,.6-14.18,0-26.29-9.92-26.29-24.91,0-12.09,8.53-22.91,17.27-30.46,1.67-1.49,3.27-2.87,4.76-4.36,.88,5.35,1.58,10.01,2.28,14.09-9.04,2.68-15.17,12.2-15.17,21.53,0,6.94,5.46,16.46,13.39,16.46,.79,0,1.69-.4,1.69-1.29s-.99-1.39-2.19-2.19c-3.88-2.39-6.06-4.96-6.06-9.83,0-6.04,4.57-10.91,10.32-12.29l5.75,32.63m14.09-18.35c0,7.05-2.88,14.29-9.92,17.17-2.08-11.9-4.76-27.68-5.46-32.05,8.93,0,15.38,6.06,15.38,14.88"/><path d="M30.8,496.21c0,6.56,4.96,15.19,18.35,15.19,4.67,0,8.74-1.19,12.31-3.38,5.36-3.77,6.74-10.32,6.74-16.57,0-3.86-.59-8.32-1.58-13.98-.29-1.98-.9-4.96-1.49-8.84,9.72-3.18,16.96-13.3,16.96-23.51,0-14.97-10.62-25.09-25.09-25.09-.99-5.95-1.98-11.81-2.77-17.36,10.42-11.02,17.65-23.42,17.65-39.18,0-9.04-2.77-16.37-4.37-19.95-2.37-5.05-5.25-8.53-7.04-8.53-.7,0-3.77,1.19-7.04,5.05-6.36,7.55-8.14,20.24-8.14,28.57,0,5.36,.5,10.23,2.19,21.34-.11,.09-5.27,5.35-7.35,7.04-9.04,8.34-21.53,20.43-21.53,40.28,0,18.54,16.17,33.12,34.63,33.12,2.87,0,5.55-.29,7.83-.7,1.89,9.53,3.08,16.48,3.08,21.73,0,10.32-5.36,15.78-15.38,15.78-2.39,0-4.46-.5-4.67-.5-.09-.11-.29-.2-.29-.29,0-.2,.2-.31,.5-.31,4.67-.79,9.32-4.76,9.32-11.1,0-5.36-4.06-11.02-11.5-11.02-6.94,0-11.31,5.66-11.31,12.2m20.74-132.43c.9-3.97,5.46-14.38,10.62-14.38,1.49,0,3.86,4.76,3.86,11.7,0,10.32-7.63,18.06-14.48,24.8-.59-3.97-1.08-7.83-1.08-12,0-3.67,.29-7.05,1.08-10.12m8.73,101.97c-1.98,.4-3.86,.6-5.75,.6-14.18,0-26.29-9.92-26.29-24.91,0-12.09,8.53-22.91,17.27-30.46,1.67-1.49,3.27-2.87,4.76-4.36,.88,5.35,1.58,10.01,2.28,14.09-9.04,2.68-15.17,12.2-15.17,21.53,0,6.94,5.46,16.46,13.39,16.46,.79,0,1.69-.4,1.69-1.29s-.99-1.39-2.19-2.19c-3.88-2.39-6.06-4.96-6.06-9.83,0-6.04,4.57-10.91,10.32-12.29l5.75,32.63m14.09-18.35c0,7.05-2.88,14.29-9.92,17.17-2.08-11.9-4.76-27.68-5.46-32.05,8.93,0,15.38,6.06,15.38,14.88"/><path d="M118.78,405.14c-4.96,0-7.84,3.07-8.34,3.67l.4-31.85c0-.79-.59-1.38-1.39-1.38h-1.18c-.81,0-1.39,.59-1.39,1.38l.5,59.63c0,.79,.59,1.38,1.39,1.38,.19,0,.59-.09,.79-.19,8.53-4.28,17.45-12.4,17.45-22.63,0-5.15-2.37-10.01-8.23-10.01m-8.63,27.98l.29-19.34c.2-.9,1.69-3.77,5.66-3.77,3.58,0,3.87,3.36,3.87,5.46,0,8.82-3.27,12.49-9.83,17.65"/><path d="M146.36,367.94c-4.96,0-7.84,3.07-8.34,3.67l.4-31.85c0-.79-.59-1.38-1.39-1.38h-1.18c-.81,0-1.39,.59-1.39,1.38l.5,59.63c0,.79,.59,1.38,1.39,1.38,.19,0,.59-.09,.79-.19,8.53-4.28,17.45-12.4,17.45-22.63,0-5.15-2.37-10.01-8.23-10.01m-8.63,27.98l.29-19.34c.2-.9,1.69-3.77,5.66-3.77,3.58,0,3.87,3.36,3.87,5.46,0,8.82-3.27,12.49-9.83,17.65"/><path d="M173.93,417.54c-4.96,0-7.84,3.07-8.34,3.67l.4-31.85c0-.79-.59-1.38-1.39-1.38h-1.18c-.81,0-1.39,.59-1.39,1.38l.5,59.63c0,.79,.59,1.38,1.39,1.38,.19,0,.59-.09,.79-.19,8.53-4.28,17.45-12.4,17.45-22.63,0-5.15-2.37-10.01-8.23-10.01m-8.63,27.98l.29-19.34c.2-.9,1.69-3.77,5.66-3.77,3.58,0,3.87,3.36,3.87,5.46,0,8.82-3.27,12.49-9.83,17.65"/><path d="M201.49,380.34c-4.96,0-7.84,3.07-8.34,3.67l.4-31.85c0-.79-.59-1.38-1.39-1.38h-1.18c-.81,0-1.39,.59-1.39,1.38l.5,59.63c0,.79,.59,1.38,1.39,1.38,.19,0,.59-.09,.79-.19,8.53-4.28,17.45-12.4,17.45-22.63,0-5.15-2.37-10.01-8.23-10.01m-8.63,27.98l.29-19.34c.2-.9,1.69-3.77,5.66-3.77,3.58,0,3.87,3.36,3.87,5.46,0,8.82-3.27,12.49-9.83,17.65"/><path d="M118.78,71.46c-4.96,0-7.84,3.07-8.34,3.67l.4-31.85c0-.79-.59-1.38-1.39-1.38h-1.18c-.81,0-1.39,.59-1.39,1.38l.5,59.63c0,.79,.59,1.38,1.39,1.38,.19,0,.59-.09,.79-.19,8.53-4.28,17.45-12.4,17.45-22.63,0-5.15-2.37-10.01-8.23-10.01m-8.63,27.98l.29-19.34c.2-.9,1.69-3.77,5.66-3.77,3.58,0,3.87,3.36,3.87,5.46,0,8.82-3.27,12.49-9.83,17.65"/><path d="M146.36,34.26c-4.96,0-7.84,3.07-8.34,3.67l.4-31.85c0-.79-.59-1.38-1.39-1.38h-1.18c-.81,0-1.39,.59-1.39,1.38l.5,59.63c0,.79,.59,1.38,1.39,1.38,.19,0,.59-.09,.79-.19,8.53-4.28,17.45-12.4,17.45-22.63,0-5.15-2.37-10.01-8.23-10.01m-8.63,27.98l.29-19.34c.2-.9,1.69-3.77,5.66-3.77,3.58,0,3.87,3.36,3.87,5.46,0,8.82-3.27,12.49-9.83,17.65"/><path d="M173.93,83.86c-4.96,0-7.84,3.07-8.34,3.67l.4-31.85c0-.79-.59-1.38-1.39-1.38h-1.18c-.81,0-1.39,.59-1.39,1.38l.5,59.63c0,.79,.59,1.38,1.39,1.38,.19,0,.59-.09,.79-.19,8.53-4.28,17.45-12.4,17.45-22.63,0-5.15-2.37-10.01-8.23-10.01m-8.63,27.98l.29-19.34c.2-.9,1.69-3.77,5.66-3.77,3.58,0,3.87,3.36,3.87,5.46,0,8.82-3.27,12.49-9.83,17.65"/><path d="M201.49,46.66c-4.96,0-7.84,3.07-8.34,3.67l.4-31.85c0-.79-.59-1.38-1.39-1.38h-1.18c-.81,0-1.39,.59-1.39,1.38l.5,59.63c0,.79,.59,1.38,1.39,1.38,.19,0,.59-.09,.79-.19,8.53-4.28,17.45-12.4,17.45-22.63,0-5.15-2.37-10.01-8.23-10.01m-8.63,27.98l.29-19.34c.2-.9,1.69-3.77,5.66-3.77,3.58,0,3.87,3.36,3.87,5.46,0,8.82-3.27,12.49-9.83,17.65"/><path d="M2039.43,316.61c-9.32-10.12-17.56-10.71-22.71-10.71s-13.3,.59-22.63,10.71c-4.85,5.36-8.23,15.96-8.23,21.33,0,1.89,.4,3.18,1.39,3.18,2.77,0,1.38-8.54,9.72-16.97,7.33-7.33,17.16-7.44,19.55-7.44h.39c2.39,0,12.21,.11,19.55,7.44,8.34,8.43,6.94,16.97,9.72,16.97,.99,0,1.39-1.19,1.39-3.18,0-5.36-3.27-16.07-8.14-21.33m-29.56,18.94c0,3.78,3.07,6.85,6.85,6.85s6.84-3.07,6.84-6.85-3.07-6.84-6.84-6.84-6.85,3.07-6.85,6.84"/><path d="M1046.53,24.82l159.88,12.4v12.44l-159.88-12.4v-12.44" fill-rule="evenodd"/><path d="M810.41,37.22l159.89-12.4v12.44l-159.89,12.4v-12.44" fill-rule="evenodd"/><path d="M301.49,352.29l182.34-18.6v12.46l-182.34,18.6v-12.46" fill-rule="evenodd"/><path d="M877.77,370.91l182.34-12.4v12.42l-182.34,12.4v-12.42" fill-rule="evenodd"/><path d="M537.6,55.84l159.89,6.2v12.4l-159.89-6.2v-12.4" fill-rule="evenodd"/><path d="M1147.56,358.51l182.34,12.4v12.42l-182.34-12.4v-12.42" fill-rule="evenodd"/><path d="M571.28,333.69l182.34,18.6v12.46l-182.34-18.6v-12.46" fill-rule="evenodd"/><path d="M301.49,62.04l159.89-6.2v12.4l-159.89,6.2v-12.4" fill-rule="evenodd"/><path d="M1798.51,161.2l159.89-18.6v12.48l-159.89,18.6v-12.48" fill-rule="evenodd"/><path d="M1723.85,389.52l182.34,6.2v12.4l-182.34-6.2v-12.4" fill-rule="evenodd"/><path d="M2034.62,142.6l159.89,18.6v12.48l-159.89-18.6v-12.48" fill-rule="evenodd"/><path d="M1319.34,18.6L1479.23,0V12.48l-159.89,18.6v-12.48" fill-rule="evenodd"/><path d="M1454.06,395.72l182.34-6.2v12.4l-182.34,6.2v-12.4" fill-rule="evenodd"/><path d="M1555.45,0l159.89,18.6v12.48l-159.89-18.6V0" fill-rule="evenodd"/><path d="M2045.22,432.92c0,2.77,2.19,4.96,4.96,4.96s4.96-2.19,4.96-4.96-2.19-4.96-4.96-4.96-4.96,2.19-4.96,4.96"/></g></svg>