<?xml version="1.0" encoding="UTF-8"?><svg id="b" xmlns="http://www.w3.org/2000/svg" viewBox="0 0 2275.2 546.91"><g id="c"><line y1="43.44" x2="2275.2" y2="43.44" fill="none" stroke="#000" stroke-linejoin="bevel" stroke-width="2.73"/><line y1="68.24" x2="2275.2" y2="68.24" fill="none" stroke="#000" stroke-linejoin="bevel" stroke-width="2.73"/><line y1="93.04" x2="2275.2" y2="93.04" fill="none" stroke="#000" stroke-linejoin="bevel" stroke-width="2.73"/><line y1="117.84" x2="2275.2" y2="117.84" fill="none" stroke="#000" stroke-linejoin="bevel" stroke-width="2.73"/><line y1="142.64" x2="2275.2" y2="142.64" fill="none" stroke="#000" stroke-linejoin="bevel" stroke-width="2.73"/><line y1="377.12" x2="2275.2" y2="377.12" fill="none" stroke="#000" stroke-linejoin="bevel" stroke-width="2.73"/><line y1="401.92" x2="2275.2" y2="401.92" fill="none" stroke="#000" stroke-linejoin="bevel" stroke-width="2.73"/><line y1="426.72" x2="2275.2" y2="426.72" fill="none" stroke="#000" stroke-linejoin="bevel" stroke-width="2.73"/><line y1="451.52" x2="2275.2" y2="451.52" fill="none" stroke="#000" stroke-linejoin="bevel" stroke-width="2.73"/><line y1="476.32" x2="2275.2" y2="476.32" fill="none" stroke="#000" stroke-linejoin="bevel" stroke-width="2.73"/><path d="M232.71,486.24c29.29,12.36,75.58-2.14,92.58-29.02-14.62,34.45-60.91,48.96-92.58,29.02" fill-rule="evenodd" stroke="#000" stroke-linecap="round" stroke-linejoin="round" stroke-width="1.24"/><path d="M510.43,432.42c17.86,25.92,64.15,38.32,92.58,24.8-30.48,21.18-76.77,8.78-92.58-24.8" fill-rule="evenodd" stroke="#000" stroke-linecap="round" stroke-linejoin="round" stroke-width="1.24"/><path d="M824.86,511.04c28.42,13.51,74.71,1.11,92.57-24.8-15.81,33.58-62.09,45.98-92.57,24.8" fill-rule="evenodd" stroke="#000" stroke-linecap="round" stroke-linejoin="round" stroke-width="1.24"/><path d="M1694.73,486.24c17.87,25.91,64.15,38.31,92.58,24.8-30.48,21.18-76.77,8.78-92.58-24.8" fill-rule="evenodd" stroke="#000" stroke-linecap="round" stroke-linejoin="round" stroke-width="1.24"/><path d="M1102.58,457.22c17,26.88,63.28,41.38,92.58,29.02-31.67,19.94-77.96,5.43-92.58-29.02" fill-rule="evenodd" stroke="#000" stroke-linecap="round" stroke-linejoin="round" stroke-width="1.24"/><path d="M1417.01,535.84c28.42,13.51,74.71,1.11,92.57-24.8-15.8,33.58-62.09,45.98-92.57,24.8" fill-rule="evenodd" stroke="#000" stroke-linecap="round" stroke-linejoin="round" stroke-width="1.24"/><path d="M2043.85,21.12c25.59-21.91,66.09-13.6,81,16.62-16.5-22.45-57-30.76-81-16.62" fill-rule="evenodd" stroke="#000" stroke-linecap="round" stroke-linejoin="round" stroke-width="1.24"/><path d="M1800.84,62.54c12.38-31.91,52.88-44.31,81-24.8-25.79-11.92-66.3,.48-81,24.8" fill-rule="evenodd" stroke="#000" stroke-linecap="round" stroke-linejoin="round" stroke-width="1.24"/><path d="M1521.13,98.74c14.71,24.32,55.21,36.72,81,24.8-28.12,19.51-68.62,7.11-81-24.8" fill-rule="evenodd" stroke="#000" stroke-linecap="round" stroke-linejoin="round" stroke-width="1.24"/><path d="M1278.13,152.56c26.7,10.75,67.2-3.75,81-29.02-11.12,32.74-51.62,47.25-81,29.02" fill-rule="evenodd" stroke="#000" stroke-linecap="round" stroke-linejoin="round" stroke-width="1.24"/><path d="M998.42,123.54c13.8,25.27,54.3,39.77,81,29.02-29.38,18.23-69.88,3.72-81-29.02" fill-rule="evenodd" stroke="#000" stroke-linecap="round" stroke-linejoin="round" stroke-width="1.24"/><path d="M755.42,177.36c25.8,11.92,66.3-.48,81-24.8-12.38,31.91-52.88,44.31-81,24.8" fill-rule="evenodd" stroke="#000" stroke-linecap="round" stroke-linejoin="round" stroke-width="1.24"/><path d="M475.71,152.56c14.7,24.32,55.2,36.72,81,24.8-28.12,19.51-68.62,7.11-81-24.8" fill-rule="evenodd" stroke="#000" stroke-linecap="round" stroke-linejoin="round" stroke-width="1.24"/><path d="M232.71,202.16c25.8,11.92,66.3-.48,81-24.8-12.38,31.91-52.88,44.31-81,24.8" fill-rule="evenodd" stroke="#000" stroke-linecap="round" stroke-linejoin="round" stroke-width="1.24"/><line x1="1750.25" y1="42.08" x2="1750.25" y2="144" fill="none" stroke="#000" stroke-linejoin="bevel" stroke-width="4.46"/><line x1="2259.33" y1="375.76" x2="2259.33" y2="477.68" fill="none" stroke="#000" stroke-linejoin="bevel" stroke-width="4.46"/><line x1="2272.97" y1="375.76" x2="2272.97" y2="477.68" fill="none" stroke="#000" stroke-linejoin="bevel" stroke-width="4.46"/><line x1="1958.57" y1="375.76" x2="1958.57" y2="477.68" fill="none" stroke="#000" stroke-linejoin="bevel" stroke-width="4.46"/><line x1="1366.42" y1="375.76" x2="1366.42" y2="477.68" fill="none" stroke="#000" stroke-linejoin="bevel" stroke-width="4.46"/><line x1="774.27" y1="375.76" x2="774.27" y2="477.68" fill="none" stroke="#000" stroke-linejoin="bevel" stroke-width="4.46"/><line x1="2272.97" y1="42.08" x2="2272.97" y2="144" fill="none" stroke="#000" stroke-linejoin="bevel" stroke-width="4.46"/><line x1="1227.54" y1="42.08" x2="1227.54" y2="144" fill="none" stroke="#000" stroke-linejoin="bevel" stroke-width="4.46"/><line x1="704.83" y1="42.08" x2="704.83" y2="144" fill="none" stroke="#000" stroke-linejoin="bevel" stroke-width="4.46"/><line x1="1855.58" y1="501.12" x2="1904.18" y2="501.12" fill="none" stroke="#000" stroke-linejoin="bevel" stroke-width="3.97"/><line x1="1392.71" y1="501.12" x2="1441.31" y2="501.12" fill="none" stroke="#000" stroke-linejoin="bevel" stroke-width="3.97"/><line x1="208.41" y1="167.44" x2="257.01" y2="167.44" fill="none" stroke="#000" stroke-linejoin="bevel" stroke-width="3.97"/><line x1="613.41" y1="167.44" x2="662.01" y2="167.44" fill="none" stroke="#000" stroke-linejoin="bevel" stroke-width="3.97"/><line x1="247.58" y1="175.87" x2="247.58" y2="74.35" fill="none" stroke="#000" stroke-linejoin="bevel" stroke-width="2.48"/><line x1="328.58" y1="151.07" x2="328.58" y2="68.24" fill="none" stroke="#000" stroke-linejoin="bevel" stroke-width="2.48"/><line x1="409.58" y1="126.27" x2="409.58" y2="62.13" fill="none" stroke="#000" stroke-linejoin="bevel" stroke-width="2.48"/><line x1="490.59" y1="126.27" x2="490.59" y2="62.13" fill="none" stroke="#000" stroke-linejoin="bevel" stroke-width="2.48"/><line x1="571.59" y1="151.07" x2="571.59" y2="68.24" fill="none" stroke="#000" stroke-linejoin="bevel" stroke-width="2.48"/><line x1="652.59" y1="175.87" x2="652.59" y2="74.35" fill="none" stroke="#000" stroke-linejoin="bevel" stroke-width="2.48"/><line x1="770.29" y1="151.07" x2="770.29" y2="43.3" fill="none" stroke="#000" stroke-linejoin="bevel" stroke-width="2.48"/><line x1="851.29" y1="126.27" x2="851.29" y2="34.14" fill="none" stroke="#000" stroke-linejoin="bevel" stroke-width="2.48"/><line x1="932.3" y1="89.07" x2="932.3" y2="24.98" fill="none" stroke="#000" stroke-linejoin="bevel" stroke-width="2.48"/><line x1="1013.3" y1="89.07" x2="1013.3" y2="24.98" fill="none" stroke="#000" stroke-linejoin="bevel" stroke-width="2.48"/><line x1="1094.3" y1="126.27" x2="1094.3" y2="34.14" fill="none" stroke="#000" stroke-linejoin="bevel" stroke-width="2.48"/><line x1="1175.3" y1="151.07" x2="1175.3" y2="43.3" fill="none" stroke="#000" stroke-linejoin="bevel" stroke-width="2.48"/><line x1="1293.01" y1="126.27" x2="1293.01" y2="24.7" fill="none" stroke="#000" stroke-linejoin="bevel" stroke-width="2.48"/><line x1="1374.01" y1="89.07" x2="1374.01" y2="15.54" fill="none" stroke="#000" stroke-linejoin="bevel" stroke-width="2.48"/><line x1="1455.01" y1="64.27" x2="1455.01" y2="6.38" fill="none" stroke="#000" stroke-linejoin="bevel" stroke-width="2.48"/><line x1="1536.01" y1="64.27" x2="1536.01" y2="6.38" fill="none" stroke="#000" stroke-linejoin="bevel" stroke-width="2.48"/><line x1="1617.01" y1="89.07" x2="1617.01" y2="15.54" fill="none" stroke="#000" stroke-linejoin="bevel" stroke-width="2.48"/><line x1="1698.01" y1="126.27" x2="1698.01" y2="24.7" fill="none" stroke="#000" stroke-linejoin="bevel" stroke-width="2.48"/><line x1="1785.97" y1="97.21" x2="1785.97" y2="161.1" fill="none" stroke="#000" stroke-linejoin="bevel" stroke-width="2.48"/><line x1="1866.97" y1="72.41" x2="1866.97" y2="151.94" fill="none" stroke="#000" stroke-linejoin="bevel" stroke-width="2.48"/><line x1="1947.97" y1="47.61" x2="1947.97" y2="142.78" fill="none" stroke="#000" stroke-linejoin="bevel" stroke-width="2.48"/><line x1="2028.97" y1="47.61" x2="2028.97" y2="142.78" fill="none" stroke="#000" stroke-linejoin="bevel" stroke-width="2.48"/><line x1="2109.97" y1="72.41" x2="2109.97" y2="151.94" fill="none" stroke="#000" stroke-linejoin="bevel" stroke-width="2.48"/><line x1="2190.97" y1="97.21" x2="2190.97" y2="161.1" fill="none" stroke="#000" stroke-linejoin="bevel" stroke-width="2.48"/><line x1="247.58" y1="459.95" x2="247.58" y2="358.4" fill="none" stroke="#000" stroke-linejoin="bevel" stroke-width="2.48"/><line x1="340.16" y1="422.75" x2="340.16" y2="349.22" fill="none" stroke="#000" stroke-linejoin="bevel" stroke-width="2.48"/><line x1="432.73" y1="397.95" x2="432.73" y2="340.04" fill="none" stroke="#000" stroke-linejoin="bevel" stroke-width="2.48"/><line x1="525.31" y1="397.95" x2="525.31" y2="340.04" fill="none" stroke="#000" stroke-linejoin="bevel" stroke-width="2.48"/><line x1="617.88" y1="422.75" x2="617.88" y2="349.22" fill="none" stroke="#000" stroke-linejoin="bevel" stroke-width="2.48"/><line x1="710.46" y1="459.95" x2="710.46" y2="358.4" fill="none" stroke="#000" stroke-linejoin="bevel" stroke-width="2.48"/><line x1="932.31" y1="459.95" x2="932.31" y2="367.82" fill="none" stroke="#000" stroke-linejoin="bevel" stroke-width="2.48"/><line x1="1024.88" y1="422.75" x2="1024.88" y2="358.64" fill="none" stroke="#000" stroke-linejoin="bevel" stroke-width="2.48"/><line x1="1117.46" y1="422.75" x2="1117.46" y2="358.64" fill="none" stroke="#000" stroke-linejoin="bevel" stroke-width="2.48"/><line x1="1210.03" y1="459.95" x2="1210.03" y2="367.82" fill="none" stroke="#000" stroke-linejoin="bevel" stroke-width="2.48"/><line x1="1302.61" y1="484.75" x2="1302.61" y2="377" fill="none" stroke="#000" stroke-linejoin="bevel" stroke-width="2.48"/><line x1="1431.89" y1="509.55" x2="1431.89" y2="408.04" fill="none" stroke="#000" stroke-linejoin="bevel" stroke-width="2.48"/><line x1="1524.46" y1="484.75" x2="1524.46" y2="401.92" fill="none" stroke="#000" stroke-linejoin="bevel" stroke-width="2.48"/><line x1="1617.04" y1="459.95" x2="1617.04" y2="395.8" fill="none" stroke="#000" stroke-linejoin="bevel" stroke-width="2.48"/><line x1="1709.61" y1="459.95" x2="1709.61" y2="395.8" fill="none" stroke="#000" stroke-linejoin="bevel" stroke-width="2.48"/><line x1="1802.19" y1="484.75" x2="1802.19" y2="401.92" fill="none" stroke="#000" stroke-linejoin="bevel" stroke-width="2.48"/><line x1="1894.76" y1="509.55" x2="1894.76" y2="408.04" fill="none" stroke="#000" stroke-linejoin="bevel" stroke-width="2.48"/><line x1="1994.29" y1="430.89" x2="1994.29" y2="501.12" fill="none" stroke="#000" stroke-linejoin="bevel" stroke-width="2.48"/><line x1="839.73" y1="484.75" x2="839.73" y2="377" fill="none" stroke="#000" stroke-linejoin="bevel" stroke-width="2.48"/><path d="M1586.04,468.09c0,4.26,3.07,9.02,11.11,9.02,10.31,0,21.13-8.43,21.13-17.16,0-5.86-4.96-9.13-11.11-9.13-9.63,0-21.13,8.14-21.13,17.27"/><path d="M1678.62,468.09c0,4.26,3.07,9.02,11.11,9.02,10.31,0,21.13-8.43,21.13-17.16,0-5.86-4.96-9.13-11.11-9.13-9.63,0-21.13,8.14-21.13,17.27"/><path d="M1771.19,492.89c0,4.26,3.07,9.02,11.11,9.02,10.31,0,21.13-8.43,21.13-17.16,0-5.86-4.96-9.13-11.11-9.13-9.63,0-21.13,8.14-21.13,17.27"/><path d="M739.3,159.21c0,4.26,3.07,9.02,11.11,9.02,10.31,0,21.13-8.43,21.13-17.16,0-5.86-4.96-9.13-11.11-9.13-9.63,0-21.13,8.14-21.13,17.27"/><path d="M1343.01,97.21c0,4.26,3.07,9.02,11.11,9.02,10.31,0,21.13-8.43,21.13-17.16,0-5.86-4.96-9.13-11.11-9.13-9.63,0-21.13,8.14-21.13,17.27"/><path d="M820.3,134.41c0,4.26,3.07,9.02,11.11,9.02,10.31,0,21.13-8.43,21.13-17.16,0-5.86-4.96-9.13-11.11-9.13-9.63,0-21.13,8.14-21.13,17.27"/><path d="M901.3,97.21c0,4.26,3.07,9.02,11.11,9.02,10.31,0,21.13-8.43,21.13-17.16,0-5.86-4.96-9.13-11.11-9.13-9.63,0-21.13,8.14-21.13,17.27"/><path d="M1863.77,517.69c0,4.26,3.07,9.02,11.11,9.02,10.31,0,21.13-8.43,21.13-17.16,0-5.86-4.96-9.13-11.11-9.13-9.63,0-21.13,8.14-21.13,17.27"/><path d="M982.3,97.21c0,4.26,3.07,9.02,11.11,9.02,10.31,0,21.13-8.43,21.13-17.16,0-5.86-4.96-9.13-11.11-9.13-9.63,0-21.13,8.14-21.13,17.27"/><path d="M2014.18,413.62c-9.63,0-21.13,8.04-21.13,17.27,0,4.26,3.07,9.02,11.11,9.02,10.31,0,21.13-8.43,21.13-17.16,0-5.86-4.96-9.13-11.11-9.13m-13.69,21.62c-3.27,0-3.97-2.67-3.97-3.56,0-4.87,16.66-13.39,21.33-13.39,2.39,0,3.97,1.39,3.97,3.56,0,4.96-16.77,13.39-21.33,13.39"/><path d="M1063.31,134.41c0,4.26,3.07,9.02,11.11,9.02,10.31,0,21.13-8.43,21.13-17.16,0-5.86-4.96-9.13-11.11-9.13-9.63,0-21.13,8.14-21.13,17.27"/><path d="M1586.02,97.21c0,4.26,3.07,9.02,11.11,9.02,10.31,0,21.13-8.43,21.13-17.16,0-5.86-4.96-9.13-11.11-9.13-9.63,0-21.13,8.14-21.13,17.27"/><path d="M1424.02,72.41c0,4.26,3.07,9.02,11.11,9.02,10.31,0,21.13-8.43,21.13-17.16,0-5.86-4.96-9.13-11.11-9.13-9.63,0-21.13,8.14-21.13,17.27"/><path d="M1144.31,159.21c0,4.26,3.07,9.02,11.11,9.02,10.31,0,21.13-8.43,21.13-17.16,0-5.86-4.96-9.13-11.11-9.13-9.63,0-21.13,8.14-21.13,17.27"/><path d="M297.59,159.21c0,4.26,3.07,9.02,11.11,9.02,10.31,0,21.13-8.43,21.13-17.16,0-5.86-4.96-9.13-11.11-9.13-9.63,0-21.13,8.14-21.13,17.27"/><path d="M378.59,134.41c0,4.26,3.07,9.02,11.11,9.02,10.31,0,21.13-8.43,21.13-17.16,0-5.86-4.96-9.13-11.11-9.13-9.63,0-21.13,8.14-21.13,17.27"/><path d="M459.59,134.41c0,4.26,3.07,9.02,11.11,9.02,10.31,0,21.13-8.43,21.13-17.16,0-5.86-4.96-9.13-11.11-9.13-9.63,0-21.13,8.14-21.13,17.27"/><path d="M1262.01,134.41c0,4.26,3.07,9.02,11.11,9.02,10.31,0,21.13-8.43,21.13-17.16,0-5.86-4.96-9.13-11.11-9.13-9.63,0-21.13,8.14-21.13,17.27"/><path d="M1505.02,72.41c0,4.26,3.07,9.02,11.11,9.02,10.31,0,21.13-8.43,21.13-17.16,0-5.86-4.96-9.13-11.11-9.13-9.63,0-21.13,8.14-21.13,17.27"/><path d="M540.59,159.21c0,4.26,3.07,9.02,11.11,9.02,10.31,0,21.13-8.43,21.13-17.16,0-5.86-4.96-9.13-11.11-9.13-9.63,0-21.13,8.14-21.13,17.27"/><path d="M621.6,184.01c0,4.26,3.07,9.02,11.11,9.02,10.31,0,21.13-8.43,21.13-17.16,0-5.86-4.96-9.13-11.11-9.13-9.63,0-21.13,8.14-21.13,17.27"/><path d="M1667.02,134.41c0,4.26,3.07,9.02,11.11,9.02,10.31,0,21.13-8.43,21.13-17.16,0-5.86-4.96-9.13-11.11-9.13-9.63,0-21.13,8.14-21.13,17.27"/><path d="M1784.73,97.21c0,4.26,3.07,9.02,11.11,9.02,10.31,0,21.13-8.43,21.13-17.16,0-5.86-4.96-9.13-11.11-9.13-9.63,0-21.13,8.14-21.13,17.27"/><path d="M1865.73,72.41c0,4.26,3.07,9.02,11.11,9.02,10.31,0,21.13-8.43,21.13-17.16,0-5.86-4.96-9.13-11.11-9.13-9.63,0-21.13,8.14-21.13,17.27"/><path d="M1946.73,47.61c0,4.26,3.07,9.02,11.11,9.02,10.31,0,21.13-8.43,21.13-17.16,0-5.86-4.96-9.13-11.11-9.13-9.63,0-21.13,8.14-21.13,17.27"/><path d="M2027.73,47.61c0,4.26,3.07,9.02,11.11,9.02,10.31,0,21.13-8.43,21.13-17.16,0-5.86-4.96-9.13-11.11-9.13-9.63,0-21.13,8.14-21.13,17.27"/><path d="M2108.73,72.41c0,4.26,3.07,9.02,11.11,9.02,10.31,0,21.13-8.43,21.13-17.16,0-5.86-4.96-9.13-11.11-9.13-9.63,0-21.13,8.14-21.13,17.27"/><path d="M2189.73,97.21c0,4.26,3.07,9.02,11.11,9.02,10.31,0,21.13-8.43,21.13-17.16,0-5.86-4.96-9.13-11.11-9.13-9.63,0-21.13,8.14-21.13,17.27"/><path d="M216.59,468.09c0,4.26,3.07,9.02,11.11,9.02,10.31,0,21.13-8.43,21.13-17.16,0-5.86-4.96-9.13-11.11-9.13-9.63,0-21.13,8.14-21.13,17.27"/><path d="M309.16,430.89c0,4.26,3.07,9.02,11.11,9.02,10.31,0,21.13-8.43,21.13-17.16,0-5.86-4.96-9.13-11.11-9.13-9.63,0-21.13,8.14-21.13,17.27"/><path d="M401.74,406.09c0,4.26,3.07,9.02,11.11,9.02,10.31,0,21.13-8.43,21.13-17.16,0-5.86-4.96-9.13-11.11-9.13-9.63,0-21.13,8.14-21.13,17.27"/><path d="M494.31,406.09c0,4.26,3.07,9.02,11.11,9.02,10.31,0,21.13-8.43,21.13-17.16,0-5.86-4.96-9.13-11.11-9.13-9.63,0-21.13,8.14-21.13,17.27"/><path d="M586.89,430.89c0,4.26,3.07,9.02,11.11,9.02,10.31,0,21.13-8.43,21.13-17.16,0-5.86-4.96-9.13-11.11-9.13-9.63,0-21.13,8.14-21.13,17.27"/><path d="M679.46,468.09c0,4.26,3.07,9.02,11.11,9.02,10.31,0,21.13-8.43,21.13-17.16,0-5.86-4.96-9.13-11.11-9.13-9.63,0-21.13,8.14-21.13,17.27"/><path d="M808.74,492.89c0,4.26,3.07,9.02,11.11,9.02,10.31,0,21.13-8.43,21.13-17.16,0-5.86-4.96-9.13-11.11-9.13-9.63,0-21.13,8.14-21.13,17.27"/><path d="M901.32,468.09c0,4.26,3.07,9.02,11.11,9.02,10.31,0,21.13-8.43,21.13-17.16,0-5.86-4.96-9.13-11.11-9.13-9.63,0-21.13,8.14-21.13,17.27"/><path d="M993.89,430.89c0,4.26,3.07,9.02,11.11,9.02,10.31,0,21.13-8.43,21.13-17.16,0-5.86-4.96-9.13-11.11-9.13-9.63,0-21.13,8.14-21.13,17.27"/><path d="M1086.47,430.89c0,4.26,3.07,9.02,11.11,9.02,10.31,0,21.13-8.43,21.13-17.16,0-5.86-4.96-9.13-11.11-9.13-9.63,0-21.13,8.14-21.13,17.27"/><path d="M1179.04,468.09c0,4.26,3.07,9.02,11.11,9.02,10.31,0,21.13-8.43,21.13-17.16,0-5.86-4.96-9.13-11.11-9.13-9.63,0-21.13,8.14-21.13,17.27"/><path d="M1271.61,492.89c0,4.26,3.07,9.02,11.11,9.02,10.31,0,21.13-8.43,21.13-17.16,0-5.86-4.96-9.13-11.11-9.13-9.63,0-21.13,8.14-21.13,17.27"/><path d="M1400.89,517.69c0,4.26,3.07,9.02,11.11,9.02,10.31,0,21.13-8.43,21.13-17.16,0-5.86-4.96-9.13-11.11-9.13-9.63,0-21.13,8.14-21.13,17.27"/><path d="M1493.47,492.89c0,4.26,3.07,9.02,11.11,9.02,10.31,0,21.13-8.43,21.13-17.16,0-5.86-4.96-9.13-11.11-9.13-9.63,0-21.13,8.14-21.13,17.27"/><path d="M216.59,184.01c0,4.26,3.07,9.02,11.11,9.02,10.31,0,21.13-8.43,21.13-17.16,0-5.86-4.96-9.13-11.11-9.13-9.63,0-21.13,8.14-21.13,17.27"/><path d="M30.8,168.73c0,6.56,4.96,15.19,18.35,15.19,4.67,0,8.74-1.19,12.31-3.38,5.36-3.77,6.74-10.32,6.74-16.57,0-3.86-.59-8.32-1.58-13.98-.29-1.98-.9-4.96-1.49-8.84,9.72-3.18,16.96-13.3,16.96-23.51,0-14.97-10.62-25.09-25.09-25.09-.99-5.95-1.98-11.81-2.77-17.36,10.42-11.02,17.65-23.42,17.65-39.18,0-9.04-2.77-16.37-4.37-19.95-2.37-5.05-5.25-8.53-7.04-8.53-.7,0-3.77,1.19-7.04,5.05-6.36,7.55-8.14,20.24-8.14,28.57,0,5.36,.5,10.23,2.19,21.34-.11,.09-5.27,5.35-7.35,7.04-9.04,8.34-21.53,20.43-21.53,40.28,0,18.54,16.17,33.12,34.63,33.12,2.87,0,5.55-.29,7.83-.7,1.89,9.53,3.08,16.48,3.08,21.73,0,10.32-5.36,15.78-15.38,15.78-2.39,0-4.46-.5-4.67-.5-.09-.11-.29-.2-.29-.29,0-.2,.2-.31,.5-.31,4.67-.79,9.32-4.76,9.32-11.1,0-5.36-4.06-11.02-11.5-11.02-6.94,0-11.31,5.66-11.31,12.2M51.54,36.29c.9-3.97,5.46-14.38,10.62-14.38,1.49,0,3.86,4.76,3.86,11.7,0,10.32-7.63,18.06-14.48,24.8-.59-3.97-1.08-7.83-1.08-12,0-3.67,.29-7.05,1.08-10.12m8.73,101.97c-1.98,.4-3.86,.6-5.75,.6-14.18,0-26.29-9.92-26.29-24.91,0-12.09,8.53-22.91,17.27-30.46,1.67-1.49,3.27-2.87,4.76-4.36,.88,5.35,1.58,10.01,2.28,14.09-9.04,2.68-15.17,12.2-15.17,21.53,0,6.94,5.46,16.46,13.39,16.46,.79,0,1.69-.4,1.69-1.29s-.99-1.39-2.19-2.19c-3.88-2.39-6.06-4.96-6.06-9.83,0-6.04,4.57-10.91,10.32-12.29l5.75,32.63m14.09-18.35c0,7.05-2.88,14.29-9.92,17.17-2.08-11.9-4.76-27.68-5.46-32.05,8.93,0,15.38,6.06,15.38,14.88"/><path d="M30.8,502.41c0,6.56,4.96,15.19,18.35,15.19,4.67,0,8.74-1.19,12.31-3.38,5.36-3.77,6.74-10.32,6.74-16.57,0-3.86-.59-8.32-1.58-13.98-.29-1.98-.9-4.96-1.49-8.84,9.72-3.18,16.96-13.3,16.96-23.51,0-14.97-10.62-25.09-25.09-25.09-.99-5.95-1.98-11.81-2.77-17.36,10.42-11.02,17.65-23.42,17.65-39.18,0-9.04-2.77-16.37-4.37-19.95-2.37-5.05-5.25-8.53-7.04-8.53-.7,0-3.77,1.19-7.04,5.05-6.36,7.55-8.14,20.24-8.14,28.57,0,5.36,.5,10.23,2.19,21.34-.11,.09-5.27,5.35-7.35,7.04-9.04,8.34-21.53,20.43-21.53,40.28,0,18.54,16.17,33.12,34.63,33.12,2.87,0,5.55-.29,7.83-.7,1.89,9.53,3.08,16.48,3.08,21.73,0,10.32-5.36,15.78-15.38,15.78-2.39,0-4.46-.5-4.67-.5-.09-.11-.29-.2-.29-.29,0-.2,.2-.31,.5-.31,4.67-.79,9.32-4.76,9.32-11.1,0-5.36-4.06-11.02-11.5-11.02-6.94,0-11.31,5.66-11.31,12.2m20.74-132.43c.9-3.97,5.46-14.38,10.62-14.38,1.49,0,3.86,4.76,3.86,11.7,0,10.32-7.63,18.06-14.48,24.8-.59-3.97-1.08-7.83-1.08-12,0-3.67,.29-7.05,1.08-10.12m8.73,101.97c-1.98,.4-3.86,.6-5.75,.6-14.18,0-26.29-9.92-26.29-24.91,0-12.09,8.53-22.91,17.27-30.46,1.67-1.49,3.27-2.87,4.76-4.36,.88,5.35,1.58,10.01,2.28,14.09-9.04,2.68-15.17,12.2-15.17,21.53,0,6.94,5.46,16.46,13.39,16.46,.79,0,1.69-.4,1.69-1.29s-.99-1.39-2.19-2.19c-3.88-2.39-6.06-4.96-6.06-9.83,0-6.04,4.57-10.91,10.32-12.29l5.75,32.63m14.09-18.35c0,7.05-2.88,14.29-9.92,17.17-2.08-11.9-4.76-27.68-5.46-32.05,8.93,0,15.38,6.06,15.38,14.88"/><path d="M118.78,77.66c-4.96,0-7.84,3.07-8.34,3.67l.4-31.85c0-.79-.59-1.38-1.39-1.38h-1.18c-.81,0-1.39,.59-1.39,1.38l.5,59.63c0,.79,.59,1.38,1.39,1.38,.19,0,.59-.09,.79-.19,8.53-4.28,17.45-12.4,17.45-22.63,0-5.15-2.37-10.01-8.23-10.01m-8.63,27.98l.29-19.34c.2-.9,1.69-3.77,5.66-3.77,3.58,0,3.87,3.36,3.87,5.46,0,8.82-3.27,12.49-9.83,17.65"/><path d="M146.36,40.46c-4.96,0-7.84,3.07-8.34,3.67l.4-31.85c0-.79-.59-1.38-1.39-1.38h-1.18c-.81,0-1.39,.59-1.39,1.38l.5,59.63c0,.79,.59,1.38,1.39,1.38,.19,0,.59-.09,.79-.19,8.53-4.28,17.45-12.4,17.45-22.63,0-5.15-2.37-10.01-8.23-10.01m-8.63,27.98l.29-19.34c.2-.9,1.69-3.77,5.66-3.77,3.58,0,3.87,3.36,3.87,5.46,0,8.82-3.27,12.49-9.83,17.65"/><path d="M118.78,411.34c-4.96,0-7.84,3.07-8.34,3.67l.4-31.85c0-.79-.59-1.38-1.39-1.38h-1.18c-.81,0-1.39,.59-1.39,1.38l.5,59.63c0,.79,.59,1.38,1.39,1.38,.19,0,.59-.09,.79-.19,8.53-4.28,17.45-12.4,17.45-22.63,0-5.15-2.37-10.01-8.23-10.01m-8.63,27.98l.29-19.34c.2-.9,1.69-3.77,5.66-3.77,3.58,0,3.87,3.36,3.87,5.46,0,8.82-3.27,12.49-9.83,17.65"/><path d="M146.36,374.14c-4.96,0-7.84,3.07-8.34,3.67l.4-31.85c0-.79-.59-1.38-1.39-1.38h-1.18c-.81,0-1.39,.59-1.39,1.38l.5,59.63c0,.79,.59,1.38,1.39,1.38,.19,0,.59-.09,.79-.19,8.53-4.28,17.45-12.4,17.45-22.63,0-5.15-2.37-10.01-8.23-10.01m-8.63,27.98l.29-19.34c.2-.9,1.69-3.77,5.66-3.77,3.58,0,3.87,3.36,3.87,5.46,0,8.82-3.27,12.49-9.83,17.65"/><path d="M2031.89,338.93c-9.32-10.12-17.56-10.71-22.71-10.71s-13.3,.59-22.63,10.71c-4.85,5.36-8.23,15.96-8.23,21.33,0,1.89,.4,3.18,1.39,3.18,2.77,0,1.38-8.54,9.72-16.97,7.33-7.33,17.16-7.44,19.55-7.44h.39c2.39,0,12.21,.11,19.55,7.44,8.34,8.43,6.94,16.97,9.72,16.97,.99,0,1.39-1.19,1.39-3.18,0-5.36-3.27-16.07-8.14-21.33m-29.56,18.94c0,3.78,3.07,6.85,6.85,6.85s6.84-3.07,6.84-6.85-3.07-6.84-6.84-6.84-6.85,3.07-6.85,6.84"/><path d="M246.34,68.22l164.48-12.4v12.44l-164.48,12.4v-12.44" fill-rule="evenodd"/><path d="M489.35,55.82l164.48,12.4v12.44l-164.48-12.4v-12.44" fill-rule="evenodd"/><path d="M1430.65,401.91l187.63-12.4v12.42l-187.63,12.4v-12.42" fill-rule="evenodd"/><path d="M769.06,37.2l164.49-18.6v12.48l-164.49,18.6v-12.48" fill-rule="evenodd"/><path d="M1012.06,18.6l164.48,18.6v12.48l-164.48-18.6v-12.48" fill-rule="evenodd"/><path d="M246.34,352.29l187.63-18.6v12.46l-187.63,18.6v-12.46" fill-rule="evenodd"/><path d="M1708.37,389.51l187.63,12.4v12.42l-187.63-12.4v-12.42" fill-rule="evenodd"/><path d="M1291.77,18.6L1456.25,0V12.48l-164.48,18.6v-12.48" fill-rule="evenodd"/><path d="M1534.77,0l164.48,18.6v12.48l-164.48-18.6V0" fill-rule="evenodd"/><path d="M524.07,333.69l187.63,18.6v12.46l-187.63-18.6v-12.46" fill-rule="evenodd"/><path d="M1784.73,155l164.48-18.6v12.48l-164.48,18.6v-12.48" fill-rule="evenodd"/><path d="M838.49,370.89l187.63-18.6v12.46l-187.63,18.6v-12.46" fill-rule="evenodd"/><path d="M2027.73,136.4l164.48,18.6v12.48l-164.48-18.6v-12.48" fill-rule="evenodd"/><path d="M1116.22,352.29l187.63,18.6v12.46l-187.63-18.6v-12.46" fill-rule="evenodd"/><path d="M2037.68,414.32c0,2.77,2.19,4.96,4.96,4.96s4.96-2.19,4.96-4.96-2.19-4.96-4.96-4.96-4.96,2.19-4.96,4.96"/></g></svg>