<?xml version="1.0" encoding="UTF-8"?><svg id="b" xmlns="http://www.w3.org/2000/svg" viewBox="0 0 2275.2 545.88"><g id="c"><line y1="44.97" x2="2275.2" y2="44.97" fill="none" stroke="#000" stroke-linejoin="bevel" stroke-width="2.73"/><line y1="69.77" x2="2275.2" y2="69.77" fill="none" stroke="#000" stroke-linejoin="bevel" stroke-width="2.73"/><line y1="94.57" x2="2275.2" y2="94.57" fill="none" stroke="#000" stroke-linejoin="bevel" stroke-width="2.73"/><line y1="119.37" x2="2275.2" y2="119.37" fill="none" stroke="#000" stroke-linejoin="bevel" stroke-width="2.73"/><line y1="144.17" x2="2275.2" y2="144.17" fill="none" stroke="#000" stroke-linejoin="bevel" stroke-width="2.73"/><line y1="388.17" x2="2275.2" y2="388.17" fill="none" stroke="#000" stroke-linejoin="bevel" stroke-width="2.73"/><line y1="412.97" x2="2275.2" y2="412.97" fill="none" stroke="#000" stroke-linejoin="bevel" stroke-width="2.73"/><line y1="437.77" x2="2275.2" y2="437.77" fill="none" stroke="#000" stroke-linejoin="bevel" stroke-width="2.73"/><line y1="462.57" x2="2275.2" y2="462.57" fill="none" stroke="#000" stroke-linejoin="bevel" stroke-width="2.73"/><line y1="487.37" x2="2275.2" y2="487.37" fill="none" stroke="#000" stroke-linejoin="bevel" stroke-width="2.73"/><path d="M2034.78,10.25c28.73-19.96,70.74-7.56,84.03,24.8-15.54-24.75-57.55-37.15-84.03-24.8" fill-rule="evenodd" stroke="#000" stroke-linecap="round" stroke-linejoin="round" stroke-width="1.24"/><path d="M1782.71,59.85c13.29-32.36,55.3-44.76,84.03-24.8-26.48-12.35-68.49,.05-84.03,24.8" fill-rule="evenodd" stroke="#000" stroke-linecap="round" stroke-linejoin="round" stroke-width="1.24"/><path d="M1493.94,35.05c28.73-19.96,70.74-7.56,84.03,24.8-15.54-24.75-57.55-37.15-84.03-24.8" fill-rule="evenodd" stroke="#000" stroke-linecap="round" stroke-linejoin="round" stroke-width="1.24"/><path d="M1241.87,88.86c12.05-33.19,54.06-47.7,84.03-29.01-27.38-11.19-69.39,3.32-84.03,29.01" fill-rule="evenodd" stroke="#000" stroke-linecap="round" stroke-linejoin="round" stroke-width="1.24"/><path d="M953.1,104.49c11.33,29.26,53.34,51.95,84.03,45.38-34.46,13.56-76.47-9.13-84.03-45.38" fill-rule="evenodd" stroke="#000" stroke-linecap="round" stroke-linejoin="round" stroke-width="1.24"/><path d="M701.04,166.49c24.71,14.56,66.72,6.25,84.02-16.62-15.76,30.66-57.78,38.96-84.02,16.62" fill-rule="evenodd" stroke="#000" stroke-linecap="round" stroke-linejoin="round" stroke-width="1.24"/><path d="M412.26,149.87c17.31,22.87,59.32,31.18,84.02,16.62-26.25,22.34-68.26,14.04-84.02-16.62" fill-rule="evenodd" stroke="#000" stroke-linecap="round" stroke-linejoin="round" stroke-width="1.24"/><path d="M1386.23,534.49c29.22,13.97,77.25,1.57,96.05-24.8-16.82,34.05-64.85,46.45-96.05,24.8" fill-rule="evenodd" stroke="#000" stroke-linecap="round" stroke-linejoin="round" stroke-width="1.24"/><path d="M160.2,191.29c26.48,12.35,68.49-.05,84.02-24.8-13.28,32.36-55.3,44.76-84.02,24.8" fill-rule="evenodd" stroke="#000" stroke-linecap="round" stroke-linejoin="round" stroke-width="1.24"/><path d="M1674.38,493.07c20.5,24.47,68.53,32.78,96.06,16.62-28.88,23.98-76.91,15.67-96.06-16.62" fill-rule="evenodd" stroke="#000" stroke-linecap="round" stroke-linejoin="round" stroke-width="1.24"/><path d="M160.2,432.07c15.65-34.93,63.68-49.44,96.05-29.02-30.08-12.82-78.1,1.68-96.05,29.02" fill-rule="evenodd" stroke="#000" stroke-linecap="round" stroke-linejoin="round" stroke-width="1.24"/><path d="M448.35,378.25c31.21-21.66,79.23-9.26,96.05,24.8-18.8-26.37-66.83-38.77-96.05-24.8" fill-rule="evenodd" stroke="#000" stroke-linecap="round" stroke-linejoin="round" stroke-width="1.24"/><path d="M773.21,509.69c27.53,16.16,75.55,7.85,96.05-16.62-19.14,32.29-67.17,40.6-96.05,16.62" fill-rule="evenodd" stroke="#000" stroke-linecap="round" stroke-linejoin="round" stroke-width="1.24"/><path d="M1061.37,447.69c14.74,30.96,62.77,53.65,96.05,45.38-36.67,15.45-84.7-7.24-96.05-45.38" fill-rule="evenodd" stroke="#000" stroke-linecap="round" stroke-linejoin="round" stroke-width="1.24"/><line x1="650.45" y1="43.61" x2="650.45" y2="145.53" fill="none" stroke="#000" stroke-linejoin="bevel" stroke-width="4.46"/><line x1="1948.66" y1="386.81" x2="1948.66" y2="488.73" fill="none" stroke="#000" stroke-linejoin="bevel" stroke-width="4.46"/><line x1="1191.29" y1="43.61" x2="1191.29" y2="145.53" fill="none" stroke="#000" stroke-linejoin="bevel" stroke-width="4.46"/><line x1="2259.33" y1="386.81" x2="2259.33" y2="488.73" fill="none" stroke="#000" stroke-linejoin="bevel" stroke-width="4.46"/><line x1="2272.97" y1="386.81" x2="2272.97" y2="488.73" fill="none" stroke="#000" stroke-linejoin="bevel" stroke-width="4.46"/><line x1="1732.13" y1="43.61" x2="1732.13" y2="145.53" fill="none" stroke="#000" stroke-linejoin="bevel" stroke-width="4.46"/><line x1="2272.97" y1="43.61" x2="2272.97" y2="145.53" fill="none" stroke="#000" stroke-linejoin="bevel" stroke-width="4.46"/><line x1="1335.64" y1="386.81" x2="1335.64" y2="488.73" fill="none" stroke="#000" stroke-linejoin="bevel" stroke-width="4.46"/><line x1="722.63" y1="386.81" x2="722.63" y2="488.73" fill="none" stroke="#000" stroke-linejoin="bevel" stroke-width="4.46"/><line x1="556.01" y1="168.97" x2="604.61" y2="168.97" fill="none" stroke="#000" stroke-linejoin="bevel" stroke-width="3.97"/><line x1="1361.93" y1="512.17" x2="1410.53" y2="512.17" fill="none" stroke="#000" stroke-linejoin="bevel" stroke-width="3.97"/><line x1="135.9" y1="168.97" x2="184.5" y2="168.97" fill="none" stroke="#000" stroke-linejoin="bevel" stroke-width="3.97"/><line x1="1842.19" y1="512.17" x2="1890.79" y2="512.17" fill="none" stroke="#000" stroke-linejoin="bevel" stroke-width="3.97"/><line x1="175.07" y1="165" x2="175.07" y2="51.13" fill="none" stroke="#000" stroke-linejoin="bevel" stroke-width="2.48"/><line x1="259.1" y1="140.2" x2="259.1" y2="48.07" fill="none" stroke="#000" stroke-linejoin="bevel" stroke-width="2.48"/><line x1="343.12" y1="115.4" x2="343.12" y2="45.02" fill="none" stroke="#000" stroke-linejoin="bevel" stroke-width="2.48"/><line x1="427.14" y1="115.4" x2="427.14" y2="45.02" fill="none" stroke="#000" stroke-linejoin="bevel" stroke-width="2.48"/><line x1="511.16" y1="140.2" x2="511.16" y2="48.07" fill="none" stroke="#000" stroke-linejoin="bevel" stroke-width="2.48"/><line x1="595.19" y1="165" x2="595.19" y2="51.13" fill="none" stroke="#000" stroke-linejoin="bevel" stroke-width="2.48"/><line x1="715.91" y1="140.2" x2="715.91" y2="32.44" fill="none" stroke="#000" stroke-linejoin="bevel" stroke-width="2.48"/><line x1="799.93" y1="115.4" x2="799.93" y2="23.27" fill="none" stroke="#000" stroke-linejoin="bevel" stroke-width="2.48"/><line x1="883.96" y1="78.2" x2="883.96" y2="14.11" fill="none" stroke="#000" stroke-linejoin="bevel" stroke-width="2.48"/><line x1="967.98" y1="78.2" x2="967.98" y2="14.11" fill="none" stroke="#000" stroke-linejoin="bevel" stroke-width="2.48"/><line x1="1052" y1="115.4" x2="1052" y2="23.27" fill="none" stroke="#000" stroke-linejoin="bevel" stroke-width="2.48"/><line x1="1136.02" y1="140.2" x2="1136.02" y2="32.44" fill="none" stroke="#000" stroke-linejoin="bevel" stroke-width="2.48"/><line x1="1227" y1="123.54" x2="1227" y2="181.23" fill="none" stroke="#000" stroke-linejoin="bevel" stroke-width="2.48"/><line x1="1311.02" y1="86.34" x2="1311.02" y2="172.07" fill="none" stroke="#000" stroke-linejoin="bevel" stroke-width="2.48"/><line x1="1395.04" y1="61.54" x2="1395.04" y2="162.9" fill="none" stroke="#000" stroke-linejoin="bevel" stroke-width="2.48"/><line x1="1479.07" y1="61.54" x2="1479.07" y2="162.9" fill="none" stroke="#000" stroke-linejoin="bevel" stroke-width="2.48"/><line x1="1076.24" y1="421.4" x2="1076.24" y2="357.29" fill="none" stroke="#000" stroke-linejoin="bevel" stroke-width="2.48"/><line x1="1563.09" y1="86.34" x2="1563.09" y2="172.07" fill="none" stroke="#000" stroke-linejoin="bevel" stroke-width="2.48"/><line x1="1647.11" y1="123.54" x2="1647.11" y2="181.23" fill="none" stroke="#000" stroke-linejoin="bevel" stroke-width="2.48"/><line x1="1767.84" y1="86.34" x2="1767.84" y2="150.28" fill="none" stroke="#000" stroke-linejoin="bevel" stroke-width="2.48"/><line x1="1851.86" y1="61.54" x2="1851.86" y2="144.17" fill="none" stroke="#000" stroke-linejoin="bevel" stroke-width="2.48"/><line x1="1935.88" y1="36.74" x2="1935.88" y2="138.06" fill="none" stroke="#000" stroke-linejoin="bevel" stroke-width="2.48"/><line x1="2019.91" y1="36.74" x2="2019.91" y2="138.06" fill="none" stroke="#000" stroke-linejoin="bevel" stroke-width="2.48"/><line x1="2103.93" y1="61.54" x2="2103.93" y2="144.17" fill="none" stroke="#000" stroke-linejoin="bevel" stroke-width="2.48"/><line x1="2187.95" y1="86.34" x2="2187.95" y2="150.28" fill="none" stroke="#000" stroke-linejoin="bevel" stroke-width="2.48"/><line x1="145.32" y1="466.74" x2="145.32" y2="524.41" fill="none" stroke="#000" stroke-linejoin="bevel" stroke-width="2.48"/><line x1="241.37" y1="429.54" x2="241.37" y2="512.17" fill="none" stroke="#000" stroke-linejoin="bevel" stroke-width="2.48"/><line x1="337.43" y1="404.74" x2="337.43" y2="499.93" fill="none" stroke="#000" stroke-linejoin="bevel" stroke-width="2.48"/><line x1="433.48" y1="404.74" x2="433.48" y2="499.93" fill="none" stroke="#000" stroke-linejoin="bevel" stroke-width="2.48"/><line x1="529.53" y1="429.54" x2="529.53" y2="512.17" fill="none" stroke="#000" stroke-linejoin="bevel" stroke-width="2.48"/><line x1="625.58" y1="466.74" x2="625.58" y2="524.41" fill="none" stroke="#000" stroke-linejoin="bevel" stroke-width="2.48"/><line x1="788.09" y1="483.4" x2="788.09" y2="375.65" fill="none" stroke="#000" stroke-linejoin="bevel" stroke-width="2.48"/><line x1="884.14" y1="458.6" x2="884.14" y2="366.47" fill="none" stroke="#000" stroke-linejoin="bevel" stroke-width="2.48"/><line x1="980.19" y1="421.4" x2="980.19" y2="357.29" fill="none" stroke="#000" stroke-linejoin="bevel" stroke-width="2.48"/><line x1="1172.3" y1="458.6" x2="1172.3" y2="366.47" fill="none" stroke="#000" stroke-linejoin="bevel" stroke-width="2.48"/><line x1="1268.35" y1="483.4" x2="1268.35" y2="375.65" fill="none" stroke="#000" stroke-linejoin="bevel" stroke-width="2.48"/><line x1="1401.1" y1="508.2" x2="1401.1" y2="412.81" fill="none" stroke="#000" stroke-linejoin="bevel" stroke-width="2.48"/><line x1="1497.16" y1="483.4" x2="1497.16" y2="400.57" fill="none" stroke="#000" stroke-linejoin="bevel" stroke-width="2.48"/><line x1="1593.21" y1="458.6" x2="1593.21" y2="388.33" fill="none" stroke="#000" stroke-linejoin="bevel" stroke-width="2.48"/><line x1="1689.26" y1="458.6" x2="1689.26" y2="388.33" fill="none" stroke="#000" stroke-linejoin="bevel" stroke-width="2.48"/><line x1="1785.31" y1="483.4" x2="1785.31" y2="400.57" fill="none" stroke="#000" stroke-linejoin="bevel" stroke-width="2.48"/><line x1="1881.36" y1="508.2" x2="1881.36" y2="412.81" fill="none" stroke="#000" stroke-linejoin="bevel" stroke-width="2.48"/><line x1="1984.37" y1="429.54" x2="1984.37" y2="505.97" fill="none" stroke="#000" stroke-linejoin="bevel" stroke-width="2.48"/><path d="M1393.8,61.54c0,4.26,3.07,9.02,11.11,9.02,10.31,0,21.13-8.43,21.13-17.16,0-5.86-4.96-9.13-11.11-9.13-9.63,0-21.13,8.14-21.13,17.27"/><path d="M144.08,173.14c0,4.26,3.07,9.02,11.11,9.02,10.31,0,21.13-8.43,21.13-17.16,0-5.86-4.96-9.13-11.11-9.13-9.63,0-21.13,8.14-21.13,17.27"/><path d="M228.1,148.34c0,4.26,3.07,9.02,11.11,9.02,10.31,0,21.13-8.43,21.13-17.16,0-5.86-4.96-9.13-11.11-9.13-9.63,0-21.13,8.14-21.13,17.27"/><path d="M312.13,123.54c0,4.26,3.07,9.02,11.11,9.02,10.31,0,21.13-8.43,21.13-17.16,0-5.86-4.96-9.13-11.11-9.13-9.63,0-21.13,8.14-21.13,17.27"/><path d="M396.15,123.54c0,4.26,3.07,9.02,11.11,9.02,10.31,0,21.13-8.43,21.13-17.16,0-5.86-4.96-9.13-11.11-9.13-9.63,0-21.13,8.14-21.13,17.27"/><path d="M480.17,148.34c0,4.26,3.07,9.02,11.11,9.02,10.31,0,21.13-8.43,21.13-17.16,0-5.86-4.96-9.13-11.11-9.13-9.63,0-21.13,8.14-21.13,17.27"/><path d="M564.19,173.14c0,4.26,3.07,9.02,11.11,9.02,10.31,0,21.13-8.43,21.13-17.16,0-5.86-4.96-9.13-11.11-9.13-9.63,0-21.13,8.14-21.13,17.27"/><path d="M684.92,148.34c0,4.26,3.07,9.02,11.11,9.02,10.31,0,21.13-8.43,21.13-17.16,0-5.86-4.96-9.13-11.11-9.13-9.63,0-21.13,8.14-21.13,17.27"/><path d="M768.94,123.54c0,4.26,3.07,9.02,11.11,9.02,10.31,0,21.13-8.43,21.13-17.16,0-5.86-4.96-9.13-11.11-9.13-9.63,0-21.13,8.14-21.13,17.27"/><path d="M852.96,86.34c0,4.26,3.07,9.02,11.11,9.02,10.31,0,21.13-8.43,21.13-17.16,0-5.86-4.96-9.13-11.11-9.13-9.63,0-21.13,8.14-21.13,17.27"/><path d="M936.99,86.34c0,4.26,3.07,9.02,11.11,9.02,10.31,0,21.13-8.43,21.13-17.16,0-5.86-4.96-9.13-11.11-9.13-9.63,0-21.13,8.14-21.13,17.27"/><path d="M1850.37,516.34c0,4.26,3.07,9.02,11.11,9.02,10.31,0,21.13-8.43,21.13-17.16,0-5.86-4.96-9.13-11.11-9.13-9.63,0-21.13,8.14-21.13,17.27"/><path d="M1021.01,123.54c0,4.26,3.07,9.02,11.11,9.02,10.31,0,21.13-8.43,21.13-17.16,0-5.86-4.96-9.13-11.11-9.13-9.63,0-21.13,8.14-21.13,17.27"/><path d="M1105.03,148.34c0,4.26,3.07,9.02,11.11,9.02,10.31,0,21.13-8.43,21.13-17.16,0-5.86-4.96-9.13-11.11-9.13-9.63,0-21.13,8.14-21.13,17.27"/><path d="M1225.76,123.54c0,4.26,3.07,9.02,11.11,9.02,10.31,0,21.13-8.43,21.13-17.16,0-5.86-4.96-9.13-11.11-9.13-9.63,0-21.13,8.14-21.13,17.27"/><path d="M1309.78,86.34c0,4.26,3.07,9.02,11.11,9.02,10.31,0,21.13-8.43,21.13-17.16,0-5.86-4.96-9.13-11.11-9.13-9.63,0-21.13,8.14-21.13,17.27"/><path d="M1477.83,61.54c0,4.26,3.07,9.02,11.11,9.02,10.31,0,21.13-8.43,21.13-17.16,0-5.86-4.96-9.13-11.11-9.13-9.63,0-21.13,8.14-21.13,17.27"/><path d="M1561.85,86.34c0,4.26,3.07,9.02,11.11,9.02,10.31,0,21.13-8.43,21.13-17.16,0-5.86-4.96-9.13-11.11-9.13-9.63,0-21.13,8.14-21.13,17.27"/><path d="M1645.87,123.54c0,4.26,3.07,9.02,11.11,9.02,10.31,0,21.13-8.43,21.13-17.16,0-5.86-4.96-9.13-11.11-9.13-9.63,0-21.13,8.14-21.13,17.27"/><path d="M1766.6,86.34c0,4.26,3.07,9.02,11.11,9.02,10.31,0,21.13-8.43,21.13-17.16,0-5.86-4.96-9.13-11.11-9.13-9.63,0-21.13,8.14-21.13,17.27"/><path d="M1850.62,61.54c0,4.26,3.07,9.02,11.11,9.02,10.31,0,21.13-8.43,21.13-17.16,0-5.86-4.96-9.13-11.11-9.13-9.63,0-21.13,8.14-21.13,17.27"/><path d="M1934.64,36.74c0,4.26,3.07,9.02,11.11,9.02,10.31,0,21.13-8.43,21.13-17.16,0-5.86-4.96-9.13-11.11-9.13-9.63,0-21.13,8.14-21.13,17.27"/><path d="M2018.67,36.74c0,4.26,3.07,9.02,11.11,9.02,10.31,0,21.13-8.43,21.13-17.16,0-5.86-4.96-9.13-11.11-9.13-9.63,0-21.13,8.14-21.13,17.27"/><path d="M2102.69,61.54c0,4.26,3.07,9.02,11.11,9.02,10.31,0,21.13-8.43,21.13-17.16,0-5.86-4.96-9.13-11.11-9.13-9.63,0-21.13,8.14-21.13,17.27"/><path d="M2186.71,86.34c0,4.26,3.07,9.02,11.11,9.02,10.31,0,21.13-8.43,21.13-17.16,0-5.86-4.96-9.13-11.11-9.13-9.63,0-21.13,8.14-21.13,17.27"/><path d="M144.08,466.74c0,4.26,3.07,9.02,11.11,9.02,10.31,0,21.13-8.43,21.13-17.16,0-5.86-4.96-9.13-11.11-9.13-9.63,0-21.13,8.14-21.13,17.27"/><path d="M240.13,429.54c0,4.26,3.07,9.02,11.11,9.02,10.31,0,21.13-8.43,21.13-17.16,0-5.86-4.96-9.13-11.11-9.13-9.63,0-21.13,8.14-21.13,17.27"/><path d="M336.19,404.74c0,4.26,3.07,9.02,11.11,9.02,10.31,0,21.13-8.43,21.13-17.16,0-5.86-4.96-9.13-11.11-9.13-9.63,0-21.13,8.14-21.13,17.27"/><path d="M432.24,404.74c0,4.26,3.07,9.02,11.11,9.02,10.31,0,21.13-8.43,21.13-17.16,0-5.86-4.96-9.13-11.11-9.13-9.63,0-21.13,8.14-21.13,17.27"/><path d="M528.29,429.54c0,4.26,3.07,9.02,11.11,9.02,10.31,0,21.13-8.43,21.13-17.16,0-5.86-4.96-9.13-11.11-9.13-9.63,0-21.13,8.14-21.13,17.27"/><path d="M624.34,466.74c0,4.26,3.07,9.02,11.11,9.02,10.31,0,21.13-8.43,21.13-17.16,0-5.86-4.96-9.13-11.11-9.13-9.63,0-21.13,8.14-21.13,17.27"/><path d="M757.1,491.54c0,4.26,3.07,9.02,11.11,9.02,10.31,0,21.13-8.43,21.13-17.16,0-5.86-4.96-9.13-11.11-9.13-9.63,0-21.13,8.14-21.13,17.27"/><path d="M853.15,466.74c0,4.26,3.07,9.02,11.11,9.02,10.31,0,21.13-8.43,21.13-17.16,0-5.86-4.96-9.13-11.11-9.13-9.63,0-21.13,8.14-21.13,17.27"/><path d="M1754.32,491.54c0,4.26,3.07,9.02,11.11,9.02,10.31,0,21.13-8.43,21.13-17.16,0-5.86-4.96-9.13-11.11-9.13-9.63,0-21.13,8.14-21.13,17.27"/><path d="M1658.27,466.74c0,4.26,3.07,9.02,11.11,9.02,10.31,0,21.13-8.43,21.13-17.16,0-5.86-4.96-9.13-11.11-9.13-9.63,0-21.13,8.14-21.13,17.27"/><path d="M1562.22,466.74c0,4.26,3.07,9.02,11.11,9.02,10.31,0,21.13-8.43,21.13-17.16,0-5.86-4.96-9.13-11.11-9.13-9.63,0-21.13,8.14-21.13,17.27"/><path d="M1466.16,491.54c0,4.26,3.07,9.02,11.11,9.02,10.31,0,21.13-8.43,21.13-17.16,0-5.86-4.96-9.13-11.11-9.13-9.63,0-21.13,8.14-21.13,17.27"/><path d="M1370.11,516.34c0,4.26,3.07,9.02,11.11,9.02,10.31,0,21.13-8.43,21.13-17.16,0-5.86-4.96-9.13-11.11-9.13-9.63,0-21.13,8.14-21.13,17.27"/><path d="M1237.36,491.54c0,4.26,3.07,9.02,11.11,9.02,10.31,0,21.13-8.43,21.13-17.16,0-5.86-4.96-9.13-11.11-9.13-9.63,0-21.13,8.14-21.13,17.27"/><path d="M1141.3,466.74c0,4.26,3.07,9.02,11.11,9.02,10.31,0,21.13-8.43,21.13-17.16,0-5.86-4.96-9.13-11.11-9.13-9.63,0-21.13,8.14-21.13,17.27"/><path d="M1045.25,429.54c0,4.26,3.07,9.02,11.11,9.02,10.31,0,21.13-8.43,21.13-17.16,0-5.86-4.96-9.13-11.11-9.13-9.63,0-21.13,8.14-21.13,17.27"/><path d="M949.2,429.54c0,4.26,3.07,9.02,11.11,9.02,10.31,0,21.13-8.43,21.13-17.16,0-5.86-4.96-9.13-11.11-9.13-9.63,0-21.13,8.14-21.13,17.27"/><path d="M2004.26,412.28c-9.63,0-21.13,8.04-21.13,17.27,0,4.26,3.07,9.02,11.11,9.02,10.31,0,21.13-8.43,21.13-17.16,0-5.86-4.96-9.13-11.11-9.13m-13.69,21.62c-3.27,0-3.97-2.67-3.97-3.56,0-4.87,16.66-13.39,21.33-13.39,2.39,0,3.97,1.39,3.97,3.56,0,4.96-16.77,13.39-21.33,13.39"/><path d="M30.8,170.26c0,6.56,4.96,15.19,18.35,15.19,4.67,0,8.74-1.19,12.31-3.38,5.36-3.77,6.74-10.32,6.74-16.57,0-3.86-.59-8.32-1.58-13.98-.29-1.98-.9-4.96-1.49-8.84,9.72-3.18,16.96-13.3,16.96-23.51,0-14.97-10.62-25.09-25.09-25.09-.99-5.95-1.98-11.81-2.77-17.36,10.42-11.02,17.65-23.42,17.65-39.18,0-9.04-2.77-16.37-4.37-19.95-2.37-5.05-5.25-8.53-7.04-8.53-.7,0-3.77,1.19-7.04,5.05-6.36,7.55-8.14,20.24-8.14,28.57,0,5.36,.5,10.23,2.19,21.34-.11,.09-5.27,5.35-7.35,7.04-9.04,8.34-21.53,20.43-21.53,40.28,0,18.54,16.17,33.12,34.63,33.12,2.87,0,5.55-.29,7.83-.7,1.89,9.53,3.08,16.48,3.08,21.73,0,10.32-5.36,15.78-15.38,15.78-2.39,0-4.46-.5-4.67-.5-.09-.11-.29-.2-.29-.29,0-.2,.2-.31,.5-.31,4.67-.79,9.32-4.76,9.32-11.1,0-5.36-4.06-11.02-11.5-11.02-6.94,0-11.31,5.66-11.31,12.2M51.54,37.83c.9-3.97,5.46-14.38,10.62-14.38,1.49,0,3.86,4.76,3.86,11.7,0,10.32-7.63,18.06-14.48,24.8-.59-3.97-1.08-7.83-1.08-12,0-3.67,.29-7.05,1.08-10.12m8.73,101.97c-1.98,.4-3.86,.6-5.75,.6-14.18,0-26.29-9.92-26.29-24.91,0-12.09,8.53-22.91,17.27-30.46,1.67-1.49,3.27-2.87,4.76-4.36,.88,5.35,1.58,10.01,2.28,14.09-9.04,2.68-15.17,12.2-15.17,21.53,0,6.94,5.46,16.46,13.39,16.46,.79,0,1.69-.4,1.69-1.29s-.99-1.39-2.19-2.19c-3.88-2.39-6.06-4.96-6.06-9.83,0-6.04,4.57-10.91,10.32-12.29l5.75,32.63m14.09-18.35c0,7.05-2.88,14.29-9.92,17.17-2.08-11.9-4.76-27.68-5.46-32.05,8.93,0,15.38,6.06,15.38,14.88"/><path d="M30.8,513.46c0,6.56,4.96,15.19,18.35,15.19,4.67,0,8.74-1.19,12.31-3.38,5.36-3.77,6.74-10.32,6.74-16.57,0-3.86-.59-8.32-1.58-13.98-.29-1.98-.9-4.96-1.49-8.84,9.72-3.18,16.96-13.3,16.96-23.51,0-14.97-10.62-25.09-25.09-25.09-.99-5.95-1.98-11.81-2.77-17.36,10.42-11.02,17.65-23.42,17.65-39.18,0-9.04-2.77-16.37-4.37-19.95-2.37-5.05-5.25-8.53-7.04-8.53-.7,0-3.77,1.19-7.04,5.05-6.36,7.55-8.14,20.24-8.14,28.57,0,5.36,.5,10.23,2.19,21.34-.11,.09-5.27,5.35-7.35,7.04-9.04,8.34-21.53,20.43-21.53,40.28,0,18.54,16.17,33.12,34.63,33.12,2.87,0,5.55-.29,7.83-.7,1.89,9.53,3.08,16.48,3.08,21.73,0,10.32-5.36,15.78-15.38,15.78-2.39,0-4.46-.5-4.67-.5-.09-.11-.29-.2-.29-.29,0-.2,.2-.31,.5-.31,4.67-.79,9.32-4.76,9.32-11.1,0-5.36-4.06-11.02-11.5-11.02-6.94,0-11.31,5.66-11.31,12.2m20.74-132.43c.9-3.97,5.46-14.38,10.62-14.38,1.49,0,3.86,4.76,3.86,11.7,0,10.32-7.63,18.06-14.48,24.8-.59-3.97-1.08-7.83-1.08-12,0-3.67,.29-7.05,1.08-10.12m8.73,101.97c-1.98,.4-3.86,.6-5.75,.6-14.18,0-26.29-9.92-26.29-24.91,0-12.09,8.53-22.91,17.27-30.46,1.67-1.49,3.27-2.87,4.76-4.36,.88,5.35,1.58,10.01,2.28,14.09-9.04,2.68-15.17,12.2-15.17,21.53,0,6.94,5.46,16.46,13.39,16.46,.79,0,1.69-.4,1.69-1.29s-.99-1.39-2.19-2.19c-3.88-2.39-6.06-4.96-6.06-9.83,0-6.04,4.57-10.91,10.32-12.29l5.75,32.63m14.09-18.35c0,7.05-2.88,14.29-9.92,17.17-2.08-11.9-4.76-27.68-5.46-32.05,8.93,0,15.38,6.06,15.38,14.88"/><path d="M2021.97,349.98c-9.32-10.12-17.56-10.71-22.71-10.71s-13.3,.59-22.63,10.71c-4.85,5.36-8.23,15.96-8.23,21.33,0,1.89,.4,3.18,1.39,3.18,2.77,0,1.38-8.54,9.72-16.97,7.33-7.33,17.16-7.44,19.55-7.44h.39c2.39,0,12.21,.11,19.55,7.44,8.34,8.43,6.94,16.97,9.72,16.97,.99,0,1.39-1.19,1.39-3.18,0-5.36-3.27-16.07-8.14-21.33m-29.56,18.94c0,3.78,3.07,6.85,6.85,6.85s6.84-3.07,6.84-6.85-3.07-6.84-6.84-6.84-6.85,3.07-6.85,6.84"/><path d="M144.08,518.32l194.58-24.8v12.5l-194.58,24.8v-12.5" fill-rule="evenodd"/><path d="M432.24,493.52l194.58,24.8v12.5l-194.58-24.8v-12.5" fill-rule="evenodd"/><path d="M786.85,369.54l194.58-18.6v12.46l-194.58,18.6v-12.46" fill-rule="evenodd"/><path d="M1688.02,381.92l194.58,24.8v12.5l-194.58-24.8v-12.5" fill-rule="evenodd"/><path d="M1225.76,175.13l170.52-18.6v12.48l-170.52,18.6v-12.48" fill-rule="evenodd"/><path d="M173.83,44.97l170.52-6.2v12.41l-170.52,6.2v-12.41" fill-rule="evenodd"/><path d="M425.9,38.77l170.52,6.2v12.41l-170.52-6.2v-12.41" fill-rule="evenodd"/><path d="M1399.86,406.72l194.59-24.8v12.5l-194.59,24.8v-12.5" fill-rule="evenodd"/><path d="M714.67,26.34L885.2,7.74v12.47l-170.53,18.6v-12.47" fill-rule="evenodd"/><path d="M1075,350.94l194.59,18.6v12.46l-194.59-18.6v-12.46" fill-rule="evenodd"/><path d="M1477.83,156.53l170.52,18.6v12.48l-170.52-18.6v-12.48" fill-rule="evenodd"/><path d="M966.74,7.74l170.52,18.6v12.47l-170.52-18.6V7.74" fill-rule="evenodd"/><path d="M1766.6,144.15l170.52-12.4v12.44l-170.52,12.4v-12.44" fill-rule="evenodd"/><path d="M2018.67,131.75l170.52,12.4v12.44l-170.52-12.4v-12.44" fill-rule="evenodd"/><path d="M2027.76,425.37c0,2.77,2.19,4.96,4.96,4.96s4.96-2.19,4.96-4.96-2.19-4.96-4.96-4.96-4.96,2.19-4.96,4.96"/></g></svg>