<?xml version="1.0" encoding="UTF-8"?><svg id="b" xmlns="http://www.w3.org/2000/svg" viewBox="0 0 2275.2 573.18"><g id="c"><line y1="57.19" x2="2275.2" y2="57.19" fill="none" stroke="#000" stroke-linejoin="bevel" stroke-width="2.73"/><line y1="81.99" x2="2275.2" y2="81.99" fill="none" stroke="#000" stroke-linejoin="bevel" stroke-width="2.73"/><line y1="106.79" x2="2275.2" y2="106.79" fill="none" stroke="#000" stroke-linejoin="bevel" stroke-width="2.73"/><line y1="131.59" x2="2275.2" y2="131.59" fill="none" stroke="#000" stroke-linejoin="bevel" stroke-width="2.73"/><line y1="156.39" x2="2275.2" y2="156.39" fill="none" stroke="#000" stroke-linejoin="bevel" stroke-width="2.73"/><line y1="390.87" x2="2275.2" y2="390.87" fill="none" stroke="#000" stroke-linejoin="bevel" stroke-width="2.73"/><line y1="415.67" x2="2275.2" y2="415.67" fill="none" stroke="#000" stroke-linejoin="bevel" stroke-width="2.73"/><line y1="440.47" x2="2275.2" y2="440.47" fill="none" stroke="#000" stroke-linejoin="bevel" stroke-width="2.73"/><line y1="465.27" x2="2275.2" y2="465.27" fill="none" stroke="#000" stroke-linejoin="bevel" stroke-width="2.73"/><line y1="490.07" x2="2275.2" y2="490.07" fill="none" stroke="#000" stroke-linejoin="bevel" stroke-width="2.73"/><path d="M981.19,34.87c31.93-15.85,73,2.75,82.15,37.2-12.42-27.23-53.5-45.83-82.15-37.2" fill-rule="evenodd" stroke="#000" stroke-linecap="round" stroke-linejoin="round" stroke-width="1.24"/><path d="M734.74,96.87c12.72-32.08,53.8-44.48,82.15-24.8-26.06-12.08-67.14,.32-82.15,24.8" fill-rule="evenodd" stroke="#000" stroke-linecap="round" stroke-linejoin="round" stroke-width="1.24"/><path d="M451.58,116.71c15.02,24.48,56.09,36.88,82.15,24.8-28.35,19.68-69.43,7.28-82.15-24.8" fill-rule="evenodd" stroke="#000" stroke-linecap="round" stroke-linejoin="round" stroke-width="1.24"/><path d="M205.13,166.31c26.06,12.08,67.13-.32,82.15-24.8-12.73,32.08-53.8,44.48-82.15,24.8" fill-rule="evenodd" stroke="#000" stroke-linecap="round" stroke-linejoin="round" stroke-width="1.24"/><path d="M1687,499.99c28.72,13.69,75.67,1.29,93.89-24.8-16.19,33.76-63.14,46.16-93.89,24.8" fill-rule="evenodd" stroke="#000" stroke-linecap="round" stroke-linejoin="round" stroke-width="1.24"/><path d="M1405.3,561.99c28.73,13.69,75.68,1.29,93.9-24.8-16.19,33.76-63.14,46.16-93.9,24.8" fill-rule="evenodd" stroke="#000" stroke-linecap="round" stroke-linejoin="round" stroke-width="1.24"/><path d="M1086.91,475.19c18.22,26.09,65.17,38.49,93.9,24.8-30.76,21.36-77.71,8.96-93.9-24.8" fill-rule="evenodd" stroke="#000" stroke-linecap="round" stroke-linejoin="round" stroke-width="1.24"/><path d="M805.22,537.19c31.23,10.28,78.17-8.32,93.89-37.2-12.79,36.25-59.74,54.85-93.89,37.2" fill-rule="evenodd" stroke="#000" stroke-linecap="round" stroke-linejoin="round" stroke-width="1.24"/><path d="M486.82,450.39c18.22,26.09,65.17,38.49,93.9,24.8-30.75,21.36-77.7,8.96-93.9-24.8" fill-rule="evenodd" stroke="#000" stroke-linecap="round" stroke-linejoin="round" stroke-width="1.24"/><path d="M205.13,499.99c28.73,13.69,75.68,1.29,93.9-24.8-16.2,33.76-63.14,46.16-93.9,24.8" fill-rule="evenodd" stroke="#000" stroke-linecap="round" stroke-linejoin="round" stroke-width="1.24"/><path d="M1264.34,72.07c9.15-34.45,50.22-53.05,82.15-37.2-28.65-8.63-69.73,9.97-82.15,37.2" fill-rule="evenodd" stroke="#000" stroke-linecap="round" stroke-linejoin="round" stroke-width="1.24"/><path d="M2040.4,34.87c31.93-15.85,73,2.75,82.15,37.2-12.42-27.23-53.5-45.83-82.15-37.2" fill-rule="evenodd" stroke="#000" stroke-linecap="round" stroke-linejoin="round" stroke-width="1.24"/><path d="M1793.95,96.87c12.72-32.08,53.8-44.48,82.15-24.8-26.06-12.08-67.13,.32-82.15,24.8" fill-rule="evenodd" stroke="#000" stroke-linecap="round" stroke-linejoin="round" stroke-width="1.24"/><path d="M1510.79,10.07c28.35-19.68,69.43-7.28,82.15,24.8-15.01-24.48-56.09-36.88-82.15-24.8" fill-rule="evenodd" stroke="#000" stroke-linecap="round" stroke-linejoin="round" stroke-width="1.24"/><line x1="2272.97" y1="55.83" x2="2272.97" y2="157.75" fill="none" stroke="#000" stroke-linejoin="bevel" stroke-width="4.46"/><line x1="1743.36" y1="55.83" x2="1743.36" y2="157.75" fill="none" stroke="#000" stroke-linejoin="bevel" stroke-width="4.46"/><line x1="1213.75" y1="55.83" x2="1213.75" y2="157.75" fill="none" stroke="#000" stroke-linejoin="bevel" stroke-width="4.46"/><line x1="2259.33" y1="389.51" x2="2259.33" y2="491.43" fill="none" stroke="#000" stroke-linejoin="bevel" stroke-width="4.46"/><line x1="2272.97" y1="389.51" x2="2272.97" y2="491.43" fill="none" stroke="#000" stroke-linejoin="bevel" stroke-width="4.46"/><line x1="684.15" y1="55.83" x2="684.15" y2="157.75" fill="none" stroke="#000" stroke-linejoin="bevel" stroke-width="4.46"/><line x1="1354.72" y1="389.51" x2="1354.72" y2="491.43" fill="none" stroke="#000" stroke-linejoin="bevel" stroke-width="4.46"/><line x1="754.63" y1="389.51" x2="754.63" y2="491.43" fill="none" stroke="#000" stroke-linejoin="bevel" stroke-width="4.46"/><line x1="1954.8" y1="389.51" x2="1954.8" y2="491.43" fill="none" stroke="#000" stroke-linejoin="bevel" stroke-width="4.46"/><line x1="1404.34" y1="32.39" x2="1452.94" y2="32.39" fill="none" stroke="#000" stroke-linejoin="bevel" stroke-width="3.97"/><line x1="1486.49" y1="32.39" x2="1535.09" y2="32.39" fill="none" stroke="#000" stroke-linejoin="bevel" stroke-width="3.97"/><line x1="1250.4" y1="514.87" x2="1299" y2="514.87" fill="none" stroke="#000" stroke-linejoin="bevel" stroke-width="3.97"/><line x1="780.92" y1="514.87" x2="829.52" y2="514.87" fill="none" stroke="#000" stroke-linejoin="bevel" stroke-width="3.97"/><line x1="1474.9" y1="514.87" x2="1523.5" y2="514.87" fill="none" stroke="#000" stroke-linejoin="bevel" stroke-width="3.97"/><line x1="1381" y1="514.87" x2="1429.6" y2="514.87" fill="none" stroke="#000" stroke-linejoin="bevel" stroke-width="3.97"/><line x1="1381" y1="539.67" x2="1429.6" y2="539.67" fill="none" stroke="#000" stroke-linejoin="bevel" stroke-width="3.97"/><line x1="1130.61" y1="123.36" x2="1130.61" y2="187.25" fill="none" stroke="#000" stroke-linejoin="bevel" stroke-width="2.48"/><line x1="407.8" y1="424.1" x2="407.8" y2="359.99" fill="none" stroke="#000" stroke-linejoin="bevel" stroke-width="2.48"/><line x1="313.9" y1="448.9" x2="313.9" y2="369.17" fill="none" stroke="#000" stroke-linejoin="bevel" stroke-width="2.48"/><line x1="1289.58" y1="510.9" x2="1289.58" y2="396.99" fill="none" stroke="#000" stroke-linejoin="bevel" stroke-width="2.48"/><line x1="1249.47" y1="98.56" x2="1249.47" y2="162.5" fill="none" stroke="#000" stroke-linejoin="bevel" stroke-width="2.48"/><line x1="466.46" y1="90.42" x2="466.46" y2="26.33" fill="none" stroke="#000" stroke-linejoin="bevel" stroke-width="2.48"/><line x1="1195.68" y1="473.7" x2="1195.68" y2="390.87" fill="none" stroke="#000" stroke-linejoin="bevel" stroke-width="2.48"/><line x1="220.01" y1="140.02" x2="220.01" y2="44.65" fill="none" stroke="#000" stroke-linejoin="bevel" stroke-width="2.48"/><line x1="220.01" y1="473.7" x2="220.01" y2="378.35" fill="none" stroke="#000" stroke-linejoin="bevel" stroke-width="2.48"/><line x1="1331.62" y1="61.36" x2="1331.62" y2="156.39" fill="none" stroke="#000" stroke-linejoin="bevel" stroke-width="2.48"/><line x1="1101.78" y1="448.9" x2="1101.78" y2="384.75" fill="none" stroke="#000" stroke-linejoin="bevel" stroke-width="2.48"/><line x1="1779.07" y1="123.36" x2="1779.07" y2="187.25" fill="none" stroke="#000" stroke-linejoin="bevel" stroke-width="2.48"/><line x1="1413.77" y1="36.56" x2="1413.77" y2="150.28" fill="none" stroke="#000" stroke-linejoin="bevel" stroke-width="2.48"/><line x1="1007.89" y1="448.9" x2="1007.89" y2="384.75" fill="none" stroke="#000" stroke-linejoin="bevel" stroke-width="2.48"/><line x1="1943.37" y1="61.36" x2="1943.37" y2="168.93" fill="none" stroke="#000" stroke-linejoin="bevel" stroke-width="2.48"/><line x1="913.99" y1="473.7" x2="913.99" y2="390.87" fill="none" stroke="#000" stroke-linejoin="bevel" stroke-width="2.48"/><line x1="1495.92" y1="36.56" x2="1495.92" y2="150.28" fill="none" stroke="#000" stroke-linejoin="bevel" stroke-width="2.48"/><line x1="384.31" y1="90.42" x2="384.31" y2="26.33" fill="none" stroke="#000" stroke-linejoin="bevel" stroke-width="2.48"/><line x1="2189.82" y1="123.36" x2="2189.82" y2="187.25" fill="none" stroke="#000" stroke-linejoin="bevel" stroke-width="2.48"/><line x1="2107.67" y1="98.56" x2="2107.67" y2="178.09" fill="none" stroke="#000" stroke-linejoin="bevel" stroke-width="2.48"/><line x1="1990.52" y1="395.04" x2="1990.52" y2="477.67" fill="none" stroke="#000" stroke-linejoin="bevel" stroke-width="2.48"/><line x1="1889.67" y1="424.1" x2="1889.67" y2="359.99" fill="none" stroke="#000" stroke-linejoin="bevel" stroke-width="2.48"/><line x1="1795.77" y1="448.9" x2="1795.77" y2="369.17" fill="none" stroke="#000" stroke-linejoin="bevel" stroke-width="2.48"/><line x1="1701.87" y1="473.7" x2="1701.87" y2="378.35" fill="none" stroke="#000" stroke-linejoin="bevel" stroke-width="2.48"/><line x1="1607.97" y1="473.7" x2="1607.97" y2="409.55" fill="none" stroke="#000" stroke-linejoin="bevel" stroke-width="2.48"/><line x1="501.7" y1="424.1" x2="501.7" y2="359.99" fill="none" stroke="#000" stroke-linejoin="bevel" stroke-width="2.48"/><line x1="1514.08" y1="510.9" x2="1514.08" y2="415.67" fill="none" stroke="#000" stroke-linejoin="bevel" stroke-width="2.48"/><line x1="820.09" y1="510.9" x2="820.09" y2="396.99" fill="none" stroke="#000" stroke-linejoin="bevel" stroke-width="2.48"/><line x1="689.49" y1="473.7" x2="689.49" y2="378.35" fill="none" stroke="#000" stroke-linejoin="bevel" stroke-width="2.48"/><line x1="719.86" y1="123.36" x2="719.86" y2="187.25" fill="none" stroke="#000" stroke-linejoin="bevel" stroke-width="2.48"/><line x1="1578.07" y1="61.36" x2="1578.07" y2="156.39" fill="none" stroke="#000" stroke-linejoin="bevel" stroke-width="2.48"/><line x1="595.6" y1="448.9" x2="595.6" y2="369.17" fill="none" stroke="#000" stroke-linejoin="bevel" stroke-width="2.48"/><line x1="802.01" y1="98.56" x2="802.01" y2="178.09" fill="none" stroke="#000" stroke-linejoin="bevel" stroke-width="2.48"/><line x1="1861.22" y1="98.56" x2="1861.22" y2="178.09" fill="none" stroke="#000" stroke-linejoin="bevel" stroke-width="2.48"/><line x1="1420.18" y1="535.7" x2="1420.18" y2="421.79" fill="none" stroke="#000" stroke-linejoin="bevel" stroke-width="2.48"/><line x1="884.16" y1="61.36" x2="884.16" y2="168.93" fill="none" stroke="#000" stroke-linejoin="bevel" stroke-width="2.48"/><line x1="1660.22" y1="98.56" x2="1660.22" y2="162.5" fill="none" stroke="#000" stroke-linejoin="bevel" stroke-width="2.48"/><line x1="966.31" y1="61.36" x2="966.31" y2="168.93" fill="none" stroke="#000" stroke-linejoin="bevel" stroke-width="2.48"/><line x1="302.16" y1="115.22" x2="302.16" y2="35.49" fill="none" stroke="#000" stroke-linejoin="bevel" stroke-width="2.48"/><line x1="2025.52" y1="61.36" x2="2025.52" y2="168.93" fill="none" stroke="#000" stroke-linejoin="bevel" stroke-width="2.48"/><line x1="1048.46" y1="98.56" x2="1048.46" y2="178.09" fill="none" stroke="#000" stroke-linejoin="bevel" stroke-width="2.48"/><line x1="548.61" y1="115.22" x2="548.61" y2="35.49" fill="none" stroke="#000" stroke-linejoin="bevel" stroke-width="2.48"/><line x1="630.76" y1="140.02" x2="630.76" y2="44.65" fill="none" stroke="#000" stroke-linejoin="bevel" stroke-width="2.48"/><path d="M2024.28,61.36c0,4.26,3.07,9.02,11.11,9.02,10.31,0,21.13-8.43,21.13-17.16,0-5.86-4.96-9.13-11.11-9.13-9.63,0-21.13,8.14-21.13,17.27"/><path d="M718.62,123.36c0,4.26,3.07,9.02,11.11,9.02,10.31,0,21.13-8.43,21.13-17.16,0-5.86-4.96-9.13-11.11-9.13-9.63,0-21.13,8.14-21.13,17.27"/><path d="M800.77,98.56c0,4.26,3.07,9.02,11.11,9.02,10.31,0,21.13-8.43,21.13-17.16,0-5.86-4.96-9.13-11.11-9.13-9.63,0-21.13,8.14-21.13,17.27"/><path d="M882.92,61.36c0,4.26,3.07,9.02,11.11,9.02,10.31,0,21.13-8.43,21.13-17.16,0-5.86-4.96-9.13-11.11-9.13-9.63,0-21.13,8.14-21.13,17.27"/><path d="M965.07,61.36c0,4.26,3.07,9.02,11.11,9.02,10.31,0,21.13-8.43,21.13-17.16,0-5.86-4.96-9.13-11.11-9.13-9.63,0-21.13,8.14-21.13,17.27"/><path d="M1047.22,98.56c0,4.26,3.07,9.02,11.11,9.02,10.31,0,21.13-8.43,21.13-17.16,0-5.86-4.96-9.13-11.11-9.13-9.63,0-21.13,8.14-21.13,17.27"/><path d="M1129.37,123.36c0,4.26,3.07,9.02,11.11,9.02,10.31,0,21.13-8.43,21.13-17.16,0-5.86-4.96-9.13-11.11-9.13-9.63,0-21.13,8.14-21.13,17.27"/><path d="M1248.23,98.56c0,4.26,3.07,9.02,11.11,9.02,10.31,0,21.13-8.43,21.13-17.16,0-5.86-4.96-9.13-11.11-9.13-9.63,0-21.13,8.14-21.13,17.27"/><path d="M1330.38,61.36c0,4.26,3.07,9.02,11.11,9.02,10.31,0,21.13-8.43,21.13-17.16,0-5.86-4.96-9.13-11.11-9.13-9.63,0-21.13,8.14-21.13,17.27"/><path d="M1412.53,36.56c0,4.26,3.07,9.02,11.11,9.02,10.31,0,21.13-8.43,21.13-17.16,0-5.86-4.96-9.13-11.11-9.13-9.63,0-21.13,8.14-21.13,17.27"/><path d="M1494.68,36.56c0,4.26,3.07,9.02,11.11,9.02,10.31,0,21.13-8.43,21.13-17.16,0-5.86-4.96-9.13-11.11-9.13-9.63,0-21.13,8.14-21.13,17.27"/><path d="M1576.83,61.36c0,4.26,3.07,9.02,11.11,9.02,10.31,0,21.13-8.43,21.13-17.16,0-5.86-4.96-9.13-11.11-9.13-9.63,0-21.13,8.14-21.13,17.27"/><path d="M1658.98,98.56c0,4.26,3.07,9.02,11.11,9.02,10.31,0,21.13-8.43,21.13-17.16,0-5.86-4.96-9.13-11.11-9.13-9.63,0-21.13,8.14-21.13,17.27"/><path d="M1777.83,123.36c0,4.26,3.07,9.02,11.11,9.02,10.31,0,21.13-8.43,21.13-17.16,0-5.86-4.96-9.13-11.11-9.13-9.63,0-21.13,8.14-21.13,17.27"/><path d="M1859.98,98.56c0,4.26,3.07,9.02,11.11,9.02,10.31,0,21.13-8.43,21.13-17.16,0-5.86-4.96-9.13-11.11-9.13-9.63,0-21.13,8.14-21.13,17.27"/><path d="M1942.13,61.36c0,4.26,3.07,9.02,11.11,9.02,10.31,0,21.13-8.43,21.13-17.16,0-5.86-4.96-9.13-11.11-9.13-9.63,0-21.13,8.14-21.13,17.27"/><path d="M2106.43,98.56c0,4.26,3.07,9.02,11.11,9.02,10.31,0,21.13-8.43,21.13-17.16,0-5.86-4.96-9.13-11.11-9.13-9.63,0-21.13,8.14-21.13,17.27"/><path d="M2188.58,123.36c0,4.26,3.07,9.02,11.11,9.02,10.31,0,21.13-8.43,21.13-17.16,0-5.86-4.96-9.13-11.11-9.13-9.63,0-21.13,8.14-21.13,17.27"/><path d="M189.01,148.16c0,4.26,3.07,9.02,11.11,9.02,10.31,0,21.13-8.43,21.13-17.16,0-5.86-4.96-9.13-11.11-9.13-9.63,0-21.13,8.14-21.13,17.27"/><path d="M189.01,481.84c0,4.26,3.07,9.02,11.11,9.02,10.31,0,21.13-8.43,21.13-17.16,0-5.86-4.96-9.13-11.11-9.13-9.63,0-21.13,8.14-21.13,17.27"/><path d="M282.91,457.04c0,4.26,3.07,9.02,11.11,9.02,10.31,0,21.13-8.43,21.13-17.16,0-5.86-4.96-9.13-11.11-9.13-9.63,0-21.13,8.14-21.13,17.27"/><path d="M376.81,432.24c0,4.26,3.07,9.02,11.11,9.02,10.31,0,21.13-8.43,21.13-17.16,0-5.86-4.96-9.13-11.11-9.13-9.63,0-21.13,8.14-21.13,17.27"/><path d="M470.71,432.24c0,4.26,3.07,9.02,11.11,9.02,10.31,0,21.13-8.43,21.13-17.16,0-5.86-4.96-9.13-11.11-9.13-9.63,0-21.13,8.14-21.13,17.27"/><path d="M564.6,457.04c0,4.26,3.07,9.02,11.11,9.02,10.31,0,21.13-8.43,21.13-17.16,0-5.86-4.96-9.13-11.11-9.13-9.63,0-21.13,8.14-21.13,17.27"/><path d="M658.5,481.84c0,4.26,3.07,9.02,11.11,9.02,10.31,0,21.13-8.43,21.13-17.16,0-5.86-4.96-9.13-11.11-9.13-9.63,0-21.13,8.14-21.13,17.27"/><path d="M789.1,519.04c0,4.26,3.07,9.02,11.11,9.02,10.31,0,21.13-8.43,21.13-17.16,0-5.86-4.96-9.13-11.11-9.13-9.63,0-21.13,8.14-21.13,17.27"/><path d="M883,481.84c0,4.26,3.07,9.02,11.11,9.02,10.31,0,21.13-8.43,21.13-17.16,0-5.86-4.96-9.13-11.11-9.13-9.63,0-21.13,8.14-21.13,17.27"/><path d="M976.89,457.04c0,4.26,3.07,9.02,11.11,9.02,10.31,0,21.13-8.43,21.13-17.16,0-5.86-4.96-9.13-11.11-9.13-9.63,0-21.13,8.14-21.13,17.27"/><path d="M1070.79,457.04c0,4.26,3.07,9.02,11.11,9.02,10.31,0,21.13-8.43,21.13-17.16,0-5.86-4.96-9.13-11.11-9.13-9.63,0-21.13,8.14-21.13,17.27"/><path d="M1164.69,481.84c0,4.26,3.07,9.02,11.11,9.02,10.31,0,21.13-8.43,21.13-17.16,0-5.86-4.96-9.13-11.11-9.13-9.63,0-21.13,8.14-21.13,17.27"/><path d="M1258.59,519.04c0,4.26,3.07,9.02,11.11,9.02,10.31,0,21.13-8.43,21.13-17.16,0-5.86-4.96-9.13-11.11-9.13-9.63,0-21.13,8.14-21.13,17.27"/><path d="M1389.19,543.84c0,4.26,3.07,9.02,11.11,9.02,10.31,0,21.13-8.43,21.13-17.16,0-5.86-4.96-9.13-11.11-9.13-9.63,0-21.13,8.14-21.13,17.27"/><path d="M1576.98,481.84c0,4.26,3.07,9.02,11.11,9.02,10.31,0,21.13-8.43,21.13-17.16,0-5.86-4.96-9.13-11.11-9.13-9.63,0-21.13,8.14-21.13,17.27"/><path d="M1670.88,481.84c0,4.26,3.07,9.02,11.11,9.02,10.31,0,21.13-8.43,21.13-17.16,0-5.86-4.96-9.13-11.11-9.13-9.63,0-21.13,8.14-21.13,17.27"/><path d="M1764.78,457.04c0,4.26,3.07,9.02,11.11,9.02,10.31,0,21.13-8.43,21.13-17.16,0-5.86-4.96-9.13-11.11-9.13-9.63,0-21.13,8.14-21.13,17.27"/><path d="M1858.67,432.24c0,4.26,3.07,9.02,11.11,9.02,10.31,0,21.13-8.43,21.13-17.16,0-5.86-4.96-9.13-11.11-9.13-9.63,0-21.13,8.14-21.13,17.27"/><path d="M271.17,123.36c0,4.26,3.07,9.02,11.11,9.02,10.31,0,21.13-8.43,21.13-17.16,0-5.86-4.96-9.13-11.11-9.13-9.63,0-21.13,8.14-21.13,17.27"/><path d="M2010.41,377.77c-9.63,0-21.13,8.04-21.13,17.27,0,4.26,3.07,9.02,11.11,9.02,10.31,0,21.13-8.43,21.13-17.16,0-5.86-4.96-9.13-11.11-9.13m-13.69,21.62c-3.27,0-3.97-2.67-3.97-3.56,0-4.87,16.66-13.39,21.33-13.39,2.39,0,3.97,1.39,3.97,3.56,0,4.96-16.77,13.39-21.33,13.39"/><path d="M353.32,98.56c0,4.26,3.07,9.02,11.11,9.02,10.31,0,21.13-8.43,21.13-17.16,0-5.86-4.96-9.13-11.11-9.13-9.63,0-21.13,8.14-21.13,17.27"/><path d="M435.47,98.56c0,4.26,3.07,9.02,11.11,9.02,10.31,0,21.13-8.43,21.13-17.16,0-5.86-4.96-9.13-11.11-9.13-9.63,0-21.13,8.14-21.13,17.27"/><path d="M1483.08,519.04c0,4.26,3.07,9.02,11.11,9.02,10.31,0,21.13-8.43,21.13-17.16,0-5.86-4.96-9.13-11.11-9.13-9.63,0-21.13,8.14-21.13,17.27"/><path d="M517.62,123.36c0,4.26,3.07,9.02,11.11,9.02,10.31,0,21.13-8.43,21.13-17.16,0-5.86-4.96-9.13-11.11-9.13-9.63,0-21.13,8.14-21.13,17.27"/><path d="M599.77,148.16c0,4.26,3.07,9.02,11.11,9.02,10.31,0,21.13-8.43,21.13-17.16,0-5.86-4.96-9.13-11.11-9.13-9.63,0-21.13,8.14-21.13,17.27"/><path d="M30.8,182.48c0,6.56,4.96,15.19,18.35,15.19,4.67,0,8.74-1.19,12.31-3.38,5.36-3.77,6.74-10.32,6.74-16.57,0-3.86-.59-8.32-1.58-13.98-.29-1.98-.9-4.96-1.49-8.84,9.72-3.18,16.96-13.3,16.96-23.51,0-14.97-10.62-25.09-25.09-25.09-.99-5.95-1.98-11.81-2.77-17.36,10.42-11.02,17.65-23.42,17.65-39.18,0-9.04-2.77-16.37-4.37-19.95-2.37-5.05-5.25-8.53-7.04-8.53-.7,0-3.77,1.19-7.04,5.05-6.36,7.55-8.14,20.24-8.14,28.57,0,5.36,.5,10.23,2.19,21.34-.11,.09-5.27,5.35-7.35,7.04-9.04,8.34-21.53,20.43-21.53,40.28,0,18.54,16.17,33.12,34.63,33.12,2.87,0,5.55-.29,7.83-.7,1.89,9.53,3.08,16.48,3.08,21.73,0,10.32-5.36,15.78-15.38,15.78-2.39,0-4.46-.5-4.67-.5-.09-.11-.29-.2-.29-.29,0-.2,.2-.31,.5-.31,4.67-.79,9.32-4.76,9.32-11.1,0-5.36-4.06-11.02-11.5-11.02-6.94,0-11.31,5.66-11.31,12.2M51.54,50.04c.9-3.97,5.46-14.38,10.62-14.38,1.49,0,3.86,4.76,3.86,11.7,0,10.32-7.63,18.06-14.48,24.8-.59-3.97-1.08-7.83-1.08-12,0-3.67,.29-7.05,1.08-10.12m8.73,101.97c-1.98,.4-3.86,.6-5.75,.6-14.18,0-26.29-9.92-26.29-24.91,0-12.09,8.53-22.91,17.27-30.46,1.67-1.49,3.27-2.87,4.76-4.36,.88,5.35,1.58,10.01,2.28,14.09-9.04,2.68-15.17,12.2-15.17,21.53,0,6.94,5.46,16.46,13.39,16.46,.79,0,1.69-.4,1.69-1.29s-.99-1.39-2.19-2.19c-3.88-2.39-6.06-4.96-6.06-9.83,0-6.04,4.57-10.91,10.32-12.29l5.75,32.63m14.09-18.35c0,7.05-2.88,14.29-9.92,17.17-2.08-11.9-4.76-27.68-5.46-32.05,8.93,0,15.38,6.06,15.38,14.88"/><path d="M30.8,516.16c0,6.56,4.96,15.19,18.35,15.19,4.67,0,8.74-1.19,12.31-3.38,5.36-3.77,6.74-10.32,6.74-16.57,0-3.86-.59-8.32-1.58-13.98-.29-1.98-.9-4.96-1.49-8.84,9.72-3.18,16.96-13.3,16.96-23.51,0-14.97-10.62-25.09-25.09-25.09-.99-5.95-1.98-11.81-2.77-17.36,10.42-11.02,17.65-23.42,17.65-39.18,0-9.04-2.77-16.37-4.37-19.95-2.37-5.05-5.25-8.53-7.04-8.53-.7,0-3.77,1.19-7.04,5.05-6.36,7.55-8.14,20.24-8.14,28.57,0,5.36,.5,10.23,2.19,21.34-.11,.09-5.27,5.35-7.35,7.04-9.04,8.34-21.53,20.43-21.53,40.28,0,18.54,16.17,33.12,34.63,33.12,2.87,0,5.55-.29,7.83-.7,1.89,9.53,3.08,16.48,3.08,21.73,0,10.32-5.36,15.78-15.38,15.78-2.39,0-4.46-.5-4.67-.5-.09-.11-.29-.2-.29-.29,0-.2,.2-.31,.5-.31,4.67-.79,9.32-4.76,9.32-11.1,0-5.36-4.06-11.02-11.5-11.02-6.94,0-11.31,5.66-11.31,12.2m20.74-132.43c.9-3.97,5.46-14.38,10.62-14.38,1.49,0,3.86,4.76,3.86,11.7,0,10.32-7.63,18.06-14.48,24.8-.59-3.97-1.08-7.83-1.08-12,0-3.67,.29-7.05,1.08-10.12m8.73,101.97c-1.98,.4-3.86,.6-5.75,.6-14.18,0-26.29-9.92-26.29-24.91,0-12.09,8.53-22.91,17.27-30.46,1.67-1.49,3.27-2.87,4.76-4.36,.88,5.35,1.58,10.01,2.28,14.09-9.04,2.68-15.17,12.2-15.17,21.53,0,6.94,5.46,16.46,13.39,16.46,.79,0,1.69-.4,1.69-1.29s-.99-1.39-2.19-2.19c-3.88-2.39-6.06-4.96-6.06-9.83,0-6.04,4.57-10.91,10.32-12.29l5.75,32.63m14.09-18.35c0,7.05-2.88,14.29-9.92,17.17-2.08-11.9-4.76-27.68-5.46-32.05,8.93,0,15.38,6.06,15.38,14.88"/><path d="M118.78,91.41c-4.96,0-7.84,3.07-8.34,3.67l.4-31.85c0-.79-.59-1.38-1.39-1.38h-1.18c-.81,0-1.39,.59-1.39,1.38l.5,59.63c0,.79,.59,1.38,1.39,1.38,.19,0,.59-.09,.79-.19,8.53-4.28,17.45-12.4,17.45-22.63,0-5.15-2.37-10.01-8.23-10.01m-8.63,27.98l.29-19.34c.2-.9,1.69-3.77,5.66-3.77,3.58,0,3.87,3.36,3.87,5.46,0,8.82-3.27,12.49-9.83,17.65"/><path d="M118.78,425.09c-4.96,0-7.84,3.07-8.34,3.67l.4-31.85c0-.79-.59-1.38-1.39-1.38h-1.18c-.81,0-1.39,.59-1.39,1.38l.5,59.63c0,.79,.59,1.38,1.39,1.38,.19,0,.59-.09,.79-.19,8.53-4.28,17.45-12.4,17.45-22.63,0-5.15-2.37-10.01-8.23-10.01m-8.63,27.98l.29-19.34c.2-.9,1.69-3.77,5.66-3.77,3.58,0,3.87,3.36,3.87,5.46,0,8.82-3.27,12.49-9.83,17.65"/><path d="M2028.12,337.81c-9.32-10.12-17.56-10.71-22.71-10.71s-13.3,.59-22.63,10.71c-4.85,5.36-8.23,15.96-8.23,21.33,0,1.89,.4,3.18,1.39,3.18,2.77,0,1.38-8.54,9.72-16.97,7.33-7.33,17.16-7.44,19.55-7.44h.39c2.39,0,12.21,.11,19.55,7.44,8.34,8.43,6.94,16.97,9.72,16.97,.99,0,1.39-1.19,1.39-3.18,0-5.36-3.27-16.07-8.14-21.33m-29.56,18.94c0,3.78,3.07,6.85,6.85,6.85s6.84-3.07,6.84-6.85-3.07-6.84-6.84-6.84-6.85,3.07-6.85,6.84"/><path d="M1418.94,415.66l190.27-12.4v12.42l-190.27,12.4v-12.42" fill-rule="evenodd"/><path d="M465.22,19.95l166.78,18.6v12.48l-166.78-18.6v-12.48" fill-rule="evenodd"/><path d="M1248.23,156.37l166.78-12.4v12.44l-166.78,12.4v-12.44" fill-rule="evenodd"/><path d="M218.77,372.24l190.28-18.6v12.46l-190.28,18.6v-12.46" fill-rule="evenodd"/><path d="M1700.63,372.24l190.28-18.6v12.46l-190.28,18.6v-12.46" fill-rule="evenodd"/><path d="M965.07,162.55l166.78,18.6v12.48l-166.78-18.6v-12.48" fill-rule="evenodd"/><path d="M2024.28,162.55l166.78,18.6v12.48l-166.78-18.6v-12.48" fill-rule="evenodd"/><path d="M500.46,353.64l190.27,18.6v12.46l-190.27-18.6v-12.46" fill-rule="evenodd"/><path d="M718.62,181.15l166.78-18.6v12.48l-166.78,18.6v-12.48" fill-rule="evenodd"/><path d="M218.77,38.55l166.78-18.6v12.48l-166.78,18.6v-12.48" fill-rule="evenodd"/><path d="M818.85,390.86l190.28-12.4v12.42l-190.28,12.4v-12.42" fill-rule="evenodd"/><path d="M1494.68,143.97l166.78,12.4v12.44l-166.78-12.4v-12.44" fill-rule="evenodd"/><path d="M1777.83,181.15l166.78-18.6v12.48l-166.78,18.6v-12.48" fill-rule="evenodd"/><path d="M1100.54,378.46l190.28,12.4v12.42l-190.28-12.4v-12.42" fill-rule="evenodd"/><path d="M2033.91,378.47c0,2.77,2.19,4.96,4.96,4.96s4.96-2.19,4.96-4.96-2.19-4.96-4.96-4.96-4.96,2.19-4.96,4.96"/></g></svg>