<?xml version="1.0" encoding="UTF-8"?><svg id="b" xmlns="http://www.w3.org/2000/svg" viewBox="0 0 2275.2 301.91"><g id="c"><line y1="97.61" x2="2275.2" y2="97.61" fill="none" stroke="#000" stroke-linejoin="bevel" stroke-width="2.73"/><line y1="122.41" x2="2275.2" y2="122.41" fill="none" stroke="#000" stroke-linejoin="bevel" stroke-width="2.73"/><line y1="147.21" x2="2275.2" y2="147.21" fill="none" stroke="#000" stroke-linejoin="bevel" stroke-width="2.73"/><line y1="172.01" x2="2275.2" y2="172.01" fill="none" stroke="#000" stroke-linejoin="bevel" stroke-width="2.73"/><line y1="196.81" x2="2275.2" y2="196.81" fill="none" stroke="#000" stroke-linejoin="bevel" stroke-width="2.73"/><path d="M149.04,249.14c229.52,64.23,1322,60.58,1560.68-5.21-238.66,73.73-1331.13,77.37-1560.68,5.21" fill-rule="evenodd" stroke="#000" stroke-linecap="round" stroke-linejoin="round" stroke-width="1.24"/><line x1="2259.33" y1="96.24" x2="2259.33" y2="198.17" fill="none" stroke="#000" stroke-linejoin="bevel" stroke-width="4.46"/><line x1="2272.97" y1="96.24" x2="2272.97" y2="198.17" fill="none" stroke="#000" stroke-linejoin="bevel" stroke-width="4.46"/><line x1="1857.92" y1="96.24" x2="1857.92" y2="198.17" fill="none" stroke="#000" stroke-linejoin="bevel" stroke-width="4.46"/><line x1="1010.78" y1="96.24" x2="1010.78" y2="198.17" fill="none" stroke="#000" stroke-linejoin="bevel" stroke-width="4.46"/><line x1="1685.42" y1="221.61" x2="1734.02" y2="221.61" fill="none" stroke="#000" stroke-linejoin="bevel" stroke-width="3.97"/><line x1="784.25" y1="221.61" x2="832.85" y2="221.61" fill="none" stroke="#000" stroke-linejoin="bevel" stroke-width="3.97"/><line x1="607.31" y1="130.84" x2="607.31" y2="66.68" fill="none" stroke="#000" stroke-linejoin="bevel" stroke-width="2.48"/><line x1="715.37" y1="168.04" x2="715.37" y2="72.83" fill="none" stroke="#000" stroke-linejoin="bevel" stroke-width="2.48"/><line x1="823.42" y1="217.64" x2="823.42" y2="78.98" fill="none" stroke="#000" stroke-linejoin="bevel" stroke-width="2.48"/><line x1="931.48" y1="168.04" x2="931.48" y2="85.14" fill="none" stroke="#000" stroke-linejoin="bevel" stroke-width="2.48"/><line x1="1046.49" y1="138.98" x2="1046.49" y2="202.96" fill="none" stroke="#000" stroke-linejoin="bevel" stroke-width="2.48"/><line x1="1154.55" y1="114.17" x2="1154.55" y2="198.86" fill="none" stroke="#000" stroke-linejoin="bevel" stroke-width="2.48"/><line x1="1262.61" y1="89.37" x2="1262.61" y2="194.76" fill="none" stroke="#000" stroke-linejoin="bevel" stroke-width="2.48"/><line x1="1370.67" y1="114.17" x2="1370.67" y2="190.66" fill="none" stroke="#000" stroke-linejoin="bevel" stroke-width="2.48"/><line x1="1508.48" y1="130.84" x2="1508.48" y2="66.74" fill="none" stroke="#000" stroke-linejoin="bevel" stroke-width="2.48"/><line x1="1616.54" y1="168.04" x2="1616.54" y2="78.87" fill="none" stroke="#000" stroke-linejoin="bevel" stroke-width="2.48"/><line x1="1724.6" y1="217.64" x2="1724.6" y2="134.81" fill="none" stroke="#000" stroke-linejoin="bevel" stroke-width="2.48"/><line x1="145.32" y1="138.98" x2="145.32" y2="234.01" fill="none" stroke="#000" stroke-linejoin="bevel" stroke-width="2.48"/><line x1="253.38" y1="176.18" x2="253.38" y2="234.01" fill="none" stroke="#000" stroke-linejoin="bevel" stroke-width="2.48"/><line x1="361.44" y1="138.98" x2="361.44" y2="234.01" fill="none" stroke="#000" stroke-linejoin="bevel" stroke-width="2.48"/><line x1="469.5" y1="114.17" x2="469.5" y2="234.01" fill="none" stroke="#000" stroke-linejoin="bevel" stroke-width="2.48"/><path d="M144.08,138.98c0,4.26,3.07,9.02,11.11,9.02,10.31,0,21.13-8.43,21.13-17.16,0-5.86-4.96-9.13-11.11-9.13-9.63,0-21.13,8.14-21.13,17.27"/><path d="M252.14,176.18c0,4.26,3.07,9.02,11.11,9.02,10.31,0,21.13-8.43,21.13-17.16,0-5.86-4.96-9.13-11.11-9.13-9.63,0-21.13,8.14-21.13,17.27"/><path d="M360.2,138.98c0,4.26,3.07,9.02,11.11,9.02,10.31,0,21.13-8.43,21.13-17.16,0-5.86-4.96-9.13-11.11-9.13-9.63,0-21.13,8.14-21.13,17.27"/><path d="M468.26,114.18c0,4.26,3.07,9.02,11.11,9.02,10.31,0,21.13-8.43,21.13-17.16,0-5.86-4.96-9.13-11.11-9.13-9.63,0-21.13,8.14-21.13,17.27"/><path d="M576.32,138.98c0,4.26,3.07,9.02,11.11,9.02,10.31,0,21.13-8.43,21.13-17.16,0-5.86-4.96-9.13-11.11-9.13-9.63,0-21.13,8.14-21.13,17.27"/><path d="M684.37,176.18c0,4.26,3.07,9.02,11.11,9.02,10.31,0,21.13-8.43,21.13-17.16,0-5.86-4.96-9.13-11.11-9.13-9.63,0-21.13,8.14-21.13,17.27"/><path d="M792.43,225.78c0,4.26,3.07,9.02,11.11,9.02,10.31,0,21.13-8.43,21.13-17.16,0-5.86-4.96-9.13-11.11-9.13-9.63,0-21.13,8.14-21.13,17.27"/><path d="M900.49,176.18c0,4.26,3.07,9.02,11.11,9.02,10.31,0,21.13-8.43,21.13-17.16,0-5.86-4.96-9.13-11.11-9.13-9.63,0-21.13,8.14-21.13,17.27"/><path d="M1045.25,138.98c0,4.26,3.07,9.02,11.11,9.02,10.31,0,21.13-8.43,21.13-17.16,0-5.86-4.96-9.13-11.11-9.13-9.63,0-21.13,8.14-21.13,17.27"/><path d="M1153.31,114.18c0,4.26,3.07,9.02,11.11,9.02,10.31,0,21.13-8.43,21.13-17.16,0-5.86-4.96-9.13-11.11-9.13-9.63,0-21.13,8.14-21.13,17.27"/><path d="M1261.37,89.38c0,4.26,3.07,9.02,11.11,9.02,10.31,0,21.13-8.43,21.13-17.16,0-5.86-4.96-9.13-11.11-9.13-9.63,0-21.13,8.14-21.13,17.27"/><path d="M1369.43,114.18c0,4.26,3.07,9.02,11.11,9.02,10.31,0,21.13-8.43,21.13-17.16,0-5.86-4.96-9.13-11.11-9.13-9.63,0-21.13,8.14-21.13,17.27"/><path d="M1477.49,138.98c0,4.26,3.07,9.02,11.11,9.02,10.31,0,21.13-8.43,21.13-17.16,0-5.86-4.96-9.13-11.11-9.13-9.63,0-21.13,8.14-21.13,17.27"/><path d="M1693.6,225.78c0,4.26,3.07,9.02,11.11,9.02,10.31,0,21.13-8.43,21.13-17.16,0-5.86-4.96-9.13-11.11-9.13-9.63,0-21.13,8.14-21.13,17.27"/><path d="M1585.55,176.18c0,4.26,3.07,9.02,11.11,9.02,10.31,0,21.13-8.43,21.13-17.16,0-5.86-4.96-9.13-11.11-9.13-9.63,0-21.13,8.14-21.13,17.27"/><path d="M30.8,222.89c0,6.56,4.96,15.19,18.35,15.19,4.67,0,8.74-1.19,12.31-3.38,5.36-3.77,6.74-10.32,6.74-16.57,0-3.86-.59-8.32-1.58-13.98-.29-1.98-.9-4.96-1.49-8.84,9.72-3.18,16.96-13.3,16.96-23.51,0-14.97-10.62-25.09-25.09-25.09-.99-5.95-1.98-11.81-2.77-17.36,10.42-11.02,17.65-23.42,17.65-39.18,0-9.04-2.77-16.37-4.37-19.95-2.37-5.05-5.25-8.53-7.04-8.53-.7,0-3.77,1.19-7.04,5.05-6.36,7.55-8.14,20.24-8.14,28.57,0,5.36,.5,10.23,2.19,21.34-.11,.09-5.27,5.35-7.35,7.04-9.04,8.34-21.53,20.43-21.53,40.28,0,18.54,16.17,33.12,34.63,33.12,2.87,0,5.55-.29,7.83-.7,1.89,9.53,3.08,16.48,3.08,21.73,0,10.32-5.36,15.78-15.38,15.78-2.39,0-4.46-.5-4.67-.5-.09-.11-.29-.2-.29-.29,0-.2,.2-.31,.5-.31,4.67-.79,9.32-4.76,9.32-11.1,0-5.36-4.06-11.02-11.5-11.02-6.94,0-11.31,5.66-11.31,12.2M51.54,90.46c.9-3.97,5.46-14.38,10.62-14.38,1.49,0,3.86,4.76,3.86,11.7,0,10.32-7.63,18.06-14.48,24.8-.59-3.97-1.08-7.83-1.08-12,0-3.67,.29-7.05,1.08-10.12m8.73,101.97c-1.98,.4-3.86,.6-5.75,.6-14.18,0-26.29-9.92-26.29-24.91,0-12.09,8.53-22.91,17.27-30.46,1.67-1.49,3.27-2.87,4.76-4.36,.88,5.35,1.58,10.01,2.28,14.09-9.04,2.68-15.17,12.2-15.17,21.53,0,6.94,5.46,16.46,13.39,16.46,.79,0,1.69-.4,1.69-1.29s-.99-1.39-2.19-2.19c-3.88-2.39-6.06-4.96-6.06-9.83,0-6.05,4.57-10.91,10.32-12.29l5.75,32.63m14.09-18.35c0,7.05-2.88,14.29-9.92,17.17-2.08-11.9-4.76-27.68-5.46-32.05,8.93,0,15.38,6.06,15.38,14.88"/><path d="M2043.91,121.91c-.81,0-1.4,.59-1.4,1.4v10.71c0,.79,.59,1.38,1.4,1.38h29.47c.79,0,1.38-.59,1.38-1.38v-10.71c0-.81-.59-1.4-1.38-1.4h-29.47"/><path d="M1516.33,24.65c-9.32-10.12-17.56-10.71-22.71-10.71s-13.3,.59-22.63,10.71c-4.85,5.36-8.23,15.97-8.23,21.33,0,1.89,.4,3.18,1.4,3.18,2.77,0,1.38-8.54,9.72-16.97,7.33-7.33,17.16-7.44,19.55-7.44h.39c2.39,0,12.21,.11,19.55,7.44,8.34,8.43,6.94,16.97,9.72,16.97,.99,0,1.39-1.19,1.39-3.18,0-5.36-3.27-16.07-8.14-21.33m-29.56,18.94c0,3.78,3.07,6.85,6.85,6.85s6.84-3.07,6.84-6.85-3.07-6.84-6.84-6.84-6.85,3.07-6.85,6.84"/><path d="M615.16,24.68c-9.32-10.12-17.56-10.71-22.71-10.71s-13.3,.59-22.63,10.71c-4.85,5.36-8.23,15.97-8.23,21.33,0,1.89,.4,3.18,1.4,3.18,2.77,0,1.38-8.54,9.72-16.97,7.33-7.33,17.16-7.44,19.55-7.44h.39c2.39,0,12.21,.11,19.55,7.44,8.34,8.43,6.94,16.97,9.72,16.97,.99,0,1.39-1.19,1.39-3.18,0-5.36-3.27-16.07-8.14-21.33m-29.56,18.94c0,3.78,3.07,6.85,6.85,6.85s6.84-3.07,6.84-6.85-3.07-6.84-6.84-6.84-6.85,3.07-6.85,6.84"/><path d="M1732.45,59.41c-9.32-10.12-17.56-10.71-22.71-10.71s-13.3,.59-22.63,10.71c-4.85,5.36-8.23,15.97-8.23,21.33,0,1.89,.4,3.18,1.4,3.18,2.77,0,1.38-8.54,9.72-16.97,7.33-7.33,17.16-7.44,19.55-7.44h.39c2.39,0,12.21,.11,19.55,7.44,8.34,8.43,6.94,16.97,9.72,16.97,.99,0,1.39-1.19,1.39-3.18,0-5.36-3.27-16.07-8.14-21.33m-29.56,18.94c0,3.78,3.07,6.85,6.85,6.85s6.84-3.07,6.84-6.85-3.07-6.84-6.84-6.84-6.85,3.07-6.85,6.84"/><path d="M182.92,59.41c-9.32-10.12-17.56-10.71-22.71-10.71s-13.3,.59-22.63,10.71c-4.85,5.36-8.23,15.97-8.23,21.33,0,1.89,.4,3.18,1.4,3.18,2.77,0,1.38-8.54,9.72-16.97,7.33-7.33,17.16-7.44,19.55-7.44h.39c2.39,0,12.21,.11,19.55,7.44,8.34,8.43,6.94,16.97,9.72,16.97,.99,0,1.39-1.19,1.39-3.18,0-5.36-3.27-16.07-8.14-21.33m-29.56,18.94c0,3.78,3.07,6.85,6.85,6.85s6.84-3.07,6.84-6.85-3.07-6.84-6.84-6.84-6.85,3.07-6.85,6.84"/><path d="M1507.24,60.37l110.54,12.4v12.48l-110.54-12.4v-12.48" fill-rule="evenodd"/><path d="M1045.25,196.8l326.66-12.4v12.41l-326.66,12.4v-12.41" fill-rule="evenodd"/><path d="M606.07,60.4l326.65,18.6v12.42l-326.65-18.6v-12.42" fill-rule="evenodd"/><path d="M144.08,227.81H470.74v12.4H144.08v-12.4" fill-rule="evenodd"/><path d="M156.28,0c-7,0-12.11,7.59-12.11,18.11s4.95,17.84,11.7,17.84,11.91-7.3,11.91-17.7c0-5.3-1.11-9.7-3.2-13.16-1.95-3.14-5.16-5.09-8.3-5.09m-.36,2.16c1.66,0,3.25,1.09,4.45,3.09,1.36,2.34,1.8,5.2,1.8,12.05s-.34,10.36-1.34,12.56c-1.16,2.44-2.95,3.94-4.84,3.94-1.7,0-3.25-1.09-4.45-3.09-1.41-2.34-1.8-5.45-1.8-13.66,0-5.84,.34-8.75,1.34-10.95,1.16-2.5,2.95-3.94,4.84-3.94"/></g></svg>