<?xml version="1.0" encoding="UTF-8"?><svg id="b" xmlns="http://www.w3.org/2000/svg" viewBox="0 0 2455.2 335.12"><g id="c"><line y1="97.61" x2="2455.2" y2="97.61" fill="none" stroke="#000" stroke-linejoin="bevel" stroke-width="2.73"/><line y1="122.41" x2="2455.2" y2="122.41" fill="none" stroke="#000" stroke-linejoin="bevel" stroke-width="2.73"/><line y1="147.21" x2="2455.2" y2="147.21" fill="none" stroke="#000" stroke-linejoin="bevel" stroke-width="2.73"/><line y1="172.01" x2="2455.2" y2="172.01" fill="none" stroke="#000" stroke-linejoin="bevel" stroke-width="2.73"/><line y1="196.81" x2="2455.2" y2="196.81" fill="none" stroke="#000" stroke-linejoin="bevel" stroke-width="2.73"/><path d="M149.04,249.14c310.78,108.54,1759.78,104.89,2070.01-5.21-310.21,118.04-1759.21,121.68-2070.01,5.21" fill-rule="evenodd" stroke="#000" stroke-linecap="round" stroke-linejoin="round" stroke-width="1.24"/><line x1="1335.82" y1="96.24" x2="1335.82" y2="198.17" fill="none" stroke="#000" stroke-linejoin="bevel" stroke-width="4.46"/><line x1="2439.33" y1="96.24" x2="2439.33" y2="198.17" fill="none" stroke="#000" stroke-linejoin="bevel" stroke-width="4.46"/><line x1="2452.97" y1="96.24" x2="2452.97" y2="198.17" fill="none" stroke="#000" stroke-linejoin="bevel" stroke-width="4.46"/><line x1="1952.31" y1="96.24" x2="1952.31" y2="198.17" fill="none" stroke="#000" stroke-linejoin="bevel" stroke-width="4.46"/><line x1="722.72" y1="96.24" x2="722.72" y2="198.17" fill="none" stroke="#000" stroke-linejoin="bevel" stroke-width="4.46"/><path d="M1711.32,45.03c-4.96,0-7.84,3.07-8.34,3.67l.4-31.85c0-.79-.59-1.38-1.4-1.38h-1.18c-.81,0-1.4,.59-1.4,1.38l.5,59.63c0,.79,.59,1.38,1.4,1.38,.19,0,.59-.09,.79-.19,8.53-4.28,17.45-12.4,17.45-22.63,0-5.15-2.37-10.01-8.23-10.01m-8.63,27.98l.29-19.34c.2-.9,1.69-3.77,5.66-3.77,3.58,0,3.87,3.36,3.87,5.46,0,8.82-3.27,12.49-9.83,17.65"/><line x1="2194.75" y1="221.61" x2="2243.35" y2="221.61" fill="none" stroke="#000" stroke-linejoin="bevel" stroke-width="3.97"/><line x1="1725.74" y1="72.81" x2="1774.34" y2="72.81" fill="none" stroke="#000" stroke-linejoin="bevel" stroke-width="3.97"/><line x1="1253.35" y1="221.61" x2="1301.95" y2="221.61" fill="none" stroke="#000" stroke-linejoin="bevel" stroke-width="3.97"/><line x1="145.32" y1="138.98" x2="145.32" y2="234.01" fill="none" stroke="#000" stroke-linejoin="bevel" stroke-width="2.48"/><line x1="217.37" y1="176.18" x2="217.37" y2="234.01" fill="none" stroke="#000" stroke-linejoin="bevel" stroke-width="2.48"/><line x1="289.42" y1="138.98" x2="289.42" y2="234.01" fill="none" stroke="#000" stroke-linejoin="bevel" stroke-width="2.48"/><line x1="361.47" y1="114.17" x2="361.47" y2="234.01" fill="none" stroke="#000" stroke-linejoin="bevel" stroke-width="2.48"/><line x1="463.27" y1="130.84" x2="463.27" y2="66.71" fill="none" stroke="#000" stroke-linejoin="bevel" stroke-width="2.48"/><line x1="535.32" y1="168.04" x2="535.32" y2="72.84" fill="none" stroke="#000" stroke-linejoin="bevel" stroke-width="2.48"/><line x1="607.38" y1="192.84" x2="607.38" y2="78.97" fill="none" stroke="#000" stroke-linejoin="bevel" stroke-width="2.48"/><line x1="679.43" y1="168.04" x2="679.43" y2="85.1" fill="none" stroke="#000" stroke-linejoin="bevel" stroke-width="2.48"/><line x1="758.43" y1="138.98" x2="758.43" y2="202.94" fill="none" stroke="#000" stroke-linejoin="bevel" stroke-width="2.48"/><line x1="830.48" y1="114.17" x2="830.48" y2="198.85" fill="none" stroke="#000" stroke-linejoin="bevel" stroke-width="2.48"/><line x1="902.53" y1="89.37" x2="902.53" y2="194.77" fill="none" stroke="#000" stroke-linejoin="bevel" stroke-width="2.48"/><line x1="974.58" y1="114.17" x2="974.58" y2="190.68" fill="none" stroke="#000" stroke-linejoin="bevel" stroke-width="2.48"/><line x1="1076.38" y1="130.84" x2="1076.38" y2="66.71" fill="none" stroke="#000" stroke-linejoin="bevel" stroke-width="2.48"/><line x1="1148.43" y1="168.04" x2="1148.43" y2="72.84" fill="none" stroke="#000" stroke-linejoin="bevel" stroke-width="2.48"/><line x1="1220.48" y1="192.84" x2="1220.48" y2="78.97" fill="none" stroke="#000" stroke-linejoin="bevel" stroke-width="2.48"/><line x1="1292.53" y1="217.64" x2="1292.53" y2="85.1" fill="none" stroke="#000" stroke-linejoin="bevel" stroke-width="2.48"/><line x1="1401.28" y1="192.84" x2="1401.28" y2="72.66" fill="none" stroke="#000" stroke-linejoin="bevel" stroke-width="2.48"/><line x1="1473.34" y1="168.04" x2="1473.34" y2="64.49" fill="none" stroke="#000" stroke-linejoin="bevel" stroke-width="2.48"/><line x1="1545.39" y1="130.84" x2="1545.39" y2="56.32" fill="none" stroke="#000" stroke-linejoin="bevel" stroke-width="2.48"/><line x1="1617.44" y1="106.04" x2="1617.44" y2="48.15" fill="none" stroke="#000" stroke-linejoin="bevel" stroke-width="2.48"/><line x1="1659.73" y1="89.37" x2="1659.73" y2="165.88" fill="none" stroke="#000" stroke-linejoin="bevel" stroke-width="2.48"/><line x1="1735.16" y1="64.57" x2="1735.16" y2="170.09" fill="none" stroke="#000" stroke-linejoin="bevel" stroke-width="2.48"/><line x1="1807.21" y1="89.37" x2="1807.21" y2="174.12" fill="none" stroke="#000" stroke-linejoin="bevel" stroke-width="2.48"/><line x1="1879.27" y1="114.17" x2="1879.27" y2="178.14" fill="none" stroke="#000" stroke-linejoin="bevel" stroke-width="2.48"/><line x1="2017.77" y1="130.84" x2="2017.77" y2="66.76" fill="none" stroke="#000" stroke-linejoin="bevel" stroke-width="2.48"/><line x1="2089.82" y1="168.04" x2="2089.82" y2="75.91" fill="none" stroke="#000" stroke-linejoin="bevel" stroke-width="2.48"/><line x1="2161.87" y1="192.84" x2="2161.87" y2="85.05" fill="none" stroke="#000" stroke-linejoin="bevel" stroke-width="2.48"/><line x1="2233.92" y1="217.64" x2="2233.92" y2="134.81" fill="none" stroke="#000" stroke-linejoin="bevel" stroke-width="2.48"/><path d="M1805.97,89.38c0,4.26,3.07,9.02,11.11,9.02,10.31,0,21.13-8.43,21.13-17.16,0-5.86-4.96-9.13-11.11-9.13-9.63,0-21.13,8.14-21.13,17.27"/><path d="M144.08,138.98c0,4.26,3.07,9.02,11.11,9.02,10.31,0,21.13-8.43,21.13-17.16,0-5.86-4.96-9.13-11.11-9.13-9.63,0-21.13,8.14-21.13,17.27"/><path d="M216.13,176.18c0,4.26,3.07,9.02,11.11,9.02,10.31,0,21.13-8.43,21.13-17.16,0-5.86-4.96-9.13-11.11-9.13-9.63,0-21.13,8.14-21.13,17.27"/><path d="M288.18,138.98c0,4.26,3.07,9.02,11.11,9.02,10.31,0,21.13-8.43,21.13-17.16,0-5.86-4.96-9.13-11.11-9.13-9.63,0-21.13,8.14-21.13,17.27"/><path d="M360.23,114.18c0,4.26,3.07,9.02,11.11,9.02,10.31,0,21.13-8.43,21.13-17.16,0-5.86-4.96-9.13-11.11-9.13-9.63,0-21.13,8.14-21.13,17.27"/><path d="M432.28,138.98c0,4.26,3.07,9.02,11.11,9.02,10.31,0,21.13-8.43,21.13-17.16,0-5.86-4.96-9.13-11.11-9.13-9.63,0-21.13,8.14-21.13,17.27"/><path d="M504.33,176.18c0,4.26,3.07,9.02,11.11,9.02,10.31,0,21.13-8.43,21.13-17.16,0-5.86-4.96-9.13-11.11-9.13-9.63,0-21.13,8.14-21.13,17.27"/><path d="M576.38,200.98c0,4.26,3.07,9.02,11.11,9.02,10.31,0,21.13-8.43,21.13-17.16,0-5.86-4.96-9.13-11.11-9.13-9.63,0-21.13,8.14-21.13,17.27"/><path d="M648.43,176.18c0,4.26,3.07,9.02,11.11,9.02,10.31,0,21.13-8.43,21.13-17.16,0-5.86-4.96-9.13-11.11-9.13-9.63,0-21.13,8.14-21.13,17.27"/><path d="M757.19,138.98c0,4.26,3.07,9.02,11.11,9.02,10.31,0,21.13-8.43,21.13-17.16,0-5.86-4.96-9.13-11.11-9.13-9.63,0-21.13,8.14-21.13,17.27"/><path d="M829.24,114.18c0,4.26,3.07,9.02,11.11,9.02,10.31,0,21.13-8.43,21.13-17.16,0-5.86-4.96-9.13-11.11-9.13-9.63,0-21.13,8.14-21.13,17.27"/><path d="M901.29,89.38c0,4.26,3.07,9.02,11.11,9.02,10.31,0,21.13-8.43,21.13-17.16,0-5.86-4.96-9.13-11.11-9.13-9.63,0-21.13,8.14-21.13,17.27"/><path d="M973.34,114.18c0,4.26,3.07,9.02,11.11,9.02,10.31,0,21.13-8.43,21.13-17.16,0-5.86-4.96-9.13-11.11-9.13-9.63,0-21.13,8.14-21.13,17.27"/><path d="M1045.39,138.98c0,4.26,3.07,9.02,11.11,9.02,10.31,0,21.13-8.43,21.13-17.16,0-5.86-4.96-9.13-11.11-9.13-9.63,0-21.13,8.14-21.13,17.27"/><path d="M1117.44,176.18c0,4.26,3.07,9.02,11.11,9.02,10.31,0,21.13-8.43,21.13-17.16,0-5.86-4.96-9.13-11.11-9.13-9.63,0-21.13,8.14-21.13,17.27"/><path d="M1189.49,200.98c0,4.26,3.07,9.02,11.11,9.02,10.31,0,21.13-8.43,21.13-17.16,0-5.86-4.96-9.13-11.11-9.13-9.63,0-21.13,8.14-21.13,17.27"/><path d="M1261.54,225.78c0,4.26,3.07,9.02,11.11,9.02,10.31,0,21.13-8.43,21.13-17.16,0-5.86-4.96-9.13-11.11-9.13-9.63,0-21.13,8.14-21.13,17.27"/><path d="M1370.29,200.98c0,4.26,3.07,9.02,11.11,9.02,10.31,0,21.13-8.43,21.13-17.16,0-5.86-4.96-9.13-11.11-9.13-9.63,0-21.13,8.14-21.13,17.27"/><path d="M1442.34,176.18c0,4.26,3.07,9.02,11.11,9.02,10.31,0,21.13-8.43,21.13-17.16,0-5.86-4.96-9.13-11.11-9.13-9.63,0-21.13,8.14-21.13,17.27"/><path d="M1514.39,138.98c0,4.26,3.07,9.02,11.11,9.02,10.31,0,21.13-8.43,21.13-17.16,0-5.86-4.96-9.13-11.11-9.13-9.63,0-21.13,8.14-21.13,17.27"/><path d="M1586.44,114.18c0,4.26,3.07,9.02,11.11,9.02,10.31,0,21.13-8.43,21.13-17.16,0-5.86-4.96-9.13-11.11-9.13-9.63,0-21.13,8.14-21.13,17.27"/><path d="M1658.49,89.38c0,4.26,3.07,9.02,11.11,9.02,10.31,0,21.13-8.43,21.13-17.16,0-5.86-4.96-9.13-11.11-9.13-9.63,0-21.13,8.14-21.13,17.27"/><path d="M1733.92,64.58c0,4.26,3.07,9.02,11.11,9.02,10.31,0,21.13-8.43,21.13-17.16,0-5.86-4.96-9.13-11.11-9.13-9.63,0-21.13,8.14-21.13,17.27"/><path d="M1878.03,114.18c0,4.26,3.07,9.02,11.11,9.02,10.31,0,21.13-8.43,21.13-17.16,0-5.86-4.96-9.13-11.11-9.13-9.63,0-21.13,8.14-21.13,17.27"/><path d="M1986.78,138.98c0,4.26,3.07,9.02,11.11,9.02,10.31,0,21.13-8.43,21.13-17.16,0-5.86-4.96-9.13-11.11-9.13-9.63,0-21.13,8.14-21.13,17.27"/><path d="M2058.83,176.18c0,4.26,3.07,9.02,11.11,9.02,10.31,0,21.13-8.43,21.13-17.16,0-5.86-4.96-9.13-11.11-9.13-9.63,0-21.13,8.14-21.13,17.27"/><path d="M2130.88,200.98c0,4.26,3.07,9.02,11.11,9.02,10.31,0,21.13-8.43,21.13-17.16,0-5.86-4.96-9.13-11.11-9.13-9.63,0-21.13,8.14-21.13,17.27"/><path d="M2224.06,208.51c-9.63,0-21.13,8.04-21.13,17.27,0,4.26,3.07,9.02,11.11,9.02,10.31,0,21.13-8.43,21.13-17.16,0-5.86-4.96-9.13-11.11-9.13m-13.69,21.62c-3.27,0-3.97-2.67-3.97-3.57,0-4.87,16.66-13.39,21.33-13.39,2.39,0,3.97,1.4,3.97,3.57,0,4.96-16.77,13.39-21.33,13.39"/><path d="M30.8,222.89c0,6.56,4.96,15.19,18.35,15.19,4.67,0,8.74-1.19,12.31-3.38,5.36-3.77,6.74-10.32,6.74-16.57,0-3.86-.59-8.32-1.58-13.98-.29-1.98-.9-4.96-1.49-8.84,9.72-3.18,16.96-13.3,16.96-23.51,0-14.97-10.62-25.09-25.09-25.09-.99-5.95-1.98-11.81-2.77-17.36,10.42-11.02,17.65-23.42,17.65-39.18,0-9.04-2.77-16.37-4.37-19.95-2.37-5.05-5.25-8.53-7.04-8.53-.7,0-3.77,1.19-7.04,5.05-6.36,7.55-8.14,20.24-8.14,28.57,0,5.36,.5,10.23,2.19,21.34-.11,.09-5.27,5.35-7.35,7.04-9.04,8.34-21.53,20.43-21.53,40.28,0,18.54,16.17,33.12,34.63,33.12,2.87,0,5.55-.29,7.83-.7,1.89,9.53,3.08,16.48,3.08,21.73,0,10.32-5.36,15.78-15.38,15.78-2.39,0-4.46-.5-4.67-.5-.09-.11-.29-.2-.29-.29,0-.2,.2-.31,.5-.31,4.67-.79,9.32-4.76,9.32-11.1,0-5.36-4.06-11.02-11.5-11.02-6.94,0-11.31,5.66-11.31,12.2M51.54,90.46c.9-3.97,5.46-14.38,10.62-14.38,1.49,0,3.86,4.76,3.86,11.7,0,10.32-7.63,18.06-14.48,24.8-.59-3.97-1.08-7.83-1.08-12,0-3.67,.29-7.05,1.08-10.12m8.73,101.97c-1.98,.4-3.86,.6-5.75,.6-14.18,0-26.29-9.92-26.29-24.91,0-12.09,8.53-22.91,17.27-30.46,1.67-1.49,3.27-2.87,4.76-4.36,.88,5.35,1.58,10.01,2.28,14.09-9.04,2.68-15.17,12.2-15.17,21.53,0,6.94,5.46,16.46,13.39,16.46,.79,0,1.69-.4,1.69-1.29s-.99-1.39-2.19-2.19c-3.88-2.39-6.06-4.96-6.06-9.83,0-6.05,4.57-10.91,10.32-12.29l5.75,32.63m14.09-18.35c0,7.05-2.88,14.29-9.92,17.17-2.08-11.9-4.76-27.68-5.46-32.05,8.93,0,15.38,6.06,15.38,14.88"/><path d="M2391.53,127.07c-.09,0-.29-.11-.4-.11-.59,0-1.09,.31-1.29,.81-2.28,4.56-7.04,10.71-12.4,11.7,1.09-1.29,1.78-2.88,1.78-4.76,0-3.87-3.18-7.05-7.04-7.05s-7.15,3.18-7.15,7.05c0,5.35,5.25,7.83,9.92,7.83,5.25,0,8.73-2.48,12.11-6.15l-11.31,35.32,2.68,.79,13.89-43.74c.11-.11,.11-.31,.11-.5,0-.5-.31-.9-.9-1.19"/><path d="M182.92,59.41c-9.32-10.12-17.56-10.71-22.71-10.71s-13.3,.59-22.63,10.71c-4.85,5.36-8.23,15.97-8.23,21.33,0,1.89,.4,3.18,1.4,3.18,2.77,0,1.38-8.54,9.72-16.97,7.33-7.33,17.16-7.44,19.55-7.44h.39c2.39,0,12.21,.11,19.55,7.44,8.34,8.43,6.94,16.97,9.72,16.97,.99,0,1.39-1.19,1.39-3.18,0-5.36-3.27-16.07-8.14-21.33m-29.56,18.94c0,3.78,3.07,6.85,6.85,6.85s6.84-3.07,6.84-6.85-3.07-6.84-6.84-6.84-6.85,3.07-6.85,6.84"/><path d="M471.12,24.67c-9.32-10.12-17.56-10.71-22.71-10.71s-13.3,.59-22.63,10.71c-4.85,5.36-8.23,15.97-8.23,21.33,0,1.89,.4,3.18,1.4,3.18,2.77,0,1.38-8.54,9.72-16.97,7.33-7.33,17.16-7.44,19.55-7.44h.39c2.39,0,12.21,.11,19.55,7.44,8.34,8.43,6.94,16.97,9.72,16.97,.99,0,1.39-1.19,1.39-3.18,0-5.36-3.27-16.07-8.14-21.33m-29.56,18.94c0,3.78,3.07,6.85,6.85,6.85s6.84-3.07,6.84-6.85-3.07-6.84-6.84-6.84-6.85,3.07-6.85,6.84"/><path d="M1084.23,24.67c-9.32-10.12-17.56-10.71-22.71-10.71s-13.3,.59-22.63,10.71c-4.85,5.36-8.23,15.97-8.23,21.33,0,1.89,.4,3.18,1.4,3.18,2.77,0,1.38-8.54,9.72-16.97,7.33-7.33,17.16-7.44,19.55-7.44h.39c2.39,0,12.21,.11,19.55,7.44,8.34,8.43,6.94,16.97,9.72,16.97,.99,0,1.39-1.19,1.39-3.18,0-5.36-3.27-16.07-8.14-21.33m-29.56,18.94c0,3.78,3.07,6.85,6.85,6.85s6.84-3.07,6.84-6.85-3.07-6.84-6.84-6.84-6.85,3.07-6.85,6.84"/><path d="M2025.62,24.64c-9.32-10.12-17.56-10.71-22.71-10.71s-13.3,.59-22.63,10.71c-4.85,5.36-8.23,15.97-8.23,21.33,0,1.89,.4,3.18,1.4,3.18,2.77,0,1.38-8.54,9.72-16.97,7.33-7.33,17.16-7.44,19.55-7.44h.39c2.39,0,12.21,.11,19.55,7.44,8.34,8.43,6.94,16.97,9.72,16.97,.99,0,1.39-1.19,1.39-3.18,0-5.36-3.27-16.07-8.14-21.33m-29.56,18.94c0,3.78,3.07,6.85,6.85,6.85s6.84-3.07,6.84-6.85-3.07-6.84-6.84-6.84-6.85,3.07-6.85,6.84"/><path d="M2016.53,60.36l146.58,18.6v12.5l-146.58-18.6v-12.5" fill-rule="evenodd"/><path d="M1658.49,159.6l222.02,12.4v12.42l-222.02-12.4v-12.42" fill-rule="evenodd"/><path d="M1400.04,66.57l218.64-24.8v12.48l-218.64,24.8v-12.48" fill-rule="evenodd"/><path d="M1075.14,60.38l218.63,18.6v12.45l-218.63-18.6v-12.45" fill-rule="evenodd"/><path d="M757.19,196.8l218.63-12.4v12.42l-218.63,12.4v-12.42" fill-rule="evenodd"/><path d="M462.03,60.38l218.63,18.6v12.45l-218.63-18.6v-12.45" fill-rule="evenodd"/><path d="M144.08,227.81h218.63v12.4H144.08v-12.4" fill-rule="evenodd"/><path d="M2141.97,25.15c-1.68,2.05-6.29,3.59-10.89,3.7v2.14h4.39c2.91,.06,3.21,.36,3.11,3.16v20.05c0,2.56,0,2.66-.29,3.11-.41,.5-1.36,.7-4.16,.7h-3.25v2.34h19.8v-2.34h-2.75c-2.8,0-3.75-.2-4.14-.7-.36-.45-.36-.5-.36-3.11v-20.64c0-2.81,.11-5.16,.36-8.41h-1.82m37.16,24.41h-2.2l-.5,2.55c-.64,3.25-1.05,3.55-4.14,3.55h-11.21c3.46-3.59,4.6-4.64,7.8-7.14,4.55-3.5,6.5-5.25,7.66-6.75,1.59-2.2,2.39-4.41,2.39-6.86,0-5.7-4.71-9.75-11.25-9.75s-11.21,4.05-11.21,9.41c0,3.14,1.61,5.3,3.96,5.3,1.86,0,3.11-1.25,3.11-3.05,0-1.25-.71-2.41-1.75-2.86-1.86-.75-1.96-.84-1.96-1.5,0-.75,.5-1.89,1.21-2.75,1.25-1.55,3.29-2.39,5.64-2.39,4.15,0,6.61,2.55,6.61,6.75,0,3.7-1.75,7.05-5.91,11.45-3.7,3.89-6,6.34-6.84,7.3-1.82,2.09-2.71,3.25-4.91,6.14v1.41h22.55l.95-10.8"/><path d="M1381.39,16.21c-1.69,2.05-6.3,3.59-10.89,3.7v2.14h4.39c2.9,.06,3.2,.36,3.11,3.16v20.05c0,2.56,0,2.66-.3,3.11-.41,.5-1.36,.7-4.16,.7h-3.25v2.34h19.8v-2.34h-2.75c-2.8,0-3.75-.2-4.14-.7-.36-.45-.36-.5-.36-3.11V24.61c0-2.81,.11-5.16,.36-8.41h-1.81m37.15,24.41h-2.2l-.5,2.55c-.64,3.25-1.05,3.55-4.14,3.55h-11.2c3.45-3.59,4.59-4.64,7.79-7.14,4.55-3.5,6.5-5.25,7.66-6.75,1.59-2.2,2.39-4.41,2.39-6.86,0-5.7-4.7-9.75-11.25-9.75s-11.2,4.05-11.2,9.41c0,3.14,1.61,5.3,3.95,5.3,1.86,0,3.11-1.25,3.11-3.05,0-1.25-.7-2.41-1.75-2.86-1.86-.75-1.95-.84-1.95-1.5,0-.75,.5-1.89,1.2-2.75,1.25-1.55,3.3-2.39,5.64-2.39,4.16,0,6.61,2.55,6.61,6.75,0,3.7-1.75,7.05-5.91,11.45-3.7,3.89-6,6.34-6.84,7.3-1.81,2.09-2.7,3.25-4.91,6.14v1.41h22.55l.95-10.8"/><path d="M1200.58,21.05c-1.69,2.05-6.3,3.59-10.89,3.7v2.14h4.39c2.91,.06,3.2,.36,3.11,3.16v20.05c0,2.56,0,2.66-.3,3.11-.4,.5-1.36,.7-4.15,.7h-3.25v2.34h19.79v-2.34h-2.75c-2.79,0-3.75-.2-4.14-.7-.36-.45-.36-.5-.36-3.11V29.45c0-2.81,.11-5.16,.36-8.41h-1.81m37.16,24.41h-2.21l-.5,2.55c-.64,3.25-1.04,3.55-4.14,3.55h-11.2c3.45-3.59,4.59-4.64,7.8-7.14,4.54-3.5,6.5-5.25,7.65-6.75,1.6-2.2,2.39-4.41,2.39-6.86,0-5.7-4.7-9.75-11.25-9.75s-11.2,4.05-11.2,9.41c0,3.14,1.61,5.3,3.95,5.3,1.86,0,3.11-1.25,3.11-3.05,0-1.25-.7-2.41-1.75-2.86-1.86-.75-1.95-.84-1.95-1.5,0-.75,.5-1.89,1.2-2.75,1.25-1.55,3.3-2.39,5.64-2.39,4.16,0,6.61,2.55,6.61,6.75,0,3.7-1.75,7.05-5.9,11.45-3.71,3.89-6,6.34-6.85,7.3-1.81,2.09-2.7,3.25-4.9,6.14v1.41h22.54l.96-10.8"/><path d="M587.48,21.05c-1.69,2.05-6.3,3.59-10.89,3.7v2.14h4.39c2.91,.06,3.2,.36,3.11,3.16v20.05c0,2.56,0,2.66-.3,3.11-.41,.5-1.36,.7-4.16,.7h-3.25v2.34h19.8v-2.34h-2.75c-2.8,0-3.75-.2-4.14-.7-.36-.45-.36-.5-.36-3.11V29.45c0-2.81,.11-5.16,.36-8.41h-1.81m37.16,24.41h-2.2l-.5,2.55c-.64,3.25-1.05,3.55-4.14,3.55h-11.2c3.45-3.59,4.59-4.64,7.8-7.14,4.55-3.5,6.5-5.25,7.66-6.75,1.59-2.2,2.39-4.41,2.39-6.86,0-5.7-4.7-9.75-11.25-9.75s-11.2,4.05-11.2,9.41c0,3.14,1.61,5.3,3.95,5.3,1.86,0,3.11-1.25,3.11-3.05,0-1.25-.7-2.41-1.75-2.86-1.86-.75-1.95-.84-1.95-1.5,0-.75,.5-1.89,1.2-2.75,1.25-1.55,3.3-2.39,5.64-2.39,4.16,0,6.61,2.55,6.61,6.75,0,3.7-1.75,7.05-5.91,11.45-3.7,3.89-6,6.34-6.84,7.3-1.81,2.09-2.7,3.25-4.91,6.14v1.41h22.55l.95-10.8"/><path d="M156.28,0c-7,0-12.11,7.59-12.11,18.11s4.95,17.84,11.7,17.84,11.91-7.3,11.91-17.7c0-5.3-1.11-9.7-3.2-13.16-1.95-3.14-5.16-5.09-8.3-5.09m-.36,2.16c1.66,0,3.25,1.09,4.45,3.09,1.36,2.34,1.8,5.2,1.8,12.05s-.34,10.36-1.34,12.56c-1.16,2.44-2.95,3.94-4.84,3.94-1.7,0-3.25-1.09-4.45-3.09-1.41-2.34-1.8-5.45-1.8-13.66,0-5.84,.34-8.75,1.34-10.95,1.16-2.5,2.95-3.94,4.84-3.94"/></g></svg>