<?xml version="1.0" encoding="UTF-8"?><svg id="b" xmlns="http://www.w3.org/2000/svg" viewBox="0 0 2275.2 353.4"><g id="c"><line y1="114.17" x2="2275.2" y2="114.17" fill="none" stroke="#000" stroke-linejoin="bevel" stroke-width="2.73"/><line y1="138.97" x2="2275.2" y2="138.97" fill="none" stroke="#000" stroke-linejoin="bevel" stroke-width="2.73"/><line y1="163.77" x2="2275.2" y2="163.77" fill="none" stroke="#000" stroke-linejoin="bevel" stroke-width="2.73"/><line y1="188.57" x2="2275.2" y2="188.57" fill="none" stroke="#000" stroke-linejoin="bevel" stroke-width="2.73"/><line y1="213.37" x2="2275.2" y2="213.37" fill="none" stroke="#000" stroke-linejoin="bevel" stroke-width="2.73"/><path d="M161.73,228.78c212.61,118.27,1320.51,160.21,1551.02,68.91-230.92,99.22-1338.81,57.29-1551.02-68.91" fill-rule="evenodd" stroke="#000" stroke-linecap="round" stroke-linejoin="round" stroke-width="1.24"/><line x1="2259.33" y1="112.81" x2="2259.33" y2="214.73" fill="none" stroke="#000" stroke-linejoin="bevel" stroke-width="4.46"/><line x1="2272.97" y1="112.81" x2="2272.97" y2="214.73" fill="none" stroke="#000" stroke-linejoin="bevel" stroke-width="4.46"/><line x1="1860.03" y1="112.81" x2="1860.03" y2="214.73" fill="none" stroke="#000" stroke-linejoin="bevel" stroke-width="4.46"/><line x1="1007.33" y1="112.81" x2="1007.33" y2="214.73" fill="none" stroke="#000" stroke-linejoin="bevel" stroke-width="4.46"/><path d="M131.19,173.19c-4.96,0-7.84,3.07-8.34,3.67l.4-31.85c0-.79-.59-1.38-1.4-1.38h-1.18c-.81,0-1.4,.59-1.4,1.38l.5,59.63c0,.79,.59,1.38,1.4,1.38,.19,0,.59-.09,.79-.19,8.53-4.28,17.45-12.4,17.45-22.63,0-5.15-2.37-10.01-8.23-10.01m-8.63,27.98l.29-19.34c.2-.9,1.69-3.77,5.66-3.77,3.58,0,3.87,3.36,3.87,5.46,0,8.82-3.27,12.49-9.83,17.65"/><path d="M238.62,210.39c-4.96,0-7.84,3.07-8.34,3.67l.4-31.85c0-.79-.59-1.38-1.4-1.38h-1.18c-.81,0-1.4,.59-1.4,1.38l.5,59.63c0,.79,.59,1.38,1.4,1.38,.19,0,.59-.09,.79-.19,8.53-4.28,17.45-12.4,17.45-22.63,0-5.15-2.37-10.01-8.23-10.01m-8.63,27.98l.29-19.34c.2-.9,1.69-3.77,5.66-3.77,3.58,0,3.87,3.36,3.87,5.46,0,8.82-3.27,12.49-9.83,17.65"/><path d="M453.49,148.39c-4.96,0-7.84,3.07-8.34,3.67l.4-31.85c0-.79-.59-1.38-1.4-1.38h-1.18c-.81,0-1.4,.59-1.4,1.38l.5,59.63c0,.79,.59,1.38,1.4,1.38,.19,0,.59-.09,.79-.19,8.53-4.28,17.45-12.4,17.45-22.63,0-5.15-2.37-10.01-8.23-10.01m-8.63,27.98l.29-19.34c.2-.9,1.69-3.77,5.66-3.77,3.58,0,3.87,3.36,3.87,5.46,0,8.82-3.27,12.49-9.83,17.65"/><path d="M767.62,259.99c-4.96,0-7.84,3.07-8.34,3.67l.4-31.85c0-.79-.59-1.38-1.4-1.38h-1.18c-.81,0-1.4,.59-1.4,1.38l.5,59.63c0,.79,.59,1.38,1.4,1.38,.19,0,.59-.09,.79-.19,8.53-4.28,17.45-12.4,17.45-22.63,0-5.15-2.37-10.01-8.23-10.01m-8.63,27.98l.29-19.34c.2-.9,1.69-3.77,5.66-3.77,3.58,0,3.87,3.36,3.87,5.46,0,8.82-3.27,12.49-9.83,17.65"/><path d="M1037.6,173.19c-4.96,0-7.84,3.07-8.34,3.67l.4-31.85c0-.79-.59-1.38-1.4-1.38h-1.18c-.81,0-1.4,.59-1.4,1.38l.5,59.63c0,.79,.59,1.38,1.4,1.38,.19,0,.59-.09,.79-.19,8.53-4.28,17.45-12.4,17.45-22.63,0-5.15-2.37-10.01-8.23-10.01m-8.63,27.98l.29-19.34c.2-.9,1.69-3.77,5.66-3.77,3.58,0,3.87,3.36,3.87,5.46,0,8.82-3.27,12.49-9.83,17.65"/><path d="M1145.03,148.39c-4.96,0-7.84,3.07-8.34,3.67l.4-31.85c0-.79-.59-1.38-1.4-1.38h-1.18c-.81,0-1.4,.59-1.4,1.38l.5,59.63c0,.79,.59,1.38,1.4,1.38,.19,0,.59-.09,.79-.19,8.53-4.28,17.45-12.4,17.45-22.63,0-5.15-2.37-10.01-8.23-10.01m-8.63,27.98l.29-19.34c.2-.9,1.69-3.77,5.66-3.77,3.58,0,3.87,3.36,3.87,5.46,0,8.82-3.27,12.49-9.83,17.65"/><path d="M1252.47,123.59c-4.96,0-7.84,3.07-8.34,3.67l.4-31.85c0-.79-.59-1.38-1.4-1.38h-1.18c-.81,0-1.4,.59-1.4,1.38l.5,59.63c0,.79,.59,1.38,1.4,1.38,.19,0,.59-.09,.79-.19,8.53-4.28,17.45-12.4,17.45-22.63,0-5.15-2.37-10.01-8.23-10.01m-8.63,27.98l.29-19.34c.2-.9,1.69-3.77,5.66-3.77,3.58,0,3.87,3.36,3.87,5.46,0,8.82-3.27,12.49-9.83,17.65"/><path d="M1574.78,210.39c-4.96,0-7.84,3.07-8.34,3.67l.4-31.85c0-.79-.59-1.38-1.4-1.38h-1.18c-.81,0-1.4,.59-1.4,1.38l.5,59.63c0,.79,.59,1.38,1.4,1.38,.19,0,.59-.09,.79-.19,8.53-4.28,17.45-12.4,17.45-22.63,0-5.15-2.37-10.01-8.23-10.01m-8.63,27.98l.29-19.34c.2-.9,1.69-3.77,5.66-3.77,3.58,0,3.87,3.36,3.87,5.46,0,8.82-3.27,12.49-9.83,17.65"/><path d="M1674.03,259.99c-4.96,0-7.84,3.07-8.34,3.67l.4-31.85c0-.79-.59-1.38-1.4-1.38h-1.18c-.81,0-1.4,.59-1.4,1.38l.5,59.63c0,.79,.59,1.38,1.4,1.38,.19,0,.59-.09,.79-.19,8.53-4.28,17.45-12.4,17.45-22.63,0-5.15-2.37-10.01-8.23-10.01m-8.63,27.98l.29-19.34c.2-.9,1.69-3.77,5.66-3.77,3.58,0,3.87,3.36,3.87,5.46,0,8.82-3.27,12.49-9.83,17.65"/><line x1="782.05" y1="238.17" x2="830.65" y2="238.17" fill="none" stroke="#000" stroke-linejoin="bevel" stroke-width="3.97"/><line x1="782.05" y1="262.97" x2="830.65" y2="262.97" fill="none" stroke="#000" stroke-linejoin="bevel" stroke-width="3.97"/><line x1="1688.45" y1="262.97" x2="1737.06" y2="262.97" fill="none" stroke="#000" stroke-linejoin="bevel" stroke-width="3.97"/><line x1="1688.45" y1="238.17" x2="1737.06" y2="238.17" fill="none" stroke="#000" stroke-linejoin="bevel" stroke-width="3.97"/><line x1="176.61" y1="184.6" x2="176.61" y2="101.75" fill="none" stroke="#000" stroke-linejoin="bevel" stroke-width="2.48"/><line x1="284.04" y1="221.8" x2="284.04" y2="99.7" fill="none" stroke="#000" stroke-linejoin="bevel" stroke-width="2.48"/><line x1="391.48" y1="184.6" x2="391.48" y2="97.65" fill="none" stroke="#000" stroke-linejoin="bevel" stroke-width="2.48"/><line x1="498.92" y1="159.8" x2="498.92" y2="95.59" fill="none" stroke="#000" stroke-linejoin="bevel" stroke-width="2.48"/><line x1="713.79" y1="221.8" x2="713.79" y2="116.25" fill="none" stroke="#000" stroke-linejoin="bevel" stroke-width="2.48"/><line x1="821.22" y1="271.4" x2="821.22" y2="118.3" fill="none" stroke="#000" stroke-linejoin="bevel" stroke-width="2.48"/><line x1="928.66" y1="221.8" x2="928.66" y2="120.35" fill="none" stroke="#000" stroke-linejoin="bevel" stroke-width="2.48"/><line x1="1053.26" y1="192.74" x2="1053.26" y2="250.52" fill="none" stroke="#000" stroke-linejoin="bevel" stroke-width="2.48"/><line x1="1160.7" y1="167.94" x2="1160.7" y2="246.42" fill="none" stroke="#000" stroke-linejoin="bevel" stroke-width="2.48"/><line x1="1268.13" y1="143.14" x2="1268.13" y2="242.32" fill="none" stroke="#000" stroke-linejoin="bevel" stroke-width="2.48"/><line x1="606.35" y1="184.6" x2="606.35" y2="114.19" fill="none" stroke="#000" stroke-linejoin="bevel" stroke-width="2.48"/><line x1="1512.76" y1="184.6" x2="1512.76" y2="114.24" fill="none" stroke="#000" stroke-linejoin="bevel" stroke-width="2.48"/><line x1="1620.19" y1="221.8" x2="1620.19" y2="120.3" fill="none" stroke="#000" stroke-linejoin="bevel" stroke-width="2.48"/><line x1="1727.63" y1="271.4" x2="1727.63" y2="163.77" fill="none" stroke="#000" stroke-linejoin="bevel" stroke-width="2.48"/><line x1="1375.57" y1="167.94" x2="1375.57" y2="238.22" fill="none" stroke="#000" stroke-linejoin="bevel" stroke-width="2.48"/><path d="M145.62,192.74c0,4.26,3.07,9.02,11.11,9.02,10.31,0,21.13-8.43,21.13-17.16,0-5.86-4.96-9.13-11.11-9.13-9.63,0-21.13,8.14-21.13,17.27"/><path d="M253.05,229.94c0,4.26,3.07,9.02,11.11,9.02,10.31,0,21.13-8.43,21.13-17.16,0-5.86-4.96-9.13-11.11-9.13-9.63,0-21.13,8.14-21.13,17.27"/><path d="M360.49,192.74c0,4.26,3.07,9.02,11.11,9.02,10.31,0,21.13-8.43,21.13-17.16,0-5.86-4.96-9.13-11.11-9.13-9.63,0-21.13,8.14-21.13,17.27"/><path d="M467.92,167.94c0,4.26,3.07,9.02,11.11,9.02,10.31,0,21.13-8.43,21.13-17.16,0-5.86-4.96-9.13-11.11-9.13-9.63,0-21.13,8.14-21.13,17.27"/><path d="M575.36,192.74c0,4.26,3.07,9.02,11.11,9.02,10.31,0,21.13-8.43,21.13-17.16,0-5.86-4.96-9.13-11.11-9.13-9.63,0-21.13,8.14-21.13,17.27"/><path d="M682.8,229.94c0,4.26,3.07,9.02,11.11,9.02,10.31,0,21.13-8.43,21.13-17.16,0-5.86-4.96-9.13-11.11-9.13-9.63,0-21.13,8.14-21.13,17.27"/><path d="M790.23,279.54c0,4.26,3.07,9.02,11.11,9.02,10.31,0,21.13-8.43,21.13-17.16,0-5.86-4.96-9.13-11.11-9.13-9.63,0-21.13,8.14-21.13,17.27"/><path d="M897.67,229.94c0,4.26,3.07,9.02,11.11,9.02,10.31,0,21.13-8.43,21.13-17.16,0-5.86-4.96-9.13-11.11-9.13-9.63,0-21.13,8.14-21.13,17.27"/><path d="M1052.02,192.74c0,4.26,3.07,9.02,11.11,9.02,10.31,0,21.13-8.43,21.13-17.16,0-5.86-4.96-9.13-11.11-9.13-9.63,0-21.13,8.14-21.13,17.27"/><path d="M1159.46,167.94c0,4.26,3.07,9.02,11.11,9.02,10.31,0,21.13-8.43,21.13-17.16,0-5.86-4.96-9.13-11.11-9.13-9.63,0-21.13,8.14-21.13,17.27"/><path d="M1266.89,143.14c0,4.26,3.07,9.02,11.11,9.02,10.31,0,21.13-8.43,21.13-17.16,0-5.86-4.96-9.13-11.11-9.13-9.63,0-21.13,8.14-21.13,17.27"/><path d="M1374.33,167.94c0,4.26,3.07,9.02,11.11,9.02,10.31,0,21.13-8.43,21.13-17.16,0-5.86-4.96-9.13-11.11-9.13-9.63,0-21.13,8.14-21.13,17.27"/><path d="M1481.77,192.74c0,4.26,3.07,9.02,11.11,9.02,10.31,0,21.13-8.43,21.13-17.16,0-5.86-4.96-9.13-11.11-9.13-9.63,0-21.13,8.14-21.13,17.27"/><path d="M1589.2,229.94c0,4.26,3.07,9.02,11.11,9.02,10.31,0,21.13-8.43,21.13-17.16,0-5.86-4.96-9.13-11.11-9.13-9.63,0-21.13,8.14-21.13,17.27"/><path d="M1696.64,279.54c0,4.26,3.07,9.02,11.11,9.02,10.31,0,21.13-8.43,21.13-17.16,0-5.86-4.96-9.13-11.11-9.13-9.63,0-21.13,8.14-21.13,17.27"/><path d="M30.8,239.46c0,6.56,4.96,15.19,18.35,15.19,4.67,0,8.74-1.19,12.31-3.38,5.36-3.77,6.74-10.32,6.74-16.57,0-3.86-.59-8.32-1.58-13.98-.29-1.98-.9-4.96-1.49-8.84,9.72-3.18,16.96-13.3,16.96-23.51,0-14.97-10.62-25.09-25.09-25.09-.99-5.95-1.98-11.81-2.77-17.36,10.42-11.02,17.65-23.42,17.65-39.18,0-9.04-2.77-16.37-4.37-19.95-2.37-5.05-5.25-8.53-7.04-8.53-.7,0-3.77,1.19-7.04,5.05-6.36,7.55-8.14,20.24-8.14,28.57,0,5.36,.5,10.23,2.19,21.34-.11,.09-5.27,5.35-7.35,7.04-9.04,8.34-21.53,20.43-21.53,40.28,0,18.54,16.17,33.12,34.63,33.12,2.87,0,5.55-.29,7.83-.7,1.89,9.53,3.08,16.48,3.08,21.73,0,10.32-5.36,15.78-15.38,15.78-2.39,0-4.46-.5-4.67-.5-.09-.11-.29-.2-.29-.29,0-.2,.2-.31,.5-.31,4.67-.79,9.32-4.76,9.32-11.1,0-5.36-4.06-11.02-11.5-11.02-6.94,0-11.31,5.66-11.31,12.2M51.54,107.02c.9-3.97,5.46-14.38,10.62-14.38,1.49,0,3.86,4.76,3.86,11.7,0,10.32-7.63,18.06-14.48,24.8-.59-3.97-1.08-7.83-1.08-12,0-3.67,.29-7.05,1.08-10.12m8.73,101.97c-1.98,.4-3.86,.6-5.75,.6-14.18,0-26.29-9.92-26.29-24.91,0-12.09,8.53-22.91,17.27-30.46,1.67-1.49,3.27-2.87,4.76-4.36,.88,5.35,1.58,10.01,2.28,14.09-9.04,2.68-15.17,12.2-15.17,21.53,0,6.94,5.46,16.46,13.39,16.46,.79,0,1.69-.4,1.69-1.29s-.99-1.39-2.19-2.19c-3.88-2.39-6.06-4.96-6.06-9.83,0-6.05,4.57-10.91,10.32-12.29l5.75,32.63m14.09-18.35c0,7.05-2.88,14.29-9.92,17.17-2.08-11.9-4.76-27.68-5.46-32.05,8.93,0,15.38,6.06,15.38,14.88"/><path d="M2044.96,138.47c-.81,0-1.4,.59-1.4,1.4v10.71c0,.79,.59,1.38,1.4,1.38h29.47c.79,0,1.38-.59,1.38-1.38v-10.71c0-.81-.59-1.4-1.38-1.4h-29.47"/><path d="M614.2,72.26c-9.32-10.12-17.56-10.71-22.71-10.71s-13.3,.59-22.63,10.71c-4.85,5.36-8.23,15.97-8.23,21.33,0,1.89,.4,3.18,1.4,3.18,2.77,0,1.38-8.54,9.72-16.97,7.33-7.33,17.16-7.44,19.55-7.44h.39c2.39,0,12.21,.11,19.55,7.44,8.34,8.43,6.94,16.97,9.72,16.97,.99,0,1.39-1.19,1.39-3.18,0-5.36-3.27-16.07-8.14-21.33m-29.56,18.94c0,3.78,3.07,6.85,6.85,6.85s6.84-3.07,6.84-6.85-3.07-6.84-6.84-6.84-6.85,3.07-6.85,6.84"/><path d="M184.45,59.42c-9.32-10.12-17.56-10.71-22.71-10.71s-13.3,.59-22.63,10.71c-4.85,5.36-8.23,15.97-8.23,21.33,0,1.89,.4,3.18,1.4,3.18,2.77,0,1.38-8.54,9.72-16.97,7.33-7.33,17.16-7.44,19.55-7.44h.39c2.39,0,12.21,.11,19.55,7.44,8.34,8.43,6.94,16.97,9.72,16.97,.99,0,1.39-1.19,1.39-3.18,0-5.36-3.27-16.07-8.14-21.33m-29.56,18.94c0,3.78,3.07,6.85,6.85,6.85s6.84-3.07,6.84-6.85-3.07-6.84-6.84-6.84-6.85,3.07-6.85,6.84"/><path d="M1520.61,72.25c-9.32-10.12-17.56-10.71-22.71-10.71s-13.3,.59-22.63,10.71c-4.85,5.36-8.23,15.97-8.23,21.33,0,1.89,.4,3.18,1.4,3.18,2.77,0,1.38-8.54,9.72-16.97,7.33-7.33,17.16-7.44,19.55-7.44h.39c2.39,0,12.21,.11,19.55,7.44,8.34,8.43,6.94,16.97,9.72,16.97,.99,0,1.39-1.19,1.39-3.18,0-5.36-3.27-16.07-8.14-21.33m-29.56,18.94c0,3.78,3.07,6.85,6.85,6.85s6.84-3.07,6.84-6.85-3.07-6.84-6.84-6.84-6.85,3.07-6.85,6.84"/><path d="M1735.48,75.98c-9.32-10.12-17.56-10.71-22.71-10.71s-13.3,.59-22.63,10.71c-4.85,5.36-8.23,15.97-8.23,21.33,0,1.89,.4,3.18,1.4,3.18,2.77,0,1.38-8.54,9.72-16.97,7.33-7.33,17.16-7.44,19.55-7.44h.39c2.39,0,12.21,.11,19.55,7.44,8.34,8.43,6.94,16.97,9.72,16.97,.99,0,1.39-1.19,1.39-3.18,0-5.36-3.27-16.07-8.14-21.33m-29.56,18.94c0,3.78,3.07,6.85,6.85,6.85s6.84-3.07,6.84-6.85-3.07-6.84-6.84-6.84-6.85,3.07-6.85,6.84"/><path d="M1052.02,244.37l324.79-12.4v12.41l-324.79,12.4v-12.41" fill-rule="evenodd"/><path d="M1511.52,107.96l109.91,6.2v12.42l-109.91-6.2v-12.42" fill-rule="evenodd"/><path d="M175.37,95.57l324.79-6.2v12.4l-324.79,6.2v-12.4" fill-rule="evenodd"/><path d="M605.11,107.97l324.79,6.2v12.4l-324.79-6.2v-12.4" fill-rule="evenodd"/><path d="M156.71,0c-1.69,2.05-6.3,3.59-10.89,3.7v2.14h4.39c2.91,.07,3.2,.36,3.11,3.16V29.05c0,2.56,0,2.65-.3,3.11-.41,.5-1.36,.7-4.16,.7h-3.25v2.34h19.8v-2.34h-2.75c-2.8,0-3.75-.2-4.14-.7-.36-.46-.36-.5-.36-3.11V8.41c0-2.82,.11-5.16,.36-8.41h-1.81m37.16,24.41h-2.2l-.5,2.54c-.64,3.25-1.05,3.55-4.14,3.55h-11.2c3.45-3.59,4.59-4.64,7.8-7.14,4.55-3.5,6.5-5.25,7.66-6.75,1.59-2.2,2.39-4.41,2.39-6.86,0-5.7-4.7-9.75-11.25-9.75s-11.2,4.05-11.2,9.41c0,3.14,1.61,5.29,3.95,5.29,1.86,0,3.11-1.25,3.11-3.04,0-1.25-.7-2.41-1.75-2.86-1.86-.75-1.95-.85-1.95-1.5,0-.75,.5-1.89,1.2-2.75,1.25-1.55,3.3-2.39,5.64-2.39,4.16,0,6.61,2.54,6.61,6.75,0,3.7-1.75,7.04-5.91,11.45-3.7,3.89-6,6.34-6.84,7.3-1.81,2.09-2.7,3.25-4.91,6.14v1.4h22.55l.95-10.79m20.05-7.61c4.55-1.64,6.66-4.19,6.66-8.21,0-5.25-4-8.59-10.2-8.59-5.84,0-10.3,3.45-10.3,8,0,2.05,1.34,3.5,3.3,3.5,1.75,0,2.95-1.2,2.95-3,0-1.09-.41-1.75-1.55-2.55-.5-.36-.66-.54-.66-.9,0-1.39,2.91-2.89,5.75-2.89,3.59,0,5.5,2.25,5.5,6.5,0,4.64-1.91,7.09-5.45,7.09-.45,0-1.3-.05-2.05-.09-.41-.05-.8-.05-1.09-.05-1.06,0-1.61,.44-1.61,1.34,0,.85,.5,1.25,1.61,1.25,.3,0,.69,0,1.14-.04,1-.05,1.8-.05,2.36-.05,3.69,0,5.69,2.64,5.69,7.59,0,5.21-2.5,8.1-7,8.1-3.14,0-6.55-1.69-6.55-3.25,0-.44,.11-.55,1.05-1.1,1.41-.84,1.95-1.7,1.95-2.95,0-1.8-1.34-3.14-3.14-3.14-2.16,0-3.56,1.75-3.56,4.39,0,4.86,4.45,8.2,10.86,8.2,7.25,0,11.95-4,11.95-10.15,0-4.69-2.41-7.55-7.61-9"/></g></svg>