<?xml version="1.0" encoding="UTF-8"?><svg id="b" xmlns="http://www.w3.org/2000/svg" viewBox="0 0 2455.2 344.17"><g id="c"><line y1="126.51" x2="2455.2" y2="126.51" fill="none" stroke="#000" stroke-linejoin="bevel" stroke-width="2.73"/><line y1="151.31" x2="2455.2" y2="151.31" fill="none" stroke="#000" stroke-linejoin="bevel" stroke-width="2.73"/><line y1="176.11" x2="2455.2" y2="176.11" fill="none" stroke="#000" stroke-linejoin="bevel" stroke-width="2.73"/><line y1="200.91" x2="2455.2" y2="200.91" fill="none" stroke="#000" stroke-linejoin="bevel" stroke-width="2.73"/><line y1="225.71" x2="2455.2" y2="225.71" fill="none" stroke="#000" stroke-linejoin="bevel" stroke-width="2.73"/><path d="M160.2,258.15c200.9,96.78,1788.86,99.14,2060.03,39.96-271.46,67.11-1859.43,64.75-2060.03-39.96" fill-rule="evenodd" stroke="#000" stroke-linecap="round" stroke-linejoin="round" stroke-width="1.24"/><line x1="1954.56" y1="125.15" x2="1954.56" y2="227.07" fill="none" stroke="#000" stroke-linejoin="bevel" stroke-width="4.46"/><line x1="1330.05" y1="125.15" x2="1330.05" y2="227.07" fill="none" stroke="#000" stroke-linejoin="bevel" stroke-width="4.46"/><line x1="2439.33" y1="125.15" x2="2439.33" y2="227.07" fill="none" stroke="#000" stroke-linejoin="bevel" stroke-width="4.46"/><line x1="2452.97" y1="125.15" x2="2452.97" y2="227.07" fill="none" stroke="#000" stroke-linejoin="bevel" stroke-width="4.46"/><line x1="719.83" y1="125.15" x2="719.83" y2="227.07" fill="none" stroke="#000" stroke-linejoin="bevel" stroke-width="4.46"/><path d="M208.48,202.89c.6-.09,1.1-.79,1.1-1.4v-5.84c0-.99-.7-1.39-1.6-1.39l-3.27,.7v-14.79h-2.77v15.38l-8.83,1.8v-14h-2.77v14.59l-3.88,.79c-.59,.11-1.09,.79-1.09,1.39v5.75c0,1.09,.79,1.4,1.69,1.4l3.27-.7v16.37l-3.88,.79c-.59,.09-1.09,.79-1.09,1.4v5.75c0,1.09,.79,1.38,1.69,1.38l3.27-.68v14.77h2.77v-15.38l8.83-1.78v14h2.77v-14.59l3.77-.7c.6-.11,1.1-.79,1.1-1.39v-5.84c0-.99-.7-1.4-1.6-1.4l-3.27,.7v-16.37l3.77-.7m-15.38,3.07l8.83-1.78v16.37l-8.83,1.89v-16.48"/><path d="M351.86,140.89c.6-.09,1.1-.79,1.1-1.4v-5.84c0-.99-.7-1.39-1.6-1.39l-3.27,.7v-14.79h-2.77v15.38l-8.83,1.8v-14h-2.77v14.59l-3.88,.79c-.59,.11-1.09,.79-1.09,1.39v5.75c0,1.09,.79,1.4,1.69,1.4l3.27-.7v16.37l-3.88,.79c-.59,.09-1.09,.79-1.09,1.4v5.75c0,1.09,.79,1.38,1.69,1.38l3.27-.68v14.77h2.77v-15.38l8.83-1.78v14h2.77v-14.59l3.77-.7c.6-.11,1.1-.79,1.1-1.39v-5.84c0-.99-.7-1.4-1.6-1.4l-3.27,.7v-16.37l3.77-.7m-15.38,3.07l8.83-1.78v16.37l-8.83,1.89v-16.48"/><path d="M566.93,227.69c.6-.09,1.1-.79,1.1-1.4v-5.84c0-.99-.7-1.39-1.6-1.39l-3.27,.7v-14.79h-2.77v15.38l-8.83,1.8v-14h-2.77v14.59l-3.88,.79c-.59,.11-1.09,.79-1.09,1.39v5.75c0,1.09,.79,1.4,1.69,1.4l3.27-.7v16.37l-3.88,.79c-.59,.09-1.09,.79-1.09,1.4v5.75c0,1.09,.79,1.38,1.69,1.38l3.27-.68v14.77h2.77v-15.38l8.83-1.78v14h2.77v-14.59l3.77-.7c.6-.11,1.1-.79,1.1-1.39v-5.84c0-.99-.7-1.4-1.6-1.4l-3.27,.7v-16.37l3.77-.7m-15.38,3.07l8.83-1.78v16.37l-8.83,1.89v-16.48"/><path d="M818.7,140.89c.6-.09,1.1-.79,1.1-1.4v-5.84c0-.99-.7-1.39-1.6-1.39l-3.27,.7v-14.79h-2.77v15.38l-8.83,1.8v-14h-2.77v14.59l-3.88,.79c-.59,.11-1.09,.79-1.09,1.39v5.75c0,1.09,.79,1.4,1.69,1.4l3.27-.7v16.37l-3.88,.79c-.59,.09-1.09,.79-1.09,1.4v5.75c0,1.09,.79,1.38,1.69,1.38l3.27-.68v14.77h2.77v-15.38l8.83-1.78v14h2.77v-14.59l3.77-.7c.6-.11,1.1-.79,1.1-1.39v-5.84c0-.99-.7-1.4-1.6-1.4l-3.27,.7v-16.37l3.77-.7m-15.38,3.07l8.83-1.78v16.37l-8.83,1.89v-16.48"/><path d="M890.39,116.09c.6-.09,1.1-.79,1.1-1.4v-5.84c0-.99-.7-1.39-1.6-1.39l-3.27,.7v-14.79h-2.77v15.38l-8.83,1.8v-14h-2.77v14.59l-3.88,.79c-.59,.11-1.09,.79-1.09,1.39v5.75c0,1.09,.79,1.4,1.69,1.4l3.27-.7v16.37l-3.88,.79c-.59,.09-1.09,.79-1.09,1.4v5.75c0,1.09,.79,1.38,1.69,1.38l3.27-.68v14.77h2.77v-15.38l8.83-1.78v14h2.77v-14.59l3.77-.7c.6-.11,1.1-.79,1.1-1.39v-5.84c0-.99-.7-1.4-1.6-1.4l-3.27,.7v-16.37l3.77-.7m-15.38,3.07l8.83-1.78v16.37l-8.83,1.89v-16.48"/><path d="M1105.46,202.89c.6-.09,1.1-.79,1.1-1.4v-5.84c0-.99-.7-1.39-1.6-1.39l-3.27,.7v-14.79h-2.77v15.38l-8.83,1.8v-14h-2.77v14.59l-3.88,.79c-.59,.11-1.09,.79-1.09,1.39v5.75c0,1.09,.79,1.4,1.69,1.4l3.27-.7v16.37l-3.88,.79c-.59,.09-1.09,.79-1.09,1.4v5.75c0,1.09,.79,1.38,1.69,1.38l3.27-.68v14.77h2.77v-15.38l8.83-1.78v14h2.77v-14.59l3.77-.7c.6-.11,1.1-.79,1.1-1.39v-5.84c0-.99-.7-1.4-1.6-1.4l-3.27,.7v-16.37l3.77-.7m-15.38,3.07l8.83-1.78v16.37l-8.83,1.89v-16.48"/><path d="M1177.15,227.69c.6-.09,1.1-.79,1.1-1.4v-5.84c0-.99-.7-1.39-1.6-1.39l-3.27,.7v-14.79h-2.77v15.38l-8.83,1.8v-14h-2.77v14.59l-3.88,.79c-.59,.11-1.09,.79-1.09,1.39v5.75c0,1.09,.79,1.4,1.69,1.4l3.27-.7v16.37l-3.88,.79c-.59,.09-1.09,.79-1.09,1.4v5.75c0,1.09,.79,1.38,1.69,1.38l3.27-.68v14.77h2.77v-15.38l8.83-1.78v14h2.77v-14.59l3.77-.7c.6-.11,1.1-.79,1.1-1.39v-5.84c0-.99-.7-1.4-1.6-1.4l-3.27,.7v-16.37l3.77-.7m-15.38,3.07l8.83-1.78v16.37l-8.83,1.89v-16.48"/><path d="M2053.43,202.89c.6-.09,1.1-.79,1.1-1.4v-5.84c0-.99-.7-1.39-1.6-1.39l-3.27,.7v-14.79h-2.77v15.38l-8.83,1.8v-14h-2.77v14.59l-3.88,.79c-.59,.11-1.09,.79-1.09,1.39v5.75c0,1.09,.79,1.4,1.69,1.4l3.27-.7v16.37l-3.88,.79c-.59,.09-1.09,.79-1.09,1.4v5.75c0,1.09,.79,1.38,1.69,1.38l3.27-.68v14.77h2.77v-15.38l8.83-1.78v14h2.77v-14.59l3.77-.7c.6-.11,1.1-.79,1.1-1.39v-5.84c0-.99-.7-1.4-1.6-1.4l-3.27,.7v-16.37l3.77-.7m-15.38,3.07l8.83-1.78v16.37l-8.83,1.89v-16.48"/><path d="M2125.12,227.69c.6-.09,1.1-.79,1.1-1.4v-5.84c0-.99-.7-1.39-1.6-1.39l-3.27,.7v-14.79h-2.77v15.38l-8.83,1.8v-14h-2.77v14.59l-3.88,.79c-.59,.11-1.09,.79-1.09,1.39v5.75c0,1.09,.79,1.4,1.69,1.4l3.27-.7v16.37l-3.88,.79c-.59,.09-1.09,.79-1.09,1.4v5.75c0,1.09,.79,1.38,1.69,1.38l3.27-.68v14.77h2.77v-15.38l8.83-1.78v14h2.77v-14.59l3.77-.7c.6-.11,1.1-.79,1.1-1.39v-5.84c0-.99-.7-1.4-1.6-1.4l-3.27,.7v-16.37l3.77-.7m-15.38,3.07l8.83-1.78v16.37l-8.83,1.89v-16.48"/><path d="M1371.52,227.69c.6-.09,1.1-.79,1.1-1.4v-5.84c0-.99-.7-1.39-1.6-1.39l-3.27,.7v-14.79h-2.77v15.38l-8.83,1.8v-14h-2.77v14.59l-3.88,.79c-.59,.11-1.09,.79-1.09,1.39v5.75c0,1.09,.79,1.4,1.69,1.4l3.27-.7v16.37l-3.88,.79c-.59,.09-1.09,.79-1.09,1.4v5.75c0,1.09,.79,1.38,1.69,1.38l3.27-.68v14.77h2.77v-15.38l8.83-1.78v14h2.77v-14.59l3.77-.7c.6-.11,1.1-.79,1.1-1.39v-5.84c0-.99-.7-1.4-1.6-1.4l-3.27,.7v-16.37l3.77-.7m-15.38,3.07l8.83-1.78v16.37l-8.83,1.89v-16.48"/><path d="M1443.21,202.89c.6-.09,1.1-.79,1.1-1.4v-5.84c0-.99-.7-1.39-1.6-1.39l-3.27,.7v-14.79h-2.77v15.38l-8.83,1.8v-14h-2.77v14.59l-3.88,.79c-.59,.11-1.09,.79-1.09,1.39v5.75c0,1.09,.79,1.4,1.69,1.4l3.27-.7v16.37l-3.88,.79c-.59,.09-1.09,.79-1.09,1.4v5.75c0,1.09,.79,1.38,1.69,1.38l3.27-.68v14.77h2.77v-15.38l8.83-1.78v14h2.77v-14.59l3.77-.7c.6-.11,1.1-.79,1.1-1.39v-5.84c0-.99-.7-1.4-1.6-1.4l-3.27,.7v-16.37l3.77-.7m-15.38,3.07l8.83-1.78v16.37l-8.83,1.89v-16.48"/><path d="M1586.59,140.89c.6-.09,1.1-.79,1.1-1.4v-5.84c0-.99-.7-1.39-1.6-1.39l-3.27,.7v-14.79h-2.77v15.38l-8.83,1.8v-14h-2.77v14.59l-3.88,.79c-.59,.11-1.09,.79-1.09,1.39v5.75c0,1.09,.79,1.4,1.69,1.4l3.27-.7v16.37l-3.88,.79c-.59,.09-1.09,.79-1.09,1.4v5.75c0,1.09,.79,1.38,1.69,1.38l3.27-.68v14.77h2.77v-15.38l8.83-1.78v14h2.77v-14.59l3.77-.7c.6-.11,1.1-.79,1.1-1.39v-5.84c0-.99-.7-1.4-1.6-1.4l-3.27,.7v-16.37l3.77-.7m-15.38,3.07l8.83-1.78v16.37l-8.83,1.89v-16.48"/><path d="M1658.28,116.09c.6-.09,1.1-.79,1.1-1.4v-5.84c0-.99-.7-1.39-1.6-1.39l-3.27,.7v-14.79h-2.77v15.38l-8.83,1.8v-14h-2.77v14.59l-3.88,.79c-.59,.11-1.09,.79-1.09,1.39v5.75c0,1.09,.79,1.4,1.69,1.4l3.27-.7v16.37l-3.88,.79c-.59,.09-1.09,.79-1.09,1.4v5.75c0,1.09,.79,1.38,1.69,1.38l3.27-.68v14.77h2.77v-15.38l8.83-1.78v14h2.77v-14.59l3.77-.7c.6-.11,1.1-.79,1.1-1.39v-5.84c0-.99-.7-1.4-1.6-1.4l-3.27,.7v-16.37l3.77-.7m-15.38,3.07l8.83-1.78v16.37l-8.83,1.89v-16.48"/><line x1="1247.95" y1="250.51" x2="1296.55" y2="250.51" fill="none" stroke="#000" stroke-linejoin="bevel" stroke-width="3.97"/><line x1="2195.92" y1="250.51" x2="2244.52" y2="250.51" fill="none" stroke="#000" stroke-linejoin="bevel" stroke-width="3.97"/><line x1="1729.07" y1="101.71" x2="1777.67" y2="101.71" fill="none" stroke="#000" stroke-linejoin="bevel" stroke-width="3.97"/><line x1="175.07" y1="172.14" x2="175.07" y2="101.64" fill="none" stroke="#000" stroke-linejoin="bevel" stroke-width="2.48"/><line x1="246.76" y1="209.34" x2="246.76" y2="97.55" fill="none" stroke="#000" stroke-linejoin="bevel" stroke-width="2.48"/><line x1="318.45" y1="172.14" x2="318.45" y2="93.47" fill="none" stroke="#000" stroke-linejoin="bevel" stroke-width="2.48"/><line x1="390.14" y1="147.34" x2="390.14" y2="89.38" fill="none" stroke="#000" stroke-linejoin="bevel" stroke-width="2.48"/><line x1="461.83" y1="172.14" x2="461.83" y2="108.02" fill="none" stroke="#000" stroke-linejoin="bevel" stroke-width="2.48"/><line x1="533.52" y1="209.34" x2="533.52" y2="114.14" fill="none" stroke="#000" stroke-linejoin="bevel" stroke-width="2.48"/><line x1="605.21" y1="234.14" x2="605.21" y2="120.27" fill="none" stroke="#000" stroke-linejoin="bevel" stroke-width="2.48"/><line x1="676.9" y1="209.34" x2="676.9" y2="126.4" fill="none" stroke="#000" stroke-linejoin="bevel" stroke-width="2.48"/><line x1="755.54" y1="180.28" x2="755.54" y2="244.27" fill="none" stroke="#000" stroke-linejoin="bevel" stroke-width="2.48"/><line x1="827.23" y1="155.48" x2="827.23" y2="242.23" fill="none" stroke="#000" stroke-linejoin="bevel" stroke-width="2.48"/><line x1="898.92" y1="130.68" x2="898.92" y2="240.19" fill="none" stroke="#000" stroke-linejoin="bevel" stroke-width="2.48"/><line x1="970.61" y1="155.48" x2="970.61" y2="238.14" fill="none" stroke="#000" stroke-linejoin="bevel" stroke-width="2.48"/><line x1="1072.05" y1="172.14" x2="1072.05" y2="108.05" fill="none" stroke="#000" stroke-linejoin="bevel" stroke-width="2.48"/><line x1="1143.74" y1="209.34" x2="1143.74" y2="116.22" fill="none" stroke="#000" stroke-linejoin="bevel" stroke-width="2.48"/><line x1="1215.43" y1="234.14" x2="1215.43" y2="124.4" fill="none" stroke="#000" stroke-linejoin="bevel" stroke-width="2.48"/><line x1="1287.12" y1="258.94" x2="1287.12" y2="132.57" fill="none" stroke="#000" stroke-linejoin="bevel" stroke-width="2.48"/><line x1="1409.8" y1="234.14" x2="1409.8" y2="113.97" fill="none" stroke="#000" stroke-linejoin="bevel" stroke-width="2.48"/><line x1="1481.49" y1="209.34" x2="1481.49" y2="105.8" fill="none" stroke="#000" stroke-linejoin="bevel" stroke-width="2.48"/><line x1="1553.18" y1="172.14" x2="1553.18" y2="97.62" fill="none" stroke="#000" stroke-linejoin="bevel" stroke-width="2.48"/><line x1="1624.87" y1="147.34" x2="1624.87" y2="89.45" fill="none" stroke="#000" stroke-linejoin="bevel" stroke-width="2.48"/><line x1="1666.81" y1="130.68" x2="1666.81" y2="219.54" fill="none" stroke="#000" stroke-linejoin="bevel" stroke-width="2.48"/><line x1="1738.5" y1="105.88" x2="1738.5" y2="221.59" fill="none" stroke="#000" stroke-linejoin="bevel" stroke-width="2.48"/><line x1="1810.19" y1="130.68" x2="1810.19" y2="223.63" fill="none" stroke="#000" stroke-linejoin="bevel" stroke-width="2.48"/><line x1="1881.88" y1="155.48" x2="1881.88" y2="225.67" fill="none" stroke="#000" stroke-linejoin="bevel" stroke-width="2.48"/><line x1="2020.02" y1="172.14" x2="2020.02" y2="108.07" fill="none" stroke="#000" stroke-linejoin="bevel" stroke-width="2.48"/><line x1="2091.71" y1="209.34" x2="2091.71" y2="117.21" fill="none" stroke="#000" stroke-linejoin="bevel" stroke-width="2.48"/><line x1="2163.4" y1="234.14" x2="2163.4" y2="126.35" fill="none" stroke="#000" stroke-linejoin="bevel" stroke-width="2.48"/><line x1="2235.09" y1="258.94" x2="2235.09" y2="176.11" fill="none" stroke="#000" stroke-linejoin="bevel" stroke-width="2.48"/><path d="M1880.64,155.48c0,4.26,3.07,9.02,11.11,9.02,10.31,0,21.13-8.43,21.13-17.16,0-5.86-4.96-9.13-11.11-9.13-9.63,0-21.13,8.14-21.13,17.27"/><path d="M1808.95,130.68c0,4.26,3.07,9.02,11.11,9.02,10.31,0,21.13-8.43,21.13-17.16,0-5.86-4.96-9.13-11.11-9.13-9.63,0-21.13,8.14-21.13,17.27"/><path d="M1737.26,105.88c0,4.26,3.07,9.02,11.11,9.02,10.31,0,21.13-8.43,21.13-17.16,0-5.86-4.96-9.13-11.11-9.13-9.63,0-21.13,8.14-21.13,17.27"/><path d="M144.08,180.28c0,4.26,3.07,9.02,11.11,9.02,10.31,0,21.13-8.43,21.13-17.16,0-5.86-4.96-9.13-11.11-9.13-9.63,0-21.13,8.14-21.13,17.27"/><path d="M215.77,217.48c0,4.26,3.07,9.02,11.11,9.02,10.31,0,21.13-8.43,21.13-17.16,0-5.86-4.96-9.13-11.11-9.13-9.63,0-21.13,8.14-21.13,17.27"/><path d="M287.46,180.28c0,4.26,3.07,9.02,11.11,9.02,10.31,0,21.13-8.43,21.13-17.16,0-5.86-4.96-9.13-11.11-9.13-9.63,0-21.13,8.14-21.13,17.27"/><path d="M359.15,155.48c0,4.26,3.07,9.02,11.11,9.02,10.31,0,21.13-8.43,21.13-17.16,0-5.86-4.96-9.13-11.11-9.13-9.63,0-21.13,8.14-21.13,17.27"/><path d="M430.84,180.28c0,4.26,3.07,9.02,11.11,9.02,10.31,0,21.13-8.43,21.13-17.16,0-5.86-4.96-9.13-11.11-9.13-9.63,0-21.13,8.14-21.13,17.27"/><path d="M502.53,217.48c0,4.26,3.07,9.02,11.11,9.02,10.31,0,21.13-8.43,21.13-17.16,0-5.86-4.96-9.13-11.11-9.13-9.63,0-21.13,8.14-21.13,17.27"/><path d="M574.22,242.28c0,4.26,3.07,9.02,11.11,9.02,10.31,0,21.13-8.43,21.13-17.16,0-5.86-4.96-9.13-11.11-9.13-9.63,0-21.13,8.14-21.13,17.27"/><path d="M645.91,217.48c0,4.26,3.07,9.02,11.11,9.02,10.31,0,21.13-8.43,21.13-17.16,0-5.86-4.96-9.13-11.11-9.13-9.63,0-21.13,8.14-21.13,17.27"/><path d="M754.3,180.28c0,4.26,3.07,9.02,11.11,9.02,10.31,0,21.13-8.43,21.13-17.16,0-5.86-4.96-9.13-11.11-9.13-9.63,0-21.13,8.14-21.13,17.27"/><path d="M1665.57,130.68c0,4.26,3.07,9.02,11.11,9.02,10.31,0,21.13-8.43,21.13-17.16,0-5.86-4.96-9.13-11.11-9.13-9.63,0-21.13,8.14-21.13,17.27"/><path d="M825.99,155.48c0,4.26,3.07,9.02,11.11,9.02,10.31,0,21.13-8.43,21.13-17.16,0-5.86-4.96-9.13-11.11-9.13-9.63,0-21.13,8.14-21.13,17.27"/><path d="M897.68,130.68c0,4.26,3.07,9.02,11.11,9.02,10.31,0,21.13-8.43,21.13-17.16,0-5.86-4.96-9.13-11.11-9.13-9.63,0-21.13,8.14-21.13,17.27"/><path d="M969.37,155.48c0,4.26,3.07,9.02,11.11,9.02,10.31,0,21.13-8.43,21.13-17.16,0-5.86-4.96-9.13-11.11-9.13-9.63,0-21.13,8.14-21.13,17.27"/><path d="M1041.06,180.28c0,4.26,3.07,9.02,11.11,9.02,10.31,0,21.13-8.43,21.13-17.16,0-5.86-4.96-9.13-11.11-9.13-9.63,0-21.13,8.14-21.13,17.27"/><path d="M1112.75,217.48c0,4.26,3.07,9.02,11.11,9.02,10.31,0,21.13-8.43,21.13-17.16,0-5.86-4.96-9.13-11.11-9.13-9.63,0-21.13,8.14-21.13,17.27"/><path d="M1184.44,242.28c0,4.26,3.07,9.02,11.11,9.02,10.31,0,21.13-8.43,21.13-17.16,0-5.86-4.96-9.13-11.11-9.13-9.63,0-21.13,8.14-21.13,17.27"/><path d="M1593.88,155.48c0,4.26,3.07,9.02,11.11,9.02,10.31,0,21.13-8.43,21.13-17.16,0-5.86-4.96-9.13-11.11-9.13-9.63,0-21.13,8.14-21.13,17.27"/><path d="M1256.13,267.08c0,4.26,3.07,9.02,11.11,9.02,10.31,0,21.13-8.43,21.13-17.16,0-5.86-4.96-9.13-11.11-9.13-9.63,0-21.13,8.14-21.13,17.27"/><path d="M1522.19,180.28c0,4.26,3.07,9.02,11.11,9.02,10.31,0,21.13-8.43,21.13-17.16,0-5.86-4.96-9.13-11.11-9.13-9.63,0-21.13,8.14-21.13,17.27"/><path d="M1450.5,217.48c0,4.26,3.07,9.02,11.11,9.02,10.31,0,21.13-8.43,21.13-17.16,0-5.86-4.96-9.13-11.11-9.13-9.63,0-21.13,8.14-21.13,17.27"/><path d="M1378.81,242.28c0,4.26,3.07,9.02,11.11,9.02,10.31,0,21.13-8.43,21.13-17.16,0-5.86-4.96-9.13-11.11-9.13-9.63,0-21.13,8.14-21.13,17.27"/><path d="M2060.72,217.48c0,4.26,3.07,9.02,11.11,9.02,10.31,0,21.13-8.43,21.13-17.16,0-5.86-4.96-9.13-11.11-9.13-9.63,0-21.13,8.14-21.13,17.27"/><path d="M2225.23,249.81c-9.63,0-21.13,8.04-21.13,17.27,0,4.26,3.07,9.02,11.11,9.02,10.31,0,21.13-8.43,21.13-17.16,0-5.86-4.96-9.13-11.11-9.13m-13.69,21.62c-3.27,0-3.97-2.67-3.97-3.57,0-4.87,16.66-13.39,21.33-13.39,2.39,0,3.97,1.4,3.97,3.57,0,4.96-16.77,13.39-21.33,13.39"/><path d="M2132.41,242.28c0,4.26,3.07,9.02,11.11,9.02,10.31,0,21.13-8.43,21.13-17.16,0-5.86-4.96-9.13-11.11-9.13-9.63,0-21.13,8.14-21.13,17.27"/><path d="M1989.03,180.28c0,4.26,3.07,9.02,11.11,9.02,10.31,0,21.13-8.43,21.13-17.16,0-5.86-4.96-9.13-11.11-9.13-9.63,0-21.13,8.14-21.13,17.27"/><path d="M30.8,251.8c0,6.56,4.96,15.19,18.35,15.19,4.67,0,8.74-1.19,12.31-3.38,5.36-3.77,6.74-10.32,6.74-16.57,0-3.86-.59-8.32-1.58-13.98-.29-1.98-.9-4.96-1.49-8.84,9.72-3.18,16.96-13.3,16.96-23.51,0-14.97-10.62-25.09-25.09-25.09-.99-5.95-1.98-11.81-2.77-17.36,10.42-11.02,17.65-23.42,17.65-39.18,0-9.04-2.77-16.37-4.37-19.95-2.37-5.05-5.25-8.53-7.04-8.53-.7,0-3.77,1.19-7.04,5.05-6.36,7.55-8.14,20.24-8.14,28.57,0,5.36,.5,10.23,2.19,21.34-.11,.09-5.27,5.35-7.35,7.04-9.04,8.34-21.53,20.43-21.53,40.28,0,18.54,16.17,33.12,34.63,33.12,2.87,0,5.55-.29,7.83-.7,1.89,9.53,3.08,16.48,3.08,21.73,0,10.32-5.36,15.78-15.38,15.78-2.39,0-4.46-.5-4.67-.5-.09-.11-.29-.2-.29-.29,0-.2,.2-.31,.5-.31,4.67-.79,9.32-4.76,9.32-11.1,0-5.36-4.06-11.02-11.5-11.02-6.94,0-11.31,5.66-11.31,12.2M51.54,119.36c.9-3.97,5.46-14.38,10.62-14.38,1.49,0,3.86,4.76,3.86,11.7,0,10.32-7.63,18.06-14.48,24.8-.59-3.97-1.08-7.83-1.08-12,0-3.67,.29-7.05,1.08-10.12m8.73,101.97c-1.98,.4-3.86,.6-5.75,.6-14.18,0-26.29-9.92-26.29-24.91,0-12.09,8.53-22.91,17.27-30.46,1.67-1.49,3.27-2.87,4.76-4.36,.88,5.35,1.58,10.01,2.28,14.09-9.04,2.68-15.17,12.2-15.17,21.53,0,6.94,5.46,16.46,13.39,16.46,.79,0,1.69-.4,1.69-1.29s-.99-1.39-2.19-2.19c-3.88-2.39-6.06-4.96-6.06-9.83,0-6.05,4.57-10.91,10.32-12.29l5.75,32.63m14.09-18.35c0,7.05-2.88,14.29-9.92,17.17-2.08-11.9-4.76-27.68-5.46-32.05,8.93,0,15.38,6.06,15.38,14.88"/><path d="M2391.89,155.98c-.09,0-.29-.11-.4-.11-.59,0-1.09,.31-1.29,.81-2.28,4.56-7.04,10.71-12.4,11.7,1.09-1.29,1.78-2.88,1.78-4.76,0-3.87-3.18-7.05-7.04-7.05s-7.15,3.18-7.15,7.05c0,5.35,5.25,7.83,9.92,7.83,5.25,0,8.73-2.48,12.11-6.15l-11.31,35.32,2.68,.79,13.89-43.74c.11-.11,.11-.31,.11-.5,0-.5-.31-.9-.9-1.19"/><path d="M2027.87,65.95c-9.32-10.12-17.56-10.71-22.71-10.71s-13.3,.59-22.63,10.71c-4.85,5.36-8.23,15.97-8.23,21.33,0,1.89,.4,3.18,1.4,3.18,2.77,0,1.38-8.54,9.72-16.97,7.33-7.33,17.16-7.44,19.55-7.44h.39c2.39,0,12.21,.11,19.55,7.44,8.34,8.43,6.94,16.97,9.72,16.97,.99,0,1.39-1.19,1.39-3.18,0-5.36-3.27-16.07-8.14-21.33m-29.56,18.94c0,3.78,3.07,6.85,6.85,6.85s6.84-3.07,6.84-6.85-3.07-6.84-6.84-6.84-6.85,3.07-6.85,6.84"/><path d="M182.92,58.41c-9.32-10.12-17.56-10.71-22.71-10.71s-13.3,.59-22.63,10.71c-4.85,5.36-8.23,15.97-8.23,21.33,0,1.89,.4,3.18,1.4,3.18,2.77,0,1.38-8.54,9.72-16.97,7.33-7.33,17.16-7.44,19.55-7.44h.39c2.39,0,12.21,.11,19.55,7.44,8.34,8.43,6.94,16.97,9.72,16.97,.99,0,1.39-1.19,1.39-3.18,0-5.36-3.27-16.07-8.14-21.33m-29.56,18.94c0,3.78,3.07,6.85,6.85,6.85s6.84-3.07,6.84-6.85-3.07-6.84-6.84-6.84-6.85,3.07-6.85,6.84"/><path d="M469.68,65.98c-9.32-10.12-17.56-10.71-22.71-10.71s-13.3,.59-22.63,10.71c-4.85,5.36-8.23,15.97-8.23,21.33,0,1.89,.4,3.18,1.4,3.18,2.77,0,1.38-8.54,9.72-16.97,7.33-7.33,17.16-7.44,19.55-7.44h.39c2.39,0,12.21,.11,19.55,7.44,8.34,8.43,6.94,16.97,9.72,16.97,.99,0,1.39-1.19,1.39-3.18,0-5.36-3.27-16.07-8.14-21.33m-29.56,18.94c0,3.78,3.07,6.85,6.85,6.85s6.84-3.07,6.84-6.85-3.07-6.84-6.84-6.84-6.85,3.07-6.85,6.84"/><path d="M1079.9,65.96c-9.32-10.12-17.56-10.71-22.71-10.71s-13.3,.59-22.63,10.71c-4.85,5.36-8.23,15.97-8.23,21.33,0,1.89,.4,3.18,1.4,3.18,2.77,0,1.38-8.54,9.72-16.97,7.33-7.33,17.16-7.44,19.55-7.44h.39c2.39,0,12.21,.11,19.55,7.44,8.34,8.43,6.94,16.97,9.72,16.97,.99,0,1.39-1.19,1.39-3.18,0-5.36-3.27-16.07-8.14-21.33m-29.56,18.94c0,3.78,3.07,6.85,6.85,6.85s6.84-3.07,6.84-6.85-3.07-6.84-6.84-6.84-6.85,3.07-6.85,6.84"/><path d="M1070.81,101.67l217.55,24.8v12.48l-217.55-24.8v-12.48" fill-rule="evenodd"/><path d="M754.3,238.11l217.55-6.2v12.4l-217.55,6.2v-12.4" fill-rule="evenodd"/><path d="M460.59,101.69l217.55,18.6v12.44l-217.55-18.6v-12.44" fill-rule="evenodd"/><path d="M173.83,95.5l217.55-12.4v12.42l-217.55,12.4v-12.42" fill-rule="evenodd"/><path d="M2018.78,101.66l145.86,18.6v12.5l-145.86-18.6v-12.5" fill-rule="evenodd"/><path d="M1665.57,213.31l217.55,6.2v12.4l-217.55-6.2v-12.4" fill-rule="evenodd"/><path d="M1408.56,107.87l217.55-24.8v12.48l-217.55,24.8v-12.48" fill-rule="evenodd"/><path d="M598.47,85.76h-2.2l-.5,2.54c-.64,3.25-1.05,3.55-4.14,3.55h-11.2c3.45-3.59,4.59-4.64,7.8-7.14,4.55-3.5,6.5-5.25,7.66-6.75,1.59-2.2,2.39-4.41,2.39-6.86,0-5.7-4.7-9.75-11.25-9.75s-11.2,4.05-11.2,9.41c0,3.14,1.61,5.29,3.95,5.29,1.86,0,3.11-1.25,3.11-3.04,0-1.25-.7-2.41-1.75-2.86-1.86-.75-1.95-.85-1.95-1.5,0-.75,.5-1.89,1.2-2.75,1.25-1.55,3.3-2.39,5.64-2.39,4.16,0,6.61,2.54,6.61,6.75,0,3.7-1.75,7.04-5.91,11.45-3.7,3.89-6,6.34-6.84,7.3-1.81,2.09-2.7,3.25-4.91,6.14v1.4h22.55l.95-10.79m20.05-7.61c4.55-1.64,6.66-4.19,6.66-8.21,0-5.25-4-8.59-10.2-8.59-5.84,0-10.3,3.45-10.3,8,0,2.05,1.34,3.5,3.3,3.5,1.75,0,2.95-1.2,2.95-3,0-1.09-.41-1.75-1.55-2.55-.5-.36-.66-.54-.66-.9,0-1.39,2.91-2.89,5.75-2.89,3.59,0,5.5,2.25,5.5,6.5,0,4.64-1.91,7.09-5.45,7.09-.45,0-1.3-.05-2.05-.09-.41-.05-.8-.05-1.09-.05-1.06,0-1.61,.44-1.61,1.34,0,.85,.5,1.25,1.61,1.25,.3,0,.69,0,1.14-.04,1-.05,1.8-.05,2.36-.05,3.69,0,5.69,2.64,5.69,7.59,0,5.21-2.5,8.1-7,8.1-3.14,0-6.55-1.69-6.55-3.25,0-.44,.11-.55,1.05-1.1,1.41-.84,1.95-1.7,1.95-2.95,0-1.8-1.34-3.14-3.14-3.14-2.16,0-3.56,1.75-3.56,4.39,0,4.86,4.45,8.2,10.86,8.2,7.25,0,11.95-4,11.95-10.15,0-4.69-2.41-7.55-7.61-9"/><path d="M168.33,24.4h-2.2l-.5,2.55c-.64,3.25-1.05,3.55-4.14,3.55h-11.2c3.45-3.6,4.59-4.65,7.8-7.15,4.55-3.5,6.5-5.25,7.66-6.75,1.59-2.2,2.39-4.4,2.39-6.85,0-5.71-4.7-9.75-11.25-9.75s-11.2,4.04-11.2,9.4c0,3.14,1.61,5.3,3.95,5.3,1.86,0,3.11-1.25,3.11-3.05,0-1.25-.7-2.4-1.75-2.86-1.86-.75-1.95-.84-1.95-1.5,0-.75,.5-1.89,1.2-2.75,1.25-1.54,3.3-2.39,5.64-2.39,4.16,0,6.61,2.55,6.61,6.75,0,3.7-1.75,7.05-5.91,11.45-3.7,3.9-6,6.35-6.84,7.3-1.81,2.1-2.7,3.25-4.91,6.14v1.41h22.55l.95-10.8"/><path d="M1403.06,80.92h-2.2l-.5,2.54c-.64,3.25-1.05,3.55-4.14,3.55h-11.21c3.46-3.59,4.6-4.64,7.8-7.14,4.55-3.5,6.5-5.25,7.66-6.75,1.59-2.2,2.39-4.41,2.39-6.86,0-5.7-4.71-9.75-11.25-9.75s-11.21,4.05-11.21,9.41c0,3.14,1.61,5.29,3.96,5.29,1.86,0,3.11-1.25,3.11-3.04,0-1.25-.71-2.41-1.75-2.86-1.86-.75-1.96-.85-1.96-1.5,0-.75,.5-1.89,1.21-2.75,1.25-1.55,3.29-2.39,5.64-2.39,4.15,0,6.61,2.54,6.61,6.75,0,3.7-1.75,7.04-5.91,11.45-3.7,3.89-6,6.34-6.84,7.3-1.82,2.09-2.71,3.25-4.91,6.14v1.4h22.55l.95-10.79m20.05-7.61c4.54-1.64,6.65-4.19,6.65-8.21,0-5.25-4-8.59-10.2-8.59-5.84,0-10.3,3.45-10.3,8,0,2.05,1.35,3.5,3.3,3.5,1.75,0,2.95-1.2,2.95-3,0-1.09-.4-1.75-1.54-2.55-.5-.36-.66-.54-.66-.9,0-1.39,2.91-2.89,5.75-2.89,3.59,0,5.5,2.25,5.5,6.5,0,4.64-1.91,7.09-5.45,7.09-.46,0-1.3-.05-2.05-.09-.41-.05-.8-.05-1.09-.05-1.07,0-1.61,.44-1.61,1.34,0,.85,.5,1.25,1.61,1.25,.29,0,.68,0,1.14-.04,1-.05,1.79-.05,2.36-.05,3.68,0,5.68,2.64,5.68,7.59,0,5.21-2.5,8.1-7,8.1-3.14,0-6.54-1.69-6.54-3.25,0-.44,.11-.55,1.04-1.1,1.41-.84,1.96-1.7,1.96-2.95,0-1.8-1.35-3.14-3.14-3.14-2.16,0-3.57,1.75-3.57,4.39,0,4.86,4.46,8.2,10.86,8.2,7.25,0,11.96-4,11.96-10.15,0-4.69-2.41-7.55-7.61-9"/><path d="M2156.66,89.86h-2.2l-.5,2.55c-.64,3.25-1.05,3.55-4.14,3.55h-11.2c3.45-3.6,4.59-4.64,7.79-7.14,4.55-3.5,6.5-5.25,7.66-6.75,1.59-2.21,2.39-4.41,2.39-6.86,0-5.71-4.7-9.75-11.25-9.75s-11.2,4.04-11.2,9.4c0,3.14,1.61,5.3,3.95,5.3,1.86,0,3.11-1.25,3.11-3.05,0-1.25-.7-2.4-1.75-2.86-1.86-.75-1.95-.84-1.95-1.5,0-.75,.5-1.89,1.2-2.75,1.25-1.54,3.3-2.39,5.64-2.39,4.16,0,6.61,2.55,6.61,6.75,0,3.71-1.75,7.05-5.91,11.46-3.7,3.89-6,6.34-6.84,7.29-1.81,2.1-2.7,3.25-4.91,6.14v1.41h22.55l.95-10.8m20.05-7.61c4.55-1.64,6.66-4.18,6.66-8.2,0-5.25-4-8.59-10.21-8.59-5.84,0-10.29,3.45-10.29,8,0,2.04,1.34,3.5,3.29,3.5,1.75,0,2.96-1.21,2.96-3,0-1.1-.41-1.75-1.55-2.55-.5-.36-.66-.55-.66-.91,0-1.39,2.91-2.89,5.75-2.89,3.6,0,5.5,2.25,5.5,6.5,0,4.64-1.9,7.1-5.45,7.1-.45,0-1.3-.05-2.05-.1-.4-.04-.79-.04-1.09-.04-1.06,0-1.61,.43-1.61,1.34,0,.84,.5,1.25,1.61,1.25,.3,0,.69,0,1.14-.05,1-.04,1.8-.04,2.36-.04,3.69,0,5.69,2.64,5.69,7.59,0,5.2-2.5,8.09-7,8.09-3.14,0-6.55-1.68-6.55-3.25,0-.43,.11-.54,1.05-1.09,1.4-.84,1.95-1.7,1.95-2.95,0-1.8-1.34-3.14-3.14-3.14-2.16,0-3.56,1.75-3.56,4.39,0,4.86,4.45,8.2,10.86,8.2,7.25,0,11.95-4,11.95-10.16,0-4.68-2.41-7.54-7.61-9"/><path d="M1208.69,88.49h-2.2l-.5,2.55c-.64,3.25-1.05,3.55-4.14,3.55h-11.21c3.46-3.6,4.6-4.64,7.8-7.14,4.55-3.5,6.5-5.25,7.66-6.75,1.59-2.21,2.39-4.41,2.39-6.86,0-5.7-4.7-9.75-11.25-9.75s-11.2,4.05-11.2,9.4c0,3.15,1.6,5.3,3.95,5.3,1.86,0,3.11-1.25,3.11-3.05,0-1.25-.71-2.4-1.75-2.85-1.86-.75-1.96-.85-1.96-1.5,0-.75,.5-1.9,1.21-2.75,1.25-1.55,3.29-2.4,5.64-2.4,4.15,0,6.61,2.55,6.61,6.75,0,3.71-1.75,7.05-5.91,11.46-3.7,3.89-6,6.34-6.84,7.29-1.81,2.1-2.71,3.25-4.91,6.15v1.4h22.55l.95-10.8m20.05-7.6c4.55-1.65,6.65-4.19,6.65-8.21,0-5.25-4-8.59-10.2-8.59-5.84,0-10.3,3.45-10.3,8,0,2.05,1.35,3.5,3.3,3.5,1.75,0,2.95-1.2,2.95-3,0-1.1-.4-1.75-1.54-2.55-.5-.36-.66-.55-.66-.9,0-1.4,2.91-2.9,5.75-2.9,3.6,0,5.5,2.25,5.5,6.5,0,4.65-1.9,7.1-5.45,7.1-.45,0-1.3-.05-2.05-.1-.4-.04-.8-.04-1.09-.04-1.06,0-1.61,.44-1.61,1.34,0,.85,.5,1.25,1.61,1.25,.29,0,.69,0,1.14-.05,1-.04,1.8-.04,2.36-.04,3.69,0,5.69,2.64,5.69,7.59,0,5.2-2.5,8.1-7,8.1-3.15,0-6.55-1.69-6.55-3.25,0-.44,.11-.55,1.05-1.1,1.4-.84,1.95-1.7,1.95-2.95,0-1.8-1.35-3.14-3.14-3.14-2.16,0-3.56,1.75-3.56,4.39,0,4.86,4.45,8.2,10.85,8.2,7.25,0,11.96-4,11.96-10.15,0-4.69-2.41-7.55-7.61-9"/></g></svg>