<?xml version="1.0" encoding="UTF-8"?><svg id="b" xmlns="http://www.w3.org/2000/svg" viewBox="0 0 2275.2 350.06"><g id="c"><line y1="114.17" x2="2275.2" y2="114.17" fill="none" stroke="#000" stroke-linejoin="bevel" stroke-width="2.73"/><line y1="138.97" x2="2275.2" y2="138.97" fill="none" stroke="#000" stroke-linejoin="bevel" stroke-width="2.73"/><line y1="163.77" x2="2275.2" y2="163.77" fill="none" stroke="#000" stroke-linejoin="bevel" stroke-width="2.73"/><line y1="188.57" x2="2275.2" y2="188.57" fill="none" stroke="#000" stroke-linejoin="bevel" stroke-width="2.73"/><line y1="213.37" x2="2275.2" y2="213.37" fill="none" stroke="#000" stroke-linejoin="bevel" stroke-width="2.73"/><path d="M160.2,219.07c212.4,119.58,1319.23,168.45,1549.52,78.62-230.7,97.76-1337.53,48.88-1549.52-78.62" fill-rule="evenodd" stroke="#000" stroke-linecap="round" stroke-linejoin="round" stroke-width="1.24"/><line x1="2259.33" y1="112.81" x2="2259.33" y2="214.73" fill="none" stroke="#000" stroke-linejoin="bevel" stroke-width="4.46"/><line x1="2272.97" y1="112.81" x2="2272.97" y2="214.73" fill="none" stroke="#000" stroke-linejoin="bevel" stroke-width="4.46"/><line x1="1010.78" y1="112.81" x2="1010.78" y2="214.73" fill="none" stroke="#000" stroke-linejoin="bevel" stroke-width="4.46"/><line x1="1857.92" y1="112.81" x2="1857.92" y2="214.73" fill="none" stroke="#000" stroke-linejoin="bevel" stroke-width="4.46"/><line x1="784.25" y1="262.97" x2="832.85" y2="262.97" fill="none" stroke="#000" stroke-linejoin="bevel" stroke-width="3.97"/><line x1="784.25" y1="238.17" x2="832.85" y2="238.17" fill="none" stroke="#000" stroke-linejoin="bevel" stroke-width="3.97"/><line x1="1685.42" y1="262.97" x2="1734.02" y2="262.97" fill="none" stroke="#000" stroke-linejoin="bevel" stroke-width="3.97"/><line x1="1685.42" y1="238.17" x2="1734.02" y2="238.17" fill="none" stroke="#000" stroke-linejoin="bevel" stroke-width="3.97"/><line x1="607.31" y1="184.6" x2="607.31" y2="114.19" fill="none" stroke="#000" stroke-linejoin="bevel" stroke-width="2.48"/><line x1="715.37" y1="221.8" x2="715.37" y2="116.25" fill="none" stroke="#000" stroke-linejoin="bevel" stroke-width="2.48"/><line x1="823.42" y1="271.4" x2="823.42" y2="118.3" fill="none" stroke="#000" stroke-linejoin="bevel" stroke-width="2.48"/><line x1="499.25" y1="159.8" x2="499.25" y2="95.59" fill="none" stroke="#000" stroke-linejoin="bevel" stroke-width="2.48"/><line x1="391.19" y1="184.6" x2="391.19" y2="97.64" fill="none" stroke="#000" stroke-linejoin="bevel" stroke-width="2.48"/><line x1="931.48" y1="221.8" x2="931.48" y2="120.35" fill="none" stroke="#000" stroke-linejoin="bevel" stroke-width="2.48"/><line x1="1046.49" y1="192.74" x2="1046.49" y2="250.52" fill="none" stroke="#000" stroke-linejoin="bevel" stroke-width="2.48"/><line x1="1154.55" y1="167.94" x2="1154.55" y2="246.42" fill="none" stroke="#000" stroke-linejoin="bevel" stroke-width="2.48"/><line x1="1262.61" y1="143.14" x2="1262.61" y2="242.32" fill="none" stroke="#000" stroke-linejoin="bevel" stroke-width="2.48"/><line x1="1370.67" y1="167.94" x2="1370.67" y2="238.22" fill="none" stroke="#000" stroke-linejoin="bevel" stroke-width="2.48"/><line x1="1508.48" y1="184.6" x2="1508.48" y2="114.24" fill="none" stroke="#000" stroke-linejoin="bevel" stroke-width="2.48"/><line x1="1616.54" y1="221.8" x2="1616.54" y2="120.3" fill="none" stroke="#000" stroke-linejoin="bevel" stroke-width="2.48"/><line x1="1724.6" y1="271.4" x2="1724.6" y2="163.77" fill="none" stroke="#000" stroke-linejoin="bevel" stroke-width="2.48"/><line x1="283.13" y1="221.8" x2="283.13" y2="99.7" fill="none" stroke="#000" stroke-linejoin="bevel" stroke-width="2.48"/><line x1="175.07" y1="184.6" x2="175.07" y2="101.75" fill="none" stroke="#000" stroke-linejoin="bevel" stroke-width="2.48"/><path d="M144.08,192.74c0,4.26,3.07,9.02,11.11,9.02,10.31,0,21.13-8.43,21.13-17.16,0-5.86-4.96-9.13-11.11-9.13-9.63,0-21.13,8.14-21.13,17.27"/><path d="M252.14,229.94c0,4.26,3.07,9.02,11.11,9.02,10.31,0,21.13-8.43,21.13-17.16,0-5.86-4.96-9.13-11.11-9.13-9.63,0-21.13,8.14-21.13,17.27"/><path d="M360.2,192.74c0,4.26,3.07,9.02,11.11,9.02,10.31,0,21.13-8.43,21.13-17.16,0-5.86-4.96-9.13-11.11-9.13-9.63,0-21.13,8.14-21.13,17.27"/><path d="M468.26,167.94c0,4.26,3.07,9.02,11.11,9.02,10.31,0,21.13-8.43,21.13-17.16,0-5.86-4.96-9.13-11.11-9.13-9.63,0-21.13,8.14-21.13,17.27"/><path d="M576.32,192.74c0,4.26,3.07,9.02,11.11,9.02,10.31,0,21.13-8.43,21.13-17.16,0-5.86-4.96-9.13-11.11-9.13-9.63,0-21.13,8.14-21.13,17.27"/><path d="M684.37,229.94c0,4.26,3.07,9.02,11.11,9.02,10.31,0,21.13-8.43,21.13-17.16,0-5.86-4.96-9.13-11.11-9.13-9.63,0-21.13,8.14-21.13,17.27"/><path d="M792.43,279.54c0,4.26,3.07,9.02,11.11,9.02,10.31,0,21.13-8.43,21.13-17.16,0-5.86-4.96-9.13-11.11-9.13-9.63,0-21.13,8.14-21.13,17.27"/><path d="M900.49,229.94c0,4.26,3.07,9.02,11.11,9.02,10.31,0,21.13-8.43,21.13-17.16,0-5.86-4.96-9.13-11.11-9.13-9.63,0-21.13,8.14-21.13,17.27"/><path d="M1045.25,192.74c0,4.26,3.07,9.02,11.11,9.02,10.31,0,21.13-8.43,21.13-17.16,0-5.86-4.96-9.13-11.11-9.13-9.63,0-21.13,8.14-21.13,17.27"/><path d="M1153.31,167.94c0,4.26,3.07,9.02,11.11,9.02,10.31,0,21.13-8.43,21.13-17.16,0-5.86-4.96-9.13-11.11-9.13-9.63,0-21.13,8.14-21.13,17.27"/><path d="M1261.37,143.14c0,4.26,3.07,9.02,11.11,9.02,10.31,0,21.13-8.43,21.13-17.16,0-5.86-4.96-9.13-11.11-9.13-9.63,0-21.13,8.14-21.13,17.27"/><path d="M1369.43,167.94c0,4.26,3.07,9.02,11.11,9.02,10.31,0,21.13-8.43,21.13-17.16,0-5.86-4.96-9.13-11.11-9.13-9.63,0-21.13,8.14-21.13,17.27"/><path d="M1477.49,192.74c0,4.26,3.07,9.02,11.11,9.02,10.31,0,21.13-8.43,21.13-17.16,0-5.86-4.96-9.13-11.11-9.13-9.63,0-21.13,8.14-21.13,17.27"/><path d="M1585.55,229.94c0,4.26,3.07,9.02,11.11,9.02,10.31,0,21.13-8.43,21.13-17.16,0-5.86-4.96-9.13-11.11-9.13-9.63,0-21.13,8.14-21.13,17.27"/><path d="M1693.6,279.54c0,4.26,3.07,9.02,11.11,9.02,10.31,0,21.13-8.43,21.13-17.16,0-5.86-4.96-9.13-11.11-9.13-9.63,0-21.13,8.14-21.13,17.27"/><path d="M30.8,239.46c0,6.56,4.96,15.19,18.35,15.19,4.67,0,8.74-1.19,12.31-3.38,5.36-3.77,6.74-10.32,6.74-16.57,0-3.86-.59-8.32-1.58-13.98-.29-1.98-.9-4.96-1.49-8.84,9.72-3.18,16.96-13.3,16.96-23.51,0-14.97-10.62-25.09-25.09-25.09-.99-5.95-1.98-11.81-2.77-17.36,10.42-11.02,17.65-23.42,17.65-39.18,0-9.04-2.77-16.37-4.37-19.95-2.37-5.05-5.25-8.53-7.04-8.53-.7,0-3.77,1.19-7.04,5.05-6.36,7.55-8.14,20.24-8.14,28.57,0,5.36,.5,10.23,2.19,21.34-.11,.09-5.27,5.35-7.35,7.04-9.04,8.34-21.53,20.43-21.53,40.28,0,18.54,16.17,33.12,34.63,33.12,2.87,0,5.55-.29,7.83-.7,1.89,9.53,3.08,16.48,3.08,21.73,0,10.32-5.36,15.78-15.38,15.78-2.39,0-4.46-.5-4.67-.5-.09-.11-.29-.2-.29-.29,0-.2,.2-.31,.5-.31,4.67-.79,9.32-4.76,9.32-11.1,0-5.36-4.06-11.02-11.5-11.02-6.94,0-11.31,5.66-11.31,12.2M51.54,107.02c.9-3.97,5.46-14.38,10.62-14.38,1.49,0,3.86,4.76,3.86,11.7,0,10.32-7.63,18.06-14.48,24.8-.59-3.97-1.08-7.83-1.08-12,0-3.67,.29-7.05,1.08-10.12m8.73,101.97c-1.98,.4-3.86,.6-5.75,.6-14.18,0-26.29-9.92-26.29-24.91,0-12.09,8.53-22.91,17.27-30.46,1.67-1.49,3.27-2.87,4.76-4.36,.88,5.35,1.58,10.01,2.28,14.09-9.04,2.68-15.17,12.2-15.17,21.53,0,6.94,5.46,16.46,13.39,16.46,.79,0,1.69-.4,1.69-1.29s-.99-1.39-2.19-2.19c-3.88-2.39-6.06-4.96-6.06-9.83,0-6.05,4.57-10.91,10.32-12.29l5.75,32.63m14.09-18.35c0,7.05-2.88,14.29-9.92,17.17-2.08-11.9-4.76-27.68-5.46-32.05,8.93,0,15.38,6.06,15.38,14.88"/><path d="M2043.91,138.47c-.81,0-1.4,.59-1.4,1.4v10.71c0,.79,.59,1.38,1.4,1.38h29.47c.79,0,1.38-.59,1.38-1.38v-10.71c0-.81-.59-1.4-1.38-1.4h-29.47"/><path d="M182.92,59.42c-9.32-10.12-17.56-10.71-22.71-10.71s-13.3,.59-22.63,10.71c-4.85,5.36-8.23,15.97-8.23,21.33,0,1.89,.4,3.18,1.4,3.18,2.77,0,1.38-8.54,9.72-16.97,7.33-7.33,17.16-7.44,19.55-7.44h.39c2.39,0,12.21,.11,19.55,7.44,8.34,8.43,6.94,16.97,9.72,16.97,.99,0,1.39-1.19,1.39-3.18,0-5.36-3.27-16.07-8.14-21.33m-29.56,18.94c0,3.78,3.07,6.85,6.85,6.85s6.84-3.07,6.84-6.85-3.07-6.84-6.84-6.84-6.85,3.07-6.85,6.84"/><path d="M1516.33,72.25c-9.32-10.12-17.56-10.71-22.71-10.71s-13.3,.59-22.63,10.71c-4.85,5.36-8.23,15.97-8.23,21.33,0,1.89,.4,3.18,1.4,3.18,2.77,0,1.38-8.54,9.72-16.97,7.33-7.33,17.16-7.44,19.55-7.44h.39c2.39,0,12.21,.11,19.55,7.44,8.34,8.43,6.94,16.97,9.72,16.97,.99,0,1.39-1.19,1.39-3.18,0-5.36-3.27-16.07-8.14-21.33m-29.56,18.94c0,3.78,3.07,6.85,6.85,6.85s6.84-3.07,6.84-6.85-3.07-6.84-6.84-6.84-6.85,3.07-6.85,6.84"/><path d="M615.16,72.26c-9.32-10.12-17.56-10.71-22.71-10.71s-13.3,.59-22.63,10.71c-4.85,5.36-8.23,15.97-8.23,21.33,0,1.89,.4,3.18,1.4,3.18,2.77,0,1.38-8.54,9.72-16.97,7.33-7.33,17.16-7.44,19.55-7.44h.39c2.39,0,12.21,.11,19.55,7.44,8.34,8.43,6.94,16.97,9.72,16.97,.99,0,1.39-1.19,1.39-3.18,0-5.36-3.27-16.07-8.14-21.33m-29.56,18.94c0,3.78,3.07,6.85,6.85,6.85s6.84-3.07,6.84-6.85-3.07-6.84-6.84-6.84-6.85,3.07-6.85,6.84"/><path d="M1732.45,75.98c-9.32-10.12-17.56-10.71-22.71-10.71s-13.3,.59-22.63,10.71c-4.85,5.36-8.23,15.97-8.23,21.33,0,1.89,.4,3.18,1.4,3.18,2.77,0,1.38-8.54,9.72-16.97,7.33-7.33,17.16-7.44,19.55-7.44h.39c2.39,0,12.21,.11,19.55,7.44,8.34,8.43,6.94,16.97,9.72,16.97,.99,0,1.39-1.19,1.39-3.18,0-5.36-3.27-16.07-8.14-21.33m-29.56,18.94c0,3.78,3.07,6.85,6.85,6.85s6.84-3.07,6.84-6.85-3.07-6.84-6.84-6.84-6.85,3.07-6.85,6.84"/><path d="M173.83,95.57l326.66-6.2v12.4l-326.66,6.2v-12.4" fill-rule="evenodd"/><path d="M1507.24,107.96l110.54,6.2v12.42l-110.54-6.2v-12.42" fill-rule="evenodd"/><path d="M1045.25,244.37l326.66-12.4v12.41l-326.66,12.4v-12.41" fill-rule="evenodd"/><path d="M606.07,107.97l326.65,6.2v12.4l-326.65-6.2v-12.4" fill-rule="evenodd"/><path d="M155.18,0c-1.69,2.05-6.3,3.59-10.89,3.7v2.14h4.39c2.91,.07,3.2,.36,3.11,3.16V29.05c0,2.56,0,2.65-.3,3.11-.41,.5-1.36,.7-4.16,.7h-3.25v2.34h19.8v-2.34h-2.75c-2.8,0-3.75-.2-4.14-.7-.36-.46-.36-.5-.36-3.11V8.41c0-2.82,.11-5.16,.36-8.41h-1.81m29.2,16.8c4.55-1.64,6.66-4.19,6.66-8.21,0-5.25-4-8.59-10.2-8.59-5.84,0-10.3,3.45-10.3,8,0,2.05,1.34,3.5,3.3,3.5,1.75,0,2.95-1.2,2.95-3,0-1.09-.41-1.75-1.55-2.55-.5-.36-.66-.54-.66-.9,0-1.39,2.91-2.89,5.75-2.89,3.59,0,5.5,2.25,5.5,6.5,0,4.64-1.91,7.09-5.45,7.09-.45,0-1.3-.05-2.05-.09-.41-.05-.8-.05-1.09-.05-1.06,0-1.61,.44-1.61,1.34,0,.85,.5,1.25,1.61,1.25,.3,0,.69,0,1.14-.04,1-.05,1.8-.05,2.36-.05,3.69,0,5.69,2.64,5.69,7.59,0,5.21-2.5,8.1-7,8.1-3.14,0-6.55-1.69-6.55-3.25,0-.44,.11-.55,1.05-1.1,1.41-.84,1.95-1.7,1.95-2.95,0-1.8-1.34-3.14-3.14-3.14-2.16,0-3.56,1.75-3.56,4.39,0,4.86,4.45,8.2,10.86,8.2,7.25,0,11.95-4,11.95-10.15,0-4.69-2.41-7.55-7.61-9"/></g></svg>